<?xml version="1.0" encoding="utf-8"?>
<!-- Generator: Adobe Illustrator 21.1.0, SVG Export Plug-In . SVG Version: 6.00 Build 0)  -->
<svg version="1.1" id="Camada_1" xmlns="http://www.w3.org/2000/svg" xmlns:xlink="http://www.w3.org/1999/xlink" x="0px" y="0px"
	 viewBox="0 0 1030 1030" style="enable-background:new 0 0 1030 1030;" xml:space="preserve">
<style type="text/css">
	.st0{clip-path:url(#SVGID_2_);}
	.st1{fill:#FFBF1F;}
	.st2{fill:#FC9E17;}
	.st3{fill:#D8724A;}
	.st4{fill:#61E9FF;}
	.st5{fill:#AF543F;}
	.st6{fill:#08B5F9;}
	.st7{fill:#FFFFFF;}
	.st8{fill:#FFEE73;}
</style>
<g>
	<g>
		<defs>
			<circle id="SVGID_1_" cx="515" cy="515" r="505.4"/>
		</defs>
		<use xlink:href="#SVGID_1_"  style="overflow:visible;fill:#FFBF1F;"/>
		<clipPath id="SVGID_2_">
			<use xlink:href="#SVGID_1_"  style="overflow:visible;"/>
		</clipPath>
		<g class="st0">
			<g>
				<circle class="st1" cx="516" cy="517.2" r="505.4"/>
			</g>
			<g>
				<g>
					<path class="st2" d="M64.6,301.3c65.7-60.8,147.5-101.4,226.2-142.4c40.8-21.3,80.7-43.7,120.5-66.9
						c43.2-25.1,87.5-49.6,136.1-62.6c-1-12.6-1.9-25.1-2.9-37.7c-75,71.2-162.5,127-247.9,184.6c-44,29.7-87.4,60-129.2,92.7
						c-20,15.7-39.1,32.3-60,46.8C85.6,331,63,344.8,40.8,359.3C20.4,372.7,0.4,387-18.1,403c-7.1,6.1-11.7,17.2-11,26.5
						c0.5,7.2,5.9,14,13.8,11.2c98.2-34.4,184.3-95.7,268.7-154.9c42.2-29.6,84.3-59.4,128.1-86.5c20-12.3,40.2-24.1,59.9-37.1
						c21-13.9,41.8-28.2,63-42c37.4-24.3,76.5-48.1,120-59.3c-2.2-11.1-4.5-22.2-6.7-33.4c-3.6,4.5-12,11.3-19,15.9
						c-10,6.7-20.6,12.4-31.2,18.2c-23,12.7-45.1,27.2-67.6,40.9c-51.3,31.3-102.5,62.8-153.9,94.1
						c-51.1,31.2-102.3,62.2-153.8,92.8c-45.8,27.3-92.2,53.6-137.7,81.4c-57.2,35-113.6,73.2-161.3,120.6
						c-6.8,6.8-11.7,16.7-11,26.5c0.6,7.4,5.9,13.8,13.8,11.2c51.9-16.9,99.8-43.6,147.5-69.6c50.3-27.4,102.2-51.8,153.6-76.9
						c106.7-52.2,213.5-104.2,320-156.9c43.6-21.6,87.4-42.3,128.7-68.1c37-23,73.7-49,115.5-62.5c-1-12.6-1.9-25.1-2.9-37.7
						c-32.5,34.5-76.6,55.1-117.2,78.3c-50,28.5-97.5,62.3-145.7,93.8c-48.7,31.7-97.6,62.7-143.5,98.4
						c-36.3,28.2-71.6,58.5-113.4,78.3C167,440.3,75.4,461.8,37.6,541.3c-3.1,6.5-5.4,14.3-2.9,21.4c1.7,5,7.5,9.1,12.9,6.6
						C147.7,523.2,241.1,464.9,335,407.7c46.5-28.4,93.3-56.3,141.2-82.2c49.1-26.5,100.2-49,149.9-74.5
						c51.2-26.3,101.3-54.7,151.1-83.4c-1-13-2-26-3-39c-89.5,66.3-184.8,124-280.2,181.3C398.7,367,304.3,424.9,213.1,488.5
						c-64.8,45.1-142.4,71.6-192.2,136c-8.8,11.4-11.1,42.2,11,31.4c208.2-102.2,408.9-218.6,611.7-331
						c81.1-44.9,162.6-89.2,245-131.7c-1-13-2-26-3-39C684.8,269.9,489.9,395.9,300.1,528.9c-76.9,53.9-153,109-228.3,165
						c-9.2,6.8-16.1,17.9-15.2,29.8c0.7,9.7,9.6,15.2,18.1,9.2c43.6-30.7,91-55.5,138-80.6c48.9-26.1,96.4-54,143.5-83.2
						C454,508.3,549.8,443.3,652,389.9c79.9-41.8,155.4-91.7,236.6-131c-2.4-11.9-4.8-23.8-7.1-35.8
						C726.4,362.8,546,469.9,368.3,577.8c-93.4,56.7-186.8,113.7-276.6,176.2c-9.3,6.5-16,18.1-15.2,29.8
						c0.8,10.5,9.3,14.2,18.1,9.2c202.5-113.4,408.1-221.2,609.1-337.3c82.6-47.7,164.4-96.8,244.8-148.2
						c-3.7-10.5-7.3-20.9-11-31.4c-5,7.5-10.4,14.7-16.1,21.7c-5,6.1-10.8,12.3-18.4,19.7c-14.1,13.9-29.7,26.8-45.1,38.3
						c-35.4,26.3-73.6,48.7-112.1,70.1c-37.4,20.8-75.6,40.3-113.1,60.9c-42.6,23.4-83.6,49.7-124.6,75.8
						c-65.3,41.8-130.4,84.8-199,121.2c-60.1,31.9-124.1,59.2-173.2,107.7c-6.8,6.8-11.7,16.7-11,26.5c0.6,8.2,5.8,12.8,13.9,11.2
						c27.1-5.3,51.9-18,75.6-31.8c24.9-14.4,49.7-28.8,74.5-43.2c51-29.5,101.7-59.4,152.2-89.8c49.5-29.8,100-58,150.7-85.8
						c50.4-27.7,102.1-51.9,153.7-77.3c67.3-33.1,131.1-72.7,197.2-108.2c-3.7-10.5-7.3-20.9-11-31.4c-5.5,7.2-9.1,10.8-17,18.1
						c-7.8,7.1-16,13.3-24.5,19.4c-18.8,13.3-38.7,25.1-58.6,36.7c-43.2,25.2-85.1,51.8-126.2,80.3C613.5,579.8,524.8,648,433,712
						c-62.6,43.7-127,85.4-195.6,119.1c1,13,2,26,3,39c48.3-27.5,98.7-51.1,148.2-76.4c25.1-12.8,49.9-26.2,74.1-40.6
						c24.2-14.4,46.9-30.9,69.8-47.2c23.3-16.5,46.6-33,70.6-48.5c23.5-15.2,48.1-28.5,72.5-42.1c48.8-27,97.9-53.5,146.3-81.2
						c61.4-35.2,121.5-72.7,178.1-115.3c-3.7-10.5-7.3-20.9-11-31.4c-60,69.8-146.1,119.6-225.5,166.9
						c-91.1,54.3-181,110.7-269.4,169.2c-41.2,27.3-81.4,55.9-121.2,85.1c-39.4,28.9-79,57.7-121.2,82.3c-9.6,5.6-16,18.8-15.2,29.8
						c0.8,11.1,9.2,13.5,18.1,9.2c101-48.1,196.1-107.1,291.2-165.5c47.8-29.4,95.7-58.6,144.4-86.5c47.7-27.2,96.6-52,145.6-76.7
						c75-37.7,150.2-76.1,218.4-125.4c-2.4-11.9-4.8-23.8-7.1-35.8c-33.6,33.2-76.1,55.6-117.9,76.7
						c-45.1,22.8-89.4,46.2-133.6,70.7c-99.3,54.9-199.1,109-295.4,169.2c-39.7,24.8-79.2,50.2-116.2,79
						c-32.5,25.3-64.6,53.3-102.4,70.4c-9,4.1-15,11.3-18,20.8c-1.9,5.9-3,24.2,8.3,22.7c45.4-6.1,87.7-22.9,128.7-42.8
						c43.9-21.3,85.8-46.6,127.6-71.9c92.4-55.8,189-103.6,284.8-153.2c31-16,61.8-32,92.1-49.3c29.7-17,59.5-34,89.2-51
						c9.6-5.5,16-18.9,15.2-29.8c-0.8-10.6-9.3-14.1-18.1-9.2c-104.2,57.7-206.9,118.1-308.8,179.7
						c-51.1,30.9-102.1,62.2-152.9,93.6c-44.7,27.6-85.5,60.6-129.6,89.2c-21.2,13.8-43.3,26.5-67,35.3c-0.4,13.7-0.9,27.3-1.3,41
						C503.6,874.1,701.9,821,881,728.1c47.3-24.5,93.1-52.1,136.1-83.6c9.2-6.8,16.1-17.9,15.2-29.8c-0.8-10-9.5-14.9-18.1-9.2
						c-189.9,124-375.5,255.3-574.3,365c-19.8,10.9-39.7,21.5-59.7,32c2.4,11.9,4.8,23.8,7.1,35.8c73.3-58.3,162.9-93,248.3-129.3
						c45-19.1,89.8-38.7,132.9-61.8c22.3-12,44.5-24.2,66-37.5c23.5-14.6,46.6-29.8,71.2-42.2c-4.8-8.7-9.5-17.3-14.3-26
						c-3.3,5.6,2.8-4.3-0.8,1.3c-1.1,1.7-2.3,3.3-3.4,4.9c-1.2,1.7-2.5,3.3-3.7,4.9c-0.2,0.3-4.7,5.5-1.6,2
						c-6.4,7.2-13.6,13.8-20.9,20.2c-14.3,12.4-31.2,23.7-48.1,34.5c-35.6,22.7-73.1,42.2-109,64.4c-39.9,24.6-76.5,54.4-114.2,82.1
						c-42.5,31.3-86,61.8-133.5,85.1c-8.5,4.2-17.2,7.8-26,11.3c1,12.6,1.9,25.1,2.9,37.7c61.7-53.3,143.9-80.5,220.3-108.3
						c80.8-29.4,162.9-61.5,226.8-121c7.5-7,14.5-14.4,21.3-22c7.2-8.1,14-19.9,10.1-31.1c-3.5-10-15.5-8.1-21.4-1.4
						c-114.2,129.4-307.7,132-443.1,231.2c-8.7,6.4-17.1,13.1-25.3,20.1c-7.1,6.1-11.7,17.2-11,26.5c0.5,7,6,14.3,13.9,11.2
						c97.1-38.1,176.1-109,260.5-168.2c67-47,147.9-76.4,205.3-136.6c10.4-10.9,19.2-22.6,26.8-35.7c7.1-12.3,4.1-35.3-14.3-26
						c-23.7,12-46,26.4-68.4,40.5c-22.4,14-45.6,26.7-68.8,39.3c-42,22.7-86,41.6-129.9,60.2c-90.2,38.4-182.2,75.8-259.6,137.4
						c-7.2,5.7-11.7,17.5-11,26.5c0.8,10.8,9.3,13.8,18.1,9.2c201.6-104.9,388.6-234.8,577.8-360c18.7-12.4,37.4-24.7,56.2-36.9
						c-1-13-2-26-3-39c-164.1,120.3-362.5,177-545,261.9c-48.1,22.4-95.3,47-140.4,75.1c-8.2,5.1-13.8,15-15,24.5
						c-1,8.1,3,20.4,13.7,16.5c48.7-18,91.2-49,132.9-79.1c45.1-32.5,91.9-61.6,139.3-90.6c101.8-62.4,204.2-124,307.9-183.3
						c28.8-16.5,57.7-32.7,86.7-48.8c-1-13-2-26-3-39c-51.5,29.5-102.7,59.6-155.4,86.9c-53.8,27.8-107.6,55.6-161.3,83.4
						c-43.9,22.7-87.3,45.8-129.7,71.2c-41.8,25.1-83.3,50.7-126.5,73.3c-41.2,21.5-86,41.9-132.5,48.1c-3.2,14.5-6.5,29-9.7,43.5
						c47.5-21.5,85.9-55.8,127.2-86.8c44.6-33.5,93-62.7,140.7-91.6c97-58.6,197-111.9,295.9-167.1c73.6-41.1,157.6-70.7,218.6-131
						c6.8-6.8,11.7-16.7,11-26.5c-0.7-9.6-9.6-15.4-18.1-9.2c-88.6,64.1-188.6,109.5-285.5,159.4C666.4,647.5,572.2,707.9,476.7,766
						c-73.3,44.6-147.5,88.1-225.1,125c1,13,2,26,3,39c49.2-28.6,94.7-62.9,140.5-96.5c46.5-34,94.1-66.2,142.5-97.5
						c87-56.2,175.3-110,263.9-163.8C876.3,527,950.6,478,1008,411.2c5.7-6.6,9.1-18.3,6.2-26.8c-2.6-7.4-11.1-9.2-17.2-4.6
						C907.4,447.4,809,501.5,710.8,555.3c-49.3,27.1-98.4,53.9-144.8,85.9c-23.4,16.1-46.3,32.8-69.5,49.1
						c-23.1,16.2-47.4,30.4-72.2,44c-61.6,33.7-125.9,62.1-187,96.8c-9.6,5.5-16,18.9-15.2,29.8c0.8,11,9.2,13.6,18.1,9.2
						c98.9-48.5,189-113.2,277.8-177.9c89.3-65.1,177.7-132.9,271.8-191c55.5-34.3,120.4-62.6,161-115.6c5.4-7,9.3-18,6.2-26.8
						c-2.8-8.2-10.7-8.1-17.2-4.6c-49.3,26.5-97.4,55.1-146.6,81.9c-49.9,27.2-102,49.7-152.4,75.8
						C537.6,565.5,438.3,626.2,338,685.1c-32.3,18.9-64.7,37.7-97.1,56.3c-30.9,17.7-60.7,38-96.3,44.9c1,12.6,1.9,25.1,2.9,37.7
						c33.8-33.4,76.2-55.7,118-77.2c45.7-23.4,90.2-48,134.1-74.7c87.6-53.2,171.7-111.9,262.1-160.4c55-29.5,110.5-58,163-91.9
						c49.7-32.2,98.9-70.2,132-120c5-7.6,9.4-17.6,6.2-26.8c-2.7-7.8-10.9-8.7-17.2-4.6C749.7,393.5,545.7,505.1,341.8,616.3
						c-83.5,45.6-167.1,91.1-250.1,137.6c1,13,2,26,3,39C265.6,674,449.1,574.5,622.9,460c94.3-62.1,185.9-128.8,269.8-204.4
						c7-6.3,11.7-17,11-26.5c-0.8-11-9.2-13.5-18.1-9.2c-51.2,24.8-100.3,53.8-149.5,82.4c-49.6,28.8-100.7,55-150.3,83.7
						C486.1,443.7,390.6,508.1,292,567.6C219.5,611.3,141.1,645.1,71.7,694c1,13,2,26,3,39c185-137.7,374.6-269.3,569.7-392.4
						c80.4-50.7,161.8-99.9,244.2-147.4c9.6-5.5,16-18.9,15.2-29.8c-0.8-10.8-9.3-13.8-18.1-9.2C679.5,260.4,479.4,378,275.7,488.7
						C194.2,532.9,112.1,576,28.9,616.8c3.7,10.5,7.3,20.9,11,31.4c25.8-33.3,66.3-56.5,103.8-77.6c19.9-11.2,39.9-22.2,59.2-34.4
						c21.9-13.9,42.7-29.7,64.2-44.2c92.4-62.5,189-118.3,284.3-176c77.1-46.7,153.4-94.9,225.8-148.5c9.2-6.8,16.1-17.9,15.2-29.8
						c-0.8-10.4-9.3-14.3-18.1-9.2c-48.9,28.2-98,55.9-148.1,81.9c-49.6,25.7-100.8,48.2-150,74.6c-96.3,51.6-187.6,112-282,166.9
						c-45.9,26.7-92.7,52.3-141,74.5c3.3,9.3,6.7,18.7,10,28c0.9-2,1.9-3.9,2.9-5.9c0.3-0.5,3.9-6.7,1.1-2.1
						c2.3-3.7,4.8-7.1,7.5-10.5c0.2-0.2,4.7-5.6,1.7-2.2c1.4-1.6,2.9-3.2,4.5-4.7c3.6-3.6,7.4-7,11.2-10.3c4.8-4,12.2-9.1,19.4-13.6
						c8.5-5.3,17.3-10,26.2-14.5c34.5-17.3,71.2-29.7,106.1-46.2c43.1-20.4,79.8-52.7,117.2-81.8c44.8-34.9,93.1-64.9,140.7-95.9
						c48-31.3,95.3-64.8,145.1-93.2c42.9-24.5,88.7-46.9,123.1-83.4c6.7-7.1,11.7-16.5,11-26.5c-0.6-7.4-5.9-13.8-13.9-11.2
						c-49.9,16.2-93.2,47.8-137.6,74.9c-48.9,29.8-102,53.3-153.4,78.6c-106.7,52.6-213.7,104.6-320.5,156.9
						c-43.4,21.3-86.6,42.5-129,65.7c-40.4,22-80.9,43.7-124.8,58c1,12.6,1.9,25.1,2.9,37.7c72.2-71.7,163.5-120.6,250.5-171.8
						c103.4-60.8,205.5-123.6,307.8-186.2c31.8-19.5,63.3-39.9,95.5-58.6c28.1-16.4,57.4-30.2,78.3-56.1C643.5,43,650,12.9,630,18
						c-47.4,12.2-90.5,38.5-131.1,64.9c-21.1,13.7-41.8,28.1-62.8,41.9c-19.6,13-39.9,24.7-59.9,37
						c-88.9,54.9-170.6,120.6-260,174.7c-40,24.2-81.6,45.8-125.7,61.3c1,12.6,1.9,25.1,2.9,37.7c39.1-33.9,85.6-57.9,127.5-88
						c21.2-15.2,40.6-32.5,61.2-48.5c20.6-16,41.8-31.3,63.1-46.3c86.1-60.5,176-115.5,257.8-182c18.2-14.8,35.9-30.3,53-46.5
						c6.9-6.6,11.7-16.9,11-26.5c-0.6-7.7-5.8-13.3-13.9-11.2c-49.3,13.2-94.8,37.8-138.8,63.1c-41,23.6-81.8,47-123.7,68.8
						c-82.9,43.2-168,86.3-237.2,150.3c-7.8,7.2-13.7,20.6-10.1,31.1C46.9,310.6,58.2,307.2,64.6,301.3L64.6,301.3z"/>
				</g>
			</g>
		</g>
	</g>
	<g>
		<g>
			<path class="st3" d="M270.7,442.8c-12-11.4-30.1-26.6-48.1-19.4c-20.2,8.1-31,30.8-32.8,51.5c-2.2,25.4,8.2,75.3,44.2,65.3
				c14.7-4.1,26.5-17.5,35-29.5c5.9-8.3,12-23.4,4.6-32.8c-7.4-9.3-20.1,0.3-25,7.2c-1.5,2-3,4-4.6,6c-2.9,3.5,4.2-4.6,1.2-1.4
				c-0.7,0.8-1.4,1.5-2.2,2.2c-0.7,0.7-1.4,1.3-2.1,1.9c-2.9,2.5,4.7-3.5,1.7-1.4c-1.3,0.9-2.6,1.7-4,2.4c6.4-3.2,2.1-1,0.2-0.5
				c-2.7,0.7,4.8-0.5,2-0.2c-0.6,0.1-1.2,0-1.8,0c-1.7,0-5.7-1.3,0.2,0.4c-1.3-0.4-2.5-1-3.6-1.6c-3.7-2.1,0.4,0.5,0,0.2
				c-0.9-0.8-1.8-1.8-2.6-2.7c-0.8-1-1.6-2.1-2.3-3.2c-0.4-0.6-0.7-1.2-1.1-1.8c-1.4-2.4,2.3,4.6,0.5,0.8c-1.3-2.7-2.3-5.5-3.1-8.3
				c-0.4-1.5-0.8-3-1.1-4.5c-0.7-3.3,1,5.2,0.4,1.9c-0.2-1-0.3-2.1-0.5-3.1c-0.4-3.1-0.6-6.2-0.6-9.2c0-3.5-0.3,6.1-0.1,2.7
				c0-0.7,0.1-1.5,0.2-2.2c0.1-1.4,0.3-2.9,0.6-4.3c0.8-4.8-1.9,7.1-0.3,1.5c0.2-0.6,0.4-1.2,0.6-1.9c1.2-3.4-3.1,7.2-1.6,3.9
				c2.4-5.5-2.4,3.4-1.5,2.1c3-4.5-5.1,4.9-1.2,1.4c-5.6,5-4.4,3.3-2.8,2.2c1.3-0.9,4-1.9-2.7,1.1c1-0.5,2.1-0.7,3.2-0.9
				c-6.3,1.2-2.2,0.3-0.2,0.5c0.7,0,1.3,0.2,2,0.3c2.6,0.4-4.4-1.4-0.5-0.1c3.5,1.1,6.7,3,9.7,4.9c1.9,1.2,3.7,2.6,5.5,4
				c-3.3-2.6,0.2,0.2,0.7,0.6c1.4,1.2,2.8,2.5,4.1,3.8c8.6,8.1,19.2,0.6,25-7.2C271.4,468.5,279,450.8,270.7,442.8L270.7,442.8z"/>
		</g>
	</g>
	<path class="st3" d="M835.6,453.1c-1-4.4-2.6-8.5-4.6-12.3c0.9-5.7,0.3-11.4-3-15.5c-3.4-4.3-7.7-4.6-11.9-3.1
		c-6.6-5.8-14.2-10.6-22-14.3c-12.6-6-26.8,11.5-29.7,26.8c-4.4,4.3-8.3,8.8-11.3,12.4c-6.3,7.9-11.8,23.8-4.6,32.8
		c7.7,9.6,19.8-0.7,25-7.2c0.3-0.3,1.1-1.3,1.7-2c0.9-0.9,1.8-1.8,2.7-2.6c0.1,1.8,0.3,3.4,0.7,4.9c0.6,2.4,0.8,3.2,1,5.3
		c-0.8,0.5-1.8,0.9-3.3,1.7c-5.8,3.1-11.8,10.9-14.9,19.3c-14.4,11.8-22.4,43-4.1,43c6.4,0,12.4-4.7,17.1-11.2
		c11.3,7.5,24.5,8.9,35.9-3.9c4.6-5.2,8.3-10.9,11.1-16.9C833.5,493.8,840.3,473.7,835.6,453.1z M779.9,480.6
		c-0.1,0.1-0.1,0.3-0.2,0.5C779.8,480.9,779.9,480.7,779.9,480.6C779.9,480.5,779.9,480.5,779.9,480.6z"/>
	<g>
		<g>
			<path class="st4" d="M765.9,938.8c-8.5-34.5-22.8-67.8-42.6-96.9c-7.7-15.8-17.4-30.7-27.6-44.2c-28.4-37.6-66.5-62.4-112.8-71.7
				c-47.6-9.5-97.3-1.7-144.4,6.9c-42.1,7.6-87.4,12.7-122.7,39.1c-12.4,9.3-22.4,20.2-30.6,32.3c-5.7,5.6-11,11.7-15.9,18.3
				c-22.7,30.7-31.5,68.1-32.2,105.6c-0.5,0.9-0.9,1.8-1.3,2.8c9.7,8.3,19.5,16.5,29.5,24.4c7.2,5.5,14.5,10.9,21.9,16.1
				c9,3.4,18,6.6,27.2,9.6c45.2,14.9,91.6,25.8,137.4,38.6c47.8-1,95.5,0.9,143.1-4.6c32.7-5.1,65.1-16.1,95.7-28.6
				c8.4-3.6,16.7-7.4,24.9-11.4c0.1-0.2,0.3-0.3,0.4-0.5c0.8-0.3,1.6-0.6,2.4-0.9c15.5-7.5,30.8-15.4,46-23.6
				C766.2,946.7,766.8,942.7,765.9,938.8z M721.1,934.4c-1.8,7.6-5,14.1-9.3,19.7c-29.5,10.3-59.7,18.1-90.8,22.7
				c-46.9,6.9-94.7,6.2-141.9,4.3c-40.6-1.6-81.3-4.2-121.3-11.8c-34.2-6.5-70.6-17.4-98-39.8c6.5-30.5,12.6-61.4,24.1-90.3
				c3.1-7.7,6.8-14.8,11.2-21.3c18.5-17.2,42-28.8,65.8-36.8c36.6-12.3,75.5-16.7,113.9-18.5c43.2-2,86.9-2.2,128,13
				c43.8,16.2,78.6,46.3,104,83.5c2.7,5.8,5.2,11.6,7.4,17.4C720.9,894.6,725.5,915.4,721.1,934.4z M734.2,945.7
				c2.6-6.7,4.4-13.9,5.4-21.6c2,5.7,3.9,11.4,5.6,17.1C741.6,942.8,737.9,944.3,734.2,945.7z"/>
		</g>
	</g>
	<g>
		<g>
			<path class="st4" d="M742.8,912c-9.1,1.8-18.1,4.1-27,6.7c6.4-9,11.4-18.9,14-29.8c3.3-13.6-1-30.3-18-21.7c-3,1.5-6,3.1-9,4.7
				c4.7-6.5,8.9-13.4,12.7-20.7c4.5-8.7,7.6-36.6-10.8-30.1c-16.8,5.9-32.9,13-48.6,20.9c4-4.7,8-9.4,11.8-14.3
				c5.9-7.4,9.9-19.5,6.7-28.8c-3-8.6-11.6-9.1-18.5-5c-11,6.5-21,14.1-30.7,22.2c6.3-9.3,12-19.1,16.7-29.4c3.2-7,5.8-15.3,3.1-23
				c-2.8-8.2-11.8-9.6-18.5-5c-19.4,13.4-39.6,25.4-60,37.1c4.2-7.6,7.7-15.7,10.5-24.2c3.3-10.3,1.4-27.5-13.4-23.9
				c-25.3,6.2-49,17.4-71.7,30.2c5.3-6,9.1-13.2,10.1-21.2c0.8-6.3-1-19.1-10.3-18.3c-32.8,2.7-61.6,14.3-88.6,29.8
				c1.8-4.6,2.6-9.5,2.3-14.2c-0.6-8.4-6.3-14.2-14.9-12.1c-33.3,8.2-63.1,23.6-88.7,46.5c-24.7,22.1-44.2,49.8-65.3,75.3
				c-6.4,7.7-11.7,23.9-4.6,32.8c4.7,5.8,10.9,4.3,16.2,0.8c3.6,7.2,11.1,6.2,17.7,3.1c2.1-1,4.2-2,6.3-3.1
				c-9.6,12.1-18,25.2-24.6,39.6c-0.4,1-0.9,2-1.3,3.2c6.2,5.2,12.5,10.3,18.8,15.3c3.2,2.4,6.4,4.8,9.6,7.2
				c18.9-6.7,36.6-17.8,52.9-28.9c1.5-1,2.9-2,4.4-3c-10.7,8.6-20.7,17.9-29.7,28.1c-3.9,4.4-7.4,9.4-9.6,14.9
				c7.2,2.6,14.3,5.1,21.6,7.5c8.1,2.7,16.2,5.2,24.4,7.6c11.3-4.7,22.1-10.4,32.7-16.7c-0.7,2.2-1.2,4.4-1.5,6.6
				c-1,7.9,3.4,22.9,14.7,17.7c21.8-10,43.9-19.5,65.8-29.3c-10,6.9-17.1,19.6-16.2,31.9c0.9,11.7,9.9,14.8,19.5,9.9
				c19.5-9.8,38.3-21.1,56.8-32.9c-2,2-3.9,4-5.8,6.1c-7.1,7.8-12.7,17.6-11.8,28.6c0.3,3.4,1.3,6.3,3.1,8.5
				c8.2,0,16.4-0.1,24.6-0.2c20.3-6.5,39.5-15.5,58-25.8c-0.6,2.9-0.9,5.8-0.6,8.7c0.5,7.2,6.5,15.7,14.9,12.1
				c46.9-20.6,93.1-45.8,143.7-55.7C755.8,954.5,769,906.9,742.8,912z M441.9,860.7c-27,16.4-56,32.1-82.9,50.2
				c12.1-9.2,24.1-18.6,36.3-27.7c23-17.1,48.1-31.6,72.4-46.8c15.3-9.6,30.8-18.8,47-26.6c-1.4,1.3-2.9,2.5-4.3,3.8
				c-10,8.7-17.9,14.3-29.8,22.4C467.9,844.7,455,852.8,441.9,860.7z M516.2,871c-16.7,11.3-33.8,21.9-51.1,32.3
				c22.2-16.7,45.1-31.2,69.2-44.9C528.4,862.6,522.3,866.8,516.2,871z"/>
		</g>
	</g>
	<g>
		<g>
			<path class="st3" d="M419.9,729.2c-3.5,19.5-1.7,40.3,10.4,56.6c10,13.4,27,19.7,43.1,21.2c39.9,3.7,78.8-23.2,95.3-58.5
				c3.6-7.7,8.5-24.7-2.3-29.7c-18.1-8.4-42.2-4.3-60.8,0.2c-25.9,6.4-53.8,27.5-46.9,57.7c2.4,10.3,13.3,16.8,22.3,20.6
				c13.6,5.7,29.7,5,43-0.8c16-6.9,29.3-19.7,36.2-35.8c8.4-19.6,7.7-38.2-2.4-56.9c-5.9-10.8-21.1,1.8-25,7.2
				c-7.1,9.5-10.4,22-4.6,32.8c1.5,2.7,2.1,5.4,2.3,8c-0.4-3.7-1.2,4.5,0.2-0.9c1.7-6.4-2.4,2.9,1.3-2.6c2.8-4.1-1,0.9-1.8,1.6
				c3-2.7-2.7,1.4-2.9,1.5c-0.5,0.3-6.1,2.1-8.5,2.3c-8.4,0.8-15.5-1.5-22.6-5.6c-3.6-2.1-1.8-0.4-4.4-3.9c4.4,5.8-1,19.6-7.3,26.5
				c1.6-1.5,1-1.1-1.9,1.2c1-0.8,2.2-1.4,3.3-2.1c0.8-0.5,5.1-2.4,0.7-0.5c1.5-0.6,3-1.2,4.5-1.7c6.8-2.5,14-3.9,21.1-5.1
				c2.8-0.4,12-1,17.2-0.9c3.1,0.1,6.3,0.4,9.4,0.9c0.7,0.1,5,1.3,1.1,0.2c1.1,0.3,2.2,0.8,3.2,1.3c-0.7-9.9-1.5-19.8-2.3-29.7
				c-0.5,1.2-1.1,2.3-1.7,3.4c-2.9,5.8,3.2-4.7-0.3,0.7c-1,1.6-2.2,3-3.3,4.5c3.8-4.8,0-0.1-0.8,0.8c-1,1-8,6.6-3.9,3.6
				c-2.9,2.2-6.1,4-9.3,5.8c-2.1,1-2.2,1.1-0.3,0.3c-1.6,0.7-3.3,1.4-5,2c-3.3,1.3-6.8,2.2-10.3,3c-4.7,1.1-3.8,0.8-7.7,1.1
				c-3.4,0.3-6.8,0.2-10.2-0.1c-7.2-0.5-9.1-1.1-14.8-3.5c-2.4-1-4.6-2.3-6.8-3.7c-3.2-2-1.6-0.8-4.9-4.2c-1.8-1.9-3.2-4-4.6-6.2
				c1.9,3.1-0.5-1.4-0.7-1.8c-0.7-1.5-1.1-3.2-1.6-4.8c-1.6-5.3,0.4,3.7-0.4-2c-0.3-1.9-0.3-3.8-0.4-5.7c-0.2-6.4-0.4,4.2,0.2-2.6
				c0.2-2.2,0.6-4.5,1-6.7c1.7-9.3-3.5-21.1-14.7-17.7C428.7,704.4,422,717.9,419.9,729.2L419.9,729.2z"/>
		</g>
	</g>
	<g>
		<g>
			<path class="st3" d="M449.1,732c-1,37.9,29.2,67.2,67,65.8c47.1-1.8,76.2-49.7,68.6-93.7c-1.8-10.5-9.4-16.1-19.5-9.9
				c-9.5,5.9-18.3,20.5-16.3,32c0.7,4.1,1.1,8.2,1.3,12.3c-0.2-5.9-2.1,10.9-0.1,2.3c-0.4,1.6-0.9,3.1-1.5,4.6c2.5-7,0.9-2.3,0-0.7
				c3.5-6.6,1.5-2.4,0.3-0.8c-3.1,4.2,4-4.1,0.3-0.4c-0.9,0.9-4.8,4,0.1,0.2c-1.1,0.9-2.4,1.6-3.6,2.4c-0.8,0.5-5.2,2.6-0.5,0.5
				c-1.3,0.6-2.7,1.1-4.1,1.6c-2.8,1-5.7,1.6-8.5,2.1c3.5-0.6-4.5,0.1-5.9,0.1c-7-0.1-10.7-1-15.1-2.6c-2.8-1-5.6-2.3-8.2-3.8
				c-1.3-0.7-2.6-1.6-3.8-2.4c-0.3-0.2-4.1-3.2-1.5-1c-2.3-2-4.3-4.2-6.2-6.6c-1-1.2-1.8-2.5-2.6-3.8c-2.7-4.2,1.3,3-0.8-1.6
				c-1.4-3-2.3-6.2-3.1-9.4c1,4.2,0-1.4-0.1-2c-0.3-2.5-0.2-5-0.2-7.5c0.3-11.4-10.9-15.2-19.5-9.9
				C454.4,706.8,449.4,719.6,449.1,732L449.1,732z"/>
		</g>
	</g>
	<g>
		<g>
			<path d="M263.8,438c-17.1-11.3-41.1-21.4-59.8-7.6c-15.1,11.1-19.2,32.6-18.1,50.2c1.2,18.8,8.7,39.1,23.5,51.3
				c16.4,13.5,41.7,12.2,56.6-3.1c1.2-1.3,5.5-11.3,0.5-10.4c-9.1,1.5-16.8,6.7-26.2,7.2c-7.7,0.4-15-2-21.3-6.2
				c-13.3-8.7-20.9-25.6-23.3-40.8c-2-12.5-1.7-29.1,8.9-37.9c15.6-12.9,40.1-1.8,55.2,6C262.9,448.2,266.7,439.9,263.8,438
				L263.8,438z"/>
		</g>
	</g>
	<g>
		<g>
			<path d="M765,437.9c13.5-8,33.6-15.7,47.4-4c11.2,9.5,13.7,26.7,13.5,40.5c-0.2,14.5-4.3,30.6-14.1,41.6
				c-12.7,14.1-28,8.9-43.7,4.7c-4.8-1.3-11,9.7-7.2,12.9c16.2,13.5,38.7,9,52.8-4.9c14.4-14.2,21.1-36.5,22.1-56.2
				c0.9-17.1-1.7-38.2-16.2-49.5c-17.9-14-40.2,0.1-54.8,12.1C764,435.6,763.1,439,765,437.9L765,437.9z"/>
		</g>
	</g>
	<g>
		<polygon class="st3" points="372.6,704.5 372.6,704.5 372.6,704.5 		"/>
		<path class="st3" d="M796.4,332.4c-3.2-3.7-7.9-4.8-13.1-3.1c-0.6,0.2-1.3,0.4-1.9,0.6l0-0.1L781,330c-15.6,5-25.7,4.1-35.5,2.3
			c1.9-6.3,3.4-12.7,4.5-19.3c0.9,0,1.8-0.3,2.7-0.8c3.5-2.2,5.5-6.6,5.4-10.7c-0.5-20-3-40-8.4-59.1c-1.7-8.1-4.3-16-8.1-23
			c-5.6-13-12.8-25.4-21.9-36.8c-23.4-29.4-58.3-47.4-94-57.1c-20-5.4-40.4-8.4-61-9.9c-24-1.7-48.2-1.4-72,3
			c-3.3,0.6-6.5,1.3-9.7,2.1c-32.6,1.2-64.8,7.5-94.4,21.9c-2.8,1.3-5.5,2.8-8.1,4.3c-14.9,5.6-29.4,12.3-43.1,20.2
			c-18.7,10.8-36.4,25.2-46.7,44.5c-7.5,14-9,29.6-5.4,44.4c-3.2,13.9-3,28.4,0.8,42.4c-12.1,8.5-23.7,17.7-34.7,28
			c-6.5,6.1-11.1,15.1-12.3,24c-0.5,4-0.3,12.2,4,17.1c2.1,2.4,5,3.6,8.3,3.5c10.5-0.5,21.3-1.8,32.7-3.9
			c-9.2,4.5-17.4,9.2-25.1,14.3c-9,5.9-15.6,16.6-17,27.7c-0.6,5,0,12.4,4,16.9c2.1,2.4,4.9,3.7,8.3,3.7c20.5-0.1,42-1.8,65.4-5.3
			c-26.6,11.5-54.2,24-81,39.1c-10.1,5.7-15.9,18.1-17.1,27.8c-0.8,6.5,0.6,12.6,3.9,16.3c3.1,3.6,7.8,4.9,13.2,3.6
			c21.9-5.2,41.2-9.9,58.9-14.5c-4.3,1.8-8.6,3.7-12.9,5.6l-1.1,0.3l0,0.3c-11.2,5.3-19.2,16.6-20.9,29.6
			c-0.8,6.5,0.6,12.6,3.9,16.3c3.2,3.6,7.8,4.9,13.2,3.5l2.3-0.6c-0.5,0.2-1.1,0.5-1.5,0.7l-0.4,0.1v0.1c0,0.6-2.2,1.2-3.4,1.9
			c-9.6,4.9-15.7,17.7-17,27.8c-0.8,6.5,0.7,12.6,4,16.4c3.2,3.6,7.8,4.9,13.2,3.5c11.2-2.8,22.4-5.9,34.1-9.4
			c-8.2,8-15.3,24.9-12.6,35.6c1.8,7,7.7,10.3,16.4,9.1c7.9-1.1,16.1-2.5,24.2-4.2c-3.1,5-5.2,10.7-6,16.5
			c-0.6,4.8,0.1,12.1,4.3,16.8c3.2,3.7,7.9,4.8,13,3.1c3.7-1.2,7.4-2.5,11.1-3.7c-4.2,5.5-7,12.2-7.9,19c-0.9,6.6,0.5,12.2,3.7,15.9
			c3.1,3.5,7.7,4.9,13.3,4c0.7-0.1,1.5-0.3,2.2-0.4l0.1-0.2c7.5-1.2,15-2.7,22.5-4c-3.9,8.8-5.9,18.8-2.1,25.1
			c1.1,1.8,2.9,3.2,6.1,3.8c1.3,0.5,2.8,0.8,4.5,0.8c0,0,0,0,0.1,0c5.9,0,11.8-0.1,17.7-0.2c11.3,0.1,22.6,0.1,33.7-0.6
			c0.7,5.8,3.6,11.2,8.3,13.2c13.4,5.9,28.3,8.9,44.5,8.9c34.5,0,69.4-13.5,92.7-23.7c44.3-19.3,84.4-44.7,121.2-69.2l1-0.6l0-0.1
			c10.5-7.5,17.2-21,16.2-33.2c-0.6-8.6-5.9-14.1-13.3-14.1c-0.5,0-1,0-1.5,0.1c11.9-9.5,21.9-19.8,30.2-31.2
			c5.8-7.9,10.6-20.1,7-30.6c-1.5-4.4-4.8-7.5-8.9-8.5c2.2-1.9,4.3-3.9,6.4-5.8c8.3-7.9,13.2-19.7,12.4-30.1
			c-0.5-7.1-5.3-14.6-13-14.6c-1.5,0-3,0.3-4.6,0.9c-2.3,0.9-4.7,1.8-7.1,2.6c8.2-5.7,14.2-16.1,15.6-26.8c0.7-5-0.5-12.5-4.4-17
			c-3.3-3.7-7.9-4.7-13-2.8c-0.6,0.2-1.2,0.5-1.8,0.7l0-0.3l-1.3,0.8c-1,0.4-2,0.7-3,1.1c6.9-5.5,13.7-11.2,20.1-17.1
			c6.5-5.9,11.1-14.9,12.3-24.1c0.7-5.4-0.3-12.7-4-16.9c-1-1.2-2.2-2.1-3.6-2.7c6.7-3.7,13.3-7.5,19.8-11.3
			c10.1-5.9,15.9-18.2,17.1-27.8C801.4,342.8,799.7,336.3,796.4,332.4z M361.4,198.5c-9.2,8.8-18.2,17.8-27.5,26.5
			c2.7-4.1,5.6-8,8.8-11.9c2.1-2.6,4.6-5.3,7.3-7.9c5.3-4.4,11-8.4,16.9-12c-0.5,0.5-1,1-1.5,1.4C364,195.8,362.6,197.1,361.4,198.5
			z M311,246.1c5.1-14,11.7-27.5,20.2-39.7c4.2-3.9,8.7-7.4,13.4-10.8c-13.5,14.3-24.2,30.9-32,49
			C312.1,245.1,311.5,245.6,311,246.1z M690,177.3c0.6,0.5,1.3,1.1,1.9,1.6c-0.4-0.2-0.8-0.4-1.2-0.4
			C690.5,178.1,690.3,177.7,690,177.3z M702.7,325.6c0.5,1.2,1,2.3,1.5,3.5c-1.3,0-2.9,0-4.8,0C700.6,328,701.6,326.8,702.7,325.6z
			 M719.4,210.3c-0.5,1.4-0.7,2.8-0.7,4.3c0,2.2,0.1,4.3,0.3,6.4c-6.7-14.7-16-28.4-25.9-41.1c0,0-0.1-0.1-0.1-0.1
			C703,188.6,711.9,198.7,719.4,210.3z M295.1,228.8c0.1-0.7,0.2-1.4,0.4-2.2c0.2-1.1-0.1,0.3,0.4-1.6c1.5-5.7,3.7-9.9,6.7-14.2
			c3.9-5.7,7.4-9.3,12.8-14.1c7.2-6.4,15.1-12,23.5-16.9c-3.5,3.9-6.9,7.9-10.1,12c-13.4,11.3-25.2,24.3-33.9,39.5
			c0,0,0,0.1-0.1,0.1C294.9,230.7,295,229.8,295.1,228.8z M409.4,280.7c1-0.5,2.1-0.9,3.1-1.4c0.1,0.1,0.1,0.3,0.2,0.4
			C411.5,280.1,410.4,280.4,409.4,280.7z M513,274.7c4.7,2.6,9.3,5.4,13.8,8.2c1.8,1.1,3.6,2.3,5.4,3.5c-6.8-3-13.1-6-19-9.3
			C513.2,276.2,513.1,275.4,513,274.7z M531.7,428.1c9.7-7.3,18.8-14.9,27.4-22.7c5.3,1.2,10.7,2.3,16,3.3
			C560.9,415,546.4,421.4,531.7,428.1z"/>
	</g>
	<g>
		<g>
			<path class="st5" d="M489.5,659.3c10.7,1.7,21,0.7,31.5-2.1c5.5-1.5,10.6-3.9,15.6-6.7c0.4-0.2,0.9-0.6,1.5-1
				c0.8-0.3,1.5-0.5,2.3-0.8c7.4-2.8,12.3-5.9,15.1-11.9c0.5-0.8,0.9-1.5,1.3-2.4c1.2-3,4.1-12.9-2.3-12.8c-3.8,0.1-6.4,2.7-9.1,5.2
				c-22.5,6.8-48.5,7.2-67.4-8.5c-5.4-4.5-12.1,2.5-14.4,10.2c-5.1-4.3-9.6-9.5-13.3-15.4c-2.1-3.4-7,5-5.9,7.6
				C452.7,639.6,468.2,655.8,489.5,659.3z"/>
		</g>
		<g>
			<path class="st5" d="M555.3,740.9c-17.2,9.5-37.1,13.2-56.6,12.6c-19.5-0.6-41.2-5.4-53.1-22.2c-3.7-5.2-9.8,7.7-8.7,11.2
				c15.3,46.4,75.2,51.9,113.8,32.6c8.1-4,13.2-13.4,14.3-22.1C565.7,747.7,563.3,736.5,555.3,740.9z"/>
		</g>
	</g>
	<g>
		<g>
			<path d="M445.1,615.3c16.4,13,33.1,21.9,53.9,24.9c17.7,2.5,41.6-0.4,54.8-13.2c1.9-1.9,7.3-14.8,0.7-14.1c-8,1-15.6,6.5-23.4,9
				c-8.8,2.8-18.4,3.3-27.5,3c-18.9-0.6-38.8-7.4-55.8-15.4C445.6,608.4,443.3,613.9,445.1,615.3L445.1,615.3z"/>
		</g>
	</g>
	<g>
		<g>
			<path d="M215.8,483.5c6.3-7.7,14.7-13.6,24.9-13.8c11.3-0.1,13.8,9.9,18.1,18.1c2,3.7,6.3-4.5,6.4-5.9
				c1.4-12.6-4.9-25.1-18.9-25.4c-13.7-0.2-26,11.3-33.2,21.7C211.3,480.9,212.2,487.9,215.8,483.5L215.8,483.5z"/>
		</g>
	</g>
	<g>
		<g>
			<path d="M265.7,477.1c-8.1-0.3-18.4-0.4-24.1,6.4c-5.7,6.7-4.6,16.9,0.3,23.8c2.1,3,5.5-4.4,4.9-6.3c-0.9-2.8-5.1-10.2-2.1-12.8
				c4.8-4.1,13.1-4.2,19-4.6C266.1,483.6,268.6,477.2,265.7,477.1L265.7,477.1z"/>
		</g>
	</g>
	<g>
		<g>
			<path d="M773.6,492c3-8.1,9.3-13.7,17.8-15.5c7.7-1.6,13.6,2.3,20.6,4c4.5,1.1,9.2-8,6.3-11.3c-7.3-8.4-20.5-8-30-3.9
				c-10.7,4.6-17.5,16.2-20.3,27C766.2,498.8,772,496.3,773.6,492L773.6,492z"/>
		</g>
	</g>
	<g>
		<g>
			<path d="M770.4,497.8c4.1-1.6,11.7-4.3,14.9,0.3c1.1,1.6,0.4,4,0.1,5.8c-0.6,3.4-2.1,6.5-2.7,9.9c-0.5,2.8,1.8,3.6,3.6,1.7
				c5.3-5.7,9.7-17.6,5-25c-4.4-7-15.8-0.7-20.7,2.1C769.3,493.4,767.7,498.8,770.4,497.8L770.4,497.8z"/>
		</g>
	</g>
	<g>
		<g>
			<path d="M423.5,732.8c-7.5,23.6-6.1,49,11.8,67.6c15.9,16.6,39.8,23.3,62.2,23c23.5-0.3,47.2-8.3,64.2-24.9
				c8.8-8.6,15.2-20.1,18.4-32c2.6-9.7,5.2-28-4.5-34.4c-3.7-2.4-7,6.1-7.4,8.2c-1.8,9.7-0.4,20.5-3.1,29.3c-0.8,2.6-1.8,4.5-4.4,8
				c-1,1.5-4.7,5-7.1,7c-15.2,12.1-35,16.8-54.1,17.1c-19.2,0.3-39.3-3.8-54.8-15.7c-16.9-13-20.2-34.8-16.2-54.5
				C429.5,726.7,424.4,730.1,423.5,732.8L423.5,732.8z"/>
		</g>
	</g>
	<g>
		<g>
			<path d="M424.8,729.5c-55.5,0.3-118.6,0.2-155.3,49.4c-16.3,21.8-24.9,47.8-29.9,74.2c-4.8,24.9-7.2,51.5-4.9,76.8
				c1.6,1.4,3.2,2.8,4.8,4.2c0.8-1.1,1.5-2.4,1.6-3.2c9.1-46.8,5.9-99.1,34.4-139.9c32.2-46.2,97.2-38.9,145.6-49.3
				C425.1,740.9,430.6,729.5,424.8,729.5z"/>
		</g>
	</g>
	<g>
		<g>
			<path d="M574.9,746.6c26.3-2.1,54.5-0.8,79.5,8.3c22.5,8.2,39.7,24.1,53.9,42.9c15.1,20.1,24,43.3,32.4,66.7
				c8.5,23.9,15.4,48.6,20.3,73.5c1.5,7.5,11.6-5.2,10.9-10c-8-53-17.3-106.4-50.3-150.4c-14.5-19.4-35.3-34.3-58.3-41.7
				c-29.4-9.5-59.1-4.1-87.4,6.5C574.7,742.8,573,746.7,574.9,746.6L574.9,746.6z"/>
		</g>
	</g>
	<g>
		<g>
			<path d="M278.9,877.6c10.3,0.9,22.3,4.7,26.8,14.9c4.2,9.4,4,21.3,3.8,31.4c-0.2,11.4-1.9,22.8-3.1,34.2c-0.6,5.4-2,13-1.6,19.7
				c3.2,1.1,6.5,2.2,9.8,3.3c1.4,0.5,2.8,0.9,4.3,1.4c1.8-3.1,3-6.4,3.2-7.7c1.6-10.4-0.3-22.1,0-32.7c0.3-12.1,0.7-24.2-0.8-36.3
				c-1.3-10.1-5.1-18.8-12.5-25.9c-8.2-7.8-19-7-29.2-4.5C278.7,875.5,277.9,877.5,278.9,877.6z"/>
		</g>
	</g>
	<g>
		<g>
			<path d="M306.3,391.7c10.6-10.2,24.9-14.3,39-17.6c14.5-3.3,29.9-3.9,44.5-1c18.5,3.6,30.4-38.7,14.6-38.2
				c-39.6,1-80,13.2-102.5,48C298.9,387.5,299.3,398.5,306.3,391.7L306.3,391.7z"/>
		</g>
	</g>
	<g>
		<g>
			<path class="st6" d="M660.7,882.9c2.8-1.7,5.4-3.6,8.2-5.4c0.1,2.8,0.9,5.5,2,8.1c-9.3,33.2,8.1,69.9,13,103.6
				c2.3-0.9,4.6-1.8,6.8-2.8c3.4-1.5,6.9-3,10.3-4.6c0.3-0.9,0.6-1.8,0.7-2.6c4.1-37.7,4.1-77.9-15.5-111.5c0.2-0.3,0.3-0.6,0.5-0.9
				c0.8-1.5,1.6-7.7-1.9-6c-0.9,0.5-1.9,1-2.8,1.5c-0.5-0.2-1-0.3-1.6-0.3c-0.8,0.1-1.6,0.1-2.3,0.2c-4,0.3-6.6,4.1-8,8
				c-3.2,2.4-6.4,5-9.6,7.4C658.7,878.9,657.4,885,660.7,882.9z"/>
		</g>
		<g>
			<path class="st6" d="M479.6,856.5c-20.4,1.1-40.1-9.6-54.6-23.3c-6.8-6.4-12.4-14-17.3-21.9c-5-8.1-7-18.2-12.7-25.7
				c-0.8-1-1.9-1.5-3.2-1.5c-0.7,0.1-1.4,0.3-2,0.5c-0.7-3.9-1.3-7.8-1.6-11.6c-0.5-6.6-6.8,2.1-7,5.2c-0.2,5,0,10.1,0.6,15.1
				c-2,6.3-1.3,14.3,0.1,19.5c1.5,5.6,4,11.1,6.9,16.3c4.2,16.4,10,32.4,18.4,47.1c7,12.2,17.4,25.1,32.1,27.4
				c18.1,2.9,32.8-14,41.2-27.8C482.8,872.5,489.1,856,479.6,856.5z"/>
		</g>
	</g>
	<path class="st5" d="M785,471.5c-1.4-12.7-3.3-25.3-5.6-37.9c1.5-22.1,1.9-44.2-1.6-66.2c0.2-0.8,0.3-1.5,0.5-2.3
		c0.4-1.8-0.3-3.9-1.7-4.7c-0.8-4-1.7-8.1-2.8-12.1c-1.5-5.4-7.1-0.3-9,3c-1.7-17.3-5-34.5-9.2-51.2c-9.2-36-23.9-71.1-44.5-102.2
		c-0.5-0.7-1.1-1-1.8-1.1c-3.3-6.5-7-12.7-11.2-18.4c0-16.2-15.1-27.8-27.8-35.8c-10.5-6.5-22-12-33.8-16.4
		c-9.4-8.7-19.6-16.5-31.1-22.5c-25.5-13.4-55.6-14.2-83.5-10.3c-25,3.5-49,10.7-72.6,19.2c-17.4,4.8-34.4,11.2-50.7,19.1
		c-0.5,0.2-0.9,0.4-1.4,0.5c-0.3,0.1-0.6,0.3-0.9,0.6c-44.9,22.4-83.8,56.3-109.6,99.6c-1.2,1.9-1.8,5.4-0.3,7.3
		c2.1,2.6,5.3-0.2,6.8-1.9c5.7-6.7,11.8-13.2,18-19.4c-2.9,4-5.6,8.1-8.1,12.2c-16.9,27.6-28,59.3-28.9,91.8c-0.1,3.9,4.9,0.1,5-2.3
		c2.6-44,23.7-87.1,55-117.8c15.5-15.2,34.2-26.9,55.2-32.6c24.9-6.8,50.4-1.3,75.1,4.1c1.7,0.4,3.5,0.8,5.2,1.2
		c0.5,0.7,1.2,1.1,2.2,1c0.5,0,1.1-0.1,1.6-0.2c18,4.1,36.2,8.6,54.5,11.5c0.4,0.3,1,0.5,1.7,0.6c2,0.4,4,0.5,6,0.5
		c16,2.1,32.2,2.7,48.4,0.4c18.2-2.5,35.8-8.7,54.1-10.8c9.3-1.1,18.6,6.4,27.7,8.2c0.9,0.2,1.7,3.4,2.6,3.6
		c8.3,10.6,16,11.5,22.8,23c27,45.2,37.9,97.3,43.2,149.1c1.8,17.1,3.1,34.2,3.9,51.3c-0.4,23.9-0.5,47.7-0.4,71.6
		c-0.3,4-0.5,8-0.9,12c-1.9,22.1-4.8,44.4-11,65.8c-7,23.9-21.4,44.9-36.3,64.6c-17,22.4-35.9,45.2-58.3,62.4
		c-0.4,0.3-0.8,0.6-1.2,0.9c-13.5,4.6-26.2,12.4-36.1,21.9c-10.5,5-21.3,9.1-32.5,12.4c-21.5,6.3-44.2,8.9-66.5,6.1
		c-3.9-0.5-7.6,8.8-3,9.4c32.8,4.5,66.9-2.5,97.5-16.4c0.3,2.2,1.6,3.6,4.8,2.8c10.3-2.5,20.6-8,29.3-14.3c0.4,0.2,0.8,0.2,1.5,0
		c0.3,1.1,1.2,1.7,3,1c3.1-1.1,6.1-2.7,8.8-4.5c0.7,0.7,1.8,0.9,3.1,0.4c16.7-6.7,30.4-21.2,42-34.5c8.9-10.2,16.9-21.3,24.1-32.8
		c2,0.3,4.8-1.4,6.2-3c15.3-17.7,25.4-39.4,33.8-61c6.7-17.2,12.3-35,16.5-53.1c0,6.5,0.1,13,0.6,19.4c0.3,4.4,4.5,4.4,7.2,1.9
		C791.8,526.8,787.8,497.5,785,471.5z M398.1,157.2c2.4-1.2,4.8-2.3,7.3-3.4c0.5,0.7,1.4,1.2,2.7,1.4c0.7,0.1,1.5,0.2,2.2,0.3
		C406.1,155.9,402.1,156.5,398.1,157.2z M532.7,174.6c-0.5,0.2-1.1,0.6-1.7,1c-0.6-0.1-1.1-0.2-1.7-0.3c1.2-0.3,2.4-0.6,3.6-0.8
		C532.9,174.5,532.8,174.6,532.7,174.6z M575.7,176.5c-0.2,0.5-0.3,1.3-0.4,2.1c-3,0.2-5.9,0.3-8.9,0.3c3.3-1.7,6.4-3.5,9.3-5.1
		c0.5-0.1,1-0.3,1.5-0.4C576.5,174.3,576,175.4,575.7,176.5z M572.2,126.5c1.4,0.2,2.8,0.3,4.2,0.5c-1.4,0-2.7-0.1-4.1-0.1
		C572.2,126.8,572.2,126.6,572.2,126.5z M525.4,111.6c1.8-3.6,2.6-8-0.3-9c16.9-1.6,33.8-1.1,50.7,2.7c10.6,2.4,20.5,6.7,29.6,12.3
		C579.2,112,552.2,110.2,525.4,111.6z M620.3,170.3c-1.6,0.4-3.3,0.7-4.9,1.1c5.6-2.6,11.3-5.1,17.1-7.1c7.9-0.3,16.5-0.2,24.5,1.2
		c0.1,0.1,0.2,0.2,0.3,0.3C644.8,165.2,632.3,167.6,620.3,170.3z M717.7,617.4c1.1-3.6,2.5-7.1,3.8-10.5c1.1-2.7,2.2-5.4,3.4-8.1
		c2.1-3.2,4-6.4,5.9-9.8c2.2-4,4.4-8.1,6.5-12.1C732.1,590.7,725.9,604.9,717.7,617.4z M743.3,354.3c-0.5-4.7-1.1-9.3-1.7-14
		c0.7,4.5,1.4,9,2.1,13.6C743.6,354,743.5,354.2,743.3,354.3z M773.7,526.6c-0.4-13.9,0.3-27.7,1.4-41.6c0.7,6.8,1.1,13.7,1.4,20.5
		C776.8,513,776.4,520.2,773.7,526.6z"/>
	<g>
		<g>
			<path d="M391.3,771.8c-1.6,23.8,7.5,45.7,23.9,62.7c14.9,15.5,43.9,30.1,65.7,24.7c3.2-0.8,8.5-11.1,3.8-12.7
				c-9.8-3.3-20.4-3.3-30.4-6.5c-10.1-3.3-19.5-8.5-28-14.9c-18.5-13.8-30.6-32.7-30.2-56.2C396.2,764.9,391.4,769.6,391.3,771.8
				L391.3,771.8z"/>
		</g>
	</g>
	<g>
		<g>
			<path d="M661,908.5c3.8,10.4,5.8,21.3,7.9,32.1c3.2,17,5,34.4,7.1,51.6c4.1-1.6,8.2-3.2,12.3-4.8c-0.6-4-1.4-7.9-1.9-11.7
				c-1.6-12.6-3.6-25.1-6.1-37.5c-2.4-12.3-5.9-24.2-10.7-35.8c-3.6-8.5-8.1-17.9-17.4-20.9c-0.5-0.2-0.9,0.8-0.8,1.2
				C653.9,891.6,657.8,899.9,661,908.5z"/>
		</g>
	</g>
	<g>
		<g>
			<path d="M690.4,849.8c-14.5,5.3-27,13.8-36.8,25.8c-1.6,2-3.2,5-2.4,7.7c1.1,3.4,4.5,0.3,5.6-1.2c8.4-11.6,19.8-20,32.7-25.9
				C691.5,855.2,693.6,848.6,690.4,849.8L690.4,849.8z"/>
		</g>
	</g>
	<g>
		<path d="M767.8,326.9c-2.2-7-10.1,5.6-9.2,10.1c16.6,76.9,13.3,181.5-19.5,253.7c-31.3,69-91.7,119.4-166.1,135.4
			c-83.6,17.9-175.4-5-234.9-67.7C278,595,263,505.7,270.7,421.5c-3.9-2.2-7.8-4.1-11.9-5.7c-1.4,10.2-2.5,20.4-3.3,30.6
			c-6.5,83.8,12.1,171.2,70.6,234.3c58.4,62.9,148.4,86.8,231.7,73.1c77.4-12.7,141.8-62.2,180.4-129.6
			C785.5,541.7,796,417.4,767.8,326.9z"/>
	</g>
	<g>
		<g>
			<path d="M723.6,381.7c-8.8-15.7-23.1-29-39.9-35.5c-16.4-6.4-35-9.2-52.5-9.7c-16.9-0.5-25.4,41.3-11.6,38.8
				c16.8-3.1,33.5-3.1,50.2,0.6c16,3.6,32.4,8,45.2,18.7C720.6,399.2,726,386,723.6,381.7L723.6,381.7z"/>
		</g>
	</g>
	<path class="st7" d="M597.4,505.8c-53.6,2.5-108.2,6-161.4-2.3c-3.7-0.6-6.5,5.1-6.9,8c-1.6,11.9,2.8,22.7,9.6,32
		c-4.5,8.5-5,18.2,3.8,25.6c10.1,8.5,24.4,12.2,37.6,14.2c7.5,3.5,15.5,5.6,23.9,6.3c37.6,3.3,70.3-23.3,86.9-55
		c3.7-7.1,6.6-14.6,9-22.1C600.4,510.5,600.6,505.7,597.4,505.8z M474,541.8c2,1.8,4.2,3.3,6.6,4.6c-4.6-0.6-9.2-1.5-13.5-2.9
		C469.3,542.8,471.6,542.2,474,541.8z M558.9,543.8c-0.4,0-0.7,0-1.1,0c1.3-0.2,2.7-0.4,4-0.5c-0.1,0.6-0.1,1.1-0.2,1.6
		C561.1,544.3,560.2,543.8,558.9,543.8z M456.1,534.7c-0.8-0.9-1.6-1.9-2.4-2.8c2.9-0.1,5.8-0.1,8.6-0.1
		C460.2,532.6,458.1,533.6,456.1,534.7z M443,518.3c0-0.1-0.1-0.2-0.1-0.2c0.2,0,0.4,0,0.6,0.1C443.3,518.2,443.1,518.2,443,518.3z
		 M584.7,520.2c-7.9,0-15.8-0.2-23.8-0.4c9.2-0.4,18.4-0.8,27.7-1.1c-0.4,1.1-0.8,2.1-1.3,3.1C586.9,520.9,586.1,520.2,584.7,520.2z
		 M447.5,553.5c0.3,0.5,0.6,0.9,0.9,1.4c-0.5-0.6-1-1.2-1.4-1.9C447.2,553.2,447.3,553.4,447.5,553.5z"/>
	<g>
		<g>
			<path d="M404.2,489.8c24.1,15.7,53.9,21.7,82.2,24.2c32,2.8,64.9,0.7,96.1-7.5c14.8-3.9,30.9-9.3,43.4-18.4
				c2.6-1.9,4.6-10.5-0.6-7.7c-12.1,6.5-24.1,11.9-37.3,15.7c-14.9,4.3-30.3,6.9-45.8,8.3c-30.7,2.8-62.2,1.4-92.3-5.5
				c-14.6-3.4-29.3-8.2-42.3-15.8C404.9,481.3,401.5,488,404.2,489.8L404.2,489.8z"/>
		</g>
	</g>
	<g>
		<g>
			<path d="M420.2,498c-3.5,43.6,23.1,87,66.5,98.4c19.9,5.2,42.8,2.8,61.8-4.9c16.8-6.8,30.4-18.7,39.8-34.2
				c10.6-17.5,17.3-40.6,16.9-61.1c0-1.9-1.5-2.6-3.1-2c-1.9,0.7-3,3.1-3.3,5c-3.1,17.3-4.8,34.1-13.2,50c-7.4,14-19,25.2-33.5,31.7
				c-17,7.6-37.8,10.3-56.2,7.1c-18.9-3.2-36.1-13.8-48.4-28.2c-15-17.6-22.7-40.4-21.2-63.5C426.4,490.7,420.5,494.3,420.2,498
				L420.2,498z"/>
		</g>
	</g>
	<g>
		<g>
			<path d="M423.6,532.7c25.5,13.1,54.6,20.2,83.2,21.6c29.8,1.5,62.6-3,87.8-20.3c2.5-1.7,3.9-9.6-0.5-6.9
				c-26.2,15.6-55.9,20.6-86.1,19c-27.8-1.5-55.8-7.9-81-19.9C424.2,524.8,420.9,531.3,423.6,532.7L423.6,532.7z"/>
		</g>
	</g>
	<path class="st5" d="M313.5,495.2c-0.1-0.4-0.2-0.7-0.4-1c0-0.1-0.1-0.2-0.2-0.2c-1.1-2.3-2.7-4.3-4.8-5.5
		c-7.4-4.1-13.4,7-15.6,12.2c-0.5,1.3-1.2,5.1,1.4,4.5c1,2.5,3.4,4.3,6.4,5.6c6.8,2.9,13-0.9,14-8.2
		C314.8,500.2,314.4,497.6,313.5,495.2z M309.2,505c0.2-0.3,0.2-0.4,0.3-0.4c0,0,0,0,0,0.1C309.4,504.6,309.3,504.7,309.2,505z
		 M309.4,504.1c0,0.3,0,0.4,0,0.5c0,0-0.2,0.2-0.4,0.3c-0.9,0.4-1.9,0.3-2.8,0.2c-0.8-0.1-1.8-0.3-2.9-0.6c0.5-0.3,0.9-0.5,1.2-0.7
		c1.1-0.6,2.2-1.1,3.3-1.7c0.4,0.2,1,0.2,1.5,0c0,0,0,0.1,0,0.1C309.4,502.8,309.5,503.7,309.4,504.1z"/>
	<path class="st5" d="M348.3,494c-0.1-0.4-0.2-0.7-0.4-1c-0.1-0.1-0.1-0.2-0.2-0.2c-1.1-2.3-2.7-4.3-4.8-5.5
		c-7.4-4.1-13.4,7-15.6,12.2c-0.5,1.3-1.2,5.1,1.4,4.5c1,2.5,3.4,4.3,6.4,5.6c6.8,2.9,13-0.9,14-8.2
		C349.5,499.1,349.2,496.4,348.3,494z M343.9,503.9c0.2-0.3,0.2-0.4,0.3-0.4c0,0,0,0,0,0.1C344.1,503.5,344.1,503.5,343.9,503.9z
		 M344.2,502.9c0,0.3,0,0.4,0,0.5c0,0-0.2,0.2-0.4,0.3c-0.9,0.4-1.9,0.3-2.8,0.2c-0.8-0.1-1.8-0.3-2.9-0.6c0.5-0.3,0.9-0.5,1.2-0.7
		c1.1-0.6,2.2-1.1,3.3-1.7c0.4,0.2,1,0.2,1.5,0c0,0,0,0.1,0,0.1C344.2,501.7,344.2,502.5,344.2,502.9z"/>
	<path class="st5" d="M382.7,494c-0.1-0.4-0.2-0.7-0.4-1c0-0.1-0.1-0.2-0.2-0.2c-1.1-2.3-2.7-4.3-4.8-5.5c-7.4-4.1-13.4,7-15.6,12.2
		c-0.5,1.3-1.2,5.1,1.4,4.5c1,2.5,3.4,4.3,6.4,5.6c6.8,2.9,13-0.9,14-8.2C383.9,499.1,383.6,496.4,382.7,494z M378.3,503.9
		c0.2-0.3,0.2-0.4,0.3-0.4c0,0,0,0,0,0.1C378.6,503.5,378.5,503.5,378.3,503.9z M378.6,502.9c0,0.3,0,0.4,0,0.5c0,0-0.2,0.2-0.4,0.3
		c-0.9,0.4-1.9,0.3-2.8,0.2c-0.8-0.1-1.8-0.3-2.9-0.6c0.5-0.3,0.9-0.5,1.2-0.7c1.1-0.6,2.2-1.1,3.3-1.7c0.4,0.2,1,0.2,1.5,0
		c0,0,0,0.1,0,0.1C378.6,501.7,378.7,502.5,378.6,502.9z"/>
	<path class="st5" d="M332.9,527.5c-0.1-0.4-0.2-0.7-0.4-1c0-0.1-0.1-0.2-0.2-0.2c-1.1-2.3-2.7-4.3-4.8-5.5
		c-7.4-4.1-13.4,7-15.6,12.2c-0.5,1.3-1.2,5.1,1.4,4.5c1,2.5,3.4,4.3,6.4,5.6c6.8,2.9,13-0.9,14-8.2
		C334.1,532.5,333.8,529.9,332.9,527.5z M328.5,537.3c0.2-0.3,0.2-0.4,0.3-0.4c0,0,0,0,0,0.1C328.8,536.9,328.7,537,328.5,537.3z
		 M328.8,536.4c0,0.3,0,0.4,0,0.5c0,0-0.2,0.2-0.4,0.3c-0.9,0.4-1.9,0.3-2.8,0.2c-0.8-0.1-1.8-0.3-2.9-0.6c0.5-0.3,0.9-0.5,1.2-0.7
		c1.1-0.6,2.2-1.1,3.3-1.7c0.4,0.2,1,0.2,1.5,0c0,0,0,0.1,0,0.1C328.8,535.1,328.8,536,328.8,536.4z"/>
	<path class="st5" d="M369.8,526.3c-0.1-0.4-0.2-0.7-0.4-1c0-0.1-0.1-0.2-0.2-0.2c-1.1-2.3-2.7-4.3-4.8-5.5
		c-7.4-4.1-13.4,7-15.6,12.2c-0.5,1.3-1.2,5.1,1.4,4.5c1,2.5,3.4,4.3,6.4,5.6c6.8,2.9,13-0.9,14-8.2
		C371,531.4,370.7,528.7,369.8,526.3z M365.4,536.2c0.2-0.3,0.2-0.4,0.3-0.4c0,0,0,0,0,0.1C365.7,535.8,365.6,535.8,365.4,536.2z
		 M365.7,535.2c0,0.3,0,0.4,0,0.5c0,0-0.2,0.2-0.4,0.3c-0.9,0.4-1.9,0.3-2.8,0.2c-0.8-0.1-1.8-0.3-2.9-0.6c0.5-0.3,0.9-0.5,1.2-0.7
		c1.1-0.6,2.2-1.1,3.3-1.7c0.4,0.2,1,0.2,1.5,0c0,0,0,0.1,0,0.1C365.7,534,365.7,534.8,365.7,535.2z"/>
	<path class="st5" d="M656.4,496.4c-0.1-0.4-0.2-0.7-0.4-1c0-0.1-0.1-0.2-0.2-0.2c-1.1-2.3-2.7-4.3-4.8-5.5
		c-7.4-4.1-13.4,7-15.6,12.2c-0.5,1.3-1.2,5.1,1.4,4.5c1,2.5,3.4,4.3,6.4,5.6c6.8,2.9,13-0.9,14-8.2
		C657.6,501.4,657.3,498.8,656.4,496.4z M652,506.2c0.2-0.3,0.2-0.4,0.3-0.4c0,0,0,0,0,0.1C652.3,505.8,652.2,505.9,652,506.2z
		 M652.3,505.3c0,0.3,0,0.4,0,0.5c0,0-0.2,0.2-0.4,0.3c-0.9,0.4-1.9,0.3-2.8,0.2c-0.8-0.1-1.8-0.3-2.9-0.6c0.5-0.3,0.9-0.5,1.2-0.7
		c1.1-0.6,2.2-1.1,3.3-1.7c0.4,0.2,1,0.2,1.5,0c0,0,0,0.1,0,0.1C652.3,504,652.4,504.8,652.3,505.3z"/>
	<path class="st5" d="M691.2,495.2c-0.1-0.4-0.2-0.7-0.4-1c-0.1-0.1-0.1-0.2-0.2-0.2c-1.1-2.3-2.7-4.3-4.8-5.5
		c-7.4-4.1-13.4,7-15.6,12.2c-0.5,1.3-1.2,5.1,1.4,4.5c1,2.5,3.4,4.3,6.4,5.6c6.8,2.9,13-0.9,14-8.2
		C692.4,500.3,692.1,497.6,691.2,495.2z M686.8,505.1c0.2-0.3,0.2-0.4,0.3-0.4c0,0,0,0,0,0.1C687,504.7,687,504.7,686.8,505.1z
		 M687.1,504.1c0,0.3,0,0.4,0,0.5c0,0-0.2,0.2-0.4,0.3c-0.9,0.4-1.9,0.3-2.8,0.2c-0.8-0.1-1.8-0.3-2.9-0.6c0.5-0.3,0.9-0.5,1.2-0.7
		c1.1-0.6,2.2-1.1,3.3-1.7c0.4,0.2,1,0.2,1.5,0c0,0,0,0.1,0,0.1C687.1,502.9,687.1,503.7,687.1,504.1z"/>
	<path class="st5" d="M725.6,495.2c-0.1-0.4-0.2-0.7-0.4-1c-0.1-0.1-0.1-0.2-0.2-0.2c-1.1-2.3-2.7-4.3-4.8-5.5
		c-7.4-4.1-13.4,7-15.6,12.2c-0.5,1.3-1.2,5.1,1.4,4.5c1,2.5,3.4,4.3,6.4,5.6c6.8,2.9,13-0.9,14-8.2
		C726.8,500.3,726.5,497.6,725.6,495.2z M721.2,505.1c0.2-0.3,0.2-0.4,0.3-0.4c0,0,0,0,0,0.1C721.5,504.7,721.4,504.7,721.2,505.1z
		 M721.5,504.1c0,0.3,0,0.4,0,0.5c0,0-0.2,0.2-0.4,0.3c-0.9,0.4-1.9,0.3-2.8,0.2c-0.8-0.1-1.8-0.3-2.9-0.6c0.5-0.3,0.9-0.5,1.2-0.7
		c1.1-0.6,2.2-1.1,3.3-1.7c0.4,0.2,1,0.2,1.5,0c0,0,0,0.1,0,0.1C721.5,502.9,721.5,503.7,721.5,504.1z"/>
	<path class="st5" d="M675.8,528.7c-0.1-0.4-0.2-0.7-0.4-1c-0.1-0.1-0.1-0.2-0.2-0.2c-1.1-2.3-2.7-4.3-4.8-5.5
		c-7.4-4.1-13.4,7-15.6,12.2c-0.5,1.3-1.2,5.1,1.4,4.5c1,2.5,3.4,4.3,6.4,5.6c6.8,2.9,13-0.9,14-8.2
		C677,533.7,676.7,531.1,675.8,528.7z M671.4,538.5c0.2-0.3,0.2-0.4,0.3-0.4c0,0,0,0,0,0.1C671.7,538.1,671.6,538.2,671.4,538.5z
		 M671.7,537.6c0,0.3,0,0.4,0,0.5c0,0-0.2,0.2-0.4,0.3c-0.9,0.4-1.9,0.3-2.8,0.2c-0.8-0.1-1.8-0.3-2.9-0.6c0.5-0.3,0.9-0.5,1.2-0.7
		c1.1-0.6,2.2-1.1,3.3-1.7c0.4,0.2,1,0.2,1.5,0c0,0,0,0.1,0,0.1C671.7,536.3,671.7,537.1,671.7,537.6z"/>
	<path class="st5" d="M712.7,527.5c-0.1-0.4-0.2-0.7-0.4-1c-0.1-0.1-0.1-0.2-0.2-0.2c-1.1-2.3-2.7-4.3-4.8-5.5
		c-7.4-4.1-13.4,7-15.6,12.2c-0.5,1.3-1.2,5.1,1.4,4.5c1,2.5,3.4,4.3,6.4,5.6c6.8,2.9,13-0.9,14-8.2
		C713.9,532.6,713.6,529.9,712.7,527.5z M708.3,537.4c0.2-0.3,0.2-0.4,0.3-0.4c0,0,0,0,0,0.1C708.6,537,708.5,537,708.3,537.4z
		 M708.6,536.4c0,0.3,0,0.4,0,0.5c0,0-0.2,0.2-0.4,0.3c-0.9,0.4-1.9,0.3-2.8,0.2c-0.8-0.1-1.8-0.3-2.9-0.6c0.5-0.3,0.9-0.5,1.2-0.7
		c1.1-0.6,2.2-1.1,3.3-1.7c0.4,0.2,1,0.2,1.5,0c0,0,0,0.1,0,0.1C708.6,535.2,708.6,536,708.6,536.4z"/>
	<g>
		<g>
			<path d="M267.2,422.1c6.2-55.4,10.6-112.5,26.7-165.2c1.8-5.8,3.7-11.5,5.8-17.1c0.5-1.4,1.1-2.9,1.6-4.3
				c0.3-0.8,0.6-1.6,0.9-2.4c-0.2,0.4-0.8,1.8,0.1-0.1c1.2-2.8,2.4-5.5,3.6-8.2c2.5-5.4,5.2-10.7,8.1-15.8c0.7-1.3,1.5-2.5,2.2-3.8
				c0.2-0.3,1.2-2,0.5-0.8c-0.9,1.4,0.8-1.3,0.8-1.2c1.6-2.4,3.2-4.9,4.9-7.2c3.4-4.8,7-9.4,10.9-13.8c-1.3,1.5,1-1,1.4-1.5
				c1-1.1,2-2.1,3-3.2c2.2-2.3,4.4-4.5,6.7-6.6c9.3-8.6,17.3-14.6,28.5-21.3c24.7-14.8,52.6-23.7,80.8-29.4
				c34.1-6.9,70.3-11.2,105-7c32.4,3.9,61.9,17.4,89.3,34.6c29.1,18.2,55.4,39.6,73.6,69.1c15.7,25.5,24.1,54.9,29.7,84.1
				c3.2,16.5,5.6,33.1,8,49.8c3.1,20.8,5,42.6,4,63.6c-0.5,10.3-1.7,20.6-4.9,30.4c-0.8,2.7-1,7.1,2.3,8c3.3,0.9,6.6-2.8,7.8-5.4
				c9.9-21.6,12.1-44.2,10.9-67.7c-1.1-20.9-3.6-41.7-6.7-62.4c-4.9-32.5-10.8-65.5-24.2-95.7c-13.7-31-35-56.6-61.8-77.1
				c-28.1-21.6-60.4-40.6-94.9-49.6c-34.9-9.1-71.1-6.4-106.5-1.5c-33.2,4.7-66,12.8-96.3,27.4c-24.3,11.7-46.2,28-63.8,48.5
				c-16.7,19.5-29,42.3-38.1,66.2c-20.3,53-25.1,111.1-29.3,167.2c-0.6,7.6-1.1,15.2-1.7,22.8c-0.2,3,0.9,6.2,4.5,5.4
				C264.3,430,266.8,425.3,267.2,422.1L267.2,422.1z"/>
		</g>
	</g>
	<path d="M384,415.8c-0.3-0.4-0.7-0.9-1-1.3c-4.1-6.2-10.9-10.5-18.7-11.3c-4.7-1-9.6-0.9-14.3,0.7c-3.8,1.3-7.5,3.7-9.8,6.9
		c-10.5,7.6-12.5,22.4-4.2,33.5c10.3,13.8,29.5,14.6,42.9,5.2C390.4,441.4,392.6,427,384,415.8z M337.2,422.8
		c-0.2,1-0.4,1.9-0.5,2.9C336.7,424.7,336.9,423.7,337.2,422.8z"/>
	<path d="M681.4,408.8c-0.3-0.4-0.7-0.9-1-1.3c-4.1-6.2-10.9-10.5-18.7-11.3c-4.7-1-9.6-0.9-14.3,0.7c-3.8,1.3-7.5,3.7-9.8,6.9
		c-10.5,7.6-12.5,22.4-4.2,33.5c10.3,13.8,29.5,14.6,42.9,5.2C687.8,434.3,689.9,419.9,681.4,408.8z M634.6,415.7
		c-0.2,1-0.4,1.9-0.5,2.9C634.1,417.6,634.3,416.7,634.6,415.7z"/>
	<circle class="st7" cx="366.1" cy="422.3" r="10.1"/>
	<circle class="st7" cx="647.8" cy="416.1" r="10.1"/>
	<g>
		<g>
			<path class="st8" d="M270.7,442.8c-12-11.4-30.1-26.6-48.1-19.4c-20.2,8.1-31,30.8-32.8,51.5c-2.2,25.4,8.2,75.3,44.2,65.3
				c14.7-4.1,26.5-17.5,35-29.5c5.9-8.3,12-23.4,4.6-32.8c-7.4-9.3-20.1,0.3-25,7.2c-1.5,2-3,4-4.6,6c-2.9,3.5,4.2-4.6,1.2-1.4
				c-0.7,0.8-1.4,1.5-2.2,2.2c-0.7,0.7-1.4,1.3-2.1,1.9c-2.9,2.5,4.7-3.5,1.7-1.4c-1.3,0.9-2.6,1.7-4,2.4c6.4-3.2,2.1-1,0.2-0.5
				c-2.7,0.7,4.8-0.5,2-0.2c-0.6,0.1-1.2,0-1.8,0c-1.7,0-5.7-1.3,0.2,0.4c-1.3-0.4-2.5-1-3.6-1.6c-3.7-2.1,0.4,0.5,0,0.2
				c-0.9-0.8-1.8-1.8-2.6-2.7c-0.8-1-1.6-2.1-2.3-3.2c-0.4-0.6-0.7-1.2-1.1-1.8c-1.4-2.4,2.3,4.6,0.5,0.8c-1.3-2.7-2.3-5.5-3.1-8.3
				c-0.4-1.5-0.8-3-1.1-4.5c-0.7-3.3,1,5.2,0.4,1.9c-0.2-1-0.3-2.1-0.5-3.1c-0.4-3.1-0.6-6.2-0.6-9.2c0-3.5-0.3,6.1-0.1,2.7
				c0-0.7,0.1-1.5,0.2-2.2c0.1-1.4,0.3-2.9,0.6-4.3c0.8-4.8-1.9,7.1-0.3,1.5c0.2-0.6,0.4-1.2,0.6-1.9c1.2-3.4-3.1,7.2-1.6,3.9
				c2.4-5.5-2.4,3.4-1.5,2.1c3-4.5-5.1,4.9-1.2,1.4c-5.6,5-4.4,3.3-2.8,2.2c1.3-0.9,4-1.9-2.7,1.1c1-0.5,2.1-0.7,3.2-0.9
				c-6.3,1.2-2.2,0.3-0.2,0.5c0.7,0,1.3,0.2,2,0.3c2.6,0.4-4.4-1.4-0.5-0.1c3.5,1.1,6.7,3,9.7,4.9c1.9,1.2,3.7,2.6,5.5,4
				c-3.3-2.6,0.2,0.2,0.7,0.6c1.4,1.2,2.8,2.5,4.1,3.8c8.6,8.1,19.2,0.6,25-7.2C271.4,468.5,279,450.8,270.7,442.8L270.7,442.8z"/>
		</g>
	</g>
	<path class="st8" d="M835.6,453.1c-1-4.4-2.6-8.5-4.6-12.3c0.9-5.7,0.3-11.4-3-15.5c-3.4-4.3-7.7-4.6-11.9-3.1
		c-6.6-5.8-14.2-10.6-22-14.3c-12.6-6-26.8,11.5-29.7,26.8c-4.4,4.3-8.3,8.8-11.3,12.4c-6.3,7.9-11.8,23.8-4.6,32.8
		c7.7,9.6,19.8-0.7,25-7.2c0.3-0.3,1.1-1.3,1.7-2c0.9-0.9,1.8-1.8,2.7-2.6c0.1,1.8,0.3,3.4,0.7,4.9c0.6,2.4,0.8,3.2,1,5.3
		c-0.8,0.5-1.8,0.9-3.3,1.7c-5.8,3.1-11.8,10.9-14.9,19.3c-14.4,11.8-22.4,43-4.1,43c6.4,0,12.4-4.7,17.1-11.2
		c11.3,7.5,24.5,8.9,35.9-3.9c4.6-5.2,8.3-10.9,11.1-16.9C833.5,493.8,840.3,473.7,835.6,453.1z M779.9,480.6
		c-0.1,0.1-0.1,0.3-0.2,0.5C779.8,480.9,779.9,480.7,779.9,480.6C779.9,480.5,779.9,480.5,779.9,480.6z"/>
	<g>
		<g>
			<path class="st8" d="M765.9,938.8c-8.5-34.5-22.8-67.8-42.6-96.9c-7.7-15.8-17.4-30.7-27.6-44.2c-28.4-37.6-66.5-62.4-112.8-71.7
				c-47.6-9.5-97.3-1.7-144.4,6.9c-42.1,7.6-87.4,12.7-122.7,39.1c-12.4,9.3-22.4,20.2-30.6,32.3c-5.7,5.6-11,11.7-15.9,18.3
				c-22.7,30.7-31.5,68.1-32.2,105.6c-0.5,0.9-0.9,1.8-1.3,2.8c9.7,8.3,19.5,16.5,29.5,24.4c7.2,5.5,14.5,10.9,21.9,16.1
				c9,3.4,18,6.6,27.2,9.6c45.2,14.9,91.6,25.8,137.4,38.6c47.8-1,95.5,0.9,143.1-4.6c32.7-5.1,65.1-16.1,95.7-28.6
				c8.4-3.6,16.7-7.4,24.9-11.4c0.1-0.2,0.3-0.3,0.4-0.5c0.8-0.3,1.6-0.6,2.4-0.9c15.5-7.5,30.8-15.4,46-23.6
				C766.2,946.7,766.8,942.7,765.9,938.8z M721.1,934.4c-1.8,7.6-5,14.1-9.3,19.7c-29.5,10.3-59.7,18.1-90.8,22.7
				c-46.9,6.9-94.7,6.2-141.9,4.3c-40.6-1.6-81.3-4.2-121.3-11.8c-34.2-6.5-70.6-17.4-98-39.8c6.5-30.5,12.6-61.4,24.1-90.3
				c3.1-7.7,6.8-14.8,11.2-21.3c18.5-17.2,42-28.8,65.8-36.8c36.6-12.3,75.5-16.7,113.9-18.5c43.2-2,86.9-2.2,128,13
				c43.8,16.2,78.6,46.3,104,83.5c2.7,5.8,5.2,11.6,7.4,17.4C720.9,894.6,725.5,915.4,721.1,934.4z M734.2,945.7
				c2.6-6.7,4.4-13.9,5.4-21.6c2,5.7,3.9,11.4,5.6,17.1C741.6,942.8,737.9,944.3,734.2,945.7z"/>
		</g>
	</g>
	<g>
		<g>
			<path class="st8" d="M742.8,912c-9.1,1.8-18.1,4.1-27,6.7c6.4-9,11.4-18.9,14-29.8c3.3-13.6-1-30.3-18-21.7c-3,1.5-6,3.1-9,4.7
				c4.7-6.5,8.9-13.4,12.7-20.7c4.5-8.7,7.6-36.6-10.8-30.1c-16.8,5.9-32.9,13-48.6,20.9c4-4.7,8-9.4,11.8-14.3
				c5.9-7.4,9.9-19.5,6.7-28.8c-3-8.6-11.6-9.1-18.5-5c-11,6.5-21,14.1-30.7,22.2c6.3-9.3,12-19.1,16.7-29.4c3.2-7,5.8-15.3,3.1-23
				c-2.8-8.2-11.8-9.6-18.5-5c-19.4,13.4-39.6,25.4-60,37.1c4.2-7.6,7.7-15.7,10.5-24.2c3.3-10.3,1.4-27.5-13.4-23.9
				c-25.3,6.2-49,17.4-71.7,30.2c5.3-6,9.1-13.2,10.1-21.2c0.8-6.3-1-19.1-10.3-18.3c-32.8,2.7-61.6,14.3-88.6,29.8
				c1.8-4.6,2.6-9.5,2.3-14.2c-0.6-8.4-6.3-14.2-14.9-12.1c-33.3,8.2-63.1,23.6-88.7,46.5c-24.7,22.1-44.2,49.8-65.3,75.3
				c-6.4,7.7-11.7,23.9-4.6,32.8c4.7,5.8,10.9,4.3,16.2,0.8c3.6,7.2,11.1,6.2,17.7,3.1c2.1-1,4.2-2,6.3-3.1
				c-9.6,12.1-18,25.2-24.6,39.6c-0.4,1-0.9,2-1.3,3.2c6.2,5.2,12.5,10.3,18.8,15.3c3.2,2.4,6.4,4.8,9.6,7.2
				c18.9-6.7,36.6-17.8,52.9-28.9c1.5-1,2.9-2,4.4-3c-10.7,8.6-20.7,17.9-29.7,28.1c-3.9,4.4-7.4,9.4-9.6,14.9
				c7.2,2.6,14.3,5.1,21.6,7.5c8.1,2.7,16.2,5.2,24.4,7.6c11.3-4.7,22.1-10.4,32.7-16.7c-0.7,2.2-1.2,4.4-1.5,6.6
				c-1,7.9,3.4,22.9,14.7,17.7c21.8-10,43.9-19.5,65.8-29.3c-10,6.9-17.1,19.6-16.2,31.9c0.9,11.7,9.9,14.8,19.5,9.9
				c19.5-9.8,38.3-21.1,56.8-32.9c-2,2-3.9,4-5.8,6.1c-7.1,7.8-12.7,17.6-11.8,28.6c0.3,3.4,1.3,6.3,3.1,8.5
				c8.2,0,16.4-0.1,24.6-0.2c20.3-6.5,39.5-15.5,58-25.8c-0.6,2.9-0.9,5.8-0.6,8.7c0.5,7.2,6.5,15.7,14.9,12.1
				c46.9-20.6,93.1-45.8,143.7-55.7C755.8,954.5,769,906.9,742.8,912z M441.9,860.7c-27,16.4-56,32.1-82.9,50.2
				c12.1-9.2,24.1-18.6,36.3-27.7c23-17.1,48.1-31.6,72.4-46.8c15.3-9.6,30.8-18.8,47-26.6c-1.4,1.3-2.9,2.5-4.3,3.8
				c-10,8.7-17.9,14.3-29.8,22.4C467.9,844.7,455,852.8,441.9,860.7z M516.2,871c-16.7,11.3-33.8,21.9-51.1,32.3
				c22.2-16.7,45.1-31.2,69.2-44.9C528.4,862.6,522.3,866.8,516.2,871z"/>
		</g>
	</g>
	<g>
		<g>
			<path class="st1" d="M419.9,729.2c-3.5,19.5-1.7,40.3,10.4,56.6c10,13.4,27,19.7,43.1,21.2c39.9,3.7,78.8-23.2,95.3-58.5
				c3.6-7.7,8.5-24.7-2.3-29.7c-18.1-8.4-42.2-4.3-60.8,0.2c-25.9,6.4-53.8,27.5-46.9,57.7c2.4,10.3,13.3,16.8,22.3,20.6
				c13.6,5.7,29.7,5,43-0.8c16-6.9,29.3-19.7,36.2-35.8c8.4-19.6,7.7-38.2-2.4-56.9c-5.9-10.8-21.1,1.8-25,7.2
				c-7.1,9.5-10.4,22-4.6,32.8c1.5,2.7,2.1,5.4,2.3,8c-0.4-3.7-1.2,4.5,0.2-0.9c1.7-6.4-2.4,2.9,1.3-2.6c2.8-4.1-1,0.9-1.8,1.6
				c3-2.7-2.7,1.4-2.9,1.5c-0.5,0.3-6.1,2.1-8.5,2.3c-8.4,0.8-15.5-1.5-22.6-5.6c-3.6-2.1-1.8-0.4-4.4-3.9c4.4,5.8-1,19.6-7.3,26.5
				c1.6-1.5,1-1.1-1.9,1.2c1-0.8,2.2-1.4,3.3-2.1c0.8-0.5,5.1-2.4,0.7-0.5c1.5-0.6,3-1.2,4.5-1.7c6.8-2.5,14-3.9,21.1-5.1
				c2.8-0.4,12-1,17.2-0.9c3.1,0.1,6.3,0.4,9.4,0.9c0.7,0.1,5,1.3,1.1,0.2c1.1,0.3,2.2,0.8,3.2,1.3c-0.7-9.9-1.5-19.8-2.3-29.7
				c-0.5,1.2-1.1,2.3-1.7,3.4c-2.9,5.8,3.2-4.7-0.3,0.7c-1,1.6-2.2,3-3.3,4.5c3.8-4.8,0-0.1-0.8,0.8c-1,1-8,6.6-3.9,3.6
				c-2.9,2.2-6.1,4-9.3,5.8c-2.1,1-2.2,1.1-0.3,0.3c-1.6,0.7-3.3,1.4-5,2c-3.3,1.3-6.8,2.2-10.3,3c-4.7,1.1-3.8,0.8-7.7,1.1
				c-3.4,0.3-6.8,0.2-10.2-0.1c-7.2-0.5-9.1-1.1-14.8-3.5c-2.4-1-4.6-2.3-6.8-3.7c-3.2-2-1.6-0.8-4.9-4.2c-1.8-1.9-3.2-4-4.6-6.2
				c1.9,3.1-0.5-1.4-0.7-1.8c-0.7-1.5-1.1-3.2-1.6-4.8c-1.6-5.3,0.4,3.7-0.4-2c-0.3-1.9-0.3-3.8-0.4-5.7c-0.2-6.4-0.4,4.2,0.2-2.6
				c0.2-2.2,0.6-4.5,1-6.7c1.7-9.3-3.5-21.1-14.7-17.7C428.7,704.4,422,717.9,419.9,729.2L419.9,729.2z"/>
		</g>
	</g>
	<g>
		<g>
			<path d="M263.8,438c-17.1-11.3-41.1-21.4-59.8-7.6c-15.1,11.1-19.2,32.6-18.1,50.2c1.2,18.8,8.7,39.1,23.5,51.3
				c16.4,13.5,41.7,12.2,56.6-3.1c1.2-1.3,5.5-11.3,0.5-10.4c-9.1,1.5-16.8,6.7-26.2,7.2c-7.7,0.4-15-2-21.3-6.2
				c-13.3-8.7-20.9-25.6-23.3-40.8c-2-12.5-1.7-29.1,8.9-37.9c15.6-12.9,40.1-1.8,55.2,6C262.9,448.2,266.7,439.9,263.8,438
				L263.8,438z"/>
		</g>
	</g>
	<g>
		<g>
			<path d="M765,437.9c13.5-8,33.6-15.7,47.4-4c11.2,9.5,13.7,26.7,13.5,40.5c-0.2,14.5-4.3,30.6-14.1,41.6
				c-12.7,14.1-28,8.9-43.7,4.7c-4.8-1.3-11,9.7-7.2,12.9c16.2,13.5,38.7,9,52.8-4.9c14.4-14.2,21.1-36.5,22.1-56.2
				c0.9-17.1-1.7-38.2-16.2-49.5c-17.9-14-40.2,0.1-54.8,12.1C764,435.6,763.1,439,765,437.9L765,437.9z"/>
		</g>
	</g>
	<g>
		<polygon class="st3" points="372.6,704.5 372.6,704.5 372.6,704.5 		"/>
		<path class="st8" d="M796.4,332.4c-3.2-3.7-7.9-4.8-13.1-3.1c-0.6,0.2-1.3,0.4-1.9,0.6l0-0.1L781,330c-15.6,5-25.7,4.1-35.5,2.3
			c1.9-6.3,3.4-12.7,4.5-19.3c0.9,0,1.8-0.3,2.7-0.8c3.5-2.2,5.5-6.6,5.4-10.7c-0.5-20-3-40-8.4-59.1c-1.7-8.1-4.3-16-8.1-23
			c-5.6-13-12.8-25.4-21.9-36.8c-23.4-29.4-58.3-47.4-94-57.1c-20-5.4-40.4-8.4-61-9.9c-24-1.7-48.2-1.4-72,3
			c-3.3,0.6-6.5,1.3-9.7,2.1c-32.6,1.2-64.8,7.5-94.4,21.9c-2.8,1.3-5.5,2.8-8.1,4.3c-14.9,5.6-29.4,12.3-43.1,20.2
			c-18.7,10.8-36.4,25.2-46.7,44.5c-7.5,14-9,29.6-5.4,44.4c-3.2,13.9-3,28.4,0.8,42.4c-12.1,8.5-23.7,17.7-34.7,28
			c-6.5,6.1-11.1,15.1-12.3,24c-0.5,4-0.3,12.2,4,17.1c2.1,2.4,5,3.6,8.3,3.5c10.5-0.5,21.3-1.8,32.7-3.9
			c-9.2,4.5-17.4,9.2-25.1,14.3c-9,5.9-15.6,16.6-17,27.7c-0.6,5,0,12.4,4,16.9c2.1,2.4,4.9,3.7,8.3,3.7c20.5-0.1,42-1.8,65.4-5.3
			c-26.6,11.5-54.2,24-81,39.1c-10.1,5.7-15.9,18.1-17.1,27.8c-0.8,6.5,0.6,12.6,3.9,16.3c3.1,3.6,7.8,4.9,13.2,3.6
			c21.9-5.2,41.2-9.9,58.9-14.5c-4.3,1.8-8.6,3.7-12.9,5.6l-1.1,0.3l0,0.3c-11.2,5.3-19.2,16.6-20.9,29.6
			c-0.8,6.5,0.6,12.6,3.9,16.3c3.2,3.6,7.8,4.9,13.2,3.5l2.3-0.6c-0.5,0.2-1.1,0.5-1.5,0.7l-0.4,0.1v0.1c0,0.6-2.2,1.2-3.4,1.9
			c-9.6,4.9-15.7,17.7-17,27.8c-0.8,6.5,0.7,12.6,4,16.4c3.2,3.6,7.8,4.9,13.2,3.5c11.2-2.8,22.4-5.9,34.1-9.4
			c-8.2,8-15.3,24.9-12.6,35.6c1.8,7,7.7,10.3,16.4,9.1c7.9-1.1,16.1-2.5,24.2-4.2c-3.1,5-5.2,10.7-6,16.5
			c-0.6,4.8,0.1,12.1,4.3,16.8c3.2,3.7,7.9,4.8,13,3.1c3.7-1.2,7.4-2.5,11.1-3.7c-4.2,5.5-7,12.2-7.9,19c-0.9,6.6,0.5,12.2,3.7,15.9
			c3.1,3.5,7.7,4.9,13.3,4c0.7-0.1,1.5-0.3,2.2-0.4l0.1-0.2c7.5-1.2,15-2.7,22.5-4c-3.9,8.8-5.9,18.8-2.1,25.1
			c1.1,1.8,2.9,3.2,6.1,3.8c1.3,0.5,2.8,0.8,4.5,0.8c0,0,0,0,0.1,0c5.9,0,11.8-0.1,17.7-0.2c11.3,0.1,22.6,0.1,33.7-0.6
			c0.7,5.8,3.6,11.2,8.3,13.2c13.4,5.9,28.3,8.9,44.5,8.9c34.5,0,69.4-13.5,92.7-23.7c44.3-19.3,84.4-44.7,121.2-69.2l1-0.6l0-0.1
			c10.5-7.5,17.2-21,16.2-33.2c-0.6-8.6-5.9-14.1-13.3-14.1c-0.5,0-1,0-1.5,0.1c11.9-9.5,21.9-19.8,30.2-31.2
			c5.8-7.9,10.6-20.1,7-30.6c-1.5-4.4-4.8-7.5-8.9-8.5c2.2-1.9,4.3-3.9,6.4-5.8c8.3-7.9,13.2-19.7,12.4-30.1
			c-0.5-7.1-5.3-14.6-13-14.6c-1.5,0-3,0.3-4.6,0.9c-2.3,0.9-4.7,1.8-7.1,2.6c8.2-5.7,14.2-16.1,15.6-26.8c0.7-5-0.5-12.5-4.4-17
			c-3.3-3.7-7.9-4.7-13-2.8c-0.6,0.2-1.2,0.5-1.8,0.7l0-0.3l-1.3,0.8c-1,0.4-2,0.7-3,1.1c6.9-5.5,13.7-11.2,20.1-17.1
			c6.5-5.9,11.1-14.9,12.3-24.1c0.7-5.4-0.3-12.7-4-16.9c-1-1.2-2.2-2.1-3.6-2.7c6.7-3.7,13.3-7.5,19.8-11.3
			c10.1-5.9,15.9-18.2,17.1-27.8C801.4,342.8,799.7,336.3,796.4,332.4z M361.4,198.5c-9.2,8.8-18.2,17.8-27.5,26.5
			c2.7-4.1,5.6-8,8.8-11.9c2.1-2.6,4.6-5.3,7.3-7.9c5.3-4.4,11-8.4,16.9-12c-0.5,0.5-1,1-1.5,1.4C364,195.8,362.6,197.1,361.4,198.5
			z M311,246.1c5.1-14,11.7-27.5,20.2-39.7c4.2-3.9,8.7-7.4,13.4-10.8c-13.5,14.3-24.2,30.9-32,49
			C312.1,245.1,311.5,245.6,311,246.1z M690,177.3c0.6,0.5,1.3,1.1,1.9,1.6c-0.4-0.2-0.8-0.4-1.2-0.4
			C690.5,178.1,690.3,177.7,690,177.3z M702.7,325.6c0.5,1.2,1,2.3,1.5,3.5c-1.3,0-2.9,0-4.8,0C700.6,328,701.6,326.8,702.7,325.6z
			 M719.4,210.3c-0.5,1.4-0.7,2.8-0.7,4.3c0,2.2,0.1,4.3,0.3,6.4c-6.7-14.7-16-28.4-25.9-41.1c0,0-0.1-0.1-0.1-0.1
			C703,188.6,711.9,198.7,719.4,210.3z M295.1,228.8c0.1-0.7,0.2-1.4,0.4-2.2c0.2-1.1-0.1,0.3,0.4-1.6c1.5-5.7,3.7-9.9,6.7-14.2
			c3.9-5.7,7.4-9.3,12.8-14.1c7.2-6.4,15.1-12,23.5-16.9c-3.5,3.9-6.9,7.9-10.1,12c-13.4,11.3-25.2,24.3-33.9,39.5
			c0,0,0,0.1-0.1,0.1C294.9,230.7,295,229.8,295.1,228.8z M409.4,280.7c1-0.5,2.1-0.9,3.1-1.4c0.1,0.1,0.1,0.3,0.2,0.4
			C411.5,280.1,410.4,280.4,409.4,280.7z M513,274.7c4.7,2.6,9.3,5.4,13.8,8.2c1.8,1.1,3.6,2.3,5.4,3.5c-6.8-3-13.1-6-19-9.3
			C513.2,276.2,513.1,275.4,513,274.7z M531.7,428.1c9.7-7.3,18.8-14.9,27.4-22.7c5.3,1.2,10.7,2.3,16,3.3
			C560.9,415,546.4,421.4,531.7,428.1z"/>
	</g>
	<g>
		<g>
			<path class="st8" d="M489.5,659.3c10.7,1.7,21,0.7,31.5-2.1c5.5-1.5,10.6-3.9,15.6-6.7c0.4-0.2,0.9-0.6,1.5-1
				c0.8-0.3,1.5-0.5,2.3-0.8c7.4-2.8,12.3-5.9,15.1-11.9c0.5-0.8,0.9-1.5,1.3-2.4c1.2-3,4.1-12.9-2.3-12.8c-3.8,0.1-6.4,2.7-9.1,5.2
				c-22.5,6.8-48.5,7.2-67.4-8.5c-5.4-4.5-12.1,2.5-14.4,10.2c-5.1-4.3-9.6-9.5-13.3-15.4c-2.1-3.4-7,5-5.9,7.6
				C452.7,639.6,468.2,655.8,489.5,659.3z"/>
		</g>
		<g>
			<path class="st8" d="M555.3,740.9c-17.2,9.5-37.1,13.2-56.6,12.6c-19.5-0.6-41.2-5.4-53.1-22.2c-3.7-5.2-9.8,7.7-8.7,11.2
				c15.3,46.4,75.2,51.9,113.8,32.6c8.1-4,13.2-13.4,14.3-22.1C565.7,747.7,563.3,736.5,555.3,740.9z"/>
		</g>
	</g>
	<g>
		<g>
			<path d="M445.1,615.3c16.4,13,33.1,21.9,53.9,24.9c17.7,2.5,41.6-0.4,54.8-13.2c1.9-1.9,7.3-14.8,0.7-14.1c-8,1-15.6,6.5-23.4,9
				c-8.8,2.8-18.4,3.3-27.5,3c-18.9-0.6-38.8-7.4-55.8-15.4C445.6,608.4,443.3,613.9,445.1,615.3L445.1,615.3z"/>
		</g>
	</g>
	<g>
		<g>
			<path d="M215.8,483.5c6.3-7.7,14.7-13.6,24.9-13.8c11.3-0.1,13.8,9.9,18.1,18.1c2,3.7,6.3-4.5,6.4-5.9
				c1.4-12.6-4.9-25.1-18.9-25.4c-13.7-0.2-26,11.3-33.2,21.7C211.3,480.9,212.2,487.9,215.8,483.5L215.8,483.5z"/>
		</g>
	</g>
	<g>
		<g>
			<path d="M265.7,477.1c-8.1-0.3-18.4-0.4-24.1,6.4c-5.7,6.7-4.6,16.9,0.3,23.8c2.1,3,5.5-4.4,4.9-6.3c-0.9-2.8-5.1-10.2-2.1-12.8
				c4.8-4.1,13.1-4.2,19-4.6C266.1,483.6,268.6,477.2,265.7,477.1L265.7,477.1z"/>
		</g>
	</g>
	<g>
		<g>
			<path d="M773.6,492c3-8.1,9.3-13.7,17.8-15.5c7.7-1.6,13.6,2.3,20.6,4c4.5,1.1,9.2-8,6.3-11.3c-7.3-8.4-20.5-8-30-3.9
				c-10.7,4.6-17.5,16.2-20.3,27C766.2,498.8,772,496.3,773.6,492L773.6,492z"/>
		</g>
	</g>
	<g>
		<g>
			<path d="M770.4,497.8c4.1-1.6,11.7-4.3,14.9,0.3c1.1,1.6,0.4,4,0.1,5.8c-0.6,3.4-2.1,6.5-2.7,9.9c-0.5,2.8,1.8,3.6,3.6,1.7
				c5.3-5.7,9.7-17.6,5-25c-4.4-7-15.8-0.7-20.7,2.1C769.3,493.4,767.7,498.8,770.4,497.8L770.4,497.8z"/>
		</g>
	</g>
	<g>
		<g>
			<path d="M423.5,732.8c-7.5,23.6-6.1,49,11.8,67.6c15.9,16.6,39.8,23.3,62.2,23c23.5-0.3,47.2-8.3,64.2-24.9
				c8.8-8.6,15.2-20.1,18.4-32c2.6-9.7,5.2-28-4.5-34.4c-3.7-2.4-7,6.1-7.4,8.2c-1.8,9.7-0.4,20.5-3.1,29.3c-0.8,2.6-1.8,4.5-4.4,8
				c-1,1.5-4.7,5-7.1,7c-15.2,12.1-35,16.8-54.1,17.1c-19.2,0.3-39.3-3.8-54.8-15.7c-16.9-13-20.2-34.8-16.2-54.5
				C429.5,726.7,424.4,730.1,423.5,732.8L423.5,732.8z"/>
		</g>
	</g>
	<g>
		<g>
			<path d="M424.8,729.5c-55.5,0.3-118.6,0.2-155.3,49.4c-16.3,21.8-24.9,47.8-29.9,74.2c-4.8,24.9-7.2,51.5-4.9,76.8
				c1.6,1.4,3.2,2.8,4.8,4.2c0.8-1.1,1.5-2.4,1.6-3.2c9.1-46.8,5.9-99.1,34.4-139.9c32.2-46.2,97.2-38.9,145.6-49.3
				C425.1,740.9,430.6,729.5,424.8,729.5z"/>
		</g>
	</g>
	<g>
		<g>
			<path d="M574.9,746.6c26.3-2.1,54.5-0.8,79.5,8.3c22.5,8.2,39.7,24.1,53.9,42.9c15.1,20.1,24,43.3,32.4,66.7
				c8.5,23.9,15.4,48.6,20.3,73.5c1.5,7.5,11.6-5.2,10.9-10c-8-53-17.3-106.4-50.3-150.4c-14.5-19.4-35.3-34.3-58.3-41.7
				c-29.4-9.5-59.1-4.1-87.4,6.5C574.7,742.8,573,746.7,574.9,746.6L574.9,746.6z"/>
		</g>
	</g>
	<g>
		<g>
			<path d="M278.9,877.6c10.3,0.9,22.3,4.7,26.8,14.9c4.2,9.4,4,21.3,3.8,31.4c-0.2,11.4-1.9,22.8-3.1,34.2c-0.6,5.4-2,13-1.6,19.7
				c3.2,1.1,6.5,2.2,9.8,3.3c1.4,0.5,2.8,0.9,4.3,1.4c1.8-3.1,3-6.4,3.2-7.7c1.6-10.4-0.3-22.1,0-32.7c0.3-12.1,0.7-24.2-0.8-36.3
				c-1.3-10.1-5.1-18.8-12.5-25.9c-8.2-7.8-19-7-29.2-4.5C278.7,875.5,277.9,877.5,278.9,877.6z"/>
		</g>
	</g>
	<g>
		<g>
			<path d="M306.3,391.7c10.6-10.2,24.9-14.3,39-17.6c14.5-3.3,29.9-3.9,44.5-1c18.5,3.6,30.4-38.7,14.6-38.2
				c-39.6,1-80,13.2-102.5,48C298.9,387.5,299.3,398.5,306.3,391.7L306.3,391.7z"/>
		</g>
	</g>
	<g>
		<g>
			<path class="st1" d="M660.7,882.9c2.8-1.7,5.4-3.6,8.2-5.4c0.1,2.8,0.9,5.5,2,8.1c-9.3,33.2,8.1,69.9,13,103.6
				c2.3-0.9,4.6-1.8,6.8-2.8c3.4-1.5,6.9-3,10.3-4.6c0.3-0.9,0.6-1.8,0.7-2.6c4.1-37.7,4.1-77.9-15.5-111.5c0.2-0.3,0.3-0.6,0.5-0.9
				c0.8-1.5,1.6-7.7-1.9-6c-0.9,0.5-1.9,1-2.8,1.5c-0.5-0.2-1-0.3-1.6-0.3c-0.8,0.1-1.6,0.1-2.3,0.2c-4,0.3-6.6,4.1-8,8
				c-3.2,2.4-6.4,5-9.6,7.4C658.7,878.9,657.4,885,660.7,882.9z"/>
		</g>
		<g>
			<path class="st1" d="M479.6,856.5c-20.4,1.1-40.1-9.6-54.6-23.3c-6.8-6.4-12.4-14-17.3-21.9c-5-8.1-7-18.2-12.7-25.7
				c-0.8-1-1.9-1.5-3.2-1.5c-0.7,0.1-1.4,0.3-2,0.5c-0.7-3.9-1.3-7.8-1.6-11.6c-0.5-6.6-6.8,2.1-7,5.2c-0.2,5,0,10.1,0.6,15.1
				c-2,6.3-1.3,14.3,0.1,19.5c1.5,5.6,4,11.1,6.9,16.3c4.2,16.4,10,32.4,18.4,47.1c7,12.2,17.4,25.1,32.1,27.4
				c18.1,2.9,32.8-14,41.2-27.8C482.8,872.5,489.1,856,479.6,856.5z"/>
		</g>
	</g>
	<path class="st1" d="M777.8,367.4c0.2-0.8,0.3-1.5,0.5-2.3c0.4-1.8-0.3-3.9-1.7-4.7c-0.8-4-1.7-8.1-2.8-12.1c-1.5-5.4-7.1-0.3-9,3
		c-1.7-17.3-5-34.5-9.2-51.2c-9.2-36-23.9-71.1-44.5-102.2c-0.5-0.7-1.1-1-1.8-1.1c-3.3-6.5-7-12.7-11.2-18.4
		c0-16.2-15.1-27.8-27.8-35.8c-10.5-6.5-22-12-33.8-16.4c-9.4-8.7-19.6-16.5-31.1-22.5c-25.5-13.4-55.6-14.2-83.5-10.3
		c-25,3.5-49,10.7-72.6,19.2c-9.3,2.6-18.5,5.6-27.5,9.1c6.4-1,12.8-1.8,19.3-2.5c38.5-4.2,78,0.5,115.1,11.1
		c21.6,6.2,43.2,14.5,62.9,25.5c4.6,2.6,9.1,5.4,13.5,8.4c0,0,0.1,0,0.1,0c7.9-0.3,16.5-0.2,24.5,1.2l0.3,0.3
		c-7-0.4-14,0.2-20.9,1.2c4.5,3.3,9,6.8,13.3,10.3c2,1.6,3.8,3.3,5.6,5c3.6,1.6,7.2,3.1,10.7,3.8c0.9,0.2,1.7,3.4,2.6,3.6
		c8.3,10.6,16,11.5,22.8,23c27,45.2,37.9,97.3,43.2,149.1c1.8,17.1,3.1,34.2,3.9,51.3c-0.4,23.9-0.5,47.7-0.4,71.6
		c-0.3,4-0.5,8-0.9,12c-1.9,22.1-4.8,44.4-11,65.8c-7,23.9-21.4,44.9-36.3,64.6c-17,22.4-35.9,45.2-58.3,62.4
		c-0.4,0.3-0.8,0.6-1.2,0.9c-13.5,4.6-26.2,12.4-36.1,21.9c-10.5,5-21.3,9.1-32.5,12.4c-21.5,6.3-44.2,8.9-66.5,6.1
		c-3.9-0.5-7.6,8.8-3,9.4c32.8,4.5,66.9-2.5,97.5-16.4c0.3,2.2,1.6,3.6,4.8,2.8c10.3-2.5,20.6-8,29.3-14.3c0.4,0.2,0.8,0.2,1.5,0
		c0.3,1.1,1.2,1.7,3,1c3.1-1.1,6.1-2.7,8.8-4.5c0.7,0.7,1.8,0.9,3.1,0.4c16.7-6.7,30.4-21.2,42-34.5c8.9-10.2,16.9-21.3,24.1-32.8
		c2,0.3,4.8-1.4,6.2-3c15.3-17.7,25.4-39.4,33.8-61c6.7-17.2,12.3-35,16.5-53.1c0,6.5,0.1,13,0.6,19.4c0,0.6,0.2,1.2,0.4,1.6
		c3.8-14.6,7.5-29.3,10.1-44.1c0.3-5.7,0.6-11.4,1.1-17.1c0.1,1.4,0.3,2.8,0.4,4.3c0.7-10.9,0.6-21.8-0.4-32.7
		c-0.2-1-0.3-1.9-0.5-2.9c-2.4-13.3-1.5-24.9,4.8-36.9c0.3-0.6,0.7-1.2,1-1.8C780.8,399.1,780.3,383.2,777.8,367.4z M572.2,126.9
		c0-0.1,0-0.3-0.1-0.4c1.4,0.2,2.8,0.3,4.2,0.5C575,127,573.6,126.9,572.2,126.9z M525.4,111.6c1.8-3.6,2.6-8-0.3-9
		c16.9-1.6,33.8-1.1,50.7,2.7c10.6,2.4,20.5,6.7,29.6,12.3C579.2,112,552.2,110.2,525.4,111.6z M717.7,617.4
		c1.1-3.6,2.5-7.1,3.8-10.5c1.1-2.7,2.2-5.4,3.4-8.1c2.1-3.2,4-6.4,5.9-9.8c2.2-4,4.4-8.1,6.5-12.1
		C732.1,590.7,725.9,604.9,717.7,617.4z M743.3,354.3c-0.5-4.7-1.1-9.3-1.7-14c0.7,4.5,1.4,9,2.1,13.6
		C743.6,354,743.5,354.2,743.3,354.3z"/>
	<g>
		<g>
			<path d="M391.3,771.8c-1.6,23.8,7.5,45.7,23.9,62.7c14.9,15.5,43.9,30.1,65.7,24.7c3.2-0.8,8.5-11.1,3.8-12.7
				c-9.8-3.3-20.4-3.3-30.4-6.5c-10.1-3.3-19.5-8.5-28-14.9c-18.5-13.8-30.6-32.7-30.2-56.2C396.2,764.9,391.4,769.6,391.3,771.8
				L391.3,771.8z"/>
		</g>
	</g>
	<g>
		<g>
			<path d="M661,908.5c3.8,10.4,5.8,21.3,7.9,32.1c3.2,17,5,34.4,7.1,51.6c4.1-1.6,8.2-3.2,12.3-4.8c-0.6-4-1.4-7.9-1.9-11.7
				c-1.6-12.6-3.6-25.1-6.1-37.5c-2.4-12.3-5.9-24.2-10.7-35.8c-3.6-8.5-8.1-17.9-17.4-20.9c-0.5-0.2-0.9,0.8-0.8,1.2
				C653.9,891.6,657.8,899.9,661,908.5z"/>
		</g>
	</g>
	<g>
		<g>
			<path d="M690.4,849.8c-14.5,5.3-27,13.8-36.8,25.8c-1.6,2-3.2,5-2.4,7.7c1.1,3.4,4.5,0.3,5.6-1.2c8.4-11.6,19.8-20,32.7-25.9
				C691.5,855.2,693.6,848.6,690.4,849.8L690.4,849.8z"/>
		</g>
	</g>
	<g>
		<path d="M767.8,326.9c-2.2-7-10.1,5.6-9.2,10.1c16.6,76.9,13.3,181.5-19.5,253.7c-31.3,69-91.7,119.4-166.1,135.4
			c-83.6,17.9-175.4-5-234.9-67.7C278,595,263,505.7,270.7,421.5c-3.9-2.2-7.8-4.1-11.9-5.7c-1.4,10.2-2.5,20.4-3.3,30.6
			c-6.5,83.8,12.1,171.2,70.6,234.3c58.4,62.9,148.4,86.8,231.7,73.1c77.4-12.7,141.8-62.2,180.4-129.6
			C785.5,541.7,796,417.4,767.8,326.9z"/>
	</g>
	<g>
		<g>
			<path d="M723.6,381.7c-8.8-15.7-23.1-29-39.9-35.5c-16.4-6.4-35-9.2-52.5-9.7c-16.9-0.5-25.4,41.3-11.6,38.8
				c16.8-3.1,33.5-3.1,50.2,0.6c16,3.6,32.4,8,45.2,18.7C720.6,399.2,726,386,723.6,381.7L723.6,381.7z"/>
		</g>
	</g>
	<path class="st7" d="M597.4,505.8c-53.6,2.5-108.2,6-161.4-2.3c-3.7-0.6-6.5,5.1-6.9,8c-1.6,11.9,2.8,22.7,9.6,32
		c-4.5,8.5-5,18.2,3.8,25.6c10.1,8.5,24.4,12.2,37.6,14.2c7.5,3.5,15.5,5.6,23.9,6.3c37.6,3.3,70.3-23.3,86.9-55
		c3.7-7.1,6.6-14.6,9-22.1C600.4,510.5,600.6,505.7,597.4,505.8z M474,541.8c2,1.8,4.2,3.3,6.6,4.6c-4.6-0.6-9.2-1.5-13.5-2.9
		C469.3,542.8,471.6,542.2,474,541.8z M558.9,543.8c-0.4,0-0.7,0-1.1,0c1.3-0.2,2.7-0.4,4-0.5c-0.1,0.6-0.1,1.1-0.2,1.6
		C561.1,544.3,560.2,543.8,558.9,543.8z M456.1,534.7c-0.8-0.9-1.6-1.9-2.4-2.8c2.9-0.1,5.8-0.1,8.6-0.1
		C460.2,532.6,458.1,533.6,456.1,534.7z M443,518.3c0-0.1-0.1-0.2-0.1-0.2c0.2,0,0.4,0,0.6,0.1C443.3,518.2,443.1,518.2,443,518.3z
		 M584.7,520.2c-7.9,0-15.8-0.2-23.8-0.4c9.2-0.4,18.4-0.8,27.7-1.1c-0.4,1.1-0.8,2.1-1.3,3.1C586.9,520.9,586.1,520.2,584.7,520.2z
		 M447.5,553.5c0.3,0.5,0.6,0.9,0.9,1.4c-0.5-0.6-1-1.2-1.4-1.9C447.2,553.2,447.3,553.4,447.5,553.5z"/>
	<g>
		<g>
			<path d="M404.2,489.8c24.1,15.7,53.9,21.7,82.2,24.2c32,2.8,64.9,0.7,96.1-7.5c14.8-3.9,30.9-9.3,43.4-18.4
				c2.6-1.9,4.6-10.5-0.6-7.7c-12.1,6.5-24.1,11.9-37.3,15.7c-14.9,4.3-30.3,6.9-45.8,8.3c-30.7,2.8-62.2,1.4-92.3-5.5
				c-14.6-3.4-29.3-8.2-42.3-15.8C404.9,481.3,401.5,488,404.2,489.8L404.2,489.8z"/>
		</g>
	</g>
	<g>
		<g>
			<path d="M420.2,498c-3.5,43.6,23.1,87,66.5,98.4c19.9,5.2,42.8,2.8,61.8-4.9c16.8-6.8,30.4-18.7,39.8-34.2
				c10.6-17.5,17.3-40.6,16.9-61.1c0-1.9-1.5-2.6-3.1-2c-1.9,0.7-3,3.1-3.3,5c-3.1,17.3-4.8,34.1-13.2,50c-7.4,14-19,25.2-33.5,31.7
				c-17,7.6-37.8,10.3-56.2,7.1c-18.9-3.2-36.1-13.8-48.4-28.2c-15-17.6-22.7-40.4-21.2-63.5C426.4,490.7,420.5,494.3,420.2,498
				L420.2,498z"/>
		</g>
	</g>
	<g>
		<g>
			<path d="M423.6,532.7c25.5,13.1,54.6,20.2,83.2,21.6c29.8,1.5,62.6-3,87.8-20.3c2.5-1.7,3.9-9.6-0.5-6.9
				c-26.2,15.6-55.9,20.6-86.1,19c-27.8-1.5-55.8-7.9-81-19.9C424.2,524.8,420.9,531.3,423.6,532.7L423.6,532.7z"/>
		</g>
	</g>
	<g>
		<g>
			<path d="M267.2,422.1c6.2-55.4,10.6-112.5,26.7-165.2c1.8-5.8,3.7-11.5,5.8-17.1c0.5-1.4,1.1-2.9,1.6-4.3
				c0.3-0.8,0.6-1.6,0.9-2.4c-0.2,0.4-0.8,1.8,0.1-0.1c1.2-2.8,2.4-5.5,3.6-8.2c2.5-5.4,5.2-10.7,8.1-15.8c0.7-1.3,1.5-2.5,2.2-3.8
				c0.2-0.3,1.2-2,0.5-0.8c-0.9,1.4,0.8-1.3,0.8-1.2c1.6-2.4,3.2-4.9,4.9-7.2c3.4-4.8,7-9.4,10.9-13.8c-1.3,1.5,1-1,1.4-1.5
				c1-1.1,2-2.1,3-3.2c2.2-2.3,4.4-4.5,6.7-6.6c9.3-8.6,17.3-14.6,28.5-21.3c24.7-14.8,52.6-23.7,80.8-29.4
				c34.1-6.9,70.3-11.2,105-7c32.4,3.9,61.9,17.4,89.3,34.6c29.1,18.2,55.4,39.6,73.6,69.1c15.7,25.5,24.1,54.9,29.7,84.1
				c3.2,16.5,5.6,33.1,8,49.8c3.1,20.8,5,42.6,4,63.6c-0.5,10.3-1.7,20.6-4.9,30.4c-0.8,2.7-1,7.1,2.3,8c3.3,0.9,6.6-2.8,7.8-5.4
				c9.9-21.6,12.1-44.2,10.9-67.7c-1.1-20.9-3.6-41.7-6.7-62.4c-4.9-32.5-10.8-65.5-24.2-95.7c-13.7-31-35-56.6-61.8-77.1
				c-28.1-21.6-60.4-40.6-94.9-49.6c-34.9-9.1-71.1-6.4-106.5-1.5c-33.2,4.7-66,12.8-96.3,27.4c-24.3,11.7-46.2,28-63.8,48.5
				c-16.7,19.5-29,42.3-38.1,66.2c-20.3,53-25.1,111.1-29.3,167.2c-0.6,7.6-1.1,15.2-1.7,22.8c-0.2,3,0.9,6.2,4.5,5.4
				C264.3,430,266.8,425.3,267.2,422.1L267.2,422.1z"/>
		</g>
	</g>
	<g>
		<path d="M397.8,406c-0.3-0.4-0.7-0.8-1-1.2c-4-6.1-10.7-10.3-18.3-11c-4.6-1-9.4-0.9-14,0.6c-3.7,1.3-7.3,3.6-9.6,6.8
			c-10.3,7.5-12.2,21.9-4.2,32.8c10.1,13.5,28.9,14.3,42,5.1C404,430.9,406.1,416.9,397.8,406z M351.9,412.8
			c-0.2,0.9-0.4,1.9-0.5,2.9C351.5,414.6,351.6,413.6,351.9,412.8z"/>
		<circle class="st7" cx="380.3" cy="412.3" r="9.9"/>
	</g>
	<g>
		<path d="M619.2,438.9c13.1,9.2,31.9,8.5,42-5.1c8.1-10.8,6.1-25.3-4.2-32.8c-2.3-3.2-5.9-5.5-9.6-6.8c-4.5-1.5-9.3-1.6-14-0.6
			c-7.7,0.7-14.3,4.9-18.3,11c-0.3,0.4-0.7,0.8-1,1.2C605.7,416.9,607.8,430.9,619.2,438.9z M660.4,415.6c-0.1-1-0.3-1.9-0.5-2.9
			C660.2,413.6,660.4,414.6,660.4,415.6z"/>
		<circle class="st7" cx="631.6" cy="412.3" r="9.9"/>
	</g>
</g>
</svg>
