<svg xmlns="http://www.w3.org/2000/svg" xmlns:xlink="http://www.w3.org/1999/xlink" width="1030" height="1030" viewBox="0 0 1030 1030"><defs><circle id="a" cx="515" cy="510.903" r="505.377"/></defs><clipPath id="b"><use xlink:href="#a" overflow="visible"/></clipPath><g clip-path="url(#b)"><circle fill="#EF6100" cx="516.035" cy="513.116" r="505.377"/><path fill="#EA2700" d="M64.591 297.241c65.698-60.767 147.472-101.363 226.167-142.394 40.814-21.281 80.746-43.73 120.539-66.854 43.205-25.11 87.469-49.598 136.054-62.561l-2.865-37.722C469.49 58.862 382.01 114.701 296.631 172.294c-43.968 29.659-87.434 59.996-129.215 92.682-20.033 15.671-39.121 32.31-60.043 46.827-21.764 15.1-44.41 28.884-66.553 43.41-20.462 13.421-40.42 27.7-58.93 43.736-7.092 6.145-11.695 17.171-10.986 26.521.548 7.209 5.93 13.973 13.85 11.2 98.166-34.393 184.33-95.652 268.734-154.94 42.163-29.617 84.25-59.421 128.115-86.496 19.996-12.341 40.241-24.097 59.857-37.073 21.043-13.919 41.816-28.239 62.964-42.001 37.358-24.313 76.479-48.122 120.034-59.315-2.24-11.118-4.479-22.233-6.717-33.351-3.625 4.497-11.99 11.266-18.963 15.919-10.002 6.67-20.648 12.364-31.156 18.178-23.029 12.742-45.092 27.219-67.552 40.935-51.307 31.333-102.535 62.797-153.854 94.113-51.11 31.189-102.326 62.211-153.79 92.816-45.841 27.263-92.239 53.613-137.737 81.449-57.199 34.991-113.605 73.15-161.329 120.578-6.829 6.785-11.733 16.688-10.986 26.52.56 7.366 5.898 13.781 13.849 11.199 51.945-16.859 99.75-43.608 147.504-69.638 50.274-27.404 102.162-51.78 153.586-76.933 106.723-52.205 213.544-104.201 320.025-156.9 43.588-21.572 87.41-42.348 128.738-68.076 36.969-23.018 73.674-48.996 115.463-62.538-.953-12.575-1.908-25.146-2.863-37.721-32.516 34.458-76.607 55.146-117.221 78.289-50.043 28.516-97.459 62.321-145.693 93.778-48.673 31.741-97.557 62.7-143.463 98.404-36.259 28.201-71.635 58.477-113.409 78.263-71.923 34.064-163.474 55.526-201.331 135.063-3.076 6.463-5.363 14.316-2.909 21.401 1.745 5.041 7.497 9.095 12.933 6.589C147.668 519.081 241.1 460.851 335.032 403.596c46.52-28.354 93.289-56.325 141.23-82.228 49.123-26.541 100.222-49.029 149.865-74.543 51.182-26.305 101.262-54.685 151.102-83.426-.986-12.997-1.971-25.993-2.959-38.989-89.508 66.279-184.82 124.035-280.238 181.28-95.316 57.185-189.7 115.122-280.916 178.698-64.773 45.147-142.418 71.596-192.239 135.972-8.81 11.385-11.101 42.221 10.985 31.383 208.226-102.162 408.941-218.582 611.71-330.956 81.105-44.949 162.598-89.213 245.031-131.684-.984-12.996-1.971-25.994-2.959-38.989C684.77 265.836 489.943 391.84 300.086 524.817c-76.926 53.88-153.004 108.972-228.348 165.044-9.188 6.834-16.062 17.879-15.16 29.759.736 9.7 9.592 15.234 18.119 9.229 43.635-30.725 91.015-55.527 138.017-80.6 48.866-26.063 96.421-53.966 143.454-83.205 97.824-60.819 193.597-125.836 295.82-179.225 79.943-41.755 155.398-91.653 236.615-131.035l-7.129-35.752C726.443 358.66 545.961 465.85 368.333 573.666 274.889 630.387 181.495 687.377 91.73 749.834c-9.318 6.482-16.043 18.146-15.161 29.758.8 10.539 9.317 14.158 18.12 9.229 202.516-113.372 408.093-221.234 609.107-337.292 82.611-47.694 164.387-96.848 244.783-148.196l-10.986-31.381c-4.994 7.511-10.375 14.716-16.096 21.688-5.041 6.146-10.836 12.266-18.377 19.708-14.123 13.94-29.658 26.809-45.09 38.273-35.396 26.297-73.57 48.731-112.08 70.107-37.449 20.79-75.582 40.313-113.115 60.946-42.607 23.422-83.6 49.659-124.551 75.827-65.341 41.754-130.41 84.797-198.977 121.15-60.085 31.858-124.11 59.162-173.204 107.688-6.839 6.763-11.731 16.707-10.986 26.523.621 8.162 5.796 12.764 13.852 11.197 27.105-5.266 51.926-18.041 75.643-31.759 24.855-14.379 49.684-28.81 74.538-43.192a10592.272 10592.272 0 0 0 152.231-89.771c49.53-29.771 100.037-57.95 150.666-85.822 50.375-27.729 102.133-51.93 153.664-77.322 67.275-33.148 131.117-72.73 197.158-108.185l-10.984-31.382c-5.504 7.192-9.137 10.835-17.041 18.056-7.752 7.076-15.979 13.312-24.516 19.367-18.809 13.338-38.715 25.094-58.619 36.7-43.184 25.18-85.117 51.793-126.223 80.276-91.951 63.715-180.73 131.846-272.466 195.852-62.605 43.68-127.018 85.396-195.643 119.062.985 12.998 1.973 25.992 2.959 38.99 48.336-27.514 98.725-51.11 148.232-76.385 25.086-12.807 49.888-26.168 74.098-40.57 24.189-14.391 46.895-30.896 69.81-47.201 23.252-16.545 46.578-32.994 70.564-48.467 23.51-15.166 48.084-28.535 72.547-42.078 48.807-27.02 97.926-53.479 146.338-81.21 61.396-35.17 121.518-72.686 178.057-115.307l-10.984-31.381c-59.98 69.826-146.119 119.632-225.496 166.939-91.051 54.269-181.008 110.707-269.408 169.205-41.197 27.26-81.385 55.868-121.205 85.092-39.393 28.912-78.959 57.73-121.233 82.346-9.595 5.584-15.991 18.822-15.16 29.76.841 11.066 9.201 13.475 18.119 9.229 100.961-48.053 196.104-107.056 291.245-165.517 47.797-29.371 95.674-58.626 144.387-86.461 47.674-27.237 96.566-52.016 145.607-76.669 75.025-37.712 150.205-76.055 218.391-125.428l-7.131-35.751c-33.611 33.213-76.09 55.599-117.895 76.72a4036.47 4036.47 0 0 0-133.637 70.69c-99.297 54.92-199.129 109.007-295.388 169.178-39.694 24.813-79.177 50.248-116.166 78.982-32.521 25.264-64.553 53.299-102.4 70.432-8.953 4.053-15.018 11.319-17.994 20.764-1.853 5.885-3.031 24.238 8.274 22.727 45.448-6.074 87.677-22.926 128.725-42.801 43.948-21.275 85.808-46.648 127.571-71.857 92.4-55.777 188.994-103.604 284.818-153.168 30.955-16.012 61.799-31.99 92.062-49.283 29.73-16.988 59.459-33.979 89.188-50.967 9.619-5.496 15.986-18.893 15.162-29.76-.805-10.575-9.309-14.111-18.121-9.229-104.188 57.712-206.854 118.118-308.768 179.747-51.145 30.928-102.086 62.186-152.945 93.582-44.668 27.574-85.542 60.625-129.553 89.188-21.202 13.758-43.261 26.518-67.015 35.328l-1.309 40.959C503.59 869.965 701.895 816.902 881.025 723.965c47.312-24.547 93.092-52.107 136.094-83.643 9.217-6.759 16.057-17.939 15.158-29.76-.758-9.986-9.484-14.868-18.117-9.23-189.895 124.01-375.484 255.295-574.296 364.99a2771.13 2771.13 0 0 1-59.695 31.967c2.378 11.916 4.754 23.834 7.133 35.753 73.349-58.31 162.89-92.968 248.279-129.313 44.957-19.136 89.818-38.741 132.914-61.835 22.314-11.958 44.492-24.162 66.002-37.533 23.461-14.583 46.566-29.751 71.246-42.24-4.764-8.673-9.529-17.347-14.291-26.021-3.254 5.631 2.838-4.269-.768 1.27-1.092 1.674-2.266 3.292-3.438 4.908-1.197 1.658-2.473 3.257-3.744 4.857-.225.285-4.666 5.494-1.592 2.025-6.42 7.244-13.555 13.844-20.877 20.157-14.346 12.364-31.18 23.663-48.141 34.454-35.631 22.667-73.1 42.25-109.025 64.42-39.857 24.595-76.527 54.363-114.17 82.133-42.477 31.335-86.009 61.83-133.525 85.105-8.502 4.164-17.229 7.84-26.042 11.295l2.864 37.721c61.737-53.27 143.857-80.492 220.312-108.336 80.787-29.419 162.883-61.465 226.773-120.971 7.467-6.956 14.516-14.354 21.266-22.004 7.164-8.119 13.979-19.857 10.072-31.133-3.469-10.01-15.477-8.066-21.377-1.381-114.229 129.437-307.648 132.047-443.065 231.178a404.225 404.225 0 0 0-25.288 20.133c-7.098 6.124-11.694 17.184-10.987 26.521.528 6.965 5.991 14.281 13.852 11.197 97.133-38.068 176.129-109.004 260.493-168.246 66.98-47.034 147.924-76.377 205.264-136.568 10.396-10.917 19.23-22.636 26.766-35.684 7.1-12.287 4.061-35.307-14.291-26.021-23.682 11.984-45.959 26.396-68.422 40.475-22.414 14.05-45.568 26.729-68.828 39.299-42.021 22.707-85.977 41.566-129.891 60.244-90.248 38.377-182.23 75.838-259.648 137.379-7.227 5.744-11.673 17.469-10.986 26.521.82 10.784 9.259 13.842 18.119 9.23C584.75 932.373 771.74 802.459 960.965 677.246a10901.362 10901.362 0 0 1 56.154-36.924c-.986-12.997-1.975-25.994-2.959-38.99-164.072 120.32-362.512 176.992-545.046 261.855-48.148 22.383-95.297 46.992-140.35 75.131-8.23 5.139-13.768 14.977-14.994 24.479-1.043 8.055 3.027 20.432 13.684 16.479 48.654-18.045 91.17-48.992 132.91-79.128 45.078-32.542 91.929-61.575 139.314-90.626 101.836-62.436 204.242-123.967 307.943-183.264a7323.215 7323.215 0 0 1 86.65-48.766c-.986-12.996-1.971-25.994-2.959-38.989-51.547 29.458-102.699 59.62-155.438 86.899l-161.336 83.449c-43.93 22.722-87.301 45.754-129.697 71.244-41.77 25.119-83.296 50.701-126.521 73.278-41.221 21.529-86.023 41.923-132.551 48.142l-9.721 43.49c47.463-21.484 85.909-55.805 127.18-86.811 44.621-33.524 92.951-62.742 140.677-91.576 96.971-58.588 197.004-111.869 295.91-167.064 73.6-41.076 157.643-70.726 218.6-130.965 6.844-6.76 11.734-16.708 10.988-26.521-.729-9.591-9.637-15.373-18.119-9.229-88.59 64.144-188.592 109.527-285.451 159.373-99.426 51.167-193.672 111.626-289.093 169.731-73.313 44.645-147.525 88.053-225.085 124.969.985 12.997 1.974 25.993 2.959 38.989 49.188-28.64 94.676-62.944 140.544-96.503 46.478-34 94.139-66.236 142.511-97.467 87.035-56.191 175.35-110.047 263.912-163.752 74.689-45.296 149.064-94.296 206.426-161.076 5.668-6.597 9.145-18.316 6.219-26.761-2.553-7.37-11.105-9.216-17.203-4.62-89.629 67.563-188.064 121.631-286.24 175.511-49.328 27.073-98.404 53.916-144.787 85.881-23.352 16.091-46.289 32.776-69.5 49.068-23.092 16.206-47.428 30.418-72.158 43.966-61.565 33.727-125.932 62.053-186.961 96.791-9.623 5.477-15.984 18.906-15.161 29.76.834 10.973 9.22 13.596 18.12 9.23 98.893-48.512 189.041-113.176 277.8-177.873 89.326-65.107 177.656-132.873 271.783-191.008 55.475-34.265 120.369-62.551 160.975-115.647 5.389-7.048 9.266-17.969 6.219-26.763-2.842-8.196-10.652-8.139-17.203-4.62-49.322 26.479-97.434 55.121-146.604 81.871-49.906 27.152-102.031 49.649-152.42 75.84-103.296 53.692-202.542 114.396-302.912 173.234a11495.488 11495.488 0 0 1-97.149 56.283c-30.902 17.713-60.723 37.979-96.278 44.888l2.865 37.721c33.756-33.366 76.161-55.737 118.04-77.181 45.688-23.389 90.239-48.037 134.129-74.68 87.598-53.174 171.681-111.857 262.07-160.353 54.957-29.485 110.545-57.98 162.961-91.898 49.711-32.167 98.854-70.181 131.992-120.016 5.025-7.557 9.408-17.564 6.219-26.762-2.699-7.791-10.855-8.674-17.203-4.621-195.874 125.101-399.874 236.655-603.807 347.894-83.527 45.561-167.061 91.117-250.082 137.596l2.959 38.987c170.951-118.94 354.396-218.405 528.242-332.895 94.264-62.08 185.902-128.777 269.846-204.379 7.025-6.327 11.709-17.035 10.988-26.521-.836-11.01-9.213-13.549-18.121-9.23-51.248 24.849-100.295 53.832-149.523 82.396-49.637 28.8-100.664 55.019-150.33 83.749-99.658 57.645-195.21 122.086-293.781 181.537-72.495 43.725-150.875 77.518-220.271 126.385.986 12.996 1.974 25.991 2.959 38.988C259.711 591.166 449.27 459.51 644.357 336.475c80.434-50.727 161.85-99.902 244.246-147.373 9.607-5.535 15.988-18.861 15.162-29.76-.822-10.815-9.25-13.799-18.121-9.229-206.174 106.221-406.21 223.749-609.96 334.453-81.455 44.258-163.553 87.354-246.781 128.186 3.66 10.463 7.322 20.924 10.984 31.383 25.776-33.307 66.304-56.533 103.788-77.646 19.876-11.199 39.891-22.158 59.179-34.357 21.949-13.881 42.736-29.654 64.248-44.203 92.356-62.463 188.979-118.262 284.289-176.013 77.076-46.703 153.375-94.857 225.838-148.516 9.197-6.81 16.061-17.9 15.162-29.76-.793-10.436-9.346-14.29-18.121-9.229-48.865 28.18-97.98 55.93-148.08 81.867-49.613 25.688-100.764 48.179-150.024 74.562-96.332 51.593-187.564 112.021-281.983 166.92-45.946 26.715-92.727 52.251-141.019 74.497 3.339 9.33 6.681 18.662 10.022 27.99.942-1.981 1.92-3.936 2.938-5.88.276-.531 3.927-6.721 1.067-2.127 2.278-3.658 4.848-7.125 7.494-10.52.166-.215 4.736-5.591 1.714-2.197 1.437-1.612 2.948-3.157 4.456-4.703 3.551-3.637 7.363-7.009 11.248-10.285 4.771-4.025 12.172-9.079 19.403-13.619 8.458-5.309 17.279-10.027 26.193-14.511 34.47-17.341 71.243-29.699 106.114-46.215 43.146-20.438 79.836-52.666 117.23-81.817 44.832-34.949 93.141-64.875 140.709-95.896 48.039-31.331 95.283-64.804 145.126-93.205 42.926-24.461 88.732-46.937 123.102-83.36 6.684-7.083 11.75-16.467 10.986-26.522-.559-7.366-5.898-13.776-13.852-11.199-49.908 16.173-93.238 47.806-137.598 74.86-48.916 29.833-102.049 53.268-153.392 78.592-106.678 52.613-213.652 104.619-320.471 156.94-43.396 21.257-86.617 42.541-129.028 65.714-40.358 22.048-80.935 43.732-124.823 57.98l2.863 37.721c72.181-71.732 163.499-120.633 250.486-171.761 103.368-60.753 205.49-123.591 307.752-186.184 31.838-19.489 63.289-39.891 95.544-58.647 28.137-16.359 57.43-30.229 78.301-56.135 6.781-8.414 13.281-38.491-6.715-33.351-47.434 12.189-90.471 38.454-131.142 64.924-21.107 13.74-41.836 28.054-62.841 41.949-19.62 12.977-39.934 24.667-59.937 37.012-88.903 54.875-170.568 120.623-260.035 174.661C76.087 356.621 34.5 378.267-9.665 393.742c.954 12.572 1.909 25.147 2.862 37.721 39.104-33.88 85.59-57.931 127.51-87.986 21.174-15.181 40.631-32.545 61.216-48.488 20.628-15.976 41.774-31.276 63.117-46.279 86.077-60.504 176.019-115.53 257.792-181.999 18.234-14.82 35.916-30.312 52.962-46.484 6.924-6.571 11.719-16.852 10.984-26.521-.584-7.715-5.842-13.337-13.85-11.199-49.302 13.154-94.82 37.832-138.794 63.142-40.958 23.574-81.776 46.956-123.684 68.825-82.873 43.245-167.969 86.252-237.164 150.254-7.749 7.167-13.725 20.591-10.07 31.133 3.688 10.638 15.029 7.253 21.375 1.38z"/></g><path fill="#FFE5B8" d="M344.881 291.717c26.07-5.528 50.334-18.446 76.948-21.519l-1.288-16.958c-14.117 16.396-35.729 25.381-55.02 34.001-20.164 9.01-40.229 17.906-57.495 31.935-4.632 3.761-9.696 21.694 1.431 18.86 66.679-16.983 127.912-51.35 196.184-62.669-1.121-5.559-2.239-11.117-3.359-16.676-1.174 1.792-5.55 2.539-7.475 3.386-5.305 2.335-8.885 7.45-9.632 13.226-.485 3.755 1.562 10.565 6.843 8.239 7.846-3.455 14.802-5.379 19.77-12.962 3.156-4.819 6.939-18.383-3.358-16.677-68.269 11.318-129.505 45.688-196.183 62.668.479 6.288.955 12.575 1.432 18.862 35.811-29.09 85.247-34.156 116.368-70.303 2.426-2.817 7.067-17.922-1.288-16.957-28.175 3.253-53.535 16.239-81.088 22.079-8.78 1.862-14.876 24.027-2.79 21.465z"/><g fill="#FFE5B8"><path d="M483.758 261.489c-69.25 37.25-147.322 60.098-205.805 114.951-5.813 5.453-9.801 13.344-10.82 21.241-.793 6.13.926 17.432 9.543 17.042 75.83-3.443 141.981-51.123 217.979-51.768l-2.574-33.915a115.983 115.983 0 0 1-3.334 4.408c-3.85 4.847 3.183-3.31-1.137 1.233-3.128 3.291-6.59 6.254-10.115 9.102 3.089-2.495-2.237 1.535-2.324 1.597-1.694 1.204-3.439 2.334-5.182 3.467-4.215 2.738-8.6 5.207-13.015 7.601-17.815 9.649-37.238 16.654-56.538 23.512-38.886 13.816-80.748 24.88-115.585 47.739-8.18 5.366-13.745 14.813-14.994 24.479-.83 6.414.938 17.077 9.542 17.042 42.545-.18 85.232-8.141 126.416-18.272 42.773-10.525 84.98-24.62 124.498-44.204l-7.135-35.751c-34.431 31.321-77.6 51.727-119.878 70.197-46.15 20.162-93.534 38.058-137.521 62.803-8.312 4.675-13.812 15.318-14.994 24.479-1.185 9.165 2.968 19.021 13.685 16.479 105.882-25.106 211.459-54.13 306.714-108.234-2.379-11.915-4.754-23.834-7.133-35.751-33.469 34.501-75.667 58.606-118.51 79.579-44.845 21.954-91.615 39.668-137.349 59.626-10.616 4.631-17.774 14.929-19.263 26.45-1.176 9.092 2.966 19.111 13.685 16.477 160.049-39.307 323.929-78.677 467.476-162.729 8.283-4.85 13.793-15.188 14.994-24.479 1.098-8.487-2.984-19.881-13.684-16.48-163.992 52.122-317.821 130.145-470.2 209.047-8.354 4.326-13.842 15.576-14.994 24.48-1.166 9.033 2.967 19.188 13.686 16.479 83.302-21.053 161.823-57.062 242.269-86.571 32.297-11.846 63.74-24.876 95.463-38.18 30.324-12.715 63.408-26.9 96.809-27.271l1.277-38.283c-52.723 48.129-122.232 74.504-188.953 98.02-71.093 25.058-144.079 46.94-210.134 84.024-12.602 7.072-25.688 44.453-1.309 40.959 68.078-9.758 132.032-36.82 195.373-62.365 31.721-12.795 63.551-25.387 96.174-35.725 34.539-10.946 69.631-19.784 103.539-32.699.438-13.651.873-27.305 1.309-40.958-55.934 34.667-118.432 55.148-180.016 77.197-31.254 11.188-62.138 23.169-92.214 37.247-29.133 13.637-55.735 33.045-85.891 44.348-10.698 4.01-17.834 15.394-19.262 26.449-1.082 8.365 2.994 20.035 13.684 16.48 123.198-40.988 248.976-74.086 370.566-119.892l-2.865-37.721c-43.977 41.456-106.742 64.411-163.572 85.238-29.396 10.774-58.837 22.421-88.675 31.886-32.031 10.162-66.518 12.933-95.07 32.225-8.146 5.504-13.732 14.714-14.994 24.48-1.268 9.803 3.006 18.219 13.686 16.479 119.841-19.523 243.708-41.375 347.583-108.235-3.66-10.46-7.322-20.922-10.984-31.38a127.786 127.786 0 0 1-4.934 6.316c3.061-3.676-2.523 2.482-3.139 3.092-1.988 1.968-4.092 3.812-6.205 5.639-3.068 2.652-2.164 1.85-4.281 3.422-9.799 7.272-20.52 13.27-31.404 18.738-23.82 11.966-49.549 20.289-74.855 28.469-24.053 7.774-48.336 14.903-72.035 23.73-32.605 12.142-64.359 25.322-98.746 31.805-14.5 2.732-30.584 43.531-9.72 43.489 100.403-.208 206.125-18.319 294.506-67.927l-2.959-38.987c-32.551 21.692-65.797 43.054-101.535 59.171-33.139 14.941-76.764 31.311-112.417 15.574-18.242-8.051-39.198 34.248-21.439 42.083 40.487 17.87 87.726 2.966 125.996-13.719 39.672-17.298 76.422-40.173 112.355-64.122 9.395-6.26 16.031-18.313 15.162-29.758-.801-10.529-9.322-14.17-18.121-9.229-83.008 46.591-183.521 62.668-277.685 62.861l-9.72 43.489c35.079-6.61 67.489-20.166 100.75-32.551 25.387-9.455 51.496-16.916 77.238-25.326 51.35-16.775 109.027-37.102 142.199-82.485 5.273-7.216 9.311-17.835 6.217-26.763-2.693-7.77-10.865-8.699-17.203-4.619-100.998 65.004-222.565 85.318-339.048 104.295l-1.309 40.959c26.879-18.16 61.301-19.812 91.434-29.884 29.865-9.982 59.455-21.334 89.009-32.21 61.543-22.646 126.754-48.041 175.223-93.73 6.936-6.541 11.719-16.875 10.986-26.521-.535-7.057-5.967-14.17-13.852-11.2-121.588 45.804-247.364 78.905-370.564 119.89l-5.578 42.93c31.35-11.751 58.491-31.559 88.735-45.567 30.172-13.974 61.053-25.893 92.352-37.099 63.5-22.732 127.906-44.326 185.57-80.065 8.238-5.104 13.77-15.005 14.996-24.479 1.029-7.974-3.041-20.532-13.686-16.479-32.797 12.489-66.678 21.514-100.225 31.682-32.762 9.933-64.629 22.715-96.363 35.481-64.402 25.906-129.287 53.705-198.499 63.625l-1.31 40.959c130.512-73.271 293.777-84.766 407.435-188.521 5.85-5.342 9.811-13.423 10.82-21.241.822-6.367-.938-17.138-9.543-17.042-34.66.386-68.238 13.267-99.877 26.234-32.531 13.332-64.498 27.235-97.568 39.209-81.629 29.556-160.972 66.373-245.379 87.706l-1.309 40.958c149.671-77.501 300.583-153.914 461.663-205.112l1.309-40.958c-140.676 82.37-302.107 120.274-458.939 158.792l-5.578 42.927c93.879-40.967 199.621-74.244 272.744-149.618 6.746-6.956 11.742-16.561 10.986-26.521-.797-10.489-9.332-14.222-18.119-9.229-92.402 52.482-195.49 79.945-298.177 104.295-.438 13.652-.874 27.305-1.311 40.958 87.096-48.995 190.307-70.849 265.75-139.476 7.006-6.374 11.709-16.999 10.986-26.522-.83-10.94-9.227-13.638-18.121-9.23-36.623 18.151-76.406 30.374-115.958 40.264-38.523 9.635-78.307 16.981-118.131 17.15l-5.453 41.521c33.732-22.136 75.436-32.391 113.965-46.275 39.951-14.398 83.643-31.869 109.316-67.597 4.822-6.708 14.501-34.059-2.574-33.915-38.042.325-74.283 11.464-109.859 23.917-35.076 12.276-70.595 26.15-108.118 27.854-.426 12.761-.853 25.522-1.277 38.283 55.307-51.875 131.888-73.205 197.456-108.476 9.684-5.207 15.969-19.104 15.16-29.758-.813-10.679-9.288-13.987-18.122-9.235z"/><path d="M515.139 769.701c-15.025 0-28.941-2.779-41.354-8.256-4.373-1.932-7.056-6.727-7.678-12.085-15.624.951-31.675.64-47.741.64h-.035c-5.66 0-8.484-1.888-9.855-4.18-3.523-5.883-1.697-15.271 1.963-23.455-6.972 1.16-13.935 2.513-20.885 3.646l-.134.195.004-.02c-.683.113-1.366.252-2.05.363-5.16.836-9.499-.461-12.356-3.712-2.999-3.411-4.214-8.653-3.423-14.773.821-6.356 3.401-12.521 7.297-17.667a3451.828 3451.828 0 0 0-10.309 3.41c-4.806 1.598-9.118.566-12.109-2.836-3.842-4.367-4.527-11.133-3.951-15.598.701-5.423 2.64-10.723 5.563-15.324a423.634 423.634 0 0 1-22.516 3.859c-8.062 1.16-13.503-1.898-15.207-8.413-2.588-9.897 4.065-25.678 11.657-33.065a771.832 771.832 0 0 1-31.684 8.746c-4.971 1.253-9.296.086-12.232-3.254-3.094-3.52-4.475-9.209-3.699-15.219 1.213-9.375 7.234-21.266 16.111-25.861 1.111-.573 3.484-1.148 3.484-1.723v-.059l.064-.053c.439-.23.803-.459 1.247-.686l-2.228.535c-4.98 1.225-9.328.045-12.261-3.291-3.08-3.502-4.459-9.178-3.686-15.184 1.561-12.062 8.945-22.485 19.389-27.451l.029-.232 1.052-.261c4.02-1.752 8.034-3.481 11.987-5.171-16.432 4.219-34.321 8.613-54.706 13.447-4.994 1.188-9.331-.006-12.254-3.335-3.061-3.483-4.428-9.146-3.652-15.144 1.172-9.062 6.543-20.565 15.906-25.831 24.881-13.998 50.541-25.663 75.254-36.302-21.68 3.233-41.668 4.85-60.735 4.93-3.093 0-5.731-1.175-7.683-3.396-3.667-4.172-4.268-11.062-3.669-15.694 1.341-10.38 7.396-20.252 15.8-25.766 7.094-4.655 14.799-9.037 23.299-13.245-10.594 1.973-20.64 3.16-30.395 3.604-3.075.124-5.723-.984-7.701-3.232-3.975-4.521-4.211-12.095-3.726-15.855 1.073-8.309 5.327-16.659 11.379-22.335 40.548-38.032 91.162-61.079 140.11-83.367 21.945-9.992 44.635-20.323 66.077-31.858 2.842-1.527 5.774-2.337 8.485-2.337 6.98 0 11.695 4.993 12.305 13.028.803 10.551-5.129 25.592-16.111 31.498-20.607 11.086-42.663 20.961-64.05 30.496 26.394-8.287 55.3-15.236 84.973-15.489 5.983 0 8.723 2.95 9.993 5.427 4.564 8.9-2.084 26.019-5.925 31.364-8.629 12.005-19.69 22.634-33.594 32.24 17.288-6.16 32.959-12.749 47.572-19.993 2.914-1.441 5.871-2.207 8.555-2.207 7.016 0 11.57 4.833 12.184 12.929.742 9.775-3.908 21.028-11.576 28.002A308.822 308.822 0 0 1 512.451 424c18.32-8.312 35.871-17.171 52.367-26.438l.338-.348.029.143c.717-.402 1.43-.807 2.143-1.212 2.797-1.59 5.715-2.429 8.439-2.429 6.922 0 11.783 5.143 12.389 13.1.719 9.474-3.471 19.652-11.492 27.924-11.928 12.293-24.943 23.756-39.477 34.748 83.854-38.333 159.76-68.208 231.484-91.119l.383-.227-.004.104 1.801-.573c4.838-1.535 9.152-.479 12.135 2.912 3.129 3.564 4.662 9.659 3.902 15.53-1.152 8.895-6.506 20.326-15.879 25.816a877.147 877.147 0 0 1-18.393 10.468c1.266.566 2.387 1.402 3.346 2.489 3.438 3.913 4.322 10.716 3.678 15.723-1.098 8.479-5.357 16.835-11.398 22.351a359.883 359.883 0 0 1-18.646 15.879c.938-.344 1.867-.689 2.787-1.033l1.252-.776-.012.312c.574-.216 1.145-.433 1.709-.647 4.711-1.793 9.014-.845 12.031 2.587 3.682 4.188 4.707 11.137 4.102 15.821-1.289 9.983-6.926 19.583-14.525 24.922 2.211-.823 4.4-1.644 6.572-2.461 1.426-.537 2.85-.809 4.229-.809 7.174 0 11.574 6.99 12.074 13.569.738 9.688-3.797 20.672-11.551 27.982a263.325 263.325 0 0 1-5.914 5.405c3.852.945 6.85 3.739 8.279 7.866 3.393 9.791-1.115 21.106-6.467 28.43-7.744 10.594-16.996 20.178-28.041 29.016a13.73 13.73 0 0 1 1.352-.066c6.91 0 11.768 5.135 12.371 13.083.857 11.304-5.309 23.81-15.082 30.798l.008.115-.949.533c-34.16 22.766-71.439 46.3-112.58 64.238-21.637 9.436-54.098 21.975-86.102 21.975zm-45.399-19.724c.395 3.068 1.744 6.48 5.51 8.144 11.95 5.274 25.37 7.948 39.89 7.948 31.324 0 63.312-12.367 84.648-21.67 29.572-12.895 57.174-28.723 83.062-45.076-61.196 28.384-132.69 45.391-213.11 50.654zm-54.927-27.92c-4.596 8.955-5.596 18.217-2.889 22.738 1.314 2.191 3.076 3.256 7.076 3.256v1.817l-.305-1.817c.854-.001 1.543-.004 2.399-.009l6.19-28.078c-4.132.706-8.344 1.403-12.471 2.093zm52.225 17.267c-10.416 3.45-19.92 6.226-28.969 8.451a799.16 799.16 0 0 0 27.925-1.204c.106-2.315.528-4.778 1.251-7.301l-.213.07.006-.016zm-35.967-20.022l-6.188 27.692c13.463-2.684 27.511-6.551 43.886-12.08 4.057-9.803 12.648-20.046 22.438-20.046 1.883 0 3.729.394 5.484 1.169a70.77 70.77 0 0 0 12.371 4.123c4.512-1.711 9.029-3.42 13.562-5.109 17.203-6.406 35.004-11.982 52.217-17.377 8.24-2.58 16.758-5.251 25.09-7.973 11.865-3.875 23.6-7.799 35.062-12.027-36.717 12.189-76.932 20.718-120.277 25.486-24.329 5.382-50.939 10.516-83.645 16.142zm40.467 18.51c-1.084 2.968-1.727 5.87-1.895 8.528 93.285-6.12 174.468-28.125 241.326-65.416l-2.635-34.738c-30.756 20.455-63.701 41.58-99.213 57.594-24.283 10.951-52.865 22.145-80.752 22.145-6.66 0-13.064-.666-19.044-1.978l-1.121.425c-11.973 4.542-24.346 9.239-36.666 13.44zm19.668-19.31c-6.89 0-13.655 6.955-17.682 14.784 9.975-3.468 19.977-7.226 29.75-10.929a73.751 73.751 0 0 1-8.049-2.996 9.89 9.89 0 0 0-4.019-.859zm-105.334-30.388c-5.791 5.271-9.675 12.692-10.672 20.421-.648 5 .279 9.342 2.545 11.92 2.037 2.312 5.131 3.173 9.045 2.535.916-.148 1.834-.299 2.751-.449l1.151-35.994-4.82 1.567zm130.061 33.329a89.16 89.16 0 0 0 12.436.848c27.197 0 55.328-11.033 79.26-21.824 20.545-9.264 40.256-20.271 59.189-31.875-20.82 9.551-43.051 17.145-65.76 24.562-8.354 2.73-16.883 5.402-25.129 7.986-17.172 5.379-34.926 10.942-52.041 17.316-2.654.989-5.306 1.986-7.955 2.987zm-99.181-9.086c-7.42 2.631-13.831 5.557-19.586 8.936 5.09-.832 10.188-1.676 15.287-2.525 1.328-2.379 2.776-4.538 4.299-6.411zm-22.388-27.003l-1.087 34.047c8.351-5.194 17.983-9.363 29.979-12.996 1.511-.926 3.021-1.536 4.488-1.812 1.002-.19 2.01-.592 3.023-.592h.012c.457 0 .915-.182 1.372-.277l4.075-1.229-.863.547c.604-.134 1.204-.265 1.807-.404 2.258-.554 4.521-1.09 6.787-1.615 23.104-5.787 45.724-14.354 67.598-22.636 4.869-1.845 9.744-3.691 14.638-5.515 17.199-6.405 34.975-12.005 52.166-17.419 5.234-1.65 10.469-3.296 15.695-4.97 40.52-15.385 87.143-34.941 125.895-63.389.049-.059.096-.118.143-.179-91.316 54.724-196.277 75.298-313.526 94.511-4.071 1.303-8.136 2.61-12.202 3.928zm30.416 24.386c-2.576 1.691-5.248 4.598-7.611 8.238 3.629-.611 7.258-1.225 10.89-1.848l1.751-7.832c-1.759.483-3.431.962-5.03 1.442zm8.902-2.111l-1.754 7.836c19.237-3.316 36.354-6.465 52.146-9.6-16.482 1.108-33.335 1.697-50.392 1.764zm161.574-53.715a2425.023 2425.023 0 0 1-22.834 8.511c-7.07 2.601-14.139 5.229-21.217 7.86-22.17 8.243-45.096 16.766-67.844 24.368-10.335 3.454-21.32 5.96-31.944 8.384-1.133.26-2.268.518-3.4.777 22.625-.482 44.795-1.904 66.107-4.244 91.082-20.162 160.521-46.797 218.353-83.775l-9.297-26.566a72.97 72.97 0 0 1-.676.498 129.71 129.71 0 0 1-2.145 2.658l-.029.035-.188.227-.137-.113c-.551.584-1.264 1.35-1.729 1.853-.656.706-1.215 1.308-1.389 1.481-2.061 2.039-4.24 3.945-6.297 5.721-2.299 1.988-2.42 2.082-3.27 2.692-.258.183-.594.427-1.117.813-8.619 6.4-18.389 12.23-31.67 18.904-23.986 12.049-49.979 20.449-75.113 28.574l-4.164 1.342zm134.06-31.83c-49.154 30.557-106.592 53.93-178.195 72.383 55.865-9.352 105.773-25.485 148.766-48.129 11.297-7.457 21.049-15.484 29.429-24.254zM363.322 658.98c-3.804 4.703-6.414 10.812-7.194 16.86-.52 4.009.23 9.499 3.074 12.735 1.828 2.078 4.231 2.779 7.16 2.09l4.326-33.301a474.704 474.704 0 0 1-7.366 1.616zm11.144-2.49l-4.263 32.807c6.828-2.686 14-5.957 21.828-9.953a120.228 120.228 0 0 1 11.357-6.031c5.176-2.842 10.401-5.811 15.459-8.685 11.979-6.804 24.365-13.843 37.133-19.755 26.238-12.154 55.633-23.961 92.501-37.16 5.162-1.849 10.33-3.689 15.502-5.531 44.602-15.883 90.508-32.234 133.414-54.022-53.955 18.882-108.053 35.648-167.232 53.755l-10.719 4.334c-46.791 18.931-95.162 38.499-144.98 50.241zm30.566 20.065c-1.305.713-2.566 1.4-3.794 2.061l4.476-.73c34.572-11.065 69.865-21.855 103.994-32.289 74.908-22.902 152.351-46.579 226.953-74.619l-2.479-32.612c-44.025 40.03-106.156 62.802-161.102 82.938l-.318.115c-7.879 2.891-15.762 5.841-23.656 8.796-21.246 7.954-43.214 16.176-65.093 23.116-9.922 3.148-20.209 5.623-30.158 8.017-16.415 3.945-33.388 8.029-48.823 15.207zm306.78-32.543l2.617 34.5c7.748-6.451 12.502-16.797 11.789-26.189-.463-6.09-3.734-9.727-8.748-9.727-1.786 0-3.724.485-5.658 1.416zm15.01-65.495c-71.26 26.286-144.801 48.769-216.05 70.552-26.182 8.004-53.043 16.216-79.735 24.6 110.459-18.728 209.504-40.847 295.785-95.152zm-6.621-38.47c-48.982 27.802-102.877 46.995-154.998 65.559a9721.72 9721.72 0 0 0-15.496 5.527c-36.765 13.161-66.062 24.93-92.201 37.035-10.898 5.049-21.566 10.953-31.943 16.828 9.103-2.772 18.357-4.998 27.442-7.182 9.887-2.38 20.108-4.838 29.906-7.945 21.792-6.914 43.717-15.121 64.92-23.058 7.902-2.958 15.793-5.913 23.68-8.804l.316-.115c54.51-19.978 116.131-42.562 159.619-81.953a2020.79 2020.79 0 0 1-11.245 4.108zm-381.216 81.866c-.492.276-.982.548-1.475.825-7.561 4.244-16.189 22.061-13.633 31.84 1.242 4.752 4.966 6.634 11.178 5.736.901-.131 1.808-.264 2.717-.4l1.213-38.001zm76.652 4.583c-26.518 10.564-49.064 20.984-69.427 32.061a442.576 442.576 0 0 0 15.142-2.877c3.041-3.475 6.668-6.152 10.57-7.811l.01-.074 1.047-.348c14.775-5.541 28.93-13.179 42.658-20.951zm-72.98-5.732l-1.159 36.23c26.784-14.807 57.224-28.381 95.451-42.581 8.38-4.647 15.298-8.224 21.758-11.247 26.296-12.309 55.646-24.166 92.372-37.312 6.326-2.266 12.662-4.514 18.998-6.764 42.434-15.056 86.309-30.624 126.961-51.343a408.335 408.335 0 0 0 11.582-7.797c-15.803 5.172-31.838 9.886-47.443 14.474-8.307 2.44-16.613 4.883-24.896 7.395-33.053 10.02-65.162 22.937-96.213 35.428a8671.072 8671.072 0 0 0-15.354 6.199c-58.354 23.595-118.677 47.988-182.057 57.318zm28.707 31.406a24.787 24.787 0 0 0-3.131 2.025c.984-.221 1.969-.443 2.955-.67l.176-1.355zm3.878-1.647l-.274 2.113c39.098-9.33 77.381-23.498 114.714-38.334-37.939 11.637-76.561 23.636-114.44 36.221zm63.229-32.799c-4.539 2.521-9.055 5.101-13.571 7.677-7.2 4.115-14.511 8.289-21.972 12.244 37.54-12.104 75.443-23.691 112.354-34.976l13.671-4.181 1.055-.426c32.023-12.918 63.486-25.373 96.305-35.771 11.73-3.719 23.715-7.248 35.303-10.664 22.135-6.521 45.012-13.261 67.006-21.569l1.164-36.376c-9.717 5.91-20.105 11.693-30.932 17.215-58.359 37.812-125.986 60.659-191.393 82.758-22.726 7.679-46.224 15.616-68.99 24.069zm263.978-14.382c-15.252 9.568-31.262 18.014-47.318 25.576 6.023-2.541 11.961-5.246 17.771-8.166 12.276-6.168 21.485-11.588 29.547-17.41zm-398.888-14.061l-1.525.789c-7.768 4.021-12.938 14.664-14.027 23.1-.637 4.916.447 9.65 2.825 12.355 2.046 2.328 4.978 3.047 8.612 2.129.97-.244 1.939-.49 2.912-.742l1.203-37.631zm3.679-1.369l-1.167 36.498c51.504-26.662 106.062-54.713 162.041-81.818-26.174 7.302-54.996 14.896-88.994 23.453-26.014 9.017-49.547 16.176-71.88 21.867zm181.313-51.117c-59.386 28.35-117.416 58.055-172.139 86.355a849.692 849.692 0 0 0 27.898-8.293c51.996-27.942 108.738-47.398 163.612-66.212 12.551-4.305 25.53-8.753 38.227-13.229 64.229-22.638 126.02-46.43 175.645-86.728-65.579 33.1-140.202 61.264-233.243 88.107zm247.084-57.599l-1.186.014c-32.314.358-65.154 14.137-94.129 26.293l-1.996.837c-31.74 13.311-62.928 26.248-95.539 38.212-24.217 8.882-48.676 18.519-72.329 27.837-37.192 14.653-75.547 29.765-114.228 42.45 57.846-10.577 113.324-33.01 167.121-54.765 5.125-2.07 10.244-4.142 15.359-6.2 31.125-12.521 63.307-25.468 96.514-35.532 8.295-2.515 16.611-4.959 24.926-7.404 19.238-5.655 39.127-11.501 58.385-18.155a366.465 366.465 0 0 0 17.102-13.587zM726 586.943l9.816 27.719c1.84-2.217 3.662-4.48 5.352-6.791 4.811-6.582 8.933-16.631 5.997-25.097-1.742-5.026-5.655-5.778-7.837-5.778-.268 0-.644.011-.911.031-3.938 3.358-7.417 6.689-12.417 9.914v.002zm-171.914-50.481c-2.236.795-4.484 1.591-6.729 2.382-12.709 4.479-25.695 8.932-38.253 13.238-47.561 16.307-96.525 33.094-142.483 55.453 34.68-11.804 69.063-25.352 102.506-38.525 23.674-9.328 48.153-18.973 72.407-27.868 4.208-1.544 8.39-3.103 12.552-4.68zm109.193-8.915c-30.285 13.074-61.508 24.15-91.988 34.969-6.334 2.248-12.666 4.494-18.988 6.758-34.736 12.436-62.845 23.707-87.999 35.299 14.062-4.923 28.17-9.689 41.993-14.359 52.945-17.89 107.351-36.271 156.982-62.667zm25.703 19.694c-8.83 2.713-17.643 5.309-26.34 7.872-11.57 3.408-23.537 6.934-35.234 10.641-18.295 5.798-36.182 12.242-53.988 19.053 39.836-12.353 77.797-24.483 115.562-37.566zm-383.034-3.9c-8.201 4.779-13.925 13.511-15.215 23.509-.637 4.911.438 9.632 2.8 12.321 1.818 2.067 4.323 2.886 7.448 2.401l4.967-38.231zm14.345 37.284c-.087.047-.172.09-.26.135.742-.203 1.48-.41 2.226-.617-.658.162-1.312.324-1.966.482zm-10.46-38.99l-5.004 38.518c14.867-6.447 30.051-12.729 45.578-19.123 47.281-24.264 85.486-43.391 120.981-60.55-48.915 13.534-98.561 25.708-146.763 37.528l-14.792 3.627zm42.097 22.696c-5.937 3.046-11.863 6.095-17.789 9.149a8670.388 8670.388 0 0 0 43.939-10.922c31.82-11.036 63.74-23.608 94.609-35.768 25.335-9.979 51.531-20.298 77.539-29.714 24.682-8.936 49.209-19.143 72.928-29.01 8.172-3.399 16.355-6.804 24.57-10.173 25.27-10.354 52.223-20.792 79.604-24.712a1641.513 1641.513 0 0 1 36.719-12.187l1.16-36.396c-70.975 41.183-153.18 74.832-258.333 105.763-46.857 29.475-99.618 51.195-150.645 72.199l-4.301 1.771zm385.541-30.621l2.812 36.983a268.193 268.193 0 0 0 5.486-5.024c6.986-6.589 11.078-16.426 10.42-25.062-.381-5.02-3.646-10.212-8.451-10.212-.941 0-1.932.193-2.947.573-2.416.911-4.857 1.826-7.32 2.742zm-37.301-90.915c-17.471 4.951-34.625 11.723-51.066 18.461-8.209 3.363-16.387 6.767-24.551 10.164-23.758 9.885-48.326 20.108-73.086 29.073-25.961 9.398-52.134 19.709-77.447 29.677-19.536 7.698-39.494 15.559-59.59 23.096 27.018-7.032 50.708-13.502 72.828-19.88 78.783-37.601 147.219-66.74 212.912-90.591zm-432.029 61.954l-1.473.825c-8.221 4.625-13.061 15.233-14.081 23.129-.636 4.905.429 9.609 2.776 12.279 2.047 2.329 5.006 3.067 8.687 2.201.968-.231 1.929-.458 2.884-.688l1.207-37.746zm223.518-9.972c-30.1 14.352-61.391 29.761-98.019 48.291 34.169-14.498 68.239-30.092 99.911-48.833-.633.18-1.261.361-1.892.542zm-219.842 8.693l-1.162 36.36c31.289-17.325 65.02-31.479 97.672-45.179 36.938-15.5 74.95-31.452 109.712-52.13-69.363 27.422-142.292 45.774-206.222 60.949zm225.736-68.953c-39.541 26.438-84.42 45.271-127.821 63.484-30.488 12.794-61.923 26.352-91.345 42.122 24.594-5.93 45.51-11.123 64.938-16.123h.003l11.978-5.357c29.592-12.314 60.188-25.229 89.438-39.548 36.175-17.709 77.203-40.105 110.896-72.258-18.328 9.826-37.806 19.048-58.087 27.68zM344.505 526.71a3356.322 3356.322 0 0 0-15.366 6.45c53.073-13.02 107.781-26.505 161.229-41.795a3408.382 3408.382 0 0 1 29.537-13.907c15.654-10.748 29.619-21.849 42.33-33.675-60.031 32.847-127.783 58.612-217.73 82.927zm388.991-35.437l-1.197 37.408c.473-.29.943-.58 1.41-.868 7.367-4.567 12.922-13.66 14.15-23.169.521-4.025-.422-9.768-3.227-12.959-2.037-2.317-4.725-2.837-8.012-1.591-1.026.393-2.069.787-3.124 1.179zm-5.31-54.545c-68.037 23.482-137.951 52.285-218.461 90.049 88.911-26.716 160.549-54.986 223.999-88.316l2.973-2.711c-2.808.246-5.652.575-8.511.978zm-165.247-32.044c-34.908 35.04-78.442 58.81-116.601 77.491-24.316 11.903-49.525 22.698-74.312 33.065 79.9-23.133 141.613-48.068 197.119-79.458l-6.206-31.098zm-207.828 58.983c-23.745 10.069-48.696 20.886-73.206 33.664 67.111-16.082 143.094-35.921 213.912-66.022 8.42-5.643 16.264-11.391 23.685-17.37-33.677 15.618-70.871 28.345-113.252 38.771-18.73 4.607-35.461 8.192-51.139 10.957zm378.639-20.355c-24.461 21.67-52.16 38.813-81.852 53.436 25.396-10.417 53.117-20.439 80.773-21.138l1.079-32.298zm-212.041 37.314c-1.328.91-2.676 1.822-4.035 2.731 94.412-28.431 170.008-59.271 235.723-96.195-71.614 23.722-147.627 54.393-231.688 93.464zm215.768-40.038l-1.271 38.129a355.081 355.081 0 0 0 9.586-8.434c5.426-4.954 9.254-12.48 10.242-20.134.525-4.06-.129-9.815-2.803-12.857-1.262-1.438-2.84-2.134-4.824-2.134l-.83.011a910.466 910.466 0 0 1-10.1 5.419zm-446.123-14.852a196.62 196.62 0 0 0-5.506 3.48c-7.543 4.951-12.98 13.835-14.189 23.193-.524 4.052.125 9.797 2.793 12.832 1.277 1.453 2.882 2.161 4.905 2.161 2.165-.009 4.347-.039 6.538-.088l5.459-41.578zM465.715 395c-20.559 11-43.462 20.226-63.326 27.383-9.416 3.395-19.184 6.492-28.629 9.618-28.719 9.499-58.393 19.249-83.381 35.25 19.834-.687 40.783-3.035 63.693-7.058 4.504-1.909 9.01-3.828 13.518-5.728 11.492-4.846 23.378-9.867 34.982-14.935 38.834-16.964 79.352-35.609 112.761-63.816C500.159 382.569 483.8 389 465.717 395h-.002zm-170.859 31.973l-4.736 36.08c24.999-15.614 54.21-25.275 82.5-34.632 9.423-3.117 19.168-6.34 28.539-9.716 14.217-5.125 30-11.004 45.31-18.278-10.748 3.153-22.212 6.248-34.636 9.353-45.633 11.413-82.864 16.887-116.977 17.193zM522.02 374.47c-34.585 30.624-77.215 50.569-117.993 68.381-10.945 4.783-22.132 9.509-33.001 14.093 10.771-2.188 22.133-4.756 34.354-7.762 46.517-11.448 86.729-25.666 122.877-43.453l-6.237-31.259zm215.621 61.197l-.025.736c.539-.286 1.076-.574 1.615-.862-.53.041-1.059.081-1.59.126zM565.93 401.105l6.533 32.736c.531-.541 1.064-1.083 1.59-1.628 7.299-7.525 11.119-16.68 10.479-25.12-.455-6.008-3.814-9.742-8.766-9.742-2.098 0-4.395.677-6.645 1.953a392.901 392.901 0 0 1-3.191 1.801zm185.535 27.782c-2.797.918-5.602 1.848-8.41 2.789 1.197-.055 2.385-.097 3.564-.123a953.92 953.92 0 0 0 4.846-2.666zm-427.763-19.556c-10.479 4.479-19.824 9.102-28.301 14.004 33.662-.359 70.461-5.801 115.552-17.079 19.899-4.976 37.329-9.922 53.274-15.116 19.697-11.412 34.546-24.294 45.387-39.384 3.43-4.771 9.259-20.54 5.645-27.586-1.189-2.323-3.352-3.45-6.607-3.45-39.12.333-76.975 12.466-109.395 23.814-3.262 1.14-6.53 2.296-9.803 3.455-31.973 14.94-68.877 34.084-98.949 62.291l-1.822 1.706c10.71-1.138 21.891-3.159 33.863-6.11 17.141-7.31 35.152-13.345 52.572-19.183 8.149-2.73 16.578-5.555 24.71-8.445 17.835-6.336 38.048-13.52 56.281-23.397 3.888-2.106 8.462-4.65 12.889-7.527 1.775-1.15 3.493-2.269 5.12-3.423l.201-.151c1.852-1.392 2.711-2.037 3.213-2.335 2.684-2.201 6.318-4.958 9.193-7.982.35-.366.275-.652 1.275-.872v-.002l-.244-.238c1.157-1.457 2.014-2.876 3.065-4.337l2.802-4.05 3.043 40.823-1.969.018c-38.805.328-75.812 13.288-111.587 25.818-19.31 6.762-39.291 13.758-59.408 18.738zm445.222-27.227l-1.199 37.54c.484-.283.967-.564 1.449-.848 8.309-4.863 13.072-15.129 14.107-23.143.623-4.808-.594-9.897-3.025-12.667-2.049-2.329-4.863-2.949-8.307-1.848-1.006.32-2.015.644-3.025.966zM288.77 369.219a261.654 261.654 0 0 0-9.572 8.546c-5.458 5.118-9.293 12.651-10.262 20.15-.546 4.223.258 10.042 2.85 12.992 1.188 1.353 2.648 2.01 4.459 2.01l.35-.009c3.536-.16 7.113-.42 10.744-.782l1.431-42.907zm3.528 3.182l-1.077 32.279c21.633-19.544 46.383-34.643 70.279-47.036-22.441 7.354-45.464 13.451-69.202 14.757zm232.718-1.482l6.541 32.782c.572-.512 1.141-1.025 1.707-1.541 6.879-6.258 11.059-16.322 10.396-25.04-.467-6.17-3.508-9.57-8.561-9.57-2.127 0-4.525.634-6.939 1.829-1.043.518-2.09 1.031-3.144 1.54zm-46.415-25.835c-.429.318-1.089.81-2.099 1.567l-.277.207c-1.691 1.203-3.442 2.34-5.135 3.44-4.648 3.017-9.3 5.603-13.25 7.746-10.558 5.719-21.727 10.533-32.71 14.796 21.913-6.442 44.372-11.235 67.567-11.677l-2.061-27.116c-.467.935-1.518 2.174-2.434 2.632-3.248 3.316-6.771 6.256-9.531 8.487l-.07-.082zm12.782-83.898c-2.111 0-4.449.659-6.765 1.903-21.548 11.59-44.294 21.948-66.291 31.964-44.744 20.375-90.887 41.384-129.203 73.861l1.332-.059c33.478-1.519 65.765-12.952 96.987-24.009l.798-.282c10.639-4.978 21.714-9.917 32.427-14.692 21.757-9.701 44.255-19.732 65.188-30.993 9.39-5.049 14.929-18.565 14.21-28.021-.459-6.057-3.705-9.672-8.683-9.672z"/></g><path fill="#FFE5B8" d="M388.625 289.579c2.372-1.357 5.56-2.333 8.351-2.193.895.075 1.779.207 2.656.403-1.656-.403-1.659-.32-.01.25.979.391 5.803 3.646 3.863 2.007 7.787 6.579 11.463 14.777 15.145 22.919 9.438 20.876 15.96 41.968 28.743 61.236 36.293 54.713 98.999 76.163 161.721 81.394 18.289 1.523 35.344-38.866 13.861-44.053-44.109-10.647-90.225-29.386-122.512-62.235-16.234-16.518-25.388-36.267-34.099-57.362-9.02-21.85-21.388-39.219-43.955-48.354l-13.508 42.507c-3.834.703 1.174.118 2.164.178 3.92.236-.096-.545 3.641.951 3.698 1.478 7.83 4.624 9.019 5.689 8.703 7.807 15.399 17.891 21.614 27.695 13.33 21.029 23.691 43.771 36.843 64.899 35.788 57.496 109.538 64.448 170.528 67.36 3.242-14.497 6.48-28.992 9.721-43.489-65.945 11.406-119.961-42.729-151.414-94.109-12.206-19.939-19.561-43.608-34.04-62.783-6.457-8.549-15.331-16.558-25.71-19.761-14.445-4.458-28.257-.251-41.057 6.963-9.633 5.427-15.982 18.94-15.161 29.758.799 10.517 9.325 14.188 18.12 9.23 8.478-4.776 15.638-5.325 24.08-.713 7.884 4.307 14.467 14.079 19.744 22.782 12.408 20.47 21.084 44.163 34.912 64.659 37.007 54.855 95.878 98.85 164.947 86.902 14.615-2.528 30.73-42.486 9.721-43.49-32.877-1.57-66.57-2.793-97.68-14.578-26.742-10.128-48.344-27.348-62.847-51.812-13.213-22.286-24.107-45.889-38.743-67.334-12.257-17.96-29.183-36.25-52.824-31.923-8.886 1.626-15.572 13.08-17.994 20.763-1.916 6.08-3.348 18.573 4.484 21.745 21.376 8.647 29.126 24.22 37.423 44.493 9.133 22.312 20.898 42.821 38.158 59.821 35.772 35.234 84.601 54.025 132.564 65.602l13.861-44.053c-31.213-2.603-61.75-8.631-89.939-22.725-28.262-14.129-47.799-35.863-64.686-62.047-2.284-3.54-.103.085-1.336-2.389-1.175-2.356-2.212-4.78-3.245-7.201-2.084-4.89-3.966-9.87-5.883-14.829-4.532-11.724-9.355-23.148-15.397-34.188-4.928-9.003-11.937-17.746-21.407-22.21-11.82-5.571-24.748-1.452-35.396 4.636-9.614 5.497-15.985 18.888-15.16 29.76.793 10.463 9.337 14.252 18.119 9.229z"/><path fill="#FFBF1F" d="M241.924 314.758a173.841 173.841 0 0 1 4.342-7.982c1.393-2.321 1.309-2.211-.246.332 1.091-1.747 2.236-3.458 3.381-5.172 4.139-6.192 8.681-12.109 13.367-17.892 4.578-5.65 7.747-9.082 13.979-15.432 5.83-5.938 12.001-11.536 18.363-16.896 19.67-16.573 46.68-32.712 74.205-27.723 1.816-13.842 3.635-27.68 5.451-41.52-29.439 20.729-63.767 33.71-93.6 54.022-34.629 23.581-70.07 60.952-63.248 106.522 1.48 9.878 8.917 14.908 18.121 9.229 8.995-5.549 16.781-18.924 15.16-29.76a79.487 79.487 0 0 1-.619-5.336c-.059-.718.104-6.402-.148-1.648.09-1.698.35-3.379.611-5.055.872-5.637-1.287 4.595.299-.877.366-1.272 2.547-6.602-.024-.531.673-1.585 1.475-3.112 2.271-4.638 2.769-5.303-2.993 4.423.323-.653 1.316-2.015 2.789-3.928 4.273-5.825.492-.632 4.568-5.205.998-1.271 1.283-1.412 2.635-2.761 3.982-4.11 3.254-3.254 6.748-6.27 10.286-9.208.048-.04 5.276-4.104 2.235-1.792 1.647-1.253 3.332-2.458 5.014-3.664 3.99-2.862 8.098-5.557 12.231-8.206 27.353-17.516 58.242-29.518 84.793-48.213 9.912-6.979 26.55-37.695 5.451-41.52-35.923-6.511-70.896 16.237-97.45 37.677-27.936 22.554-53.096 52.004-69.43 84.087-3.725 7.321-7.598 22.632 2.094 27.569 9.692 4.938 19.809-7.193 23.535-14.514z"/><path fill="#FFBF1F" d="M260.415 325.566c4.344-5.484 7.545-8.784 14.113-14.958 6.078-5.713 12.559-10.842 19.412-15.579 13.318-9.202 29.016-17.699 45.405-19.269l-5.882-28.552c-2.182 4.199-7.798 11.82-11.275 15.516-6.045 6.426-12.684 12.288-19.227 18.197-14.805 13.372-28.039 27.261-38.475 44.363-23.27 38.138-11.506 82.371-11.145 123.997.066 7.601 6.245 13.509 13.852 11.2 9.186-2.79 15.032-12.253 17.994-20.763 17.838-51.275 30.666-105.759 59.693-152.297 4.848-7.772 9.467-17.388 6.219-26.763-3.653-10.54-15.092-7.383-21.377-1.382-24.839 23.721-47.711 49.575-63.546 80.275-15.399 29.858-22.241 63.188-26.292 96.277-1.054 8.593 2.936 19.743 13.684 16.479 11.259-3.418 17.153-15.89 19.263-26.449 7.942-39.739-2.146-80.006 2.726-119.891l-33.113 15.25c-.064 46.298-2.812 92.863 2.724 138.964.89 7.402 5.639 13.692 13.851 11.199 8.602-2.613 15.918-12.293 17.995-20.763 10.55-43.037 12.799-88.177 27.469-130.149 5.292-15.145 13.561-30.535 27.891-41.1 15.583-11.489 34.194-18.149 50.804-27.936 11.945-7.039 22.479-30.302 9.24-40.536-1.966-1.519-4.488-4.145-6.734-6.877-1.304-1.587-2.408-3.322-3.472-5.075 1.66 2.736-.884-2.344-1.125-2.983-.511-1.351-.872-2.751-1.234-4.147 1.134 4.381-.067-1.529-.147-2.521-.459-5.713-.32 1.406-.059-2.081.15-2.022.504-4.025.875-6.016-1.123 6.023-.086.791.264-.423.605-2.093 1.371-4.134 2.15-6.166-2.522 6.576.463-.639 1.102-1.93 1.043-2.117 2.211-4.171 3.389-6.214 1.378-2.307 1.229-2.068-.447.713a143.62 143.62 0 0 1 2.051-3.088c1.406-2.087 2.91-4.114 4.419-6.128 1.546-2.064 3.175-4.062 4.813-6.052a168.148 168.148 0 0 1 2.54-2.987c-1.677 1.899-1.64 1.88.11-.058 6.809-7.448 14.261-14.298 22.006-20.759 5.744-4.792 14.061-10.69 23.146-16.258 8.415-5.153 14.286-8.079 21.054-10.771 3.809-1.516 7.719-2.762 11.682-3.807 1.799-.476 3.625-.837 5.454-1.172 2.767-.508-2.192.112 2.229-.167 3.242-14.498 6.48-28.994 9.721-43.49-31.669 14.596-59.58 33.898-81.096 61.686-21.416 27.66-32.885 61.483-38.984 95.55-2.166 12.099 6.636 20.839 17.953 14.51 16.314-9.123 33.043-11.072 50.82-.694 17.17 10.024 31.377 30.782 43.061 49.329 25.934 41.166 44.941 91.504 84.652 121.846 8.584 6.561 20.525-8.608 23.535-14.515 4.459-8.758 6.639-20.895-2.096-27.568-2.596-1.985-5.871-5.011-9.613-8.89-4.264-4.422-8.143-9.211-11.871-14.087-7.795-10.199-14.607-21.141-21.186-32.151-13.799-23.095-26.162-47.044-40.952-69.545-12.62-19.201-28.124-38.763-49.116-49.22-23.237-11.576-48.566-5.588-70.193 6.507l17.953 14.511c2.094-11.687 5.039-22.7 9.785-35.169-1.575 4.139 1.844-4.125 2.198-4.896 1.28-2.771 2.7-5.478 4.139-8.174.415-.778 5.099-8.512 2.466-4.368 2.01-3.164 4.212-6.201 6.461-9.2 5.483-7.315 13.358-15.307 21.266-21.385 10.807-8.308 22.865-15.444 35.24-21.147 8.945-4.123 15.003-11.27 17.994-20.764 2.041-6.482 3.01-23.443-8.273-22.727-21.201 1.346-41.02 11.042-58.867 21.977-22.541 13.81-42.305 31.481-59.689 51.292-30.645 34.921-55.024 93.657-10.812 127.833 3.082-13.511 6.162-27.023 9.241-40.536-17.417 10.263-36.528 17.412-52.88 29.466-21.853 16.112-37.395 38.393-47.799 63.288-19.281 46.133-21.156 95.979-32.936 144.019l31.846-9.564c-5.538-46.101-2.789-92.665-2.725-138.962.012-7.615-6.299-13.493-13.852-11.199-10.7 3.249-17.98 15.961-19.262 26.449-4.868 39.855 5.158 80.436-2.725 119.89 10.982-3.322 21.964-6.646 32.946-9.97.872-7.114 1.859-14.207 3.021-21.282 1.236-7.51 2.422-13.087 3.697-18.195 1.469-5.875 3.253-11.667 5.213-17.396.953-2.783 2.018-5.527 3.101-8.263-1.771 4.473 2.339-4.874 2.961-6.158 10.884-22.464 29.257-42.768 50.206-62.775-5.054-9.383-10.105-18.764-15.159-28.145-33.839 54.249-50.278 114.842-71.093 174.67l31.845-9.563c-.163-18.746-2.898-37.361-3.548-56.09-.133-3.795-.105-7.554.152-11.336.139-1.742.323-3.479.554-5.211-.04.342 1.624-7.539.708-4.048.486-1.523.941-3.055 1.365-4.596.095-.327 2.979-7.387 1.012-2.992.947-2.115 2.104-4.132 3.247-6.142-2.452 4.304 1.579-1.979 1.81-2.294 4.163-5.724 7.09-8.404 13.543-14.535 5.793-5.502 11.826-10.755 17.7-16.173 14.259-13.153 26.944-27.778 35.923-45.075 3.201-6.166 8.319-29.912-5.882-28.552-44.425 4.249-84.878 36.091-111.803 70.082-5.829 7.358-10.97 22.039-4.238 30.444 7.08 8.842 18.43-.59 23.246-6.67z"/><path fill="#FFBF1F" d="M610.639 363.06c6.736-1.264 8.227 1.536 5.262-.316 3.451 2.155 1.381 1.101.34-.043-1.799-1.972-3.264-4.264-4.707-6.498-4.289-6.631-6.971-12.535-10.408-20.135-3.57-7.897-6.729-15.98-9.568-24.168-2.732-7.87-4.625-14.697-5.213-19.382l-32.363 25.139c13.523 42.075 54.688 67.531 94.188 81.632 42.018 14.998 90.129 21.438 134.002 11.24 17.479-4.062 29.562-48.503 5.578-42.928-36.643 8.517-79.691 2.564-115.994-9.651-35.178-11.841-74.666-33.761-86.328-70.042-2.559-7.964-10.938-8.484-17.201-4.62-9.164 5.652-16.539 18.819-15.162 29.759 2.564 20.359 10.609 40.131 19.289 58.564 5.836 12.392 15.186 37.662 32.709 34.376 17.638-3.308 29.953-47.498 5.576-42.927z"/><path fill="#FFBF1F" d="M786.441 365.221c-10.678-.374-19.898-7.072-24.787-16.582-1.363-2.652-2.307-5.494-3.178-8.335-.688-2.208-.838-2.843-.449-1.906.033.211-.369-6.804-.496-3.485.094-1.45.266-2.886.518-4.317-.463 2.167-.324 1.972.426-.582a5.106 5.106 0 0 1-.973 2.652c2.617-3.859.744-.987-.477-.054 3.602-2.763 5.793-2.909 11.609-2.705 5.809.206 11.221 1.945 16.615 3.955 12.273 4.574 23.648 11.32 35.309 17.21 11.668 5.89 23.359-11.348 25.926-20.343 19.697-69.069-46.119-126.977-94.086-165.289-26.498-21.166-54.779-40.183-83.949-57.456-24.676-14.613-49.34-26.186-77.279-33.233-69.896-17.628-159.486-8.192-195.037 63.468-3.517 7.086-6.512 18.114-.932 25.083 6.816 8.51 18.857-.144 23.248-6.669 19.546-29.035 44.793-58.484 80.347-66.717-.954-12.572-1.911-25.146-2.864-37.721-36.348 38.792-84.847 63.523-122.615 100.813 6.955 5.651 13.906 11.306 20.859 16.958a106.33 106.33 0 0 1 3.061-10.863c1.992-5.845-2.169 4.729.283-.813.702-1.591 1.514-3.135 2.322-4.675.619-1.179 3.807-6.052.195-.476.909-1.406 1.916-2.747 2.918-4.087.66-.881 4.378-5.116.408-.7 1.469-1.634 3.061-3.153 4.664-4.652 1.201-1.124 2.477-2.173 3.748-3.22-3.828 3.154.482-.25 1.139-.708 2.748-1.918 5.658-3.598 8.599-5.201.243-.132 5.247-2.604 1.851-1.037 1.57-.725 3.174-1.374 4.775-2.024 3.824-1.549 7.758-2.813 11.712-3.978 29.892-8.811 63.008-7.211 94.465-3.046 29.416 3.896 57.133 10.599 84.723 21.198 42.867 16.472 80.715 48.867 106.172 86.743 7.02 10.445 12.51 21.63 16.777 33.457 8.814-11.974 17.629-23.946 26.443-35.918-64.041-32.17-123.693-72.28-187.766-104.387-31.359-15.713-63.898-29.062-97.732-38.422-14.982-4.146-30.125-8.314-45.801-6.763-17.348 1.716-32.733 9.672-46.925 19.426-6.611 4.542-11.312 11.135-13.725 18.794-2.04 6.476-3.197 18.087 4.485 21.743 62.691 29.831 130.155 46.411 195.371 69.484 65.059 23.016 125.252 55.402 170.354 108.769l24.463-39.597c-56.186-15.491-112.5-30.689-167.521-50.007-27.291-9.582-54.734-19.981-80.516-33.175-25.896-13.25-48.14-33.232-76.207-42.159-8.312-2.642-15.391 2.62-20.227 9.156-4.932 6.663-11.975 23.017-4.238 30.444 83.91 80.562 188.66 136.135 291.847 187.771 11.432 5.722 23.736-11.165 25.924-20.342 7.42-31.127-9.66-56.463-29.963-78.562-21.553-23.461-46.934-43.394-72.031-62.886-22.383-17.386-44.232-35.325-67.982-50.873-26.404-17.282-60.224-37.728-93.115-31.476-14.691 2.792-27.988 32.902-13.51 42.506 94.082 62.4 202.291 102.974 311.685 129.047 9.936 2.368 20.357-13.764 22.135-21.325 5.15-21.917-.33-40.143-17.08-55.194-14.855-13.353-32.727-22.362-50.072-31.942-17.102-9.448-38.818 32.483-21.441 42.083 12.908 7.13 25.984 13.92 38.078 22.406 5.596 3.927 10.512 8.483 14.828 13.789 1.916 2.36 3.012 4.312 3.871 6.379.107.26 1.219 5.652.805 2.558.545 4.048.297-.181.604-1.48l22.137-21.325c-106.717-25.434-212.412-66.261-304.107-127.08-4.505 14.167-9.008 28.337-13.51 42.505 1.366-.258 2.363-.288 5.742-.239 3.039.044 6.064.503 9.053 1.005 6.227 1.052 12.196 3.364 18.033 5.706 15.648 6.274 30.306 15.035 44.427 24.162 22.496 14.544 43.051 31.548 64.184 47.927 21.568 16.719 42.893 33.742 62.252 53.033 9.664 9.629 18.766 19.939 26.268 31.359 2.896 4.408 4.281 7.037 6.385 12.913.33.956.625 1.923.895 2.898 1.361 4.675-.445-3.609.213 1.041.172 1.198.172 5.912.359.159-.053 1.576-1.09 5.967.449-.496l25.926-20.342c-100.646-50.362-203.938-104.197-285.8-182.797-8.154 13.2-16.309 26.397-24.463 39.599 26.916 8.559 48.998 27.127 73.42 40.668 25.197 13.97 53.23 23.915 80.289 33.596 55.896 19.999 113.348 35.306 170.537 51.073 17.344 4.783 36.154-25.762 24.463-39.598-46.201-54.667-107.336-88.841-173.875-112.839-65.939-23.784-134.361-40.154-197.896-70.388l-9.241 40.538c10.597-7.281 21.615-13.938 34.75-14.733 15.397-.934 31.025 4.255 45.562 8.625 32.57 9.791 63.773 23.707 94.015 39.145 61.068 31.172 118.213 69.421 179.496 100.208 16.742 8.408 30.914-23.526 26.443-35.919-16.613-46.061-51.631-83.238-91.6-110.388-28.936-19.657-61.395-30.313-95.148-38.225-60.613-14.208-138.083-20.946-188.738 22.566-17.192 14.77-29.202 36.528-34.182 58.478-1.416 6.245-2.986 13.703 1.461 19.256 5.298 6.613 14.533 2.504 19.397-2.298 37.761-37.286 86.238-61.994 122.614-100.813 6.666-7.117 11.751-16.441 10.986-26.521-.602-7.933-5.814-13.061-13.851-11.2-45.14 10.45-80.061 48.919-104.934 85.87l22.316 18.414c.908-1.827 1.851-3.62 2.844-5.403-2.801 5.029.432-.563.977-1.354 1.111-1.614 2.338-3.146 3.562-4.679 4.004-5.003-3.089 3.192 1.338-1.399 1.341-1.388 2.774-2.687 4.204-3.983.224-.203 5.143-4.155 1.82-1.629 3.613-2.749 7.504-5.117 11.458-7.337 11.563-6.494 28.94-11.238 44.251-13.048 34.044-4.027 69.947.484 102.302 11.597 25.234 8.664 48.545 23.219 71.025 37.337 29.58 18.577 58.227 39.002 84.428 62.137 19.936 17.603 38.822 37.064 53.162 59.579 5.295 8.316 9.262 16.718 12.25 27.409.273 1.019.529 2.041.764 3.07-.959-4.021.119.906.207 1.491.377 2.5.533 5.028.623 7.553.002 2.263.035 1.999.104-.797-.057 1.489-.229 2.968-.402 4.444-.746 6.374 1.172-3.14-.598 3.067 8.641-6.78 17.285-13.56 25.926-20.342-16.105-8.13-31.689-17.361-49.43-21.511-21.477-5.025-38.609 3.415-52.666 19.574-27.771 31.925-16.895 100.49 32.676 102.227 18.663.65 35.06-43.314 13.86-44.056z"/><path fill="#FFBF1F" d="M786.541 466.966c12.225-32.724 5.66-67.877-4.932-100.044-3.514-10.67-15.174-7.241-21.377-1.382-7.791 7.363-13.598 20.416-10.07 31.133 7.18 21.804 14.338 46.488 5.969 68.892-2.758 7.378-2.574 22.218 8.273 22.727 11.323.529 18.803-12.409 22.137-21.326z"/><path fill="#FFBF1F" d="M800.164 450.618c10.16-32.75 16.885-66.561 17.783-100.881.822-31.458-6.744-70.201-38.615-84.347-18.219-8.083-39.193 34.206-21.441 42.087 10.619 4.711 17.383 12.706 21.309 22.44 2.812 6.979 3.609 11.562 4.414 17.58 1.006 7.537 1.172 15.175 1.055 22.766.059-1.716.037-1.334-.07 1.148-.1 2.159-.264 4.314-.426 6.47-.326 4.332-.82 8.649-1.359 12.957-.971 7.78-2.332 15.505-3.854 23.193a486.466 486.466 0 0 1-.84 4.055c-1.387 6.616 1-4.251-.492 2.206-.863 3.741-1.807 7.46-2.775 11.173-1.553 5.958-3.273 11.872-5.098 17.751-2.311 7.445-2.889 22.203 8.273 22.727 10.945.514 19.339-12.316 22.136-21.325z"/><path fill="#FFBF1F" d="M806.881 371.364c2.412-32.832-12.768-63.978-35.426-87.139-15.277-15.617-40.367 23.945-27.486 37.113 14.602 14.925 31.59 37.881 29.965 59.996-.625 8.511 2.635 19.835 13.686 16.479 10.347-3.144 18.497-16.04 19.261-26.449z"/><path fill="#FFE5B8" d="M291.901 483.13c-11.151-10.61-27.957-24.682-44.686-17.981-18.8 7.53-28.772 28.651-30.428 47.879-2.025 23.559 7.657 69.978 41.053 60.625 13.699-3.838 24.635-16.283 32.547-27.382 5.496-7.708 11.18-21.774 4.238-30.443-6.91-8.625-18.705.296-23.248 6.669a103.644 103.644 0 0 1-4.244 5.566c-2.69 3.284 3.88-4.248 1.104-1.262a53.36 53.36 0 0 1-2.016 2.021 44.826 44.826 0 0 1-1.978 1.77c-2.688 2.312 4.376-3.239 1.599-1.255-1.175.841-2.432 1.553-3.724 2.196 5.979-2.981 1.971-.951.147-.508-2.533.615 4.438-.465 1.896-.224-.541.052-1.086.043-1.629.032-1.592-.029-5.307-1.229.176.365-1.176-.343-2.281-.897-3.337-1.51-3.411-1.978.326.504-.024.188-.864-.769-1.635-1.639-2.376-2.523-.786-.935-1.479-1.944-2.146-2.964-.349-.533-.667-1.083-.986-1.631-1.31-2.254 2.138 4.237.474.773-1.195-2.488-2.116-5.104-2.907-7.748-.41-1.371-.747-2.763-1.062-4.159-.682-3.02.906 4.827.359 1.775a67.86 67.86 0 0 1-.436-2.866c-.383-2.845-.539-5.717-.539-8.584-.002-3.24-.238 5.698-.086 2.486.034-.688.093-1.372.151-2.057.113-1.33.308-2.652.532-3.968.762-4.462-1.772 6.602-.249 1.361.171-.584.371-1.158.573-1.729 1.107-3.14-2.85 6.659-1.5 3.658 2.275-5.065-2.203 3.189-1.387 1.989 2.812-4.141-4.764 4.532-1.084 1.29-5.222 4.599-4.113 3.064-2.556 2.051 1.246-.807 3.739-1.74-2.489 1.045.948-.423 1.961-.671 2.976-.858-5.847 1.084-2.027.305-.196.44.622.046 1.236.154 1.85.261 2.373.411-4.133-1.29-.491-.103 3.22 1.05 6.206 2.767 9.04 4.591 1.777 1.145 3.467 2.424 5.131 3.728-3.076-2.407.144.147.629.569 1.315 1.143 2.58 2.338 3.842 3.539 7.954 7.567 17.878.588 23.248-6.668 4.909-6.632 12.002-23.056 4.239-30.444zm469.867 27.72c.684-.847 4.66-5.285.539-.765 1.311-1.437 2.727-2.769 4.17-4.072 2.902-2.619-3.918 2.568.727-.454 4.18-2.72-2.299.713.277-.285 4.711-1.83-2.188-.667 2.396-.372 3.826.25-2.404-.929-.17-.085.938.353 1.797.891 2.635 1.434 2.457 1.603-2.797-2.553-.623-.482.799.763 1.49 1.637 2.164 2.509.719.93 1.33 1.941 1.93 2.95-2.611-4.406-.389-.577.094.533.938 2.15 1.641 4.398 2.273 6.653.338 1.198 1.359 6.184.252.51.273 1.399.471 2.812.66 4.224.328 2.472.479 4.965.557 7.458.049 1.539-.205 6.829.098-.061-.059 1.341-.191 2.678-.338 4.015-.105.963-.262 1.921-.418 2.875-.615 3.721 1.648-6.296.248-1.228-.57 2.072-2.592 6.423.975-1.9-.891 2.08-3.514 5.423 1.486-2.088-1.877 2.817 4.42-4.642 2.102-2.305-.072.073 3.719-2.497 5.324-3.184-3.254 1.393 3.52-.093 1.09.002-1.342.052-4.285-.967.32.397-2.021-.6-3.852-1.791-5.559-2.993-1.281-.982-1.154-.864.387.355a50.132 50.132 0 0 1-1.846-1.725c-1.377-1.325-2.637-2.771-3.889-4.216l-12.264 38.052c27.732-14.776 38.303-45.818 30.59-75.241l-26.441 35.916c10.699 3.79 21.387 5.771 30.066-3.644 6.34-6.88 10.1-14.372 11.572-23.598.379-2.367.203-4.818.252-7.215.014-2.092-.021-1.371-.105 2.163.719-5.741-1.018-1.661-5.211 12.242 5.926-7.25 10.906-22.119 4.238-30.443-7.137-8.91-18.354.68-23.248 6.668-4.893 5.984-7.092 13.058-8.615 20.475-.434 2.102-.311 5.845-.326 7.349-.012.692-.016 1.383-.012 2.073-.209-4.368.789-8.533 2.99-12.499 2.387-3.245 4.771-6.487 7.16-9.73 10.012-2.943 12.623-4.422 7.83-4.431-1.758-.087-3.549-.928-5.152-1.494-18.033-6.387-30.064 22.096-26.441 35.915.662 2.532.742 3.159 1.01 5.695.613 5.825 1.4-2.606-.121 2.271.582-1.87 1.275-3.56 2.656-4.992-1.635 1.697-2.688 1.949-5.65 3.529-10.455 5.571-21.479 27.42-12.264 38.051 11.885 13.706 29.438 21.986 43.871 5.798 13.945-15.643 18.428-36.162 16.594-56.71-1.34-15.012-6.131-32.317-19.465-41-18.502-12.047-40.152 10.633-50.387 23.321-5.887 7.297-10.932 22.085-4.238 30.444 7.117 8.885 18.388-.639 23.25-6.665z"/><path fill="#FFE5B8" d="M756.229 575.484c18.711 0 34.82-44.052 13.863-44.052-18.711.001-34.821 44.052-13.863 44.052z"/><path fill="#FFE5B8" d="M804.236 558.814c17.754-16.972 30.357-41.151 24.584-66.163-4.525-19.596-21.129-33.683-38.59-41.979-17.91-8.508-39.113 33.688-21.439 42.087 10.309 4.896 18.803 10.966 25.27 20.487.979 1.442 1.518 3.115 2.131 4.743.189.501.711 5.325.826 3.649.242-3.486-1.549 3.577.033.236.74-1.561-3.652 3.98-4.121 4.428-7.662 7.323-13.764 20.472-10.07 31.132 3.65 10.537 15.093 7.386 21.376 1.38z"/><path fill="#61E9FF" d="M263.112 946.924c26.536 25.998 62.461 38.109 98.035 45.828 38.699 8.4 78.531 10.723 117.996 12.373 44.474 1.859 89.089 2.142 133.291-3.83 46.25-6.251 90.473-20.221 132.984-39.293 6.738-3.021 11.072-10.831 9.256-18.169-19.24-77.69-69.809-148.397-147.629-174.981-37.986-12.978-78.479-12.359-118.085-10.537-35.648 1.638-71.66 6.123-105.758 16.994-35.059 11.18-67.551 30.656-89.654 60.561-26.134 35.352-32.518 80.416-29.16 123.259.965 12.312 14.359 1.899 15.922-4.783 8.057-34.417 13.532-70.027 26.673-103.005 11.71-29.393 34.104-49.496 63.584-60.338 20.411-7.506 42.399-10.398 63.675-14.446 22.822-4.343 45.711-8.37 68.851-10.599 44.731-4.307 90.45-.483 129.321 23.836 34.021 21.283 60.221 59.152 74.229 96.248 6.293 16.673 10.527 36.005 6.412 53.724-4.441 19.123-18.818 30.263-35.426 38.983-38.98 20.465-85.98 23.865-129.186 23.676-43.527-.189-87.885-4.488-130.792-11.783-50.582-8.596-102.177-23.585-145.031-52.617-7.851-5.317-19.057 15.396-10.719 21.045 40.858 27.68 89.445 42.141 137.455 51.525 42.887 8.385 87.473 12.455 131.121 13.674 71.156 1.99 197.133-8.709 200.631-103.59 1.451-39.346-18.506-77.312-41.58-107.901-26.35-34.934-61.785-57.997-104.801-66.59-44.18-8.827-90.406-1.55-134.142 6.378-39.082 7.084-81.191 11.799-113.932 36.299-51.062 38.204-58.067 107.195-71.545 164.783 5.307-1.596 10.613-3.188 15.922-4.783-2.752-35.099.992-71.76 22.025-101.107 18.113-25.277 46.561-40.635 75.445-50.355 33.984-11.436 70.122-15.525 105.777-17.164 40.105-1.844 80.714-1.998 118.861 12.076 72.1 26.6 117.896 94.039 135.812 166.396 3.088-6.055 6.172-12.112 9.258-18.17-41.023 18.404-83.605 32.049-128.152 38.619-43.537 6.424-87.938 5.801-131.787 4.029-37.734-1.524-75.537-3.879-112.699-10.939-35.047-6.658-72.635-18.328-98.715-43.879-7.835-7.678-20.296 12.133-13.743 18.553z"/><path fill="#61E9FF" d="M282.213 897.764c17.438-20.998 31.885-41.024 49.696-58.135 18.438-17.715 42.103-29.237 68.796-35.83-.954-12.573-1.908-25.146-2.865-37.721-39.896 36.48-88.566 64.08-118.291 110.635-4.911 7.693-9.443 17.451-6.217 26.764 2.944 8.494 10.521 7.732 17.202 4.617 34.61-16.129 64.579-40.533 95.817-62.127 29.91-20.678 62.985-41.297 100.129-44.33l1.277-38.283c-30.942 31.938-72.867 51.905-111.689 75.576-42.047 25.635-81.45 57.408-102.552 103.09-4.604 9.967-7.259 31.301 10.024 27.99 23.41-4.484 44.87-17.818 64.301-31.045 21.533-14.666 41.672-31.266 62.569-46.797 21.395-15.9 44.633-29.363 67.223-43.473 26.345-16.457 53.424-31.98 83.833-39.446l-12.416-22.165c-.412 1.277-3.291 8.641-.666 2.402-.92 2.189-1.998 4.307-3.092 6.416-.588 1.131-4.838 7.969-1.316 2.463-1.68 2.626-3.531 5.137-5.414 7.617-1.547 2.045-3.199 4.006-4.859 5.958 3.32-3.903-2.213 2.271-2.832 2.915-4.297 4.463-8.893 8.637-13.57 12.697-9.256 8.037-16.619 13.279-27.674 20.847-11.697 8.007-23.749 15.492-35.851 22.868-44.31 26.994-94.572 51.615-129.503 90.994-6.53 7.361-11.766 16.252-10.987 26.521.609 8.011 5.81 12.958 13.852 11.198 55.383-12.117 100.297-52.267 143.932-85.938 22.938-17.704 46.662-32.653 71.888-46.858 29.018-16.342 57.986-32.843 85.447-51.729l-14.291-26.021a161.838 161.838 0 0 1-7.102 13.691c2.6-4.49-1.213 1.848-1.473 2.244-1.674 2.539-3.465 5-5.27 7.447-7.285 9.89-12.039 14.809-21.469 23.937-17.342 16.782-36.109 30.585-56.064 44.097-39.312 26.626-81.409 48.844-120.721 75.449-8.145 5.509-13.731 14.708-14.995 24.479-.953 7.385 3.152 21.295 13.686 16.479 44.55-20.36 90.037-38.753 133.179-62.063 21.877-11.82 42.92-25.153 62.641-40.312 19.908-15.307 37.383-33.93 59.125-46.73l-10.984-31.382c-49.961 62.624-117.092 108.521-182.708 153.153-9.359 6.367-16.034 18.236-15.16 29.76.827 10.885 9.237 13.711 18.119 9.23 78.028-39.363 144.18-102.365 227.336-131.545-3.344-9.33-6.684-18.66-10.023-27.99a115.708 115.708 0 0 1-2.125 4.034c-3.518 6.515 2.615-3.798-1.406 2.403-2.477 3.82-5.275 7.422-8.148 10.945-1.152 1.414-3.66 4.061-7.094 7.461-3.338 3.303-6.869 6.406-10.438 9.452-13.125 11.201-30.256 21.878-46.148 31.663-33.059 20.354-68.111 39.752-94.591 68.722-6.605 7.228-11.76 16.356-10.987 26.521.589 7.764 5.835 13.274 13.851 11.2 71.927-18.609 127.234-72.604 192.279-105.51a296691.53 296691.53 0 0 1-16.684-20.195c-.336 1.404-3.029 8.527-.443 2.58a50.12 50.12 0 0 1-1.662 3.289c1.727-2.649 1.826-2.815.301-.504-1.477 2.223-3.18 4.293-4.885 6.339 2.895-3.476-2.875 2.762-3.471 3.346-8.977 8.759-16.955 14.22-27.51 21.411-20.75 14.139-42.961 26.561-61.771 43.352-7.039 6.282-11.703 17.064-10.988 26.52.512 6.695 6.068 14.621 13.854 11.199 43.535-19.143 86.43-42.559 133.514-51.771 17.613-3.446 29.889-47.686 5.576-42.928-47.082 9.214-89.975 32.63-133.512 51.771.953 12.574 1.908 25.146 2.863 37.721 5.209-4.648 4.656-4.127 9.867-7.902 5.531-4.009 11.248-7.769 16.961-11.518 12.283-8.061 24.701-15.911 36.65-24.469 23.232-16.641 48.102-37.951 55.064-67.033 3.021-12.625-.898-28.184-16.684-20.196-62.121 31.427-115.158 83.825-183.742 101.571.955 12.574 1.908 25.146 2.865 37.721 26.248-28.719 61.332-46.625 94.758-67.527 35.662-22.301 69.908-48.42 89.51-86.615 4.15-8.084 7.082-33.991-10.021-27.99-86.455 30.336-154.865 94.618-235.874 135.482.987 12.998 1.974 25.994 2.959 38.99 72.012-48.982 143.977-99.701 198.758-168.367 5.494-6.885 9.223-18.094 6.217-26.763-2.766-7.985-10.75-8.419-17.201-4.62-21.535 12.678-39.096 30.447-58.383 46.085-18.719 15.179-39.627 27.829-60.672 39.474-41.062 22.723-84.732 40.13-127.353 59.608l-1.31 40.958c41.485-28.074 85.925-51.471 127.213-79.877 42.623-29.328 85.523-64.873 107.549-112.923 3.002-6.546 5.391-14.247 2.91-21.403-2.635-7.605-10.959-8.912-17.201-4.618-50.359 34.634-106.436 59.644-155.05 96.829-41.99 32.117-84.529 72.131-137.68 83.76l2.865 37.721c17.283-19.488 34.119-30.781 56.023-44.911 24.041-15.507 48.959-29.604 73.305-44.616 46.019-28.376 97.107-62.699 114.552-116.762 3.08-9.548 1.301-25.533-12.416-22.164-30.119 7.394-57.802 22.346-84.156 38.32-23.371 14.166-47.262 28.279-69.492 44.192-20.967 15.008-40.843 31.481-61.832 46.47-18.891 13.492-39.258 27.338-62.445 31.777l10.023 27.99c8.807-19.066 18.401-30.732 35.49-45.822 15.176-13.402 34.102-25.223 52.711-36.352 38.77-23.184 79.93-44.218 111.722-77.031 5.661-5.844 9.765-13.068 10.819-21.242.762-5.879-.926-17.745-9.541-17.041-84.486 6.9-139.9 77.562-212.769 111.521l10.985 31.383c27.115-42.467 73.682-68.152 110.588-101.895 6.994-6.398 11.709-16.982 10.986-26.523-.596-7.836-5.826-13.18-13.852-11.199-30.969 7.648-58.639 21.919-82.41 43.208-22.967 20.569-41.057 46.29-60.672 69.909-5.977 7.194-10.871 22.159-4.237 30.443 7.164 8.943 18.315-.727 23.25-6.668z"/><path fill="#FFE5B8" d="M433.34 749.174c-3.225 18.08-1.587 37.459 9.666 52.562 9.297 12.476 25.1 18.287 40.068 19.653 37.068 3.391 73.212-21.571 88.542-54.323 3.34-7.137 7.926-22.932-2.092-27.571-16.824-7.794-39.236-4.037-56.429.229-24.028 5.963-50.005 25.514-43.543 53.611 2.207 9.602 12.369 15.605 20.74 19.121 12.613 5.293 27.546 4.625 39.974-.75 14.826-6.409 27.242-18.293 33.656-33.244 7.824-18.24 7.17-35.477-2.273-52.83-5.453-10.016-19.564 1.689-23.25 6.668-6.561 8.863-9.674 20.457-4.238 30.445 1.369 2.51 1.939 5.008 2.176 7.438-.334-3.436-1.135 4.176.225-.828 1.611-5.928-2.268 2.682 1.213-2.379 2.596-3.771-.902.816-1.652 1.486 2.756-2.461-2.498 1.264-2.666 1.357-.477.266-5.693 1.918-7.916 2.141-7.76.781-14.381-1.354-21.023-5.164-3.373-1.938-1.64-.334-4.086-3.576 4.066 5.387-.947 18.158-6.803 24.607 1.504-1.395.922-1.01-1.75 1.154.954-.74 2.012-1.346 3.05-1.958.735-.433 4.735-2.228.634-.425 1.373-.603 2.788-1.108 4.198-1.619 6.317-2.283 12.961-3.665 19.581-4.725 2.58-.414 11.105-.912 16.018-.817 2.912.057 5.809.349 8.686.793.639.097 4.684 1.229 1.049.157 1.035.304 2.016.74 2.992 1.193l-2.092-27.57a59.141 59.141 0 0 1-1.561 3.203c-2.715 5.381 2.992-4.326-.303.65-.953 1.445-2.031 2.805-3.105 4.164 3.502-4.426.021-.086-.76.707-.887.899-7.4 6.172-3.615 3.354-2.717 2.021-5.645 3.739-8.617 5.351-1.91.941-2.002 1.018-.273.233-1.525.696-3.096 1.288-4.662 1.881-3.107 1.176-6.322 2.043-9.552 2.798-4.397 1.029-3.521.778-7.124 1.049-3.16.236-6.33.146-9.485-.062-6.66-.445-8.438-1.031-13.705-3.223-2.219-.928-4.309-2.121-6.346-3.393-2.941-1.834-1.525-.71-4.556-3.914-1.651-1.748-3.017-3.736-4.291-5.767 1.801 2.864-.507-1.269-.673-1.661-.611-1.438-1.05-2.941-1.49-4.436-1.455-4.953.398 3.453-.342-1.879-.243-1.755-.3-3.532-.361-5.301-.206-5.952-.386 3.881.186-2.378.191-2.077.564-4.135.93-6.187 1.547-8.663-3.278-19.639-13.686-16.479-11.106 3.378-17.383 15.909-19.264 26.454z"/><path fill="#FFE5B8" d="M460.423 751.73c-.927 35.197 27.124 62.445 62.194 61.078 43.775-1.702 70.748-46.146 63.727-87.058-1.678-9.778-8.771-14.997-18.119-9.23-8.846 5.456-17.002 19.028-15.162 29.76.656 3.81 1.066 7.591 1.176 11.456-.154-5.516-1.953 10.078-.061 2.181-.352 1.466-.857 2.89-1.363 4.304 2.328-6.52.791-2.143-.027-.609 3.283-6.148 1.363-2.222.262-.738-2.916 3.932 3.676-3.775.252-.34-.867.87-4.5 3.678.084.207-1.064.805-2.207 1.503-3.344 2.199-.768.468-4.83 2.407-.506.456-1.229.554-2.506.997-3.777 1.44-2.576.897-5.256 1.459-7.939 1.917 3.213-.55-4.139.077-5.5.062-6.512-.076-9.963-.969-13.982-2.391-2.638-.932-5.156-2.172-7.607-3.512-1.225-.67-2.391-1.443-3.554-2.215-.257-.169-3.813-2.99-1.392-.936-2.149-1.824-4.027-3.939-5.788-6.133-.896-1.113-1.677-2.314-2.455-3.51-2.535-3.896 1.241 2.811-.772-1.461-1.303-2.768-2.16-5.721-2.869-8.688.941 3.94-.006-1.319-.056-1.823-.234-2.307-.2-4.631-.14-6.944.277-10.565-10.129-14.161-18.121-9.23-10.245 6.317-14.858 18.264-15.161 29.758z"/><path fill="#F42A2A" d="M436.931 623.148c20.949-11.162 49.073-8.805 56.794 16.765l13.219-17.959c-19.863-6.661-40.135-13.626-61.184-8.386-7.541 1.879-13.742 15.924-6.754 21.254 18.402 14.037 45.893 14.578 67.97 14.114 24.11-.505 49.237-3.694 72.233-11.179 5.793-1.886 14.141-14.447 8.264-20.01-31.383-29.721-70.785-8.136-96.886 17.497-3.195 3.137-10.475 19.107-.639 19.142 27.603.096 56.835 1.938 80.496-14.889 4.639-3.299 8.023-9.029 7.58-14.879-.367-4.832-4.805-7.643-9.061-4.615-21.02 14.949-47.615 12.442-72.086 12.357l-.638 19.141c20.583-20.215 52.193-39.156 77.494-15.197 2.754-6.672 5.51-13.34 8.266-20.012-21.852 7.113-45.203 9.926-68.092 10.618-20.973.634-46.724.185-64.18-13.132l-6.755 21.254c18.072-4.502 36.252 2.262 53.255 7.965 8.854 2.969 15.345-10.926 13.22-17.959-10.207-33.814-46.784-35.883-73.994-21.384-8.122 4.328-11.003 26.145 1.478 19.494z"/><path d="M403.596 569.762c8.916-8.48 19.51-13.135 31.855-13.466l.639-19.142c-10.606 10.833-20.055 22.791-29.174 34.881-3.64 4.826-6.637 18.238 3.359 16.676 22.674-3.541 40.047-20.987 62.668-24.52l-1.432-18.861c-17.304 14.291-34.816 27.523-48.248 45.78-3.648 4.96-5.109 22.938 5.492 15.692 23.072-15.771 47.945-14.306 74.118-8.615 21.672 4.714 43.168 9.324 64.426 15.676a368.083 368.083 0 0 0 23.051 6.096c6.971 1.604 13.566 4.426 20.752 5.088 19.393 1.791 27.539-19.356 31.947-34.279 2.811-9.51 2.49-20.941-5.604-27.785-8.143-6.889-19.357-8.688-29.658-9.758-29.146-3.035-58.971 1.148-88.098 2.696-13.287.706-30.166 2.859-42.718-2.085-2.941 7.18-5.883 14.356-8.824 21.534 24.516.079 49.113 2.696 73.226 7.047 23.596 4.259 51.934 10.311 70.504 26.638 5.076 4.465 10.922-1.326 13.277-6.014 1.934-3.849 3.691-7.666 6.52-10.941 2.92-3.379 6.928-16.844-1.287-16.958-7.107-.098-15.316-2.315-22.334-.583-7.195 1.773-12.105 7.814-15.857 13.826-3.467 5.557-6.012 21.549 5.492 15.693 13.553-6.899 43.459-25.715 29.285-44.859-4.033-5.449-11.969-7.699-18.15-9.323-9.717-2.553-19.672-3.821-29.672-4.604-19.869-1.555-39.57 1.06-59.371-1.315-15.517-1.86-30.875-4.869-46.468-6.124-11.752-.946-24.93-.816-35.136 5.859-4.714 3.081-8.012 9.194-7.581 14.878.38 4.992 4.744 7.438 9.061 4.615 7.562-4.947 18.143-3.896 26.725-3.326 13.128.872 26.147 3.285 39.156 5.149 17.833 2.556 34.816 1.296 52.636 1.617 15.297.274 31.709 1.169 46.277 6.202 2.75.951 5.381 2.207 7.783 3.852 1.906 1.311.889 2.805 1.213-.232.166-1.67.75-3.14 1.756-4.406-.77.982-.854 1.139-.25.471-1.08 1.185-2.334 2.256-3.619 3.211-4.688 3.475-9.941 6.201-15.123 8.839l5.492 15.693c2.104-3.372 1.625-4.233 5.318-4.153 5.486.119 10.932.971 16.439 1.047-.43-5.652-.861-11.305-1.289-16.959-4.156 4.812-6.99 10.66-9.828 16.305 4.426-2.004 8.85-4.01 13.277-6.014-19.842-17.446-47.262-24.119-72.549-29.201-25.549-5.135-51.925-7.871-77.994-7.953-7.543-.025-17.959 17.936-8.824 21.533 9.481 3.734 20.205 3.713 30.236 3.631 14.422-.117 28.835-1.303 43.22-2.258 15.053-1 30.125-1.927 45.217-1.799 11.326.098 23.592.414 34.207 4.781 3.514 1.443 6.068 3.156 8.16 6.264 1.66 2.468.553 4.359-.549 8.75-1.729 6.91-3.045 9.297-10.197 8.637-7.096-.654-14.02-3.746-20.943-5.338-18.496-4.25-36.357-11.614-55.141-14.676-23.777-3.876-46.496-12.387-70.938-10.857-15.354.961-29.64 6.674-42.249 15.293 1.83 5.231 3.66 10.461 5.492 15.691 12.197-16.581 28.68-28.434 44.395-41.412 5.045-4.166 9.684-20.596-1.432-18.86-22.674 3.541-40.049 20.99-62.67 24.523l3.359 16.677c7.95-10.545 16.07-21.068 25.32-30.514 2.951-3.014 10.584-19.408.639-19.142-17.176.458-32.062 7.464-44.438 19.233-3.837 3.652-6.881 10.244-5.036 15.564 1.833 5.28 7.546 3.686 10.692.694z"/><path d="M496.45 599.044c20.238 40.597 87.25-16.522 98.087 32.694 1.242 5.63 7.928 3.301 10.689.691 4.221-3.988 6.281-9.91 5.037-15.564-2.338-10.604-7.502-20.201-17.535-25.175-8.779-4.349-19.473-3.656-28.883-2.571-13.709 1.58-43.357 11.728-51.675-4.953-5.545-11.125-19.723 6.85-15.72 14.878z"/><path d="M610.676 629.706c16.852-13.128 28.281-35.743 32.262-56.376 1.654-8.562 1.143-18.949-4.834-25.814-7.084-8.138-19.488-6.706-28.859-4.79l-2.789 21.466c11.352-3.188 19.104 5.035 17.682 16.281-.543 4.301 1.482 9.867 6.842 8.238 5.367-1.629 8.969-7.977 9.633-13.223 2.547-20.127-9.27-38.964-31.367-32.763-8.348 2.343-15.125 23.988-2.789 21.466 13.082-2.676 23.336 1.117 19.645 15.763-3.172 12.591-10.775 25.47-21.076 33.495-8.206 6.391-6.561 25.77 5.65 16.257z"/><path d="M532.096 551.656c-11.918 1.848-23.699-3.139-34.77-6.823-13.812-4.595-27.267-10.196-41.105-14.714-18.069-5.896-45.361-12.625-53.585 10.816-4.768 13.598-2.623 30.043 1.016 43.647 4.436 16.583 14.975 30.962 27.463 42.423 25.688 23.58 62.338 36.07 96.892 36.59 29.051.438 54.512-12.287 76.93-29.855 20.018-15.684 40.555-37.135 47.734-62.186 2.504-8.74 2.58-18.322-2.555-26.117-6.195-9.4-19.066-12.015-29.404-13.19-22.559-2.56-46.104 1.986-68.234 5.906-24.537 4.347-47.25 6.111-72.105 4.06-3.663-.304-6.993.027-10.66.314-1.791.14-3.994 4.324-2.07 5.432 19.959 11.495 49.033 5.977 70.662 2.284 23.65-4.036 47.199-8.887 71.32-8.523 11.961.18 27.105 1.992 34.77 12.405 6.064 8.238 2.24 19.32-1.766 27.495-12.438 25.378-37.996 46.442-62.279 59.87-28.949 16.008-61.982 15.4-93.078 5.961-27.257-8.273-53.365-24.355-69.285-48.395-8.119-12.262-11.387-26.049-12.559-40.523-.804-9.927-.162-21.717 10.364-25.876 8.106-3.201 18.259-1.058 26.382.839 11.102 2.589 21.868 6.603 32.58 10.443 16.959 6.081 37.819 15.479 56.265 11.32 1.252-.28 2.565-3.833 1.077-3.603z"/><path d="M598.26 627.764c-17.855-35.121-57.041-31.718-85.97-12.547.986.199 1.975.398 2.96.599-4.834-19.647-25.387-27.573-43.909-27.776-19.25-.211-36.928 9.811-43.622 28.21-2.41 6.63 4.329 4.401 6.046-.244 5.676-15.362 25.887-18.927 40.166-18.006 14.895.962 30.971 8.88 35.789 23.89.48 1.499 1.881 1.355 2.961.599 12.736-8.933 27.269-14.978 42.984-15.152 17.312-.193 31.084 10.27 39.977 24.401 1.04 1.649 3.335-2.562 2.618-3.974z"/><path d="M401.209 550.939c10.252-20.755 32.523-15.729 50.631-9.958 15.996 5.101 31.334 12.941 48.139 15.126 12.91 1.678 26.81-1.303 39.544-3.107 17.018-2.41 34.025-4.823 51.203-5.818 25.26-1.464 64.877 3.271 54.068 38.665-4.111 13.456-16.807 23.628-27.916 31.237-13.715 9.395-29.293 16.086-44.977 21.404-21.262 7.207-44.357 12.184-66.917 11.414-18.279-.623-33.923-10.977-48.243-21.496-18.661-13.709-36.383-30.867-48.178-50.946-4.443-7.563-8.24-16.739-7.267-25.677 1.125-10.345 12.761-15.083 20.782-19.235 1.564-.812 5.002-7.95 1.613-7.379-24.822 4.187-34.39 29.128-26.224 51.044 9.809 26.328 33.669 47.705 55.669 63.983 9.77 7.228 20.394 13.987 31.963 17.919 10.053 3.414 21.34 2.953 31.751 2.074 31.07-2.619 62.816-12.73 89.961-27.951 22.436-12.582 46.158-33.164 46.969-60.953.932-31.966-29.77-36.836-55.467-36.284-31.168.669-61.729 10.528-92.833 10.442-29.86-.084-65.127-27.52-93.973-9.412-5.305 3.33-8.756 8.889-11.18 14.496-.43 1.006.397 1.395.882.412zm-115.744-72.313c-15.928-10.47-38.146-19.884-55.515-7.083-14.03 10.339-17.825 30.304-16.815 46.637 1.076 17.431 8.096 36.299 21.873 47.618 15.26 12.538 38.756 11.359 52.569-2.914 1.158-1.197 5.077-10.45.456-9.678-8.446 1.412-15.568 6.211-24.363 6.715-7.146.408-13.892-1.887-19.827-5.75-12.38-8.064-19.38-23.808-21.677-37.916-1.895-11.639-1.592-27.046 8.295-35.232 14.494-12.003 37.221-1.679 51.285 5.579 2.89 1.49 6.454-6.177 3.719-7.976zm477.769-.099c12.525-7.419 31.211-14.579 44.07-3.741 10.447 8.804 12.691 24.764 12.547 37.581-.152 13.444-3.98 28.436-13.121 38.637-11.754 13.112-26.049 8.262-40.629 4.324-4.436-1.197-10.258 8.983-6.668 11.965 15.07 12.516 35.936 8.322 49.041-4.578 13.422-13.213 19.562-33.887 20.564-52.229.865-15.853-1.611-35.449-15.004-45.955-16.592-13.015-37.383.113-50.947 11.271-.798.655-1.632 3.78.147 2.725z"/><path d="M252.636 467.691c.276-53.302-12.276-106.84-.089-159.64.743-3.216-.046-9.414-4.688-5.859-11.264 8.623-21.441 18.541-32.703 27.164l5.232 2.439c-6.754-71.314 56.59-123.662 123.193-128.991 6.886-.55 12.814-18.657 5.387-18.024-78.687 6.701-146.392 72.813-138.384 154.381.302 3.072 2.614 4.458 5.231 2.44 11.26-8.68 21.432-18.654 32.691-27.335-1.562-1.954-3.125-3.905-4.688-5.858-5.925 25.996-7.507 52.305-5.296 78.857 2.317 27.838 7.51 55.296 10.657 83.023.369 3.234 3.448-.973 3.457-2.597z"/><path fill="#EAA286" d="M752.145 400.601c-25.637 9.627-54.291 5.339-80.076-1.548-12.906-3.449-28.15-7.632-42.039-13.958-10.098-9.555-20.809-18.491-33.1-24.939-7.225-3.789-13.914 13.568-10.342 18.555 5.506 7.686 12.137 14.644 19.506 20.869-5.832-1.058-11.576-2.619-17.107-4.504-4.836-1.648-9.498 3.834-11.279 9.712-6.307-2.712-12.459-5.852-18.234-9.486-16.137-10.156-29.33-25.084-39.971-40.722-22.015-32.348-34.505-70.153-48.254-106.446-2.468-6.516-9.405 5.261-8.435 9.263 10.211 42.109 18.96 84.899 39.327 123.546 9.854 18.696 22.543 34.996 39.711 47.453 17.883 12.978 43.721 21.324 65.221 13.669 5.312-1.889 12.795-14.278 10.395-21.078 5.787-.229 11.541-1.019 17.189-2.491a182.456 182.456 0 0 0 25.801 10.927c27.297 9.173 66.492 16.098 90.566-4.356 4.561-3.873 7.676-9.357 8.479-15.327.645-4.834-1.144-11.469-7.358-9.139zM497.934 714.186c9.965 1.609 19.535.689 29.228-1.971 5.072-1.395 9.865-3.648 14.453-6.182.332-.183.828-.514 1.404-.926.705-.246 1.41-.492 2.105-.756 6.912-2.613 11.393-5.502 14.033-11.027.455-.711.877-1.439 1.186-2.237 1.094-2.819 3.82-12.02-2.104-11.919-3.535.062-5.971 2.543-8.48 4.809-20.859 6.332-45.089 6.701-62.592-7.863-5.029-4.188-11.206 2.363-13.415 9.454a59.511 59.511 0 0 1-12.34-14.347c-1.916-3.113-6.539 4.641-5.461 7.071 7.839 17.645 22.235 32.704 41.983 35.894zm61.154 45.855c-15.969 8.838-34.457 12.282-52.587 11.676-18.076-.6-38.306-5-49.32-20.603-3.412-4.832-9.139 7.174-8.06 10.438 14.228 43.127 69.893 48.166 105.684 30.244 7.502-3.758 12.227-12.42 13.314-20.531.662-4.929-1.574-15.349-9.031-11.224z"/><path d="M351.456 189.222c-3.919-45.547 27.501-82.343 63.779-105.468 35.162-22.417 84.539-35.748 123.669-15.854l4.568-15.155c-22.152 8.671-39.449 24.796-54.554 42.761-2.463 2.931-4.73 7.5-3.504 11.436 1.175 3.764 5.209 2.033 7.041-.147 13.747-16.347 28.843-30.94 48.984-38.978 3.828-1.527 10.092-12.405 4.57-15.155-44.324-22.07-98.644-3.866-137 22.21-37.499 25.494-72.219 70.971-62.343 118.759.717 3.464 4.957-2.469 4.79-4.409zm441.083 197.516c-10.701-17.445-14.963-36.983-22.59-55.722-2.408-5.911-9.879 4.779-8.125 8.924 7.746 18.304 11.701 39.012 26.453 53.266 2.534 2.448 5.575-4.327 4.262-6.468z"/><path d="M764.42 337.656c15.879.649 31.547 3.8 46.924 7.624 13.697 3.403 33.41 7.74 41.412 20.728 2.873 4.665 10.787-7.501 7.912-12.013-8.289-13.012-27.318-17.488-41.236-20.837-16.766-4.033-34.844-5.756-52.08-5.308-3.6.092-7.276 9.629-2.932 9.806z"/><path d="M861.801 360.949c.182-41.697-6.775-82.372-25.438-119.966-18.611-37.488-47.914-71.099-80.26-97.414-70.84-57.631-169.926-73.48-256.649-47.759-4.245 1.259-8.104 4.041-11.726 6.472-1.965 1.322-5.662 8.95-1.271 9.354 10.369.949 20.631-3.018 30.769-4.886 10.729-1.976 21.586-3.173 32.459-3.917 21.99-1.503 44.082-.91 65.928 1.976 44.514 5.882 87.709 22.855 123.902 49.447 33.703 24.762 64.615 58.555 85.129 95.056 19.766 35.168 26.818 75.731 32.428 115.19.631 4.443 4.719-1.347 4.729-3.553zM362.729 258.391c32.788-20.393 78.152-20.256 111.336-.951 4.38 2.551 10.752-10.256 5.996-12.861-36.979-20.25-84.89-17.19-117.543 9.951-1.119.931-2.273 5.406.211 3.861z"/><path d="M401.588 239.496c.533-20.637 20.486-30.069 38.549-32.494 3.88-.519 6.959-10.666 3.008-10.072-21.307 3.202-48.925 18.396-43.152 44.035.281 1.246 1.583-.946 1.595-1.469zM626.26 481.757c10.752-23.464 50.369-25.871 55.152 3.141l10.643-9.795c-3.486-20.291-23.395-30.54-42.686-28.962-19.953 1.629-41.014 21.963-35.891 43.171 1.744 7.216 9.664-3.273 10.283-5.994 1.494-6.579 1.742-11.112 7.41-15.194 5.492-3.954 12.865-4.937 19.439-4.925 14.506.025 28.217 8.601 31.072 23.292.783 4.024 5.316 1.625 6.924-.14 2.732-2.994 4.242-7.244 3.447-11.248-3.439-17.359-17.242-27.719-34.889-25.622-16.975 2.016-30.23 15.739-35.43 31.416-1.543 4.663 2.891 4.432 4.526.86zM456.729 673.322c15.197 12.088 30.762 20.316 50.109 23.111 16.394 2.366 38.64-.328 50.923-12.27 1.771-1.723 6.826-13.791.615-13.055-7.447.883-14.479 6.027-21.717 8.355-8.176 2.629-17.064 3.031-25.576 2.75-17.582-.582-36.033-6.895-51.837-14.296-2.087-.976-4.187 4.076-2.517 5.405zm-215.82-152.42c5.833-7.173 13.646-12.655 23.164-12.776 10.494-.132 12.82 9.175 16.793 16.791 1.814 3.478 5.815-4.215 5.963-5.501 1.334-11.701-4.562-23.355-17.534-23.585-12.707-.227-24.134 10.517-30.843 20.187-1.752 2.527-.891 9.001 2.457 4.884z"/><path d="M287.241 514.987c-7.564-.311-17.051-.388-22.402 5.943-5.294 6.262-4.251 15.739.289 22.138 1.945 2.742 5.132-4.065 4.551-5.893-.83-2.602-4.696-9.444-1.906-11.855 4.444-3.842 12.141-3.945 17.648-4.237 2.206-.117 4.543-5.985 1.82-6.096zm483.997 13.841c2.82-7.535 8.598-12.726 16.488-14.417 7.115-1.525 12.598 2.129 19.174 3.707 4.137.989 8.551-7.391 5.852-10.499-6.787-7.817-19.061-7.404-27.891-3.621-9.938 4.258-16.207 15.067-18.877 25.042-1.621 6.048 3.778 3.738 5.254-.212z"/><path d="M768.268 534.202c3.814-1.456 10.842-4.002 13.799.31 1.029 1.5.404 3.739.137 5.352-.52 3.13-1.938 6.025-2.477 9.188-.439 2.575 1.646 3.347 3.318 1.549 4.961-5.338 8.986-16.33 4.656-23.187-4.133-6.546-14.715-.682-19.213 1.974-1.269.749-2.748 5.782-.22 4.814zM436.7 752.455c-6.922 21.941-5.646 45.508 10.936 62.771 14.796 15.405 36.973 21.639 57.797 21.388 21.843-.261 43.798-7.746 59.589-23.083 8.207-7.969 14.119-18.709 17.049-29.715 2.406-9.045 4.846-26.039-4.158-31.92-3.412-2.229-6.512 5.678-6.879 7.633-1.682 8.979-.383 19.075-2.865 27.235-.742 2.437-1.689 4.151-4.045 7.474-.973 1.372-4.328 4.681-6.6 6.5-14.074 11.27-32.504 15.607-50.234 15.873-17.84.27-36.531-3.568-50.898-14.623-15.671-12.061-18.795-32.289-15.057-50.633.935-4.591-3.861-1.358-4.635 1.1z"/><path d="M437.895 749.391c-51.574.232-110.131.176-144.25 45.9-15.109 20.246-23.098 44.367-27.793 68.939-4.694 24.553-6.922 50.729-4.139 75.534.581 5.167 5.185-1.171 5.595-3.272 8.476-43.431 5.511-92.043 31.988-129.953 29.943-42.876 90.267-36.107 135.192-45.753 3.636-.778 8.766-11.421 3.407-11.395zm139.388 15.861c24.436-1.926 50.58-.724 73.805 7.707 20.916 7.597 36.881 22.357 50.041 39.867 14.027 18.664 22.295 40.208 30.09 61.986 7.934 22.164 14.34 45.145 18.84 68.242 1.365 7 10.793-4.798 10.111-9.303-7.449-49.224-16.098-98.797-46.693-139.674-13.482-18.014-32.777-31.877-54.156-38.773-27.314-8.811-54.922-3.816-81.186 6.049-.994.376-2.619 4.038-.852 3.899z"/><path d="M302.362 886.936c9.533.84 20.68 4.373 24.879 13.836 3.873 8.728 3.686 19.793 3.488 29.158-.228 10.603-1.801 21.188-2.883 31.725-.814 7.932-3.723 20.825 1.224 27.744 5.155 7.212 12.782-8.92 13.29-12.264 1.469-9.68-.305-20.521-.038-30.4.303-11.235.665-22.51-.768-33.688-1.208-9.424-4.739-17.43-11.648-24.021-7.585-7.23-17.644-6.482-27.09-4.168-.61.15-1.384 1.997-.454 2.078zm64.054-632.623c-25.886 34.37-49.944 70.519-66.892 110.228-8.326 19.509-14.42 39.764-18.455 60.575-2.049 10.555-3.254 21.258-3.98 31.979-.705 10.379-1.982 23.182 2.283 32.892 2.717 6.188 8.107-3.846 8.621-6.477 1.977-10.156 1.495-20.682 1.91-31.001.439-10.909 1.672-21.75 3.469-32.516 3.24-19.42 9.278-38.403 16.814-56.561 15.447-37.224 38.032-70.936 59.545-104.826 2.414-3.803.498-9.357-3.315-4.293zm437.772 210.571c11.072-22.764 19.777-47.667 23.238-72.792 2.998-21.763 2.688-51.055-18.977-63.365-6.725-3.823-12.24 12.05-10.787 16.47 12.467 37.913 13.395 78.602-1.092 116.136-1.07 2.775-3.357 9.239.598 11.083 3.715 1.733 7.789-3.903 8.873-6.666 17.076-43.53 18.609-89.971 4.359-134.54l-10.789 16.469c18.445 10.736 17.537 35.36 15.1 53.785a242.282 242.282 0 0 1-16.289 60.732c-2.733 6.603 2.603 9.19 5.766 2.688zm-446.781 20.507c10.75-23.465 50.367-25.873 55.152 3.141 3.547-3.267 7.096-6.53 10.642-9.795-3.485-20.291-23.396-30.54-42.687-28.963-19.952 1.629-41.014 21.962-35.891 43.173 1.744 7.215 9.666-3.274 10.283-5.994 1.494-6.581 1.742-11.113 7.41-15.194 5.492-3.955 12.866-4.938 19.439-4.925 14.506.024 28.217 8.6 31.073 23.292.782 4.022 5.315 1.625 6.924-.143 2.732-2.994 4.241-7.243 3.447-11.247-3.44-17.359-17.241-27.719-34.89-25.622-16.974 2.016-30.229 15.739-35.429 31.416-1.544 4.662 2.89 4.431 4.527.861zm-29.606-49.735c9.852-9.508 23.168-13.328 36.183-16.338 13.44-3.109 27.796-3.596 41.346-.953 17.229 3.36 28.251-35.906 13.54-35.52-36.748.968-74.28 12.289-95.188 44.615-2.785 4.306-2.391 14.479 4.119 8.196zm387.56.08c-8.154-14.564-21.412-26.896-37.02-33.018-15.201-5.963-32.48-8.516-48.744-8.973-15.736-.441-23.625 38.4-10.768 36.051 15.564-2.846 31.131-2.88 46.621.564 14.898 3.311 30.051 7.403 41.998 17.389 5.157 4.31 10.167-7.988 7.913-12.013zM608.617 232.972c13.852 13.34 24.336 30.591 35.074 46.401 14.621 21.524 28.809 43.406 45.119 63.705 14.422 17.95 30.299 35.73 49.76 48.346 14.605 9.465 34.814 15.304 49.402 2.804 1.936-1.657 8.426-13.703 1.807-13.288-7.242.452-13.838 1.73-21.18.867-8.705-1.028-17.066-5.563-24.365-10.146-19.484-12.233-35.283-30.428-49.928-47.892-15.82-18.867-31.041-38.183-46.334-57.479-10.951-13.821-21.986-28.474-35.926-39.47-1.831-1.445-5.05 4.59-3.429 6.152z"/><path d="M411.924 216.403c8.051-7.744 18.691-15.776 30.527-12.73 9.611 2.474 15.729 11.718 20.535 19.673 12.623 20.893 18.096 45.766 24.354 69.09 6.916 25.785 16.768 48.837 34.466 69.446 11.746 13.676 26.637 25.27 42.812 33.222 16.635 8.177 37.172 14.99 55.811 11.991 2.01-.324 5.352-5.736 2.629-6.895-8.654-3.682-17.92-5.403-26.963-7.954-9.588-2.706-18.807-6.589-27.631-11.184-17.889-9.316-33.145-21.931-45.709-37.707-17.227-21.628-23.532-45.148-31.272-70.823-6.663-22.101-13.865-48.033-30.247-65.13-16.559-17.278-35.812-7.91-49.823 7.371-.633.695-.688 2.783.511 1.63z"/><path d="M616.756 405.213c-15.957-23.16-34.822-44.797-47.953-69.776l-3.645 5.532c30.441 27.694 66.605 49.057 106.215 60.609 37.678 10.985 84.707 12.41 121.09-3.894 2.463-1.104 6.619-11.048 2.225-10.183-19.799 3.905-38.596 9.028-58.934 9.821-19.969.781-39.91-1.961-59.275-6.694-39.9-9.754-75.463-31.132-108.062-55.506-2.059-1.54-4.18 4.331-3.258 5.846 14.594 23.93 32.334 44.927 50.137 66.461.714.868 1.981-1.461 1.46-2.216z"/><path d="M542.199 214.175c22.498 12.128 39.387 33.003 54.02 53.475 16.715 23.385 31.053 48.372 47.268 72.096 14.789 21.638 31.758 42.643 55.102 55.377 11.498 6.273 24.113 10.069 37.188 10.743 13.922.717 32.014-.52 43.906-8.37 1.414-.934 5.105-7.592 1.873-8.428-6.475-1.672-13.736.286-20.357.537-6.746.256-13.5-.286-20.158-1.36-12.363-1.99-24.445-6.146-35.422-12.133-23.008-12.552-41.518-32.185-57.857-52.3-31.193-38.404-56.396-91.561-105.127-110.563-.358-.139-.772.744-.436.926z"/><path fill="#08B5F9" d="M680.633 877.816c.146-.293.27-.575.422-.869.703-1.363 1.529-7.188-1.803-5.575a56.83 56.83 0 0 0-2.582 1.354 3.671 3.671 0 0 0-1.441-.246c-.723.05-1.445.102-2.17.154-3.715.262-6.121 3.783-7.396 7.477-2.973 2.266-5.898 4.613-8.938 6.885-1.57 1.174-2.811 6.846.262 4.908 2.559-1.615 5.047-3.344 7.572-4.988.096 2.607.803 5.094 1.818 7.52-8.709 30.988 7.668 65.275 12.158 96.609 2.1 14.637 15.689-2.623 16.455-9.629 3.826-35.061 3.789-72.344-14.357-103.6zm-191.832-10.427c-18.957.981-37.264-8.9-50.682-21.598-6.301-5.961-11.527-12.99-16.065-20.353-4.616-7.491-6.54-16.913-11.841-23.843-.757-.958-1.744-1.42-2.964-1.383-.651.092-1.255.242-1.833.422-.692-3.635-1.203-7.246-1.45-10.801-.422-6.084-6.351 1.918-6.475 4.865-.195 4.658.046 9.354.542 14.047-1.846 5.814-1.193 13.27.134 18.113 1.427 5.203 3.696 10.273 6.416 15.13 3.94 15.208 9.243 30.054 17.125 43.711 6.522 11.306 16.122 23.288 29.776 25.472 16.828 2.687 30.457-13.016 38.285-25.787 1.962-3.198 7.845-18.45-.968-17.995z"/><path d="M406.706 788.715c-1.469 22.102 6.954 42.43 22.209 58.28 13.823 14.361 40.751 27.913 60.982 22.937 2.971-.732 7.85-10.346 3.549-11.771-9.142-3.03-18.98-3.067-28.234-6.065-9.383-3.039-18.087-7.936-25.969-13.807-17.152-12.777-28.391-30.342-28.023-52.211.064-3.836-4.376.571-4.514 2.637zm241.583 103.086c2.375 8.195 6.029 15.867 8.957 23.881 3.521 9.641 5.43 19.773 7.346 29.825 3.902 20.485 5.43 41.409 8.494 62.029.15 1.021.404 3.21 1.797 3.502.41.087.822.171 1.23.259 2.559.535 4.643-1.99 5.531-4.155 3.703-9.034.381-19.597-.789-29.044-1.445-11.671-3.373-23.281-5.674-34.814-2.271-11.385-5.455-22.512-9.961-33.219-3.326-7.906-7.529-16.627-16.199-19.381-.496-.161-.837.752-.732 1.117z"/><path d="M684.537 861.152c-13.449 4.924-25.096 12.822-34.191 23.932-1.518 1.852-2.955 4.652-2.184 7.123.986 3.164 4.16.285 5.193-1.135 7.824-10.775 18.367-18.532 30.393-24.069 1.84-.847 3.803-6.954.789-5.851zM372.828 248.79c-29.532 29.578-49.173 67.132-63.646 105.961-15.693 42.113-25.057 86.971-28.537 131.74-6.046 77.87 11.241 159.032 65.607 217.616 54.219 58.428 137.802 80.633 215.226 67.914 71.932-11.816 131.705-57.764 167.584-120.422 43.865-76.605 53.561-172.042 27.4-256.13-2.033-6.541-9.391 5.239-8.504 9.338 15.443 71.384 12.332 148.584-18.111 215.678-29.066 64.063-85.191 110.944-154.275 125.718-77.63 16.602-162.935-4.648-218.216-62.861-55.918-58.885-69.805-141.887-62.643-220.149 3.471-37.942 11.775-75.441 24.416-111.373 12.48-35.465 29.885-70.419 55.09-98.589 1.701-1.901 1.814-7.652-1.391-4.441z"/></svg>