<svg xmlns="http://www.w3.org/2000/svg" xmlns:xlink="http://www.w3.org/1999/xlink" width="1030" height="1030" viewBox="0 0 1030 1030"><defs><path id="a" d="M1020.379 515.001c0 279.115-226.266 505.377-505.379 505.377-279.111 0-505.377-226.264-505.377-505.377S235.888 9.622 515 9.622c279.113 0 505.379 226.266 505.379 505.379z"/></defs><use xlink:href="#a" overflow="visible" fill="#0C7FF2"/><clipPath id="b"><use xlink:href="#a" overflow="visible"/></clipPath><g clip-path="url(#b)"><circle fill="#22A1FF" cx="516.036" cy="517.213" r="505.378"/><path fill="#0C7FF2" d="M64.591 301.339c65.699-60.767 147.473-101.363 226.168-142.394 40.814-21.281 80.746-43.73 120.539-66.854 43.205-25.11 87.469-49.598 136.053-62.561-.955-12.573-1.91-25.146-2.863-37.722C469.49 62.96 382.009 118.799 296.63 176.392c-43.967 29.658-87.432 59.996-129.213 92.682-20.033 15.672-39.123 32.311-60.043 46.828-21.764 15.1-44.412 28.884-66.553 43.409-20.463 13.421-40.42 27.7-58.93 43.736-7.094 6.145-11.697 17.171-10.986 26.521.547 7.209 5.93 13.974 13.848 11.2 98.168-34.394 184.332-95.652 268.734-154.941 42.164-29.617 84.252-59.421 128.115-86.495 19.998-12.341 40.242-24.097 59.857-37.073 21.045-13.919 41.816-28.239 62.965-42.001 37.358-24.313 76.481-48.122 120.034-59.315l-6.715-33.351c-3.625 4.497-11.992 11.267-18.965 15.919-10 6.67-20.648 12.364-31.156 18.178-23.027 12.742-45.092 27.219-67.553 40.936-51.305 31.332-102.533 62.797-153.852 94.112-51.111 31.188-102.326 62.211-153.791 92.816-45.84 27.263-92.238 53.613-137.738 81.449-57.197 34.991-113.604 73.15-161.328 120.578-6.828 6.784-11.732 16.688-10.986 26.521.559 7.365 5.898 13.78 13.85 11.198 51.945-16.859 99.75-43.608 147.504-69.638 50.273-27.404 102.162-51.78 153.584-76.934 106.725-52.204 213.545-104.201 320.028-156.899 43.588-21.572 87.408-42.348 128.738-68.076 36.969-23.018 73.674-48.996 115.463-62.538-.955-12.575-1.908-25.146-2.865-37.721-32.514 34.457-76.607 55.146-117.219 78.288-50.043 28.516-97.459 62.321-145.696 93.778-48.672 31.741-97.557 62.7-143.461 98.404-36.26 28.201-71.637 58.477-113.41 78.263C166.968 440.29 75.417 461.753 37.56 541.29c-3.076 6.463-5.365 14.316-2.91 21.401 1.744 5.04 7.496 9.095 12.934 6.589 100.086-46.102 193.518-104.332 287.449-161.587 46.518-28.354 93.289-56.325 141.229-82.228 49.124-26.541 100.223-49.029 149.866-74.543 51.182-26.305 101.262-54.686 151.102-83.427-.984-12.997-1.971-25.993-2.959-38.989-89.506 66.279-184.818 124.035-280.237 181.279-95.316 57.186-189.701 115.122-280.916 178.699C148.345 533.63 70.7 560.08 20.878 624.456c-8.809 11.384-11.102 42.221 10.986 31.382 208.225-102.161 408.939-218.58 611.709-330.955 81.107-44.949 162.6-89.213 245.033-131.684l-2.959-38.989C684.77 269.934 489.943 395.938 300.087 528.915 223.16 582.794 147.083 637.887 71.74 693.958c-9.188 6.835-16.062 17.88-15.16 29.76.734 9.699 9.59 15.234 18.119 9.229 43.633-30.724 91.014-55.527 138.016-80.599 48.867-26.063 96.422-53.966 143.455-83.206 97.824-60.818 193.596-125.836 295.819-179.224 79.945-41.755 155.398-91.653 236.617-131.035l-7.131-35.752C726.443 362.758 545.963 469.948 368.333 577.764c-93.445 56.721-186.838 113.71-276.602 176.167-9.32 6.483-16.045 18.146-15.162 29.758.801 10.539 9.316 14.158 18.121 9.23 202.516-113.372 408.092-221.234 609.108-337.292 82.609-47.694 164.387-96.848 244.781-148.196-3.662-10.461-7.324-20.92-10.984-31.381-4.996 7.511-10.377 14.716-16.098 21.688-5.041 6.146-10.836 12.267-18.375 19.708-14.123 13.939-29.66 26.809-45.09 38.273-35.396 26.297-73.572 48.73-112.08 70.107-37.449 20.789-75.582 40.312-113.117 60.945-42.605 23.422-83.598 49.658-124.551 75.827-65.34 41.753-130.41 84.796-198.977 121.15-60.084 31.858-124.109 59.162-173.205 107.688-6.838 6.763-11.73 16.707-10.986 26.522.623 8.163 5.797 12.765 13.852 11.198 27.105-5.267 51.928-18.041 75.645-31.759 24.854-14.379 49.684-28.81 74.537-43.192a10595.979 10595.979 0 0 0 152.23-89.771c49.531-29.772 100.038-57.95 150.668-85.822 50.375-27.729 102.131-51.93 153.662-77.322 67.275-33.148 131.119-72.729 197.158-108.185l-10.984-31.383c-5.504 7.192-9.135 10.836-17.041 18.057-7.75 7.076-15.977 13.312-24.516 19.367-18.807 13.338-38.713 25.094-58.617 36.699-43.184 25.18-85.117 51.793-126.223 80.276-91.951 63.715-180.732 131.845-272.467 195.851-62.605 43.68-127.018 85.396-195.645 119.062l2.959 38.99c48.338-27.513 98.725-51.109 148.234-76.384 25.086-12.807 49.887-26.168 74.098-40.571 24.189-14.391 46.895-30.896 69.809-47.201 23.254-16.545 46.578-32.993 70.564-48.466 23.51-15.167 48.086-28.535 72.547-42.078 48.809-27.02 97.928-53.479 146.338-81.21 61.396-35.17 121.518-72.686 178.059-115.307-3.662-10.461-7.324-20.922-10.984-31.382-59.982 69.826-146.119 119.632-225.498 166.939-91.051 54.269-181.006 110.706-269.409 169.204-41.195 27.26-81.383 55.869-121.203 85.092-39.395 28.913-78.959 57.731-121.234 82.347-9.594 5.584-15.99 18.821-15.16 29.759.842 11.066 9.201 13.475 18.119 9.23 100.961-48.053 196.105-107.057 291.247-165.518 47.797-29.37 95.674-58.625 144.385-86.46 47.674-27.237 96.568-52.016 145.609-76.669 75.025-37.713 150.203-76.055 218.389-125.428-2.375-11.916-4.754-23.834-7.131-35.751-33.609 33.213-76.088 55.599-117.895 76.72a4040.338 4040.338 0 0 0-133.637 70.689C696.284 642.5 596.454 696.587 500.194 756.758c-39.695 24.813-79.178 50.248-116.168 78.982-32.521 25.263-64.553 53.299-102.398 70.431-8.953 4.054-15.02 11.32-17.994 20.765-1.854 5.884-3.031 24.237 8.273 22.726 45.449-6.074 87.678-22.926 128.725-42.8 43.947-21.275 85.809-46.649 127.571-71.857 92.4-55.778 188.994-103.604 284.82-153.169 30.955-16.012 61.799-31.989 92.061-49.282 29.732-16.989 59.461-33.979 89.189-50.968 9.617-5.496 15.986-18.892 15.16-29.759-.803-10.575-9.309-14.111-18.121-9.229-104.188 57.711-206.854 118.117-308.766 179.746-51.145 30.929-102.088 62.187-152.947 93.583-44.668 27.573-85.542 60.625-129.553 89.188-21.203 13.757-43.262 26.518-67.016 35.328-.436 13.653-.871 27.306-1.309 40.958C503.589 874.062 701.895 821 881.025 728.062c47.312-24.547 93.094-52.107 136.094-83.643 9.217-6.758 16.059-17.938 15.16-29.76-.76-9.986-9.484-14.867-18.119-9.229-189.895 124.01-375.484 255.294-574.295 364.989a2771.17 2771.17 0 0 1-59.695 31.968l7.133 35.753c73.348-58.31 162.889-92.968 248.28-129.313 44.957-19.136 89.818-38.741 132.914-61.835 22.314-11.959 44.49-24.162 66.002-37.533 23.461-14.584 46.564-29.751 71.244-42.24l-14.291-26.021c-3.254 5.631 2.838-4.268-.768 1.271-1.092 1.673-2.266 3.292-3.438 4.908-1.197 1.657-2.473 3.257-3.742 4.856-.225.285-4.666 5.495-1.594 2.025-6.42 7.245-13.553 13.844-20.877 20.158-14.344 12.364-31.18 23.663-48.141 34.454-35.631 22.667-73.098 42.25-109.025 64.42-39.857 24.595-76.527 54.362-114.17 82.133-42.475 31.335-86.008 61.829-133.524 85.104-8.504 4.165-17.229 7.841-26.043 11.295.955 12.572 1.908 25.146 2.865 37.721 61.736-53.27 143.856-80.491 220.313-108.335 80.787-29.419 162.883-61.466 226.771-120.972 7.469-6.955 14.518-14.354 21.268-22.004 7.162-8.118 13.979-19.857 10.07-31.133-3.469-10.01-15.477-8.066-21.375-1.381-114.23 129.438-307.65 132.047-443.067 231.178a405.272 405.272 0 0 0-25.289 20.133c-7.098 6.125-11.693 17.185-10.986 26.522.529 6.965 5.992 14.28 13.852 11.197 97.135-38.068 176.129-109.005 260.493-168.247 66.982-47.033 147.926-76.376 205.264-136.568 10.398-10.916 19.23-22.635 26.766-35.684 7.102-12.287 4.061-35.306-14.291-26.021-23.682 11.983-45.959 26.396-68.42 40.475-22.416 14.05-45.568 26.728-68.83 39.299-42.02 22.706-85.975 41.566-129.891 60.243-90.248 38.378-182.229 75.838-259.649 137.379-7.225 5.744-11.672 17.469-10.984 26.521.818 10.785 9.258 13.842 18.119 9.23C584.75 936.47 771.74 806.556 960.965 681.343a11124.478 11124.478 0 0 1 56.154-36.924l-2.959-38.989C850.09 725.749 651.65 782.421 469.115 867.284c-48.148 22.383-95.299 46.992-140.352 75.131-8.23 5.139-13.766 14.978-14.994 24.479-1.041 8.054 3.029 20.431 13.686 16.479 48.654-18.046 91.17-48.993 132.91-79.128 45.078-32.542 91.93-61.576 139.313-90.626 101.836-62.436 204.242-123.967 307.943-183.265a7368.069 7368.069 0 0 1 86.652-48.766c-.986-12.996-1.973-25.993-2.961-38.988-51.545 29.457-102.699 59.619-155.438 86.898-53.777 27.817-107.557 55.633-161.336 83.449-43.93 22.723-87.301 45.755-129.695 71.245-41.772 25.118-83.297 50.7-126.524 73.278-41.221 21.529-86.023 41.922-132.549 48.141-3.242 14.498-6.48 28.993-9.721 43.49 47.463-21.483 85.908-55.805 127.178-86.811 44.623-33.523 92.953-62.742 140.678-91.576 96.973-58.587 197.006-111.868 295.912-167.064 73.6-41.076 157.643-70.725 218.6-130.964 6.842-6.76 11.732-16.708 10.988-26.521-.729-9.591-9.637-15.373-18.121-9.229-88.588 64.145-188.59 109.527-285.451 159.373-99.426 51.166-193.672 111.625-289.092 169.731-73.314 44.644-147.525 88.053-225.086 124.969l2.959 38.989c49.188-28.641 94.676-62.945 140.545-96.504 46.477-34 94.137-66.235 142.512-97.467 87.035-56.191 175.35-110.046 263.912-163.752 74.689-45.295 149.064-94.295 206.426-161.075 5.668-6.597 9.145-18.316 6.217-26.761-2.553-7.37-11.105-9.217-17.203-4.62-89.627 67.563-188.064 121.632-286.238 175.511-49.328 27.073-98.404 53.916-144.787 85.881-23.354 16.091-46.291 32.776-69.502 49.068-23.09 16.205-47.426 30.418-72.158 43.965-61.564 33.727-125.93 62.054-186.961 96.791-9.621 5.477-15.982 18.906-15.16 29.76.834 10.973 9.219 13.596 18.119 9.23 98.893-48.512 189.043-113.175 277.803-177.872 89.326-65.108 177.654-132.874 271.783-191.008 55.475-34.265 120.367-62.552 160.973-115.647 5.391-7.048 9.266-17.969 6.219-26.763-2.84-8.196-10.652-8.139-17.203-4.62-49.32 26.479-97.432 55.121-146.602 81.871-49.906 27.152-102.033 49.65-152.422 75.84C537.59 565.519 438.343 626.223 337.974 685.06a11425.55 11425.55 0 0 1-97.148 56.283c-30.902 17.713-60.723 37.979-96.279 44.889.955 12.572 1.908 25.146 2.865 37.721 33.756-33.367 76.162-55.738 118.041-77.181 45.688-23.39 90.238-48.038 134.127-74.68 87.6-53.175 171.682-111.858 262.073-160.353 54.957-29.484 110.543-57.98 162.961-91.898 49.711-32.166 98.854-70.181 131.992-120.016 5.023-7.557 9.406-17.564 6.219-26.762-2.701-7.791-10.855-8.675-17.203-4.621-195.874 125.101-399.876 236.655-603.808 347.893-83.529 45.561-167.061 91.117-250.082 137.596.984 12.996 1.971 25.992 2.959 38.988C265.64 673.978 449.087 574.513 622.932 460.024c94.264-62.08 185.904-128.777 269.848-204.379 7.025-6.327 11.707-17.035 10.988-26.521-.836-11.01-9.213-13.55-18.121-9.23-51.248 24.849-100.295 53.832-149.523 82.396-49.637 28.8-100.666 55.019-150.332 83.749-99.657 57.645-195.211 122.086-293.78 181.536-72.496 43.724-150.875 77.517-220.271 126.384l2.959 38.988c185.014-137.684 374.572-269.338 569.659-392.373 80.436-50.727 161.85-99.902 244.248-147.373 9.607-5.535 15.988-18.861 15.162-29.76-.822-10.815-9.252-13.799-18.121-9.229-206.177 106.22-406.215 223.748-609.963 334.452-81.457 44.258-163.553 87.353-246.781 128.186 3.66 10.463 7.322 20.923 10.984 31.383 25.775-33.308 66.303-56.533 103.787-77.647 19.877-11.199 39.891-22.157 59.18-34.356 21.949-13.881 42.736-29.654 64.246-44.203 92.357-62.464 188.979-118.262 284.292-176.013 77.074-46.703 153.373-94.857 225.836-148.517 9.199-6.81 16.062-17.9 15.162-29.76-.793-10.436-9.346-14.29-18.121-9.229-48.863 28.18-97.979 55.93-148.078 81.867-49.613 25.688-100.764 48.179-150.026 74.562-96.332 51.593-187.564 112.021-281.984 166.92-45.945 26.715-92.725 52.251-141.018 74.497l10.023 27.99c.941-1.981 1.92-3.936 2.938-5.881.277-.53 3.928-6.72 1.068-2.127 2.277-3.657 4.846-7.124 7.492-10.519.168-.216 4.738-5.591 1.715-2.197 1.438-1.612 2.949-3.157 4.457-4.703 3.551-3.637 7.363-7.009 11.246-10.285 4.773-4.025 12.174-9.079 19.404-13.619 8.459-5.309 17.279-10.026 26.193-14.511 34.469-17.342 71.242-29.699 106.113-46.215 43.148-20.439 79.836-52.666 117.23-81.818 44.834-34.949 93.141-64.874 140.711-95.896 48.038-31.33 95.284-64.804 145.125-93.205 42.926-24.461 88.732-46.937 123.102-83.359 6.684-7.084 11.75-16.467 10.986-26.521-.559-7.366-5.896-13.776-13.85-11.199-49.908 16.174-93.238 47.806-137.6 74.86-48.914 29.833-102.049 53.269-153.393 78.592-106.676 52.613-213.65 104.618-320.469 156.94-43.396 21.257-86.617 42.541-129.029 65.714-40.359 22.048-80.934 43.731-124.822 57.979.953 12.574 1.908 25.146 2.863 37.722 72.18-71.732 163.498-120.634 250.486-171.761 103.367-60.754 205.49-123.592 307.752-186.184 31.838-19.49 63.288-39.892 95.543-58.647 28.137-16.359 57.43-30.229 78.303-56.136 6.779-8.413 13.279-38.49-6.717-33.35-47.429 12.188-90.466 38.452-131.14 64.922-21.107 13.74-41.834 28.054-62.84 41.949-19.621 12.977-39.934 24.667-59.938 37.012-88.902 54.875-170.566 120.623-260.033 174.661-39.996 24.157-81.582 45.802-125.748 61.278l2.863 37.721c39.104-33.88 85.59-57.931 127.51-87.985 21.174-15.182 40.629-32.546 61.215-48.488 20.629-15.977 41.773-31.276 63.117-46.279 86.076-60.504 176.02-115.53 257.793-181.999 18.233-14.82 35.915-30.312 52.961-46.484 6.924-6.571 11.721-16.852 10.986-26.521-.586-7.715-5.842-13.337-13.852-11.199C503.627-.24 458.109 24.438 414.135 49.748c-40.959 23.574-81.777 46.956-123.684 68.825-82.873 43.245-167.969 86.252-237.164 150.254-7.75 7.166-13.725 20.591-10.072 31.133 3.689 10.637 15.031 7.252 21.376 1.379z"/></g><path fill="#EAA286" d="M303.568 486.307c-10.717-10.197-26.867-23.721-42.945-17.281-18.066 7.236-27.65 27.535-29.242 46.016-1.947 22.641 7.359 67.253 39.455 58.263 13.164-3.688 23.676-15.648 31.279-26.316 5.281-7.406 10.744-20.925 4.072-29.257-6.641-8.288-17.977.284-22.342 6.409a101.41 101.41 0 0 1-4.078 5.351c-2.588 3.155 3.727-4.083 1.061-1.213a51.435 51.435 0 0 1-1.938 1.942c-.613.592-1.258 1.147-1.9 1.7-2.584 2.224 4.203-3.113 1.535-1.206-1.129.809-2.338 1.492-3.578 2.111 5.744-2.865 1.893-.914.141-.488-2.434.591 4.266-.447 1.822-.215-.52.051-1.043.042-1.564.031-1.529-.028-5.1-1.182.17.351-1.131-.329-2.193-.863-3.207-1.451-3.279-1.899.312.484-.025.181-.83-.738-1.57-1.574-2.281-2.425-.756-.898-1.424-1.868-2.064-2.85-.334-.512-.641-1.04-.947-1.566-1.26-2.167 2.055 4.071.455.743-1.148-2.392-2.033-4.906-2.795-7.446a59.676 59.676 0 0 1-1.02-3.997c-.654-2.902.871 4.639.346 1.706a65.601 65.601 0 0 1-.418-2.755c-.369-2.733-.52-5.494-.52-8.249 0-3.115-.229 5.476-.082 2.389.033-.661.09-1.319.146-1.978.107-1.277.295-2.549.512-3.814.73-4.287-1.705 6.345-.24 1.309.164-.562.355-1.112.551-1.66 1.064-3.018-2.74 6.399-1.441 3.516 2.186-4.869-2.117 3.064-1.332 1.911 2.703-3.979-4.58 4.356-1.043 1.239-5.018 4.42-3.953 2.946-2.455 1.972 1.197-.774 3.594-1.671-2.393 1.005.91-.407 1.885-.646 2.859-.825-5.621 1.042-1.949.293-.189.423.598.044 1.189.147 1.777.251 2.281.395-3.971-1.24-.471-.099 3.094 1.009 5.965 2.659 8.688 4.411 1.709 1.102 3.332 2.331 4.932 3.583-2.957-2.313.137.142.604.548 1.264 1.098 2.48 2.246 3.693 3.4 7.643 7.272 17.182.565 22.342-6.408 4.714-6.378 11.531-22.162 4.07-29.262zm504.26 9.15c-.9-3.895-2.301-7.559-4.098-10.998.824-5.068.266-10.144-2.713-13.862-3.057-3.814-6.891-4.097-10.619-2.73-5.9-5.191-12.707-9.452-19.656-12.754-11.289-5.362-23.939 10.234-26.518 23.883-3.969 3.839-7.418 7.818-10.068 11.103-5.656 7.013-10.506 21.225-4.072 29.258 6.838 8.537 17.672-.617 22.344-6.408.25-.311.955-1.117 1.52-1.762a61.88 61.88 0 0 1 2.443-2.363c.057 1.566.248 3.045.596 4.376.568 2.169.691 2.892.893 4.746-.75.405-1.646.827-2.916 1.504-5.203 2.772-10.545 9.741-13.266 17.234-12.865 10.517-19.973 38.382-3.633 38.382 5.676 0 11.1-4.219 15.236-9.989 10.068 6.678 21.861 7.93 32.041-3.486a61.137 61.137 0 0 0 9.881-15.092c10.748-14.717 16.853-32.643 12.605-51.042zm-49.685 24.529a8.891 8.891 0 0 0-.168.455c.053-.16.107-.319.162-.477l.006.022z"/><path fill="#FF8A0B" d="M745.609 929.069c-7.629-30.812-20.393-60.478-38.004-86.495a204.905 204.905 0 0 0-3.941-7.643c-.188-5.781-2.01-10.892-6.824-11.72-4.352-6.992-9.025-13.711-13.84-20.096-25.324-33.573-59.381-55.738-100.721-63.996-42.461-8.484-86.887-1.49-128.918 6.129-37.562 6.808-78.031 11.34-109.496 34.885-11.059 8.273-19.961 18.053-27.273 28.865-5.086 5.037-9.83 10.463-14.152 16.312a128.1 128.1 0 0 0-2.506 3.521c-8.996 10.994-17.662 22.282-26.658 33.113-5.744 6.916-10.449 21.297-4.072 29.26 1.9 2.373 4.094 3.377 6.373 3.475-1.137 8.231-1.748 16.558-1.904 24.889-1.756 3.139-2.686 6.75-2.045 9.564-2.861 5.09-3.75 11.771.396 14.58.877.594 1.76 1.173 2.645 1.754.783 3.519 3.008 4.277 5.523 3.527.381.234.764.467 1.146.699 1.432 2.938 4.045 4.875 8.307 4.857 10.227 5.717 20.838 10.725 31.715 15.14-.021.851-.016 1.708.051 2.579.584 7.699 5.582 12.455 13.311 10.764a162.521 162.521 0 0 0 13.697-3.651c18.309 5.759 37.055 10.204 55.709 13.851 41.217 8.058 84.066 11.97 126.014 13.143 51.32 1.434 132.312-4 170.959-45.34a542.075 542.075 0 0 0 35.613-14.502c6.477-2.905 10.641-10.411 8.895-17.464zm-44.689-17.933a88.125 88.125 0 0 0 5.738-9.197c.277 2.467.445 4.938.496 7.404-2.086.572-4.164 1.17-6.234 1.793zm-372.995 29.848c9.295-5.016 18.199-10.811 26.695-16.593 1.303-.888 2.586-1.802 3.879-2.703-8.432 6.827-16.418 14.12-23.756 22.04a186.46 186.46 0 0 1-6.818-2.744zm201.243-169.813c-9.5 4.27-18.768 9.1-27.852 14.217 3.691-4.166 6.557-8.989 8.078-14.32 6.6-.104 13.196-.092 19.774.103zm69.557 11.834c-10.166 6.316-20.48 12.383-30.836 18.375 3.719-6.828 6.879-14.01 9.33-21.607.289-.895.531-1.847.725-2.834 6.995 1.601 13.929 3.599 20.781 6.066zM299.542 894.724c1.896-.884 3.771-1.8 5.639-2.732a185.42 185.42 0 0 0-7.309 9.8c.51-2.34 1.025-4.677 1.549-7.013.041-.02.082-.038.121-.055zm115.211-15.307c20.561-15.281 42.895-28.219 64.605-41.779 13.65-8.528 27.514-16.783 41.967-23.715a308.922 308.922 0 0 1-3.846 3.396c-8.895 7.723-15.971 12.761-26.596 20.033-11.242 7.695-22.824 14.889-34.457 21.977-24.08 14.671-49.986 28.613-74.027 44.803 10.79-8.236 21.466-16.623 32.354-24.715zm107.952-10.877c-14.885 10.081-30.188 19.504-45.575 28.786 19.793-14.927 40.229-27.831 61.79-40.097a657.46 657.46 0 0 1-16.215 11.311zm-58.539 85.695c-3.984 2.74-7.447 6.518-9.996 10.84a871.373 871.373 0 0 1-12.416-.896 5528.464 5528.464 0 0 0 22.412-9.944zm225.135-84.892a150.402 150.402 0 0 0 5.195-7.761c.613 1.359 1.209 2.72 1.787 4.082a332.187 332.187 0 0 0-6.982 3.679zm-41.719-26.776a460.483 460.483 0 0 0 10.574-12.765c1.682-2.105 3.186-4.634 4.369-7.368a204.285 204.285 0 0 1 9.039 9.035 397.597 397.597 0 0 0-23.982 11.098zm-7.445-38.222c-6.943 4.646-13.498 9.792-19.904 15.131 4.422-6.489 8.453-13.243 12.02-20.281a182.34 182.34 0 0 1 7.884 5.15zM517.85 962.287a181.003 181.003 0 0 0-5.149 5.391c-1.086-.028-2.17-.062-3.254-.094a881.894 881.894 0 0 0 8.403-5.297z"/><path fill="#FFE5B8" d="M567.672 732.689a39.913 39.913 0 0 0-2.402-1.009c-1.215-4.109-2.932-8.208-5.166-12.314-5.24-9.625-18.803 1.625-22.344 6.409a39.38 39.38 0 0 0-2.043 3.058c-7.793.779-15.461 2.385-22.278 4.076-15.137 3.757-31.078 13.125-38.516 26.74a89.233 89.233 0 0 0-.664-.709c-1.383-1.464-2.551-3.107-3.643-4.795.713 1.043-.988-2.014-1.127-2.344-.59-1.382-1.01-2.826-1.434-4.263-.068-.233-.127-.427-.18-.603a28.838 28.838 0 0 0-.148-1.203c-.232-1.686-.287-3.395-.348-5.094-.006-.196-.014-.371-.02-.531.051-.312.117-.859.199-1.754.184-1.996.541-3.975.895-5.945 1.484-8.326-3.152-18.876-13.154-15.838-10.672 3.242-16.705 15.285-18.512 25.419-3.098 17.376-1.525 36.002 9.289 50.516 8.936 11.991 24.123 17.575 38.51 18.889 13.746 1.257 27.354-1.556 39.739-7.277a50.668 50.668 0 0 0 5.617-2.028c12.184-5.268 22.664-14.391 29.301-25.908 4.113-5.305 7.639-11.014 10.439-16.995 3.211-6.859 7.617-22.039-2.01-26.497z"/><path d="M297.384 481.979c-15.307-10.062-36.66-19.109-53.354-6.808-13.484 9.937-17.131 29.125-16.16 44.821 1.035 16.752 7.779 34.886 21.021 45.765 14.666 12.049 37.246 10.916 50.521-2.801 1.113-1.151 4.881-10.044.439-9.302-8.117 1.357-14.963 5.97-23.416 6.454-6.867.393-13.35-1.814-19.055-5.527-11.896-7.749-18.625-22.879-20.832-36.438-1.82-11.186-1.529-25.993 7.973-33.86 13.928-11.536 35.77-1.613 49.287 5.362 2.779 1.431 6.205-5.937 3.576-7.666zm447.413-.096c12.037-7.13 29.996-14.012 42.355-3.595 10.039 8.46 12.197 23.799 12.057 36.116-.146 12.921-3.826 27.33-12.611 37.133-11.293 12.603-25.033 7.94-39.047 4.155-4.264-1.15-9.857 8.635-6.406 11.499 14.482 12.028 34.537 7.998 47.131-4.399 12.898-12.698 18.801-32.566 19.762-50.194.834-15.236-1.547-34.068-14.418-44.165-15.945-12.509-35.928.108-48.963 10.831-.768.63-1.571 3.633.14 2.619z"/><path fill="#D8724A" d="M394.582 719.886l-.004.005z"/><path fill="#FFE5B8" d="M772.818 387.758c-2.865-3.259-7.014-4.273-11.662-2.798l-1.729.55.002-.099-.369.217c-13.92 4.446-22.904 3.678-31.729 2.021 1.703-5.6 3.01-11.367 3.986-17.214.809-.024 1.65-.291 2.383-.743 3.166-1.951 4.932-5.89 4.85-9.517-.402-17.872-2.695-35.717-7.51-52.745-1.518-7.215-3.82-14.24-7.27-20.536-5.01-11.619-11.441-22.653-19.537-32.806-20.926-26.237-52.035-42.343-83.926-50.96-17.811-4.812-36.094-7.515-54.482-8.794-21.445-1.492-43.055-1.262-64.243 2.634a151.98 151.98 0 0 0-8.67 1.868c-29.07 1.049-57.883 6.726-84.23 19.577a140.974 140.974 0 0 0-7.25 3.809c-13.303 5.014-26.24 10.936-38.469 18.042-16.658 9.683-32.52 22.453-41.713 39.716-6.672 12.529-8.043 26.435-4.779 39.668-2.885 12.402-2.713 25.359.734 37.874-10.803 7.567-21.182 15.815-30.949 24.976-5.814 5.456-9.904 13.48-10.936 21.466-.467 3.614-.238 10.894 3.582 15.239 1.898 2.159 4.445 3.225 7.4 3.105 9.375-.426 19.029-1.566 29.211-3.463-8.17 4.044-15.574 8.256-22.393 12.729-8.076 5.299-13.895 14.786-15.184 24.763-.576 4.452.002 11.074 3.525 15.083 1.875 2.134 4.412 3.263 7.383 3.263 18.326-.076 37.535-1.63 58.371-4.738-23.752 10.226-48.41 21.438-72.322 34.89-9 5.061-14.162 16.114-15.287 24.825-.744 5.764.568 11.205 3.51 14.553 2.811 3.199 6.977 4.348 11.777 3.205 19.59-4.646 36.783-8.868 52.574-12.923-3.799 1.623-7.66 3.286-11.521 4.97l-1.016.251-.031.223c-10.037 4.772-17.145 14.788-18.645 26.382-.744 5.771.562 11.227 3.521 14.592 2.818 3.205 6.955 4.34 11.742 3.164l2.059-.516c-.426.219-.941.438-1.363.658l-.393.052v.056c0 .553-1.949 1.105-3.018 1.657-8.531 4.415-13.988 15.843-15.154 24.854-.744 5.775.582 11.243 3.557 14.625 2.82 3.212 6.979 4.333 11.756 3.128a740.46 740.46 0 0 0 30.449-8.406c-7.297 7.102-13.689 22.267-11.203 31.779 1.637 6.261 6.865 9.2 14.615 8.086a412.018 412.018 0 0 0 21.639-3.709c-2.811 4.422-4.674 9.515-5.348 14.727-.555 4.291.107 10.793 3.797 14.99 2.875 3.27 7.02 4.26 11.639 2.727 3.301-1.098 6.604-2.193 9.908-3.279-3.744 4.946-6.225 10.869-7.014 16.979-.76 5.882.408 10.918 3.289 14.196 2.746 3.125 6.918 4.366 11.875 3.563.658-.106 1.314-.246 1.971-.355l.125-.209c6.68-1.089 13.371-2.443 20.072-3.558-3.518 7.864-5.273 16.782-1.887 22.435.938 1.568 2.59 2.829 5.424 3.426 1.141.439 2.479.676 4.029.677l.049.001c5.266-.01 10.549-.082 15.842-.197 10.117.081 20.17.098 30.043-.504.6 5.149 3.178 9.973 7.379 11.828 11.932 5.264 25.303 7.935 39.744 7.935 30.758 0 61.958-12.051 82.749-21.116 39.537-17.238 75.367-39.857 108.195-61.735l.912-.513-.008-.111c9.395-6.715 15.32-18.734 14.494-29.599-.578-7.638-5.248-12.574-11.889-12.574-.428 0-.861.022-1.297.065 10.613-8.494 19.504-17.705 26.947-27.887 5.145-7.038 9.479-17.912 6.217-27.322-1.377-3.967-4.256-6.652-7.959-7.561a254.055 254.055 0 0 0 5.686-5.193c7.451-7.027 11.809-17.582 11.102-26.895-.48-6.321-4.711-13.04-11.604-13.04-1.328 0-2.695.262-4.066.776-2.084.786-4.191 1.575-6.314 2.366 7.303-5.131 12.719-14.357 13.959-23.951.58-4.503-.404-11.181-3.941-15.205-2.902-3.299-7.037-4.21-11.564-2.487-.543.207-1.092.416-1.641.623l.01-.3-1.201.746c-.885.33-1.779.662-2.68.992a346.125 346.125 0 0 0 17.918-15.261c5.807-5.301 9.902-13.331 10.957-21.479.619-4.812-.232-11.351-3.537-15.112a9.349 9.349 0 0 0-3.215-2.392 840.856 840.856 0 0 0 17.678-10.061c9.008-5.276 14.152-16.262 15.26-24.81.735-5.647-.742-11.503-3.748-14.929zM384.541 268.227c-8.18 7.889-16.281 15.852-24.506 23.68a124.65 124.65 0 0 1 7.854-10.598c1.908-2.305 4.115-4.695 6.498-7.074 4.736-3.938 9.797-7.5 15.066-10.723l-1.34 1.279a26.89 26.89 0 0 0-3.572 3.436zm-44.999 42.447c4.547-12.535 10.467-24.505 18.055-35.459 3.771-3.445 7.77-6.635 11.939-9.61-12.057 12.766-21.621 27.593-28.531 43.78-.488.428-.972.862-1.463 1.289zM677.9 249.296c.58.483 1.16.967 1.73 1.46a2.703 2.703 0 0 0-1.064-.372c-.222-.363-.439-.729-.666-1.088zm11.262 132.41c.465 1.043.92 2.092 1.377 3.139-1.176.003-2.633.008-4.25.017a76.8 76.8 0 0 0 2.873-3.156zm14.988-102.928a11.766 11.766 0 0 0-.611 3.843c.02 1.926.105 3.839.246 5.741-6.004-13.153-14.252-25.327-23.1-36.664-.029-.035-.057-.062-.088-.097 8.901 7.809 16.844 16.826 23.553 27.177zm-378.748 16.501c.092-.646.213-1.285.332-1.926.189-1.001-.094.262.344-1.396 1.346-5.084 3.322-8.824 5.947-12.642 3.471-5.048 6.613-8.279 11.422-12.576 6.383-5.704 13.479-10.674 21.004-15.072a159.459 159.459 0 0 0-9.014 10.751c-11.957 10.065-22.453 21.715-30.277 35.282-.018.029-.033.06-.051.088.078-.838.176-1.676.293-2.509zm101.955 46.335l2.756-1.23.139.336c-.967.298-1.934.592-2.895.894zm92.536-5.407c4.189 2.302 8.283 4.776 12.303 7.321a638.126 638.126 0 0 1 4.828 3.096c-6.037-2.655-11.689-5.393-16.936-8.314a20.1 20.1 0 0 0-.195-2.103zm16.699 136.992c8.67-6.557 16.775-13.289 24.42-20.277a278.735 278.735 0 0 0 14.307 2.956 2613.333 2613.333 0 0 0-38.727 17.321z"/><path fill="#EAA286" d="M498.867 679.532c9.576 1.547 18.776.664 28.09-1.894 4.877-1.339 9.48-3.506 13.891-5.94.32-.176.795-.493 1.352-.889a84.968 84.968 0 0 0 2.021-.728c6.643-2.513 10.949-5.289 13.488-10.599.436-.683.842-1.383 1.139-2.148 1.053-2.711 3.67-11.553-2.021-11.455-3.398.06-5.738 2.442-8.152 4.62-20.047 6.085-43.333 6.44-60.153-7.558-4.834-4.023-10.771 2.273-12.895 9.086a57.218 57.218 0 0 1-11.859-13.787c-1.842-2.992-6.283 4.46-5.248 6.796 7.532 16.958 21.368 31.432 40.347 34.496zm58.774 72.903c-15.348 8.494-33.115 11.805-50.54 11.223-17.373-.576-36.814-4.807-47.402-19.802-3.277-4.644-8.781 6.896-7.744 10.032 13.674 41.447 67.172 46.291 101.569 29.066 7.213-3.611 11.752-11.938 12.797-19.731.636-4.739-1.514-14.753-8.68-10.788z"/><path d="M459.267 640.261c14.605 11.617 29.562 19.526 48.156 22.211 15.756 2.274 37.139-.314 48.944-11.791 1.701-1.656 6.559-13.254.59-12.547-7.158.848-13.914 5.793-20.871 8.03-7.857 2.526-16.398 2.913-24.581 2.644-16.896-.561-34.631-6.627-49.818-13.739-2.008-.94-4.025 3.914-2.42 5.192zM254.562 522.608c5.605-6.894 13.115-12.162 22.262-12.279 10.086-.126 12.32 8.817 16.141 16.138 1.742 3.342 5.588-4.051 5.73-5.286 1.281-11.246-4.385-22.447-16.852-22.668-12.213-.218-23.195 10.107-29.643 19.4-1.683 2.43-.855 8.651 2.362 4.695z"/><path d="M299.089 516.924c-7.27-.3-16.385-.374-21.529 5.711-5.088 6.019-4.086 15.127.277 21.275 1.871 2.636 4.932-3.906 4.373-5.662-.797-2.5-4.512-9.076-1.83-11.394 4.27-3.692 11.666-3.792 16.961-4.072 2.121-.113 4.367-5.752 1.748-5.858zm140.928 228.22c-6.652 21.088-5.426 43.736 10.51 60.328 14.221 14.805 35.533 20.797 55.547 20.555 20.993-.25 42.094-7.444 57.27-22.184 7.889-7.659 13.57-17.98 16.385-28.559 2.311-8.693 4.656-25.025-3.998-30.676-3.277-2.143-6.256 5.455-6.609 7.334-1.615 8.63-.367 18.332-2.756 26.176-.711 2.342-1.621 3.989-3.885 7.183-.936 1.319-4.16 4.498-6.344 6.245-13.525 10.832-31.236 15.001-48.28 15.256-17.145.26-35.107-3.43-48.916-14.053-15.061-11.592-18.062-31.032-14.469-48.661.899-4.413-3.711-1.306-4.455 1.056z"/><path d="M441.166 742.198c-49.566.224-105.842.17-138.633 44.113-14.521 19.459-22.199 42.641-26.711 66.255-4.512 23.597-6.652 48.753-3.977 72.595.557 4.966 4.982-1.125 5.377-3.146 8.145-41.738 5.295-88.459 30.742-124.892 28.777-41.208 86.752-34.702 129.928-43.972 3.494-.748 8.424-10.976 3.274-10.953zm133.963 15.244c23.482-1.85 48.609-.695 70.93 7.408 20.1 7.3 35.443 21.485 48.092 38.312 13.48 17.938 21.426 38.645 28.918 59.574 7.625 21.301 13.781 43.387 18.107 65.585 1.311 6.728 10.371-4.61 9.717-8.94-7.16-47.307-15.469-94.95-44.875-134.236-12.959-17.312-31.502-30.635-52.047-37.263-26.252-8.468-52.783-3.668-78.025 5.813-.956.363-2.518 3.88-.817 3.747z"/><path d="M310.91 874.388c9.162.808 19.875 4.203 23.912 13.297 3.721 8.389 3.541 19.023 3.352 28.023-.219 10.189-1.73 20.362-2.771 30.49-.783 7.623-3.576 20.014 1.176 26.664 4.955 6.93 12.285-8.574 12.773-11.787 1.41-9.303-.293-19.721-.037-29.216.291-10.798.639-21.634-.738-32.377-1.16-9.057-4.555-16.751-11.193-23.085-7.291-6.949-16.957-6.23-26.035-4.007-.59.146-1.332 1.921-.439 1.998zm24.449-433.706c9.467-9.139 22.266-12.81 34.773-15.702 12.918-2.988 26.713-3.456 39.736-.916 16.559 3.229 27.152-34.509 13.014-34.137-35.318.931-71.389 11.811-91.482 42.878-2.676 4.138-2.299 13.915 3.959 7.877z"/><path fill="#F76411" d="M674.451 865.624c.143-.281.26-.553.406-.836.676-1.31 1.471-6.906-1.732-5.357-.846.412-1.664.852-2.48 1.302a3.553 3.553 0 0 0-1.385-.237c-.695.049-1.391.099-2.086.15-3.57.25-5.881 3.635-7.109 7.184-2.857 2.178-5.67 4.434-8.59 6.617-1.508 1.129-2.701 6.58.252 4.717 2.459-1.552 4.852-3.213 7.279-4.794.09 2.507.771 4.895 1.746 7.227-8.369 29.782 7.371 62.735 11.686 92.849 2.016 14.066 15.078-2.521 15.814-9.254 3.676-33.699 3.641-69.529-13.801-99.568zm-184.36-10.021c-18.221.943-35.814-8.555-48.709-20.756-6.057-5.73-11.078-12.486-15.439-19.561-4.438-7.199-6.287-16.255-11.381-22.915-.727-.92-1.676-1.363-2.848-1.327-.627.088-1.207.231-1.762.404-.666-3.494-1.156-6.963-1.395-10.381-.404-5.848-6.104 1.844-6.223 4.676-.188 4.477.045 8.988.521 13.5-1.773 5.59-1.148 12.752.129 17.408 1.371 5 3.551 9.873 6.166 14.541 3.787 14.616 8.883 28.884 16.459 42.009 6.268 10.866 15.494 22.382 28.615 24.479 16.174 2.582 29.271-12.51 36.795-24.783 1.887-3.074 7.539-17.732-.928-17.294z"/><path fill="#EAA286" d="M762.678 511.876c-1.209-11.345-2.922-22.621-5-33.831 1.371-19.739 1.707-39.435-1.41-59.053l.424-2.053c.33-1.596-.24-3.47-1.527-4.19a156.29 156.29 0 0 0-2.531-10.822c-1.322-4.857-6.363-.28-8.061 2.72-1.496-15.432-4.432-30.754-8.227-45.681-8.172-32.139-21.354-63.507-39.686-91.195-.418-.633-.98-.93-1.596-1.008-2.945-5.822-6.223-11.381-10.01-16.43-.012-14.426-13.449-24.811-24.852-31.914-9.377-5.839-19.646-10.747-30.191-14.608-8.402-7.78-17.539-14.704-27.742-20.085-22.732-11.987-49.613-12.684-74.568-9.205-22.292 3.107-43.702 9.571-64.786 17.101a261.596 261.596 0 0 0-45.244 17.063l-1.254.474a2.39 2.39 0 0 0-.793.528c-40.047 19.953-74.764 50.242-97.854 88.892-1.035 1.731-1.623 4.801-.244 6.524 1.877 2.344 4.748-.21 6.051-1.734a280.337 280.337 0 0 1 16.102-17.303 181.33 181.33 0 0 0-7.246 10.931c-15.092 24.638-24.951 52.951-25.793 81.97-.104 3.515 4.365.121 4.496-2.069 2.346-39.285 21.15-77.726 49.131-105.134 13.812-13.529 30.551-24.05 49.283-29.14 22.266-6.053 44.994-1.165 67.014 3.667 1.551.341 3.104.688 4.658 1.039.426.606 1.062.985 1.992.914.479-.035.957-.089 1.436-.135 16.096 3.688 32.315 7.713 48.661 10.268.398.252.889.439 1.488.546 1.766.312 3.553.447 5.354.431 14.309 1.842 28.713 2.37 43.209.366 16.285-2.251 31.953-7.756 48.291-9.668 8.27-.967 16.584 5.68 24.746 7.307.779.156 1.537 3.061 2.293 3.257 7.365 9.49 14.24 10.308 20.338 20.509 24.125 40.357 33.814 86.815 38.607 133.06 1.582 15.273 2.791 30.547 3.5 45.828-.389 21.3-.436 42.604-.363 63.908-.227 3.569-.475 7.14-.777 10.711-1.67 19.748-4.301 39.657-9.855 58.726-6.213 21.335-19.139 40.108-32.416 57.663-15.133 20.01-32.037 40.317-52.004 55.7-.344.264-.693.519-1.039.779-12.029 4.081-23.404 11.091-32.232 19.559a196.456 196.456 0 0 1-28.971 11.062c-19.178 5.634-39.451 7.91-59.338 5.471-3.486-.428-6.758 7.832-2.641 8.393 29.284 3.988 59.694-2.238 87.014-14.678.229 1.952 1.408 3.204 4.264 2.5 9.156-2.256 18.402-7.178 26.191-12.77.324.177.752.209 1.297.043.287 1 1.072 1.512 2.643.936 2.791-1.021 5.422-2.404 7.883-4.05.658.604 1.564.842 2.74.37 14.93-5.992 27.115-18.9 37.51-30.762 7.951-9.072 15.057-18.998 21.5-29.272 1.766.308 4.314-1.231 5.539-2.644 13.67-15.772 22.66-35.133 30.176-54.43 5.975-15.341 11.01-31.283 14.709-47.422-.021 5.793.129 11.575.537 17.344.277 3.93 3.986 3.967 6.391 1.719 18.83-17.616 15.257-43.777 12.783-66.993zM417.281 231.383a289.295 289.295 0 0 1 6.479-3.041c.486.637 1.252 1.095 2.385 1.275.662.106 1.322.193 1.982.271a99.795 99.795 0 0 0-10.846 1.495zm120.215 15.477c-.479.175-.986.498-1.494.925-.492-.076-.982-.161-1.477-.24 1.061-.243 2.117-.495 3.172-.757l-.201.072zm38.338 1.687c-.148.473-.275 1.16-.328 1.907a115.51 115.51 0 0 1-7.949.259c2.902-1.521 5.678-3.086 8.271-4.552l1.332-.391c-.572.85-1.017 1.8-1.326 2.777zm-3.154-44.587c1.238.135 2.475.28 3.713.432a409.012 409.012 0 0 0-3.664-.09 4.078 4.078 0 0 0-.049-.342zm-41.721-13.282c1.564-3.218 2.314-7.134-.256-8.077 15.07-1.42 30.205-.939 45.297 2.438 9.469 2.119 18.27 6.006 26.447 11.019-23.494-5.02-47.552-6.691-71.488-5.38zm84.693 52.326c-1.473.33-2.943.668-4.412 1.007 5.025-2.315 10.059-4.574 15.23-6.297 7.098-.305 14.697-.222 21.855 1.106l.26.305c-11.065-.641-22.192 1.468-32.933 3.879zm86.936 399.167c1.002-3.182 2.201-6.303 3.398-9.338.961-2.43 1.988-4.836 3.053-7.229a133.49 133.49 0 0 0 5.275-8.777 1050.1 1050.1 0 0 0 5.846-10.812c-4.678 12.294-10.215 24.987-17.572 36.156zm22.881-234.882a583.96 583.96 0 0 0-1.535-12.491c.646 4.034 1.279 8.071 1.891 12.112a9.882 9.882 0 0 0-.356.379zm27.09 153.81c-.326-12.381.279-24.767 1.221-37.146a360.145 360.145 0 0 1 1.293 18.311c.292 6.656-.075 13.118-2.514 18.835z"/><path d="M411.191 779.993c-1.412 21.239 6.684 40.775 21.344 56.01 13.285 13.802 39.164 26.826 58.609 22.045 2.854-.706 7.543-9.943 3.41-11.314-8.787-2.911-18.242-2.947-27.137-5.828-9.016-2.92-17.381-7.627-24.957-13.27-16.484-12.28-27.285-29.16-26.932-50.178.061-3.687-4.204.55-4.337 2.535zm232.176 99.07c2.283 7.877 5.795 15.251 8.607 22.951 3.389 9.266 5.221 19.004 7.061 28.664 3.752 19.688 5.221 39.798 8.164 59.614.145.981.391 3.085 1.729 3.365.393.083.789.164 1.182.249 2.457.514 4.463-1.912 5.316-3.994 3.559-8.682.365-18.833-.76-27.912-1.387-11.217-3.242-22.375-5.453-33.46-2.184-10.94-5.242-21.635-9.572-31.925-3.195-7.599-7.236-15.979-15.568-18.625-.477-.154-.805.723-.706 1.073z"/><path d="M678.205 849.608c-12.926 4.732-24.119 12.324-32.859 23-1.459 1.779-2.84 4.471-2.1 6.846.949 3.041 3.998.273 4.99-1.09 7.521-10.355 17.652-17.811 29.211-23.133 1.766-.813 3.655-6.682.758-5.623zm69.125-466.769c-1.953-6.285-9.025 5.034-8.172 8.974 14.84 68.604 11.852 162.02-17.408 226.501-27.934 61.568-81.873 106.623-148.268 120.821-74.608 15.956-156.59-4.467-209.719-60.413-53.709-56.558-67.07-136.265-60.215-211.44-3.439-1.953-6.951-3.702-10.602-5.078a495.078 495.078 0 0 0-2.906 27.334c-5.812 74.837 10.803 152.839 63.053 209.142 52.107 56.153 132.436 77.492 206.846 65.27 69.129-11.355 126.574-55.514 161.057-115.732 42.156-73.625 51.475-184.566 26.334-265.379z"/><path d="M707.83 431.718c-7.838-13.997-20.578-25.849-35.58-31.732-14.607-5.731-31.215-8.184-46.846-8.624-15.123-.424-22.705 36.905-10.35 34.647 14.961-2.734 29.922-2.767 44.809.542 14.316 3.183 28.881 7.116 40.361 16.712 4.956 4.141 9.77-7.678 7.606-11.545zm-37.795-189.117c14.662 13.656 28.453 28.62 38.736 45.903 9.613 16.161 15.412 34.903 19.637 53.111 4.959 21.368 7.752 43.296 10.91 64.984 2.031 13.955 3.064 28.451 3.457 42.543.387 13.914-2.387 27.153-4.406 40.821-.994 6.717 5.83 7.267 9.004 2.394 16.703-25.654 12.096-59.997 9.359-88.92-2.27-23.976-6.305-48.062-11.789-71.515-4.512-19.287-10.883-37.903-21.107-54.936-10.537-17.551-24.43-32.487-41.482-43.856a203.411 203.411 0 0 0-4.629-2.976c-4.85-3.05-11.448 8.946-7.69 12.447zM300.773 467.682c6.393-35.792 8.98-72.152 15.816-107.895 2.916-15.242 6.324-30.29 10.975-45.107a243.77 243.77 0 0 1 7.148-19.625c2.967-7.117 6.623-13.734 8.352-21.299 1.223-5.348-1.854-10.81-7.229-5.878-11.721 10.753-17.354 28.722-22.473 43.382-5.711 16.353-9.852 33.454-12.861 50.502-6.414 36.316-10.107 73.834-10.135 110.712-.002 2.393 1.979 4.241 4.352 3.521 3.492-1.061 5.465-4.999 6.055-8.313zm103.967-5.453a28.314 28.314 0 0 0-.926-1.135c-3.674-5.557-9.736-9.393-16.725-10.049-4.227-.91-8.609-.819-12.734.59-3.361 1.149-6.686 3.278-8.785 6.177-9.391 6.825-11.139 20.013-3.787 29.87 9.201 12.338 26.342 13.035 38.322 4.606 10.344-7.276 12.252-20.13 4.635-30.059zm-41.799 6.19a22.113 22.113 0 0 0-.449 2.618 8.863 8.863 0 0 1 .449-2.618zm307.258-12.473a28.286 28.286 0 0 0-.926-1.134c-3.674-5.557-9.736-9.394-16.725-10.049-4.227-.91-8.609-.819-12.734.59-3.361 1.148-6.686 3.277-8.785 6.177-9.391 6.824-11.139 20.013-3.787 29.869 9.201 12.338 26.342 13.036 38.322 4.607 10.344-7.277 12.252-20.129 4.635-30.06zm-41.799 6.191a22.566 22.566 0 0 0-.449 2.618 8.94 8.94 0 0 1 .449-2.618z"/><circle fill="#FFF" cx="388.765" cy="468.021" r="8.984"/><circle fill="#FFF" cx="640.189" cy="462.431" r="8.984"/><path fill="#EF6100" d="M677.85 151.22c-2.762-9.686-7.951-18.728-13.588-26.999-12.748-18.711-30.174-34.446-48.646-47.356-10.203-7.13-21.117-13.209-32.84-17.443-5.346-1.932-9.404 6.754-8.068 10.959 6.885 21.656 12.496 44.659 11.84 67.537-43.373-59.709-133.819-49.505-198.975-39.39-5.656.878-11.314 1.748-16.971 2.622-4.307.665-8.332 9.894-3.998 12.575 17.947 11.108 37.121 25.009 42.643 45.663-20.553-3.481-42.83.11-62.76 4.051-24.016 4.749-49.467 11.654-70.516 24.568-2.492 1.529-7.518 10.007-2.695 11.817 9.412 3.533 17.732 9.347 24.447 16.807 4.938 5.484 10.113 13.459 9.477 21.204-.799-7.72-3.893-14.775-11.416-15.043-5.771-.206-10.844 13.389-4.287 13.621 1.303.047-7.904.294-7.119 1.097 1.473 1.507 11.262 2.265 11.982 4.462.701 2.136.824 3.579.91 6.203.045 1.395.025 1.115-.162 2.832-.068.64-.178 1.273-.287 1.907-.018.091-.027.159-.039.229-.033.104-.082.273-.152.537-.064.246-.43 1.226-.635 1.805-3.635 2.865-7.795 4.933-11.936 5.495-4.604-.527-9.225-2.647-13.064-4.64-2.506-1.3-5.338.996-6.996 3.988a36.56 36.56 0 0 0-2.492-2.286c-2.883-2.407-4.873 3.192-4.686 6.326 1.385 23.173 7.352 35.461 8.781 53.122 1.545 19.07 9.029 39.777 21.092 55.514 1.424 1.856 2.965 1.681 4.363.56.678.763 1.686 1.129 3.143.686 3.307-1.003 5.732-5.025 6.053-8.309 3.133-32.212 17.191-65.181 36.611-90.926.113-.152.229-.313.342-.481 8.857-9.449 16.582-19.906 24.988-29.742 5.625-3.669 11.59-6.764 17.395-9.366 18.748-8.401 39.924-13.817 60.504-14.402 29.842-.849 59.387 2.137 88.778 7.176 14.484 2.483 28.887 5.435 43.271 8.436 13.943 2.91 27.898 6.403 41.988 8.512 17.609 2.636 45.889-.312 58.955-13.213 13.324-13.155 17.506-32.343 17.848-50.418.19-10.077-10.316-20.587-13.083-30.297z"/><path fill="#EA3200" d="M661.471 118.96c-8.516-17.139-20.389-32.201-34.193-45.379-4.98-4.755-11.58 6.935-8.396 11.334 6.572 9.08 9.76 20.167 13.172 30.788 3.123 9.716 5.604 19.978 4.342 30.234-2.984 24.277-31.477 36.972-52.846 39.356-25.633 2.861-51.508-2.694-77.202-1.938-23.299.685-46.551 2.597-69.42 7.271-40.424 8.263-79.676 27.239-105.4 60.382-12.68 16.336-20.557 36.384-26.555 55.991a233.296 233.296 0 0 0-2.207 7.704c-.254.532-.52 1.06-.77 1.595-7.408 15.827-12.525 32.606-13.578 50.104-.133 2.196.66 5.142 3.541 4.267 1-.304 1.846-.897 2.547-1.653 1.668 1.038 5.34-2.008 5.748-4.89a312.738 312.738 0 0 1 7.711-37.57c4.754-11.359 10.656-22.245 17.584-32.523 14.473-21.477 32.971-41.72 53.738-57.268 20.998-15.719 45.764-23.961 71.939-24.252 25.039-.277 49.695 6.142 73.432 13.503 24.732 7.67 49.07 16.651 74.164 23.122 10.994 2.835 21.816 5.017 33.182 3.212 9.119-1.448 26.812-5.372 33.846-11.313 15.064-12.724 23.668-33.898 24.021-52.878.44-23.712-17.873-48.011-28.4-69.199zM347.242 251.703a275.578 275.578 0 0 0-18.717 21.656c6.943-11.912 15.623-22.576 26.564-31.845a135.251 135.251 0 0 1 13.506-10.04c-7.508 6.316-14.592 13.172-21.353 20.229z"/><path fill="#FF8A0B" d="M407.544 811.539c.238-.007.463.011.693.069-.215-.057-.43-.112-.646-.168.211.066.393.158.566.294l-.512-.421c.156.139.281.296.385.48-.109-.207-.221-.412-.332-.619.096.186.162.377.207.58l-.152-.768c.016.087.031.176.037.264.033.686.332 1.457.98 1.787.66.336 1.432.107 2.021-.257.816-.504 1.447-1.302 1.877-2.149.467-.914.605-1.773.635-2.781a4.121 4.121 0 0 0-.359-1.735c-.57-1.29-1.578-2.059-3.012-2.169-.809-.062-1.613.471-2.168.994-.768.725-1.33 1.679-1.646 2.682-.268.846-.387 1.826-.09 2.684.22.634.784 1.252 1.516 1.233z"/><path d="M681.049 147.323c-8.58-24.525-22.375-46.896-42.984-63.032-21.316-16.688-48.199-24.772-74.59-28.879-3.506-.546-5.531 5.339-4.846 7.89 3.121 11.586 8.729 22.461 13.297 33.512 3.135 7.588 6.09 15.639 6.9 23.837-26.559-21.07-64.5-26.87-97.174-29.03-19.971-1.32-40.09-.708-59.963 1.627-16.918 1.988-33.863 5.239-49.758 11.514-2.646 1.046-5.064 5.184-3.242 7.849 10.627 15.532 24.391 28.552 31.797 45.817-20.273-1.626-40.898 2.235-60.404 7.395-22.402 5.928-44.045 14.351-65.832 22.156-2.484.891-5.506 5.597-3.33 8.06 11.207 12.683 21.908 28.068 26.062 44.693 1.146 4.584 2.064 11.38-2.156 14.583-7.598 5.766-20 3.667-28.584 2.216-.301-.051-.598-.008-.891.078.01-.061.016-.121.027-.182.281-1.672-.623-3.799-2.646-3.185-2.131.647-3.381 3.075-3.723 5.111-3.715 22.136 1.062 45.293 7.59 66.44 7.416 24.035 18.52 47.616 33.545 67.851 2.113 2.846 6.244-3.651 4.555-6.15-13.715-20.29-24.314-42.561-31.727-65.895-5.676-17.865-10.023-37.52-8.529-56.495 9.918 1.949 22.082 3.558 30.938-2.47 7.094-4.827 9.43-13.52 8.736-21.682-.803-9.441-5.037-18.428-9.471-26.645-3.898-7.224-8.588-14.078-13.762-20.485 39.662-14.422 80.777-30.479 123.596-25.854 3.379.365 6.566-6.932 3.605-8.525-5.092-19.165-18.814-33.119-30.213-48.707 31.57-10.211 66.787-11.447 99.471-9.558 19.391 1.122 38.858 3.927 57.5 9.472 15.486 4.604 31.287 11.362 43.361 22.353-.861 4.57 4.859 2.311 5.635-.921.189-.796.355-1.589.504-2.381.443-1.071.641-2.188.467-3.121 2.494-21.111-9.484-40.477-16.551-60.231 17.02 3.56 33.697 8.684 49.035 17.037 15.617 8.505 28.771 20.561 38.945 35.112 11.678 16.707 18.754 36.237 23.793 55.85 4.383 17.06 6.436 37.181-3.986 52.574-9.205 13.596-25.924 18.938-41.629 19.639-23.059 1.027-44.395-7.872-65.65-15.542-21.877-7.894-43.848-15.806-66.792-19.999-25.137-4.595-50.643-3.439-75.682 1.184-28.914 5.338-54.863 19.765-74.385 41.814-18.969 21.427-31.084 48.707-34.93 77.02-.695 5.107 4.777 1.49 5.365-1.622 8.305-44.037 35.152-83.768 77.771-100.605 23.723-9.371 51.199-11.877 76.498-10.443 23.363 1.322 45.854 7.739 67.862 15.322 36.84 12.693 81.543 36.036 119.5 13.816 14.402-8.431 23.07-23.32 26.088-39.424 3.805-20.312-2.349-41.71-9.013-60.759zm-9.998 367.826c-10.584-6.273-23.107-6.549-34.766-3.479-2.59.683-4.623 7.332-.855 6.576 4.613-.926 9.203-1.206 13.674-.763-5.203 20.134-12.834 38.486-28.236 53.065-14.607 13.829-33.758 21.578-53.184 25.738-21.105 4.521-42.857 4.448-64.19 1.723-21.252-2.716-42.318-8.664-61.008-19.299-18.568-10.564-33.502-26.732-40.725-46.99l-.012-.026a26.364 26.364 0 0 1 5.557-1.911c3.471-.768 6.133-9.412 1.125-8.652-11.623 1.766-27.617 10.803-27.656 24.234-.012 4.012 4.609 1.393 5.477-.695.105-.254.227-.491.338-.737.574-.188 1.217-.635 1.906-1.442 2.27-2.659 4.752-5.154 7.5-7.254-.176.714-.203 1.396-.02 1.957 13.812 42.113 56.08 62.084 96.904 69.423 39.825 7.158 85.805 3.86 119.793-20.004 22.453-15.764 37.637-41.144 42.381-68.076a37.394 37.394 0 0 1 11.605 5.23c3.198 2.158 7.98-6.491 4.392-8.618z"/></svg>