<svg xmlns="http://www.w3.org/2000/svg" xmlns:xlink="http://www.w3.org/1999/xlink" width="1030" height="1030" viewBox="0 0 1030 1030"><defs><path id="a" d="M1020.377 515.001c0 279.115-226.266 505.377-505.378 505.377-279.111 0-505.377-226.264-505.377-505.377S235.887 9.622 514.999 9.622s505.378 226.266 505.378 505.379z"/></defs><use xlink:href="#a" overflow="visible" fill="#FFBF1F"/><clipPath id="b"><use xlink:href="#a" overflow="visible"/></clipPath><g clip-path="url(#b)"><circle fill="#FFBF1F" cx="516.034" cy="517.213" r="505.378"/><path fill="#FC9E17" d="M64.59 301.339c65.699-60.767 147.473-101.363 226.168-142.394 40.814-21.281 80.746-43.73 120.539-66.854 43.205-25.11 87.469-49.598 136.052-62.561-.955-12.573-1.91-25.146-2.863-37.722-74.998 71.15-162.478 126.989-247.857 184.582-43.967 29.658-87.432 59.996-129.213 92.682-20.033 15.672-39.123 32.311-60.043 46.828-21.764 15.1-44.412 28.884-66.553 43.409-20.463 13.421-40.42 27.7-58.93 43.736-7.094 6.145-11.697 17.171-10.986 26.521.547 7.209 5.93 13.974 13.848 11.2 98.168-34.394 184.332-95.652 268.734-154.941 42.164-29.617 84.252-59.421 128.115-86.495 19.998-12.341 40.242-24.097 59.857-37.073 21.045-13.919 41.816-28.239 62.965-42.001 37.357-24.313 76.48-48.122 120.033-59.315l-6.715-33.351c-3.625 4.497-11.992 11.267-18.965 15.919-10 6.67-20.648 12.364-31.156 18.178-23.027 12.742-45.092 27.219-67.552 40.936-51.305 31.332-102.533 62.797-153.852 94.112-51.111 31.188-102.326 62.211-153.791 92.816-45.84 27.263-92.238 53.613-137.738 81.449-57.196 34.993-113.603 73.152-161.327 120.58-6.828 6.784-11.732 16.688-10.986 26.521.559 7.365 5.898 13.78 13.85 11.198 51.945-16.859 99.75-43.608 147.504-69.638 50.273-27.404 102.162-51.78 153.584-76.934 106.725-52.204 213.545-104.201 320.027-156.899 43.588-21.572 87.408-42.348 128.738-68.076 36.969-23.018 73.674-48.996 115.463-62.538-.955-12.575-1.908-25.146-2.865-37.721-32.514 34.457-76.607 55.146-117.219 78.288-50.043 28.516-97.459 62.321-145.695 93.778-48.672 31.741-97.557 62.7-143.461 98.404-36.26 28.201-71.637 58.477-113.41 78.263C166.967 440.29 75.417 461.753 37.559 541.29c-3.076 6.463-5.365 14.316-2.91 21.401 1.744 5.04 7.496 9.095 12.934 6.589C147.668 523.179 241.1 464.948 335.032 407.693c46.518-28.354 93.289-56.325 141.229-82.228 49.123-26.541 100.222-49.029 149.865-74.543 51.182-26.305 101.262-54.686 151.102-83.427-.984-12.997-1.971-25.993-2.959-38.989-89.506 66.279-184.818 124.035-280.236 181.279-95.316 57.186-189.701 115.122-280.916 178.699-64.773 45.146-142.418 71.596-192.24 135.972-8.809 11.384-11.102 42.221 10.986 31.382 208.225-102.161 408.939-218.58 611.708-330.955 81.107-44.949 162.6-89.213 245.033-131.684l-2.959-38.989C684.768 269.934 489.942 395.938 300.086 528.915c-76.928 53.879-153.004 108.972-228.348 165.043-9.188 6.835-16.062 17.88-15.16 29.76.734 9.699 9.59 15.234 18.119 9.229 43.633-30.724 91.014-55.527 138.016-80.599 48.867-26.063 96.422-53.966 143.455-83.206 97.824-60.818 193.595-125.836 295.818-179.224 79.945-41.755 155.398-91.653 236.617-131.035l-7.131-35.752C726.441 362.758 545.96 469.948 368.332 577.764c-93.445 56.721-186.838 113.71-276.602 176.167-9.32 6.483-16.045 18.146-15.162 29.758.801 10.539 9.316 14.158 18.121 9.23 202.516-113.372 408.092-221.234 609.107-337.292 82.609-47.694 164.387-96.848 244.781-148.196-3.662-10.461-7.324-20.92-10.984-31.381-4.996 7.511-10.377 14.716-16.098 21.688-5.041 6.146-10.836 12.267-18.375 19.708-14.123 13.939-29.66 26.809-45.09 38.273-35.396 26.297-73.572 48.73-112.08 70.107-37.449 20.789-75.582 40.312-113.117 60.945-42.605 23.422-83.598 49.658-124.55 75.827-65.34 41.753-130.41 84.796-198.977 121.15-60.084 31.858-124.109 59.162-173.205 107.688-6.838 6.763-11.73 16.707-10.986 26.522.623 8.163 5.797 12.765 13.852 11.198 27.105-5.267 51.928-18.041 75.645-31.759 24.854-14.379 49.684-28.81 74.537-43.192a10595.979 10595.979 0 0 0 152.23-89.771c49.531-29.772 100.037-57.95 150.667-85.822 50.375-27.729 102.131-51.93 153.662-77.322 67.275-33.148 131.119-72.729 197.158-108.185l-10.984-31.383c-5.504 7.192-9.135 10.836-17.041 18.057-7.75 7.076-15.977 13.312-24.516 19.367-18.807 13.338-38.713 25.094-58.617 36.699-43.184 25.18-85.117 51.793-126.223 80.276-91.951 63.715-180.732 131.845-272.466 195.851-62.605 43.68-127.018 85.396-195.645 119.062l2.959 38.99c48.338-27.513 98.725-51.109 148.234-76.384 25.086-12.807 49.887-26.168 74.098-40.571 24.189-14.391 46.895-30.896 69.808-47.201 23.254-16.545 46.578-32.993 70.564-48.466 23.51-15.167 48.086-28.535 72.547-42.078 48.809-27.02 97.928-53.479 146.338-81.21 61.396-35.17 121.518-72.686 178.059-115.307-3.662-10.461-7.324-20.922-10.984-31.382C929.016 457.254 842.879 507.06 763.5 554.367c-91.051 54.269-181.006 110.706-269.408 169.204-41.195 27.26-81.383 55.869-121.203 85.092-39.395 28.913-78.959 57.731-121.234 82.347-9.594 5.584-15.99 18.821-15.16 29.759.842 11.066 9.201 13.475 18.119 9.23 100.961-48.053 196.105-107.057 291.246-165.518 47.797-29.37 95.674-58.625 144.385-86.46 47.674-27.237 96.568-52.016 145.609-76.669 75.025-37.713 150.203-76.055 218.389-125.428-2.375-11.916-4.754-23.834-7.131-35.751-33.609 33.213-76.088 55.599-117.895 76.72a4040.338 4040.338 0 0 0-133.637 70.689c-99.297 54.921-199.127 109.008-295.386 169.179-39.695 24.813-79.178 50.248-116.168 78.982-32.521 25.263-64.553 53.299-102.398 70.431-8.953 4.054-15.02 11.32-17.994 20.765-1.854 5.884-3.031 24.237 8.273 22.726 45.449-6.074 87.678-22.926 128.725-42.8 43.947-21.275 85.809-46.649 127.57-71.857 92.4-55.778 188.994-103.604 284.82-153.169 30.955-16.012 61.799-31.989 92.061-49.282 29.732-16.989 59.461-33.979 89.189-50.968 9.617-5.496 15.986-18.892 15.16-29.759-.803-10.575-9.309-14.111-18.121-9.229-104.188 57.711-206.854 118.117-308.766 179.746-51.145 30.929-102.088 62.187-152.947 93.583-44.667 27.573-85.541 60.625-129.552 89.188-21.203 13.757-43.262 26.518-67.016 35.328-.436 13.653-.871 27.306-1.309 40.958C503.588 874.062 701.893 821 881.023 728.062c47.312-24.547 93.094-52.107 136.094-83.643 9.217-6.758 16.059-17.938 15.16-29.76-.76-9.986-9.484-14.867-18.119-9.229-189.895 124.01-375.484 255.294-574.294 364.989a2771.17 2771.17 0 0 1-59.695 31.968l7.133 35.753c73.348-58.31 162.888-92.968 248.279-129.313 44.957-19.136 89.818-38.741 132.914-61.835 22.314-11.959 44.49-24.162 66.002-37.533 23.461-14.584 46.564-29.751 71.244-42.24l-14.291-26.021c-3.254 5.631 2.838-4.268-.768 1.271-1.092 1.673-2.266 3.292-3.438 4.908-1.197 1.657-2.473 3.257-3.742 4.856-.225.285-4.666 5.495-1.594 2.025-6.42 7.245-13.553 13.844-20.877 20.158-14.344 12.364-31.18 23.663-48.141 34.454-35.631 22.667-73.098 42.25-109.025 64.42-39.857 24.595-76.527 54.362-114.17 82.133-42.475 31.335-86.007 61.829-133.523 85.104-8.504 4.165-17.229 7.841-26.043 11.295.955 12.572 1.908 25.146 2.865 37.721 61.736-53.27 143.855-80.491 220.312-108.335 80.787-29.419 162.883-61.466 226.771-120.972 7.469-6.955 14.518-14.354 21.268-22.004 7.162-8.118 13.979-19.857 10.07-31.133-3.469-10.01-15.477-8.066-21.375-1.381-114.23 129.438-307.65 132.047-443.066 231.178a405.272 405.272 0 0 0-25.289 20.133c-7.098 6.125-11.693 17.185-10.986 26.522.529 6.965 5.992 14.28 13.852 11.197 97.134-38.068 176.128-109.005 260.492-168.247 66.982-47.033 147.926-76.376 205.264-136.568 10.398-10.916 19.23-22.635 26.766-35.684 7.102-12.287 4.061-35.306-14.291-26.021-23.682 11.983-45.959 26.396-68.42 40.475-22.416 14.05-45.568 26.728-68.83 39.299-42.02 22.706-85.975 41.566-129.891 60.243-90.248 38.378-182.228 75.838-259.648 137.379-7.225 5.744-11.672 17.469-10.984 26.521.818 10.785 9.258 13.842 18.119 9.23 201.621-104.906 388.611-234.82 577.835-360.033a11124.478 11124.478 0 0 1 56.154-36.924l-2.959-38.989c-164.07 120.319-362.51 176.991-545.044 261.854-48.148 22.383-95.299 46.992-140.352 75.131-8.23 5.139-13.766 14.978-14.994 24.479-1.041 8.054 3.029 20.431 13.686 16.479 48.654-18.046 91.17-48.993 132.91-79.128 45.078-32.542 91.929-61.576 139.312-90.626 101.836-62.436 204.242-123.967 307.943-183.265a7368.069 7368.069 0 0 1 86.652-48.766c-.986-12.996-1.973-25.993-2.961-38.988-51.545 29.457-102.699 59.619-155.438 86.898-53.777 27.817-107.557 55.633-161.336 83.449-43.93 22.723-87.301 45.755-129.695 71.245-41.771 25.118-83.296 50.7-126.523 73.278-41.221 21.529-86.023 41.922-132.549 48.141-3.242 14.498-6.48 28.993-9.721 43.49 47.463-21.483 85.908-55.805 127.178-86.811 44.623-33.523 92.953-62.742 140.677-91.576 96.973-58.587 197.006-111.868 295.912-167.064 73.6-41.076 157.643-70.725 218.6-130.964 6.842-6.76 11.732-16.708 10.988-26.521-.729-9.591-9.637-15.373-18.121-9.229-88.588 64.145-188.59 109.527-285.451 159.373-99.426 51.166-193.672 111.625-289.091 169.731-73.314 44.644-147.525 88.053-225.086 124.969l2.959 38.989c49.188-28.641 94.676-62.945 140.545-96.504 46.477-34 94.137-66.235 142.511-97.467 87.035-56.191 175.35-110.046 263.912-163.752 74.689-45.295 149.064-94.295 206.426-161.075 5.668-6.597 9.145-18.316 6.217-26.761-2.553-7.37-11.105-9.217-17.203-4.62-89.627 67.563-188.064 121.632-286.238 175.511-49.328 27.073-98.404 53.916-144.787 85.881-23.354 16.091-46.291 32.776-69.501 49.068-23.09 16.205-47.426 30.418-72.158 43.965-61.564 33.727-125.93 62.054-186.961 96.791-9.621 5.477-15.982 18.906-15.16 29.76.834 10.973 9.219 13.596 18.119 9.23 98.893-48.512 189.043-113.175 277.802-177.872 89.326-65.108 177.654-132.874 271.783-191.008 55.475-34.265 120.367-62.552 160.973-115.647 5.391-7.048 9.266-17.969 6.219-26.763-2.84-8.196-10.652-8.139-17.203-4.62-49.32 26.479-97.432 55.121-146.602 81.871-49.906 27.152-102.033 49.65-152.422 75.84-103.297 53.694-202.543 114.398-302.912 173.235a11425.55 11425.55 0 0 1-97.148 56.283c-30.902 17.713-60.723 37.979-96.279 44.889.955 12.572 1.908 25.146 2.865 37.721 33.756-33.367 76.162-55.738 118.041-77.181 45.688-23.39 90.238-48.038 134.127-74.68 87.6-53.175 171.681-111.858 262.072-160.353 54.957-29.484 110.543-57.98 162.961-91.898 49.711-32.166 98.854-70.181 131.992-120.016 5.023-7.557 9.406-17.564 6.219-26.762-2.701-7.791-10.855-8.675-17.203-4.621-195.874 125.101-399.876 236.655-603.807 347.893-83.529 45.561-167.061 91.117-250.082 137.596.984 12.996 1.971 25.992 2.959 38.988 170.949-118.941 354.396-218.406 528.24-332.895 94.264-62.08 185.904-128.777 269.848-204.379 7.025-6.327 11.707-17.035 10.988-26.521-.836-11.01-9.213-13.55-18.121-9.23-51.248 24.849-100.295 53.832-149.523 82.396-49.637 28.8-100.666 55.019-150.332 83.749-99.656 57.645-195.21 122.086-293.779 181.536-72.496 43.724-150.875 77.517-220.271 126.384l2.959 38.988C259.711 595.263 449.27 463.608 644.355 340.573c80.436-50.727 161.85-99.902 244.248-147.373 9.607-5.535 15.988-18.861 15.162-29.76-.822-10.815-9.252-13.799-18.121-9.229-206.175 106.221-406.212 223.749-609.96 334.453-81.457 44.258-163.553 87.353-246.781 128.186 3.66 10.463 7.322 20.923 10.984 31.383 25.775-33.308 66.303-56.533 103.787-77.647 19.877-11.199 39.891-22.157 59.18-34.356 21.949-13.881 42.736-29.654 64.246-44.203 92.357-62.464 188.979-118.262 284.291-176.013 77.074-46.703 153.373-94.857 225.836-148.517 9.199-6.81 16.062-17.9 15.162-29.76-.793-10.436-9.346-14.29-18.121-9.229-48.863 28.18-97.979 55.93-148.078 81.867-49.613 25.688-100.764 48.179-150.025 74.562-96.332 51.591-187.565 112.02-281.985 166.918-45.945 26.715-92.725 52.251-141.018 74.497l10.023 27.99c.941-1.981 1.92-3.936 2.938-5.881.277-.53 3.928-6.72 1.068-2.127 2.277-3.657 4.846-7.124 7.492-10.519.168-.216 4.738-5.591 1.715-2.197 1.438-1.612 2.949-3.157 4.457-4.703 3.551-3.637 7.363-7.009 11.246-10.285 4.773-4.025 12.174-9.079 19.404-13.619 8.459-5.309 17.279-10.026 26.193-14.511 34.469-17.342 71.242-29.699 106.113-46.215 43.148-20.439 79.836-52.666 117.23-81.818 44.834-34.949 93.141-64.874 140.711-95.896 48.037-31.33 95.283-64.804 145.125-93.205 42.926-24.461 88.732-46.937 123.102-83.359 6.684-7.084 11.75-16.467 10.986-26.521-.559-7.366-5.896-13.776-13.85-11.199-49.908 16.174-93.238 47.806-137.6 74.86-48.914 29.833-102.049 53.269-153.392 78.592-106.676 52.613-213.65 104.618-320.469 156.94-43.394 21.257-86.614 42.541-129.027 65.714-40.359 22.048-80.934 43.731-124.822 57.979.953 12.574 1.908 25.146 2.863 37.722 72.18-71.732 163.498-120.634 250.486-171.761 103.367-60.754 205.49-123.592 307.752-186.184 31.838-19.49 63.287-39.892 95.542-58.647 28.137-16.359 57.43-30.229 78.303-56.136 6.779-8.413 13.279-38.49-6.717-33.35-47.43 12.19-90.468 38.454-131.141 64.924-21.107 13.74-41.834 28.054-62.84 41.949-19.621 12.977-39.934 24.667-59.938 37.012-88.902 54.875-170.566 120.623-260.033 174.661C76.086 360.719 34.5 382.364-9.666 397.84l2.863 37.721c39.104-33.88 85.59-57.931 127.51-87.985 21.174-15.182 40.629-32.546 61.215-48.488 20.629-15.977 41.773-31.276 63.117-46.279 86.076-60.504 176.02-115.53 257.793-181.999 18.232-14.82 35.914-30.312 52.96-46.484 6.924-6.571 11.721-16.852 10.986-26.521-.586-7.715-5.842-13.337-13.852-11.199-49.3 13.154-94.818 37.832-138.792 63.142-40.959 23.574-81.777 46.956-123.684 68.825-82.873 43.245-167.969 86.252-237.164 150.254-7.75 7.166-13.725 20.591-10.072 31.133 3.689 10.637 15.031 7.252 21.376 1.379z"/></g><path fill="#D8724A" d="M836.535 453.245c-.994-4.308-2.545-8.36-4.531-12.165.912-5.605.293-11.22-3.002-15.332-3.379-4.22-7.621-4.531-11.744-3.021-6.527-5.742-14.055-10.454-21.742-14.106-12.486-5.932-26.477 11.32-29.33 26.416-4.389 4.245-8.203 8.647-11.135 12.28-6.256 7.756-11.621 23.476-4.506 32.361 7.564 9.441 19.547-.683 24.715-7.089.275-.342 1.057-1.235 1.68-1.948a67.337 67.337 0 0 1 2.703-2.614c.062 1.733.273 3.368.66 4.841.627 2.398.764 3.198.986 5.249-.83.448-1.82.915-3.225 1.663-5.756 3.067-11.664 10.775-14.672 19.062-14.232 11.632-22.094 42.453-4.02 42.453 6.277 0 12.277-4.665 16.852-11.049 11.139 7.386 24.18 8.771 35.439-3.856a67.643 67.643 0 0 0 10.93-16.692c11.887-16.274 18.641-36.102 13.942-56.453zm-54.955 27.132a9.058 9.058 0 0 0-.186.503c.059-.178.119-.354.18-.527l.006.024z"/><path fill="#61E9FF" d="M245.19 936.136c28.209 27.636 66.396 40.51 104.211 48.715 41.137 8.93 83.479 11.398 125.43 13.152 47.275 1.977 94.703 2.276 141.687-4.072 49.164-6.644 96.174-21.493 141.361-41.767 7.164-3.212 11.771-11.515 9.84-19.314-20.451-82.585-74.207-157.745-156.93-186.005-40.379-13.795-83.422-13.139-125.523-11.201-37.895 1.741-76.176 6.51-112.42 18.065-37.268 11.884-71.807 32.587-95.303 64.376-27.781 37.578-34.566 85.482-30.998 131.023 1.025 13.087 15.264 2.019 16.926-5.084 8.562-36.586 14.385-74.439 28.354-109.494 12.447-31.245 36.252-52.614 67.59-64.141 21.697-7.977 45.068-11.053 67.686-15.355 24.26-4.615 48.59-8.896 73.188-11.266 47.548-4.578 96.148-.515 137.468 25.338 36.164 22.623 64.014 62.877 78.904 102.311 6.689 17.723 11.191 38.273 6.814 57.108-4.719 20.327-20.004 32.169-37.656 41.438-41.436 21.755-91.396 25.369-137.324 25.168-46.267-.201-93.421-4.771-139.033-12.525-53.768-9.138-108.613-25.071-154.168-55.932-8.344-5.652-20.256 16.365-11.393 22.369 43.432 29.424 95.08 44.797 146.115 54.772 45.588 8.912 92.982 13.239 139.38 14.536 75.637 2.114 209.551-9.258 213.271-110.116 1.543-41.824-19.674-82.183-44.201-114.699-28.01-37.135-65.678-61.651-111.404-70.785-46.963-9.384-96.099-1.647-142.591 6.779-41.545 7.53-86.307 12.542-121.109 38.585-54.279 40.612-61.725 113.949-76.051 175.166 5.639-1.696 11.281-3.39 16.924-5.085-2.926-37.31 1.057-76.28 23.412-107.478 19.256-26.869 49.494-43.195 80.199-53.527 36.125-12.155 74.539-16.503 112.441-18.245 42.63-1.961 85.798-2.124 126.347 12.837 76.643 28.274 125.324 99.963 144.369 176.879 3.281-6.437 6.561-12.875 9.84-19.314-43.605 19.562-88.871 34.067-136.225 41.052-46.279 6.828-93.477 6.167-140.089 4.282-40.109-1.619-80.295-4.122-119.799-11.628-37.254-7.077-77.209-19.482-104.934-46.644-8.325-8.157-21.573 12.902-14.606 19.726z"/><path fill="#61E9FF" d="M265.495 883.878c18.537-22.32 33.895-43.608 52.828-61.797 19.598-18.83 44.754-31.079 73.129-38.088-1.014-13.365-2.027-26.73-3.045-40.096-42.41 38.777-94.146 68.115-125.742 117.604-5.223 8.177-10.041 18.55-6.609 28.448 3.129 9.031 11.184 8.22 18.285 4.909 36.791-17.145 68.648-43.087 101.855-66.042 31.793-21.979 66.951-43.896 106.436-47.123L483.989 741c-32.893 33.949-77.457 55.175-118.727 80.338-44.693 27.248-86.58 61.023-109.012 109.583-4.893 10.595-7.715 33.272 10.656 29.755 24.885-4.768 47.697-18.942 68.352-33.002 22.891-15.59 44.297-33.234 66.512-49.745 22.742-16.902 47.443-31.212 71.457-46.211 28.006-17.494 56.791-33.995 89.115-41.932-4.4-7.853-8.801-15.706-13.199-23.561-.438 1.357-3.498 9.185-.707 2.554-.979 2.326-2.125 4.578-3.287 6.819-.625 1.202-5.143 8.472-1.4 2.618-1.785 2.791-3.754 5.46-5.756 8.098-1.645 2.173-3.398 4.258-5.164 6.333 3.529-4.149-2.354 2.415-3.012 3.099-4.566 4.744-9.451 9.182-14.423 13.498-9.84 8.542-17.666 14.115-29.418 22.159-12.434 8.511-25.244 16.468-38.109 24.308-47.102 28.695-100.529 54.868-137.662 96.727-6.941 7.826-12.506 17.277-11.678 28.192.646 8.516 6.174 13.774 14.723 11.904 58.873-12.881 106.617-55.56 152.998-91.353 24.385-18.819 49.604-34.711 76.417-49.812 30.846-17.37 61.641-34.911 90.83-54.987l-15.191-27.66a172.082 172.082 0 0 1-7.549 14.555c2.764-4.773-1.289 1.963-1.564 2.385-1.779 2.698-3.684 5.314-5.602 7.916-7.744 10.514-12.797 15.742-22.82 25.445-18.436 17.84-38.387 32.511-59.598 46.875-41.787 28.303-86.537 51.92-128.326 80.201-8.658 5.856-14.596 15.635-15.939 26.021-1.014 7.85 3.35 22.635 14.547 17.518 47.357-21.645 95.709-41.195 141.57-65.975 23.254-12.564 45.623-26.737 66.586-42.851 21.164-16.271 39.738-36.068 62.85-49.675l-11.676-33.359c-53.109 66.568-124.469 115.358-194.216 162.801-9.951 6.77-17.045 19.386-16.117 31.636.881 11.569 9.82 14.575 19.262 9.812 82.943-41.842 153.261-108.814 241.658-139.832-3.553-9.917-7.104-19.836-10.654-29.754a124.245 124.245 0 0 1-2.26 4.289c-3.74 6.925 2.781-4.037-1.496 2.556-2.633 4.06-5.605 7.888-8.662 11.635-1.223 1.503-3.889 4.316-7.539 7.931-3.547 3.51-7.301 6.809-11.094 10.047-13.953 11.907-32.162 23.257-49.057 33.658-35.141 21.637-72.402 42.257-100.55 73.051-7.021 7.684-12.5 17.388-11.68 28.192.627 8.253 6.203 14.11 14.725 11.905 76.457-19.781 135.248-77.177 204.39-112.156-5.912-7.156-11.824-14.311-17.734-21.468-.357 1.493-3.221 9.065-.471 2.743a52.731 52.731 0 0 1-1.768 3.496c1.836-2.816 1.941-2.993.318-.535-1.568 2.361-3.379 4.562-5.191 6.738 3.078-3.695-3.055 2.936-3.689 3.556-9.541 9.312-18.021 15.116-29.242 22.761-22.057 15.029-45.668 28.234-65.664 46.082-7.482 6.678-12.439 18.139-11.678 28.189.541 7.118 6.449 15.543 14.725 11.906 46.279-20.349 91.873-45.24 141.924-55.033 18.725-3.664 31.773-50.689 5.928-45.632-50.049 9.794-95.643 34.686-141.924 55.032 1.016 13.365 2.029 26.731 3.045 40.098 5.537-4.941 4.949-4.388 10.49-8.4 5.879-4.262 11.955-8.258 18.027-12.244 13.057-8.567 26.258-16.913 38.959-26.01 24.697-17.688 51.135-40.342 58.535-71.257 3.211-13.419-.953-29.958-17.736-21.468-66.033 33.406-122.412 89.106-195.316 107.971 1.016 13.365 2.029 26.729 3.047 40.097 27.9-30.528 65.195-49.562 100.727-71.782 37.908-23.706 74.311-51.471 95.15-92.071 4.41-8.593 7.527-36.133-10.656-29.753-91.9 32.246-164.619 100.578-250.73 144.016l3.145 41.447c76.548-52.067 153.046-105.982 211.279-178.975 5.842-7.318 9.803-19.232 6.609-28.447-2.941-8.489-11.428-8.949-18.285-4.911-22.893 13.476-41.559 32.365-62.061 48.987-19.898 16.136-42.123 29.582-64.496 41.961-43.646 24.154-90.068 42.658-135.375 63.363-.463 14.514-.928 29.026-1.393 43.539 44.1-29.843 91.338-54.713 135.228-84.91 45.309-31.176 90.91-68.959 114.324-120.036 3.189-6.958 5.73-15.144 3.094-22.751-2.803-8.085-11.65-9.475-18.285-4.91-53.531 36.816-113.141 63.401-164.818 102.929-44.635 34.141-89.854 76.675-146.354 89.036 1.016 13.364 2.029 26.731 3.045 40.099 18.373-20.716 36.27-32.721 59.555-47.741 25.555-16.484 52.043-31.469 77.922-47.427 48.918-30.163 103.224-66.648 121.767-124.118 3.275-10.148 1.385-27.142-13.197-23.561-32.018 7.86-61.443 23.755-89.457 40.734-24.844 15.061-50.238 30.062-73.869 46.978-22.287 15.953-43.416 33.464-65.729 49.397-20.08 14.342-41.73 29.06-66.379 33.778 3.553 9.918 7.102 19.838 10.656 29.754 9.361-20.267 19.559-32.668 37.725-48.709 16.133-14.246 36.25-26.811 56.031-38.642 41.211-24.645 84.965-47.003 118.76-81.885 6.018-6.211 10.381-13.891 11.502-22.579.809-6.249-.984-18.863-10.143-18.114-89.809 7.335-148.715 82.447-226.172 118.547 3.891 11.119 7.785 22.239 11.676 33.359 28.824-45.142 78.324-72.446 117.557-108.314 7.434-6.801 12.445-18.051 11.678-28.193-.635-8.329-6.193-14.01-14.725-11.904-32.92 8.13-62.332 23.299-87.602 45.93-24.414 21.865-43.645 49.207-64.494 74.312-6.354 7.648-11.557 23.556-4.504 32.362 7.611 9.508 19.465-.773 24.711-7.088z"/><path fill="#D8724A" d="M426.143 725.927c-3.428 19.219-1.688 39.82 10.273 55.874 9.883 13.263 26.682 19.439 42.594 20.892 39.404 3.604 77.824-22.93 94.121-57.746 3.551-7.586 8.424-24.375-2.223-29.307-17.885-8.285-41.711-4.292-59.984.243-25.543 6.339-53.156 27.12-46.287 56.989 2.346 10.205 13.148 16.589 22.047 20.324 13.408 5.627 29.281 4.917 42.494-.796 15.758-6.813 28.957-19.445 35.773-35.339 8.318-19.389 7.623-37.711-2.416-56.158-5.795-10.646-20.797 1.797-24.713 7.089-6.975 9.421-10.285 21.745-4.506 32.362 1.453 2.668 2.061 5.323 2.312 7.906-.355-3.652-1.207 4.439.238-.88 1.713-6.301-2.41 2.851 1.289-2.528 2.76-4.01-.959.867-1.756 1.58 2.928-2.617-2.656 1.342-2.834 1.442-.506.282-6.053 2.038-8.414 2.276-8.25.829-15.289-1.439-22.349-5.49-3.584-2.06-1.742-.355-4.342-3.803 4.322 5.728-1.008 19.304-7.232 26.158 1.6-1.482.98-1.072-1.859 1.229 1.016-.787 2.139-1.432 3.242-2.082.781-.461 5.033-2.368.674-.451 1.459-.642 2.963-1.18 4.463-1.722 6.715-2.427 13.777-3.896 20.812-5.022 2.744-.439 11.805-.971 17.027-.869 3.096.061 6.176.371 9.234.844.678.103 4.979 1.306 1.113.166 1.102.323 2.143.788 3.18 1.27-.74-9.771-1.48-19.539-2.223-29.309a62.535 62.535 0 0 1-1.658 3.406c-2.887 5.719 3.18-4.6-.322.691-1.014 1.535-2.158 2.98-3.301 4.426 3.723-4.704.021-.092-.809.751-.941.957-7.867 6.562-3.842 3.566-2.889 2.147-6.002 3.976-9.16 5.688-2.029 1.001-2.129 1.082-.291.249-1.621.739-3.289 1.369-4.955 1.998-3.303 1.25-6.72 2.172-10.154 2.975-4.676 1.094-3.744.828-7.572 1.114-3.359.252-6.73.157-10.084-.065-7.078-.473-8.969-1.097-14.568-3.426-2.359-.986-4.58-2.256-6.744-3.605-3.127-1.951-1.623-.756-4.844-4.161-1.756-1.858-3.205-3.973-4.562-6.13 1.916 3.045-.539-1.349-.715-1.767-.65-1.528-1.115-3.126-1.584-4.715-1.545-5.265.424 3.671-.363-1.997-.258-1.865-.318-3.755-.385-5.635-.219-6.327-.408 4.125.199-2.527.203-2.208.6-4.396.988-6.576 1.643-9.209-3.486-20.877-14.549-17.517-11.803 3.585-18.475 16.907-20.473 28.115z"/><path fill="#D8724A" d="M454.932 728.645c-.986 37.416 28.834 66.38 66.111 64.927 46.533-1.81 75.205-49.053 67.742-92.542-1.785-10.394-9.324-15.942-19.262-9.812-9.402 5.799-18.072 20.227-16.115 31.634.695 4.05 1.133 8.068 1.248 12.179-.164-5.863-2.076 10.713-.064 2.317-.373 1.559-.91 3.071-1.449 4.575 2.475-6.93.842-2.278-.027-.648 3.488-6.536 1.449-2.361.277-.785-3.102 4.18 3.906-4.013.268-.36-.92.925-4.785 3.909.088.22-1.129.855-2.346 1.598-3.555 2.337-.814.498-5.133 2.56-.537.485-1.305.589-2.662 1.061-4.014 1.532-2.738.953-5.588 1.55-8.439 2.037 3.414-.584-4.4.082-5.848.065-6.922-.081-10.59-1.029-14.863-2.541-2.804-.991-5.48-2.309-8.085-3.734-1.303-.711-2.541-1.533-3.777-2.353-.273-.181-4.053-3.179-1.479-.995-2.285-1.939-4.283-4.188-6.154-6.519-.951-1.184-1.781-2.46-2.609-3.731-2.695-4.141 1.32 2.988-.82-1.554-1.387-2.941-2.297-6.081-3.051-9.235 1 4.188-.006-1.402-.059-1.938-.25-2.452-.213-4.924-.148-7.383.295-11.23-10.768-15.053-19.262-9.812-10.892 6.717-15.795 19.416-16.117 31.634z"/><path d="M766.818 438.231c13.316-7.887 33.178-15.497 46.85-3.977 11.104 9.358 13.49 26.323 13.334 39.948-.162 14.29-4.23 30.228-13.947 41.07-12.492 13.938-27.689 8.783-43.189 4.597-4.715-1.273-10.902 9.55-7.086 12.718 16.02 13.305 38.199 8.848 52.131-4.865 14.266-14.046 20.793-36.021 21.857-55.52.922-16.852-1.711-37.682-15.947-48.85-17.637-13.835-39.738.121-54.156 11.98-.849.698-1.737 4.021.153 2.899z"/><g fill="#D8724A"><path d="M379.459 701.478h-.001l-.002.005z"/><path d="M797.812 334.123c-3.17-3.605-7.756-4.728-12.898-3.096l-1.912.609.002-.11-.408.24c-15.396 4.919-25.334 4.067-35.094 2.235 1.883-6.193 3.328-12.573 4.41-19.04.893-.027 1.824-.321 2.635-.821 3.502-2.159 5.453-6.514 5.363-10.526-.443-19.767-2.98-39.506-8.307-58.34-1.678-7.98-4.225-15.751-8.039-22.714-5.541-12.852-12.654-25.057-21.611-36.286-23.143-29.02-57.553-46.833-92.826-56.364-19.701-5.323-39.922-8.312-60.262-9.728-23.719-1.65-47.621-1.396-71.056 2.913a168.91 168.91 0 0 0-9.588 2.066c-32.154 1.16-64.023 7.439-93.164 21.653a155.763 155.763 0 0 0-8.02 4.213c-14.715 5.546-29.023 12.096-42.549 19.956-18.424 10.71-35.971 24.834-46.137 43.928-7.381 13.858-8.896 29.238-5.287 43.877-3.191 13.717-3.002 28.048.812 41.891-11.949 8.369-23.43 17.492-34.232 27.625-6.432 6.033-10.955 14.909-12.096 23.742-.516 3.998-.264 12.048 3.961 16.854 2.102 2.39 4.918 3.567 8.186 3.436 10.369-.471 21.049-1.733 32.311-3.83-9.037 4.474-17.227 9.131-24.768 14.079-8.934 5.861-15.369 16.355-16.795 27.39-.637 4.924.002 12.248 3.9 16.683 2.074 2.36 4.879 3.609 8.166 3.609 20.27-.085 41.516-1.804 64.562-5.24-26.271 11.31-53.547 23.71-79.994 38.589-9.953 5.598-15.664 17.824-16.908 27.458-.824 6.375.627 12.395 3.883 16.097 3.107 3.54 7.717 4.81 13.025 3.546 21.668-5.139 40.684-9.81 58.15-14.295a1906.74 1906.74 0 0 0-12.742 5.497l-1.123.277-.037.247c-11.1 5.278-18.963 16.357-20.621 29.18-.822 6.384.621 12.418 3.896 16.141 3.117 3.545 7.691 4.801 12.988 3.499l2.275-.57c-.471.242-1.041.484-1.508.729l-.436.057v.062c0 .612-2.156 1.223-3.338 1.833-9.436 4.884-15.471 17.523-16.76 27.489-.824 6.389.643 12.437 3.932 16.177 3.121 3.552 7.719 4.792 13.004 3.459a818.227 818.227 0 0 0 33.68-9.297c-8.07 7.854-15.143 24.628-12.393 35.149 1.811 6.925 7.596 10.176 16.166 8.943a452.883 452.883 0 0 0 23.934-4.103c-3.107 4.892-5.168 10.524-5.914 16.289-.613 4.746.117 11.938 4.199 16.58 3.18 3.617 7.766 4.712 12.873 3.016 3.65-1.215 7.305-2.426 10.959-3.627-4.143 5.471-6.885 12.022-7.758 18.779-.84 6.506.451 12.076 3.639 15.702 3.037 3.456 7.65 4.83 13.135 3.941.727-.118 1.453-.272 2.178-.394l.139-.23c7.389-1.205 14.791-2.702 22.201-3.936-3.891 8.699-5.832 18.562-2.086 24.814 1.037 1.735 2.865 3.129 5.998 3.789 1.262.485 2.742.747 4.459.749l.053.001a893.254 893.254 0 0 0 17.523-.219c11.189.09 22.309.108 33.229-.557.662 5.695 3.514 11.029 8.162 13.082 13.195 5.822 27.986 8.776 43.959 8.776 34.019 0 68.527-13.329 91.523-23.355 43.732-19.067 83.361-44.085 119.674-68.284l1.008-.566-.008-.123c10.389-7.428 16.943-20.723 16.031-32.738-.641-8.448-5.805-13.908-13.15-13.908-.473 0-.953.024-1.436.072 11.74-9.396 21.574-19.582 29.807-30.845 5.689-7.784 10.482-19.812 6.875-30.22-1.521-4.387-4.705-7.357-8.803-8.362a274.08 274.08 0 0 0 6.289-5.745c8.242-7.771 13.061-19.446 12.279-29.745-.531-6.993-5.211-14.424-12.836-14.424-1.467 0-2.98.288-4.496.858-2.307.869-4.637 1.741-6.984 2.616 8.076-5.675 14.068-15.88 15.439-26.491.643-4.979-.447-12.366-4.359-16.818-3.209-3.648-7.783-4.655-12.791-2.75-.6.229-1.207.459-1.814.688l.012-.331-1.33.825c-.979.365-1.967.731-2.963 1.098a382.784 382.784 0 0 0 19.818-16.88c6.424-5.862 10.951-14.745 12.117-23.758.686-5.322-.256-12.555-3.91-16.714a10.326 10.326 0 0 0-3.557-2.646 920.89 920.89 0 0 0 19.553-11.128c9.965-5.835 15.654-17.986 16.879-27.441.811-6.24-.82-12.72-4.147-16.508zm-429.46-132.21c-9.047 8.726-18.008 17.532-27.105 26.192a137.73 137.73 0 0 1 8.689-11.723c2.109-2.549 4.549-5.193 7.186-7.825 5.238-4.355 10.836-8.295 16.664-11.859l-1.482 1.415a29.968 29.968 0 0 0-3.952 3.8zm-49.769 46.949c5.027-13.864 11.576-27.104 19.969-39.22 4.172-3.811 8.596-7.339 13.207-10.63-13.336 14.12-23.916 30.52-31.559 48.424-.539.475-1.075.955-1.617 1.426zm374.245-67.887c.643.534 1.281 1.069 1.914 1.614a3 3 0 0 0-1.178-.411c-.246-.401-.486-.806-.736-1.203zm12.455 146.454c.516 1.153 1.018 2.313 1.523 3.472-1.301.003-2.912.01-4.701.018a84.6 84.6 0 0 0 3.178-3.49zm16.578-113.845a13.045 13.045 0 0 0-.676 4.25c.023 2.13.117 4.246.273 6.352-6.643-14.55-15.766-28.014-25.551-40.554-.031-.039-.064-.068-.096-.106 9.843 8.635 18.63 18.608 26.05 30.058zm-418.919 18.251c.102-.714.234-1.422.367-2.13.209-1.107-.104.29.381-1.544 1.486-5.623 3.674-9.76 6.578-13.982 3.838-5.583 7.312-9.157 12.633-13.91 7.061-6.309 14.908-11.806 23.232-16.671a176.316 176.316 0 0 0-9.971 11.893c-13.225 11.132-24.836 24.017-33.49 39.023-.018.032-.035.065-.055.098.089-.928.194-1.855.325-2.777zm112.769 51.249l3.047-1.36c.051.124.104.248.154.372-1.07.329-2.14.656-3.201.988zm102.35-5.98c4.633 2.546 9.162 5.283 13.607 8.1a670.306 670.306 0 0 1 5.34 3.424c-6.678-2.938-12.93-5.966-18.73-9.197-.03-.799-.11-1.571-.217-2.327zm18.468 151.522c9.59-7.252 18.555-14.698 27.01-22.428a309.019 309.019 0 0 0 15.826 3.27 2904.67 2904.67 0 0 0-42.836 19.158z"/></g><path fill="#AF543F" d="M494.805 656.845c10.592 1.711 20.766.734 31.068-2.095 5.395-1.481 10.488-3.878 15.365-6.571.354-.193.879-.545 1.494-.982.748-.263 1.496-.525 2.236-.805 7.348-2.778 12.109-5.85 14.918-11.723.482-.755.932-1.529 1.26-2.377 1.164-2.998 4.061-12.777-2.236-12.67-3.758.066-6.346 2.702-9.016 5.11-22.172 6.731-47.927 7.124-66.533-8.358-5.348-4.45-11.912 2.514-14.262 10.05a63.271 63.271 0 0 1-13.117-15.25c-2.037-3.31-6.949 4.933-5.805 7.517 8.333 18.755 23.636 34.764 44.628 38.154zm65.007 80.634c-16.977 9.396-36.629 13.057-55.9 12.413-19.217-.638-40.719-5.316-52.43-21.901-3.625-5.137-9.713 7.626-8.566 11.097 15.125 45.843 74.296 51.2 112.343 32.148 7.975-3.994 12.996-13.203 14.152-21.824.704-5.241-1.673-16.318-9.599-11.933z"/><path d="M451.004 613.408c16.156 12.849 32.699 21.597 53.266 24.566 17.427 2.516 41.076-.349 54.132-13.042 1.883-1.832 7.256-14.66.652-13.878-7.916.938-15.389 6.407-23.082 8.882-8.693 2.795-18.141 3.223-27.187 2.924-18.689-.619-38.305-7.329-55.104-15.196-2.22-1.039-4.452 4.331-2.677 5.744zm-177.166-136.42c-8.041-.33-18.123-.412-23.812 6.317-5.627 6.656-4.52 16.731.307 23.532 2.068 2.915 5.455-4.321 4.838-6.263-.883-2.766-4.992-10.04-2.025-12.604 4.723-4.083 12.904-4.193 18.76-4.504 2.344-.123 4.829-6.36 1.932-6.478zm501.488 14.713c3-8.01 9.141-13.527 17.529-15.325 7.561-1.621 13.389 2.263 20.381 3.94 4.396 1.052 9.088-7.856 6.219-11.16-7.213-8.31-20.26-7.871-29.645-3.849-10.564 4.526-17.23 16.016-20.068 26.619-1.722 6.428 4.016 3.974 5.584-.225z"/><path d="M772.17 497.414c4.053-1.549 11.523-4.254 14.668.328 1.094 1.595.43 3.976.145 5.689-.551 3.327-2.059 6.404-2.633 9.768-.467 2.737 1.75 3.557 3.527 1.646 5.275-5.674 9.553-17.358 4.949-24.647-4.393-6.958-15.639-.724-20.422 2.099-1.351.795-2.922 6.145-.234 5.117zM429.713 729.415c-7.357 23.324-6 48.375 11.625 66.727 15.729 16.375 39.301 23.002 61.438 22.734 23.218-.276 46.558-8.233 63.343-24.536 8.725-8.472 15.01-19.888 18.123-31.587 2.557-9.615 5.152-27.68-4.422-33.931-3.625-2.37-6.92 6.034-7.311 8.112-1.787 9.545-.406 20.277-3.047 28.952-.787 2.591-1.793 4.412-4.299 7.944-1.033 1.459-4.6 4.976-7.016 6.908-14.961 11.98-34.551 16.592-53.398 16.873-18.965.288-38.832-3.793-54.105-15.543-16.658-12.82-19.979-34.323-16.004-53.822.995-4.881-4.102-1.443-4.927 1.169z"/><path d="M430.983 726.157c-54.822.247-117.066.188-153.336 48.793-16.062 21.521-24.553 47.162-29.545 73.281-4.988 26.1-7.357 53.925-4.398 80.294.617 5.493 5.512-1.244 5.947-3.479 9.01-46.166 5.857-97.842 34.004-138.139 31.83-45.578 95.953-38.383 143.709-48.636 3.863-.827 9.318-12.14 3.619-12.114zm148.171 16.862c25.975-2.047 53.766-.77 78.453 8.193 22.232 8.074 39.203 23.765 53.193 42.377 14.912 19.84 23.699 42.742 31.984 65.893 8.434 23.56 15.244 47.988 20.029 72.541 1.451 7.441 11.471-5.1 10.748-9.889-7.92-52.324-17.111-105.021-49.637-148.474-14.332-19.148-34.842-33.885-57.566-41.216-29.037-9.365-58.381-4.057-86.301 6.431-1.055.398-2.784 4.29-.903 4.144z"/><path d="M286.913 872.368c10.135.893 21.982 4.648 26.447 14.707 4.115 9.277 3.918 21.041 3.707 30.995-.242 11.271-1.914 22.522-3.064 33.724-.865 8.432-3.957 22.137 1.301 29.492 5.48 7.666 13.588-9.482 14.127-13.037 1.561-10.289-.322-21.812-.041-32.314.324-11.943.707-23.929-.814-35.811-1.285-10.018-5.039-18.528-12.383-25.534-8.062-7.687-18.754-6.891-28.797-4.432-.649.161-1.472 2.124-.483 2.21zm27.043-479.709c10.471-10.106 24.627-14.167 38.461-17.367 14.287-3.305 29.547-3.822 43.951-1.013 18.314 3.571 30.031-38.168 14.393-37.758-39.062 1.029-78.959 13.062-101.184 47.426-2.961 4.577-2.543 15.391 4.379 8.712z"/><path fill="#08B5F9" d="M689.014 862.675c.156-.312.285-.611.447-.925.748-1.449 1.627-7.64-1.914-5.926-.938.455-1.844.942-2.746 1.439a3.929 3.929 0 0 0-1.531-.262c-.77.054-1.537.108-2.307.165-3.949.277-6.506 4.021-7.863 7.946-3.16 2.408-6.27 4.903-9.5 7.319-1.67 1.248-2.988 7.277.277 5.217 2.721-1.717 5.365-3.554 8.051-5.303.1 2.772.854 5.414 1.932 7.993-9.258 32.94 8.152 69.389 12.926 102.696 2.23 15.559 16.678-2.788 17.49-10.235 4.066-37.269 4.027-76.9-15.262-110.124zm-203.916-11.086c-20.152 1.044-39.613-9.461-53.875-22.957-6.699-6.338-12.254-13.81-17.078-21.635-4.906-7.963-6.951-17.979-12.586-25.346-.805-1.018-1.854-1.508-3.15-1.469-.693.098-1.336.257-1.949.448-.736-3.864-1.279-7.702-1.541-11.481-.449-6.468-6.752 2.038-6.883 5.171-.207 4.952.049 9.942.576 14.932-1.961 6.183-1.27 14.105.143 19.256 1.516 5.53 3.928 10.919 6.82 16.082 4.188 16.167 9.826 31.948 18.203 46.465 6.934 12.019 17.139 24.756 31.652 27.076 17.889 2.856 32.375-13.836 40.697-27.412 2.084-3.401 8.338-19.614-1.029-19.13z"/><path fill="#AF543F" d="M786.598 471.405c-1.338-12.549-3.232-25.021-5.531-37.42 1.518-21.832 1.887-43.617-1.561-65.316.156-.757.314-1.514.471-2.27.365-1.765-.268-3.838-1.689-4.635a173.592 173.592 0 0 0-2.801-11.971c-1.463-5.373-7.039-.31-8.914 3.008-1.656-17.067-4.902-34.015-9.1-50.525-9.039-35.546-23.619-70.243-43.895-100.868-.463-.699-1.086-1.028-1.768-1.114-3.256-6.439-6.883-12.587-11.07-18.172-.012-15.957-14.875-27.443-27.488-35.299-10.369-6.459-21.73-11.888-33.393-16.159-9.295-8.604-19.4-16.264-30.686-22.215-25.143-13.259-54.875-14.028-82.477-10.181-24.656 3.437-48.335 10.586-71.658 18.914a289.424 289.424 0 0 0-50.043 18.873c-.461.175-.924.35-1.387.523-.303.114-.598.318-.875.585-44.297 22.068-82.693 55.571-108.234 98.319-1.145 1.915-1.795 5.312-.268 7.218 2.074 2.591 5.25-.232 6.689-1.919a310.65 310.65 0 0 1 17.811-19.138 202.332 202.332 0 0 0-8.016 12.09c-16.691 27.25-27.598 58.567-28.527 90.664-.113 3.887 4.828.133 4.973-2.29 2.594-43.451 23.395-85.969 54.344-116.284 15.275-14.964 33.791-26.601 54.508-32.23 24.629-6.693 49.77-1.289 74.123 4.056 1.715.377 3.434.762 5.15 1.149.473.671 1.178 1.09 2.205 1.012.529-.04 1.059-.1 1.588-.149 17.803 4.079 35.742 8.531 53.82 11.356.441.278.982.486 1.648.604 1.951.346 3.928.494 5.92.477 15.826 2.037 31.758 2.621 47.791.405 18.014-2.49 35.344-8.579 53.414-10.692 9.146-1.07 18.344 6.281 27.371 8.081.861.172 1.699 3.385 2.535 3.602 8.148 10.497 15.75 11.401 22.496 22.684 26.686 44.639 37.402 96.023 42.701 147.173 1.75 16.894 3.088 33.787 3.871 50.689-.428 23.559-.48 47.122-.4 70.687a562.82 562.82 0 0 1-.859 11.847c-1.848 21.843-4.758 43.864-10.9 64.955-6.873 23.598-21.17 44.362-35.854 63.778-16.74 22.133-35.438 44.595-57.521 61.608-.379.292-.768.573-1.148.862-13.305 4.514-25.889 12.268-35.652 21.633a216.774 216.774 0 0 1-32.043 12.234c-21.211 6.232-43.635 8.749-65.63 6.052-3.857-.473-7.477 8.663-2.922 9.283 32.388 4.411 66.025-2.477 96.244-16.235.252 2.159 1.555 3.544 4.715 2.766 10.127-2.495 20.354-7.938 28.969-14.125.359.196.832.232 1.434.049.32 1.105 1.188 1.672 2.926 1.035 3.086-1.13 5.994-2.66 8.717-4.48.729.668 1.73.932 3.031.409 16.514-6.628 29.99-20.905 41.488-34.023 8.795-10.036 16.654-21.014 23.781-32.378 1.953.341 4.773-1.362 6.127-2.924 15.119-17.445 25.062-38.858 33.375-60.202 6.607-16.969 12.178-34.602 16.27-52.452-.023 6.407.143 12.804.594 19.184.309 4.347 4.41 4.388 7.068 1.9 20.829-19.483 16.878-48.42 14.142-74.098zM404.567 161.161a326.345 326.345 0 0 1 7.164-3.363c.537.704 1.385 1.211 2.639 1.411.732.117 1.463.213 2.193.299-4.025.333-8.023.88-11.996 1.653zm132.964 17.119c-.529.194-1.092.552-1.652 1.023-.545-.085-1.088-.179-1.633-.267 1.172-.268 2.34-.547 3.508-.837-.074.029-.149.054-.223.081zm42.405 1.866c-.164.524-.305 1.283-.363 2.109-2.918.198-5.852.29-8.793.287 3.211-1.683 6.281-3.413 9.15-5.035.49-.144.98-.288 1.473-.431a11.946 11.946 0 0 0-1.467 3.07zm-3.489-49.316c1.369.148 2.736.31 4.105.478a391.474 391.474 0 0 0-4.053-.1 4.097 4.097 0 0 0-.052-.378zm-46.148-14.69c1.732-3.56 2.562-7.891-.281-8.935 16.67-1.57 33.408-1.039 50.1 2.696 10.475 2.344 20.209 6.643 29.254 12.188-25.985-5.552-52.599-7.4-79.073-5.949zm93.678 57.875a819.58 819.58 0 0 0-4.881 1.114c5.561-2.562 11.127-5.06 16.848-6.965 7.85-.337 16.254-.245 24.172 1.224l.287.337c-12.239-.709-24.548 1.624-36.426 4.29zm96.158 441.505c1.107-3.519 2.434-6.971 3.76-10.327a202.312 202.312 0 0 1 3.375-7.996c2.041-3.137 3.998-6.351 5.836-9.708 2.174-3.974 4.334-7.959 6.465-11.959-5.176 13.597-11.3 27.637-19.436 39.99zm25.306-259.795a629.678 629.678 0 0 0-1.699-13.815c.717 4.462 1.416 8.928 2.092 13.396-.133.135-.264.275-.393.419zm29.963 170.125c-.359-13.695.309-27.395 1.35-41.088a395.06 395.06 0 0 1 1.43 20.254c.324 7.362-.082 14.509-2.78 20.834z"/><path d="M397.831 767.96c-1.562 23.493 7.391 45.102 23.607 61.951 14.693 15.266 43.318 29.672 64.824 24.383 3.158-.78 8.344-10.998 3.773-12.514-9.719-3.221-20.176-3.261-30.014-6.447-9.975-3.229-19.227-8.436-27.605-14.677-18.232-13.582-30.18-32.253-29.789-55.5.069-4.077-4.65.609-4.796 2.804zm256.8 109.579c2.525 8.712 6.41 16.868 9.521 25.386 3.746 10.248 5.773 21.02 7.809 31.704 4.15 21.776 5.773 44.019 9.029 65.938.16 1.085.432 3.412 1.912 3.722.434.092.873.182 1.307.275 2.719.568 4.938-2.115 5.881-4.417 3.936-9.604.404-20.831-.84-30.873-1.535-12.406-3.586-24.748-6.031-37.009-2.414-12.101-5.799-23.93-10.588-35.311-3.535-8.405-8.004-17.674-17.219-20.602-.529-.17-.891.799-.781 1.187z"/><path d="M693.164 844.96c-14.297 5.234-26.676 13.631-36.346 25.439-1.613 1.969-3.141 4.945-2.32 7.572 1.049 3.363 4.422.303 5.52-1.206 8.318-11.454 19.523-19.7 32.309-25.586 1.952-.9 4.04-7.391.837-6.219zm76.459-516.278c-2.162-6.952-9.984 5.568-9.041 9.926 16.414 75.881 13.109 179.204-19.254 250.524-30.896 68.1-90.557 117.934-163.994 133.637-82.521 17.648-173.199-4.94-231.962-66.82-59.406-62.557-74.184-150.719-66.602-233.868-3.803-2.16-7.688-4.094-11.725-5.615a546.347 546.347 0 0 0-3.217 30.232c-6.428 82.775 11.949 169.05 69.74 231.324 57.635 62.109 146.482 85.712 228.785 72.193 76.463-12.562 140-61.402 178.141-128.008 46.629-81.432 56.934-204.141 29.129-293.525z"/><path d="M725.932 382.745c-8.67-15.482-22.762-28.591-39.354-35.099-16.158-6.339-34.527-9.052-51.814-9.538-16.727-.469-25.113 40.819-11.447 38.323 16.547-3.025 33.094-3.062 49.561.599 15.836 3.521 31.943 7.87 44.643 18.484 5.479 4.582 10.805-8.492 8.411-12.769z"/><path fill="#FFF" d="M601.352 505.346c-52.945 2.478-106.787 5.958-159.402-2.274-3.682-.576-6.445 5.048-6.814 7.862-1.535 11.742 2.807 22.397 9.525 31.546-4.492 8.378-4.936 18.017 3.705 25.257 9.965 8.349 24.098 12.081 37.094 14 7.371 3.411 15.34 5.536 23.629 6.265 37.103 3.256 69.376-23.05 85.759-54.324 3.648-6.963 6.527-14.37 8.855-21.869.586-1.885.859-6.614-2.351-6.463zm-121.844 35.487a30.535 30.535 0 0 0 6.541 4.523c-4.557-.577-9.043-1.485-13.355-2.875a72.733 72.733 0 0 1 6.814-1.648zm83.816 2.019c-.363.002-.727.02-1.09.024a133.64 133.64 0 0 1 3.957-.501c-.059.549-.127 1.09-.205 1.625-.492-.719-1.338-1.157-2.662-1.148zm-101.456-9.039a42.081 42.081 0 0 1-2.322-2.797c2.846-.063 5.691-.109 8.537-.135a57.023 57.023 0 0 0-6.215 2.932zm-12.987-16.164a8.457 8.457 0 0 1-.078-.224l.588.071c-.17.048-.344.091-.51.153zm139.933 1.885c-7.82-.018-15.639-.16-23.457-.364 9.104-.391 18.213-.793 27.33-1.13-.408 1.038-.834 2.07-1.275 3.095-.441-.952-1.25-1.598-2.598-1.601zm-135.437 32.914c.289.466.596.92.893 1.382a13.479 13.479 0 0 1-1.383-1.866c.162.163.326.322.49.484z"/><path d="M410.556 489.508c31.306 20.346 72.058 25.053 108.56 25.016a276.373 276.373 0 0 0 60.616-6.834c16.916-3.837 35.516-9.517 49.706-19.862 2.623-1.912 4.592-10.494-.586-7.713-15.383 8.263-30.847 14.379-47.917 18.327-19.739 4.564-39.986 6.298-60.209 6.538-35.552.422-75.442-3.998-106.694-22.293-2.729-1.599-6.17 5.07-3.476 6.821z"/><path d="M426.369 497.613c-3.569 45.075 25.028 88.523 70.124 98.244 20.604 4.441 44.291.358 63.07-8.834 16.665-8.157 29.273-22.548 37.248-39.094 7.505-15.572 12.545-34.788 12.189-52.139-.03-1.478-1.203-2.637-2.698-2.183-2.165.657-3.387 3.098-3.754 5.153-1.832 10.238-2.754 20.442-5.594 30.504-2.479 8.779-6.029 17.329-11.019 24.987-10.516 16.141-26.917 25.894-45.413 30.313-22.267 5.321-45.521 3.649-65.56-7.815-19.553-11.186-33.67-30.556-39.837-52.048-2.678-9.332-3.52-19.195-2.892-28.863.359-5.521-5.575-1.873-5.864 1.775z"/><path d="M429.754 531.901c25.274 12.968 53.887 19.807 82.174 21.321 29.4 1.574 61.93-2.992 86.654-20.073 2.506-1.731 3.903-9.569-.527-6.939-25.911 15.383-55.176 20.269-85.021 18.725-27.365-1.415-55.153-7.776-79.932-19.604-2.783-1.329-6.082 5.168-3.348 6.57z"/><path fill="#AF543F" d="M321.104 494.843a3.254 3.254 0 0 0-.359-.991c-.049-.086-.102-.158-.152-.235-1.068-2.272-2.672-4.246-4.766-5.42-7.301-4.095-13.27 6.892-15.379 12.006-.531 1.288-1.16 5.025 1.369 4.428.98 2.477 3.404 4.285 6.367 5.54 6.703 2.839 12.844-.934 13.805-8.058.312-2.309-.01-4.897-.885-7.27zm-4.332 9.706c.148-.275.227-.395.252-.431.004.03.008.045.012.05-.016-.001-.078.038-.264.381zm.268-.94a3.425 3.425 0 0 0-.018.503 1.12 1.12 0 0 1-.408.288c-.9.356-1.854.283-2.797.181-.764-.084-1.793-.296-2.855-.636.449-.254.869-.517 1.23-.695l3.297-1.64c.432.164.941.154 1.438-.044.004.029.012.059.016.088.116.729.134 1.545.097 1.955zm38.365-9.908a3.264 3.264 0 0 0-.359-.991c-.049-.085-.102-.158-.154-.235-1.066-2.272-2.672-4.246-4.766-5.42-7.299-4.095-13.268 6.892-15.377 12.006-.531 1.288-1.16 5.025 1.367 4.428.982 2.478 3.404 4.285 6.367 5.54 6.705 2.839 12.846-.934 13.807-8.057.312-2.31-.01-4.898-.885-7.271zm-4.334 9.706a5.32 5.32 0 0 1 .254-.431c.002.03.008.046.01.05-.016-.001-.077.038-.264.381zm.269-.939a2.906 2.906 0 0 0-.018.504 1.122 1.122 0 0 1-.408.287c-.9.356-1.854.283-2.797.181-.764-.084-1.793-.296-2.855-.636.449-.254.869-.516 1.229-.695l3.297-1.64c.434.164.943.154 1.439-.044.004.029.012.06.016.088.117.729.134 1.545.097 1.955zm38.08-8.767a3.264 3.264 0 0 0-.359-.991c-.049-.085-.102-.158-.154-.235-1.066-2.272-2.67-4.246-4.764-5.42-7.301-4.095-13.27 6.892-15.379 12.006-.531 1.288-1.16 5.025 1.369 4.428.98 2.478 3.404 4.285 6.365 5.54 6.705 2.839 12.846-.934 13.807-8.057.313-2.31-.01-4.898-.885-7.271zm-4.332 9.706c.148-.275.227-.394.252-.431.004.03.008.046.012.05-.016-.001-.078.038-.264.381zm.268-.939a3.15 3.15 0 0 0-.018.504 1.122 1.122 0 0 1-.408.287c-.9.356-1.854.283-2.797.181-.764-.084-1.793-.296-2.855-.636.449-.254.869-.516 1.23-.695l3.297-1.64c.432.164.941.154 1.438-.044.004.029.012.06.016.088.116.729.134 1.545.097 1.955zm-45.117 24.264a3.264 3.264 0 0 0-.359-.991c-.049-.085-.102-.158-.154-.235-1.066-2.272-2.672-4.246-4.766-5.42-7.301-4.095-13.268 6.892-15.379 12.006-.529 1.288-1.16 5.025 1.369 4.428.982 2.478 3.404 4.285 6.367 5.54 6.705 2.839 12.846-.933 13.807-8.057.312-2.31-.01-4.898-.885-7.271zm-4.334 9.707c.15-.276.229-.395.252-.432.004.03.01.046.012.05-.016 0-.077.039-.264.382zm.269-.939a2.894 2.894 0 0 0-.018.503 1.132 1.132 0 0 1-.408.288c-.902.355-1.854.282-2.797.18-.764-.084-1.793-.295-2.855-.636.449-.254.869-.516 1.229-.695l3.297-1.64c.434.164.941.154 1.439-.044.004.029.012.06.016.088.117.729.134 1.545.097 1.956zm40.491-9.909a3.248 3.248 0 0 0-.359-.99c-.049-.086-.102-.159-.154-.236-1.066-2.272-2.67-4.246-4.764-5.42-7.301-4.095-13.27 6.892-15.379 12.006-.531 1.288-1.16 5.025 1.367 4.429.982 2.477 3.404 4.284 6.367 5.539 6.705 2.839 12.846-.933 13.807-8.057.312-2.31-.01-4.898-.885-7.271zm-4.334 9.707c.15-.276.229-.395.254-.431a.163.163 0 0 0 .01.05c-.014-.002-.077.037-.264.381zm.269-.94a3.137 3.137 0 0 0-.018.503 1.132 1.132 0 0 1-.408.288c-.9.355-1.854.282-2.797.18-.764-.083-1.793-.295-2.855-.635.449-.255.869-.517 1.23-.696l3.297-1.64c.432.164.941.154 1.438-.044.004.029.012.06.016.088.117.73.134 1.545.097 1.956zm287.05-38.347a3.254 3.254 0 0 0-.359-.991c-.049-.086-.102-.158-.154-.235-1.066-2.272-2.67-4.247-4.764-5.42-7.301-4.095-13.27 6.891-15.379 12.006-.531 1.287-1.16 5.025 1.367 4.428.982 2.477 3.404 4.285 6.367 5.54 6.705 2.839 12.846-.934 13.807-8.058.313-2.309-.01-4.897-.885-7.27zm-4.334 9.706c.15-.276.229-.395.254-.431.004.03.008.045.01.05-.014-.002-.076.038-.264.381zm.27-.94a3.138 3.138 0 0 0-.018.503 1.12 1.12 0 0 1-.408.288c-.9.356-1.854.283-2.797.181-.764-.084-1.793-.296-2.855-.636.449-.254.869-.517 1.23-.695 1.098-.547 2.197-1.094 3.297-1.64.432.164.941.154 1.438-.044.004.028.012.059.016.087.116.73.134 1.546.097 1.956zm38.365-9.908a3.254 3.254 0 0 0-.359-.991c-.049-.086-.102-.158-.154-.235-1.066-2.272-2.672-4.246-4.766-5.42-7.299-4.095-13.268 6.892-15.379 12.006-.529 1.288-1.158 5.025 1.369 4.428.982 2.478 3.404 4.285 6.367 5.54 6.705 2.839 12.846-.934 13.807-8.057.312-2.31-.01-4.898-.885-7.271zm-4.334 9.706c.15-.275.229-.395.252-.431.004.03.01.045.012.05-.016-.001-.076.038-.264.381zm.27-.939a2.896 2.896 0 0 0-.018.503 1.12 1.12 0 0 1-.408.288c-.902.356-1.854.283-2.797.181-.764-.084-1.793-.296-2.855-.636.449-.254.869-.517 1.229-.695l3.297-1.64c.434.164.941.154 1.439-.044.004.029.012.059.016.088.116.728.134 1.545.097 1.955zm38.08-8.767a3.254 3.254 0 0 0-.359-.991c-.049-.086-.102-.158-.154-.235-1.066-2.272-2.67-4.246-4.766-5.42-7.299-4.095-13.268 6.892-15.377 12.006-.531 1.288-1.16 5.025 1.367 4.428.982 2.478 3.404 4.285 6.367 5.54 6.705 2.839 12.846-.934 13.807-8.057.312-2.31-.01-4.898-.885-7.271zm-4.334 9.706c.15-.275.229-.395.254-.431.002.03.008.045.01.05-.016-.001-.077.038-.264.381zm.269-.939a3.138 3.138 0 0 0-.018.503 1.12 1.12 0 0 1-.408.288c-.9.356-1.854.283-2.797.181-.764-.084-1.793-.296-2.855-.636.449-.254.869-.517 1.229-.695l3.297-1.64c.434.164.943.154 1.439-.044.004.029.012.059.016.088.117.728.134 1.545.097 1.955zM678.785 527.9a3.307 3.307 0 0 0-.359-.991c-.051-.085-.102-.158-.154-.235-1.066-2.272-2.672-4.246-4.766-5.42-7.301-4.095-13.268 6.892-15.379 12.006-.531 1.288-1.16 5.025 1.369 4.428.982 2.478 3.404 4.285 6.367 5.54 6.705 2.839 12.846-.934 13.807-8.057.312-2.31-.01-4.898-.885-7.271zm-4.334 9.706c.15-.275.229-.395.252-.431.004.03.008.046.012.05-.016 0-.078.039-.264.381zm.27-.939a2.896 2.896 0 0 0-.018.503c-.039.044-.184.2-.408.288-.902.356-1.854.283-2.797.181-.764-.084-1.793-.296-2.855-.636.447-.254.867-.517 1.229-.695l3.297-1.64c.434.164.941.154 1.439-.044.004.029.012.059.016.088.116.728.134 1.545.097 1.955zm40.49-9.908a3.264 3.264 0 0 0-.359-.991c-.049-.085-.102-.158-.154-.235-1.066-2.272-2.672-4.246-4.766-5.42-7.299-4.095-13.268 6.892-15.377 12.006-.531 1.288-1.16 5.025 1.367 4.429.982 2.477 3.404 4.284 6.367 5.539 6.705 2.839 12.846-.933 13.807-8.057.312-2.31-.01-4.898-.885-7.271zm-4.334 9.707c.15-.276.229-.395.254-.431a.163.163 0 0 0 .01.05c-.016-.002-.077.037-.264.381zm.269-.94a2.895 2.895 0 0 0-.018.503 1.132 1.132 0 0 1-.408.288c-.9.355-1.854.282-2.797.18-.764-.083-1.793-.295-2.855-.635.449-.255.869-.517 1.229-.696l3.297-1.64c.434.164.943.154 1.439-.044.004.029.012.06.016.088.117.73.135 1.545.097 1.956z"/><path d="M390.694 416.492a32.796 32.796 0 0 0-1.023-1.256c-4.064-6.145-10.77-10.389-18.498-11.113-4.674-1.008-9.523-.907-14.084.652-3.719 1.271-7.395 3.625-9.719 6.831-10.387 7.549-12.32 22.136-4.189 33.038 10.178 13.646 29.137 14.418 42.389 5.096 11.438-8.049 13.55-22.265 5.124-33.248zm-46.233 6.847a24.657 24.657 0 0 0-.496 2.896 9.913 9.913 0 0 1 .496-2.896z"/><path fill="#163663" d="M645.248 264.625c6.75-14.955 24.111-24.47 38.355-30.887 11.033-4.971 24.104-10.222 36.76-11.554 1.586.052 3.182.159 4.787.337 20.76 2.295 36.422 14.604 48.32 31.146 23.24 32.304 34.143 72.889 43.4 111.047 11.338 46.739 20.781 93.953 26.115 141.784 6.273 56.24 7.756 114.181-3.066 169.981-4.176 21.529-8.016 46.711-25.66 61.747-5.516 4.699-14.812 10.259-22.096 5.97-6.578-3.875-9.381-10.969-9.236-17.886.42-20.335 4.365-40.694 6.818-60.847 3.193-26.249 4.607-52.174 3.904-78.621-1.537-57.731-9.625-114.748-22.334-171.041-6.355-28.149-13.875-55.974-21.137-83.894-5.254-20.198-11.424-45.856-31.705-56.351-18.443-9.545-33.684 2.917-50.639 9.506-7.156 2.781-16.086 4.407-21.146-2.957-3.719-5.412-4.141-11.497-1.44-17.48z"/><path d="M648.256 242.724c21.178-15.601 44.652-30.631 72.033-29.174 21.037 1.119 37.648 12.535 50.961 28.075 13.229 15.438 22.301 34.235 29.893 52.939 7.875 19.409 13.773 39.591 18.965 59.862 25.199 98.394 42.842 202.878 29.037 304.392a418.526 418.526 0 0 1-7.488 40.172c-2.572 10.841-5.104 21.974-10.682 31.714-7.424 12.969-23.742 29.229-39.836 21.033-7.529-3.834-13.041-13.572-14.719-21.552-1.332-6.338-.281-13.516.303-19.876 2.104-22.843 5.832-45.514 8.068-68.347 5.525-56.435-.049-114.525-9.455-170.263-4.781-28.326-11.033-56.378-17.975-84.246-3.596-14.439-7.404-28.826-11.275-43.194-3.137-11.639-5.846-23.46-9.906-34.823-3.643-10.194-9.176-19.563-18.834-24.988-8.539-4.798-17.768-2.256-26.199 1.374-14.572 6.273-31.818 19.042-46.113 5.274-11.871-11.431-12.076-28.6-2.533-41.296 10.281-13.679 27.447-22.322 42.963-28.508 12.43-4.955 26.146-9.199 39.666-8.587 3.902.177 7.188 9.39 2.895 9.195-15.029-.681-31.459 5.791-44.875 11.835-14.244 6.417-31.605 15.932-38.355 30.887-2.701 5.983-2.277 12.068 1.441 17.481 5.061 7.364 13.99 5.738 21.146 2.957 16.955-6.589 32.197-19.051 50.641-9.506 20.279 10.494 26.449 36.152 31.703 56.351 7.262 27.92 14.783 55.744 21.137 83.894 12.711 56.293 20.799 113.31 22.334 171.041.705 26.447-.711 52.372-3.904 78.621-2.453 20.152-6.396 40.512-6.818 60.847-.143 6.917 2.658 14.011 9.238 17.886 7.281 4.289 16.58-1.271 22.094-5.97 17.646-15.036 21.486-40.218 25.66-61.747 10.822-55.801 9.34-113.741 3.068-169.981-5.336-47.831-14.779-95.045-26.117-141.784-9.256-38.158-20.16-78.743-43.398-111.047-11.898-16.541-27.562-28.851-48.32-31.146-27.072-2.993-51.637 12.479-72.795 27.36-2.639 1.856-6.387-5.138-3.649-7.155z"/><path d="M684.309 409.545a32.038 32.038 0 0 0-1.023-1.256c-4.064-6.146-10.77-10.389-18.498-11.114-4.674-1.007-9.523-.906-14.084.652-3.719 1.271-7.395 3.626-9.719 6.832-10.387 7.548-12.32 22.135-4.189 33.038 10.178 13.646 29.137 14.418 42.389 5.095 11.438-8.048 13.549-22.265 5.124-33.247zm-46.233 6.846a24.657 24.657 0 0 0-.496 2.896 9.892 9.892 0 0 1 .496-2.896z"/><circle fill="#FFF" cx="373.025" cy="422.899" r="9.937"/><circle fill="#FFF" cx="651.117" cy="416.716" r="9.938"/><path fill="#D8724A" d="M836.535 453.245c-.994-4.308-2.545-8.36-4.531-12.165.912-5.605.293-11.22-3.002-15.332-3.379-4.22-7.621-4.531-11.744-3.021-6.527-5.742-14.055-10.454-21.742-14.106-12.486-5.932-26.477 11.32-29.33 26.416-4.389 4.245-8.203 8.647-11.135 12.28-6.256 7.756-11.621 23.476-4.506 32.361 7.564 9.441 19.547-.683 24.715-7.089.275-.342 1.057-1.235 1.68-1.948a67.337 67.337 0 0 1 2.703-2.614c.062 1.733.273 3.368.66 4.841.627 2.398.764 3.198.986 5.249-.83.448-1.82.915-3.225 1.663-5.756 3.067-11.664 10.775-14.672 19.062-14.232 11.632-22.094 42.453-4.02 42.453 6.277 0 12.277-4.665 16.852-11.049 11.139 7.386 24.18 8.771 35.439-3.856a67.643 67.643 0 0 0 10.93-16.692c11.887-16.274 18.641-36.102 13.942-56.453zm-54.955 27.132a9.058 9.058 0 0 0-.186.503c.059-.178.119-.354.18-.527l.006.024z"/><path fill="#61E9FF" d="M245.19 936.136c28.209 27.636 66.396 40.51 104.211 48.715 41.137 8.93 83.479 11.398 125.43 13.152 47.275 1.977 94.703 2.276 141.687-4.072 49.164-6.644 96.174-21.493 141.361-41.767 7.164-3.212 11.771-11.515 9.84-19.314-20.451-82.585-74.207-157.745-156.93-186.005-40.379-13.795-83.422-13.139-125.523-11.201-37.895 1.741-76.176 6.51-112.42 18.065-37.268 11.884-71.807 32.587-95.303 64.376-27.781 37.578-34.566 85.482-30.998 131.023 1.025 13.087 15.264 2.019 16.926-5.084 8.562-36.586 14.385-74.439 28.354-109.494 12.447-31.245 36.252-52.614 67.59-64.141 21.697-7.977 45.068-11.053 67.686-15.355 24.26-4.615 48.59-8.896 73.188-11.266 47.548-4.578 96.148-.515 137.468 25.338 36.164 22.623 64.014 62.877 78.904 102.311 6.689 17.723 11.191 38.273 6.814 57.108-4.719 20.327-20.004 32.169-37.656 41.438-41.436 21.755-91.396 25.369-137.324 25.168-46.267-.201-93.421-4.771-139.033-12.525-53.768-9.138-108.613-25.071-154.168-55.932-8.344-5.652-20.256 16.365-11.393 22.369 43.432 29.424 95.08 44.797 146.115 54.772 45.588 8.912 92.982 13.239 139.38 14.536 75.637 2.114 209.551-9.258 213.271-110.116 1.543-41.824-19.674-82.183-44.201-114.699-28.01-37.135-65.678-61.651-111.404-70.785-46.963-9.384-96.099-1.647-142.591 6.779-41.545 7.53-86.307 12.542-121.109 38.585-54.279 40.612-61.725 113.949-76.051 175.166 5.639-1.696 11.281-3.39 16.924-5.085-2.926-37.31 1.057-76.28 23.412-107.478 19.256-26.869 49.494-43.195 80.199-53.527 36.125-12.155 74.539-16.503 112.441-18.245 42.63-1.961 85.798-2.124 126.347 12.837 76.643 28.274 125.324 99.963 144.369 176.879 3.281-6.437 6.561-12.875 9.84-19.314-43.605 19.562-88.871 34.067-136.225 41.052-46.279 6.828-93.477 6.167-140.089 4.282-40.109-1.619-80.295-4.122-119.799-11.628-37.254-7.077-77.209-19.482-104.934-46.644-8.325-8.157-21.573 12.902-14.606 19.726z"/><path fill="#61E9FF" d="M265.495 883.878c18.537-22.32 33.895-43.608 52.828-61.797 19.598-18.83 44.754-31.079 73.129-38.088-1.014-13.365-2.027-26.73-3.045-40.096-42.41 38.777-94.146 68.115-125.742 117.604-5.223 8.177-10.041 18.55-6.609 28.448 3.129 9.031 11.184 8.22 18.285 4.909 36.791-17.145 68.648-43.087 101.855-66.042 31.793-21.979 66.951-43.896 106.436-47.123L483.989 741c-32.893 33.949-77.457 55.175-118.727 80.338-44.693 27.248-86.58 61.023-109.012 109.583-4.893 10.595-7.715 33.272 10.656 29.755 24.885-4.768 47.697-18.942 68.352-33.002 22.891-15.59 44.297-33.234 66.512-49.745 22.742-16.902 47.443-31.212 71.457-46.211 28.006-17.494 56.791-33.995 89.115-41.932-4.4-7.853-8.801-15.706-13.199-23.561-.438 1.357-3.498 9.185-.707 2.554-.979 2.326-2.125 4.578-3.287 6.819-.625 1.202-5.143 8.472-1.4 2.618-1.785 2.791-3.754 5.46-5.756 8.098-1.645 2.173-3.398 4.258-5.164 6.333 3.529-4.149-2.354 2.415-3.012 3.099-4.566 4.744-9.451 9.182-14.423 13.498-9.84 8.542-17.666 14.115-29.418 22.159-12.434 8.511-25.244 16.468-38.109 24.308-47.102 28.695-100.529 54.868-137.662 96.727-6.941 7.826-12.506 17.277-11.678 28.192.646 8.516 6.174 13.774 14.723 11.904 58.873-12.881 106.617-55.56 152.998-91.353 24.385-18.819 49.604-34.711 76.417-49.812 30.846-17.37 61.641-34.911 90.83-54.987l-15.191-27.66a172.082 172.082 0 0 1-7.549 14.555c2.764-4.773-1.289 1.963-1.564 2.385-1.779 2.698-3.684 5.314-5.602 7.916-7.744 10.514-12.797 15.742-22.82 25.445-18.436 17.84-38.387 32.511-59.598 46.875-41.787 28.303-86.537 51.92-128.326 80.201-8.658 5.856-14.596 15.635-15.939 26.021-1.014 7.85 3.35 22.635 14.547 17.518 47.357-21.645 95.709-41.195 141.57-65.975 23.254-12.564 45.623-26.737 66.586-42.851 21.164-16.271 39.738-36.068 62.85-49.675l-11.676-33.359c-53.109 66.568-124.469 115.358-194.216 162.801-9.951 6.77-17.045 19.386-16.117 31.636.881 11.569 9.82 14.575 19.262 9.812 82.943-41.842 153.261-108.814 241.658-139.832-3.553-9.917-7.104-19.836-10.654-29.754a124.245 124.245 0 0 1-2.26 4.289c-3.74 6.925 2.781-4.037-1.496 2.556-2.633 4.06-5.605 7.888-8.662 11.635-1.223 1.503-3.889 4.316-7.539 7.931-3.547 3.51-7.301 6.809-11.094 10.047-13.953 11.907-32.162 23.257-49.057 33.658-35.141 21.637-72.402 42.257-100.55 73.051-7.021 7.684-12.5 17.388-11.68 28.192.627 8.253 6.203 14.11 14.725 11.905 76.457-19.781 135.248-77.177 204.39-112.156-5.912-7.156-11.824-14.311-17.734-21.468-.357 1.493-3.221 9.065-.471 2.743a52.731 52.731 0 0 1-1.768 3.496c1.836-2.816 1.941-2.993.318-.535-1.568 2.361-3.379 4.562-5.191 6.738 3.078-3.695-3.055 2.936-3.689 3.556-9.541 9.312-18.021 15.116-29.242 22.761-22.057 15.029-45.668 28.234-65.664 46.082-7.482 6.678-12.439 18.139-11.678 28.189.541 7.118 6.449 15.543 14.725 11.906 46.279-20.349 91.873-45.24 141.924-55.033 18.725-3.664 31.773-50.689 5.928-45.632-50.049 9.794-95.643 34.686-141.924 55.032 1.016 13.365 2.029 26.731 3.045 40.098 5.537-4.941 4.949-4.388 10.49-8.4 5.879-4.262 11.955-8.258 18.027-12.244 13.057-8.567 26.258-16.913 38.959-26.01 24.697-17.688 51.135-40.342 58.535-71.257 3.211-13.419-.953-29.958-17.736-21.468-66.033 33.406-122.412 89.106-195.316 107.971 1.016 13.365 2.029 26.729 3.047 40.097 27.9-30.528 65.195-49.562 100.727-71.782 37.908-23.706 74.311-51.471 95.15-92.071 4.41-8.593 7.527-36.133-10.656-29.753-91.9 32.246-164.619 100.578-250.73 144.016l3.145 41.447c76.548-52.067 153.046-105.982 211.279-178.975 5.842-7.318 9.803-19.232 6.609-28.447-2.941-8.489-11.428-8.949-18.285-4.911-22.893 13.476-41.559 32.365-62.061 48.987-19.898 16.136-42.123 29.582-64.496 41.961-43.646 24.154-90.068 42.658-135.375 63.363-.463 14.514-.928 29.026-1.393 43.539 44.1-29.843 91.338-54.713 135.228-84.91 45.309-31.176 90.91-68.959 114.324-120.036 3.189-6.958 5.73-15.144 3.094-22.751-2.803-8.085-11.65-9.475-18.285-4.91-53.531 36.816-113.141 63.401-164.818 102.929-44.635 34.141-89.854 76.675-146.354 89.036 1.016 13.364 2.029 26.731 3.045 40.099 18.373-20.716 36.27-32.721 59.555-47.741 25.555-16.484 52.043-31.469 77.922-47.427 48.918-30.163 103.224-66.648 121.767-124.118 3.275-10.148 1.385-27.142-13.197-23.561-32.018 7.86-61.443 23.755-89.457 40.734-24.844 15.061-50.238 30.062-73.869 46.978-22.287 15.953-43.416 33.464-65.729 49.397-20.08 14.342-41.73 29.06-66.379 33.778 3.553 9.918 7.102 19.838 10.656 29.754 9.361-20.267 19.559-32.668 37.725-48.709 16.133-14.246 36.25-26.811 56.031-38.642 41.211-24.645 84.965-47.003 118.76-81.885 6.018-6.211 10.381-13.891 11.502-22.579.809-6.249-.984-18.863-10.143-18.114-89.809 7.335-148.715 82.447-226.172 118.547 3.891 11.119 7.785 22.239 11.676 33.359 28.824-45.142 78.324-72.446 117.557-108.314 7.434-6.801 12.445-18.051 11.678-28.193-.635-8.329-6.193-14.01-14.725-11.904-32.92 8.13-62.332 23.299-87.602 45.93-24.414 21.865-43.645 49.207-64.494 74.312-6.354 7.648-11.557 23.556-4.504 32.362 7.611 9.508 19.465-.773 24.711-7.088z"/><path fill="#D8724A" d="M426.143 725.927c-3.428 19.219-1.688 39.82 10.273 55.874 9.883 13.263 26.682 19.439 42.594 20.892 39.404 3.604 77.824-22.93 94.121-57.746 3.551-7.586 8.424-24.375-2.223-29.307-17.885-8.285-41.711-4.292-59.984.243-25.543 6.339-53.156 27.12-46.287 56.989 2.346 10.205 13.148 16.589 22.047 20.324 13.408 5.627 29.281 4.917 42.494-.796 15.758-6.813 28.957-19.445 35.773-35.339 8.318-19.389 7.623-37.711-2.416-56.158-5.795-10.646-20.797 1.797-24.713 7.089-6.975 9.421-10.285 21.745-4.506 32.362 1.453 2.668 2.061 5.323 2.312 7.906-.355-3.652-1.207 4.439.238-.88 1.713-6.301-2.41 2.851 1.289-2.528 2.76-4.01-.959.867-1.756 1.58 2.928-2.617-2.656 1.342-2.834 1.442-.506.282-6.053 2.038-8.414 2.276-8.25.829-15.289-1.439-22.349-5.49-3.584-2.06-1.742-.355-4.342-3.803 4.322 5.728-1.008 19.304-7.232 26.158 1.6-1.482.98-1.072-1.859 1.229 1.016-.787 2.139-1.432 3.242-2.082.781-.461 5.033-2.368.674-.451 1.459-.642 2.963-1.18 4.463-1.722 6.715-2.427 13.777-3.896 20.812-5.022 2.744-.439 11.805-.971 17.027-.869 3.096.061 6.176.371 9.234.844.678.103 4.979 1.306 1.113.166 1.102.323 2.143.788 3.18 1.27-.74-9.771-1.48-19.539-2.223-29.309a62.535 62.535 0 0 1-1.658 3.406c-2.887 5.719 3.18-4.6-.322.691-1.014 1.535-2.158 2.98-3.301 4.426 3.723-4.704.021-.092-.809.751-.941.957-7.867 6.562-3.842 3.566-2.889 2.147-6.002 3.976-9.16 5.688-2.029 1.001-2.129 1.082-.291.249-1.621.739-3.289 1.369-4.955 1.998-3.303 1.25-6.72 2.172-10.154 2.975-4.676 1.094-3.744.828-7.572 1.114-3.359.252-6.73.157-10.084-.065-7.078-.473-8.969-1.097-14.568-3.426-2.359-.986-4.58-2.256-6.744-3.605-3.127-1.951-1.623-.756-4.844-4.161-1.756-1.858-3.205-3.973-4.562-6.13 1.916 3.045-.539-1.349-.715-1.767-.65-1.528-1.115-3.126-1.584-4.715-1.545-5.265.424 3.671-.363-1.997-.258-1.865-.318-3.755-.385-5.635-.219-6.327-.408 4.125.199-2.527.203-2.208.6-4.396.988-6.576 1.643-9.209-3.486-20.877-14.549-17.517-11.803 3.585-18.475 16.907-20.473 28.115z"/><path fill="#D8724A" d="M454.932 728.645c-.986 37.416 28.834 66.38 66.111 64.927 46.533-1.81 75.205-49.053 67.742-92.542-1.785-10.394-9.324-15.942-19.262-9.812-9.402 5.799-18.072 20.227-16.115 31.634.695 4.05 1.133 8.068 1.248 12.179-.164-5.863-2.076 10.713-.064 2.317-.373 1.559-.91 3.071-1.449 4.575 2.475-6.93.842-2.278-.027-.648 3.488-6.536 1.449-2.361.277-.785-3.102 4.18 3.906-4.013.268-.36-.92.925-4.785 3.909.088.22-1.129.855-2.346 1.598-3.555 2.337-.814.498-5.133 2.56-.537.485-1.305.589-2.662 1.061-4.014 1.532-2.738.953-5.588 1.55-8.439 2.037 3.414-.584-4.4.082-5.848.065-6.922-.081-10.59-1.029-14.863-2.541-2.804-.991-5.48-2.309-8.085-3.734-1.303-.711-2.541-1.533-3.777-2.353-.273-.181-4.053-3.179-1.479-.995-2.285-1.939-4.283-4.188-6.154-6.519-.951-1.184-1.781-2.46-2.609-3.731-2.695-4.141 1.32 2.988-.82-1.554-1.387-2.941-2.297-6.081-3.051-9.235 1 4.188-.006-1.402-.059-1.938-.25-2.452-.213-4.924-.148-7.383.295-11.23-10.768-15.053-19.262-9.812-10.892 6.717-15.795 19.416-16.117 31.634z"/><path fill="#163663" d="M545.248 264.625c6.75-14.955 24.111-24.47 38.355-30.887 11.033-4.971 24.104-10.222 36.76-11.554 1.586.052 3.182.159 4.787.337 20.76 2.295 36.422 14.604 48.32 31.146 23.24 32.304 34.143 72.889 43.4 111.047 11.338 46.739 20.781 93.953 26.115 141.784 6.273 56.24 7.756 114.181-3.066 169.981-4.176 21.529-8.016 46.711-25.66 61.747-5.516 4.699-14.812 10.259-22.096 5.97-6.578-3.875-9.381-10.969-9.236-17.886.42-20.335 4.365-40.694 6.818-60.847 3.193-26.249 4.607-52.174 3.904-78.621-1.537-57.731-9.625-114.748-22.334-171.041-6.355-28.149-13.875-55.974-21.137-83.894-5.254-20.198-11.424-45.856-31.705-56.351-18.443-9.545-33.684 2.917-50.639 9.506-7.156 2.781-16.086 4.407-21.146-2.957-3.719-5.412-4.141-11.497-1.44-17.48z"/><path d="M548.256 242.724c21.178-15.601 44.652-30.631 72.033-29.174 21.037 1.119 37.648 12.535 50.961 28.075 13.229 15.438 22.301 34.235 29.893 52.939 7.875 19.409 13.773 39.591 18.965 59.862 25.199 98.394 42.842 202.878 29.037 304.392a418.526 418.526 0 0 1-7.488 40.172c-2.572 10.841-5.104 21.974-10.682 31.714-7.424 12.969-23.742 29.229-39.836 21.033-7.529-3.834-13.041-13.572-14.719-21.552-1.332-6.338-.281-13.516.303-19.876 2.104-22.843 5.832-45.514 8.068-68.347 5.525-56.435-.049-114.525-9.455-170.263-4.781-28.326-11.033-56.378-17.975-84.246-3.596-14.439-7.404-28.826-11.275-43.194-3.137-11.639-5.846-23.46-9.906-34.823-3.643-10.194-9.176-19.563-18.834-24.988-8.539-4.798-17.768-2.256-26.199 1.374-14.572 6.273-31.818 19.042-46.113 5.274-11.871-11.431-12.076-28.6-2.533-41.296 10.281-13.679 27.447-22.322 42.963-28.508 12.43-4.955 26.146-9.199 39.666-8.587 3.902.177 7.188 9.39 2.895 9.195-15.029-.681-31.459 5.791-44.875 11.835-14.244 6.417-31.605 15.932-38.355 30.887-2.701 5.983-2.277 12.068 1.441 17.481 5.061 7.364 13.99 5.738 21.146 2.957 16.955-6.589 32.197-19.051 50.641-9.506 20.279 10.494 26.449 36.152 31.703 56.351 7.262 27.92 14.783 55.744 21.137 83.894 12.711 56.293 20.799 113.31 22.334 171.041.705 26.447-.711 52.372-3.904 78.621-2.453 20.152-6.396 40.512-6.818 60.847-.143 6.917 2.658 14.011 9.238 17.886 7.281 4.289 16.58-1.271 22.094-5.97 17.646-15.036 21.486-40.218 25.66-61.747 10.822-55.801 9.34-113.741 3.068-169.981-5.336-47.831-14.779-95.045-26.117-141.784-9.256-38.158-20.16-78.743-43.398-111.047-11.898-16.541-27.562-28.851-48.32-31.146-27.072-2.993-51.637 12.479-72.795 27.36-2.639 1.856-6.387-5.138-3.649-7.155z"/><path fill="#163663" d="M472.997 282.106c-5.061 7.364-13.99 5.738-21.146 2.957-16.955-6.589-32.197-19.051-50.641-9.506-20.279 10.494-26.449 36.152-31.703 56.351-7.262 27.92-14.783 55.744-21.137 83.894-12.711 56.293-20.799 113.31-22.334 171.041-.705 26.447.711 52.372 3.904 78.621 2.453 20.152 6.396 40.512 6.818 60.847.143 6.917-2.658 14.011-9.238 17.886-7.281 4.289-16.58-1.271-22.094-5.97-17.646-15.036-21.486-40.218-25.66-61.747-10.822-55.801-9.34-113.741-3.068-169.981 5.336-47.831 14.779-95.045 26.117-141.784 9.256-38.158 20.16-78.743 43.398-111.047 11.898-16.541 27.562-28.851 48.32-31.146a61.733 61.733 0 0 1 4.789-.337c12.654 1.332 25.727 6.583 36.76 11.554 14.244 6.417 31.605 15.932 38.355 30.887 2.702 5.982 2.278 12.067-1.44 17.48z"/><path d="M471.428 242.724c-21.178-15.601-44.652-30.631-72.031-29.174-21.037 1.119-37.648 12.535-50.963 28.075-13.227 15.438-22.301 34.235-29.891 52.939-7.877 19.409-13.773 39.591-18.967 59.862-25.197 98.394-42.842 202.878-29.037 304.392a418.526 418.526 0 0 0 7.488 40.172c2.574 10.841 5.105 21.974 10.682 31.714 7.426 12.969 23.742 29.229 39.838 21.033 7.527-3.834 13.039-13.572 14.717-21.552 1.332-6.338.283-13.516-.303-19.876-2.104-22.843-5.832-45.514-8.068-68.347-5.525-56.435.049-114.525 9.455-170.263 4.781-28.326 11.035-56.378 17.975-84.246 3.596-14.439 7.404-28.826 11.277-43.194 3.137-11.639 5.844-23.46 9.904-34.823 3.643-10.194 9.178-19.563 18.834-24.988 8.539-4.798 17.77-2.256 26.199 1.374 14.572 6.273 31.818 19.042 46.115 5.274 11.869-11.431 12.074-28.6 2.531-41.296-10.281-13.679-27.447-22.322-42.961-28.508-12.43-4.955-26.146-9.199-39.666-8.587-3.904.177-7.189 9.39-2.895 9.195 15.027-.681 31.457 5.791 44.873 11.835 14.244 6.417 31.605 15.932 38.355 30.887 2.701 5.983 2.279 12.068-1.441 17.481-5.061 7.364-13.99 5.738-21.146 2.957-16.955-6.589-32.195-19.051-50.639-9.506-20.281 10.494-26.451 36.152-31.705 56.351-7.262 27.92-14.781 55.744-21.137 83.894-12.709 56.293-20.797 113.31-22.334 171.041-.703 26.447.711 52.372 3.904 78.621 2.453 20.152 6.398 40.512 6.818 60.847.145 6.917-2.658 14.011-9.236 17.886-7.283 4.289-16.58-1.271-22.096-5.97-17.645-15.036-21.484-40.218-25.66-61.747-10.822-55.801-9.34-113.741-3.066-169.981 5.334-47.831 14.777-95.045 26.115-141.784 9.258-38.158 20.16-78.743 43.4-111.047 11.898-16.541 27.561-28.851 48.32-31.146 27.07-2.993 51.637 12.479 72.793 27.36 2.641 1.856 6.388-5.138 3.649-7.155zm295.39 195.507c13.316-7.887 33.178-15.497 46.85-3.977 11.104 9.358 13.49 26.323 13.334 39.948-.162 14.29-4.23 30.228-13.947 41.07-12.492 13.938-27.689 8.783-43.189 4.597-4.715-1.273-10.902 9.55-7.086 12.718 16.02 13.305 38.199 8.848 52.131-4.865 14.266-14.046 20.793-36.021 21.857-55.52.922-16.852-1.711-37.682-15.947-48.85-17.637-13.835-39.738.121-54.156 11.98-.849.698-1.737 4.021.153 2.899z"/><g fill="#D8724A"><path d="M379.459 701.478h-.001l-.002.005z"/><path d="M797.812 334.123c-3.17-3.605-7.756-4.728-12.898-3.096l-1.912.609.002-.11-.408.24c-15.396 4.919-25.334 4.067-35.094 2.235 1.883-6.193 3.328-12.573 4.41-19.04.893-.027 1.824-.321 2.635-.821 3.502-2.159 5.453-6.514 5.363-10.526-.443-19.767-2.98-39.506-8.307-58.34-1.678-7.98-4.225-15.751-8.039-22.714-5.541-12.852-12.654-25.057-21.611-36.286-23.143-29.02-57.553-46.833-92.826-56.364-19.701-5.323-39.922-8.312-60.262-9.728-23.719-1.65-47.621-1.396-71.056 2.913a168.91 168.91 0 0 0-9.588 2.066c-32.154 1.16-64.023 7.439-93.164 21.653a155.763 155.763 0 0 0-8.02 4.213c-14.715 5.546-29.023 12.096-42.549 19.956-18.424 10.71-35.971 24.834-46.137 43.928-7.381 13.858-8.896 29.238-5.287 43.877-3.191 13.717-3.002 28.048.812 41.891-11.949 8.369-23.43 17.492-34.232 27.625-6.432 6.033-10.955 14.909-12.096 23.742-.516 3.998-.264 12.048 3.961 16.854 2.102 2.39 4.918 3.567 8.186 3.436 10.369-.471 21.049-1.733 32.311-3.83-9.037 4.474-17.227 9.131-24.768 14.079-8.934 5.861-15.369 16.355-16.795 27.39-.637 4.924.002 12.248 3.9 16.683 2.074 2.36 4.879 3.609 8.166 3.609 20.27-.085-.438 7.823 22.607 4.386-26.27 11.311-11.592 14.084-38.039 28.963-9.953 5.598-15.664 17.824-16.908 27.458-.824 6.375.627 12.395 3.883 16.097 3.107 3.54 7.717 4.81 13.025 3.546 21.668-5.139 40.684-9.81 58.15-14.295a1906.74 1906.74 0 0 0-12.742 5.497l-1.123.277-.037.247c-11.1 5.278-18.963 16.357-20.621 29.18-.822 6.384.621 12.418 3.896 16.141 3.117 3.545 7.691 4.801 12.988 3.499l2.275-.57c-.471.242-1.041.484-1.508.729l-.436.057v.062c0 .612-2.156 1.223-3.338 1.833-9.436 4.884-15.471 17.523-16.76 27.489-.824 6.389.643 12.437 3.932 16.177 3.121 3.552 7.719 4.792 13.004 3.459a818.227 818.227 0 0 0 33.68-9.297c-8.07 7.854-15.143 24.628-12.393 35.149 1.811 6.925 7.596 10.176 16.166 8.943a452.883 452.883 0 0 0 23.934-4.103c-3.107 4.892-5.168 10.524-5.914 16.289-.613 4.746.117 11.938 4.199 16.58 3.18 3.617 7.766 4.712 12.873 3.016 3.65-1.215 7.305-2.426 10.959-3.627-4.143 5.471-6.885 12.022-7.758 18.779-.84 6.506.451 12.076 3.639 15.702 3.037 3.456 7.65 4.83 13.135 3.941.727-.118 1.453-.272 2.178-.394l.139-.23c7.389-1.205 14.791-2.702 22.201-3.936-3.891 8.699-5.832 18.562-2.086 24.814 1.037 1.735 2.865 3.129 5.998 3.789 1.262.485 2.742.747 4.459.749l.053.001a893.254 893.254 0 0 0 17.523-.219c11.189.09 22.309.108 33.229-.557.662 5.695 3.514 11.029 8.162 13.082 13.195 5.822 27.986 8.776 43.959 8.776 34.019 0 68.527-13.329 91.523-23.355 43.732-19.067 83.361-44.085 119.674-68.284l1.008-.566-.008-.123c10.389-7.428 16.943-20.723 16.031-32.738-.641-8.448-5.805-13.908-13.15-13.908-.473 0-.953.024-1.436.072 11.74-9.396 21.574-19.582 29.807-30.845 5.689-7.784 10.482-19.812 6.875-30.22-1.521-4.387-4.705-7.357-8.803-8.362a274.08 274.08 0 0 0 6.289-5.745c8.242-7.771 13.061-19.446 12.279-29.745-.531-6.993-5.211-14.424-12.836-14.424-1.467 0-2.98.288-4.496.858-2.307.869-4.637 1.741-6.984 2.616 8.076-5.675 14.068-15.88 15.439-26.491.643-4.979-.447-12.366-4.359-16.818-3.209-3.648-7.783-4.655-12.791-2.75-.6.229-1.207.459-1.814.688l.012-.331-1.33.825c-.979.365-1.967.731-2.963 1.098a382.784 382.784 0 0 0 19.818-16.88c6.424-5.862 10.951-14.745 12.117-23.758.686-5.322-.256-12.555-3.91-16.714a10.326 10.326 0 0 0-3.557-2.646 920.89 920.89 0 0 0 19.553-11.128c9.965-5.835 15.654-17.986 16.879-27.441.811-6.24-.82-12.72-4.147-16.508zm-429.46-132.21c-9.047 8.726-18.008 17.532-27.105 26.192a137.73 137.73 0 0 1 8.689-11.723c2.109-2.549 4.549-5.193 7.186-7.825 5.238-4.355 10.836-8.295 16.664-11.859l-1.482 1.415a29.968 29.968 0 0 0-3.952 3.8zm-49.769 46.949c5.027-13.864 11.576-27.104 19.969-39.22 4.172-3.811 8.596-7.339 13.207-10.63-13.336 14.12-23.916 30.52-31.559 48.424-.539.475-1.075.955-1.617 1.426zm374.245-67.887c.643.534 1.281 1.069 1.914 1.614a3 3 0 0 0-1.178-.411c-.246-.401-.486-.806-.736-1.203zm12.455 146.454c.516 1.153 1.018 2.313 1.523 3.472-1.301.003-2.912.01-4.701.018a84.6 84.6 0 0 0 3.178-3.49zm16.578-113.845a13.045 13.045 0 0 0-.676 4.25c.023 2.13.117 4.246.273 6.352-6.643-14.55-15.766-28.014-25.551-40.554-.031-.039-.064-.068-.096-.106 9.843 8.635 18.63 18.608 26.05 30.058zm-418.919 18.251c.102-.714.234-1.422.367-2.13.209-1.107-.104.29.381-1.544 1.486-5.623 3.674-9.76 6.578-13.982 3.838-5.583 7.312-9.157 12.633-13.91 7.061-6.309 14.908-11.806 23.232-16.671a176.316 176.316 0 0 0-9.971 11.893c-13.225 11.132-24.836 24.017-33.49 39.023-.018.032-.035.065-.055.098.089-.928.194-1.855.325-2.777zm112.769 51.249l3.047-1.36c.051.124.104.248.154.372-1.07.329-2.14.656-3.201.988zm102.35-5.98c4.633 2.546 9.162 5.283 13.607 8.1a670.306 670.306 0 0 1 5.34 3.424c-6.678-2.938-12.93-5.966-18.73-9.197-.03-.799-.11-1.571-.217-2.327zm18.468 151.522c9.59-7.252 18.555-14.698 27.01-22.428a309.019 309.019 0 0 0 15.826 3.27 2904.67 2904.67 0 0 0-42.836 19.158z"/></g><path fill="#AF543F" d="M494.805 656.845c10.592 1.711 20.766.734 31.068-2.095 5.395-1.481 10.488-3.878 15.365-6.571.354-.193.879-.545 1.494-.982.748-.263 1.496-.525 2.236-.805 7.348-2.778 12.109-5.85 14.918-11.723.482-.755.932-1.529 1.26-2.377 1.164-2.998 4.061-12.777-2.236-12.67-3.758.066-6.346 2.702-9.016 5.11-22.172 6.731-47.927 7.124-66.533-8.358-5.348-4.45-11.912 2.514-14.262 10.05a63.271 63.271 0 0 1-13.117-15.25c-2.037-3.31-6.949 4.933-5.805 7.517 8.333 18.755 23.636 34.764 44.628 38.154zm65.007 80.634c-16.977 9.396-36.629 13.057-55.9 12.413-19.217-.638-40.719-5.316-52.43-21.901-3.625-5.137-9.713 7.626-8.566 11.097 15.125 45.843 74.296 51.2 112.343 32.148 7.975-3.994 12.996-13.203 14.152-21.824.704-5.241-1.673-16.318-9.599-11.933z"/><path d="M451.004 613.408c16.156 12.849 32.699 21.597 53.266 24.566 17.427 2.516 41.076-.349 54.132-13.042 1.883-1.832 7.256-14.66.652-13.878-7.916.938-15.389 6.407-23.082 8.882-8.693 2.795-18.141 3.223-27.187 2.924-18.689-.619-38.305-7.329-55.104-15.196-2.22-1.039-4.452 4.331-2.677 5.744zm-21.291 116.007c-7.357 23.324-6 48.375 11.625 66.727 15.729 16.375 39.301 23.002 61.438 22.734 23.218-.276 46.558-8.233 63.343-24.536 8.725-8.472 15.01-19.888 18.123-31.587 2.557-9.615 5.152-27.68-4.422-33.931-3.625-2.37-6.92 6.034-7.311 8.112-1.787 9.545-.406 20.277-3.047 28.952-.787 2.591-1.793 4.412-4.299 7.944-1.033 1.459-4.6 4.976-7.016 6.908-14.961 11.98-34.551 16.592-53.398 16.873-18.965.288-38.832-3.793-54.105-15.543-16.658-12.82-19.979-34.323-16.004-53.822.995-4.881-4.102-1.443-4.927 1.169z"/><path d="M430.983 726.157c-54.822.247-117.066.188-153.336 48.793-16.062 21.521-24.553 47.162-29.545 73.281-4.988 26.1-7.357 53.925-4.398 80.294.617 5.493 5.512-1.244 5.947-3.479 9.01-46.166 5.857-97.842 34.004-138.139 31.83-45.578 95.953-38.383 143.709-48.636 3.863-.827 9.318-12.14 3.619-12.114zm148.171 16.862c25.975-2.047 53.766-.77 78.453 8.193 22.232 8.074 39.203 23.765 53.193 42.377 14.912 19.84 23.699 42.742 31.984 65.893 8.434 23.56 15.244 47.988 20.029 72.541 1.451 7.441 11.471-5.1 10.748-9.889-7.92-52.324-17.111-105.021-49.637-148.474-14.332-19.148-34.842-33.885-57.566-41.216-29.037-9.365-58.381-4.057-86.301 6.431-1.055.398-2.784 4.29-.903 4.144z"/><path d="M286.913 872.368c10.135.893 21.982 4.648 26.447 14.707 4.115 9.277 3.918 21.041 3.707 30.995-.242 11.271-1.914 22.522-3.064 33.724-.865 8.432-3.957 22.137 1.301 29.492 5.48 7.666 13.588-9.482 14.127-13.037 1.561-10.289-.322-21.812-.041-32.314.324-11.943.707-23.929-.814-35.811-1.285-10.018-5.039-18.528-12.383-25.534-8.062-7.687-18.754-6.891-28.797-4.432-.649.161-1.472 2.124-.483 2.21zm27.043-479.709c10.471-10.106 24.627-14.167 38.461-17.367 14.287-3.305 29.547-3.822 43.951-1.013 18.314 3.571 30.031-38.168 14.393-37.758-39.062 1.029-78.959 13.062-101.184 47.426-2.961 4.577-2.543 15.391 4.379 8.712z"/><path fill="#08B5F9" d="M689.014 862.675c.156-.312.285-.611.447-.925.748-1.449 1.627-7.64-1.914-5.926-.938.455-1.844.942-2.746 1.439a3.929 3.929 0 0 0-1.531-.262c-.77.054-1.537.108-2.307.165-3.949.277-6.506 4.021-7.863 7.946-3.16 2.408-6.27 4.903-9.5 7.319-1.67 1.248-2.988 7.277.277 5.217 2.721-1.717 5.365-3.554 8.051-5.303.1 2.772.854 5.414 1.932 7.993-9.258 32.94 8.152 69.389 12.926 102.696 2.23 15.559 16.678-2.788 17.49-10.235 4.066-37.269 4.027-76.9-15.262-110.124zm-203.916-11.086c-20.152 1.044-39.613-9.461-53.875-22.957-6.699-6.338-12.254-13.81-17.078-21.635-4.906-7.963-6.951-17.979-12.586-25.346-.805-1.018-1.854-1.508-3.15-1.469-.693.098-1.336.257-1.949.448-.736-3.864-1.279-7.702-1.541-11.481-.449-6.468-6.752 2.038-6.883 5.171-.207 4.952.049 9.942.576 14.932-1.961 6.183-1.27 14.105.143 19.256 1.516 5.53 3.928 10.919 6.82 16.082 4.188 16.167 9.826 31.948 18.203 46.465 6.934 12.019 17.139 24.756 31.652 27.076 17.889 2.856 32.375-13.836 40.697-27.412 2.084-3.401 8.338-19.614-1.029-19.13z"/><path fill="#AF543F" d="M786.598 471.405c-1.338-12.549-3.232-25.021-5.531-37.42 1.518-21.832 1.887-43.617-1.561-65.316.156-.757.314-1.514.471-2.27.365-1.765-.268-3.838-1.689-4.635a173.592 173.592 0 0 0-2.801-11.971c-1.463-5.373-7.039-.31-8.914 3.008-1.656-17.067-4.902-34.015-9.1-50.525-9.039-35.546-23.619-70.243-43.895-100.868-.463-.699-1.086-1.028-1.768-1.114-3.256-6.439-6.883-12.587-11.07-18.172-.012-15.957-14.875-27.443-27.488-35.299-10.369-6.459-21.73-11.888-33.393-16.159-9.295-8.604-19.4-16.264-30.686-22.215-25.143-13.259-54.875-14.028-82.477-10.181-24.656 3.437-48.335 10.586-71.658 18.914a289.424 289.424 0 0 0-50.043 18.873c-.461.175-.924.35-1.387.523-.303.114-.598.318-.875.585-44.297 22.068-82.693 55.571-108.234 98.319-1.145 1.915-1.795 5.312-.268 7.218 2.074 2.591 5.25-.232 6.689-1.919a310.65 310.65 0 0 1 17.811-19.138 202.332 202.332 0 0 0-8.016 12.09c-16.691 27.25-27.598 58.567-28.527 90.664-.113 3.887 4.828.133 4.973-2.29 2.594-43.451 23.395-85.969 54.344-116.284 15.275-14.964 33.791-26.601 54.508-32.23 24.629-6.693 49.77-1.289 74.123 4.056 1.715.377 3.434.762 5.15 1.149.473.671 1.178 1.09 2.205 1.012.529-.04 1.059-.1 1.588-.149 17.803 4.079 35.742 8.531 53.82 11.356.441.278.982.486 1.648.604 1.951.346 3.928.494 5.92.477 15.826 2.037 31.758 2.621 47.791.405 18.014-2.49 35.344-8.579 53.414-10.692 9.146-1.07 18.344 6.281 27.371 8.081.861.172 1.699 3.385 2.535 3.602 8.148 10.497 15.75 11.401 22.496 22.684 26.686 44.639 37.402 96.023 42.701 147.173 1.75 16.894 3.088 33.787 3.871 50.689-.428 23.559-.48 47.122-.4 70.687a562.82 562.82 0 0 1-.859 11.847c-1.848 21.843-4.758 43.864-10.9 64.955-6.873 23.598-21.17 44.362-35.854 63.778-16.74 22.133-35.438 44.595-57.521 61.608-.379.292-.768.573-1.148.862-13.305 4.514-25.889 12.268-35.652 21.633a216.774 216.774 0 0 1-32.043 12.234c-21.211 6.232-43.635 8.749-65.63 6.052-3.857-.473-7.477 8.663-2.922 9.283 32.388 4.411 66.025-2.477 96.244-16.235.252 2.159 1.555 3.544 4.715 2.766 10.127-2.495 20.354-7.938 28.969-14.125.359.196.832.232 1.434.049.32 1.105 1.188 1.672 2.926 1.035 3.086-1.13 5.994-2.66 8.717-4.48.729.668 1.73.932 3.031.409 16.514-6.628 29.99-20.905 41.488-34.023 8.795-10.036 16.654-21.014 23.781-32.378 1.953.341 4.773-1.362 6.127-2.924 15.119-17.445 25.062-38.858 33.375-60.202 6.607-16.969 12.178-34.602 16.27-52.452-.023 6.407.143 12.804.594 19.184.309 4.347 4.41 4.388 7.068 1.9 20.829-19.483 16.878-48.42 14.142-74.098zM404.567 161.161a326.345 326.345 0 0 1 7.164-3.363c.537.704 1.385 1.211 2.639 1.411.732.117 1.463.213 2.193.299-4.025.333-8.023.88-11.996 1.653zm132.964 17.119c-.529.194-1.092.552-1.652 1.023-.545-.085-1.088-.179-1.633-.267 1.172-.268 2.34-.547 3.508-.837-.074.029-.149.054-.223.081zm42.405 1.866c-.164.524-.305 1.283-.363 2.109-2.918.198-5.852.29-8.793.287 3.211-1.683 6.281-3.413 9.15-5.035.49-.144.98-.288 1.473-.431a11.946 11.946 0 0 0-1.467 3.07zm-3.489-49.316c1.369.148 2.736.31 4.105.478a391.474 391.474 0 0 0-4.053-.1 4.097 4.097 0 0 0-.052-.378zm-46.148-14.69c1.732-3.56 2.562-7.891-.281-8.935 16.67-1.57 33.408-1.039 50.1 2.696 10.475 2.344 20.209 6.643 29.254 12.188-25.985-5.552-52.599-7.4-79.073-5.949zm93.678 57.875a819.58 819.58 0 0 0-4.881 1.114c5.561-2.562 11.127-5.06 16.848-6.965 7.85-.337 16.254-.245 24.172 1.224l.287.337c-12.239-.709-24.548 1.624-36.426 4.29zm96.158 441.505c1.107-3.519 2.434-6.971 3.76-10.327a202.312 202.312 0 0 1 3.375-7.996c2.041-3.137 3.998-6.351 5.836-9.708 2.174-3.974 4.334-7.959 6.465-11.959-5.176 13.597-11.3 27.637-19.436 39.99zm25.306-259.795a629.678 629.678 0 0 0-1.699-13.815c.717 4.462 1.416 8.928 2.092 13.396-.133.135-.264.275-.393.419zm29.963 170.125c-.359-13.695.309-27.395 1.35-41.088a395.06 395.06 0 0 1 1.43 20.254c.324 7.362-.082 14.509-2.78 20.834z"/><path d="M397.831 767.96c-1.562 23.493 7.391 45.102 23.607 61.951 14.693 15.266 43.318 29.672 64.824 24.383 3.158-.78 8.344-10.998 3.773-12.514-9.719-3.221-20.176-3.261-30.014-6.447-9.975-3.229-19.227-8.436-27.605-14.677-18.232-13.582-30.18-32.253-29.789-55.5.069-4.077-4.65.609-4.796 2.804zm256.8 109.579c2.525 8.712 6.41 16.868 9.521 25.386 3.746 10.248 5.773 21.02 7.809 31.704 4.15 21.776 5.773 44.019 9.029 65.938.16 1.085.432 3.412 1.912 3.722.434.092.873.182 1.307.275 2.719.568 4.938-2.115 5.881-4.417 3.936-9.604.404-20.831-.84-30.873-1.535-12.406-3.586-24.748-6.031-37.009-2.414-12.101-5.799-23.93-10.588-35.311-3.535-8.405-8.004-17.674-17.219-20.602-.529-.17-.891.799-.781 1.187z"/><path d="M693.164 844.96c-14.297 5.234-26.676 13.631-36.346 25.439-1.613 1.969-3.141 4.945-2.32 7.572 1.049 3.363 4.422.303 5.52-1.206 8.318-11.454 19.523-19.7 32.309-25.586 1.952-.9 4.04-7.391.837-6.219zm32.768-462.215c-8.67-15.482-22.762-28.591-39.354-35.099-16.158-6.339-34.527-9.052-51.814-9.538-16.727-.469-25.113 40.819-11.447 38.323 16.547-3.025 33.094-3.062 49.561.599 15.836 3.521 31.943 7.87 44.643 18.484 5.479 4.582 10.805-8.492 8.411-12.769z"/><path fill="#AF543F" d="M321.104 494.843a3.254 3.254 0 0 0-.359-.991c-.049-.086-.102-.158-.152-.235-1.068-2.272-2.672-4.246-4.766-5.42-7.301-4.095-13.27 6.892-15.379 12.006-.531 1.288-1.16 5.025 1.369 4.428.98 2.477 3.404 4.285 6.367 5.54 6.703 2.839 12.844-.934 13.805-8.058.312-2.309-.01-4.897-.885-7.27zm-4.332 9.706c.148-.275.227-.395.252-.431.004.03.008.045.012.05-.016-.001-.078.038-.264.381zm.268-.94a3.425 3.425 0 0 0-.018.503 1.12 1.12 0 0 1-.408.288c-.9.356-1.854.283-2.797.181-.764-.084-1.793-.296-2.855-.636.449-.254.869-.517 1.23-.695l3.297-1.64c.432.164.941.154 1.438-.044.004.029.012.059.016.088.116.729.134 1.545.097 1.955zm38.365-9.908a3.264 3.264 0 0 0-.359-.991c-.049-.085-.102-.158-.154-.235-1.066-2.272-2.672-4.246-4.766-5.42-7.299-4.095-13.268 6.892-15.377 12.006-.531 1.288-1.16 5.025 1.367 4.428.982 2.478 3.404 4.285 6.367 5.54 6.705 2.839 12.846-.934 13.807-8.057.312-2.31-.01-4.898-.885-7.271zm-4.334 9.706a5.32 5.32 0 0 1 .254-.431c.002.03.008.046.01.05-.016-.001-.077.038-.264.381zm.269-.939a2.906 2.906 0 0 0-.018.504 1.122 1.122 0 0 1-.408.287c-.9.356-1.854.283-2.797.181-.764-.084-1.793-.296-2.855-.636.449-.254.869-.516 1.229-.695l3.297-1.64c.434.164.943.154 1.439-.044.004.029.012.06.016.088.117.729.134 1.545.097 1.955zm38.08-8.767a3.264 3.264 0 0 0-.359-.991c-.049-.085-.102-.158-.154-.235-1.066-2.272-2.67-4.246-4.764-5.42-7.301-4.095-13.27 6.892-15.379 12.006-.531 1.288-1.16 5.025 1.369 4.428.98 2.478 3.404 4.285 6.365 5.54 6.705 2.839 12.846-.934 13.807-8.057.313-2.31-.01-4.898-.885-7.271zm-4.332 9.706c.148-.275.227-.394.252-.431.004.03.008.046.012.05-.016-.001-.078.038-.264.381zm.268-.939a3.15 3.15 0 0 0-.018.504 1.122 1.122 0 0 1-.408.287c-.9.356-1.854.283-2.797.181-.764-.084-1.793-.296-2.855-.636.449-.254.869-.516 1.23-.695l3.297-1.64c.432.164.941.154 1.438-.044.004.029.012.06.016.088.116.729.134 1.545.097 1.955zm-45.117 24.264a3.264 3.264 0 0 0-.359-.991c-.049-.085-.102-.158-.154-.235-1.066-2.272-2.672-4.246-4.766-5.42-7.301-4.095-13.268 6.892-15.379 12.006-.529 1.288-1.16 5.025 1.369 4.428.982 2.478 3.404 4.285 6.367 5.54 6.705 2.839 12.846-.933 13.807-8.057.312-2.31-.01-4.898-.885-7.271zm-4.334 9.707c.15-.276.229-.395.252-.432.004.03.01.046.012.05-.016 0-.077.039-.264.382zm.269-.939a2.894 2.894 0 0 0-.018.503 1.132 1.132 0 0 1-.408.288c-.902.355-1.854.282-2.797.18-.764-.084-1.793-.295-2.855-.636.449-.254.869-.516 1.229-.695l3.297-1.64c.434.164.941.154 1.439-.044.004.029.012.06.016.088.117.729.134 1.545.097 1.956zm40.491-9.909a3.248 3.248 0 0 0-.359-.99c-.049-.086-.102-.159-.154-.236-1.066-2.272-2.67-4.246-4.764-5.42-7.301-4.095-13.27 6.892-15.379 12.006-.531 1.288-1.16 5.025 1.367 4.429.982 2.477 3.404 4.284 6.367 5.539 6.705 2.839 12.846-.933 13.807-8.057.312-2.31-.01-4.898-.885-7.271zm-4.334 9.707c.15-.276.229-.395.254-.431a.163.163 0 0 0 .01.05c-.014-.002-.077.037-.264.381zm.269-.94a3.137 3.137 0 0 0-.018.503 1.132 1.132 0 0 1-.408.288c-.9.355-1.854.282-2.797.18-.764-.083-1.793-.295-2.855-.635.449-.255.869-.517 1.23-.696l3.297-1.64c.432.164.941.154 1.438-.044.004.029.012.06.016.088.117.73.134 1.545.097 1.956zm287.05-38.347a3.254 3.254 0 0 0-.359-.991c-.049-.086-.102-.158-.154-.235-1.066-2.272-2.67-4.247-4.764-5.42-7.301-4.095-13.27 6.891-15.379 12.006-.531 1.287-1.16 5.025 1.367 4.428.982 2.477 3.404 4.285 6.367 5.54 6.705 2.839 12.846-.934 13.807-8.058.313-2.309-.01-4.897-.885-7.27zm-4.334 9.706c.15-.276.229-.395.254-.431.004.03.008.045.01.05-.014-.002-.076.038-.264.381zm.27-.94a3.138 3.138 0 0 0-.018.503 1.12 1.12 0 0 1-.408.288c-.9.356-1.854.283-2.797.181-.764-.084-1.793-.296-2.855-.636.449-.254.869-.517 1.23-.695 1.098-.547 2.197-1.094 3.297-1.64.432.164.941.154 1.438-.044.004.028.012.059.016.087.116.73.134 1.546.097 1.956zm38.365-9.908a3.254 3.254 0 0 0-.359-.991c-.049-.086-.102-.158-.154-.235-1.066-2.272-2.672-4.246-4.766-5.42-7.299-4.095-13.268 6.892-15.379 12.006-.529 1.288-1.158 5.025 1.369 4.428.982 2.478 3.404 4.285 6.367 5.54 6.705 2.839 12.846-.934 13.807-8.057.312-2.31-.01-4.898-.885-7.271zm-4.334 9.706c.15-.275.229-.395.252-.431.004.03.01.045.012.05-.016-.001-.076.038-.264.381zm.27-.939a2.896 2.896 0 0 0-.018.503 1.12 1.12 0 0 1-.408.288c-.902.356-1.854.283-2.797.181-.764-.084-1.793-.296-2.855-.636.449-.254.869-.517 1.229-.695l3.297-1.64c.434.164.941.154 1.439-.044.004.029.012.059.016.088.116.728.134 1.545.097 1.955zm38.08-8.767a3.254 3.254 0 0 0-.359-.991c-.049-.086-.102-.158-.154-.235-1.066-2.272-2.67-4.246-4.766-5.42-7.299-4.095-13.268 6.892-15.377 12.006-.531 1.288-1.16 5.025 1.367 4.428.982 2.478 3.404 4.285 6.367 5.54 6.705 2.839 12.846-.934 13.807-8.057.312-2.31-.01-4.898-.885-7.271zm-4.334 9.706c.15-.275.229-.395.254-.431.002.03.008.045.01.05-.016-.001-.077.038-.264.381zm.269-.939a3.138 3.138 0 0 0-.018.503 1.12 1.12 0 0 1-.408.288c-.9.356-1.854.283-2.797.181-.764-.084-1.793-.296-2.855-.636.449-.254.869-.517 1.229-.695l3.297-1.64c.434.164.943.154 1.439-.044.004.029.012.059.016.088.117.728.134 1.545.097 1.955zM678.785 527.9a3.307 3.307 0 0 0-.359-.991c-.051-.085-.102-.158-.154-.235-1.066-2.272-2.672-4.246-4.766-5.42-7.301-4.095-13.268 6.892-15.379 12.006-.531 1.288-1.16 5.025 1.369 4.428.982 2.478 3.404 4.285 6.367 5.54 6.705 2.839 12.846-.934 13.807-8.057.312-2.31-.01-4.898-.885-7.271zm-4.334 9.706c.15-.275.229-.395.252-.431.004.03.008.046.012.05-.016 0-.078.039-.264.381zm.27-.939a2.896 2.896 0 0 0-.018.503c-.039.044-.184.2-.408.288-.902.356-1.854.283-2.797.181-.764-.084-1.793-.296-2.855-.636.447-.254.867-.517 1.229-.695l3.297-1.64c.434.164.941.154 1.439-.044.004.029.012.059.016.088.116.728.134 1.545.097 1.955zm40.49-9.908a3.264 3.264 0 0 0-.359-.991c-.049-.085-.102-.158-.154-.235-1.066-2.272-2.672-4.246-4.766-5.42-7.299-4.095-13.268 6.892-15.377 12.006-.531 1.288-1.16 5.025 1.367 4.429.982 2.477 3.404 4.284 6.367 5.539 6.705 2.839 12.846-.933 13.807-8.057.312-2.31-.01-4.898-.885-7.271zm-4.334 9.707c.15-.276.229-.395.254-.431a.163.163 0 0 0 .01.05c-.016-.002-.077.037-.264.381zm.269-.94a2.895 2.895 0 0 0-.018.503 1.132 1.132 0 0 1-.408.288c-.9.355-1.854.282-2.797.18-.764-.083-1.793-.295-2.855-.635.449-.255.869-.517 1.229-.696l3.297-1.64c.434.164.943.154 1.439-.044.004.029.012.06.016.088.117.73.135 1.545.097 1.956z"/><path d="M390.694 416.492a32.796 32.796 0 0 0-1.023-1.256c-4.064-6.145-10.77-10.389-18.498-11.113-4.674-1.008-9.523-.907-14.084.652-3.719 1.271-7.395 3.625-9.719 6.831-10.387 7.549-12.32 22.136-4.189 33.038 10.178 13.646 29.137 14.418 42.389 5.096 11.438-8.049 13.55-22.265 5.124-33.248zm-46.233 6.847a24.657 24.657 0 0 0-.496 2.896 9.913 9.913 0 0 1 .496-2.896zm339.848-13.794a32.038 32.038 0 0 0-1.023-1.256c-4.064-6.146-10.77-10.389-18.498-11.114-4.674-1.007-9.523-.906-14.084.652-3.719 1.271-7.395 3.626-9.719 6.832-10.387 7.548-12.32 22.135-4.189 33.038 10.178 13.646 29.137 14.418 42.389 5.095 11.438-8.048 13.549-22.265 5.124-33.247zm-46.233 6.846a24.657 24.657 0 0 0-.496 2.896 9.892 9.892 0 0 1 .496-2.896z"/><circle fill="#FFF" cx="373.025" cy="422.899" r="9.937"/><circle fill="#FFF" cx="651.117" cy="416.716" r="9.938"/><path d="M775.326 491.701c3-8.01 9.141-13.527 17.529-15.325 7.561-1.621 13.389 2.263 20.381 3.94 4.396 1.052 9.088-7.856 6.219-11.16-7.213-8.31-20.26-7.871-29.645-3.849-10.564 4.526-17.23 16.016-20.068 26.619-1.722 6.428 4.016 3.974 5.584-.225z"/><path d="M772.17 497.414c4.053-1.549 11.523-4.254 14.668.328 1.094 1.595.43 3.976.145 5.689-.551 3.327-2.059 6.404-2.633 9.768-.467 2.737 1.75 3.557 3.527 1.646 5.275-5.674 9.553-17.358 4.949-24.647-4.393-6.958-15.639-.724-20.422 2.099-1.351.795-2.922 6.145-.234 5.117z"/><path fill="#D8724A" d="M278.792 443.124c-11.854-11.278-29.717-26.236-47.5-19.114-19.982 8.004-30.584 30.456-32.344 50.896-2.154 25.044 8.139 74.387 43.639 64.443 14.562-4.079 26.188-17.309 34.598-29.106 5.842-8.193 11.885-23.146 4.506-32.361-7.346-9.168-19.885.314-24.713 7.09a112.02 112.02 0 0 1-4.512 5.917c-2.859 3.49 4.123-4.516 1.174-1.342-.689.74-1.418 1.446-2.143 2.149a49.274 49.274 0 0 1-2.104 1.881c-2.857 2.458 4.65-3.444 1.699-1.335-1.248.895-2.586 1.651-3.957 2.335 6.354-3.169 2.094-1.011.156-.539-2.693.654 4.717-.495 2.016-.238-.576.056-1.154.046-1.732.034-1.691-.03-5.639-1.307.188.388-1.25-.363-2.424-.953-3.547-1.604-3.627-2.103.348.535-.027.199-.918-.817-1.736-1.742-2.523-2.683-.836-.994-1.574-2.066-2.283-3.151-.369-.566-.709-1.151-1.047-1.732-1.393-2.396 2.271 4.503.502.821-1.27-2.646-2.248-5.426-3.09-8.235-.436-1.457-.795-2.938-1.129-4.422-.723-3.209.965 5.131.383 1.888a73.193 73.193 0 0 1-.463-3.047c-.408-3.024-.574-6.077-.574-9.125 0-3.444-.252 6.057-.09 2.643.035-.731.098-1.458.16-2.188.121-1.413.326-2.818.566-4.218.809-4.743-1.885 7.018-.266 1.447.182-.622.395-1.231.609-1.838 1.178-3.337-3.029 7.079-1.594 3.889 2.418-5.385-2.342 3.391-1.475 2.114 2.99-4.401-5.064 4.818-1.152 1.372-5.551 4.888-4.371 3.257-2.717 2.18 1.324-.857 3.977-1.849-2.645 1.111 1.006-.45 2.084-.713 3.162-.912-6.217 1.151-2.156.323-.209.467.662.049 1.314.164 1.967.277 2.521.437-4.395-1.371-.523-.109 3.424 1.117 6.6 2.941 9.609 4.881 1.891 1.217 3.686 2.577 5.455 3.962-3.27-2.559.152.156.668.605 1.398 1.215 2.744 2.485 4.084 3.762 8.455 8.044 19.006.625 24.713-7.088 5.219-7.051 12.758-24.51 4.505-32.364z"/><path d="M271.952 438.337c-16.93-11.129-40.549-21.137-59.012-7.528-14.914 10.99-18.947 32.213-17.875 49.574 1.145 18.529 8.605 38.585 23.252 50.618 16.221 13.327 41.195 12.075 55.881-3.098 1.23-1.272 5.396-11.109.484-10.288-8.979 1.501-16.549 6.603-25.898 7.139-7.598.434-14.766-2.007-21.076-6.113-13.158-8.571-20.6-25.307-23.043-40.304-2.014-12.372-1.691-28.75 8.818-37.452 15.406-12.76 39.564-1.785 54.516 5.931 3.072 1.583 6.861-6.567 3.953-8.479z"/><path d="M224.588 483.276c6.201-7.625 14.506-13.452 24.623-13.581 11.156-.141 13.627 9.752 17.852 17.849 1.928 3.696 6.182-4.48 6.338-5.848 1.418-12.438-4.85-24.827-18.639-25.071-13.508-.241-25.654 11.18-32.785 21.459-1.863 2.687-.947 9.567 2.611 5.192z"/><path d="M273.838 476.988c-8.041-.33-18.123-.412-23.812 6.317-5.627 6.656-4.52 16.731.307 23.532 2.068 2.915 5.455-4.321 4.838-6.263-.883-2.766-4.992-10.04-2.025-12.604 4.723-4.083 12.904-4.193 18.76-4.504 2.344-.123 4.829-6.36 1.932-6.478z"/><path d="M769.623 328.682c-2.162-6.952-9.984 5.568-9.041 9.926 16.414 75.881 13.109 179.204-19.254 250.524-30.896 68.1-90.557 117.934-163.994 133.637-82.521 17.648-183.199-4.94-241.962-66.82-59.406-62.557-64.184-230.719-56.602-313.868-3.803-2.16-7.688-4.094-11.725-5.615-1.35 10.062-2.432 100.149-3.217 110.232-6.428 82.775 11.949 169.05 69.74 231.324 57.635 62.109 146.482 85.712 228.785 72.193 76.463-12.562 140-61.402 178.141-128.008 46.629-81.432 56.934-204.141 29.129-293.525z"/><path fill="#163663" d="M451.624 214.536c-3.982-11.828-13.342-21.447-21.906-30.143-8.059-8.181-16.951-15.607-26.729-21.649-13.783-8.517-29.492-13.241-45.59-14.542-16.332-1.319-34.324-.386-48.898 7.757-11.791 6.587-21.703 19.26-20.143 33.316.514 4.636 2.676 9.726 7.174 11.713 4.236 1.872 8.678-.502 12.039-3.353 23.375-7.597 45.699 6.145 63.887 20.441 17.455 13.723 34.061 32.084 58.314 30.654 18.176-1.07 27.455-17.552 21.852-34.194zm-148.405-21.875"/><path d="M301.625 200.472c24.785-10.583 48.586 3.904 67.781 18.994 17.455 13.722 34.061 32.083 58.314 30.653 18.176-1.07 27.455-17.554 21.852-34.195-3.982-11.828-13.342-21.447-21.906-30.143-8.059-8.181-16.951-15.607-26.729-21.648-13.783-8.517-29.492-13.242-45.59-14.542-16.332-1.319-34.324-.386-48.898 7.756-11.791 6.587-21.703 19.26-20.143 33.317.514 4.636 2.676 9.725 7.174 11.713 5.24 2.315 10.799-1.866 14.232-5.411 1.432-1.478 2.693-3.844 1.977-5.958-.666-1.974-2.922-1.51-4.1-.296-2.525 2.603-5.559 5.044-9.156 2.988-3.188-1.82-3.822-6.581-3.875-9.829-.18-10.903 12.533-18.914 21.406-22.198 11.645-4.311 24.863-4.32 37.102-3.631 12.068.679 23.818 3.639 34.818 8.612 10.641 4.812 20.268 11.71 28.961 19.449 9.5 8.457 18.943 18.087 25.424 29.088 3.576 6.07 7.947 17.261.918 22.603-7.227 5.49-18.117 4.083-26.18 1.646-10.502-3.176-18.947-9.593-27.168-16.592-8.482-7.224-17.018-14.392-26.266-20.63-18.104-12.213-39.053-18.487-59.672-8.749-2.373 1.122-3.817 8.515-.276 7.003z"/><path fill="#163663" d="M372.997 302.106c-5.061 7.364-13.99 5.738-21.146 2.957-16.955-6.589-32.197-19.051-50.641-9.506-20.279 10.494-26.449 36.152-31.703 56.351-7.262 27.92-14.783 55.744-21.137 83.894-12.711 56.293-20.799 113.31-22.334 171.041-.705 26.447.711 52.372 3.904 78.621 2.453 20.152 6.396 40.512 6.818 60.847.143 6.917-2.658 14.011-9.238 17.886-7.281 4.289-16.58-1.271-22.094-5.97-17.646-15.036-21.486-40.218-25.66-61.747-10.822-55.801-9.34-113.741-3.068-169.981 5.336-47.831 14.779-95.045 26.117-141.784 9.256-38.158 20.16-78.743 43.398-111.047 11.898-16.541 27.562-28.851 48.32-31.146a61.733 61.733 0 0 1 4.789-.337c12.654 1.332 25.727 6.583 36.76 11.554 14.244 6.417 31.605 15.932 38.355 30.887 2.702 5.982 2.278 12.067-1.44 17.48z"/><path d="M371.428 262.724c-21.178-15.601-44.652-30.631-72.031-29.174-21.037 1.119-37.648 12.535-50.963 28.075-13.227 15.438-22.301 34.235-29.891 52.939-7.877 19.409-13.773 39.591-18.967 59.862-25.197 98.394-42.842 202.877-29.037 304.392a418.526 418.526 0 0 0 7.488 40.172c2.574 10.841 5.105 21.974 10.682 31.714 7.426 12.969 23.742 29.229 39.838 21.033 7.527-3.834 13.039-13.572 14.717-21.552 1.332-6.338.283-13.516-.303-19.876-2.104-22.843-5.832-45.514-8.068-68.347-5.525-56.435.049-114.525 9.455-170.263 4.781-28.326 11.035-56.378 17.975-84.246 3.596-14.439 7.404-28.826 11.277-43.194 3.137-11.639 5.844-23.46 9.904-34.823 3.643-10.194 9.178-19.563 18.834-24.988 8.539-4.798 17.77-2.256 26.199 1.374 14.572 6.273 31.818 19.042 46.115 5.274 11.869-11.431 12.074-28.6 2.531-41.296-10.281-13.679-27.447-22.322-42.961-28.508-12.43-4.955-26.146-9.199-39.666-8.587-3.904.177-7.189 9.39-2.895 9.195 15.027-.681 31.457 5.791 44.873 11.835 14.244 6.417 31.605 15.932 38.355 30.887 2.701 5.983 2.279 12.068-1.441 17.481-5.061 7.364-13.99 5.738-21.146 2.957-16.955-6.589-32.195-19.051-50.639-9.506-20.281 10.494-26.451 36.152-31.705 56.351-7.262 27.92-14.781 55.744-21.137 83.894-12.709 56.293-20.797 113.31-22.334 171.041-.703 26.447.711 52.372 3.904 78.621 2.453 20.152 6.398 40.512 6.818 60.847.145 6.917-2.658 14.011-9.236 17.886-7.283 4.289-16.58-1.271-22.096-5.97-17.645-15.036-21.484-40.218-25.66-61.747-10.822-55.801-9.34-113.741-3.066-169.981 5.334-47.831 14.777-95.045 26.115-141.784 9.258-38.158 20.16-78.743 43.4-111.047 11.898-16.541 27.561-28.851 48.32-31.146 27.07-2.993 51.637 12.479 72.793 27.36 2.641 1.856 6.388-5.138 3.649-7.155z"/><path fill="#163663" d="M629.447 142.974c90.623 81.887 136.191 190.609 187.26 298.769 11.273 23.302 26.463 109.845 71.248 77.197 24.826-18.099-29.791-139.234-51.889-181.438-30.047-54.73-61.418-111.549-97.615-161.203-15.9-25.054-41.924-51.295-67.924-66.423-23.799-15.353-69.328-4.03-41.529 28.698"/><path fill="#000205" d="M627.001 146.276c83.41 76.331 130.914 179.479 178.016 280.12 3.999 8.543 8.41 16.964 11.69 25.819 2.455 6.626 4.586 13.372 6.872 20.057 5.095 14.896 10.63 30.238 19.876 43.133 7.771 10.84 19.251 17.953 32.748 13.73 12.84-4.016 20.253-13.08 21.168-26.322 1.047-15.151-3.154-30.751-7.275-45.179-5.479-19.185-12.602-37.905-20.186-56.344-16.072-39.072-35.616-75.939-56.287-112.749-15.169-27.012-30.835-53.757-47.682-79.761-8.229-12.701-17.497-24.751-25.646-37.478-7.666-11.974-16.888-22.949-26.796-33.118-9.873-10.135-20.78-19.333-32.483-27.285-8.213-5.579-16.349-10.074-26.236-11.664-13.974-2.247-33.01 1.798-37.201 17.435-2.555 9.534 2.749 18.575 8.632 25.666 2.771 3.341 7.986-4.618 5.574-7.525-4.008-4.832-11.505-14.378-6.633-20.846 4.11-5.457 13.579-6.373 19.761-6.416 9.1-.064 17.124 2.809 24.86 7.36 12.601 7.413 24 16.791 34.511 26.905 21.064 20.27 37.22 45.343 53.245 69.624 17.049 25.831 32.754 52.53 48.002 79.454 21.252 37.527 41.303 75.145 57.864 114.991 7.668 18.448 14.745 37.196 20.376 56.373 4.122 14.039 8.593 29.695 7.062 44.487-.526 5.098-1.537 7.319-4.979 9.666-5.89 4.016-12.652 6.399-19.783 5.003-13.55-2.654-21.678-19.17-26.796-30.365-6.406-14.014-10.688-28.842-15.868-43.321-2.973-8.31-7.021-16.169-10.761-24.151-5.935-12.667-11.837-25.35-17.789-38.01-42.079-89.494-88.393-178.842-162.965-245.892-2.919-2.628-7.282 4.415-4.891 6.603z"/><path d="M414.893 139.248c23.277 1.146 42.986 22.4 57.568 40.012 7.084 8.556 13.564 17.677 19.445 27.237 5.172 8.412 11.016 19.351 20.402 22.761 10.046 3.648 20.472-7.135 25.013-15.736 6.264-11.866 2.42-23.784-3.605-34.696-13.541-24.526-30.412-46.036-52.8-61.501-23.223-16.039-55.75-28.8-79.463-6.946-5.686 5.239-18.725 20.218-11.168 29 6.07 7.057 20.199 2.694 27.254.409 3.471-1.124 5.859-10.944 1.131-9.423-5.617 1.809-18.271 6.075-23.178.367-2.021-2.351 3.227-7.605 4.412-9.015 5.045-5.992 10.877-9.909 18.096-12.039 12.125-3.579 24.809-.227 36.16 4.616 11.596 4.946 22.443 11.806 32.393 19.9 10.914 8.879 20.381 19.768 28.488 31.619 3.763 5.5 7.089 11.356 10.562 17.073 3.67 6.045 7.418 12.554 8.236 19.875.795 7.094-5.264 13.325-10.521 16.511-4.604 2.789-9.771-.065-13.31-3.391-7.816-7.344-12.697-18.159-18.803-27.059-9.514-13.866-20.328-26.975-32.67-37.961-11.68-10.397-25.545-20.131-41.217-19.959-3.175.036-6.21 8.16-2.425 8.346z"/><path fill="#163663" d="M522.369 217.884c-4.604 2.79-9.771-.065-13.31-3.391-7.816-7.344-12.697-18.158-18.803-27.058-9.514-13.866-20.328-26.975-32.67-37.962-10.762-9.579-23.379-18.589-37.553-19.812-.387-.732-1.125-1.067-2.312-.685-5.617 1.808-18.271 6.075-23.178.367-2.021-2.352 3.227-7.606 4.412-9.016 5.045-5.991 10.877-9.908 18.096-12.039 12.125-3.579 24.809-.226 36.16 4.616 11.596 4.946 22.443 11.806 32.393 19.9 10.914 8.88 20.381 19.768 28.488 31.62 3.763 5.5 7.089 11.355 10.562 17.072 3.67 6.046 7.418 12.555 8.236 19.876.796 7.096-5.263 13.327-10.521 16.512z"/><path d="M504.485 107.95c27.515 10.146 43.72 32.233 52.804 55.296 4.596 11.664 15.508 39.673 37.062 32.509 20.846-6.928 15.143-32.241 11.699-45.933-4.838-19.231-14.926-38.053-30.836-52.68-11.52-10.591-28.434-20.533-46.371-19.706-16.259.75-27.13 12.396-28.835 25.31-.213 1.61.643 3.714 3.076 3.097 2.525-.641 3.867-2.986 4.334-4.97 2.41-10.302 10.724-15.515 23.384-14.673 16.447 1.093 30.91 11.198 41.115 21.258 16.285 16.05 25.037 36.742 28.729 57.319 1.215 6.771 3.359 16.773-3.705 21.957-5.879 4.313-14.537-.993-18.508-4.607-6.682-6.078-10.127-14.228-12.941-21.975-3.012-8.292-6.98-16.395-11.963-23.996-10.201-15.561-24.693-28.649-44.605-35.487-3.808-1.309-8.123 5.922-4.439 7.281z"/><path fill="#163663" d="M595.992 185.347c-5.879 4.313-14.537-.994-18.508-4.607-6.682-6.078-10.127-14.228-12.941-21.976-3.012-8.291-6.98-16.394-11.963-23.996-10.201-15.561-24.693-28.649-44.605-35.487a2.954 2.954 0 0 0-1.416-.119c2.51-10.081 10.771-15.182 23.294-14.35 16.447 1.094 30.91 11.199 41.115 21.259 16.285 16.05 25.037 36.741 28.729 57.318 1.215 6.77 3.36 16.773-3.705 21.958z"/><path d="M664.23 499.149c-10.586-6.273-23.109-6.549-34.768-3.479-2.59.683-4.623 7.332-.855 6.576 4.613-.926 9.205-1.206 13.676-.763-5.205 20.134-12.836 38.486-28.236 53.065-14.609 13.829-33.76 21.578-53.186 25.738-21.105 4.521-42.855 4.448-64.189 1.723-21.25-2.716-42.316-8.664-61.008-19.299-18.568-10.564-33.502-26.732-40.725-46.99-.004-.01-.008-.017-.01-.026a26.307 26.307 0 0 1 5.555-1.911c3.471-.768 6.133-9.412 1.125-8.652-11.623 1.766-27.615 10.803-27.654 24.234-.012 4.012 4.607 1.393 5.475-.695.105-.254.227-.491.34-.737.572-.188 1.215-.635 1.904-1.442 2.27-2.659 4.752-5.154 7.5-7.254-.174.714-.203 1.396-.018 1.957 13.811 42.113 56.08 62.084 96.904 69.423 39.824 7.158 85.802 3.86 119.792-20.004 22.453-15.764 37.635-41.144 42.381-68.076a37.4 37.4 0 0 1 11.604 5.23c3.2 2.158 7.981-6.491 4.393-8.618z"/></svg>