<svg xmlns="http://www.w3.org/2000/svg" xmlns:xlink="http://www.w3.org/1999/xlink" width="1030" height="1030" viewBox="0 0 1030 1030"><defs><path id="a" d="M1020.379 512.91c0 279.116-226.266 505.377-505.379 505.377-279.111 0-505.377-226.264-505.377-505.377C9.623 233.796 235.888 7.531 515 7.531c279.113 0 505.379 226.265 505.379 505.379z"/></defs><use xlink:href="#a" overflow="visible" fill="#FFBF1F"/><clipPath id="b"><use xlink:href="#a" overflow="visible"/></clipPath><g clip-path="url(#b)"><path fill="#FFBF1F" d="M1021.414 515.123c0 279.116-226.266 505.377-505.379 505.377-279.112 0-505.377-226.264-505.377-505.377S236.924 9.745 516.035 9.745c279.113-.001 505.379 226.264 505.379 505.378z"/><path fill="#FC9E17" d="M64.591 299.248c65.699-60.766 147.473-101.363 226.168-142.393 40.814-21.281 80.746-43.73 120.539-66.854 43.205-25.111 87.469-49.598 136.053-62.561-.955-12.573-1.91-25.146-2.863-37.722C469.49 60.869 382.009 116.708 296.63 174.3c-43.967 29.658-87.432 59.996-129.213 92.682-20.033 15.672-39.123 32.311-60.043 46.828-21.764 15.1-44.412 28.885-66.553 43.41-20.463 13.42-40.42 27.699-58.93 43.736-7.094 6.145-11.697 17.17-10.986 26.521.547 7.209 5.93 13.973 13.848 11.199 98.168-34.393 184.332-95.652 268.734-154.941 42.164-29.617 84.252-59.42 128.115-86.494 19.998-12.342 40.242-24.098 59.857-37.074 21.045-13.918 41.816-28.238 62.965-42 37.358-24.314 76.481-48.123 120.034-59.316l-6.715-33.35c-3.625 4.497-11.992 11.267-18.965 15.919-10 6.669-20.648 12.365-31.156 18.177-23.027 12.742-45.092 27.219-67.553 40.936-51.305 31.332-102.533 62.797-153.852 94.113-51.111 31.188-102.326 62.211-153.791 92.816-45.84 27.262-92.238 53.613-137.738 81.449-57.197 34.99-113.604 73.15-161.328 120.578-6.828 6.783-11.732 16.688-10.986 26.52.559 7.365 5.898 13.781 13.85 11.199 51.945-16.86 99.75-43.61 147.504-69.639 50.273-27.404 102.162-51.779 153.584-76.934 106.725-52.203 213.545-104.201 320.028-156.898 43.588-21.572 87.408-42.348 128.738-68.076 36.969-23.018 73.674-48.996 115.463-62.539-.955-12.574-1.908-25.146-2.865-37.721-32.514 34.457-76.607 55.146-117.219 78.289-50.043 28.516-97.459 62.32-145.696 93.777-48.672 31.742-97.557 62.701-143.461 98.404-36.26 28.201-71.637 58.477-113.41 78.264-71.922 34.062-163.473 55.525-201.33 135.063-3.076 6.463-5.365 14.316-2.91 21.402 1.744 5.039 7.496 9.094 12.934 6.588 100.086-46.102 193.518-104.333 287.449-161.586 46.518-28.355 93.289-56.326 141.229-82.229 49.124-26.541 100.223-49.029 149.866-74.543 51.182-26.305 101.262-54.686 151.102-83.426-.984-12.998-1.971-25.994-2.959-38.99-89.506 66.279-184.818 124.035-280.237 181.279-95.316 57.186-189.701 115.123-280.916 178.699-64.773 45.147-142.418 71.596-192.24 135.973-8.809 11.383-11.102 42.221 10.986 31.381 208.225-102.16 408.939-218.581 611.709-330.956 81.107-44.949 162.6-89.213 245.033-131.684l-2.959-38.988C684.77 267.843 489.943 393.847 300.087 526.824 223.16 580.703 147.083 635.797 71.74 691.867c-9.188 6.836-16.062 17.881-15.16 29.76.734 9.699 9.59 15.234 18.119 9.229 43.633-30.723 91.014-55.527 138.016-80.598 48.867-26.064 96.422-53.967 143.455-83.207 97.824-60.819 193.596-125.836 295.819-179.223 79.945-41.756 155.398-91.654 236.617-131.035l-7.131-35.752C726.443 360.667 545.963 467.857 368.333 575.674 274.888 632.395 181.496 689.383 91.732 751.84c-9.32 6.484-16.045 18.146-15.162 29.758.801 10.539 9.316 14.158 18.121 9.23 202.516-113.371 408.092-221.234 609.108-337.292 82.609-47.695 164.387-96.848 244.781-148.197-3.662-10.461-7.324-20.92-10.984-31.381-4.996 7.512-10.377 14.717-16.098 21.689-5.041 6.145-10.836 12.266-18.375 19.707-14.123 13.939-29.66 26.809-45.09 38.273-35.396 26.297-73.572 48.73-112.08 70.107-37.449 20.789-75.582 40.312-113.117 60.945-42.605 23.422-83.598 49.659-124.551 75.829-65.34 41.752-130.41 84.795-198.977 121.15-60.084 31.857-124.109 59.162-173.205 107.688-6.838 6.762-11.73 16.707-10.986 26.521.623 8.164 5.797 12.766 13.852 11.199 27.105-5.268 51.928-18.041 75.645-31.76 24.854-14.379 49.684-28.809 74.537-43.191a10614.59 10614.59 0 0 0 152.23-89.771c49.531-29.773 100.038-57.951 150.668-85.822 50.375-27.73 102.131-51.93 153.662-77.323 67.275-33.148 131.119-72.73 197.158-108.186l-10.984-31.383c-5.504 7.193-9.135 10.836-17.041 18.057-7.75 7.076-15.977 13.312-24.516 19.367-18.807 13.338-38.713 25.094-58.617 36.699-43.184 25.18-85.117 51.793-126.223 80.277-91.951 63.715-180.732 131.844-272.467 195.85-62.605 43.68-127.018 85.396-195.645 119.062l2.959 38.99c48.338-27.512 98.725-51.109 148.234-76.383 25.086-12.807 49.887-26.168 74.098-40.572 24.189-14.391 46.895-30.896 69.809-47.201 23.254-16.545 46.578-32.992 70.564-48.465 23.51-15.168 48.086-28.535 72.547-42.078 48.809-27.02 97.928-53.48 146.338-81.211 61.396-35.17 121.518-72.686 178.059-115.307L989 385.334c-59.982 69.826-146.119 119.631-225.498 166.94-91.051 54.268-181.006 110.705-269.409 169.203-41.195 27.26-81.383 55.869-121.203 85.092-39.395 28.914-78.959 57.732-121.234 82.348-9.594 5.584-15.99 18.82-15.16 29.758.842 11.066 9.201 13.475 18.119 9.23 100.961-48.053 196.105-107.057 291.247-165.518 47.797-29.369 95.674-58.625 144.385-86.459 47.674-27.238 96.568-52.016 145.609-76.67 75.025-37.713 150.203-76.055 218.389-125.428-2.375-11.916-4.754-23.834-7.131-35.75-33.609 33.213-76.088 55.598-117.895 76.719a4046.052 4046.052 0 0 0-133.637 70.69c-99.297 54.922-199.127 109.008-295.387 169.18-39.695 24.812-79.178 50.248-116.168 78.982-32.521 25.262-64.553 53.299-102.398 70.43-8.953 4.055-15.02 11.32-17.994 20.766-1.854 5.883-3.031 24.236 8.273 22.725 45.449-6.074 87.678-22.926 128.725-42.799 43.947-21.275 85.809-46.65 127.571-71.857 92.4-55.779 188.994-103.605 284.82-153.17 30.955-16.012 61.799-31.988 92.061-49.281 29.732-16.99 59.461-33.979 89.189-50.969 9.617-5.496 15.986-18.891 15.16-29.758-.803-10.576-9.309-14.111-18.121-9.23-104.188 57.711-206.854 118.117-308.766 179.746-51.145 30.93-102.088 62.188-152.947 93.584-44.668 27.572-85.542 60.625-129.553 89.188-21.203 13.756-43.262 26.518-67.016 35.328-.436 13.652-.871 27.305-1.309 40.957 171.867-107.34 370.172-160.402 549.303-253.342 47.312-24.547 93.094-52.107 136.094-83.643 9.217-6.758 16.059-17.938 15.16-29.76-.76-9.986-9.484-14.867-18.119-9.229C824.266 727.35 638.676 858.633 439.865 968.328a2775.644 2775.644 0 0 1-59.695 31.969l7.133 35.752c73.348-58.309 162.889-92.967 248.28-129.312C680.539 887.6 725.4 867.994 768.496 844.9c22.314-11.959 44.49-24.162 66.002-37.533 23.461-14.584 46.564-29.75 71.244-42.24l-14.291-26.021c-3.254 5.631 2.838-4.268-.768 1.271-1.092 1.672-2.266 3.291-3.438 4.908-1.197 1.656-2.473 3.256-3.742 4.855-.225.285-4.666 5.496-1.594 2.025-6.42 7.246-13.553 13.844-20.877 20.158-14.344 12.365-31.18 23.664-48.141 34.455-35.631 22.666-73.098 42.25-109.025 64.42-39.857 24.594-76.527 54.361-114.17 82.133-42.475 31.334-86.008 61.828-133.524 85.104-8.504 4.166-17.229 7.842-26.043 11.295.955 12.572 1.908 25.146 2.865 37.721 61.736-53.27 143.856-80.49 220.313-108.334 80.787-29.42 162.883-61.467 226.771-120.973 7.469-6.955 14.518-14.354 21.268-22.004 7.162-8.117 13.979-19.857 10.07-31.133-3.469-10.01-15.477-8.066-21.375-1.381-114.23 129.438-307.65 132.047-443.067 231.178a405.641 405.641 0 0 0-25.289 20.133c-7.098 6.125-11.693 17.186-10.986 26.523.529 6.965 5.992 14.279 13.852 11.197 97.135-38.068 176.129-109.006 260.493-168.248 66.982-47.033 147.926-76.375 205.264-136.568 10.398-10.916 19.23-22.635 26.766-35.684 7.102-12.287 4.061-35.305-14.291-26.02-23.682 11.982-45.959 26.396-68.42 40.475-22.416 14.049-45.568 26.727-68.83 39.299-42.02 22.705-85.975 41.566-129.891 60.242-90.248 38.379-182.229 75.838-259.649 137.379-7.225 5.744-11.672 17.469-10.984 26.521.818 10.785 9.258 13.842 18.119 9.23C584.75 934.379 771.74 804.465 960.965 679.252a11193.585 11193.585 0 0 1 56.154-36.924l-2.959-38.988C850.09 723.658 651.65 780.33 469.115 865.193c-48.148 22.383-95.299 46.992-140.352 75.131-8.23 5.139-13.766 14.979-14.994 24.48-1.041 8.053 3.029 20.43 13.686 16.479 48.654-18.047 91.17-48.994 132.91-79.129 45.078-32.541 91.93-61.576 139.313-90.625 101.836-62.436 204.242-123.967 307.943-183.266a7368.069 7368.069 0 0 1 86.652-48.766l-2.961-38.988c-51.545 29.457-102.699 59.619-155.438 86.898-53.777 27.818-107.557 55.633-161.336 83.449-43.93 22.723-87.301 45.756-129.695 71.246-41.772 25.117-83.297 50.699-126.524 73.277-41.221 21.529-86.023 41.922-132.549 48.141-3.242 14.498-6.48 28.994-9.721 43.49 47.463-21.482 85.908-55.805 127.178-86.811 44.623-33.523 92.953-62.742 140.678-91.576 96.973-58.586 197.006-111.867 295.912-167.064 73.6-41.076 157.643-70.725 218.6-130.963 6.842-6.76 11.732-16.709 10.988-26.521-.729-9.592-9.637-15.373-18.121-9.23-88.588 64.145-188.59 109.528-285.451 159.374-99.426 51.166-193.672 111.625-289.092 169.732-73.314 44.643-147.525 88.053-225.086 124.969l2.959 38.988c49.188-28.641 94.676-62.945 140.545-96.504 46.477-34 94.137-66.234 142.512-97.467 87.035-56.191 175.35-110.045 263.912-163.752 74.689-45.295 149.064-94.295 206.426-161.075 5.668-6.598 9.145-18.316 6.217-26.762-2.553-7.369-11.105-9.217-17.203-4.619-89.627 67.562-188.064 121.631-286.238 175.51-49.328 27.074-98.404 53.916-144.787 85.881-23.354 16.092-46.291 32.777-69.502 49.068-23.09 16.205-47.426 30.418-72.158 43.965-61.564 33.727-125.93 62.055-186.961 96.791-9.621 5.477-15.982 18.906-15.16 29.76.834 10.973 9.219 13.596 18.119 9.23 98.893-48.512 189.043-113.174 277.803-177.871 89.326-65.109 177.654-132.875 271.783-191.008 55.475-34.266 120.367-62.553 160.973-115.648 5.391-7.047 9.266-17.969 6.219-26.762-2.84-8.197-10.652-8.139-17.203-4.621-49.32 26.479-97.432 55.121-146.602 81.871-49.906 27.152-102.033 49.65-152.422 75.84-103.297 53.693-202.544 114.398-302.913 173.234a11372.038 11372.038 0 0 1-97.148 56.283c-30.902 17.713-60.723 37.979-96.279 44.889.955 12.572 1.908 25.146 2.865 37.721 33.756-33.367 76.162-55.738 118.041-77.18 45.688-23.391 90.238-48.039 134.127-74.68 87.6-53.176 171.682-111.859 262.073-160.354 54.957-29.484 110.543-57.98 162.961-91.898 49.711-32.166 98.854-70.18 131.992-120.016 5.023-7.557 9.406-17.564 6.219-26.762-2.701-7.791-10.855-8.674-17.203-4.621-195.874 125.102-399.876 236.654-603.808 347.893-83.529 45.561-167.061 91.117-250.082 137.596.984 12.996 1.971 25.992 2.959 38.988C265.64 671.887 449.087 572.422 622.932 457.933c94.264-62.08 185.904-128.777 269.848-204.379 7.025-6.326 11.707-17.035 10.988-26.521-.836-11.01-9.213-13.549-18.121-9.23-51.248 24.85-100.295 53.832-149.523 82.396-49.637 28.799-100.666 55.018-150.332 83.748-99.657 57.645-195.211 122.086-293.78 181.538C219.515 609.207 141.136 643 71.74 691.867l2.959 38.988c185.014-137.684 374.572-269.338 569.659-392.374 80.436-50.727 161.85-99.902 244.248-147.373 9.607-5.535 15.988-18.861 15.162-29.76-.822-10.814-9.252-13.799-18.121-9.229-206.176 106.222-406.214 223.75-609.962 334.455-81.457 44.258-163.553 87.352-246.781 128.186 3.66 10.463 7.322 20.922 10.984 31.383 25.775-33.309 66.303-56.533 103.787-77.648 19.877-11.199 39.891-22.156 59.18-34.355 21.949-13.881 42.736-29.655 64.246-44.204 92.357-62.465 188.979-118.262 284.292-176.014 77.074-46.703 153.373-94.857 225.836-148.516 9.199-6.811 16.062-17.9 15.162-29.76-.793-10.436-9.346-14.291-18.121-9.23-48.863 28.18-97.979 55.93-148.078 81.867-49.613 25.688-100.764 48.18-150.026 74.562-96.332 51.592-187.564 112.021-281.984 166.92-45.945 26.715-92.725 52.25-141.018 74.497l10.023 27.99c.941-1.98 1.92-3.936 2.938-5.881.277-.529 3.928-6.719 1.068-2.127 2.277-3.656 4.846-7.123 7.492-10.518.168-.217 4.738-5.592 1.715-2.197 1.438-1.613 2.949-3.158 4.457-4.703 3.551-3.637 7.363-7.01 11.246-10.285 4.773-4.026 12.174-9.081 19.404-13.62 8.459-5.309 17.279-10.027 26.193-14.512 34.469-17.342 71.242-29.699 106.113-46.215 43.148-20.439 79.836-52.666 117.23-81.818 44.834-34.949 93.141-64.873 140.711-95.896 48.038-31.33 95.284-64.803 145.125-93.205 42.926-24.461 88.732-46.936 123.102-83.359 6.684-7.084 11.75-16.467 10.986-26.521-.559-7.365-5.896-13.775-13.85-11.199-49.908 16.174-93.238 47.807-137.6 74.861-48.914 29.832-102.049 53.268-153.393 78.592-106.676 52.613-213.65 104.617-320.469 156.939-43.396 21.258-86.617 42.541-129.029 65.715-40.359 22.047-80.934 43.73-124.822 57.979.953 12.574 1.908 25.146 2.863 37.723 72.18-71.733 163.498-120.635 250.486-171.762 103.367-60.754 205.49-123.592 307.752-186.184 31.838-19.49 63.288-39.891 95.543-58.646 28.137-16.359 57.43-30.23 78.303-56.137 6.779-8.413 13.279-38.49-6.717-33.349-47.432 12.189-90.469 38.453-131.143 64.923-21.107 13.74-41.834 28.055-62.84 41.949-19.621 12.977-39.934 24.668-59.938 37.012-88.902 54.875-170.566 120.623-260.033 174.662-39.993 24.155-81.579 45.8-125.745 61.277l2.863 37.721c39.104-33.881 85.59-57.932 127.51-87.986 21.174-15.182 40.629-32.545 61.215-48.488 20.629-15.977 41.773-31.275 63.117-46.279 86.076-60.504 176.02-115.529 257.793-181.998 18.233-14.82 35.915-30.313 52.961-46.485 6.924-6.571 11.721-16.852 10.986-26.521-.586-7.715-5.842-13.337-13.852-11.199-49.301 13.154-94.819 37.832-138.793 63.142-40.959 23.574-81.777 46.955-123.684 68.824-82.873 43.246-167.969 86.252-237.164 150.254-7.75 7.166-13.725 20.592-10.072 31.133 3.689 10.637 15.031 7.253 21.376 1.38z"/></g><path fill="#D8724A" d="M281.283 468.272c-11.416-10.862-28.619-25.267-45.745-18.408-19.245 7.708-29.454 29.331-31.149 49.016-2.074 24.118 7.838 71.64 42.027 62.063 14.023-3.929 25.22-16.669 33.319-28.032 5.626-7.89 11.444-22.29 4.339-31.166-7.074-8.829-19.149.303-23.799 6.827a107.86 107.86 0 0 1-4.346 5.7c-2.755 3.361 3.971-4.349 1.129-1.292a55.111 55.111 0 0 1-2.062 2.069 46.253 46.253 0 0 1-2.025 1.812c-2.752 2.368 4.479-3.316 1.637-1.285-1.203.862-2.49 1.589-3.812 2.249 6.121-3.052 2.018-.973.15-.52-2.592.63 4.545-.476 1.941-.229-.554.054-1.11.044-1.667.033-1.629-.03-5.432-1.259.181.373-1.204-.35-2.336-.919-3.416-1.545-3.493-2.024.334.515-.026.192-.884-.787-1.673-1.677-2.431-2.583-.805-.957-1.516-1.99-2.198-3.035-.355-.545-.683-1.109-1.009-1.669-1.342-2.308 2.188 4.337.484.792-1.225-2.548-2.166-5.226-2.977-7.932a63.513 63.513 0 0 1-1.087-4.258c-.696-3.091.929 4.941.366 1.818a72.836 72.836 0 0 1-.443-2.934c-.393-2.913-.553-5.853-.553-8.788-.001-3.318-.243 5.833-.087 2.545.034-.705.095-1.405.154-2.106.114-1.361.314-2.714.546-4.063.778-4.567-1.815 6.758-.256 1.394.175-.598.38-1.185.586-1.769 1.134-3.213-2.917 6.818-1.534 3.745 2.329-5.186-2.257 3.265-1.421 2.036 2.881-4.239-4.877 4.641-1.109 1.321-5.346 4.708-4.211 3.137-2.616 2.1 1.275-.826 3.829-1.78-2.548 1.07.97-.434 2.008-.688 3.047-.879-5.988 1.109-2.077.312-.203.45.639.047 1.268.157 1.895.267 2.43.42-4.231-1.32-.503-.105 3.296 1.075 6.354 2.833 9.255 4.7 1.82 1.173 3.549 2.483 5.253 3.817-3.15-2.464.146.15.644.583 1.347 1.17 2.641 2.393 3.934 3.623 8.143 7.747 18.303.602 23.799-6.826 5.023-6.793 12.284-23.607 4.336-31.171zm537.145 9.748c-.957-4.149-2.451-8.053-4.365-11.716.879-5.398.283-10.805-2.889-14.766-3.256-4.064-7.34-4.364-11.312-2.909-6.285-5.53-13.533-10.068-20.938-13.585-12.025-5.712-25.5 10.901-28.246 25.44-4.227 4.088-7.902 8.328-10.725 11.827-6.025 7.469-11.191 22.609-4.34 31.166 7.285 9.093 18.826-.657 23.801-6.827.268-.33 1.02-1.19 1.619-1.876a67.98 67.98 0 0 1 2.604-2.518c.061 1.669.264 3.244.635 4.662.605 2.31.736 3.08.951 5.056-.801.432-1.756.881-3.105 1.602-5.543 2.953-11.234 10.377-14.131 18.358-13.705 11.202-21.277 40.885-3.871 40.885 6.045 0 11.822-4.493 16.229-10.641 10.729 7.113 23.289 8.447 34.133-3.714a65.19 65.19 0 0 0 10.525-16.075c11.446-15.675 17.948-34.77 13.425-54.369zm-52.926 26.129c-.055.139-.113.295-.178.485.057-.171.113-.34.174-.508l.004.023z"/><path fill="#61E9FF" d="M248.922 943.076c27.167 26.615 63.944 39.014 100.362 46.916 39.617 8.6 80.396 10.977 120.797 12.666 45.529 1.903 91.206 2.192 136.456-3.922 47.348-6.398 92.621-20.699 136.141-40.225 6.898-3.093 11.336-11.089 9.477-18.601-19.697-79.534-71.467-151.919-151.135-179.136-38.887-13.285-80.34-12.652-120.887-10.787-36.495 1.678-73.363 6.27-108.269 17.398-35.892 11.445-69.154 31.383-91.784 61.998-26.754 36.19-33.289 82.326-29.852 126.185.987 12.604 14.699 1.944 16.301-4.896 8.246-35.235 13.853-71.691 27.305-105.451 11.988-30.091 34.914-50.671 65.094-61.771 20.896-7.682 43.405-10.645 65.186-14.788 23.364-4.444 46.797-8.567 70.486-10.85 45.792-4.409 92.596-.495 132.391 24.401 34.826 21.788 61.648 60.555 75.99 98.533 6.441 17.067 10.777 36.859 6.562 54.998-4.545 19.577-19.266 30.981-36.266 39.908-39.904 20.951-88.02 24.433-132.252 24.238-44.56-.193-89.971-4.594-133.899-12.062-51.781-8.8-104.602-24.145-148.474-53.865-8.036-5.443-19.51 15.76-10.972 21.543 41.828 28.337 91.568 43.143 140.719 52.749 43.904 8.583 89.549 12.751 134.233 13.999 72.844 2.037 201.812-8.916 205.393-106.049 1.488-40.279-18.945-79.147-42.566-110.463-26.975-35.764-63.252-59.375-107.289-68.171-45.229-9.038-92.552-1.587-137.327 6.528-40.01 7.252-83.119 12.079-116.636 37.16-52.274 39.112-59.447 109.74-73.243 168.697 5.432-1.635 10.865-3.266 16.3-4.897-2.817-35.932 1.017-73.464 22.548-103.509 18.543-25.877 47.666-41.6 77.236-51.55 34.791-11.706 71.787-15.894 108.287-17.571 41.059-1.889 82.631-2.046 121.684 12.363 73.811 27.229 120.695 96.271 139.035 170.346 3.162-6.199 6.318-12.399 9.479-18.602-41.996 18.84-85.59 32.81-131.193 39.536-44.57 6.575-90.025 5.938-134.917 4.124-38.631-1.56-77.332-3.97-115.375-11.199-35.878-6.814-74.358-18.762-101.059-44.92-8.019-7.854-20.777 12.427-14.067 18.999z"/><path fill="#61E9FF" d="M268.477 892.748c17.852-21.496 32.644-41.998 50.876-59.515 18.875-18.134 43.103-29.931 70.43-36.681-.977-12.872-1.953-25.744-2.933-38.615-40.845 37.346-90.669 65.6-121.099 113.262-5.029 7.874-9.67 17.864-6.366 27.396 3.015 8.698 10.771 7.916 17.61 4.729 35.434-16.512 66.113-41.496 98.094-63.604 30.619-21.166 64.479-42.275 102.505-45.383.435-13.062.871-26.127 1.308-39.189-31.678 32.695-74.596 53.137-114.342 77.371-43.043 26.241-83.383 58.77-104.985 105.535-4.713 10.203-7.431 32.043 10.263 28.656 23.965-4.592 45.936-18.243 65.827-31.783 22.044-15.014 42.661-32.008 64.054-47.908 21.904-16.277 45.692-30.059 68.819-44.504 26.972-16.848 54.693-32.74 85.824-40.383-4.238-7.562-8.475-15.127-12.711-22.691-.422 1.308-3.369 8.846-.682 2.46-.941 2.24-2.047 4.409-3.166 6.567-.602 1.158-4.953 8.158-1.348 2.521-1.719 2.688-3.615 5.258-5.543 7.799-1.584 2.092-3.273 4.101-4.975 6.1 3.398-3.996-2.266 2.325-2.9 2.983-4.398 4.569-9.102 8.843-13.891 12.999-9.477 8.227-17.014 13.595-28.331 21.342-11.976 8.196-24.313 15.859-36.703 23.41-45.36 27.635-96.817 52.841-132.577 93.153-6.685 7.537-12.043 16.64-11.247 27.151.624 8.201 5.946 13.266 14.18 11.465 56.698-12.405 102.68-53.508 147.348-87.979 23.484-18.125 47.771-33.43 73.595-47.973 29.707-16.729 59.365-33.621 87.477-52.956l-14.631-26.639a165.996 165.996 0 0 1-7.27 14.017c2.66-4.597-1.242 1.891-1.508 2.297-1.713 2.6-3.547 5.119-5.395 7.624-7.459 10.126-12.324 15.161-21.979 24.506-17.754 17.181-36.967 31.31-57.395 45.144-40.245 27.258-83.342 50.002-123.587 77.239-8.339 5.64-14.058 15.058-15.351 25.061-.977 7.56 3.226 21.798 14.01 16.87 45.607-20.845 92.174-39.674 136.34-63.537 22.396-12.102 43.939-25.75 64.129-41.269 20.381-15.671 38.27-34.736 60.527-47.841l-11.244-32.127c-51.148 64.109-119.873 111.098-187.045 156.788-9.582 6.52-16.415 18.67-15.521 30.468.848 11.142 9.458 14.037 18.551 9.449 79.881-40.297 147.602-104.796 232.733-134.668-3.422-9.551-6.84-19.104-10.262-28.654a115.287 115.287 0 0 1-2.176 4.13c-3.602 6.669 2.678-3.888-1.439 2.462-2.535 3.909-5.4 7.596-8.342 11.205-1.178 1.447-3.746 4.156-7.262 7.637-3.416 3.381-7.031 6.558-10.686 9.676-13.436 11.468-30.975 22.398-47.244 32.416-33.842 20.838-69.727 40.695-96.837 70.353-6.761 7.399-12.037 16.745-11.247 27.151.603 7.947 5.973 13.589 14.18 11.465 73.635-19.051 130.254-74.326 196.842-108.014-5.693-6.892-11.387-13.781-17.08-20.675-.344 1.438-3.1 8.73-.451 2.642a52.026 52.026 0 0 1-1.703 3.367c1.768-2.713 1.869-2.883.307-.516-1.51 2.274-3.254 4.395-5 6.49 2.965-3.56-2.941 2.826-3.553 3.424-9.189 8.968-17.357 14.559-28.164 21.92-21.24 14.475-43.98 27.191-63.236 44.381-7.207 6.431-11.982 17.469-11.248 27.148.521 6.854 6.211 14.969 14.182 11.466 44.568-19.597 88.48-43.569 136.682-53.001 18.033-3.528 30.6-48.816 5.709-43.946-48.199 9.433-92.109 33.405-136.682 53 .979 12.872 1.955 25.744 2.932 38.616 5.334-4.759 4.768-4.225 10.102-8.09 5.664-4.104 11.516-7.953 17.363-11.792 12.574-8.251 25.289-16.288 37.52-25.049 23.785-17.036 49.246-38.853 56.373-68.626 3.094-12.923-.918-28.852-17.08-20.674-63.594 32.172-117.891 85.814-188.103 103.982.978 12.871 1.954 25.742 2.933 38.615 26.872-29.4 62.79-47.73 97.008-69.131 36.508-22.83 71.566-49.569 91.635-88.67 4.248-8.275 7.25-34.799-10.262-28.654-88.506 31.055-158.539 96.863-241.471 138.696l3.029 39.917c73.721-50.145 147.395-102.068 203.477-172.365 5.625-7.048 9.439-18.521 6.365-27.396-2.834-8.176-11.006-8.618-17.609-4.729-22.049 12.978-40.025 31.17-59.77 47.179-19.164 15.539-40.568 28.488-62.113 40.41-42.037 23.263-86.745 41.083-130.375 61.023l-1.342 41.932c42.471-28.741 87.965-52.693 130.235-81.775 43.635-30.023 87.553-66.412 110.102-115.602 3.072-6.701 5.52-14.585 2.979-21.911-2.699-7.786-11.219-9.125-17.611-4.729-51.553 35.457-108.961 61.061-158.729 99.128-42.986 32.88-86.536 73.843-140.948 85.747.978 12.871 1.954 25.744 2.933 38.618 17.694-19.95 34.93-31.513 57.355-45.978 24.61-15.876 50.119-30.307 75.043-45.676 47.111-29.049 99.413-64.187 117.272-119.533 3.152-9.774 1.332-26.14-12.711-22.691-30.834 7.57-59.175 22.878-86.155 39.23-23.925 14.504-48.383 28.951-71.141 45.242-21.464 15.364-41.812 32.229-63.3 47.573-19.339 13.812-40.188 27.986-63.929 32.53 3.422 9.553 6.841 19.105 10.264 28.655 9.014-19.519 18.837-31.462 36.332-46.909 15.535-13.721 34.911-25.82 53.962-37.215 39.688-23.734 81.827-45.268 114.374-78.861 5.795-5.98 9.996-13.377 11.076-21.744.779-6.019-.947-18.167-9.769-17.445-86.491 7.063-143.222 79.402-217.819 114.168l11.246 32.127c27.76-43.474 75.432-69.77 113.214-104.313 7.16-6.55 11.987-17.384 11.247-27.152-.611-8.021-5.964-13.492-14.18-11.464-31.705 7.829-60.031 22.438-84.367 44.232-23.512 21.059-42.032 47.391-62.111 71.568-6.119 7.365-11.131 22.686-4.338 31.167 7.329 9.157 18.743-.743 23.797-6.825z"/><path fill="#D8724A" d="M423.193 740.631c-3.302 18.509-1.625 38.35 9.894 53.811 9.519 12.772 25.696 18.721 41.021 20.119 37.948 3.472 74.95-22.082 90.645-55.613 3.42-7.305 8.113-23.475-2.141-28.224-17.225-7.979-40.17-4.134-57.77.233-24.599 6.105-51.191 26.119-44.576 54.885 2.259 9.828 12.662 15.977 21.232 19.574 12.913 5.419 28.199 4.734 40.924-.768 15.176-6.561 27.889-18.727 34.453-34.033 8.01-18.672 7.342-36.318-2.326-54.084-5.582-10.254-20.029 1.73-23.803 6.827-6.715 9.073-9.904 20.942-4.338 31.167 1.4 2.569 1.984 5.127 2.227 7.614-.342-3.518-1.162 4.275.23-.847 1.648-6.068-2.322 2.744 1.24-2.436 2.658-3.861-.922.835-1.689 1.521 2.818-2.521-2.559 1.293-2.73 1.389-.488.272-5.828 1.963-8.104 2.193-7.945.798-14.724-1.387-21.524-5.288-3.451-1.983-1.678-.343-4.182-3.662 4.163 5.517-.971 18.591-6.965 25.192 1.539-1.428.944-1.033-1.791 1.183.977-.758 2.061-1.378 3.123-2.005.752-.443 4.847-2.281.647-.435 1.406-.618 2.854-1.136 4.298-1.658 6.469-2.337 13.27-3.753 20.045-4.837 2.643-.423 11.37-.935 16.399-.837 2.98.058 5.947.357 8.893.812.654.099 4.795 1.257 1.072.16 1.061.312 2.064.759 3.062 1.223-.713-9.411-1.426-18.817-2.141-28.227a60.462 60.462 0 0 1-1.596 3.28c-2.781 5.508 3.061-4.43-.311.666-.977 1.479-2.08 2.871-3.18 4.263 3.584-4.53.021-.089-.779.724-.906.922-7.576 6.318-3.699 3.434-2.781 2.068-5.779 3.829-8.822 5.479-1.955.963-2.049 1.041-.279.239-1.562.712-3.17 1.319-4.773 1.925-3.183 1.203-6.472 2.092-9.779 2.864-4.503 1.054-3.605.798-7.294 1.073-3.235.242-6.48.151-9.71-.062-6.817-.456-8.639-1.057-14.03-3.3-2.272-.95-4.411-2.173-6.496-3.473-3.012-1.879-1.562-.728-4.664-4.007-1.691-1.79-3.088-3.826-4.394-5.904 1.845 2.934-.52-1.299-.688-1.701-.627-1.472-1.074-3.01-1.525-4.541-1.489-5.07.408 3.536-.35-1.923-.249-1.796-.307-3.616-.371-5.427-.211-6.094-.395 3.973.191-2.434.196-2.127.577-4.233.952-6.334 1.582-8.868-3.357-20.105-14.012-16.869-11.367 3.456-17.792 16.284-19.716 27.079z"/><path fill="#D8724A" d="M450.918 743.248c-.95 36.034 27.769 63.928 63.669 62.529 44.815-1.743 72.428-47.242 65.241-89.125-1.719-10.01-8.98-15.354-18.551-9.449-9.055 5.585-17.404 19.48-15.52 30.466.67 3.9 1.092 7.771 1.203 11.729-.158-5.647-2 10.316-.062 2.231-.359 1.501-.879 2.958-1.396 4.406 2.383-6.674.811-2.194-.025-.624 3.359-6.295 1.395-2.275.266-.757-2.986 4.025 3.764-3.864.258-.347-.887.891-4.607 3.765.086.211-1.088.824-2.26 1.539-3.424 2.251-.785.479-4.943 2.465-.518.468-1.256.566-2.564 1.021-3.865 1.475-2.639.918-5.381 1.493-8.127 1.963 3.287-.562-4.238.078-5.633.062-6.666-.078-10.199-.991-14.315-2.447-2.7-.955-5.277-2.223-7.787-3.596-1.254-.686-2.447-1.477-3.637-2.266-.264-.175-3.904-3.062-1.426-.959-2.201-1.867-4.124-4.033-5.926-6.277-.917-1.141-1.715-2.369-2.514-3.594-2.596-3.988 1.272 2.877-.789-1.496-1.336-2.834-2.213-5.857-2.938-8.895.963 4.033-.006-1.351-.057-1.866-.24-2.362-.204-4.742-.143-7.11.284-10.815-10.37-14.496-18.552-9.449-10.486 6.47-15.21 18.699-15.518 30.466z"/><path d="M274.696 463.662c-16.306-10.718-39.052-20.356-56.832-7.251-14.364 10.584-18.249 31.024-17.215 47.743 1.103 17.846 8.288 37.161 22.392 48.75 15.623 12.834 39.676 11.628 53.817-2.983 1.187-1.227 5.198-10.699.468-9.909-8.646 1.446-15.939 6.359-24.942 6.876-7.317.418-14.222-1.933-20.298-5.888-12.673-8.254-19.84-24.372-22.191-38.815-1.939-11.915-1.629-27.688 8.492-36.069 14.838-12.289 38.104-1.719 52.502 5.711 2.958 1.526 6.607-6.323 3.807-8.165zm476.591-.101c12.822-7.595 31.951-14.925 45.117-3.83 10.695 9.012 12.994 25.351 12.844 38.472-.156 13.763-4.074 29.112-13.434 39.554-12.029 13.425-26.668 8.459-41.594 4.428-4.541-1.227-10.5 9.196-6.824 12.247 15.428 12.814 36.789 8.521 50.205-4.686 13.738-13.526 20.025-34.69 21.051-53.468.887-16.229-1.648-36.29-15.361-47.045-16.982-13.324-38.268.116-52.152 11.538-.819.67-1.674 3.87.148 2.79z"/><g fill="#D8724A"><path d="M378.232 717.084h-.001l-.003.006z"/><path d="M781.137 363.297c-3.055-3.472-7.471-4.552-12.424-2.981l-1.842.586.002-.106-.393.232c-14.828 4.737-24.398 3.917-33.799 2.153 1.814-5.965 3.207-12.109 4.248-18.337.861-.026 1.758-.309 2.539-.791 3.371-2.08 5.252-6.273 5.164-10.138-.428-19.037-2.871-38.046-8-56.185-1.615-7.686-4.068-15.169-7.742-21.875-5.336-12.377-12.188-24.13-20.812-34.945-22.289-27.948-55.428-45.104-89.398-54.283-18.973-5.126-38.447-8.005-58.035-9.369-22.844-1.589-45.863-1.344-68.433 2.806a161.325 161.325 0 0 0-9.233 1.99c-30.967 1.118-61.659 7.165-89.725 20.854a151.423 151.423 0 0 0-7.723 4.057c-14.171 5.341-27.952 11.648-40.977 19.219-17.744 10.314-34.643 23.917-44.434 42.305-7.107 13.347-8.568 28.158-5.092 42.256-3.073 13.211-2.891 27.013.783 40.344-11.509 8.06-22.564 16.846-32.969 26.604-6.194 5.811-10.55 14.359-11.648 22.866-.498 3.85-.254 11.603 3.814 16.231 2.023 2.302 4.735 3.437 7.883 3.309 9.986-.454 20.271-1.669 31.117-3.689-8.703 4.309-16.59 8.794-23.853 13.56-8.604 5.645-14.802 15.75-16.175 26.378-.613 4.742.002 11.795 3.757 16.066 1.997 2.273 4.698 3.476 7.864 3.476 19.52-.082 39.982-1.737 62.178-5.048-25.301 10.893-51.568 22.835-77.04 37.165-9.586 5.391-15.085 17.166-16.283 26.444-.794 6.14.604 11.936 3.737 15.502 2.995 3.408 7.432 4.631 12.546 3.414 20.868-4.949 39.182-9.446 56.003-13.766-4.047 1.729-8.159 3.5-12.273 5.294l-1.08.267-.035.238c-10.69 5.083-18.262 15.752-19.859 28.102-.792 6.147.598 11.96 3.751 15.544 3.003 3.414 7.409 4.623 12.509 3.371l2.191-.55c-.451.233-1.001.466-1.451.702l-.419.055v.059c0 .59-2.077 1.178-3.215 1.766-9.087 4.703-14.899 16.876-16.142 26.474-.795 6.153.62 11.978 3.787 15.579 3.006 3.421 7.434 4.615 12.523 3.332a790.29 790.29 0 0 0 32.436-8.954c-7.772 7.563-14.584 23.718-11.934 33.851 1.743 6.67 7.314 9.801 15.567 8.613a435.001 435.001 0 0 0 23.051-3.951c-2.993 4.711-4.978 10.137-5.696 15.688-.59 4.571.113 11.497 4.045 15.969 3.062 3.482 7.478 4.537 12.397 2.904 3.516-1.17 7.034-2.337 10.554-3.494-3.989 5.27-6.63 11.579-7.471 18.086-.809 6.266.435 11.631 3.504 15.123 2.926 3.328 7.368 4.651 12.65 3.795.699-.113 1.398-.262 2.097-.379l.134-.222c7.115-1.161 14.244-2.603 21.381-3.79-3.746 8.378-5.616 17.877-2.01 23.898.999 1.671 2.76 3.013 5.777 3.648 1.215.468 2.641.72 4.293.722l.053.001a866.1 866.1 0 0 0 16.875-.211c10.775.086 21.484.104 32.002-.536.639 5.485 3.385 10.622 7.861 12.599 12.707 5.607 26.952 8.453 42.335 8.453 32.763 0 65.998-12.838 88.144-22.493 42.117-18.363 80.281-42.457 115.252-65.763l.973-.545-.008-.119c10.004-7.153 16.316-19.957 15.439-31.529-.617-8.136-5.592-13.395-12.666-13.395-.455 0-.918.023-1.381.07 11.307-9.049 20.777-18.859 28.703-29.706 5.48-7.497 10.098-19.079 6.623-29.104-1.465-4.225-4.533-7.085-8.479-8.054a260.462 260.462 0 0 0 6.055-5.533c7.939-7.483 12.58-18.729 11.828-28.646-.512-6.734-5.02-13.892-12.361-13.892-1.414 0-2.871.278-4.33.828a1962.6 1962.6 0 0 1-6.727 2.52c7.777-5.465 13.549-15.294 14.869-25.513.619-4.796-.43-11.91-4.199-16.197-3.09-3.514-7.494-4.484-12.318-2.648l-1.746.663.01-.319-1.279.794c-.943.352-1.896.705-2.854 1.057a369.165 369.165 0 0 0 19.086-16.255c6.186-5.647 10.547-14.201 11.67-22.881.66-5.125-.246-12.091-3.766-16.097a9.978 9.978 0 0 0-3.426-2.548 899.68 899.68 0 0 0 18.83-10.717c9.596-5.62 15.076-17.323 16.256-26.429.782-6.011-.788-12.251-3.991-15.899zM367.536 235.97c-8.712 8.403-17.343 16.885-26.104 25.225 2.562-3.864 5.34-7.63 8.368-11.289 2.031-2.455 4.382-5.001 6.921-7.536 5.045-4.195 10.436-7.989 16.049-11.421-.477.455-.953.907-1.428 1.363a28.696 28.696 0 0 0-3.806 3.658zm-47.931 45.216c4.842-13.352 11.148-26.103 19.23-37.771 4.018-3.669 8.277-7.068 12.719-10.237-12.843 13.599-23.031 29.393-30.393 46.636-.519.456-1.035.917-1.556 1.372zm360.424-65.381c.617.514 1.234 1.03 1.844 1.555a2.901 2.901 0 0 0-1.135-.396c-.238-.386-.468-.776-.709-1.159zm11.994 141.045c.496 1.111.979 2.228 1.467 3.344-1.252.002-2.805.009-4.527.017a81.179 81.179 0 0 0 3.06-3.361zm15.965-109.64a12.533 12.533 0 0 0-.648 4.093c.021 2.051.111 4.089.262 6.117-6.396-14.012-15.184-26.979-24.607-39.056-.029-.038-.061-.066-.092-.103 9.478 8.317 17.941 17.922 25.085 28.949zm-403.446 17.577c.098-.687.226-1.369.354-2.051.2-1.066-.1.279.367-1.487 1.431-5.415 3.538-9.399 6.334-13.466 3.697-5.376 7.044-8.819 12.166-13.396 6.8-6.076 14.358-11.37 22.374-16.056a170.406 170.406 0 0 0-9.602 11.453c-12.737 10.721-23.918 23.13-32.253 37.583-.019.031-.036.063-.053.094.084-.894.187-1.786.313-2.674zm108.603 49.357l2.936-1.311.147.358c-1.029.317-2.061.632-3.083.953zm98.569-5.76c4.461 2.452 8.825 5.088 13.104 7.8 1.721 1.09 3.436 2.19 5.145 3.297-6.43-2.829-12.451-5.745-18.04-8.857a21 21 0 0 0-.209-2.24zm17.788 145.926c9.236-6.984 17.869-14.155 26.014-21.6a296.252 296.252 0 0 0 15.24 3.149 2804.035 2804.035 0 0 0-41.254 18.451z"/></g><path fill="#AF543F" d="M489.319 674.1c10.2 1.648 19.999.707 29.921-2.018 5.193-1.426 10.1-3.734 14.797-6.328.34-.186.848-.525 1.439-.946.721-.253 1.441-.506 2.154-.774 7.076-2.676 11.662-5.634 14.367-11.29.463-.728.896-1.473 1.213-2.289 1.121-2.888 3.91-12.306-2.154-12.202-3.619.064-6.111 2.603-8.682 4.922-21.355 6.482-46.16 6.861-64.079-8.05-5.148-4.286-11.472 2.421-13.733 9.679a60.91 60.91 0 0 1-12.633-14.688c-1.962-3.187-6.693 4.751-5.591 7.24 8.027 18.062 22.764 33.48 42.981 36.744zm62.607 77.656c-16.35 9.049-35.275 12.574-53.836 11.955-18.507-.615-39.215-5.121-50.493-21.094-3.491-4.946-9.354 7.345-8.25 10.688 14.565 44.149 71.554 49.309 108.195 30.961 7.68-3.847 12.516-12.715 13.629-21.018.677-5.047-1.612-15.715-9.245-11.492z"/><path d="M447.136 632.268c15.559 12.374 31.49 20.799 51.298 23.659 16.783 2.423 39.56-.336 52.134-12.561 1.812-1.765 6.986-14.118.627-13.365-7.623.903-14.82 6.171-22.23 8.554-8.371 2.691-17.469 3.104-26.183 2.816-17.999-.597-36.889-7.059-53.067-14.635-2.139-1.002-4.29 4.17-2.579 5.532zM229.082 506.942c5.972-7.343 13.971-12.955 23.714-13.081 10.743-.134 13.124 9.393 17.192 17.19 1.856 3.56 5.953-4.315 6.104-5.631 1.365-11.979-4.67-23.91-17.95-24.146-13.009-.232-24.706 10.766-31.575 20.666-1.794 2.589-.912 9.215 2.515 5.002z"/><path d="M276.513 500.886c-7.744-.319-17.455-.398-22.934 6.084-5.42 6.411-4.353 16.114.295 22.664 1.992 2.807 5.254-4.162 4.659-6.031-.85-2.664-4.808-9.67-1.95-12.139 4.549-3.932 12.428-4.039 18.065-4.337 2.262-.121 4.652-6.127 1.865-6.241zm482.967 14.17c2.889-7.714 8.803-13.028 16.881-14.759 7.281-1.561 12.895 2.179 19.629 3.794 4.234 1.014 8.752-7.565 5.988-10.747-6.945-8.002-19.512-7.58-28.551-3.707-10.174 4.359-16.592 15.424-19.326 25.636-1.658 6.191 3.868 3.827 5.379-.217z"/><path d="M756.439 520.557c3.904-1.49 11.1-4.097 14.127.317 1.053 1.535.414 3.828.139 5.479-.531 3.204-1.982 6.167-2.535 9.405-.451 2.638 1.686 3.426 3.396 1.586 5.08-5.464 9.201-16.719 4.768-23.737-4.23-6.701-15.062-.697-19.668 2.021-1.301.768-2.814 5.92-.227 4.929zM426.63 743.99c-7.085 22.463-5.779 46.588 11.196 64.262 15.146 15.771 37.849 22.152 59.169 21.895 22.362-.266 44.838-7.929 61.004-23.629 8.402-8.159 14.455-19.154 17.453-30.421 2.463-9.261 4.961-26.657-4.258-32.678-3.492-2.282-6.664 5.812-7.041 7.813-1.721 9.191-.393 19.527-2.934 27.883-.76 2.494-1.729 4.248-4.141 7.65-.996 1.405-4.432 4.792-6.758 6.653-14.408 11.538-33.273 15.979-51.426 16.249-18.264.277-37.396-3.652-52.106-14.969-16.043-12.346-19.241-33.055-15.414-51.834.959-4.7-3.951-1.389-4.744 1.126z"/><path d="M427.853 740.853c-52.797.237-112.743.181-147.672 46.991-15.47 20.727-23.647 45.42-28.454 70.574-4.806 25.136-7.086 51.934-4.235 77.328.594 5.291 5.307-1.197 5.727-3.351 8.678-44.461 5.642-94.228 32.746-133.036 30.656-43.896 92.412-36.966 138.402-46.84 3.722-.796 8.974-11.692 3.486-11.666zm142.7 16.239c25.016-1.973 51.781-.742 75.557 7.891 21.41 7.775 37.754 22.887 51.229 40.812 14.359 19.106 22.824 41.163 30.803 63.459 8.123 22.689 14.682 46.216 19.289 69.862 1.396 7.166 11.047-4.912 10.352-9.523-7.627-50.393-16.479-101.144-47.803-142.99-13.803-18.441-33.555-32.634-55.441-39.694-27.965-9.019-56.225-3.907-83.113 6.193-1.02.382-2.684 4.13-.873 3.99z"/><path d="M289.104 881.664c9.76.859 21.171 4.477 25.471 14.163 3.964 8.935 3.772 20.265 3.57 29.851-.233 10.854-1.844 21.69-2.952 32.479-.834 8.119-3.811 21.318 1.254 28.402 5.277 7.383 13.084-9.132 13.604-12.556 1.503-9.909-.312-21.007-.039-31.12.312-11.503.681-23.045-.786-34.488-1.236-9.648-4.852-17.844-11.924-24.592-7.765-7.402-18.063-6.636-27.733-4.268-.624.155-1.417 2.045-.465 2.129zm26.044-461.993c10.084-9.733 23.718-13.644 37.041-16.726 13.76-3.183 28.455-3.682 42.328-.975 17.637 3.439 28.922-36.759 13.861-36.363-37.621.991-76.045 12.58-97.447 45.674-2.851 4.408-2.449 14.823 4.217 8.39z"/><path fill="#08B5F9" d="M676.354 872.328c.152-.301.275-.589.432-.891.721-1.396 1.566-7.357-1.844-5.707-.902.438-1.775.908-2.643 1.387a3.774 3.774 0 0 0-1.477-.252c-.74.051-1.48.104-2.221.158-3.805.268-6.266 3.872-7.572 7.653-3.043 2.319-6.039 4.722-9.15 7.049-1.607 1.202-2.877 7.009.268 5.024 2.621-1.654 5.168-3.423 7.754-5.107.096 2.67.822 5.215 1.859 7.698-8.916 31.724 7.852 66.825 12.449 98.903 2.146 14.984 16.061-2.686 16.844-9.857 3.916-35.894 3.879-74.06-14.699-106.058zM479.97 861.651c-19.408 1.006-38.15-9.111-51.885-22.108-6.452-6.104-11.802-13.301-16.447-20.836-4.726-7.669-6.695-17.314-12.123-24.41-.773-.98-1.785-1.451-3.033-1.414a11.71 11.71 0 0 0-1.877.432c-.709-3.722-1.232-7.418-1.484-11.058-.432-6.229-6.502 1.963-6.628 4.979-.2 4.77.047 9.576.555 14.381-1.889 5.954-1.223 13.584.138 18.545 1.459 5.326 3.782 10.516 6.568 15.488 4.033 15.569 9.462 30.768 17.53 44.748 6.678 11.574 16.505 23.842 30.483 26.076 17.229 2.751 31.18-13.324 39.194-26.399 2.007-3.274 8.03-18.889-.991-18.424z"/><path fill="#AF543F" d="M770.334 495.509c-1.287-12.085-3.111-24.096-5.328-36.038 1.463-21.026 1.818-42.006-1.5-62.905l.451-2.185c.352-1.7-.256-3.696-1.625-4.464a168.63 168.63 0 0 0-2.697-11.528c-1.41-5.175-6.779-.298-8.586 2.896-1.594-16.437-4.721-32.758-8.764-48.659-8.707-34.233-22.746-67.649-42.273-97.143-.445-.673-1.047-.99-1.701-1.073-3.139-6.201-6.629-12.122-10.662-17.5-.012-15.368-14.326-26.43-26.473-33.996-9.986-6.22-20.928-11.448-32.16-15.562-8.951-8.287-18.684-15.663-29.551-21.394-24.215-12.77-52.85-13.51-79.432-9.805-23.746 3.31-46.55 10.195-69.011 18.215a278.61 278.61 0 0 0-48.194 18.177l-1.336.504c-.292.109-.576.307-.845.563-42.659 21.253-79.638 53.519-104.235 94.688-1.102 1.845-1.729 5.115-.258 6.951 1.998 2.495 5.056-.224 6.443-1.848a299.323 299.323 0 0 1 17.151-18.431 194.966 194.966 0 0 0-7.719 11.643c-16.076 26.244-26.579 56.405-27.475 87.316-.109 3.743 4.65.128 4.79-2.205 2.498-41.847 22.53-82.794 52.336-111.99 14.712-14.411 32.543-25.618 52.495-31.04 23.72-6.447 47.931-1.241 71.386 3.906 1.651.363 3.305.733 4.96 1.107.455.646 1.134 1.049 2.124.974.51-.039 1.02-.096 1.529-.144 17.145 3.929 34.422 8.216 51.833 10.937.424.268.945.468 1.586.582 1.881.333 3.783.476 5.703.459 15.242 1.962 30.584 2.524 46.025.39 17.348-2.398 34.037-8.262 51.441-10.298 8.809-1.03 17.664 6.05 26.359 7.783.83.166 1.637 3.26 2.443 3.468 7.846 10.11 15.168 10.981 21.664 21.846 25.699 42.99 36.02 92.477 41.125 141.737 1.686 16.27 2.973 32.54 3.727 48.817-.412 22.688-.463 45.382-.385 68.076-.24 3.802-.506 7.604-.828 11.409-1.779 21.036-4.582 42.244-10.498 62.556-6.619 22.727-20.389 42.725-34.529 61.423-16.121 21.315-34.127 42.948-55.396 59.333-.367.281-.738.553-1.107.83-12.812 4.348-24.932 11.814-34.334 20.834a208.849 208.849 0 0 1-30.861 11.783c-20.426 6.002-42.021 8.426-63.207 5.828-3.714-.455-7.199 8.343-2.814 8.94 31.195 4.248 63.589-2.386 92.691-15.636.242 2.079 1.498 3.412 4.541 2.663 9.754-2.403 19.602-7.646 27.898-13.603.348.188.803.223 1.381.047.309 1.064 1.143 1.609 2.816.996 2.975-1.088 5.775-2.562 8.396-4.314.701.643 1.666.896 2.92.395 15.902-6.384 28.883-20.134 39.955-32.768 8.471-9.666 16.039-20.237 22.902-31.182 1.881.328 4.598-1.312 5.9-2.816 14.562-16.801 24.139-37.423 32.143-57.979 6.365-16.342 11.729-33.324 15.67-50.515-.023 6.169.137 12.329.572 18.475.295 4.187 4.246 4.226 6.807 1.831 20.062-18.76 16.256-46.627 13.621-71.357zM402.412 196.724a315.868 315.868 0 0 1 6.9-3.239c.518.678 1.334 1.166 2.542 1.359.703.113 1.407.205 2.111.288-3.876.319-7.727.847-11.553 1.592zm128.055 16.486c-.51.187-1.051.532-1.592.986-.525-.082-1.047-.172-1.572-.256a184.15 184.15 0 0 0 3.377-.806c-.069.026-.141.05-.213.076zm40.838 1.797c-.158.504-.293 1.235-.35 2.031-2.809.191-5.635.28-8.467.277 3.09-1.62 6.047-3.287 8.811-4.85l1.418-.415a11.624 11.624 0 0 0-1.412 2.957zm-3.36-47.495c1.318.144 2.637.298 3.955.46a392.3 392.3 0 0 0-3.906-.096 3.545 3.545 0 0 0-.049-.364zm-44.443-14.148c1.668-3.428 2.467-7.599-.271-8.604 16.053-1.512 32.174-1.001 48.25 2.596 10.088 2.257 19.461 6.397 28.174 11.737-25.026-5.345-50.657-7.125-76.153-5.729zm90.219 55.738c-1.57.352-3.135.712-4.701 1.073 5.354-2.467 10.717-4.873 16.225-6.708 7.559-.324 15.654-.236 23.279 1.179.094.108.186.216.277.325-11.787-.683-23.641 1.564-35.08 4.131zm92.605 425.199c1.066-3.389 2.344-6.713 3.621-9.945a199.876 199.876 0 0 1 3.248-7.701c1.967-3.021 3.852-6.115 5.623-9.35 2.094-3.826 4.174-7.664 6.225-11.518-4.982 13.096-10.879 26.617-18.717 38.514zm24.371-250.2a602.235 602.235 0 0 0-1.635-13.305c.689 4.297 1.363 8.598 2.014 12.901-.129.131-.256.266-.379.404zm28.858 163.841c-.346-13.188.297-26.382 1.301-39.57a381.742 381.742 0 0 1 1.377 19.506c.312 7.091-.081 13.975-2.678 20.064z"/><path d="M395.925 781.111c-1.504 22.625 7.118 43.436 22.736 59.663 14.15 14.702 41.719 28.576 62.43 23.482 3.041-.751 8.035-10.592 3.633-12.052-9.358-3.102-19.43-3.141-28.904-6.209-9.605-3.11-18.516-8.124-26.586-14.135-17.559-13.08-29.064-31.062-28.688-53.45.065-3.926-4.479.587-4.621 2.701zm247.317 105.533c2.432 8.39 6.174 16.245 9.17 24.448 3.607 9.869 5.561 20.243 7.52 30.533 3.996 20.972 5.561 42.393 8.697 63.502.154 1.045.414 3.286 1.838 3.584.42.089.842.176 1.262.266 2.617.547 4.754-2.037 5.664-4.254 3.789-9.249.389-20.062-.811-29.732-1.479-11.949-3.453-23.834-5.809-35.643-2.326-11.653-5.584-23.046-10.195-34.006-3.404-8.096-7.709-17.021-16.584-19.842-.51-.164-.857.77-.752 1.144z"/><path d="M680.352 855.268c-13.768 5.041-25.691 13.127-35.002 24.5-1.555 1.896-3.025 4.763-2.236 7.293 1.01 3.238 4.26.291 5.316-1.162 8.01-11.031 18.803-18.973 31.115-24.641 1.881-.867 3.893-7.119.807-5.99zm73.634-497.211c-2.082-6.696-9.615 5.362-8.705 9.559 15.807 73.078 12.623 172.586-18.543 241.271-29.758 65.585-87.213 113.578-157.938 128.701-79.475 16.997-166.803-4.758-223.397-64.353-57.212-60.246-71.445-145.151-64.144-225.23-3.661-2.081-7.402-3.942-11.29-5.409a525.514 525.514 0 0 0-3.098 29.117c-6.189 79.718 11.508 162.806 67.164 222.78 55.507 59.816 141.073 82.547 220.336 69.527 73.639-12.098 134.83-59.135 171.561-123.279 44.908-78.425 54.834-196.6 28.054-282.684z"/><path d="M711.91 410.123c-8.35-14.91-21.922-27.534-37.9-33.802-15.562-6.104-33.252-8.717-49.902-9.186-16.109-.452-24.184 39.312-11.023 36.907 15.936-2.913 31.871-2.949 47.73.577 15.25 3.39 30.764 7.579 42.994 17.801 5.277 4.413 10.406-8.177 8.101-12.297z"/><path fill="#FFF" d="M591.932 528.196c-50.99 2.386-102.844 5.738-153.516-2.19-3.546-.555-6.207 4.861-6.562 7.571-1.479 11.309 2.703 21.571 9.174 30.382-4.327 8.068-4.754 17.351 3.567 24.324 9.597 8.039 23.208 11.635 35.724 13.482 7.1 3.285 14.772 5.332 22.756 6.033 35.733 3.136 66.815-22.199 82.594-52.318 3.512-6.705 6.285-13.839 8.527-21.061.564-1.814.827-6.367-2.264-6.223zm-117.347 34.177a29.426 29.426 0 0 0 6.301 4.356c-4.389-.558-8.71-1.432-12.862-2.769a70.145 70.145 0 0 1 6.561-1.587zm80.724 1.943c-.352.002-.701.02-1.051.023 1.27-.18 2.541-.34 3.811-.482a40.02 40.02 0 0 1-.197 1.565c-.474-.692-1.288-1.113-2.563-1.106zm-97.712-8.703a41.196 41.196 0 0 1-2.236-2.694c2.741-.062 5.481-.105 8.223-.13a54.683 54.683 0 0 0-5.987 2.824zm-12.508-15.567l-.074-.217.566.07c-.164.045-.33.086-.492.147zm134.768 1.815c-7.533-.018-15.062-.154-22.592-.352 8.768-.377 17.541-.764 26.32-1.088-.393 1-.803 1.994-1.229 2.98-.422-.916-1.202-1.538-2.499-1.54zm-130.436 31.698c.277.448.573.887.857 1.332a13.258 13.258 0 0 1-1.331-1.798c.158.156.316.309.474.466z"/><path d="M408.117 513.069c30.156 19.629 69.407 24.171 104.582 24.143 19.358-.016 38.875-2.22 57.762-6.445 16.494-3.689 34.718-9.184 48.529-19.299 2.611-1.913 4.609-10.483-.586-7.713-15.026 8.013-30.076 13.96-46.74 17.763-18.812 4.293-38.09 5.917-57.35 6.149-34.227.413-72.619-3.841-102.721-21.42-2.732-1.595-6.167 5.07-3.476 6.822z"/><path d="M423.302 520.782c-3.561 44.984 26.315 88.54 72.08 95.552 20.483 3.139 43.898-1.662 61.649-12.253 16.187-9.656 27.147-25.342 33.957-42.613 5.136-13.024 8.774-28.499 8.429-42.548-.036-1.476-1.199-2.638-2.698-2.183-2.17.659-3.379 3.099-3.754 5.153-1.873 10.258-2.791 20.464-5.742 30.529-2.569 8.764-6.309 17.187-11.527 24.698-11.235 16.171-28.885 24.883-47.888 28.321-22.828 4.132-45.302.468-64.353-13.092-18.583-13.228-30.833-34.717-33.824-57.186-.712-5.35-.81-10.774-.464-16.153.354-5.522-5.576-1.873-5.865 1.775z"/><path d="M426.607 553.893c24.352 12.506 51.918 19.104 79.178 20.565 28.312 1.517 59.691-2.881 83.486-19.357 2.499-1.731 3.912-9.565-.527-6.939-24.979 14.776-53.092 19.495-81.845 18.009-26.341-1.361-53.084-7.48-76.943-18.848-2.784-1.328-6.082 5.166-3.349 6.57z"/><path fill="#AF543F" d="M322.033 518.081a3.112 3.112 0 0 0-.346-.954c-.047-.083-.098-.152-.148-.227-1.027-2.19-2.574-4.09-4.589-5.22-7.03-3.944-12.778 6.636-14.812 11.563-.51 1.239-1.116 4.84 1.318 4.264.945 2.386 3.278 4.127 6.133 5.335 6.456 2.734 12.37-.898 13.295-7.76.302-2.223-.009-4.715-.851-7.001zm-4.173 9.348c.144-.266.22-.38.243-.414a.172.172 0 0 0 .011.048c-.015-.001-.074.036-.254.366zm.259-.905a3.172 3.172 0 0 0-.018.484 1.07 1.07 0 0 1-.393.277c-.868.343-1.785.272-2.693.174-.736-.081-1.727-.285-2.75-.612.433-.245.837-.497 1.184-.67l3.176-1.579c.416.158.906.149 1.385-.043.004.028.012.058.016.085.111.703.128 1.488.093 1.884zm36.948-9.542a3.155 3.155 0 0 0-.347-.955c-.047-.083-.098-.152-.148-.227-1.027-2.189-2.572-4.09-4.59-5.22-7.029-3.943-12.777 6.637-14.81 11.563-.513 1.24-1.117 4.84 1.317 4.264.946 2.387 3.279 4.127 6.133 5.336 6.457 2.733 12.371-.899 13.297-7.759.301-2.224-.009-4.716-.852-7.002zm-4.174 9.347c.145-.265.22-.38.243-.414a.152.152 0 0 0 .011.048c-.015-.002-.073.036-.254.366zm.259-.904c-.025.285-.023.42-.017.485a1.079 1.079 0 0 1-.394.276c-.867.344-1.784.272-2.693.174-.734-.081-1.727-.285-2.75-.612.432-.244.836-.496 1.184-.669l3.176-1.579c.417.157.906.148 1.386-.043l.015.085c.112.701.129 1.488.093 1.883zm36.674-8.443a3.101 3.101 0 0 0-.346-.955c-.047-.083-.098-.152-.148-.227-1.027-2.189-2.572-4.09-4.589-5.22-7.03-3.943-12.778 6.637-14.812 11.563-.51 1.24-1.117 4.84 1.318 4.264.946 2.387 3.278 4.127 6.132 5.336 6.458 2.733 12.372-.899 13.297-7.759.301-2.224-.009-4.716-.852-7.002zm-4.172 9.347c.143-.265.219-.38.242-.414.004.029.008.044.012.048-.017-.002-.075.036-.254.366zm.258-.904c-.025.285-.024.42-.017.485-.038.041-.177.191-.394.276-.867.344-1.785.272-2.693.174-.735-.081-1.727-.285-2.75-.612.433-.244.837-.496 1.184-.669 1.059-.527 2.117-1.054 3.176-1.579.416.157.906.148 1.385-.043.004.028.012.057.016.085.112.701.129 1.488.093 1.883zm-43.452 23.368a3.123 3.123 0 0 0-.347-.954c-.047-.083-.098-.152-.147-.227-1.027-2.188-2.573-4.091-4.59-5.22-7.031-3.943-12.778 6.637-14.811 11.562-.511 1.24-1.117 4.84 1.318 4.264.945 2.387 3.278 4.127 6.132 5.336 6.458 2.733 12.372-.899 13.297-7.76.301-2.224-.01-4.715-.852-7.001zm-4.173 9.348c.145-.266.221-.38.243-.414a.15.15 0 0 0 .011.047c-.015-.003-.075.037-.254.367zm.259-.905a2.739 2.739 0 0 0-.017.484 1.074 1.074 0 0 1-.394.277c-.869.343-1.785.272-2.693.174-.735-.081-1.728-.285-2.75-.612.432-.245.836-.497 1.184-.67l3.175-1.579c.417.158.907.148 1.386-.042.004.028.011.056.016.085.113.702.13 1.488.093 1.883zm38.996-9.542a3.078 3.078 0 0 0-.347-.954c-.047-.083-.098-.153-.148-.228-1.027-2.188-2.572-4.09-4.588-5.22-7.031-3.943-12.779 6.637-14.812 11.562-.511 1.24-1.117 4.84 1.317 4.264.946 2.387 3.279 4.127 6.133 5.336 6.457 2.734 12.371-.898 13.297-7.76.301-2.223-.01-4.715-.852-7zm-4.174 9.348c.145-.267.22-.38.242-.415.004.029.01.044.012.049-.015-.002-.074.035-.254.366zm.258-.905c-.025.285-.023.42-.017.484a1.075 1.075 0 0 1-.394.278c-.867.343-1.784.271-2.693.173-.734-.081-1.727-.284-2.75-.611.434-.246.838-.498 1.184-.67l3.176-1.58c.417.158.906.148 1.386-.042.003.028.011.058.015.085.113.702.13 1.487.093 1.883zm276.45-36.931a3.112 3.112 0 0 0-.346-.954c-.047-.083-.098-.153-.148-.227-1.027-2.19-2.572-4.091-4.59-5.22-7.029-3.945-12.777 6.636-14.809 11.563-.512 1.239-1.119 4.839 1.316 4.264.945 2.385 3.277 4.127 6.131 5.335 6.459 2.734 12.373-.898 13.297-7.76.302-2.223-.007-4.716-.851-7.001zm-4.174 9.348c.145-.266.221-.38.242-.415l.012.049c-.015-.002-.072.036-.254.366zm.26-.905a2.905 2.905 0 0 0-.018.484 1.082 1.082 0 0 1-.393.277c-.867.343-1.785.271-2.693.174-.736-.081-1.727-.285-2.75-.612.432-.245.836-.497 1.184-.671l3.176-1.578c.416.158.906.148 1.385-.043.004.028.012.058.016.085.113.703.128 1.488.093 1.884zm36.947-9.544a3.115 3.115 0 0 0-.346-.953c-.047-.083-.098-.152-.148-.228-1.027-2.188-2.572-4.09-4.59-5.219-7.029-3.943-12.779 6.637-14.811 11.563-.51 1.24-1.115 4.84 1.318 4.264.947 2.387 3.279 4.126 6.133 5.336 6.457 2.732 12.371-.899 13.297-7.76.302-2.224-.009-4.716-.853-7.003zm-4.173 9.349c.146-.265.221-.38.244-.414a.258.258 0 0 0 .01.048c-.014-.002-.075.036-.254.366zm.259-.904a2.798 2.798 0 0 0-.016.484 1.104 1.104 0 0 1-.395.277c-.869.343-1.785.272-2.693.173-.734-.08-1.729-.284-2.75-.611.432-.244.836-.497 1.184-.67l3.176-1.579c.418.158.906.149 1.385-.042.004.028.012.057.016.085.113.701.13 1.487.093 1.883zm36.674-8.445a3.115 3.115 0 0 0-.346-.953c-.047-.083-.098-.152-.148-.228-1.027-2.188-2.572-4.09-4.59-5.219-7.029-3.943-12.777 6.637-14.811 11.563-.512 1.24-1.117 4.84 1.318 4.264.945 2.387 3.279 4.126 6.133 5.336 6.457 2.732 12.371-.899 13.297-7.76.301-2.224-.009-4.716-.853-7.003zm-4.174 9.349c.145-.265.221-.38.244-.414.002.028.008.043.01.048-.013-.002-.072.036-.254.366zm.26-.904a3.17 3.17 0 0 0-.018.484 1.07 1.07 0 0 1-.393.277c-.867.343-1.785.272-2.693.173-.734-.08-1.727-.284-2.75-.611.432-.244.836-.497 1.184-.67l3.174-1.579c.418.158.908.149 1.387-.042.004.028.012.057.016.085.113.701.128 1.487.093 1.883zm-43.451 23.367a3.115 3.115 0 0 0-.346-.953c-.049-.083-.098-.152-.148-.227-1.027-2.188-2.572-4.091-4.59-5.22-7.031-3.944-12.777 6.637-14.811 11.562-.512 1.241-1.117 4.84 1.318 4.265.945 2.386 3.279 4.126 6.133 5.336 6.455 2.732 12.369-.9 13.297-7.76.299-2.225-.011-4.717-.853-7.003zm-4.174 9.349c.143-.266.219-.38.242-.415.004.029.008.044.012.048-.014-.003-.074.037-.254.367zm.258-.905a3.334 3.334 0 0 0-.016.484 1.07 1.07 0 0 1-.393.277c-.869.343-1.785.272-2.693.172-.734-.079-1.727-.283-2.75-.611.432-.244.836-.497 1.184-.669l3.174-1.579c.418.158.908.148 1.387-.043.004.029.012.057.016.086.112.702.128 1.488.091 1.883zm38.996-9.543a3.112 3.112 0 0 0-.346-.954c-.047-.082-.098-.152-.148-.227-1.027-2.188-2.572-4.09-4.59-5.22-7.031-3.943-12.777 6.637-14.811 11.562-.51 1.24-1.115 4.84 1.318 4.264.947 2.387 3.279 4.127 6.133 5.336 6.457 2.733 12.371-.898 13.297-7.761.301-2.222-.009-4.714-.853-7zm-4.174 9.349c.146-.267.221-.38.244-.415a.305.305 0 0 0 .01.049c-.014-.002-.072.035-.254.366zm.26-.905c-.025.285-.023.42-.016.484a1.104 1.104 0 0 1-.395.277c-.869.343-1.785.272-2.693.174-.734-.081-1.727-.284-2.75-.611.432-.246.836-.498 1.184-.671l3.176-1.579c.416.158.906.148 1.385-.042.004.028.012.058.016.085.112.702.13 1.487.093 1.883z"/><path d="M278.198 448.466c4.53-40.164 8.408-80.638 16.328-120.31 3.233-16.19 7.72-33.617 13.636-50.088a261.88 261.88 0 0 1 2.148-5.736c.365-.946.742-1.888 1.119-2.83 1.242-3.105-.841 1.994.448-1.077a222.26 222.26 0 0 1 5.386-11.801 201.38 201.38 0 0 1 5.536-10.455 173.618 173.618 0 0 1 2.987-5.064c-1.357 2.223.361-.53.539-.807.702-1.092 1.424-2.17 2.149-3.246 2.175-3.228 4.483-6.363 6.872-9.436a167.188 167.188 0 0 1 3.684-4.545c.626-.75 1.267-1.49 1.906-2.229-1.525 1.762 1.137-1.238 1.407-1.531 5.632-6.126 11.721-11.813 18.18-17.058 1.751-1.421 1.414-1.148 3.64-2.803a171.976 171.976 0 0 1 5.095-3.625c3.816-2.63 7.758-5.074 11.763-7.405 7.946-4.624 16.061-8.489 24.539-11.921 20.62-8.348 42.399-13.61 64.31-17.215 24.513-4.034 49.702-6.459 74.547-4.94 47.058 2.877 90.89 26.709 127.018 55.853 17.184 13.862 31.562 31.171 42.376 50.383 10.184 18.092 16.413 38.381 21.12 58.499 5.025 21.475 9.094 43.875 11.224 65.83 2.703 27.87 7.462 57.845-1.135 85.165-.758 2.41-1.131 6.466 1.623 7.869 3.438 1.752 7.266-2.556 8.517-5.252 6.775-14.609 10.376-30.071 10.8-46.164.408-15.5-1.09-30.929-2.513-46.345-2.241-24.288-6.36-48.681-11.482-72.525-9.278-43.194-27.668-82.737-60.984-112.583-19.221-17.218-41.695-31.599-64.654-43.292-19.724-10.044-40.89-16.845-62.881-19.528-24.231-2.957-48.851-.811-72.933 2.431-23.607 3.178-46.976 7.845-69.535 15.604-35.641 12.258-67.918 32.628-91.683 62.134-21.896 27.187-35.149 60.49-43.472 94.099-11.76 47.489-14.931 96.588-18.436 145.215-.202 2.792.861 6.511 4.49 5.409 3.488-1.06 5.934-5.243 6.321-8.68z"/><path d="M389.052 442.625a30.395 30.395 0 0 0-.985-1.209c-3.915-5.919-10.372-10.005-17.815-10.704-4.502-.97-9.171-.873-13.564.628-3.581 1.225-7.121 3.492-9.358 6.58-10.003 7.27-11.865 21.318-4.035 31.818 9.802 13.143 28.062 13.886 40.822 4.907 11.017-7.752 13.05-21.444 4.935-32.02zm-44.524 6.593c-.211.91-.374 1.841-.478 2.789.019-1 .194-1.923.478-2.789zm327.296-13.285c-.316-.41-.646-.812-.986-1.208-3.914-5.918-10.371-10.006-17.816-10.704-4.5-.97-9.17-.873-13.562.628-3.582 1.224-7.121 3.491-9.359 6.58-10.004 7.269-11.865 21.317-4.035 31.817 9.803 13.143 28.061 13.886 40.822 4.907 11.016-7.752 13.051-21.442 4.936-32.02zm-44.525 6.593a23.986 23.986 0 0 0-.479 2.789c.02-.999.196-1.921.479-2.789z"/><circle fill="#FFF" cx="372.036" cy="448.795" r="9.57"/><path fill="#163663" d="M793.713 382.334s11.879 43.189-4.402 111.527c0 0-6.254-14.096-14.078-22.147-7.822-8.052-20.598-100.68-20.598-100.68l39.078 11.3z"/><circle fill="#FFF" cx="639.858" cy="442.84" r="9.571"/><path fill="#D8724A" d="M281.283 468.272c-11.416-10.862-28.619-25.267-45.745-18.408-19.245 7.708-29.454 29.331-31.149 49.016-2.074 24.118 7.838 71.64 42.027 62.063 14.023-3.929 25.22-16.669 33.319-28.032 5.626-7.89 11.444-22.29 4.339-31.166-7.074-8.829-19.149.303-23.799 6.827a107.86 107.86 0 0 1-4.346 5.7c-2.755 3.361 3.971-4.349 1.129-1.292a55.111 55.111 0 0 1-2.062 2.069 46.253 46.253 0 0 1-2.025 1.812c-2.752 2.368 4.479-3.316 1.637-1.285-1.203.862-2.49 1.589-3.812 2.249 6.121-3.052 2.018-.973.15-.52-2.592.63 4.545-.476 1.941-.229-.554.054-1.11.044-1.667.033-1.629-.03-5.432-1.259.181.373-1.204-.35-2.336-.919-3.416-1.545-3.493-2.024.334.515-.026.192-.884-.787-1.673-1.677-2.431-2.583-.805-.957-1.516-1.99-2.198-3.035-.355-.545-.683-1.109-1.009-1.669-1.342-2.308 2.188 4.337.484.792-1.225-2.548-2.166-5.226-2.977-7.932a63.513 63.513 0 0 1-1.087-4.258c-.696-3.091.929 4.941.366 1.818a72.836 72.836 0 0 1-.443-2.934c-.393-2.913-.553-5.853-.553-8.788-.001-3.318-.243 5.833-.087 2.545.034-.705.095-1.405.154-2.106.114-1.361.314-2.714.546-4.063.778-4.567-1.815 6.758-.256 1.394.175-.598.38-1.185.586-1.769 1.134-3.213-2.917 6.818-1.534 3.745 2.329-5.186-2.257 3.265-1.421 2.036 2.881-4.239-4.877 4.641-1.109 1.321-5.346 4.708-4.211 3.137-2.616 2.1 1.275-.826 3.829-1.78-2.548 1.07.97-.434 2.008-.688 3.047-.879-5.988 1.109-2.077.312-.203.45.639.047 1.268.157 1.895.267 2.43.42-4.231-1.32-.503-.105 3.296 1.075 6.354 2.833 9.255 4.7 1.82 1.173 3.549 2.483 5.253 3.817-3.15-2.464.146.15.644.583 1.347 1.17 2.641 2.393 3.934 3.623 8.143 7.747 18.303.602 23.799-6.826 5.023-6.793 12.284-23.607 4.336-31.171zm546.776 9.748c-.957-4.149-2.451-8.053-4.365-11.716.879-5.398.283-10.805-2.889-14.766-3.256-4.064-7.34-4.364-11.312-2.909-6.285-5.53-13.535-10.068-20.938-13.585-12.025-5.712-25.5 10.901-28.248 25.44-4.227 4.088-7.9 8.328-10.723 11.827-6.025 7.469-11.191 22.609-4.34 31.166 7.285 9.093 18.826-.657 23.801-6.827.268-.33 1.02-1.19 1.619-1.876a67.98 67.98 0 0 1 2.604-2.518c.061 1.669.264 3.244.635 4.662.605 2.31.736 3.08.951 5.056-.801.432-1.756.881-3.105 1.602-5.543 2.953-11.234 10.377-14.131 18.358-13.707 11.202-21.277 40.885-3.871 40.885 6.045 0 11.822-4.493 16.229-10.641 10.729 7.113 23.287 8.447 34.131-3.714a65.198 65.198 0 0 0 10.527-16.075c11.446-15.675 17.948-34.77 13.425-54.369zm-52.926 26.129a8.797 8.797 0 0 0-.178.485c.057-.171.113-.34.172-.508l.006.023z"/><path fill="#61E9FF" d="M248.922 943.076c27.167 26.615 63.944 39.014 100.362 46.916 39.617 8.6 80.396 10.977 120.797 12.666 45.529 1.903 91.206 2.192 136.456-3.922 47.348-6.398 92.621-20.699 136.141-40.225 6.898-3.093 11.336-11.089 9.477-18.601-19.697-79.534-71.467-151.919-151.135-179.136-38.887-13.285-80.34-12.652-120.887-10.787-36.495 1.678-73.363 6.27-108.269 17.398-35.892 11.445-69.154 31.383-91.784 61.998-26.754 36.19-33.289 82.326-29.852 126.185.987 12.604 14.699 1.944 16.301-4.896 8.246-35.235 13.853-71.691 27.305-105.451 11.988-30.091 34.914-50.671 65.094-61.771 20.896-7.682 43.405-10.645 65.186-14.788 23.364-4.444 46.797-8.567 70.486-10.85 45.792-4.409 92.596-.495 132.391 24.401 34.826 21.788 61.648 60.555 75.99 98.533 6.441 17.067 10.777 36.859 6.562 54.998-4.545 19.577-19.266 30.981-36.266 39.908-39.904 20.951-88.02 24.433-132.252 24.238-44.56-.193-89.971-4.594-133.899-12.062-51.781-8.8-104.602-24.145-148.474-53.865-8.036-5.443-19.51 15.76-10.972 21.543 41.828 28.337 91.568 43.143 140.719 52.749 43.904 8.583 89.549 12.751 134.233 13.999 72.844 2.037 201.812-8.916 205.393-106.049 1.488-40.279-18.945-79.147-42.566-110.463-26.975-35.764-63.252-59.375-107.289-68.171-45.229-9.038-92.552-1.587-137.327 6.528-40.01 7.252-83.119 12.079-116.636 37.16-52.274 39.112-59.447 109.74-73.243 168.697 5.432-1.635 10.865-3.266 16.3-4.897-2.817-35.932 1.017-73.464 22.548-103.509 18.543-25.877 47.666-41.6 77.236-51.55 34.791-11.706 71.787-15.894 108.287-17.571 41.059-1.889 82.631-2.046 121.684 12.363 73.811 27.229 120.695 96.271 139.035 170.346 3.162-6.199 6.318-12.399 9.479-18.602-41.996 18.84-85.59 32.81-131.193 39.536-44.57 6.575-90.025 5.938-134.917 4.124-38.631-1.56-77.332-3.97-115.375-11.199-35.878-6.814-74.358-18.762-101.059-44.92-8.019-7.854-20.777 12.427-14.067 18.999z"/><path fill="#61E9FF" d="M268.477 892.748c17.852-21.496 32.644-41.998 50.876-59.515 18.875-18.134 43.103-29.931 70.43-36.681-.977-12.872-1.953-25.744-2.933-38.615-40.845 37.346-90.669 65.6-121.099 113.262-5.029 7.874-9.67 17.864-6.366 27.396 3.015 8.698 10.771 7.916 17.61 4.729 35.434-16.512 66.113-41.496 98.094-63.604 30.619-21.166 64.479-42.275 102.505-45.383.435-13.062.871-26.127 1.308-39.189-31.678 32.695-74.596 53.137-114.342 77.371-43.043 26.241-83.383 58.77-104.985 105.535-4.713 10.203-7.431 32.043 10.263 28.656 23.965-4.592 45.936-18.243 65.827-31.783 22.044-15.014 42.661-32.008 64.054-47.908 21.904-16.277 45.692-30.059 68.819-44.504 26.972-16.848 54.693-32.74 85.824-40.383-4.238-7.562-8.475-15.127-12.711-22.691-.422 1.308-3.369 8.846-.682 2.46-.941 2.24-2.047 4.409-3.166 6.567-.602 1.158-4.953 8.158-1.348 2.521-1.719 2.688-3.615 5.258-5.543 7.799-1.584 2.092-3.273 4.101-4.975 6.1 3.398-3.996-2.266 2.325-2.9 2.983-4.398 4.569-9.102 8.843-13.891 12.999-9.477 8.227-17.014 13.595-28.331 21.342-11.976 8.196-24.313 15.859-36.703 23.41-45.36 27.635-96.817 52.841-132.577 93.153-6.685 7.537-12.043 16.64-11.247 27.151.624 8.201 5.946 13.266 14.18 11.465 56.698-12.405 102.68-53.508 147.348-87.979 23.484-18.125 47.771-33.43 73.595-47.973 29.707-16.729 59.365-33.621 87.477-52.956l-14.631-26.639a165.996 165.996 0 0 1-7.27 14.017c2.66-4.597-1.242 1.891-1.508 2.297-1.713 2.6-3.547 5.119-5.395 7.624-7.459 10.126-12.324 15.161-21.979 24.506-17.754 17.181-36.967 31.31-57.395 45.144-40.245 27.258-83.342 50.002-123.587 77.239-8.339 5.64-14.058 15.058-15.351 25.061-.977 7.56 3.226 21.798 14.01 16.87 45.607-20.845 92.174-39.674 136.34-63.537 22.396-12.102 43.939-25.75 64.129-41.269 20.381-15.671 38.27-34.736 60.527-47.841l-11.244-32.127c-51.148 64.109-119.873 111.098-187.045 156.788-9.582 6.52-16.415 18.67-15.521 30.468.848 11.142 9.458 14.037 18.551 9.449 79.881-40.297 147.602-104.796 232.733-134.668-3.422-9.551-6.84-19.104-10.262-28.654a115.287 115.287 0 0 1-2.176 4.13c-3.602 6.669 2.678-3.888-1.439 2.462-2.535 3.909-5.4 7.596-8.342 11.205-1.178 1.447-3.746 4.156-7.262 7.637-3.416 3.381-7.031 6.558-10.686 9.676-13.436 11.468-30.975 22.398-47.244 32.416-33.842 20.838-69.727 40.695-96.837 70.353-6.761 7.399-12.037 16.745-11.247 27.151.603 7.947 5.973 13.589 14.18 11.465 73.635-19.051 130.254-74.326 196.842-108.014-5.693-6.892-11.387-13.781-17.08-20.675-.344 1.438-3.1 8.73-.451 2.642a52.026 52.026 0 0 1-1.703 3.367c1.768-2.713 1.869-2.883.307-.516-1.51 2.274-3.254 4.395-5 6.49 2.965-3.56-2.941 2.826-3.553 3.424-9.189 8.968-17.357 14.559-28.164 21.92-21.24 14.475-43.98 27.191-63.236 44.381-7.207 6.431-11.982 17.469-11.248 27.148.521 6.854 6.211 14.969 14.182 11.466 44.568-19.597 88.48-43.569 136.682-53.001 18.033-3.528 30.6-48.816 5.709-43.946-48.199 9.433-92.109 33.405-136.682 53 .979 12.872 1.955 25.744 2.932 38.616 5.334-4.759 4.768-4.225 10.102-8.09 5.664-4.104 11.516-7.953 17.363-11.792 12.574-8.251 25.289-16.288 37.52-25.049 23.785-17.036 49.246-38.853 56.373-68.626 3.094-12.923-.918-28.852-17.08-20.674-63.594 32.172-117.891 85.814-188.103 103.982.978 12.871 1.954 25.742 2.933 38.615 26.872-29.4 62.79-47.73 97.008-69.131 36.508-22.83 71.566-49.569 91.635-88.67 4.248-8.275 7.25-34.799-10.262-28.654-88.506 31.055-158.539 96.863-241.471 138.696l3.029 39.917c73.721-50.145 147.395-102.068 203.477-172.365 5.625-7.048 9.439-18.521 6.365-27.396-2.834-8.176-11.006-8.618-17.609-4.729-22.049 12.978-40.025 31.17-59.77 47.179-19.164 15.539-40.568 28.488-62.113 40.41-42.037 23.263-86.745 41.083-130.375 61.023l-1.342 41.932c42.471-28.741 87.965-52.693 130.235-81.775 43.635-30.023 87.553-66.412 110.102-115.602 3.072-6.701 5.52-14.585 2.979-21.911-2.699-7.786-11.219-9.125-17.611-4.729-51.553 35.457-108.961 61.061-158.729 99.128-42.986 32.88-86.536 73.843-140.948 85.747.978 12.871 1.954 25.744 2.933 38.618 17.694-19.95 34.93-31.513 57.355-45.978 24.61-15.876 50.119-30.307 75.043-45.676 47.111-29.049 99.413-64.187 117.272-119.533 3.152-9.774 1.332-26.14-12.711-22.691-30.834 7.57-59.175 22.878-86.155 39.23-23.925 14.504-48.383 28.951-71.141 45.242-21.464 15.364-41.812 32.229-63.3 47.573-19.339 13.812-40.188 27.986-63.929 32.53 3.422 9.553 6.841 19.105 10.264 28.655 9.014-19.519 18.837-31.462 36.332-46.909 15.535-13.721 34.911-25.82 53.962-37.215 39.688-23.734 81.827-45.268 114.374-78.861 5.795-5.98 9.996-13.377 11.076-21.744.779-6.019-.947-18.167-9.769-17.445-86.491 7.063-143.222 79.402-217.819 114.168l11.246 32.127c27.76-43.474 75.432-69.77 113.214-104.313 7.16-6.55 11.987-17.384 11.247-27.152-.611-8.021-5.964-13.492-14.18-11.464-31.705 7.829-60.031 22.438-84.367 44.232-23.512 21.059-42.032 47.391-62.111 71.568-6.119 7.365-11.131 22.686-4.338 31.167 7.329 9.157 18.743-.743 23.797-6.825z"/><path fill="#D8724A" d="M423.193 740.631c-3.302 18.509-1.625 38.35 9.894 53.811 9.519 12.772 25.696 18.721 41.021 20.119 37.948 3.472 74.95-22.082 90.645-55.613 3.42-7.305 8.113-23.475-2.141-28.224-17.225-7.979-40.17-4.134-57.77.233-24.599 6.105-51.191 26.119-44.576 54.885 2.259 9.828 12.662 15.977 21.232 19.574 12.913 5.419 28.199 4.734 40.924-.768 15.176-6.561 27.889-18.727 34.453-34.033 8.01-18.672 7.342-36.318-2.326-54.084-5.582-10.254-20.029 1.73-23.803 6.827-6.715 9.073-9.904 20.942-4.338 31.167 1.4 2.569 1.984 5.127 2.227 7.614-.342-3.518-1.162 4.275.23-.847 1.648-6.068-2.322 2.744 1.24-2.436 2.658-3.861-.922.835-1.689 1.521 2.818-2.521-2.559 1.293-2.73 1.389-.488.272-5.828 1.963-8.104 2.193-7.945.798-14.724-1.387-21.524-5.288-3.451-1.983-1.678-.343-4.182-3.662 4.163 5.517-.971 18.591-6.965 25.192 1.539-1.428.944-1.033-1.791 1.183.977-.758 2.061-1.378 3.123-2.005.752-.443 4.847-2.281.647-.435 1.406-.618 2.854-1.136 4.298-1.658 6.469-2.337 13.27-3.753 20.045-4.837 2.643-.423 11.37-.935 16.399-.837 2.98.058 5.947.357 8.893.812.654.099 4.795 1.257 1.072.16 1.061.312 2.064.759 3.062 1.223-.713-9.411-1.426-18.817-2.141-28.227a60.462 60.462 0 0 1-1.596 3.28c-2.781 5.508 3.061-4.43-.311.666-.977 1.479-2.08 2.871-3.18 4.263 3.584-4.53.021-.089-.779.724-.906.922-7.576 6.318-3.699 3.434-2.781 2.068-5.779 3.829-8.822 5.479-1.955.963-2.049 1.041-.279.239-1.562.712-3.17 1.319-4.773 1.925-3.183 1.203-6.472 2.092-9.779 2.864-4.503 1.054-3.605.798-7.294 1.073-3.235.242-6.48.151-9.71-.062-6.817-.456-8.639-1.057-14.03-3.3-2.272-.95-4.411-2.173-6.496-3.473-3.012-1.879-1.562-.728-4.664-4.007-1.691-1.79-3.088-3.826-4.394-5.904 1.845 2.934-.52-1.299-.688-1.701-.627-1.472-1.074-3.01-1.525-4.541-1.489-5.07.408 3.536-.35-1.923-.249-1.796-.307-3.616-.371-5.427-.211-6.094-.395 3.973.191-2.434.196-2.127.577-4.233.952-6.334 1.582-8.868-3.357-20.105-14.012-16.869-11.367 3.456-17.792 16.284-19.716 27.079z"/><path fill="#163663" d="M248.394 382.334s-11.881 43.189 4.401 111.527c0 0 6.255-14.096 14.077-22.147 7.823-8.052 20.598-100.68 20.598-100.68l-39.076 11.3z"/><path fill="#D8724A" d="M450.918 743.248c-.95 36.034 27.769 63.928 63.669 62.529 44.815-1.743 72.428-47.242 65.241-89.125-1.719-10.01-8.98-15.354-18.551-9.449-9.055 5.585-17.404 19.48-15.52 30.466.67 3.9 1.092 7.771 1.203 11.729-.158-5.647-2 10.316-.062 2.231-.359 1.501-.879 2.958-1.396 4.406 2.383-6.674.811-2.194-.025-.624 3.359-6.295 1.395-2.275.266-.757-2.986 4.025 3.764-3.864.258-.347-.887.891-4.607 3.765.086.211-1.088.824-2.26 1.539-3.424 2.251-.785.479-4.943 2.465-.518.468-1.256.566-2.564 1.021-3.865 1.475-2.639.918-5.381 1.493-8.127 1.963 3.287-.562-4.238.078-5.633.062-6.666-.078-10.199-.991-14.315-2.447-2.7-.955-5.277-2.223-7.787-3.596-1.254-.686-2.447-1.477-3.637-2.266-.264-.175-3.904-3.062-1.426-.959-2.201-1.867-4.124-4.033-5.926-6.277-.917-1.141-1.715-2.369-2.514-3.594-2.596-3.988 1.272 2.877-.789-1.496-1.336-2.834-2.213-5.857-2.938-8.895.963 4.033-.006-1.351-.057-1.866-.24-2.362-.204-4.742-.143-7.11.284-10.815-10.37-14.496-18.552-9.449-10.486 6.47-15.21 18.699-15.518 30.466z"/><path d="M274.696 463.662c-16.306-10.718-39.052-20.356-56.832-7.251-14.364 10.584-18.249 31.024-17.215 47.743 1.103 17.846 8.288 37.161 22.392 48.75 15.623 12.834 39.676 11.628 53.817-2.983 1.187-1.227 5.198-10.699.468-9.909-8.646 1.446-15.939 6.359-24.942 6.876-7.317.418-14.222-1.933-20.298-5.888-12.673-8.254-19.84-24.372-22.191-38.815-1.939-11.915-1.629-27.688 8.492-36.069 14.838-12.289 38.104-1.719 52.502 5.711 2.958 1.526 6.607-6.323 3.807-8.165zm486.22-.101c12.824-7.595 31.953-14.925 45.119-3.83 10.695 9.012 12.992 25.351 12.842 38.472-.154 13.763-4.074 29.112-13.432 39.554-12.031 13.425-26.668 8.459-41.594 4.428-4.541-1.227-10.5 9.196-6.824 12.247 15.428 12.814 36.789 8.521 50.205-4.686 13.738-13.526 20.025-34.69 21.051-53.468.887-16.229-1.648-36.29-15.361-47.045-16.982-13.324-38.268.116-52.154 11.538-.817.67-1.672 3.87.148 2.79z"/><g fill="#D8724A"><path d="M378.232 717.084h-.001l-.003.006z"/><path d="M781.137 363.297c-3.055-3.472-7.471-4.552-12.424-2.981l-1.842.586.002-.106-.393.232c-14.828 4.737-24.398 3.917-33.799 2.153 1.814-5.965 3.207-12.109 4.248-18.337.861-.026 1.758-.309 2.539-.791 3.371-2.08 5.252-6.273 5.164-10.138-.428-19.037-2.871-38.046-8-56.185-1.615-7.686-4.068-15.169-7.742-21.875-5.336-12.377-12.188-24.13-20.812-34.945-22.289-27.948-55.428-45.104-89.398-54.283-18.973-5.126-38.447-8.005-58.035-9.369-22.844-1.589-45.863-1.344-68.433 2.806a161.325 161.325 0 0 0-9.233 1.99c-30.967 1.118-61.659 7.165-89.725 20.854a151.423 151.423 0 0 0-7.723 4.057c-14.171 5.341-27.952 11.648-40.977 19.219-17.744 10.314-34.643 23.917-44.434 42.305-7.107 13.347-8.568 28.158-5.092 42.256-3.073 13.211-2.891 27.013.783 40.344-11.509 8.06-22.564 16.846-32.969 26.604-6.194 5.811-10.55 14.359-11.648 22.866-.498 3.85-.254 11.603 3.814 16.231 2.023 2.302 4.735 3.437 7.883 3.309 9.986-.454 20.271-1.669 31.117-3.689-8.703 4.309 2.672 8.794-4.591 13.56-8.604 5.645-14.802 15.75-16.175 26.378-.613 4.742.002 11.795 3.756 16.066 1.998 2.273-14.562 3.476-11.396 3.476 38.781-.163 58.471-4.495 62.178-5.048-25.301 10.893-51.568 22.835-77.04 37.165-9.586 5.391-15.085 17.166-16.283 26.444-.794 6.14.604 11.936 3.737 15.502 2.995 3.408 7.432 4.631 12.546 3.414 20.868-4.949 39.182-9.446 56.003-13.766-4.047 1.729-8.159 3.5-12.273 5.294l-1.08.267-.035.238c-10.69 5.083-18.262 15.752-19.859 28.102-.792 6.147.598 11.96 3.751 15.544 3.003 3.414 7.409 4.623 12.509 3.371l2.191-.55c-.451.233-1.001.466-1.451.702l-.419.055v.059c0 .59-2.077 1.178-3.215 1.766-9.087 4.703-14.899 16.876-16.142 26.474-.795 6.153.62 11.978 3.787 15.579 3.006 3.421 7.434 4.615 12.523 3.332a790.29 790.29 0 0 0 32.436-8.954c-7.772 7.563-14.584 23.718-11.934 33.851 1.743 6.67 7.314 9.801 15.567 8.613a435.001 435.001 0 0 0 23.051-3.951c-2.993 4.711-4.978 10.137-5.696 15.688-.59 4.571.113 11.497 4.045 15.969 3.062 3.482 7.478 4.537 12.397 2.904 3.516-1.17 7.034-2.337 10.554-3.494-3.989 5.27-6.63 11.579-7.471 18.086-.809 6.266.435 11.631 3.504 15.123 2.926 3.328 7.368 4.651 12.65 3.795.699-.113 1.398-.262 2.097-.379l.134-.222c7.115-1.161 14.244-2.603 21.381-3.79-3.746 8.378-5.616 17.877-2.01 23.898.999 1.671 2.76 3.013 5.777 3.648 1.215.468 2.641.72 4.293.722l.053.001a866.1 866.1 0 0 0 16.875-.211c10.775.086 21.484.104 32.002-.536.639 5.485 3.385 10.622 7.861 12.599 12.707 5.607 26.952 8.453 42.335 8.453 32.763 0 65.998-12.838 88.144-22.493 42.117-18.363 80.281-42.457 115.252-65.763l.973-.545-.008-.119c10.004-7.153 16.316-19.957 15.439-31.529-.617-8.136-5.592-13.395-12.666-13.395-.455 0-.918.023-1.381.07 11.307-9.049 20.777-18.859 28.703-29.706 5.48-7.497 10.098-19.079 6.623-29.104-1.465-4.225-4.533-7.085-8.479-8.054a260.462 260.462 0 0 0 6.055-5.533c7.939-7.483 12.58-18.729 11.828-28.646-.512-6.734-5.02-13.892-12.361-13.892-1.414 0-2.871.278-4.33.828a1962.6 1962.6 0 0 1-6.727 2.52c7.777-5.465 13.549-15.294 14.869-25.513.619-4.796-.43-11.91-4.199-16.197-3.09-3.514-7.494-4.484-12.318-2.648l-1.746.663.01-.319-1.279.794c-.943.352-1.896.705-2.854 1.057a369.165 369.165 0 0 0 19.086-16.255c6.186-5.647 10.547-14.201 11.67-22.881.66-5.125-.246-12.091-3.766-16.097a9.978 9.978 0 0 0-3.426-2.548 899.68 899.68 0 0 0 18.83-10.717c9.596-5.62 15.076-17.323 16.256-26.429.781-6.011-.789-12.251-3.992-15.899zM367.536 235.97c-8.712 8.403-17.343 16.885-26.104 25.225 2.562-3.864 5.34-7.63 8.368-11.289 2.031-2.455 4.382-5.001 6.921-7.536 5.045-4.195 10.436-7.989 16.049-11.421-.477.455-.953.907-1.428 1.363a28.696 28.696 0 0 0-3.806 3.658zm-47.931 45.216c4.842-13.352 11.148-26.103 19.23-37.771 4.018-3.669 8.277-7.068 12.719-10.237-12.843 13.599-23.031 29.393-30.393 46.636-.519.456-1.035.917-1.556 1.372zm360.424-65.381c.617.514 1.234 1.03 1.844 1.555a2.901 2.901 0 0 0-1.135-.396c-.238-.386-.468-.776-.709-1.159zm11.994 141.045c.496 1.111.979 2.228 1.467 3.344-1.252.002-2.805.009-4.527.017a81.179 81.179 0 0 0 3.06-3.361zm15.965-109.64a12.533 12.533 0 0 0-.648 4.093c.021 2.051.111 4.089.262 6.117-6.396-14.012-15.184-26.979-24.607-39.056-.029-.038-.061-.066-.092-.103 9.478 8.317 17.941 17.922 25.085 28.949zm-403.446 17.577c.098-.687.226-1.369.354-2.051.2-1.066-.1.279.367-1.487 1.431-5.415 3.538-9.399 6.334-13.466 3.697-5.376 7.044-8.819 12.166-13.396 6.8-6.076 14.358-11.37 22.374-16.056a170.406 170.406 0 0 0-9.602 11.453c-12.737 10.721-23.918 23.13-32.253 37.583-.019.031-.036.063-.053.094.084-.894.187-1.786.313-2.674zm108.603 49.357l2.936-1.311.147.358c-1.029.317-2.061.632-3.083.953zm98.569-5.76c4.461 2.452 8.825 5.088 13.104 7.8 1.721 1.09 3.436 2.19 5.145 3.297-6.43-2.829-12.451-5.745-18.04-8.857a21 21 0 0 0-.209-2.24zm17.788 145.926c9.236-6.984 17.869-14.155 26.014-21.6a296.252 296.252 0 0 0 15.24 3.149 2804.035 2804.035 0 0 0-41.254 18.451z"/></g><path fill="#AF543F" d="M489.319 674.1c10.2 1.648 19.999.707 29.921-2.018 5.193-1.426 10.1-3.734 14.797-6.328.34-.186.848-.525 1.439-.946.721-.253 1.441-.506 2.154-.774 7.076-2.676 11.662-5.634 14.367-11.29.463-.728.896-1.473 1.213-2.289 1.121-2.888 3.91-12.306-2.154-12.202-3.619.064-6.111 2.603-8.682 4.922-21.355 6.482-46.16 6.861-64.079-8.05-5.148-4.286-11.472 2.421-13.733 9.679a60.91 60.91 0 0 1-12.633-14.688c-1.962-3.187-6.693 4.751-5.591 7.24 8.027 18.062 22.764 33.48 42.981 36.744zm62.607 77.656c-16.35 9.049-35.275 12.574-53.836 11.955-18.507-.615-39.215-5.121-50.493-21.094-3.491-4.946-9.354 7.345-8.25 10.688 14.565 44.149 71.554 49.309 108.195 30.961 7.68-3.847 12.516-12.715 13.629-21.018.677-5.047-1.612-15.715-9.245-11.492z"/><path d="M447.136 632.268c15.559 12.374 31.49 20.799 51.298 23.659 16.783 2.423 39.56-.336 52.134-12.561 1.812-1.765 6.986-14.118.627-13.365-7.623.903-14.82 6.171-22.23 8.554-8.371 2.691-17.469 3.104-26.183 2.816-17.999-.597-36.889-7.059-53.067-14.635-2.139-1.002-4.29 4.17-2.579 5.532zM229.082 506.942c5.972-7.343 13.971-12.955 23.714-13.081 10.743-.134 13.124 9.393 17.192 17.19 1.856 3.56 5.953-4.315 6.104-5.631 1.365-11.979-4.67-23.91-17.95-24.146-13.009-.232-24.706 10.766-31.575 20.666-1.794 2.589-.912 9.215 2.515 5.002z"/><path d="M276.513 500.886c-7.744-.319-17.455-.398-22.934 6.084-5.42 6.411-4.353 16.114.295 22.664 1.992 2.807 5.254-4.162 4.659-6.031-.85-2.664-4.808-9.67-1.95-12.139 4.549-3.932 12.428-4.039 18.065-4.337 2.262-.121 4.652-6.127 1.865-6.241zm492.598 14.17c2.887-7.714 8.803-13.028 16.881-14.759 7.281-1.561 12.895 2.179 19.629 3.794 4.234 1.014 8.752-7.565 5.988-10.747-6.945-8.002-19.512-7.58-28.551-3.707-10.174 4.359-16.592 15.424-19.326 25.636-1.658 6.191 3.868 3.827 5.379-.217z"/><path d="M766.07 520.557c3.904-1.49 11.098-4.097 14.127.317 1.053 1.535.414 3.828.139 5.479-.531 3.204-1.982 6.167-2.535 9.405-.451 2.638 1.686 3.426 3.396 1.586 5.08-5.464 9.201-16.719 4.768-23.737-4.23-6.701-15.064-.697-19.668 2.021-1.303.768-2.815 5.92-.227 4.929zM426.63 743.99c-7.085 22.463-5.779 46.588 11.196 64.262 15.146 15.771 37.849 22.152 59.169 21.895 22.362-.266 44.838-7.929 61.004-23.629 8.402-8.159 14.455-19.154 17.453-30.421 2.463-9.261 4.961-26.657-4.258-32.678-3.492-2.282-6.664 5.812-7.041 7.813-1.721 9.191-.393 19.527-2.934 27.883-.76 2.494-1.729 4.248-4.141 7.65-.996 1.405-4.432 4.792-6.758 6.653-14.408 11.538-33.273 15.979-51.426 16.249-18.264.277-37.396-3.652-52.106-14.969-16.043-12.346-19.241-33.055-15.414-51.834.959-4.7-3.951-1.389-4.744 1.126z"/><path d="M427.853 740.853c-52.797.237-112.743.181-147.672 46.991-15.47 20.727-23.647 45.42-28.454 70.574-4.806 25.136-7.086 51.934-4.235 77.328.594 5.291 5.307-1.197 5.727-3.351 8.678-44.461 5.642-94.228 32.746-133.036 30.656-43.896 92.412-36.966 138.402-46.84 3.722-.796 8.974-11.692 3.486-11.666zm142.7 16.239c25.016-1.973 51.781-.742 75.557 7.891 21.41 7.775 37.754 22.887 51.229 40.812 14.359 19.106 22.824 41.163 30.803 63.459 8.123 22.689 14.682 46.216 19.289 69.862 1.396 7.166 11.047-4.912 10.352-9.523-7.627-50.393-16.479-101.144-47.803-142.99-13.803-18.441-33.555-32.634-55.441-39.694-27.965-9.019-56.225-3.907-83.113 6.193-1.02.382-2.684 4.13-.873 3.99z"/><path d="M289.104 881.664c9.76.859 21.171 4.477 25.471 14.163 3.964 8.935 3.772 20.265 3.57 29.851-.233 10.854-1.844 21.69-2.952 32.479-.834 8.119-3.811 21.318 1.254 28.402 5.277 7.383 13.084-9.132 13.604-12.556 1.503-9.909-.312-21.007-.039-31.12.312-11.503.681-23.045-.786-34.488-1.236-9.648-4.852-17.844-11.924-24.592-7.765-7.402-18.063-6.636-27.733-4.268-.624.155-1.417 2.045-.465 2.129zm26.044-461.993c10.084-9.733 23.718-13.644 37.041-16.726 13.76-3.183 28.455-3.682 42.328-.975 17.637 3.439 28.922-36.759 13.861-36.363-37.621.991-76.045 12.58-97.447 45.674-2.851 4.408-2.449 14.823 4.217 8.39z"/><path fill="#08B5F9" d="M676.354 872.328c.152-.301.275-.589.432-.891.721-1.396 1.566-7.357-1.844-5.707-.902.438-1.775.908-2.643 1.387a3.774 3.774 0 0 0-1.477-.252c-.74.051-1.48.104-2.221.158-3.805.268-6.266 3.872-7.572 7.653-3.043 2.319-6.039 4.722-9.15 7.049-1.607 1.202-2.877 7.009.268 5.024 2.621-1.654 5.168-3.423 7.754-5.107.096 2.67.822 5.215 1.859 7.698-8.916 31.724 7.852 66.825 12.449 98.903 2.146 14.984 16.061-2.686 16.844-9.857 3.916-35.894 3.879-74.06-14.699-106.058zM479.97 861.651c-19.408 1.006-38.15-9.111-51.885-22.108-6.452-6.104-11.802-13.301-16.447-20.836-4.726-7.669-6.695-17.314-12.123-24.41-.773-.98-1.785-1.451-3.033-1.414a11.71 11.71 0 0 0-1.877.432c-.709-3.722-1.232-7.418-1.484-11.058-.432-6.229-6.502 1.963-6.628 4.979-.2 4.77.047 9.576.555 14.381-1.889 5.954-1.223 13.584.138 18.545 1.459 5.326 3.782 10.516 6.568 15.488 4.033 15.569 9.462 30.768 17.53 44.748 6.678 11.574 16.505 23.842 30.483 26.076 17.229 2.751 31.18-13.324 39.194-26.399 2.007-3.274 8.03-18.889-.991-18.424z"/><path fill="#AF543F" d="M764.557 495.509c-1.289-12.085-3.113-24.096-5.328-36.038 1.461-21.026 1.818-42.006-1.502-62.905.15-.729.301-1.458.453-2.185.352-1.7-.258-3.696-1.627-4.464-.76-3.846-1.65-7.689-2.697-11.528-1.41-5.175-6.779-.298-8.586 2.896-1.594-16.437-4.721-32.758-8.764-48.659-8.705-34.233-22.746-67.649-42.273-97.143-.445-.673-1.045-.99-1.701-1.073-3.137-6.201-6.629-12.122-10.66-17.5-.014-15.368-14.328-26.43-26.475-33.996-9.986-6.22-20.928-11.448-32.158-15.562-8.951-8.287-18.684-15.663-29.553-21.394-24.215-12.77-52.848-13.51-79.43-9.805-23.746 3.31-46.551 10.195-69.012 18.215a278.651 278.651 0 0 0-48.195 18.177l-1.335.504c-.292.109-.575.307-.845.563-42.659 21.253-79.639 53.519-104.235 94.688-1.103 1.845-1.729 5.115-.259 6.951 1.999 2.495 5.057-.224 6.443-1.848a299.339 299.339 0 0 1 17.152-18.431 194.48 194.48 0 0 0-7.719 11.643c-16.076 26.244-26.578 56.405-27.475 87.316-.109 3.743 4.65.128 4.789-2.205 2.498-41.847 22.531-82.794 52.336-111.99 14.713-14.411 32.543-25.618 52.496-31.04 23.719-6.447 47.931-1.241 71.385 3.906 1.652.363 3.306.733 4.961 1.107.455.646 1.133 1.049 2.123.974.51-.039 1.02-.096 1.529-.144 17.145 3.929 34.423 8.216 51.833 10.937.426.268.947.468 1.588.582 1.879.333 3.783.476 5.701.459 15.242 1.962 30.586 2.524 46.027.39 17.348-2.398 34.037-8.262 51.439-10.298 8.811-1.03 17.666 6.05 26.361 7.783.828.166 1.637 3.26 2.441 3.468 7.846 10.11 15.168 10.981 21.664 21.846 25.699 42.99 36.021 92.477 41.125 141.737 1.686 16.27 2.975 32.54 3.729 48.817-.414 22.688-.465 45.382-.387 68.076-.24 3.802-.506 7.604-.826 11.409-1.781 21.036-4.584 42.244-10.5 62.556-6.619 22.727-20.389 42.725-34.529 61.423-16.121 21.315-34.127 42.948-55.396 59.333-.365.281-.738.553-1.105.83-12.814 4.348-24.932 11.814-34.336 20.834a208.764 208.764 0 0 1-30.861 11.783c-20.426 6.002-42.022 8.426-63.206 5.828-3.714-.455-7.199 8.343-2.814 8.94 31.194 4.248 63.588-2.386 92.69-15.636.242 2.079 1.498 3.412 4.541 2.663 9.754-2.403 19.604-7.646 27.9-13.603.346.188.801.223 1.381.047.307 1.064 1.143 1.609 2.814.996 2.975-1.088 5.775-2.562 8.398-4.314.701.643 1.666.896 2.918.395 15.902-6.384 28.883-20.134 39.955-32.768 8.471-9.666 16.041-20.237 22.902-31.182 1.883.328 4.598-1.312 5.902-2.816 14.561-16.801 24.137-37.423 32.143-57.979 6.363-16.342 11.729-33.324 15.668-50.515-.021 6.169.139 12.329.572 18.475.297 4.187 4.246 4.226 6.807 1.831 20.062-18.76 16.257-46.627 13.623-71.357zM396.632 196.724a316.018 316.018 0 0 1 6.902-3.239c.517.678 1.333 1.166 2.541 1.359.703.113 1.408.205 2.111.288-3.875.319-7.726.847-11.554 1.592zm128.057 16.486c-.512.187-1.053.532-1.592.986-.525-.082-1.049-.172-1.574-.256 1.129-.258 2.256-.527 3.379-.806l-.213.076zm40.838 1.797c-.158.504-.295 1.235-.35 2.031-2.811.191-5.637.28-8.469.277 3.092-1.62 6.049-3.287 8.812-4.85l1.416-.415a11.615 11.615 0 0 0-1.409 2.957zm-3.361-47.495c1.32.144 2.637.298 3.955.46-1.301-.039-2.602-.07-3.904-.096a3.842 3.842 0 0 0-.051-.364zm-44.441-14.148c1.666-3.428 2.467-7.599-.271-8.604 16.053-1.512 32.174-1.001 48.25 2.596 10.086 2.257 19.461 6.397 28.172 11.737-25.026-5.345-50.655-7.125-76.151-5.729zm90.216 55.738c-1.568.352-3.135.712-4.701 1.073 5.355-2.467 10.717-4.873 16.227-6.708 7.559-.324 15.654-.236 23.279 1.179l.275.325c-11.785-.683-23.638 1.564-35.08 4.131zm92.606 425.199c1.068-3.389 2.344-6.713 3.621-9.945a199.915 199.915 0 0 1 3.25-7.701c1.967-3.021 3.852-6.115 5.621-9.35 2.094-3.826 4.174-7.664 6.225-11.518-4.983 13.096-10.879 26.617-18.717 38.514zm24.373-250.2a602.252 602.252 0 0 0-1.637-13.305c.689 4.297 1.363 8.598 2.016 12.901-.129.131-.256.266-.379.404zm28.857 163.841c-.348-13.188.295-26.382 1.299-39.57a379.475 379.475 0 0 1 1.377 19.506c.313 7.091-.078 13.975-2.676 20.064z"/><path d="M395.925 781.111c-1.504 22.625 7.118 43.436 22.736 59.663 14.15 14.702 41.719 28.576 62.43 23.482 3.041-.751 8.035-10.592 3.633-12.052-9.358-3.102-19.43-3.141-28.904-6.209-9.605-3.11-18.516-8.124-26.586-14.135-17.559-13.08-29.064-31.062-28.688-53.45.065-3.926-4.479.587-4.621 2.701zm247.317 105.533c2.432 8.39 6.174 16.245 9.17 24.448 3.607 9.869 5.561 20.243 7.52 30.533 3.996 20.972 5.561 42.393 8.697 63.502.154 1.045.414 3.286 1.838 3.584.42.089.842.176 1.262.266 2.617.547 4.754-2.037 5.664-4.254 3.789-9.249.389-20.062-.811-29.732-1.479-11.949-3.453-23.834-5.809-35.643-2.326-11.653-5.584-23.046-10.195-34.006-3.404-8.096-7.709-17.021-16.584-19.842-.51-.164-.857.77-.752 1.144z"/><path d="M680.352 855.268c-13.768 5.041-25.691 13.127-35.002 24.5-1.555 1.896-3.025 4.763-2.236 7.293 1.01 3.238 4.26.291 5.316-1.162 8.01-11.031 18.803-18.973 31.115-24.641 1.881-.867 3.893-7.119.807-5.99zm73.634-497.211c-2.082-6.696-9.615 5.362-8.705 9.559 15.807 73.078 12.623 172.586-18.543 241.271-29.758 65.585-87.213 113.578-157.938 128.701-79.475 16.997-166.803-4.758-223.397-64.353-57.212-60.246-71.445-145.151-64.144-225.23-3.661-2.081-7.402-3.942-11.29-5.409a525.514 525.514 0 0 0-3.098 29.117c-6.189 79.718 11.508 162.806 67.164 222.78 55.507 59.816 141.073 82.547 220.336 69.527 73.639-12.098 134.83-59.135 171.561-123.279 44.908-78.425 54.834-196.6 28.054-282.684z"/><path d="M711.91 410.123c-8.35-14.91-21.922-27.534-37.9-33.802-15.562-6.104-33.252-8.717-49.902-9.186-16.109-.452-24.184 39.312-11.023 36.907 15.936-2.913 31.871-2.949 47.73.577 15.25 3.39 30.764 7.579 42.994 17.801 5.277 4.413 10.406-8.177 8.101-12.297z"/><path fill="#FFF" d="M591.932 528.196c-50.99 2.386-102.844 5.738-153.516-2.19-3.546-.555-6.207 4.861-6.562 7.571-1.479 11.309 2.703 21.571 9.174 30.382-4.327 8.068-4.754 17.351 3.567 24.324 9.597 8.039 23.208 11.635 35.724 13.482 7.1 3.285 14.772 5.332 22.756 6.033 35.733 3.136 66.815-22.199 82.594-52.318 3.512-6.705 6.285-13.839 8.527-21.061.564-1.814.827-6.367-2.264-6.223zm-117.347 34.177a29.426 29.426 0 0 0 6.301 4.356c-4.389-.558-8.71-1.432-12.862-2.769a70.145 70.145 0 0 1 6.561-1.587zm80.724 1.943c-.352.002-.701.02-1.051.023 1.27-.18 2.541-.34 3.811-.482a40.02 40.02 0 0 1-.197 1.565c-.474-.692-1.288-1.113-2.563-1.106zm-97.712-8.703a41.196 41.196 0 0 1-2.236-2.694c2.741-.062 5.481-.105 8.223-.13a54.683 54.683 0 0 0-5.987 2.824zm-12.508-15.567l-.074-.217.566.07c-.164.045-.33.086-.492.147zm134.768 1.815c-7.533-.018-15.062-.154-22.592-.352 8.768-.377 17.541-.764 26.32-1.088-.393 1-.803 1.994-1.229 2.98-.422-.916-1.202-1.538-2.499-1.54zm-130.436 31.698c.277.448.573.887.857 1.332a13.258 13.258 0 0 1-1.331-1.798c.158.156.316.309.474.466z"/><path d="M408.117 513.069c30.156 19.629 69.407 24.171 104.582 24.143 19.358-.016 38.875-2.22 57.762-6.445 16.494-3.689 34.718-9.184 48.529-19.299 2.611-1.913 4.609-10.483-.586-7.713-15.026 8.013-30.076 13.96-46.74 17.763-18.812 4.293-38.09 5.917-57.35 6.149-34.227.413-72.619-3.841-102.721-21.42-2.732-1.595-6.167 5.07-3.476 6.822z"/><path d="M423.302 520.782c-3.561 44.984 26.315 88.54 72.08 95.552 20.483 3.139 43.898-1.662 61.649-12.253 16.187-9.656 27.147-25.342 33.957-42.613 5.136-13.024 8.774-28.499 8.429-42.548-.036-1.476-1.199-2.638-2.698-2.183-2.17.659-3.379 3.099-3.754 5.153-1.873 10.258-2.791 20.464-5.742 30.529-2.569 8.764-6.309 17.187-11.527 24.698-11.235 16.171-28.885 24.883-47.888 28.321-22.828 4.132-45.302.468-64.353-13.092-18.583-13.228-30.833-34.717-33.824-57.186-.712-5.35-.81-10.774-.464-16.153.354-5.522-5.576-1.873-5.865 1.775z"/><path d="M426.607 553.893c24.352 12.506 51.918 19.104 79.178 20.565 28.312 1.517 59.691-2.881 83.486-19.357 2.499-1.731 3.912-9.565-.527-6.939-24.979 14.776-53.092 19.495-81.845 18.009-26.341-1.361-53.084-7.48-76.943-18.848-2.784-1.328-6.082 5.166-3.349 6.57z"/><path fill="#AF543F" d="M322.033 518.081a3.112 3.112 0 0 0-.346-.954c-.047-.083-.098-.152-.148-.227-1.027-2.19-2.574-4.09-4.589-5.22-7.03-3.944-12.778 6.636-14.812 11.563-.51 1.239-1.116 4.84 1.318 4.264.945 2.386 3.278 4.127 6.133 5.335 6.456 2.734 12.37-.898 13.295-7.76.302-2.223-.009-4.715-.851-7.001zm-4.173 9.348c.144-.266.22-.38.243-.414a.172.172 0 0 0 .011.048c-.015-.001-.074.036-.254.366zm.259-.905a3.172 3.172 0 0 0-.018.484 1.07 1.07 0 0 1-.393.277c-.868.343-1.785.272-2.693.174-.736-.081-1.727-.285-2.75-.612.433-.245.837-.497 1.184-.67l3.176-1.579c.416.158.906.149 1.385-.043.004.028.012.058.016.085.111.703.128 1.488.093 1.884zm36.948-9.542a3.155 3.155 0 0 0-.347-.955c-.047-.083-.098-.152-.148-.227-1.027-2.189-2.572-4.09-4.59-5.22-7.029-3.943-12.777 6.637-14.81 11.563-.513 1.24-1.117 4.84 1.317 4.264.946 2.387 3.279 4.127 6.133 5.336 6.457 2.733 12.371-.899 13.297-7.759.301-2.224-.009-4.716-.852-7.002zm-4.174 9.347c.145-.265.22-.38.243-.414a.152.152 0 0 0 .011.048c-.015-.002-.073.036-.254.366zm.259-.904c-.025.285-.023.42-.017.485a1.079 1.079 0 0 1-.394.276c-.867.344-1.784.272-2.693.174-.734-.081-1.727-.285-2.75-.612.432-.244.836-.496 1.184-.669l3.176-1.579c.417.157.906.148 1.386-.043l.015.085c.112.701.129 1.488.093 1.883zm36.674-8.443a3.101 3.101 0 0 0-.346-.955c-.047-.083-.098-.152-.148-.227-1.027-2.189-2.572-4.09-4.589-5.22-7.03-3.943-12.778 6.637-14.812 11.563-.51 1.24-1.117 4.84 1.318 4.264.946 2.387 3.278 4.127 6.132 5.336 6.458 2.733 12.372-.899 13.297-7.759.301-2.224-.009-4.716-.852-7.002zm-4.172 9.347c.143-.265.219-.38.242-.414.004.029.008.044.012.048-.017-.002-.075.036-.254.366zm.258-.904c-.025.285-.024.42-.017.485-.038.041-.177.191-.394.276-.867.344-1.785.272-2.693.174-.735-.081-1.727-.285-2.75-.612.433-.244.837-.496 1.184-.669 1.059-.527 2.117-1.054 3.176-1.579.416.157.906.148 1.385-.043.004.028.012.057.016.085.112.701.129 1.488.093 1.883zm-43.452 23.368a3.123 3.123 0 0 0-.347-.954c-.047-.083-.098-.152-.147-.227-1.027-2.188-2.573-4.091-4.59-5.22-7.031-3.943-12.778 6.637-14.811 11.562-.511 1.24-1.117 4.84 1.318 4.264.945 2.387 3.278 4.127 6.132 5.336 6.458 2.733 12.372-.899 13.297-7.76.301-2.224-.01-4.715-.852-7.001zm-4.173 9.348c.145-.266.221-.38.243-.414a.15.15 0 0 0 .011.047c-.015-.003-.075.037-.254.367zm.259-.905a2.739 2.739 0 0 0-.017.484 1.074 1.074 0 0 1-.394.277c-.869.343-1.785.272-2.693.174-.735-.081-1.728-.285-2.75-.612.432-.245.836-.497 1.184-.67l3.175-1.579c.417.158.907.148 1.386-.042.004.028.011.056.016.085.113.702.13 1.488.093 1.883zm38.996-9.542a3.078 3.078 0 0 0-.347-.954c-.047-.083-.098-.153-.148-.228-1.027-2.188-2.572-4.09-4.588-5.22-7.031-3.943-12.779 6.637-14.812 11.562-.511 1.24-1.117 4.84 1.317 4.264.946 2.387 3.279 4.127 6.133 5.336 6.457 2.734 12.371-.898 13.297-7.76.301-2.223-.01-4.715-.852-7zm-4.174 9.348c.145-.267.22-.38.242-.415.004.029.01.044.012.049-.015-.002-.074.035-.254.366zm.258-.905c-.025.285-.023.42-.017.484a1.075 1.075 0 0 1-.394.278c-.867.343-1.784.271-2.693.173-.734-.081-1.727-.284-2.75-.611.434-.246.838-.498 1.184-.67l3.176-1.58c.417.158.906.148 1.386-.042.003.028.011.058.015.085.113.702.13 1.487.093 1.883zm276.45-36.931a3.112 3.112 0 0 0-.346-.954c-.047-.083-.098-.153-.148-.227-1.027-2.19-2.572-4.091-4.59-5.22-7.029-3.945-12.777 6.636-14.809 11.563-.512 1.239-1.119 4.839 1.316 4.264.945 2.385 3.277 4.127 6.131 5.335 6.459 2.734 12.373-.898 13.297-7.76.302-2.223-.007-4.716-.851-7.001zm-4.174 9.348c.145-.266.221-.38.242-.415l.012.049c-.015-.002-.072.036-.254.366zm.26-.905a2.905 2.905 0 0 0-.018.484 1.082 1.082 0 0 1-.393.277c-.867.343-1.785.271-2.693.174-.736-.081-1.727-.285-2.75-.612.432-.245.836-.497 1.184-.671l3.176-1.578c.416.158.906.148 1.385-.043.004.028.012.058.016.085.113.703.128 1.488.093 1.884zm36.947-9.544a3.115 3.115 0 0 0-.346-.953c-.047-.083-.098-.152-.148-.228-1.027-2.188-2.572-4.09-4.59-5.219-7.029-3.943-12.779 6.637-14.811 11.563-.51 1.24-1.115 4.84 1.318 4.264.947 2.387 3.279 4.126 6.133 5.336 6.457 2.732 12.371-.899 13.297-7.76.302-2.224-.009-4.716-.853-7.003zm-4.173 9.349c.146-.265.221-.38.244-.414a.258.258 0 0 0 .01.048c-.014-.002-.075.036-.254.366zm.259-.904a2.798 2.798 0 0 0-.016.484 1.104 1.104 0 0 1-.395.277c-.869.343-1.785.272-2.693.173-.734-.08-1.729-.284-2.75-.611.432-.244.836-.497 1.184-.67l3.176-1.579c.418.158.906.149 1.385-.042.004.028.012.057.016.085.113.701.13 1.487.093 1.883zm36.674-8.445a3.115 3.115 0 0 0-.346-.953c-.047-.083-.098-.152-.148-.228-1.027-2.188-2.572-4.09-4.59-5.219-7.029-3.943-12.777 6.637-14.811 11.563-.512 1.24-1.117 4.84 1.318 4.264.945 2.387 3.279 4.126 6.133 5.336 6.457 2.732 12.371-.899 13.297-7.76.301-2.224-.009-4.716-.853-7.003zm-4.174 9.349c.145-.265.221-.38.244-.414.002.028.008.043.01.048-.013-.002-.072.036-.254.366zm.26-.904a3.17 3.17 0 0 0-.018.484 1.07 1.07 0 0 1-.393.277c-.867.343-1.785.272-2.693.173-.734-.08-1.727-.284-2.75-.611.432-.244.836-.497 1.184-.67l3.174-1.579c.418.158.908.149 1.387-.042.004.028.012.057.016.085.113.701.128 1.487.093 1.883zm-43.451 23.367a3.115 3.115 0 0 0-.346-.953c-.049-.083-.098-.152-.148-.227-1.027-2.188-2.572-4.091-4.59-5.22-7.031-3.944-12.777 6.637-14.811 11.562-.512 1.241-1.117 4.84 1.318 4.265.945 2.386 3.279 4.126 6.133 5.336 6.455 2.732 12.369-.9 13.297-7.76.299-2.225-.011-4.717-.853-7.003zm-4.174 9.349c.143-.266.219-.38.242-.415.004.029.008.044.012.048-.014-.003-.074.037-.254.367zm.258-.905a3.334 3.334 0 0 0-.016.484 1.07 1.07 0 0 1-.393.277c-.869.343-1.785.272-2.693.172-.734-.079-1.727-.283-2.75-.611.432-.244.836-.497 1.184-.669l3.174-1.579c.418.158.908.148 1.387-.043.004.029.012.057.016.086.112.702.128 1.488.091 1.883zm38.996-9.543a3.112 3.112 0 0 0-.346-.954c-.047-.082-.098-.152-.148-.227-1.027-2.188-2.572-4.09-4.59-5.22-7.031-3.943-12.777 6.637-14.811 11.562-.51 1.24-1.115 4.84 1.318 4.264.947 2.387 3.279 4.127 6.133 5.336 6.457 2.733 12.371-.898 13.297-7.761.301-2.222-.009-4.714-.853-7zm-4.174 9.349c.146-.267.221-.38.244-.415a.305.305 0 0 0 .01.049c-.014-.002-.072.035-.254.366zm.26-.905c-.025.285-.023.42-.016.484a1.104 1.104 0 0 1-.395.277c-.869.343-1.785.272-2.693.174-.734-.081-1.727-.284-2.75-.611.432-.246.836-.498 1.184-.671l3.176-1.579c.416.158.906.148 1.385-.042.004.028.012.058.016.085.112.702.13 1.487.093 1.883z"/><path d="M277.998 448.526c4.346-38.789 8.127-77.837 15.463-116.203 3.117-16.301 7.031-32.397 12.545-48.819 4.999-14.894 10.512-27.52 19.303-42.094-1.293 2.144.34-.518.51-.785.504-.791 1.021-1.573 1.536-2.355a177.302 177.302 0 0 1 3.181-4.633c2.346-3.319 4.834-6.534 7.411-9.676.597-.727 1.205-1.444 1.813-2.161.15-.178 2.211-2.519.688-.807a162.382 162.382 0 0 1 3.846-4.151c2.86-3 5.824-5.895 8.887-8.688 11.778-10.744 25.847-19.734 41.301-27.202 17.779-8.591 37.304-14.313 56.651-18.531 23.785-5.185 48.317-8.208 72.653-8.869 20.871-.566 41.768 1.588 61.738 7.837 22.082 6.91 42.455 18.4 61.766 30.957 19.723 12.824 37.742 27.453 52.332 46.032 12.406 15.797 21.318 33.74 27.811 52.685 8.455 24.674 12.684 50.565 16.553 76.277 2.559 16.995 4.49 34.083 5.57 51.241 1.074 17.077.891 35.066-4.332 51.502-.736 2.318-1.086 6.23 1.562 7.579 3.309 1.686 7.002-2.458 8.203-5.059 6.346-13.757 10.061-28.477 10.598-43.641.535-15.143-.748-30.203-2.141-45.268-2.207-23.855-6.033-47.676-10.811-71.154-8.404-41.298-24.34-80.19-54.648-110.298-17.699-17.583-38.975-31.694-60.58-43.993-18.998-10.813-39.234-19.12-60.703-23.456-21.748-4.393-44.123-4.057-66.12-2.039-24.269 2.225-48.555 6.076-72.08 12.493-35.682 9.733-69.848 26.575-96.193 52.925-23.913 23.915-39.806 54.68-50.115 86.614-17.322 53.656-20.543 111.05-24.609 166.888-.197 2.689.83 6.27 4.324 5.209 3.356-1.018 5.716-5.047 6.087-8.357z"/><path d="M389.052 442.625a30.395 30.395 0 0 0-.985-1.209c-3.915-5.919-10.372-10.005-17.815-10.704-4.502-.97-9.171-.873-13.564.628-3.581 1.225-7.121 3.492-9.358 6.58-10.003 7.27-11.865 21.318-4.035 31.818 9.802 13.143 28.062 13.886 40.822 4.907 11.017-7.752 13.05-21.444 4.935-32.02zm-44.524 6.593c-.211.91-.374 1.841-.478 2.789.019-1 .194-1.923.478-2.789zm327.296-13.285c-.316-.41-.646-.812-.986-1.208-3.914-5.918-10.371-10.006-17.816-10.704-4.5-.97-9.17-.873-13.562.628-3.582 1.224-7.121 3.491-9.359 6.58-10.004 7.269-11.865 21.317-4.035 31.817 9.803 13.143 28.061 13.886 40.822 4.907 11.016-7.752 13.051-21.442 4.936-32.02zm-44.525 6.593a23.986 23.986 0 0 0-.479 2.789c.02-.999.196-1.921.479-2.789z"/><circle fill="#FFF" cx="372.036" cy="448.795" r="9.57"/><circle fill="#FFF" cx="639.858" cy="442.84" r="9.571"/><path fill="#FFBF1F" d="M796.854 353.504c-3.404-13.295-5.248-27.084-7.047-42.66-1.877-16.257-3.832-32.317-7.336-48.322-3-13.701-8.154-26.376-12.814-39.528-3.766-10.628-7.008-21.435-10.893-32.022-8.398-22.883-20.783-42.9-41.736-56.145-11.352-7.175-24.191-12.672-36.475-18.037-12.816-5.599-25.943-10.477-39.264-14.741-55.656-17.818-113.602-23.391-171.43-14.61-24.185 3.672-48.335 10.091-71.414 18.177-23.178 8.121-46.153 18.572-66.241 32.819-18.472 13.099-33.774 28.864-45.465 48.288-12.329 20.485-20.007 43.292-23.909 66.802-2.018 12.16-2.794 24.233-2.98 36.378a250.467 250.467 0 0 0-6.219 16.525c-4.705 14.035-8.967 31.406-6.276 46.873-9.837 5.241-20.749 28.52-8.081 36.023 2.592 1.534 4.393 2.97 7.588 3.363 2.1.257 4.184.618 6.277.913 4.875.685 9.424.915 14.316.371 11.641-1.293 22.517-3.858 33.736-7.092 20.134-5.803 40.122-12.361 60.939-15.28l-5.493.745c32.267-4.291 64.377-9.667 96.627-14.094 31.626-4.205 63.394-7.538 95.304-8.375 16.611-.436 33.008.028 49.482 2.274 16.496 2.25 32.73 6.176 48.834 10.337 21.135 5.488 42.182 10.795 63.867 13.643 10.506 1.38 20.877 3.133 31.42 4.175 4.883.482 7.117 1.167 12.299 3.085 5.426 2.009 10.752 4.273 16.021 6.66 8.047 3.646 15.926-3.948 20.189-10.666 5.634-7.262 8.465-16.941 6.174-25.879zm-539.837-11.238c-.217.521-.28.651 0 0z"/><path fill="#FFEE73" d="M384.177 109.062c-2.14-6.174-8.168-3.651-11.851-.766a209.404 209.404 0 0 0-16.648 14.55c-2.333-3.052-6.604-3.087-10.071-.894-20.796 13.15-39.305 29.278-54.02 49.068-13.969 18.788-23.963 40.431-30.738 62.771-12.63 41.64-14.15 85.607-14.705 128.875-.228 4.696-.24 9.41-.004 14.138.188 3.714 2.312 7.396 6.342 7.682 9.285.66 20.094.579 28.019-5.062 9.473-6.744 14.13-17.53 15.635-28.786.638-4.772.626-9.658.717-14.46.108-5.75.707-12.73 1.214-19.623 1.121-15.23 2.875-30.408 5.406-45.47 2.301-13.7 5.104-26.285 8.971-39.723 1.678-5.827 3.612-11.576 5.704-17.266a261.343 261.343 0 0 1 1.61-4.217c.062-.159.655-1.6.959-2.347 1.263-2.987 2.6-5.941 3.979-8.876 2.537-5.402 5.328-10.682 8.27-15.875a225.573 225.573 0 0 1 2.252-3.86l.766-1.277c-1.348 2.159-.827 1.312 1.559-2.539-1.754 2.847.877-1.335 1.012-1.547a237.227 237.227 0 0 1 3.317-4.992 212.603 212.603 0 0 1 22.403-27.764c4.69-4.914 9.381-9.808 14.319-14.479 4.261-4.035 7.622-11.372 5.583-17.261zM274.743 356.04l-.041.009.051-.123c-.004.038-.008.076-.01.114zm380.445-230.683c4.939 4.671 9.629 9.565 14.322 14.479a212.672 212.672 0 0 1 22.4 27.764 226.081 226.081 0 0 1 3.318 4.992c.137.211 2.766 4.394 1.012 1.546 2.387 3.851 2.906 4.697 1.559 2.539l.768 1.277c.758 1.282 1.516 2.563 2.252 3.859 2.939 5.194 5.73 10.474 8.27 15.876a250.685 250.685 0 0 1 3.977 8.876c.305.748.896 2.189.959 2.348.547 1.402 1.09 2.805 1.611 4.217 2.092 5.689 4.027 11.439 5.703 17.266 3.867 13.438 6.67 26.022 8.971 39.722 2.531 15.062 4.285 30.24 5.406 45.47.508 6.893 1.105 13.873 1.215 19.623.09 4.802.08 9.688.717 14.46 1.504 11.255 6.16 22.042 15.635 28.786 7.926 5.641 18.734 5.722 28.02 5.062 4.027-.286 6.152-3.969 6.34-7.682a143.99 143.99 0 0 0-.002-14.138c-.557-43.267-2.074-87.234-14.705-128.874-6.775-22.34-16.771-43.983-30.738-62.771-14.715-19.791-33.225-35.918-54.021-49.068-3.467-2.193-7.736-2.159-10.07.894a209.581 209.581 0 0 0-16.648-14.55c-3.684-2.884-9.711-5.408-11.85.767-2.045 5.891 1.317 13.228 5.579 17.26zm103.841 229.606a3.2 3.2 0 0 1 .051.123l-.041-.009-.01-.114z"/><path d="M799.467 379.406c-6.035-53.925-13.393-108.316-26.494-161.021-3.229-12.988-6.771-26.22-12.541-38.347-6.875-14.448-18.609-26-31.072-35.722-32.572-25.409-73.885-39.626-113.566-49.323-18.898-4.618-38.15-8.005-57.533-9.731-23.242-2.07-46.905-1.192-70.151.327-49.84 3.256-100.901 12.743-145.118 36.944-18.332 10.033-36.019 23.179-49.231 39.502-10.191 12.592-17.117 27.713-22.784 42.774-12.794 34.001-18.819 70.646-22.931 106.604-2.803 24.527-4.72 49.326-4.938 74.027-.016 1.685 1.451 3.14 3.156 2.552 8.877-3.056 18.783-4 28.01-5.426 17.775-2.748 35.597-5.269 53.487-7.108 132.005-13.575 237.029-7.508 274.019-9.431.125-3.177.469-6.38.842-9.468-9.363.433-79.293-2.38-191.427 1.288-17.099.559-34.114 2.755-51.147 4.467-3.064-76.098-17.799-170.156 41.197-230.016 14.045-14.251 31.098-24.674 49.074-33.178a544.381 544.381 0 0 1 26.506-2.827c24.207-2.005 48.905-2.947 73.163-1.315 12.248.824 24.445 2.458 36.539 4.635 16.248 8.545 31.271 18.889 43.959 32.467 13.205 14.132 22.893 31.065 29.43 49.21 13.641 37.871 13.49 79.558 12.002 119.259-.74 19.775-2.037 39.523-2.83 59.295-22.131-1.479-44.293-2.527-66.465-3.286-.111 3.174-.473 6.355-1.002 9.448 44.176 1.318 88.451 3.409 132.355 8.518 19.52 2.272 39.408 4.898 58.369 10.276 1.268 4.521 7.544-1.623 7.122-5.394zM369.314 176.411c-14.832 36.195-16.381 76.171-15.51 114.782.535 23.829 2.137 47.621 3.236 71.427-23.244 2.375-46.445 5.162-69.57 8.415-11.958 1.682-24.969 2.684-36.719 6.157.279-15.912 1.447-32.909 2.922-49.447 3.164-35.509 8.288-71.22 18.501-105.445 4.691-15.723 10.551-31.497 19.292-45.463 10.182-16.267 25.496-28.799 41.506-39.049 32.28-20.667 70.071-31.528 108.098-37.349-31.999 16.334-57.928 42.229-71.756 75.972zM685.27 360.994c-4.465-.342-8.934-.647-13.402-.953.051-.163.088-.327.096-.493 1.824-40.852 5.51-81.907 2.326-122.784-2.932-37.625-13.176-75.305-38.301-104.366-10.41-12.043-23.061-22.177-36.834-30.322 2.451.516 4.898 1.049 7.338 1.601 40.309 9.125 81.67 23.575 115.223 48.276 12.646 9.312 24.904 21.134 31.734 35.495 5.814 12.221 9.258 25.658 12.508 38.739 8.471 34.092 13.998 68.959 19.051 103.697 2.234 15.375 4.391 30.782 6.238 46.215-34.145-9.887-70.79-12.406-105.977-15.105z"/><path fill="#163663" d="M590.854 288.452c-.143 0-.287.005-.428.006-.465-4.205-4.039-6.648-8.252-8.04-8.736-2.884-18.406-3.154-27.51-3.702-9.477-.57-18.955-.939-28.43-1.506-13.922-.833-27.838-1.841-41.778-.7-4.285.351-8.643.932-12.896 1.896-.449-.372-1.144-.487-2.141-.216-8.9 2.42-19.831 5.518-24.366 14.399-3.585 7.019-.411 13.688 6.073 17.328 16.73 9.394 37.14 7.165 55.477 8.062 22.084 1.081 46.522 3.9 66.952-6.437 3.607-1.826 7.455-4.357 10.578-7.485.816-.008 1.633-.032 2.449-.035 5.764-.013 10.723-13.586 4.272-13.57z"/><path d="M569.746 268.647c-15.15-1.654-30.359-2.672-45.592-3.128-18.086-.541-36.665-.563-54.44 3.241-12.318 2.636-24.431 9.879-28.078 22.788-3.054 10.811 5.826 16.749 14.869 19.736 13.064 4.318 27.326 5.228 40.975 5.881 12.005.575 24.018.495 36.034.391 17.795-.156 40.275 3.355 55.74-7.578 6.391-4.518 12.93-13.544 13.342-21.613.326-6.422-3.648-10.719-9.168-13.358-8.377-4.005-18.541-4.704-27.664-5.219-11.502-.649-23.014-.511-34.521-1.261-15.334-.998-30.702-2.149-46.073-1.318-6.928.375-13.865 1.283-20.596 2.985-3.104.785-6.12 1.94-9.023 3.278-3.178 1.464-5.52 4.842-8.586 6.705-2.849 1.731-4.433 9.719.561 7.392 4.488-2.092 7.578-5.374 12.297-6.921 5.426-1.779 11.117-2.736 16.779-3.34 11.926-1.273 24.022-.806 35.973-.178 11.243.592 22.467 1.571 33.725 1.839 7.754.185 15.467.14 23.201.87 7.205.68 14.83 1.751 21.238 5.327 6.014 3.355 5.016 7.659 1.311 12.481-6.848 8.91-19.025 9.819-29.467 10.322-8.684.419-17.379-.047-26.062.038-12.023.118-24.038.197-36.054-.329-13.513-.591-27.765-1.413-40.659-5.822-4.064-1.39-8.489-3.298-10.965-6.981-1.918-2.854-.33-4.901 2.191-8.058 3.891-4.868 9.056-6.891 14.933-8.476 8.204-2.213 16.771-3.026 25.222-3.606 25.362-1.738 50.922-.572 76.249 1.249 3.054.223 5.916-6.944 2.308-7.337zM243.72 382.966c-6.264 23.379-6.455 47.451-2.63 71.262.794 4.951 6.425-.405 5.895-3.636-3.733-22.779-3.535-45.671 1.409-68.258.884-4.036-3.961-2.023-4.674.632zm547.438 64.698c8.891-21.532 15.031-48.148 8.527-71.14-1.266-4.471-5.854 2.435-5.861 4.552-.078 21.664-2.281 43.196-5.824 64.555-.268 1.607.594 3.653 2.541 3.062 2.043-.62 3.258-2.956 3.58-4.912 3.598-21.986 5.703-44.133 5.73-66.421l-5.861 4.551c5.947 20.808.123 44.897-7.26 64.611-1.478 3.947 3.032 4.521 4.428 1.142z"/></svg>