<svg xmlns="http://www.w3.org/2000/svg" xmlns:xlink="http://www.w3.org/1999/xlink" width="1030" height="1030" viewBox="0 0 1030 1030"><defs><path id="a" d="M1020.377 515.001c0 279.115-226.264 505.377-505.377 505.377-279.112 0-505.377-226.264-505.377-505.377S235.887 9.622 515 9.622s505.377 226.266 505.377 505.379z"/></defs><use xlink:href="#a" overflow="visible" fill="#FFBF1F"/><clipPath id="b"><use xlink:href="#a" overflow="visible"/></clipPath><g clip-path="url(#b)"><circle fill="#FFBF1F" cx="516.035" cy="517.213" r="505.377"/><path fill="#FC9E17" d="M64.591 301.339c65.698-60.767 147.472-101.364 226.167-142.394 40.814-21.281 80.746-43.73 120.539-66.854 43.205-25.11 87.469-49.598 136.054-62.561l-2.865-37.722C469.49 62.959 382.01 118.798 296.631 176.391c-43.968 29.658-87.434 59.997-129.215 92.682-20.033 15.672-39.121 32.311-60.043 46.828-21.764 15.1-44.41 28.884-66.553 43.409-20.462 13.421-40.42 27.7-58.93 43.736-7.092 6.145-11.695 17.171-10.986 26.521.548 7.209 5.93 13.974 13.85 11.2 98.166-34.394 184.33-95.652 268.734-154.941 42.163-29.617 84.25-59.421 128.115-86.496 19.996-12.341 40.241-24.097 59.857-37.073 21.043-13.919 41.816-28.239 62.964-42.001 37.358-24.313 76.479-48.122 120.034-59.315-2.24-11.118-4.479-22.233-6.717-33.351-3.625 4.497-11.99 11.266-18.963 15.919-10.002 6.67-20.648 12.364-31.156 18.178-23.029 12.742-45.092 27.219-67.552 40.935-51.307 31.333-102.535 62.797-153.854 94.113-51.11 31.189-102.326 62.211-153.79 92.817-45.841 27.263-92.239 53.613-137.737 81.449-57.199 34.991-113.605 73.15-161.329 120.578-6.829 6.784-11.733 16.688-10.986 26.521.56 7.365 5.898 13.78 13.849 11.198 51.945-16.859 99.75-43.608 147.504-69.638 50.274-27.404 102.162-51.78 153.586-76.934 106.723-52.204 213.544-104.201 320.025-156.899 43.588-21.573 87.41-42.348 128.738-68.077 36.969-23.018 73.674-48.996 115.463-62.538-.953-12.575-1.908-25.146-2.863-37.721-32.516 34.458-76.607 55.146-117.221 78.289-50.043 28.516-97.459 62.321-145.693 93.779-48.673 31.741-97.557 62.7-143.463 98.404-36.259 28.201-71.635 58.477-113.409 78.263C166.967 440.29 75.417 461.753 37.559 541.29c-3.076 6.463-5.363 14.316-2.909 21.401 1.745 5.04 7.497 9.095 12.933 6.589C147.668 523.179 241.1 464.948 335.032 407.693c46.52-28.354 93.289-56.325 141.23-82.228 49.123-26.541 100.222-49.029 149.865-74.543 51.182-26.305 101.262-54.686 151.102-83.427-.986-12.997-1.971-25.993-2.959-38.989-89.508 66.279-184.82 124.036-280.238 181.28-95.316 57.186-189.7 115.122-280.916 178.699-64.773 45.146-142.418 71.596-192.239 135.972-8.81 11.384-11.101 42.221 10.985 31.382 208.226-102.161 408.941-218.58 611.71-330.955 81.105-44.949 162.598-89.213 245.031-131.684-.984-12.996-1.971-25.994-2.959-38.989C684.77 269.934 489.943 395.938 300.086 528.915 223.16 582.794 147.082 637.887 71.738 693.958c-9.188 6.835-16.062 17.88-15.16 29.76.736 9.699 9.592 15.234 18.119 9.229 43.635-30.724 91.015-55.527 138.017-80.599 48.866-26.063 96.421-53.966 143.454-83.206 97.824-60.818 193.597-125.836 295.82-179.224 79.943-41.755 155.398-91.653 236.615-131.035l-7.129-35.752C726.443 362.758 545.961 469.948 368.333 577.764c-93.444 56.721-186.838 113.71-276.603 176.167-9.318 6.483-16.043 18.146-15.161 29.758.8 10.539 9.317 14.158 18.12 9.23 202.516-113.372 408.093-221.234 609.107-337.292 82.611-47.694 164.387-96.848 244.783-148.196l-10.986-31.381c-4.994 7.511-10.375 14.716-16.096 21.688-5.041 6.146-10.836 12.267-18.377 19.708-14.123 13.939-29.658 26.809-45.09 38.273-35.396 26.297-73.57 48.73-112.08 70.107-37.449 20.789-75.582 40.312-113.115 60.945-42.607 23.422-83.6 49.658-124.551 75.827-65.341 41.753-130.41 84.796-198.977 121.15-60.085 31.858-124.11 59.162-173.204 107.688-6.839 6.763-11.731 16.707-10.986 26.522.621 8.163 5.796 12.765 13.852 11.198 27.105-5.267 51.926-18.041 75.643-31.759 24.855-14.379 49.684-28.81 74.538-43.192a10601.563 10601.563 0 0 0 152.231-89.771c49.53-29.772 100.037-57.95 150.666-85.822 50.375-27.729 102.133-51.93 153.664-77.322 67.275-33.148 131.117-72.729 197.158-108.185l-10.984-31.383c-5.504 7.192-9.137 10.836-17.041 18.057-7.752 7.076-15.979 13.312-24.516 19.367-18.809 13.338-38.715 25.094-58.619 36.699-43.184 25.18-85.117 51.793-126.223 80.276-91.951 63.715-180.73 131.845-272.466 195.851-62.605 43.68-127.018 85.396-195.643 119.062.985 12.998 1.973 25.993 2.959 38.99 48.336-27.513 98.725-51.109 148.232-76.384 25.086-12.807 49.888-26.168 74.098-40.571 24.189-14.391 46.895-30.896 69.81-47.201 23.252-16.545 46.578-32.993 70.564-48.466 23.51-15.167 48.084-28.535 72.547-42.078 48.807-27.02 97.926-53.479 146.338-81.21 61.396-35.17 121.518-72.686 178.057-115.307l-10.984-31.382c-59.98 69.826-146.119 119.632-225.496 166.939-91.051 54.269-181.008 110.706-269.408 169.204-41.197 27.26-81.385 55.869-121.205 85.092-39.393 28.913-78.959 57.731-121.233 82.347-9.595 5.584-15.991 18.821-15.16 29.759.841 11.066 9.201 13.475 18.119 9.23 100.961-48.053 196.104-107.057 291.245-165.518 47.797-29.37 95.674-58.625 144.387-86.46 47.674-27.237 96.566-52.016 145.607-76.669 75.025-37.713 150.205-76.055 218.391-125.428l-7.131-35.751c-33.611 33.213-76.09 55.599-117.895 76.72a4038.336 4038.336 0 0 0-133.637 70.689C696.285 642.5 596.453 696.587 500.194 756.758c-39.694 24.813-79.177 50.248-116.166 78.982-32.521 25.263-64.553 53.299-102.4 70.431-8.953 4.054-15.018 11.32-17.994 20.765-1.853 5.884-3.031 24.237 8.274 22.726 45.448-6.074 87.677-22.926 128.725-42.8 43.948-21.275 85.808-46.649 127.571-71.857 92.4-55.778 188.994-103.604 284.818-153.169 30.955-16.012 61.799-31.989 92.062-49.282l89.188-50.968c9.619-5.496 15.986-18.892 15.162-29.759-.805-10.575-9.309-14.111-18.121-9.229-104.188 57.711-206.854 118.117-308.768 179.746C631.4 753.275 580.459 784.533 529.6 815.93c-44.668 27.573-85.542 60.625-129.553 89.188-21.202 13.757-43.261 26.518-67.015 35.328l-1.309 40.958C503.59 874.062 701.895 821 881.025 728.062c47.312-24.547 93.092-52.107 136.094-83.643 9.217-6.758 16.057-17.938 15.158-29.76-.758-9.986-9.484-14.867-18.117-9.229-189.895 124.01-375.484 255.294-574.296 364.989a2771.17 2771.17 0 0 1-59.695 31.968l7.133 35.753c73.349-58.31 162.89-92.968 248.279-129.313 44.957-19.136 89.818-38.741 132.914-61.835 22.314-11.959 44.492-24.162 66.002-37.533 23.461-14.584 46.566-29.751 71.246-42.24-4.764-8.674-9.529-17.348-14.291-26.021-3.254 5.631 2.838-4.268-.768 1.271-1.092 1.673-2.266 3.292-3.438 4.908-1.197 1.657-2.473 3.257-3.744 4.856-.225.285-4.666 5.495-1.592 2.025-6.42 7.245-13.555 13.844-20.877 20.158-14.346 12.364-31.18 23.663-48.141 34.454-35.631 22.667-73.1 42.25-109.025 64.42-39.857 24.595-76.527 54.362-114.17 82.133-42.477 31.335-86.009 61.829-133.525 85.104-8.502 4.165-17.229 7.841-26.042 11.295l2.864 37.721c61.737-53.27 143.857-80.491 220.312-108.335 80.787-29.419 162.883-61.466 226.773-120.972 7.467-6.955 14.516-14.354 21.266-22.004 7.164-8.118 13.979-19.857 10.072-31.133-3.469-10.01-15.477-8.066-21.377-1.381-114.229 129.438-307.648 132.047-443.065 231.178a404.96 404.96 0 0 0-25.288 20.133c-7.098 6.125-11.694 17.185-10.987 26.522.528 6.965 5.991 14.28 13.852 11.197 97.133-38.068 176.129-109.005 260.493-168.247 66.98-47.033 147.924-76.376 205.264-136.568 10.396-10.916 19.23-22.635 26.766-35.684 7.1-12.287 4.061-35.306-14.291-26.021-23.682 11.983-45.959 26.396-68.422 40.475-22.414 14.05-45.568 26.728-68.828 39.299-42.021 22.706-85.977 41.566-129.891 60.243-90.248 38.378-182.23 75.838-259.648 137.379-7.227 5.744-11.673 17.469-10.986 26.521.82 10.785 9.259 13.842 18.119 9.23C584.75 936.47 771.74 806.556 960.965 681.343a11034.884 11034.884 0 0 1 56.154-36.924c-.986-12.996-1.975-25.993-2.959-38.989-164.072 120.319-362.512 176.991-545.046 261.854-48.148 22.383-95.297 46.992-140.35 75.131-8.23 5.139-13.768 14.978-14.994 24.479-1.043 8.054 3.027 20.431 13.684 16.479 48.654-18.046 91.17-48.993 132.91-79.128 45.078-32.542 91.929-61.576 139.314-90.626 101.836-62.436 204.242-123.967 307.943-183.265a7351.688 7351.688 0 0 1 86.65-48.766c-.986-12.996-1.971-25.993-2.959-38.988-51.547 29.457-102.699 59.619-155.438 86.898-53.777 27.817-107.557 55.633-161.336 83.449-43.93 22.723-87.301 45.755-129.697 71.245-41.77 25.118-83.296 50.7-126.521 73.278-41.221 21.529-86.023 41.922-132.551 48.141l-9.721 43.49c47.463-21.483 85.909-55.805 127.18-86.811 44.621-33.523 92.951-62.742 140.677-91.576 96.971-58.587 197.004-111.868 295.91-167.064 73.6-41.076 157.643-70.725 218.6-130.964 6.844-6.76 11.734-16.708 10.988-26.521-.729-9.591-9.637-15.373-18.119-9.229-88.59 64.145-188.592 109.527-285.451 159.373-99.426 51.166-193.672 111.625-289.093 169.731-73.313 44.644-147.525 88.053-225.085 124.969.985 12.997 1.974 25.993 2.959 38.989 49.188-28.641 94.676-62.945 140.544-96.504 46.478-34 94.139-66.235 142.511-97.467 87.035-56.191 175.35-110.046 263.912-163.752C876.27 526.98 950.645 477.98 1008.007 411.2c5.668-6.597 9.145-18.316 6.219-26.761-2.553-7.37-11.105-9.217-17.203-4.62-89.629 67.563-188.064 121.632-286.24 175.511-49.328 27.073-98.404 53.916-144.787 85.881-23.352 16.091-46.289 32.776-69.5 49.068-23.092 16.205-47.428 30.418-72.158 43.965-61.565 33.727-125.932 62.054-186.961 96.791-9.623 5.477-15.984 18.906-15.161 29.76.834 10.973 9.22 13.596 18.12 9.23 98.893-48.512 189.041-113.175 277.8-177.872 89.326-65.108 177.656-132.874 271.783-191.008 55.475-34.265 120.369-62.552 160.975-115.647 5.389-7.048 9.266-17.969 6.219-26.763-2.842-8.196-10.652-8.139-17.203-4.62-49.322 26.479-97.434 55.121-146.604 81.871-49.906 27.152-102.031 49.65-152.42 75.84C537.59 565.519 438.344 626.223 337.974 685.06a11441.321 11441.321 0 0 1-97.149 56.283c-30.902 17.713-60.723 37.979-96.278 44.889l2.865 37.721c33.756-33.367 76.161-55.738 118.04-77.181 45.688-23.39 90.239-48.038 134.129-74.68 87.598-53.175 171.681-111.858 262.07-160.353 54.957-29.484 110.545-57.98 162.961-91.898 49.711-32.166 98.854-70.181 131.992-120.016 5.025-7.557 9.408-17.564 6.219-26.762-2.699-7.791-10.855-8.675-17.203-4.621-195.874 125.101-399.874 236.655-603.807 347.893-83.527 45.561-167.061 91.117-250.082 137.596l2.959 38.988c170.951-118.941 354.396-218.406 528.242-332.895 94.264-62.08 185.902-128.777 269.846-204.379 7.025-6.327 11.709-17.035 10.988-26.521-.836-11.01-9.213-13.55-18.121-9.23-51.248 24.849-100.295 53.832-149.523 82.396-49.637 28.8-100.664 55.019-150.33 83.749-99.658 57.645-195.21 122.086-293.781 181.536-72.495 43.724-150.875 77.517-220.271 126.384.986 12.996 1.974 25.992 2.959 38.988 185.014-137.684 374.572-269.338 569.66-392.373 80.434-50.727 161.85-99.902 244.246-147.374 9.607-5.535 15.988-18.861 15.162-29.76-.822-10.815-9.25-13.799-18.121-9.229-206.174 106.221-406.21 223.75-609.96 334.454-81.455 44.258-163.553 87.353-246.781 128.186 3.66 10.463 7.322 20.923 10.984 31.383 25.776-33.308 66.304-56.533 103.788-77.647 19.876-11.199 39.891-22.157 59.179-34.356 21.949-13.881 42.736-29.654 64.248-44.203 92.356-62.464 188.979-118.262 284.289-176.013 77.076-46.703 153.375-94.857 225.838-148.517 9.197-6.81 16.061-17.9 15.162-29.76-.793-10.436-9.346-14.29-18.121-9.229-48.865 28.18-97.98 55.93-148.08 81.868-49.613 25.688-100.764 48.179-150.024 74.562-96.332 51.593-187.564 112.021-281.983 166.92-45.946 26.715-92.727 52.251-141.019 74.497 3.339 9.33 6.681 18.662 10.022 27.99a171.36 171.36 0 0 1 2.938-5.881c.276-.53 3.927-6.72 1.067-2.127 2.278-3.657 4.848-7.124 7.494-10.519.166-.216 4.736-5.591 1.714-2.197 1.437-1.612 2.948-3.157 4.456-4.703 3.551-3.637 7.363-7.009 11.248-10.285 4.771-4.025 12.172-9.079 19.403-13.619 8.458-5.309 17.279-10.026 26.193-14.511 34.47-17.342 71.243-29.699 106.114-46.215 43.146-20.439 79.836-52.666 117.23-81.818 44.832-34.949 93.141-64.874 140.709-95.896 48.039-31.33 95.283-64.804 145.126-93.205 42.926-24.461 88.732-46.937 123.102-83.36 6.684-7.083 11.75-16.467 10.986-26.522-.559-7.366-5.898-13.776-13.852-11.199-49.908 16.173-93.238 47.806-137.598 74.86-48.916 29.833-102.049 53.268-153.392 78.592-106.676 52.611-213.651 104.615-320.469 156.938-43.396 21.257-86.617 42.541-129.028 65.714-40.358 22.048-80.935 43.731-124.823 57.979l2.863 37.722C-23.15 452.362 68.168 403.46 155.155 352.333c103.368-60.754 205.49-123.592 307.752-186.185 31.838-19.489 63.289-39.891 95.544-58.647 28.137-16.359 57.43-30.229 78.301-56.135 6.781-8.414 13.281-38.491-6.715-33.351-47.434 12.189-90.471 38.454-131.142 64.924-21.107 13.74-41.836 28.054-62.841 41.949-19.62 12.977-39.934 24.667-59.937 37.012-88.903 54.875-170.568 120.624-260.035 174.662C76.087 360.719 34.5 382.364-9.665 397.84c.954 12.572 1.909 25.147 2.862 37.721 39.104-33.88 85.59-57.931 127.51-87.985 21.174-15.182 40.631-32.546 61.216-48.488 20.628-15.977 41.774-31.276 63.117-46.279 86.077-60.504 176.019-115.531 257.792-182 18.234-14.82 35.916-30.312 52.962-46.484 6.924-6.571 11.719-16.852 10.984-26.521-.584-7.715-5.842-13.337-13.85-11.199-49.302 13.154-94.82 37.832-138.794 63.142-40.958 23.574-81.776 46.956-123.684 68.825-82.873 43.245-167.969 86.252-237.164 150.254-7.749 7.166-13.725 20.591-10.07 31.133 3.688 10.638 15.029 7.253 21.375 1.38z"/></g><path fill="#EAA286" d="M277.321 436.124c-11.854-11.278-29.719-26.236-47.501-19.114-19.983 8.004-30.583 30.456-32.344 50.896-2.154 25.043 8.14 74.387 43.64 64.442 14.561-4.079 26.187-17.308 34.597-29.107 5.842-8.192 11.884-23.144 4.505-32.36-7.345-9.167-19.883.315-24.711 7.09a111.736 111.736 0 0 1-4.512 5.917c-2.861 3.491 4.122-4.516 1.172-1.342a57.116 57.116 0 0 1-2.143 2.148 47.286 47.286 0 0 1-2.102 1.882c-2.858 2.458 4.65-3.443 1.698-1.334-1.249.894-2.586 1.65-3.958 2.335 6.354-3.169 2.096-1.012.156-.54-2.691.653 4.718-.494 2.016-.237-.575.056-1.153.046-1.731.033-1.691-.03-5.64-1.306.188.388-1.25-.362-2.426-.954-3.548-1.604-3.627-2.103.347.535-.026.199-.919-.817-1.737-1.741-2.525-2.682-.834-.995-1.572-2.066-2.282-3.152a41.318 41.318 0 0 1-1.048-1.733c-1.393-2.396 2.273 4.504.503.822-1.271-2.646-2.249-5.426-3.09-8.236a66.693 66.693 0 0 1-1.129-4.42c-.724-3.211.964 5.131.382 1.887a73.185 73.185 0 0 1-.462-3.047c-.407-3.024-.573-6.077-.573-9.125-.002-3.444-.252 6.057-.09 2.644.033-.732.098-1.46.159-2.188.12-1.414.327-2.819.567-4.219.808-4.742-1.885 7.018-.267 1.446.182-.62.395-1.23.61-1.836 1.176-3.337-3.029 7.079-1.594 3.889 2.418-5.385-2.344 3.389-1.476 2.114 2.989-4.401-5.064 4.817-1.152 1.371-5.551 4.888-4.372 3.257-2.717 2.18 1.324-.857 3.976-1.848-2.646 1.112 1.008-.45 2.085-.715 3.163-.913-6.216 1.152-2.155.323-.21.468.662.048 1.315.163 1.967.276 2.522.438-4.393-1.37-.522-.109 3.423 1.117 6.599 2.942 9.609 4.88 1.891 1.219 3.686 2.579 5.456 3.963-3.271-2.559.151.157.667.606 1.398 1.214 2.743 2.484 4.083 3.761 8.457 8.044 19.006.625 24.715-7.087 5.219-7.052 12.758-24.51 4.506-32.364zm557.743 10.12c-.994-4.308-2.545-8.361-4.533-12.165.912-5.605.295-11.219-3-15.332-3.379-4.219-7.621-4.53-11.746-3.021-6.525-5.742-14.053-10.454-21.74-14.105-12.486-5.933-26.479 11.319-29.33 26.415-4.389 4.246-8.205 8.647-11.135 12.28-6.258 7.757-11.621 23.477-4.506 32.362 7.564 9.441 19.547-.684 24.713-7.089.277-.343 1.059-1.236 1.682-1.948a66.653 66.653 0 0 1 2.703-2.614c.062 1.733.273 3.368.66 4.84.627 2.399.764 3.198.986 5.249-.832.448-1.822.916-3.225 1.664-5.756 3.066-11.664 10.775-14.674 19.062-14.23 11.633-22.092 42.453-4.018 42.453 6.275 0 12.277-4.666 16.85-11.048 11.141 7.385 24.182 8.771 35.441-3.856a67.719 67.719 0 0 0 10.93-16.692c11.888-16.276 18.64-36.103 13.942-56.455zm-54.957 27.131c-.057.146-.117.308-.184.505.059-.179.117-.354.18-.527l.004.022z"/><path fill="#EF6100" d="M766.248 925.849c-8.439-34.08-22.557-66.892-42.035-95.67a226.23 226.23 0 0 0-4.361-8.452c-.207-6.396-2.221-12.049-7.547-12.963-4.814-7.734-9.982-15.166-15.309-22.227-28.01-37.136-65.678-61.651-111.404-70.786-46.963-9.383-96.101-1.647-142.592 6.78-41.544 7.53-86.306 12.541-121.108 38.585-12.231 9.149-22.077 19.967-30.167 31.928-5.626 5.57-10.872 11.572-15.653 18.04a144.29 144.29 0 0 0-2.771 3.895c-9.951 12.16-19.536 24.646-29.486 36.626-6.353 7.648-11.556 23.555-4.503 32.361 2.103 2.626 4.528 3.736 7.048 3.845-1.257 9.104-1.934 18.313-2.106 27.528-1.942 3.472-2.97 7.467-2.261 10.58-3.166 5.629-4.148 13.019.438 16.125.97.656 1.948 1.298 2.925 1.94.866 3.892 3.326 4.73 6.109 3.901.422.26.846.516 1.268.773 1.586 3.25 4.475 5.393 9.188 5.373 11.312 6.322 23.049 11.861 35.077 16.744-.023.941-.017 1.891.057 2.854.647 8.515 6.174 13.774 14.724 11.904a179.359 179.359 0 0 0 15.149-4.038c20.251 6.369 40.984 11.286 61.619 15.319 45.588 8.912 92.981 13.239 139.378 14.536 56.764 1.587 146.346-4.425 189.092-50.148a600.055 600.055 0 0 0 39.393-16.04c7.16-3.21 11.77-11.513 9.838-19.313zm-49.432-19.836a97.46 97.46 0 0 0 6.348-10.172c.307 2.729.492 5.46.547 8.188a307.71 307.71 0 0 0-6.895 1.984zm-412.555 33.015c10.281-5.548 20.129-11.957 29.526-18.354 1.439-.981 2.859-1.993 4.289-2.99-9.326 7.553-18.158 15.618-26.273 24.379a208.137 208.137 0 0 1-7.542-3.035zm222.587-187.825c-10.508 4.721-20.757 10.063-30.806 15.725 4.084-4.608 7.254-9.944 8.937-15.841 7.298-.114 14.593-.101 21.869.116zm76.935 13.089c-11.246 6.986-22.654 13.695-34.107 20.324 4.113-7.553 7.609-15.496 10.32-23.9a27.76 27.76 0 0 0 .801-3.135c7.738 1.773 15.406 3.981 22.986 6.711zM272.87 887.858a250.33 250.33 0 0 0 6.235-3.02 204.144 204.144 0 0 0-8.083 10.838 1127.33 1127.33 0 0 1 1.713-7.756c.045-.021.09-.04.135-.062zm127.427-16.928c22.744-16.903 47.445-31.212 71.459-46.211 15.099-9.433 30.432-18.562 46.417-26.23a334.524 334.524 0 0 1-4.251 3.756c-9.84 8.542-17.666 14.116-29.419 22.16-12.435 8.511-25.245 16.468-38.11 24.308-26.633 16.227-55.29 31.648-81.88 49.553 11.933-9.11 23.743-18.386 35.784-27.336zm119.402-12.031c-16.463 11.15-33.388 21.572-50.41 31.84 21.896-16.51 44.498-30.783 68.345-44.35-5.872 4.24-11.849 8.389-17.935 12.51zm-64.747 94.786c-4.406 3.03-8.238 7.209-11.056 11.99a983.46 983.46 0 0 1-13.734-.992 6304.621 6304.621 0 0 0 24.79-10.998zm249.015-93.897a168.739 168.739 0 0 0 5.746-8.584 230.66 230.66 0 0 1 1.977 4.514 355.352 355.352 0 0 0-7.723 4.07zm-46.145-29.615a511.044 511.044 0 0 0 11.695-14.119c1.859-2.329 3.523-5.125 4.832-8.15a227.056 227.056 0 0 1 9.998 9.994 437.593 437.593 0 0 0-26.525 12.275zm-8.236-42.278c-7.68 5.14-14.93 10.831-22.016 16.736 4.893-7.178 9.352-14.647 13.297-22.433a202.61 202.61 0 0 1 8.719 5.697zM514.329 962.59a198.044 198.044 0 0 0-5.693 5.962c-1.201-.031-2.4-.068-3.6-.104a956.444 956.444 0 0 0 9.293-5.858z"/><path fill="#FFE5B8" d="M569.436 708.64c-.871-.403-1.76-.77-2.656-1.117-1.344-4.543-3.244-9.078-5.715-13.619-5.795-10.646-20.797 1.797-24.715 7.089a42.856 42.856 0 0 0-2.258 3.382c-8.619.861-17.102 2.638-24.64 4.508-16.743 4.156-34.375 14.518-42.602 29.577-.216-.233-.451-.486-.732-.784-1.531-1.619-2.823-3.436-4.029-5.303.787 1.152-1.096-2.229-1.248-2.594-.651-1.527-1.115-3.126-1.584-4.714a57.418 57.418 0 0 0-.201-.666c-.029-.307-.08-.733-.162-1.331-.258-1.865-.318-3.755-.385-5.635l-.023-.588c.059-.344.131-.949.221-1.939.205-2.209.6-4.396.99-6.577 1.643-9.208-3.486-20.877-14.55-17.516-11.804 3.585-18.476 16.905-20.474 28.114-3.429 19.219-1.688 39.82 10.272 55.873 9.884 13.264 26.683 19.44 42.595 20.893 15.203 1.39 30.256-1.721 43.953-8.049a56.501 56.501 0 0 0 6.213-2.243c13.477-5.827 25.068-15.918 32.41-28.657 4.549-5.867 8.447-12.182 11.545-18.798 3.55-7.586 8.423-24.375-2.225-29.306z"/><path d="M270.479 431.337c-16.93-11.129-40.548-21.138-59.011-7.53-14.915 10.99-18.948 32.214-17.875 49.575 1.145 18.529 8.606 38.586 23.251 50.618 16.222 13.327 41.197 12.074 55.881-3.097 1.231-1.273 5.397-11.11.485-10.29-8.978 1.503-16.55 6.604-25.899 7.14-7.597.434-14.766-2.007-21.075-6.112-13.159-8.571-20.601-25.307-23.042-40.304-2.015-12.372-1.691-28.75 8.817-37.453 15.406-12.759 39.564-1.784 54.517 5.932 3.072 1.582 6.859-6.567 3.951-8.479zm494.869-.106c13.314-7.888 33.178-15.499 46.848-3.977 11.105 9.356 13.492 26.323 13.336 39.947-.162 14.29-4.23 30.229-13.947 41.07-12.492 13.939-27.691 8.783-43.189 4.598-4.715-1.273-10.904 9.548-7.086 12.717 16.02 13.306 38.199 8.848 52.129-4.865 14.268-14.045 20.795-36.021 21.859-55.519.922-16.853-1.711-37.682-15.947-48.85-17.637-13.835-39.738.12-54.156 11.98-.851.697-1.738 4.021.153 2.899z"/><path fill="#D8724A" d="M377.987 694.478l-.004.005z"/><path fill="#FFE5B8" d="M796.342 327.122c-3.17-3.604-7.756-4.727-12.898-3.096l-1.914.609.004-.11-.408.24c-15.396 4.918-25.334 4.067-35.096 2.236 1.885-6.194 3.33-12.574 4.41-19.04.895-.028 1.826-.323 2.637-.822 3.502-2.158 5.453-6.515 5.363-10.526-.445-19.768-2.982-39.505-8.307-58.339-1.678-7.981-4.225-15.752-8.039-22.716-5.543-12.851-12.656-25.056-21.611-36.286-23.145-29.019-57.555-46.833-92.828-56.364-19.699-5.323-39.92-8.313-60.26-9.728-23.719-1.651-47.623-1.396-71.056 2.913a166.826 166.826 0 0 0-9.588 2.067c-32.154 1.16-64.023 7.439-93.166 21.653a156.978 156.978 0 0 0-8.019 4.213c-14.714 5.545-29.024 12.095-42.548 19.956-18.426 10.71-35.971 24.833-46.139 43.929-7.379 13.857-8.896 29.237-5.287 43.875-3.189 13.718-3.001 28.049.813 41.892-11.95 8.369-23.43 17.492-34.231 27.625-6.434 6.033-10.955 14.91-12.097 23.742-.517 3.998-.264 12.049 3.962 16.854 2.102 2.389 4.916 3.568 8.185 3.436 10.369-.471 21.048-1.733 32.311-3.829-9.036 4.473-17.227 9.13-24.768 14.078-8.934 5.861-15.369 16.355-16.795 27.39-.637 4.925.003 12.248 3.901 16.684 2.073 2.36 4.878 3.608 8.166 3.608 20.268-.085 41.515-1.803 64.561-5.24-26.271 11.311-53.545 23.71-79.994 38.59-9.953 5.597-15.662 17.824-16.907 27.458-.824 6.375.627 12.393 3.882 16.097 3.107 3.538 7.717 4.808 13.025 3.545 21.67-5.14 40.685-9.81 58.151-14.295a1856.647 1856.647 0 0 0-12.743 5.498l-1.123.276-.037.248c-11.1 5.278-18.962 16.355-20.619 29.18-.822 6.384.62 12.418 3.895 16.14 3.117 3.546 7.692 4.801 12.988 3.5l2.275-.57c-.469.242-1.041.484-1.508.728l-.434.057v.062c0 .612-2.156 1.224-3.338 1.834-9.436 4.883-15.471 17.522-16.762 27.489-.824 6.389.644 12.436 3.933 16.176 3.122 3.553 7.719 4.793 13.003 3.46a818.064 818.064 0 0 0 33.68-9.297c-8.07 7.853-15.143 24.628-12.391 35.149 1.811 6.925 7.594 10.175 16.164 8.943a453.982 453.982 0 0 0 23.936-4.103c-3.109 4.892-5.17 10.523-5.914 16.289-.614 4.746.116 11.938 4.198 16.579 3.181 3.617 7.765 4.712 12.874 3.017a3192.29 3192.29 0 0 1 10.958-3.628c-4.143 5.471-6.885 12.022-7.757 18.78-.841 6.506.451 12.075 3.638 15.702 3.037 3.456 7.65 4.83 13.136 3.94.727-.117 1.451-.272 2.178-.393l.138-.23c7.389-1.205 14.79-2.702 22.202-3.936-3.891 8.699-5.833 18.562-2.088 24.814 1.037 1.735 2.865 3.129 5.999 3.789 1.263.484 2.742.747 4.458.749l.055.001a900.811 900.811 0 0 0 17.521-.219c11.189.09 22.309.108 33.23-.558.662 5.696 3.514 11.03 8.162 13.083 13.195 5.821 27.986 8.776 43.959 8.776 34.019 0 68.527-13.329 91.523-23.355 43.732-19.068 83.361-44.085 119.674-68.284l1.008-.566-.008-.123c10.389-7.428 16.943-20.723 16.031-32.738-.641-8.448-5.805-13.908-13.15-13.908-.475 0-.953.023-1.436.072 11.74-9.396 21.574-19.583 29.805-30.846 5.691-7.783 10.484-19.811 6.877-30.219-1.521-4.387-4.705-7.358-8.803-8.362a280.72 280.72 0 0 0 6.289-5.745c8.242-7.772 13.061-19.447 12.279-29.746-.531-6.993-5.211-14.424-12.836-14.424-1.469 0-2.98.289-4.496.859-2.307.868-4.637 1.74-6.984 2.616 8.076-5.675 14.068-15.881 15.439-26.491.643-4.98-.447-12.366-4.359-16.819-3.209-3.648-7.783-4.655-12.791-2.75-.602.229-1.207.459-1.814.688l.01-.331-1.328.824c-.979.366-1.969.732-2.963 1.099a382.784 382.784 0 0 0 19.818-16.88c6.422-5.863 10.951-14.745 12.117-23.757.686-5.323-.256-12.556-3.91-16.716-1.018-1.154-2.209-2.042-3.557-2.646a921.495 921.495 0 0 0 19.553-11.128c9.963-5.836 15.654-17.985 16.879-27.44.809-6.241-.822-12.72-4.148-16.508zm-429.461-132.21c-9.048 8.725-18.01 17.533-27.106 26.192a137.503 137.503 0 0 1 8.688-11.723c2.109-2.549 4.551-5.193 7.187-7.825 5.239-4.355 10.836-8.296 16.663-11.859-.493.472-.988.942-1.481 1.415a29.899 29.899 0 0 0-3.951 3.8zm-49.769 46.949c5.027-13.864 11.575-27.104 19.969-39.22 4.172-3.811 8.594-7.338 13.205-10.629-13.334 14.12-23.914 30.52-31.558 48.424-.54.474-1.075.953-1.616 1.425zm374.245-67.887a154.02 154.02 0 0 1 1.914 1.614 3.014 3.014 0 0 0-1.178-.412c-.245-.401-.486-.805-.736-1.202zm12.455 146.454c.514 1.153 1.016 2.313 1.523 3.472-1.303.004-2.912.009-4.701.019a85.934 85.934 0 0 0 3.178-3.491zm16.577-113.845a13.101 13.101 0 0 0-.674 4.25c.023 2.13.117 4.247.271 6.352-6.641-14.549-15.766-28.015-25.551-40.554-.031-.039-.062-.068-.094-.107 9.843 8.636 18.63 18.608 26.048 30.059zM301.47 224.834a52.27 52.27 0 0 1 .367-2.129c.208-1.107-.103.289.381-1.545 1.486-5.623 3.675-9.76 6.577-13.982 3.839-5.584 7.314-9.158 12.633-13.911 7.061-6.309 14.91-11.806 23.232-16.671a176.845 176.845 0 0 0-9.971 11.892c-13.225 11.133-24.836 24.019-33.489 39.025-.019.032-.036.065-.054.099a60.08 60.08 0 0 1 .324-2.778zm112.769 51.249l3.049-1.359.152.371c-1.068.329-2.139.655-3.201.988zm102.349-5.979c4.633 2.546 9.164 5.282 13.607 8.098a654.75 654.75 0 0 1 5.34 3.424c-6.676-2.937-12.928-5.965-18.73-9.196-.03-.798-.11-1.571-.217-2.326zm18.471 151.521c9.59-7.251 18.555-14.697 27.01-22.427a309.644 309.644 0 0 0 15.826 3.269 2886.022 2886.022 0 0 0-42.836 19.158z"/><path fill="#EAA286" d="M558.34 730.479c-16.975 9.395-36.627 13.057-55.898 12.413-19.217-.639-40.721-5.316-52.43-21.901-3.627-5.138-9.714 7.626-8.566 11.097 15.123 45.843 74.296 51.2 112.341 32.148 7.977-3.994 12.998-13.204 14.152-21.824.704-5.241-1.671-16.318-9.599-11.933z"/><path d="M272.368 469.988a25.58 25.58 0 0 0-.271-.011c-.467-10.674-6.771-20.14-18.805-20.354-13.509-.241-25.655 11.18-32.787 21.458-1.861 2.688-.946 9.569 2.612 5.193 6.2-7.625 14.507-13.451 24.623-13.582 6.513-.081 10.064 3.259 12.734 7.663-4.573.707-8.877 2.348-11.92 5.948-5.628 6.656-4.52 16.732.307 23.533 2.068 2.915 5.456-4.321 4.837-6.263-.882-2.766-4.99-10.04-2.025-12.604 3.101-2.68 7.69-3.644 12.135-4.082a93.698 93.698 0 0 0 1.785 3.655c1.57 3.011 4.682-1.854 5.867-4.502 1.933-1.415 3.376-5.951.908-6.052zm155.875 252.427c-7.358 23.323-6.002 48.374 11.625 66.726 15.727 16.376 39.301 23.003 61.438 22.735 23.218-.276 46.558-8.233 63.343-24.536 8.725-8.473 15.01-19.888 18.121-31.587 2.559-9.615 5.152-27.681-4.42-33.932-3.625-2.369-6.92 6.035-7.311 8.113-1.787 9.545-.408 20.276-3.047 28.951-.789 2.592-1.795 4.412-4.299 7.945-1.033 1.459-4.602 4.975-7.016 6.908-14.961 11.98-34.551 16.592-53.4 16.873-18.964.288-38.831-3.793-54.104-15.544-16.659-12.819-19.979-34.322-16.006-53.821.998-4.882-4.102-1.444-4.924 1.169z"/><path d="M429.512 719.157c-54.823.247-117.068.188-153.336 48.792-16.063 21.521-24.555 47.163-29.546 73.282-4.989 26.1-7.358 53.924-4.398 80.295.618 5.492 5.511-1.245 5.947-3.48 9.009-46.166 5.858-97.842 34.003-138.139 31.83-45.578 95.955-38.383 143.709-48.636 3.864-.827 9.318-12.141 3.621-12.114zm148.172 16.862c25.975-2.047 53.766-.77 78.453 8.192 22.232 8.075 39.203 23.766 53.193 42.378 14.91 19.84 23.699 42.741 31.984 65.893 8.434 23.559 15.244 47.988 20.029 72.541 1.449 7.441 11.471-5.1 10.746-9.889-7.918-52.324-17.109-105.022-49.635-148.474-14.332-19.148-34.842-33.885-57.566-41.216-29.037-9.366-58.383-4.058-86.301 6.43-1.056.399-2.784 4.29-.903 4.145z"/><path d="M285.442 865.368c10.133.892 21.981 4.648 26.446 14.707 4.116 9.277 3.917 21.041 3.707 30.994-.242 11.271-1.914 22.523-3.064 33.725-.866 8.432-3.957 22.137 1.301 29.492 5.48 7.666 13.587-9.482 14.127-13.037 1.561-10.29-.323-21.812-.04-32.314.322-11.943.706-23.929-.816-35.811-1.283-10.018-5.038-18.528-12.382-25.534-8.062-7.688-18.755-6.891-28.797-4.432-.648.161-1.47 2.124-.482 2.21zm43.041-539.71c10.473-10.107 24.629-14.167 38.462-17.367 14.288-3.305 29.547-3.822 43.952-1.013 18.312 3.571 30.03-38.169 14.393-37.757-39.062 1.029-78.961 13.062-101.185 47.426-2.961 4.577-2.543 15.391 4.378 8.711z"/><path fill="#ED4800" d="M687.541 855.675c.158-.312.287-.611.449-.925.748-1.449 1.625-7.64-1.916-5.926-.938.455-1.842.942-2.744 1.439a3.954 3.954 0 0 0-1.531-.263c-.77.055-1.539.109-2.307.165-3.951.278-6.506 4.021-7.863 7.947-3.16 2.408-6.271 4.903-9.502 7.319-1.668 1.248-2.986 7.277.279 5.217 2.721-1.717 5.365-3.554 8.051-5.304.1 2.773.854 5.414 1.932 7.994-9.258 32.94 8.152 69.389 12.924 102.696 2.23 15.559 16.68-2.788 17.492-10.235 4.066-37.269 4.027-76.9-15.264-110.124zm-203.914-11.086c-20.153 1.044-39.613-9.461-53.875-22.957-6.699-6.338-12.255-13.81-17.079-21.635-4.906-7.963-6.952-17.979-12.587-25.346-.803-1.019-1.854-1.508-3.149-1.47-.693.099-1.336.257-1.949.449-.735-3.864-1.279-7.703-1.541-11.481-.449-6.468-6.752 2.038-6.883 5.17-.208 4.952.049 9.943.577 14.933-1.961 6.183-1.271 14.105.143 19.256 1.516 5.53 3.927 10.919 6.819 16.081 4.188 16.168 9.825 31.948 18.204 46.466 6.933 12.019 17.137 24.756 31.652 27.076 17.889 2.856 32.375-13.836 40.697-27.413 2.084-3.4 8.337-19.613-1.029-19.129z"/><path fill="#EAA286" d="M785.125 464.405c-1.336-12.549-3.23-25.021-5.529-37.42 1.518-21.833 1.887-43.618-1.561-65.316l.469-2.27c.367-1.766-.266-3.839-1.688-4.636a174.46 174.46 0 0 0-2.801-11.97c-1.465-5.374-7.039-.311-8.914 3.008-1.656-17.068-4.902-34.016-9.1-50.525-9.041-35.548-23.619-70.244-43.896-100.869-.463-.7-1.086-1.029-1.766-1.115-3.258-6.439-6.883-12.587-11.07-18.172-.014-15.957-14.877-27.443-27.488-35.299-10.371-6.46-21.73-11.887-33.393-16.159-9.295-8.604-19.4-16.263-30.686-22.214-25.145-13.26-54.875-14.029-82.477-10.181-24.656 3.436-48.335 10.586-71.658 18.914a289.25 289.25 0 0 0-50.043 18.873c-.463.175-.925.35-1.387.523-.303.114-.598.319-.877.585-44.296 22.068-82.693 55.571-108.232 98.319-1.146 1.915-1.796 5.311-.27 7.217 2.075 2.593-4.75-.232-3.31-1.918 5.677-6.645-22.991 54.987-16.804 48.872-2.825 3.945-11.906 78.576-14.423 82.683-16.689 27.253 20.909 108.309 19.979 140.405-.113 3.887 7.348-188.209 7.491-190.632 2.594-43.451 23.396-85.97 54.343-116.286 15.277-14.963 33.791-26.6 54.51-32.23 24.629-6.694 49.768-1.289 74.122 4.056 1.716.377 3.433.762 5.151 1.149.472.671 1.176 1.09 2.204 1.012.53-.041 1.06-.1 1.588-.149 17.802 4.079 35.743 8.531 53.821 11.356.439.279.982.486 1.646.604 1.953.346 3.93.494 5.922.476 15.826 2.038 31.758 2.622 47.791.406 18.014-2.491 35.342-8.579 53.412-10.693 9.148-1.07 18.344 6.282 27.373 8.082.859.171 1.699 3.384 2.535 3.602 8.146 10.497 15.75 11.401 22.494 22.684 26.686 44.64 37.402 96.023 42.703 147.173 1.75 16.895 3.088 33.787 3.871 50.689-.43 23.559-.482 47.123-.402 70.687a549.676 549.676 0 0 1-.857 11.847c-1.85 21.844-4.76 43.865-10.902 64.955-6.873 23.599-21.17 44.363-35.852 63.778-16.74 22.134-35.438 44.596-57.523 61.608-.379.293-.766.574-1.148.863-13.305 4.514-25.887 12.267-35.652 21.632a216.552 216.552 0 0 1-32.043 12.234c-21.211 6.233-43.635 8.749-65.63 6.053-3.856-.474-7.476 8.662-2.922 9.283 32.39 4.411 66.027-2.477 96.244-16.236.252 2.16 1.557 3.545 4.715 2.767 10.129-2.496 20.355-7.939 28.971-14.125.359.196.832.231 1.434.049.318 1.105 1.186 1.672 2.924 1.035 3.088-1.13 5.996-2.661 8.719-4.48.729.667 1.73.932 3.031.409 16.512-6.628 29.99-20.906 41.486-34.023 8.797-10.036 16.656-21.015 23.781-32.379 1.953.341 4.773-1.362 6.127-2.923 15.121-17.445 25.064-38.858 33.375-60.202 6.609-16.97 12.18-34.603 16.271-52.452-.023 6.405.143 12.803.594 19.184.307 4.346 4.41 4.387 7.068 1.9 20.826-19.484 16.875-48.421 14.139-74.098zM403.094 154.16a328.602 328.602 0 0 1 7.165-3.363c.537.704 1.385 1.211 2.638 1.411.732.117 1.463.213 2.193.299-4.024.333-8.023.879-11.996 1.653zm132.967 17.119c-.531.193-1.094.551-1.654 1.023-.545-.085-1.088-.179-1.633-.267 1.172-.269 2.342-.546 3.508-.837-.073.028-.147.054-.221.081zm42.404 1.865c-.166.523-.307 1.283-.363 2.109-2.918.199-5.852.291-8.793.288 3.209-1.683 6.279-3.414 9.148-5.035l1.473-.432c-.631.94-1.125 1.99-1.465 3.07zm-3.49-49.315c1.369.149 2.738.31 4.107.478a391.86 391.86 0 0 0-4.055-.1 3.78 3.78 0 0 0-.052-.378zm-46.147-14.691c1.73-3.56 2.561-7.891-.281-8.934 16.668-1.57 33.406-1.039 50.1 2.695 10.475 2.344 20.207 6.643 29.254 12.188-25.987-5.551-52.598-7.399-79.073-5.949zm93.678 57.875c-1.629.366-3.256.74-4.881 1.115 5.559-2.562 11.127-5.06 16.848-6.966 7.85-.335 16.254-.244 24.172 1.225l.287.337c-12.239-.71-24.547 1.623-36.426 4.289zm96.156 441.507c1.109-3.519 2.434-6.971 3.762-10.327a205.321 205.321 0 0 1 3.373-7.996c2.041-3.138 4-6.352 5.836-9.708 2.176-3.975 4.334-7.959 6.465-11.96-5.174 13.597-11.297 27.638-19.436 39.991zm25.307-259.796a642.775 642.775 0 0 0-1.697-13.814c.717 4.462 1.414 8.927 2.092 13.396a10.46 10.46 0 0 0-.395.418zm29.965 170.125c-.361-13.694.309-27.395 1.35-41.087a394.9 394.9 0 0 1 1.43 20.254c.323 7.362-.083 14.509-2.78 20.833z"/><path d="M396.36 760.96c-1.562 23.493 7.391 45.102 23.606 61.951 14.693 15.266 43.319 29.672 64.825 24.383 3.158-.78 8.343-10.998 3.771-12.514-9.717-3.222-20.176-3.261-30.014-6.447-9.973-3.229-19.225-8.436-27.604-14.678-18.233-13.581-30.18-32.252-29.789-55.499.069-4.077-4.65.608-4.795 2.804zm256.8 109.578c2.525 8.713 6.41 16.869 9.521 25.387 3.746 10.248 5.773 21.02 7.809 31.703 4.148 21.777 5.773 44.02 9.029 65.938.16 1.085.432 3.412 1.91 3.722.436.092.873.182 1.309.275 2.719.568 4.936-2.115 5.881-4.417 3.936-9.604.402-20.831-.84-30.873-1.535-12.407-3.586-24.748-6.031-37.01-2.416-12.101-5.799-23.929-10.588-35.31-3.535-8.405-8.006-17.674-17.221-20.602-.527-.169-.89.8-.779 1.187z"/><path d="M691.691 837.96c-14.295 5.234-26.676 13.631-36.344 25.439-1.613 1.969-3.141 4.945-2.322 7.571 1.049 3.364 4.424.304 5.521-1.205 8.316-11.454 19.523-19.7 32.309-25.586 1.954-.9 4.041-7.391.836-6.219zm2.77-522.216c-8.67-15.482-22.764-28.59-39.354-35.098-16.158-6.339-34.527-9.053-51.816-9.538-16.727-.469-25.111 40.818-11.445 38.321 16.547-3.023 33.094-3.061 49.559.6 15.836 3.52 31.945 7.87 44.645 18.484 5.479 4.582 10.805-8.492 8.411-12.769z"/><path d="M378.002 469.733c1.521 7.773 8.522 11.521 15.712 7.96 3.177-1.571 5.725-3.72 6.642-6.507 2.82.492 1.885-3.579 1.218-4.962-2.655-5.488-9.938-17.184-17.7-12.202-2.227 1.43-3.862 3.703-4.888 6.274-.052.088-.106.17-.153.269a3.569 3.569 0 0 0-.33 1.112c-.809 2.67-.995 5.536-.501 8.056zm5.584 1.937a.146.146 0 0 0 .01-.055c.029.037.123.163.305.457-.228-.364-.298-.404-.315-.402zm-.062-2.772c.003-.03.01-.065.012-.097.561.187 1.12.164 1.586-.045 1.244.529 2.489 1.057 3.732 1.588.408.173.887.434 1.398.686-1.146.441-2.266.741-3.1.885-1.031.174-2.074.317-3.089-.016a1.235 1.235 0 0 1-.468-.292 3.322 3.322 0 0 0-.052-.552c-.066-.45-.1-1.347-.019-2.157zm-43.324 1.818c1.521 7.772 8.521 11.521 15.712 7.962 3.177-1.574 5.722-3.721 6.642-6.509 2.82.492 1.885-3.579 1.217-4.961-2.655-5.488-9.937-17.184-17.699-12.203-2.226 1.428-3.863 3.705-4.888 6.273a3.766 3.766 0 0 0-.154.27 3.634 3.634 0 0 0-.331 1.113c-.809 2.667-.993 5.535-.499 8.055zm5.584 1.937a.155.155 0 0 0 .008-.057c.029.039.123.164.307.459-.229-.365-.298-.406-.315-.402zm-.065-2.771l.014-.099c.559.187 1.119.164 1.586-.045 1.242.528 2.487 1.06 3.732 1.588.408.175.887.437 1.397.685-1.147.444-2.266.744-3.1.886-1.032.175-2.074.318-3.089-.016a1.224 1.224 0 0 1-.467-.288c.004-.076-.004-.23-.053-.554-.067-.449-.1-1.348-.02-2.157zm-42.935 3.054c1.521 7.772 8.521 11.52 15.712 7.961 3.177-1.573 5.723-3.721 6.642-6.509 2.82.492 1.884-3.577 1.217-4.96-2.654-5.487-9.938-17.183-17.699-12.202-2.227 1.427-3.863 3.702-4.888 6.272-.054.088-.106.17-.153.269a3.624 3.624 0 0 0-.332 1.113c-.808 2.668-.993 5.535-.499 8.056zm5.582 1.935c.004-.004.008-.021.011-.054.029.037.122.164.306.456-.229-.364-.3-.405-.317-.402zm-.062-2.77c.003-.032.009-.064.013-.097.56.186 1.119.163 1.585-.046l3.733 1.589c.406.174.887.435 1.397.685-1.147.442-2.265.742-3.1.885-1.032.175-2.073.318-3.089-.016a1.233 1.233 0 0 1-.467-.29c.004-.076-.005-.229-.053-.553-.067-.449-.1-1.349-.019-2.157zm50.732 33.959c1.521 7.771 8.521 11.521 15.713 7.961 3.176-1.573 5.724-3.721 6.642-6.509 2.821.492 1.884-3.577 1.218-4.961-2.655-5.487-9.938-17.183-17.699-12.202-2.229 1.428-3.865 3.704-4.891 6.273-.051.088-.104.171-.152.27a3.58 3.58 0 0 0-.33 1.112c-.809 2.668-.995 5.535-.501 8.056zm5.584 1.936c.004-.004.007-.021.01-.056.029.039.123.164.305.458-.228-.364-.298-.405-.315-.402zm-.063-2.77l.012-.099c.561.187 1.119.164 1.586-.045 1.243.53 2.488 1.059 3.733 1.588.408.175.888.435 1.396.686-1.146.443-2.265.743-3.101.885-1.028.175-2.072.318-3.086-.017a1.204 1.204 0 0 1-.469-.288c.004-.075-.004-.229-.052-.554-.066-.447-.101-1.347-.019-2.156zm-45.664 1.955c1.523 7.772 8.523 11.521 15.713 7.961 3.178-1.573 5.723-3.72 6.643-6.509 2.82.493 1.883-3.578 1.217-4.96-2.655-5.488-9.938-17.184-17.699-12.204-2.227 1.43-3.863 3.706-4.888 6.274a3.01 3.01 0 0 0-.155.271 3.59 3.59 0 0 0-.33 1.112c-.81 2.666-.995 5.535-.501 8.055zm5.586 1.937c0-.005.008-.022.008-.058.029.041.124.165.307.46-.229-.367-.299-.404-.315-.402zm-.062-2.771c.002-.031.008-.066.011-.099.56.187 1.12.163 1.585-.046 1.244.531 2.488 1.061 3.733 1.589.407.174.888.437 1.397.686-1.146.444-2.265.743-3.099.885-1.032.175-2.075.317-3.089-.016a1.226 1.226 0 0 1-.469-.29c.006-.073-.002-.229-.052-.552-.066-.449-.1-1.347-.017-2.157z" fill="#EAA286"/><path d="M283.663 502.375c-17.33-80.299-24.602-169.737 2.492-247.871 3.202-9.233 5.688-15.159 10.209-24.404 1.957-4 4.057-7.928 6.245-11.805 2.886-5.114 3.277-5.665 6.494-10.562 2.413-3.674 4.973-7.251 7.619-10.761a199.104 199.104 0 0 1 4.066-5.181c.69-.854 1.395-1.697 2.099-2.539.239-.287 2.922-3.387 1.703-2.009 6.109-6.901 12.772-13.299 19.818-19.236 30.261-25.498 71.058-39.57 111.032-44.977 53.12-7.185 108.841-10.896 160.356 6.91 45.946 15.88 87.584 48.134 111.286 90.886 21.28 38.384 26.776 83.944 32.963 126.669 2.304 15.914 2.305 32.503 2.968 48.542.848 20.542 1.29 41.881.639 61.978-.325 10.034-.907 20.047-1.473 30.068-.219 3.879-.681 7.781-1.241 11.625-.114.786-.248 1.57-.383 2.353-.061.348-.705 3.474-.252 1.463-.337 1.496-.695 3.05-1.253 4.479-1.039 2.663-.903 8.042 2.994 8.226 4.133.193 6.756-4.5 8.012-7.718-.958 2.455 1.144-2.713 1.532-3.768.529-1.436.98-2.899 1.417-4.365 1.25-4.196 2.171-8.497 3.057-12.781 1.848-8.928 2.893-18.127 3.418-27.225 1.244-21.563 1.172-43.216.651-64.801-.426-17.666-1.25-35.335-2.604-52.955-1.686-21.927-5.85-44.078-10.178-65.625-8.612-42.867-24.338-83.426-55.372-115.151-37.402-38.234-87.644-60.998-140.588-66.39-27.084-2.759-54.459-1.303-81.468 1.568-24.95 2.653-49.967 5.962-74.028 13.297-38.986 11.886-73.485 33.999-100.193 64.761-53.408 61.515-65.234 149.58-60.34 228.076 2.298 36.852 8.805 73.25 17.983 108.984.933 3.633 5.125 2.239 7.015.454 2.78-2.625 4.107-6.495 3.305-10.215z"/><path d="M707.332 473.647c1.52 7.772 8.521 11.521 15.709 7.961 3.178-1.572 5.727-3.721 6.643-6.508 2.82.492 1.885-3.58 1.219-4.961-2.656-5.489-9.938-17.185-17.699-12.203-2.229 1.43-3.863 3.703-4.889 6.274-.053.087-.107.17-.154.269-.17.344-.275.721-.33 1.113-.81 2.668-.995 5.535-.499 8.055zm5.582 1.938c.004-.006.008-.021.01-.057.029.039.123.163.305.459-.227-.365-.297-.404-.315-.402zm-.062-2.773l.014-.098c.559.188 1.119.164 1.584-.045l3.734 1.588c.406.174.885.434 1.396.686-1.146.443-2.266.743-3.1.885-1.031.175-2.074.318-3.088-.016a1.203 1.203 0 0 1-.467-.29 3.641 3.641 0 0 0-.053-.552c-.067-.449-.101-1.347-.02-2.158zm-43.325 1.817c1.521 7.774 8.521 11.521 15.713 7.962 3.176-1.574 5.723-3.719 6.641-6.509 2.82.492 1.885-3.578 1.217-4.959-2.654-5.488-9.936-17.184-17.697-12.203-2.227 1.426-3.865 3.704-4.889 6.271a3.332 3.332 0 0 0-.154.27 3.641 3.641 0 0 0-.332 1.114c-.807 2.668-.993 5.535-.499 8.054zm5.584 1.938a.193.193 0 0 0 .01-.057c.027.039.121.165.305.459-.229-.365-.297-.407-.315-.402zm-.062-2.772c.002-.031.008-.064.012-.097.559.185 1.119.164 1.586-.045 1.242.527 2.488 1.059 3.732 1.587.408.176.887.436 1.398.686-1.148.442-2.266.743-3.1.885-1.033.175-2.074.317-3.09-.016a1.224 1.224 0 0 1-.467-.288c.004-.076-.002-.231-.053-.554-.067-.448-.1-1.348-.018-2.158zm-42.938 3.055c1.521 7.771 8.521 11.521 15.713 7.962 3.176-1.574 5.723-3.722 6.641-6.51 2.82.492 1.885-3.578 1.217-4.96-2.654-5.488-9.936-17.184-17.697-12.203-2.229 1.428-3.865 3.704-4.889 6.273-.055.087-.107.17-.154.269a3.605 3.605 0 0 0-.332 1.113c-.807 2.667-.993 5.535-.499 8.056zm5.584 1.935a.158.158 0 0 0 .01-.055c.029.039.123.164.305.458-.227-.365-.299-.405-.315-.403zm-.062-2.769c.002-.032.01-.066.012-.099.561.187 1.119.163 1.586-.046l3.732 1.589c.408.175.887.436 1.398.685-1.148.444-2.266.744-3.1.885-1.031.176-2.074.319-3.088-.016a1.22 1.22 0 0 1-.469-.288c.004-.076-.004-.229-.053-.554-.067-.449-.1-1.348-.018-2.156zm50.73 33.957c1.521 7.773 8.521 11.522 15.713 7.962 3.176-1.574 5.725-3.72 6.643-6.51 2.82.492 1.885-3.577 1.217-4.959-2.654-5.487-9.936-17.183-17.699-12.202-2.227 1.426-3.863 3.702-4.889 6.271-.053.089-.105.173-.154.27a3.584 3.584 0 0 0-.33 1.114c-.807 2.667-.993 5.535-.501 8.054zm5.584 1.938c.004-.006.008-.022.01-.056.029.038.123.163.305.457-.227-.365-.297-.405-.315-.401zm-.062-2.771c.004-.033.01-.065.012-.098.561.185 1.119.164 1.586-.045 1.244.528 2.488 1.059 3.734 1.587.406.175.887.435 1.396.687-1.146.442-2.266.742-3.1.884-1.029.176-2.072.317-3.088-.016-.254-.081-.422-.244-.469-.288a3.04 3.04 0 0 0-.051-.554c-.067-.448-.102-1.348-.02-2.157zm-45.662 1.954c1.521 7.774 8.521 11.522 15.713 7.961 3.176-1.573 5.723-3.718 6.641-6.509 2.82.493 1.883-3.577 1.217-4.959-2.654-5.487-9.938-17.183-17.699-12.203-2.227 1.428-3.863 3.705-4.887 6.272a2.724 2.724 0 0 0-.154.271c-.172.342-.277.72-.332 1.113-.808 2.667-.993 5.535-.499 8.054zm5.584 1.939c.002-.007.008-.024.01-.058.027.04.123.165.305.459-.229-.367-.298-.404-.315-.401zm-.063-2.773c.002-.031.008-.065.012-.097.559.185 1.119.163 1.586-.046 1.242.529 2.488 1.06 3.732 1.588.406.174.887.436 1.396.687-1.146.443-2.264.742-3.098.885-1.033.174-2.074.315-3.09-.017a1.196 1.196 0 0 1-.467-.29c.004-.073-.004-.229-.053-.551-.067-.45-.1-1.348-.018-2.159z" fill="#EAA286"/><path fill="#FF8A0B" d="M392.399 795.617c.252-.006.491.012.737.07l-.676-.176c.224.067.422.161.611.301l-.535-.439c.194.16.345.346.468.566l-.347-.646c.109.213.185.434.232.668l-.159-.801c.017.088.031.178.035.268.033.716.35 1.521 1.024 1.865.69.352 1.495.112 2.111-.268.854-.526 1.511-1.359 1.961-2.243.486-.955.633-1.854.663-2.905a4.454 4.454 0 0 0-.39-1.868c-.616-1.385-1.704-2.208-3.241-2.32-.846-.062-1.684.489-2.265 1.038-.8.756-1.39 1.753-1.719 2.8-.278.883-.404 1.906-.093 2.803.231.662.819 1.306 1.583 1.287z"/><path d="M760.871 469.988l.27-.011c.467-10.674 6.771-20.14 18.807-20.354 13.508-.241 25.654 11.18 32.785 21.458 1.863 2.688.947 9.569-2.611 5.193-6.199-7.625-14.506-13.451-24.623-13.582-6.514-.081-10.064 3.259-12.734 7.663 4.574.707 8.877 2.348 11.92 5.948 5.627 6.656 4.52 16.732-.307 23.533-2.068 2.915-5.455-4.321-4.838-6.263.883-2.766 4.992-10.04 2.025-12.604-3.1-2.68-7.689-3.644-12.133-4.082a99.79 99.79 0 0 1-1.785 3.655c-1.57 3.011-4.684-1.854-5.869-4.502-1.932-1.415-3.376-5.951-.907-6.052z"/><path fill="#2F61DD" d="M722.857 634.524c-1.656.025-3.416 1.225-4.596 3.126-1.189 1.919-1.477 4.054-.752 5.571 3.92 8.225 3.691 16.22-.664 23.12-5.783 9.167-18.328 15.326-31.215 15.326a37.78 37.78 0 0 1-4.812-.304c-.477-.485-1.135-.75-1.896-.75-1.223 0-2.488.68-3.201 1.354-1.938 1.828-2.801 4.512-2.254 7.007 2.236 10.212-.41 20.655-7.451 29.407-8.848 10.996-23.637 18.102-37.678 18.103-3.68.001-7.244-.482-10.596-1.434a3.35 3.35 0 0 0-.916-.129c-2.85 0-5.121 3.489-5.494 5.99-.281 1.898.436 3.302 1.922 3.756l.037.012c1.365 7.637-.104 14.132-4.369 19.316-6.447 7.83-19.572 12.506-35.111 12.506-7.943.001-15.721-1.241-22.018-3.505.291-1.448.127-2.567-.488-3.328-.484-.595-1.195-.909-2.057-.909-1.768 0-3.902 1.338-5.045 3.141-1.93 1.519-3.252 4.78-2.363 6.947-2.711 7.192-6.959 12.604-12.975 16.535-6.535 4.269-15.1 6.524-24.77 6.524-.312 0-.622-.002-.933-.008-19.648-.285-38.303-10.872-47.617-26.995.084-1.418-.252-2.65-.941-3.415-1.096-1.217-2.897-1.128-4.826.406-5.336 4.25-14.22 6.688-24.371 6.689-14.21 0-32.619-5.11-39.459-16.331-3.457-5.671-3.438-12.114.052-19.163l.297-.031c3.067-.347 5.51-5.072 5.359-7.746-.099-1.74-1.179-2.79-2.901-2.652-3.977.303-7.85.457-11.512.457-16.982 0-30.756-3.165-42.108-9.678-7.385-4.237-12.733-10.178-15.473-17.182-2.815-7.2-2.491-15.762.989-26.169 2.126-1.65 3.531-5.204 2.871-7.405-.373-1.245-1.355-1.969-2.693-1.982-14.863-.168-26.561-6.416-32.094-17.145-5.476-10.62-4.293-24.662 3.07-36.737.232.065.473.1.721.1 1.996 0 3.859-2.231 4.668-4.435.75-2.042.538-3.758-.579-4.707l-.308-.26c-14.375-12.196-29.24-24.809-34.839-43.382-4.521-14.996-.026-31.299 13.738-49.812 14.218 15.342 33.735 27.174 58.036 35.182 17.846 5.881 5.938 8.863 23.773 8.863 6.512 0 12.994-.413 19.27-1.225 1.404-.182 2.777-1.247 3.865-2.999 1.027-1.655 1.82-4.031 1.363-5.736.031-.593-.045-1.13-.229-1.603-2.708-6.939-.462-11.186 3.741-15.424 6.963-7.021 16.835-11.234 25.574-14.43 21.93-8.022 77.119-12.09 104.869-12.09 2.291 0 4.626.029 6.943.085 16.49.404 86.662 3.429 103.475 22.729 6.004 6.894 8.49 15.321 7.385 25.052-.182 1.588.049 2.717.701 3.446.137.154.289.284.455.394-.719 1.47-1.08 3.236-.451 4.539.428.886 1.25 1.402 2.318 1.453 5.715.276 11.33.415 16.691.415 25.852 0 18.4-3.17 38.932-9.689 23.828-7.567 46.883-20.966 70.455-40.952 8.189 8.611 11.52 17.05 10.473 26.489-1.129 10.176-8.463 19.735-20.123 26.229-1.531.854-3.385 3.426-3.703 5.896-.18 1.398.174 2.567 1.021 3.38 11.863 11.381 14.861 26.061 8.023 39.271-6.354 12.281-20.502 20.69-35.206 20.926z"/><path fill="#2DB5F9" d="M770.088 507.309c-3.49-4.038-9.09 1.458-10.514 4.76-2.586 5.995-7.168 10.294-12.031 14.38-.248-.538-.488-1.08-.748-1.61-4.281-8.732-15.326 5.32-12.297 11.631 1.035 2.153 1.877 4.271 2.518 6.381-2.016-3.121-4.668-6.074-8.047-8.756-3.121-2.481-8.062 6.38-4.646 9.119 7.539 6.04 11.504 14.844 10.381 23.881-3.596 7.458-9.125 14.271-13.787 20.893-.021.029-.039.062-.061.091-4.971 3.279-10.787 5.319-16.711 5.816-3.154.264-7.068 5.95-4.469 8.769 5.648 6.126 10.463 13.608 9.27 22.279-.992 7.197-7.211 13.053-12.74 17.13-4.42 3.259-9.447 6.102-14.785 8.386-.412.12-.818.292-1.215.511-6.494 2.648-13.416 4.438-20.291 5.075a47.577 47.577 0 0 1-2.348-2.031c-2.641-2.448-5.885-.852-8.189 2.044-.414-.039-.836-.062-1.248-.111-3.148-.381-5.15 4.473-5.039 6.902.604 13.227-9.139 21.583-21.076 24.996-12.635 3.611-27.395.726-36.562-8.978-2.242-2.371-5.424 1.584-5.908 3.645-3.105 13.231-12.039 21.616-25.982 21.281-12.895-.31-25.08-8.107-32.646-18.2-.334-.447-.715-.646-1.107-.69-1.365-2.585-6.487 1.882-6.616 4.798-.803 18.24-19.919 25.469-36.499 27.392-.096-2.248.037.624-2.509.505-2.999-.142-6.384-2.608-7.87.049-14.911-.179-34.113-5.25-41.264-18.571.081-1.025.021-1.985-.211-2.813-.299-1.098-.893-1.967-1.842-2.459-.58-2.261-.871-4.697-.793-7.341.116-3.887-4.232-2.262-5.59-.347-9.309 13.133-26.482 16.238-40.954 10.349-14.829-6.036-21.911-20.668-15.872-35.664.671-1.666.453-4.397-1.709-4.694a42.014 42.014 0 0 1-7.724-1.822 5.396 5.396 0 0 0-1.052-.768c-10.016-5.627-18.24-13.495-22.535-23.01-1.628-5.421-1.758-10.955-.68-16.285 2.054-4.228 3.816-8.629 4.898-12.375a43.427 43.427 0 0 1 3.464-4.932c2.951-3.623.192-9.089-3.608-4.516-.932-.397-2.133-.895-3.549-1.478-.062-1.317-.428-2.56-1.236-3.569-1.942-2.426-4.613-1.378-6.73.271-15.652-6.562-39.592-17.258-43.261-24.779-4.755-9.748-2.954-20.194 1.624-29.616 1.412-2.91 3.029-8.892-.823-10.854-3.776-1.926-7.852 2.805-9.265 5.713-6.612 13.61-10.047 29.334-4.357 43.884 3.178 8.126 16.783 27.262 29.618 41.575-7.468 8.724-11.552 19.711-8.7 32.246 3.104 13.643 14.162 21.553 26.753 24.814a24.278 24.278 0 0 0 3.844 3.05c2.239 1.427 4.632 2.274 7.099 2.684-2.521 4.427-4.316 9.17-4.828 13.892a58.818 58.818 0 0 0-2.73 6.133c-1.022 2.712-1.204 7.511 1.871 9.078 1.521.775 3.101.521 4.555-.256.416.595.875 1.18 1.369 1.757 3.312 11.788 10.359 22.724 19.504 29.623 11.574 8.733 27.264 5.798 39.583.45 1.542-.67 3.071-1.39 4.588-2.142.415.837.857 1.642 1.324 2.423-2.948 7.779-3.862 16.17-.269 23.886 4.742 10.181 15.465 15.246 26.051 16.983 11.753 1.929 23.838-.416 33.813-6.066 4.054 7.822 10.407 14.228 19.089 18.39 2.783 1.333 5.676 2.386 8.636 3.206a44.905 44.905 0 0 0 3.355 2.538c7.834 5.34 16.358 5.501 24.308 2.754 5.285.722 10.849.112 16.48-2.202 11.148-4.582 20.074-12.98 26.221-23.157a28.044 28.044 0 0 0 5.664 4.555c8.127 4.981 18.355 4.833 27.305 2.588 20.145-5.05 34.609-24.185 34.938-44.526 13.494 4.4 29.48-.115 40.516-8.646 14.703-11.363 22.516-29.562 16.391-46.776.906.232 1.824.444 2.768.613 8.514 1.526 17.373-1.182 24.609-5.576 11.682-7.092 19.357-19.202 23.123-32.306a61.36 61.36 0 0 0 4.75-7.999c.299.08.613.131.965.129 7.342-.061 15.053-.88 21.307-5.067 6.486-4.342 10.154-11.431 11.43-18.977 1.955-11.567-3.439-23.724-6.4-34.676-.604-2.229-.783-3.021-.979-5.66-.004-.038-.008-.068-.01-.104.049-.139.094-.277.141-.415.316-.423 1.465-2.907.891-2.012 3.975-6.182 9.27-11.467 13.812-17.219 10.373-13.143 16.201-30.232 4.086-44.247zm-469.88 116.624c.118-.2.126-.261-.053-.073v-.001c.426-.47.88-.924 1.344-1.37.185.174.373.358.554.527-.179.944-.362 1.89-.509 2.838a58.712 58.712 0 0 0-1.336-1.921zm50.697 55.394c-1.521-3.411-2.41-7.09-2.451-10.969a18.23 18.23 0 0 0 2.38-4.015c.417.102.831.212 1.251.3-1.432 4.994-1.805 9.967-1.18 14.684zm19.634 43.194a13.499 13.499 0 0 0 1.954-2.055c1.229.328 2.467.612 3.711.854a40.265 40.265 0 0 1-5.665 1.201zm156.301-17.093c.211-.574.389-1.164.527-1.759a44.88 44.88 0 0 0 2.91 2.028 35.81 35.81 0 0 0-3.437-.269zm68.892 46.381c.189-.36.107-.272-.094.01.031-.154.061-.313.086-.476.168-.146.334-.296.5-.441-.158.305-.324.607-.492.907zm1.477-39.773a6.887 6.887 0 0 0-.342-.895c.537.086 1.076.152 1.615.21-.427.222-.849.455-1.273.685zm74.219-49.21c.93-.272 1.855-.565 2.775-.874.006.668.086 1.301.25 1.882a34.256 34.256 0 0 1-3.025-1.008zm44.873-41.906a25.24 25.24 0 0 0-.148-6.174 17.45 17.45 0 0 1 1.203 4.611 16.93 16.93 0 0 0-1.055 1.563zm14.082-8.389a32.58 32.58 0 0 0-.357-3.623 18.9 18.9 0 0 1 1.92 2.228c-.469.505-1.001.963-1.563 1.395z"/><path d="M780.25 540.287c3.23-14.977-3.574-31.282-16.934-40.577-1.441-1.002-3.336-.497-4.906 1.359-1.131 1.337-2.207 3.548-2.137 5.506-21.566 17.962-43.174 30.281-66.043 37.654-26.822 8.648-24.752 9.757-46.088 9.758-1.359 0-2.715-.006-4.07-.016.412-.707.688-1.435.803-2.138 3.352-20.477-8.959-38.29-32.928-47.651-16.258-6.348-65.049-9.436-87.451-9.436-7.643 0-15.548.356-24.167 1.088-29.132 2.473-82.307 8.445-100.847 18.258-13.111 6.939-26.137 19.435-24.12 33.982-4.585.405-9.287.611-13.992.611-42.853.002-53.645-16.048-79.171-42.946-.498-1.225-1.498-1.976-2.652-1.976-.797 0-2.035.362-3.42 2.088-17.248 21.493-24.152 41.971-20.523 60.864 4.264 22.193 22.507 38.763 33.527 46.967-8.896 14.924-11.101 30.56-6.197 44.119 4.697 12.983 16.926 21.756 32.852 23.642-6.584 20.936-1.619 39.292 13.713 50.501 14.345 10.484 33.028 12.686 46.176 12.686 1.656 0 3.338-.034 5.02-.105-3.193 8.045-3.404 15.819-.594 22.571 3.81 9.158 12.715 14.706 19.516 17.747 8.027 3.59 17.387 5.567 26.352 5.567 9.777 0 18.705-2.288 25.896-6.627 10.613 18.14 31.521 29.804 53.584 29.804.357 0 .713-.003 1.07-.009 20.246-.342 37.498-11.734 45.265-29.813 6.777 2.705 14.645 4.131 22.824 4.131 16.918 0 32.57-5.91 41.869-15.81 6.396-6.812 9.596-15.373 9.289-24.824 16.094 1.41 33.469-5.748 45.543-18.59 9.9-10.525 15.057-23.352 14.598-36.237.84.053 1.689.079 2.533.079 13.477 0 27.113-6.752 35.59-17.62 6.984-8.953 9.568-19.457 7.332-29.696 15.098-2.784 28.764-12.908 36.715-27.259 8.521-15.387 7.088-33.307-3.686-47.021 10.365-7.831 17.222-18.399 19.859-30.631zm-58.254 95.028c-1.656.025-3.416 1.224-4.596 3.126-1.189 1.919-1.477 4.054-.754 5.572 3.922 8.224 3.693 16.218-.662 23.119-5.783 9.167-18.328 15.326-31.215 15.326a37.78 37.78 0 0 1-4.812-.304c-.477-.485-1.135-.749-1.896-.749-1.223 0-2.488.679-3.201 1.353-1.936 1.828-2.801 4.512-2.254 7.007 2.236 10.212-.41 20.655-7.451 29.407-8.848 10.995-23.637 18.102-37.678 18.103-3.68.001-7.244-.482-10.596-1.434a3.349 3.349 0 0 0-.916-.128c-2.85 0-5.121 3.487-5.492 5.989-.283 1.897.434 3.302 1.92 3.756l.037.011c1.365 7.638-.104 14.133-4.369 19.317-6.447 7.829-19.572 12.506-35.111 12.507-7.943 0-15.721-1.241-22.018-3.506.291-1.448.127-2.567-.488-3.328-.484-.596-1.195-.91-2.057-.91-1.768 0-3.902 1.339-5.045 3.141-1.93 1.52-3.252 4.781-2.363 6.948-2.711 7.192-6.959 12.604-12.975 16.534-6.535 4.27-15.1 6.525-24.77 6.525-.312 0-.622-.002-.933-.007-19.648-.285-38.303-10.873-47.617-26.996.084-1.419-.252-2.65-.941-3.415-1.096-1.217-2.897-1.128-4.826.407-5.336 4.249-14.22 6.687-24.371 6.688-14.211 0-32.619-5.109-39.459-16.331-3.457-5.67-3.438-12.113.053-19.162l.297-.031c3.066-.347 5.509-5.072 5.358-7.746-.099-1.74-1.179-2.79-2.901-2.652-3.977.304-7.85.457-11.512.457-16.982 0-30.756-3.165-42.108-9.679-7.384-4.236-12.733-10.177-15.473-17.181-2.815-7.2-2.492-15.762.989-26.168 2.126-1.651 3.531-5.205 2.871-7.406-.373-1.245-1.355-1.969-2.693-1.983-14.863-.167-26.561-6.416-32.094-17.144-5.476-10.619-4.293-24.662 3.07-36.737.232.065.473.099.721.099 1.996 0 3.859-2.23 4.668-4.433.749-2.044.538-3.759-.579-4.708l-.308-.26c-14.375-12.197-29.239-24.809-34.839-43.383-4.521-14.995-.026-31.298 13.738-49.811 14.218 15.342 13.735 27.174 38.036 35.182 17.845 5.881 25.938 8.863 43.773 8.863 6.512 0 12.994-.413 19.27-1.225 1.404-.182 2.777-1.247 3.865-3 1.027-1.654 1.82-4.03 1.363-5.734.031-.594-.046-1.132-.229-1.604-2.708-6.939-.462-11.185 3.741-15.424 6.963-7.021 16.835-11.234 25.574-14.43 21.93-8.023 77.119-12.09 104.869-12.09 2.291 0 4.626.029 6.943.085 16.49.404 86.662 3.428 103.475 22.729 6.004 6.894 8.49 15.321 7.385 25.052-.182 1.589.049 2.716.701 3.446.137.153.289.284.455.394-.719 1.47-1.08 3.236-.451 4.54.426.885 1.25 1.401 2.318 1.452 5.715.276 11.33.416 16.689.416 25.854 0 18.402-3.17 38.934-9.69 23.828-7.567 46.883-20.966 70.457-40.952 8.188 8.611 11.518 17.05 10.471 26.489-1.129 10.175-8.463 19.735-20.123 26.229-1.531.854-3.385 3.426-3.703 5.896-.18 1.397.174 2.567 1.021 3.381 11.861 11.38 14.861 26.06 8.023 39.271-6.354 12.278-20.503 20.688-35.206 20.924z"/><path fill="#FFF" d="M578.047 551.521c-44.508 2.083-89.766 5.01-133.994-1.911-3.096-.483-5.418 4.243-5.729 6.607-1.29 9.871 2.359 18.829 8.008 26.519-3.776 7.043-4.149 15.146 3.114 21.231 8.375 7.019 20.257 10.155 31.181 11.768 6.196 2.868 12.894 4.654 19.862 5.267 31.188 2.736 58.317-19.376 72.088-45.665 3.066-5.853 5.488-12.079 7.445-18.384.494-1.584.724-5.557-1.975-5.432zm-102.423 29.832a25.838 25.838 0 0 0 5.5 3.802c-3.83-.486-7.603-1.25-11.227-2.417a60.791 60.791 0 0 1 5.727-1.385zm70.456 1.695c-.305.002-.611.017-.916.021a130.24 130.24 0 0 1 3.326-.422c-.049.463-.107.917-.172 1.368-.414-.606-1.125-.973-2.238-.967zm-85.284-7.597a35.714 35.714 0 0 1-1.952-2.351c2.393-.055 4.784-.092 7.176-.114a47.697 47.697 0 0 0-5.224 2.465zm-10.917-13.587c-.023-.063-.043-.127-.065-.188l.495.06c-.144.039-.29.075-.43.128zm117.629 1.584a825.808 825.808 0 0 1-19.719-.307c7.652-.328 15.311-.666 22.975-.949-.344.873-.701 1.74-1.072 2.602-.372-.801-1.051-1.343-2.184-1.346zM453.66 591.115c.241.392.501.774.749 1.162a11.36 11.36 0 0 1-1.162-1.569c.136.136.273.271.413.407z"/><path d="M417.663 538.208c26.316 17.104 60.572 21.06 91.256 21.028a232.4 232.4 0 0 0 50.955-5.745c14.219-3.227 29.854-8 41.781-16.695 2.205-1.608 3.861-8.821-.492-6.484-12.93 6.945-25.93 12.088-40.279 15.405-16.594 3.837-33.611 5.295-50.611 5.497-29.885.354-63.417-3.36-89.688-18.74-2.293-1.342-5.186 4.262-2.922 5.734z"/><path d="M430.957 545.021c-3.001 37.892 21.038 74.413 58.945 82.585 17.319 3.733 37.231.301 53.016-7.426 14.01-6.857 24.607-18.955 31.311-32.863 6.309-13.09 10.545-29.242 10.246-43.827-.025-1.243-1.01-2.217-2.268-1.836-1.82.553-2.848 2.605-3.156 4.333-1.539 8.605-2.314 17.184-4.701 25.644-2.084 7.379-5.068 14.564-9.262 21.003-8.84 13.567-22.627 21.766-38.174 25.481-18.718 4.473-38.265 3.067-55.11-6.57-16.437-9.401-28.304-25.686-33.487-43.751-2.252-7.844-2.959-16.136-2.432-24.262.301-4.644-4.686-1.578-4.928 1.489z"/><path d="M433.801 573.845c21.244 10.898 45.298 16.649 69.076 17.921 24.712 1.322 52.058-2.515 72.839-16.873 2.107-1.456 3.281-8.044-.443-5.833-21.779 12.931-46.379 17.037-71.467 15.74-23.003-1.189-46.362-6.537-67.19-16.479-2.34-1.117-5.114 4.344-2.815 5.524zm15.733 60.563c16.154 12.849 32.699 21.597 53.266 24.565 17.425 2.517 41.076-.348 54.132-13.042 1.883-1.831 7.254-14.66.652-13.878-7.916.938-15.389 6.408-23.084 8.882-8.691 2.795-18.139 3.224-27.187 2.925-18.689-.62-38.304-7.329-55.102-15.196-2.22-1.04-4.453 4.33-2.677 5.744z"/><path fill="#FFF" d="M464.288 411.442c0 33.017-34.504 59.784-77.066 59.784s-77.066-26.768-77.066-59.784c0-33.02-11.907-45.432 30.359-50.444 118.168-14.013 123.773 17.425 123.773 50.444zm103.077-10.277c0 33.019 34.504 59.785 77.066 59.785s77.066-26.767 77.066-59.785 11.906-45.431-30.359-50.442c-118.169-14.014-123.773 17.424-123.773 50.442z"/><path fill="#2695F9" stroke="#000" stroke-width="8" stroke-miterlimit="10" d="M486.412 379.505c-.401-5.292-1.649-10.283-3.711-14.848a186.742 186.742 0 0 0-1.255-7.001c-.712-3.566-3.805-5.872-7.477-5.494-10.803-10.731-25.926-14.993-36.957-16.672-6.449-.979-13.303-1.476-20.374-1.476-15.781 0-32.937 2.356-53.989 7.418-11.703 2.812-22.038 5.893-31.59 9.41a295.256 295.256 0 0 0-23.291 8.364c-7.908 3.226-17.127 7.27-25.531 12.807-3.301 2.178-5.583 5.875-6.104 9.895-.272 2.122.144 5.434 2.218 7.794 1.269 1.442 2.96 2.294 4.811 2.433.316 11.658 2.231 22.765 5.632 33.017l.007 1.974.276-1.135c4.896 14.355 12.723 27.014 23.169 37.164 17.203 16.718 41.821 26.834 67.542 27.755 1.271.045 2.562.067 3.829.067h.004c24.087 0 47.395-8.092 65.628-22.783 17.835-14.371 29.89-35.939 33.964-60.748 2.779-9.89 3.856-19.289 3.199-27.941zM311 389.466c-.127-1.962-.259-3.978-.31-5.945 1.497-1.148 3.212-2.246 5.121-3.277 53.194-26.719 108.308-20.181 128.556-12.079.924.37 1.934.392 2.854.604 7.73 4.646 12.564 11.845 13.633 20.326.744 5.908.248 12.471-1.479 19.511-3.494 16.849-8.746 29.724-14.309 36.663-9.561 11.931-24.518 19.661-45.727 23.63-.928.068-5.072.225-6.224.225-14.835 0-29.655-3.492-42.874-10.096-16.853-11.167-38.221-35.442-39.143-57.97.158-.841.242-1.687.252-2.521.041-3.1-.158-6.132-.35-9.071zm237.141 9.733c4.072 24.811 16.129 46.379 33.963 60.749 18.234 14.693 41.541 22.784 65.629 22.784h.004c1.268 0 2.557-.023 3.828-.069 25.721-.92 50.338-11.037 67.543-27.753 10.445-10.152 18.273-22.81 23.168-37.164l.277 1.135.006-1.974c3.4-10.255 5.314-21.358 5.633-33.019 1.85-.139 3.541-.99 4.811-2.432 2.074-2.359 2.49-5.674 2.217-7.793-.52-4.02-2.803-7.718-6.105-9.896-8.404-5.537-17.621-9.582-25.531-12.807a294.926 294.926 0 0 0-23.289-8.365c-9.553-3.519-19.887-6.596-31.59-9.411-21.053-5.061-38.209-7.418-53.99-7.418-7.07 0-13.926.499-20.373 1.478-11.031 1.679-26.154 5.939-36.957 16.672-3.674-.38-6.766 1.93-7.477 5.493a186.377 186.377 0 0 0-1.256 7.002c-2.061 4.562-3.309 9.556-3.711 14.848-.658 8.651.418 18.053 3.2 27.94zM720 390.289c.008.836.094 1.682.254 2.524-.926 22.525-22.293 46.801-39.145 57.967-13.219 6.604-28.039 10.096-42.875 10.096-1.15 0-5.297-.157-6.225-.223-21.207-3.972-36.164-11.702-45.727-23.63-5.561-6.94-10.812-19.816-14.307-36.666-1.727-7.038-2.225-13.602-1.479-19.509 1.068-8.481 5.902-15.68 13.631-20.325.922-.213 1.932-.236 2.855-.604 20.248-8.101 75.361-14.639 128.555 12.079 1.908 1.03 3.625 2.129 5.121 3.276-.051 1.97-.182 3.984-.309 5.946-.191 2.941-.388 5.971-.349 9.069z"/><path fill="#2695F9" d="M552.719 383.105c-1.104-16.394-20.205-24.218-34.432-24.595-14.436-.384-33.283 4.974-39.382 19.568-.995 2.379-3.789 15.365 1.068 12.875 21.369-10.962 36.671-13.649 53.808-7.895 1.08 3.932 15.881 13.302 19.871 14.369 5.112 1.369-.636-9.929-.933-14.322z"/><path d="M489.239 393.823c6.256-9.174 17.71-11.664 28.189-10.332 11.209 1.425 20.699 8.135 25.398 18.389 1.893 4.126 6.184-2.459 5.463-5.166-3.35-12.553-16.266-19.535-28.316-21.311-13.036-1.92-26.661 3.215-33.929 14.422-.873 1.345-1.91 3.622-.713 5.118 1.149 1.435 3.164-.028 3.908-1.12zm-6.957-21.176c17.293-11.546 40.777-20.656 58.675-5.16 3.328 2.88 8.18-5.022 5.463-7.373-20.117-17.417-45.439-7.675-64.628 6.049-1.542 1.104-2.67 3-2.521 4.948.123 1.647 1.581 2.49 3.011 1.536zm-53.965 19.662a34.622 34.622 0 0 0-1.023-1.256c-4.065-6.146-10.771-10.388-18.5-11.114-4.674-1.006-9.522-.905-14.084.653-3.719 1.271-7.395 3.625-9.717 6.832-10.388 7.548-12.321 22.136-4.19 33.038 10.177 13.646 29.137 14.418 42.388 5.094 11.439-8.048 13.552-22.264 5.126-33.247zm-46.233 6.846a24.868 24.868 0 0 0-.497 2.896 9.86 9.86 0 0 1 .497-2.896z"/><circle fill="#FFF" cx="410.647" cy="398.717" r="9.938"/><path d="M651.932 391.361a32.796 32.796 0 0 0-1.023-1.256c-4.064-6.146-10.77-10.39-18.5-11.113-4.674-1.007-9.521-.907-14.084.651-3.719 1.271-7.395 3.626-9.717 6.832-10.387 7.548-12.32 22.135-4.189 33.037 10.178 13.647 29.137 14.419 42.387 5.097 11.44-8.048 13.551-22.265 5.126-33.248zm-46.233 6.847a24.64 24.64 0 0 0-.496 2.895 9.825 9.825 0 0 1 .496-2.895z"/><circle fill="#FFF" cx="618.74" cy="398.532" r="9.938"/></svg>