<svg xmlns="http://www.w3.org/2000/svg" xmlns:xlink="http://www.w3.org/1999/xlink" width="1030" height="1030" viewBox="0 0 1030 1030"><defs><path id="a" d="M1020.378 515.001c0 279.115-226.266 505.377-505.379 505.377-279.111 0-505.377-226.264-505.377-505.377S235.888 9.622 514.999 9.622c279.113 0 505.379 226.266 505.379 505.379z"/></defs><use xlink:href="#a" overflow="visible" fill="#FFBF1F"/><clipPath id="b"><use xlink:href="#a" overflow="visible"/></clipPath><g clip-path="url(#b)"><circle fill="#FFBF1F" cx="516.036" cy="517.213" r="505.377"/><path fill="#FC9E17" d="M64.591 301.339c65.698-60.767 147.473-101.363 226.167-142.394 40.815-21.281 80.746-43.73 120.539-66.854 43.206-25.11 87.47-49.598 136.054-62.561l-2.864-37.722C469.489 62.96 382.009 118.799 296.63 176.392c-43.967 29.658-87.432 59.996-129.214 92.682-20.033 15.672-39.122 32.311-60.043 46.828-21.763 15.1-44.411 28.884-66.553 43.409-20.462 13.421-40.42 27.7-58.93 43.736-7.093 6.145-11.696 17.171-10.986 26.521.548 7.209 5.931 13.974 13.849 11.2 98.168-34.394 184.331-95.652 268.734-154.941 42.164-29.617 84.252-59.421 128.115-86.495 19.998-12.341 40.242-24.097 59.857-37.073 21.044-13.919 41.816-28.239 62.965-42.001 37.357-24.313 76.479-48.122 120.033-59.315-2.238-11.117-4.478-22.232-6.716-33.351-3.625 4.497-11.991 11.267-18.964 15.919-10.001 6.67-20.648 12.364-31.156 18.178-23.028 12.742-45.092 27.219-67.553 40.936-51.306 31.332-102.533 62.797-153.852 94.112-51.111 31.188-102.327 62.211-153.791 92.816-45.841 27.263-92.238 53.613-137.738 81.449-57.196 34.991-113.602 73.15-161.327 120.578-6.828 6.784-11.733 16.688-10.986 26.521.559 7.365 5.898 13.78 13.85 11.198 51.945-16.859 99.749-43.608 147.504-69.638 50.273-27.404 102.161-51.78 153.584-76.934 106.724-52.204 213.545-104.201 320.026-156.899 43.588-21.572 87.409-42.348 128.738-68.076 36.969-23.018 73.674-48.996 115.463-62.538-.954-12.575-1.908-25.146-2.864-37.721-32.515 34.457-76.607 55.146-117.22 78.288-50.043 28.516-97.458 62.321-145.694 93.778-48.672 31.741-97.557 62.7-143.462 98.404-36.259 28.201-71.636 58.477-113.409 78.263C166.968 440.29 75.416 461.753 37.56 541.29c-3.076 6.463-5.365 14.316-2.91 21.401 1.744 5.04 7.496 9.095 12.933 6.589 100.087-46.102 193.518-104.332 287.45-161.587 46.518-28.354 93.288-56.325 141.229-82.228 49.123-26.541 100.223-49.029 149.865-74.543 51.182-26.305 101.262-54.686 151.102-83.427-.984-12.997-1.971-25.993-2.959-38.989-89.506 66.279-184.819 124.035-280.237 181.279-95.315 57.186-189.7 115.122-280.916 178.699C148.345 533.63 70.699 560.08 20.878 624.456c-8.81 11.384-11.102 42.221 10.985 31.382 208.226-102.161 408.94-218.58 611.71-330.955 81.106-44.949 162.599-89.213 245.033-131.684l-2.959-38.989C684.77 269.933 489.944 395.937 300.087 528.914 223.16 582.793 147.083 637.886 71.74 693.957c-9.188 6.835-16.062 17.88-15.161 29.76.735 9.699 9.591 15.234 18.12 9.229 43.633-30.724 91.014-55.527 138.016-80.599 48.866-26.063 96.421-53.966 143.454-83.206 97.824-60.818 193.597-125.836 295.819-179.224 79.944-41.755 155.398-91.653 236.617-131.035l-7.131-35.752C726.442 362.758 545.962 469.948 368.333 577.764c-93.445 56.721-186.838 113.71-276.603 176.167-9.319 6.483-16.044 18.146-15.161 29.758.801 10.539 9.316 14.158 18.12 9.23 202.516-113.372 408.093-221.234 609.108-337.292 82.609-47.694 164.386-96.848 244.781-148.196-3.662-10.461-7.324-20.92-10.984-31.381-4.996 7.511-10.377 14.716-16.098 21.688-5.041 6.146-10.836 12.267-18.376 19.708-14.123 13.939-29.659 26.809-45.089 38.273-35.397 26.297-73.572 48.73-112.081 70.107-37.449 20.789-75.582 40.312-113.116 60.945-42.605 23.422-83.599 49.658-124.551 75.827-65.341 41.753-130.41 84.796-198.977 121.15-60.084 31.858-124.11 59.162-173.205 107.688-6.838 6.763-11.73 16.707-10.986 26.522.622 8.163 5.797 12.765 13.852 11.198 27.105-5.267 51.928-18.041 75.645-31.759 24.854-14.379 49.684-28.81 74.537-43.192a10595.979 10595.979 0 0 0 152.23-89.771c49.531-29.772 100.037-57.95 150.667-85.822 50.375-27.729 102.132-51.93 153.663-77.322 67.275-33.148 131.118-72.729 197.158-108.185l-10.984-31.383c-5.504 7.192-9.136 10.836-17.041 18.057-7.751 7.076-15.978 13.312-24.516 19.367-18.807 13.338-38.714 25.094-58.617 36.699-43.185 25.18-85.118 51.793-126.224 80.276-91.95 63.715-180.731 131.845-272.466 195.851-62.606 43.68-127.019 85.396-195.645 119.062l2.959 38.99c48.338-27.513 98.725-51.109 148.234-76.384 25.085-12.807 49.887-26.168 74.097-40.571 24.189-14.391 46.896-30.896 69.81-47.201 23.254-16.545 46.578-32.993 70.564-48.466 23.51-15.167 48.085-28.535 72.547-42.078 48.809-27.02 97.927-53.479 146.338-81.21 61.396-35.17 121.518-72.686 178.058-115.307l-10.984-31.382c-59.98 69.829-146.117 119.635-225.496 166.942-91.051 54.269-181.007 110.706-269.408 169.204-41.195 27.26-81.384 55.869-121.203 85.092-39.395 28.913-78.96 57.731-121.234 82.347-9.594 5.584-15.991 18.821-15.16 29.759.841 11.066 9.201 13.475 18.119 9.23 100.961-48.053 196.104-107.057 291.245-165.518 47.797-29.37 95.674-58.625 144.386-86.46 47.674-27.237 96.568-52.016 145.609-76.669 75.025-37.713 150.203-76.055 218.389-125.428l-7.131-35.751c-33.609 33.213-76.089 55.599-117.895 76.72a4039.337 4039.337 0 0 0-133.637 70.689c-99.297 54.921-199.127 109.008-295.387 169.179-39.695 24.813-79.178 50.248-116.168 78.982-32.521 25.263-64.553 53.299-102.398 70.431-8.954 4.054-15.02 11.32-17.994 20.765-1.854 5.884-3.031 24.237 8.273 22.726 45.448-6.074 87.678-22.926 128.725-42.8 43.947-21.275 85.809-46.649 127.57-71.857 92.4-55.778 188.994-103.604 284.819-153.169 30.956-16.012 61.8-31.989 92.062-49.282 29.731-16.989 59.46-33.979 89.188-50.968 9.618-5.496 15.986-18.892 15.161-29.759-.804-10.575-9.309-14.111-18.121-9.229-104.188 57.711-206.854 118.117-308.767 179.746-51.145 30.929-102.087 62.187-152.946 93.583-44.668 27.573-85.541 60.625-129.553 89.188-21.203 13.757-43.262 26.518-67.016 35.328l-1.309 40.958C503.589 874.062 701.894 821 881.024 728.062c47.312-24.547 93.093-52.107 136.094-83.643 9.217-6.758 16.058-17.938 15.16-29.76-.76-9.986-9.485-14.867-18.119-9.229-189.895 124.01-375.484 255.294-574.296 364.989a2771.097 2771.097 0 0 1-59.694 31.968l7.133 35.753c73.348-58.31 162.889-92.968 248.278-129.313 44.957-19.136 89.819-38.741 132.914-61.835 22.314-11.959 44.491-24.162 66.002-37.533 23.461-14.584 46.565-29.751 71.245-42.24l-14.291-26.021c-3.254 5.631 2.838-4.268-.768 1.271-1.092 1.673-2.266 3.292-3.438 4.908-1.197 1.657-2.473 3.257-3.742 4.856-.225.285-4.667 5.495-1.594 2.025-6.42 7.245-13.553 13.844-20.877 20.158-14.344 12.364-31.18 23.663-48.141 34.454-35.631 22.667-73.098 42.25-109.025 64.42-39.857 24.595-76.527 54.362-114.17 82.133-42.476 31.335-86.008 61.829-133.523 85.104-8.504 4.165-17.229 7.841-26.043 11.295.954 12.572 1.908 25.146 2.865 37.721 61.736-53.27 143.855-80.491 220.312-108.335 80.787-29.419 162.883-61.466 226.772-120.972 7.469-6.955 14.517-14.354 21.267-22.004 7.163-8.118 13.979-19.857 10.071-31.133-3.469-10.01-15.477-8.066-21.376-1.381-114.229 129.438-307.649 132.047-443.065 231.178a405.272 405.272 0 0 0-25.289 20.133c-7.098 6.125-11.693 17.185-10.986 26.522.529 6.965 5.992 14.28 13.852 11.197 97.135-38.068 176.129-109.005 260.492-168.247 66.981-47.033 147.925-76.376 205.264-136.568 10.397-10.916 19.23-22.635 26.766-35.684 7.101-12.287 4.061-35.306-14.291-26.021-23.682 11.983-45.959 26.396-68.421 40.475-22.415 14.05-45.567 26.728-68.829 39.299-42.021 22.706-85.975 41.566-129.891 60.243-90.248 38.378-182.229 75.838-259.648 137.379-7.225 5.744-11.672 17.469-10.985 26.521.819 10.785 9.259 13.842 18.12 9.23C584.75 936.469 771.74 806.555 960.965 681.342a11124.478 11124.478 0 0 1 56.154-36.924l-2.959-38.989c-164.072 120.32-362.512 176.992-545.047 261.855-48.147 22.383-95.298 46.992-140.351 75.131-8.23 5.139-13.766 14.978-14.994 24.479-1.041 8.054 3.029 20.431 13.686 16.479 48.653-18.046 91.169-48.993 132.91-79.128 45.077-32.542 91.929-61.576 139.312-90.626 101.836-62.436 204.242-123.967 307.943-183.265a7359.87 7359.87 0 0 1 86.651-48.766c-.985-12.996-1.972-25.993-2.96-38.988-51.546 29.457-102.699 59.619-155.438 86.898-53.777 27.817-107.557 55.633-161.336 83.449-43.93 22.723-87.301 45.755-129.695 71.245-41.771 25.118-83.297 50.7-126.523 73.278-41.221 21.529-86.023 41.922-132.549 48.141-3.242 14.498-6.481 28.993-9.721 43.49 47.462-21.483 85.908-55.805 127.178-86.811 44.623-33.523 92.952-62.742 140.678-91.576 96.972-58.587 197.005-111.868 295.911-167.064 73.6-41.076 157.644-70.725 218.6-130.964 6.843-6.76 11.733-16.708 10.988-26.521-.729-9.591-9.636-15.373-18.12-9.229-88.588 64.145-188.591 109.527-285.451 159.373-99.426 51.166-193.672 111.625-289.093 169.731-73.313 44.644-147.525 88.053-225.085 124.969l2.959 38.989c49.188-28.641 94.676-62.945 140.544-96.504 46.478-34 94.138-66.235 142.512-97.467 87.035-56.191 175.351-110.046 263.912-163.752 74.69-45.295 149.065-94.295 206.426-161.075 5.669-6.597 9.146-18.316 6.218-26.761-2.553-7.37-11.105-9.217-17.203-4.62-89.627 67.563-188.064 121.632-286.238 175.511-49.329 27.073-98.405 53.916-144.788 85.881-23.353 16.091-46.29 32.776-69.501 49.068-23.09 16.205-47.426 30.418-72.158 43.965-61.564 33.727-125.931 62.054-186.961 96.791-9.622 5.477-15.983 18.906-15.16 29.76.834 10.973 9.219 13.596 18.119 9.23 98.893-48.512 189.043-113.175 277.802-177.872 89.326-65.108 177.655-132.874 271.783-191.008 55.476-34.265 120.368-62.552 160.974-115.647 5.391-7.048 9.266-17.969 6.219-26.763-2.84-8.196-10.652-8.139-17.203-4.62-49.321 26.479-97.432 55.121-146.602 81.871-49.907 27.152-102.033 49.65-152.422 75.84-103.297 53.693-202.543 114.397-302.912 173.234a11425.55 11425.55 0 0 1-97.148 56.283c-30.903 17.713-60.723 37.979-96.279 44.889.954 12.572 1.908 25.146 2.865 37.721 33.756-33.367 76.162-55.738 118.041-77.181 45.688-23.39 90.238-48.038 134.127-74.68 87.6-53.175 171.682-111.858 262.071-160.353 54.957-29.484 110.544-57.98 162.961-91.898 49.711-32.166 98.854-70.181 131.993-120.016 5.023-7.557 9.406-17.564 6.218-26.762-2.7-7.791-10.854-8.675-17.203-4.621-195.874 125.101-399.875 236.655-603.807 347.893-83.529 45.561-167.062 91.117-250.083 137.596.985 12.996 1.972 25.992 2.959 38.988 170.95-118.941 354.397-218.406 528.241-332.895 94.264-62.08 185.904-128.777 269.847-204.379 7.025-6.327 11.708-17.035 10.988-26.521-.836-11.01-9.213-13.55-18.12-9.23-51.248 24.849-100.296 53.832-149.524 82.396-49.636 28.8-100.665 55.019-150.331 83.749-99.656 57.645-195.211 122.086-293.779 181.536-72.496 43.724-150.876 77.517-220.271 126.384.985 12.996 1.973 25.992 2.959 38.988 185.013-137.684 374.572-269.338 569.658-392.373 80.435-50.727 161.85-99.902 244.248-147.373 9.606-5.535 15.987-18.861 15.161-29.76-.821-10.815-9.251-13.799-18.12-9.229C679.47 260.432 479.433 377.96 275.685 488.664c-81.457 44.258-163.553 87.353-246.782 128.186l10.984 31.383c25.776-33.308 66.304-56.533 103.788-77.647 19.877-11.199 39.891-22.157 59.18-34.356 21.948-13.881 42.736-29.654 64.246-44.203 92.357-62.464 188.979-118.262 284.29-176.013 77.075-46.703 153.374-94.857 225.837-148.517 9.198-6.81 16.062-17.9 15.162-29.76-.793-10.436-9.346-14.29-18.121-9.229-48.863 28.18-97.979 55.93-148.079 81.867-49.613 25.688-100.764 48.179-150.024 74.562-96.332 51.593-187.564 112.021-281.984 166.92-45.945 26.715-92.726 52.251-141.018 74.497 3.339 9.33 6.681 18.662 10.023 27.99a167.79 167.79 0 0 1 2.938-5.881c.276-.53 3.928-6.72 1.068-2.127 2.277-3.657 4.846-7.124 7.492-10.519.168-.216 4.738-5.591 1.715-2.197 1.437-1.612 2.949-3.157 4.456-4.703 3.552-3.637 7.364-7.009 11.247-10.285 4.772-4.025 12.174-9.079 19.404-13.619 8.459-5.309 17.279-10.026 26.193-14.511 34.469-17.342 71.242-29.699 106.113-46.215 43.148-20.439 79.836-52.666 117.23-81.818 44.833-34.949 93.141-64.874 140.71-95.896 48.038-31.33 95.283-64.804 145.126-93.205 42.926-24.461 88.732-46.937 123.102-83.359 6.684-7.084 11.75-16.467 10.986-26.521-.559-7.366-5.897-13.776-13.851-11.199-49.908 16.174-93.238 47.806-137.599 74.86-48.914 29.833-102.049 53.269-153.393 78.592-106.676 52.613-213.651 104.618-320.469 156.94-43.396 21.257-86.618 42.541-129.029 65.714-40.359 22.048-80.935 43.731-124.823 57.979l2.863 37.722c72.181-71.732 163.499-120.634 250.486-171.761 103.368-60.754 205.491-123.592 307.752-186.184 31.838-19.49 63.288-39.892 95.544-58.647 28.137-16.359 57.43-30.229 78.302-56.136 6.78-8.413 13.28-38.49-6.716-33.35-47.432 12.189-90.47 38.453-131.143 64.924-21.107 13.74-41.834 28.054-62.84 41.949-19.621 12.977-39.934 24.667-59.938 37.012-88.902 54.875-170.566 120.623-260.034 174.661-39.992 24.155-81.579 45.8-125.744 61.276l2.863 37.721c39.103-33.88 85.59-57.931 127.509-87.985 21.175-15.182 40.63-32.546 61.216-48.488 20.628-15.977 41.773-31.276 63.117-46.279 86.076-60.504 176.02-115.53 257.792-181.999 18.233-14.82 35.915-30.312 52.962-46.484 6.924-6.571 11.721-16.852 10.986-26.521-.586-7.715-5.842-13.337-13.852-11.199C503.626-.24 458.109 24.438 414.134 49.748c-40.958 23.574-81.776 46.956-123.684 68.825-82.873 43.245-167.968 86.252-237.164 150.254-7.749 7.166-13.724 20.591-10.071 31.133 3.688 10.637 15.029 7.252 21.376 1.379z"/></g><path fill="#EAA286" d="M280.995 447.215c-11.666-11.1-29.248-25.822-46.75-18.812-19.668 7.878-30.101 29.975-31.832 50.092-2.121 24.647 8.01 73.211 42.949 63.425 14.331-4.014 25.773-17.035 34.051-28.647 5.749-8.062 11.695-22.778 4.434-31.849-7.229-9.023-19.57.309-24.321 6.977a111.082 111.082 0 0 1-4.44 5.825c-2.816 3.435 4.057-4.445 1.154-1.321a56.817 56.817 0 0 1-2.109 2.114 46.484 46.484 0 0 1-2.069 1.852c-2.812 2.42 4.577-3.389 1.673-1.313-1.229.881-2.545 1.625-3.896 2.299 6.254-3.12 2.062-.995.153-.531-2.649.644 4.644-.487 1.984-.234-.566.055-1.135.046-1.705.034-1.664-.03-5.55-1.286.186.382-1.23-.358-2.387-.939-3.49-1.58-3.57-2.068.34.527-.027.196-.904-.803-1.709-1.713-2.484-2.639-.822-.979-1.549-2.034-2.246-3.103-.364-.558-.698-1.133-1.031-1.705-1.371-2.358 2.236 4.433.494.809-1.25-2.604-2.213-5.34-3.041-8.106-.429-1.434-.782-2.891-1.111-4.351-.712-3.16.949 5.05.377 1.858a71.192 71.192 0 0 1-.455-3c-.402-2.976-.565-5.981-.565-8.98-.001-3.391-.248 5.961-.089 2.601.035-.72.097-1.436.158-2.152a48.56 48.56 0 0 1 .558-4.152c.795-4.667-1.855 6.906-.262 1.425.179-.611.388-1.211.6-1.809 1.158-3.284-2.981 6.968-1.569 3.828 2.381-5.3-2.305 3.335-1.45 2.08 2.942-4.331-4.985 4.742-1.134 1.35-5.463 4.812-4.304 3.206-2.674 2.146 1.303-.844 3.912-1.819-2.604 1.094.99-.443 2.051-.702 3.112-.899-6.118 1.135-2.122.32-.207.461.651.048 1.295.16 1.937.273 2.482.43-4.324-1.35-.515-.107 3.368 1.099 6.494 2.895 9.458 4.802 1.86 1.199 3.627 2.538 5.368 3.9-3.218-2.518.15.154.657.597 1.377 1.195 2.7 2.444 4.02 3.701 8.322 7.918 18.705.615 24.322-6.976 5.134-6.943 12.554-24.126 4.431-31.855zm558.776 9.961c-.979-4.239-2.505-8.229-4.461-11.973.898-5.517.289-11.043-2.953-15.09-3.326-4.152-7.501-4.46-11.56-2.973-6.423-5.651-13.831-10.29-21.397-13.884-12.289-5.839-26.06 11.141-28.867 25.999-4.319 4.178-8.074 8.511-10.959 12.086-6.158 7.633-11.438 23.105-4.435 31.85 7.445 9.292 19.237-.671 24.323-6.977.271-.337 1.041-1.216 1.654-1.918a68.68 68.68 0 0 1 2.66-2.572c.062 1.706.27 3.314.648 4.765.619 2.36.754 3.147.973 5.166-.818.44-1.793.9-3.174 1.637-5.665 3.018-11.48 10.605-14.441 18.762-14.006 11.448-21.743 41.782-3.955 41.782 6.178 0 12.082-4.592 16.584-10.875 10.963 7.27 23.799 8.633 34.881-3.795a66.617 66.617 0 0 0 10.758-16.429c11.698-16.017 18.345-35.532 13.721-55.561zm-54.088 26.702c-.057.143-.116.302-.182.496.058-.175.116-.348.177-.52l.005.024z"/><path fill="#22A1FF" d="M762.2 929.204c-8.307-33.543-22.201-65.836-41.372-94.16a220.635 220.635 0 0 0-4.292-8.318c-.205-6.293-2.186-11.857-7.428-12.758-4.738-7.613-9.825-14.927-15.066-21.875-27.568-36.549-64.641-60.678-109.645-69.667-46.222-9.236-94.583-1.622-140.34 6.672-40.889 7.411-84.943 12.344-119.195 37.976-12.037 9.006-21.729 19.65-29.69 31.423-5.536 5.482-10.699 11.39-15.405 17.756a135.627 135.627 0 0 0-2.729 3.833c-9.794 11.967-19.228 24.256-29.02 36.047-6.253 7.527-11.373 23.184-4.433 31.851 2.069 2.584 4.456 3.677 6.937 3.783-1.237 8.961-1.902 18.024-2.073 27.094-1.911 3.416-2.923 7.349-2.225 10.413-3.116 5.539-4.083 12.812.432 15.87.954.646 1.916 1.277 2.878 1.909.854 3.83 3.273 4.656 6.014 3.84.414.256.832.508 1.248.761 1.559 3.199 4.402 5.308 9.042 5.288 11.134 6.224 22.685 11.675 34.524 16.481-.023.926-.018 1.859.055 2.809.637 8.381 6.076 13.557 14.49 11.716a176.327 176.327 0 0 0 14.912-3.975c19.93 6.27 40.336 11.108 60.644 15.077 44.868 8.771 91.513 13.031 137.179 14.308 55.865 1.562 144.031-4.354 186.104-49.357a590.703 590.703 0 0 0 38.77-15.785c7.048-3.163 11.585-11.335 9.684-19.012zm-48.652-19.523a95.716 95.716 0 0 0 6.248-10.012c.301 2.686.484 5.374.539 8.059a300.345 300.345 0 0 0-6.787 1.953zm-406.037 32.493c10.119-5.459 19.811-11.768 29.059-18.063 1.419-.966 2.816-1.96 4.224-2.943-9.179 7.435-17.872 15.372-25.86 23.995a207.097 207.097 0 0 1-7.423-2.989zm219.07-184.858c-10.342 4.647-20.43 9.904-30.318 15.477 4.018-4.536 7.138-9.786 8.795-15.592 7.181-.11 14.363-.097 21.523.115zm75.72 12.882c-11.067 6.876-22.296 13.479-33.567 20.003 4.047-7.433 7.487-15.251 10.156-23.522.313-.973.578-2.01.788-3.085 7.616 1.746 15.164 3.919 22.623 6.604zM276.614 891.813a249.519 249.519 0 0 0 6.138-2.973 201.68 201.68 0 0 0-7.956 10.667c.555-2.547 1.116-5.091 1.686-7.634l.132-.06zm125.416-16.662c22.384-16.636 46.695-30.719 70.329-45.48 14.86-9.284 29.952-18.269 45.685-25.814a319.246 319.246 0 0 1-4.186 3.695c-9.684 8.407-17.387 13.893-28.953 21.81-12.238 8.376-24.846 16.207-37.508 23.924-26.213 15.971-54.416 31.148-80.586 48.771 11.745-8.966 23.368-18.097 35.219-26.906zm117.515-11.839c-16.203 10.974-32.86 21.231-49.612 31.337 21.549-16.249 43.795-30.297 67.266-43.649-5.78 4.171-11.665 8.255-17.654 12.312zm-63.725 93.287c-4.337 2.982-8.107 7.096-10.88 11.802-4.51-.297-9.016-.617-13.519-.978a5982.446 5982.446 0 0 0 24.399-10.824zm245.082-92.413a165.173 165.173 0 0 0 5.655-8.448c.666 1.48 1.314 2.96 1.945 4.442a355.51 355.51 0 0 0-7.6 4.006zm-45.415-29.148a508.384 508.384 0 0 0 11.51-13.896c1.83-2.292 3.469-5.044 4.756-8.022a223.184 223.184 0 0 1 9.84 9.837 431.043 431.043 0 0 0-26.106 12.081zm-8.107-41.61c-7.557 5.059-14.693 10.661-21.666 16.472 4.812-7.063 9.201-14.415 13.084-22.077a199.664 199.664 0 0 1 8.582 5.605zM514.26 965.364a196.756 196.756 0 0 0-5.604 5.867 837.426 837.426 0 0 1-3.542-.102 952.635 952.635 0 0 0 9.146-5.765z"/><path fill="#FFE5B8" d="M568.497 715.425a44.819 44.819 0 0 0-2.615-1.099c-1.322-4.472-3.192-8.935-5.625-13.404-5.703-10.479-20.468 1.769-24.323 6.977a42.79 42.79 0 0 0-2.222 3.328c-8.484.849-16.833 2.598-24.252 4.438-16.479 4.09-33.832 14.287-41.929 29.109-.213-.229-.444-.478-.722-.771-1.506-1.595-2.777-3.383-3.965-5.221.774 1.135-1.078-2.192-1.229-2.552-.641-1.503-1.098-3.076-1.559-4.64-.076-.254-.139-.466-.198-.655a29.66 29.66 0 0 0-.16-1.311c-.254-1.835-.313-3.696-.379-5.546-.007-.214-.015-.402-.022-.578.058-.339.129-.934.218-1.909.201-2.173.59-4.325.974-6.472 1.617-9.063-3.432-20.548-14.318-17.24-11.619 3.527-18.186 16.64-20.152 27.67-3.373 18.915-1.66 39.191 10.111 54.991 9.727 13.053 26.261 19.133 41.922 20.562 14.963 1.368 29.777-1.693 43.258-7.922a54.953 54.953 0 0 0 6.116-2.208c13.264-5.735 24.671-15.665 31.896-28.203 4.478-5.775 8.315-11.99 11.362-18.5 3.497-7.466 8.292-23.99-2.187-28.844z"/><path d="M274.263 442.503c-16.662-10.953-39.908-20.803-58.079-7.41-14.679 10.816-18.649 31.705-17.593 48.791 1.127 18.236 8.47 37.976 22.884 49.819 15.966 13.117 40.546 11.884 54.999-3.048 1.211-1.254 5.311-10.935.477-10.127-8.836 1.479-16.288 6.499-25.49 7.026-7.477.427-14.532-1.975-20.742-6.017-12.951-8.436-20.275-24.907-22.679-39.667-1.981-12.177-1.665-28.296 8.679-36.859 15.163-12.56 38.939-1.757 53.654 5.836 3.023 1.56 6.751-6.462 3.89-8.344zm496.891-.104c13.105-7.762 32.653-15.253 46.108-3.914 10.93 9.21 13.278 25.908 13.125 39.316-.16 14.064-4.164 29.751-13.727 40.421-12.295 13.72-27.254 8.646-42.508 4.526-4.641-1.254-10.73 9.397-6.975 12.517 15.768 13.094 37.597 8.707 51.307-4.789 14.042-13.824 20.466-35.452 21.514-54.642.906-16.586-1.684-37.087-15.696-48.078-17.357-13.617-39.11.117-53.3 11.791-.835.685-1.709 3.956.152 2.852z"/><path fill="#D8724A" d="M380.072 701.486h-.001l-.003.007z"/><path fill="#FFE5B8" d="M791.817 339.935c-3.119-3.548-7.634-4.651-12.695-3.046l-1.882.6.002-.108-.401.236c-15.152 4.84-24.935 4.004-34.539 2.201 1.854-6.098 3.275-12.376 4.34-18.74.879-.027 1.796-.317 2.594-.809 3.445-2.124 5.367-6.411 5.279-10.359-.438-19.456-2.935-38.882-8.176-57.419-1.651-7.854-4.158-15.502-7.912-22.355-5.455-12.649-12.456-24.659-21.271-35.712-22.777-28.562-56.644-46.094-91.36-55.474-19.389-5.239-39.29-8.182-59.31-9.574-23.343-1.625-46.868-1.375-69.933 2.867a164.51 164.51 0 0 0-9.438 2.033c-31.646 1.143-63.012 7.322-91.693 21.312a154.741 154.741 0 0 0-7.891 4.146c-14.482 5.458-28.566 11.904-41.877 19.641-18.135 10.541-35.403 24.441-45.409 43.234-7.264 13.639-8.757 28.776-5.204 43.182-3.14 13.501-2.953 27.606.801 41.23-11.762 8.237-23.06 17.216-33.691 27.188-6.33 5.939-10.782 14.675-11.904 23.368-.51 3.935-.26 11.857 3.898 16.589 2.068 2.351 4.839 3.511 8.057 3.381 10.205-.463 20.715-1.706 31.799-3.77-8.895 4.402-16.954 8.986-24.376 13.856-8.792 5.769-15.126 16.097-16.53 26.957-.626 4.847.003 12.055 3.84 16.419 2.041 2.323 4.802 3.553 8.037 3.553 19.948-.084 40.859-1.775 63.541-5.159-25.855 11.133-52.699 23.337-78.73 37.98-9.796 5.51-15.416 17.543-16.641 27.025-.811 6.274.617 12.196 3.821 15.842 3.06 3.483 7.595 4.732 12.819 3.488 21.327-5.057 40.042-9.653 57.233-14.067a1876.136 1876.136 0 0 0-12.542 5.41l-1.105.272-.035.244c-10.926 5.194-18.664 16.097-20.295 28.718-.811 6.283.61 12.222 3.833 15.885 3.067 3.489 7.571 4.725 12.783 3.444l2.239-.561c-.462.238-1.023.477-1.484.717l-.428.056v.061c0 .604-2.121 1.204-3.285 1.805-9.286 4.807-15.226 17.246-16.495 27.054-.812 6.288.633 12.24 3.87 15.922 3.072 3.496 7.598 4.716 12.798 3.404a803.386 803.386 0 0 0 33.147-9.15c-7.943 7.73-14.904 24.239-12.195 34.595 1.781 6.814 7.475 10.016 15.909 8.803a447.007 447.007 0 0 0 23.557-4.039c-3.06 4.814-5.087 10.358-5.821 16.032-.604 4.671.115 11.749 4.133 16.318 3.13 3.561 7.643 4.638 12.67 2.968a2957.5 2957.5 0 0 1 10.786-3.569c-4.077 5.384-6.776 11.832-7.636 18.483-.826 6.402.444 11.884 3.582 15.453 2.988 3.401 7.529 4.753 12.927 3.879.716-.116 1.429-.268 2.144-.388l.137-.227c7.271-1.186 14.556-2.659 21.85-3.873-3.828 8.562-5.739 18.27-2.054 24.423 1.021 1.707 2.819 3.079 5.904 3.729 1.242.479 2.699.735 4.388.737l.053.001c5.732-.011 11.484-.09 17.246-.215 11.012.088 21.956.106 32.704-.549.651 5.606 3.458 10.855 8.033 12.876 12.987 5.73 27.544 8.638 43.265 8.638 33.482 0 67.445-13.118 90.078-22.986 43.041-18.766 82.044-43.389 117.781-67.206l.993-.557-.007-.122c10.224-7.31 16.675-20.395 15.777-32.221-.631-8.314-5.713-13.688-12.943-13.688-.465 0-.938.023-1.412.071 11.555-9.247 21.233-19.272 29.335-30.357 5.601-7.661 10.317-19.499 6.767-29.742-1.497-4.317-4.631-7.242-8.664-8.23a272.248 272.248 0 0 0 6.189-5.653c8.112-7.649 12.855-19.142 12.086-29.277-.523-6.882-5.129-14.195-12.633-14.195-1.444 0-2.934.284-4.425.846-2.271.855-4.563 1.714-6.874 2.574 7.949-5.585 13.846-15.629 15.195-26.072.633-4.901-.44-12.171-4.291-16.553-3.158-3.591-7.66-4.583-12.588-2.707-.592.226-1.188.452-1.786.678l.011-.326-1.309.812c-.963.358-1.937.721-2.916 1.08a377.023 377.023 0 0 0 19.506-16.612c6.321-5.771 10.777-14.513 11.926-23.383.674-5.238-.253-12.356-3.849-16.451-1.001-1.135-2.175-2.011-3.501-2.604a917.365 917.365 0 0 0 19.243-10.952c9.808-5.743 15.408-17.702 16.613-27.008.796-6.146-.809-12.522-4.083-16.251zM369.142 209.814c-8.904 8.588-17.725 17.256-26.678 25.778a135.495 135.495 0 0 1 8.551-11.537c2.076-2.509 4.479-5.111 7.073-7.701 5.155-4.287 10.665-8.164 16.401-11.673-.486.466-.975.928-1.459 1.394a29.51 29.51 0 0 0-3.888 3.739zm-48.985 46.207c4.948-13.645 11.394-26.675 19.654-38.6 4.105-3.75 8.459-7.224 12.996-10.463-13.123 13.897-23.536 30.039-31.059 47.659-.53.469-1.057.94-1.591 1.404zm368.334-66.815c.632.526 1.262 1.053 1.885 1.589a2.973 2.973 0 0 0-1.16-.404c-.242-.395-.479-.793-.725-1.185zm12.259 144.141c.507 1.136 1.001 2.277 1.499 3.418-1.281.002-2.865.008-4.627.018a85.374 85.374 0 0 0 3.128-3.436zm16.315-112.046a12.832 12.832 0 0 0-.664 4.184c.021 2.096.115 4.178.268 6.25-6.536-14.319-15.516-27.571-25.146-39.912-.031-.039-.062-.067-.094-.106 9.686 8.5 18.334 18.314 25.636 29.584zm-412.3 17.963c.1-.703.23-1.399.361-2.097.204-1.09-.102.286.375-1.52 1.463-5.534 3.615-9.605 6.473-13.761 3.778-5.496 7.197-9.013 12.434-13.691 6.949-6.208 14.674-11.619 22.865-16.407a174.223 174.223 0 0 0-9.813 11.703c-13.016 10.957-24.442 23.64-32.96 38.408-.019.032-.035.064-.054.097.084-.914.19-1.825.319-2.732zm110.986 50.439l3-1.339c.05.121.102.244.15.366-1.051.324-2.105.645-3.15.973zm100.733-5.886c4.56 2.505 9.018 5.199 13.392 7.971a609.164 609.164 0 0 1 5.256 3.369c-6.57-2.891-12.725-5.87-18.435-9.051a21.662 21.662 0 0 0-.213-2.289zm18.178 149.128c9.438-7.138 18.261-14.466 26.583-22.073a303.557 303.557 0 0 0 15.576 3.219 2853.251 2853.251 0 0 0-42.159 18.854z"/><path fill="#EAA286" d="M493.597 657.559c10.424 1.685 20.438.723 30.577-2.062 5.308-1.457 10.321-3.816 15.122-6.467.348-.19.865-.537 1.471-.968.736-.258 1.473-.517 2.201-.791 7.231-2.735 11.918-5.758 14.682-11.538.475-.742.918-1.505 1.24-2.339 1.146-2.95 3.996-12.576-2.201-12.47-3.697.065-6.245 2.659-8.873 5.029-21.822 6.625-47.172 7.012-65.482-8.226-5.263-4.38-11.725 2.474-14.036 9.891a62.305 62.305 0 0 1-12.909-15.009c-2.006-3.258-6.842 4.854-5.713 7.397 8.198 18.461 23.26 34.218 43.921 37.553zm63.979 79.36c-16.708 9.247-36.05 12.851-55.017 12.218-18.913-.629-40.076-5.233-51.602-21.557-3.568-5.056-9.559 7.506-8.432 10.923 14.886 45.117 73.124 50.391 110.568 31.64 7.85-3.931 12.792-12.994 13.93-21.479.694-5.158-1.645-16.06-9.447-11.745z"/><path d="M450.487 614.809c15.9 12.646 32.183 21.256 52.424 24.179 17.151 2.477 40.428-.343 53.277-12.836 1.854-1.804 7.141-14.429.643-13.659-7.791.924-15.146 6.307-22.719 8.741-8.555 2.752-17.853 3.172-26.758 2.878-18.395-.609-37.698-7.214-54.232-14.956-2.185-1.023-4.383 4.262-2.635 5.653zM276.12 480.544l-.266-.01c-.459-10.506-6.664-19.822-18.509-20.032-13.294-.236-25.249 11.003-32.269 21.119-1.832 2.646-.931 9.417 2.571 5.112 6.103-7.506 14.276-13.24 24.234-13.368 6.41-.081 9.905 3.208 12.532 7.543-4.5.693-8.736 2.31-11.73 5.854-5.539 6.552-4.448 16.467.301 23.16 2.036 2.869 5.369-4.253 4.762-6.163-.869-2.722-4.913-9.882-1.994-12.404 3.052-2.638 7.568-3.588 11.943-4.019a95.841 95.841 0 0 0 1.756 3.597c1.545 2.964 4.609-1.825 5.775-4.43 1.904-1.396 3.324-5.859.894-5.959zm153.412 248.438c-7.24 22.956-5.906 47.611 11.441 65.673 15.479 16.117 38.68 22.639 60.467 22.376 22.852-.272 45.824-8.104 62.344-24.148 8.586-8.338 14.772-19.574 17.836-31.088 2.517-9.464 5.07-27.243-4.352-33.396-3.568-2.332-6.811 5.939-7.195 7.984-1.759 9.395-.4 19.957-2.998 28.494-.775 2.551-1.766 4.344-4.231 7.819-1.017 1.437-4.528 4.896-6.905 6.799-14.724 11.792-34.004 16.331-52.555 16.607-18.665.283-38.218-3.733-53.25-15.298-16.395-12.617-19.663-33.781-15.752-52.972.978-4.803-4.039-1.42-4.85 1.15z"/><path d="M430.782 725.776c-53.956.244-115.219.185-150.914 48.022-15.809 21.181-24.166 46.417-29.078 72.123-4.91 25.688-7.24 53.073-4.328 79.026.607 5.406 5.423-1.226 5.853-3.425 8.868-45.437 5.765-96.296 33.466-135.956 31.328-44.858 94.438-37.777 141.439-47.867 3.802-.813 9.171-11.948 3.562-11.923zm145.831 16.596c25.563-2.016 52.916-.758 77.214 8.063 21.881 7.947 38.584 23.39 52.354 41.707 14.675 19.527 23.324 42.067 31.479 64.853 8.301 23.188 15.004 47.23 19.713 71.395 1.428 7.324 11.289-5.02 10.577-9.732-7.794-51.498-16.84-103.362-48.852-146.128-14.105-18.846-34.292-33.35-56.657-40.564-28.578-9.218-57.459-3.993-84.938 6.328-1.039.392-2.741 4.222-.89 4.078z"/><path d="M288.987 869.678c9.975.879 21.635 4.575 26.029 14.475 4.051 9.131 3.855 20.708 3.649 30.506-.239 11.093-1.884 22.167-3.017 33.19-.852 8.299-3.895 21.787 1.28 29.026 5.394 7.546 13.372-9.333 13.903-12.83 1.536-10.128-.317-21.469-.039-31.805.317-11.755.695-23.551-.803-35.245-1.265-9.859-4.959-18.235-12.188-25.131-7.935-7.564-18.457-6.781-28.342-4.361-.635.158-1.444 2.091-.472 2.175zm26.616-472.131c10.307-9.948 24.238-13.943 37.854-17.093 14.062-3.252 29.081-3.762 43.258-.996 18.023 3.515 29.557-37.566 14.165-37.161-38.445 1.013-77.713 12.856-99.585 46.676-2.916 4.505-2.505 15.147 4.308 8.574z"/><path fill="#0C7FF2" d="M684.735 860.138c.155-.308.283-.602.441-.91.736-1.426 1.601-7.519-1.885-5.832-.922.447-1.812.927-2.701 1.417a3.869 3.869 0 0 0-1.507-.259c-.758.054-1.515.107-2.271.163-3.888.273-6.403 3.957-7.739 7.82-3.11 2.37-6.171 4.826-9.351 7.204-1.643 1.229-2.94 7.162.273 5.135 2.678-1.69 5.281-3.498 7.924-5.22.098 2.729.84 5.329 1.9 7.867-9.11 32.421 8.024 68.293 12.722 101.074 2.195 15.313 16.414-2.744 17.215-10.073 4.005-36.681 3.966-75.687-15.021-108.386zm-200.693-10.911c-19.834 1.027-38.987-9.312-53.023-22.594-6.594-6.237-12.061-13.591-16.809-21.294-4.828-7.836-6.842-17.694-12.389-24.944-.79-1.002-1.823-1.484-3.1-1.445-.682.095-1.314.252-1.918.44-.725-3.803-1.259-7.58-1.517-11.3-.442-6.366-6.646 2.006-6.774 5.089-.204 4.875.049 9.785.568 14.695-1.931 6.086-1.25 13.884.139 18.952 1.492 5.443 3.867 10.746 6.713 15.828 4.122 15.911 9.671 31.443 17.916 45.731 6.824 11.828 16.867 24.364 31.152 26.648 17.606 2.811 31.863-13.618 40.055-26.98 2.051-3.345 8.206-19.302-1.013-18.826z"/><path fill="#EAA286" d="M780.779 475.05c-1.316-12.352-3.182-24.626-5.444-36.829 1.494-21.487 1.857-42.929-1.535-64.285l.463-2.233c.359-1.737-.263-3.777-1.662-4.562a171.599 171.599 0 0 0-2.756-11.782c-1.441-5.288-6.929-.304-8.775 2.961-1.629-16.799-4.823-33.479-8.955-49.728-8.896-34.985-23.246-69.133-43.201-99.274-.455-.688-1.068-1.012-1.738-1.096-3.205-6.338-6.774-12.391-10.896-17.886-.012-15.705-14.641-27.01-27.054-34.741-10.206-6.357-21.388-11.7-32.864-15.903-9.148-8.47-19.095-16.008-30.201-21.865-24.746-13.049-54.008-13.807-81.174-10.02-24.268 3.383-47.572 10.419-70.526 18.616a284.842 284.842 0 0 0-49.253 18.575c-.454.17-.908.343-1.364.515-.298.111-.588.313-.862.576-43.596 21.72-81.387 54.692-106.523 96.766-1.126 1.885-1.767 5.227-.264 7.103 2.042 2.551 5.166-.229 6.584-1.888a306.218 306.218 0 0 1 17.528-18.837 200.288 200.288 0 0 0-7.888 11.899c-16.43 26.82-27.162 57.643-28.078 89.233-.111 3.825 4.753.13 4.896-2.255 2.553-42.764 23.024-84.609 53.484-114.447 15.035-14.727 33.257-26.18 53.647-31.721 24.24-6.589 48.981-1.269 72.952 3.992 1.688.37 3.378.749 5.069 1.131.465.66 1.158 1.073 2.17.996.521-.04 1.041-.099 1.562-.147 17.521 4.015 35.178 8.396 52.971 11.177.434.273.967.478 1.621.594 1.922.34 3.867.487 5.828.47 15.576 2.005 31.256 2.58 47.035.398 17.729-2.451 34.785-8.443 52.569-10.524 9.003-1.053 18.054 6.184 26.939 7.955.847.169 1.673 3.331 2.495 3.544 8.02 10.332 15.502 11.222 22.141 22.325 26.264 43.934 36.811 94.507 42.027 144.849 1.723 16.626 3.038 33.253 3.81 49.889-.423 23.186-.474 46.377-.396 69.569a545.177 545.177 0 0 1-.844 11.66c-1.82 21.497-4.685 43.171-10.729 63.929-6.765 23.225-20.836 43.661-35.287 62.771-16.476 21.783-34.878 43.891-56.612 60.635-.374.288-.756.564-1.131.849-13.095 4.442-25.479 12.074-35.09 21.292a213.542 213.542 0 0 1-31.536 12.041c-20.876 6.134-42.945 8.61-64.595 5.955-3.795-.465-7.357 8.526-2.875 9.137 31.877 4.342 64.983-2.438 94.723-15.979.248 2.125 1.532 3.488 4.641 2.722 9.969-2.455 20.033-7.813 28.513-13.902.354.194.819.229 1.411.049.314 1.088 1.168 1.646 2.879 1.019 3.037-1.112 5.9-2.618 8.58-4.41.717.658 1.703.918 2.982.403 16.252-6.523 29.517-20.575 40.832-33.485 8.657-9.878 16.393-20.682 23.406-31.867 1.922.336 4.697-1.341 6.029-2.877 14.881-17.17 24.668-38.245 32.848-59.252 6.504-16.7 11.986-34.055 16.014-51.623-.023 6.306.141 12.601.584 18.881.303 4.277 4.34 4.316 6.957 1.869 20.499-19.176 16.611-47.656 13.918-72.927zM404.782 169.706c2.34-1.13 4.688-2.237 7.053-3.311.528.693 1.361 1.192 2.597 1.39.72.115 1.438.209 2.157.294-3.961.328-7.897.866-11.807 1.627zm130.865 16.849c-.521.19-1.074.543-1.627 1.008-.535-.084-1.07-.177-1.606-.263 1.153-.265 2.304-.538 3.452-.824l-.219.079zm41.735 1.836c-.162.516-.301 1.263-.357 2.075-2.871.196-5.759.286-8.653.283 3.159-1.655 6.181-3.359 9.005-4.955l1.449-.426a11.825 11.825 0 0 0-1.444 3.023zm-3.434-48.538c1.348.148 2.693.306 4.042.472a354.103 354.103 0 0 0-3.99-.098 4.01 4.01 0 0 0-.052-.374zm-45.418-14.457c1.703-3.504 2.521-7.766-.277-8.793 16.406-1.545 32.88-1.023 49.309 2.654 10.309 2.306 19.889 6.536 28.791 11.994-25.575-5.464-51.766-7.282-77.823-5.855zm92.198 56.961c-1.604.358-3.203.727-4.804 1.097 5.472-2.521 10.951-4.98 16.582-6.856 7.724-.33 15.997-.24 23.79 1.205l.282.332c-12.045-.698-24.159 1.597-35.85 4.222zm94.638 434.53c1.091-3.463 2.395-6.86 3.699-10.163a204.25 204.25 0 0 1 3.322-7.871c2.01-3.086 3.936-6.25 5.744-9.555a1157.68 1157.68 0 0 0 6.363-11.77c-5.093 13.384-11.119 27.201-19.128 39.359zm24.906-255.691a615.913 615.913 0 0 0-1.671-13.597 1536.64 1536.64 0 0 1 2.059 13.184c-.132.135-.261.272-.388.413zm29.491 167.437c-.354-13.478.304-26.962 1.329-40.438a390.473 390.473 0 0 1 1.407 19.933c.318 7.246-.08 14.281-2.736 20.505z"/><path d="M398.153 766.919c-1.537 23.122 7.273 44.389 23.234 60.973 14.461 15.024 42.635 29.203 63.801 23.997 3.107-.768 8.211-10.824 3.713-12.315-9.564-3.17-19.857-3.21-29.54-6.346-9.815-3.179-18.922-8.302-27.169-14.444-17.943-13.368-29.702-31.743-29.318-54.624.068-4.014-4.576.598-4.721 2.759zm252.744 107.849c2.486 8.574 6.309 16.602 9.371 24.984 3.688 10.086 5.682 20.688 7.686 31.203 4.084 21.433 5.682 43.323 8.886 64.896.158 1.067.426 3.358 1.882 3.663l1.287.271c2.675.559 4.857-2.082 5.787-4.347 3.873-9.452.396-20.503-.826-30.387-1.511-12.21-3.529-24.357-5.936-36.424-2.377-11.909-5.707-23.552-10.422-34.753-3.479-8.271-7.877-17.394-16.947-20.275-.519-.167-.877.786-.768 1.169z"/><path d="M688.821 842.702c-14.07 5.152-26.255 13.416-35.771 25.038-1.587 1.938-3.09 4.867-2.284 7.452 1.032 3.312 4.353.299 5.433-1.187 8.188-11.273 19.216-19.39 31.799-25.182 1.922-.885 3.977-7.273.823-6.121zm32.25-454.912c-8.533-15.238-22.402-28.14-38.731-34.545-15.903-6.238-33.981-8.908-50.997-9.388-16.462-.461-24.715 40.176-11.266 37.718 16.285-2.978 32.571-3.012 48.777.59 15.586 3.464 31.439 7.745 43.938 18.192 5.395 4.509 10.637-8.358 8.279-12.567zM391.13 421.004c-.323-.421-.661-.83-1.008-1.236-4-6.048-10.599-10.225-18.206-10.938-4.601-.991-9.372-.892-13.861.642-3.66 1.251-7.278 3.569-9.564 6.725-10.223 7.43-12.126 21.786-4.123 32.516 10.017 13.431 28.677 14.19 41.718 5.015 11.259-7.923 13.337-21.916 5.044-32.724zm-45.502 6.738a24.325 24.325 0 0 0-.488 2.85 9.652 9.652 0 0 1 .488-2.85zm334.478-13.577c-.322-.419-.66-.829-1.007-1.235-4-6.049-10.6-10.226-18.207-10.938-4.601-.991-9.372-.893-13.861.642-3.659 1.25-7.278 3.566-9.564 6.724-10.223 7.429-12.126 21.785-4.123 32.516 10.017 13.431 28.677 14.19 41.718 5.015 11.259-7.922 13.337-21.914 5.044-32.724zm-45.502 6.739a24.325 24.325 0 0 0-.488 2.85 9.722 9.722 0 0 1 .488-2.85z"/><circle fill="#FFF" cx="373.74" cy="427.31" r="9.78"/><circle fill="#FFF" cx="647.439" cy="421.224" r="9.78"/><path fill="#FF8A0B" d="M394.236 801.092c.253-.006.494.012.74.072l-.675-.175c.224.069.421.165.608.308l-.535-.439c.172.146.309.312.423.507l-.347-.646c.115.215.195.439.246.679l-.159-.801c.017.091.033.183.037.274.033.716.349 1.521 1.024 1.865.69.352 1.495.112 2.111-.268.854-.526 1.511-1.359 1.961-2.243.486-.955.633-1.853.662-2.905a4.339 4.339 0 0 0-.403-1.889c-.632-1.352-1.672-2.154-3.197-2.268-.845-.062-1.685.49-2.265 1.038-.8.756-1.389 1.753-1.719 2.8-.278.883-.404 1.906-.093 2.803.228.663.817 1.306 1.581 1.288z"/><path fill="#2F61DD" d="M819.464 344.067l.433-6.454c1.538-23.014 3.129-46.226 1.866-69.288-1.193-21.814-5.138-44.06-13.785-64.209-9.913-23.101-25.253-41.456-44.621-57.189-7.308-5.936-15.127-11.256-23.605-15.37-9.961-4.835-20.73-7.675-31.439-10.295l4.428 1.149c-21.302-5.565-43.176-8.329-64.529-13.588-19.225-5.305-37.814-13.215-56.309-20.578-19.595-7.802-39.301-15.234-59.687-20.737-3.3-1.51-6.679-1.69-10.138-.54-4.045 1.229-7.662 3.654-10.763 6.598-14.546-3.161-29.673-3.945-43.821 1.152-12.074 4.35-22.863 11.621-34.045 17.758-1.048.574-5.668 2.776-6.002 2.993a98.525 98.525 0 0 1-4.346 1.653c-2.349-2.156-5.625-3.069-9.92-1.654-24.223 7.976-49.672 11.566-73.664 20.315-14.102 5.142-27.768 12.575-39.104 22.47-12.266 10.709-21.903 24.025-30.256 37.889-32.346 53.681-34.194 118.231-29.807 178.917 1.76 24.351 4.342 48.607 4.626 73.044.128 11.067 10.454 15.186 19.208 9.787 10.592-6.533 16.184-19.475 16.072-31.545.03-4.41-.014-8.816-.105-13.22-.041-6.16-.069-12.319-.061-18.479.006-2.811.021-5.617.099-8.427.017-.646.037-1.29.056-1.935.023-.722.069-2.176.089-2.722.224-6.478.513-12.953.854-19.426 1.312-24.901 3.857-49.65 8.344-74.185.546-1.134 1.104-2.259 1.66-3.385 1.869-3.755 3.8-7.475 5.817-11.152a240.354 240.354 0 0 1 3.736-6.517 225.678 225.678 0 0 1 2.488-3.804c2.916-4.358 6.062-8.56 9.361-12.635.578-.716 1.178-1.417 1.772-2.119a155.67 155.67 0 0 1 6.031-6.185c3.019-2.945 6.191-5.726 9.45-8.4.111-.032 4.159-3.14 5.233-3.899 2.673-1.892 5.42-3.678 8.189-5.426.206-.129.417-.251.623-.38l.257-.129.199-.096c2.055-.467 4.118-.905 6.189-1.294 1.43-.268 2.868-.501 4.307-.729.28-.044.516-.083.723-.117 2.934-.369 5.877-.639 8.822-.869 11.535-.905 23.141-.762 34.686-.085 1.514.455 3.021.925 4.525 1.41 5.301 1.712 10.517 3.688 15.721 5.667 19.701 7.497 40.326 15.732 61.805 13.908.766-.065 1.518-.17 2.254-.309 9.392 2.079 19.35 2.74 28.682 3.131 13.371.559 27.119-.518 40.457-2.28 27.071-2.369 53.912-8.721 80.664-13.284 8.977-1.53 17.953-3.085 26.967-4.387 1.115-.146 2.607-.339 3.365-.424 1.714-.193 3.432-.352 5.153-.472 7.937-.552 15.915.253 23.661 2.002a103.675 103.675 0 0 1 23.527 10.199c2.346 1.383 4.615 2.889 6.838 4.463-.68 4.273-.58 8.639.518 12.855 7.891 30.302 21.578 58.62 32.996 87.66a330.059 330.059 0 0 1 7.482 21.034c1.113 3.51 2.113 7.053 3.055 10.61a194.167 194.167 0 0 1 1.486 6.1c.153.681.297 1.364.443 2.048l.114.612c.41 2.229.756 4.47 1.054 6.716-1.521 14.091-2.484 28.213-1.338 42.434.613 7.626 5.772 13.93 13.689 12.173.899 5.312 4.467 10.32 10.29 10.594 9.262.435 17.957-9.078 21.374-16.776 6.29-14.169 8.914-28.147 9.05-43.593.088-9.65-1.506-19.283-3.443-28.754zM468.589 125.54c1.369-.216 3.237-.397 0 0zm16.978 31.146l.309.242-.007-.003-.302-.239z"/><path d="M313.682 245.954c4.766-10.248 10.639-19.717 19.346-27.065 6.597-5.568 15.229-8.349 23.616-9.724 19.068-3.128 39.412 3.073 57.632 7.988 25.732 6.941 51.359 13.487 78.076 15.134 26.116 1.61 52.156-1.91 77.824-6.416 24.135-4.237 47.442-11.772 71.534-16.102 21.506-3.865 44.426-3.888 62.549 9.858 9.545 7.24 16.491 18.583 21.59 29.221 5.494 11.463 8.965 23.798 11.818 36.145 5.713 24.712 6.908 50.553 14.261 74.886.96 3.176 2.03 6.316 3.161 9.435 1.339 3.689 5.271 2.616 7.524.487 2.926-2.764 4.499-7.015 3.546-10.958-11.668-48.245-9.06-104.704-42.463-144.842-31.435-37.772-86.908-18.405-126.437-8.375-25.967 6.588-53.674 10.652-80.466 11.357-27.35.72-54.641-3.866-80.957-11.06-19.859-5.429-39.922-11.706-60.652-12.41-19.484-.662-37.355 6.026-50.877 20.231-7.796 8.19-13.623 18.062-18.271 28.313-1.012 2.233-2.336 6.719.624 8.227 2.837 1.446 5.988-2.108 7.022-4.33z"/><path d="M316.732 224.546c-22.986 29.994-32.486 69.721-38.975 106.222-6.709 37.742-10.115 77.042-6.657 115.312.292 3.226 2.965 4.666 5.767 2.938 3.11-1.918 4.969-5.879 4.825-9.47-1.44-36.032 1.311-72.544 7.135-108.101 3.116-19.022 7.392-37.896 13.354-56.236 4.91-15.103 11.186-30.274 20.488-43.24 1.723-2.401 3.488-6.805 1.324-9.507-2.195-2.74-5.784.154-7.261 2.082z"/><path d="M764.072 334.58c-2.128-6.843-9.825 5.48-8.897 9.769 16.155 74.683 12.902 176.373-18.949 246.567-30.409 67.024-89.126 116.07-161.403 131.525-81.218 17.37-170.464-4.862-228.298-65.764-58.469-61.569-73.014-148.339-65.551-230.175-3.743-2.126-7.566-4.028-11.54-5.527a537.907 537.907 0 0 0-3.165 29.756c-6.326 81.467 11.76 166.38 68.639 227.67 56.725 61.128 144.168 84.358 225.171 71.053 75.255-12.363 137.788-60.433 175.325-125.985 45.892-80.147 56.034-200.915 28.668-288.889z"/><path fill="#219DF9" d="M818.687 272.75c-3.373-29.572-10.405-59.703-27.781-84.413a123.105 123.105 0 0 0-6.566-8.495c-3.613-5.608-8.648-10.355-14.193-14.415-24.232-21.207-55.121-33.979-84.912-46.441C634.62 97.813 582.187 77.28 527.26 71.316c-.302-.154-.661-.226-1.095-.182l-.267.03c-.09-.009-.178-.021-.267-.03-.435-.044-.794.028-1.095.182-54.928 5.964-107.359 26.497-157.975 47.67-29.791 12.462-60.68 25.234-84.914 46.441-5.543 4.06-10.578 8.807-14.191 14.415a122.497 122.497 0 0 0-6.567 8.495c-17.376 24.71-24.408 54.841-27.78 84.413-.768 6.728 6.378 3.221 7.537-1.02a321.03 321.03 0 0 1 2.012-7.047c-5.02 30.868-3.717 63.231-.544 93.693 2.651 25.445 7.325 50.661 13.566 75.466.533 2.117 2.985 1.295 4.079.263 1.598-1.51 2.418-3.791 1.921-5.94-9.357-40.459-14.866-82.46-14.425-124.025.426-40.118 7-83.556 36.195-113.297 16.729-17.042 39.296-27.509 61.555-35.234 21.704-7.532 44.515-12.788 67.184-16.453 20.744-3.355 42.203-4.097 62.945-7.866.219 1.584 1.131 2.65 3.3 2.021 4.688-1.364 9.038-3.344 13.105-5.786 6.009-1.718 11.922-3.832 17.7-6.497 6.113-2.818 11.793-6.409 16.658-10.735 4.864 4.327 10.545 7.917 16.658 10.735 5.778 2.665 11.69 4.779 17.7 6.497 4.067 2.442 8.416 4.422 13.104 5.786 2.169.63 3.082-.437 3.3-2.021 20.743 3.77 42.202 4.511 62.945 7.866 22.669 3.665 45.479 8.921 67.184 16.453 22.259 7.726 44.825 18.192 61.555 35.234 29.196 29.741 35.771 73.179 36.196 113.297.439 41.565-5.067 83.566-14.426 124.025-.496 2.149.324 4.431 1.922 5.94 1.092 1.032 3.546 1.854 4.079-.263 6.241-24.805 10.915-50.021 13.565-75.466 3.173-30.462 4.477-62.825-.544-93.693a325.058 325.058 0 0 1 2.013 7.047c1.16 4.241 8.306 7.748 7.539 1.02zM249.8 226.061c1.63-5.018 3.517-9.953 5.729-14.77a108.14 108.14 0 0 1 8.551-15.213c.799.332 1.796.279 2.846-.328l1.169-.68c-7.094 9.667-13.131 20.084-18.295 30.991zm37.328-52.491c-2.953 1.762-5.906 3.526-8.863 5.283.468-.47.947-.93 1.423-1.393.462-.392.919-.773 1.365-1.143 3.678-3.035 7.76-5.618 11.972-7.958a143.042 143.042 0 0 0-5.897 5.211zm203.096-85.545c-1.251.423-2.523.849-3.567 1.653-1.296.998-2.399 2.312-3.057 3.809-15.043 1.39-29.897 4.462-44.481 8.513 17.035-5.712 34.398-10.88 51.994-14.66-.301.222-.599.45-.889.685zm35.673 11.488a34.849 34.849 0 0 1-1.752-2.077 102.7 102.7 0 0 0 1.752-1.408c.58.476 1.162.946 1.75 1.408a34.078 34.078 0 0 1-1.75 2.077zm-7.824 2.402c.04-.027.079-.058.12-.086a49.33 49.33 0 0 0 2.101 2.695c-2.57 1.918-5.396 3.62-8.408 5.121a156.77 156.77 0 0 0 6.187-7.73zm13.428 2.608a50.031 50.031 0 0 0 2.1-2.695c.041.028.08.059.121.086a155.144 155.144 0 0 0 6.187 7.73c-3.013-1.501-5.839-3.203-8.408-5.121zm36.694-11.035c-.658-1.498-1.762-2.811-3.058-3.809-1.043-.805-2.316-1.23-3.568-1.653a21.778 21.778 0 0 0-.887-.684c17.595 3.779 34.957 8.948 51.994 14.66-14.585-4.052-29.439-7.125-44.481-8.514zm196.472 80.082a144.14 144.14 0 0 0-5.896-5.21c4.211 2.34 8.293 4.923 11.971 7.958.446.369.904.751 1.365 1.143.477.463.955.923 1.422 1.393-2.956-1.757-5.909-3.522-8.862-5.284zm19.033 21.5c.391.226.779.453 1.17.68 1.049.607 2.047.66 2.846.328a108.34 108.34 0 0 1 8.551 15.213c2.211 4.816 4.098 9.752 5.729 14.77-5.165-10.907-11.203-21.324-18.296-30.991z"/><path d="M527.276 61.944c-36.59 16.158-77.011 21.987-115.86 30.257-39.716 8.456-80.978 19.378-114.527 43.214-89.204 63.376-67.282 185.85-55.121 278.848 1.04 7.95 2.031 15.907 2.857 23.882.326 3.148 2.881 4.596 5.659 2.883 2.91-1.795 5.092-5.847 4.735-9.293-5.484-52.948-15.505-106.053-12.968-159.484 2.148-45.229 14.885-91.212 52.142-119.937 32.455-25.023 73.551-35.095 112.734-44.11 39.078-8.991 79.666-15.291 116.574-31.613.665-.296 1.328-.596 1.989-.9 3.389-1.546 5.687-4.734 6.169-8.469.31-2.402-1.001-6.771-4.383-5.278z"/><path d="M526.737 73.88c41.148 18.752 86.744 26.443 130.093 38.475 41.934 11.639 87.257 26.351 118.502 58.198 28.893 29.449 37.252 73.801 39.466 113.464 2.328 41.713-2.208 84.802-13.414 125.063a265.281 265.281 0 0 1-4.927 15.764c-.929 2.682-.98 8.039 2.994 8.225 4.057.191 6.863-4.479 8.012-7.717 13.798-38.923 19.763-81.005 20.595-122.163.856-42.391-4.379-87.65-25.836-124.987-21.455-37.333-62.988-57.399-102.125-70.951-44.203-15.304-90.407-23.596-135.157-37.005-10.44-3.129-20.854-6.54-31.039-10.427-6.165-2.353-13.127 11.344-7.164 14.061z"/><path fill="#FFF" d="M474.228 534.584a60.307 60.307 0 0 1 5.221-1.254 25.144 25.144 0 0 0 5.377 3.717l-.029-.004c11.689 2.317 23.619 3.346 35.527 2.835 19.902-.854 37.596-9.168 55.771-16.216 2.137-4.591 3.916-9.362 5.413-14.183.481-1.549.706-5.436-1.933-5.312-43.508 2.036-87.752 4.896-130.988-1.868-3.025-.474-5.297 4.147-5.6 6.46-.696 5.315.08 10.357 1.836 15.073 9.436 4.41 19.295 8.05 29.405 10.752zm98.228-19.983c-.336.853-.686 1.7-1.049 2.543-.361-.783-1.026-1.313-2.134-1.315-6.427-.015-12.852-.133-19.277-.3 7.483-.322 14.968-.652 22.46-.928zm-102.394 10.552a46.47 46.47 0 0 0-5.107 2.409 34.7 34.7 0 0 1-1.908-2.299c2.337-.052 4.675-.088 7.015-.11zm-15.36-11c-.141.039-.283.075-.42.125l-.064-.185c.161.022.322.042.484.06z"/><path d="M422.479 491.762c25.573 16.761 58.783 20.714 88.678 20.801 16.633.048 33.412-1.848 49.646-5.44 14.172-3.136 30.115-7.84 41.903-16.662 2.559-1.915 4.688-10.43-.586-7.713-12.606 6.494-24.961 11.591-38.843 14.837-16.105 3.766-32.609 5.164-49.114 5.424-29.367.463-62.313-3.126-88.209-18.07-2.746-1.585-6.156 5.065-3.475 6.823zm15.785 33.17c20.829 10.746 44.388 16.42 67.729 17.674 24.145 1.298 51.11-2.461 71.351-16.615 2.471-1.728 3.957-9.545-.525-6.939-40.318 23.431-94.06 18.75-135.206-.689-2.789-1.32-6.08 5.159-3.349 6.569z"/><path fill="#F42A2A" d="M549.261 556.796c-6.464-5.23-16.926-7.645-23.135-.769-1.332 1.476-2.439 3.227-2.787 5.181-.383.123-.754.239-1.108.35-3.691 1.136-7.369 1.811-11.254 1.776-4.571-.041-8.856-1.893-13.159-3.202-9.712-2.959-18.613-1.172-27.932.466-1.453-.304-2.908-.606-4.365-.913-1.795-.374-3.422.64-4.623 2.249-1.246.099-2.502.069-3.746.021-2.693-.1-5.303 5.828-2.062 6.551 1.267.283 2.535.486 3.805.633.164 1.234.643 2.31 1.523 2.997 14.686 11.485 31.819 18.68 50.697 17.766 9.555-.462 23.926-1.317 31.846-8.393 1.219 2.214 3.79 2.192 6.057.066 7.639-7.167 8.635-17.987.243-24.779z"/><path d="M537.349 553.289c-10.324-.717-20.869 3.751-27.961 11.211-6.065-7.902-15.566-12.802-25.521-13.175-10.484-.392-20.141 4.846-27.69 11.701-2.038 1.85-1.707 7.148 1.534 4.409 7.104-6.005 15.695-9.749 25.102-9.234 9.367.512 16.607 5.889 23.136 12.117.272.262.558.407.842.472.581.974 1.817 1.17 3.282-.573 5.944-7.069 16.043-10.368 25.062-9.89a22.026 22.026 0 0 1 12.166 4.425c4.439 3.337 5.363 8.388 6.724 13.386 1.012 3.719 4.809-2.051 4.839-3.758.213-12.198-10.198-20.306-21.515-21.091z"/><path d="M573.469 528.459c-.164.257-.354.491-.532.736-.811-.438-1.891-.388-2.94.225-4.96 2.891-9.657 6.226-14.571 9.11-2.297.515-4.553.909-6.631 1.256-10.828 1.806-21.971 1.777-32.916 1.722-9.441-.048-19.283.242-28.971-.291.432-2.044.102-3.958-2.09-4.012-12.172-.307-23.184-9.014-35.455-7.287-.461.064-.913.271-1.347.563a53.282 53.282 0 0 1-6.884-5.292c-2.697-2.45-6.525 3.854-4.537 6.124a51.265 51.265 0 0 0 3.6 3.707c-.682 1.499-1.084 3.037-1.065 3.819.2 9.318 4.978 24.043 16.847 22.077 2.738-.453 5.178-1.659 7.697-2.769 3.361-1.479 6.766-2.229 10.438-2.363 6.891-.254 13.617 2.312 20.263 3.747 2.79.604 5.611.911 8.448.993-.512 2.809.334 5.198 3.77 3.492 4.137-2.053 9.111-3.967 14.384-5.336 2.097-.41 4.189-.859 6.269-1.324 13.232-2.131 26.975 0 33.348 12.523 1.834 3.604 5.6-.482 6.252-2.864 3.449-12.579 9.715-24.223 11.561-37.246.516-3.657-3.205-4.018-4.938-1.31zm-12.222 27.365a15.857 15.857 0 0 0 3.799-1.571 264.241 264.241 0 0 0-1.566 4.104 28.884 28.884 0 0 0-2.233-2.533z"/><path d="M435.26 497.973c-2.168 22.75.391 46.117 12.267 66.036 9.195 15.423 24.5 26.885 41.94 31.161 18.082 4.434 38.266 1.563 54.895-6.573 16.646-8.146 27.995-23.316 34.695-40.221 3.002-7.573 4.822-15.624 6.087-23.652 1.452-9.218 2.539-19.481 1.294-28.763-.709-5.287-6.188.016-6.452 2.971-1.033 11.531-.933 22.868-3.271 34.289-1.867 9.121-5.182 18.228-10.204 26.096-10.064 15.77-26.532 24.121-44.652 26.925-18.49 2.86-36.957-.456-52.169-11.622-16.815-12.342-25.577-32.823-28.191-52.988-1.093-8.43-1.052-16.971-.375-25.431.442-5.525-5.518-1.854-5.864 1.772zm335.822-15.814l.267-.009c.459-10.506 6.664-19.823 18.508-20.032 13.295-.237 25.25 11.002 32.269 21.118 1.833 2.646.932 9.418-2.571 5.112-6.102-7.504-14.276-13.239-24.233-13.368-6.411-.081-9.905 3.208-12.534 7.543 4.502.694 8.737 2.311 11.732 5.854 5.539 6.552 4.448 16.467-.302 23.16-2.036 2.869-5.369-4.253-4.761-6.163.867-2.722 4.912-9.882 1.994-12.404-3.053-2.638-7.569-3.587-11.943-4.018a97.364 97.364 0 0 1-1.756 3.596c-1.546 2.964-4.609-1.824-5.775-4.43-1.904-1.395-3.325-5.859-.895-5.959z"/></svg>