<svg xmlns="http://www.w3.org/2000/svg" xmlns:xlink="http://www.w3.org/1999/xlink" width="1030" height="1030" viewBox="0 0 1030 1030"><defs><path id="a" d="M1020.377 515.001c0 279.115-226.264 505.377-505.377 505.377S9.623 794.114 9.623 515.001 235.887 9.622 515 9.622s505.377 226.266 505.377 505.379z"/></defs><clipPath id="b"><use xlink:href="#a" overflow="visible"/></clipPath><g clip-path="url(#b)"><circle fill="#EF6100" cx="516.036" cy="517.213" r="505.377"/><path fill="#EA2700" d="M64.592 301.339c65.697-60.767 147.472-101.363 226.166-142.394 40.815-21.281 80.746-43.73 120.539-66.854 43.206-25.11 87.47-49.598 136.055-62.561l-2.865-37.722C469.49 62.96 382.01 118.799 296.631 176.392c-43.967 29.658-87.433 59.996-129.215 92.682-20.033 15.672-39.121 32.311-60.043 46.828-21.763 15.1-44.41 28.884-66.553 43.409-20.461 13.421-40.42 27.7-58.93 43.736-7.092 6.145-11.695 17.171-10.986 26.521.549 7.209 5.931 13.974 13.85 11.2 98.167-34.394 184.33-95.652 268.734-154.941 42.164-29.617 84.251-59.421 128.115-86.495 19.997-12.341 40.242-24.097 59.857-37.073 21.043-13.919 41.816-28.239 62.965-42.001 37.357-24.313 76.479-48.122 120.033-59.315-2.239-11.117-4.479-22.232-6.717-33.351-3.625 4.497-11.99 11.267-18.963 15.919-10.002 6.67-20.648 12.364-31.156 18.178-23.029 12.742-45.092 27.219-67.553 40.936-51.307 31.332-102.534 62.797-153.853 94.112-51.11 31.188-102.327 62.211-153.79 92.816-45.842 27.263-92.239 53.613-137.738 81.449C-2.51 405.993-58.916 444.152-106.64 491.58c-6.829 6.784-11.734 16.688-10.986 26.521.559 7.365 5.898 13.78 13.849 11.198 51.945-16.859 99.749-43.608 147.504-69.638 50.274-27.404 102.161-51.78 153.585-76.934 106.723-52.204 213.545-104.201 320.025-156.899 43.588-21.572 87.41-42.348 128.738-68.076 36.969-23.018 73.674-48.996 115.463-62.538-.953-12.575-1.908-25.146-2.863-37.721-32.516 34.457-76.607 55.146-117.221 78.288-50.043 28.516-97.458 62.321-145.693 93.778-48.672 31.741-97.557 62.7-143.463 98.404-36.258 28.201-71.635 58.477-113.408 78.263C166.968 440.29 75.416 461.753 37.56 541.29c-3.076 6.463-5.364 14.316-2.909 21.401 1.744 5.04 7.496 9.095 12.932 6.589 100.087-46.102 193.518-104.332 287.45-161.587 46.519-28.354 93.288-56.325 141.229-82.228 49.123-26.541 100.223-49.029 149.865-74.543 51.182-26.305 101.262-54.686 151.102-83.427-.985-12.997-1.971-25.993-2.959-38.989-89.507 66.279-184.82 124.035-280.238 181.279-95.315 57.186-189.699 115.122-280.916 178.699C148.344 533.63 70.698 560.08 20.878 624.456c-8.811 11.384-11.102 42.221 10.984 31.382 208.227-102.161 408.941-218.58 611.711-330.955 81.105-44.949 162.598-89.213 245.032-131.684-.985-12.996-1.972-25.994-2.959-38.989-200.876 115.724-395.703 241.728-585.56 374.705-76.926 53.879-153.004 108.972-228.347 165.043-9.188 6.835-16.062 17.88-15.161 29.76.736 9.699 9.592 15.234 18.12 9.229 43.634-30.724 91.015-55.527 138.017-80.599 48.865-26.063 96.42-53.966 143.453-83.206 97.824-60.818 193.598-125.836 295.82-179.224 79.943-41.755 155.398-91.653 236.616-131.035l-7.13-35.752c-155.031 139.627-335.512 246.817-513.14 354.633-93.445 56.721-186.838 113.71-276.604 176.167-9.318 6.483-16.043 18.146-15.16 29.758.8 10.539 9.316 14.158 18.119 9.23 202.516-113.372 408.094-221.234 609.108-337.292 82.61-47.694 164.386-96.848 244.782-148.196l-10.985-31.381c-4.995 7.511-10.376 14.716-16.097 21.688-5.041 6.146-10.836 12.267-18.377 19.708-14.123 13.939-29.658 26.809-45.089 38.273-35.397 26.297-73.571 48.73-112.081 70.107-37.449 20.789-75.582 40.312-113.115 60.945-42.606 23.422-83.6 49.658-124.551 75.827-65.342 41.753-130.41 84.796-198.977 121.15-60.085 31.858-124.111 59.162-173.205 107.688-6.838 6.763-11.73 16.707-10.986 26.522.621 8.163 5.797 12.765 13.852 11.198 27.105-5.267 51.927-18.041 75.644-31.759 24.854-14.379 49.684-28.81 74.538-43.192a10601.46 10601.46 0 0 0 152.23-89.771c49.531-29.772 100.037-57.95 150.666-85.822 50.375-27.729 102.133-51.93 153.664-77.322 67.275-33.148 131.117-72.729 197.158-108.185l-10.984-31.383c-5.504 7.192-9.137 10.836-17.041 18.057-7.752 7.076-15.979 13.312-24.516 19.367-18.808 13.338-38.715 25.094-58.618 36.699-43.185 25.18-85.118 51.793-126.224 80.276-91.95 63.715-180.73 131.845-272.466 195.851-62.606 43.68-127.019 85.396-195.644 119.062l2.959 38.99c48.337-27.513 98.725-51.109 148.233-76.384 25.085-12.807 49.888-26.168 74.097-40.571 24.189-14.391 46.896-30.896 69.811-47.201 23.253-16.545 46.578-32.993 70.564-48.466 23.51-15.167 48.084-28.535 72.547-42.078 48.808-27.02 97.926-53.479 146.338-81.21 61.396-35.17 121.518-72.686 178.057-115.307l-10.984-31.382c-59.98 69.826-146.118 119.632-225.496 166.939-91.051 54.269-181.008 110.706-269.408 169.204-41.196 27.26-81.385 55.869-121.204 85.092-39.394 28.913-78.96 57.731-121.233 82.347-9.595 5.584-15.992 18.821-15.16 29.759.84 11.066 9.201 13.475 18.119 9.23 100.961-48.053 196.104-107.057 291.244-165.518 47.797-29.37 95.674-58.625 144.387-86.46 47.674-27.237 96.567-52.016 145.608-76.669 75.025-37.713 150.204-76.055 218.39-125.428l-7.131-35.751c-33.61 33.213-76.09 55.599-117.895 76.72a4038.336 4038.336 0 0 0-133.637 70.689C696.284 642.5 596.453 696.587 500.193 756.758c-39.694 24.813-79.177 50.248-116.167 78.982-32.521 25.263-64.553 53.299-102.399 70.431-8.954 4.054-15.019 11.32-17.994 20.765-1.853 5.884-3.031 24.237 8.274 22.726 45.447-6.074 87.677-22.926 128.725-42.8 43.947-21.275 85.808-46.649 127.57-71.857 92.4-55.778 188.994-103.604 284.818-153.169 30.956-16.012 61.8-31.989 92.062-49.282l89.188-50.968c9.619-5.496 15.986-18.892 15.162-29.759-.805-10.575-9.309-14.111-18.121-9.229-104.188 57.711-206.854 118.117-308.768 179.746C631.4 753.275 580.459 784.533 529.6 815.93c-44.668 27.573-85.542 60.625-129.553 89.188-21.203 13.757-43.262 26.518-67.016 35.328l-1.309 40.958C503.59 874.062 701.895 821 881.025 728.062c47.312-24.547 93.092-52.107 136.094-83.643 9.217-6.758 16.057-17.938 15.159-29.76-.759-9.986-9.485-14.867-18.118-9.229-189.895 124.01-375.484 255.294-574.297 364.989a2771.097 2771.097 0 0 1-59.694 31.968l7.133 35.753c73.349-58.31 162.89-92.968 248.278-129.313 44.957-19.136 89.819-38.741 132.914-61.835 22.314-11.959 44.492-24.162 66.002-37.533 23.461-14.584 46.566-29.751 71.246-42.24l-14.291-26.021c-3.254 5.631 2.838-4.268-.768 1.271-1.092 1.673-2.266 3.292-3.438 4.908-1.197 1.657-2.473 3.257-3.743 4.856-.225.285-4.667 5.495-1.593 2.025-6.42 7.245-13.554 13.844-20.877 20.158-14.345 12.364-31.18 23.663-48.141 34.454-35.631 22.667-73.099 42.25-109.025 64.42-39.857 24.595-76.527 54.362-114.17 82.133-42.477 31.335-86.009 61.829-133.524 85.104-8.503 4.165-17.229 7.841-26.042 11.295.953 12.572 1.908 25.146 2.864 37.721 61.737-53.27 143.856-80.491 220.312-108.335 80.787-29.419 162.883-61.466 226.773-120.972 7.468-6.955 14.516-14.354 21.266-22.004 7.164-8.118 13.979-19.857 10.072-31.133-3.469-10.01-15.477-8.066-21.377-1.381-114.229 129.438-307.648 132.047-443.064 231.178a404.98 404.98 0 0 0-25.289 20.133c-7.098 6.125-11.693 17.185-10.986 26.522.528 6.965 5.991 14.28 13.852 11.197 97.134-38.068 176.129-109.005 260.492-168.247 66.98-47.033 147.924-76.376 205.264-136.568 10.396-10.916 19.23-22.635 26.766-35.684 7.1-12.287 4.061-35.306-14.291-26.021-23.682 11.983-45.959 26.396-68.422 40.475-22.414 14.05-45.567 26.728-68.828 39.299-42.021 22.706-85.976 41.566-129.891 60.243-90.248 38.378-182.23 75.838-259.648 137.379-7.226 5.744-11.672 17.469-10.986 26.521.82 10.785 9.26 13.842 18.12 9.23C584.75 936.47 771.74 806.556 960.965 681.343a11079.5 11079.5 0 0 1 56.154-36.924c-.986-12.996-1.974-25.993-2.959-38.989-164.072 120.319-362.512 176.991-545.047 261.854-48.147 22.383-95.297 46.992-140.35 75.131-8.23 5.139-13.767 14.978-14.994 24.479-1.042 8.054 3.028 20.431 13.685 16.479 48.653-18.046 91.169-48.993 132.91-79.128 45.077-32.542 91.929-61.576 139.313-90.626 101.836-62.436 204.242-123.967 307.943-183.265a7351.688 7351.688 0 0 1 86.65-48.766c-.985-12.996-1.971-25.993-2.959-38.988-51.547 29.457-102.699 59.619-155.438 86.898-53.777 27.817-107.557 55.633-161.336 83.449-43.93 22.723-87.301 45.755-129.696 71.245-41.771 25.118-83.297 50.7-126.522 73.278-41.221 21.529-86.023 41.922-132.55 48.141l-9.721 43.49c47.462-21.483 85.909-55.805 127.179-86.811 44.622-33.523 92.951-62.742 140.678-91.576 96.971-58.587 197.004-111.868 295.91-167.064 73.6-41.076 157.644-70.725 218.6-130.964 6.844-6.76 11.734-16.708 10.988-26.521-.729-9.591-9.636-15.373-18.119-9.229-88.589 64.145-188.592 109.527-285.451 159.373-99.426 51.166-193.672 111.625-289.094 169.731-73.312 44.644-147.525 88.053-225.084 124.969.985 12.997 1.973 25.993 2.959 38.989 49.188-28.641 94.676-62.945 140.543-96.504 46.479-34 94.139-66.235 142.512-97.467 87.035-56.191 175.351-110.046 263.912-163.752 74.69-45.295 149.065-94.295 206.426-161.075 5.669-6.597 9.146-18.316 6.219-26.761-2.553-7.37-11.105-9.217-17.203-4.62-89.628 67.563-188.064 121.632-286.239 175.511-49.329 27.073-98.405 53.916-144.788 85.881-23.352 16.091-46.289 32.776-69.5 49.068-23.091 16.205-47.427 30.418-72.158 43.965-61.564 33.727-125.932 62.054-186.961 96.791-9.623 5.477-15.984 18.906-15.16 29.76.834 10.973 9.219 13.596 18.119 9.23 98.893-48.512 189.042-113.175 277.801-177.872 89.326-65.108 177.656-132.874 271.783-191.008 55.476-34.265 120.369-62.552 160.975-115.647 5.39-7.048 9.266-17.969 6.219-26.763-2.841-8.196-10.652-8.139-17.203-4.62-49.322 26.479-97.433 55.121-146.603 81.871-49.907 27.152-102.032 49.65-152.421 75.84C537.59 565.519 438.344 626.223 337.975 685.06a11441.321 11441.321 0 0 1-97.149 56.283c-30.903 17.713-60.723 37.979-96.278 44.889.953 12.572 1.908 25.146 2.865 37.721 33.756-33.367 76.161-55.738 118.04-77.181 45.688-23.39 90.239-48.038 134.128-74.68 87.599-53.175 171.682-111.858 262.07-160.353 54.957-29.484 110.545-57.98 162.961-91.898 49.711-32.166 98.854-70.181 131.993-120.016 5.024-7.557 9.407-17.564 6.218-26.762-2.699-7.791-10.854-8.675-17.203-4.621-195.874 125.101-399.874 236.655-603.807 347.893-83.528 45.561-167.062 91.117-250.083 137.596l2.959 38.988C265.64 673.978 449.086 574.513 622.931 460.024c94.264-62.08 185.903-128.777 269.846-204.379 7.025-6.327 11.709-17.035 10.988-26.521-.836-11.01-9.213-13.55-18.12-9.23-51.248 24.849-100.296 53.832-149.524 82.396-49.636 28.8-100.664 55.019-150.33 83.749-99.657 57.645-195.211 122.086-293.78 181.536-72.495 43.724-150.876 77.517-220.271 126.384.985 12.996 1.974 25.992 2.959 38.988 185.013-137.684 374.572-269.338 569.659-392.373 80.434-50.727 161.85-99.902 244.247-147.373 9.606-5.535 15.987-18.861 15.161-29.76-.821-10.815-9.25-13.799-18.12-9.229-206.175 106.22-406.212 223.748-609.961 334.452-81.456 44.258-163.553 87.353-246.782 128.186l10.984 31.383c25.777-33.308 66.305-56.533 103.789-77.647 19.876-11.199 39.891-22.157 59.179-34.356 21.948-13.881 42.736-29.654 64.247-44.203 92.357-62.464 188.979-118.262 284.289-176.013 77.076-46.703 153.375-94.857 225.838-148.517 9.197-6.81 16.061-17.9 15.162-29.76-.793-10.436-9.346-14.29-18.121-9.229-48.864 28.18-97.98 55.93-148.08 81.867-49.613 25.688-100.764 48.179-150.023 74.562-96.332 51.593-187.564 112.021-281.984 166.92-45.945 26.715-92.727 52.251-141.018 74.497 3.338 9.33 6.68 18.662 10.022 27.99a169.555 169.555 0 0 1 2.938-5.881c.275-.53 3.927-6.72 1.067-2.127 2.278-3.657 4.847-7.124 7.493-10.519.167-.216 4.737-5.591 1.715-2.197 1.436-1.612 2.948-3.157 4.455-4.703 3.552-3.637 7.364-7.009 11.248-10.285 4.771-4.025 12.173-9.079 19.404-13.619 8.458-5.309 17.279-10.026 26.193-14.511 34.469-17.342 71.242-29.699 106.113-46.215 43.147-20.439 79.836-52.666 117.23-81.818 44.832-34.949 93.141-64.874 140.709-95.896 48.039-31.33 95.283-64.804 145.127-93.205 42.926-24.461 88.732-46.937 123.102-83.359 6.684-7.084 11.75-16.467 10.986-26.521-.559-7.366-5.898-13.776-13.852-11.199-49.908 16.174-93.238 47.806-137.598 74.86-48.915 29.833-102.049 53.269-153.393 78.592-106.677 52.613-213.652 104.618-320.47 156.94-43.396 21.257-86.618 42.541-129.028 65.714-40.359 22.048-80.936 43.731-124.824 57.979l2.863 37.722c72.182-71.732 163.5-120.634 250.486-171.761 103.369-60.754 205.491-123.592 307.752-186.184 31.838-19.49 63.289-39.892 95.545-58.647 28.137-16.359 57.43-30.229 78.301-56.136 6.781-8.413 13.281-38.49-6.715-33.35-47.43 12.188-90.468 38.452-131.139 64.922-21.107 13.74-41.835 28.054-62.84 41.949-19.621 12.977-39.934 24.667-59.938 37.012-88.902 54.875-170.567 120.623-260.035 174.661C76.088 360.719 34.5 382.364-9.664 397.84l2.862 37.721c39.103-33.88 85.59-57.931 127.509-87.985 21.175-15.182 40.631-32.546 61.217-48.488 20.627-15.977 41.773-31.276 63.117-46.279 86.076-60.504 176.019-115.53 257.791-181.999 18.234-14.82 35.916-30.312 52.963-46.484 6.924-6.571 11.72-16.852 10.985-26.521-.585-7.715-5.842-13.337-13.851-11.199-49.303 13.154-94.82 37.832-138.795 63.142-40.957 23.574-81.775 46.956-123.684 68.825-82.873 43.245-167.968 86.252-237.164 150.254-7.748 7.166-13.724 20.591-10.07 31.133 3.688 10.637 15.028 7.252 21.376 1.379z"/></g><path fill="#EAA286" d="M279.854 462.43c-11.415-10.86-28.617-25.265-45.742-18.406-19.243 7.707-29.451 29.329-31.146 49.011-2.075 24.116 7.837 71.633 42.022 62.058 14.022-3.928 25.219-16.667 33.316-28.03 5.626-7.889 11.444-22.287 4.339-31.162-7.073-8.828-19.147.303-23.798 6.826a105.95 105.95 0 0 1-4.345 5.699c-2.754 3.361 3.972-4.348 1.13-1.292a53.668 53.668 0 0 1-2.063 2.069 45.011 45.011 0 0 1-2.024 1.811c-2.751 2.368 4.479-3.315 1.637-1.284-1.203.861-2.49 1.589-3.812 2.248 6.119-3.052 2.018-.973.15-.52-2.593.63 4.543-.477 1.941-.229-.555.054-1.111.044-1.668.033-1.629-.03-5.431-1.259.181.373-1.204-.35-2.335-.919-3.416-1.545-3.492-2.023.335.515-.026.191-.884-.786-1.672-1.677-2.431-2.582-.804-.957-1.515-1.99-2.197-3.035-.356-.545-.683-1.108-1.01-1.669-1.341-2.308 2.188 4.337.484.792-1.223-2.548-2.165-5.226-2.975-7.932a63.365 63.365 0 0 1-1.088-4.258c-.696-3.091.929 4.941.368 1.818a69.445 69.445 0 0 1-.445-2.934c-.393-2.912-.553-5.853-.553-8.788-.001-3.317-.243 5.834-.086 2.545.033-.704.094-1.405.154-2.106.115-1.36.313-2.713.545-4.062.778-4.565-1.815 6.759-.256 1.395.175-.599.38-1.186.587-1.769 1.133-3.214-2.917 6.815-1.535 3.744 2.328-5.186-2.256 3.264-1.42 2.035 2.88-4.238-4.877 4.641-1.109 1.321-5.345 4.707-4.21 3.137-2.616 2.1 1.275-.826 3.828-1.78-2.548 1.07.97-.434 2.008-.688 3.046-.88-5.986 1.11-2.076.312-.202.451.638.047 1.267.156 1.895.267 2.429.421-4.23-1.32-.504-.105 3.297 1.075 6.354 2.832 9.254 4.699 1.821 1.173 3.55 2.483 5.253 3.816-3.148-2.464.147.151.644.583 1.347 1.17 2.642 2.393 3.933 3.623 8.143 7.745 18.302.602 23.798-6.826 5.024-6.788 12.284-23.602 4.338-31.164zm537.093 9.747c-.958-4.148-2.451-8.053-4.365-11.715.879-5.398.283-10.805-2.89-14.765-3.254-4.063-7.338-4.363-11.311-2.909-6.284-5.529-13.532-10.066-20.936-13.583-12.024-5.713-25.498 10.899-28.244 25.437-4.227 4.089-7.9 8.328-10.723 11.826-6.025 7.469-11.19 22.606-4.339 31.163 7.284 9.092 18.823-.657 23.799-6.826.266-.33 1.018-1.19 1.618-1.876a66.543 66.543 0 0 1 2.604-2.518c.06 1.669.263 3.243.635 4.662.604 2.309.736 3.079.95 5.054-.8.433-1.754.881-3.104 1.602-5.543 2.953-11.233 10.377-14.13 18.357-13.705 11.201-21.275 40.881-3.87 40.881 6.044 0 11.821-4.493 16.227-10.64 10.727 7.112 23.285 8.447 34.129-3.713a65.218 65.218 0 0 0 10.524-16.074c11.448-15.674 17.95-34.767 13.426-54.363zm-52.922 26.125c-.055.14-.114.296-.178.486.057-.171.114-.341.173-.508l.005.022z"/><path fill="#22A1FF" d="M750.679 934.023c-8.127-32.819-21.722-64.415-40.479-92.129a218.676 218.676 0 0 0-4.2-8.14c-.199-6.156-2.14-11.601-7.268-12.482-4.637-7.448-9.613-14.604-14.742-21.403-26.973-35.76-63.245-59.368-107.279-68.164-45.224-9.036-92.542-1.587-137.312 6.527-40.006 7.252-83.111 12.078-116.626 37.156-11.777 8.812-21.259 19.229-29.049 30.746-5.417 5.364-10.469 11.145-15.073 17.373a136.795 136.795 0 0 0-2.669 3.75c-9.583 11.709-18.813 23.733-28.394 35.27-6.118 7.365-11.129 22.684-4.337 31.164 2.023 2.527 4.36 3.597 6.786 3.702-1.211 8.767-1.861 17.635-2.028 26.508-1.87 3.344-2.859 7.19-2.177 10.188-3.049 5.421-3.994 12.537.422 15.529.934.631 1.875 1.248 2.816 1.868.835 3.747 3.203 4.555 5.884 3.756.405.251.814.497 1.221.746 1.525 3.129 4.308 5.192 8.848 5.174 10.894 6.087 22.195 11.421 33.779 16.125-.022.905-.017 1.819.055 2.748.623 8.199 5.945 13.264 14.178 11.463a172.976 172.976 0 0 0 14.589-3.889c19.501 6.134 39.467 10.868 59.337 14.753 43.9 8.581 89.539 12.749 134.219 13.997 54.662 1.529 140.927-4.259 182.091-48.291a578.55 578.55 0 0 0 37.934-15.447c6.896-3.092 11.333-11.087 9.474-18.598zm-47.602-19.102a93.861 93.861 0 0 0 6.112-9.795c.295 2.628.475 5.259.527 7.886-2.22.61-4.433 1.247-6.639 1.909zm-397.28 31.793c9.9-5.342 19.384-11.514 28.433-17.674 1.388-.944 2.754-1.918 4.132-2.879-8.981 7.273-17.486 15.04-25.303 23.476a202.57 202.57 0 0 1-7.262-2.923zm214.346-180.87c-10.119 4.546-19.99 9.69-29.666 15.142 3.933-4.438 6.985-9.575 8.605-15.254 7.028-.11 14.054-.097 21.061.112zm74.086 12.604c-10.83 6.727-21.815 13.188-32.845 19.57 3.96-7.271 7.326-14.922 9.938-23.015.307-.952.565-1.966.771-3.019 7.452 1.709 14.838 3.836 22.136 6.464zM275.566 897.439c2.019-.94 4.017-1.915 6.005-2.908a196.432 196.432 0 0 0-7.783 10.438 1240.48 1240.48 0 0 1 1.649-7.47l.129-.06zm122.711-16.302c21.901-16.276 45.688-30.056 68.812-44.5 14.54-9.083 29.306-17.874 44.699-25.258a311.102 311.102 0 0 1-4.095 3.616c-9.475 8.227-17.012 13.594-28.328 21.339-11.975 8.195-24.311 15.857-36.7 23.407-25.647 15.627-53.242 30.477-78.848 47.72 11.492-8.772 22.865-17.705 34.46-26.324zm114.981-11.584c-15.854 10.737-32.152 20.772-48.543 30.661 21.085-15.898 42.851-29.644 65.814-42.708-5.654 4.082-11.411 8.078-17.271 12.047zm-62.35 91.275c-4.244 2.918-7.933 6.941-10.646 11.546-4.412-.29-8.82-.604-13.227-.955a5846.793 5846.793 0 0 0 23.873-10.591zm239.795-90.421a161.583 161.583 0 0 0 5.534-8.266 231.896 231.896 0 0 1 1.902 4.346 363.858 363.858 0 0 0-7.436 3.92zm-44.435-28.517a494.735 494.735 0 0 0 11.262-13.597c1.79-2.243 3.393-4.935 4.653-7.849a216.829 216.829 0 0 1 9.628 9.624 421.173 421.173 0 0 0-25.543 11.822zm-7.932-40.714c-7.395 4.949-14.376 10.431-21.2 16.117 4.711-6.912 9.004-14.105 12.804-21.603 2.851 1.762 5.65 3.59 8.396 5.486zM508.087 969.403a191.998 191.998 0 0 0-5.483 5.741c-1.156-.03-2.311-.065-3.466-.1a917.001 917.001 0 0 0 8.949-5.641z"/><path fill="#FFE5B8" d="M561.153 724.855a42.253 42.253 0 0 0-2.559-1.074c-1.295-4.376-3.123-8.743-5.503-13.116-5.581-10.253-20.027 1.73-23.799 6.826a42.015 42.015 0 0 0-2.175 3.257c-8.301.83-16.469 2.541-23.728 4.342-16.123 4.001-33.103 13.979-41.025 28.481a79.367 79.367 0 0 0-.705-.755c-1.474-1.56-2.719-3.309-3.88-5.106.757 1.109-1.055-2.146-1.202-2.498-.627-1.471-1.074-3.01-1.525-4.54a76.409 76.409 0 0 0-.193-.642 29.308 29.308 0 0 0-.157-1.28c-.248-1.798-.307-3.616-.37-5.427a77.761 77.761 0 0 0-.021-.566c.055-.33.125-.914.213-1.868.196-2.125.577-4.232.952-6.332 1.582-8.868-3.356-20.104-14.01-16.868-11.367 3.452-17.793 16.28-19.717 27.073-3.301 18.508-1.625 38.347 9.894 53.806 9.517 12.771 25.693 18.72 41.017 20.118 14.641 1.339 29.136-1.657 42.325-7.751a54.006 54.006 0 0 0 5.984-2.16c12.977-5.611 24.139-15.328 31.208-27.595 4.381-5.651 8.136-11.732 11.118-18.103 3.419-7.305 8.112-23.472-2.142-28.222z"/><path d="M749.812 457.719c12.822-7.595 31.949-14.925 45.114-3.829 10.693 9.011 12.991 25.348 12.841 38.468-.156 13.763-4.073 29.108-13.431 39.549-12.03 13.424-26.665 8.458-41.591 4.429-4.54-1.228-10.499 9.194-6.823 12.246 15.427 12.812 36.785 8.52 50.199-4.686 13.739-13.525 20.025-34.687 21.05-53.463.888-16.228-1.647-36.287-15.358-47.041-16.982-13.323-38.266.115-52.15 11.537-.817.67-1.673 3.869.149 2.79z"/><path fill="#D8724A" d="M376.793 711.218h-.001l-.003.006z"/><path fill="#FFE5B8" d="M779.658 357.464c-3.053-3.471-7.47-4.552-12.421-2.98-.613.195-1.23.393-1.843.586l.002-.105-.392.231c-14.827 4.735-24.397 3.917-33.796 2.153 1.814-5.966 3.206-12.108 4.247-18.336.86-.025 1.758-.311 2.538-.791 3.372-2.079 5.252-6.273 5.165-10.137-.428-19.035-2.871-38.043-7.999-56.18-1.616-7.685-4.068-15.167-7.741-21.873-5.337-12.376-12.188-24.129-20.812-34.941-22.287-27.946-55.423-45.1-89.391-54.278-18.971-5.126-38.442-8.005-58.029-9.367-22.841-1.59-45.858-1.345-68.426 2.806a160.47 160.47 0 0 0-9.233 1.989c-30.963 1.117-61.652 7.164-89.715 20.852a150.197 150.197 0 0 0-7.722 4.058c-14.171 5.34-27.95 11.646-40.975 19.217-17.742 10.313-34.639 23.914-44.429 42.301-7.106 13.346-8.567 28.156-5.091 42.251-3.073 13.211-2.891 27.011.783 40.341-11.508 8.061-22.562 16.846-32.966 26.603-6.194 5.811-10.549 14.357-11.647 22.863-.497 3.85-.254 11.602 3.814 16.23 2.023 2.301 4.735 3.436 7.882 3.309 9.985-.453 20.27-1.669 31.115-3.688-8.703 4.308-16.59 8.793-23.851 13.559-8.604 5.644-14.801 15.748-16.174 26.375-.613 4.741.002 11.795 3.756 16.065 1.998 2.272 4.698 3.476 7.864 3.476 19.519-.082 39.979-1.737 62.171-5.048-25.298 10.892-51.563 22.834-77.032 37.162-9.585 5.39-15.083 17.163-16.281 26.44-.794 6.14.604 11.935 3.738 15.501 2.993 3.408 7.431 4.63 12.543 3.413 20.866-4.948 39.179-9.445 55.998-13.764-4.046 1.729-8.159 3.5-12.271 5.293l-1.081.268-.035.237c-10.689 5.083-18.261 15.751-19.857 28.1-.792 6.147.599 11.958 3.751 15.542 3.002 3.414 7.408 4.623 12.508 3.37l2.191-.549c-.452.233-1.002.467-1.452.701l-.418.056v.059c0 .59-2.077 1.177-3.215 1.765-9.086 4.703-14.898 16.875-16.14 26.472-.794 6.152.619 11.977 3.786 15.578 3.006 3.42 7.434 4.614 12.521 3.331a790.128 790.128 0 0 0 32.434-8.952c-7.772 7.562-14.583 23.715-11.934 33.847 1.744 6.669 7.313 9.799 15.566 8.612a435.937 435.937 0 0 0 23.049-3.95c-2.993 4.71-4.978 10.134-5.695 15.686-.591 4.57.113 11.496 4.044 15.967 3.062 3.483 7.477 4.537 12.396 2.903 3.516-1.169 7.033-2.336 10.553-3.492-3.988 5.268-6.63 11.578-7.471 18.084-.809 6.265.436 11.629 3.504 15.12 2.925 3.329 7.368 4.651 12.648 3.796.7-.113 1.398-.262 2.098-.379l.134-.222c7.115-1.16 14.242-2.603 21.379-3.79-3.746 8.378-5.616 17.875-2.01 23.896.998 1.672 2.76 3.014 5.777 3.649 1.215.467 2.641.72 4.293.722l.052.001c5.608-.013 11.235-.09 16.873-.212 10.775.087 21.483.105 32-.535.637 5.484 3.384 10.621 7.859 12.598 12.707 5.606 26.95 8.451 42.331 8.451 32.761 0 65.99-12.835 88.136-22.491 42.112-18.361 80.274-42.452 115.241-65.756l.972-.545-.008-.118c10.004-7.153 16.316-19.956 15.438-31.527-.616-8.135-5.589-13.393-12.663-13.393-.456 0-.918.023-1.383.07 11.306-9.049 20.776-18.857 28.703-29.703 5.479-7.496 10.095-19.078 6.621-29.102-1.466-4.225-4.532-7.085-8.478-8.052a269.331 269.331 0 0 0 6.056-5.532c7.938-7.484 12.578-18.728 11.825-28.646-.512-6.733-5.019-13.89-12.36-13.89-1.413 0-2.87.277-4.329.827-2.222.837-4.466 1.677-6.726 2.52 7.776-5.465 13.547-15.291 14.867-25.511.619-4.796-.431-11.908-4.198-16.195-3.091-3.514-7.495-4.483-12.317-2.647l-1.747.662.011-.318-1.28.794c-.942.352-1.896.705-2.854 1.057a369.198 369.198 0 0 0 19.085-16.254c6.186-5.646 10.546-14.199 11.669-22.879.66-5.124-.247-12.089-3.766-16.095-.979-1.111-2.127-1.968-3.425-2.548a894.317 894.317 0 0 0 18.827-10.716c9.597-5.62 15.076-17.321 16.256-26.426.783-6.015-.788-12.254-3.991-15.902zm-413.56-127.315c-8.712 8.402-17.342 16.884-26.103 25.222a133.168 133.168 0 0 1 8.367-11.287c2.031-2.455 4.382-5.002 6.921-7.535 5.044-4.194 10.435-7.988 16.047-11.421-.477.455-.953.907-1.428 1.363a28.805 28.805 0 0 0-3.804 3.658zm-47.927 45.212c4.842-13.352 11.147-26.101 19.229-37.769 4.018-3.669 8.276-7.066 12.717-10.235-12.841 13.595-23.029 29.389-30.389 46.631-.52.457-1.036.918-1.557 1.373zm360.39-65.375c.618.515 1.234 1.03 1.844 1.554a2.923 2.923 0 0 0-1.135-.396c-.237-.385-.469-.775-.709-1.158zm11.994 141.032c.496 1.111.979 2.229 1.467 3.344-1.253.003-2.805.008-4.527.018a83.307 83.307 0 0 0 3.06-3.362zm15.964-109.629a12.551 12.551 0 0 0-.65 4.092c.021 2.052.112 4.09.263 6.116-6.396-14.011-15.183-26.977-24.604-39.051-.031-.038-.062-.066-.093-.104 9.477 8.317 17.937 17.919 25.084 28.947zm-403.41 17.575c.098-.688.226-1.37.354-2.052.2-1.066-.1.28.367-1.486 1.431-5.415 3.537-9.398 6.333-13.465 3.696-5.376 7.043-8.818 12.165-13.396 6.799-6.074 14.357-11.368 22.372-16.053a170.67 170.67 0 0 0-9.602 11.451c-12.734 10.721-23.915 23.129-32.249 37.579-.018.031-.034.063-.053.094.085-.893.187-1.785.313-2.672zm108.594 49.351c.975-.436 1.957-.873 2.935-1.311l.147.359c-1.029.318-2.059.631-3.082.952zm98.56-5.759c4.462 2.452 8.824 5.088 13.104 7.799a681.305 681.305 0 0 1 5.143 3.298c-6.43-2.829-12.45-5.744-18.037-8.856a22.111 22.111 0 0 0-.21-2.241zm17.786 145.912c9.234-6.982 17.868-14.153 26.01-21.597a294.132 294.132 0 0 0 15.24 3.148 2809.292 2809.292 0 0 0-41.25 18.449z"/><path fill="#EAA286" d="M487.869 668.238c10.199 1.646 19.997.706 29.918-2.018 5.194-1.428 10.099-3.734 14.797-6.328.339-.187.846-.524 1.438-.946.721-.253 1.441-.506 2.154-.774 7.076-2.676 11.661-5.633 14.365-11.289.465-.728.897-1.473 1.214-2.289 1.12-2.888 3.909-12.305-2.154-12.2-3.618.063-6.11 2.602-8.682 4.921-21.352 6.481-46.154 6.859-64.07-8.049-5.149-4.286-11.471 2.42-13.733 9.678a60.916 60.916 0 0 1-12.631-14.687c-1.962-3.187-6.693 4.751-5.59 7.238 8.022 18.063 22.759 33.479 42.974 36.743zm62.6 77.648c-16.347 9.049-35.271 12.573-53.829 11.954-18.506-.614-39.213-5.12-50.489-21.091-3.491-4.947-9.354 7.344-8.249 10.687 14.564 44.145 71.546 49.304 108.184 30.957 7.681-3.846 12.516-12.714 13.628-21.016.677-5.047-1.612-15.714-9.245-11.491z"/><path d="M445.69 626.409c15.557 12.373 31.488 20.798 51.293 23.657 16.782 2.423 39.555-.336 52.128-12.56 1.813-1.764 6.987-14.117.629-13.364-7.623.904-14.819 6.17-22.229 8.554-8.37 2.691-17.468 3.103-26.181 2.815-17.998-.597-36.886-7.058-53.062-14.634-2.138-.999-4.288 4.172-2.578 5.532zM227.657 501.096c5.971-7.343 13.968-12.954 23.711-13.08 10.742-.134 13.123 9.393 17.19 17.19 1.856 3.559 5.953-4.315 6.104-5.632 1.365-11.979-4.67-23.908-17.949-24.144-13.007-.232-24.704 10.766-31.571 20.663-1.794 2.59-.912 9.216 2.515 5.003z"/><path d="M275.084 495.041c-7.744-.32-17.453-.398-22.932 6.082-5.419 6.411-4.352 16.112.296 22.661 1.991 2.808 5.252-4.161 4.657-6.03-.85-2.663-4.806-9.668-1.95-12.138 4.549-3.931 12.427-4.038 18.065-4.336 2.26-.121 4.652-6.126 1.864-6.239zm150.104 243.08c-7.085 22.461-5.779 46.584 11.194 64.256 15.145 15.77 37.846 22.15 59.162 21.893 22.359-.267 44.835-7.929 60.999-23.628 8.401-8.157 14.454-19.15 17.452-30.417 2.462-9.259 4.961-26.655-4.258-32.675-3.491-2.282-6.664 5.812-7.04 7.812-1.721 9.191-.393 19.526-2.935 27.88-.759 2.495-1.727 4.249-4.14 7.65-.995 1.405-4.43 4.792-6.756 6.653-14.407 11.536-33.271 15.977-51.422 16.247-18.262.277-37.394-3.652-52.102-14.967-16.041-12.346-19.238-33.054-15.412-51.829.96-4.701-3.951-1.391-4.742 1.125z"/><path d="M426.41 734.984c-52.793.237-112.733.181-147.659 46.985-15.468 20.725-23.645 45.416-28.451 70.568-4.805 25.134-7.085 51.928-4.235 77.321.595 5.29 5.307-1.198 5.727-3.351 8.677-44.457 5.641-94.22 32.744-133.024 30.651-43.891 92.401-36.962 138.389-46.835 3.72-.795 8.972-11.69 3.485-11.664zm142.686 16.237c25.013-1.971 51.774-.74 75.548 7.89 21.409 7.775 37.752 22.886 51.224 40.809 14.359 19.105 22.822 41.16 30.801 63.453 8.121 22.687 14.68 46.212 19.288 69.854 1.396 7.166 11.046-4.911 10.349-9.522-7.625-50.387-16.477-101.133-47.798-142.977-13.802-18.439-33.552-32.63-55.435-39.689-27.963-9.019-56.221-3.906-83.105 6.192-1.019.383-2.684 4.131-.872 3.99z"/><path d="M287.674 875.782c9.758.858 21.168 4.476 25.468 14.161 3.963 8.935 3.772 20.263 3.569 29.849-.232 10.854-1.843 21.688-2.95 32.475-.835 8.119-3.811 21.317 1.252 28.4 5.277 7.382 13.084-9.132 13.604-12.555 1.502-9.908-.312-21.005-.04-31.118.312-11.501.682-23.043-.785-34.484-1.236-9.646-4.852-17.843-11.923-24.589-7.765-7.402-18.061-6.635-27.731-4.268-.624.156-1.416 2.045-.464 2.129zm26.041-442.689c10.083-9.733 23.716-13.643 37.037-16.724 13.758-3.183 28.453-3.682 42.324-.976 17.636 3.438 28.919-36.756 13.86-36.359-37.617.991-76.037 12.578-97.438 45.67-2.851 4.407-2.448 14.82 4.217 8.389z"/><path fill="#0C7FF2" d="M674.887 866.446c.151-.3.275-.588.432-.89.72-1.396 1.565-7.357-1.845-5.707a57.09 57.09 0 0 0-2.644 1.387 3.762 3.762 0 0 0-1.474-.252c-.741.052-1.481.104-2.222.158-3.805.268-6.265 3.872-7.572 7.652-3.043 2.319-6.038 4.722-9.149 7.048-1.606 1.203-2.877 7.009.268 5.024 2.621-1.652 5.167-3.423 7.753-5.106.096 2.67.822 5.214 1.86 7.697-8.915 31.722 7.851 66.819 12.446 98.895 2.148 14.981 16.061-2.686 16.844-9.857 3.916-35.89 3.878-74.054-14.697-106.049zm-196.366-10.675c-19.406 1.006-38.146-9.11-51.881-22.107-6.451-6.103-11.8-13.298-16.445-20.833-4.725-7.668-6.695-17.312-12.121-24.408-.773-.979-1.785-1.452-3.033-1.414a11.93 11.93 0 0 0-1.877.432c-.709-3.721-1.231-7.417-1.483-11.057-.433-6.228-6.503 1.963-6.628 4.979-.2 4.769.047 9.575.555 14.38-1.889 5.953-1.223 13.582.137 18.542 1.46 5.325 3.783 10.515 6.568 15.487 4.032 15.568 9.462 30.765 17.529 44.744 6.677 11.573 16.503 23.839 30.48 26.074 17.227 2.75 31.176-13.324 39.19-26.397 2.008-3.274 8.029-18.887-.991-18.422z"/><path fill="#EAA286" d="M768.857 489.664c-1.288-12.085-3.111-24.095-5.327-36.034 1.462-21.024 1.818-42.003-1.501-62.898l.452-2.186c.352-1.7-.257-3.695-1.626-4.464a167.401 167.401 0 0 0-2.697-11.526c-1.41-5.175-6.778-.299-8.585 2.896-1.594-16.438-4.72-32.757-8.763-48.655-8.704-34.23-22.743-67.643-42.269-97.134-.446-.674-1.046-.99-1.702-1.072-3.136-6.201-6.627-12.122-10.66-17.499-.012-15.367-14.325-26.428-26.471-33.992-9.986-6.22-20.926-11.447-32.156-15.561-8.951-8.286-18.682-15.662-29.549-21.394-24.213-12.768-52.844-13.508-79.423-9.804-23.743 3.31-46.547 10.195-69.005 18.214a278.777 278.777 0 0 0-48.19 18.175l-1.336.505c-.291.108-.575.307-.843.562-42.656 21.251-79.633 53.514-104.227 94.679-1.102 1.845-1.729 5.115-.259 6.95 1.999 2.495 5.056-.224 6.442-1.848a299.293 299.293 0 0 1 17.15-18.429 194.121 194.121 0 0 0-7.718 11.642c-16.074 26.242-26.576 56.4-27.472 87.309-.109 3.742 4.65.127 4.789-2.206 2.498-41.842 22.528-82.785 52.331-111.979 14.711-14.409 32.54-25.616 52.49-31.037 23.717-6.446 47.926-1.241 71.379 3.906 1.651.362 3.306.732 4.96 1.106.454.646 1.133 1.049 2.123.974.51-.038 1.02-.096 1.529-.145 17.143 3.93 34.419 8.216 51.828 10.937.424.269.945.468 1.586.582a31.23 31.23 0 0 0 5.702.459c15.239 1.961 30.582 2.523 46.021.39 17.346-2.398 34.033-8.262 51.435-10.297 8.809-1.03 17.665 6.05 26.359 7.782.828.165 1.636 3.26 2.441 3.468 7.846 10.108 15.167 10.979 21.662 21.844 25.697 42.986 36.018 92.468 41.121 141.724 1.685 16.269 2.974 32.536 3.728 48.813-.413 22.687-.464 45.378-.387 68.069-.24 3.802-.505 7.604-.826 11.408-1.78 21.034-4.583 42.24-10.498 62.551-6.618 22.723-20.386 42.719-34.526 61.416-16.119 21.313-34.124 42.944-55.392 59.327-.364.281-.738.552-1.105.831-12.812 4.347-24.93 11.813-34.333 20.832a208.961 208.961 0 0 1-30.856 11.781c-20.425 6.001-42.019 8.425-63.201 5.827-3.713-.455-7.198 8.343-2.813 8.939 31.19 4.248 63.582-2.385 92.681-15.634.243 2.079 1.498 3.413 4.541 2.663 9.753-2.402 19.601-7.645 27.897-13.602.346.188.801.224 1.38.046.308 1.065 1.143 1.61 2.816.997 2.973-1.088 5.773-2.562 8.396-4.314.701.644 1.666.897 2.919.394 15.901-6.382 28.88-20.131 39.951-32.764 8.47-9.664 16.038-20.235 22.9-31.179 1.881.329 4.597-1.312 5.9-2.815 14.561-16.8 24.136-37.42 32.139-57.974 6.364-16.341 11.729-33.319 15.669-50.509-.022 6.168.137 12.327.571 18.472.296 4.187 4.246 4.225 6.807 1.831 20.061-18.758 16.256-46.622 13.621-71.35zM400.971 190.906a313.585 313.585 0 0 1 6.899-3.238c.518.678 1.334 1.166 2.541 1.358.704.112 1.408.205 2.111.288-3.876.321-7.726.847-11.551 1.592zm128.043 16.487c-.511.186-1.053.53-1.592.984-.525-.082-1.048-.172-1.572-.256 1.128-.259 2.254-.527 3.377-.806-.07.026-.142.05-.213.078zm40.834 1.795c-.158.504-.294 1.235-.35 2.031a123.6 123.6 0 0 1-8.468.275c3.091-1.619 6.048-3.286 8.812-4.848.473-.14.944-.277 1.418-.416a11.546 11.546 0 0 0-1.412 2.958zm-3.361-47.491c1.319.145 2.637.3 3.955.461-1.302-.04-2.603-.07-3.903-.096a3.863 3.863 0 0 0-.052-.365zm-44.438-14.145c1.668-3.428 2.467-7.6-.271-8.604 16.052-1.513 32.17-1 48.244 2.596 10.087 2.257 19.46 6.397 28.171 11.736-25.023-5.345-50.65-7.125-76.144-5.728zm90.209 55.732c-1.568.352-3.134.712-4.7 1.073 5.354-2.467 10.716-4.872 16.225-6.708 7.558-.324 15.651-.235 23.276 1.18l.277.323c-11.786-.682-23.639 1.565-35.078 4.132zm92.597 425.158c1.067-3.389 2.343-6.713 3.62-9.945a197.607 197.607 0 0 1 3.25-7.699c1.966-3.021 3.851-6.115 5.62-9.349 2.095-3.827 4.174-7.664 6.226-11.517-4.983 13.095-10.88 26.615-18.716 38.51zm24.371-250.175a609.825 609.825 0 0 0-1.636-13.305c.689 4.297 1.362 8.598 2.014 12.901-.128.13-.255.265-.378.404zm28.853 163.825c-.347-13.188.297-26.38 1.3-39.566a380.688 380.688 0 0 1 1.377 19.504c.312 7.089-.079 13.973-2.677 20.062z"/><path d="M394.485 775.238c-1.505 22.624 7.117 43.432 22.732 59.658 14.149 14.7 41.715 28.572 62.425 23.48 3.041-.752 8.034-10.591 3.632-12.051-9.357-3.102-19.429-3.141-28.901-6.209-9.604-3.109-18.514-8.123-26.583-14.134-17.558-13.078-29.062-31.059-28.687-53.444.067-3.926-4.477.587-4.618 2.7z"/><path fill="#FF7D08" d="M842.18 303.098c-59.214-81.084-123.969-169.118-223.47-202.299-49.931-16.65-104.812-16.206-155.342-2.136-.85-.511-1.859-.798-3.074-.741-10.679.497-21.41 2.059-32.025 4.409-3.239-3.208-7.463-5.283-12.46-5.518-13.521-.635-25.631 8.95-34.191 20.758a340.34 340.34 0 0 0-7.26 3.174c-18.952 8.594-38.808 19.673-53.87 34.825-1.785.417-3.597 1.091-5.348 1.928-17.899 8.55-32.216 25.2-43.433 41.113a234.017 234.017 0 0 0-11.091 17.324c-11.557-1.375-22.609 2.132-31.802 11.293-13.017 12.974-19.713 31.222-21.541 49.255-1.315 12.976-.676 26.266 2.725 38.888.255.945.32 1.062.294.794.739 3.754 1.506 7.496 2.366 11.227 1.305 5.653 2.839 11.255 4.345 16.858a666.564 666.564 0 0 1 3.787 14.731c.259 1.069.512 2.141.754 3.214.069.301.267 1.292.43 2.11.416 2.355.748 4.722 1.024 7.098.965 8.305 6.34 15.342 15.522 12.555a20.72 20.72 0 0 0 1.112-.373c-.007 6.858.033 13.717.084 20.575.051 6.898.106 13.798.143 20.697-2.508 2.663-4.533 5.772-5.768 8.195-2.724 5.346-6.434 17.254-.83 22.334 2.28 2.066 4.674 4.008 7.115 5.882-2.991-2.295 1.931 1.73 3.248 2.204.81.291 1.53.717 2.364.964 12.583 3.73 23.997-9.728 26.761-20.996 2.151-8.771 3.309-17.134 3.826-26.118.584-10.176.837-20.363.953-30.554.104-8.993.167-17.986.317-26.979.036-2.112.079-4.223.125-6.335.004-.145.008-.339.015-.56 12.728-14.859 21.024-34.225 27.028-52.736a110.163 110.163 0 0 0 4.51 10.72c7.394 15.2 18.92 27.313 33.104 36.395 8.638 5.53 18.106 9.612 27.761 13.001 5.005 1.756 10.23 3.543 15.538 4.842.003 3.104.276 6.253.901 9.452 1.184 6.071 7.059 2.881 8.928-1.133a279.267 279.267 0 0 0 2.888-6.422c.057.002.113.007.169.01a25.017 25.017 0 0 0 3.457-.134 597.13 597.13 0 0 0-.054 7.69c-.003 2.317 1.916 4.107 4.215 3.408 3.335-1.012 5.356-4.845 5.862-8.049.456-2.882.961-5.753 1.504-8.616 7.883-8.303 8.944-23.935 9.58-35.117.138-2.402.309-4.783.515-7.15 1.819-6.85 3.649-13.699 5.381-20.57.48-1.912.943-4.879-.837-6.308.515-1.908 1.08-3.812 1.693-5.715 3.28-2.559 6.541-5.15 9.782-7.77a189.915 189.915 0 0 0 5.953 10.734c12.327 20.664 28.57 38.934 47.365 53.909 16.126 12.849 35.476 22.239 54.464 29.997 11.151 4.557 22.675 8.31 34.51 10.613 11.175 2.176 21.482 1.681 32.264-2.079a27.254 27.254 0 0 1 3.181-.906c7.134-1.582 13.978-15.169 8.808-21.313-13.95-16.577-25.031-35.39-33.485-55.307-.088-.206-.169-.415-.257-.621 1.54-4.704 3.036-9.42 4.428-14.165 16.69 14.867 33.982 28.858 54.928 37.785 7.386 3.148 15.281 5.742 23.237 7.456l.321.133c18.924 12.052 40.856 21.203 63.484 17.022.905 12.531 2.718 25.075 5.121 37.238 3.285 16.62 6.905 37.239 18.885 50.134 4.076 4.388 8.583 6.83 14.6 5.707 6.725-1.255 12.128-9 14.691-14.723 6.153-13.737 6.705-29.285 6.891-44.103.158-12.639-.597-25.318-2.098-37.866-1.103-9.206-2.062-19.644-5.992-28.197.017-.799-.028-1.57-.155-2.295 11.751 1.884 25.052 4.095 34.634 11.94 4.352 3.562 11.431-3.192 13.635-6.17 3.944-5.326 7.261-14.486 2.857-20.517zM316.171 288.28a103.252 103.252 0 0 1-5.128-9.548c.108-.475.217-.95.322-1.427a224.844 224.844 0 0 0 2.194 4.664 176.267 176.267 0 0 0 6.956 12.924 119.77 119.77 0 0 1-4.344-6.613zm16.151-45.098c.18-.396.357-.793.538-1.188.38 2.328.811 4.647 1.286 6.95-.612-1.92-1.22-3.84-1.824-5.762zm15.116 23.663c-.217-.687-.449-1.37-.66-2.058-3.146-10.258-6.242-21.598-7.618-32.99 2.1 4.913 4.216 9.796 6.272 14.657l1.243 2.934a77.51 77.51 0 0 0 2.087 7.438 990.765 990.765 0 0 0-1.324 10.019zm45.685 62.081a78.169 78.169 0 0 0-1.087-4.26 65.212 65.212 0 0 0 2.646-4.27 99.6 99.6 0 0 0-1.559 8.53zm14.927-15.711a325.214 325.214 0 0 0-3.528 4.962c1.647-6.786 4.098-13.437 6.896-19.745.254-.073.505-.15.756-.229a1050.325 1050.325 0 0 1-4.124 15.012zm17.989-137.434c.422-2.521.87-5.045 1.339-7.563 2.543.114 5.085.241 7.627.38a159.111 159.111 0 0 0-8.966 7.183zM533.551 233.7a857.88 857.88 0 0 1-.342-1.158l-.102-.596.82 1.008a34.68 34.68 0 0 0-.376.746zm53.644 118.804c.282-.479.543-.942.758-1.364a27.94 27.94 0 0 0 1.11-2.476 225.301 225.301 0 0 0 3.162 5.025 133.344 133.344 0 0 1-5.03-1.185zm148.387-44.65c.074-.192.146-.385.215-.578.558.155 1.117.306 1.675.457l-1.89.121zm42.198 106.133c-.13-.166-.251-.339-.375-.508.15-.083.3-.159.452-.251-.025.253-.048.507-.077.759z"/><path d="M641.777 880.761c2.433 8.389 6.173 16.244 9.169 24.446 3.607 9.868 5.56 20.241 7.52 30.529 3.996 20.971 5.56 42.39 8.695 63.497.154 1.044.415 3.285 1.84 3.584.419.088.841.174 1.26.265 2.618.547 4.754-2.037 5.663-4.254 3.789-9.247.389-20.059-.809-29.729-1.479-11.947-3.453-23.832-5.809-35.639-2.325-11.651-5.584-23.043-10.195-34.003-3.404-8.095-7.709-17.02-16.583-19.839-.507-.164-.857.769-.751 1.143z"/><path d="M678.884 849.388c-13.768 5.041-25.688 13.126-35 24.498-1.554 1.896-3.023 4.762-2.235 7.291 1.011 3.239 4.26.293 5.316-1.16 8.01-11.031 18.801-18.971 31.112-24.64 1.881-.866 3.892-7.117.807-5.989zm31.554-425.842c-8.349-14.909-21.92-27.531-37.896-33.799-15.56-6.104-33.249-8.717-49.897-9.186-16.106-.451-24.182 39.309-11.022 36.904 15.934-2.913 31.869-2.948 47.725.577 15.25 3.39 30.762 7.579 42.991 17.8 5.276 4.412 10.405-8.177 8.099-12.296zm-322.826 22.867c-.315-.41-.647-.811-.986-1.208-3.913-5.919-10.37-10.005-17.813-10.703-4.501-.97-9.17-.873-13.562.628-3.581 1.224-7.121 3.492-9.358 6.579-10.002 7.27-11.863 21.315-4.034 31.814 9.802 13.142 28.059 13.884 40.818 4.906 11.016-7.749 13.049-21.44 4.935-32.016zm-44.52 6.594c-.211.91-.375 1.842-.478 2.789a9.479 9.479 0 0 1 .478-2.789z"/><path d="M670.356 439.723a29.51 29.51 0 0 0-.985-1.208c-3.914-5.918-10.371-10.006-17.814-10.703-4.501-.969-9.17-.873-13.562.629-3.581 1.224-7.121 3.49-9.357 6.578-10.003 7.269-11.864 21.315-4.035 31.813 9.802 13.142 28.059 13.886 40.818 4.907 11.016-7.75 13.05-21.44 4.935-32.016zm-44.52 6.593a23.722 23.722 0 0 0-.478 2.788c.02-.999.194-1.92.478-2.788z"/><circle fill="#FFF" cx="370.597" cy="452.583" r="9.569"/><circle fill="#FFF" cx="638.394" cy="446.629" r="9.57"/><path fill="#FF8A0B" d="M390.625 808.76a2.71 2.71 0 0 1 .74.074l-.675-.175c.223.07.417.169.602.313l-.534-.439c.168.148.301.315.411.512l-.347-.645c.101.196.173.4.22.617l-.159-.802c.018.093.034.187.039.281.034.716.348 1.521 1.024 1.865.69.352 1.495.112 2.111-.268.854-.526 1.511-1.359 1.961-2.243.487-.956.632-1.853.662-2.905.018-.61-.133-1.274-.38-1.831-.604-1.36-1.668-2.169-3.178-2.283-.845-.064-1.686.491-2.265 1.038-.8.756-1.389 1.753-1.719 2.8-.278.883-.404 1.906-.093 2.803.226.663.815 1.307 1.58 1.288z"/><path d="M275.199 449.593c3.902-53.5 13.97-106.057 30.937-156.968 1.871-5.614-4.284-4.594-5.714-.264-17.025 51.54-27.038 104.752-30.694 158.887-.349 5.145 5.222 1.761 5.471-1.655z"/><path fill="#FFBF1F" d="M792.478 429.591c14.856-38.391 8.917-79.157 5.413-118.967l-15.863 21.728c19.244-1.244 37.364 12.401 56.646 5.919 9.602-3.228 17.86-18.771 11.527-27.898-19.786-28.512-37.97-58.316-60.391-84.896-22.188-26.304-51.642-51.353-85.61-59.883-4.911-1.233-10.128 5.871-11.895 9.336-2.334 4.582-4.477 13.419 1.26 16.608 15.165 8.433 30.392 16.271 44.125 26.998 12.588 9.832 23.603 21.762 33.875 33.939 22.113 26.214 39.784 55.778 59.472 83.768 3.843-9.299 7.686-18.599 11.527-27.898-7.031 2.409-15.655.182-23.381-1.75-9.146-2.288-18.301-4.937-27.826-3.886-9.443 1.042-17.036 12.419-15.863 21.728 4.334 34.392 12.779 70.53 1.562 104.443-1.246 3.765-1.414 11.262 4.195 11.525 5.781.272 9.48-6.302 11.227-10.814z"/><path fill="#FFBF1F" d="M842.18 303.098c-59.214-81.084-123.969-169.118-223.47-202.299-49.931-16.65-104.812-16.206-155.342-2.136-.85-.511-1.859-.798-3.074-.741-10.679.497-21.41 2.059-32.025 4.409-3.239-3.208-7.463-5.283-12.46-5.518-13.521-.635-25.631 8.95-34.191 20.758a340.34 340.34 0 0 0-7.26 3.174c-18.952 8.594-38.808 19.673-53.87 34.825-1.785.417-3.597 1.091-5.348 1.928-17.899 8.55-32.216 25.2-43.433 41.113a234.017 234.017 0 0 0-11.091 17.324c-11.557-1.375-22.609 2.132-31.802 11.293-13.017 12.974-19.713 31.222-21.541 49.255-1.315 12.976-.676 26.266 2.725 38.888.255.945.32 1.062.294.794.739 3.754 1.506 7.496 2.366 11.227 1.305 5.653 2.839 11.255 4.345 16.858a666.564 666.564 0 0 1 3.787 14.731c.259 1.069.512 2.141.754 3.214.069.301.267 1.292.43 2.11.416 2.355.748 4.722 1.024 7.098.965 8.305 6.34 15.342 15.522 12.555a20.72 20.72 0 0 0 1.112-.373c-.007 6.858.033 13.717.084 20.575.051 6.898.106 13.798.143 20.697-2.508 2.663-4.533 5.772-5.768 8.195-2.724 5.346-6.434 17.254-.83 22.334 2.28 2.066 4.674 4.008 7.115 5.882-2.991-2.295 1.931 1.73 3.248 2.204.81.291 1.53.717 2.364.964 10.342 3.066 19.891-5.479 24.499-14.877-5.662-19.999-10.159-40.378-12.576-61.021-3.241-27.675-3.365-57.309 7.601-83.421 10.808-25.735 32.989-41.914 59.833-47.862-5.111-13.684-6.922-28.768-2.271-42.856 4.43-13.421 13.605-24.62 24.516-33.392 18.897-15.195 42.09-24.645 65.172-31.427 25.258-7.42 51.433-11.921 77.669-13.937 20.813-1.599 42.427-2.239 63.055 1.566 33.502 6.185 67.06 14.708 98.43 28.17 28.88 12.394 55.908 29.343 77.755 52.115 23.588 24.585 40.349 54.474 52.004 86.344.229.631-.605 1.281-1.157.889-12.322-8.764-26.924-18.575-42.746-15.517 7.051 14.094 12.573 28.967 16.092 44.34 7.076 30.916 6.706 62.297.704 92.759 2.274 4.8 5.048 9.242 8.551 13.014 4.076 4.388 8.583 6.83 14.6 5.707 6.725-1.255 12.128-9 14.691-14.723 6.153-13.737 6.705-29.285 6.891-44.103.158-12.639-.597-25.318-2.098-37.866-1.103-9.206-2.062-19.644-5.992-28.197.017-.799-.028-1.57-.155-2.295 11.751 1.884 25.052 4.095 34.634 11.94 4.352 3.562 11.431-3.192 13.635-6.17 3.942-5.327 7.259-14.487 2.855-20.518z"/><path d="M775.111 348.083c-30.986 2.274-61.354-1.559-91.188-10.269-26.184-7.646-55.761-19.19-74.944-39.825-.11-2.8-.208-5.598-.688-8.312-1.003-5.667-5.356-2.7-7.664.843-3.208 1.114-6.54 7.726-4.373 10.714a85.72 85.72 0 0 0 2.815 3.643c.523 5.996 1.827 12.046 3.035 17.642 2.041 9.459 5.297 18.625 9.142 27.488 3.927 9.054 8.621 17.743 13.823 26.128-30.998-4.09-61.272-12.075-90.236-24.542-38.807-16.705-75.731-41.125-100.584-75.862-2.815-3.935-7.345 2.857-8.123 5.011-10.544 29.16-4.703 60.093-9.689 89.967-28.463-3.855-56.609-11.635-78.142-31.716-21.474-20.025-31.865-47.862-40.91-75.07-.842-2.529-3.6-1.725-5.077-.327-1.947 1.838-3.081 4.759-2.393 7.395 7.41 28.376 19.532 57.322 40.943 78.042 22.913 22.174 54.988 31.578 86.099 34.176 3.654.306 7.144-5.918 6.39-9.512 5.853-26.616 1.864-54.709 7.954-81.137 24.632 31.669 59.498 54.808 95.914 70.836 33.37 14.688 70.559 25.077 107.453 27.139a361.468 361.468 0 0 0 7.914 10.709c3.322 4.328 9.808-5.68 7.033-9.495l-.608-.846c2.273-.01 4.544-.046 6.811-.125 4.744-.165 9.45-11.439 3.675-11.676a389.128 389.128 0 0 1-19.604-1.314c-7.3-11-13.935-22.422-19.302-34.511-3.647-8.218-6.543-16.751-8.711-25.475 18.706 15.694 43.226 25.476 65.732 32.409 16.718 5.15 33.896 8.756 51.284 10.663 14.201 1.559 29.55 2.59 43.553-.864 3.84-.948 8.33-12.343 2.666-11.927z"/><path d="M752.512 352.225c-2.082-6.695-9.614 5.362-8.706 9.559 15.807 73.071 12.623 172.569-18.541 241.248-29.753 65.579-87.203 113.567-157.922 128.689-79.466 16.995-166.787-4.758-223.375-64.347-57.206-60.24-71.438-145.138-64.137-225.209-3.661-2.08-7.402-3.942-11.29-5.408a525.3 525.3 0 0 0-3.097 29.114c-6.19 79.709 11.506 162.79 67.157 222.759 55.502 59.811 141.06 82.539 220.315 69.521 73.632-12.097 134.816-59.129 171.544-123.269 44.903-78.417 54.827-196.582 28.052-282.657z"/><path d="M861.857 344.756c-18.168-89.45-75.354-165.776-152.716-213.191-37.881-23.218-80.207-38.944-123.898-46.83-39.969-7.215-79.93-5.933-119.831 1.001-41.965 7.292-83.161 20.679-120.867 40.57-36.046 19.018-68.864 45.637-89.749 81.062a122.425 122.425 0 0 0-2.179 3.87c-.635-.184-1.374-.162-2.239.179-17.883 7.038-36.09 16.599-47.222 32.867-8.724 12.749-11.501 28.002-9.36 43.164 2.206 15.632 8.375 30.444 14.482 44.882 6.822 16.131 13.983 32.148 18.988 48.965 5.954 20.007 8.159 41.027 1.698 61.193-.78 2.435-.93 7.271 2.709 7.443 3.628.169 6.271-4.043 7.25-6.984 12.026-36.169 1.027-72.199-13.035-105.955-6.3-15.123-13.235-30.099-17.708-45.901-1.848-6.524-3.016-13.173-3.12-19.967-.032-2.173.282-5.271.837-8.244l.05-.271c.037-.121.097-.333.192-.703.195-.755.432-1.498.669-2.24.845-2.663.303-1.206 1.542-3.738 1.457-2.975 2.176-3.935 4.83-7.144 1.368-1.657 5.093-5.112 7.67-7.059 8.3-6.273 17.825-10.767 27.476-14.527a9.84 9.84 0 0 0 2.519-1.458c2.592.534 5.103-2.581 6.114-4.52 18.161-34.795 50.397-59.712 84.213-78.237 37.024-20.284 78.23-33.101 119.686-40.466 39.542-7.026 79.441-7.758 119.039-.795 43.632 7.671 85.619 24.131 123.284 47.373 67.054 41.377 117.988 105.862 140.515 181.049-2.441-1.209-4.886-2.311-7.21-3.339-7.81-3.459-17.32-7.652-26.009-7.899-5.716-.163-8.835 7.457-8.836 12.101-.003 19.173 1.834 38.404.933 57.568-.897 19.068-6.006 36.757-15.033 53.557-1.497 2.785-2.882 8.73.804 10.61 3.776 1.923 7.555-2.804 9.058-5.586 10.271-19.027 16.441-39.433 17.707-61.039.958-16.354-.134-32.74-.699-49.11 4.514 1.333 8.951 3.279 13.007 4.961 8.213 3.406 18.226 7.659 23.513 15.187 1.837 2.611 5.472.773 7.193-.853 3.169-2.996 4.592-7.319 3.733-11.546z"/><path d="M298.576 301.037c-4.901 29.079-13.797 57.191-21.467 85.607-7.505 27.805-15.03 57.755-13.371 86.779.271 4.748 5.697.038 5.865-2.7.914-14.945 1.781-29.67 4.307-44.461 2.452-14.354 6.013-28.494 9.795-42.548 7.526-27.961 15.856-55.708 20.424-84.358.232-1.456-.532-3.315-2.306-2.776-1.859.564-2.947 2.681-3.247 4.457z"/><path d="M273.267 457.82c-16.304-10.718-39.048-20.354-56.827-7.251-14.363 10.583-18.247 31.021-17.213 47.739 1.102 17.843 8.287 37.157 22.39 48.745 15.621 12.833 39.672 11.626 53.812-2.983 1.186-1.226 5.197-10.698.467-9.908-8.646 1.446-15.937 6.359-24.939 6.875-7.316.418-14.22-1.933-20.295-5.886-12.673-8.255-19.839-24.37-22.19-38.812-1.939-11.914-1.629-27.686 8.492-36.065 14.836-12.287 38.1-1.719 52.497 5.711 2.957 1.525 6.604-6.324 3.806-8.165zm378.972 51.232c-10.192-6.041-22.253-6.307-33.479-3.35-2.494.657-4.452 7.061-.824 6.332 4.441-.892 8.863-1.161 13.169-.733-5.012 19.387-12.36 37.061-27.191 51.1-14.067 13.317-32.509 20.779-51.215 24.785-20.324 4.354-41.271 4.284-61.812 1.659-20.465-2.615-40.752-8.343-58.75-18.584-17.88-10.174-32.262-25.743-39.217-45.251-.003-.009-.008-.016-.011-.024a25.385 25.385 0 0 1 5.351-1.842c3.343-.738 5.905-9.062 1.083-8.331-11.193 1.7-26.594 10.402-26.631 23.337-.012 3.863 4.438 1.342 5.272-.669.102-.245.218-.474.326-.711.552-.182 1.171-.611 1.834-1.389 2.187-2.562 4.577-4.964 7.224-6.985-.168.688-.195 1.345-.019 1.885 13.301 40.554 54.004 59.785 93.316 66.852 38.35 6.894 82.628 3.718 115.358-19.263 21.621-15.181 36.242-39.62 40.812-65.556a36.015 36.015 0 0 1 11.175 5.037c3.081 2.077 7.684-6.251 4.229-8.299z"/></svg>