<svg xmlns="http://www.w3.org/2000/svg" xmlns:xlink="http://www.w3.org/1999/xlink" width="1030" height="1030" viewBox="0 0 1030 1030"><defs><path id="a" d="M1020.377 515.001c0 279.115-226.264 505.377-505.377 505.377S9.623 794.114 9.623 515.001 235.886 9.622 515 9.622c279.113 0 505.377 226.266 505.377 505.379z"/></defs><clipPath id="b"><use xlink:href="#a" overflow="visible"/></clipPath><g clip-path="url(#b)"><circle fill="#EF6100" cx="516.036" cy="517.213" r="505.378"/><path fill="#EA2700" d="M64.591 301.339c65.697-60.767 147.473-101.363 226.166-142.394 40.816-21.281 80.746-43.73 120.539-66.854 43.207-25.11 87.471-49.598 136.055-62.561l-2.865-37.722C469.49 62.96 382.009 118.799 296.63 176.392c-43.967 29.658-87.432 59.996-129.215 92.682-20.033 15.672-39.121 32.311-60.043 46.828-21.762 15.1-44.41 28.884-66.553 43.409-20.461 13.421-40.42 27.7-58.93 43.736-7.092 6.145-11.695 17.171-10.986 26.521.549 7.209 5.932 13.974 13.85 11.2 98.168-34.394 184.33-95.652 268.734-154.941 42.164-29.617 84.252-59.421 128.115-86.495 19.998-12.341 40.242-24.097 59.857-37.073 21.043-13.919 41.816-28.239 62.965-42.001 37.358-24.313 76.479-48.122 120.034-59.315-2.238-11.117-4.479-22.232-6.717-33.351-3.625 4.497-11.99 11.267-18.963 15.919-10.002 6.67-20.648 12.364-31.156 18.178-23.029 12.742-45.092 27.219-67.553 40.936-51.307 31.332-102.533 62.797-153.852 94.112-51.111 31.188-102.328 62.211-153.791 92.816-45.842 27.263-92.238 53.613-137.738 81.449-57.197 34.991-113.604 73.15-161.328 120.578-6.828 6.784-11.734 16.688-10.986 26.521.559 7.365 5.898 13.78 13.85 11.198 51.945-16.859 99.748-43.608 147.504-69.638 50.273-27.404 102.16-51.78 153.584-76.934 106.723-52.204 213.545-104.201 320.026-156.899 43.588-21.572 87.41-42.348 128.738-68.076 36.969-23.018 73.674-48.996 115.463-62.538-.953-12.575-1.908-25.146-2.863-37.721-32.516 34.457-76.607 55.146-117.221 78.288-50.043 28.516-97.457 62.321-145.694 93.778-48.672 31.741-97.557 62.7-143.463 98.404-36.258 28.201-71.635 58.477-113.408 78.263C166.968 440.29 75.416 461.753 37.56 541.29c-3.076 6.463-5.365 14.316-2.91 21.401 1.744 5.04 7.496 9.095 12.932 6.589C147.67 523.178 241.1 464.948 335.033 407.693c46.518-28.354 93.287-56.325 141.229-82.228 49.124-26.541 100.223-49.029 149.866-74.543 51.182-26.305 101.262-54.686 151.102-83.427-.984-12.997-1.971-25.993-2.959-38.989-89.506 66.279-184.82 124.035-280.239 181.279-95.314 57.186-189.699 115.122-280.916 178.699C148.345 533.63 70.698 560.08 20.878 624.456c-8.811 11.384-11.102 42.221 10.984 31.382 208.227-102.161 408.941-218.58 611.711-330.955 81.105-44.949 162.598-89.213 245.033-131.684l-2.959-38.989C684.77 269.934 489.943 395.938 300.085 528.915 223.16 582.794 147.082 637.887 71.74 693.958c-9.189 6.835-16.062 17.88-15.162 29.76.736 9.699 9.592 15.234 18.121 9.229 43.633-30.724 91.014-55.527 138.016-80.599 48.865-26.063 96.42-53.966 143.453-83.206 97.824-60.818 193.598-125.836 295.821-179.224 79.943-41.755 155.398-91.653 236.617-131.035l-7.131-35.752C726.443 362.758 545.963 469.948 368.333 577.764c-93.445 56.721-186.838 113.71-276.604 176.167-9.318 6.483-16.043 18.146-15.16 29.758.801 10.539 9.316 14.158 18.119 9.23 202.516-113.372 408.094-221.234 609.11-337.292 82.609-47.694 164.385-96.848 244.781-148.196-3.662-10.461-7.324-20.92-10.984-31.381-4.996 7.511-10.377 14.716-16.098 21.688-5.041 6.146-10.836 12.267-18.377 19.708-14.123 13.939-29.658 26.809-45.088 38.273-35.398 26.297-73.572 48.73-112.082 70.107-37.449 20.789-75.582 40.312-113.115 60.945-42.605 23.422-83.6 49.658-124.551 75.827-65.342 41.753-130.41 84.796-198.977 121.15-60.084 31.858-124.111 59.162-173.205 107.688-6.838 6.763-11.73 16.707-10.986 26.522.621 8.163 5.797 12.765 13.852 11.198 27.105-5.267 51.928-18.041 75.645-31.759 24.854-14.379 49.684-28.81 74.537-43.192a10595.979 10595.979 0 0 0 152.23-89.771c49.531-29.772 100.038-57.95 150.667-85.822 50.375-27.729 102.133-51.93 153.664-77.322 67.275-33.148 131.117-72.729 197.158-108.185l-10.984-31.383c-5.504 7.192-9.137 10.836-17.041 18.057-7.752 7.076-15.979 13.312-24.516 19.367-18.807 13.338-38.715 25.094-58.617 36.699-43.186 25.18-85.119 51.793-126.225 80.276-91.949 63.715-180.73 131.845-272.465 195.851-62.607 43.68-127.02 85.396-195.645 119.062l2.959 38.99c48.338-27.513 98.725-51.109 148.234-76.384 25.084-12.807 49.887-26.168 74.096-40.571 24.189-14.391 46.896-30.896 69.811-47.201 23.254-16.545 46.578-32.993 70.564-48.466 23.51-15.167 48.084-28.535 72.547-42.078 48.809-27.02 97.926-53.479 146.338-81.21 61.396-35.17 121.518-72.686 178.057-115.307-3.66-10.461-7.322-20.922-10.984-31.382-59.98 69.826-146.117 119.632-225.496 166.939-91.051 54.269-181.008 110.706-269.409 169.204-41.195 27.26-81.385 55.869-121.203 85.092-39.395 28.913-78.961 57.731-121.234 82.347-9.594 5.584-15.992 18.821-15.16 29.759.84 11.066 9.201 13.475 18.119 9.23 100.961-48.053 196.104-107.057 291.245-165.518 47.797-29.37 95.674-58.625 144.387-86.46 47.674-27.237 96.568-52.016 145.609-76.669 75.025-37.713 150.203-76.055 218.389-125.428l-7.131-35.751c-33.609 33.213-76.09 55.599-117.895 76.72a4038.336 4038.336 0 0 0-133.637 70.689C696.285 642.5 596.455 696.587 500.195 756.758c-39.695 24.813-79.178 50.248-116.168 78.982-32.521 25.263-64.553 53.299-102.398 70.431-8.955 4.054-15.02 11.32-17.994 20.765-1.854 5.884-3.031 24.237 8.273 22.726 45.447-6.074 87.678-22.926 128.725-42.8 43.947-21.275 85.809-46.649 127.571-71.857 92.4-55.778 188.994-103.604 284.818-153.169 30.957-16.012 61.801-31.989 92.062-49.282l89.188-50.968c9.619-5.496 15.986-18.892 15.162-29.759-.805-10.575-9.309-14.111-18.121-9.229-104.188 57.711-206.854 118.117-308.768 179.746C631.4 753.275 580.459 784.533 529.6 815.93c-44.668 27.573-85.542 60.625-129.553 89.188-21.203 13.757-43.262 26.518-67.016 35.328l-1.309 40.958C503.589 874.062 701.895 821 881.025 728.062c47.312-24.547 93.092-52.107 136.094-83.643 9.217-6.758 16.057-17.938 15.16-29.76-.76-9.986-9.486-14.867-18.119-9.229-189.895 124.01-375.484 255.294-574.297 364.989a2771.025 2771.025 0 0 1-59.693 31.968l7.133 35.753c73.348-58.31 162.889-92.968 248.278-129.313 44.957-19.136 89.82-38.741 132.914-61.835 22.314-11.959 44.492-24.162 66.002-37.533 23.461-14.584 46.566-29.751 71.246-42.24l-14.291-26.021c-3.254 5.631 2.838-4.268-.768 1.271-1.092 1.673-2.266 3.292-3.438 4.908-1.197 1.657-2.473 3.257-3.742 4.856-.225.285-4.668 5.495-1.594 2.025-6.42 7.245-13.553 13.844-20.877 20.158-14.344 12.364-31.18 23.663-48.141 34.454-35.631 22.667-73.098 42.25-109.025 64.42-39.857 24.595-76.527 54.362-114.17 82.133-42.477 31.335-86.008 61.829-133.524 85.104-8.504 4.165-17.23 7.841-26.043 11.295.953 12.572 1.908 25.146 2.865 37.721 61.736-53.27 143.856-80.491 220.311-108.335 80.787-29.419 162.883-61.466 226.773-120.972 7.469-6.955 14.516-14.354 21.266-22.004 7.164-8.118 13.979-19.857 10.072-31.133-3.469-10.01-15.477-8.066-21.377-1.381-114.229 129.438-307.648 132.047-443.065 231.178a405.272 405.272 0 0 0-25.289 20.133c-7.098 6.125-11.693 17.185-10.986 26.522.529 6.965 5.992 14.28 13.852 11.197 97.135-38.068 176.129-109.005 260.493-168.247 66.98-47.033 147.924-76.376 205.264-136.568 10.396-10.916 19.23-22.635 26.766-35.684 7.1-12.287 4.061-35.306-14.291-26.021-23.682 11.983-45.959 26.396-68.422 40.475-22.414 14.05-45.566 26.728-68.828 39.299-42.021 22.706-85.975 41.566-129.891 60.243-90.248 38.378-182.231 75.838-259.649 137.379-7.225 5.744-11.672 17.469-10.986 26.521.82 10.785 9.26 13.842 18.121 9.23C584.75 936.47 771.74 806.556 960.965 681.343a11124.478 11124.478 0 0 1 56.154-36.924l-2.959-38.989C850.088 725.749 651.648 782.421 469.113 867.284c-48.146 22.383-95.297 46.992-140.35 75.131-8.23 5.139-13.766 14.978-14.994 24.479-1.041 8.054 3.029 20.431 13.686 16.479 48.652-18.046 91.168-48.993 132.91-79.128 45.076-32.542 91.928-61.576 139.313-90.626 101.836-62.436 204.242-123.967 307.943-183.265a7351.688 7351.688 0 0 1 86.65-48.766c-.984-12.996-1.971-25.993-2.959-38.988-51.547 29.457-102.699 59.619-155.438 86.898-53.777 27.817-107.557 55.633-161.336 83.449-43.93 22.723-87.301 45.755-129.695 71.245-41.772 25.118-83.297 50.7-126.524 73.278-41.221 21.529-86.023 41.922-132.549 48.141-3.242 14.498-6.482 28.993-9.721 43.49 47.461-21.483 85.908-55.805 127.178-86.811 44.623-33.523 92.951-62.742 140.678-91.576 96.971-58.587 197.004-111.868 295.91-167.064 73.6-41.076 157.645-70.725 218.6-130.964 6.844-6.76 11.734-16.708 10.988-26.521-.729-9.591-9.635-15.373-18.119-9.229-88.588 64.145-188.592 109.527-285.451 159.373-99.426 51.166-193.672 111.625-289.094 169.731-73.312 44.644-147.525 88.053-225.084 124.969l2.959 38.989c49.188-28.641 94.676-62.945 140.543-96.504 46.479-34 94.139-66.235 142.512-97.467 87.035-56.191 175.352-110.046 263.912-163.752 74.691-45.295 149.066-94.295 206.426-161.075 5.67-6.597 9.146-18.316 6.219-26.761-2.553-7.37-11.105-9.217-17.203-4.62-89.627 67.563-188.064 121.632-286.238 175.511-49.33 27.073-98.406 53.916-144.789 85.881-23.352 16.091-46.289 32.776-69.5 49.068-23.09 16.205-47.426 30.418-72.158 43.965-61.564 33.727-125.932 62.054-186.961 96.791-9.623 5.477-15.984 18.906-15.16 29.76.834 10.973 9.219 13.596 18.119 9.23 98.893-48.512 189.043-113.175 277.801-177.872 89.326-65.108 177.656-132.874 271.783-191.008 55.477-34.265 120.369-62.552 160.975-115.647 5.391-7.048 9.266-17.969 6.219-26.763-2.84-8.196-10.652-8.139-17.203-4.62-49.322 26.479-97.432 55.121-146.602 81.871-49.908 27.152-102.033 49.65-152.422 75.84C537.59 565.519 438.343 626.223 337.974 685.06a11425.55 11425.55 0 0 1-97.148 56.283c-30.904 17.713-60.723 37.979-96.279 44.889.953 12.572 1.908 25.146 2.865 37.721 33.756-33.367 76.162-55.738 118.041-77.181 45.688-23.39 90.238-48.038 134.127-74.68 87.6-53.175 171.682-111.858 262.071-160.353 54.957-29.484 110.545-57.98 162.961-91.898 49.711-32.166 98.854-70.181 131.994-120.016 5.023-7.557 9.406-17.564 6.217-26.762-2.699-7.791-10.854-8.675-17.203-4.621-195.874 125.101-399.874 236.655-603.806 347.893-83.529 45.561-167.062 91.117-250.084 137.596l2.959 38.988C265.64 673.978 449.087 574.513 622.932 460.024c94.264-62.08 185.904-128.777 269.846-204.379 7.025-6.327 11.709-17.035 10.988-26.521-.836-11.01-9.213-13.55-18.119-9.23-51.248 24.849-100.297 53.832-149.525 82.396-49.635 28.8-100.664 55.019-150.33 83.749-99.657 57.645-195.211 122.086-293.78 181.536-72.496 43.724-150.877 77.517-220.271 126.384.984 12.996 1.973 25.992 2.959 38.988 185.01-137.684 374.571-269.339 569.657-392.374 80.434-50.727 161.85-99.902 244.248-147.373 9.605-5.535 15.986-18.861 15.16-29.76-.82-10.815-9.25-13.799-18.119-9.229C679.471 260.432 479.433 377.96 275.685 488.664c-81.457 44.258-163.553 87.353-246.783 128.186l10.984 31.383c25.777-33.308 66.305-56.533 103.789-77.647 19.877-11.199 39.891-22.157 59.18-34.356 21.947-13.881 42.736-29.654 64.246-44.203 92.357-62.464 188.979-118.262 284.29-176.013 77.076-46.703 153.375-94.857 225.838-148.517 9.197-6.81 16.061-17.9 15.162-29.76-.793-10.436-9.346-14.29-18.121-9.229-48.863 28.18-97.98 55.93-148.08 81.867-49.613 25.688-100.764 48.179-150.024 74.562-96.332 51.593-187.564 112.021-281.984 166.92-45.945 26.715-92.727 52.251-141.018 74.497 3.338 9.33 6.68 18.662 10.023 27.99a166.06 166.06 0 0 1 2.938-5.881c.275-.53 3.928-6.72 1.068-2.127 2.277-3.657 4.846-7.124 7.492-10.519.168-.216 4.738-5.591 1.715-2.197 1.436-1.612 2.949-3.157 4.455-4.703 3.553-3.637 7.365-7.009 11.248-10.285 4.771-4.025 12.174-9.079 19.404-13.619 8.459-5.309 17.279-10.026 26.193-14.511 34.469-17.342 71.242-29.699 106.113-46.215 43.148-20.439 79.836-52.666 117.23-81.818 44.832-34.949 93.141-64.874 140.709-95.896 48.04-31.33 95.284-64.804 145.127-93.205 42.926-24.461 88.732-46.937 123.102-83.359 6.684-7.084 11.75-16.467 10.986-26.521-.559-7.366-5.898-13.776-13.852-11.199-49.908 16.174-93.238 47.806-137.598 74.86-48.914 29.833-102.049 53.269-153.393 78.592-106.676 52.613-213.652 104.618-320.469 156.94-43.396 21.257-86.619 42.541-129.029 65.714-40.359 22.048-80.936 43.731-124.824 57.979.955 12.574 1.91 25.146 2.863 37.722 72.182-71.732 163.5-120.634 250.486-171.761 103.369-60.754 205.492-123.592 307.752-186.184 31.838-19.49 63.29-39.892 95.545-58.647 28.137-16.359 57.43-30.229 78.301-56.136 6.781-8.413 13.281-38.49-6.715-33.35-47.429 12.188-90.468 38.452-131.14 64.922-21.107 13.74-41.834 28.054-62.84 41.949-19.621 12.977-39.934 24.667-59.938 37.012-88.902 54.875-170.566 120.623-260.035 174.661C76.087 360.719 34.5 382.364-9.665 397.84c.953 12.572 1.908 25.147 2.863 37.721 39.102-33.88 85.59-57.931 127.508-87.985 21.176-15.182 40.631-32.546 61.217-48.488 20.627-15.977 41.773-31.276 63.117-46.279 86.076-60.504 176.02-115.53 257.791-181.999 18.235-14.82 35.917-30.312 52.963-46.484 6.924-6.571 11.721-16.852 10.986-26.521-.586-7.715-5.842-13.337-13.852-11.199C503.625-.24 458.107 24.438 414.133 49.748c-40.957 23.574-81.775 46.956-123.684 68.825-82.873 43.245-167.967 86.252-237.164 150.254-7.748 7.166-13.723 20.591-10.07 31.133 3.689 10.637 15.029 7.252 21.376 1.379z"/></g><path fill="#FFE5B8" d="M348.843 279.614c26.113-5.537 50.418-18.476 77.074-21.554l-1.289-16.985c-14.141 16.423-35.787 25.422-55.109 34.056-20.197 9.024-40.295 17.936-57.59 31.987-4.641 3.767-9.713 21.729 1.434 18.892 66.787-17.012 128.121-51.434 196.504-62.771-1.121-5.569-2.242-11.136-3.365-16.704-1.176 1.796-5.559 2.542-7.486 3.392-5.312 2.34-8.898 7.463-9.648 13.247-.486 3.761 1.564 10.583 6.855 8.253 7.859-3.46 14.826-5.387 19.801-12.983 3.16-4.825 6.951-18.413-3.364-16.704-68.381 11.336-129.717 45.763-196.504 62.77l1.434 18.894c35.869-29.139 85.387-34.212 116.559-70.418 2.43-2.822 7.08-17.952-1.289-16.985-28.223 3.259-53.625 16.266-81.223 22.115-8.794 1.864-14.899 24.064-2.794 21.498zm44.615 435.167l-.003.005zm-94.855-243.44c-11.17-10.627-28.002-24.723-44.758-18.01-18.83 7.541-28.82 28.697-30.479 47.956-2.029 23.598 7.67 70.093 41.121 60.725 13.721-3.845 24.676-16.311 32.6-27.428 5.506-7.72 11.197-21.809 4.246-30.492-6.922-8.64-18.736.296-23.287 6.68a104.83 104.83 0 0 1-4.252 5.576c-2.693 3.289 3.887-4.255 1.107-1.265a54.303 54.303 0 0 1-2.02 2.024 45.363 45.363 0 0 1-1.98 1.772c-2.693 2.316 4.383-3.245 1.602-1.257-1.178.843-2.438 1.555-3.73 2.2 5.988-2.986 1.975-.953.146-.509-2.537.617 4.447-.466 1.898-.224-.541.053-1.086.043-1.631.032-1.594-.029-5.314-1.232.178.365-1.18-.343-2.285-.898-3.344-1.512-3.416-1.98.328.504-.023.188-.865-.77-1.637-1.641-2.379-2.527-.789-.937-1.482-1.946-2.15-2.97-.35-.533-.668-1.085-.988-1.633-1.312-2.258 2.141 4.245.475.774-1.197-2.492-2.121-5.112-2.912-7.761-.412-1.373-.748-2.768-1.064-4.166-.682-3.024.908 4.836.361 1.779a67.86 67.86 0 0 1-.438-2.871c-.383-2.85-.539-5.726-.539-8.599-.002-3.246-.238 5.708-.086 2.49.033-.689.092-1.374.15-2.062.113-1.331.309-2.655.533-3.974.764-4.469-1.775 6.612-.248 1.362.17-.584.371-1.159.574-1.73 1.107-3.145-2.855 6.671-1.502 3.664 2.277-5.073-2.207 3.193-1.391 1.992 2.818-4.147-4.771 4.541-1.086 1.292-5.23 4.607-4.119 3.07-2.559 2.056 1.248-.808 3.744-1.743-2.494 1.046.949-.424 1.965-.672 2.98-.859-5.857 1.086-2.031.305-.197.44.623.046 1.238.153 1.854.261 2.377.412-4.141-1.291-.492-.103 3.225 1.052 6.217 2.772 9.055 4.599 1.781 1.146 3.473 2.429 5.139 3.734-3.08-2.412.145.146.631.57 1.318 1.145 2.584 2.341 3.848 3.545 7.967 7.579 17.908.588 23.287-6.68 4.916-6.639 12.019-23.09 4.244-30.49zm467.811 27.764c.686-.849 4.668-5.293.539-.766 1.312-1.438 2.73-2.772 4.178-4.079 2.908-2.622-3.926 2.573.727-.453 4.188-2.725-2.301.714.281-.287 4.715-1.831-2.193-.667 2.396-.371 3.834.25-2.408-.932-.17-.085.941.354 1.801.892 2.641 1.437 2.461 1.604-2.803-2.558-.623-.483.799.763 1.492 1.639 2.166 2.513.721.932 1.332 1.945 1.934 2.955-2.617-4.413-.391-.578.096.534.936 2.154 1.641 4.404 2.275 6.662.34 1.202 1.361 6.195.252.513.273 1.4.471 2.815.662 4.229.328 2.476.48 4.972.557 7.47.049 1.542-.205 6.841.098-.06-.059 1.343-.193 2.681-.34 4.02-.104.965-.26 1.925-.418 2.881-.617 3.726 1.65-6.306.248-1.229-.57 2.075-2.596 6.434.979-1.904-.895 2.084-3.52 5.432 1.488-2.09-1.881 2.821 4.426-4.65 2.104-2.31-.072.073 3.727-2.501 5.334-3.188-3.26 1.395 3.525-.094 1.09.002-1.342.052-4.291-.969.322.398-2.025-.601-3.857-1.795-5.568-2.998-1.283-.984-1.154-.865.387.354a47.054 47.054 0 0 1-1.846-1.727c-1.381-1.326-2.645-2.775-3.896-4.223l-12.283 38.114c27.775-14.801 38.365-45.893 30.641-75.365l-26.486 35.977c10.719 3.795 21.422 5.779 30.117-3.65 6.35-6.891 10.113-14.396 11.59-23.637.377-2.369.205-4.825.252-7.228.016-2.094-.021-1.373-.105 2.167.721-5.75-1.02-1.663-5.219 12.262 5.938-7.262 10.924-22.154 4.244-30.492-7.148-8.924-18.385.681-23.285 6.68-4.9 5.993-7.102 13.078-8.631 20.509-.432 2.104-.311 5.854-.324 7.359a90.12 90.12 0 0 0-.014 2.078c-.209-4.375.791-8.548 2.994-12.519l7.172-9.747c10.029-2.947 12.646-4.429 7.844-4.438-1.762-.087-3.553-.93-5.158-1.496-18.064-6.397-30.113 22.132-26.488 35.974.666 2.536.746 3.164 1.014 5.704.613 5.835 1.4-2.609-.123 2.275.586-1.874 1.279-3.566 2.662-5.001-1.637 1.7-2.691 1.951-5.66 3.535-10.473 5.58-21.514 27.465-12.285 38.111 11.906 13.73 29.486 22.023 43.945 5.808 13.967-15.667 18.457-36.219 16.621-56.803-1.342-15.035-6.141-32.369-19.496-41.065-18.533-12.067-40.219 10.649-50.471 23.359-5.895 7.309-10.949 22.12-4.246 30.493 7.125 8.898 18.416-.642 23.285-6.679z"/><path fill="#FFE5B8" d="M751.443 563.847c18.742 0 34.877-44.124 13.887-44.124-18.742 0-34.879 44.124-13.887 44.124z"/><path fill="#FFE5B8" d="M799.529 547.149c17.783-16.999 30.406-41.219 24.623-66.271-4.529-19.628-21.162-33.738-38.652-42.049-17.938-8.521-39.176 33.744-21.475 42.157 10.326 4.903 18.836 10.983 25.311 20.519.984 1.446 1.52 3.121 2.135 4.751.189.503.713 5.335.828 3.656.242-3.493-1.553 3.583.035.236.74-1.564-3.66 3.986-4.129 4.435-7.674 7.335-13.787 20.505-10.086 31.183 3.654 10.554 15.117 7.4 21.41 1.383z"/><path fill="#61E9FF" d="M266.941 935.895c26.58 26.04 62.562 38.171 98.195 45.902 38.762 8.415 78.66 10.741 118.188 12.394 44.549 1.862 89.237 2.145 133.51-3.837 46.326-6.261 90.623-20.253 133.201-39.355 6.752-3.026 11.094-10.851 9.273-18.2-19.271-77.818-69.924-148.64-147.871-175.269-38.049-12.997-78.607-12.379-118.278-10.554-35.709 1.64-71.779 6.134-105.932 17.022-35.115 11.197-67.662 30.706-89.803 60.66-26.176 35.408-32.57 80.548-29.207 123.46.967 12.332 14.383 1.902 15.947-4.79 8.07-34.475 13.555-70.144 26.717-103.175 11.73-29.441 34.16-49.577 63.688-60.438 20.445-7.517 42.469-10.415 63.779-14.47 22.859-4.348 45.785-8.382 68.963-10.615 44.807-4.313 90.6-.484 129.536 23.876 34.074 21.317 60.318 59.246 74.348 96.405 6.305 16.699 10.545 36.063 6.422 53.812-4.447 19.153-18.848 30.312-35.48 39.047-39.045 20.499-86.123 23.903-129.4 23.714-43.596-.188-88.028-4.495-131.006-11.802-50.664-8.609-102.344-23.625-145.27-52.703-7.861-5.326-19.086 15.421-10.734 21.078 40.926 27.726 89.592 42.211 137.68 51.61 42.957 8.398 87.615 12.475 131.336 13.697 71.271 1.992 197.455-8.723 200.961-103.76 1.453-39.41-18.539-77.439-41.65-108.078-26.393-34.991-61.885-58.093-104.973-66.699-44.252-8.842-90.553-1.553-134.362 6.388-39.146 7.096-81.324 11.817-114.119 36.357-51.145 38.269-58.162 107.372-71.66 165.056 5.314-1.599 10.631-3.194 15.947-4.793-2.756-35.155.994-71.876 22.061-101.272 18.143-25.318 46.637-40.702 75.57-50.438 34.039-11.453 70.236-15.551 105.949-17.191 40.172-1.849 80.848-2.002 119.055 12.096 72.219 26.641 118.09 94.192 136.035 166.668 3.094-6.064 6.182-12.131 9.273-18.199-41.09 18.434-83.742 32.101-128.361 38.683-43.609 6.434-88.082 5.811-132.004 4.035-37.795-1.526-75.66-3.885-112.883-10.958-35.104-6.668-72.754-18.356-98.877-43.95-7.846-7.689-20.329 12.155-13.764 18.586z"/><path fill="#61E9FF" d="M286.072 886.653c17.467-21.032 31.939-41.091 49.779-58.229 18.467-17.744 42.172-29.286 68.908-35.89-.955-12.595-1.912-25.188-2.869-37.781-39.963 36.539-88.711 64.183-118.484 110.815-4.92 7.705-9.461 17.479-6.229 26.806 2.949 8.511 10.539 7.746 17.23 4.626 34.668-16.154 64.686-40.599 95.977-62.229 29.957-20.709 63.086-41.363 100.291-44.402.428-12.782.854-25.564 1.279-38.345-30.994 31.989-72.986 51.99-111.873 75.701-42.113 25.675-81.584 57.5-102.719 103.257-4.611 9.983-7.27 31.352 10.041 28.037 23.447-4.492 44.943-17.85 64.406-31.098 21.568-14.689 41.738-31.314 62.67-46.873 21.432-15.926 44.707-29.41 67.334-43.543 26.389-16.484 53.514-32.032 83.971-39.512l-12.438-22.2c-.412 1.279-3.295 8.654-.666 2.406-.922 2.191-2.002 4.313-3.096 6.426-.59 1.133-4.848 7.982-1.32 2.468-1.682 2.629-3.537 5.144-5.424 7.629-1.549 2.048-3.203 4.013-4.865 5.968 3.324-3.91-2.219 2.275-2.838 2.921-4.305 4.47-8.906 8.65-13.592 12.719-9.272 8.048-16.647 13.3-27.721 20.879-11.715 8.02-23.787 15.518-35.91 22.905-44.381 27.038-94.727 51.701-129.713 91.142-6.543 7.376-11.785 16.28-11.006 26.566.611 8.023 5.818 12.979 13.873 11.218 55.475-12.139 100.463-52.354 144.168-86.081 22.975-17.731 46.739-32.707 72.006-46.936 29.066-16.367 58.082-32.896 85.588-51.812-4.771-8.687-9.545-17.378-14.314-26.064a162.109 162.109 0 0 1-7.113 13.715c2.604-4.498-1.215 1.85-1.477 2.246-1.674 2.543-3.469 5.009-5.275 7.46-7.299 9.907-12.059 14.834-21.506 23.978-17.369 16.81-36.168 30.634-56.154 44.168-39.377 26.669-81.543 48.923-120.92 75.571-8.158 5.52-13.754 14.733-15.02 24.52-.955 7.397 3.156 21.328 13.707 16.507 44.623-20.395 90.186-38.817 133.399-62.167 21.912-11.838 42.99-25.193 62.742-40.376 19.941-15.332 37.443-33.986 59.223-46.808-3.668-10.477-7.336-20.954-11.002-31.434-50.045 62.726-117.285 108.7-183.008 153.402-9.375 6.379-16.061 18.269-15.186 29.811.83 10.901 9.252 13.734 18.15 9.245 78.157-39.427 144.415-102.533 227.709-131.761-3.35-9.344-6.693-18.69-10.041-28.035a116.978 116.978 0 0 1-2.127 4.041c-3.525 6.524 2.617-3.805-1.412 2.407-2.48 3.825-5.281 7.434-8.16 10.964-1.152 1.416-3.664 4.067-7.105 7.473-3.342 3.307-6.879 6.416-10.453 9.467-13.146 11.221-30.307 21.914-46.225 31.716-33.111 20.388-68.223 39.817-94.746 68.834-6.618 7.24-11.78 16.384-11.006 26.565.59 7.776 5.844 13.295 13.875 11.217 72.043-18.64 127.441-72.722 192.592-105.682l-16.711-20.229c-.336 1.407-3.033 8.542-.443 2.584a50.042 50.042 0 0 1-1.664 3.295c1.729-2.653 1.826-2.82.299-.505-1.477 2.226-3.184 4.3-4.891 6.351 2.898-3.483-2.879 2.766-3.477 3.35-8.99 8.774-16.982 14.244-27.557 21.446-20.781 14.163-43.031 26.605-61.873 43.422-7.051 6.293-11.721 17.094-11.004 26.563.512 6.707 6.078 14.646 13.875 11.219 43.607-19.175 86.57-42.628 133.732-51.856 17.643-3.453 29.938-47.764 5.586-42.998-47.16 9.229-90.123 32.684-133.732 51.856l2.869 37.782c5.219-4.656 4.664-4.134 9.883-7.916 5.541-4.015 11.268-7.78 16.99-11.537 12.303-8.072 24.74-15.936 36.709-24.508 23.273-16.667 48.184-38.013 55.156-67.145 3.025-12.645-.898-28.229-16.713-20.228C646.79 897.615 593.665 950.1 524.97 967.875c.955 12.594 1.912 25.188 2.869 37.782 26.291-28.767 61.434-46.7 94.914-67.64 35.719-22.337 70.021-48.499 89.656-86.756 4.156-8.097 7.094-34.047-10.039-28.035-86.596 30.384-155.117 94.772-236.26 135.701l2.965 39.056c72.131-49.062 144.213-99.864 199.084-168.644 5.504-6.896 9.236-18.122 6.227-26.805-2.771-7.999-10.768-8.434-17.229-4.628-21.572 12.697-39.16 30.497-58.479 46.159-18.75 15.204-39.693 27.874-60.773 39.539-41.129 22.76-84.872 40.195-127.561 59.706l-1.312 41.025c41.555-28.121 86.066-51.555 127.424-80.009 42.691-29.376 85.662-64.978 107.725-113.107 3.006-6.557 5.398-14.27 2.914-21.438-2.641-7.618-10.977-8.928-17.23-4.626-50.439 34.69-106.609 59.74-155.305 96.987-42.059 32.169-84.666 72.249-137.904 83.896l2.869 37.783c17.312-19.52 34.176-30.831 56.117-44.985 24.08-15.533 49.039-29.651 73.424-44.688 46.094-28.423 97.266-62.802 114.739-116.955 3.086-9.562 1.305-25.575-12.436-22.199-30.168 7.406-57.897 22.383-84.293 38.383-23.41 14.191-47.338 28.325-69.605 44.267-21 15.031-40.91 31.532-61.934 46.545-18.922 13.515-39.322 27.382-62.549 31.83 3.348 9.344 6.693 18.692 10.041 28.035 8.822-19.097 18.432-30.782 35.549-45.897 15.201-13.425 34.156-25.264 52.797-36.411 38.832-23.223 80.061-44.29 111.904-77.157 5.67-5.854 9.779-13.09 10.838-21.276.762-5.889-.928-17.774-9.559-17.068-84.623 6.911-140.129 77.688-213.115 111.703 3.666 10.479 7.336 20.956 11.002 31.434 27.16-42.536 73.803-68.264 110.77-102.062 7.008-6.408 11.729-17.009 11.006-26.566-.598-7.848-5.838-13.2-13.875-11.217-31.02 7.66-58.734 21.954-82.547 43.278-23.002 20.604-41.123 46.367-60.77 70.023-5.986 7.207-10.889 22.195-4.244 30.493 7.175 8.96 18.343-.727 23.287-6.678z"/><path fill="#FFE5B8" d="M437.449 737.818c-3.23 18.111-1.59 37.522 9.682 52.649 9.311 12.497 25.141 18.318 40.133 19.686 37.129 3.396 73.333-21.605 88.69-54.412 3.346-7.148 7.938-22.969-2.096-27.616-16.852-7.807-39.303-4.043-56.521.229-24.069 5.973-50.088 25.556-43.616 53.701 2.211 9.615 12.389 15.63 20.775 19.15 12.633 5.302 27.59 4.633 40.04-.751 14.848-6.419 27.287-18.321 33.711-33.298 7.836-18.27 7.182-35.534-2.277-52.917-5.461-10.032-19.596 1.693-23.287 6.679-6.572 8.879-9.689 20.491-4.246 30.495 1.369 2.514 1.943 5.017 2.178 7.45-.332-3.441-1.137 4.184.227-.829 1.613-5.938-2.271 2.687 1.215-2.382 2.6-3.778-.904.817-1.654 1.488 2.758-2.466-2.502 1.265-2.67 1.359-.479.266-5.703 1.921-7.93 2.145-7.773.781-14.407-1.356-21.059-5.173-3.377-1.94-1.643-.335-4.092-3.584 4.072 5.397-.949 18.189-6.814 24.648 1.506-1.396.924-1.01-1.752 1.158.955-.742 2.016-1.35 3.055-1.962.736-.435 4.742-2.231.635-.425 1.375-.605 2.793-1.112 4.205-1.622 6.326-2.288 12.983-3.673 19.612-4.732 2.586-.415 11.123-.916 16.045-.82 2.916.058 5.818.35 8.699.796.641.097 4.693 1.229 1.051.156 1.037.304 2.02.742 2.996 1.196-.697-9.208-1.396-18.412-2.096-27.617a57.866 57.866 0 0 1-1.561 3.209c-2.721 5.39 2.996-4.334-.305.651-.955 1.446-2.033 2.81-3.109 4.171 3.506-4.433.02-.087-.762.708-.889.901-7.412 6.182-3.621 3.361-2.721 2.022-5.654 3.745-8.631 5.358-1.914.942-2.006 1.02-.275.234-1.527.697-3.1 1.29-4.668 1.882-3.113 1.179-6.332 2.048-9.568 2.804-4.405 1.03-3.528.78-7.137 1.051-3.164.237-6.34.148-9.5-.062-6.67-.445-8.451-1.032-13.727-3.228-2.225-.93-4.316-2.126-6.357-3.397-2.945-1.839-1.527-.712-4.562-3.921-1.654-1.752-3.021-3.743-4.299-5.776 1.805 2.869-.508-1.271-.674-1.665-.613-1.439-1.051-2.945-1.492-4.441-1.457-4.961.398 3.458-.342-1.882-.244-1.758-.301-3.539-.363-5.311-.205-5.962-.387 3.887.186-2.381.193-2.081.566-4.142.932-6.197 1.549-8.677-3.283-19.672-13.707-16.505-11.127 3.38-17.414 15.932-19.297 26.492z"/><path fill="#FFE5B8" d="M464.576 740.381c-.93 35.256 27.17 62.548 62.295 61.179 43.848-1.706 70.863-46.222 63.83-87.2-1.68-9.794-8.783-15.022-18.148-9.246-8.859 5.465-17.029 19.059-15.186 29.809.656 3.815 1.068 7.603 1.178 11.476-.154-5.524-1.957 10.094-.061 2.184-.352 1.469-.859 2.894-1.365 4.312 2.33-6.53.791-2.147-.027-.61 3.287-6.16 1.365-2.227.262-.741-2.922 3.938 3.682-3.781.252-.339-.867.871-4.508 3.683.084.206-1.066.807-2.211 1.506-3.35 2.203-.768.469-4.838 2.411-.508.457-1.229.555-2.508.999-3.781 1.443-2.58.898-5.266 1.461-7.951 1.919 3.217-.55-4.146.077-5.512.062-6.521-.076-9.979-.97-14.006-2.395-2.643-.934-5.162-2.176-7.618-3.519-1.229-.67-2.395-1.445-3.561-2.218-.258-.169-3.82-2.995-1.395-.937-2.152-1.828-4.033-3.946-5.797-6.142-.898-1.116-1.68-2.318-2.459-3.518-2.539-3.901 1.244 2.817-.773-1.463-1.307-2.771-2.164-5.73-2.875-8.703.943 3.946-.006-1.321-.055-1.825-.236-2.311-.201-4.64-.141-6.957.279-10.582-10.145-14.184-18.15-9.244-10.258 6.327-14.88 18.294-15.182 29.807z"/><path d="M292.158 466.83c-15.953-10.486-38.209-19.917-55.607-7.095-14.053 10.356-17.854 30.354-16.842 46.713 1.078 17.459 8.109 36.358 21.91 47.696 15.283 12.559 38.818 11.379 52.654-2.918 1.16-1.2 5.086-10.469.457-9.695-8.459 1.415-15.594 6.223-24.402 6.727-7.16.41-13.914-1.89-19.861-5.759-12.398-8.076-19.41-23.847-21.711-37.979-1.898-11.657-1.596-27.09 8.309-35.289 14.518-12.023 37.279-1.684 51.369 5.588 2.892 1.493 6.464-6.187 3.724-7.989z"/><path fill="#FFE5B8" d="M787.666 368.631c-2.988-3.396-7.311-4.453-12.154-2.916-.602.19-1.205.384-1.803.573l.002-.104-.385.227a80.016 80.016 0 0 1-8.613 2.256c.389-1.933.092-3.819-1.264-4.797 1.15-1.9 1.662-4.28 1.006-5.899-7.758-19.164-18.508-37.75-35.131-50.519-1.543-1.184-2.977-.423-4.107 1.075a161.111 161.111 0 0 0-4.385-14.865c-6.795-19.616-17.643-38.57-32.268-53.395-2.305-2.336-5.395.791-6.416 2.906-4.676 9.674-5.342 19.846-3.57 29.856a64.047 64.047 0 0 0-1.031 2.735 91.8 91.8 0 0 0-12.209-9.948c-3.314-2.255-6.506 4.415-6.871 6.576-2.332 13.81 1.154 26.879 7.75 38.498a47.251 47.251 0 0 0-8.607-3.238c-3.408-.911-6.939 3.791-6.535 7.313-7.672-1.224-15.621-4.543-20.971-6.763a202.682 202.682 0 0 1-8.402-3.738c-36.889-19.455-75.104-36.559-114.502-50.012-1.656-5.675-5.865-9.061-11.613-9.061-2.715 0-5.652.811-8.5 2.341-.08.045-.162.086-.242.129-.209-.063-.418-.129-.629-.193-1.602-2.504-3.279-4.965-5.078-7.347-6.469-8.563-15.357-16.586-25.754-19.794-14.469-4.467-28.303-.251-41.123 6.974-1.826 1.029-3.533 2.352-5.098 3.888-6.809.82-13.494 3.616-19.467 7.03-9.295 5.313-15.541 17.986-15.225 28.652A180.14 180.14 0 0 0 359.1 283.71c1.641-6.387 3.049-12.842 5.064-19.252a5.18 5.18 0 0 0 .145-.463c.025-.083.049-.166.076-.249.467-1.45.25-2.938-.404-3.885-.727-1.379-2.156-1.856-4.125.154a89.012 89.012 0 0 0-2.373 2.534c-8.586 8.999-16.467 19.137-21.715 30.456-2.414 4.04-4.357 8.27-4.633 13.132-.223 3.923 2.24 4.067 4.312 2.616.035.052.062.113.1.161a75.949 75.949 0 0 0-.752 9.724c-.014 1.055.236 1.708.629 2.087a200.77 200.77 0 0 0-1.219 2.513c-19.018 11.468-37.162 24.449-53.643 39.908-6.062 5.687-10.324 14.05-11.398 22.372-.486 3.767-.25 11.354 3.732 15.882 1.98 2.251 4.633 3.361 7.713 3.237 9.771-.443 19.834-1.633 30.445-3.609-8.514 4.216-16.232 8.604-23.338 13.267-8.418 5.523-14.482 15.41-15.824 25.809-.602 4.64 0 11.541 3.674 15.72 1.955 2.225 4.598 3.402 7.695 3.402 19.098-.08 39.119-1.7 60.834-4.94-24.754 10.658-50.455 22.343-75.377 36.362-9.377 5.274-14.758 16.797-15.932 25.874-.775 6.007.594 11.678 3.66 15.168 2.928 3.334 7.27 4.53 12.271 3.34 20.418-4.843 38.336-9.242 54.795-13.469a1726.269 1726.269 0 0 0-12.006 5.18l-1.059.261-.035.233c-10.459 4.973-17.867 15.413-19.43 27.495-.775 6.016.584 11.701 3.67 15.209 2.938 3.341 7.248 4.522 12.238 3.297l2.145-.537c-.443.228-.98.456-1.42.687l-.41.053v.06c0 .575-2.031 1.151-3.145 1.726-8.891 4.603-14.578 16.513-15.793 25.902-.777 6.021.605 11.72 3.705 15.243 2.941 3.348 7.273 4.516 12.252 3.261a772.013 772.013 0 0 0 31.734-8.761c-7.604 7.4-14.268 23.205-11.676 33.12 1.707 6.524 7.156 9.588 15.232 8.427a428.279 428.279 0 0 0 22.553-3.865c-2.93 4.609-4.871 9.916-5.572 15.35-.578 4.472.109 11.248 3.957 15.622 2.996 3.407 7.316 4.44 12.129 2.842 3.439-1.146 6.883-2.285 10.326-3.418-3.902 5.155-6.486 11.328-7.311 17.695-.791 6.13.426 11.38 3.43 14.796 2.861 3.257 7.209 4.551 12.377 3.714.684-.111 1.367-.257 2.053-.371l.129-.217c6.963-1.136 13.938-2.547 20.92-3.709-3.664 8.197-5.494 17.491-1.967 23.383.979 1.635 2.701 2.947 5.654 3.569 1.189.458 2.584.704 4.201.706l.049.001a844.432 844.432 0 0 0 16.512-.205c10.543.084 21.021.102 31.312-.524.623 5.366 3.309 10.393 7.689 12.327 12.434 5.485 26.371 8.269 41.422 8.269 32.055 0 64.572-12.56 86.24-22.007 41.209-17.967 78.551-41.54 112.766-64.343l.949-.533-.006-.116c9.789-6.999 15.965-19.527 15.105-30.849-.604-7.961-5.469-13.105-12.393-13.105-.445 0-.896.022-1.352.067 11.062-8.853 20.33-18.452 28.086-29.063 5.361-7.335 9.877-18.668 6.479-28.476-1.434-4.133-4.434-6.933-8.295-7.88 2.018-1.788 4-3.599 5.926-5.413 7.766-7.323 12.307-18.324 11.57-28.029-.5-6.589-4.91-13.591-12.096-13.591-1.383 0-2.807.272-4.234.809-2.174.82-4.371 1.642-6.582 2.466 7.611-5.347 13.256-14.963 14.549-24.962.604-4.693-.422-11.651-4.109-15.848-3.023-3.438-7.332-4.388-12.051-2.592-.566.216-1.139.434-1.711.649l.01-.312-1.252.776c-.922.344-1.854.69-2.791 1.034a360.011 360.011 0 0 0 18.674-15.905c6.053-5.524 10.32-13.893 11.418-22.386.646-5.015-.24-11.83-3.684-15.75-.959-1.087-2.082-1.925-3.354-2.493a866.217 866.217 0 0 0 18.424-10.485c9.391-5.499 14.752-16.947 15.906-25.857.767-5.882-.77-11.987-3.903-15.557z"/><path d="M758.461 466.73c12.545-7.431 31.262-14.603 44.143-3.747 10.463 8.817 12.713 24.804 12.566 37.643-.152 13.466-3.986 28.482-13.143 38.699-11.771 13.134-26.092 8.275-40.695 4.332-4.443-1.2-10.275 8.998-6.678 11.983 15.096 12.536 35.994 8.336 49.121-4.585 13.441-13.234 19.592-33.942 20.596-52.313.869-15.88-1.613-35.507-15.027-46.03-16.617-13.036-37.443.113-51.029 11.288-.799.657-1.637 3.786.146 2.73z"/><path fill="#EAA286" d="M502.146 672.725c9.982 1.612 19.569.692 29.278-1.974 5.08-1.396 9.881-3.654 14.477-6.191.332-.183.83-.514 1.408-.926.705-.248 1.41-.495 2.107-.758 6.924-2.618 11.41-5.513 14.057-11.047.455-.711.879-1.44 1.188-2.24 1.096-2.823 3.826-12.039-2.107-11.938-3.541.063-5.98 2.547-8.494 4.815-20.895 6.343-45.163 6.714-62.696-7.875-5.037-4.193-11.225 2.368-13.436 9.47a59.624 59.624 0 0 1-12.361-14.37c-1.92-3.118-6.549 4.647-5.469 7.083 7.849 17.672 22.269 32.756 42.048 35.951zm61.256 75.979c-15.996 8.854-34.514 12.304-52.674 11.696-18.107-.601-38.367-5.009-49.402-20.637-3.416-4.84-9.152 7.186-8.072 10.456 14.252 43.196 70.008 48.244 105.858 30.293 7.516-3.764 12.248-12.441 13.336-20.564.663-4.937-1.577-15.376-9.046-11.244z"/><path d="M630.684 469.966c10.77-23.504 50.451-25.914 55.242 3.146 3.557-3.271 7.109-6.54 10.662-9.812-3.492-20.322-23.436-30.588-42.758-29.009-19.984 1.632-41.078 21.999-35.947 43.242 1.746 7.228 9.68-3.279 10.299-6.003 1.496-6.59 1.744-11.131 7.422-15.221 5.5-3.96 12.889-4.944 19.471-4.932 14.531.025 28.264 8.615 31.125 23.329.783 4.031 5.324 1.629 6.936-.14 2.736-2.999 4.25-7.256 3.453-11.268-3.445-17.387-17.27-27.764-34.947-25.663-17.002 2.019-30.279 15.766-35.486 31.468-1.551 4.67 2.891 4.44 4.528.863zm-169.809 161.83c15.223 12.107 30.812 20.35 50.191 23.148 16.42 2.37 38.706-.329 51.008-12.289 1.773-1.728 6.836-13.814.615-13.077-7.459.885-14.502 6.037-21.75 8.369-8.191 2.634-17.094 3.036-25.62 2.755-17.611-.583-36.092-6.905-51.922-14.318-2.091-.981-4.194 4.081-2.522 5.412zM247.529 509.175c5.842-7.185 13.668-12.675 23.201-12.798 10.512-.131 12.84 9.19 16.82 16.82 1.816 3.482 5.824-4.223 5.973-5.51 1.338-11.722-4.57-23.396-17.562-23.625-12.729-.228-24.174 10.533-30.895 20.22-1.754 2.532-.891 9.016 2.463 4.893z"/><path d="M293.935 503.25c-7.576-.312-17.078-.389-22.438 5.953-5.303 6.272-4.26 15.767.287 22.174 1.951 2.747 5.141-4.071 4.559-5.901-.83-2.605-4.703-9.46-1.908-11.876 4.451-3.847 12.16-3.952 17.678-4.244 2.211-.118 4.551-5.995 1.822-6.106zm472.542 13.863c2.826-7.547 8.613-12.746 16.518-14.44 7.123-1.526 12.615 2.133 19.205 3.712 4.143.993 8.562-7.401 5.859-10.514-6.797-7.83-19.092-7.417-27.936-3.627-9.953 4.265-16.234 15.091-18.91 25.082-1.621 6.057 3.785 3.744 5.264-.213z"/><path d="M763.502 522.496c3.818-1.459 10.859-4.009 13.822.311 1.031 1.503.404 3.745.137 5.36-.521 3.136-1.941 6.035-2.482 9.203-.441 2.58 1.648 3.352 3.324 1.553 4.971-5.347 9.002-16.358 4.664-23.227-4.139-6.556-14.736-.682-19.242 1.978-1.276.75-2.756 5.792-.223 4.822zm-322.69 218.61c-6.932 21.978-5.654 45.583 10.955 62.875 14.82 15.43 37.033 21.674 57.891 21.422 21.879-.26 43.872-7.758 59.688-23.12 8.221-7.981 14.143-18.739 17.076-29.763 2.41-9.061 4.855-26.083-4.166-31.973-3.416-2.233-6.521 5.687-6.889 7.644-1.684 8.994-.383 19.106-2.871 27.281-.742 2.441-1.689 4.158-4.051 7.485-.973 1.375-4.336 4.689-6.609 6.51-14.098 11.289-32.559 15.634-50.319 15.899-17.869.271-36.59-3.574-50.98-14.646-15.697-12.08-18.826-32.343-15.082-50.716.937-4.599-3.866-1.358-4.643 1.102z"/><path d="M442.009 738.036c-51.658.233-110.311.177-144.486 45.977-15.135 20.279-23.135 44.439-27.838 69.053-4.701 24.592-6.934 50.811-4.145 75.658.58 5.176 5.191-1.173 5.604-3.279 8.49-43.502 5.52-92.194 32.039-130.165 29.994-42.947 90.416-36.166 135.414-45.827 3.643-.781 8.781-11.441 3.412-11.417zm139.62 15.889c24.475-1.93 50.662-.726 73.924 7.721 20.949 7.607 36.939 22.393 50.123 39.931 14.049 18.694 22.33 40.274 30.139 62.088 7.947 22.201 14.363 45.219 18.871 68.354 1.369 7.011 10.811-4.806 10.129-9.317-7.463-49.304-16.123-98.959-46.771-139.904-13.504-18.043-32.83-31.928-54.244-38.837-27.359-8.824-55.012-3.822-81.318 6.061-.998.374-2.627 4.041-.853 3.903z"/><path d="M306.255 875.808c9.549.842 20.713 4.38 24.92 13.858 3.877 8.742 3.691 19.826 3.492 29.205-.227 10.621-1.803 21.224-2.887 31.777-.816 7.945-3.729 20.858 1.227 27.791 5.162 7.223 12.801-8.936 13.311-12.285 1.471-9.695-.305-20.554-.037-30.449.303-11.254.666-22.547-.77-33.744-1.211-9.438-4.748-17.459-11.668-24.06-7.596-7.243-17.672-6.493-27.135-4.177-.609.153-1.384 2.003-.453 2.084zm55.135-402.203c10.768-23.505 50.449-25.915 55.242 3.146 3.553-3.272 7.107-6.541 10.658-9.812-3.49-20.325-23.434-30.589-42.756-29.011-19.984 1.632-41.08 21.999-35.947 43.244 1.746 7.226 9.68-3.28 10.297-6.004 1.498-6.592 1.746-11.132 7.424-15.22 5.5-3.962 12.887-4.945 19.471-4.933 14.529.025 28.264 8.614 31.125 23.329.783 4.029 5.322 1.63 6.936-.141 2.736-2.999 4.248-7.257 3.451-11.266-3.443-17.388-17.27-27.765-34.945-25.664-17.002 2.019-30.279 15.765-35.488 31.467-1.548 4.673 2.893 4.442 4.532.865zm-29.654-49.815c9.867-9.524 23.207-13.351 36.242-16.365 13.463-3.114 27.84-3.603 41.414-.955 17.256 3.365 28.297-35.966 13.562-35.578-36.809.97-74.402 12.308-95.344 44.688-2.79 4.313-2.396 14.503 4.126 8.21z"/><path fill="#08B5F9" d="M685.145 866.673c.148-.294.27-.574.424-.87.703-1.366 1.531-7.199-1.805-5.584-.885.43-1.736.888-2.588 1.357a3.66 3.66 0 0 0-1.441-.248c-.727.051-1.451.103-2.174.156-3.723.261-6.131 3.787-7.41 7.487-2.977 2.269-5.908 4.62-8.953 6.897-1.572 1.176-2.814 6.856.264 4.915 2.562-1.618 5.055-3.349 7.586-4.996.094 2.612.805 5.102 1.82 7.531-8.725 31.039 7.682 65.383 12.178 96.768 2.102 14.66 15.717-2.627 16.482-9.643 3.829-35.12 3.794-72.463-14.383-103.77zM493 856.229c-18.988.982-37.326-8.916-50.766-21.633-6.311-5.973-11.545-13.012-16.092-20.386-4.621-7.503-6.551-16.94-11.859-23.882-.758-.96-1.746-1.422-2.967-1.385a11.77 11.77 0 0 0-1.838.422c-.693-3.641-1.205-7.258-1.453-10.817-.422-6.095-6.361 1.92-6.484 4.871-.195 4.667.045 9.369.543 14.07-1.848 5.825-1.195 13.291.135 18.145 1.428 5.211 3.701 10.288 6.426 15.153 3.947 15.234 9.258 30.104 17.152 43.783 6.533 11.324 16.148 23.327 29.826 25.513 16.857 2.692 30.506-13.037 38.348-25.829 1.962-3.205 7.855-18.482-.971-18.025z"/><path d="M410.769 777.426c-1.471 22.138 6.965 42.499 22.246 58.375 13.846 14.386 40.818 27.96 61.082 22.976 2.977-.734 7.861-10.363 3.555-11.791-9.156-3.035-19.01-3.072-28.281-6.075-9.398-3.043-18.115-7.949-26.012-13.829-17.18-12.798-28.438-30.392-28.068-52.297.064-3.843-4.383.572-4.522 2.641z"/><path fill="#EAA286" d="M664.846 376.482c20.203.498 40.373.141 60.451 1.771-27.908 6.256-57.551 4.171-85.443-2.862 8.334.59 16.689.887 24.992 1.091zM457.701 266.008c-2.943-5.746-5.518-11.676-7.568-17.739a246.601 246.601 0 0 0 9.422 15.416c-.677.613-1.304 1.419-1.854 2.323zM762.102 428.42a161.08 161.08 0 0 0-6.316-24.788c-6.738 3.64-13.455 7.316-20.051 11.206 8.553 70.542 1.088 145.051-30.424 208.454-21.725 43.712-55.359 79.26-98.855 101.71-2.654 1.37-3.721 8.371.482 6.369 24.549-11.686 46.783-28.104 65.488-47.867 1.229.352 2.785-.32 3.809-1.295 17.926-17.08 32.279-37.01 43.07-58.759.102-.18.207-.358.309-.538 7.863-12.421 16.053-24.646 21.932-37.969-.559 4.855-1.123 9.709-1.67 14.557-.826 7.341 6.814 5.499 8.975.474 13.193-30.733 14.83-65.548 13.465-98.8 3.545-24.221 3.924-48.831-.214-72.754z"/><path d="M689.057 849.981c-13.471 4.933-25.137 12.845-34.248 23.971-1.52 1.855-2.959 4.66-2.186 7.135.986 3.17 4.166.286 5.201-1.136 7.838-10.793 18.396-18.563 30.443-24.109 1.84-.848 3.809-6.965.79-5.861zm30.877-426.11c-8.17-14.59-21.449-26.941-37.082-33.074-15.227-5.973-32.535-8.529-48.824-8.987-15.762-.441-23.662 38.463-10.785 36.11 15.59-2.85 31.182-2.884 46.697.565 14.922 3.315 30.102 7.416 42.066 17.417 5.166 4.317 10.183-8.001 7.928-12.031z"/><path fill="#FFF" d="M602.545 529.971c-49.891 2.334-100.624 5.614-150.204-2.143-3.467-.543-6.072 4.756-6.418 7.406-1.449 11.065 2.643 21.106 8.975 29.727-4.234 7.895-4.65 16.978 3.49 23.8 9.389 7.866 22.707 11.383 34.953 13.192 6.945 3.213 14.453 5.216 22.264 5.902 34.961 3.068 65.374-21.72 80.811-51.188 3.436-6.562 6.15-13.541 8.344-20.606.552-1.776.81-6.231-2.215-6.09zM487.732 563.41a28.846 28.846 0 0 0 6.164 4.262c-4.293-.544-8.521-1.399-12.584-2.709a68.542 68.542 0 0 1 6.42-1.553zm78.981 1.901c-.344.003-.686.02-1.027.023 1.242-.176 2.484-.333 3.729-.473a42.408 42.408 0 0 1-.193 1.532c-.466-.676-1.263-1.089-2.509-1.082zm-95.602-8.515a40.61 40.61 0 0 1-2.189-2.636c2.682-.06 5.363-.104 8.045-.127a53.483 53.483 0 0 0-5.856 2.763zm-12.238-15.232c-.023-.07-.049-.141-.072-.212l.555.068c-.163.046-.325.085-.483.144zm131.857 1.777c-7.369-.017-14.736-.15-22.104-.344 8.578-.368 17.162-.747 25.754-1.064a97.511 97.511 0 0 1-1.203 2.915c-.413-.897-1.177-1.504-2.447-1.507zm-127.619 31.014c.271.437.561.866.84 1.302a12.984 12.984 0 0 1-1.303-1.759l.463.457z"/><path d="M422.66 515.244c29.51 19.225 67.916 23.674 102.347 23.65 18.938-.013 38.033-2.175 56.511-6.307 16.137-3.609 34.007-8.985 47.508-18.901 2.604-1.913 4.62-10.477-.586-7.713-14.715 7.812-29.413 13.644-45.719 17.364-18.402 4.2-37.26 5.782-56.102 6.013-33.481.408-71.027-3.755-100.483-20.929-2.734-1.593-6.166 5.071-3.476 6.823z"/><path d="M437.493 522.736c-3.551 44.838 26.945 88.342 72.905 93.876 20.333 2.449 43.329-2.64 60.471-13.867 15.702-10.285 26.035-26.418 32.164-43.876 4.142-11.799 7.245-25.467 6.904-38.018-.04-1.476-1.196-2.639-2.698-2.183-2.173.66-3.374 3.098-3.754 5.153-1.884 10.197-2.79 20.338-5.77 30.339-2.591 8.694-6.385 17.007-11.664 24.401-11.473 16.068-29.558 24.263-48.626 27.269-22.889 3.608-44.995-1.009-63.394-15.355-18.088-14.104-29.116-36.301-30.709-59-.246-3.502-.189-7.013.035-10.513.354-5.523-5.575-1.873-5.864 1.774z"/><path d="M440.753 555.183c23.617 12.137 50.32 18.585 76.758 20.103 27.924 1.603 58.964-2.642 82.438-18.916 2.495-1.73 3.918-9.562-.527-6.939-24.239 14.305-51.425 18.98-79.327 17.646-26.006-1.245-52.439-7.252-75.993-18.463-2.786-1.328-6.082 5.164-3.349 6.569z"/><path fill="#FFBF1F" d="M800.662 228.218c-6.814-32.628-20.326-68.912-50.508-86.731-6.494-3.835-12.113 8.891-11.752 13.445.154 1.961.344 3.916.549 5.868-.09.239-.174.479-.254.715-4.898 14.69-9.764 29.465-16.115 43.573-8.695-27.733-25.115-52.165-44.832-73.761-23.047-25.245-50.939-47.27-81.471-62.747-3.738-1.894-7.887 1.734-9.93 4.494-2.732 3.694-4.334 8.603-3.053 13.138 5.602 19.819 11.074 40.965 10.104 61.804-39.432-25.392-84.127-40.736-126.047-61.536-6.094-5.617-13.758-9.78-23.389-11.827-4.447-.946-8.941 5.095-10.574 8.299-2.096 4.113-3.955 11.88 1.119 14.765 7.258 4.125 14.652 7.988 22.129 11.683 9.574 10.229 13.617 25.539 15.289 40.718-40.51-21.605-83.775-41.473-129.758-45.222-8.596-.701-14.07 12.843-12.041 19.608 8.514 28.358 17.658 58.217 12.613 87.477-17.973-12.238-38-21.363-55.141-34.862-2.551-2.011-6.871.858-8.633 2.522-3.4 3.213-6.602 9.115-5.793 13.983a535.107 535.107 0 0 1 5.711 47.541c-5.562 14.125-8.295 29.834-9.799 43.114-3.74 33.051-1.953 67.031 2.453 99.964-2.748 18.431-5.867 36.813-8.975 55.173-.559 3.308.57 8.161 4.678 8.354 5.414.255 9.408-6.047 10.852-10.452.18-.553.354-1.107.531-1.659-.707 4.75-1.381 9.498-2.018 14.238-.377 2.791.975 6.394 4.436 5.343 3.541-1.074 5.725-5.163 6.244-8.574 7.082-46.437 17.264-93.67 38.379-135.959 8.873-17.771 19.568-34.452 36.719-45.014 12.215-7.522 26.33-11.203 40.562-11.53 26.889 23.606 58.084 42.886 89.459 59.488 3.076 1.629 6.594-1.482 8.264-3.738 2.615-3.534 4.059-8.448 1.732-12.438-11.184-19.179-23.02-37.865-35.471-56.139 5.193 1.589 10.443 2.987 15.674 4.306 13.893 3.504 27.979 6.185 42.065 8.828 31.443 16.208 62.094 35.042 97.213 41.439 2.828.515 5.596-2.149 7.363-4.648 6.723 5.604 13.732 10.83 21.184 15.4 3.133 1.923 7.127-1.732 8.789-3.978 2.529-3.417 4.703-9.364 1.844-13.23-6.324-8.549-14.08-15.479-22.73-21.201 22.965 4.877 45.416 12.075 65.832 23.695 26.082 14.847 45.309 37.827 56.891 65.336a189.522 189.522 0 0 1 3.793 9.775c-2.082 2.821-3.623 6.306-3.941 8.035-4.482 24.163 4.955 50.521 19.744 69.529.201.302.418.58.664.817 1.609 1.749 3.512 1.688 5.342.705a7.647 7.647 0 0 0 1.008-.517c3.549-2.189 5.73-6.072 6.459-10.122 8.131-30.237 11.85-61.787 13.582-92.979 2.125-38.189.793-76.785-7.045-114.308z"/><path fill="#FF7C24" d="M747.871 262.503c-57.449-47.899-125.428-84.897-200.854-92.234 8.652 20.124 25.553 36.101 40.773 51.323.514.514-.002 1.574-.748 1.287-31.613-12.15-63.564-23.584-96.114-32.979-17.223-4.971-34.635-9.478-52.297-12.604-13.785-2.438-27.912-4.292-41.939-3.488 11.373 12.803 13.271 31.63 25.258 44.015.512.528.008 1.548-.75 1.287-1.43-.492-2.861-.978-4.311-1.409-16.197-4.829-33.365-5.535-49.523-.124-15.4 5.156-28.893 14.646-40.678 25.663-22.814 21.323-40.588 47.257-59.57 71.946-.412 23.084 1.381 46.321 4.422 69.06-2.748 18.431-5.867 36.813-8.975 55.173-.559 3.308.57 8.161 4.678 8.354 5.414.255 9.408-6.047 10.852-10.452.18-.553.354-1.107.531-1.659-.707 4.75-1.381 9.498-2.018 14.238-.377 2.791.975 6.394 4.436 5.343 3.541-1.074 5.725-5.163 6.244-8.574 7.082-46.437 17.264-93.67 38.379-135.959 8.873-17.771 19.568-34.452 36.719-45.014 12.215-7.522 26.33-11.203 40.562-11.53 26.889 23.606 58.084 42.886 89.459 59.488 3.076 1.629 6.594-1.482 8.264-3.738 2.615-3.534 4.059-8.448 1.732-12.438-11.184-19.179-23.02-37.865-35.471-56.139 5.193 1.589 10.443 2.987 15.674 4.306 13.893 3.504 27.979 6.185 42.065 8.828 31.443 16.208 62.094 35.042 97.213 41.439 2.828.515 5.596-2.149 7.363-4.648 6.723 5.604 13.732 10.83 21.184 15.4 3.133 1.923 7.127-1.732 8.789-3.978 2.529-3.417 4.703-9.364 1.844-13.23-6.324-8.549-14.08-15.479-22.73-21.201 22.965 4.877 45.416 12.075 65.832 23.695 26.082 14.847 45.309 37.827 56.891 65.336a189.522 189.522 0 0 1 3.793 9.775c-2.082 2.821-3.623 6.306-3.941 8.035-4.482 24.163 4.955 50.521 19.744 69.529.201.302.418.58.664.817 1.609 1.749 3.512 1.688 5.342.705a7.647 7.647 0 0 0 1.008-.517c3.549-2.189 5.73-6.072 6.459-10.122 8.131-30.237 11.85-61.787 13.582-92.979a582.83 582.83 0 0 0 .822-22.484c-19.096-20.337-39.221-39.668-60.659-57.542z"/><path d="M299.496 385.716c3.525-.753 7.047-1.523 10.568-2.295.068-.271.139-.541.207-.812-3.354.179-6.707.319-10.066.425-.243.894-.473 1.788-.709 2.682zm9.949.218c.066-.279.129-.562.197-.84-1.562.342-3.125.688-4.688 1.025 1.499-.037 2.995-.099 4.491-.185zm-1.143 4.936c.26-1.136.52-2.27.787-3.402-3.359.175-6.729.215-10.102.173-.289 1.111-.57 2.223-.852 3.336h7.857c.791 0 1.556-.042 2.31-.107zm452.8-27.366c-2.037-6.55-9.406 5.248-8.518 9.354 15.467 71.5 12.352 168.859-18.143 236.062-29.113 64.169-85.33 111.126-154.527 125.923-77.76 16.63-163.204-4.655-218.575-62.964-56.01-58.98-69.92-142.118-62.746-220.509 1.801-19.688 4.924-39.254 9.258-58.548-3.434.123-6.863.276-10.293.462-6.604 26.746-10.932 54.098-13.055 81.422-6.057 77.998 11.258 159.292 65.715 217.973 54.307 58.524 138.025 80.764 215.579 68.025 72.051-11.835 131.92-57.858 167.857-120.618 43.938-76.732 53.649-192.356 27.448-276.582zm-450.44 17.56c.43-1.708.846-3.42 1.297-5.123-3.34.219-6.676.482-10.004.792-.453 1.582-.889 3.172-1.326 4.761 3.347-.108 6.693-.247 10.033-.43z"/><path d="M263.316 462.155c19.307-97.122.447-197.2 19.709-294.253l-8.887 6.924c17.57 15.103 35.123 30.227 52.68 45.346 4.348 3.744 8.387-3.531 9.078-7.071 7.35-37.661.527-75.52-7.59-112.438-2.352 3.83-4.703 7.66-7.057 11.491 24.074-3.223 46.969 1.542 69.127 10.959 21.584 9.172 41.773 21.289 63.406 30.373 5.242 2.202 8.812-6.134 8.754-10.014-.377-24.87-15.115-46.424-22.918-69.311l-7.234 11.783c58.354-4.234 113.969 26.734 154.211 66.777 3.68 3.661 8.404-2.439 9.311-5.742 8.25-30.065-.617-59-15.523-85.375l-7.91 12.802c30.119 10.427 60.824 22.456 85.262 43.524 26.74 23.054 42.43 54.498 56.572 86.189 3.158 7.078 11.619-4.152 9.719-9.194-12.457-33.029-30.486-65.583-57.367-89.042-25.045-21.856-56.203-34.357-87.252-45.083-6.238-2.156-10.488 8.246-7.91 12.801 12.441 21.984 21.551 47.646 14.631 72.928l9.309-5.742c-41.373-41.083-98.608-73.246-158.624-68.91-4.967.358-8.797 7.2-7.236 11.783 7.434 21.821 21.961 42.709 22.312 66.378l8.754-10.014c-22.066-9.275-42.676-21.613-64.746-30.87-22.955-9.628-46.836-13.966-71.617-10.543-4.535.626-6.586 7.653-5.766 11.316 7.797 34.855 14.318 70.577 7.484 106.169 3.025-2.358 6.053-4.715 9.078-7.071-17.621-15.033-35.246-30.062-52.854-45.111-4.268-3.649-8.203 3.442-8.887 6.921-19.037 96.867-.406 196.643-17.984 293.729-.379 2.096.797 4.748 3.309 3.984 2.718-.826 4.15-3.841 4.656-6.393z"/><path d="M722.354 201.146c11.318-22.375 16.051-46.446 20.439-70.914l-7.893 7.553c17.502 11.907 33.283 25.758 45.203 43.393 10.502 15.536 17.014 33.381 20.83 51.655 7.988 38.256 3.514 78.477-.75 116.896-3.744 33.733-8.664 67.773-7.127 101.797.148 3.263 3.043 4.576 5.729 2.919 3.129-1.93 4.871-5.819 4.793-9.405-1.719-77.603 26.125-157.192 4.656-233.88-10.158-36.289-34.174-67.182-67.113-85.588-3.973-2.221-7.459 4.753-7.891 7.553-3.416 22.175-7.502 44.383-17.252 64.773-.881 1.845-1.922 5.614.521 6.858 2.407 1.226 4.931-1.786 5.855-3.61z"/><path d="M303.675 393.215c17.902-32.143 22.57-69.851 37.604-103.23 5.449-12.102 12.977-26.301 26.516-30.582 12.807-4.051 27.686 6.084 37.854 12.612 36.66 23.543 70.863 51.976 115.147 59.443 5.158.868 9.527-8.666 7.77-12.657-10.795-24.533-29.54-43.984-41.608-67.704-2.52 4.103-5.039 8.206-7.557 12.31 72.881 7.903 135.524 51.756 207.334 63.968 5.043.857 10.322-9.752 6.799-13.341-14.129-14.391-22.068-32.94-33.934-48.986-2.262 4.439-4.521 8.876-6.783 13.313 80.641 8.133 118.164 104.041 110.926 175.029-.234 2.297.754 5.31 3.672 4.423 3.002-.911 4.637-4.266 5.172-7.099 7.477-39.57-1.428-81.831-20.479-117.007-18.441-34.053-48.627-62.123-87.746-68.882-2.318-.401-4.656-.679-6.996-.915-5.453-.554-9.766 9.273-6.783 13.312 11.859 16.054 19.791 34.611 33.912 49.011l6.799-13.341c-71.795-12.25-134.307-56.16-207.27-64.181-4.848-.533-9.588 8.303-7.557 12.31 12.041 23.744 30.689 43.437 41.313 67.982l7.771-12.655c-42.637-7.495-76.284-35.241-112.045-57.469-10.971-6.819-26.768-15.711-40.287-12.822-15.141 3.234-25.529 15.896-32.996 28.601-10.539 17.935-16.412 38.589-22.361 58.374-5.771 19.2-10.627 39.38-19.949 57.246-.854 1.639-1.697 5.096.471 6.201 2.221 1.131 4.393-1.651 5.291-3.264z"/><path fill="#FF7D08" d="M307.871 225.932l.014-.005-.012.006-.002-.001z"/></svg>