<svg xmlns="http://www.w3.org/2000/svg" xmlns:xlink="http://www.w3.org/1999/xlink" width="1030" height="1030" viewBox="0 0 1030 1030"><defs><path id="a" d="M1020.377 515.001c0 279.115-226.266 505.377-505.378 505.377-279.111 0-505.377-226.264-505.377-505.377S235.887 9.622 514.999 9.622s505.378 226.266 505.378 505.379z"/></defs><use xlink:href="#a" overflow="visible" fill="#FFBF1F"/><clipPath id="b"><use xlink:href="#a" overflow="visible"/></clipPath><g clip-path="url(#b)"><circle fill="#FFBF1F" cx="516.034" cy="517.213" r="505.378"/><path fill="#FC9E17" d="M64.59 301.339c65.699-60.767 147.473-101.363 226.168-142.394 40.814-21.281 80.746-43.73 120.539-66.854 43.205-25.11 87.469-49.598 136.052-62.561-.955-12.573-1.91-25.146-2.863-37.722-74.998 71.15-162.478 126.989-247.857 184.582-43.967 29.658-87.432 59.996-129.213 92.682-20.033 15.672-39.123 32.311-60.043 46.828-21.764 15.1-44.412 28.884-66.553 43.409-20.463 13.421-40.42 27.7-58.93 43.736-7.094 6.145-11.697 17.171-10.986 26.521.547 7.209 5.93 13.974 13.848 11.2 98.168-34.394 184.332-95.652 268.734-154.941 42.164-29.617 84.252-59.421 128.115-86.495 19.998-12.341 40.242-24.097 59.857-37.073 21.045-13.919 41.816-28.239 62.965-42.001 37.357-24.313 76.48-48.122 120.033-59.315l-6.715-33.351c-3.625 4.497-11.992 11.267-18.965 15.919-10 6.67-20.648 12.364-31.156 18.178-23.027 12.742-45.092 27.219-67.552 40.936-51.305 31.332-102.533 62.797-153.852 94.112-51.111 31.188-102.326 62.211-153.791 92.816-45.84 27.263-92.238 53.613-137.738 81.449-57.196 34.993-113.603 73.152-161.327 120.58-6.828 6.784-11.732 16.688-10.986 26.521.559 7.365 5.898 13.78 13.85 11.198 51.945-16.859 99.75-43.608 147.504-69.638 50.273-27.404 102.162-51.78 153.584-76.934 106.725-52.204 213.545-104.201 320.027-156.899 43.588-21.572 87.408-42.348 128.738-68.076 36.969-23.018 73.674-48.996 115.463-62.538-.955-12.575-1.908-25.146-2.865-37.721-32.514 34.457-76.607 55.146-117.219 78.288-50.043 28.516-97.459 62.321-145.695 93.778-48.672 31.741-97.557 62.7-143.461 98.404-36.26 28.201-71.637 58.477-113.41 78.263C166.967 440.29 75.417 461.753 37.559 541.29c-3.076 6.463-5.365 14.316-2.91 21.401 1.744 5.04 7.496 9.095 12.934 6.589C147.668 523.179 241.1 464.948 335.032 407.693c46.518-28.354 93.289-56.325 141.229-82.228 49.123-26.541 100.222-49.029 149.865-74.543 51.182-26.305 101.262-54.686 151.102-83.427-.984-12.997-1.971-25.993-2.959-38.989-89.506 66.279-184.818 124.035-280.236 181.279-95.316 57.186-189.701 115.122-280.916 178.699-64.773 45.146-142.418 71.596-192.24 135.972-8.809 11.384-11.102 42.221 10.986 31.382 208.225-102.161 408.939-218.58 611.708-330.955 81.107-44.949 162.6-89.213 245.033-131.684l-2.959-38.989C684.768 269.934 489.942 395.938 300.086 528.915c-76.928 53.879-153.004 108.972-228.348 165.043-9.188 6.835-16.062 17.88-15.16 29.76.734 9.699 9.59 15.234 18.119 9.229 43.633-30.724 91.014-55.527 138.016-80.599 48.867-26.063 96.422-53.966 143.455-83.206 97.824-60.818 193.595-125.836 295.818-179.224 79.945-41.755 155.398-91.653 236.617-131.035l-7.131-35.752C726.441 362.758 545.96 469.948 368.332 577.764c-93.445 56.721-186.838 113.71-276.602 176.167-9.32 6.483-16.045 18.146-15.162 29.758.801 10.539 9.316 14.158 18.121 9.23 202.516-113.372 408.092-221.234 609.107-337.292 82.609-47.694 164.387-96.848 244.781-148.196-3.662-10.461-7.324-20.92-10.984-31.381-4.996 7.511-10.377 14.716-16.098 21.688-5.041 6.146-10.836 12.267-18.375 19.708-14.123 13.939-29.66 26.809-45.09 38.273-35.396 26.297-73.572 48.73-112.08 70.107-37.449 20.789-75.582 40.312-113.117 60.945-42.605 23.422-83.598 49.658-124.55 75.827-65.34 41.753-130.41 84.796-198.977 121.15-60.084 31.858-124.109 59.162-173.205 107.688-6.838 6.763-11.73 16.707-10.986 26.522.623 8.163 5.797 12.765 13.852 11.198 27.105-5.267 51.928-18.041 75.645-31.759 24.854-14.379 49.684-28.81 74.537-43.192a10595.979 10595.979 0 0 0 152.23-89.771c49.531-29.772 100.037-57.95 150.667-85.822 50.375-27.729 102.131-51.93 153.662-77.322 67.275-33.148 131.119-72.729 197.158-108.185l-10.984-31.383c-5.504 7.192-9.135 10.836-17.041 18.057-7.75 7.076-15.977 13.312-24.516 19.367-18.807 13.338-38.713 25.094-58.617 36.699-43.184 25.18-85.117 51.793-126.223 80.276-91.951 63.715-180.732 131.845-272.466 195.851-62.605 43.68-127.018 85.396-195.645 119.062l2.959 38.99c48.338-27.513 98.725-51.109 148.234-76.384 25.086-12.807 49.887-26.168 74.098-40.571 24.189-14.391 46.895-30.896 69.808-47.201 23.254-16.545 46.578-32.993 70.564-48.466 23.51-15.167 48.086-28.535 72.547-42.078 48.809-27.02 97.928-53.479 146.338-81.21 61.396-35.17 121.518-72.686 178.059-115.307-3.662-10.461-7.324-20.922-10.984-31.382C929.016 457.254 842.879 507.06 763.5 554.367c-91.051 54.269-181.006 110.706-269.408 169.204-41.195 27.26-81.383 55.869-121.203 85.092-39.395 28.913-78.959 57.731-121.234 82.347-9.594 5.584-15.99 18.821-15.16 29.759.842 11.066 9.201 13.475 18.119 9.23 100.961-48.053 196.105-107.057 291.246-165.518 47.797-29.37 95.674-58.625 144.385-86.46 47.674-27.237 96.568-52.016 145.609-76.669 75.025-37.713 150.203-76.055 218.389-125.428-2.375-11.916-4.754-23.834-7.131-35.751-33.609 33.213-76.088 55.599-117.895 76.72a4040.338 4040.338 0 0 0-133.637 70.689c-99.297 54.921-199.127 109.008-295.386 169.179-39.695 24.813-79.178 50.248-116.168 78.982-32.521 25.263-64.553 53.299-102.398 70.431-8.953 4.054-15.02 11.32-17.994 20.765-1.854 5.884-3.031 24.237 8.273 22.726 45.449-6.074 87.678-22.926 128.725-42.8 43.947-21.275 85.809-46.649 127.57-71.857 92.4-55.778 188.994-103.604 284.82-153.169 30.955-16.012 61.799-31.989 92.061-49.282 29.732-16.989 59.461-33.979 89.189-50.968 9.617-5.496 15.986-18.892 15.16-29.759-.803-10.575-9.309-14.111-18.121-9.229-104.188 57.711-206.854 118.117-308.766 179.746-51.145 30.929-102.088 62.187-152.947 93.583-44.667 27.573-85.541 60.625-129.552 89.188-21.203 13.757-43.262 26.518-67.016 35.328-.436 13.653-.871 27.306-1.309 40.958C503.588 874.062 701.893 821 881.023 728.062c47.312-24.547 93.094-52.107 136.094-83.643 9.217-6.758 16.059-17.938 15.16-29.76-.76-9.986-9.484-14.867-18.119-9.229-189.895 124.01-375.484 255.294-574.294 364.989a2771.17 2771.17 0 0 1-59.695 31.968l7.133 35.753c73.348-58.31 162.888-92.968 248.279-129.313 44.957-19.136 89.818-38.741 132.914-61.835 22.314-11.959 44.49-24.162 66.002-37.533 23.461-14.584 46.564-29.751 71.244-42.24l-14.291-26.021c-3.254 5.631 2.838-4.268-.768 1.271-1.092 1.673-2.266 3.292-3.438 4.908-1.197 1.657-2.473 3.257-3.742 4.856-.225.285-4.666 5.495-1.594 2.025-6.42 7.245-13.553 13.844-20.877 20.158-14.344 12.364-31.18 23.663-48.141 34.454-35.631 22.667-73.098 42.25-109.025 64.42-39.857 24.595-76.527 54.362-114.17 82.133-42.475 31.335-86.007 61.829-133.523 85.104-8.504 4.165-17.229 7.841-26.043 11.295.955 12.572 1.908 25.146 2.865 37.721 61.736-53.27 143.855-80.491 220.312-108.335 80.787-29.419 162.883-61.466 226.771-120.972 7.469-6.955 14.518-14.354 21.268-22.004 7.162-8.118 13.979-19.857 10.07-31.133-3.469-10.01-15.477-8.066-21.375-1.381-114.23 129.438-307.65 132.047-443.066 231.178a405.272 405.272 0 0 0-25.289 20.133c-7.098 6.125-11.693 17.185-10.986 26.522.529 6.965 5.992 14.28 13.852 11.197 97.134-38.068 176.128-109.005 260.492-168.247 66.982-47.033 147.926-76.376 205.264-136.568 10.398-10.916 19.23-22.635 26.766-35.684 7.102-12.287 4.061-35.306-14.291-26.021-23.682 11.983-45.959 26.396-68.42 40.475-22.416 14.05-45.568 26.728-68.83 39.299-42.02 22.706-85.975 41.566-129.891 60.243-90.248 38.378-182.228 75.838-259.648 137.379-7.225 5.744-11.672 17.469-10.984 26.521.818 10.785 9.258 13.842 18.119 9.23 201.621-104.906 388.611-234.82 577.835-360.033a11124.478 11124.478 0 0 1 56.154-36.924l-2.959-38.989c-164.07 120.319-362.51 176.991-545.044 261.854-48.148 22.383-95.299 46.992-140.352 75.131-8.23 5.139-13.766 14.978-14.994 24.479-1.041 8.054 3.029 20.431 13.686 16.479 48.654-18.046 91.17-48.993 132.91-79.128 45.078-32.542 91.929-61.576 139.312-90.626 101.836-62.436 204.242-123.967 307.943-183.265a7368.069 7368.069 0 0 1 86.652-48.766c-.986-12.996-1.973-25.993-2.961-38.988-51.545 29.457-102.699 59.619-155.438 86.898-53.777 27.817-107.557 55.633-161.336 83.449-43.93 22.723-87.301 45.755-129.695 71.245-41.771 25.118-83.296 50.7-126.523 73.278-41.221 21.529-86.023 41.922-132.549 48.141-3.242 14.498-6.48 28.993-9.721 43.49 47.463-21.483 85.908-55.805 127.178-86.811 44.623-33.523 92.953-62.742 140.677-91.576 96.973-58.587 197.006-111.868 295.912-167.064 73.6-41.076 157.643-70.725 218.6-130.964 6.842-6.76 11.732-16.708 10.988-26.521-.729-9.591-9.637-15.373-18.121-9.229-88.588 64.145-188.59 109.527-285.451 159.373-99.426 51.166-193.672 111.625-289.091 169.731-73.314 44.644-147.525 88.053-225.086 124.969l2.959 38.989c49.188-28.641 94.676-62.945 140.545-96.504 46.477-34 94.137-66.235 142.511-97.467 87.035-56.191 175.35-110.046 263.912-163.752 74.689-45.295 149.064-94.295 206.426-161.075 5.668-6.597 9.145-18.316 6.217-26.761-2.553-7.37-11.105-9.217-17.203-4.62-89.627 67.563-188.064 121.632-286.238 175.511-49.328 27.073-98.404 53.916-144.787 85.881-23.354 16.091-46.291 32.776-69.501 49.068-23.09 16.205-47.426 30.418-72.158 43.965-61.564 33.727-125.93 62.054-186.961 96.791-9.621 5.477-15.982 18.906-15.16 29.76.834 10.973 9.219 13.596 18.119 9.23 98.893-48.512 189.043-113.175 277.802-177.872 89.326-65.108 177.654-132.874 271.783-191.008 55.475-34.265 120.367-62.552 160.973-115.647 5.391-7.048 9.266-17.969 6.219-26.763-2.84-8.196-10.652-8.139-17.203-4.62-49.32 26.479-97.432 55.121-146.602 81.871-49.906 27.152-102.033 49.65-152.422 75.84-103.297 53.694-202.543 114.398-302.912 173.235a11425.55 11425.55 0 0 1-97.148 56.283c-30.902 17.713-60.723 37.979-96.279 44.889.955 12.572 1.908 25.146 2.865 37.721 33.756-33.367 76.162-55.738 118.041-77.181 45.688-23.39 90.238-48.038 134.127-74.68 87.6-53.175 171.681-111.858 262.072-160.353 54.957-29.484 110.543-57.98 162.961-91.898 49.711-32.166 98.854-70.181 131.992-120.016 5.023-7.557 9.406-17.564 6.219-26.762-2.701-7.791-10.855-8.675-17.203-4.621-195.874 125.101-399.876 236.655-603.807 347.893-83.529 45.561-167.061 91.117-250.082 137.596.984 12.996 1.971 25.992 2.959 38.988 170.949-118.941 354.396-218.406 528.24-332.895 94.264-62.08 185.904-128.777 269.848-204.379 7.025-6.327 11.707-17.035 10.988-26.521-.836-11.01-9.213-13.55-18.121-9.23-51.248 24.849-100.295 53.832-149.523 82.396-49.637 28.8-100.666 55.019-150.332 83.749-99.656 57.645-195.21 122.086-293.779 181.536-72.496 43.724-150.875 77.517-220.271 126.384l2.959 38.988C259.711 595.263 449.27 463.608 644.355 340.573c80.436-50.727 161.85-99.902 244.248-147.373 9.607-5.535 15.988-18.861 15.162-29.76-.822-10.815-9.252-13.799-18.121-9.229-206.175 106.221-406.212 223.749-609.96 334.453-81.457 44.258-163.553 87.353-246.781 128.186 3.66 10.463 7.322 20.923 10.984 31.383 25.775-33.308 66.303-56.533 103.787-77.647 19.877-11.199 39.891-22.157 59.18-34.356 21.949-13.881 42.736-29.654 64.246-44.203 92.357-62.464 188.979-118.262 284.291-176.013 77.074-46.703 153.373-94.857 225.836-148.517 9.199-6.81 16.062-17.9 15.162-29.76-.793-10.436-9.346-14.29-18.121-9.229-48.863 28.18-97.979 55.93-148.078 81.867-49.613 25.688-100.764 48.179-150.025 74.562-96.332 51.591-187.565 112.02-281.985 166.918-45.945 26.715-92.725 52.251-141.018 74.497l10.023 27.99c.941-1.981 1.92-3.936 2.938-5.881.277-.53 3.928-6.72 1.068-2.127 2.277-3.657 4.846-7.124 7.492-10.519.168-.216 4.738-5.591 1.715-2.197 1.438-1.612 2.949-3.157 4.457-4.703 3.551-3.637 7.363-7.009 11.246-10.285 4.773-4.025 12.174-9.079 19.404-13.619 8.459-5.309 17.279-10.026 26.193-14.511 34.469-17.342 71.242-29.699 106.113-46.215 43.148-20.439 79.836-52.666 117.23-81.818 44.834-34.949 93.141-64.874 140.711-95.896 48.037-31.33 95.283-64.804 145.125-93.205 42.926-24.461 88.732-46.937 123.102-83.359 6.684-7.084 11.75-16.467 10.986-26.521-.559-7.366-5.896-13.776-13.85-11.199-49.908 16.174-93.238 47.806-137.6 74.86-48.914 29.833-102.049 53.269-153.392 78.592-106.676 52.613-213.65 104.618-320.469 156.94-43.394 21.257-86.614 42.541-129.027 65.714-40.359 22.048-80.934 43.731-124.822 57.979.953 12.574 1.908 25.146 2.863 37.722 72.18-71.732 163.498-120.634 250.486-171.761 103.367-60.754 205.49-123.592 307.752-186.184 31.838-19.49 63.287-39.892 95.542-58.647 28.137-16.359 57.43-30.229 78.303-56.136 6.779-8.413 13.279-38.49-6.717-33.35-47.43 12.19-90.468 38.454-131.141 64.924-21.107 13.74-41.834 28.054-62.84 41.949-19.621 12.977-39.934 24.667-59.938 37.012-88.902 54.875-170.566 120.623-260.033 174.661C76.086 360.719 34.5 382.364-9.666 397.84l2.863 37.721c39.104-33.88 85.59-57.931 127.51-87.985 21.174-15.182 40.629-32.546 61.215-48.488 20.629-15.977 41.773-31.276 63.117-46.279 86.076-60.504 176.02-115.53 257.793-181.999 18.232-14.82 35.914-30.312 52.96-46.484 6.924-6.571 11.721-16.852 10.986-26.521-.586-7.715-5.842-13.337-13.852-11.199-49.3 13.154-94.818 37.832-138.792 63.142-40.959 23.574-81.777 46.956-123.684 68.825-82.873 43.245-167.969 86.252-237.164 150.254-7.75 7.166-13.725 20.591-10.072 31.133 3.689 10.637 15.031 7.252 21.376 1.379z"/></g><path fill="#EAA286" d="M286.192 526.993c-11.41-10.857-28.607-25.257-45.727-18.4-19.236 7.705-29.441 29.319-31.137 48.995-2.072 24.108 7.836 71.61 42.01 62.038 14.02-3.927 25.211-16.662 33.307-28.021 5.623-7.887 11.439-22.281 4.336-31.152-7.07-8.826-19.141.303-23.789 6.824a107.692 107.692 0 0 1-4.342 5.696c-2.754 3.36 3.969-4.347 1.129-1.291a58.279 58.279 0 0 1-2.062 2.068 45.658 45.658 0 0 1-2.025 1.811c-2.75 2.367 4.477-3.315 1.637-1.284-1.203.86-2.49 1.589-3.811 2.247 6.117-3.05 2.016-.973.15-.52-2.592.63 4.541-.476 1.939-.229-.553.054-1.109.044-1.666.033-1.629-.03-5.43-1.258.18.373-1.203-.35-2.334-.918-3.414-1.545-3.49-2.022.334.516-.025.192-.885-.786-1.672-1.677-2.432-2.582-.803-.957-1.514-1.989-2.195-3.033a38.947 38.947 0 0 1-1.01-1.669c-1.34-2.307 2.188 4.336.484.792-1.223-2.547-2.166-5.224-2.975-7.93a62.112 62.112 0 0 1-1.086-4.256c-.697-3.09.928 4.939.367 1.817a71.06 71.06 0 0 1-.445-2.933c-.393-2.912-.553-5.851-.553-8.784 0-3.317-.242 5.83-.086 2.544.033-.704.094-1.405.154-2.106a48.11 48.11 0 0 1 .545-4.062c.779-4.564-1.814 6.756-.256 1.394.176-.598.381-1.185.586-1.769 1.133-3.212-2.916 6.815-1.533 3.744 2.328-5.185-2.256 3.263-1.42 2.035 2.879-4.237-4.875 4.639-1.109 1.319-5.344 4.707-4.209 3.137-2.615 2.1 1.275-.825 3.828-1.779-2.547 1.07.969-.434 2.008-.688 3.045-.879-5.984 1.108-2.076.312-.201.45.637.047 1.266.156 1.893.267 2.428.42-4.229-1.32-.502-.105 3.295 1.074 6.352 2.832 9.25 4.698 1.82 1.172 3.547 2.481 5.252 3.814-3.148-2.463.146.15.643.583 1.346 1.17 2.641 2.392 3.932 3.621 8.139 7.744 18.295.602 23.789-6.823 5.022-6.784 12.28-23.591 4.335-31.152zm536.923 9.743c-.957-4.146-2.451-8.049-4.363-11.71.877-5.396.283-10.802-2.889-14.76-3.254-4.062-7.338-4.362-11.307-2.908-6.283-5.527-13.529-10.063-20.93-13.58-12.021-5.71-25.49 10.897-28.236 25.43-4.225 4.087-7.896 8.325-10.719 11.822-6.023 7.467-11.188 22.6-4.338 31.153 7.283 9.089 18.818-.657 23.791-6.824.268-.33 1.02-1.189 1.619-1.876a67.199 67.199 0 0 1 2.602-2.517c.061 1.669.264 3.243.635 4.66.604 2.31.736 3.079.951 5.054-.801.432-1.754.881-3.105 1.601-5.541 2.952-11.229 10.373-14.125 18.351-13.699 11.198-21.268 40.868-3.869 40.868 6.043 0 11.818-4.491 16.223-10.636 10.723 7.109 23.277 8.443 34.117-3.713a65.123 65.123 0 0 0 10.521-16.069c11.444-15.667 17.944-34.755 13.422-54.346zm-52.904 26.118c-.057.14-.115.296-.178.485.055-.171.113-.341.172-.508l.006.023z"/><path fill="#61E9FF" d="M756.867 931.05c-8.125-32.809-21.715-64.396-40.467-92.1a216.976 216.976 0 0 0-4.197-8.137c-.199-6.155-2.139-11.598-7.266-12.479-4.635-7.445-9.609-14.6-14.736-21.396-26.965-35.749-63.227-59.35-107.246-68.143-45.209-9.034-92.513-1.586-137.267 6.525-39.994 7.25-83.086 12.074-116.59 37.145-11.773 8.81-21.252 19.222-29.039 30.736a149.52 149.52 0 0 0-15.068 17.367 132.485 132.485 0 0 0-2.668 3.748c-9.58 11.707-18.807 23.726-28.385 35.259-6.117 7.363-11.125 22.677-4.336 31.154 2.023 2.527 4.357 3.596 6.785 3.7-1.211 8.765-1.861 17.63-2.029 26.501-1.869 3.342-2.857 7.188-2.176 10.185-3.047 5.419-3.992 12.533.422 15.523.934.632 1.875 1.249 2.814 1.868.836 3.746 3.203 4.554 5.883 3.756.404.25.812.496 1.221.744 1.525 3.129 4.307 5.191 8.846 5.173 10.889 6.086 22.188 11.418 33.768 16.119a27.53 27.53 0 0 0 .055 2.748c.623 8.197 5.943 13.26 14.174 11.459a173.133 173.133 0 0 0 14.584-3.887c19.494 6.131 39.453 10.864 59.316 14.747 43.887 8.579 89.512 12.745 134.177 13.993 54.643 1.528 140.881-4.258 182.031-48.275a578.726 578.726 0 0 0 37.922-15.441c6.896-3.09 11.332-11.083 9.472-18.592zm-47.586-19.097a93.418 93.418 0 0 0 6.109-9.792c.297 2.627.475 5.258.527 7.883-2.218.61-4.431 1.248-6.636 1.909zm-397.154 31.783c9.898-5.341 19.379-11.511 28.424-17.668 1.389-.945 2.754-1.918 4.131-2.879-8.979 7.271-17.48 15.035-25.295 23.469-2.439-.929-4.861-1.9-7.26-2.922zm214.277-180.813c-10.115 4.546-19.982 9.688-29.654 15.138 3.93-4.437 6.98-9.572 8.602-15.249 7.025-.11 14.048-.096 21.052.111zm74.063 12.6c-10.824 6.726-21.809 13.185-32.834 19.565 3.961-7.271 7.326-14.918 9.936-23.008a26.55 26.55 0 0 0 .771-3.018c7.449 1.709 14.832 3.834 22.127 6.461zm-318.56 118.955a244.069 244.069 0 0 0 6.004-2.907 195.187 195.187 0 0 0-7.781 10.433c.541-2.491 1.092-4.979 1.648-7.466a3.72 3.72 0 0 1 .129-.06zm122.672-16.297c21.895-16.271 45.674-30.047 68.791-44.486 14.535-9.08 29.297-17.868 44.685-25.25a310.857 310.857 0 0 1-4.093 3.615c-9.473 8.224-17.006 13.589-28.32 21.332-11.971 8.193-24.303 15.854-36.688 23.4-25.639 15.621-53.227 30.467-78.822 47.703 11.486-8.767 22.855-17.699 34.447-26.314zm114.942-11.582c-15.847 10.734-32.14 20.768-48.525 30.651 21.078-15.894 42.836-29.634 65.792-42.693a697.095 697.095 0 0 1-17.267 12.042zm-62.329 91.247c-4.242 2.917-7.93 6.939-10.643 11.543a939.48 939.48 0 0 1-13.221-.956 5857.905 5857.905 0 0 0 23.864-10.587zm239.718-90.392a160.856 160.856 0 0 0 5.533-8.264 225.51 225.51 0 0 1 1.902 4.346 366.333 366.333 0 0 0-7.435 3.918zm-44.422-28.51a491.457 491.457 0 0 0 11.26-13.592c1.789-2.242 3.393-4.934 4.652-7.846a216.649 216.649 0 0 1 9.623 9.621 422.399 422.399 0 0 0-25.535 11.817zm-7.927-40.699c-7.393 4.947-14.371 10.427-21.193 16.111 4.709-6.91 9.002-14.101 12.799-21.595 2.851 1.76 5.647 3.59 8.394 5.484zM514.354 966.419a189.447 189.447 0 0 0-5.482 5.739c-1.156-.03-2.311-.066-3.465-.1a964.023 964.023 0 0 0 8.947-5.639z"/><path fill="#FFE5B8" d="M567.402 721.949a42.208 42.208 0 0 0-2.557-1.075c-1.295-4.374-3.123-8.739-5.502-13.111-5.578-10.249-20.021 1.729-23.791 6.824a41.235 41.235 0 0 0-2.174 3.256c-8.299.83-16.465 2.54-23.72 4.34-16.119 4-33.092 13.975-41.012 28.473a69.536 69.536 0 0 0-.705-.754c-1.475-1.561-2.717-3.309-3.879-5.106.758 1.109-1.055-2.146-1.201-2.496-.627-1.471-1.074-3.009-1.525-4.538-.074-.248-.135-.455-.193-.642a28.78 28.78 0 0 0-.156-1.281c-.248-1.796-.307-3.614-.371-5.425l-.021-.565c.055-.331.125-.914.213-1.867.195-2.126.576-4.231.951-6.331 1.582-8.865-3.355-20.098-14.004-16.862-11.365 3.451-17.787 16.275-19.711 27.064-3.301 18.502-1.625 38.334 9.889 53.788 9.516 12.768 25.686 18.714 41.004 20.112 14.637 1.339 29.127-1.657 42.312-7.749a53.766 53.766 0 0 0 5.982-2.159c12.973-5.609 24.131-15.323 31.199-27.586 4.379-5.649 8.133-11.729 11.113-18.097 3.418-7.304 8.109-23.466-2.141-28.213z"/><path d="M756 522.283c12.818-7.592 31.939-14.919 45.1-3.828 10.689 9.009 12.988 25.341 12.838 38.456-.156 13.758-4.072 29.101-13.428 39.537-12.025 13.419-26.656 8.455-41.576 4.426-4.539-1.226-10.496 9.192-6.822 12.243 15.422 12.809 36.773 8.517 50.184-4.685 13.734-13.521 20.018-34.676 21.043-53.445.889-16.223-1.646-36.275-15.354-47.026-16.977-13.318-38.252.116-52.133 11.533-.817.671-1.672 3.868.148 2.789z"/><path fill="#D8724A" d="M383.102 775.702h-.002l-.002.006z"/><path fill="#FFE5B8" d="M785.838 450.94c-3.053-3.47-7.467-4.55-12.418-2.979l-1.842.586.002-.105-.391.23c-14.822 4.734-5.137 3.916-14.531 2.152 1.812-5.963 3.203-12.104 4.244-18.329.861-.026 1.758-.311 2.537-.792 3.371-2.077-14.004-6.271-14.09-10.132-.428-19.03-2.869-38.031-7.996-56.162-1.615-7.683-4.066-15.163-7.738-21.867-5.336-12.371-12.184-24.12-20.805-34.931-22.279-27.936-55.406-45.084-89.361-54.26-18.965-5.124-38.432-8.002-58.012-9.364-22.834-1.589-45.844-1.345-68.404 2.805a160.187 160.187 0 0 0-9.23 1.989c-30.953 1.116-61.633 7.161-89.686 20.845a150.136 150.136 0 0 0-7.721 4.056c-14.164 5.339-27.939 11.644-40.959 19.211-17.738 10.311-34.629 23.906-44.416 42.288-7.104 13.341-18.191 28.146-14.717 42.237-3.07 13.206-12.516 27.002-8.844 40.328-11.504 8.057-3.301 16.839-13.701 26.593-6.191 5.809-10.545 14.354-11.645 22.856-.496 3.848-.252 11.599 3.814 16.226 2.023 2.3 4.732 3.435 7.879 3.308 9.982-.453 20.264-1.669 31.105-3.688-8.699 4.306-16.584 8.79-23.844 13.554-8.6 5.643-14.795 15.744-16.168 26.367-.613 4.739.002 11.79 3.756 16.06 1.996 2.272 4.695 3.475 7.861 3.475 19.512-.082 39.965-1.736 62.15-5.046-25.289 10.889-51.547 22.826-77.008 37.149-9.582 5.389-15.078 17.159-16.275 26.433-.795 6.138.604 11.932 3.736 15.496 2.992 3.407 7.428 4.629 12.539 3.413 20.859-4.947 39.166-9.442 55.98-13.761a1846.284 1846.284 0 0 0-12.268 5.292l-1.08.267-.035.238c-10.688 5.081-18.256 15.746-19.852 28.09-.791 6.146.598 11.955 3.75 15.537 3 3.414 7.404 4.622 12.504 3.37l2.189-.55c-.451.233-1 .467-1.451.702l-.418.054v.06c0 .59-2.076 1.177-3.213 1.765-9.084 4.701-14.895 16.869-16.135 26.463-.795 6.15.619 11.973 3.785 15.573 3.004 3.419 7.43 4.613 12.518 3.329a787.093 787.093 0 0 0 32.422-8.949c-7.77 7.561-14.578 23.708-11.93 33.837 1.744 6.666 7.312 9.796 15.562 8.609a435.818 435.818 0 0 0 23.041-3.949c-2.992 4.709-4.977 10.132-5.693 15.681-.59 4.569.113 11.492 4.043 15.962 3.061 3.481 7.475 4.535 12.393 2.902 3.514-1.169 7.031-2.335 10.549-3.491-3.988 5.267-6.627 11.573-7.469 18.078-.809 6.263.436 11.625 3.504 15.116 2.924 3.327 7.365 4.649 12.645 3.794.699-.113 1.398-.263 2.096-.379l.135-.222c7.111-1.16 14.236-2.602 21.371-3.789-3.744 8.375-5.613 17.87-2.008 23.889.998 1.67 2.758 3.012 5.773 3.647 1.215.467 2.641.719 4.293.721l.051.001a857.647 857.647 0 0 0 16.869-.21c10.771.086 21.475.104 31.988-.536.637 5.482 3.383 10.617 7.857 12.594 12.703 5.604 26.941 8.448 42.318 8.448 32.75 0 65.968-12.831 88.105-22.483 42.102-18.355 80.25-42.439 115.207-65.734l.971-.546-.008-.118c10-7.15 16.311-19.949 15.432-31.517-.615-8.133-5.588-13.389-12.658-13.389-.457 0-.918.023-1.383.069 11.303-9.045 20.77-18.851 28.693-29.693 5.479-7.493 10.092-19.071 6.619-29.091-1.465-4.224-4.529-7.083-8.475-8.051a269.004 269.004 0 0 0 6.055-5.53c7.934-7.481 12.574-18.722 11.82-28.636-.512-6.731-5.016-13.886-12.355-13.886-1.414 0-2.869.279-4.328.828-2.221.836-4.465 1.676-6.725 2.519 7.775-5.463 13.543-15.287 14.863-25.503.619-4.794-.43-11.904-4.197-16.19-3.09-3.512-7.492-4.482-12.312-2.647-.578.221-1.162.442-1.746.663l.01-.318-1.279.793c-.941.352-1.895.705-2.854 1.057a367.645 367.645 0 0 0 19.08-16.248c6.182-5.645 10.541-14.195 11.664-22.871.66-5.124-.246-12.086-3.764-16.091a9.971 9.971 0 0 0-3.424-2.547 891.931 891.931 0 0 0 18.822-10.713c9.592-5.618 15.07-17.314 16.248-26.417.785-6.01-.785-12.246-3.986-15.895zM372.409 323.667c-8.709 8.4-17.336 16.878-26.092 25.214a132.43 132.43 0 0 1 8.363-11.284c2.031-2.453 4.381-4.999 6.918-7.533 5.043-4.192 10.432-7.984 16.043-11.416-.477.455-.953.907-1.428 1.362a28.796 28.796 0 0 0-3.804 3.657zm312.362-20.156a144.16 144.16 0 0 1 1.844 1.554 2.895 2.895 0 0 0-1.135-.396c-.236-.387-.466-.775-.709-1.158zm11.991 140.986c.496 1.11.979 2.228 1.467 3.343-1.252.003-2.803.008-4.525.017a83.202 83.202 0 0 0 3.058-3.36zm15.959-109.595a12.574 12.574 0 0 0-.65 4.092c.021 2.05.113 4.088.264 6.113-6.395-14.006-15.178-26.968-24.598-39.039-.029-.037-.061-.065-.092-.103 9.474 8.314 17.933 17.915 25.076 28.937zM418 401.808l2.934-1.309c.049.118.1.238.148.357-1.029.318-2.06.631-3.082.952zm98.527-5.757c4.461 2.451 8.822 5.086 13.1 7.797 1.721 1.09 3.434 2.19 5.141 3.296-6.428-2.828-12.445-5.742-18.031-8.854a21.242 21.242 0 0 0-.21-2.239zm17.782 145.866c9.232-6.981 17.861-14.149 26.002-21.591a294.954 294.954 0 0 0 15.234 3.147 2797.076 2797.076 0 0 0-41.236 18.444z"/><path fill="#EAA286" d="M556.721 742.973c-16.342 9.044-35.26 12.569-53.812 11.949-18.498-.613-39.199-5.118-50.471-21.084-3.492-4.944-9.352 7.342-8.248 10.683 14.561 44.132 71.523 49.289 108.148 30.948 7.678-3.845 12.512-12.71 13.625-21.009.678-5.045-1.611-15.709-9.242-11.487z"/><path d="M281.424 559.594l-.26-.01c-.449-10.276-6.518-19.389-18.104-19.594-13.004-.232-24.697 10.762-31.562 20.657-1.793 2.587-.912 9.211 2.514 4.999 5.969-7.34 13.965-12.949 23.705-13.074 6.27-.079 9.688 3.137 12.258 7.377-4.402.68-8.545 2.26-11.475 5.726-5.418 6.408-4.35 16.107.295 22.654 1.992 2.806 5.252-4.16 4.656-6.029-.848-2.662-4.805-9.665-1.949-12.133 2.984-2.58 7.404-3.509 11.682-3.93a93.954 93.954 0 0 0 1.719 3.518c1.512 2.898 4.508-1.785 5.648-4.334 1.86-1.363 3.25-5.731.873-5.827zM431.481 735.21c-7.084 22.453-5.777 46.569 11.189 64.235 15.141 15.764 37.834 22.144 59.145 21.886 22.351-.266 44.82-7.926 60.978-23.62 8.4-8.155 14.449-19.146 17.447-30.407 2.461-9.257 4.959-26.646-4.258-32.664-3.488-2.282-6.66 5.809-7.037 7.809-1.721 9.189-.393 19.521-2.934 27.872-.758 2.494-1.727 4.247-4.137 7.647-.996 1.404-4.43 4.79-6.754 6.65-14.402 11.533-33.262 15.973-51.406 16.243-18.256.277-37.381-3.651-52.084-14.963-16.037-12.342-19.234-33.042-15.408-51.812.958-4.7-3.95-1.391-4.741 1.124z"/><path d="M432.702 732.073c-52.775.238-112.695.181-147.611 46.972-15.463 20.718-23.637 45.401-28.441 70.546-4.803 25.125-7.082 51.911-4.234 77.296.594 5.288 5.305-1.197 5.725-3.35 8.674-44.442 5.639-94.188 32.734-132.981 30.643-43.877 92.371-36.95 138.344-46.82 3.719-.797 8.969-11.688 3.483-11.663zm142.64 16.233c25.006-1.971 51.76-.741 75.525 7.888 21.402 7.772 37.738 22.877 51.207 40.795 14.354 19.099 22.814 41.146 30.791 63.433 8.117 22.68 14.674 46.196 19.281 69.833 1.395 7.163 11.041-4.909 10.346-9.52-7.623-50.371-16.473-101.101-47.783-142.931-13.797-18.434-33.541-32.62-55.418-39.678-27.953-9.016-56.201-3.905-83.078 6.19-1.018.384-2.682 4.13-.871 3.99z"/><path d="M294.01 872.826c9.756.859 21.162 4.475 25.461 14.158 3.961 8.931 3.77 20.255 3.568 29.838-.234 10.85-1.844 21.682-2.951 32.465-.834 8.116-3.809 21.311 1.252 28.391 5.277 7.38 13.08-9.128 13.6-12.55 1.504-9.905-.311-20.998-.039-31.108.312-11.497.682-23.035-.785-34.474-1.236-9.644-4.85-17.837-11.92-24.581-7.76-7.399-18.055-6.633-27.721-4.266-.625.155-1.416 2.044-.465 2.127zm41.436-452.174c10.08-9.729 23.709-13.639 37.025-16.719 13.754-3.182 28.443-3.68 42.311-.975 17.631 3.438 28.91-36.744 13.855-36.349-37.604.991-76.012 12.575-97.406 45.655-2.85 4.408-2.447 14.818 4.215 8.388zm312.556 457.152c2.43 8.387 6.17 16.239 9.166 24.438 3.605 9.865 5.557 20.235 7.516 30.521 3.994 20.963 5.559 42.375 8.693 63.476.154 1.045.414 3.285 1.84 3.583.418.089.84.175 1.258.266 2.617.547 4.752-2.037 5.662-4.253 3.789-9.245.389-20.053-.809-29.72-1.479-11.943-3.453-23.824-5.807-35.628-2.324-11.648-5.582-23.036-10.193-33.992-3.402-8.091-7.705-17.014-16.576-19.832-.508-.166-.857.768-.75 1.141z"/><path d="M685.096 846.441c-13.764 5.039-25.682 13.122-34.988 24.489-1.553 1.896-3.023 4.761-2.234 7.29 1.01 3.237 4.258.291 5.314-1.161 8.006-11.026 18.793-18.965 31.102-24.631 1.88-.866 3.89-7.115.806-5.987zm2.664-435.333c-8.346-14.904-21.912-27.523-37.885-33.788-15.555-6.103-33.238-8.714-49.881-9.182-16.102-.452-24.174 39.295-11.02 36.892 15.93-2.912 31.859-2.946 47.711.577 15.244 3.388 30.752 7.576 42.977 17.794 5.276 4.411 10.402-8.174 8.098-12.293z"/><path d="M383.116 559.349c1.465 7.482 8.205 11.091 15.127 7.663 3.057-1.514 5.51-3.581 6.393-6.265 2.715.474 1.814-3.445 1.172-4.775-2.557-5.284-9.566-16.543-17.037-11.747-2.145 1.375-3.721 3.564-4.707 6.039-.051.085-.102.165-.148.259a3.468 3.468 0 0 0-.318 1.071c-.779 2.568-.959 5.329-.482 7.755zm5.375 1.864c.004-.005.008-.021.01-.053.027.036.119.156.293.44-.219-.351-.286-.388-.303-.387zm-.059-2.669c.002-.028.008-.062.012-.093.537.18 1.078.158 1.525-.043 1.197.51 2.396 1.018 3.594 1.528.393.168.854.418 1.346.66-1.104.426-2.18.715-2.984.852-.992.168-1.996.306-2.973-.015a1.17 1.17 0 0 1-.449-.28 3.256 3.256 0 0 0-.051-.531c-.067-.434-.098-1.298-.02-2.078zm-41.709 1.75c1.465 7.483 8.205 11.091 15.127 7.665 3.057-1.516 5.51-3.581 6.395-6.267 2.713.475 1.812-3.444 1.17-4.774-2.555-5.283-9.564-16.542-17.037-11.747-2.143 1.373-3.719 3.565-4.705 6.038-.051.084-.102.165-.148.259-.166.33-.266.694-.32 1.072-.779 2.568-.956 5.328-.482 7.754zm5.377 1.865a.163.163 0 0 0 .01-.054c.027.037.117.158.293.44-.219-.351-.287-.39-.303-.386zm-.06-2.668c.002-.03.008-.062.012-.094.539.178 1.078.157 1.525-.044 1.197.509 2.396 1.02 3.596 1.529.391.168.854.419 1.344.658-1.104.427-2.18.716-2.982.854-.994.167-1.998.305-2.975-.016a1.163 1.163 0 0 1-.449-.278 3.018 3.018 0 0 0-.051-.533c-.067-.431-.101-1.296-.02-2.076zm-41.334 2.94c1.465 7.482 8.203 11.091 15.125 7.665 3.059-1.516 5.51-3.582 6.393-6.267 2.715.474 1.814-3.444 1.172-4.774-2.555-5.283-9.564-16.542-17.037-11.747-2.145 1.373-3.719 3.564-4.705 6.038-.051.085-.104.164-.148.259-.166.33-.266.694-.318 1.072-.779 2.567-.959 5.328-.482 7.754zm5.375 1.864a.16.16 0 0 0 .01-.053c.027.037.117.158.293.44-.219-.351-.288-.39-.303-.387zm-.061-2.667c.004-.031.01-.062.012-.094.539.179 1.078.156 1.527-.045l3.592 1.53c.393.168.854.418 1.348.659-1.105.427-2.182.715-2.984.852-.994.169-1.998.307-2.973-.016a1.152 1.152 0 0 1-.451-.278c.004-.073-.004-.22-.051-.532-.065-.432-.098-1.298-.02-2.076zm48.836 32.69c1.465 7.482 8.205 11.091 15.127 7.663 3.059-1.514 5.512-3.58 6.395-6.266 2.715.475 1.814-3.443 1.172-4.774-2.555-5.282-9.564-16.541-17.039-11.747-2.143 1.374-3.719 3.565-4.705 6.039-.051.085-.102.165-.148.259-.166.33-.266.694-.318 1.072-.779 2.569-.957 5.329-.484 7.754zm5.377 1.866c.004-.005.008-.021.01-.054.027.036.119.158.293.439-.219-.35-.287-.389-.303-.385zm-.061-2.668c.004-.031.01-.062.012-.095.539.179 1.078.158 1.525-.043 1.199.51 2.396 1.02 3.596 1.529.393.167.854.418 1.344.659-1.102.426-2.18.715-2.982.852-.992.169-1.996.306-2.973-.016-.246-.078-.406-.235-.451-.277a3.018 3.018 0 0 0-.051-.533c-.065-.432-.098-1.297-.02-2.076zm-43.957 1.881c1.465 7.483 8.203 11.092 15.125 7.664 3.059-1.515 5.51-3.58 6.393-6.266 2.717.475 1.814-3.444 1.172-4.775-2.555-5.282-9.564-16.541-17.039-11.747-2.143 1.375-3.719 3.566-4.703 6.039a2.252 2.252 0 0 0-.148.26 3.455 3.455 0 0 0-.32 1.071c-.777 2.568-.956 5.329-.48 7.754zm5.375 1.867c.002-.006.008-.022.008-.056.029.039.119.159.295.442-.219-.352-.287-.389-.303-.386zm-.06-2.669c.002-.03.01-.063.012-.094.539.178 1.078.156 1.525-.045 1.197.511 2.396 1.021 3.594 1.53.393.166.854.419 1.346.659-1.104.427-2.18.715-2.982.853-.994.167-1.998.304-2.975-.016a1.152 1.152 0 0 1-.449-.28c.004-.07-.004-.22-.051-.53-.065-.433-.098-1.297-.02-2.077zm368.62-31.479c1.465 7.483 8.203 11.091 15.125 7.664 3.059-1.514 5.51-3.581 6.393-6.266 2.715.475 1.814-3.445 1.174-4.775-2.559-5.283-9.568-16.542-17.039-11.747-2.145 1.376-3.719 3.564-4.707 6.04-.051.084-.102.164-.148.258a3.471 3.471 0 0 0-.316 1.072c-.78 2.569-.958 5.328-.482 7.754zm5.373 1.865c.004-.006.008-.021.01-.054.029.036.119.157.293.44-.217-.35-.285-.388-.303-.386zm-.058-2.669l.012-.093c.539.179 1.078.157 1.525-.044 1.197.51 2.396 1.019 3.594 1.528.393.168.854.418 1.346.66-1.104.426-2.18.715-2.984.852-.992.169-1.996.306-2.973-.015a1.189 1.189 0 0 1-.449-.28 3.256 3.256 0 0 0-.051-.531c-.067-.433-.098-1.296-.02-2.077zm-41.707 1.75c1.465 7.483 8.203 11.091 15.125 7.665 3.059-1.516 5.51-3.581 6.395-6.266 2.715.474 1.812-3.444 1.17-4.775-2.555-5.283-9.564-16.542-17.037-11.747-2.143 1.373-3.719 3.565-4.705 6.038-.051.085-.102.166-.148.26-.166.33-.266.693-.32 1.071-.777 2.568-.957 5.329-.48 7.754zm5.375 1.865a.163.163 0 0 0 .01-.054c.027.037.117.158.293.441-.219-.351-.286-.391-.303-.387zm-.061-2.668c.002-.03.008-.062.012-.094.539.179 1.078.158 1.527-.043l3.594 1.528c.391.168.854.419 1.346.659-1.105.427-2.182.715-2.984.853-.994.167-1.998.306-2.975-.015a1.193 1.193 0 0 1-.449-.278 2.812 2.812 0 0 0-.051-.533c-.065-.432-.098-1.298-.02-2.077zm-41.334 2.939c1.465 7.482 8.203 11.091 15.127 7.665 3.057-1.516 5.508-3.582 6.393-6.267 2.715.474 1.814-3.443 1.17-4.773-2.555-5.284-9.564-16.543-17.037-11.748-2.145 1.373-3.719 3.564-4.705 6.038-.051.085-.102.165-.148.259a3.42 3.42 0 0 0-.318 1.072c-.779 2.568-.958 5.329-.482 7.754zm5.375 1.864a.151.151 0 0 0 .01-.052c.027.036.119.157.293.439-.219-.35-.287-.388-.303-.387zm-.06-2.666c.004-.03.01-.062.012-.094.539.179 1.078.157 1.527-.044l3.592 1.529c.395.168.854.419 1.348.659-1.105.427-2.182.715-2.984.852-.992.169-1.996.307-2.973-.015-.244-.079-.406-.235-.451-.278.004-.073-.004-.221-.051-.532-.065-.433-.098-1.299-.02-2.077zm48.838 32.69c1.465 7.482 8.203 11.092 15.125 7.664 3.059-1.515 5.512-3.581 6.395-6.266 2.715.474 1.814-3.444 1.172-4.775-2.555-5.282-9.564-16.541-17.039-11.746-2.143 1.373-3.719 3.564-4.705 6.038-.051.086-.102.165-.148.26-.166.33-.266.693-.316 1.071-.779 2.568-.959 5.329-.484 7.754zm5.375 1.865c.004-.005.008-.021.01-.054.027.037.119.158.293.44-.219-.35-.286-.39-.303-.386zm-.059-2.668c.002-.031.008-.062.01-.094.539.179 1.078.158 1.527-.043l3.594 1.528c.393.167.854.418 1.344.66-1.102.426-2.18.714-2.982.852-.992.168-1.996.306-2.973-.017-.244-.077-.406-.234-.451-.277a2.908 2.908 0 0 0-.049-.532c-.067-.431-.1-1.298-.02-2.077zm-43.959 1.882c1.465 7.483 8.203 11.092 15.127 7.664 3.057-1.515 5.508-3.58 6.393-6.266 2.715.475 1.814-3.443 1.17-4.775-2.555-5.282-9.564-16.541-17.037-11.747-2.145 1.375-3.719 3.566-4.705 6.039-.051.085-.104.166-.148.261a3.449 3.449 0 0 0-.32 1.07c-.777 2.568-.957 5.329-.48 7.754zm5.375 1.866a.152.152 0 0 0 .008-.056c.029.039.121.159.295.442-.219-.352-.287-.389-.303-.386zm-.061-2.669c.002-.03.01-.062.012-.094.539.179 1.078.157 1.525-.044l3.594 1.529c.393.166.855.419 1.346.66-1.104.427-2.18.714-2.982.852-.994.167-1.996.305-2.973-.015a1.177 1.177 0 0 1-.451-.28 2.993 2.993 0 0 0-.051-.53c-.064-.433-.098-1.297-.02-2.078z" fill="#EAA286"/><path fill="#FF8A0B" d="M396.929 805.827c.253-.007.493.013.739.074l-.675-.175c.223.07.417.168.601.313l-.534-.439c.168.148.301.315.411.512l-.347-.645c.101.196.173.4.22.617l-.159-.802c.018.093.034.187.039.281.034.716.349 1.521 1.024 1.865.69.352 1.495.112 2.111-.268.854-.526 1.511-1.359 1.961-2.243.487-.956.632-1.853.663-2.905.018-.61-.133-1.274-.38-1.831-.603-1.36-1.667-2.169-3.177-2.283-.845-.064-1.686.491-2.265 1.038-.8.756-1.39 1.753-1.719 2.8-.278.883-.404 1.907-.093 2.803.227.663.816 1.308 1.58 1.288z"/><path d="M751.691 559.594l.26-.01c.449-10.276 6.518-19.389 18.104-19.594 13.004-.232 24.697 10.762 31.562 20.657 1.793 2.587.91 9.211-2.516 4.999-5.969-7.34-13.963-12.949-23.703-13.074-6.27-.079-9.689 3.137-12.26 7.377 4.404.68 8.547 2.26 11.477 5.726 5.418 6.408 4.35 16.107-.297 22.654-1.99 2.806-5.25-4.16-4.656-6.029.85-2.662 4.805-9.665 1.951-12.133-2.986-2.58-7.404-3.509-11.682-3.93a97.162 97.162 0 0 1-1.719 3.518c-1.512 2.898-4.508-1.785-5.648-4.334-1.861-1.363-3.25-5.731-.873-5.827z"/><path fill="#2F61DD" d="M715.096 717.987c-1.594.025-3.287 1.179-4.422 3.009-1.146 1.848-1.424 3.902-.727 5.364 3.775 7.917 3.555 15.613-.637 22.257-5.568 8.824-17.645 14.754-30.051 14.754-1.566 0-3.123-.098-4.633-.292-.459-.468-1.092-.722-1.824-.722-1.18 0-2.396.653-3.084 1.302-1.863 1.76-2.695 4.345-2.17 6.745 2.154 9.831-.395 19.885-7.172 28.311-8.518 10.585-22.754 17.425-36.271 17.426-3.541.001-6.975-.464-10.199-1.38a3.213 3.213 0 0 0-.883-.123c-2.744 0-4.93 3.357-5.287 5.766-.273 1.827.418 3.18 1.848 3.615l.037.012c1.314 7.352-.1 13.605-4.207 18.596-6.205 7.537-18.842 12.038-33.801 12.039-7.646.001-15.133-1.194-21.193-3.375.279-1.394.121-2.471-.473-3.203-.465-.573-1.15-.876-1.979-.876-1.703 0-3.756 1.288-4.857 3.023-1.857 1.462-3.129 4.603-2.275 6.688-2.609 6.924-6.699 12.134-12.49 15.918-6.291 4.108-14.535 6.28-23.843 6.28-.301 0-.6-.002-.898-.007-18.914-.274-36.873-10.466-45.84-25.987.082-1.365-.242-2.552-.906-3.288-1.055-1.172-2.789-1.086-4.646.392-5.137 4.092-13.688 6.438-23.461 6.439-13.68 0-31.402-4.92-37.986-15.722-3.326-5.458-3.309-11.662.051-18.447l.285-.029c2.953-.335 5.305-4.884 5.16-7.457-.096-1.677-1.137-2.687-2.793-2.555-3.828.293-7.557.44-11.082.44-16.348 0-29.609-3.047-40.537-9.316-7.109-4.078-12.258-9.798-14.895-16.54-2.711-6.931-2.398-15.174.953-25.191 2.047-1.59 3.4-5.01 2.764-7.13-.361-1.198-1.305-1.895-2.594-1.908-14.309-.161-25.57-6.177-30.895-16.504-5.271-10.224-4.135-23.741 2.955-35.366.223.063.455.096.693.096 1.922 0 3.715-2.147 4.494-4.269.721-1.967.518-3.618-.557-4.531l-.297-.251c-13.838-11.74-28.148-23.881-33.539-41.762-4.352-14.437-.025-30.131 13.227-47.951 13.686 14.768 32.475 26.158 55.867 33.868 17.18 5.66 5.717 8.531 22.889 8.531 6.268 0 12.51-.396 18.549-1.178 1.352-.176 2.674-1.201 3.721-2.888.988-1.594 1.754-3.881 1.312-5.521.031-.57-.043-1.089-.221-1.544-2.607-6.681-.445-10.767 3.602-14.848 6.703-6.759 16.207-10.815 24.619-13.892 21.111-7.723 74.24-11.638 100.955-11.638 2.205 0 4.453.027 6.683.082 15.873.39 83.426 3.3 99.611 21.879 5.781 6.637 8.174 14.751 7.109 24.117-.174 1.529.047 2.615.674 3.318.133.147.279.273.439.378-.693 1.415-1.041 3.115-.436 4.37.412.853 1.205 1.35 2.232 1.399a335.76 335.76 0 0 0 16.066.399c24.889 0 17.715-3.052 37.48-9.328 22.939-7.284 45.133-20.183 67.826-39.423 7.883 8.289 11.088 16.412 10.08 25.5-1.088 9.795-8.146 18.998-19.373 25.249-1.473.821-3.258 3.298-3.564 5.676-.172 1.347.168 2.472.984 3.255 11.42 10.955 14.307 25.088 7.723 37.805-6.115 11.821-19.736 19.917-33.89 20.144z"/><path fill="#2DB5F9" d="M760.564 595.521c-3.361-3.887-8.75 1.403-10.121 4.583-2.49 5.771-6.9 9.909-11.584 13.842-.238-.518-.469-1.039-.719-1.55-4.121-8.405-14.754 5.122-11.838 11.196.996 2.073 1.807 4.113 2.424 6.144-1.941-3.005-4.494-5.847-7.746-8.43-3.006-2.388-7.762 6.143-4.473 8.779 7.256 5.815 11.072 14.29 9.992 22.99-3.461 7.178-8.785 13.737-13.273 20.112-.02.028-.037.06-.057.087-4.785 3.157-10.387 5.12-16.088 5.599-3.035.254-6.805 5.729-4.303 8.442 5.438 5.896 10.074 13.101 8.924 21.446-.955 6.93-6.939 12.565-12.264 16.491-4.256 3.137-9.094 5.874-14.234 8.072a5.75 5.75 0 0 0-1.168.492c-6.252 2.55-12.916 4.272-19.535 4.886a46.893 46.893 0 0 1-2.26-1.956c-2.541-2.357-5.664-.82-7.883 1.969-.4-.039-.805-.061-1.201-.108-3.031-.365-4.959 4.306-4.852 6.646.58 12.732-8.797 20.777-20.289 24.062-12.162 3.477-26.373.698-35.197-8.642-2.156-2.284-5.223 1.523-5.688 3.507-2.99 12.738-11.59 20.81-25.012 20.487-12.414-.298-24.145-7.805-31.428-17.521-.322-.431-.689-.623-1.068-.665-1.312-2.488-6.244 1.812-6.367 4.619-.773 17.559-19.176 24.519-35.137 26.369-.092-2.165.035.601-2.416.485-2.887-.135-6.145-2.51-7.576.047-14.354-.172-32.84-5.054-39.723-17.877.078-.987.021-1.912-.203-2.708-.289-1.058-.859-1.895-1.773-2.368a25.279 25.279 0 0 1-.762-7.066c.111-3.741-4.076-2.178-5.381-.334-8.963 12.643-25.496 15.632-39.426 9.962-14.277-5.81-21.094-19.896-15.281-34.331.646-1.605.436-4.233-1.645-4.52a40.588 40.588 0 0 1-7.436-1.755 5.183 5.183 0 0 0-1.014-.738c-9.641-5.418-17.557-12.992-21.691-22.151-1.568-5.218-1.693-10.546-.654-15.678 1.977-4.068 3.674-8.307 4.715-11.913a41.762 41.762 0 0 1 3.334-4.747c2.842-3.488.188-8.749-3.475-4.348-.895-.381-2.053-.859-3.414-1.421-.061-1.269-.412-2.464-1.191-3.438-1.869-2.334-4.441-1.325-6.479.261-15.068-6.316-38.113-16.613-41.646-23.854-4.576-9.383-2.842-19.44 1.564-28.511 1.359-2.8 2.916-8.559-.793-10.448-3.637-1.853-7.559 2.7-8.918 5.5-6.365 13.103-9.674 28.239-4.197 42.246 3.061 7.823 16.158 26.243 28.514 40.022-7.189 8.398-11.121 18.975-8.375 31.042 2.988 13.134 13.633 20.748 25.754 23.889a23.292 23.292 0 0 0 3.701 2.936c2.154 1.374 4.457 2.189 6.834 2.584-2.428 4.261-4.156 8.828-4.65 13.372a57.087 57.087 0 0 0-2.627 5.904c-.984 2.611-1.158 7.23 1.801 8.739 1.467.746 2.986.502 4.385-.246.4.572.842 1.136 1.318 1.692 3.189 11.348 9.975 21.874 18.775 28.516 11.143 8.407 26.246 5.582 38.105.434a97.388 97.388 0 0 0 4.416-2.062c.4.806.826 1.58 1.275 2.332-2.838 7.489-3.717 15.566-.258 22.994 4.564 9.802 14.887 14.677 25.078 16.351 11.314 1.856 22.947-.4 32.551-5.841 3.902 7.53 10.02 13.696 18.375 17.703 2.68 1.284 5.465 2.296 8.314 3.086a43.274 43.274 0 0 0 3.23 2.444c7.541 5.14 15.746 5.295 23.398 2.651 5.09.693 10.445.107 15.865-2.121 10.732-4.411 19.326-12.495 25.242-22.293a26.938 26.938 0 0 0 5.453 4.386c7.824 4.796 17.672 4.652 26.285 2.491 19.393-4.862 33.316-23.281 33.633-42.864 12.99 4.235 28.381-.111 39.004-8.322 14.154-10.94 21.674-28.46 15.777-45.031.873.225 1.76.428 2.666.591 8.195 1.469 16.725-1.138 23.691-5.368 11.244-6.827 18.633-18.484 22.26-31.099a59.403 59.403 0 0 0 4.572-7.7c.287.076.59.126.928.123 7.068-.059 14.492-.848 20.512-4.879 6.244-4.18 9.775-11.004 11.002-18.267 1.883-11.137-3.311-22.838-6.16-33.383-.58-2.145-.754-2.908-.943-5.448-.004-.037-.008-.066-.01-.101.047-.133.092-.267.137-.399.305-.407 1.41-2.798.857-1.936 3.826-5.951 8.924-11.04 13.297-16.577 9.995-12.645 15.607-29.095 3.944-42.588zm-452.339 112.27c.115-.193.121-.251-.051-.07v-.001c.41-.451.848-.89 1.295-1.319.178.167.357.345.533.509-.172.909-.35 1.818-.49 2.73a56.002 56.002 0 0 0-1.287-1.849zm48.805 53.327c-1.463-3.284-2.32-6.825-2.359-10.561a17.464 17.464 0 0 0 2.291-3.863c.402.097.799.203 1.205.288-1.379 4.808-1.739 9.594-1.137 14.136zm18.902 41.581a13.071 13.071 0 0 0 1.881-1.979c1.184.316 2.373.59 3.57.822-1.799.515-3.623.91-5.451 1.157zm150.464-16.455c.203-.554.375-1.12.508-1.693a43.662 43.662 0 0 0 2.801 1.953 33.802 33.802 0 0 0-3.309-.26zm66.321 44.65c.184-.347.104-.263-.09.009.029-.148.059-.302.082-.458.162-.14.322-.284.482-.425-.152.293-.312.584-.474.874zm1.424-38.289a6.824 6.824 0 0 0-.33-.86 31.17 31.17 0 0 0 1.555.202c-.413.213-.819.437-1.225.658zm71.447-47.373a75.096 75.096 0 0 0 2.672-.841 6.83 6.83 0 0 0 .24 1.812c-.98-.277-1.953-.6-2.912-.971zm43.197-40.34a24.203 24.203 0 0 0-.145-5.943 16.698 16.698 0 0 1 1.158 4.438c-.355.469-.694.974-1.013 1.505zm13.555-8.076a30.87 30.87 0 0 0-.342-3.489 18.267 18.267 0 0 1 1.848 2.145c-.451.486-.963.927-1.506 1.344z"/><path d="M770.348 627.268c3.109-14.417-3.441-30.114-16.303-39.061-1.387-.966-3.211-.479-4.723 1.308-1.088 1.287-2.125 3.416-2.057 5.3-20.762 17.292-41.562 29.151-63.578 36.249-25.82 8.325-23.828 9.393-44.367 9.394-1.309 0-2.613-.006-3.918-.016.396-.681.662-1.38.773-2.058 3.225-19.711-8.625-36.859-31.699-45.871-15.65-6.112-62.621-9.084-84.188-9.084-7.357 0-14.966.343-23.263 1.048-28.045 2.38-79.234 8.129-97.082 17.575-12.621 6.68-25.16 18.71-23.219 32.714-4.416.39-8.941.588-13.471.588-41.254.002-51.641-15.448-76.215-41.342-.48-1.179-1.443-1.901-2.553-1.901-.768 0-1.961.349-3.293 2.009-16.604 20.69-23.25 40.403-19.756 58.593 4.104 21.364 21.666 37.314 32.275 45.214-8.564 14.366-10.688 29.418-5.967 42.471 4.521 12.499 16.293 20.943 31.625 22.759-6.338 20.155-1.557 37.825 13.201 48.616 13.809 10.094 31.795 12.213 44.451 12.213 1.596 0 3.215-.034 4.832-.102-3.074 7.743-3.277 15.228-.572 21.729 3.668 8.815 12.242 14.156 18.787 17.083 7.729 3.456 16.738 5.36 25.369 5.36 9.412 0 18.008-2.203 24.93-6.38 10.217 17.463 30.346 28.691 51.582 28.691.346 0 .688-.003 1.031-.009 19.49-.328 36.097-11.296 43.576-28.7 6.525 2.604 14.098 3.977 21.971 3.977 16.287 0 31.355-5.689 40.307-15.22 6.16-6.558 9.238-14.798 8.943-23.896 15.492 1.356 32.219-5.534 43.842-17.896 9.531-10.134 14.494-22.481 14.053-34.886.809.051 1.625.076 2.439.076 12.973 0 26.1-6.499 34.262-16.962 6.723-8.619 9.209-18.731 7.059-28.587 14.535-2.681 27.689-12.427 35.342-26.242 8.205-14.812 6.824-32.063-3.547-45.266 9.98-7.538 16.582-17.713 19.121-29.488zm-56.08 91.481c-1.596.025-3.289 1.179-4.424 3.009-1.145 1.848-1.422 3.902-.725 5.364 3.773 7.917 3.553 15.613-.639 22.256-5.568 8.825-17.645 14.754-30.051 14.754-1.566 0-3.121-.098-4.631-.291-.461-.468-1.094-.722-1.826-.722-1.178 0-2.396.653-3.082 1.302-1.865 1.76-2.695 4.344-2.17 6.745 2.152 9.831-.395 19.884-7.174 28.311-8.518 10.585-22.752 17.425-36.27 17.426-3.543.001-6.975-.464-10.201-1.38a3.213 3.213 0 0 0-.883-.123c-2.742 0-4.928 3.357-5.287 5.766-.271 1.827.42 3.179 1.85 3.615l.035.012c1.314 7.352-.098 13.604-4.205 18.595-6.207 7.538-18.842 12.039-33.801 12.04-7.646.001-15.135-1.195-21.195-3.375.279-1.395.121-2.472-.471-3.203-.467-.573-1.15-.876-1.98-.876-1.701 0-3.756 1.288-4.855 3.023-1.857 1.462-3.131 4.602-2.275 6.688-2.609 6.924-6.699 12.134-12.49 15.917-6.291 4.109-14.537 6.281-23.845 6.281-.301 0-.6-.002-.898-.007-18.914-.274-36.871-10.466-45.84-25.987.082-1.366-.24-2.552-.904-3.288-1.055-1.172-2.789-1.086-4.648.392-5.137 4.092-13.688 6.438-23.461 6.438-13.678 0-31.4-4.919-37.984-15.721-3.326-5.459-3.311-11.662.049-18.447l.287-.029c2.953-.335 5.305-4.885 5.158-7.457-.094-1.677-1.135-2.688-2.793-2.555-3.828.292-7.557.44-11.082.44-16.348 0-29.607-3.047-40.535-9.316-7.109-4.079-12.26-9.798-14.895-16.541-2.711-6.93-2.4-15.173.951-25.19 2.047-1.59 3.4-5.01 2.764-7.13-.359-1.199-1.305-1.895-2.594-1.908-14.309-.161-25.568-6.177-30.893-16.504-5.273-10.224-4.135-23.741 2.953-35.367.225.064.455.097.695.097 1.922 0 3.715-2.147 4.492-4.269.723-1.967.52-3.618-.557-4.531l-.297-.251c-13.838-11.741-28.146-23.882-33.537-41.763-4.352-14.436-.025-30.13 13.225-47.95 13.686 14.768 13.223 26.158 36.615 33.868 17.18 5.66 24.969 8.531 42.141 8.531 6.27 0 12.51-.396 18.549-1.178 1.354-.176 2.676-1.202 3.721-2.889.99-1.593 1.754-3.881 1.312-5.521.031-.571-.043-1.089-.219-1.544-2.607-6.681-.447-10.768 3.602-14.849 6.703-6.758 16.205-10.814 24.617-13.891 21.111-7.723 74.242-11.639 100.955-11.639 2.207 0 4.455.028 6.683.083 15.875.39 83.428 3.3 99.611 21.879 5.781 6.637 8.174 14.75 7.109 24.116-.174 1.53.047 2.616.676 3.319.131.147.277.273.439.378-.693 1.414-1.041 3.115-.436 4.37.41.853 1.203 1.35 2.23 1.399 5.502.265 10.908.399 16.068.399 24.889 0 17.715-3.052 37.479-9.328 22.939-7.285 45.133-20.183 67.826-39.423 7.883 8.289 11.09 16.412 10.08 25.5-1.086 9.795-8.146 18.998-19.371 25.248-1.475.822-3.258 3.298-3.564 5.677-.174 1.347.166 2.472.982 3.255 11.42 10.955 14.309 25.088 7.725 37.805-6.118 11.822-19.737 19.917-33.891 20.145z"/><path fill="#FFF" d="M575.691 638.083c-42.844 2.005-86.414 4.821-128.992-1.84-2.977-.467-5.215 4.084-5.514 6.36-1.24 9.503 2.271 18.126 7.709 25.529-3.635 6.778-3.994 14.579 2.998 20.438 8.062 6.757 19.5 9.776 30.016 11.329 5.967 2.761 12.414 4.479 19.123 5.069 30.023 2.635 56.138-18.651 69.396-43.96 2.951-5.635 5.283-11.629 7.166-17.697.475-1.523.698-5.349-1.902-5.228zm-98.599 28.718a24.798 24.798 0 0 0 5.295 3.659c-3.688-.467-7.318-1.202-10.809-2.325a58.583 58.583 0 0 1 5.514-1.334zm67.826 1.632c-.293.003-.588.017-.881.021 1.068-.15 2.135-.286 3.201-.406-.047.444-.104.883-.166 1.316-.398-.583-1.082-.937-2.154-.931zm-82.099-7.314a33.94 33.94 0 0 1-1.879-2.263 513.32 513.32 0 0 1 6.908-.109 46.419 46.419 0 0 0-5.029 2.372zm-10.51-13.079l-.062-.182.477.058c-.14.038-.28.073-.415.124zm113.238 1.524c-6.33-.014-12.656-.13-18.982-.294 7.367-.317 14.738-.643 22.115-.915-.33.841-.674 1.675-1.031 2.505-.358-.771-1.012-1.293-2.102-1.296zM455.95 676.199c.232.376.48.745.719 1.118a11.193 11.193 0 0 1-1.117-1.51l.398.392z"/><path d="M421.295 625.267c25.334 16.465 58.312 20.273 87.85 20.243a223.704 223.704 0 0 0 49.052-5.53c13.688-3.105 28.738-7.702 40.221-16.072 2.123-1.548 3.717-8.492-.473-6.241-12.447 6.686-24.963 11.637-38.777 14.829-15.973 3.693-32.355 5.097-48.72 5.292-28.77.341-61.049-3.235-86.338-18.041-2.209-1.293-4.992 4.103-2.815 5.52z"/><path d="M434.094 631.825c-2.889 36.477 20.252 71.635 56.744 79.501 16.672 3.595 35.839.291 51.037-7.148 13.486-6.601 23.688-18.246 30.141-31.636 6.074-12.601 10.152-28.15 9.865-42.191-.025-1.196-.973-2.134-2.184-1.767-1.752.532-2.74 2.508-3.037 4.171-1.484 8.285-2.23 16.542-4.527 24.686-2.006 7.104-4.879 14.021-8.916 20.219-8.51 13.062-21.783 20.954-36.748 24.53-18.019 4.306-36.837 2.953-53.052-6.324-15.822-9.051-27.246-24.728-32.238-42.117-2.166-7.552-2.848-15.533-2.34-23.357.29-4.47-4.512-1.518-4.745 1.433z"/><path d="M436.831 659.573c20.453 10.492 43.609 16.027 66.498 17.251 23.791 1.274 50.115-2.42 70.121-16.243 2.027-1.4 3.158-7.743-.426-5.615-20.967 12.449-44.648 16.401-68.8 15.153-22.145-1.146-44.631-6.293-64.682-15.863-2.254-1.076-4.924 4.182-2.711 5.317zm15.146 58.302c15.551 12.369 31.479 20.791 51.277 23.649 16.775 2.422 39.541-.336 52.111-12.555 1.812-1.764 6.984-14.113.627-13.36-7.619.903-14.812 6.168-22.221 8.551-8.367 2.69-17.463 3.103-26.171 2.814-17.992-.596-36.875-7.056-53.047-14.629-2.136-.999-4.285 4.17-2.576 5.53z"/><path fill="#08B5F9" d="M803.594 440.863c-.725-27.281-6.988-54.856-15.789-80.995-.184-1.032-.361-2.064-.549-3.097-2.383-13.08-4.318-26.53-8.609-39.152-5.885-17.302-18.236-32.027-30.42-45.647-6.383-11.158-13.672-21.746-22.664-31.078-9.496-9.85-20.537-17.577-32.393-23.932-16.344-13.549-34.041-25.313-53.801-33.871-45.336-19.637-98.127-20.617-146.445-14.428-50.033 6.409-98.174 23.387-141.523 49.104-22.252 13.2-43.084 28.785-62.428 45.948-18.697 16.59-33.707 34.845-43.17 58.167-10.588 26.087-12.764 54.226-12.383 82.42a85.568 85.568 0 0 0-.377 9.953c.119 5.392.604 10.742 1.283 16.07.504 10.052 1.104 20.033 1.533 29.851.121 2.762.225 5.524.314 8.289-3.375.225-6.795 6.92-4.418 9.585 1.459 1.637 3.057 3.133 4.721 4.561.002.225 0 .45 0 .676-.123-.058-.248-.117-.373-.174-4.072-1.847-8.352 6.419-5.805 9.395 3.561 4.16 7.588 7.955 12.064 11.03-.619-.142-1.234-.28-1.848-.415-2.732-.601-5.896 6.315-3.008 7.338 9.416 3.334 19.027 6.692 29.172 5.624 3.176-.334 7.305-6.079 4.578-8.985a84.319 84.319 0 0 0-5.934-5.72 16.294 16.294 0 0 0-.312-4.363c.23.113.465.225.697.339 4.166 2.069 6.82-5.554 6.18-8.395-11.779-52.447 5.705-106.986 34.43-150.932 12.314-18.839 26.99-38.092 49.281-45.196 9.594-3.058 19.775-3.521 29.77-3.502 12.619.022 25.225.717 37.852.745.15.297.346.563.627.768 21.471 15.604 55.762 34.134 82.266 35.723 25.314 1.517 41.056-12.694 65.808-17.456 23.594-4.54 46.957-9.886 71.127-9.399 18.236.366 36.355 4.074 52.623 12.492 26.906 13.923 43.465 39.909 52.506 68.091 6.627 20.666 8.766 41.966 9.193 63.578.471 23.742-.402 47.633 5.24 70.891.326 1.346 1.842 2.014 3.092 1.574 31.366-11.023 38.679-45.867 37.892-75.475z"/><path fill="#FFF" d="M466.18 503.233c0 31.785-33.215 57.552-74.189 57.552-40.973 0-74.189-25.767-74.189-57.552 0-31.787-11.463-43.735 29.227-48.562 113.757-13.487 119.151 16.775 119.151 48.562zm99.228-9.892c0 31.785 33.217 57.552 74.189 57.552 40.975 0 74.189-25.767 74.189-57.552 0-31.786 11.463-43.735-29.225-48.561-113.756-13.489-119.153 16.775-119.153 48.561z"/><path fill="#EF6100" d="M487.479 472.489c-.389-5.095-1.59-9.9-3.572-14.294a181.38 181.38 0 0 0-1.209-6.739c-.686-3.434-3.662-5.654-7.197-5.289-10.4-10.332-24.959-14.435-35.578-16.05-6.207-.942-12.807-1.421-19.613-1.421-15.191 0-31.707 2.27-51.975 7.141-11.264 2.708-21.213 5.673-30.41 9.059a284.737 284.737 0 0 0-22.42 8.054c-7.613 3.104-16.488 6.998-24.578 12.328-3.18 2.097-5.375 5.655-5.877 9.525-.264 2.042.137 5.23 2.135 7.502 1.221 1.39 2.85 2.209 4.631 2.342.305 11.224 2.148 21.915 5.422 31.785l.006 1.899.268-1.092c4.711 13.819 12.246 26.005 22.303 35.776 16.562 16.093 40.26 25.831 65.021 26.718 1.223.043 2.465.065 3.686.065h.004c23.188 0 45.625-7.789 63.178-21.934 17.168-13.833 28.773-34.597 32.695-58.479 2.676-9.519 3.711-18.568 3.08-26.896zm-168.861 9.589c-.125-1.89-.25-3.829-.299-5.725 1.439-1.105 3.092-2.162 4.93-3.154 51.207-25.721 104.264-19.427 123.756-11.628.889.355 1.859.377 2.746.581 7.441 4.473 12.096 11.402 13.125 19.567.717 5.688.238 12.005-1.424 18.781-3.365 16.221-8.42 28.615-13.773 35.296-9.205 11.484-23.604 18.926-44.02 22.747-.893.065-4.885.216-5.992.216-14.281 0-28.549-3.361-41.273-9.719-16.223-10.749-36.793-34.118-37.682-55.805.152-.811.234-1.624.242-2.428.037-2.981-.153-5.9-.336-8.729z"/><path d="M388.524 583.649h-.004c-1.256 0-2.541-.022-3.822-.068-25.703-.919-50.33-11.054-67.566-27.804-7.684-7.466-13.945-16.212-18.697-26.101l-4.947 20.244-.098-32.868c-3.012-9.263-4.795-19.145-5.312-29.423a10.83 10.83 0 0 1-3.785-2.783c-2.842-3.231-3.443-7.562-3.061-10.537.645-4.966 3.477-9.544 7.576-12.247 8.375-5.518 17.461-9.506 25.244-12.68a288.125 288.125 0 0 1 22.633-8.134c9.324-3.43 19.385-6.425 30.752-9.156 20.57-4.944 37.371-7.247 52.873-7.247 6.998 0 13.791.492 20.191 1.465 10.648 1.619 25.459 5.714 36.537 15.995 4.676.339 8.498 3.696 9.438 8.396.404 2.028.783 4.122 1.152 6.385 2.043 4.673 3.283 9.753 3.691 15.109.66 8.72-.402 18.147-3.156 28.025-4.109 24.729-16.195 46.26-34.045 60.642-18.237 14.696-41.532 22.787-65.594 22.787zm-87.541-68.156l.172.503c4.572 13.415 11.754 24.941 21.342 34.258 15.887 15.437 38.658 24.779 62.477 25.632 1.188.041 2.381.062 3.547.062h.004c22.311 0 43.891-7.486 60.762-21.081 16.424-13.233 27.545-33.159 31.312-56.105l.094-.418c2.553-9.083 3.545-17.685 2.947-25.563-.354-4.643-1.443-9.018-3.242-13l-.211-.467-.082-.506a175.444 175.444 0 0 0-1.182-6.597c-.299-1.497-1.51-2.37-3.027-2.214l-1.814.188-1.295-1.285c-9.713-9.65-23.547-13.471-33.443-14.976-6.018-.913-12.42-1.377-19.033-1.377-14.879 0-31.107 2.235-51.074 7.034-11.107 2.67-20.914 5.591-29.98 8.929l-.18.062a280.246 280.246 0 0 0-22.115 7.943c-7.438 3.033-16.096 6.827-23.914 11.978-2.256 1.487-3.816 4.032-4.178 6.806-.166 1.297.139 3.249 1.209 4.464.549.626 1.248.987 2.023 1.044l3.469.259.094 3.478c.295 10.78 2.055 21.102 5.23 30.678l.088.271zm96.684 47.117c-14.871 0-29.738-3.501-42.996-10.125l-.404-.235c-9.143-6.056-18.461-15.069-25.566-24.729-6.008-8.166-13.287-20.717-13.836-34.127l-.02-.438.082-.431c.111-.591.17-1.184.178-1.762.035-2.84-.15-5.684-.33-8.436-.119-1.812-.254-3.868-.307-5.875l-.049-1.961 1.557-1.193c1.6-1.229 3.43-2.401 5.441-3.488l.104-.053c31.059-15.6 61.135-18.874 80.896-18.874 17.684 0 34.887 2.658 46.018 7.112.152.062.572.124.906.175.432.065.859.134 1.275.229l.596.138.523.314c8.469 5.091 13.781 13.04 14.961 22.387.773 6.139.271 12.904-1.488 20.112-3.389 16.306-8.547 29.394-14.525 36.854-9.805 12.235-24.955 20.126-46.316 24.123l-.424.056c-.982.073-5.085.227-6.276.227zm-39.342-16.91c12.141 6.025 25.738 9.209 39.342 9.209.936 0 4.395-.127 5.51-.193 19.35-3.654 32.926-10.632 41.496-21.327 5.166-6.446 9.906-18.718 13.008-33.67l.031-.135c1.549-6.314 2-12.163 1.344-17.383-.852-6.741-4.646-12.539-10.711-16.393l-.15-.022c-.73-.109-1.637-.246-2.619-.64-7.93-3.173-23.432-6.562-43.158-6.562-18.918 0-47.695 3.128-77.389 18.029a35.612 35.612 0 0 0-2.781 1.666c.059 1.215.139 2.428.213 3.546.189 2.898.385 5.895.346 9.029-.01.867-.086 1.747-.229 2.622 1.022 19.146 19.075 41.101 35.747 52.224z"/><path fill="#EF6100" d="M546.902 491.448c3.922 23.883 15.527 44.646 32.695 58.48 17.553 14.145 39.99 21.934 63.178 21.934h.004c1.221 0 2.461-.022 3.688-.066 24.758-.887 48.457-10.625 65.02-26.718 10.055-9.772 17.592-21.958 22.305-35.776l.266 1.092.006-1.899c3.273-9.871 5.117-20.561 5.422-31.785 1.781-.134 3.408-.953 4.631-2.342 1.996-2.271 2.398-5.461 2.135-7.502-.502-3.868-2.699-7.43-5.877-9.525-8.09-5.331-16.965-9.224-24.578-12.329a284.845 284.845 0 0 0-22.42-8.053c-9.197-3.387-19.145-6.35-30.412-9.06-20.266-4.871-36.781-7.141-51.975-7.141-6.805 0-13.404.479-19.611 1.423-10.619 1.615-25.178 5.717-35.578 16.048-3.535-.364-6.512 1.858-7.197 5.289a174.378 174.378 0 0 0-1.207 6.741c-1.984 4.392-3.188 9.198-3.574 14.293-.634 8.327.402 17.377 3.079 26.896zm165.442-8.578c.01.805.094 1.618.246 2.43-.891 21.686-21.459 45.055-37.684 55.803-12.725 6.359-26.992 9.719-41.273 9.719-1.107 0-5.098-.15-5.992-.214-20.416-3.823-34.814-11.265-44.02-22.748-5.354-6.682-10.408-19.076-13.773-35.296-1.662-6.776-2.141-13.094-1.422-18.781 1.027-8.164 5.682-15.095 13.121-19.566.887-.205 1.859-.228 2.748-.582 19.492-7.798 72.549-14.093 123.756 11.629 1.838.991 3.49 2.048 4.93 3.153-.049 1.896-.174 3.835-.297 5.725-.186 2.829-.375 5.747-.34 8.728z"/><path d="M642.779 575.713h-.004c-24.064 0-47.359-8.093-65.594-22.786-17.85-14.384-29.936-35.914-34.045-60.643-2.756-9.877-3.818-19.305-3.156-28.023.408-5.36 1.65-10.44 3.691-15.109.369-2.268.748-4.361 1.154-6.39.938-4.698 4.762-8.055 9.436-8.394 11.076-10.279 25.887-14.375 36.535-15.994 6.406-.974 13.199-1.467 20.191-1.467 15.504 0 32.305 2.303 52.875 7.247 11.381 2.736 21.439 5.733 30.752 9.157a289.19 289.19 0 0 1 22.635 8.133c7.785 3.176 16.873 7.166 25.242 12.681 4.102 2.704 6.934 7.281 7.576 12.246.383 2.976-.219 7.307-3.061 10.538a10.846 10.846 0 0 1-3.785 2.782c-.518 10.279-2.301 20.16-5.312 29.424l-.098 32.979-4.953-20.342c-4.752 9.883-11.01 18.625-18.689 26.088-17.238 16.75-41.867 26.885-67.566 27.804-1.253.046-2.541.069-3.824.069zM555.047 442.04c-1.371 0-2.395.855-2.668 2.231-.418 2.08-.805 4.237-1.184 6.598l-.08.507-.213.469c-1.799 3.98-2.889 8.354-3.242 12.999-.598 7.878.395 16.479 2.949 25.562l.092.419c3.768 22.945 14.889 42.871 31.312 56.106 16.871 13.594 38.449 21.08 60.762 21.08h.004c1.191 0 2.383-.021 3.547-.062 23.818-.853 46.59-10.195 62.477-25.632 9.586-9.317 16.768-20.843 21.344-34.258l.26-.776c3.176-9.577 4.936-19.898 5.23-30.678l.094-3.476 3.467-.26c.775-.058 1.477-.42 2.027-1.046 1.066-1.214 1.373-3.166 1.207-4.465-.359-2.771-1.922-5.315-4.178-6.803-7.812-5.148-16.473-8.944-23.914-11.979a280.535 280.535 0 0 0-22.115-7.943l-.18-.062c-9.055-3.333-18.861-6.254-29.982-8.929-19.965-4.799-36.193-7.034-51.074-7.034-6.607 0-13.012.464-19.033 1.379-9.895 1.506-23.73 5.326-33.441 14.974l-1.295 1.286-1.814-.188a3.694 3.694 0 0 0-.359-.019zm78.586 112.632c-1.168 0-5.27-.153-6.266-.224l-.436-.057c-21.359-3.999-36.508-11.891-46.314-24.124-5.979-7.461-11.135-20.547-14.525-36.855-1.762-7.209-2.262-13.975-1.488-20.112 1.178-9.345 6.492-17.295 14.961-22.385l.521-.313.594-.138c.416-.096.844-.164 1.277-.23.336-.051.754-.114.91-.176 11.131-4.453 28.334-7.111 46.016-7.111 19.762 0 49.838 3.274 80.896 18.875l.1.052c2.016 1.088 3.848 2.261 5.447 3.489l1.555 1.193-.051 1.961c-.051 1.98-.18 3.96-.305 5.874-.18 2.774-.365 5.61-.33 8.433.006.577.066 1.171.178 1.766l.082.431-.018.438c-.551 13.41-7.83 25.96-13.838 34.127-7.105 9.659-16.426 18.672-25.566 24.729l-.404.233c-13.256 6.623-28.123 10.124-42.996 10.124zm-5.512-7.893c1.133.065 4.594.191 5.512.191 13.605 0 27.203-3.184 39.342-9.208 16.672-11.122 34.725-33.076 35.748-52.222a17.912 17.912 0 0 1-.229-2.625c-.037-3.118.156-6.105.346-8.994.076-1.189.154-2.392.213-3.579a35.922 35.922 0 0 0-2.781-1.665c-29.693-14.902-58.471-18.03-77.389-18.03-19.727 0-35.227 3.389-43.156 6.562-.982.392-1.889.528-2.615.64-.053.008-.104.016-.154.022-6.068 3.853-9.863 9.65-10.711 16.393-.658 5.219-.207 11.066 1.342 17.382l.031.136c3.102 14.952 7.842 27.225 13.008 33.671 8.569 10.692 22.143 17.669 41.493 21.326z"/><path fill="#EF6100" d="M551.311 475.954c-1.062-15.781-19.451-23.313-33.148-23.677-13.896-.368-32.039 4.789-37.912 18.838-.957 2.29-3.646 14.793 1.029 12.395 20.57-10.553 35.302-13.139 51.798-7.6 1.041 3.785 15.289 12.806 19.131 13.833 4.922 1.316-.613-9.56-.898-13.789z"/><path d="M490.2 486.271c6.023-8.83 17.049-11.229 27.136-9.946 10.791 1.373 19.926 7.831 24.451 17.703 1.82 3.973 5.953-2.368 5.258-4.974-3.223-12.084-15.658-18.806-27.258-20.515-12.55-1.849-25.666 3.095-32.664 13.884-.84 1.295-1.84 3.487-.688 4.928 1.108 1.381 3.048-.028 3.765-1.08zm-6.698-20.384c16.648-11.115 39.253-19.885 56.486-4.968 3.203 2.773 7.873-4.835 5.258-7.098-19.367-16.766-43.744-7.389-62.216 5.824-1.482 1.062-2.568 2.887-2.428 4.764.121 1.585 1.523 2.396 2.9 1.478zm-51.951 18.927c-.316-.41-.646-.812-.984-1.209-3.914-5.916-10.367-10.001-17.809-10.699-4.5-.969-9.168-.872-13.559.628-3.58 1.225-7.119 3.491-9.355 6.577-9.998 7.267-11.859 21.31-4.033 31.805 9.799 13.137 28.049 13.88 40.807 4.904 11.011-7.747 13.045-21.433 4.933-32.006zm-44.506 6.592c-.211.909-.375 1.84-.479 2.787.02-.999.196-1.922.479-2.787z"/><circle fill="#FFF" cx="414.542" cy="490.982" r="9.566"/><path d="M646.818 483.902c-.316-.41-.646-.812-.984-1.208-3.914-5.917-10.369-10.002-17.809-10.7-4.5-.969-9.168-.872-13.559.628-3.58 1.224-7.119 3.49-9.355 6.577-9.998 7.267-11.859 21.309-4.033 31.804 9.799 13.138 28.049 13.881 40.805 4.906 11.013-7.749 13.047-21.433 4.935-32.007zm-44.506 6.591a23.952 23.952 0 0 0-.479 2.787 9.482 9.482 0 0 1 .479-2.787z"/><path fill="#2F61DD" d="M632.441 149.238c-3.59-22.016-12.334-44.951-29.363-60.114-16.289-14.504-36.082-21.735-57.66-24.026-20.439-2.17-42.906-.119-62.115 7.379-26.514 10.348-47.291 33.283-50.662 62.249-.514 4.397-.883 9.158-.141 13.544.463 2.737 1.023 5.269 1.844 7.88a140.532 140.532 0 0 0 2.373 4.451c.746 1.281.662 1.148-.252-.396 2.076 4.994 5.975 7.058 11.264 5.739 7.027-1.752 11.215-6.043 14.965-11.901 1.734.151 3.588-.054 5.553-.34.75-.111 1.502-.216 2.252-.323-1.268.188 2.875-.362 3.109-.391 3.398-.418 6.805-.765 10.213-1.087 6.912-.651 13.83-1.156 20.77-1.416a232.442 232.442 0 0 1 18.65.079c3.248.14 6.486.405 9.721.728 4.297.427 8.336-.531 12.533-1.321 6.102-1.146 12.139-7.216 16.031-14.594.631.31 1.258.622 1.881.941 2.754 1.413 5.41 3.009 8.016 4.676a69.48 69.48 0 0 1 4.34 3.032c.355.281.619.488.793.623.35.301.701.598 1.045.903 4.426 3.884 8.336 8.32 11.711 13.138.436.952.863 1.908 1.275 2.87 2.211 5.14 3.932 10.488 5.625 15.815 3.818 12.018 17.062 8.035 23.93 1.548 7.957-7.517 12.859-18.644 12.094-29.559l.205-.127z"/><path fill="#2F61DD" d="M803.594 440.863c-.725-27.281-6.988-54.856-15.789-80.995-.184-1.032-.361-2.064-.549-3.097-2.383-13.08-4.318-26.53-8.609-39.152-5.885-17.302-18.236-32.027-30.42-45.647-6.383-11.158-13.672-21.746-22.664-31.078-9.496-9.85-20.537-17.577-32.393-23.932-16.344-13.549-34.041-25.313-53.801-33.871-45.336-19.637-98.127-20.617-146.445-14.428-50.033 6.409-98.174 23.387-141.523 49.104-22.252 13.2-43.084 28.785-62.428 45.948-18.697 16.59-33.707 34.845-43.17 58.167-10.588 26.087-12.764 54.226-12.383 82.42a85.568 85.568 0 0 0-.377 9.953c.119 5.392.604 10.742 1.283 16.07.504 10.052 1.104 20.033 1.533 29.851.121 2.762.225 5.524.314 8.289-3.375.225-6.795 6.92-4.418 9.585 1.459 1.637 3.057 3.133 4.721 4.561.002.225 0 .45 0 .676-.123-.058-.248-.117-.373-.174-4.072-1.847-8.352 6.419-5.805 9.395 3.561 4.16 7.588 7.955 12.064 11.03-.619-.142-1.234-.28-1.848-.415-2.732-.601-5.896 6.315-3.008 7.338 5.211 1.846 10.48 3.693 15.867 4.799 1.303-18.663 2.51-37.334 4.311-55.958 6.756-69.857 21.691-147.245 80.902-192.293 27.199-20.693 59.27-34.646 92.143-43.512 35.279-9.514 72.162-13.694 108.675-12.095 34.621 1.515 69.572 7.906 101.406 21.952 16.584 7.316 31.836 16.781 45.893 28.23 16.707 13.607 32.443 29.337 43.947 47.675 5.258 8.382 10.193 17.478 13.426 26.852 3.396 9.847 5.332 20.111 6.428 30.455 1.088 10.251 1.66 20.549 2.154 30.854 3.178 15.238 4.4 30.762 4.711 46.451.471 23.742-.402 47.633 5.24 70.891.326 1.346 1.842 2.014 3.092 1.574 31.367-11.021 38.68-45.865 37.893-75.473z"/><path fill="#EF6100" d="M448.983 172.505c5.877-3.34 10.105-5.208 16.643-7.594 7-2.556 14.391-4.463 21.674-6.007 14.299-3.03 29.835-3.516 44.931-2.484 15.17 1.036 30.064 3.975 44.359 8.878 7.133 2.444 14.066 5.453 20.75 8.936 3.172 1.652 6.252 3.477 9.27 5.396 3.443 2.192 6.264 4.602 10.646 4.254 9.879-.783 16.467-13.704 13.918-22.668-2.209-7.776-11.297-11.89-17.947-15.49-6.984-3.784-14.352-6.842-21.844-9.457-15.957-5.569-32.781-8.895-49.623-10.13-34.203-2.51-70.511 4.514-96.38 28.297-3.531 3.246-5.922 8.571-5.555 13.403.402 5.301 4.715 7.189 9.158 4.666z"/><circle fill="#FFF" cx="614.865" cy="490.806" r="9.566"/><path d="M279.608 522.385c-16.299-10.713-39.035-20.348-56.809-7.248-14.357 10.58-18.24 31.012-17.207 47.724 1.102 17.838 8.283 37.146 22.383 48.729 15.615 12.829 39.658 11.623 53.795-2.982 1.186-1.226 5.195-10.694.467-9.904-8.643 1.445-15.932 6.356-24.932 6.873-7.314.417-14.215-1.933-20.289-5.886-12.668-8.251-19.832-24.361-22.184-38.799-1.938-11.91-1.627-27.677 8.49-36.054 14.83-12.283 38.086-1.719 52.48 5.709 2.958 1.525 6.605-6.321 3.806-8.162z"/><path fill="none" stroke="#000" stroke-width="8" stroke-miterlimit="10" d="M240.465 508.593s-40.117-159.104 36.412-235.632c76.527-76.528 179.047-121.29 268.57-111.184 89.523 10.108 192.045 59.202 232.473 150.17 40.43 90.968 12.996 193.485 12.996 193.485"/><path d="M440.098 164.293c-4.434-24.963-2.031-51.913 17.291-70.181 16.79-15.874 41.222-21.512 63.708-21.622 42.424-.207 101.099 22.228 105.078 71.277.906 11.168-1.826 21.981-5.868 32.307-1.998 5.102 3.867 5.811 5.737 1.48 9.794-22.677 10.048-48.025-3.591-69.154-12.593-19.509-34.354-31.927-56.072-38.629-43.75-13.502-103.367-7.146-126.245 38.083-9.384 18.551-9.857 40.026-5.928 60.072.967 4.937 6.46-.422 5.89-3.633zM279.773 522.418c-3.417-38.819-4.57-77.784 2.857-116.25 6.814-35.288 22.029-71.209 52.024-92.804 16.14-11.619 35.188-17.702 54.788-20.056 24.303-2.919 47.42 10.346 68.175 21.099 21.593 11.188 43.005 21.109 67.904 18.769 24.698-2.322 46.847-14.258 69.369-23.65 11.527-4.808 23.412-8.752 35.769-10.741 11.93-1.92 24.446-1.254 36.345.594 18.711 2.907 36.195 11.194 49.424 24.842 27.347 28.211 34.189 72.51 38.109 109.928 5.825 55.605 3.077 112.42-5.801 167.55-.271 1.677.614 3.814 2.652 3.195 2.128-.646 3.407-3.086 3.734-5.127 9.302-57.958 12.403-118.352 5.311-176.737-4.519-37.19-11.988-79.191-39.072-107.191-12.901-13.338-29.712-21.268-47.746-24.913-24.036-4.859-47.883-1.648-70.659 6.897-23.06 8.652-44.764 20.922-69.318 25.042-25.517 4.282-47.812-5.576-70.061-16.864-20.9-10.603-42.873-22.94-67.042-22.271-19.447.54-39.592 7.189-56.188 17.136-31.888 19.114-50.604 53.312-60.301 88.21-12.147 43.713-13.259 92.242-6.065 136.913.799 4.958 6.062-.502 5.792-3.571z"/><path d="M438.013 164.251c24.028-26.264 62.968-35.197 97.297-35.36 33.415-.159 73.931 8.729 92.746 39.261 2.003 3.25 7.011-3.98 5.166-6.973-19.141-31.03-60.145-40.347-94.135-40.521-19.341-.099-38.938 3.064-57.224 9.355-16.044 5.52-32.329 14.156-43.682 27.029a91.861 91.861 0 0 0-2.474 2.925c-1.779 2.195-.583 7.442 2.306 4.284z"/></svg>