<svg xmlns="http://www.w3.org/2000/svg" xmlns:xlink="http://www.w3.org/1999/xlink" width="1030" height="1030" viewBox="0 0 1030 1030"><defs><path id="a" d="M1020.379 515.001c0 279.115-226.266 505.377-505.379 505.377-279.111 0-505.377-226.264-505.377-505.377S235.888 9.622 515 9.622c279.113 0 505.379 226.266 505.379 505.379z"/></defs><use xlink:href="#a" overflow="visible" fill="#FFBF1F"/><clipPath id="b"><use xlink:href="#a" overflow="visible"/></clipPath><g clip-path="url(#b)"><path fill="#FFBF1F" d="M1021.414 517.214c0 279.115-226.266 505.377-505.379 505.377-279.112 0-505.377-226.264-505.377-505.377S236.923 11.835 516.035 11.835c279.113 0 505.379 226.266 505.379 505.379z"/><path fill="#FC9E17" d="M64.591 301.339c65.699-60.766 147.473-101.363 226.168-142.393 40.814-21.281 80.746-43.73 120.539-66.854 43.205-25.111 87.469-49.599 136.053-62.562-.955-12.573-1.91-25.146-2.863-37.722C469.49 62.96 382.009 118.8 296.63 176.392c-43.967 29.658-87.432 59.996-129.213 92.682-20.033 15.672-39.123 32.311-60.043 46.828-21.764 15.1-44.412 28.885-66.553 43.41-20.463 13.42-40.42 27.699-58.93 43.736-7.094 6.145-11.697 17.17-10.986 26.521.547 7.209 5.93 13.973 13.848 11.199 98.168-34.393 184.332-95.652 268.734-154.941 42.164-29.617 84.252-59.42 128.115-86.494 19.998-12.342 40.242-24.098 59.857-37.074 21.045-13.918 41.816-28.238 62.965-42 37.358-24.314 76.481-48.123 120.034-59.316l-6.715-33.351c-3.625 4.497-11.992 11.267-18.965 15.919-10 6.67-20.648 12.365-31.156 18.178-23.027 12.742-45.092 27.219-67.553 40.936-51.305 31.332-102.533 62.797-153.852 94.113-51.111 31.188-102.326 62.211-153.791 92.816-45.84 27.262-92.238 53.613-137.738 81.449-57.197 34.99-113.604 73.15-161.328 120.578-6.828 6.783-11.732 16.688-10.986 26.52.559 7.365 5.898 13.781 13.85 11.199 51.945-16.859 99.75-43.609 147.504-69.639 50.273-27.404 102.162-51.779 153.584-76.934 106.725-52.203 213.545-104.201 320.028-156.898 43.588-21.572 87.408-42.348 128.738-68.076 36.969-23.018 73.674-48.996 115.463-62.539-.955-12.574-1.908-25.146-2.865-37.721-32.514 34.457-76.607 55.146-117.219 78.289-50.043 28.516-97.459 62.32-145.696 93.777-48.672 31.742-97.557 62.701-143.461 98.404-36.26 28.201-71.637 58.477-113.41 78.264C166.968 440.29 75.417 461.753 37.56 541.29c-3.076 6.463-5.365 14.316-2.91 21.402 1.744 5.039 7.496 9.094 12.934 6.588 100.086-46.102 193.518-104.332 287.449-161.586 46.518-28.355 93.289-56.326 141.229-82.229 49.124-26.541 100.223-49.029 149.866-74.543 51.182-26.305 101.262-54.686 151.102-83.426-.984-12.998-1.971-25.994-2.959-38.99-89.506 66.279-184.818 124.035-280.237 181.279-95.316 57.186-189.701 115.123-280.916 178.699C148.345 533.63 70.7 560.08 20.878 624.457c-8.809 11.383-11.102 42.221 10.986 31.381 208.225-102.16 408.939-218.58 611.709-330.955 81.107-44.949 162.6-89.213 245.033-131.684l-2.959-38.988C684.77 269.935 489.943 395.938 300.087 528.915 223.16 582.794 147.083 637.888 71.74 693.958c-9.188 6.836-16.062 17.881-15.16 29.76.734 9.699 9.59 15.234 18.119 9.229 43.633-30.723 91.014-55.527 138.016-80.598 48.867-26.064 96.422-53.967 143.455-83.207 97.824-60.818 193.596-125.836 295.819-179.223 79.945-41.756 155.398-91.654 236.617-131.035l-7.131-35.752C726.443 362.759 545.963 469.948 368.333 577.765c-93.445 56.721-186.838 113.709-276.602 176.166-9.32 6.484-16.045 18.146-15.162 29.758.801 10.539 9.316 14.158 18.121 9.23 202.516-113.371 408.092-221.234 609.108-337.291 82.609-47.695 164.387-96.848 244.781-148.197-3.662-10.461-7.324-20.92-10.984-31.381-4.996 7.512-10.377 14.717-16.098 21.689-5.041 6.145-10.836 12.266-18.375 19.707-14.123 13.939-29.66 26.809-45.09 38.273-35.396 26.297-73.572 48.73-112.08 70.107-37.449 20.789-75.582 40.312-113.117 60.945-42.605 23.422-83.598 49.658-124.551 75.828-65.34 41.752-130.41 84.795-198.977 121.15-60.084 31.857-124.109 59.162-173.205 107.688-6.838 6.762-11.73 16.707-10.986 26.521.623 8.164 5.797 12.766 13.852 11.199 27.105-5.268 51.928-18.041 75.645-31.76 24.854-14.379 49.684-28.809 74.537-43.191a10614.59 10614.59 0 0 0 152.23-89.771c49.531-29.773 100.038-57.951 150.668-85.822 50.375-27.73 102.131-51.93 153.662-77.322 67.275-33.148 131.119-72.73 197.158-108.186l-10.984-31.383c-5.504 7.193-9.135 10.836-17.041 18.057-7.75 7.076-15.977 13.312-24.516 19.367-18.807 13.338-38.713 25.094-58.617 36.699-43.184 25.18-85.117 51.793-126.223 80.277-91.951 63.715-180.732 131.844-272.467 195.85-62.605 43.68-127.018 85.396-195.645 119.062l2.959 38.99c48.338-27.512 98.725-51.109 148.234-76.383 25.086-12.807 49.887-26.168 74.098-40.572 24.189-14.391 46.895-30.896 69.809-47.201 23.254-16.545 46.578-32.992 70.564-48.465 23.51-15.168 48.086-28.535 72.547-42.078 48.809-27.02 97.928-53.48 146.338-81.211 61.396-35.17 121.518-72.686 178.059-115.307l-10.984-31.381c-59.982 69.826-146.119 119.631-225.498 166.939-91.051 54.268-181.006 110.705-269.409 169.203-41.195 27.26-81.383 55.869-121.203 85.092-39.395 28.914-78.959 57.732-121.234 82.348-9.594 5.584-15.99 18.82-15.16 29.758.842 11.066 9.201 13.475 18.119 9.23 100.961-48.053 196.105-107.057 291.247-165.518 47.797-29.369 95.674-58.625 144.385-86.459 47.674-27.238 96.568-52.016 145.609-76.67 75.025-37.713 150.203-76.055 218.389-125.428-2.375-11.916-4.754-23.834-7.131-35.75-33.609 33.213-76.088 55.598-117.895 76.719a4044.129 4044.129 0 0 0-133.637 70.689c-99.297 54.922-199.127 109.008-295.387 169.18-39.695 24.812-79.178 50.248-116.168 78.982-32.521 25.262-64.553 53.299-102.398 70.43-8.953 4.055-15.02 11.32-17.994 20.766-1.854 5.883-3.031 24.236 8.273 22.725 45.449-6.074 87.678-22.926 128.725-42.799 43.947-21.275 85.809-46.65 127.571-71.857 92.4-55.779 188.994-103.605 284.82-153.17 30.955-16.012 61.799-31.988 92.061-49.281 29.732-16.99 59.461-33.979 89.189-50.969 9.617-5.496 15.986-18.891 15.16-29.758-.803-10.576-9.309-14.111-18.121-9.23-104.188 57.711-206.854 118.117-308.766 179.746-51.145 30.93-102.088 62.188-152.947 93.584-44.668 27.572-85.542 60.625-129.553 89.188-21.203 13.756-43.262 26.518-67.016 35.328-.436 13.652-.871 27.305-1.309 40.957 171.867-107.34 370.172-160.402 549.303-253.342 47.312-24.547 93.094-52.107 136.094-83.643 9.217-6.758 16.059-17.938 15.16-29.76-.76-9.986-9.484-14.867-18.119-9.229C824.266 729.44 638.676 860.724 439.865 970.419a2775.644 2775.644 0 0 1-59.695 31.969l7.133 35.752c73.348-58.309 162.889-92.967 248.28-129.312 44.957-19.137 89.818-38.742 132.914-61.836 22.314-11.959 44.49-24.162 66.002-37.533 23.461-14.584 46.564-29.75 71.244-42.24l-14.291-26.021c-3.254 5.631 2.838-4.268-.768 1.271-1.092 1.672-2.266 3.291-3.438 4.908-1.197 1.656-2.473 3.256-3.742 4.855-.225.285-4.666 5.496-1.594 2.025-6.42 7.246-13.553 13.844-20.877 20.158-14.344 12.365-31.18 23.664-48.141 34.455-35.631 22.666-73.098 42.25-109.025 64.42-39.857 24.594-76.527 54.361-114.17 82.133-42.475 31.334-86.008 61.828-133.524 85.104-8.504 4.166-17.229 7.842-26.043 11.295.955 12.572 1.908 25.146 2.865 37.721 61.736-53.27 143.856-80.49 220.313-108.334 80.787-29.42 162.883-61.467 226.771-120.973 7.469-6.955 14.518-14.354 21.268-22.004 7.162-8.117 13.979-19.857 10.07-31.133-3.469-10.01-15.477-8.066-21.375-1.381-114.23 129.438-307.65 132.047-443.067 231.178a405.641 405.641 0 0 0-25.289 20.133c-7.098 6.125-11.693 17.186-10.986 26.523.529 6.965 5.992 14.279 13.852 11.197 97.135-38.068 176.129-109.006 260.493-168.248 66.982-47.033 147.926-76.375 205.264-136.568 10.398-10.916 19.23-22.635 26.766-35.684 7.102-12.287 4.061-35.305-14.291-26.02-23.682 11.982-45.959 26.396-68.42 40.475-22.416 14.049-45.568 26.727-68.83 39.299-42.02 22.705-85.975 41.566-129.891 60.242-90.248 38.379-182.229 75.838-259.649 137.379-7.225 5.744-11.672 17.469-10.984 26.521.818 10.785 9.258 13.842 18.119 9.23C584.75 936.47 771.74 806.556 960.965 681.343a11193.585 11193.585 0 0 1 56.154-36.924l-2.959-38.988c-164.07 120.318-362.51 176.99-545.045 261.854-48.148 22.383-95.299 46.992-140.352 75.131-8.23 5.139-13.766 14.979-14.994 24.48-1.041 8.053 3.029 20.43 13.686 16.479 48.654-18.047 91.17-48.994 132.91-79.129 45.078-32.541 91.93-61.576 139.313-90.625 101.836-62.436 204.242-123.967 307.943-183.266a7368.069 7368.069 0 0 1 86.652-48.766l-2.961-38.988c-51.545 29.457-102.699 59.619-155.438 86.898-53.777 27.818-107.557 55.633-161.336 83.449-43.93 22.723-87.301 45.756-129.695 71.246-41.772 25.117-83.297 50.699-126.524 73.277-41.221 21.529-86.023 41.922-132.549 48.141-3.242 14.498-6.48 28.994-9.721 43.49 47.463-21.482 85.908-55.805 127.178-86.811 44.623-33.523 92.953-62.742 140.678-91.576 96.973-58.586 197.006-111.867 295.912-167.064 73.6-41.076 157.643-70.725 218.6-130.963 6.842-6.76 11.732-16.709 10.988-26.521-.729-9.592-9.637-15.373-18.121-9.23-88.588 64.145-188.59 109.527-285.451 159.373-99.426 51.166-193.672 111.625-289.092 169.732-73.314 44.643-147.525 88.053-225.086 124.969l2.959 38.988c49.188-28.641 94.676-62.945 140.545-96.504 46.477-34 94.137-66.234 142.512-97.467 87.035-56.191 175.35-110.045 263.912-163.752 74.689-45.295 149.064-94.295 206.426-161.074 5.668-6.598 9.145-18.316 6.217-26.762-2.553-7.369-11.105-9.217-17.203-4.619-89.627 67.562-188.064 121.631-286.238 175.51-49.328 27.074-98.404 53.916-144.787 85.881-23.354 16.092-46.291 32.777-69.502 49.068-23.09 16.205-47.426 30.418-72.158 43.965-61.564 33.727-125.93 62.055-186.961 96.791-9.621 5.477-15.982 18.906-15.16 29.76.834 10.973 9.219 13.596 18.119 9.23 98.893-48.512 189.043-113.174 277.803-177.871 89.326-65.109 177.654-132.875 271.783-191.008 55.475-34.266 120.367-62.553 160.973-115.648 5.391-7.047 9.266-17.969 6.219-26.762-2.84-8.197-10.652-8.139-17.203-4.621-49.32 26.479-97.432 55.121-146.602 81.871-49.906 27.152-102.033 49.65-152.422 75.84C537.59 565.519 438.343 626.224 337.974 685.06a11372.038 11372.038 0 0 1-97.148 56.283c-30.902 17.713-60.723 37.979-96.279 44.889.955 12.572 1.908 25.146 2.865 37.721 33.756-33.367 76.162-55.738 118.041-77.18 45.688-23.391 90.238-48.039 134.127-74.68 87.6-53.176 171.682-111.859 262.073-160.354 54.957-29.484 110.543-57.98 162.961-91.898 49.711-32.166 98.854-70.18 131.992-120.016 5.023-7.557 9.406-17.564 6.219-26.762-2.701-7.791-10.855-8.674-17.203-4.621-195.874 125.102-399.876 236.655-603.808 347.893-83.529 45.561-167.061 91.117-250.082 137.596.984 12.996 1.971 25.992 2.959 38.988C265.64 673.978 449.087 574.513 622.932 460.024c94.264-62.08 185.904-128.777 269.848-204.379 7.025-6.326 11.707-17.035 10.988-26.521-.836-11.01-9.213-13.549-18.121-9.23-51.248 24.85-100.295 53.832-149.523 82.396-49.637 28.799-100.666 55.018-150.332 83.748-99.657 57.645-195.211 122.086-293.78 181.537-72.496 43.723-150.875 77.516-220.271 126.383l2.959 38.988c185.014-137.684 374.572-269.338 569.659-392.373 80.436-50.727 161.85-99.902 244.248-147.373 9.607-5.535 15.988-18.861 15.162-29.76-.822-10.814-9.252-13.799-18.121-9.229C679.471 260.433 479.433 377.96 275.685 488.665c-81.457 44.258-163.553 87.352-246.781 128.186 3.66 10.463 7.322 20.922 10.984 31.383 25.775-33.309 66.303-56.533 103.787-77.648 19.877-11.199 39.891-22.156 59.18-34.355 21.949-13.881 42.736-29.654 64.246-44.203 92.357-62.465 188.979-118.262 284.292-176.014 77.074-46.703 153.373-94.857 225.836-148.516 9.199-6.811 16.062-17.9 15.162-29.76-.793-10.436-9.346-14.291-18.121-9.23-48.863 28.18-97.979 55.93-148.078 81.867-49.613 25.688-100.764 48.18-150.026 74.562-96.332 51.592-187.564 112.021-281.984 166.92-45.945 26.715-92.725 52.25-141.018 74.496l10.023 27.99c.941-1.98 1.92-3.936 2.938-5.881.277-.529 3.928-6.719 1.068-2.127 2.277-3.656 4.846-7.123 7.492-10.518.168-.217 4.738-5.592 1.715-2.197 1.438-1.613 2.949-3.158 4.457-4.703 3.551-3.637 7.363-7.01 11.246-10.285 4.773-4.025 12.174-9.08 19.404-13.619 8.459-5.309 17.279-10.027 26.193-14.512 34.469-17.342 71.242-29.699 106.113-46.215 43.148-20.439 79.836-52.666 117.23-81.818 44.834-34.949 93.141-64.873 140.711-95.896 48.038-31.33 95.284-64.803 145.125-93.205 42.926-24.461 88.732-46.936 123.102-83.359 6.684-7.084 11.75-16.467 10.986-26.521-.559-7.365-5.896-13.775-13.85-11.199-49.908 16.174-93.238 47.807-137.6 74.861-48.914 29.832-102.049 53.268-153.393 78.592-106.676 52.613-213.65 104.617-320.469 156.939-43.396 21.258-86.617 42.541-129.029 65.715-40.359 22.047-80.934 43.73-124.822 57.979.953 12.574 1.908 25.146 2.863 37.723 72.18-71.732 163.498-120.635 250.486-171.762 103.367-60.754 205.49-123.592 307.752-186.184 31.838-19.49 63.288-39.891 95.543-58.646 28.137-16.359 57.43-30.23 78.303-56.137 6.779-8.413 13.279-38.49-6.717-33.35-47.429 12.188-90.466 38.452-131.14 64.922-21.107 13.74-41.834 28.055-62.84 41.949-19.621 12.977-39.934 24.668-59.938 37.012-88.902 54.875-170.566 120.623-260.033 174.662-39.996 24.157-81.582 45.801-125.748 61.278l2.863 37.721c39.104-33.881 85.59-57.932 127.51-87.986 21.174-15.182 40.629-32.545 61.215-48.488 20.629-15.977 41.773-31.275 63.117-46.279 86.076-60.504 176.02-115.529 257.793-181.998 18.233-14.82 35.915-30.313 52.961-46.485 6.924-6.571 11.721-16.852 10.986-26.521-.586-7.715-5.842-13.337-13.852-11.199C503.627-.24 458.109 24.438 414.135 49.749c-40.959 23.574-81.777 46.955-123.684 68.824-82.873 43.246-167.969 86.252-237.164 150.254-7.75 7.166-13.725 20.592-10.072 31.133 3.689 10.637 15.031 7.252 21.376 1.379z"/></g><path fill="#D8724A" d="M268.392 433.886c-12.005-11.422-30.097-26.571-48.107-19.358-20.238 8.106-30.975 30.845-32.757 51.545-2.182 25.363 8.243 75.337 44.196 65.267 14.749-4.131 26.522-17.529 35.04-29.479 5.916-8.297 12.037-23.44 4.563-32.774-7.44-9.285-20.139.319-25.029 7.18a113.539 113.539 0 0 1-4.569 5.994c-2.896 3.535 4.176-4.574 1.189-1.359-.698.75-1.436 1.464-2.17 2.176a49.088 49.088 0 0 1-2.13 1.905c-2.894 2.49 4.709-3.487 1.721-1.351-1.264.906-2.619 1.671-4.007 2.365 6.435-3.209 2.12-1.023.158-.547-2.728.663 4.777-.5 2.041-.24-.583.056-1.169.046-1.754.035-1.713-.032-5.71-1.324.19.393-1.266-.368-2.455-.966-3.592-1.625-3.673-2.128.352.542-.028.202-.93-.827-1.758-1.763-2.556-2.716-.846-1.007-1.594-2.093-2.312-3.192-.374-.573-.718-1.166-1.061-1.755-1.41-2.427 2.301 4.562.508.833-1.288-2.68-2.276-5.495-3.129-8.342-.441-1.476-.805-2.975-1.144-4.478-.732-3.251.977 5.197.386 1.912a78.657 78.657 0 0 1-.467-3.086c-.414-3.063-.582-6.155-.582-9.242 0-3.489-.255 6.134-.091 2.677.035-.741.099-1.478.162-2.216a50.93 50.93 0 0 1 .574-4.272c.819-4.803-1.909 7.107-.269 1.466a34.61 34.61 0 0 1 .617-1.86c1.192-3.38-3.068 7.169-1.614 3.938 2.449-5.453-2.372 3.433-1.494 2.142 3.029-4.458-5.129 4.88-1.167 1.389-5.622 4.951-4.427 3.299-2.751 2.208 1.341-.869 4.027-1.873-2.678 1.125 1.019-.456 2.11-.723 3.203-.925-6.296 1.167-2.184.328-.212.474.67.049 1.332.165 1.992.281 2.554.442-4.451-1.389-.53-.11 3.467 1.13 6.684 2.979 9.732 4.942 1.915 1.233 3.733 2.611 5.525 4.014-3.313-2.591.154.158.676.613 1.417 1.23 2.777 2.516 4.136 3.81 8.563 8.147 19.249.633 25.029-7.178 5.285-7.145 12.921-24.827 4.562-32.781zm564.869 10.251c-1.007-4.363-2.577-8.468-4.591-12.32.926-5.677.299-11.363-3.038-15.528-3.423-4.273-7.719-4.589-11.895-3.059-6.61-5.815-14.234-10.587-22.02-14.287-12.646-6.007-26.815 11.464-29.705 26.753-4.444 4.299-8.308 8.758-11.277 12.438-6.335 7.855-11.77 23.775-4.563 32.774 7.661 9.562 19.797-.691 25.031-7.179.278-.347 1.07-1.251 1.701-1.973.888-.907 1.8-1.79 2.737-2.648.063 1.756.277 3.412.669 4.903.635 2.429.773 3.239.999 5.316-.841.454-1.846.927-3.267 1.685-5.829 3.105-11.812 10.913-14.859 19.306-14.414 11.78-22.375 42.996-4.07 42.996 6.355 0 12.432-4.726 17.066-11.19 11.281 7.48 24.489 8.884 35.893-3.905a68.496 68.496 0 0 0 11.069-16.906c12.039-16.485 18.878-36.566 14.12-57.176zm-55.657 27.477a9.91 9.91 0 0 0-.188.51c.06-.18.121-.358.182-.534l.006.024z"/><path fill="#61E9FF" d="M234.361 933.196c28.569 27.988 67.245 41.026 105.542 49.337 41.662 9.044 84.545 11.544 127.032 13.32 47.88 2.002 95.914 2.306 143.498-4.124C660.225 985 707.835 969.96 753.6 949.428c7.256-3.253 11.922-11.661 9.966-19.561-20.712-83.641-75.155-159.761-158.935-188.382-40.895-13.971-84.487-13.306-127.127-11.344-38.379 1.764-77.149 6.593-113.856 18.296-37.744 12.036-72.724 33.004-96.52 65.198-28.136 38.059-35.008 86.575-31.394 132.697 1.039 13.254 15.458 2.045 17.142-5.148 8.672-37.054 14.568-75.391 28.716-110.893 12.606-31.645 36.715-53.287 68.453-64.961 21.975-8.078 45.644-11.193 68.55-15.551 24.569-4.675 49.21-9.011 74.122-11.41 48.157-4.637 97.377-.521 139.226 25.662 36.624 22.912 64.829 63.68 79.912 103.617 6.773 17.949 11.335 38.763 6.901 57.838-4.778 20.587-20.259 32.58-38.137 41.968-41.965 22.033-92.564 25.693-139.079 25.489-46.859-.203-94.615-4.831-140.81-12.686-54.454-9.254-110-25.391-156.137-56.646-8.45-5.725-20.517 16.574-11.538 22.654 43.986 29.8 96.294 45.369 147.982 55.473 46.17 9.026 94.17 13.408 141.162 14.722 76.603 2.142 212.228-9.376 215.993-111.522 1.565-42.358-19.923-83.232-44.764-116.165-28.367-37.609-66.517-62.438-112.827-71.689-47.562-9.503-97.328-1.668-144.414 6.866-42.076 7.626-87.409 12.702-122.656 39.078-54.973 41.131-62.515 115.404-77.022 177.403 5.711-1.718 11.425-3.433 17.14-5.149-2.963-37.786 1.07-77.255 23.711-108.851 19.5-27.213 50.126-43.747 81.224-54.212 36.586-12.311 75.491-16.713 113.875-18.478 43.178-1.986 86.898-2.151 127.964 13.001 77.621 28.636 126.925 101.239 146.211 179.138 3.325-6.519 6.646-13.039 9.968-19.561-44.162 19.812-90.006 34.502-137.965 41.576-46.87 6.915-94.671 6.246-141.88 4.337-40.624-1.64-81.322-4.175-121.329-11.776-37.73-7.168-78.195-19.731-106.274-47.239-8.434-8.26-21.849 13.067-14.793 19.979z"/><path fill="#61E9FF" d="M254.925 880.271c18.774-22.605 34.328-44.165 53.503-62.586 19.848-19.071 45.326-31.477 74.063-38.575-1.026-13.535-2.053-27.071-3.083-40.607-42.952 39.272-95.35 68.985-127.349 119.106-5.29 8.281-10.169 18.787-6.694 28.812 3.169 9.147 11.326 8.325 18.519 4.973 37.261-17.364 69.525-43.638 103.157-66.886 32.199-22.26 67.807-44.457 107.795-47.726.457-13.737.916-27.477 1.375-41.213-33.312 34.383-78.446 55.88-120.243 81.364-45.264 27.596-87.686 61.803-110.404 110.982-4.955 10.73-7.813 33.698 10.792 30.136 25.203-4.829 48.307-19.185 69.225-33.424 23.183-15.789 44.863-33.659 67.359-50.381 23.035-17.118 48.051-31.61 72.372-46.801 28.363-17.718 57.517-34.43 90.253-42.468-4.456-7.952-8.913-15.906-13.367-23.861-.443 1.375-3.543 9.302-.716 2.586-.991 2.356-2.152 4.637-3.329 6.907-.634 1.217-5.209 8.579-1.419 2.651-1.808 2.826-3.802 5.529-5.829 8.201-1.666 2.2-3.441 4.312-5.23 6.414 3.575-4.203-2.383 2.445-3.05 3.138-4.625 4.805-9.572 9.299-14.608 13.671-9.966 8.651-17.892 14.295-29.794 22.442-12.592 8.619-25.566 16.678-38.596 24.618-47.703 29.062-101.815 55.568-139.42 97.962-7.03 7.926-12.666 17.498-11.827 28.553.655 8.624 6.253 13.95 14.911 12.056 59.625-13.045 107.979-56.269 154.953-92.52 24.696-19.06 50.237-35.154 77.395-50.447 31.24-17.592 62.428-35.357 91.99-55.69l-15.386-28.013a174.09 174.09 0 0 1-7.645 14.74c2.799-4.834-1.306 1.988-1.585 2.415-1.802 2.733-3.73 5.383-5.673 8.018-7.843 10.647-12.96 15.943-23.111 25.771-18.672 18.067-38.878 32.926-60.359 47.474-42.321 28.664-87.643 52.583-129.966 81.226-8.769 5.932-14.782 15.835-16.143 26.354-1.027 7.95 3.392 22.924 14.732 17.741 47.962-21.921 96.932-41.721 143.379-66.816 23.551-12.726 46.206-27.079 67.437-43.398 21.435-16.479 40.246-36.529 63.652-50.31a430933.88 430933.88 0 0 1-11.825-33.785c-53.787 67.419-126.059 116.832-196.698 164.88-10.079 6.856-17.263 19.634-16.323 32.04.892 11.718 9.946 14.762 19.508 9.938 84.003-42.377 155.22-110.205 244.746-141.619-3.598-10.043-7.194-20.089-10.79-30.134a124.78 124.78 0 0 1-2.289 4.344c-3.788 7.014 2.814-4.088-1.515 2.589-2.667 4.111-5.678 7.988-8.773 11.783-1.238 1.522-3.938 4.371-7.635 8.032-3.593 3.555-7.395 6.896-11.235 10.175-14.132 12.06-32.575 23.554-49.684 34.088-35.59 21.913-73.327 42.797-101.836 73.984-7.111 7.781-12.66 17.609-11.829 28.553.635 8.358 6.283 14.29 14.913 12.058 77.434-20.034 136.977-78.163 207.002-113.59-5.987-7.247-11.976-14.493-17.961-21.741-.362 1.512-3.262 9.181-.477 2.777a53.35 53.35 0 0 1-1.79 3.541c1.859-2.853 1.966-3.031.322-.542-1.589 2.392-3.422 4.621-5.258 6.824 3.117-3.742-3.094 2.974-3.736 3.602-9.663 9.431-18.254 15.31-29.616 23.052-22.338 15.221-46.251 28.595-66.503 46.67-7.578 6.764-12.599 18.371-11.827 28.55.549 7.209 6.532 15.741 14.913 12.059 46.87-20.608 93.047-45.818 143.737-55.736 18.964-3.711 32.179-51.337 6.003-46.215-50.688 9.919-96.864 35.129-143.736 55.735l3.083 40.609c5.608-5.004 5.013-4.443 10.625-8.507 5.954-4.316 12.107-8.363 18.258-12.401 13.223-8.677 26.593-17.129 39.456-26.342 25.013-17.914 51.788-40.857 59.283-72.167 3.252-13.59-.966-30.341-17.963-21.742-66.877 33.833-123.976 90.245-197.812 109.351 1.028 13.535 2.055 27.07 3.086 40.608 28.257-30.918 66.028-50.194 102.013-72.699 38.393-24.009 75.26-52.128 96.366-93.247 4.467-8.703 7.623-36.595-10.792-30.134-93.075 32.658-166.723 101.863-253.934 145.855 1.062 13.994 2.122 27.986 3.185 41.978 77.527-52.733 155.002-107.337 213.979-181.262 5.916-7.411 9.928-19.478 6.693-28.811-2.979-8.598-11.573-9.063-18.519-4.974-23.185 13.647-42.09 32.778-62.854 49.613-20.152 16.342-42.661 29.96-65.319 42.497-44.205 24.463-91.222 43.203-137.105 64.173l-1.41 44.095c44.663-30.224 92.504-55.412 136.956-85.995 45.888-31.573 92.071-69.84 115.785-121.569 3.229-7.047 5.804-15.337 3.133-23.041-2.838-8.188-11.799-9.596-18.521-4.974-54.213 37.287-114.584 64.212-166.922 104.244-45.205 34.576-91.001 77.654-148.223 90.173 1.029 13.535 2.055 27.073 3.084 40.611 18.608-20.98 36.733-33.139 60.315-48.351 25.881-16.695 52.706-31.871 78.917-48.033 49.542-30.548 104.543-67.5 123.324-125.703 3.317-10.278 1.402-27.489-13.366-23.862-32.427 7.961-62.229 24.059-90.6 41.255-25.161 15.253-50.88 30.445-74.813 47.578-22.572 16.156-43.971 33.891-66.568 50.028-20.336 14.524-42.263 29.431-67.229 34.21 3.6 10.044 7.194 20.091 10.794 30.134 9.479-20.525 19.808-33.085 38.207-49.331 16.337-14.429 36.713-27.153 56.747-39.136 41.737-24.959 86.05-47.604 120.277-82.931 6.094-6.29 10.513-14.068 11.648-22.867.819-6.329-.997-19.104-10.272-18.346-90.956 7.429-150.615 83.5-229.061 120.062 3.94 11.261 7.885 22.522 11.825 33.785 29.193-45.719 79.325-73.372 119.059-109.698 7.528-6.888 12.604-18.281 11.827-28.554-.643-8.436-6.273-14.188-14.913-12.056-33.34 8.233-63.128 23.596-88.721 46.516-24.726 22.145-44.202 49.836-65.318 75.262-6.435 7.746-11.704 23.857-4.562 32.776 7.709 9.626 19.715-.785 25.028-7.181z"/><path fill="#D8724A" d="M417.625 720.302c-3.472 19.464-1.709 40.329 10.405 56.588 10.009 13.432 27.022 19.688 43.138 21.158 39.908 3.65 78.818-23.223 95.324-58.483 3.596-7.684 8.531-24.687-2.252-29.682-18.112-8.391-42.243-4.347-60.75.246-25.869 6.42-53.835 27.467-46.878 57.718 2.375 10.335 13.316 16.801 22.329 20.584 13.579 5.698 29.655 4.979 43.038-.807 15.959-6.9 29.327-19.693 36.23-35.79 8.422-19.637 7.72-38.192-2.447-56.875-5.869-10.783-21.062 1.819-25.028 7.179-7.064 9.542-10.417 22.023-4.563 32.776 1.472 2.701 2.087 5.391 2.342 8.007-.36-3.699-1.223 4.496.241-.892 1.735-6.381-2.44 2.888 1.306-2.561 2.795-4.061-.972.879-1.778 1.601 2.965-2.65-2.69 1.359-2.87 1.461-.513.286-6.13 2.064-8.521 2.306-8.356.84-15.485-1.458-22.636-5.561-3.63-2.086-1.764-.36-4.397-3.852 4.377 5.801-1.021 19.551-7.325 26.492 1.62-1.501.993-1.086-1.883 1.244 1.026-.797 2.166-1.449 3.284-2.108.791-.467 5.097-2.398.682-.457 1.478-.649 3.001-1.194 4.52-1.743 6.801-2.458 13.953-3.946 21.079-5.087 2.779-.445 11.955-.983 17.245-.88 3.135.061 6.254.376 9.352.854.687.104 5.042 1.322 1.128.168 1.113.327 2.17.798 3.22 1.286-.749-9.896-1.499-19.789-2.251-29.684a63.41 63.41 0 0 1-1.679 3.45c-2.924 5.792 3.22-4.659-.327.7-1.026 1.555-2.186 3.019-3.343 4.482 3.771-4.765.021-.094-.818.76-.954.97-7.968 6.646-3.892 3.612-2.925 2.175-6.078 4.026-9.276 5.761-2.056 1.014-2.156 1.096-.295.252-1.642.748-3.333 1.387-5.019 2.023-3.347 1.266-6.808 2.199-10.285 3.013-4.735 1.107-3.792.839-7.669 1.128-3.404.256-6.816.159-10.213-.066-7.168-.479-9.083-1.11-14.754-3.469-2.39-.999-4.639-2.285-6.83-3.651-3.167-1.977-1.644-.766-4.906-4.215-1.778-1.882-3.246-4.023-4.621-6.208 1.94 3.084-.546-1.366-.724-1.789-.659-1.548-1.129-3.166-1.604-4.775-1.565-5.332.429 3.718-.368-2.022-.261-1.889-.322-3.803-.39-5.707-.222-6.407-.416 4.178.202-2.56.206-2.236.607-4.451 1.001-6.66 1.664-9.326-3.531-21.144-14.735-17.74-11.958 3.632-18.715 17.123-20.739 28.475z"/><path fill="#D8724A" d="M446.782 723.054c-.999 37.895 29.202 67.229 66.956 65.757 47.128-1.833 76.166-49.68 68.607-93.725-1.808-10.526-9.443-16.146-19.508-9.937-9.521 5.873-18.303 20.484-16.32 32.038.704 4.102 1.146 8.171 1.264 12.334-.166-5.938-2.103 10.85-.065 2.347-.378 1.579-.922 3.11-1.468 4.634 2.506-7.019.853-2.308-.027-.656 3.533-6.62 1.468-2.392.281-.796-3.142 4.233 3.955-4.063.271-.364-.932.937-4.847 3.959.089.223-1.144.866-2.376 1.617-3.6 2.366-.825.505-5.199 2.593-.544.491-1.321.597-2.696 1.074-4.065 1.553-2.775.965-5.659 1.569-8.547 2.062 3.457-.592-4.457.083-5.923.066-7.01-.082-10.725-1.043-15.054-2.573-2.84-1.004-5.55-2.338-8.189-3.782-1.319-.72-2.574-1.553-3.826-2.383-.277-.183-4.104-3.219-1.5-1.008-2.312-1.964-4.336-4.241-6.231-6.602-.963-1.199-1.804-2.491-2.643-3.779-2.729-4.193 1.337 3.026-.831-1.573-1.405-2.979-2.326-6.159-3.09-9.354 1.013 4.242-.006-1.42-.06-1.962-.253-2.484-.215-4.987-.15-7.478.299-11.374-10.905-15.245-19.507-9.937-11.028 6.802-15.996 19.665-16.32 32.038z"/><path d="M261.464 429.038c-17.146-11.271-41.067-21.407-59.766-7.625-15.104 11.13-19.189 32.625-18.104 50.208 1.159 18.766 8.715 39.079 23.549 51.266 16.428 13.497 41.721 12.229 56.595-3.138 1.246-1.289 5.465-11.251.49-10.42-9.093 1.521-16.762 6.688-26.229 7.23-7.695.439-14.957-2.032-21.346-6.191-13.326-8.681-20.863-25.629-23.337-40.818-2.039-12.53-1.713-29.117 8.931-37.931 15.603-12.922 40.07-1.808 55.212 6.007 3.113 1.603 6.951-6.651 4.005-8.588zm501.189-.107c13.487-7.987 33.602-15.696 47.446-4.027 11.247 9.477 13.665 26.66 13.506 40.458-.164 14.474-4.284 30.615-14.125 41.595-12.651 14.118-28.043 8.896-43.741 4.656-4.774-1.289-11.042 9.671-7.177 12.881 16.225 13.475 38.688 8.96 52.797-4.929 14.448-14.224 21.059-36.48 22.137-56.228.934-17.067-1.732-38.163-16.152-49.474-17.86-14.012-40.244.122-54.847 12.133-.858.706-1.759 4.07.156 2.935z"/><g fill="#D8724A"><path d="M370.345 695.54h-.002l-.002.006z"/><path d="M794.044 323.492c-3.211-3.65-7.855-4.787-13.063-3.134-.645.205-1.294.413-1.937.616v-.111l-.411.244c-15.594 4.98-25.658 4.119-35.542 2.264 1.906-6.273 3.37-12.734 4.466-19.283.904-.028 1.848-.326 2.669-.833 3.546-2.186 5.522-6.597 5.432-10.66-.449-20.02-3.019-40.01-8.413-59.085-1.699-8.083-4.278-15.952-8.142-23.005-5.611-13.016-12.815-25.376-21.888-36.749-23.438-29.39-58.287-47.431-94.012-57.084-19.953-5.392-40.432-8.419-61.031-9.852-24.021-1.671-48.229-1.414-71.965 2.95a170.23 170.23 0 0 0-9.71 2.093c-32.565 1.175-64.841 7.535-94.354 21.93a158.162 158.162 0 0 0-8.122 4.267c-14.903 5.617-29.395 12.25-43.093 20.211-18.659 10.847-36.43 25.151-46.726 44.489-7.475 14.036-9.01 29.612-5.354 44.437-3.232 13.893-3.04 28.407.823 42.427-12.102 8.476-23.729 17.716-34.669 27.977-6.514 6.111-11.095 15.101-12.25 24.046-.522 4.048-.267 12.202 4.012 17.07 2.128 2.419 4.981 3.613 8.29 3.479 10.501-.477 21.318-1.755 32.723-3.879-9.152 4.53-17.446 9.248-25.084 14.259-9.047 5.937-15.565 16.563-17.009 27.74-.645 4.987.002 12.404 3.95 16.896 2.101 2.391 4.941 3.656 8.271 3.656 20.528-.086 42.046-1.827 65.387-5.308-26.607 11.455-54.231 24.014-81.016 39.083-10.08 5.669-15.864 18.052-17.124 27.809-.835 6.456.635 12.552 3.93 16.302 3.149 3.584 7.815 4.87 13.194 3.59 21.945-5.204 41.203-9.934 58.893-14.477a1971.717 1971.717 0 0 0-12.907 5.567l-1.135.281-.038.25c-11.242 5.346-19.205 16.565-20.885 29.552-.833 6.466.629 12.577 3.944 16.346 3.159 3.592 7.792 4.862 13.156 3.545l2.304-.577c-.477.245-1.054.49-1.527.737l-.441.058v.062c0 .62-2.184 1.238-3.381 1.856-9.556 4.946-15.668 17.747-16.974 27.84-.837 6.471.651 12.596 3.982 16.384 3.161 3.597 7.817 4.854 13.17 3.503a826.344 826.344 0 0 0 34.11-9.416c-8.173 7.954-15.336 24.943-12.551 35.599 1.833 7.014 7.693 10.306 16.373 9.058a458.757 458.757 0 0 0 24.239-4.154c-3.147 4.954-5.234 10.658-5.99 16.497-.621 4.807.119 12.09 4.253 16.792 3.22 3.663 7.865 4.771 13.038 3.054 3.697-1.23 7.398-2.457 11.099-3.673-4.195 5.54-6.973 12.176-7.856 19.019-.851 6.589.457 12.23 3.685 15.903 3.076 3.5 7.748 4.892 13.302 3.991.736-.119 1.472-.275 2.206-.398l.141-.233c7.483-1.221 14.98-2.736 22.485-3.985-3.94 8.81-5.907 18.799-2.113 25.131 1.05 1.758 2.902 3.169 6.075 3.838 1.278.491 2.777.757 4.514.759h.055a908.5 908.5 0 0 0 17.748-.221c11.33.091 22.591.109 33.653-.564.67 5.769 3.559 11.171 8.267 13.25 13.364 5.896 28.344 8.888 44.521 8.888 34.454 0 69.403-13.499 92.693-23.653 44.291-19.312 84.426-44.648 121.202-69.156l1.021-.574-.008-.124c10.521-7.523 17.16-20.988 16.236-33.157-.649-8.556-5.879-14.086-13.318-14.086-.479 0-.966.025-1.454.073 11.89-9.516 21.85-19.832 30.188-31.238 5.762-7.884 10.616-20.064 6.963-30.606-1.541-4.442-4.766-7.451-8.915-8.469a279.24 279.24 0 0 0 6.367-5.818c8.35-7.871 13.229-19.696 12.438-30.126-.537-7.082-5.277-14.608-12.999-14.608-1.485 0-3.019.293-4.554.871-2.336.88-4.696 1.763-7.074 2.649 8.18-5.747 14.248-16.083 15.637-26.83.651-5.044-.452-12.524-4.415-17.033-3.25-3.695-7.882-4.716-12.954-2.785-.607.231-1.223.465-1.838.697l.01-.335-1.345.834c-.991.37-1.992.742-3.001 1.112a387.657 387.657 0 0 0 20.072-17.095c6.506-5.938 11.091-14.933 12.271-24.061.694-5.39-.259-12.715-3.96-16.928-1.03-1.169-2.237-2.069-3.603-2.68a937.606 937.606 0 0 0 19.803-11.27c10.092-5.911 15.854-18.216 17.095-27.792.815-6.327-.837-12.889-4.205-16.726zM359.096 189.594c-9.163 8.837-18.238 17.756-27.452 26.526a139.792 139.792 0 0 1 8.8-11.872c2.136-2.582 4.607-5.26 7.277-7.925 5.305-4.411 10.974-8.401 16.877-12.011-.5.479-1.001.955-1.501 1.433a30.47 30.47 0 0 0-4.001 3.849zm-50.405 47.549c5.091-14.042 11.724-27.45 20.224-39.721 4.225-3.859 8.706-7.433 13.376-10.766-13.506 14.299-24.222 30.909-31.962 49.042-.546.482-1.088.966-1.638 1.445zm379.027-68.755c.649.541 1.298 1.083 1.938 1.635a3.042 3.042 0 0 0-1.192-.417c-.249-.406-.492-.815-.746-1.218zm12.614 148.325c.522 1.168 1.029 2.343 1.543 3.516-1.317.003-2.949.009-4.761.018a86.745 86.745 0 0 0 3.218-3.534zm16.79-115.299a13.206 13.206 0 0 0-.685 4.304c.024 2.157.119 4.3.277 6.432-6.728-14.735-15.967-28.372-25.877-41.071-.032-.04-.065-.069-.098-.109 9.969 8.747 18.868 18.847 26.383 30.444zm-424.271 18.484c.103-.723.237-1.44.372-2.157.21-1.122-.105.293.386-1.564 1.505-5.695 3.721-9.884 6.662-14.161 3.887-5.654 7.406-9.274 12.794-14.088 7.15-6.389 15.099-11.956 23.527-16.884a179.369 179.369 0 0 0-10.096 12.043c-13.396 11.275-25.153 24.325-33.918 39.523-.02.033-.037.066-.055.099.088-.939.195-1.877.328-2.811zm114.21 51.904l3.086-1.378.156.377c-1.084.333-2.168.663-3.242 1.001zm103.657-6.057c4.692 2.578 9.279 5.351 13.779 8.202a671.937 671.937 0 0 1 5.41 3.468c-6.763-2.975-13.095-6.041-18.97-9.314a22.896 22.896 0 0 0-.219-2.356zm18.705 153.458c9.712-7.345 18.792-14.886 27.354-22.714a312.607 312.607 0 0 0 16.028 3.311 2944.062 2944.062 0 0 0-43.382 19.403z"/></g><path fill="#AF543F" d="M487.165 650.337c10.727 1.733 21.031.744 31.466-2.121 5.463-1.501 10.622-3.928 15.561-6.655.358-.196.891-.552 1.514-.995.758-.266 1.516-.532 2.265-.815 7.441-2.813 12.265-5.924 15.108-11.872.489-.765.944-1.549 1.276-2.407 1.179-3.036 4.112-12.94-2.265-12.832-3.807.067-6.427 2.737-9.131 5.176-22.455 6.817-48.541 7.215-67.384-8.465-5.416-4.507-12.064 2.546-14.444 10.178a64.073 64.073 0 0 1-13.285-15.444c-2.063-3.353-7.038 4.995-5.878 7.612 8.438 18.993 23.936 35.207 45.197 38.64zm65.838 81.664c-17.193 9.516-37.097 13.224-56.615 12.571-19.462-.646-41.239-5.384-53.099-22.181-3.671-5.202-9.837 7.724-8.676 11.238 15.318 46.429 75.246 51.854 113.779 32.56 8.076-4.046 13.162-13.372 14.333-22.104.713-5.306-1.695-16.524-9.722-12.084z"/><path d="M442.804 606.346c16.363 13.013 33.117 21.873 53.946 24.88 17.651 2.548 41.601-.353 54.825-13.208 1.907-1.855 7.349-14.848.661-14.056-8.018.95-15.586 6.489-23.377 8.995-8.805 2.831-18.373 3.265-27.536 2.962-18.928-.627-38.794-7.423-55.808-15.391-2.248-1.052-4.509 4.386-2.711 5.818zM213.496 474.551c6.28-7.722 14.691-13.624 24.938-13.755 11.299-.142 13.801 9.877 18.08 18.078 1.952 3.744 6.261-4.538 6.419-5.922 1.436-12.597-4.912-25.144-18.877-25.392-13.68-.244-25.982 11.322-33.204 21.732-1.888 2.722-.96 9.69 2.644 5.259z"/><path d="M263.375 468.183c-8.144-.335-18.354-.418-24.117 6.398-5.699 6.741-4.577 16.945.311 23.833 2.095 2.952 5.525-4.376 4.9-6.343-.894-2.801-5.056-10.168-2.051-12.765 4.783-4.135 13.069-4.247 18.998-4.562 2.376-.125 4.891-6.441 1.959-6.561zm507.896 14.901c3.038-8.112 9.257-13.7 17.753-15.521 7.657-1.642 13.56 2.292 20.641 3.99 4.453 1.066 9.204-7.956 6.299-11.302-7.305-8.416-20.519-7.972-30.023-3.898-10.699 4.584-17.45 16.22-20.324 26.959-1.747 6.51 4.065 4.025 5.654-.228z"/><path d="M768.073 488.869c4.104-1.567 11.671-4.308 14.855.333 1.108 1.615.436 4.026.146 5.762-.558 3.37-2.085 6.486-2.666 9.891-.474 2.773 1.772 3.603 3.572 1.667 5.343-5.746 9.675-17.581 5.013-24.962-4.449-7.047-15.841-.732-20.684 2.125-1.367.807-2.957 6.226-.236 5.184zM421.241 723.834c-7.451 23.623-6.077 48.993 11.773 67.579 15.928 16.585 39.803 23.296 62.223 23.025 23.516-.28 47.153-8.339 64.153-24.85 8.836-8.58 15.201-20.142 18.354-31.99 2.589-9.738 5.218-28.034-4.479-34.364-3.671-2.4-7.008 6.111-7.403 8.216-1.811 9.667-.412 20.536-3.086 29.322-.798 2.623-1.816 4.468-4.354 8.046-1.046 1.478-4.658 5.039-7.104 6.996-15.152 12.134-34.992 16.804-54.082 17.089-19.207.291-39.328-3.842-54.796-15.742-16.871-12.983-20.234-34.762-16.208-54.51 1.007-4.944-4.158-1.463-4.991 1.183z"/><path d="M422.527 720.535c-55.522.25-118.562.189-155.294 49.416-16.268 21.797-24.867 47.765-29.922 74.218-5.052 26.433-7.452 54.613-4.455 81.319.625 5.563 5.582-1.26 6.023-3.523 9.125-46.756 5.933-99.092 34.437-139.903 32.239-46.161 97.181-38.874 145.547-49.258 3.911-.837 9.436-12.296 3.664-12.269zm150.065 17.076c26.307-2.072 54.453-.779 79.456 8.299 22.517 8.177 39.704 24.068 53.872 42.918 15.104 20.094 24.002 43.288 32.394 66.734 8.541 23.86 15.438 48.602 20.285 73.468 1.47 7.536 11.617-5.165 10.886-10.016-8.021-52.992-17.33-106.362-50.271-150.37-14.515-19.393-35.287-34.317-58.302-41.742-29.408-9.484-59.126-4.108-87.403 6.513-1.071.403-2.821 4.345-.917 4.196z"/><path d="M276.616 868.613c10.264.904 22.263 4.708 26.785 14.896 4.168 9.396 3.968 21.31 3.754 31.391-.245 11.415-1.938 22.811-3.104 34.154-.878 8.54-4.008 22.42 1.317 29.869 5.55 7.765 13.761-9.604 14.307-13.203 1.581-10.421-.326-22.092-.042-32.728.329-12.096.716-24.234-.825-36.268-1.302-10.146-5.104-18.766-12.541-25.861-8.166-7.784-18.995-6.979-29.165-4.487-.654.163-1.487 2.15-.486 2.237zm27.389-485.836c10.604-10.237 24.941-14.349 38.952-17.589 14.47-3.347 29.924-3.871 44.513-1.025 18.548 3.617 30.415-38.657 14.576-38.24-39.562 1.042-79.97 13.229-102.476 48.032-2.999 4.634-2.575 15.586 4.435 8.822z"/><path fill="#08B5F9" d="M683.855 858.797c.158-.316.288-.619.452-.937.758-1.468 1.646-7.737-1.938-6.002-.949.461-1.867.954-2.781 1.458a3.984 3.984 0 0 0-1.551-.266c-.779.055-1.557.11-2.336.168-4 .28-6.589 4.071-7.964 8.048-3.2 2.438-6.35 4.966-9.621 7.412-1.691 1.265-3.026 7.37.281 5.284 2.755-1.739 5.434-3.6 8.153-5.371.101 2.808.864 5.483 1.956 8.096-9.376 33.361 8.257 70.274 13.091 104.008 2.26 15.758 16.891-2.823 17.714-10.366 4.119-37.746 4.08-77.884-15.456-111.532zm-206.522-11.228c-20.41 1.057-40.119-9.582-54.563-23.251-6.785-6.419-12.411-13.985-17.296-21.911-4.969-8.064-7.04-18.208-12.747-25.669-.815-1.031-1.877-1.527-3.191-1.487-.702.099-1.353.26-1.974.453-.746-3.913-1.295-7.8-1.561-11.628-.455-6.55-6.838 2.064-6.971 5.237-.21 5.016.049 10.069.583 15.122-1.986 6.262-1.286 14.286.145 19.502 1.535 5.601 3.978 11.059 6.907 16.287 4.241 16.374 9.952 32.356 18.436 47.059 7.022 12.172 17.358 25.072 32.057 27.422 18.117 2.894 32.789-14.012 41.217-27.762 2.112-3.444 8.445-19.864-1.042-19.374z"/><path fill="#AF543F" d="M782.686 462.529c-1.355-12.709-3.273-25.34-5.604-37.898 1.537-22.111 1.912-44.174-1.579-66.151.158-.767.316-1.533.477-2.298.37-1.788-.271-3.887-1.711-4.694a175.557 175.557 0 0 0-2.836-12.124c-1.481-5.441-7.129-.313-9.028 3.046-1.678-17.287-4.965-34.45-9.216-51.171-9.156-36.001-23.921-71.141-44.455-102.157-.469-.708-1.1-1.042-1.79-1.128-3.3-6.521-6.971-12.749-11.212-18.404-.012-16.161-15.065-27.794-27.84-35.75-10.501-6.542-22.008-12.04-33.819-16.366-9.413-8.714-19.647-16.471-31.077-22.499-25.464-13.429-55.576-14.208-83.53-10.312-24.972 3.48-48.954 10.722-72.574 19.157a293.152 293.152 0 0 0-50.682 19.114l-1.405.53c-.307.115-.605.322-.888.592-44.861 22.351-83.748 56.281-109.615 99.576-1.159 1.939-1.818 5.378-.271 7.309 2.101 2.625 5.317-.236 6.775-1.943a314.687 314.687 0 0 1 18.038-19.383 205.541 205.541 0 0 0-8.118 12.244c-16.905 27.599-27.95 59.316-28.892 91.823-.115 3.937 4.89.134 5.036-2.319 2.627-44.006 23.693-87.067 55.038-117.77 15.471-15.155 34.223-26.94 55.204-32.642 24.944-6.78 50.406-1.306 75.07 4.107 1.737.381 3.476.771 5.216 1.164.479.679 1.193 1.104 2.233 1.024.536-.041 1.072-.101 1.608-.151 18.03 4.131 36.198 8.64 54.508 11.501.447.282.995.492 1.67.611 1.976.35 3.978.5 5.995.483 16.028 2.063 32.164 2.654 48.402.41 18.243-2.522 35.795-8.688 54.096-10.83 9.264-1.083 18.576 6.363 27.721 8.186.873.174 1.721 3.428 2.568 3.647 8.252 10.631 15.951 11.547 22.783 22.974 27.026 45.208 37.88 97.25 43.246 149.053 1.772 17.109 3.128 34.219 3.921 51.337-.436 23.859-.488 47.724-.405 71.589a569.488 569.488 0 0 1-.871 11.998c-1.871 22.122-4.818 44.424-11.039 65.785-6.961 23.899-21.442 44.93-36.312 64.594-16.954 22.415-35.891 45.164-58.257 62.396-.385.295-.777.58-1.163.873-13.475 4.571-26.219 12.424-36.107 21.909a219.716 219.716 0 0 1-32.454 12.391c-21.48 6.312-44.19 8.86-66.468 6.129-3.907-.479-7.572 8.773-2.961 9.401 32.805 4.468 66.872-2.508 97.476-16.442.255 2.187 1.574 3.589 4.775 2.801 10.256-2.526 20.613-8.04 29.339-14.306.363.199.843.236 1.452.05.324 1.12 1.202 1.693 2.961 1.049 3.127-1.145 6.072-2.694 8.83-4.538.737.677 1.752.943 3.069.414 16.726-6.712 30.374-21.172 42.019-34.458 8.907-10.164 16.867-21.282 24.085-32.791 1.979.345 4.835-1.38 6.205-2.961 15.312-17.669 25.383-39.355 33.802-60.972 6.691-17.186 12.333-35.044 16.478-53.122-.024 6.488.145 12.966.601 19.429.313 4.402 4.467 4.442 7.159 1.925 21.096-19.729 17.094-49.035 14.323-75.041zM395.771 148.321a332.428 332.428 0 0 1 7.258-3.406c.544.713 1.402 1.227 2.672 1.429.74.119 1.481.216 2.221.303-4.076.337-8.125.891-12.151 1.674zm134.667 17.338c-.536.196-1.105.559-1.674 1.037-.552-.086-1.102-.181-1.653-.27 1.187-.272 2.37-.554 3.551-.848-.074.028-.149.053-.224.081zm42.946 1.889c-.167.53-.309 1.299-.368 2.136-2.955.201-5.927.294-8.905.291 3.252-1.704 6.361-3.457 9.268-5.1l1.489-.437a12.2 12.2 0 0 0-1.484 3.11zm-3.533-49.946c1.387.151 2.771.314 4.158.484a374.379 374.379 0 0 0-4.106-.101 5.194 5.194 0 0 0-.052-.383zm-46.739-14.877c1.755-3.606 2.596-7.992-.284-9.048 16.881-1.59 33.835-1.053 50.739 2.73 10.608 2.374 20.467 6.728 29.628 12.343-26.316-5.623-53.269-7.494-80.083-6.025zm94.875 58.614c-1.649.37-3.296.749-4.943 1.128 5.632-2.594 11.269-5.125 17.062-7.055 7.95-.34 16.462-.247 24.481 1.24l.29.341c-12.394-.717-24.859 1.646-36.89 4.346zm97.387 447.145c1.121-3.563 2.464-7.061 3.808-10.459a207.509 207.509 0 0 1 3.416-8.099c2.069-3.177 4.051-6.432 5.912-9.832 2.202-4.024 4.39-8.061 6.546-12.112-5.241 13.772-11.442 27.992-19.682 40.502zm25.63-263.114a628.432 628.432 0 0 0-1.722-13.992c.727 4.519 1.435 9.042 2.119 13.568-.134.137-.269.279-.397.424zm30.346 172.298c-.364-13.87.312-27.744 1.366-41.612a400.713 400.713 0 0 1 1.448 20.513c.328 7.456-.083 14.695-2.814 21.099z"/><path d="M388.951 762.872c-1.583 23.793 7.485 45.678 23.909 62.742 14.881 15.461 43.872 30.051 65.652 24.694 3.198-.79 8.45-11.139 3.821-12.674-9.843-3.262-20.434-3.302-30.397-6.529-10.102-3.271-19.472-8.543-27.958-14.864-18.465-13.756-30.565-32.665-30.169-56.209.069-4.129-4.709.616-4.858 2.84zm260.082 110.979c2.558 8.823 6.492 17.084 9.643 25.71 3.794 10.379 5.848 21.288 7.908 32.109 4.204 22.055 5.848 44.581 9.145 66.779.163 1.1.438 3.456 1.936 3.77.44.093.886.184 1.325.279 2.753.575 5-2.143 5.956-4.474 3.985-9.727.409-21.098-.851-31.268-1.556-12.564-3.632-25.064-6.108-37.481-2.447-12.255-5.873-24.235-10.724-35.762-3.58-8.513-8.106-17.899-17.438-20.864-.537-.173-.903.809-.792 1.202z"/><path d="M688.059 840.855c-14.479 5.301-27.017 13.805-36.811 25.765-1.634 1.993-3.181 5.008-2.35 7.669 1.062 3.406 4.479.307 5.59-1.222 8.423-11.601 19.773-19.952 32.722-25.913 1.978-.912 4.093-7.485.849-6.299zm77.435-522.873c-2.189-7.041-10.112 5.64-9.156 10.053 16.623 76.85 13.276 181.493-19.5 253.724-31.291 68.97-91.714 119.44-166.089 135.345-83.577 17.873-175.413-5.004-234.927-67.675-60.166-63.355-75.133-152.644-67.455-236.855-3.849-2.188-7.784-4.146-11.873-5.688a554.762 554.762 0 0 0-3.258 30.619c-6.51 83.832 12.102 171.21 70.631 234.279 58.371 62.903 148.354 86.807 231.708 73.116 77.439-12.723 141.788-62.188 180.416-129.644 47.227-82.472 57.663-206.748 29.503-297.274z"/><path d="M721.244 372.736c-8.78-15.68-23.052-28.956-39.855-35.547-16.365-6.42-34.969-9.167-52.477-9.66-16.942-.475-25.435 41.341-11.594 38.812 16.759-3.063 33.517-3.1 50.193.607 16.039 3.564 32.352 7.971 45.213 18.72 5.551 4.64 10.946-8.6 8.52-12.932z"/><path fill="#FFF" d="M595.073 496.903c-53.622 2.509-108.152 6.034-161.439-2.304-3.729-.583-6.527 5.112-6.901 7.962-1.555 11.892 2.842 22.685 9.647 31.95-4.549 8.485-4.999 18.247 3.752 25.58 10.092 8.455 24.406 12.235 37.568 14.179 7.465 3.454 15.536 5.606 23.931 6.345 37.578 3.297 70.263-23.345 86.856-55.019 3.695-7.052 6.61-14.554 8.969-22.148.592-1.908.869-6.698-2.383-6.545zm-123.401 35.941a30.965 30.965 0 0 0 6.625 4.581c-4.615-.586-9.159-1.506-13.526-2.912a73.887 73.887 0 0 1 6.901-1.669zm84.888 2.043c-.367.003-.735.021-1.104.025a148.23 148.23 0 0 1 4.008-.508c-.06.557-.129 1.104-.208 1.646-.498-.727-1.355-1.171-2.696-1.163zm-102.754-9.153a43.119 43.119 0 0 1-2.352-2.833c2.882-.064 5.764-.11 8.646-.137a57.918 57.918 0 0 0-6.294 2.97zm-13.152-16.371a5.563 5.563 0 0 1-.079-.228c.198.026.397.049.595.073-.174.049-.348.093-.516.155zm141.722 1.909c-7.921-.018-15.839-.162-23.757-.369 9.22-.396 18.445-.803 27.68-1.144a109.696 109.696 0 0 1-1.292 3.134c-.447-.963-1.267-1.618-2.631-1.621zm-137.168 33.335c.293.471.604.932.902 1.399a13.762 13.762 0 0 1-1.399-1.891c.164.165.331.327.497.492z"/><path d="M401.861 480.818c31.704 20.596 72.975 25.358 109.936 25.318 20.359-.022 40.88-2.325 60.744-6.773 17.348-3.884 36.42-9.66 50.973-20.252 2.627-1.912 4.586-10.498-.586-7.713-15.771 8.491-31.664 14.718-49.184 18.716-19.791 4.516-40.075 6.239-60.339 6.478-36.011.425-76.419-4.052-108.069-22.595-2.727-1.598-6.169 5.071-3.475 6.821z"/><path d="M417.892 489.06c-3.583 45.25 24.815 88.82 69.885 99.208 20.732 4.779 44.546.861 63.646-8.057 16.915-7.898 29.86-22.052 38.209-38.545 8.155-16.11 13.492-36.303 13.146-54.416-.028-1.478-1.205-2.636-2.698-2.183-2.163.657-3.389 3.099-3.754 5.153-1.829 10.292-2.76 20.552-5.595 30.669-2.476 8.835-6.012 17.458-10.987 25.188-10.441 16.224-26.707 26.228-45.204 30.861-22.218 5.566-45.732 4.252-66.004-6.812-19.812-10.812-34.397-29.86-41.158-51.223-3.22-10.175-4.312-20.992-3.621-31.62.358-5.519-5.576-1.871-5.865 1.777z"/><path d="M421.304 523.756c25.591 13.126 54.567 20.049 83.208 21.582 29.777 1.594 62.708-3.029 87.75-20.321 2.509-1.732 3.9-9.571-.525-6.939-26.231 15.594-55.894 20.536-86.114 18.973-27.72-1.434-55.872-7.877-80.97-19.864-2.784-1.332-6.084 5.167-3.349 6.569z"/><path fill="#AF543F" d="M311.245 486.266a3.287 3.287 0 0 0-.364-1.004c-.049-.087-.103-.16-.154-.238-1.082-2.303-2.708-4.3-4.826-5.489-7.394-4.148-13.439 6.979-15.576 12.159-.538 1.304-1.175 5.09 1.387 4.484.993 2.508 3.446 4.34 6.449 5.61 6.789 2.876 13.008-.944 13.981-8.16.315-2.338-.011-4.959-.897-7.362zm-4.388 9.83c.15-.28.229-.399.255-.436.004.031.008.045.012.05-.016-.001-.079.039-.267.386zm.271-.952a3.52 3.52 0 0 0-.018.51c-.04.044-.186.202-.414.292-.912.361-1.877.287-2.833.183-.773-.085-1.816-.3-2.892-.644.455-.258.88-.523 1.247-.704 1.111-.555 2.225-1.107 3.339-1.661.437.166.953.156 1.456-.045.004.03.012.061.016.089.119.738.137 1.564.099 1.98zm38.855-10.035a3.296 3.296 0 0 0-.364-1.004c-.05-.087-.103-.16-.156-.238-1.08-2.301-2.706-4.301-4.827-5.489-7.392-4.147-13.437 6.98-15.573 12.159-.54 1.305-1.175 5.09 1.384 4.484.995 2.509 3.448 4.34 6.449 5.611 6.791 2.874 13.01-.945 13.983-8.16.317-2.338-.009-4.959-.896-7.363zm-4.389 9.83c.152-.279.231-.399.257-.436a.14.14 0 0 0 .01.05c-.016-.001-.077.039-.267.386zm.273-.951a2.762 2.762 0 0 0-.018.51c-.04.043-.186.202-.413.291-.912.361-1.877.287-2.833.183-.773-.085-1.816-.3-2.892-.644.455-.257.88-.522 1.244-.704l3.339-1.661c.439.167.956.156 1.458-.044.004.03.012.06.016.089.119.738.137 1.565.099 1.98zm38.567-8.879a3.296 3.296 0 0 0-.364-1.004c-.05-.087-.103-.16-.156-.238-1.08-2.301-2.704-4.301-4.825-5.489-7.394-4.147-13.439 6.98-15.575 12.159-.538 1.305-1.175 5.09 1.384 4.484.995 2.509 3.448 4.34 6.449 5.611 6.791 2.874 13.01-.945 13.983-8.16.316-2.338-.01-4.959-.896-7.363zm-4.388 9.83c.15-.279.229-.399.255-.436.004.031.008.046.012.05-.018-.001-.079.039-.267.386zm.271-.951a2.975 2.975 0 0 0-.018.51c-.04.043-.186.202-.414.291-.912.361-1.877.287-2.833.183-.773-.085-1.816-.3-2.892-.644.455-.257.88-.522 1.246-.704l3.339-1.661c.437.167.954.156 1.456-.044.004.03.012.06.016.089.12.738.138 1.565.1 1.98zm-45.693 24.574a3.36 3.36 0 0 0-.364-1.004c-.049-.087-.103-.16-.156-.238-1.08-2.302-2.706-4.301-4.827-5.489-7.394-4.147-13.437 6.979-15.575 12.159-.536 1.305-1.175 5.09 1.387 4.484.995 2.51 3.448 4.34 6.448 5.611 6.791 2.875 13.01-.946 13.983-8.16.316-2.338-.01-4.959-.896-7.363zm-4.39 9.831c.152-.278.231-.399.255-.436.004.03.01.046.012.05-.016-.002-.077.039-.267.386zm.273-.952c-.028.3-.026.441-.018.51a1.12 1.12 0 0 1-.413.291c-.914.361-1.877.287-2.833.184-.773-.086-1.816-.3-2.892-.645.455-.257.88-.521 1.244-.704 1.114-.554 2.228-1.106 3.339-1.66.439.166.954.156 1.458-.045.004.03.012.06.016.089.119.738.137 1.564.099 1.98zm41.008-10.035a3.28 3.28 0 0 0-.364-1.003c-.049-.087-.103-.161-.156-.239-1.08-2.301-2.704-4.3-4.825-5.489-7.394-4.146-13.439 6.979-15.575 12.159-.538 1.305-1.175 5.09 1.385 4.484.995 2.51 3.448 4.34 6.448 5.611 6.791 2.875 13.01-.944 13.983-8.16.317-2.338-.01-4.959-.896-7.363zm-4.39 9.831c.152-.279.231-.399.255-.437.004.03.01.046.012.051-.014-.001-.077.039-.267.386zm.273-.951a2.965 2.965 0 0 0-.018.509c-.04.044-.186.202-.414.292-.912.36-1.877.286-2.833.183-.773-.085-1.816-.299-2.892-.644.455-.258.88-.523 1.244-.705l3.341-1.66c.438.166.954.156 1.456-.045.004.03.012.061.016.089.12.739.138 1.565.1 1.981zm290.718-38.837a3.311 3.311 0 0 0-.363-1.004c-.05-.087-.104-.162-.156-.238-1.08-2.303-2.704-4.302-4.825-5.489-7.394-4.148-13.438 6.979-15.575 12.159-.538 1.303-1.175 5.089 1.385 4.484.995 2.508 3.448 4.34 6.448 5.61 6.791 2.876 13.01-.945 13.983-8.16.316-2.338-.01-4.959-.897-7.362zm-4.388 9.829c.152-.28.231-.399.255-.436.006.03.01.045.012.051-.016-.002-.078.039-.267.385zm.272-.951c-.025.3-.025.441-.018.509a1.143 1.143 0 0 1-.413.292c-.912.361-1.878.286-2.833.183-.773-.085-1.815-.299-2.892-.644.455-.258.88-.523 1.246-.706 1.111-.554 2.226-1.106 3.339-1.659.438.166.953.156 1.456-.046.004.03.012.061.016.089.119.74.137 1.566.099 1.982zm38.855-10.035a3.29 3.29 0 0 0-.364-1.003c-.049-.087-.103-.16-.156-.239-1.08-2.301-2.706-4.3-4.826-5.488-7.392-4.147-13.438 6.979-15.575 12.159-.536 1.305-1.173 5.089 1.387 4.484.995 2.509 3.447 4.339 6.448 5.611 6.791 2.874 13.01-.946 13.983-8.16.316-2.341-.01-4.961-.897-7.364zm-4.389 9.831c.152-.279.231-.4.256-.437.004.031.01.046.012.051-.016-.002-.08.038-.268.386zm.273-.952a2.965 2.965 0 0 0-.018.509c-.04.044-.187.202-.414.292-.913.361-1.877.287-2.832.182-.773-.084-1.818-.299-2.893-.643.455-.257.881-.523 1.245-.704a10303.3 10303.3 0 0 1 3.339-1.661c.438.166.953.156 1.458-.044.004.029.012.059.016.089.119.738.136 1.564.099 1.98zm38.567-8.879a3.29 3.29 0 0 0-.364-1.003c-.049-.087-.103-.16-.156-.239-1.08-2.301-2.704-4.3-4.826-5.488-7.393-4.147-13.438 6.979-15.573 12.159-.538 1.305-1.177 5.089 1.385 4.484.995 2.509 3.447 4.339 6.448 5.611 6.791 2.874 13.01-.946 13.983-8.16.316-2.341-.012-4.961-.897-7.364zm-4.39 9.831c.152-.279.231-.4.258-.437a.157.157 0 0 0 .01.051c-.016-.002-.078.038-.268.386zm.273-.952a3.213 3.213 0 0 0-.018.509c-.04.044-.187.202-.414.292-.912.361-1.877.287-2.832.182-.773-.084-1.816-.299-2.893-.643.455-.257.881-.523 1.244-.704l3.34-1.661c.438.166.955.156 1.457-.044.004.029.012.059.017.089.119.738.137 1.564.099 1.98zm-45.693 24.573a3.338 3.338 0 0 0-.364-1.002c-.052-.088-.103-.161-.156-.239-1.08-2.301-2.706-4.301-4.826-5.489-7.395-4.146-13.438 6.98-15.575 12.16-.539 1.304-1.176 5.089 1.386 4.484.995 2.509 3.448 4.338 6.449 5.61 6.79 2.874 13.01-.945 13.982-8.159.316-2.339-.01-4.961-.896-7.365zm-4.39 9.831c.15-.278.231-.399.255-.436.004.03.008.046.012.05-.016-.001-.078.04-.267.386zm.271-.951a3.106 3.106 0 0 0-.016.51 1.131 1.131 0 0 1-.413.292c-.914.36-1.877.286-2.833.182-.773-.084-1.815-.299-2.892-.643.453-.258.878-.523 1.244-.705l3.339-1.66c.439.166.953.156 1.458-.045.004.03.012.06.016.09.119.737.137 1.564.097 1.979zm41.01-10.034a3.302 3.302 0 0 0-.363-1.004c-.05-.087-.104-.16-.156-.238-1.08-2.302-2.707-4.301-4.827-5.489-7.394-4.147-13.437 6.979-15.575 12.159-.536 1.305-1.173 5.089 1.387 4.484.995 2.509 3.447 4.34 6.448 5.61 6.791 2.875 13.01-.944 13.983-8.16.316-2.339-.011-4.959-.897-7.362zm-4.389 9.83c.152-.279.23-.399.257-.437.002.03.008.045.01.052-.016-.002-.077.037-.267.385zm.273-.951a2.965 2.965 0 0 0-.018.509c-.04.044-.187.201-.413.293-.914.359-1.878.285-2.833.182-.773-.085-1.816-.299-2.892-.643.452-.259.878-.524 1.244-.706 1.113-.554 2.227-1.106 3.339-1.66.438.166.953.156 1.458-.045.004.03.012.061.016.09.118.738.137 1.564.099 1.98z"/><path d="M381.723 406.914c-.332-.432-.68-.854-1.036-1.272-4.117-6.224-10.907-10.521-18.734-11.256-4.734-1.02-9.646-.918-14.264.661-3.766 1.288-7.489 3.672-9.843 6.919-10.52 7.646-12.478 22.419-4.243 33.46 10.308 13.821 29.509 14.602 42.93 5.16 11.585-8.15 13.724-22.549 5.19-33.672zm-46.823 6.934a24.87 24.87 0 0 0-.502 2.933 9.929 9.929 0 0 1 .502-2.933zm344.19-13.971a33.606 33.606 0 0 0-1.036-1.271c-4.117-6.224-10.907-10.522-18.736-11.256-4.731-1.02-9.644-.918-14.263.661-3.766 1.287-7.488 3.671-9.843 6.919-10.52 7.644-12.478 22.417-4.243 33.459 10.309 13.821 29.51 14.603 42.931 5.161 11.584-8.152 13.723-22.549 5.19-33.673zm-46.823 6.935a24.89 24.89 0 0 0-.502 2.932 9.896 9.896 0 0 1 .502-2.932z"/><circle fill="#FFF" cx="363.829" cy="413.403" r="10.063"/><circle fill="#FFF" cx="645.475" cy="407.141" r="10.064"/><path fill="#D8724A" d="M268.392 433.886c-12.005-11.422-30.097-26.571-48.107-19.358-20.238 8.106-30.975 30.845-32.757 51.545-2.182 25.363 8.243 75.337 44.196 65.267 14.749-4.131 26.522-17.529 35.04-29.479 5.916-8.297 12.037-23.44 4.563-32.774-7.44-9.285-20.139.319-25.029 7.18a113.539 113.539 0 0 1-4.569 5.994c-2.896 3.535 4.176-4.574 1.189-1.359-.698.75-1.436 1.464-2.17 2.176a49.088 49.088 0 0 1-2.13 1.905c-2.894 2.49 4.709-3.487 1.721-1.351-1.264.906-2.619 1.671-4.007 2.365 6.435-3.209 2.12-1.023.158-.547-2.728.663 4.777-.5 2.041-.24-.583.056-1.169.046-1.754.035-1.713-.032-5.71-1.324.19.393-1.266-.368-2.455-.966-3.592-1.625-3.673-2.128.352.542-.028.202-.93-.827-1.758-1.763-2.556-2.716-.846-1.007-1.594-2.093-2.312-3.192-.374-.573-.718-1.166-1.061-1.755-1.41-2.427 2.301 4.562.508.833-1.288-2.68-2.276-5.495-3.129-8.342-.441-1.476-.805-2.975-1.144-4.478-.732-3.251.977 5.197.386 1.912a78.657 78.657 0 0 1-.467-3.086c-.414-3.063-.582-6.155-.582-9.242 0-3.489-.255 6.134-.091 2.677.035-.741.099-1.478.162-2.216a50.93 50.93 0 0 1 .574-4.272c.819-4.803-1.909 7.107-.269 1.466a34.61 34.61 0 0 1 .617-1.86c1.192-3.38-3.068 7.169-1.614 3.938 2.449-5.453-2.372 3.433-1.494 2.142 3.029-4.458-5.129 4.88-1.167 1.389-5.622 4.951-4.427 3.299-2.751 2.208 1.341-.869 4.027-1.873-2.678 1.125 1.019-.456 2.11-.723 3.203-.925-6.296 1.167-2.184.328-.212.474.67.049 1.332.165 1.992.281 2.554.442-4.451-1.389-.53-.11 3.467 1.13 6.684 2.979 9.732 4.942 1.915 1.233 3.733 2.611 5.525 4.014-3.313-2.591.154.158.676.613 1.417 1.23 2.777 2.516 4.136 3.81 8.563 8.147 19.249.633 25.029-7.178 5.285-7.145 12.921-24.827 4.562-32.781z"/><path fill="#EF6100" d="M763.565 929.868c-8.547-34.516-22.844-67.745-42.57-96.89a226.866 226.866 0 0 0-4.417-8.563c-.21-6.477-2.251-12.202-7.645-13.129-4.876-7.834-10.111-15.36-15.505-22.511-28.367-37.609-66.517-62.438-112.827-71.689-47.562-9.503-97.328-1.668-144.414 6.866-42.076 7.626-87.409 12.702-122.656 39.078-12.387 9.268-22.359 20.223-30.552 32.337-5.697 5.641-11.009 11.719-15.852 18.27a144.71 144.71 0 0 0-2.804 3.938c-10.079 12.317-19.788 24.964-29.866 37.099-6.435 7.746-11.704 23.857-4.562 32.776 2.129 2.658 4.586 3.783 7.139 3.893-1.273 9.221-1.958 18.547-2.134 27.879-1.967 3.516-3.008 7.562-2.29 10.716-3.207 5.701-4.202 13.185.444 16.331.981.665 1.972 1.314 2.961 1.965.878 3.942 3.369 4.792 6.188 3.951.427.264.856.522 1.284.784 1.605 3.292 4.531 5.462 9.307 5.441 11.457 6.404 23.343 12.014 35.525 16.959-.023.953-.017 1.914.057 2.891.655 8.624 6.253 13.95 14.911 12.056a182.081 182.081 0 0 0 15.344-4.09c20.509 6.451 41.507 11.431 62.405 15.516 46.17 9.026 94.17 13.408 141.162 14.722 57.487 1.607 148.214-4.479 191.506-50.789a608.375 608.375 0 0 0 39.895-16.245c7.256-3.254 11.922-11.662 9.966-19.562zm-50.062-20.091a98.6 98.6 0 0 0 6.429-10.303c.31 2.764.498 5.531.555 8.294a314.872 314.872 0 0 0-6.984 2.009zm-417.826 33.438c10.413-5.618 20.387-12.11 29.903-18.588 1.458-.993 2.895-2.017 4.341-3.025-9.444 7.647-18.388 15.815-26.606 24.687-2.568-.978-5.116-2-7.638-3.074zm225.43-190.225c-10.643 4.782-21.024 10.192-31.2 15.927 4.135-4.668 7.346-10.071 9.051-16.044 7.392-.116 14.78-.102 22.149.117zm77.917 13.256c-11.389 7.076-22.942 13.87-34.541 20.583 4.165-7.648 7.705-15.693 10.451-24.204.323-1.001.595-2.068.812-3.175 7.837 1.795 15.603 4.032 23.278 6.796zM263.883 891.393a255.093 255.093 0 0 0 6.315-3.06 207.022 207.022 0 0 0-8.186 10.976c.57-2.62 1.148-5.238 1.734-7.854l.137-.062zm129.056-17.147c23.035-17.118 48.051-31.61 72.372-46.801 15.292-9.553 30.821-18.799 47.01-26.565-1.425 1.28-2.86 2.55-4.306 3.805-9.966 8.651-17.892 14.295-29.794 22.442-12.592 8.619-25.566 16.678-38.596 24.618-26.973 16.433-55.994 32.05-82.922 50.183 12.084-9.224 24.042-18.618 36.236-27.682zm120.928-12.184c-16.675 11.294-33.818 21.85-51.058 32.249 22.175-16.722 45.068-31.178 69.222-44.918-5.947 4.294-12.001 8.496-18.164 12.669zm-65.574 95.996c-4.463 3.069-8.344 7.302-11.197 12.144-4.64-.305-9.277-.635-13.911-1.005 8.376-3.7 16.75-7.403 25.108-11.139zm252.197-95.097a171.205 171.205 0 0 0 5.818-8.692 233.104 233.104 0 0 1 2.002 4.571 378.638 378.638 0 0 0-7.82 4.121zm-46.734-29.993a519.618 519.618 0 0 0 11.844-14.299c1.883-2.358 3.569-5.19 4.894-8.254a230.112 230.112 0 0 1 10.126 10.121 443.753 443.753 0 0 0-26.864 12.432zm-8.343-42.818c-7.777 5.206-15.12 10.97-22.296 16.95 4.953-7.27 9.469-14.834 13.466-22.719a208.128 208.128 0 0 1 8.83 5.769zM508.43 967.077a200.815 200.815 0 0 0-5.768 6.039c-1.216-.032-2.431-.07-3.646-.104 3.148-1.958 6.284-3.94 9.414-5.935z"/><path fill="#D8724A" d="M417.625 720.302c-3.472 19.464-1.709 40.329 10.405 56.588 10.009 13.432 27.022 19.688 43.138 21.158 39.908 3.65 78.818-23.223 95.324-58.483 3.596-7.684 8.531-24.687-2.252-29.682-18.112-8.391-42.243-4.347-60.75.246-25.869 6.42-53.835 27.467-46.878 57.718 2.375 10.335 13.316 16.801 22.329 20.584 13.579 5.698 29.655 4.979 43.038-.807 15.959-6.9 29.327-19.693 36.23-35.79 8.422-19.637 7.72-38.192-2.447-56.875-5.869-10.783-21.062 1.819-25.028 7.179-7.064 9.542-10.417 22.023-4.563 32.776 1.472 2.701 2.087 5.391 2.342 8.007-.36-3.699-1.223 4.496.241-.892 1.735-6.381-2.44 2.888 1.306-2.561 2.795-4.061-.972.879-1.778 1.601 2.965-2.65-2.69 1.359-2.87 1.461-.513.286-6.13 2.064-8.521 2.306-8.356.84-15.485-1.458-22.636-5.561-3.63-2.086-1.764-.36-4.397-3.852 4.377 5.801-1.021 19.551-7.325 26.492 1.62-1.501.993-1.086-1.883 1.244 1.026-.797 2.166-1.449 3.284-2.108.791-.467 5.097-2.398.682-.457 1.478-.649 3.001-1.194 4.52-1.743 6.801-2.458 13.953-3.946 21.079-5.087 2.779-.445 11.955-.983 17.245-.88 3.135.061 6.254.376 9.352.854.687.104 5.042 1.322 1.128.168 1.113.327 2.17.798 3.22 1.286-.749-9.896-1.499-19.789-2.251-29.684a63.41 63.41 0 0 1-1.679 3.45c-2.924 5.792 3.22-4.659-.327.7-1.026 1.555-2.186 3.019-3.343 4.482 3.771-4.765.021-.094-.818.76-.954.97-7.968 6.646-3.892 3.612-2.925 2.175-6.078 4.026-9.276 5.761-2.056 1.014-2.156 1.096-.295.252-1.642.748-3.333 1.387-5.019 2.023-3.347 1.266-6.808 2.199-10.285 3.013-4.735 1.107-3.792.839-7.669 1.128-3.404.256-6.816.159-10.213-.066-7.168-.479-9.083-1.11-14.754-3.469-2.39-.999-4.639-2.285-6.83-3.651-3.167-1.977-1.644-.766-4.906-4.215-1.778-1.882-3.246-4.023-4.621-6.208 1.94 3.084-.546-1.366-.724-1.789-.659-1.548-1.129-3.166-1.604-4.775-1.565-5.332.429 3.718-.368-2.022-.261-1.889-.322-3.803-.39-5.707-.222-6.407-.416 4.178.202-2.56.206-2.236.607-4.451 1.001-6.66 1.664-9.326-3.531-21.144-14.735-17.74-11.958 3.632-18.715 17.123-20.739 28.475z"/><path fill="#D8724A" d="M446.782 723.054c-.999 37.895 29.202 67.229 66.956 65.757 47.128-1.833 76.166-49.68 68.607-93.725-1.808-10.526-9.443-16.146-19.508-9.937-9.521 5.873-18.303 20.484-16.32 32.038.704 4.102 1.146 8.171 1.264 12.334-.166-5.938-2.103 10.85-.065 2.347-.378 1.579-.922 3.11-1.468 4.634 2.506-7.019.853-2.308-.027-.656 3.533-6.62 1.468-2.392.281-.796-3.142 4.233 3.955-4.063.271-.364-.932.937-4.847 3.959.089.223-1.144.866-2.376 1.617-3.6 2.366-.825.505-5.199 2.593-.544.491-1.321.597-2.696 1.074-4.065 1.553-2.775.965-5.659 1.569-8.547 2.062 3.457-.592-4.457.083-5.923.066-7.01-.082-10.725-1.043-15.054-2.573-2.84-1.004-5.55-2.338-8.189-3.782-1.319-.72-2.574-1.553-3.826-2.383-.277-.183-4.104-3.219-1.5-1.008-2.312-1.964-4.336-4.241-6.231-6.602-.963-1.199-1.804-2.491-2.643-3.779-2.729-4.193 1.337 3.026-.831-1.573-1.405-2.979-2.326-6.159-3.09-9.354 1.013 4.242-.006-1.42-.06-1.962-.253-2.484-.215-4.987-.15-7.478.299-11.374-10.905-15.245-19.507-9.937-11.028 6.802-15.996 19.665-16.32 32.038z"/><path d="M261.464 429.038c-17.146-11.271-41.067-21.407-59.766-7.625-15.104 11.13-19.189 32.625-18.104 50.208 1.159 18.766 8.715 39.079 23.549 51.266 16.428 13.497 41.721 12.229 56.595-3.138 1.246-1.289 5.465-11.251.49-10.42-9.093 1.521-16.762 6.688-26.229 7.23-7.695.439-14.957-2.032-21.346-6.191-13.326-8.681-20.863-25.629-23.337-40.818-2.039-12.53-1.713-29.117 8.931-37.931 15.603-12.922 40.07-1.808 55.212 6.007 3.113 1.603 6.951-6.651 4.005-8.588z"/><g fill="#D8724A"><path d="M370.345 695.54h-.002l-.002.006z"/><path d="M794.044 323.492c-3.211-3.65-7.855-4.787-13.063-3.134-.645.205-1.294.413-1.937.616v-.111l-.411.244c-15.594 4.98-25.658 4.119-35.542 2.264 1.906-6.273 3.37-12.734 4.466-19.283.904-.028 1.848-.326 2.669-.833 3.546-2.186 5.522-6.597 5.432-10.66-.449-20.02-3.019-40.01-8.413-59.085-1.699-8.083-4.278-15.952-8.142-23.005-5.611-13.016-12.815-25.376-21.888-36.749-23.438-29.39-58.287-47.431-94.012-57.084-19.953-5.392-40.432-8.419-61.031-9.852-24.021-1.671-48.229-1.414-71.965 2.95a170.23 170.23 0 0 0-9.71 2.093c-32.565 1.175-64.841 7.535-94.354 21.93a158.162 158.162 0 0 0-8.122 4.267c-14.903 5.617-29.395 12.25-43.093 20.211-18.659 10.847-36.43 25.151-46.726 44.489-7.475 14.036-9.01 29.612-5.354 44.437-3.232 13.893-3.04 28.407.823 42.427-12.102 8.476-23.729 17.716-34.669 27.977-6.514 6.111-11.095 15.101-12.25 24.046-.522 4.048-.267 12.202 4.012 17.07 2.128 2.419 4.981 3.613 8.29 3.479 10.501-.477 21.318-1.755 32.723-3.879-9.152 4.53-17.446 9.248-25.084 14.259-9.047 5.937-15.565 16.563-17.009 27.74-.645 4.987.002 12.404 3.95 16.896 2.101 2.391 4.941 3.656 8.271 3.656 20.528-.086 42.046-1.827 65.387-5.308-26.607 11.455-54.231 24.014-81.016 39.083-10.08 5.669-15.864 18.052-17.124 27.809-.835 6.456.635 12.552 3.93 16.302 3.149 3.584 7.815 4.87 13.194 3.59 21.945-5.204 41.203-9.934 58.893-14.477a1971.717 1971.717 0 0 0-12.907 5.567l-1.135.281-.038.25c-11.242 5.346-19.205 16.565-20.885 29.552-.833 6.466.629 12.577 3.944 16.346 3.159 3.592 7.792 4.862 13.156 3.545l2.304-.577c-.477.245-1.054.49-1.527.737l-.441.058v.062c0 .62-2.184 1.238-3.381 1.856-9.556 4.946-15.668 17.747-16.974 27.84-.837 6.471.651 12.596 3.982 16.384 3.161 3.597 7.817 4.854 13.17 3.503a826.344 826.344 0 0 0 34.11-9.416c-8.173 7.954-15.336 24.943-12.551 35.599 1.833 7.014 7.693 10.306 16.373 9.058a458.757 458.757 0 0 0 24.239-4.154c-3.147 4.954-5.234 10.658-5.99 16.497-.621 4.807.119 12.09 4.253 16.792 3.22 3.663 7.865 4.771 13.038 3.054 3.697-1.23 7.398-2.457 11.099-3.673-4.195 5.54-6.973 12.176-7.856 19.019-.851 6.589.457 12.23 3.685 15.903 3.076 3.5 7.748 4.892 13.302 3.991.736-.119 1.472-.275 2.206-.398l.141-.233c7.483-1.221 14.98-2.736 22.485-3.985-3.94 8.81-5.907 18.799-2.113 25.131 1.05 1.758 2.902 3.169 6.075 3.838 1.278.491 2.777.757 4.514.759h.055a908.5 908.5 0 0 0 17.748-.221c11.33.091 22.591.109 33.653-.564.67 5.769 3.559 11.171 8.267 13.25 13.364 5.896 28.344 8.888 44.521 8.888 34.454 0 69.403-13.499 92.693-23.653 44.291-19.312 84.426-44.648 121.202-69.156l1.021-.574-.008-.124c10.521-7.523 17.16-20.988 16.236-33.157-.649-8.556-5.879-14.086-13.318-14.086-.479 0-.966.025-1.454.073 11.89-9.516 21.85-19.832 30.188-31.238 5.762-7.884 10.616-20.064 6.963-30.606-1.541-4.442-4.766-7.451-8.915-8.469a279.24 279.24 0 0 0 6.367-5.818c8.35-7.871 13.229-19.696 12.438-30.126-.537-7.082-5.277-14.608-12.999-14.608-1.485 0-3.019.293-4.554.871-2.336.88-4.696 1.763-7.074 2.649 8.18-5.747 14.248-16.083 15.637-26.83.651-5.044-.452-12.524-4.415-17.033-3.25-3.695-7.882-4.716-12.954-2.785-.607.231-1.223.465-1.838.697l.01-.335-1.345.834c-.991.37-1.992.742-3.001 1.112a387.657 387.657 0 0 0 20.072-17.095c6.506-5.938 11.091-14.933 12.271-24.061.694-5.39-.259-12.715-3.96-16.928-1.03-1.169-2.237-2.069-3.603-2.68a937.606 937.606 0 0 0 19.803-11.27c10.092-5.911 15.854-18.216 17.095-27.792.815-6.327-.837-12.889-4.205-16.726zM359.096 189.594c-9.163 8.837-18.238 17.756-27.452 26.526a139.792 139.792 0 0 1 8.8-11.872c2.136-2.582 4.607-5.26 7.277-7.925 5.305-4.411 10.974-8.401 16.877-12.011-.5.479-1.001.955-1.501 1.433a30.47 30.47 0 0 0-4.001 3.849zm-50.405 47.549c5.091-14.042 11.724-27.45 20.224-39.721 4.225-3.859 8.706-7.433 13.376-10.766-13.506 14.299-24.222 30.909-31.962 49.042-.546.482-1.088.966-1.638 1.445zm379.027-68.755c.649.541 1.298 1.083 1.938 1.635a3.042 3.042 0 0 0-1.192-.417c-.249-.406-.492-.815-.746-1.218zm12.614 148.325c.522 1.168 1.029 2.343 1.543 3.516-1.317.003-2.949.009-4.761.018a86.745 86.745 0 0 0 3.218-3.534zm16.79-115.299a13.206 13.206 0 0 0-.685 4.304c.024 2.157.119 4.3.277 6.432-6.728-14.735-15.967-28.372-25.877-41.071-.032-.04-.065-.069-.098-.109 9.969 8.747 18.868 18.847 26.383 30.444zm-424.271 18.484c.103-.723.237-1.44.372-2.157.21-1.122-.105.293.386-1.564 1.505-5.695 3.721-9.884 6.662-14.161 3.887-5.654 7.406-9.274 12.794-14.088 7.15-6.389 15.099-11.956 23.527-16.884a179.369 179.369 0 0 0-10.096 12.043c-13.396 11.275-25.153 24.325-33.918 39.523-.02.033-.037.066-.055.099.088-.939.195-1.877.328-2.811zm114.21 51.904l3.086-1.378.156.377c-1.084.333-2.168.663-3.242 1.001zm103.657-6.057c4.692 2.578 9.279 5.351 13.779 8.202a671.937 671.937 0 0 1 5.41 3.468c-6.763-2.975-13.095-6.041-18.97-9.314a22.896 22.896 0 0 0-.219-2.356zm18.705 153.458c9.712-7.345 18.792-14.886 27.354-22.714a312.607 312.607 0 0 0 16.028 3.311 2944.062 2944.062 0 0 0-43.382 19.403z"/></g><path fill="#AF543F" d="M487.165 650.337c10.727 1.733 21.031.744 31.466-2.121 5.463-1.501 10.622-3.928 15.561-6.655.358-.196.891-.552 1.514-.995.758-.266 1.516-.532 2.265-.815 7.441-2.813 12.265-5.924 15.108-11.872.489-.765.944-1.549 1.276-2.407 1.179-3.036 4.112-12.94-2.265-12.832-3.807.067-6.427 2.737-9.131 5.176-22.455 6.817-48.541 7.215-67.384-8.465-5.416-4.507-12.064 2.546-14.444 10.178a64.073 64.073 0 0 1-13.285-15.444c-2.063-3.353-7.038 4.995-5.878 7.612 8.438 18.993 23.936 35.207 45.197 38.64zm65.838 81.664c-17.193 9.516-37.097 13.224-56.615 12.571-19.462-.646-41.239-5.384-53.099-22.181-3.671-5.202-9.837 7.724-8.676 11.238 15.318 46.429 75.246 51.854 113.779 32.56 8.076-4.046 13.162-13.372 14.333-22.104.713-5.306-1.695-16.524-9.722-12.084z"/><path d="M442.804 606.346c16.363 13.013 33.117 21.873 53.946 24.88 17.651 2.548 41.601-.353 54.825-13.208 1.907-1.855 7.349-14.848.661-14.056-8.018.95-15.586 6.489-23.377 8.995-8.805 2.831-18.373 3.265-27.536 2.962-18.928-.627-38.794-7.423-55.808-15.391-2.248-1.052-4.509 4.386-2.711 5.818zM213.496 474.551c6.28-7.722 14.691-13.624 24.938-13.755 11.299-.142 13.801 9.877 18.08 18.078 1.952 3.744 6.261-4.538 6.419-5.922 1.436-12.597-4.912-25.144-18.877-25.392-13.68-.244-25.982 11.322-33.204 21.732-1.888 2.722-.96 9.69 2.644 5.259z"/><path d="M263.375 468.183c-8.144-.335-18.354-.418-24.117 6.398-5.699 6.741-4.577 16.945.311 23.833 2.095 2.952 5.525-4.376 4.9-6.343-.894-2.801-5.056-10.168-2.051-12.765 4.783-4.135 13.069-4.247 18.998-4.562 2.376-.125 4.891-6.441 1.959-6.561zm157.866 255.651c-7.451 23.623-6.077 48.993 11.773 67.579 15.928 16.585 39.803 23.296 62.223 23.025 23.516-.28 47.153-8.339 64.153-24.85 8.836-8.58 15.201-20.142 18.354-31.99 2.589-9.738 5.218-28.034-4.479-34.364-3.671-2.4-7.008 6.111-7.403 8.216-1.811 9.667-.412 20.536-3.086 29.322-.798 2.623-1.816 4.468-4.354 8.046-1.046 1.478-4.658 5.039-7.104 6.996-15.152 12.134-34.992 16.804-54.082 17.089-19.207.291-39.328-3.842-54.796-15.742-16.871-12.983-20.234-34.762-16.208-54.51 1.007-4.944-4.158-1.463-4.991 1.183z"/><path d="M422.527 720.535c-55.522.25-118.562.189-155.294 49.416-16.268 21.797-24.867 47.765-29.922 74.218-5.052 26.433-7.452 54.613-4.455 81.319.625 5.563 5.582-1.26 6.023-3.523 9.125-46.756 5.933-99.092 34.437-139.903 32.239-46.161 97.181-38.874 145.547-49.258 3.911-.837 9.436-12.296 3.664-12.269zm150.065 17.076c26.307-2.072 54.453-.779 79.456 8.299 22.517 8.177 39.704 24.068 53.872 42.918 15.104 20.094 24.002 43.288 32.394 66.734 8.541 23.86 15.438 48.602 20.285 73.468 1.47 7.536 11.617-5.165 10.886-10.016-8.021-52.992-17.33-106.362-50.271-150.37-14.515-19.393-35.287-34.317-58.302-41.742-29.408-9.484-59.126-4.108-87.403 6.513-1.071.403-2.821 4.345-.917 4.196z"/><path d="M276.616 868.613c10.264.904 22.263 4.708 26.785 14.896 4.168 9.396 3.968 21.31 3.754 31.391-.245 11.415-1.938 22.811-3.104 34.154-.878 8.54-4.008 22.42 1.317 29.869 5.55 7.765 13.761-9.604 14.307-13.203 1.581-10.421-.326-22.092-.042-32.728.329-12.096.716-24.234-.825-36.268-1.302-10.146-5.104-18.766-12.541-25.861-8.166-7.784-18.995-6.979-29.165-4.487-.654.163-1.487 2.15-.486 2.237zm37.516-485.836c10.604-10.237 24.942-14.349 38.953-17.589 14.469-3.347 29.924-3.871 44.512-1.025 18.548 3.617 30.415-38.657 14.577-38.24-39.562 1.042-79.97 13.229-102.476 48.032-2.999 4.634-2.576 15.586 4.434 8.822z"/><path fill="#D13E05" d="M683.855 858.797c.158-.316.288-.619.452-.937.758-1.468 1.646-7.737-1.938-6.002-.949.461-1.867.954-2.781 1.458a3.984 3.984 0 0 0-1.551-.266c-.779.055-1.557.11-2.336.168-4 .28-6.589 4.071-7.964 8.048-3.2 2.438-6.35 4.966-9.621 7.412-1.691 1.265-3.026 7.37.281 5.284 2.755-1.739 5.434-3.6 8.153-5.371.101 2.808.864 5.483 1.956 8.096-9.376 33.361 8.257 70.274 13.091 104.008 2.26 15.758 16.891-2.823 17.714-10.366 4.119-37.746 4.08-77.884-15.456-111.532zm-206.522-11.228c-20.41 1.057-40.119-9.582-54.563-23.251-6.785-6.419-12.411-13.985-17.296-21.911-4.969-8.064-7.04-18.208-12.747-25.669-.815-1.031-1.877-1.527-3.191-1.487-.702.099-1.353.26-1.974.453-.746-3.913-1.295-7.8-1.561-11.628-.455-6.55-6.838 2.064-6.971 5.237-.21 5.016.049 10.069.583 15.122-1.986 6.262-1.286 14.286.145 19.502 1.535 5.601 3.978 11.059 6.907 16.287 4.241 16.374 9.952 32.356 18.436 47.059 7.022 12.172 17.358 25.072 32.057 27.422 18.117 2.894 32.789-14.012 41.217-27.762 2.112-3.444 8.445-19.864-1.042-19.374z"/><path fill="#AF543F" d="M782.686 462.529c-1.355-12.709-3.273-25.34-5.604-37.898 1.537-22.111 1.912-44.174-1.579-66.151.158-.767.316-1.533.477-2.298.37-1.788-.271-3.887-1.711-4.694a175.557 175.557 0 0 0-2.836-12.124c-1.481-5.441-7.129-.313-9.028 3.046-.679-6.991-1.632-13.959-2.793-20.89-.202 1.401-.399 2.802-.611 4.2-4.928 32.509-12.422 64.753-23.098 95.88-.202 18.138-.222 36.278-.158 54.418a569.488 569.488 0 0 1-.871 11.998c-1.871 22.122-4.818 44.424-11.039 65.785-6.961 23.899-21.442 44.93-36.312 64.594-16.954 22.415-35.891 45.164-58.257 62.396-.385.295-.777.58-1.163.873-13.475 4.571-26.219 12.424-36.107 21.909a219.716 219.716 0 0 1-32.454 12.391c-21.48 6.312-44.19 8.86-66.468 6.129-3.907-.479-7.572 8.773-2.961 9.401 32.805 4.468 66.872-2.508 97.476-16.442.255 2.187 1.574 3.589 4.775 2.801 10.256-2.526 20.613-8.04 29.339-14.306.363.199.843.236 1.452.05.324 1.12 1.202 1.693 2.961 1.049 3.127-1.145 6.072-2.694 8.83-4.538.737.677 1.752.943 3.069.414 16.726-6.712 30.374-21.172 42.019-34.458 8.907-10.164 16.867-21.282 24.085-32.791 1.979.345 4.835-1.38 6.205-2.961 15.312-17.669 25.383-39.355 33.802-60.972 6.691-17.186 12.333-35.044 16.478-53.122-.024 6.488.145 12.966.601 19.429.313 4.402 4.467 4.442 7.159 1.925 21.095-19.731 17.093-49.037 14.322-75.043zm-67.312 145.955c1.121-3.563 2.464-7.061 3.808-10.459a207.509 207.509 0 0 1 3.416-8.099c2.069-3.177 4.051-6.432 5.912-9.832 2.202-4.024 4.39-8.061 6.546-12.112-5.241 13.772-11.442 27.992-19.682 40.502zm55.976-90.816c-.364-13.87.312-27.744 1.366-41.612a400.713 400.713 0 0 1 1.448 20.513c.328 7.456-.083 14.695-2.814 21.099z"/><path d="M386.604 765.684c-.207 23.845 10.108 45.17 27.49 61.259 15.749 14.576 45.533 27.469 66.968 20.864 3.147-.974 7.793-11.607 3.084-12.873-10.015-2.688-20.59-2.117-30.723-4.765-10.274-2.682-19.933-7.405-28.769-13.226-19.229-12.668-32.399-30.848-33.363-54.375-.17-4.126-4.667.887-4.687 3.116zm262.429 108.167c2.558 8.823 6.492 17.084 9.643 25.71 3.794 10.379 5.848 21.288 7.908 32.109 4.204 22.055 5.848 44.581 9.145 66.779.163 1.1.438 3.456 1.936 3.77.44.093.886.184 1.325.279 2.753.575 5-2.143 5.956-4.474 3.985-9.727.409-21.098-.851-31.268-1.556-12.564-3.632-25.064-6.108-37.481-2.447-12.255-5.873-24.235-10.724-35.762-3.58-8.513-8.106-17.899-17.438-20.864-.537-.173-.903.809-.792 1.202z"/><path d="M688.059 840.855c-14.479 5.301-27.017 13.805-36.811 25.765-1.634 1.993-3.181 5.008-2.35 7.669 1.062 3.406 4.479.307 5.59-1.222 8.423-11.601 19.773-19.952 32.722-25.913 1.978-.912 4.093-7.485.849-6.299zm77.435-522.873c-2.189-7.041-10.112 5.64-9.156 10.053 16.623 76.85 13.276 181.493-19.5 253.724-31.291 68.97-91.714 119.44-166.089 135.345-83.577 17.873-175.413-5.004-234.927-67.675-60.166-63.355-75.133-152.644-67.455-236.855-3.849-2.188-7.784-4.146-11.873-5.688a554.762 554.762 0 0 0-3.258 30.619c-6.51 83.832 12.102 171.21 70.631 234.279 58.371 62.903 148.354 86.807 231.708 73.116 77.439-12.723 141.788-62.188 180.416-129.644 47.227-82.472 57.663-206.748 29.503-297.274z"/><path d="M711.117 372.736c-8.781-15.68-23.053-28.956-39.856-35.547-16.364-6.42-34.969-9.167-52.477-9.66-16.942-.475-25.435 41.341-11.594 38.812 16.759-3.063 33.517-3.1 50.194.607 16.038 3.564 32.352 7.971 45.213 18.72 5.55 4.64 10.945-8.6 8.52-12.932z"/><path fill="#AF543F" d="M654.116 487.449a3.311 3.311 0 0 0-.363-1.004c-.05-.087-.104-.162-.156-.238-1.08-2.303-2.704-4.302-4.825-5.489-7.394-4.148-13.438 6.979-15.575 12.159-.538 1.303-1.175 5.089 1.385 4.484.995 2.508 3.448 4.34 6.448 5.61 6.791 2.876 13.01-.945 13.983-8.16.316-2.338-.01-4.959-.897-7.362zm-4.388 9.829c.152-.28.231-.399.255-.436.006.03.01.045.012.051-.016-.002-.078.039-.267.385zm.272-.951c-.025.3-.025.441-.018.509a1.143 1.143 0 0 1-.413.292c-.912.361-1.878.286-2.833.183-.773-.085-1.815-.299-2.892-.644.455-.258.88-.523 1.246-.706 1.111-.554 2.226-1.106 3.339-1.659.438.166.953.156 1.456-.046.004.03.012.061.016.089.119.74.137 1.566.099 1.982zm38.855-10.035a3.29 3.29 0 0 0-.364-1.003c-.049-.087-.103-.16-.156-.239-1.08-2.301-2.706-4.3-4.826-5.488-7.392-4.147-13.438 6.979-15.575 12.159-.536 1.305-1.173 5.089 1.387 4.484.995 2.509 3.447 4.339 6.448 5.611 6.791 2.874 13.01-.946 13.983-8.16.316-2.341-.01-4.961-.897-7.364zm-4.389 9.831c.152-.279.231-.4.256-.437.004.031.01.046.012.051-.016-.002-.08.038-.268.386zm.273-.952a2.965 2.965 0 0 0-.018.509c-.04.044-.187.202-.414.292-.913.361-1.877.287-2.832.182-.773-.084-1.818-.299-2.893-.643.455-.257.881-.523 1.245-.704a10303.3 10303.3 0 0 1 3.339-1.661c.438.166.953.156 1.458-.044.004.029.012.059.016.089.119.738.136 1.564.099 1.98zm38.567-8.879a3.29 3.29 0 0 0-.364-1.003c-.049-.087-.103-.16-.156-.239-1.08-2.301-2.704-4.3-4.826-5.488-7.393-4.147-13.438 6.979-15.573 12.159-.538 1.305-1.177 5.089 1.385 4.484.995 2.509 3.447 4.339 6.448 5.611 6.791 2.874 13.01-.946 13.983-8.16.316-2.341-.012-4.961-.897-7.364zm-4.39 9.831c.152-.279.231-.4.258-.437a.157.157 0 0 0 .01.051c-.016-.002-.078.038-.268.386zm.273-.952a3.213 3.213 0 0 0-.018.509c-.04.044-.187.202-.414.292-.912.361-1.877.287-2.832.182-.773-.084-1.816-.299-2.893-.643.455-.257.881-.523 1.244-.704l3.34-1.661c.438.166.955.156 1.457-.044.004.029.012.059.017.089.119.738.137 1.564.099 1.98zm-45.693 24.573a3.338 3.338 0 0 0-.364-1.002c-.052-.088-.103-.161-.156-.239-1.08-2.301-2.706-4.301-4.826-5.489-7.395-4.146-13.438 6.98-15.575 12.16-.539 1.304-1.176 5.089 1.386 4.484.995 2.509 3.448 4.338 6.449 5.61 6.79 2.874 13.01-.945 13.982-8.159.316-2.339-.01-4.961-.896-7.365zm-4.39 9.831c.15-.278.231-.399.255-.436.004.03.008.046.012.05-.016-.001-.078.04-.267.386zm.271-.951a3.106 3.106 0 0 0-.016.51 1.131 1.131 0 0 1-.413.292c-.914.36-1.877.286-2.833.182-.773-.084-1.815-.299-2.892-.643.453-.258.878-.523 1.244-.705l3.339-1.66c.439.166.953.156 1.458-.045.004.03.012.06.016.09.119.737.137 1.564.097 1.979zm41.01-10.034a3.302 3.302 0 0 0-.363-1.004c-.05-.087-.104-.16-.156-.238-1.08-2.302-2.707-4.301-4.827-5.489-7.394-4.147-13.437 6.979-15.575 12.159-.536 1.305-1.173 5.089 1.387 4.484.995 2.509 3.447 4.34 6.448 5.61 6.791 2.875 13.01-.944 13.983-8.16.316-2.339-.011-4.959-.897-7.362zm-4.389 9.83c.152-.279.23-.399.257-.437.002.03.008.045.01.052-.016-.002-.077.037-.267.385zm.273-.951a2.965 2.965 0 0 0-.018.509c-.04.044-.187.201-.413.293-.914.359-1.878.285-2.833.182-.773-.085-1.816-.299-2.892-.643.452-.259.878-.524 1.244-.706 1.113-.554 2.227-1.106 3.339-1.66.438.166.953.156 1.458-.045.004.03.012.061.016.09.118.738.137 1.564.099 1.98z"/><path fill="#08B5F9" d="M777.135 412.141l18.23-7.089c-.139-1.163-1.899-32.257-2.025-33.421-1.033-9.502-.649-44.129-1.014-53.677-1.102-28.973-5.362-43.058-7.089-89.124-1.483-39.606-23.007-58.512-49.483-90.226-3.8-4.549-9.131-4.2-13.831-1.995-7.499-8.428-17.059-15.466-25.526-21.416-16.805-11.807-35.703-19.601-55.357-25.245-22.609-6.492-45.769-10.798-69.163-13.18-47.57-4.843-97.46-2.147-143.328 11.987-21.284 6.559-42.288 16.106-60.177 29.48-5.633 4.213-11.17 8.577-16.301 13.263-14.022 10.34-25.695 23.397-32.177 40.184-3.968 10.278-4.615 21.929-1.278 32.455 3.084 9.726 10.286 16.867 18.175 22.859 9.19 6.982 20.362 11.25 31.293 14.622 15.985 4.932 32.856 7.939 49.432 10.051 32.695 4.164 65.728 5.225 98.659 4.51 30.886-.67 62.074-1.491 92.785-4.975 19.514-2.214 39.174-5.756 58.037-11.647.745 4.189 3.026 7.689 7.991 8.128 9.485.839 30.953-7.749 40.436-9.61-.607 16.907-17.14 44.679-12.181 60.784 12.113 39.351 24.267 116.322 29.999 134.571 1.818 5.784 6.862 9.998 10.853 14.558 10.774 12.312 26.604-8.396 29.063-17.924 5.947-23.05-.782-41.092 3.977-17.923z"/><path d="M381.723 406.914c-.332-.432-.68-.854-1.036-1.272-4.117-6.224-10.907-10.521-18.734-11.256-4.734-1.02-9.646-.918-14.264.661-3.766 1.288-7.489 3.672-9.843 6.919-10.52 7.646-12.478 22.419-4.243 33.46 10.308 13.821 29.509 14.602 42.93 5.16 11.585-8.15 13.724-22.549 5.19-33.672zm-46.823 6.934a24.87 24.87 0 0 0-.502 2.933 9.929 9.929 0 0 1 .502-2.933zm339.125-13.971c-.332-.431-.68-.854-1.036-1.271-4.116-6.224-10.907-10.522-18.736-11.256-4.731-1.02-9.643-.918-14.262.661-3.767 1.287-7.489 3.671-9.843 6.919-10.52 7.644-12.478 22.417-4.243 33.459 10.308 13.821 29.509 14.603 42.931 5.161 11.585-8.152 13.724-22.549 5.189-33.673zm-46.822 6.935a25.1 25.1 0 0 0-.503 2.932 9.96 9.96 0 0 1 .503-2.932z"/><path fill="#2F61DD" d="M319.533 253.958c-.079-2.224-1.474-3.526-3.195-3.608-2.767-13.281-12.782-25.259-20.631-35.625-5.416-7.153-11.145-14.137-17.478-20.501-3.743-3.759-8.484-8.896-14.229-8.643-13.11.574-21.586 13.469-26.324 24.269-6.775 15.446-9.777 32.454-12.037 49.072-2.229 16.408-3.356 32.952-4.233 49.479-1.456 27.479-4.473 54.961-1.432 82.455 1.227 11.102 2.971 27.162 12.185 34.932 10.834 9.137 24.115-2.632 31.483-10.644 4.164-4.528 8.025-9.334 11.643-14.339 14.974-16.109 24.661-37.331 31.408-57.9 9.293-28.332 13.908-59.128 12.84-88.947zm472.793 63.995c-1.102-28.973-5.362-43.058-7.089-89.124-1.163-31.082-14.671-49.417-33.229-71.196-13.507 10.514-28.694 18.959-44.362 25.722-28.338 12.23-58.55 19.809-88.97 24.677-28.677 4.589-57.719 6.933-86.753 7.368-17.344.26-34.607 2.131-51.955 2.671-20.25.631-40.651.341-60.747-2.462-18.443-2.572-37.338-7.021-53.546-16.539-14.468-8.495-26.847-22.694-33.667-38.029a74.031 74.031 0 0 1-2.655-6.9c-3.796 5.348-7.004 11.175-9.461 17.541-3.968 10.278-4.615 21.929-1.278 32.455 3.084 9.726 10.286 16.867 18.175 22.859 9.19 6.982 20.362 11.25 31.293 14.622 15.985 4.932 32.856 7.939 49.432 10.051 32.695 4.164 65.728 5.225 98.659 4.51 30.886-.67 62.074-1.491 92.785-4.975 19.514-2.214 39.174-5.756 58.037-11.647.745 4.189 3.026 7.689 7.991 8.128 9.485.839 30.953-7.749 40.436-9.61-.607 16.907-17.14 44.679-12.181 60.784 12.113 39.351 24.267 116.322 29.999 134.571 1.818 5.784 6.862 9.998 10.853 14.558 10.774 12.312 26.604-8.396 29.063-17.924 2.977-11.538 2.777-21.821 2.433-26.308.266 1.737.742 4.471 1.545 8.387l18.23-7.089c-.139-1.163-1.899-32.257-2.025-33.421-1.032-9.505-.649-44.132-1.013-53.68z"/><circle fill="#FFF" cx="363.829" cy="413.403" r="10.063"/><path fill="#2F61DD" d="M319.533 253.958c-.079-2.224-1.474-3.526-3.195-3.608-2.767-13.281-12.782-25.259-20.631-35.625-5.416-7.153-11.145-14.137-17.478-20.501-3.743-3.759-8.484-8.896-14.229-8.643-13.11.574-21.586 13.469-26.324 24.269-6.775 15.446-9.777 32.454-12.037 49.072-2.229 16.408-3.356 32.952-4.233 49.479-1.456 27.479-4.473 54.961-1.432 82.455 1.227 11.102 2.971 27.162 12.185 34.932 10.834 9.137 24.115-2.632 31.483-10.644 4.164-4.528 8.025-9.334 11.643-14.339 14.974-16.109 24.661-37.331 31.408-57.9 9.293-28.332 13.908-59.128 12.84-88.947z"/><path fill="#08B5F9" d="M256.214 392.604c-6.64-62.69-2.872-134.223 29.627-190.137a160.956 160.956 0 0 0-7.613-8.244c-3.743-3.759-8.484-8.896-14.229-8.643-13.11.574-21.586 13.469-26.324 24.269-6.775 15.446-9.777 32.454-12.037 49.072-2.229 16.408-3.356 32.952-4.233 49.479-1.456 27.479-4.473 54.961-1.432 82.455 1.227 11.102 2.971 27.162 12.185 34.932 9.143 7.709 20.026.534 27.63-6.71a476.54 476.54 0 0 1-3.574-26.473z"/><circle fill="#FFF" cx="640.41" cy="407.141" r="10.064"/><path d="M777.335 443.062c-.785-.894-1.933-1.13-3.1-.613-5.275 2.335-9.59 3.422-13.573 3.423-2.721 0-5.288-.54-7.638-1.606-4.847-2.196-8.874-6.967-12.313-14.586-6.053-13.402-7.987-28.608-9.861-43.313-.28-2.208-.562-4.406-.852-6.583-1.903-14.192-5.46-28.163-8.9-41.674-1.105-4.35-2.25-8.848-3.326-13.297-5.355-22.131-10.245-45.592-6.235-67.732 1.481-8.182 4.809-15.323 9.619-20.656 1.888-2.092 2.621-4.385 2.044-6.304.197-1.013.318-2.584-.501-3.617-.673-.846-1.772-1.096-3.09-.649-42.273 14.235-88.649 23.785-137.842 28.381-19.599 1.832-39.145 2.761-58.097 2.761-31.358.001-62.007-2.538-91.092-7.543-47.003-8.09-91.949-12.521-120.73-44.848.352-1.136.354-2.189-.004-3.026-13.858-32.425 20.736-57.426 52.421-75.585 37.728-21.621 75.191-36.196 111.346-43.317 23.519-4.631 46.79-6.98 69.166-6.98 31.171 0 60.421 4.548 86.94 13.518 55.214 18.676 102.355 45.459 120.143 79.605 7.841 15.052 26.766 47.077 28.951 61.416 2.905 19.073 4.363 38.459 5.501 55.133.442 6.462.897 12.92 1.356 19.375 2.226 31.422 4.528 74.042 4.814 106.147.015 1.732 1.221 2.988 2.867 2.988.621 0 1.248-.185 1.815-.535 1.896-1.169 3.086-3.47 3.107-6.007.131-14.82.185-42.194-.839-59.341-.459-7.676-1.072-15.468-1.665-23.004-.536-6.811-1.09-13.853-1.527-20.781l-.378-6.005c-1.703-27.204-3.463-55.333-8.294-82.662-2.027-11.478-20.874-38.917-26.591-51.038-4.397-9.328-20.723-25.639-28.548-34.5-13.639-15.446-31.821-21.819-55.592-34.068-19.066-9.827-40.755-17.942-64.46-24.119-16.792-4.375-36.275-6.503-59.562-6.503-5.968 0-12.227.132-19.138.406-27.896 1.104-55.149 5.225-81.005 12.25-18.725 5.085-36.782 12.951-52.237 19.925-25.379 11.451-51.883 24.744-73.771 44.306-10.413 9.306-33.423 33.946-23.205 62.407-1.153 2.101-1.199 4.596.441 6.115 32.674 30.26 55.813 40.299 108.361 49.491 27.432 4.798 77.125 7.229 107.75 7.229 19.951 0 40.905-1.032 62.276-3.069 45.369-4.322 88.625-13.001 128.624-25.806-7.119 12.29-9.941 28.17-8.628 48.428 1.353 20.841 6.695 41.435 11.862 61.351.498 1.923.999 3.844 1.491 5.762 3.147 12.219 4.99 24.762 6.771 36.892.66 4.501 1.345 9.157 2.088 13.759 2.368 14.659 5.317 32.903 16.525 44.496 4.571 4.728 10.369 7.125 17.234 7.125 4.924 0 10.205-1.229 15.698-3.651 2.358-1.041 4.035-3.335 4.378-5.99.145-1.069-.113-2.676-.995-3.681zm-450.5-200.899c-44.748-18.808-47.503-43.503-45.165-56.55.208-1.158-.079-2.376-.752-3.179-.702-.839-1.782-1.143-2.894-.807-1.64.497-2.633 1.781-3.216 2.95-2.969-3.358-6.856-5.602-10.888-6.241a12.945 12.945 0 0 0-2.02-.161c-10.711 0-19.025 13.553-23.505 20.86-14.035 22.876-15.646 52.417-17.071 78.479l-.176 3.235c-1.149 20.766-1.468 41.948-1.774 62.434-.157 10.481-.319 21.32-.592 31.956-.336 13.206.378 23.711 2.249 33.063 1.353 6.758 3.644 15.273 9.398 21.187 3.472 3.566 7.683 5.375 12.515 5.375h.004c11.402 0 23.759-9.906 32.063-17.358 12.762-11.451 19.798-27.204 25.911-42.357 7.297-18.092 13.488-38.663 18.922-62.886 3.61-16.087 7.839-37.304 8.51-58.759.063-1.936.079-3.944.053-6.137.755-2.429.159-4.377-1.572-5.104zm-6.347 9.126c.119 18.484-3.444 37.259-6.801 53.435-4.639 22.35-10.806 43.77-18.333 63.666-5.736 15.16-12.4 30.919-25.131 42.369-7.651 6.877-15.957 13.264-24.858 13.418l-.204.002c-6.674 0-10.61-5.708-12.739-10.497-6.54-14.721-5.693-32.891-4.945-48.92.077-1.696.156-3.373.226-5.022.518-12.458.663-25.125.803-37.375.158-13.629.319-27.723.995-41.561l.095-1.96c1.07-22.033 2.282-47.005 11.233-67.761 6.308-14.621 12.873-22.035 19.518-22.035.2 0 .399.007.601.021 3.824.261 7.363 4.193 9.232 7.482.67 1.18 1.828 1.652 3.066 1.237 1.445 29.98 32.899 47.192 47.242 53.501z"/><path fill="#FFF" d="M462.486 523.463a61.588 61.588 0 0 1 5.372-1.289 25.914 25.914 0 0 0 5.533 3.824.313.313 0 0 1-.03-.005c12.027 2.386 24.305 3.444 36.559 2.918 20.482-.878 38.687-9.434 57.391-16.688 2.2-4.722 4.029-9.633 5.57-14.594.497-1.594.727-5.592-1.988-5.465-44.771 2.095-90.299 5.038-134.792-1.923-3.113-.487-5.452 4.269-5.762 6.648-.716 5.47.083 10.658 1.889 15.511 9.708 4.538 19.855 8.284 30.258 11.063zm101.08-20.564c-.347.878-.704 1.75-1.078 2.617-.374-.805-1.059-1.351-2.197-1.353a835.804 835.804 0 0 1-19.837-.309c7.699-.33 15.403-.67 23.112-.955zM458.2 513.759a48.013 48.013 0 0 0-5.256 2.479 36.128 36.128 0 0 1-1.964-2.364 495.98 495.98 0 0 1 7.22-.115zm-15.807-11.319c-.145.04-.291.076-.432.128-.023-.063-.043-.126-.065-.19.166.023.331.042.497.062z"/><path d="M409.285 479.299c26.315 17.225 60.495 21.284 91.247 21.366 17.113.045 34.376-1.898 51.079-5.597 14.582-3.229 30.933-8.069 43.077-17.12 2.568-1.915 4.674-10.44-.586-7.713-12.966 6.724-25.721 11.954-40.015 15.294-16.575 3.873-33.562 5.319-50.549 5.583-30.223.469-64.139-3.228-90.778-18.635-2.743-1.587-6.158 5.065-3.475 6.822zm16.244 34.138c21.207 10.931 45.168 16.747 68.922 18.123 25.072 1.453 53.098-2.353 74.139-17.04 2.477-1.729 3.948-9.548-.525-6.939-21.806 12.715-45.98 16.954-71.029 15.77-23.322-1.103-47.015-6.479-68.158-16.484-2.789-1.321-6.081 5.161-3.349 6.57z"/><path fill="#F42A2A" d="M539.699 546.32c-6.652-5.383-17.419-7.867-23.807-.791-1.371 1.519-2.51 3.32-2.87 5.33-.392.127-.773.248-1.14.36-3.798 1.169-7.582 1.863-11.582 1.828-4.704-.042-9.111-1.947-13.54-3.296-9.994-3.043-19.156-1.205-28.742.48l-4.494-.939c-1.846-.386-3.521.658-4.757 2.314-1.28.101-2.573.071-3.855.021-2.771-.103-5.456 5.998-2.121 6.741 1.303.291 2.607.5 3.915.651.168 1.27.663 2.376 1.566 3.084 15.113 11.819 32.745 19.222 52.17 18.281 9.834-.475 24.619-1.355 32.771-8.636 1.254 2.278 3.9 2.256 6.232.068 7.864-7.372 8.89-18.506.254-25.496z"/><path d="M527.44 542.712c-10.624-.737-21.474 3.859-28.773 11.536-6.243-8.132-16.019-13.174-26.263-13.558-10.789-.402-20.725 4.986-28.494 12.04-2.097 1.904-1.757 7.357 1.578 4.538 7.311-6.179 16.151-10.031 25.832-9.503 9.639.527 17.088 6.061 23.806 12.47.281.269.574.419.866.485.6 1.002 1.869 1.204 3.378-.59 6.116-7.275 16.51-10.67 25.789-10.177a22.689 22.689 0 0 1 12.521 4.553c4.566 3.435 5.517 8.632 6.917 13.774 1.042 3.827 4.949-2.109 4.979-3.867.223-12.551-10.49-20.892-22.136-21.701z"/><path d="M564.608 517.161c-.17.263-.363.505-.546.757-.836-.45-1.948-.398-3.026.231-5.105 2.974-9.938 6.407-14.995 9.375-2.362.529-4.687.936-6.823 1.292-11.142 1.859-22.607 1.829-33.873 1.771-9.714-.049-19.842.25-29.812-.299.445-2.104.104-4.072-2.15-4.129-12.525-.315-23.855-9.275-36.483-7.499-.475.066-.94.28-1.387.581a55.036 55.036 0 0 1-7.083-5.445c-2.777-2.522-6.714 3.966-4.668 6.302a52.541 52.541 0 0 0 3.703 3.813c-.702 1.543-1.114 3.126-1.096 3.931.206 9.59 5.123 24.741 17.335 22.717 2.819-.466 5.327-1.706 7.92-2.847 3.459-1.523 6.963-2.295 10.741-2.434 7.09-.261 14.013 2.38 20.851 3.857 2.87.621 5.774.937 8.694 1.021-.526 2.891.344 5.35 3.879 3.595 4.255-2.113 9.376-4.083 14.801-5.491 2.158-.422 4.312-.885 6.452-1.362 13.617-2.193 27.759-.001 34.315 12.887 1.887 3.709 5.763-.496 6.433-2.947 3.549-12.945 9.997-24.926 11.896-38.328.535-3.764-3.293-4.136-5.078-1.349zm-12.576 28.159a16.287 16.287 0 0 0 3.908-1.617 321.55 321.55 0 0 0-1.612 4.223 28.989 28.989 0 0 0-2.296-2.606z"/><path d="M422.473 485.764c-2.182 22.903.304 46.355 11.868 66.602 9.012 15.777 24.048 27.659 41.496 32.675 17.7 5.087 38.074 2.967 54.882-4.287 16.692-7.204 29.305-20.644 36.966-36.979 4.091-8.725 6.645-18.052 8.355-27.509 1.874-10.36 3.191-22.008 1.821-32.488-.69-5.283-6.196.012-6.452 2.971-.996 11.495-.904 22.815-3.133 34.212-1.83 9.357-5.117 18.412-9.909 26.656-9.12 15.692-25.118 24.825-42.521 28.393-18.358 3.763-37.467 1.781-53.573-8.121-17.181-10.562-27.463-28.938-31.938-48.167-2.708-11.644-2.954-23.865-2-35.729.446-5.526-5.516-1.855-5.862 1.771z"/><path fill="#2F61DD" d="M613.623 97.064c-45.2-5.139-91.187-4.155-136.032 3.664-45.162 7.873-88.976 24.527-124.581 53.924-14.664 12.107-27.476 26.632-37.916 42.507-2.35 3.573-5.089 9.688-1.903 13.668 3.042 3.8 8.494-.038 10.437-2.993 51.618-78.481 153.704-95.447 240.831-95.424 14.658.004 29.356.404 43.999 1.066 6.777.306 13.283-15.489 5.165-16.412z"/><path fill="#2F61DD" d="M657.159 122.428c-39.845-2.54-80.124 2.05-119.342 8.828-44.42 7.678-88.956 19.154-130.007 38.071-19.316 8.902-39.16 19.491-54.254 34.757-3.007 3.042-5.545 8.121-4.036 12.475 1.516 4.375 5.952 2.757 8.565.555 29.778-25.105 68.831-40.473 106.875-51.667 43.276-12.735 87.906-20.542 132.782-24.749 18.021-1.689 36.182-2.633 54.276-1.946 6.836.259 13.103-15.816 5.141-16.324zm-252.213 111.13c38.503-21.923 83.109-32.64 126.232-41.121 44.841-8.819 90.18-14.511 135.369-21.16 7.681-1.129 13.073-20.204 2.417-18.582-45.771 6.967-91.747 12.798-137.068 22.403-44.108 9.347-88.99 21.626-127.974 44.952-3.312 1.982-5.542 6.486-5.252 10.31.274 3.63 3.232 4.931 6.276 3.198z"/></svg>