<svg xmlns="http://www.w3.org/2000/svg" xmlns:xlink="http://www.w3.org/1999/xlink" width="1030" height="1030" viewBox="0 0 1030 1030"><defs><path id="a" d="M1020.377 515.001c0 279.115-226.264 505.377-505.377 505.377-279.112 0-505.377-226.264-505.377-505.377S235.887 9.622 515 9.622s505.377 226.266 505.377 505.379z"/></defs><use xlink:href="#a" overflow="visible" fill="#FFBF1F"/><clipPath id="b"><use xlink:href="#a" overflow="visible"/></clipPath><g clip-path="url(#b)"><path fill="#FFBF1F" d="M1021.412 517.214c0 279.115-226.264 505.377-505.377 505.377S10.659 796.327 10.659 517.213c0-279.113 226.264-505.378 505.376-505.378 279.113 0 505.377 226.265 505.377 505.379z"/><path fill="#FC9E17" d="M64.591 301.339c65.698-60.767 147.472-101.363 226.167-142.394 40.814-21.281 80.746-43.73 120.539-66.854 43.205-25.11 87.469-49.598 136.054-62.561l-2.865-37.722C469.49 62.96 382.01 118.799 296.631 176.392c-43.968 29.658-87.434 59.996-129.215 92.682-20.033 15.672-39.121 32.311-60.043 46.828-21.764 15.1-44.41 28.884-66.553 43.409-20.462 13.421-40.42 27.7-58.93 43.736-7.092 6.145-11.695 17.171-10.986 26.521.548 7.209 5.93 13.974 13.85 11.2 98.166-34.394 184.33-95.652 268.734-154.941 42.163-29.617 84.25-59.421 128.115-86.495 19.996-12.341 40.241-24.097 59.857-37.073 21.043-13.919 41.816-28.239 62.964-42.001 37.358-24.313 76.479-48.122 120.034-59.315-2.24-11.117-4.479-22.232-6.717-33.351-3.625 4.497-11.99 11.267-18.963 15.919-10.002 6.67-20.648 12.364-31.156 18.178-23.029 12.742-45.092 27.219-67.552 40.936-51.307 31.332-102.535 62.797-153.854 94.112-51.11 31.188-102.326 62.211-153.79 92.816-45.841 27.263-92.239 53.613-137.737 81.449C-2.51 405.993-58.916 444.152-106.64 491.58c-6.829 6.784-11.733 16.688-10.986 26.521.56 7.365 5.898 13.78 13.849 11.198 51.945-16.859 99.75-43.608 147.504-69.638 50.274-27.404 102.162-51.78 153.586-76.934 106.723-52.204 213.544-104.201 320.025-156.899 43.588-21.572 87.41-42.348 128.738-68.076 36.969-23.018 73.674-48.996 115.463-62.538-.953-12.575-1.908-25.146-2.863-37.721-32.516 34.457-76.607 55.146-117.221 78.288-50.043 28.516-97.459 62.321-145.693 93.778-48.673 31.741-97.557 62.7-143.463 98.404-36.259 28.201-71.635 58.477-113.409 78.263C166.967 440.29 75.417 461.753 37.559 541.29c-3.076 6.463-5.363 14.316-2.909 21.401 1.745 5.04 7.497 9.095 12.933 6.589C147.668 523.179 241.1 464.948 335.032 407.693c46.52-28.354 93.289-56.325 141.23-82.228 49.123-26.541 100.222-49.029 149.865-74.543 51.182-26.305 101.262-54.686 151.102-83.427-.986-12.997-1.971-25.993-2.959-38.989-89.508 66.279-184.82 124.035-280.238 181.279-95.316 57.186-189.7 115.122-280.916 178.699C148.343 533.63 70.698 560.08 20.877 624.456c-8.81 11.384-11.101 42.221 10.985 31.382 208.226-102.161 408.941-218.58 611.71-330.955 81.105-44.949 162.598-89.213 245.031-131.684-.984-12.996-1.971-25.994-2.959-38.989C684.77 269.934 489.943 395.938 300.086 528.915 223.16 582.794 147.082 637.887 71.738 693.958c-9.188 6.835-16.062 17.88-15.16 29.76.736 9.699 9.592 15.234 18.119 9.229 43.635-30.724 91.015-55.527 138.017-80.599 48.866-26.063 96.421-53.966 143.454-83.206 97.824-60.818 193.597-125.836 295.82-179.224 79.943-41.755 155.398-91.653 236.615-131.035l-7.129-35.752C726.443 362.758 545.961 469.948 368.333 577.764c-93.444 56.721-186.838 113.71-276.603 176.167-9.318 6.484-16.043 18.146-15.161 29.758.8 10.539 9.317 14.158 18.12 9.23 202.516-113.372 408.093-221.234 609.107-337.292 82.611-47.694 164.387-96.848 244.783-148.196l-10.986-31.381c-4.994 7.511-10.375 14.716-16.096 21.688-5.041 6.146-10.836 12.267-18.377 19.708-14.123 13.939-29.658 26.809-45.09 38.273-35.396 26.297-73.57 48.73-112.08 70.107-37.449 20.789-75.582 40.312-113.115 60.945-42.607 23.422-83.6 49.658-124.551 75.827-65.341 41.753-130.41 84.796-198.977 121.15-60.085 31.858-124.11 59.163-173.204 107.688-6.839 6.762-11.731 16.707-10.986 26.521.621 8.164 5.796 12.766 13.852 11.199 27.105-5.268 51.926-18.041 75.643-31.76 24.855-14.379 49.684-28.809 74.538-43.191a10610.93 10610.93 0 0 0 152.231-89.772c49.53-29.772 100.037-57.95 150.666-85.822 50.375-27.729 102.133-51.93 153.664-77.322 67.275-33.148 131.117-72.729 197.158-108.185l-10.984-31.383c-5.504 7.192-9.137 10.836-17.041 18.057-7.752 7.076-15.979 13.312-24.516 19.367-18.809 13.338-38.715 25.094-58.619 36.699-43.184 25.18-85.117 51.793-126.223 80.276-91.951 63.715-180.73 131.845-272.466 195.851-62.605 43.68-127.018 85.396-195.643 119.062.985 12.998 1.973 25.994 2.959 38.99 48.336-27.512 98.725-51.109 148.232-76.383 25.086-12.807 49.888-26.168 74.098-40.572 24.189-14.391 46.895-30.896 69.81-47.201 23.252-16.545 46.578-32.993 70.564-48.466 23.51-15.167 48.084-28.535 72.547-42.078 48.807-27.02 97.926-53.479 146.338-81.21 61.396-35.17 121.518-72.686 178.057-115.307l-10.984-31.382c-59.98 69.826-146.119 119.632-225.496 166.939-91.051 54.269-181.008 110.706-269.408 169.204-41.197 27.26-81.385 55.869-121.205 85.092-39.393 28.914-78.959 57.732-121.233 82.348-9.595 5.584-15.991 18.82-15.16 29.758.841 11.066 9.201 13.475 18.119 9.23 100.961-48.053 196.104-107.057 291.245-165.518 47.797-29.369 95.674-58.625 144.387-86.46 47.674-27.237 96.566-52.016 145.607-76.669 75.025-37.713 150.205-76.055 218.391-125.428l-7.131-35.751c-33.611 33.213-76.09 55.599-117.895 76.72a4038.336 4038.336 0 0 0-133.637 70.689c-99.297 54.921-199.129 109.008-295.388 169.18-39.694 24.812-79.177 50.248-116.166 78.982-32.521 25.262-64.553 53.299-102.4 70.43-8.953 4.055-15.018 11.32-17.994 20.766-1.853 5.883-3.031 24.236 8.274 22.725 45.448-6.074 87.677-22.926 128.725-42.799 43.948-21.275 85.808-46.65 127.571-71.857 92.4-55.779 188.994-103.605 284.818-153.17 30.955-16.012 61.799-31.989 92.062-49.282l89.188-50.968c9.619-5.496 15.986-18.892 15.162-29.759-.805-10.575-9.309-14.111-18.121-9.229-104.188 57.711-206.854 118.117-308.768 179.746-51.145 30.93-102.086 62.188-152.945 93.584-44.668 27.572-85.542 60.625-129.553 89.188-21.202 13.756-43.261 26.518-67.015 35.328l-1.309 40.957C503.59 874.06 701.894 820.998 881.025 728.058c47.312-24.547 93.092-52.107 136.094-83.643 9.217-6.758 16.057-17.938 15.158-29.76-.758-9.986-9.484-14.867-18.117-9.229C824.266 729.44 638.676 860.724 439.864 970.419a2775.644 2775.644 0 0 1-59.695 31.969l7.133 35.752c73.349-58.309 162.89-92.967 248.279-129.312 44.957-19.137 89.818-38.742 132.914-61.836 22.314-11.959 44.492-24.162 66.002-37.533 23.461-14.584 46.566-29.75 71.246-42.24-4.764-8.674-9.529-17.348-14.291-26.021-3.254 5.631 2.838-4.268-.768 1.271-1.092 1.672-2.266 3.291-3.438 4.908-1.197 1.656-2.473 3.256-3.744 4.855-.225.285-4.666 5.496-1.592 2.025-6.42 7.246-13.555 13.844-20.877 20.158-14.346 12.365-31.18 23.664-48.141 34.455-35.631 22.666-73.1 42.25-109.025 64.42-39.857 24.594-76.527 54.361-114.17 82.133-42.477 31.334-86.009 61.828-133.525 85.104-8.502 4.166-17.229 7.842-26.042 11.295l2.864 37.721c61.737-53.27 143.857-80.49 220.312-108.334 80.787-29.42 162.883-61.467 226.773-120.973 7.467-6.955 14.516-14.354 21.266-22.004 7.164-8.117 13.979-19.857 10.072-31.133-3.469-10.01-15.477-8.066-21.377-1.381-114.229 129.438-307.648 132.047-443.065 231.178a405.328 405.328 0 0 0-25.288 20.133c-7.098 6.125-11.694 17.186-10.987 26.523.528 6.965 5.991 14.279 13.852 11.197 97.133-38.068 176.129-109.006 260.493-168.248 66.98-47.033 147.924-76.375 205.264-136.568 10.396-10.916 19.23-22.635 26.766-35.684 7.1-12.287 4.061-35.306-14.291-26.02-23.682 11.982-45.959 26.396-68.422 40.475-22.414 14.049-45.568 26.727-68.828 39.299-42.021 22.705-85.977 41.566-129.891 60.242-90.248 38.379-182.23 75.838-259.648 137.379-7.227 5.744-11.673 17.469-10.986 26.521.82 10.785 9.259 13.842 18.119 9.23C584.75 936.47 771.74 806.556 960.965 681.343a11034.884 11034.884 0 0 1 56.154-36.924c-.986-12.996-1.975-25.993-2.959-38.989-164.072 120.319-362.512 176.991-545.046 261.854-48.148 22.383-95.297 46.992-140.35 75.131-8.23 5.139-13.768 14.979-14.994 24.48-1.043 8.053 3.027 20.43 13.684 16.479 48.654-18.047 91.17-48.994 132.91-79.129 45.078-32.541 91.929-61.576 139.314-90.625 101.836-62.436 204.242-123.968 307.943-183.266a7351.688 7351.688 0 0 1 86.65-48.766c-.986-12.996-1.971-25.993-2.959-38.988-51.547 29.457-102.699 59.619-155.438 86.898-53.777 27.817-107.557 55.633-161.336 83.449-43.93 22.723-87.301 45.756-129.697 71.246-41.77 25.117-83.296 50.699-126.521 73.277-41.221 21.529-86.023 41.922-132.551 48.141l-9.721 43.49c47.463-21.482 85.909-55.805 127.18-86.811 44.621-33.523 92.951-62.742 140.677-91.576 96.971-58.587 197.004-111.868 295.91-167.064 73.6-41.076 157.643-70.725 218.6-130.964 6.844-6.76 11.734-16.708 10.988-26.521-.729-9.591-9.637-15.373-18.119-9.229-88.59 64.145-188.592 109.527-285.451 159.373-99.426 51.166-193.672 111.625-289.093 169.732-73.313 44.643-147.525 88.053-225.085 124.969.985 12.996 1.974 25.992 2.959 38.988 49.188-28.641 94.676-62.945 140.544-96.504 46.478-34 94.139-66.234 142.511-97.467 87.035-56.191 175.35-110.046 263.912-163.752C876.27 526.98 950.645 477.98 1008.007 411.2c5.668-6.597 9.145-18.316 6.219-26.761-2.553-7.37-11.105-9.217-17.203-4.62-89.629 67.563-188.064 121.632-286.24 175.511-49.328 27.073-98.404 53.916-144.787 85.881-23.352 16.091-46.289 32.776-69.5 49.068-23.092 16.205-47.428 30.418-72.158 43.965-61.565 33.727-125.932 62.055-186.961 96.791-9.623 5.477-15.984 18.906-15.161 29.76.834 10.973 9.22 13.596 18.12 9.23 98.893-48.512 189.041-113.174 277.8-177.872 89.326-65.108 177.656-132.874 271.783-191.008 55.475-34.265 120.369-62.552 160.975-115.647 5.389-7.048 9.266-17.969 6.219-26.763-2.842-8.196-10.652-8.139-17.203-4.62-49.322 26.479-97.434 55.121-146.604 81.871-49.906 27.152-102.031 49.65-152.42 75.84C537.59 565.519 438.344 626.223 337.974 685.06a11414.429 11414.429 0 0 1-97.149 56.283c-30.902 17.713-60.723 37.979-96.278 44.889l2.865 37.721c33.756-33.367 76.161-55.738 118.04-77.18 45.688-23.391 90.239-48.039 134.129-74.681 87.598-53.175 171.681-111.858 262.07-160.353 54.957-29.484 110.545-57.98 162.961-91.898 49.711-32.166 98.854-70.181 131.992-120.016 5.025-7.557 9.408-17.564 6.219-26.762-2.699-7.791-10.855-8.675-17.203-4.621-195.874 125.101-399.874 236.655-603.807 347.893-83.527 45.561-167.061 91.117-250.082 137.596l2.959 38.988c170.951-118.941 354.396-218.406 528.242-332.895 94.264-62.08 185.902-128.777 269.846-204.379 7.025-6.327 11.709-17.035 10.988-26.521-.836-11.01-9.213-13.55-18.121-9.23-51.248 24.849-100.295 53.832-149.523 82.396-49.637 28.8-100.664 55.019-150.33 83.749-99.658 57.645-195.21 122.086-293.781 181.536-72.495 43.724-150.875 77.517-220.271 126.384.986 12.996 1.974 25.992 2.959 38.988 185.014-137.684 374.572-269.338 569.66-392.373 80.434-50.727 161.85-99.902 244.246-147.373 9.607-5.535 15.988-18.861 15.162-29.76-.822-10.815-9.25-13.799-18.121-9.229-206.174 106.221-406.21 223.749-609.96 334.453-81.455 44.258-163.553 87.353-246.781 128.186 3.66 10.463 7.322 20.923 10.984 31.383 25.776-33.308 66.304-56.533 103.788-77.647 19.876-11.199 39.891-22.157 59.179-34.356 21.949-13.881 42.736-29.654 64.248-44.203 92.356-62.464 188.979-118.262 284.289-176.013 77.076-46.703 153.375-94.857 225.838-148.517 9.197-6.81 16.061-17.9 15.162-29.76-.793-10.436-9.346-14.29-18.121-9.229-48.865 28.18-97.98 55.93-148.08 81.867-49.613 25.688-100.764 48.179-150.024 74.562-96.332 51.593-187.564 112.021-281.983 166.92-45.946 26.715-92.727 52.251-141.019 74.497 3.339 9.33 6.681 18.662 10.022 27.99a171.36 171.36 0 0 1 2.938-5.881c.276-.53 3.927-6.72 1.067-2.127 2.278-3.657 4.848-7.124 7.494-10.519.166-.216 4.736-5.591 1.714-2.197 1.437-1.612 2.948-3.157 4.456-4.703 3.551-3.637 7.363-7.009 11.248-10.285 4.771-4.025 12.172-9.079 19.403-13.619 8.458-5.309 17.279-10.026 26.193-14.511 34.47-17.342 71.243-29.699 106.114-46.215 43.146-20.439 79.836-52.666 117.23-81.818 44.832-34.949 93.141-64.874 140.709-95.896 48.039-31.33 95.283-64.804 145.126-93.205 42.926-24.461 88.732-46.937 123.102-83.359 6.684-7.084 11.75-16.467 10.986-26.521-.559-7.366-5.898-13.776-13.852-11.199-49.908 16.174-93.238 47.806-137.598 74.86-48.916 29.833-102.049 53.269-153.392 78.592-106.678 52.613-213.652 104.618-320.471 156.94-43.396 21.257-86.617 42.541-129.028 65.714-40.358 22.048-80.935 43.731-124.823 57.979l2.863 37.722c72.181-71.732 163.499-120.634 250.486-171.761 103.368-60.754 205.49-123.592 307.752-186.184 31.838-19.49 63.289-39.892 95.544-58.647 28.137-16.359 57.43-30.229 78.301-56.136 6.781-8.413 13.281-38.49-6.715-33.35-47.431 12.187-90.469 38.451-131.14 64.921-21.107 13.74-41.836 28.054-62.841 41.949-19.62 12.977-39.934 24.667-59.937 37.012-88.903 54.875-170.568 120.623-260.035 174.661C76.087 360.719 34.5 382.364-9.665 397.84c.954 12.572 1.909 25.147 2.862 37.721 39.104-33.88 85.59-57.931 127.51-87.985 21.174-15.182 40.631-32.546 61.216-48.488 20.628-15.977 41.774-31.276 63.117-46.279 86.077-60.504 176.019-115.53 257.792-181.999 18.234-14.82 35.916-30.312 52.962-46.484 6.924-6.571 11.719-16.852 10.984-26.521-.584-7.715-5.842-13.337-13.85-11.199-49.302 13.154-94.82 37.832-138.794 63.142-40.958 23.574-81.776 46.956-123.684 68.825-82.873 43.245-167.969 86.252-237.164 150.254-7.749 7.166-13.725 20.591-10.07 31.133 3.688 10.637 15.029 7.252 21.375 1.379z"/></g><path fill="#D8724A" d="M408.471 702.196h-.001l-.003.006z"/><path fill="#FFE5B8" d="M780.283 350.734c-2.816-3.448-6.895-4.522-11.463-2.961-.566.193-1.135.39-1.699.582v-.104l-.361.229c-13.684 4.705-22.516 3.892-31.189 2.139 1.674-5.926 2.957-12.029 3.918-18.216.795-.026 1.623-.309 2.344-.787 3.111-2.064 4.846-6.231 4.766-10.07-.395-18.912-2.65-37.796-7.383-55.815-1.49-7.635-3.754-15.069-7.145-21.732-4.926-12.295-11.246-23.972-19.207-34.715-20.568-27.765-51.15-44.807-82.5-53.926-17.508-5.093-35.48-7.953-53.557-9.307-21.08-1.579-42.324-1.336-63.152 2.787a139.695 139.695 0 0 0-8.521 1.977c-28.577 1.11-56.901 7.118-82.801 20.717a136.497 136.497 0 0 0-7.126 4.03c-13.078 5.307-25.796 11.572-37.816 19.093-16.375 10.247-31.969 23.76-41.004 42.027-6.559 13.259-7.906 27.974-4.699 41.978-2.836 13.125-2.667 26.836.723 40.08-10.62 8.007-20.823 16.734-30.424 26.429-5.717 5.772-9.736 14.265-10.75 22.716-.459 3.824-.234 11.526 3.52 16.125 1.868 2.285 4.371 3.413 7.275 3.287 9.216-.45 18.707-1.658 28.717-3.664-8.032 4.278-15.311 8.735-22.014 13.47-7.938 5.607-13.658 15.646-14.926 26.204-.565 4.711.002 11.719 3.467 15.961 1.844 2.259 4.336 3.453 7.258 3.453 18.014-.081 36.896-1.726 57.379-5.014-23.348 10.82-47.589 22.685-71.096 36.92-8.845 5.355-13.92 17.053-15.025 26.27-.732 6.1.557 11.857 3.449 15.4 2.764 3.387 6.859 4.601 11.576 3.392 19.26-4.916 36.16-9.384 51.684-13.675a1630.82 1630.82 0 0 0-11.326 5.259l-.998.266-.032.236c-9.866 5.05-16.853 15.648-18.327 27.917-.73 6.107.553 11.881 3.463 15.441 2.77 3.393 6.836 4.593 11.543 3.349l2.021-.546c-.417.232-.924.464-1.34.697l-.386.055v.059c0 .586-1.917 1.17-2.966 1.754-8.387 4.672-13.75 16.765-14.897 26.3-.731 6.112.573 11.898 3.495 15.477 2.774 3.398 6.861 4.585 11.557 3.31a687.143 687.143 0 0 0 29.934-8.895c-7.174 7.514-13.459 23.562-11.014 33.629 1.609 6.625 6.75 9.735 14.367 8.556a376.083 376.083 0 0 0 21.271-3.925c-2.763 4.68-4.594 10.069-5.256 15.584-.546 4.541.104 11.422 3.731 15.863 2.826 3.461 6.901 4.508 11.441 2.885 3.243-1.162 6.491-2.32 9.74-3.47a39.716 39.716 0 0 0-6.896 17.967c-.746 6.225.4 11.554 3.234 15.022 2.699 3.307 6.799 4.621 11.673 3.771.646-.113 1.291-.261 1.936-.377l.124-.221c6.566-1.152 13.144-2.585 19.73-3.765-3.457 8.322-5.184 17.759-1.854 23.741.922 1.66 2.546 2.994 5.331 3.625 1.122.465 2.438.715 3.963.717h.047c5.178-.01 10.371-.088 15.574-.209 9.943.086 19.826.104 29.532-.531.588 5.447 3.123 10.551 7.254 12.516 11.728 5.57 24.872 8.396 39.069 8.396 30.234 0 60.902-12.752 81.342-22.346 38.867-18.242 74.086-42.178 106.357-65.33l.896-.542-.006-.117c9.232-7.106 15.059-19.826 14.248-31.322-.57-8.083-5.16-13.307-11.688-13.307-.422 0-.848.023-1.275.069 10.434-8.989 19.174-18.734 26.49-29.51 5.057-7.448 9.316-18.955 6.109-28.913-1.352-4.196-4.182-7.039-7.822-8a257.408 257.408 0 0 0 5.588-5.497c7.326-7.435 11.609-18.605 10.914-28.459-.473-6.689-4.633-13.8-11.408-13.8-1.305 0-2.648.276-3.996.822-2.049.831-4.121 1.666-6.207 2.503 7.178-5.43 12.504-15.192 13.723-25.345.57-4.766-.398-11.831-3.875-16.091-2.854-3.49-6.918-4.455-11.369-2.631-.533.219-1.072.438-1.611.658l.01-.316-1.182.788c-.871.35-1.748.701-2.633 1.051a348.42 348.42 0 0 0 17.613-16.149c5.707-5.609 9.732-14.106 10.77-22.729.609-5.092-.227-12.012-3.477-15.991-.902-1.104-1.963-1.955-3.16-2.531a811.286 811.286 0 0 0 17.377-10.646c8.855-5.584 13.914-17.208 15.002-26.254.72-5.974-.729-12.173-3.686-15.798zM398.6 224.245c-8.04 8.348-16.005 16.773-24.09 25.059a131.488 131.488 0 0 1 7.723-11.215c1.875-2.438 4.043-4.969 6.387-7.486 4.655-4.167 9.631-7.937 14.811-11.347-.439.452-.88.901-1.318 1.354a27.611 27.611 0 0 0-3.513 3.635zm-44.232 44.918c4.469-13.265 10.288-25.931 17.748-37.522 3.707-3.646 7.639-7.021 11.736-10.17-11.852 13.508-21.254 29.198-28.047 46.328-.48.454-.955.912-1.437 1.364zm332.611-64.95c.57.511 1.139 1.022 1.701 1.544a2.563 2.563 0 0 0-1.047-.394c-.219-.384-.432-.77-.654-1.15zm11.07 140.117c.457 1.104.902 2.214 1.354 3.322-1.156.003-2.588.008-4.178.017a80.642 80.642 0 0 0 2.824-3.339zm14.732-108.919a13.387 13.387 0 0 0-.6 4.066c.02 2.037.104 4.062.242 6.075-5.902-13.919-14.012-26.802-22.709-38.798-.027-.037-.057-.065-.084-.103a135.553 135.553 0 0 1 23.151 28.76zm-372.314 17.461c.09-.683.208-1.359.326-2.037.186-1.06-.092.277.339-1.478 1.32-5.38 3.265-9.337 5.845-13.377 3.412-5.342 6.5-8.762 11.228-13.309 6.274-6.036 13.251-11.295 20.647-15.95a166.895 166.895 0 0 0-8.861 11.378c-11.754 10.651-22.071 22.979-29.764 37.336-.016.03-.031.062-.049.093.078-.887.173-1.773.289-2.656zm100.223 49.032l2.709-1.302.137.356c-.952.315-1.903.628-2.846.946zm90.962-5.721c4.119 2.436 8.145 5.055 12.094 7.748a604.388 604.388 0 0 1 4.746 3.275c-5.934-2.81-11.49-5.706-16.646-8.798a22.723 22.723 0 0 0-.194-2.225z"/><path fill="#EAA286" d="M788.07 482.078c-1.279-12.006-3.092-23.938-5.293-35.801 1.451-20.888 1.807-41.73-1.492-62.491.15-.724.301-1.448.449-2.171.35-1.689-.254-3.672-1.615-4.435a166.422 166.422 0 0 0-2.68-11.452c-1.4-5.141-6.734-.297-8.529 2.877-1.584-16.329-4.689-32.544-8.705-48.339-8.648-34.01-22.598-67.204-41.996-96.504-.443-.67-1.039-.984-1.689-1.066-3.117-6.161-6.586-12.043-10.592-17.386-.012-15.267-14.232-26.256-26.299-33.771-9.922-6.18-20.791-11.374-31.949-15.46-8.893-8.232-18.561-15.561-29.357-21.254-24.055-12.686-52.5-13.422-78.908-9.74-23.589 3.287-46.244 10.128-68.557 18.096a276.727 276.727 0 0 0-47.878 18.057l-1.328.5c-.289.109-.57.305-.837.561-42.38 21.113-79.116 53.167-103.551 94.065-1.095 1.832-1.718 5.081-.257 6.904 1.985 2.479 5.023-.223 6.4-1.835a297.838 297.838 0 0 1 17.039-18.311 194.497 194.497 0 0 0-7.668 11.566c-15.97 26.072-26.403 56.035-27.293 86.743-.109 3.718 4.619.127 4.758-2.191 2.481-41.571 22.383-82.249 51.992-111.253 14.615-14.316 32.328-25.45 52.15-30.836 23.562-6.405 47.615-1.233 70.916 3.88 1.641.36 3.284.729 4.928 1.1.452.642 1.125 1.043 2.109.968.506-.038 1.013-.095 1.52-.143 17.031 3.902 34.195 8.162 51.492 10.865.422.266.939.464 1.576.577 1.867.331 3.758.473 5.664.456 15.143 1.949 30.385 2.508 45.723.388 17.234-2.383 33.814-8.208 51.104-10.23 8.752-1.023 17.549 6.01 26.188 7.732.822.164 1.625 3.238 2.426 3.445 7.795 10.043 15.068 10.908 21.521 21.702 25.531 42.707 35.785 91.869 40.855 140.806 1.674 16.163 2.953 32.325 3.703 48.496-.41 22.54-.461 45.084-.385 67.629a540.448 540.448 0 0 1-.82 11.334c-1.77 20.897-4.553 41.967-10.43 62.145-6.576 22.577-20.254 42.443-34.303 61.02-16.016 21.175-33.904 42.665-55.033 58.942-.363.279-.732.549-1.098.825-12.73 4.318-24.768 11.737-34.111 20.697a207.593 207.593 0 0 1-30.656 11.706c-20.293 5.963-41.748 8.369-62.791 5.789-3.689-.453-7.152 8.289-2.796 8.881 30.989 4.221 63.17-2.369 92.081-15.531.24 2.064 1.488 3.391 4.51 2.645 9.689-2.387 19.475-7.595 27.717-13.514.344.188.797.223 1.371.047.307 1.058 1.137 1.6 2.799.99 2.953-1.081 5.736-2.545 8.34-4.287.697.64 1.656.892 2.9.392 15.799-6.341 28.693-20.001 39.693-32.552 8.414-9.602 15.934-20.104 22.752-30.977 1.869.326 4.566-1.304 5.861-2.797 14.467-16.691 23.98-37.178 31.932-57.598 6.322-16.235 11.652-33.105 15.566-50.184-.021 6.129.137 12.249.568 18.354.295 4.159 4.219 4.197 6.762 1.818 19.928-18.638 16.149-46.322 13.531-70.889zM422.567 185.257c2.273-1.1 4.556-2.176 6.854-3.219.515.674 1.325 1.159 2.524 1.351.7.112 1.399.204 2.098.286-3.849.318-7.675.842-11.476 1.582zm127.212 16.378c-.508.185-1.045.528-1.582.979-.521-.082-1.041-.171-1.562-.256 1.123-.256 2.24-.522 3.357-.8l-.213.077zm40.571 1.784c-.158.501-.293 1.229-.348 2.019-2.791.189-5.6.277-8.412.274 3.07-1.609 6.008-3.266 8.754-4.817l1.408-.413a11.432 11.432 0 0 0-1.402 2.937zm-3.338-47.183c1.309.144 2.619.298 3.928.458a385.77 385.77 0 0 0-3.877-.096 5.95 5.95 0 0 0-.051-.362zm-44.153-14.053c1.658-3.406 2.451-7.549-.268-8.548 15.947-1.503 31.961-.994 47.932 2.579 10.021 2.243 19.334 6.355 27.988 11.66-24.861-5.311-50.322-7.079-75.652-5.691zm89.625 55.371c-1.559.35-3.113.707-4.67 1.066 5.32-2.451 10.646-4.841 16.119-6.665 7.51-.321 15.551-.233 23.127 1.172.09.107.184.215.273.322-11.706-.678-23.483 1.554-34.849 4.105zm91.998 422.403c1.061-3.366 2.328-6.669 3.598-9.88a195.74 195.74 0 0 1 3.229-7.65 141.954 141.954 0 0 0 5.582-9.288c2.082-3.802 4.146-7.614 6.186-11.441-4.952 13.008-10.809 26.442-18.595 38.259zm24.211-248.555a594.391 594.391 0 0 0-1.625-13.218A1421.39 1421.39 0 0 1 749.07 371a11.94 11.94 0 0 0-.377.402zm28.668 162.764c-.346-13.102.295-26.208 1.291-39.31a376.746 376.746 0 0 1 1.367 19.378c.311 7.044-.078 13.882-2.658 19.932z"/><g fill="#2F61DD"><path d="M827.799 325.302c-1.262-14.198 6.143-28.716 1.893-42.35-15.059-48.316-33.67-93.516-71.201-127.541-28.619-25.946-83.115-46.225-119.49-59.228-30.818-11.018-69.859-18.566-98.344 2.538-5.25 3.891-9.836 8.296-13.865 13.091-.064-.06-.125-.123-.189-.183-6.852-6.347-14.786-11.022-23.344-14.659-18.161-7.717-38.513-11.579-58.152-12.716-9.017-.521-17.856-.026-26.786 1.249-11.539 1.646-22.662 6.882-32.826 12.335-23.137 12.414-43.148 31.238-60.471 50.744-8.586 9.667-16.797 19.604-24.381 30.079-8.102 11.189-14.541 24.084-20.029 36.729-11.457 26.393-18.762 54.042-24.005 82.282-6.785 36.543-10.332 73.996-12.548 111.1-1.757 29.409-2.968 58.842-5.326 88.212-1.34 16.674-3.023 33.323-5.251 49.903a634.562 634.562 0 0 1-3.769 24.536 491.69 491.69 0 0 1-2.146 11.463 431.79 431.79 0 0 1-1.162 5.628l-.149.685c-.151.678-.343 1.534-.45 1.995-2.945 12.686-6.572 25.239-11.298 37.382l-.11.279a180.547 180.547 0 0 1-1.736 3.953 147.717 147.717 0 0 1-3.787 7.705c-.587 1.116-1.2 2.219-1.818 3.316-.18.315-.45.773-.735 1.249a100.021 100.021 0 0 1-4.077 5.85 83.693 83.693 0 0 1-2.133 2.693l-.049.06a66.31 66.31 0 0 1-5.095 4.894c-.176.152-.415.35-.669.555-.656.469-1.321.927-1.995 1.371-2.086 1.375-4.229 2.68-6.452 3.824a49.57 49.57 0 0 1-3.594 1.338c-2.221.744-4.504 1.285-6.805 1.71-.174.031-.309.058-.434.082l-.35.035c-1.344.144-2.695.212-4.045.257-2.83.094-5.664-.072-8.477-.37-6.051-.639-11.935 5.343-15 12.3-4.444 6.995-9.207 20.013-2.74 26.499 29.712 29.796 61.354 66.933 105.638 72.698 12.738 1.658 25.255-.801 36.601-6.629 11.505-5.908 20.688-15.93 29.91-24.773a170.02 170.02 0 0 1 6.359-5.793c1.047-.906 4.374-2.359.799-.416.143-.078 3.055-1.488 3.018-1.516 5.793-2.512 11.882-4.291 18.034-5.67 2.911-.652 5.856-1.148 8.802-1.615.102-.018 2.336-.322 2.848-.398 1.193-.15 2.389-.295 3.584-.436 7.502-.881 15.008-1.674 22.492-2.711 4.376-.605 8.75-1.256 13.1-2.025 6.625-1.174 12.274-8.956 15.055-14.412 3.468-6.805 6.229-17.5.9-24.202-14.713-18.503-30.822-16.701-46.009-34.81-7.703-9.185-15.216-37.682-22.247-47.396a288.415 288.415 0 0 1-9.654-14.252 244.084 244.084 0 0 1-4.469-7.348 211.616 211.616 0 0 1-2.134-3.735c-.274-.5-.457-.831-.569-1.033-.262-.499-.525-.997-.784-1.497a179.92 179.92 0 0 1-13.347-33.618c-.813-2.855-1.51-5.745-2.164-8.642-.064-.284-.119-.519-.165-.718l-.069-.376c-.275-1.477-.51-2.957-.722-4.443-.922-6.475-1.515-12.993-1.958-19.517-.9-13.253-.969-26.56-.633-39.832l.041-1.079c.061-1.651.135-3.301.209-4.951.149-3.315.336-6.63.531-9.943.43-7.214.981-14.421 1.587-21.621 2.239-26.626 5.542-53.145 8.309-79.717 1.13-10.854 2.103-21.646 4.263-32.354a147.4 147.4 0 0 1 2.734-9.789c.671-2.146 1.422-4.266 2.201-6.374a105.053 105.053 0 0 1 4.951-10.03c.664-1.051 1.717-2.722 2.27-3.515 1.361-1.952 2.809-3.841 4.299-5.697.3-.374.613-.736.922-1.104a109.513 109.513 0 0 1 4.062-4.117c1.487-1.441 3.034-2.819 4.599-4.177.789-.686 1.598-1.351 2.406-2.016.045-.037.082-.066.124-.103 7.391-5.536 15.411-10.195 23.646-14.35.816-.412 4.191-1.995 4.967-2.374a298.472 298.472 0 0 1 5.135-2.215c5.26-2.209 10.605-8.043 15.979-9.959 13.389-4.771 27.652-14.928 41.492-18.005 15.484-3.442 30.919.438 45.729-5.321 10.187-3.96 20.072-5.247 28.577-12.053 17.962 6.584 38.123 8.792 56.751 10.714 21.604 2.229 43.381 3.194 65.098 3.227 11.996 28.469 18.861 58.994 28.053 88.414 2.002 6.407 4.135 12.743 6.564 19a324.326 324.326 0 0 0 3.896 9.552 259.25 259.25 0 0 0 1.865 4.262c.859 1.928 1.775 3.64 2.836 5.54-2.549-4.569-.996-1.578-.506-.508a131.748 131.748 0 0 0 4.822 9.489c5.361 18.555 17.916 35.504 31.588 48.382 8.787 8.276 18.811 15.753 30.174 20.042 2.572.971 5.254 1.664 7.928 2.314-.342-.088.836.182 2.172.48-.418 5.839 1.873 10.863 8.631 12.584 17.375 4.422 41.729 5.731 52.785-7.283 11.439-13.471 6.682-42.228 8.941-59.329 2.254-17.073 2.066-34.645.543-51.775zM577.396 165.953c1.008-1.147 2.731-3.084 0 0zm210.262 212.533c-.256.898-.463 1.817-.703 2.72l.025-.012c-.244.717-.279.562.686-2.744a.233.233 0 0 0-.008.036z"/><path d="M754.723 430.626c.139.037.527.131 1.271.311-.422-.102-.848-.207-1.271-.311z"/></g><path fill="#FF617F" d="M770.008 923.56c-8.074-32.607-21.58-64-40.217-91.533a213.533 213.533 0 0 0-4.172-8.086c-.197-6.117-2.125-11.527-7.221-12.402-4.605-7.4-9.551-14.51-14.646-21.266-26.797-35.527-62.836-58.982-106.584-67.721-44.932-8.979-91.943-1.576-136.422 6.484-39.747 7.205-82.573 12-115.87 36.916-11.701 8.754-21.121 19.104-28.86 30.547-5.383 5.328-10.401 11.07-14.976 17.26-.91 1.23-1.79 2.473-2.652 3.725-9.521 11.635-18.691 23.58-28.209 35.043-6.079 7.316-11.057 22.535-4.31 30.961 2.011 2.512 4.332 3.574 6.743 3.678-1.203 8.711-1.85 17.521-2.016 26.338-1.857 3.32-2.842 7.143-2.163 10.123-3.028 5.385-3.969 12.455.419 15.426.928.629 1.863 1.242 2.799 1.857.829 3.723 3.182 4.525 5.846 3.732.402.248.809.494 1.213.74 1.516 3.109 4.279 5.158 8.79 5.141 10.822 6.049 22.052 11.348 33.56 16.02-.021.9-.016 1.809.055 2.73.619 8.148 5.907 13.18 14.086 11.389a171.205 171.205 0 0 0 14.494-3.863c19.375 6.094 39.211 10.799 58.953 14.658 43.615 8.525 88.959 12.666 133.349 13.906 54.307 1.518 140.014-4.232 180.91-47.979a573.484 573.484 0 0 0 37.688-15.346c6.852-3.074 11.26-11.017 9.413-18.478zm-47.293-18.981a93.184 93.184 0 0 0 6.074-9.73c.293 2.609.471 5.225.523 7.834-2.207.605-4.406 1.24-6.597 1.896zM328.01 936.167c9.836-5.307 19.258-11.439 28.247-17.559 1.379-.939 2.737-1.906 4.105-2.861-8.923 7.227-17.373 14.941-25.138 23.324a198.086 198.086 0 0 1-7.214-2.904zm212.957-179.699c-10.055 4.518-19.861 9.629-29.474 15.045 3.906-4.41 6.939-9.514 8.55-15.156 6.982-.108 13.961-.096 20.924.111zm73.605 12.523c-10.758 6.684-21.674 13.102-32.631 19.445 3.934-7.227 7.279-14.826 9.873-22.867a26.18 26.18 0 0 0 .766-3c7.404 1.698 14.74 3.811 21.992 6.422zM297.975 887.212c2.006-.934 3.99-1.902 5.967-2.891a195.92 195.92 0 0 0-7.734 10.369 1364.9 1364.9 0 0 1 1.639-7.42l.128-.058zm121.916-16.197c21.759-16.17 45.392-29.861 68.366-44.211 14.446-9.025 29.116-17.76 44.409-25.096a329.236 329.236 0 0 1-4.066 3.594c-9.414 8.172-16.902 13.504-28.146 21.201-11.896 8.143-24.152 15.754-36.461 23.256-25.482 15.523-52.898 30.279-78.338 47.41 11.416-8.715 22.715-17.592 34.236-26.154zm114.236-11.51c-15.752 10.668-31.945 20.639-48.228 30.463 20.947-15.795 42.572-29.451 65.386-42.432-5.617 4.057-11.336 8.026-17.158 11.969zm-61.947 90.683c-4.216 2.9-7.882 6.898-10.577 11.473-4.383-.287-8.763-.6-13.141-.949a5526.25 5526.25 0 0 0 23.718-10.524zm238.242-89.834a162.097 162.097 0 0 0 5.498-8.211 242.732 242.732 0 0 1 1.891 4.318 351.835 351.835 0 0 0-7.389 3.893zm-44.149-28.333a485.052 485.052 0 0 0 11.189-13.508c1.779-2.229 3.371-4.902 4.623-7.797a215.582 215.582 0 0 1 9.564 9.561 418.897 418.897 0 0 0-25.376 11.744zm-7.88-40.45c-7.346 4.918-14.283 10.363-21.061 16.014 4.68-6.867 8.945-14.014 12.719-21.463a194.854 194.854 0 0 1 8.342 5.449zM528.988 958.71a187.004 187.004 0 0 0-5.447 5.703 560.552 560.552 0 0 1-3.443-.1 893.159 893.159 0 0 0 8.89-5.603z"/><path fill="#FFE5B8" d="M581.711 715.746a42.105 42.105 0 0 0-2.543-1.068c-1.285-4.347-3.102-8.686-5.467-13.03-5.543-10.187-19.896 1.719-23.645 6.781a41.464 41.464 0 0 0-2.16 3.236c-8.246.824-16.361 2.524-23.574 4.313-16.019 3.976-32.887 13.89-40.758 28.298a69.21 69.21 0 0 0-.701-.75c-1.464-1.551-2.7-3.289-3.854-5.074.752 1.102-1.048-2.133-1.195-2.48-.621-1.463-1.066-2.99-1.515-4.512a73.556 73.556 0 0 0-.192-.637 29.793 29.793 0 0 0-.155-1.273c-.247-1.785-.305-3.592-.368-5.391a74.11 74.11 0 0 0-.021-.562c.055-.33.125-.908.211-1.855.195-2.113.574-4.206.947-6.293 1.57-8.811-3.336-19.974-13.92-16.758-11.294 3.43-45.381 35.041-47.293 45.764-3.279 18.387 2.908 56.402 14.352 71.762 9.456 12.689 53.668 47.408 68.893 48.799 14.546 1.33 87.363-14.039 100.466-20.094 2.027-.605 33.477-59.447 35.404-60.281 0 0-10.355-48.799-26.793-45.928 4.354-5.613-26.951 11.402-23.988 5.072 3.394-7.259 8.056-23.321-2.131-28.039z"/><path fill="#EAA286" d="M571.096 736.64c-16.24 8.99-35.043 12.492-53.48 11.877-18.385-.611-38.958-5.086-50.162-20.955-3.469-4.914-9.293 7.297-8.195 10.617 14.47 43.859 71.082 48.984 107.482 30.758 7.631-3.822 12.436-12.633 13.541-20.881.671-5.012-1.602-15.612-9.186-11.416z"/><path d="M447.84 725.81c-52.449.236-112.002.178-146.701 46.682-15.367 20.59-23.492 45.121-28.268 70.109-4.773 24.971-7.039 51.592-4.207 76.82.59 5.256 5.271-1.189 5.689-3.328 8.62-44.168 5.604-93.609 32.531-132.162 30.453-43.605 91.803-36.723 137.492-46.531 3.699-.792 8.916-11.616 3.464-11.59zm141.762 16.13c24.852-1.959 51.439-.736 75.059 7.84 21.271 7.725 37.508 22.736 50.893 40.543 14.266 18.98 22.674 40.893 30.6 63.041 8.07 22.541 14.586 45.912 19.164 69.402 1.387 7.121 10.975-4.879 10.281-9.461-7.576-50.061-16.369-100.477-47.488-142.049-13.711-18.32-33.334-32.42-55.076-39.434-27.779-8.959-55.855-3.881-82.566 6.152-1.012.384-2.666 4.107-.867 3.966z"/><path d="M310.003 865.694c9.696.854 21.032 4.447 25.304 14.07 3.937 8.877 3.747 20.131 3.547 29.654-.232 10.783-1.832 21.549-2.933 32.264-.829 8.068-3.786 21.18 1.245 28.217 5.242 7.334 12.998-9.072 13.516-12.473 1.492-9.844-.31-20.869-.039-30.916.309-11.428.676-22.895-.781-34.262-1.229-9.584-4.82-17.727-11.846-24.43-7.713-7.354-17.943-6.592-27.551-4.24-.621.155-1.407 2.034-.462 2.116zm351.809 4.948c2.416 8.334 6.133 16.139 9.109 24.287 3.584 9.805 5.523 20.109 7.471 30.332 3.971 20.834 5.525 42.115 8.639 63.086.154 1.037.414 3.264 1.828 3.561.416.088.836.174 1.252.264 2.602.543 4.723-2.025 5.627-4.227 3.766-9.188.385-19.93-.805-29.537-1.469-11.869-3.43-23.678-5.77-35.408-2.311-11.576-5.549-22.895-10.129-33.783-3.383-8.041-7.66-16.908-16.475-19.709-.504-.165-.852.763-.747 1.134z"/><path fill="#2F61DD" d="M887.879 706.232c-2.455-7.086-8.758-6.427-14.326-3.849 3.393-1.57-.32.032-.879.25-1.117.436-2.262.802-3.404 1.169-2.285.732-4.629 1.26-6.979 1.722-.225.044-1.609.233-2.164.317-.879.084-1.758.151-2.639.21-2.822.187-5.605.066-8.424-.131-2.43-.171-4.844-.518-7.246-.916-1.211-.201-2.414-.457-3.615-.713-.184-.038-1.748-.447-2.248-.57-4.885-1.415-9.578-3.379-14.236-5.404-4.588-1.995-8.969-4.441-13.182-7.132-2.094-1.338-4.104-2.799-6.082-4.3a59.42 59.42 0 0 0-.625-.469c-.111-.095-.223-.189-.367-.314-1.244-1.056-2.436-2.171-3.617-3.294a72.7 72.7 0 0 1-3.615-3.731 257.047 257.047 0 0 0-.627-5.661c-.922-7.509-2.154-15.155-3.902-22.684.318-3.245.654-6.489.996-9.732 2.932-27.913 6.369-56.271 2.262-84.244-.559-3.809-1.883-7.79-4.934-9.81a48.81 48.81 0 0 0-1.523-3.01c-3.635-6.553-10.822-9.306-17.662-10.885-5.328-1.23-11.551 5.149-14.236 8.78-4.203 5.679-6.215 12.179-6.182 19.188.008.731.004 1.462-.004 2.192-.104 2.135-.303 4.264-.529 6.389-.062.441-.105.767-.129.991-.168.672-.332 1.344-.514 2.009-.596 2.197-1.285 4.369-1.994 6.531a260.845 260.845 0 0 1-4.355 12.21c-.398.911-.795 1.821-1.205 2.726-.957 2.12-1.986 4.206-3.033 6.283-1.916 3.801-4.074 7.459-6.148 11.173-.33.539-.654 1.084-.979 1.628l-.078.122a213.841 213.841 0 0 1-3.979 5.995c-5.504 8.058-11.605 15.744-17.852 23.234-.627.752-1.271 1.486-1.908 2.228-.582.634-3.061 3.427-3.771 4.195-3.354 3.63-6.82 7.152-10.344 10.618-6.936 6.824-14.219 13.289-21.725 19.476-3.688 3.042-7.248 6.235-10.943 9.272l-.51.414c1.695-1.392-3.473 2.726-4.941 4.038-1.729 1.542-3.578 2.969-5.379 4.426a392.278 392.278 0 0 1-2.497 1.992 319.197 319.197 0 0 1-5.42 4.049 283.286 283.286 0 0 1-10.652 7.421c-6.949 4.628-11.697 12.57-12.766 20.842-.826 6.383 2.658 18.006 11.65 14.031 6.314-2.791 12.539-5.76 18.633-8.953 1.469 1.291 3.426 2.23 5.953 2.695 1.195.221 2.381.461 3.566.723l.201.043c.195.062.482.15.898.273 2.295.674 4.537 1.514 6.756 2.4 4.826 1.928 9.416 4.414 13.85 7.107 4.166 2.533 8.135 5.385 12.01 8.334.98.746 1.945 1.512 2.908 2.277.162.129 1.201.977 1.688 1.371a340.917 340.917 0 0 1 5.924 5.08c15.426 13.482 30.105 28.646 48.178 38.639 18.203 10.064 40.822 10.781 59.73 2.615 22.389-9.67 39.818-28.27 53.969-47.648 4.711-6.453 8.961-13.217 13.135-20.025a350.605 350.605 0 0 0 4.762-8.016c.344-.59.541-.932.592-1.033a164.02 164.02 0 0 0 1.662-2.775 353.75 353.75 0 0 0 2.623-4.557c2.851-5.025 4.364-12.215 2.423-17.822zm-158.815-39.234c.25-.297.494-.601.742-.899a488.924 488.924 0 0 0-1.869 3.963 9.872 9.872 0 0 0-1.027-.555c.717-.838 1.444-1.664 2.154-2.509z"/><path d="M698.678 839.472c-13.678 5.008-25.521 13.041-34.771 24.338-1.543 1.885-3.006 4.732-2.221 7.246 1.004 3.217 4.23.289 5.281-1.154 7.957-10.959 18.678-18.848 30.91-24.479 1.869-.861 3.867-7.072.801-5.951z"/><path fill="#2DB5F9" d="M888.078 705.579c-1.059-3.053-4.553-2.309-6.365-.412a66.853 66.853 0 0 1-3.006 2.953c-.895-1.303-2.592-1.575-4.328-.579-8.748 5.016-20.01 11.277-31.498 14.749a44.49 44.49 0 0 1-10.582-1.918c-16.924-5.198-30.623-19.002-38.393-34.584-3.197-6.413-5.273-13.215-6.523-20.205-.498-4.824-.852-9.662-1.146-14.475a437.744 437.744 0 0 1-.387-7.591c.176-7.838.988-15.659 2.068-23.205 3.342-23.377 9.867-46.131 11.66-69.745.508-6.701-4.59-5.714-7.758-2.385.604-4.298-4.645-3.001-6.027.944a1374.67 1374.67 0 0 1-4.166 11.664c-2.045-4.062-8.516 2.895-9.107 5.476-2.715 11.81-4.131 23.708-4.785 35.656-8.697 30.143-12.771 61.253.064 90.633 6.768 15.49 18.379 28.895 32.467 37.473 4.654 3.748 10.174 6.365 16.611 7.416 13.021 3.846 27.152 3.621 41.023-2.273 10.619-4.516 19.514-11.797 27.18-20.324 2.149-2.392 4.152-5.93 2.998-9.268zM779.014 684.62c.197 1.151.402 2.301.625 3.443a80.707 80.707 0 0 1-1.117-2.139c.189-.424.353-.86.492-1.304z"/><path fill="#FF8A0B" d="M412.28 799.133c.252-.007.49.012.734.074l-.675-.176c.222.07.415.167.598.312l-.535-.44c.167.148.299.314.409.509l-.347-.646c.1.195.172.398.218.613l-.159-.801c.018.092.034.185.039.278.034.716.348 1.521 1.024 1.865.69.352 1.495.112 2.111-.268.854-.526 1.511-1.359 1.961-2.243.487-.956.632-1.853.663-2.905.018-.608-.133-1.27-.379-1.824-.601-1.355-1.661-2.161-3.166-2.276-.844-.064-1.686.491-2.265 1.038-.8.756-1.39 1.753-1.719 2.8-.278.883-.404 1.906-.093 2.803.228.662.817 1.306 1.581 1.287z"/><path d="M723.607 796.839c15.662 15.211 34.898 24.88 57.001 25.056 20.356.162 40.024-7.924 56.355-19.657 35.283-25.351 60.031-69.764 56.416-113.84-.356-4.348-4.006-6.251-7.744-3.945-4.138 2.552-6.733 7.916-6.48 12.719 1.861 35.317-16.926 68.869-45.493 89.247-14.123 10.074-30.967 16.655-48.418 17.046-19.062.427-37.61-7.391-52.07-19.539-5.855-4.92-14.151 8.462-9.567 12.913z"/><path d="M885.691 685.187c-7.487 5.567-15.292 10.617-23.678 14.726-4.597 2.253-12.875 4.996-17.061 5.478-2.577.297-5.189.281-7.771.06-3.462-.297-3.546-.394-6.298-1.438-2.133-.81-4.131-1.939-6.01-3.223-.474-.323-.928-.673-1.382-1.021 1.311 1.007-.192-.18-.379-.347-1.03-.914-1.979-1.917-2.896-2.943-4.074-4.563-5.676-7.805-7.741-12.613-2.465-5.739-4.144-11.803-5.466-17.896-.561-2.579.297 1.618-.208-.999-.154-.804-.295-1.609-.437-2.415a158.73 158.73 0 0 1-.771-4.938c-.53-3.697-.914-7.414-1.227-11.136-.628-7.49-.888-15.001-.878-22.517.02-14.442 1.433-31.385 3.8-47.433a316.383 316.383 0 0 1 4-21.819c-.619 2.812.551-2.272.766-3.148a202.69 202.69 0 0 1 3.811-13.457c1.104-3.474 1.332-10.371-3.864-10.615-5.206-.245-8.902 5.773-10.341 9.961-8.999 26.195-12.443 55.079-13.567 82.628-1.15 28.2-.421 59.381 13.374 84.773 6.535 12.03 17.931 20.502 31.905 20.793 20.689.43 40.021-14.07 55.097-26.526 2.794-2.308 4.555-6.755 4.283-10.334-.28-3.701-3.772-6.047-7.061-3.601z"/><path fill="#2DB5F9" d="M821.568 291.848c-3.945-19.016-10.168-37.446-18.379-54.935-4.053-13.63-9.584-26.784-16.963-39.034-10.053-16.692-23.127-31.583-37.02-45.164-23.078-22.561-49.902-42.119-79.375-55.432-22.574-10.197-48.469-16.838-73.17-12.499a115.339 115.339 0 0 0-13.197-.271c-14.195.549-28.215 5.849-38.951 15.076-11.516 9.896-18.793 24.547-22.373 39.077-1.207 4.895 3.824 4.028 4.889.226 2.178-7.781 5.26-15.036 9.91-21.664 1.752-2.501 4.322-4.629 6.674-6.539 1.057-.856 2.23-1.588 3.377-2.312.641-.406 1.303-.779 1.965-1.152.336-.189 2.713-1.116 1.562-1.021 2.914-.24 6.312-2.445 9.199-3.301a53.618 53.618 0 0 1 9.541-1.881c7.082-.753 14.428-.557 21.512.116 21.646 2.056 42.744 9.292 62.699 18.654 16.098 8.381 31.33 18.508 45.418 29.192 35.086 26.607 67.166 61.041 87.143 100.559 8.604 17.017 13.928 35.492 16.637 54.42-9.207-1.897-17.992-5.444-26.252-10.602-14.078-8.792-25.367-21.436-35.551-34.369-20.824-26.446-37.008-57.021-62.129-79.874-2.385-2.171-5.941 3.558-4.027 5.438 24.852 24.406 40.979 56.28 62.012 83.757 17.354 22.67 39.254 42.537 67.277 47.177.289 3.287.502 6.581.646 9.88a389.581 389.581 0 0 1-1.887 31.19 102.32 102.32 0 0 1-7.65-2.584c-7.975-3.023-15.4-7.359-22.303-12.337-14.832-10.693-26.885-24.996-37.717-39.584-22.705-30.571-39.641-65.207-63.697-94.795-4.809-5.915-9.971-11.547-15.578-16.713-2.418-2.227-6.057 3.626-4.107 5.544 26.318 25.882 43.188 60.492 62.564 91.471 18.883 30.194 41.107 63.234 75.01 77.853 3.488 1.504 7.654 3.143 11.949 4.307a451.175 451.175 0 0 1-3.102 19.985c-2.816 7.661-7.205 14.322-14.316 17.367a25.76 25.76 0 0 1-1.166.456 416.673 416.673 0 0 1-37.471-18.833c-1.1-.624-2.197-1.259-3.293-1.895a153.255 153.255 0 0 1-24.275-24.39c-21.477-27.032-34.969-59.498-48.516-90.944-9.406-21.833-18.984-43.68-30.941-64.065-7.23-15.53-16.85-29.755-30.219-41.057-3.625-3.064-8.713 5.17-5.939 8.019 6.068 6.228 11.537 12.913 16.535 19.93 7.234 11.802 12.18 25.106 16.297 38.381 6.748 21.756 10.188 44.51 16.473 66.427 6.131 21.368 17.457 42.055 30.176 60.211 11.332 16.177 25.254 30.217 40.891 42.24 24.748 19.029 53.645 31.953 82.434 43.551 4.494 1.81 8.535-3.893 9.602-7.532 13.903-47.503 17.258-97.124 7.172-145.725zM799.785 414.63l-.486-.188c.238-.324.453-.665.648-1.011-.054.399-.105.799-.162 1.199zm13.709-31.127a2.47 2.47 0 0 0-1.217.064c-.811.247-1.516.73-2.117 1.34.371-4.141.775-8.275 1.275-12.401.084-.407.172-.813.25-1.222a23.206 23.206 0 0 0 2.764-.189c-.222 4.14-.549 8.278-.955 12.408zm.088-24.784c.488-4.375.818-8.759 1.047-13.114.178 4.438.244 8.882.201 13.327a40.63 40.63 0 0 0-1.248-.213zm-19.672 51.957c-.049.213-.092.427-.141.639-.059.26-.115.559-.162.876-.295-.119-.588-.246-.881-.366.401-.375.795-.757 1.184-1.149zM660.957 283.601a491.276 491.276 0 0 1-2.938-11.152c9.506 23.321 18.502 46.972 30.346 69.182-5.559-8.296-10.531-16.994-14.965-25.935-5.16-10.408-9.328-20.912-12.443-32.095z"/><path d="M522.661 138c-.261 1.176.57-2.291.74-2.948.356-1.376.749-2.743 1.156-4.106a104.276 104.276 0 0 1 2.964-8.503c-.824 2.085.721-1.635.987-2.222a87.48 87.48 0 0 1 1.733-3.567 83.706 83.706 0 0 1 1.87-3.434c.32-.56.654-1.113.987-1.665-1.327 2.197.212-.281.488-.698a70.45 70.45 0 0 1 4.513-6.03c.267-.322 1.688-1.918.165-.215a63.158 63.158 0 0 1 4.333-4.359 60.538 60.538 0 0 1 2.79-2.397c1.612-1.315-1.342 1.001.319-.245.49-.368.994-.716 1.493-1.073 2.173-1.556 4.517-2.892 6.889-4.116.557-.287 1.123-.557 1.688-.827-1.488.71.416-.163.602-.242a62.484 62.484 0 0 1 3.572-1.376c2.692-.959 5.46-1.693 8.252-2.296 5.39-1.164 10.7-1.491 16.876-1.36 14.806.316 29.466 4.008 43.327 9.009 45.453 16.4 86.154 46.54 122.976 77.118 19.826 16.464 37.146 34.018 49.691 56.742 10.905 19.753 17.26 42.143 20.596 64.357 7.573 50.43.826 101.819-8.269 151.576-.658 3.602 1.373 8.157 5.686 6.848 4.652-1.413 7.168-6.604 8.006-10.989 17.175-89.901 27.604-199.392-44.667-269.132-20.833-20.104-44.782-37.944-68.564-54.392-18.794-12.999-38.475-24.834-59.368-34.15-26.867-11.979-58.089-20.827-87.274-12.327-32.069 9.34-49.823 39.44-56.023 70.49-.604 3.022 1.186 6.822 4.762 5.735 3.971-1.207 5.89-5.529 6.704-9.206z"/><path fill="#FFF" d="M557.215 592.042c1.938-2.996 3.873-8.295.777-10.036-.109-.062-.219-.109-.33-.157-.004-.098-.004-.194-.01-.293-.072-1.143-.449-2.664-1.41-3.164-2.049-1.067-4.549.548-6.682 3.037-5.049-3.821-10.818-3.719-16.041-.911-.291-1.886-.77-3.821-1.453-5.879-.836-2.515-2.729-2.763-4.506-1.491-1.893 1.354-3.457 3.02-4.711 4.887-.771.264-1.555.849-2.268 1.68-.266.309-.514.637-.75.982a33.574 33.574 0 0 0-1.48-4.77c-.008-.044-.02-.087-.027-.131l-.018.023a30.65 30.65 0 0 0-.531-1.279c-1.154-2.596-4.242-.53-5.373.784-.68.79-1.262 1.706-1.729 2.698-.323-.706-.654-1.415-1.001-2.131-1.624-3.352-4.272-1.021-6.195 2.341-.249-.329-.488-.669-.744-.993-1.922-2.441-4.27-1.149-6.051 1.413-.113-.156-.223-.312-.34-.469-2.514-3.336-5.207.44-6.499 4.491-2.237-1.982-4.568-3.797-7.021-5.366-2.211-1.413-5.088 4.86-3.363 6.706 5.414 5.791 10.289 12.062 14.609 19.051 2.399 5.294 5.426 10.137 9.123 14.239 3.533 3.921 6.896-2.162 7.997-6.875.312-.263.606-.555.887-.872.022.022.044.047.067.069 2.28 2.212 4.609-1.084 6.082-4.396.611.363 1.262.363 1.914.106.02 1.046.277 2.001.908 2.725 5.207 5.973 12.238 7.494 18.645 3.332 3.73-2.425 6.51-6.103 8.348-10.434 2.938-1.812 5.451-3.632 8.037-6.757.305-.367.725-1.16 1.139-2.16z"/><path fill="#FF617F" d="M576.463 586.298c-.357-4.844-2.941-3.991-5.09-1.751-.23-.596-.582-1.1-1.1-1.425-2.297-1.442-4.93 2.105-5.742 4.362-1.73 4.804-3.814 9.284-6.369 13.246-7.848 3.687-14.521 10.421-22.447 13.835-.57.246-1.221.806-1.863 1.545-3.811.181-7.658-.259-11.309-1.01-14.792-3.043-28.646-12.527-41.119-23.004a78.185 78.185 0 0 1-5.062-8.26c4.391-3.347 8.651-6.978 13.055-10.307.328.943.992 1.668 2.097 1.989 9.128 2.656 18.696 3.173 28.045 2.55 1.473-.098 2.844-1.346 3.799-3.027 3.871-.122 7.742-.24 11.588 0 9.066.567 17.811 2.938 25.805 8.356 2.178 1.476 4.613-1.757 5.455-5.169 3.539.612 7.506-9.726 3.822-11.734-10.066-5.494-20.414-8.875-31.193-11.51-2.125-.52-4.371 3.076-4.967 6.407l-1.037-.032a240.772 240.772 0 0 0-12.832-.021c-2.316-2.74-5.018-4.786-8.423-5.82-4.693-1.425-9.926.802-14.111 3.275-8.896 5.26-16.289 13.467-24.44 20.212-.543.13-1.131.639-1.677 1.351a69.625 69.625 0 0 1-4.09 3.012c-2.113 1.431-3.065 8.443.396 6.416a66.212 66.212 0 0 0 2.428-1.503l.067.176a8.36 8.36 0 0 0-.27.413 11.216 11.216 0 0 0-1.464 7.758c2.488 14.738 8.693 27.387 18.939 35.785 9.441 7.738 21.387 10.205 32.529 9.156 8.137-.767 16.113-3.4 23.447-7.623 6.627 1.737 13.514-.297 19.609-6.535 9.61-9.834 14.651-25.888 13.524-41.113zm-89.759 28.426a70.46 70.46 0 0 0 6.354 5.909 38.22 38.22 0 0 1-6.354-5.909z"/><path d="M462.708 587.073c39.982-6.38 80.166-2.355 120.119 2.181 2.779.315 5.307-7.784 2.082-8.146-40.336-4.527-80.731-8.248-120.992-.696-1.979.371-3.557 7.035-1.209 6.661z"/><path d="M556.33 586.795c-5.846 16.403-24.285 21.03-37.15 21.117l-2.18 8.527c.258-.014.521-.033.768-.127 2.141-.808 3.516-4.476 2.912-7.036-.422-1.788-2.98-2.062-4.154-2.512-3.281-1.255-6.482-2.781-9.615-4.521-7.936-4.404-15.569-11.214-17.456-22.264-.72-4.211-5.34 1.95-4.988 4.772 1.407 11.333 8.37 18.89 16.204 24.1 3.324 2.211 6.861 3.893 10.444 5.339 1.204.485 2.421.925 3.64 1.353.379.134.759.265 1.138.399 1.014.36.165.406-.157-.906l2.912-7.036.533-.089c-2.863.191-5.503 8.601-2.18 8.527 15.908-.348 36.072-7.532 42.887-27.412 1.53-4.464-1.929-6.802-3.558-2.231z"/><path d="M462.788 580.136c-1.125 62.063 69.388 80.526 103.382 47.957 11.658-11.169 17.674-28.43 16.373-46.545-.33-4.576-4.416.498-4.326 3.287.416 13.217-2.965 25.191-10.943 34.235-7.904 8.958-18.686 13.376-29.113 15.375-21.625 4.146-47.783-3.266-62.074-24.886-6.136-9.282-8.918-20.866-8.946-32.73-.005-1.687-1.298-2.302-2.37-1.487-1.337 1.014-1.95 2.944-1.983 4.794z"/><path d="M446.629 577.381c13.347 13.209 26.723.843 37.992-9.659 5.636-5.254 11.566-10.928 18.69-12.514 9.071-2.021 15.559 6.745 21.208 13.957 2.152 2.746 5.07-3.8 3.75-6.236-4.557-8.412-12.172-15.68-20.678-15.727-7.271-.041-13.933 5.212-19.608 10.259-11.49 10.22-24.344 26.561-38.705 13.516-1.887-1.714-4.555 4.517-2.649 6.404z"/><path d="M527.143 568.698c6.129-7.208 13.434-12.92 22.188-10.742 6.744 1.678 12.604 7.872 17.785 13.064 10.688 10.708 23.166 22.152 36.373 9.822 1.262-1.18 2.219-3.028 2.094-5.061-.107-1.73-1.301-2.487-2.502-1.57-6.238 4.769-12.285 5.493-18.91 1.452-6.471-3.949-11.834-10.396-17.525-15.763-5.383-5.076-11.373-9.597-18.293-10.216-8.92-.798-16.77 6.317-22.705 13.71-1.851 2.306-1.505 8.835 1.495 5.304z"/><path fill="#2DB5F9" d="M528.16 208.22c-16.778-9.453-36.929-10.21-55.601-7.726-21.813 2.903-42.68 10.208-62.533 19.525-17.825 8.366-35.032 18.855-49.77 31.983-4.199 3.74-8.054 7.892-11.621 12.322-6.518 6.094-12.383 12.836-17.277 20.377-1.715-.05-3.288 1.25-4.507 2.709 7.499-20.541 17.659-40.081 30.782-57.473 23.447-31.074 59.738-53.706 99.419-54.447 8.005-.15 16.218.377 24.101 1.8 3.271.591 6.449-7.294 2.519-8.003-20.21-3.646-41.459-4.864-61.44.796-18.732 5.306-35.488 15.919-49.844 28.888-23.311 21.062-40.018 49.012-51.586 78.423-1.016.229-6.325-1.004-12.889-2.237.469-2.296.922-4.594 1.396-6.887.834-4.021 1.686-8.038 2.554-12.051.968-4.469 1.299-5.95 2.242-10.062 1.548-6.747 21.027-70.062 60.788-87.471 17.961-7.864 33.395-20.95 51.652-28.127a185.708 185.708 0 0 1 8.174-2.992c25.104-2.29 50.913 1.066 74.887 9.464 5.607 1.964 11.777-8.675 7.98-12.917l-.018-.019c2.031-3.685 2.455-8.274-.73-9.87-9.968-4.993-20.71-8.849-31.487-11.657-9.358-2.438-20.32-2.096-29.945-2.042-17.194.098-34.526 2.526-50.884 7.899-29.422 9.666-53.889 29.512-71.855 54.462-3.781 5.253-7.277 10.696-10.537 16.281a201.477 201.477 0 0 0-12.172 18.528 217.302 217.302 0 0 0-20.846 34.289c-10.41 21.369-17.697 44.209-23.232 67.283-4.743 19.769-9.039 40.066-11.402 60.274-2.498 21.366-2.559 43.101-3.383 64.574a3627.39 3627.39 0 0 1-.434 10.928 613.682 613.682 0 0 0-.912 18.131c-.016.436-.001.897.045 1.357-.998 20.84-2.258 41.664-4.064 62.454-.837 9.635-1.785 19.329-2.922 29.011-4.106 16.014-8.547 31.941-13.531 47.7-7.163 22.639-14.077 42.606-26.068 62.943-.152.26-.309.517-.464.774-.079.121-.692 1.12-.826 1.331a109.958 109.958 0 0 1-2.311 3.47 85.613 85.613 0 0 1-4.698 6.181 35.54 35.54 0 0 0-.29.351l-.067.074c-.395.438-.799.865-1.205 1.291-.779.815-1.609 1.588-2.439 2.35a42.27 42.27 0 0 1-2.053 1.749c.256-.232-1.552 1.102-1.964 1.37-2.372 1.55-4.958 2.621-7.657 3.12-3.709.076-7.484-.37-11.351-1.23-2.393-.532-4.968 2.16-6.364 5.263a111.91 111.91 0 0 1-5.299-2.347c-3.206-1.52-6.973 5.875-3.855 7.566 10.723 5.814 22.721 10.23 35.086 9.752 10.532-.407 20.008-4.748 28.104-11.314 19.589-15.891 28.958-42.353 35.436-66.025 13.33-48.724 14.765-99.024 18.754-149.032 1.637-7.733 3.24-15.472 4.818-23.216.306-1.503.598-3.01.9-4.515.279.099.557.206.84.289-.414 2.178-.529 4.948 1.689 6.079 3.089 1.574 6.596-2.298 7.698-4.749.345-.766.679-1.536 1.016-2.306.503-.258.989-.544 1.467-.851-.413 4.27 4.553 3.195 5.612-.768.605-2.26 10.754 5.042 11.323 2.772 6.768-9.89 8.882-32.744 10.786-44.227 1.535-9.257 1.738-23.571 3.367-32.794 6.115-20.127 4.191-35.104 12.598-54.408 6.494-14.911 14.334-30.013 25.109-42.422.998-.79 2.01-1.572 3.032-2.347 20.426-15.467 43.829-26.546 68.325-33.832 30.344-9.024 62.271-11.926 93.822-11.157 5.495.139 11.754-11.426 6.012-14.662zM221.53 640.195a129.7 129.7 0 0 1-5.65 11.665c2.295-4.411 4.41-8.926 6.398-13.481-.281.698-.537 1.319-.748 1.816z"/><path fill="#EAA286" d="M760.91 460.761c11.34-10.79 28.432-25.102 45.445-18.287 19.119 7.657 29.26 29.139 30.943 48.693 2.061 23.959-7.785 71.168-41.75 61.655-13.932-3.902-25.055-16.56-33.102-27.849-5.59-7.838-11.369-22.143-4.309-30.96 7.025-8.771 19.023.301 23.643 6.782a107.356 107.356 0 0 0 4.316 5.662c2.736 3.339-3.945-4.32-1.123-1.284a53.018 53.018 0 0 0 2.051 2.056 43.475 43.475 0 0 0 2.012 1.8c2.732 2.353-4.449-3.294-1.627-1.276 1.195.855 2.475 1.579 3.787 2.234-6.08-3.032-2.004-.968-.148-.518 2.574.627-4.514-.473-1.93-.227.551.053 1.104.044 1.656.033 1.619-.03 5.396-1.251-.178.37 1.195-.348 2.318-.912 3.393-1.535 3.471-2.011-.332.513.025.19.879-.78 1.662-1.665 2.416-2.565.799-.951 1.506-1.977 2.184-3.015.354-.542.678-1.102 1.002-1.658 1.332-2.293-2.174 4.309-.48.786 1.215-2.53 2.152-5.19 2.955-7.88a61.775 61.775 0 0 0 1.08-4.229c.693-3.071-.922 4.909-.365 1.806.174-.969.311-1.941.443-2.914.391-2.895.549-5.814.549-8.73 0-3.297.24 5.794.086 2.528-.033-.7-.094-1.396-.154-2.093-.113-1.353-.311-2.697-.541-4.037-.773-4.537 1.803 6.715.254 1.385a31.987 31.987 0 0 0-.584-1.757c-1.125-3.192 2.9 6.772 1.525 3.72-2.312-5.151 2.242 3.243 1.412 2.023-2.861-4.211 4.844 4.609 1.102 1.312 5.311 4.677 4.184 3.117 2.6 2.086-1.268-.82-3.805-1.769 2.531 1.063-.963-.431-1.994-.683-3.027-.873 5.949 1.103 2.064.31.201.447-.633.047-1.258.156-1.881.266-2.414.417 4.203-1.312.5-.105-3.275 1.068-6.314 2.814-9.193 4.669-1.811 1.165-3.527 2.467-5.221 3.792 3.131-2.448-.145.149-.639.579-1.338 1.162-2.623 2.377-3.906 3.599-8.09 7.696-18.184.598-23.645-6.781-4.991-6.745-12.204-23.45-4.308-30.963z"/><path d="M767.453 456.181c16.199-10.647 38.795-20.223 56.459-7.203 14.27 10.515 18.129 30.82 17.102 47.429-1.094 17.728-8.232 36.917-22.244 48.43-15.52 12.75-39.414 11.552-53.463-2.964-1.18-1.219-5.164-10.629-.465-9.844 8.59 1.437 15.834 6.317 24.777 6.831 7.27.414 14.129-1.921 20.164-5.85 12.59-8.2 19.709-24.211 22.047-38.56 1.926-11.837 1.617-27.506-8.438-35.832-14.74-12.207-37.852-1.708-52.156 5.674-2.939 1.516-6.564-6.282-3.783-8.111z"/><path d="M812.768 499.176c-5.932-7.295-13.877-12.87-23.557-12.994-10.674-.134-13.037 9.331-17.08 17.077-1.844 3.536-5.914-4.286-6.064-5.595-1.355-11.9 4.641-23.753 17.834-23.986 12.922-.23 24.543 10.695 31.367 20.529 1.781 2.571.904 9.154-2.5 4.969z"/><path d="M765.648 493.16c7.693-.317 17.34-.396 22.783 6.044 5.385 6.368 4.324 16.008-.293 22.514-1.98 2.789-5.221-4.134-4.629-5.991.844-2.646 4.775-9.605 1.938-12.059-4.52-3.906-12.346-4.012-17.947-4.309-2.246-.12-4.621-6.087-1.852-6.199z"/><path fill="#EAA286" d="M754.287 451.91c-.012-3.53-3.232-4.885-6.031-3.378a4.571 4.571 0 0 0-1.408-1.099 161.716 161.716 0 0 1-12.738-7.177c-7.816-17.663-19.406-34.232-30.381-49.774-12.531-17.747-26.045-34.779-38.301-52.725a293.319 293.319 0 0 1-4.029-6.061c-9.725-30.351-17.861-61.196-33.219-89.426a186.789 186.789 0 0 0-3.611-6.296c-1.693-2.842-5.791-.66-7.418.879-.936.884-1.818 2.009-2.535 3.256a133.094 133.094 0 0 0-1.252-5.298c-1.02-3.858-5.818 1.857-5.482 4.257 11.016 78.247 27.018 170.23 102.689 212.41 4.506 2.512 9.154 4.753 13.898 6.768 3.203 8.106 5.615 16.533 6.854 25.475 6.066 43.777-8.301 89.768-29.221 127.816a208.519 208.519 0 0 1-5.695 9.718c-19.355 25.81-44.086 47.57-72.271 63.284-37.777 21.061-81.729 29.471-124.585 23.723-13.48-1.808-26.828-4.937-39.648-9.443-17.726-7.476-34.416-17.456-49.503-29.38-9.611-7.597-18.488-16.083-26.569-25.276-17.882-23.881-29.092-52.334-36.336-81.177-9.29-36.993-12.07-75.502-12.523-113.532-.496-41.693 2.36-83.365 5.922-124.88.204-2.369-.266-5.813-3.335-5.957-3.896-.183-6.662 4.32-7.739 7.455-18.936 55.092-25.889 114.52-19.705 172.468 5.066 47.475 18.631 96.188 45.205 136.294 41.434 62.526 115.588 101.872 190.984 95.55 39.234-3.291 75.791-19.023 106.557-43.321 23.225-18.343 41.912-41.194 56.543-66.551 13.221-19.27 23.793-40.352 31.686-62.33 5.631-15.679 9.957-32.427 12.504-48.889 2.929-18.949.756-38.325.693-57.383zm-12.43 11.592a6.96 6.96 0 0 0 .869-.351c.027 1.647.064 3.295.109 4.941a133.74 133.74 0 0 0-.978-4.59z"/><path d="M753.781 432.73c1.518 56.309-6.207 116.071-25.756 161.98-27.74 65.153-81.303 112.831-147.234 127.856-74.087 16.885-155.498-4.728-208.255-63.931-53.335-59.85-66.604-144.198-59.797-223.75-3.414-2.066-6.901-3.917-10.525-5.373a555.238 555.238 0 0 0-2.888 28.925c-5.771 79.193 10.728 161.736 62.613 221.316 51.743 59.424 131.511 82.004 205.403 69.07 68.648-12.018 125.691-58.746 159.934-122.47 28.031-52.169 41.439-122.043 39.744-188.195-4.403-1.842-8.797-3.703-13.239-5.428z"/><path d="M427.47 398.41c-19.478 1.846-30.547 19.388-45.31 30.056-3.453.726-7.061.706-10.858-.4-3.138-.915-6.735 5.805-3.631 7.125 2.975 1.266 5.87 1.874 8.693 1.983.182 1.56 1.19 2.463 3.474 1.366a38.712 38.712 0 0 0 3.951-2.202c3.584-.926 7.041-2.533 10.379-4.513.629 1.148 1.789 1.908 3.261 1.333 7.403-2.894 14.574-6.466 22.134-8.92 12.524.561 25.445 8.765 34.711 16.842 3.248 2.831 6.026-3.245 6.08-5.766.203-9.598-.205-19.341-6.145-27.356-5.979-8.069-17.289-10.442-26.739-9.548zm248.591 28.205c-6.521-19.372-23.305-33.356-44.408-28.694-20.746 4.584-32.285 25.546-32.492 45.48-.047 4.436 5.377.068 5.576-2.566.025-.333.059-.664.09-.994.559-.021 1.166-.174 1.811-.481 6.338-3.032 12.293-6.818 18.385-10.333.848-.096 1.697-.195 2.545-.279 4.959-.496 11.223-1.402 17.266-1.312 5.01.857 9.953 2.199 14.705 3.748 2.156.702 4.318-.821 5.648-2.964 1.271 1.765 2.367 3.662 3.311 5.552 2.758 5.522 8.859-3.302 7.563-7.157z" fill="#EAA286"/><path d="M445.84 441.053a35.205 35.205 0 0 0-1.131-1.39c-4.497-6.796-11.912-11.489-20.461-12.292-5.168-1.113-10.532-1.002-15.577.722-4.112 1.406-8.178 4.01-10.747 7.556-11.488 8.349-13.626 24.482-4.635 36.541 11.257 15.093 32.227 15.945 46.881 5.634 12.655-8.901 14.989-24.626 5.67-36.771zm-51.132 7.572a27.438 27.438 0 0 0-.549 3.202 10.87 10.87 0 0 1 .549-3.202z"/><circle fill="#FFF" cx="426.298" cy="448.14" r="10.99"/><path d="M461.946 440.34c-9.767-8.259-20.573-15.806-33.37-18.209-8.408-1.579-16.842.281-24.481 3.841-6.186 2.883-11.877 7.051-18.423 9.104-2.786.874-5.618.933-8.469.333-4.138-.869-6.78-4.244-10.388-6.011-3.613-1.77-6.386 5.263-4.816 7.794 3.812 6.145 12.508 8.693 19.267 7.572 6.737-1.118 12.753-5.632 18.518-9 7.128-4.166 14.637-7.145 23.027-6.738 13.359.647 25.482 9.094 35.485 17.222 2.011 1.634 5.565-4.288 3.65-5.908zm-104.413-38.123c4.27-6.276 11.989-10.841 19.509-14.685 10.235-5.231 21.982-8.485 33.35-9.975 12.138-1.59 24.823-1.166 36.629 2.227a81.027 81.027 0 0 1 17.892 7.583c5.809 3.334 10.71 7.925 16.222 11.678 2.669 1.817 6.369-1.631 7.762-3.512 2.425-3.277 3.863-7.98 1.627-11.683-7.427-12.302-22.553-19.076-35.968-22.446-13.926-3.499-28.655-2.953-42.709-.586-22.886 3.854-48.911 14.91-61.062 35.831-1.181 2.034-1.899 5.565-.282 7.584 2.066 2.579 5.693-.052 7.03-2.016z"/><path d="M375.228 426.247c8.608 13.277 30.661 8.5 43.529 6.183 2.532-.456 5.145-7.603 1.663-7.438-11.946.564-31.961 6.525-40.409-5.202-2.173-3.017-6.496 3.814-4.783 6.457zm246.938 53.012c14.654 10.312 35.623 9.459 46.881-5.635 8.992-12.058 6.854-28.191-4.635-36.541-2.568-3.545-6.635-6.149-10.748-7.556-5.045-1.724-10.408-1.835-15.576-.721-8.549.802-15.965 5.495-20.461 12.292-.389.456-.77.917-1.131 1.389-9.318 12.147-6.984 27.871 5.67 36.772zm46.012-25.997a27.474 27.474 0 0 0-.549-3.202c.326.996.525 2.054.549 3.202z"/><circle fill="#FFF" cx="636.038" cy="449.574" r="10.989"/><path d="M603.285 446.97c9.898-8.091 21.589-15.906 34.769-16.549 8.267-.403 15.79 2.991 22.76 7.07 5.86 3.43 11.443 7.473 18.226 8.827 7.502 1.497 16.062-3.09 20.465-9 1.539-2.068 2.142-8.712-2.162-6.178-6.168 3.632-10.223 7.648-17.902 5.459-6.712-1.914-12.607-6.223-18.871-9.183-21.625-10.221-42.032.465-58.971 14.703-2.355 1.978-1.904 7.784 1.686 4.851zm102.809-52.523c-11.159-19.966-37.586-29.028-58.707-32.615-27.865-4.732-62.484 1.323-79.687 26.009-1.977 2.836-3.592 6.791-2.387 10.271 1.479 4.268 5.656 2.537 8.203.531 9.94-7.831 19.132-14.078 31.469-17.578 12.405-3.518 25.449-3.534 38.14-1.751 11.461 1.61 22.677 5.118 33.059 10.218 8.041 3.95 16.325 8.682 21.598 16.136 1.962 2.773 5.725-.252 7.03-2.016 1.964-2.655 2.955-6.21 1.282-9.205z"/><path d="M683.062 422.384c-3.817 5.394-11.64 5.713-17.646 5.707-7.075-.008-14.072-1.345-21.129-1.664-3.091-.14-6.113 6.833-2.371 7.534 13.843 2.593 35.243 6.525 44.455-7.439 2.275-3.448-.104-8.665-3.309-4.138zm-54.931-193.842c-49.805-9.916-101.197-16.759-152.024-12.094-31.247 2.868-62.619 10.763-89.132 28.084-23.156 15.128-43.212 38.242-53.721 63.859-9.313 22.701-10.827 47.54-17.703 70.95-3.204 10.907-4.858 21.352-5.803 32.686-.931 11.173-2.014 22.443-9.127 31.577-2.232 2.866-.943 9.715 3.028 5.624 17.269-17.788 10.129-44.658 17.486-66.238 8.453-24.797 8.793-51.81 19.507-75.903 11.322-25.459 32.998-46.893 57.208-60.213 26.212-14.422 56.553-20.099 86.115-22.008 47.296-3.054 95.168 3.289 141.588 11.867 3.341.617 6.593-7.391 2.578-8.191z"/><path d="M535.389 93.287c-40.26-14.618-86.017-12.058-126.943-1.122-14.666 3.919-28.29 9.659-40.941 18.151-18.143 12.177-33.49 28.183-46.953 45.274-23.214 29.473-42.847 64.677-53.025 100.947-10.053 35.817-15.338 73.175-20.656 109.925-5.865 40.536-10.779 81.229-14.799 121.989-1.764 17.876-3.193 35.705-3.83 53.662-.942 26.551-1.348 53.425-7.949 79.319-1.379 5.407-3.068 10.729-4.926 15.989-1.763 4.984-4.082 10.63-5.939 14.378-2.732 5.511-7.746 10.945-13.276 14.776-6.259 4.334-13.567 6.654-21.19 5.989-9.572-.835-17.16-7.796-22.812-14.997-3.973-5.062-11.044 6.295-8.398 10.926-.098 18.784 6.604 37.405 15.469 53.732 9.502 17.494 22.338 34.021 38.939 45.293 9.155 6.217 20.053 10.686 30.355 14.613 8.56 3.262 17.473 5.762 26.568 6.932 16.652 2.143 34.835-1.844 50.172-8.312 3.185-1.342 6.83-10.768 1.227-9.428-8.145 1.947-16.02 4.682-24.289 6.158-7.435 1.326-15.031 1.451-22.533.688-8.869-.902-17.442-3.494-25.764-6.596-10.084-3.758-20.271-8.084-29.59-13.484-16.294-9.441-28.62-25.076-37.993-41.101-7.126-12.183-12.749-25.781-15.363-39.809 5.06 4.839 11.112 8.342 18.373 9.787 8.993 1.79 18.335-1.39 26.028-5.878 19.713-11.499 28.28-33.615 34.549-54.386 7.847-25.996 9.447-53.132 10.621-80.093.831-19.08 2.074-38.044 3.943-57.047 3.963-40.318 8.928-80.555 14.699-120.652 2.972-20.643 6.206-41.251 9.924-61.773 3.061-16.899 5.943-31.666 10.291-47.718 4.373-16.144 9.703-28.665 17.088-43.437 9.186-18.372 19.96-35.497 32.686-51.659 12.58-15.978 27.334-30.571 44.671-41.329 11.249-6.98 23.5-11.085 36.251-14.259 37.598-9.36 79.808-11.442 116.875 1.118 7.453 2.531 15.5-14.002 8.44-16.566zM405.748 740.186c-1.937 40.931 9.214 84.829 41.088 112.673 33.196 28.998 84.538 33.152 123.923 14.897 50.369-23.345 72.71-85.347 59.571-137.652-.795-3.163-4.361-3.186-6.636-1.782-3.561 2.195-6.341 7.242-5.849 11.479 2.486 21.376 3.75 41.848-3.043 62.637-5.401 16.531-15.941 31.222-30.877 41.575-34.758 24.093-86.916 23.041-121.326-.903-34.167-23.775-46.921-68.183-45.919-107.957.063-2.523-2.123-4.441-4.573-3.698-3.352 1.017-6.197 5.312-6.359 8.731zm123.466-527.519c4.427-16.35 11.812-33.902 30.667-36.255 20.419-2.547 39.446 8.576 51.1 24.68 11.9 16.444 16.639 37.26 20.844 56.754 4.22 19.56 7.678 39.037 13.934 58.1 11.742 35.78 29.929 70.898 56.461 97.964 12.795 13.052 27.757 24.123 44.516 31.511 17.021 7.503 39.622 13.303 58.01 8.377 5.87-1.572 12.845-16.309 4.001-17.897-10.731-1.928-21.726-1.287-32.523-3.531-9.937-2.065-19.503-5.895-28.479-10.577-18.338-9.564-33.545-23.82-46.338-39.912-25.656-32.273-42.047-72.661-50.226-112.861-7.282-35.8-13.205-79.279-46.154-101.311-15.759-10.538-37.729-12.882-54.699-4.061-17.716 9.209-25.994 30.329-30.367 48.593-.546 2.28-.989 6.752 2.519 6.917 3.253.152 5.988-3.737 6.734-6.491z"/><path fill="#2DB5F9" d="M650.959 284.951c12.222 28.493 31.66 54.543 52.165 77.557 11.048 12.399 23.046 24.062 36.374 34.004 10.178 7.591 21.817 14.541 34.649 16.11 31.636 3.868 39.569-36.467 41.144-59.661l-7.35 3.384c.01 14.052-.218 28.056-2.882 41.899l7.408-2.24c.221-3.715 2.466-7.99 4.164-10.574 1.17-1.78 2.535-4.826.947-6.808-1.516-1.893-4.23.018-5.199 1.491-3.524 5.364-6.948 11.604-7.32 18.131-.108 1.906.569 4.467 3.077 3.705 2.515-.763 3.881-3.573 4.331-5.945 2.77-14.599 2.846-29.408 2.86-44.214.006-5.858-7.108-.093-7.35 3.384-.956 13.733-2.267 32.505-13.17 42.562-7.535 6.95-18.84 5.13-27.531 1.748-13.406-5.216-25.219-14.462-35.852-23.949-12.912-11.52-24.643-24.391-35.579-37.781-14.678-17.969-29.226-37.077-39.29-58.097-1.919-4.012-6.837 2.4-5.596 5.294z"/><ellipse fill="#FFAD9F" cx="684.716" cy="518.595" rx="27.265" ry="26.217"/><ellipse fill="#FFAD9F" cx="376.183" cy="520.03" rx="27.265" ry="26.217"/><path fill="#EAA286" d="M310.844 454.063c-11.34-10.79-28.431-25.102-45.445-18.287-19.118 7.657-29.26 29.139-30.943 48.693-2.062 23.96 7.786 71.169 41.75 61.655 13.932-3.902 25.055-16.56 33.102-27.848 5.588-7.838 11.369-22.144 4.31-30.961-7.026-8.771-19.023.301-23.644 6.782a106.41 106.41 0 0 1-4.316 5.662c-2.736 3.34 3.945-4.32 1.123-1.283a55.2 55.2 0 0 1-2.051 2.055 44 44 0 0 1-2.012 1.8c-2.732 2.353 4.449-3.294 1.627-1.276-1.195.855-2.475 1.579-3.787 2.234 6.079-3.032 2.004-.967.149-.517-2.576.626 4.514-.474 1.929-.228-.551.054-1.104.044-1.656.033-1.619-.03-5.396-1.25.179.37-1.196-.347-2.32-.912-3.394-1.534-3.47-2.011.332.512-.025.19-.879-.781-1.662-1.666-2.416-2.565-.799-.951-1.506-1.978-2.184-3.016-.354-.542-.678-1.102-1.002-1.658-1.332-2.293 2.174 4.309.48.787-1.215-2.531-2.151-5.191-2.955-7.881a61.775 61.775 0 0 1-1.08-4.229c-.693-3.071.922 4.909.365 1.807a67.45 67.45 0 0 1-.442-2.915c-.391-2.895-.55-5.814-.55-8.73 0-3.297-.241 5.795-.086 2.528.033-.7.094-1.396.153-2.093.115-1.353.312-2.697.542-4.037.773-4.536-1.803 6.715-.254 1.385a32.85 32.85 0 0 1 .583-1.757c1.126-3.192-2.898 6.772-1.524 3.72 2.312-5.151-2.242 3.243-1.411 2.023 2.86-4.211-4.846 4.609-1.103 1.312-5.311 4.677-4.184 3.117-2.6 2.087 1.268-.82 3.804-1.77-2.531 1.062.964-.431 1.995-.683 3.027-.873-5.949 1.103-2.063.31-.201.447.633.047 1.258.156 1.881.266 2.414.417-4.203-1.312-.5-.104 3.275 1.067 6.313 2.813 9.194 4.668 1.809 1.165 3.526 2.467 5.219 3.792-3.129-2.448.146.149.64.579 1.338 1.162 2.623 2.377 3.906 3.599 8.09 7.696 18.184.599 23.645-6.781 4.992-6.745 12.205-23.449 4.308-30.963z"/><path d="M304.301 449.483c-16.199-10.647-38.796-20.222-56.46-7.203-14.269 10.515-18.128 30.82-17.101 47.43 1.095 17.728 8.232 36.916 22.244 48.429 15.521 12.751 39.414 11.552 53.464-2.964 1.179-1.218 5.163-10.629.464-9.844-8.59 1.438-15.834 6.318-24.777 6.831-7.27.415-14.128-1.92-20.164-5.849-12.591-8.201-19.71-24.212-22.047-38.561-1.926-11.837-1.618-27.506 8.438-35.832 14.739-12.207 37.853-1.708 52.156 5.675 2.94 1.515 6.565-6.282 3.783-8.112z"/><path d="M258.987 492.479c5.932-7.295 13.878-12.87 23.557-12.994 10.673-.134 13.038 9.331 17.08 17.077 1.844 3.537 5.914-4.286 6.063-5.595 1.356-11.9-4.64-23.753-17.832-23.986-12.923-.23-24.544 10.695-31.368 20.529-1.781 2.571-.904 9.155 2.5 4.969z"/><path d="M306.106 486.463c-7.693-.317-17.34-.396-22.783 6.044-5.384 6.368-4.323 16.008.294 22.514 1.979 2.789 5.22-4.134 4.628-5.991-.844-2.646-4.775-9.605-1.938-12.059 4.52-3.906 12.346-4.012 17.947-4.309 2.246-.12 4.621-6.086 1.852-6.199z"/></svg>