<svg xmlns="http://www.w3.org/2000/svg" xmlns:xlink="http://www.w3.org/1999/xlink" width="1030" height="1030" viewBox="0 0 1030 1030"><defs><circle id="a" cx="515" cy="515" r="505.378"/></defs><use xlink:href="#a" overflow="visible" fill="#FFBF1F"/><clipPath id="b"><use xlink:href="#a" overflow="visible"/></clipPath><g clip-path="url(#b)"><path fill="#FFBF1F" d="M1021.413 517.213c0 279.115-226.265 505.377-505.378 505.377-279.112 0-505.377-226.264-505.377-505.377S236.923 11.834 516.035 11.834c279.113 0 505.378 226.266 505.378 505.379z"/><path fill="#FC9E17" d="M64.591 301.338c65.698-60.766 147.473-101.363 226.167-142.393 40.815-21.281 80.746-43.73 120.539-66.854 43.206-25.11 87.47-49.598 136.054-62.561l-2.864-37.722C469.49 62.958 382.009 118.797 296.631 176.39c-43.967 29.659-87.432 59.996-129.214 92.682-20.033 15.671-39.122 32.31-60.043 46.827C85.61 331 62.962 344.785 40.82 359.311 20.358 372.731.4 387.01-18.11 403.047c-7.093 6.145-11.696 17.17-10.986 26.521.548 7.209 5.931 13.973 13.849 11.199 98.168-34.393 184.331-95.652 268.734-154.94 42.164-29.617 84.252-59.421 128.115-86.495 19.998-12.342 40.242-24.098 59.857-37.074 21.044-13.919 41.816-28.239 62.965-42.001 37.357-24.313 76.479-48.122 120.033-59.315l-6.716-33.351c-3.625 4.497-11.991 11.266-18.964 15.919-10.001 6.67-20.648 12.364-31.156 18.178-23.028 12.742-45.092 27.219-67.553 40.935-51.306 31.333-102.533 62.797-153.852 94.113-51.111 31.188-102.327 62.211-153.791 92.816-45.841 27.262-92.238 53.613-137.738 81.449-57.197 34.99-113.604 73.15-161.328 120.578-6.828 6.784-11.733 16.688-10.986 26.52.559 7.365 5.898 13.781 13.85 11.199 51.945-16.859 99.749-43.608 147.504-69.639C94 432.255 145.888 407.88 197.311 382.726c106.724-52.204 213.545-104.201 320.026-156.899 43.588-21.572 87.409-42.348 128.738-68.077 36.969-23.018 73.674-48.996 115.463-62.538-.954-12.575-1.908-25.146-2.864-37.721-32.515 34.458-76.607 55.146-117.22 78.289-50.043 28.516-97.458 62.321-145.694 93.778-48.672 31.742-97.557 62.701-143.462 98.404-36.259 28.201-71.636 58.477-113.409 78.264C166.968 440.29 75.416 461.752 37.56 541.289c-3.076 6.463-5.365 14.316-2.91 21.402 1.744 5.04 7.496 9.094 12.933 6.588 100.087-46.102 193.518-104.332 287.45-161.586 46.518-28.355 93.288-56.326 141.229-82.229 49.123-26.54 100.223-49.028 149.865-74.543 51.182-26.305 101.262-54.686 151.102-83.426-.984-12.997-1.971-25.993-2.959-38.989-89.506 66.279-184.819 124.035-280.237 181.28-95.315 57.185-189.7 115.122-280.916 178.698-64.774 45.147-142.42 71.596-192.241 135.973-8.81 11.383-11.102 42.221 10.985 31.382 208.226-102.161 408.94-218.581 611.71-330.956 81.106-44.949 162.599-89.213 245.033-131.684l-2.959-38.989c-200.877 115.723-395.703 241.727-585.56 374.704-76.927 53.88-153.004 108.973-228.347 165.043-9.188 6.836-16.062 17.881-15.161 29.76.735 9.699 9.591 15.234 18.12 9.229 43.633-30.724 91.014-55.528 138.016-80.599 48.866-26.064 96.421-53.967 143.454-83.206 97.824-60.818 193.597-125.836 295.819-179.224 79.944-41.756 155.398-91.653 236.617-131.035l-7.131-35.752c-155.03 139.628-335.51 246.817-513.139 354.634-93.445 56.72-186.838 113.709-276.603 176.166-9.319 6.484-16.044 18.146-15.161 29.758.801 10.539 9.316 14.159 18.12 9.23 202.516-113.371 408.093-221.234 609.108-337.291 82.609-47.695 164.386-96.848 244.781-148.196-3.662-10.461-7.324-20.921-10.984-31.382-4.996 7.512-10.377 14.717-16.098 21.689-5.041 6.145-10.836 12.266-18.376 19.707-14.123 13.94-29.659 26.809-45.089 38.273-35.397 26.298-73.572 48.731-112.081 70.107-37.449 20.789-75.582 40.312-113.116 60.945-42.605 23.423-83.599 49.659-124.551 75.828-65.341 41.752-130.41 84.796-198.977 121.15-60.084 31.857-124.11 59.162-173.205 107.688-6.838 6.762-11.73 16.707-10.986 26.521.622 8.164 5.797 12.766 13.852 11.199 27.105-5.268 51.928-18.041 75.645-31.76 24.854-14.379 49.684-28.809 74.537-43.191a10614.59 10614.59 0 0 0 152.23-89.771c49.531-29.773 100.037-57.951 150.667-85.822 50.375-27.73 102.132-51.93 153.663-77.322 67.275-33.148 131.118-72.73 197.158-108.186l-10.984-31.383c-5.504 7.193-9.136 10.836-17.041 18.057-7.751 7.076-15.978 13.312-24.516 19.367-18.807 13.338-38.714 25.094-58.617 36.699-43.185 25.181-85.118 51.793-126.224 80.277-91.95 63.715-180.731 131.845-272.466 195.85-62.606 43.68-127.019 85.396-195.645 119.063l2.959 38.989c48.338-27.512 98.725-51.109 148.234-76.383 25.085-12.807 49.887-26.168 74.097-40.572 24.189-14.39 46.896-30.896 69.81-47.201 23.254-16.544 46.578-32.992 70.564-48.465 23.51-15.168 48.085-28.535 72.547-42.078 48.809-27.02 97.927-53.48 146.338-81.211 61.396-35.17 121.518-72.686 178.058-115.307l-10.984-31.381c-59.98 69.829-146.117 119.635-225.496 166.942-91.051 54.268-181.007 110.705-269.408 169.203-41.195 27.261-81.384 55.869-121.203 85.092-39.395 28.914-78.96 57.732-121.234 82.348-9.594 5.584-15.991 18.82-15.16 29.758.841 11.066 9.201 13.475 18.119 9.23C355.576 881.945 450.719 822.941 545.86 764.48c47.797-29.369 95.674-58.625 144.386-86.459 47.674-27.238 96.568-52.016 145.609-76.67 75.025-37.713 150.203-76.055 218.389-125.428l-7.131-35.75c-33.609 33.213-76.089 55.598-117.895 76.72a4039.337 4039.337 0 0 0-133.637 70.689c-99.297 54.921-199.127 109.007-295.387 169.179-39.695 24.812-79.178 50.248-116.168 78.982-32.521 25.262-64.553 53.299-102.398 70.43-8.954 4.055-15.02 11.32-17.994 20.766-1.854 5.883-3.031 24.236 8.273 22.726 45.448-6.075 87.678-22.927 128.725-42.8 43.947-21.275 85.809-46.649 127.57-71.857 92.4-55.778 188.994-103.605 284.819-153.169 30.956-16.013 61.8-31.989 92.062-49.282l89.188-50.969c9.618-5.495 15.986-18.891 15.161-29.758-.804-10.576-9.309-14.111-18.121-9.23-104.188 57.711-206.854 118.118-308.767 179.747-51.145 30.929-102.087 62.187-152.946 93.583-44.668 27.573-85.541 60.625-129.553 89.188-21.203 13.757-43.262 26.518-67.016 35.328l-1.309 40.957C503.589 874.062 701.894 821 881.024 728.061c47.312-24.547 93.093-52.107 136.094-83.643 9.217-6.758 16.058-17.938 15.16-29.759-.76-9.986-9.485-14.868-18.119-9.229-189.895 124.01-375.484 255.293-574.296 364.988a2775.571 2775.571 0 0 1-59.694 31.969l7.133 35.752c73.348-58.309 162.889-92.967 248.278-129.312 44.957-19.137 89.819-38.742 132.914-61.836 22.314-11.959 44.491-24.162 66.002-37.533 23.461-14.584 46.565-29.75 71.245-42.24l-14.291-26.021c-3.254 5.631 2.838-4.268-.768 1.271-1.092 1.672-2.266 3.291-3.438 4.908-1.197 1.657-2.473 3.256-3.742 4.856-.225.284-4.667 5.495-1.594 2.024-6.42 7.246-13.553 13.845-20.877 20.158-14.344 12.365-31.18 23.664-48.141 34.455-35.631 22.666-73.098 42.25-109.025 64.42-39.857 24.594-76.527 54.362-114.17 82.133-42.476 31.334-86.008 61.829-133.523 85.104-8.504 4.166-17.229 7.842-26.043 11.295.954 12.573 1.908 25.146 2.865 37.721 61.736-53.27 143.855-80.49 220.312-108.334 80.787-29.42 162.883-61.467 226.772-120.973 7.469-6.955 14.517-14.353 21.267-22.004 7.163-8.117 13.979-19.856 10.071-31.133-3.469-10.01-15.477-8.065-21.376-1.381-114.229 129.438-307.649 132.048-443.065 231.178a405.288 405.288 0 0 0-25.289 20.134c-7.098 6.124-11.693 17.185-10.986 26.522.529 6.965 5.992 14.279 13.852 11.197 97.135-38.068 176.129-109.006 260.492-168.247 66.981-47.034 147.925-76.376 205.264-136.569 10.397-10.916 19.23-22.635 26.766-35.684 7.101-12.286 4.061-35.305-14.291-26.02-23.682 11.982-45.959 26.396-68.421 40.475-22.415 14.049-45.567 26.728-68.829 39.299-42.021 22.705-85.975 41.566-129.891 60.242-90.248 38.379-182.229 75.839-259.648 137.38-7.225 5.744-11.672 17.468-10.985 26.521.819 10.785 9.259 13.842 18.12 9.231C584.75 936.469 771.74 806.555 960.965 681.342a11193.585 11193.585 0 0 1 56.154-36.924l-2.959-38.988C850.088 725.748 651.648 782.42 469.113 867.283c-48.147 22.384-95.298 46.992-140.351 75.132-8.23 5.138-13.766 14.978-14.994 24.479-1.041 8.053 3.029 20.43 13.686 16.479 48.653-18.047 91.169-48.994 132.91-79.129 45.077-32.541 91.929-61.575 139.312-90.625 101.836-62.436 204.242-123.967 307.943-183.265a7345.646 7345.646 0 0 1 86.651-48.767c-.985-12.996-1.972-25.992-2.96-38.988-51.546 29.458-102.699 59.62-155.438 86.898-53.777 27.818-107.557 55.634-161.336 83.45-43.93 22.722-87.301 45.755-129.695 71.245-41.771 25.117-83.297 50.7-126.523 73.277-41.221 21.529-86.023 41.922-132.549 48.142-3.242 14.497-6.481 28.993-9.721 43.489 47.462-21.482 85.908-55.805 127.178-86.811 44.623-33.523 92.952-62.742 140.678-91.575 96.972-58.587 197.005-111.868 295.911-167.064 73.6-41.076 157.644-70.726 218.6-130.964 6.843-6.76 11.733-16.709 10.988-26.521-.729-9.592-9.636-15.373-18.12-9.23-88.588 64.145-188.591 109.527-285.451 159.373-99.426 51.167-193.672 111.626-289.093 169.732-73.313 44.643-147.525 88.053-225.085 124.969l2.959 38.988c49.188-28.64 94.676-62.945 140.544-96.503 46.478-34 94.138-66.235 142.512-97.468 87.035-56.19 175.351-110.045 263.912-163.752 74.69-45.295 149.065-94.295 206.426-161.074 5.669-6.598 9.146-18.316 6.218-26.762-2.553-7.369-11.105-9.216-17.203-4.619-89.627 67.562-188.064 121.631-286.238 175.51-49.329 27.074-98.405 53.916-144.788 85.881-23.353 16.092-46.29 32.777-69.501 49.068-23.09 16.205-47.426 30.418-72.158 43.966-61.564 33.726-125.931 62.054-186.961 96.791-9.622 5.476-15.983 18.906-15.16 29.76.834 10.973 9.219 13.595 18.119 9.229 98.893-48.512 189.043-113.174 277.802-177.871 89.326-65.108 177.655-132.875 271.783-191.008 55.476-34.266 120.368-62.552 160.974-115.648 5.391-7.047 9.266-17.969 6.219-26.762-2.84-8.196-10.652-8.139-17.203-4.62-49.321 26.479-97.432 55.121-146.602 81.871-49.907 27.151-102.033 49.649-152.422 75.84-103.297 53.69-202.543 114.396-302.912 173.231a11372.038 11372.038 0 0 1-97.148 56.283c-30.903 17.714-60.723 37.979-96.279 44.889.954 12.572 1.908 25.146 2.865 37.721 33.756-33.367 76.162-55.738 118.041-77.18 45.688-23.391 90.238-48.039 134.127-74.68 87.6-53.176 171.682-111.858 262.071-160.354 54.957-29.484 110.544-57.98 162.961-91.898 49.711-32.166 98.854-70.18 131.993-120.016 5.023-7.557 9.406-17.564 6.218-26.762-2.7-7.791-10.854-8.674-17.203-4.621-195.874 125.104-399.875 236.657-603.807 347.896-83.529 45.56-167.062 91.116-250.083 137.595.985 12.996 1.972 25.992 2.959 38.988 170.95-118.941 354.397-218.405 528.241-332.895 94.264-62.08 185.904-128.777 269.847-204.379 7.025-6.326 11.708-17.035 10.988-26.521-.836-11.01-9.213-13.549-18.12-9.23-51.248 24.85-100.296 53.832-149.524 82.396-49.636 28.8-100.665 55.018-150.331 83.748-99.656 57.645-195.211 122.086-293.779 181.537-72.496 43.723-150.876 77.517-220.271 126.383.985 12.997 1.973 25.992 2.959 38.989 185.013-137.684 374.572-269.339 569.658-392.374 80.435-50.727 161.85-99.902 244.248-147.373 9.606-5.535 15.987-18.861 15.161-29.759-.821-10.815-9.251-13.799-18.12-9.229C679.47 260.432 479.433 377.959 275.685 488.664c-81.457 44.258-163.553 87.352-246.782 128.186l10.984 31.383c25.776-33.308 66.304-56.533 103.788-77.648 19.877-11.198 39.891-22.156 59.18-34.355 21.948-13.881 42.736-29.654 64.246-44.203 92.357-62.464 188.979-118.262 284.29-176.014 77.075-46.703 153.374-94.857 225.837-148.516 9.198-6.81 16.062-17.9 15.162-29.76-.793-10.436-9.346-14.29-18.121-9.229-48.863 28.18-97.979 55.93-148.079 81.867-49.613 25.688-100.764 48.18-150.024 74.562-96.332 51.592-187.564 112.021-281.984 166.92-45.945 26.715-92.726 52.251-141.018 74.496 3.339 9.33 6.681 18.662 10.023 27.99.941-1.98 1.919-3.936 2.938-5.88.276-.53 3.928-6.72 1.068-2.127 2.277-3.657 4.846-7.124 7.492-10.519.168-.216 4.738-5.592 1.715-2.197 1.437-1.613 2.949-3.158 4.456-4.703 3.552-3.637 7.364-7.01 11.247-10.285 4.772-4.025 12.174-9.08 19.404-13.619 8.459-5.309 17.279-10.027 26.193-14.512 34.469-17.341 71.242-29.699 106.113-46.215 43.148-20.438 79.836-52.666 117.23-81.817 44.833-34.949 93.141-64.874 140.71-95.896 48.038-31.331 95.283-64.804 145.126-93.205 42.926-24.461 88.732-46.937 123.102-83.36 6.684-7.083 11.75-16.467 10.986-26.522-.559-7.366-5.897-13.776-13.851-11.199-49.908 16.173-93.238 47.806-137.599 74.86-48.914 29.833-102.049 53.268-153.393 78.592-106.674 52.613-213.649 104.617-320.467 156.939-43.396 21.258-86.618 42.541-129.029 65.715-40.359 22.048-80.935 43.731-124.823 57.979l2.863 37.722c72.181-71.732 163.499-120.634 250.486-171.762 103.368-60.754 205.491-123.592 307.752-186.184 31.838-19.489 63.288-39.891 95.544-58.647 28.137-16.359 57.43-30.229 78.302-56.135 6.78-8.414 13.28-38.491-6.716-33.351-47.432 12.189-90.47 38.454-131.143 64.924-21.107 13.74-41.834 28.054-62.84 41.949-19.621 12.977-39.934 24.667-59.938 37.012-88.902 54.875-170.566 120.623-260.034 174.662C76.087 360.719 34.5 382.364-9.665 397.84l2.863 37.721c39.103-33.881 85.59-57.932 127.509-87.986 21.175-15.182 40.63-32.545 61.216-48.488 20.628-15.977 41.773-31.275 63.117-46.279 86.076-60.504 176.02-115.53 257.792-181.999 18.233-14.82 35.915-30.312 52.962-46.484 6.924-6.571 11.721-16.852 10.986-26.521-.586-7.715-5.842-13.337-13.852-11.199-49.302 13.154-94.819 37.832-138.794 63.142-40.958 23.574-81.776 46.956-123.684 68.825-82.873 43.245-167.968 86.252-237.164 150.253-7.749 7.167-13.724 20.592-10.071 31.133 3.688 10.638 15.029 7.253 21.376 1.38z"/></g><path fill="#FFE5B8" d="M768.79 409.498c-2.8-3.184-6.852-4.176-11.394-2.734-.563.178-1.128.359-1.69.539l.003-.098-.36.212c-32.424 10.358-65.771 22.248-100.41 35.793-1.993-5.958-4.745-11.575-7.692-17.106-1.075-11.35-7.258-20.939-14.442-30.109-1.991-2.541-4.532-3.507-7.189-3.477a822.744 822.744 0 0 0-2.604-3.801 82.522 82.522 0 0 0 5.694-9.047c3.254-6.012 5.153-14.227 2.843-20.895-1.789-5.164-7.197-8.572-12.627-6.435a701.448 701.448 0 0 1-8.512 3.285c2.428-5.009 3.715-10.612 3.316-15.862-.617-8.141-5.672-12.332-13.573-10.978-.769.14-1.54.257-2.312.374.061-.02-.492.043-1.67.19-.254.028-.508.05-.76.075.37-.658.719-1.33 1.045-2.014 9.602.625 19.293.311 28.246-3.291 8.904-3.581 14.963-11.504 17.814-20.555 2.108-6.689 3.047-17.569-4.438-21.525-25.878-13.675-57.091-10.445-85.198-8.343a1063.54 1063.54 0 0 0-28.078 2.501c-21.737-4.178-45.445-.833-65.455 8.137-10.542 4.727-17.672 14.764-19.166 26.311-.344 2.665-.363 5.613.294 8.348a4175.95 4175.95 0 0 1-15.504 7.084c-45.961 20.929-93.487 42.569-131.561 78.28-5.683 5.33-9.677 13.171-10.685 20.972-.456 3.531-.233 10.643 3.498 14.889 1.857 2.111 4.344 3.152 7.23 3.035 9.16-.416 18.594-1.531 28.541-3.383-7.982 3.951-15.216 8.065-21.878 12.436-7.891 5.178-13.575 14.447-14.835 24.195-.562 4.349.002 10.818 3.445 14.736 1.832 2.085 4.311 3.188 7.213 3.188 17.904-.074 36.673-1.594 57.029-4.629-23.205 9.99-47.299 20.943-70.661 34.087-8.792 4.944-13.835 15.745-14.935 24.255-.729 5.631.555 10.947 3.43 14.219 2.745 3.126 6.816 4.248 11.505 3.131 19.142-4.539 35.938-8.664 51.368-12.627a1752.949 1752.949 0 0 0-11.257 4.855l-.991.246-.031.219c-9.805 4.662-16.748 14.447-18.213 25.775-.727 5.639.553 10.969 3.445 14.256 2.754 3.133 6.805 4.24 11.482 3.092l2.029-.504c-.415.213-.881.428-1.293.643l-.309.051v.055c0 .54-1.98 1.08-3.023 1.619-8.336 4.314-13.743 15.479-14.883 24.281-.728 5.645.57 10.986 3.475 14.291 2.758 3.137 6.818 4.232 11.485 3.055a720.318 720.318 0 0 0 29.751-8.213c-7.129 6.938-13.377 21.756-10.946 31.049 1.601 6.117 6.708 8.988 14.279 7.9a398.166 398.166 0 0 0 21.142-3.625c-2.745 4.322-4.565 9.298-5.223 14.391-.543 4.191.102 10.545 3.709 14.645 2.809 3.196 6.857 4.163 11.37 2.664a2548.52 2548.52 0 0 1 9.681-3.201c-3.659 4.831-6.081 10.619-6.853 16.587-.742 5.747.398 10.67 3.214 13.873 2.684 3.052 6.758 4.271 11.604 3.485.642-.105 1.282-.234 1.924-.341l-.004.019.125-.181c6.526-1.065 13.064-2.331 19.611-3.421-3.437 7.686-5.152 16.51-1.844 22.033 1.287 2.152 3.939 3.94 9.255 3.94h.033c15.085 0 30.157.276 44.827-.617.585 5.032 3.104 9.519 7.209 11.331 11.656 5.145 24.723 7.754 38.83 7.754 30.052 0 60.533-11.775 80.847-20.631 38.631-16.844 73.635-38.942 105.711-60.318l.892-.5-.008-.109c9.178-6.561 14.967-18.305 14.162-28.918-.566-7.463-5.128-12.285-11.617-12.285-.419 0-.842.021-1.268.062 10.37-8.299 19.057-17.297 26.328-27.246 5.025-6.875 9.26-17.5 6.074-26.693-1.345-3.875-4.158-6.498-7.775-7.387a246.605 246.605 0 0 0 5.555-5.075c7.279-6.865 11.537-17.178 10.846-26.274-.47-6.178-4.604-12.74-11.338-12.74-1.296 0-2.633.254-3.971.758-2.039.768-4.096 1.537-6.17 2.311 7.135-5.014 12.427-14.027 13.638-23.4.567-4.398-.396-10.924-3.852-14.856-2.834-3.222-6.874-4.112-11.297-2.429l-1.604.607.011-.292-1.175.729c-.864.323-1.738.646-2.617.97a338.267 338.267 0 0 0 17.508-14.91c5.672-5.179 9.672-13.025 10.701-20.986.607-4.701-.225-11.09-3.452-14.764a9.138 9.138 0 0 0-3.142-2.338 827.606 827.606 0 0 0 17.271-9.829c8.802-5.155 13.829-15.888 14.911-24.241.715-5.515-.726-11.237-3.664-14.585zM425.584 756.219l.006.001-.006.024v-.025z"/><path fill="#2F61DD" d="M905.737 449.139c2.311-8.363 2.158-17.99-5.498-22.879a200.439 200.439 0 0 1-17.586-12.627c-15.944-13.588-29.525-29.56-41.383-46.805-6.15-8.941-11.779-18.234-17.133-27.671a494.869 494.869 0 0 1-3.814-6.868c-.125-.229-.406-.75-.676-1.252a721.29 721.29 0 0 1-1.457-2.748c-2.658-5.04-5.238-10.121-7.789-15.215-19.602-39.165-36.79-80.014-62.228-115.912-12.137-17.128-31.306-31.296-52.151-36.204-4.799-4.234-9.68-8.339-14.545-12.338-17.295-14.215-35.942-26.724-55.939-36.82-40.024-20.208-85.717-29.62-129.894-19.285-30.862 7.22-58.77 25.141-81.08 47.27-5.388 5.344-9.634 12.538-11.107 20.159-.458.212-.917.422-1.375.636a28.233 28.233 0 0 0 1.114-4.966c.928-7.172-2.467-16.315-11.347-13.667-22.921 6.836-46.882 9.983-69.433 18.057-11.577 4.145-22.867 9.471-33.192 16.163-12.962 8.401-23.751 19.245-33.432 31.208-4.052 5.01-6.751 13.296-4.56 19.62.884 2.55 2.462 4.022 4.334 4.675a135.026 135.026 0 0 0-3.684 5.33c-3.672 5.631-6.575 11.865-6.051 18.781.504 6.639 4.939 11.187 11.743 9.498a223.382 223.382 0 0 0 17.288-5.06c-9.96 7.021-19.482 14.671-28.365 23.212-7.283 7.002-17.556 30.875-1.131 33.814 8.209 1.469 16.621 1.469 24.967.561-6.271 4.1-12.395 8.462-18.326 13.158-6.549 5.182-10.57 15.827-9.949 24.011.547 7.218 5.26 11.78 12.539 10.142 14.483-3.26 28.436-8.482 42.174-14.309-7.714 4.115-15.32 8.436-22.643 13.093-10.691 6.802-19.424 14.67-25.934 25.582-6.064 10.166-7.568 25.399 2.969 32.888 2.871 2.041 7.076 2.699 10.924 2.883a76.928 76.928 0 0 0-3.562 11.449c-12.425 9.793-22.147 23.125-28.181 37.74-2.764 6.693-5.404 13.931-2.885 21.203 2.632 7.598 10.821 8.749 17.043 4.578 7.246-4.858 14.211-10.034 20.96-15.451.356.889.716 1.777 1.089 2.662 1.847 4.379 4.123 8.58 6.471 12.707 2.574 4.527 6.602 5.475 11.24 6.773 7.062 1.977 14.83 2.767 21.734-.363 9.559-4.334 16.252-11.168 22.554-19.46 3.458-4.552 6.784-11.672 7.313-18.454a175.596 175.596 0 0 0 5.851-4.264c6.868-5.236 13.519-10.656 19.446-16.952 2.253-2.392 4.395-4.888 6.543-7.372-4.98 5.76-1.018 1.219 0 .07 2.054-2.322 4.104-4.635 6.107-6.996 4.553-5.361 8.676-11.078 12.529-16.957 6.438-9.824 11.926-20.049 16.887-30.545 4.497-6.994 8.291-14.406 11.029-22.322a73.322 73.322 0 0 0 2.617-9.717c2.484-6.324 4.902-12.674 7.373-19.004a736.934 736.934 0 0 1 3.357-8.457c.023-.059.045-.109.072-.173a389.3 389.3 0 0 1 5.766-13.124c.36-.783.718-1.611 1.065-2.465a169.729 169.729 0 0 0 3.492-6.537c2.392-4.74 3.945-10.16 3.539-15.52a19.015 19.015 0 0 0-1.046-4.811c23.625-7.895 50.104-7.262 74.571-5.326 24.373 1.93 48.84 5.961 72.477 12.357.809 1.371 1.605 2.75 2.38 4.143 4.357 8.303 8.617 16.998 11.46 25.884 3.836 11.991 7.382 24.073 10.962 36.142 2.664 8.977 5.324 17.957 8.084 26.905-4.91 11.044-6.088 24.444 6.953 27.382.709.16 1.42.305 2.131.444 2.275 6.517 4.659 12.997 7.209 19.42 9.032 22.753 20.277 45.522 35.363 64.919 9.533 12.256 21.413 22.541 33.564 32.322 7.998 14.086 17.16 27.529 26.587 40.682 19.371 27.027 40.25 53.326 63.056 77.549 4.414 4.688 10.322 4.162 15.516.959 8.865-5.467 13.246-15.168 15.285-24.949 4.199-20.154.195-40.574-5.196-60.078-.218-.791-.441-1.58-.664-2.369 4.671 2.712 9.146 5.746 13.427 9.037.236.215 2.114 1.732 2.213 1.818 1.104.959 2.167 1.961 3.23 2.964 2.514 2.372 4.855 4.917 7.121 7.524 5.635 6.486 14.277 2.588 19.457-2.305 7.153-6.758 14.61-21.18 10.104-31.23-5.738-12.799-13.066-24.805-20.566-36.628-1.063-1.675-2.131-3.349-3.197-5.022 1.883-.335 3.764-.682 5.639-1.051 14.389-2.832 28.478-7.803 40.404-16.512 7.768-5.673 13.233-13.957 14.486-23.648.894-6.885-1.223-13.728-6.809-15.686zm-635.561-42.854c.103-.096.205-.191.31-.285-.757 1.242-.721.979-.31.285zm97.301-23.505c-3.978 4.099-8.125 8.028-12.359 11.86a297.164 297.164 0 0 1-6.786 5.948c.662-.757 1.326-1.511 1.988-2.267l5.029-5.736a1271.06 1271.06 0 0 1 3.23-3.667c.3-.339.604-.677.904-1.015a316.729 316.729 0 0 0 9.474-6.668c-.493.517-.983 1.034-1.48 1.545zm37.213-152.345c-8.508 3.687-16.926 7.585-25.33 11.501-4.491 2.094-8.973 4.207-13.457 6.314-2.047.961-4.096 1.922-6.145 2.881l-3.688 1.721c-.235.109-1.33.615-1.991.923-6.795 3.126-13.633 6.191-20.537 9.095 9.868-5.008 19.812-9.873 29.713-14.807 15.635-7.791 31.415-15.838 46.589-24.826a115.307 115.307 0 0 0-5.154 7.198zm100.888 26.114a85.245 85.245 0 0 0 1.68-.512c4.079.217 8.157.477 12.228.777 3.055.727 6.426.799 8.893.758.094-.002.186-.01.278-.012l1.72.154c4.987.701 9.982 1.35 14.985 1.933 2.456.815 4.903 1.654 7.345 2.515-6.386-.377-12.771-.789-19.154-1.189-9.273-2.026-18.615-3.566-27.975-4.424zm-17.147-28.672a67.851 67.851 0 0 0 2.592 2.449c-.933.398-1.879 1.299-2.678 2.421-.394.013-.787.026-1.184.033-.637.011-1.287.216-1.919.561a213.092 213.092 0 0 0-16.976-.825c.406-1.459.7-2.945.852-4.457 6.41-.705 12.889-.723 19.313-.182zm-64.245 48.098c7.284-4.691 14.298-9.757 20.948-15.277 1.398.162 2.798.318 4.197.465-3.584 1.207-7.835 12.071-2.469 11.465 2.201-.248 4.402-.457 6.604-.648-5.296 1.328-10.49 2.984-15.535 5.042-.576.235-1.127.755-1.604 1.415-.087-.029-.168-.069-.257-.094a80.895 80.895 0 0 0-11.884-2.368zm179.749-57.397a136.012 136.012 0 0 0-6.494-6.678c.834-.066 1.668-.133 2.503-.191 4.309-.306 8.628-.521 12.95-.615a106.727 106.727 0 0 0-8.959 7.484zm79.074 193.529c-.151-.326-.307-.652-.457-.979a320.163 320.163 0 0 1-1.589-3.535 306.001 306.001 0 0 0 9.962-2.836 137.892 137.892 0 0 0-7.916 7.35zm38.597 40.291c-.453.451-.898.916-1.334 1.393-.229-.312-.453-.629-.683-.941-2.222-3.021-5.243-3.939-8.38-3.648 8.403-3.178 16.598-7.064 24.734-10.874-4.783 4.686-9.593 9.344-14.337 14.07zm29.965-108.556a39.902 39.902 0 0 0 3.246-6.719c.664.779 1.334 1.556 1.996 2.337.856 1.011 1.719 2.022 2.58 3.034-2.613.381-5.222.832-7.822 1.348zm21.953 171.924l-.039.06a317.434 317.434 0 0 0-3.191-3.043 1276.05 1276.05 0 0 1 6.332-3.993c.843-.527 1.695-1.039 2.543-1.557a1655.143 1655.143 0 0 1-5.645 8.533zm23.69-101.569a175.983 175.983 0 0 0 3.1-5.266c.016-.029.032-.062.049-.09.894 1.418 1.81 2.822 2.712 4.234-1.978.29-3.931.665-5.861 1.122zm40.802 53.094c.171-1.021.327-2.044.468-3.068.066-.49.117-1.008.152-1.541.141-.385.285-.768.424-1.152l1.43 1.634c.498.567 1.002 1.13 1.506 1.693l1.053.866c.014.04.174.213.485.521-1.844.33-3.684.676-5.518 1.047zM213.77 714.073c15.204-18.005 30.745-35.734 42.935-55.996 12.476-20.737 18.548-42.797 18.486-66.933-.004-1.819-1.5-3.229-3.312-2.679-2.22.675-3.56 2.931-4.303 4.965-12.509 34.215-14.915 73.58-43.074 99.705-2.015 1.869-3.388 4.895-3.177 7.667.212 2.791 2.779 4.425 5.239 2.67 16.362-11.67 25.462-31.038 31.99-49.479 6.924-19.563 11.368-40.093 16.293-60.227l-7.615 2.286c4.502 44.593-30.766 82.016-56.903 113.718-2.836 3.441-.212 8.628 3.441 4.303z"/><g fill="#2F61DD"><path d="M235.198 755.873c.021-.055.045-.107.067-.16.048-.119.037-.09-.067.16z"/><path d="M381.554 702.555c-11.367-11.076-24.271-20.612-35.902-31.433-10.609-9.87-20.854-20.536-28.964-32.62 2.633-9.592 4.782-20.975 3.118-30.77-.811-4.765-1.637-9.529-3.479-14.006-2.215-5.384-5.343-8.919-9.785-11.764-5.439-6.207-14.049-4.851-20.446-.906-8.733 5.387-16.259 15.707-18.748 25.67-3.151 12.615-4.292 25.199-2.683 37.742a118.62 118.62 0 0 1-4.268 5.715c-.365.462-.741.916-1.117 1.371-4.138 4.43-8.416 8.719-12.939 12.761-1.777 1.59-3.611 3.116-5.462 4.62-2.909 2.17-5.779 4.375-8.522 6.75-.833.723-2.891 2.355-4.221 3.412a159.55 159.55 0 0 1-5.209 3.635 113.06 113.06 0 0 1-7.389 4.486 86.167 86.167 0 0 1-3.27 1.72l-.049.021c-9.605 4.101-16.12 12.271-19.252 22.213-2.373 7.527-3.148 24.307 8.85 24.313 20.863.013 40.666-7.803 57.721-19.62-3.955 5.701-7.994 11.342-11.752 17.176-3.137 4.873-6.193 9.824-8.918 14.943-.975 1.832-1.857 3.711-2.707 5.604-.31.703-.607 1.412-.896 2.125-.396.977-5.179 12.676-1.434 3.609-2.62 6.34-5.118 13.199-2.732 20.087 2.017 5.823 6.608 7.104 12.138 6.185 20.441-3.4 40.463-8.311 60.234-14.506 9.571-2.998 19.049-6.318 28.552-9.523 9.513-3.209 18.921-5.873 28.63-8.427 8.849-2.327 15.793-11.167 19.723-18.878 4.013-7.879 8.94-24.14 1.178-31.705zm-74.31-89.762c.745-2.158 2.246-5.314 0 0zm-40.691 12.664a4.33 4.33 0 0 1-.015-.056c.148-4.262.152-4.242.015.056z"/></g><path fill="#2F61DD" d="M819.747 710.919c-.764-.638-2.992-2.999-3.43-3.397a73.615 73.615 0 0 1-2.215-2.941c-.709-.982-1.361-2.002-2.015-3.021-.291-.453-1.583-2.77-1.76-3.029-2.468-4.951-4.337-10.197-5.925-15.488-.828-2.76-1.527-5.56-2.191-8.363-.176-.745-.711-3.328-.553-2.443a147.5 147.5 0 0 0-.658-3.145c-1.146-5.975-2.111-11.984-3.133-17.982-4.266-25.043-9.483-52.193-29.559-69.785-3.783-3.314-7.113-4.805-12.236-3.249-5.424 1.647-.92 5.774-4.028 10.429-17.269 25.854-18.294 42.921-26.759 59.152-4.724 9.057-26.035 18.562-31.277 27.329-.566.89-1.131 1.782-1.705 2.668a245.86 245.86 0 0 1-4.44 6.58c-3.344 4.815-6.93 9.456-10.681 13.958-3.315 3.979-5.828 9.218-7.188 14.635-4.827 3.046-8.866 8.529-10.94 12.601-3.517 6.903-7.275 21.642 1.992 26.257 1.528.762 3.064 1.508 4.605 2.239 1.27 7.899 7.513 15.083 16.357 11.812a119.296 119.296 0 0 0 5.869-2.361 331.31 331.31 0 0 0 9.523 3.447c13.131 4.529 26.828 8.828 40.578 10.91 6.041.914 12.312-5.273 15.471-9.541 4.566-6.17 6.756-13.234 6.717-20.85-.002-.268-.012-.536-.016-.805.744.182 1.48.373 2.23.545 12.492 2.848 24.639 4.106 37.41 3.002 8.84-.764 15.169-7.328 19.055-14.955a34.459 34.459 0 0 0 3.535-11.109c.46-3.548.57-10.419-2.633-13.1z"/><path fill="#2F61DD" d="M722.425 772.58c5.468 3.616 11.203 6.879 16.317 10.998l-3.048-2.508a63.361 63.361 0 0 1 3.403 3.088c7.935 7.742 18.094.504 23.442-6.721 3.658-4.942 6.236-10.895 7.027-17.013.521-4.024.491-10.521-2.753-13.685-6.823-6.657-14.878-11.376-22.769-16.594-3.624-2.397-9.094-.419-12.302 1.56-4.976 3.068-8.804 7.924-11.428 13.074-4.218 8.285-7.092 21.715 2.111 27.801z"/><path fill="#219DF9" d="M297.526 507.637c62.766-37.05 103.812-106.784 122.935-175.522 2.202-7.914 1.061-17.72-9.147-16.333-12.572 1.708-24.243 7.298-35.911 11.976-5.71 2.29-11.499 4.361-17.474 5.845-5.493 1.365-10.79 1.044-17.075.535-4.614-.374-9.256-.833-13.789-1.804 3.385.726-.215-.145-1.128-.595-.998-.492-1.844-1.692 1.06 1.009a3.061 3.061 0 0 1-.407-.509c1.176 1.577 1.793 3.354 1.852 5.334-.354-1.938-.386 4.863-.073 2.842-.898 5.804-1.126 4.575-.581 2.999.29-.836-2.442 5.716-.625 1.609 2.25-5.087 3.781-9.497 4.949-14.889 3.946-18.222-7.094-34.709-22.335-43.476-12.646-7.274-27.413-9.852-40.058-17.119-1.356-.78-2.652-1.657-3.915-2.581-2.202-1.611 2.109 1.86.085.074-.56-.494-1.08-1.03-1.599-1.566-1.031-1.066-1.92-2.257-2.743-3.488-1.518-2.268 1.353 2.811.132.338-.457-.926-.803-1.902-1.131-2.879-.312-.927-.892-3.792-.042.542-.167-.849-.251-1.711-.338-2.571-.092-.914-.103-1.834-.115-2.751.066 4.843-.023 1.394.079.274.099-1.076.275-2.144.448-3.21.651-4.012-1.048 4.107-.018-.045.575-2.317 1.352-4.592 2.132-6.847.311-.898.646-1.787.983-2.675 1.307-3.456-1.954 4.614-.532 1.258a86.668 86.668 0 0 1 2.251-4.828 78.232 78.232 0 0 1 2.442-4.469c1.736-2.979-2.777 4.388-.928 1.522a66.498 66.498 0 0 1 1.808-2.629 63.726 63.726 0 0 1 2.852-3.659c2.025-2.44-3.229 3.572-1.104 1.256.499-.544 1.019-1.069 1.538-1.594a56.488 56.488 0 0 1 4.835-4.295c-4.523 3.613-1.622 1.283-.531.522 2.254-1.571 4.658-2.92 7.126-4.122-4.8 2.336-.266.182.937-.277a57.126 57.126 0 0 1 8.46-2.43c1.046-.222 5.904-.924 1.392-.33 2.983-.393 5.997-.527 9.004-.52 6.024.015 12.03.853 17.903 2.155.728.162 1.452.34 2.176.518-3.476-.855-.852-.217-.139-.019 1.463.406 2.913.859 4.358 1.327 3.189 1.032 6.319 2.24 9.407 3.541 12.346 5.201 23.818 12.437 34.211 20.855-2.856-2.313 1.238 1.084 1.917 1.678a148.595 148.595 0 0 1 3.604 3.271 146.422 146.422 0 0 1 7.378 7.428 131.665 131.665 0 0 1 12.249 15.359 112.762 112.762 0 0 1 4.818 7.747c.415.728 1.709 3.162-.156-.335a94.969 94.969 0 0 1 3.186 6.617 84.641 84.641 0 0 1 3.021 8.022c.429 1.33.805 2.676 1.161 4.027.176.668.333 1.341.489 2.014.844 3.628-.501-2.79-.06-.349.478 2.649.752 5.331.883 8.018.072 1.477-.062 6.674.146.396-.051 1.536-.195 3.067-.377 4.592a51.637 51.637 0 0 1-.644 3.891c1.365-6.866.369-1.728-.118-.088-.379 1.278-.836 2.533-1.317 3.776 2.815-7.274.557-1.485-.341.251-.795 1.537-3.375 5.628.567-.693-.757 1.213-1.586 2.38-2.436 3.53-.962 1.301-4.738 5.616-.197.496-1.023 1.154-2.111 2.25-3.216 3.326a71.815 71.815 0 0 1-4.874 4.268c4.067-3.288 1.589-1.23.659-.542-2.91 2.15-5.993 4.059-9.138 5.842l13.4 16.222c8.477-23.436 10.963-49.284 2.721-73.143-7.66-22.175-23.678-39.307-42.037-53.238-14.678-11.138-30.04-19.039-48.367-21.824-7.682-1.167-15.739-1.137-23.269.956-12.665 3.52-21.171 14.445-25.647 26.257-4.373 11.541-3.168 27.455 3.889 37.77 4.938 7.218 15.145 10.402 23.047 12.785 5.679 1.713 11.453 3.125 17.206 4.562 2.604.651 5.209 1.294 7.812 1.95.742.188 1.484.377 2.226.568-1.489-.387-1.497-.386-.024.002 1.449.385 2.892.79 4.333 1.199 4.989 1.418 9.924 3.056 14.661 5.181a45.55 45.55 0 0 1 5.493 2.954c.821.514 3.775 2.947.522.185.748.636 1.412 1.358 2.053 2.099l18.322-35.958c-8.448-1.411-16.216-4.186-25.071-7.974-9.096-3.892-17.897-8.454-26.762-12.836-18.281-9.035-37.359-17.328-57.927-18.983l2.32 30.595c1.429-1.719 1.238-1.51-.574.625a53.627 53.627 0 0 1 2.102-2.083c.634-.611 5.64-4.517 1.998-1.818 1.614-1.196 3.326-2.252 5.045-3.288.515-.311 5.901-3.068 2.859-1.672 7.9-3.625 15.07-5.09 21.642-5.181l4.915-37.415c-16.05 11.392-29.695 25.014-33.625 45-2.586 13.153 4.214 23.357 14.136 30.831 7.859 5.919 17.197 9.833 25.987 14.126 4.558 2.226 9.088 4.52 13.443 7.125a70.156 70.156 0 0 1 5.554 3.689c3.165 2.329-2.179-1.943.1.035a32.39 32.39 0 0 1 2.442 2.375 24.11 24.11 0 0 1 2.012 2.494c2.487 3.493-1.287-3.164.089.092.218.517.386 1.052.544 1.589.856 2.902-.724-4.35-.413-2.086.639 4.646.642-4.899.079-.822-.371 2.687 1.611-6.286.616-2.8-.527 1.843-2.116 5.028 1.253-2.829-.294.685-.644 1.345-.998 2.001-1.468 2.719 3.771-5.798 1.358-2.219-1.142 1.693-5.864 6.941-.532 1.04-1.509 1.67-3.142 3.225-4.801 4.743-6.286 5.75-10.523 15.254-9.873 23.826.568 7.497 5.198 11.264 12.443 10.064 8.232-1.364 15.878-2.594 23.253-6.781 10-5.678 16.685-16.425 21.746-26.363 2.883-5.662 4.777-12.969 2.614-19.213-2.618-7.556-9.475-7.04-15.443-4.148 3.412-1.653-1.104.483-1.49.65-1.843.798-3.689 1.588-5.52 2.417-5.148 2.333-9.345 4.521-13.637 8.298-5.293 4.658-8.817 12.142-9.712 19.061-.519 4.009-.166 13.007 5.163 14.411 7.236 1.906 12.761 2.363 20.168 1.234 7.287-1.111 13.579-5.656 19.172-10.114 12.568-10.021 19.253-27.26 21.671-42.643.625-3.978.172-8.895-2.447-12.166-3.354-4.188-9.601-3.758-13.646-.843-5.045 3.635-10.344 7.248-14.618 11.798-6.454 6.872-10.077 14.158-12.13 23.372-2.363 10.606 5.062 18.81 10.127 27.1 3.975 6.506 13.602 1.731 17.374-2.058 5.12-5.144 8.806-10.696 12.047-17.169 4.044-8.08 5.826-18.456-1.873-24.691 2.121 1.717-2.27-2.024-2.86-2.562-1.875-1.705-3.675-3.49-5.458-5.29-3.407-3.438-6.647-7.041-9.853-10.666-7.021-7.938-13.769-16.114-20.932-23.927-14.128-15.41-30.672-30.275-51.121-36.293-7.458-2.194-13.595 2.217-17.975 8.134-4.817 6.508-10.104 19.717-3.768 27.056 18.759 21.73 39.795 41.936 61.347 60.853 12.061 10.587 24.569 21.21 38.43 29.397 5.225 3.087 10.502 5.207 16.405 6.608 7.334 1.741 13.712-1.784 19.298-6.161 7.118-5.578 11.826-18.524 8.811-27.23-3.375-9.74-12.886-5.763-18.697-1.209 3.254-2.352 4.176-3.092 2.765-2.22 4.032-2.444 3.915-1.657 2.392-1.158-2.488.815 4.333-.149.848-.15-.769 0-1.536-.113-2.293-.236-2.834-.461 3.477 1.152-.291-.096-4.94-1.637-9.524-4.396-13.889-7.175-5.799-3.691-11.293-7.861-16.672-12.134-.601-.478-4.802-3.91-2.186-1.75a404.21 404.21 0 0 1-4.917-4.138 499.724 499.724 0 0 1-9.94-8.738c-19.964-17.965-39.498-37.02-56.982-57.441l-21.743 35.19c20.718 6.191 33.611 18.771 47.473 34.145 13.873 15.387 26.431 31.759 42.604 44.88l-1.873-24.691c-.833 1.664-4.36 7.679.144.481-1.486 2.375 4.373-4.497.633-.744l17.374-2.058c-1.383-2.268-2.853-4.474-4.339-6.675a85.231 85.231 0 0 1-1.448-2.219c-1.445-2.284 1.436 3.465.177.124l-.173-.586c1.14 3.644.989 7.338-.451 11.083a26.721 26.721 0 0 1-3.881 7.597c1.191-1.532.621-.906-1.711 1.878 1.086-1.156 2.335-2.165 3.554-3.175-3.582 2.97 2.276-1.639 2.921-2.104l-16.093-13.008a49.25 49.25 0 0 1-.479 2.777c.656-2.835.702-3.2.14-1.094a42.856 42.856 0 0 1-.847 2.545c1.361-3.169 1.565-3.707.613-1.612a37.062 37.062 0 0 1-1.191 2.257c1.914-2.997 2.225-3.554.935-1.671-1.333 1.697-.954 1.328 1.14-1.108-.792.888-1.689 1.672-2.585 2.452 3.959-3.445.111-.358-1.134.305 3.844-2.047-.624-.053-1.709.221-1.609.305-1.576.319.099.043-.841.065-1.683.091-2.526.077a28.902 28.902 0 0 1-2.614-.164c.037.003-4.254-.78-2.075-.205l-4.549 33.471c-4.075 3.582-1.577 1.28-.148.492 3.897-2.151-3.116 1.308 1.342-.646 4.009-1.757 8.02-3.479 11.963-5.387l-12.829-23.361a103.166 103.166 0 0 1-2.733 5.035c3.405-5.844.68-1.311-.33-.033 5.189-6.574-3.033 1.815 3.121-2.896-1.005.77-4.762 2.592.058.38-5.25 2.41-11.465 2.882-17.096 3.811l2.57 33.89c12.688-11.593 24.704-28.655 22.789-46.775-1.28-12.108-9.257-20.064-19.022-26.38-8.569-5.542-18.072-9.534-27.16-14.121-4.287-2.164-8.524-4.455-12.498-7.159a51.394 51.394 0 0 1-2.5-1.827c-1.764-1.362 2.869 2.415 1.198.988-.362-.309-.711-.633-1.06-.957a22.767 22.767 0 0 1-3.667-4.36c-1.427-2.224 1.75 4.148.379.431-1.466-3.977.377 4.309.143.697-.156-2.398-.283 5.56-.121 3.139.118-1.755 1.028-4.933-.797 3.026 1.179-5.142-2.791 5.544-.607 1.259.814-1.597 2.555-4.104-1.886 2.958.419-.667.887-1.302 1.357-1.934 1.023-1.373 3.625-4.24-1.387 1.424a48.924 48.924 0 0 1 1.988-2.086c1.541-1.553 3.197-2.99 4.875-4.391 3.683-3.075-2.734 2.035-.076.018a126.108 126.108 0 0 1 3.316-2.409c7.284-5.164 12.355-13.11 13.513-22.058.741-5.725-.842-15.458-8.598-15.357-24.773.322-47.154 12.811-62.714 31.662-5.559 6.736-12.365 29.401 2.32 30.595 10.154.825 17.398 2.77 26.72 6.182 9.368 3.429 18.378 7.796 27.342 12.152 17.97 8.733 35.987 17.583 55.921 20.754 7.529 1.198 14.646-8.14 17.496-13.732 3.041-5.968 5.945-16.394.826-22.226-11.934-13.597-33.833-16.214-50.369-20.21a527.17 527.17 0 0 1-6.557-1.628c3.06.782-.444-.136-.892-.258a178.877 178.877 0 0 1-3.044-.871c-3.931-1.152-7.811-2.5-11.519-4.247a32.948 32.948 0 0 1-4.092-2.325c-.833-.549-2.64-2.271.451.453-.48-.424-.904-.904-1.322-1.388-.735-.849-1.795-2.965.425 1.213-.372-.7-.602-1.529-.858-2.265-.391-1.121-.705-2.266-1.013-3.412-.786-2.914.38 3.292-.124-1.063-.151-1.305-.046-4.748-.238 1.052.026-.794.15-1.58.279-2.362l-.761 3.496c.646-1.972.198-.942-1.342 3.089 1.279-2.952-3.348 4.956-1.505 2.371-3.372 4.73-2.993 3.198-1.572 1.882-3.96 3.669-2.913 2.154-1.487 1.252 1.04-.657 3.485-1.56-1.247.481.882-.38 1.809-.653 2.731-.917.725-.207 1.467-.352 2.206-.498 2.827-.562-3.397.363-.466.055 1.65-.173 3.314-.198 4.972-.191 3.81.015 7.62.497 11.375 1.101 1.753.282 3.492.642 5.226 1.023.851.187 1.695.397 2.541.606-3.546-.879-.674-.156.034.045a82.572 82.572 0 0 1 9.272 3.247c10.129 4.239 19.749 11.185 28.379 17.889 12.455 9.676 24.486 24.674 29.397 38.892.658 1.905 1.195 3.85 1.7 5.8.196.785.38 1.574.551 2.365-.758-3.371.065.605.144 1.101.323 2.039.514 4.095.673 6.152.097 1.254.135 2.512.172 3.769.021.68-.042 4.979.088.875-.156 4.913-.849 9.796-1.788 14.615.898-4.611-.718 2.685-1.015 3.747-.809 2.892-1.785 5.734-2.806 8.557-1.676 4.632-2.114 11.363 1.173 15.467 3.232 4.035 8.321 2.971 12.228.755 28.464-16.144 48.24-46.051 45.469-79.512-2.221-26.812-18.317-51.169-37.447-69.203-20.207-19.049-45.281-33.662-72.982-37.977-28.762-4.481-55.956 7.898-72.772 31.449-11.729 16.426-20.472 38.063-19.619 58.445.73 17.457 12.962 28.375 28.08 34.678 6.85 2.856 13.982 4.988 20.902 7.663 3.288 1.271 6.512 2.695 9.639 4.324a56.633 56.633 0 0 1 4.413 2.59 46.68 46.68 0 0 1 2.067 1.435c2.766 1.998-.721-.712.812.664 2.482 2.23 4.525 4.886 6.18 7.773-1.432-2.498.058.385.245.83.357.846.626 1.725.892 2.602.894 2.959-.48-3.292-.061-.396.193 1.331.024 5.1.254-.485-.028.67-.124 1.336-.219 2-.409 2.844 1.169-4.699.453-1.993-.294 1.109-.703 2.188-1.125 3.253 2.809-7.095 1.201-2.991.51-1.349-.872 2.072-2.062 4.518-2.652 6.822-2.026 7.907-2.209 18.33 6.954 21.652 8.626 3.127 19.335 3.555 28.378 3.38 24.438-.475 44.375-17.62 68.109-21.027l-9.147-16.333a338.694 338.694 0 0 1-7.004 22.547c-1.328 3.805-2.751 7.575-4.217 11.329-.372.945-.748 1.888-1.127 2.829.785-1.895.785-1.898-.001-.01a335.09 335.09 0 0 1-2.431 5.643c-3.323 7.568-6.979 14.986-10.862 22.281-1.953 3.67-4.004 7.287-6.101 10.877-.33.565-3.681 6.082-1.656 2.817-2.628 4.255-3.176 5.145-1.644 2.668-.554.884-1.113 1.766-1.676 2.644-4.474 7.016-9.295 13.805-14.365 20.401-2.517 3.274-5.138 6.467-7.808 9.617a247.88 247.88 0 0 1-2.016 2.335c.947-1.08.804-.929-.429.451a238.153 238.153 0 0 1-4.198 4.505c-11.702 12.317-22.987 21.689-36.908 30.34-6.164 3.831-10.381 12.047-9.832 19.295.505 6.71 6.07 9.332 11.744 5.983z"/><path fill="#219DF9" d="M373.157 339.3c.03-.593.097-1.172.189-1.759.368-2.334-1.229 4.898-.353 1.656.403-1.491.931-2.949 1.477-4.393.111-.292.225-.583.34-.873.636-1.587.209-.552-1.281 3.105 1.431-3.479 2.24-5.79 3.038-9.416.377-1.713.563-2.83.358-4.934-.389-3.996-2.402-8.238-6.976-8.453-6.517-.306-11.401 6.137-14.188 11.136-.988 1.772-1.612 3.79-2.224 5.736-1.465 4.661-2.188 12.506 3.139 15.22 5.277 2.689 11.316-2.442 14.158-6.407 1.328-1.853 2.491-2.063-1.805 1.824l-14.987-12.186c1.214-4.681 2.411-5.335 1.464-3.73-1.012 1.715-1.5 3.001-2.31 5.226a85.445 85.445 0 0 0-1.244 3.656c-1.604 5.1-2.529 10.167-2.501 15.505.029 5.444 4.482 9.669 9.915 8.019 7.286-2.212 13.419-11.515 13.791-18.932z"/><path fill="#219DF9" d="M295.561 327.463a51.634 51.634 0 0 1 2.221 3.006c1.988 2.914-.637-1.65.727 1.297.418.902.712 1.854 1 2.804.923 3.038-.317-2.684-.009.345.32 3.146.328-3.388.064-.295-.103 1.207-.958 4.104.272-.744-.212.836-.514 1.646-.815 2.453 1.969-5.272.918-2.311.309-1.094-.397.792-.844 1.558-1.287 2.324 2.917-5.048 1.298-2.088.575-.979-.974 1.493-2.003 2.95-3.022 4.412-2.729 3.917-5.361 7.92-7.669 12.102-9.375 16.981-7.831 41.771 13.747 46.902 7.687 1.828 15.766.58 23.458-.514 8.627-1.227 17.14-3.923 25.383-6.677 15.108-5.049 31.909-10.767 44.03-21.438 6.264-5.515 10.375-15.172 9.743-23.512-.696-9.177-8.306-12.769-16.064-8.186-.619.366-1.251.7-1.894 1.021-2.219 1.109 4.296-1.938 1.915-.879-1.663.739-3.413 1.48-5.02 2.387-2.758 1.557-5.605 2.957-8.463 4.319-1.549.727-1.096.521 1.362-.616-.881.406-1.768.801-2.654 1.196a264.491 264.491 0 0 1-17.942 7.164c-8.021 2.884-16.167 5.123-24.449 7.106-1.662.398-3.335.739-5.013 1.059-.959.183-1.924.335-2.889.487 3.831-.6.672-.108-.112-.027-3.22.333-6.469.347-9.676-.105-3.449-.486 2.429.959-.646-.173-1.325-.487-4.222-2.894-.924-.022-1.086-.946-2.007-2.227-2.854-3.378-1.759-2.393 1.166 2.693.051.131-.465-1.067-.798-3.63-.028.854-.674-3.923-.628 3.863-.034-.098-.826 5.504-.741 3.127-.255 1.6.998-3.139-2.075 4.717-.695 1.631 1.41-3.155 3.291-6.101 5.08-9.048 9.898-16.302 15.892-36.738 1.393-52.347-10.299-11.089-26.691 15.741-18.916 25.532zm196.43-145.617a131.165 131.165 0 0 1 5.419-2.883c.553-.277 3.623-1.678.446-.24a86.154 86.154 0 0 1 2.58-1.103c3.498-1.45 7.112-2.604 10.788-3.505 1.574-.386 3.168-.682 4.767-.943 2.782-.455-2.851.331-.1.035.754-.081 1.512-.13 2.27-.18 3.16-.205 6.341-.032 9.486.295 1.412.147 2.812.388 4.205.661.689.135 1.373.301 2.057.467-3.599-.873-1.144-.272-.373-.036 2.894.886 5.675 2.109 8.355 3.504 2.532 1.319 4.928 2.889 7.233 4.569.59.43 1.164.88 1.738 1.33 2.126 1.665-2.316-1.961-.257-.199 1.331 1.139 2.601 2.348 3.848 3.578 4.751 4.688 8.836 10.025 12.635 15.497 1.959 2.821 3.779 5.735 5.53 8.688a172.263 172.263 0 0 1 2.629 4.621c1.55 2.807-1.537-2.904-.034-.055a201.14 201.14 0 0 1 1.661 3.236c7.248 14.359 12.719 29.492 17.826 44.716 9.771 29.122 16.603 59.071 24.279 88.78 10.003 38.714 24.495 76.623 41.706 112.671 15.973 33.455 35.086 65.46 58.023 94.617 23.673 30.094 52.075 58.617 84.627 79.041 5.862 3.678 13.469-3.312 16.567-7.497 2.972-4.015 5.066-8.85 5.709-13.82.403-3.115.451-8.72-2.236-11.116-19.642-17.518-39.136-34.79-57.059-54.119-16.992-18.324-32.224-38.235-45.834-59.183-6.764-10.411-13.059-21.121-19.008-32.016-2.35-4.302 1.296 2.451-1.006-1.881a548.7 548.7 0 0 1-6.161-12c-2.92-5.844-5.713-11.75-8.433-17.69-10.701-23.37-19.89-47.447-28.141-71.782-19.462-57.395-27.105-118.507-57.107-172.062-10.018-17.882-24.146-35.724-43.722-43.566-23.098-9.253-47.259-.929-66.985 12.279-6.571 4.4-11.222 12.807-10.614 20.831.561 7.366 6.527 9.921 12.686 6.46z"/><path fill="#219DF9" d="M622.516 319.995c6.85-41.038-17.093-82.188-43.244-111.85-13.915-15.783-30.381-29.918-48.627-40.457-15.772-9.11-36.054-17.241-54.451-13.145-11.24 2.503-23.721 30.623-7.462 33.378 3.62.613 7.235 1.007 10.878 1.44 1.739.207 3.464.516 5.185.835 1.051.195 2.095.43 3.138.665 3.486.786-2.341-.677 1.139.291 8.517 2.368 16.633 6.068 24.355 10.329 17.573 9.697 30.679 21.155 44.159 35.94 6.522 7.154 12.501 14.796 17.99 22.767 2.687 3.9 5.173 7.93 7.618 11.985 2.905 4.819 3.595 6.139 6.153 11.467 3.929 8.182 6.5 16.605 9.173 25.235.526 1.698.938 3.437 1.346 5.167.811 3.435-.455-2.645.187.824.189 1.021.34 2.048.489 3.076.568 3.892 1.004 7.758 1.029 11.696.03 4.81 3.956 8.544 8.76 7.085 6.972-2.118 11.073-10.064 12.185-16.728z"/><path fill="#219DF9" d="M709.812 465.454c-5.366-21.767-11.149-42.712-11.928-65.166a93.704 93.704 0 0 1-.033-3.711c-.015 3.109.06-.65.091-1.093.085-1.222 1.276-7.965.231-3.339.593-2.624 1.456-5.193 2.384-7.715-1.328 3.611.211-.306.498-.899.392-.812 3.273-5.407.857-1.705.633-.97 1.34-1.889 2.045-2.806 2.334-3.033-2.176 2.248.412-.49.752-.796 1.562-1.537 2.369-2.276.378-.347 3.206-2.604.613-.618 3.707-2.839 7.853-5.076 12.041-7.108 3.224-1.563-2.074.913 1.225-.551 1.006-.447 2.021-.875 3.036-1.301 2.033-.854 4.102-1.629 6.154-2.435 5.113-2.005 10.173-4.105 15.141-6.452 10.691-5.051 19.801-11.887 27.511-20.863 16.928-19.708 23.532-45.561 17.272-70.713-5.089-20.452-18.244-38.826-31.568-54.728-12.961-15.47-27.636-29.347-41.235-44.231-9.303-10.182-20.808 11.219-20 18.969.432 4.146.671 8.295.651 12.465-.016 3.34.147-2.956-.011.305a80.904 80.904 0 0 1-.194 2.742c-.168 2.029-.452 4.047-.79 6.055a68.099 68.099 0 0 1-.477 2.454c.944-4.555.35-1.641.091-.649-.395 1.506-.875 2.987-1.386 4.457a55.793 55.793 0 0 1-.801 2.119c1.97-5.01.936-2.297.432-1.191-.697 1.529-1.493 3.011-2.326 4.469-1.45 2.538 2.317-3.651.75-1.203a59.077 59.077 0 0 1-3.676 5.044c-2.948 3.674 1.923-2.003-.562.663a74.21 74.21 0 0 1-3.398 3.381c-2.004 1.888-4.126 3.65-6.287 5.354 3.938-3.103-.099.028-1.038.712a170.708 170.708 0 0 1-3.999 2.807c-10.574 7.245-21.56 13.733-31.666 21.656-11.378 8.921-20.99 20.207-27.265 33.288-12.396 25.839-10.533 54.599-4.499 81.85 1.744 7.879 11.089 4.627 14.963.968 5.929-5.601 8.766-13.858 7.051-21.792-1.749-8.091-3.272-19.43-3.401-29.225a103.9 103.9 0 0 1 .02-3.207c-.062 3.821.01.326.051-.393.11-1.955.311-3.902.546-5.845.223-1.834.535-3.657.881-5.472.624-3.266-.897 3.751-.134.57.267-1.108.578-2.205.897-3.298.462-1.58.99-3.136 1.557-4.681.436-1.189 1.725-4.086-.501 1.16.305-.719.637-1.426.968-2.132.648-1.382 1.372-2.728 2.119-4.059.628-1.118 2.283-3.691-.783 1.205a62.846 62.846 0 0 1 1.64-2.458 66.677 66.677 0 0 1 4.009-5.164c1.873-2.213-2.738 3.041-.782.905 2.093-2.285 4.352-4.412 6.678-6.455a107.24 107.24 0 0 1 3.279-2.745c.771-.625 2.958-2.308-.653.483.565-.437 1.138-.865 1.709-1.293 2.479-1.857 5.025-3.624 7.588-5.364 4.912-3.336 9.923-6.524 14.842-9.849 11.318-7.649 22.012-16.172 30.271-27.163 14.019-18.656 18.173-42.167 15.544-64.984l-20 18.969c14.396 15.32 29.851 29.59 43.515 45.602 7.203 8.44 13.854 17.378 19.393 27.003 4.7 8.165 7.978 18.19 8.824 26.165.126 1.189.183 2.384.239 3.578.013.289-.018 4.225.085 1.372-.087 2.409-.407 4.802-.808 7.177-.674 4.001.784-2.892-.255 1.067a71.284 71.284 0 0 1-1.062 3.589c-.188.588-1.758 4.519-.267.978-.69 1.64-1.507 3.224-2.337 4.797-.196.374-2.569 4.221-.706 1.304-.787 1.232-1.647 2.416-2.506 3.598-.895 1.233-1.859 2.414-2.821 3.593-3.079 3.776 1.58-1.485-1.335 1.262-.877.826-1.804 1.597-2.729 2.366 2.204-1.833-.799.553-1.069.745-2.197 1.56-4.525 2.928-6.88 4.234-4.587 2.545-5.448 2.798-10.583 4.916-4.43 1.826-8.896 3.563-13.33 5.379-9.704 3.972-18.739 8.81-26.487 15.971-36.561 33.792-19.139 87.548-8.669 128.72 1.861 7.319 10.323 4.495 14.115.914 5.469-5.169 8.469-13.179 6.649-20.558z"/><path fill="#219DF9" d="M671.455 404.193c1.559-20.283-2.916-39.661-7.454-59.29-2.049-8.86-3.603-16.117-4.465-25.354-.196-2.1-.282-4.206-.343-6.313.018-1.929.02-2.123.005-.579.075-1.57.248-3.132.424-4.693.087-.78 1.369-7.251.389-3.093.289-1.227 3.036-8.943 1.058-4.186.66-1.589 4.072-7.128.266-1.217.823-1.279 1.77-2.476 2.719-3.662 2.127-2.655-3.247 3.376.637-.581 1.461-1.489 3.021-2.88 4.587-4.255 1.308-1.147 2.663-2.241 4.02-3.331-5.189 4.169 4.058-3.203 5.319-4.196-4.092 3.22.901-.651 1.684-1.239 1.877-1.411 3.768-2.805 5.655-4.201 14.291-10.571 29.575-21.357 39.439-36.493 4.738-7.269 8.986-16.69 5.93-25.513-2.493-7.196-10.48-8.568-16.399-4.405-33.841 23.799-61.731 55.583-71.566 96.676-9.587 40.056-3.205 80.502 6.56 119.885 1.437 5.796 7.614 8.193 12.918 6.583 9.404-2.855 14.666-12.25 17.976-20.739 4.338-11.128 6.637-22.931 8.77-34.647.452-2.483.897-4.967 1.36-7.449.274-1.467 2.107-9.797.562-3.088.555-2.406 1.219-4.782 1.93-7.146.515-1.708 3.777-9.615.711-2.505.687-1.593 4.967-9.111.984-2.668 1.403-2.271 3.049-4.378 4.744-6.434a12.302 12.302 0 0 1-3.124 3.095c-3.378 1.846 1.171-.342 1.708-.532 2.474-.873 5.054-1.445 7.613-1.999 11.814-2.553 22.714-4.056 32.155-12.511 10.234-9.165 19.294-18.472 26.252-30.435 6.812-11.713 9.611-24.389 9.953-37.789.562-22.063-14.702-42.054-28.729-57.525-10.466-11.544-24.648 4.46-29.526 13.372a194.02 194.02 0 0 1-3.396 5.949c4.259-7.164.146-.383-.838 1.075-2.739 4.061-5.733 7.944-8.831 11.736-.985 1.207-6.043 6.929-.966 1.234-1.781 1.998-3.624 3.939-5.478 5.87-3.35 3.488-6.832 6.848-10.347 10.169-14.462 13.667-29.788 26.372-43.909 40.408-7.624 7.578-13.102 18.63-12.269 29.607.561 7.391 6.799 16.432 15.462 12.505 13.949-6.322 26.508-14.331 39.272-22.724 5.992-3.939 12.058-7.757 18.373-11.159 1.411-.76 2.85-1.466 4.289-2.169-4.507 2.201.25-.031 1.04-.354 3.339-1.364 6.795-2.398 10.3-3.234l-13.744-24.54c-.5 1.481-1.026 2.95-1.576 4.413-2.384 6.346 2.126-4.95.255-.609-1.445 3.354-3.049 6.639-4.699 9.896-1.77 3.49-3.674 6.911-5.627 10.301-.921 1.6-4.824 7.966-.268.6a241.3 241.3 0 0 1-4.173 6.467 218.071 218.071 0 0 1-15.545 20.633c-2.892 3.4 4.082-4.446-.575.572a139.53 139.53 0 0 1-3.872 3.973c-1.256 1.25-2.56 2.451-3.871 3.642-1.278 1.161-7.28 5.867-1.182 1.204l7.821 39.217c15.995-16.361 25.826-37.706 37.33-57.22a384.858 384.858 0 0 1 1.882-3.15c2.529-4.199-3.654 5.864-1.073 1.728a211.108 211.108 0 0 1 4.529-6.927 138.775 138.775 0 0 1 4.638-6.392c.657-.857 1.339-1.694 2.022-2.53 3.783-4.63-3.495 3.799-.784.879 1.319-1.42 2.729-2.751 4.184-4.033 1.313-1.158 4.409-3.254-1.71 1.276.921-.682 1.896-1.283 2.881-1.865 1.354-.801 4.416-1.97-1.729.702.959-.417 1.961-.715 2.966-.993 1.355-.375 4.228-.511-1.494.098 1.017-.108 2.042-.061 3.059.011l-6.39-31.026c4.804-8.05 1.135-2.009-.357-.197 4.952-6.013 2.543-2.905 1.133-1.564-1.189 1.13-4.505 3.462 1.176-.773-1.72 1.282-3.599 2.336-5.503 3.312 5.847-2.996-.769.113-2.458.639-1.766.55-3.576.944-5.388 1.306-.988.197-4.896.671-.032.072-1.143.141-2.292.222-3.44.305-4.729.341-9.489.122-14.202-.319-4.43-.415-8.823-1.181-13.175-2.096-1.186-.249-2.364-.53-3.543-.811-4.012-.956 3.318.914-.641-.171-2.281-.625-4.541-1.332-6.791-2.063-7.935-2.579-15.688-5.834-23.03-9.8l-5.317 39.124c-5.446 4.33-1.271 1.021.026.134 1.052-.718 2.151-1.361 3.261-1.984 4.144-2.326-3.447 1.396-.702.315.897-.353 1.829-.607 2.765-.835 2.677-.653-4.897.33-1.16.199.771-.027 1.539.067 2.299.184 2.383.366-4.447-1.532-1.347-.22.663.28 1.272.672 1.868 1.072 1.973 1.325-3.465-3.241-1.062-.753.544.563 1.012 1.197 1.47 1.83.828 1.145 2.347 4.218-.45-1.122.417.796.765 1.628 1.106 2.459.744 1.813 1.282 3.708 1.764 5.604 1.109 4.37-.703-3.998-.13-.875.201 1.093.356 2.194.508 3.295.647 4.705.84 9.47.857 14.215.004 1.229-.021 2.457-.048 3.685.166-7.402.071-2.467-.016-.81-.127 2.425-.33 4.846-.565 7.263a143.185 143.185 0 0 1-1.955 13.356c-.376 1.938-1.437 6.375.514-2.15a88.22 88.22 0 0 1-.667 2.682 56.098 56.098 0 0 1-1.598 5.116c-3.012 8.238-2.455 21.758 8.437 23.177 19.256 2.508 36.958-6.435 51.246-18.557 16.766-14.224 27.717-34.249 35.758-54.35 7.408-18.519 10.839-39.301 9.68-59.212-1.081-18.572-7.492-35.384-22.486-46.852-1.348-1.03-2.897-1.742-4.223-2.758-2.925-2.242-8.087-.241-10.671 1.353-4.316 2.662-7.637 6.874-9.914 11.342-3.908 7.671-5.801 18.265 1.829 24.115-3.151-2.416.28.948.895 1.69 1.121 1.357 2.117 2.812 3.072 4.29.482.748.923 1.521 1.363 2.294-3.778-6.631 2.944 6.675-.216-.384.727 1.623 1.524 3.198 2.188 4.852 1.251 3.117 2.068 6.375 2.989 9.597.425 1.484 1.72 8.032.522 1.662.351 1.862.594 3.744.805 5.626.4 3.561.508 7.151.477 10.731-.034 3.919.225-5.255.032-1.322-.05 1.009-.129 2.017-.207 3.024-.159 2.037-.406 4.065-.679 6.09a114.066 114.066 0 0 1-.827 5.097 121.485 121.485 0 0 1-.607 3.058c1.532-7.378.743-3.304.345-1.674-.994 4.076-2.248 8.085-3.649 12.038-.693 1.956-3.329 8.377.146-.036a120.342 120.342 0 0 1-2.561 5.705c-.888 1.868-1.849 3.699-2.834 5.516-.489.901-1.003 1.789-1.517 2.676-2.154 3.719 3.516-5.582 1.23-1.961-1.95 3.092-4.108 6.049-6.394 8.901a87.163 87.163 0 0 1-1.881 2.243c5.03-5.865 2.513-2.85 1.318-1.582-1.298 1.378-2.67 2.686-4.067 3.962-1.282 1.172-6.021 4.901-.03.262-1.434 1.11-2.937 2.126-4.463 3.104-1.498.96-3.062 1.812-4.645 2.622-3.103 1.586 4.345-1.903 1.152-.542-.802.342-1.621.641-2.44.939-1.36.495-2.754.887-4.154 1.25-1.376.358-7.424 1.137-1.768.486-3.551.409-7.143.254-10.677-.221l8.437 23.177c3.684-9.994 5.373-20.97 6.51-31.531 1.337-12.422 1.835-25.39-.142-37.773-1.831-11.465-5.269-24.437-16.169-30.571-13.635-7.673-29.505 3.661-39.806 11.678-9.054 7.047-18.777 31.591-5.317 39.124 17.673 9.891 38.271 16.446 58.453 18.155 10.728.908 22.261-.084 32.377-3.883 16.04-6.022 26.995-17.702 35.758-32.068 5.161-8.461 8.115-29.79-6.39-31.026-24.265-2.067-43.017 23.729-54.387 41.671-7.093 11.194-13.571 22.726-20.193 34.198a451.832 451.832 0 0 1-4.075 6.913c-2.401 3.991 3.762-6.038 1.333-2.151a174.71 174.71 0 0 1-2.264 3.51 112.714 112.714 0 0 1-3.898 5.538 71.716 71.716 0 0 1-2.194 2.76c-2.464 2.975 5.095-5.464 1.517-1.82-7.433 7.567-12.879 18.212-12.055 29.09.782 10.31 10.662 17.137 19.876 10.127 16.538-12.583 30.133-28.228 41.86-45.341 12.102-17.659 22.745-36.658 29.696-56.966 3.671-10.725 1.287-28.038-13.744-24.54-14.104 3.282-27.102 10.646-39.245 18.327-6.168 3.9-12.215 7.987-18.382 11.89a244.046 244.046 0 0 1-8.616 5.192c-1.44.831-2.901 1.624-4.364 2.413-.81.437-7.269 3.536-2.614 1.42l3.193 42.113c14.876-14.817 31.059-28.21 46.234-42.706 17.156-16.387 32.028-34.65 43.4-55.52l-29.526 13.372c7.105 7.79 13.801 15.963 19.007 25.165-2.252-3.98.492 1.301.849 2.11.864 1.963 1.525 4.001 2.204 6.033.243.776.465 1.56.665 2.349 1.125 4.193-.729-4.652-.117-.413.272 1.885.009 8.697.397 1.167-.08 1.546-.341 3.076-.626 4.594 1.001-4.225 1.163-5.128.487-2.709-.55 1.882-2.522 6.049.822-1.667-.854 1.973-5.117 8.489-.368 1.208-1.334 2.044-2.869 3.952-4.427 5.827 4.549-5.474-.401.234-1.462 1.287-1.973 1.958-4.12 3.722-6.131 5.638 2.773-2.036 3.21-2.445 1.311-1.228-3.704 2.261 3.914-1.493-.314.044-2.199.799-4.505 1.319-6.777 1.854-11.805 2.777-24.961 5.35-33.725 14.479-10.245 10.674-17.271 22.94-22.511 36.696-3.861 10.139-5.607 21.118-7.517 31.757-.36 2.005-.725 4.01-1.1 6.013-.263 1.409-2.118 9.86-.638 3.432a111.222 111.222 0 0 1-4.732 15.333l30.894-14.156a599.943 599.943 0 0 1-3.188-13.423 428.177 428.177 0 0 1-1.851-8.707c.888 4.363-.061-.415-.188-1.099a287.154 287.154 0 0 1-3.677-25.982 210.86 210.86 0 0 1-.75-11.705 183.364 183.364 0 0 1-.109-5.084c-.017-1.425.154-8.786-.061-2.234a140.814 140.814 0 0 1 2.627-22.739c.765-3.856-1.4 5.738.048-.089.472-1.899 1.019-3.78 1.585-5.653.452-1.498.958-2.979 1.471-4.457.639-1.839 3.49-8.702.176-.784 1.379-3.293 2.964-6.495 4.646-9.642.899-1.682 4.827-8.165.372-.954 1.082-1.751 2.236-3.458 3.406-5.151a148.164 148.164 0 0 1 6.894-9.189c.554-.676 1.114-1.347 1.682-2.012 3.103-3.678-3.519 3.89-.237.28 1.541-1.695 3.144-3.333 4.758-4.958 3.037-3.057 6.233-5.953 9.489-8.775 1.895-1.643 3.844-3.219 5.806-4.781-3.902 3.109 2.585-1.866 3.516-2.54-3.49-9.973-6.979-19.946-10.47-29.918a65.338 65.338 0 0 1-2.677 3.888 57.66 57.66 0 0 1-1.511 1.906c-2.855 3.529 3.489-3.783.329-.399-2.718 2.909-5.692 5.585-8.691 8.196-3.169 2.758-6.464 5.37-9.767 7.964-1.665 1.299-1.494 1.168.515-.392l-2.266 1.751a3535.374 3535.374 0 0 0-8.385 6.499c-15.775 12.261-29.244 26.035-36.853 44.812-8.153 20.12-5.224 42.637-.344 63.109 2.267 9.511 5.104 18.878 7.433 28.375 2.022 8.246 3.79 19.289 3.465 26.58-.263 5.883 1.71 13.844 9.524 11.471 7.217-2.19 12.849-11.158 13.406-18.407z"/><path fill="#219DF9" d="M647.032 268.513c26.661-9.398 49.578-29.581 61.156-55.534 6.064-13.594 9.258-28.55 7.291-43.437-1.798-13.611-8.046-30.347-20.153-37.942-4.783-3-10.988 2.701-13.517 6.116-4.392 5.934-6.451 13.659-2.833 20.344 2.436 4.501 6.693 9.571 8.628 13.35 1.195 2.335 2.141 4.788 2.99 7.266.413 1.207.74 2.44 1.065 3.673 1.033 3.912-.307-2.29.346 1.67.402 2.449.547 4.934.606 7.412.099 4.07.225-2.841-.04 1.222-.081 1.233-.241 2.459-.401 3.684-.16 1.229-.397 2.445-.634 3.661.749-3.85-.118.22-.29.857-.325 1.209-.72 2.398-1.114 3.585-.244.737-1.831 4.705-.157.683-.985 2.369-2.159 4.655-3.386 6.906-.329.605-2.63 4.297-.422.811-.704 1.111-1.461 2.188-2.217 3.265-1.526 2.174-3.204 4.239-4.923 6.262 2.142-2.52-.808.839-1.05 1.096-.933.991-1.908 1.94-2.883 2.889-6.749 6.567-15.01 12.186-24.688 16.202-6.44 2.673-10.762 9.123-11.65 15.994-.641 4.959 1.821 12.241 8.276 9.965zm75.994 85.492c13.717-6.772 25.454-16.625 34.955-28.579 4.752-5.979 8.733-12.831 11.707-19.863 3.627-8.577 8.468-20.061 6.912-29.491-.896-5.432-4.016-10.238-10.3-8.33-6.901 2.096-11.074 9.114-13.383 15.441-1.207 3.308-1.574 6.752-2.194 10.188.703-3.895-.224.73-.382 1.306-.381 1.382-.853 2.736-1.324 4.088-1.583 4.538 1.609-3.51-.36.864-.583 1.293-1.247 2.546-1.911 3.799-.369.697-2.901 4.693-.438.854-.767 1.195-1.605 2.342-2.442 3.488-.839 1.148-1.744 2.246-2.648 3.343 2.425-2.941-.641.636-1.001 1.012-1.999 2.082-4.166 3.995-6.375 5.849-3.609 3.028 2.246-1.597-1.588 1.197-1.188.866-2.418 1.671-3.647 2.477-2.479 1.625-5.075 3.066-7.697 4.445-6.948 3.654-11.429 13.731-10.854 21.303.593 7.841 6.601 9.753 12.97 6.609z"/><path fill="#EAA286" d="M554.244 657.438a8.837 8.837 0 0 0-.995-.32c.051-.936-.145-1.84-.752-2.598-1.651-2.062-4.42.088-5.517 1.581-.349.476-.708.929-1.071 1.372-.925.209-1.85.43-2.773.612-5.782 1.142-11.646 2.388-17.559 2.499-16.404.31-31.965-6.934-47.883-9.867-.729-.135-1.422-.004-2.061.312a407.727 407.727 0 0 0-4.955-3.937c-2.26-1.76-5.792 4.5-3.929 6.359 1.751 1.747 3.53 3.531 5.336 5.316.146 1.018.556 1.905 1.29 2.484a89.937 89.937 0 0 0 5.395 3.926c8.387 7.729 17.576 14.738 28.285 18.162 16.455 5.262 30.361-3.52 40.253-15.842a38.24 38.24 0 0 0 4.173-1.373c2.16-.86 6.542-7.19 2.763-8.686z"/><path fill="#FFE5B8" d="M307.673 505.783c-10.471-9.963-26.251-23.177-41.959-16.885-17.652 7.07-27.017 26.902-28.57 44.957-1.902 22.121 7.189 65.708 38.547 56.924 12.863-3.602 23.133-15.288 30.562-25.709 5.16-7.238 10.497-20.446 3.979-28.586-6.488-8.099-17.562.277-21.829 6.262a97.989 97.989 0 0 1-3.985 5.227c-2.526 3.084 3.643-3.988 1.037-1.185a50.568 50.568 0 0 1-1.894 1.897 42.826 42.826 0 0 1-1.856 1.662c-2.525 2.172 4.107-3.041 1.501-1.178-1.104.789-2.284 1.457-3.497 2.062 5.613-2.801 1.85-.895.139-.477-2.379.576 4.168-.438 1.78-.211-.508.049-1.02.041-1.528.03-1.495-.028-4.982-1.153.164.343-1.104-.321-2.142-.842-3.133-1.417-3.203-1.857.307.473-.023.177-.812-.723-1.534-1.539-2.231-2.37-.737-.878-1.389-1.825-2.015-2.784-.326-.5-.627-1.016-.927-1.531-1.229-2.115 2.008 3.979.444.727-1.122-2.336-1.986-4.793-2.729-7.275-.385-1.286-.701-2.594-.998-3.904-.639-2.836.853 4.531.338 1.666a62.826 62.826 0 0 1-.408-2.691c-.36-2.67-.506-5.367-.506-8.061-.002-3.041-.224 5.35-.081 2.336.032-.646.087-1.289.142-1.933a44.55 44.55 0 0 1 .5-3.726c.715-4.189-1.664 6.198-.234 1.277.161-.549.35-1.086.539-1.623 1.039-2.947-2.676 6.254-1.408 3.436 2.137-4.757-2.069 2.994-1.303 1.867 2.642-3.889-4.473 4.256-1.018 1.212-4.903 4.317-3.861 2.878-2.4 1.927 1.17-.76 3.512-1.635-2.336.98.889-.397 1.84-.63 2.793-.807-5.49 1.018-1.904.287-.185.413.585.044 1.161.146 1.737.245 2.229.386-3.881-1.211-.462-.096 3.023.986 5.829 2.598 8.489 4.311 1.669 1.074 3.255 2.276 4.817 3.5-2.889-2.261.135.139.591.534 1.234 1.073 2.423 2.196 3.607 3.323 7.469 7.105 16.787.553 21.829-6.262 4.61-6.224 11.269-21.647 3.98-28.584z"/><path fill="#61E9FF" d="M280.642 941.275c24.916 24.412 58.648 35.782 92.053 43.031 36.337 7.887 73.738 10.068 110.795 11.618 41.76 1.745 83.654 2.011 125.158-3.597 43.426-5.869 84.951-18.986 124.869-36.895 6.326-2.838 10.396-10.171 8.69-17.061-18.064-72.95-65.55-139.342-138.62-164.305-35.668-12.186-73.69-11.605-110.879-9.895-33.475 1.539-67.289 5.75-99.305 15.959-32.92 10.496-63.43 28.785-84.185 56.863-24.538 33.195-30.533 75.51-27.38 115.738.905 11.561 13.482 1.783 14.949-4.492 7.564-32.316 12.707-65.754 25.046-96.719 10.995-27.6 32.024-46.475 59.704-56.656 19.166-7.047 39.812-9.764 59.789-13.564 21.43-4.078 42.922-7.859 64.648-9.952 42.003-4.044 84.932-.454 121.432 22.382 31.943 19.984 56.545 55.542 69.697 90.375 5.91 15.655 9.886 33.808 6.021 50.445-4.17 17.955-17.671 28.416-33.264 36.604-36.602 19.217-80.734 22.41-121.304 22.232-40.87-.178-82.521-4.215-122.812-11.064-47.494-8.072-95.941-22.146-136.182-49.406-7.371-4.994-17.893 14.455-10.063 19.76 38.365 25.99 83.987 39.57 129.067 48.382 40.27 7.872 82.135 11.694 123.119 12.84 66.814 1.868 185.104-8.178 188.39-97.269 1.362-36.945-17.378-72.594-39.044-101.318-24.741-32.801-58.016-54.457-98.406-62.525-41.484-8.29-84.889-1.455-125.956 5.988-36.697 6.651-76.237 11.078-106.979 34.084-47.947 35.873-54.524 100.654-67.179 154.729 4.981-1.499 9.966-2.994 14.95-4.492-2.584-32.957.932-67.38 20.681-94.938 17.008-23.734 43.72-38.156 70.843-47.282 31.91-10.737 65.842-14.578 99.322-16.116 37.657-1.733 75.788-1.877 111.607 11.338 67.699 24.977 110.703 88.301 127.525 156.244l8.691-17.062c-38.519 17.281-78.503 30.094-120.33 36.263-40.881 6.032-82.572 5.446-123.746 3.783-35.432-1.431-70.928-3.642-105.822-10.272-32.908-6.25-68.202-17.209-92.691-41.201-7.353-7.207-19.054 11.394-12.899 17.423z"/><path fill="#61E9FF" d="M298.576 895.114c16.374-19.716 29.94-38.521 46.664-54.587 17.312-16.634 39.534-27.453 64.599-33.645-.896-11.805-1.792-23.611-2.69-35.418-37.463 34.253-83.163 60.169-111.073 103.883-4.611 7.225-8.867 16.387-5.838 25.131 2.766 7.977 9.879 7.26 16.152 4.336 32.5-15.145 60.639-38.06 89.972-58.336 28.085-19.416 59.142-38.777 94.019-41.625l1.199-35.947c-29.055 29.988-68.42 48.738-104.875 70.965-39.479 24.07-76.479 53.904-96.293 96.799-4.322 9.357-6.815 29.391 9.413 26.282 21.981-4.21 42.132-16.731 60.376-29.151 20.22-13.771 39.129-29.357 58.752-43.941 20.089-14.93 41.908-27.57 63.121-40.818 24.738-15.453 50.166-30.03 78.717-37.04-3.887-6.937-7.772-13.874-11.658-20.812-.388 1.199-3.09 8.112-.625 2.255-.865 2.056-1.877 4.044-2.903 6.023-.552 1.063-4.544 7.483-1.236 2.313-1.577 2.466-3.317 4.822-5.084 7.152-1.453 1.92-3.003 3.762-4.563 5.595 3.117-3.665-2.078 2.133-2.66 2.735-4.033 4.192-8.348 8.111-12.74 11.924-8.691 7.547-15.605 12.469-25.986 19.574-10.983 7.519-22.299 14.547-33.663 21.473-41.605 25.348-88.801 48.467-121.601 85.441-6.132 6.912-11.047 15.262-10.316 24.903.572 7.522 5.455 12.167 13.006 10.515 52.005-11.377 94.178-49.077 135.148-80.694 21.539-16.624 43.814-30.66 67.502-44 27.247-15.344 54.448-30.838 80.233-48.571l-13.42-24.434a151.988 151.988 0 0 1-6.668 12.856c2.442-4.216-1.138 1.733-1.382 2.107-1.571 2.383-3.254 4.693-4.947 6.991-6.842 9.287-11.305 13.906-20.16 22.477-16.282 15.76-33.906 28.719-52.643 41.406-36.912 25.002-76.441 45.863-113.355 70.845-7.647 5.173-12.893 13.812-14.078 22.985-.896 6.934 2.959 19.994 12.85 15.475 41.83-19.119 84.542-36.389 125.053-58.277 20.541-11.099 40.301-23.618 58.816-37.852 18.695-14.373 35.104-31.86 55.519-43.879l-10.314-29.468c-46.913 58.802-109.946 101.899-171.558 143.808-8.789 5.979-15.057 17.123-14.236 27.943.777 10.221 8.674 12.875 17.014 8.668 73.267-36.961 135.382-96.119 213.465-123.519-3.139-8.76-6.275-17.521-9.412-26.282a107.782 107.782 0 0 1-1.996 3.789c-3.303 6.115 2.456-3.566-1.32 2.256-2.326 3.586-4.953 6.969-7.65 10.278-1.082 1.327-3.436 3.812-6.662 7.005-3.133 3.101-6.448 6.015-9.8 8.875-12.323 10.518-28.409 20.544-43.333 29.732-31.039 19.111-63.955 37.326-88.818 64.527-6.203 6.787-11.042 15.358-10.316 24.903.553 7.29 5.479 12.464 13.006 10.516 67.537-17.474 119.47-68.173 180.545-99.071-5.223-6.32-10.444-12.641-15.666-18.963-.315 1.318-2.844 8.008-.415 2.424a46.748 46.748 0 0 1-1.562 3.088c1.621-2.488 1.715-2.644.281-.473-1.385 2.086-2.984 4.031-4.586 5.951 2.719-3.264-2.698 2.594-3.26 3.143-8.426 8.225-15.919 13.352-25.83 20.104-19.483 13.277-40.339 24.939-58.002 40.705-6.61 5.9-10.989 16.023-10.316 24.902.479 6.287 5.697 13.73 13.007 10.518 40.88-17.975 81.155-39.963 125.366-48.613 16.539-3.236 28.066-44.775 5.236-40.308-44.211 8.651-84.484 30.639-125.365 48.612l2.689 35.418c4.891-4.365 4.371-3.875 9.266-7.42 5.193-3.764 10.561-7.295 15.924-10.814 11.533-7.568 23.194-14.941 34.415-22.976 21.815-15.626 45.167-35.636 51.705-62.944 2.837-11.854-.844-26.463-15.667-18.963-58.329 29.509-108.131 78.711-172.529 95.373.896 11.807 1.793 23.611 2.691 35.42 24.646-26.967 57.59-43.781 88.976-63.408 33.485-20.939 65.642-45.465 84.048-81.329 3.896-7.591 6.649-31.917-9.412-26.282-81.178 28.484-145.414 88.844-221.479 127.215l2.777 36.611c67.619-45.994 135.191-93.617 186.631-158.094 5.159-6.465 8.659-16.989 5.838-25.129-2.599-7.498-10.096-7.905-16.152-4.338-20.222 11.904-36.711 28.589-54.82 43.272-17.576 14.253-37.209 26.13-56.971 37.065-38.555 21.336-79.561 37.68-119.581 55.971-.411 12.818-.819 25.639-1.229 38.459 38.954-26.361 80.682-48.33 119.451-75.004 40.021-27.539 80.303-60.914 100.985-106.031 2.817-6.146 5.062-13.377 2.733-20.098-2.475-7.141-10.291-8.368-16.152-4.336-47.285 32.52-99.94 56.004-145.589 90.919-39.428 30.157-79.37 67.729-129.278 78.649l2.689 35.42c16.23-18.3 32.038-28.904 52.606-42.172 22.573-14.561 45.971-27.797 68.831-41.893 43.21-26.645 91.182-58.873 107.562-109.638 2.892-8.965 1.223-23.976-11.659-20.812-28.28 6.943-54.274 20.982-79.02 35.981-21.945 13.302-44.377 26.554-65.252 41.497-19.688 14.092-38.35 29.56-58.059 43.633-17.738 12.67-36.862 25.67-58.635 29.838 3.138 8.762 6.273 17.523 9.412 26.283 8.27-17.902 17.277-28.857 33.324-43.027 14.25-12.582 32.021-23.682 49.495-34.132 36.403-21.771 75.052-41.52 104.903-72.331 5.316-5.486 9.169-12.271 10.16-19.945.715-5.52-.87-16.662-8.96-16.002-79.331 6.48-131.363 72.829-199.784 104.717 3.438 9.822 6.877 19.645 10.314 29.468 25.461-39.875 69.186-63.994 103.84-95.678 6.568-6.007 10.995-15.945 10.316-24.903-.561-7.359-5.471-12.377-13.007-10.517-29.079 7.182-55.061 20.581-77.382 40.571-21.564 19.314-38.551 43.466-56.969 65.643-5.611 6.756-10.209 20.808-3.979 28.586 6.723 8.402 17.193-.678 21.827-6.257z"/><path fill="#FFE5B8" d="M440.482 755.592c-3.028 16.976-1.491 35.174 9.075 49.354 8.73 11.715 23.568 17.171 37.624 18.454 34.806 3.184 68.743-20.254 83.14-51.009 3.137-6.7 7.441-21.53-1.964-25.888-15.798-7.318-36.843-3.791-52.986.215-22.562 5.6-46.954 23.956-40.886 50.341 2.072 9.015 11.613 14.653 19.475 17.953 11.844 4.971 25.865 4.343 37.535-.704 13.92-6.018 25.58-17.176 31.602-31.217 7.347-17.125 6.733-33.311-2.135-49.604-5.119-9.405-18.37 1.587-21.83 6.261-6.16 8.322-9.084 19.209-3.979 28.588 1.284 2.355 1.821 4.702 2.042 6.983-.312-3.228-1.066 3.921.212-.776 1.513-5.566-2.131 2.518 1.138-2.234 2.438-3.542-.847.766-1.551 1.396 2.587-2.312-2.346 1.185-2.504 1.274-.447.249-5.346 1.8-7.433 2.01-7.287.733-13.503-1.271-19.741-4.849-3.166-1.819-1.539-.314-3.836-3.358 3.818 5.059-.89 17.051-6.389 23.105 1.412-1.309.867-.947-1.642 1.085.896-.695 1.89-1.265 2.863-1.839.69-.406 4.446-2.092.595-.398 1.289-.566 2.618-1.041 3.942-1.521 5.933-2.145 12.17-3.442 18.385-4.437 2.425-.389 10.429-.857 15.041-.768 2.735.053 5.455.328 8.157.744.6.092 4.396 1.154.984.146.971.287 1.893.697 2.809 1.122l-1.965-25.889a55.276 55.276 0 0 1-1.464 3.009c-2.55 5.053 2.808-4.062-.285.611-.896 1.355-1.907 2.633-2.915 3.908 3.287-4.154.02-.081-.715.664-.832.846-6.949 5.795-3.395 3.15-2.551 1.896-5.301 3.512-8.09 5.023-1.795.885-1.881.956-.258.22-1.432.653-2.906 1.21-4.377 1.767-2.918 1.104-5.937 1.918-8.97 2.626-4.13.968-3.308.731-6.689.985-2.968.223-5.944.139-8.907-.059-6.253-.418-7.922-.969-12.867-3.025-2.085-.871-4.047-1.993-5.959-3.186-2.762-1.723-1.433-.668-4.278-3.676-1.55-1.642-2.831-3.509-4.029-5.415 1.69 2.69-.476-1.19-.632-1.56-.574-1.35-.986-2.762-1.398-4.166-1.366-4.649.373 3.244-.321-1.763-.228-1.648-.282-3.317-.34-4.978-.194-5.59-.362 3.645.175-2.232.18-1.951.529-3.883.873-5.809 1.452-8.135-3.079-18.441-12.85-15.473-10.427 3.171-16.321 14.938-18.087 24.839z"/><path d="M301.63 501.554c-14.955-9.831-35.817-18.671-52.127-6.651-13.174 9.709-16.737 28.456-15.789 43.791 1.01 16.367 7.602 34.084 20.538 44.713 14.329 11.773 36.391 10.666 49.362-2.736 1.087-1.124 4.767-9.812.428-9.088-7.932 1.326-14.619 5.833-22.877 6.307-6.711.383-13.043-1.773-18.617-5.4-11.624-7.571-18.197-22.354-20.354-35.602-1.778-10.928-1.494-25.395 7.79-33.082 13.608-11.271 34.948-1.576 48.154 5.238 2.715 1.397 6.06-5.802 3.492-7.49zm163.631 142.439c14.27 11.351 28.884 19.076 47.051 21.7 15.394 2.223 36.283-.309 47.817-11.521 1.663-1.618 6.408-12.95.576-12.259-6.993.83-13.595 5.66-20.39 7.846-7.678 2.469-16.024 2.846-24.016 2.582-16.51-.547-33.836-6.474-48.674-13.423-1.961-.917-3.933 3.826-2.364 5.075z"/><path fill="#EAA286" d="M447.831 794.128s70.34 28.355 122.49-21.736l-122.332-14.751s-11.426 1.277-.158 36.487z"/><path d="M259.792 541.25c5.478-6.736 12.814-11.883 21.752-11.996 9.854-.125 12.037 8.613 15.768 15.766 1.703 3.266 5.461-3.958 5.599-5.165 1.253-10.987-4.284-21.931-16.464-22.146-11.932-.212-22.662 9.876-28.961 18.956-1.646 2.372-.837 8.45 2.306 4.585z"/><path d="M303.297 535.695c-7.103-.291-16.009-.363-21.035 5.58-4.971 5.881-3.991 14.779.271 20.787 1.827 2.575 4.819-3.816 4.272-5.531-.778-2.443-4.409-8.869-1.789-11.133 4.174-3.607 11.399-3.705 16.571-3.979 2.074-.11 4.267-5.619 1.71-5.724zm140.339 222.977c-6.498 20.604-5.301 42.73 10.27 58.942 13.893 14.465 34.716 20.318 54.269 20.082 20.511-.245 41.127-7.273 55.954-21.674 7.706-7.483 13.258-17.567 16.008-27.901 2.26-8.494 4.551-24.451-3.904-29.973-3.203-2.094-6.113 5.33-6.459 7.166-1.578 8.432-.359 17.912-2.691 25.574-.695 2.287-1.584 3.896-3.796 7.017-.914 1.29-4.065 4.396-6.198 6.104-13.215 10.582-30.52 14.655-47.169 14.905-16.751.254-34.301-3.352-47.792-13.732-14.715-11.322-17.648-30.316-14.138-47.541.876-4.313-3.627-1.276-4.354 1.031z"/><path d="M444.759 755.795c-48.428.218-103.41.166-135.447 43.1-14.188 19.012-21.689 41.66-26.098 64.732-4.408 23.055-6.5 47.633-3.886 70.926.546 4.852 4.868-1.1 5.253-3.074 7.959-40.779 5.174-86.426 30.036-122.021 28.116-40.26 84.76-33.905 126.942-42.961 3.414-.731 8.231-10.726 3.2-10.702zm130.883 14.894c22.943-1.809 47.494-.68 69.301 7.236 19.64 7.133 34.629 20.992 46.988 37.434 13.17 17.525 20.934 37.755 28.252 58.205 7.449 20.811 13.467 42.39 17.693 64.078 1.28 6.572 10.132-4.506 9.492-8.736-6.994-46.22-15.115-92.769-43.844-131.151-12.66-16.914-30.777-29.931-50.852-36.407-25.648-8.272-51.57-3.582-76.23 5.68-.933.353-2.461 3.79-.8 3.661z"/><path d="M317.496 884.947c8.952.789 19.418 4.105 23.36 12.99 3.637 8.196 3.461 18.586 3.275 27.379-.213 9.957-1.691 19.896-2.707 29.79-.766 7.448-3.494 19.554 1.149 26.052 4.841 6.771 12.001-8.377 12.479-11.516 1.379-9.09-.286-19.269-.036-28.545.285-10.551.625-21.137-.721-31.633-1.135-8.849-4.449-16.366-10.938-22.556-7.121-6.789-16.566-6.087-25.437-3.914-.571.143-1.298 1.877-.424 1.953zm64.263-451.912c9.25-8.927 21.755-12.514 33.975-15.34 12.621-2.919 26.1-3.377 38.822-.896 16.178 3.155 26.528-33.714 12.715-33.353-34.506.91-69.748 11.539-89.379 41.893-2.616 4.044-2.246 13.597 3.867 7.696z"/><path fill="#08B5F9" d="M672.685 876.385c.138-.276.253-.541.396-.817.66-1.28 1.437-6.748-1.691-5.233a49.7 49.7 0 0 0-2.425 1.271 3.447 3.447 0 0 0-1.354-.231c-.68.047-1.358.096-2.037.146-3.49.245-5.748 3.551-6.947 7.02-2.789 2.127-5.538 4.331-8.393 6.465-1.473 1.102-2.638 6.428.247 4.608 2.403-1.517 4.739-3.14 7.111-4.685.089 2.449.754 4.783 1.706 7.061-8.178 29.098 7.201 61.293 11.416 90.715 1.973 13.744 14.732-2.463 15.451-9.041 3.593-32.924 3.558-67.932-13.48-97.279zm-180.125-9.793c-17.801.923-34.991-8.356-47.59-20.277-5.917-5.6-10.824-12.199-15.086-19.111-4.334-7.035-6.141-15.881-11.118-22.389-.71-.899-1.638-1.332-2.782-1.298-.613.086-1.18.228-1.723.396-.649-3.412-1.129-6.804-1.36-10.141-.396-5.713-5.964 1.8-6.079 4.566-.184 4.375.042 8.783.509 13.189-1.732 5.461-1.121 12.461.125 17.01 1.339 4.885 3.47 9.646 6.024 14.207 3.699 14.279 8.68 28.221 16.08 41.043 6.125 10.615 15.139 21.867 27.96 23.918 15.802 2.521 28.599-12.223 35.948-24.215 1.842-3.004 7.365-17.325-.908-16.898z"/><path d="M415.473 792.721c-1.38 20.751 6.528 39.839 20.854 54.723 12.979 13.485 38.263 26.211 57.261 21.537 2.788-.688 7.37-9.715 3.332-11.053-8.584-2.846-17.822-2.881-26.513-5.695-8.811-2.854-16.982-7.451-24.384-12.964-16.104-11.997-26.658-28.49-26.313-49.024.061-3.603-4.107.535-4.237 2.476zm226.84 96.794c2.23 7.696 5.662 14.899 8.41 22.423 3.309 9.054 5.1 18.568 6.898 28.007 3.664 19.235 5.1 38.883 7.976 58.244.142.958.38 3.015 1.688 3.288.386.08.771.16 1.155.243 2.402.501 4.36-1.868 5.194-3.901 3.477-8.484.356-18.401-.741-27.271-1.357-10.959-3.168-21.861-5.328-32.691-2.133-10.689-5.121-21.138-9.353-31.191-3.123-7.424-7.071-15.611-15.211-18.197-.465-.154-.785.703-.688 1.046z"/><path fill="#EAA286" d="M733.487 598.775c-.785-6.914-9.637-11.818-14.824-15.193-5.951-3.873-12.582-8.041-19.516-9.868-4.472-1.178-7.221 3.94-7.958 7.616-7.101 35.35-17.07 70.737-36.178 101.629-17.661 28.557-42.325 60.451-77.733 65.697-2.844.422-5.505 8.312-1.807 8.078 14.936-.943 28.269-7.104 40.096-16.001.004.058-.004.112.001.169.18 2.371 1.884 4.389 4.431 3.583 20.428-6.466 36.199-22.366 50.018-38.04 5.822-6.604 11.232-13.517 16.332-20.649 1.056-.185 2.122-.773 2.884-1.579 11.017-11.664 20.691-24.983 27.501-39.547 2.851-6.098 5.248-12.758 6.348-19.498.498-.832.98-1.676 1.49-2.502 4.229-6.873 9.876-15.43 8.915-23.895zm-12.366 5.107l.021-.058a11.258 11.258 0 0 1 1.45 1.994c.005.224-.026.539-.187.916-.047.113-.105.22-.154.332a32.37 32.37 0 0 0-1.13-3.184zm1.458 1.738c-.051-.169-.023-.147 0 0zm-36.873 28.298c-3.537 13.062-8.301 25.504-15.096 37.274a135.21 135.21 0 0 1-3.992 6.431c7.174-12.9 13.092-26.443 17.984-40.412.383-1.094.735-2.195 1.104-3.293zm-31.694 74.629c4.932-5.574 9.704-11.275 14.167-17.219.041.16.064.328.118.484.046.133.104.25.157.369-1.043 1.277-2.08 2.559-3.146 3.82-3.487 4.126-7.255 8.413-11.296 12.546z"/><path d="M676.351 860.737c-12.629 4.622-23.564 12.04-32.106 22.472-1.424 1.738-2.772 4.367-2.05 6.688.928 2.97 3.907.267 4.877-1.065 7.348-10.118 17.245-17.402 28.539-22.602 1.726-.794 3.57-6.529.74-5.493zm69.867-264.491c.277-1.006.562-2.01.83-3.018a184.504 184.504 0 0 1-10.928-9.287l-.029.128c2.931 4.347 6.373 8.396 10.127 12.177z"/><path fill="#EAA286" d="M739.858 579.633c-4.609-.191-9.068-.538-13.42-1.074.068-2.544-.473-4.852-1.794-6.508-1.37-1.717-2.712-3.449-4.06-5.179.253-1.405.536-2.786.146-3.874-7.214-20.107-39.181-73.013-63.554-109.354-24.251-36.162-41.626-80.744-58.682-121.078-1.616-5.11-3.416-10.164-5.494-15.131a105.888 105.888 0 0 0-1.424-3.246c-2.681-8.158-4.88-16.471-6.227-24.367-.99-5.809-5.209-8.902-10.756-5.48-1.588.979-3.134 2.401-4.492 4.08-5.345-2.791-11.516-4.031-18.631-2.917-6.99 1.094-14.927 4.856-8.02 5.322 28.316 1.911 38.704 33.828 40.993 41.347 2.354 7.735 46.478 169.008 90.138 229.568 8.111 11.252 32.394 40.844 61.97 47.885 2.398.572-1.33.184-1.409-4.225-.108-6.123 7.58-7.979 9.256-13.296 1.281-4.056 1.581-12.221-4.54-12.473z"/><path d="M735.624 586.07c-4.064 16.665-9.598 32.971-16.729 48.686-27.293 60.154-79.991 104.174-144.86 118.045-72.894 15.59-152.992-4.363-204.9-59.023-49.24-51.854-63.769-123.621-59.84-192.957-.103-.072-.212-.138-.313-.21-.682.057-1.353.079-2.011.061.282 1.026.537 2.067.761 3.123.152.727-.719 1.32-1.283.747a86.875 86.875 0 0 1-4.312-4.713c-3.462-1.141-6.494-3.338-9.05-6.107-.108 6.466.41 13.01 2.822 18.502.269.61.565 1.045.882 1.344-4.648 71.695 11.945 145.857 61.919 199.708 50.909 54.863 129.393 75.713 202.093 63.771 67.542-11.096 123.668-54.238 157.357-113.073 11.889-20.763 21.087-43.002 27.591-66.028-3.727-3.694-7.153-7.647-10.127-11.876z"/><path d="M455.043 261.086c13.785-33.44 62.624-46.344 92.251-26.098 6.109 4.175 10.8 10.673 14.958 16.681 5.207 7.524 9.589 15.602 13.652 23.788 9.577 19.295 17.282 39.509 24.684 59.716 7.27 19.845 14.033 39.872 21.327 59.708 6.585 17.906 14.458 34.7 23.215 51.644 21.727 42.04 43.974 84.396 72.842 122.072 30.896 40.323 70.412 71.572 116.551 92.771 4.972 2.284 10.776-9.344 5.9-11.584-39.266-18.041-73.895-43.167-102.233-75.858-30.061-34.676-52.662-75.277-74.007-115.669-9.957-18.842-20.348-37.583-28.229-57.414-7.374-18.556-13.729-37.515-20.405-56.329-7.359-20.741-14.916-41.439-23.733-61.613-7.358-16.836-15.585-33.948-27.133-48.362-14.203-17.727-36.392-23.227-58.329-20.124-25.303 3.579-48.454 19.038-58.363 43.079-.862 2.091-2.203 6.172.576 7.588 2.555 1.302 5.614-1.905 6.476-3.996z"/><path d="M838.982 651.482c-5.332-25.996-16.417-50.728-16.649-77.612a49965.59 49965.59 0 0 0-6.487 8.888c23.604.131 46.843 5.484 70.43 5.634 4.068.025 7.867-6.53 6.234-10.157-11.411-25.346-28.03-47.907-39.441-73.247-2.794-6.206-10.684 3.683-8.654 8.188 11.413 25.345 28.032 47.907 39.441 73.248l6.234-10.157c-23.586-.149-46.824-5.503-70.43-5.634-4.182-.023-6.518 5.403-6.487 8.888.24 27.757 11.651 53.317 17.155 80.149.64 3.121 4.389 1.793 5.883.381 2.351-2.221 3.415-5.434 2.771-8.569z"/><path d="M844.615 507.61c27.763 6.034 61.777-3.797 79.396-26.987 2.318-3.05 1.136-10.276-3.224-5.987-9.425 9.273-19.418 16.378-31.979 20.832-13.274 4.707-27.676 6.06-41.574 3.821-3.418-.551-6.679 7.438-2.619 8.321z"/><path d="M445.839 136.683c48.949-70.84 146.643-44.708 208.928-8.765 36.93 21.311 70.396 49.954 95.432 84.589 15.882 21.973 28.767 46.381 42.661 69.633 14.638 24.497 29.291 48.989 44.467 73.158 13.253 21.108 26.778 42.09 41.039 62.535 15.355 22.014 30.873 44.574 48.988 64.428 3.424 3.753 8.315-5.069 6.174-8.336-16.545-25.243-34.89-49.346-51.785-74.375-15.828-23.447-30.876-47.391-45.731-71.463-15.157-24.562-29.933-49.358-44.77-74.114-12.913-21.545-25.059-43.778-40.829-63.415-26.839-33.42-61.765-60.798-99.504-80.887-35.283-18.782-75.879-31.97-116.243-29.953-38.014 1.899-71.84 20.104-92.492 52.378-.993 1.551-2.197 4.149-.818 5.872 1.322 1.652 3.623-.04 4.483-1.285z"/><path d="M442.615 129.858c-62.615-9.154-136.438-3.985-175.506 52.879-31.671 46.098-32.216 107.335-27.716 160.934 2.261 26.922 6.367 53.65 10.931 80.265 3.9 22.742 7.361 45.744 12.224 68.296.965 4.475 6.444-2.233 6.242-4.848-1.884-24.447-7.69-48.831-11.716-72.996-4.75-28.506-8.837-57.17-10.771-86.019-3.39-50.573-1.813-111.553 34.049-151.497 39.374-43.856 105.368-44.361 159.411-37.95 3.758.446 7.304-8.413 2.852-9.064zm2.923 130.389c-7.817 49.025-24.761 96.58-49.624 139.542-12.428 21.476-27.23 41.719-44.295 59.743-16.536 17.465-35.203 31.569-55.753 43.934-.808.482-1.619.959-2.434 1.431-3.306 1.928-4.913 11.105.635 8.371 20.946-10.323 39.651-25.78 56.053-42.246 17.373-17.44 32.373-37.185 45.358-58.065 26.113-41.99 44.611-89.278 53.692-137.901 1.037-5.55 1.915-11.128 2.69-16.72.824-5.94-5.718-1.876-6.322 1.911zM256.964 575.716c5.247 26.95-1.139 54.579-12.934 78.961-11.735 24.258-29.547 46.675-51.997 61.809-1.912 1.288-5.337 7.724-1.087 8.28 21.516 2.819 43.146-2.468 64.692-2.484-.682-1.219-1.364-2.438-2.047-3.655-3.28 19.986-18.613 36.374-29.562 52.64-.948 1.408-3.276 7.688.57 7.517 30.606-1.36 61.476-2.671 91.433-9.597 30.143-6.969 57.793-21.03 80.467-42.165 1.82-1.696 3.235-4.843 2.373-7.333-.866-2.5-3.542-1.715-5.035-.325-22.044 20.524-48.857 33.306-78.002 40.24-28.831 6.86-58.677 8.044-88.163 9.416l.57 7.517c12.563-18.719 28.786-37.042 32.417-60.048.215-1.361-.229-3.68-2.047-3.655-21.613.284-43.299 5.949-64.902 3.148l-1.087 8.28c24.472-16.531 43.46-40.681 56.428-67.025 13.016-26.441 19.854-56.805 13.704-86.019-.817-3.893-6.327 1.743-5.791 4.498zm395.577 162.3c34.655 21.582 76.04 32.243 114.925 43.401 4.069 1.168 6.734-4.753 5.906-8.021-3.817-15.062-9.432-29.711-17.315-43.123l-5.52 8.933c21.794 8.73 44.979 11.927 68.32 9.145 4.102-.489 8.326-7.595 4.359-10.634-31.896-24.43-26.68-68.948-26.652-104.43.002-2.625-2.491-3.574-4.537-2.312-2.524 1.557-3.789 4.591-3.797 7.452-.11 38.294-4.375 83.469 29.691 109.68l4.359-10.634c-22.753 2.667-45.254-.467-66.906-7.762-4.311-1.452-7.404 5.742-5.52 8.933 7.568 12.813 12.818 27.005 16.493 41.395l5.906-8.021c-19.435-5.528-38.885-11.018-58.035-17.48-19.868-6.705-38.966-15.01-58.054-23.636-3.055-1.381-6.452 5.352-3.623 7.114z"/><path d="M446.106 300.816c19.009-14.574 45.591-16.264 68.611-14.879 23.627 1.421 48.11 6.367 69.462 16.873 4.229 2.081 9.314-7.958 5.115-10.038-22.216-11.004-48.134-16.048-72.765-16.984-24.828-.945-52.104 2.668-71.53 19.481-1.837 1.591-2.125 8.025 1.107 5.547z"/><path d="M492.716 170.61c32.278-1.454 69.365-4.151 92.317 23.315 18.26 21.852 20.741 53.747 22.922 80.917 1.616 20.142 2.411 40.354 4.668 60.443 2.205 19.636 5.173 40.4 12.95 58.71 2.167 5.103 7.924-2.983 6.846-6.476-4.985-16.142-8.728-32.242-10.877-49.018-2.157-16.839-3.245-33.8-4.414-50.729-2.022-29.316-3.154-61.304-16.606-88.08-7.559-15.045-19.557-26.703-35.282-32.941-21.949-8.707-48.403-7.997-71.044-2.76-2.144.497-4.653 6.762-1.48 6.619zm-49.69 288.863a29.811 29.811 0 0 0-.961-1.18c-3.816-5.77-10.112-9.755-17.37-10.436-4.389-.945-8.941-.852-13.225.612-3.491 1.194-6.943 3.404-9.126 6.415-9.752 7.088-11.566 20.785-3.932 31.021 9.556 12.814 27.357 13.539 39.801 4.785 10.743-7.556 12.725-20.905 4.813-31.217zm-43.41 6.427a23.208 23.208 0 0 0-.467 2.719c.02-.974.19-1.873.467-2.719zm243.99-12.952a31.31 31.31 0 0 0-.961-1.179c-3.816-5.771-10.112-9.756-17.37-10.436-4.389-.945-8.941-.852-13.225.611-3.491 1.193-6.943 3.404-9.125 6.416-9.753 7.088-11.567 20.783-3.933 31.021 9.556 12.814 27.357 13.539 39.801 4.784 10.743-7.556 12.726-20.903 4.813-31.217zm-43.41 6.429a23.208 23.208 0 0 0-.467 2.719c.02-.975.19-1.873.467-2.719zm-198.917 92.426c13.73 41.921 57.167 60.457 97.687 66.373 39.673 5.793 85.332.134 115.931-27.922 16.457-15.089 27.34-37.044 30.487-59.054.777-5.434-5.245-2.657-6.141.83-5.288 20.583-13.121 38.969-29.472 53.187-15.345 13.344-35.459 19.957-55.234 23.101-21.074 3.352-42.84 2.177-63.75-1.754-20.743-3.9-41.249-11.554-57.997-24.624-11.716-9.144-20.727-21.643-25.727-35.609-1.524-4.259-6.787 2.409-5.784 5.472z"/><path d="M394.529 556.733c4.691-5.481 10.347-10.209 17.531-11.791 3.472-.765 6.133-9.408 1.125-8.652-10.976 1.657-26.361 10.374-26.191 23.136.053 4.02 4.58 1.393 5.476-.694 3.55-8.267 10.887-12.223 19.591-13.789l1.125-8.652c-9.146 2.281-16.231 9.182-21.907 16.377-2.605 3.299-.235 8.138 3.25 4.065zm231.742-22.688c10.317-2.029 20.416-.682 29.217 5.246 3.2 2.155 7.989-6.506 4.391-8.617-10.01-5.874-21.754-6.104-32.752-3.203-2.587.681-4.632 7.317-.856 6.574zm-185.778-18.752c-2.469-15.054-19.188-18.756-32.211-18.598-13.637.168-31.871 4.783-38.17 18.332-1.867 4.015 1.67 5.72 3.9 1.986 5.917-9.904 22.46-12.234 32.748-12.438 10.518-.209 25.947 2.536 28.475 14.801.738 3.575 5.661-1.636 5.258-4.083zm173.686-8.533c2.254-11.146 20.121-11.91 28.762-11.473 11.145.566 25.785 4.041 32.197 14.168 1.672 2.641 5.387-3.036 4.486-5.088-5.952-13.562-24.854-17.115-38.055-17.07-13.959.049-30.148 5.542-32.744 21.083-.234 1.405.521 3.194 2.223 2.677 1.832-.557 2.783-2.58 3.131-4.297zm62.946-91.489c-7.657-13.676-20.106-25.256-34.761-31.004-14.274-5.6-30.5-7.996-45.771-8.426-14.774-.414-22.183 36.057-10.111 33.852 14.616-2.672 29.233-2.704 43.778.529 13.987 3.109 28.216 6.953 39.435 16.328 4.841 4.048 9.546-7.501 7.43-11.279z"/><circle fill="#FFF" cx="426.435" cy="465.488" r="9.331"/><circle fill="#FFF" cx="612.441" cy="459.682" r="9.331"/></svg>