<svg xmlns="http://www.w3.org/2000/svg" xmlns:xlink="http://www.w3.org/1999/xlink" width="1030" height="1030" viewBox="0 0 1030 1030"><defs><path id="a" d="M1020.378 515.001c0 279.115-226.266 505.377-505.379 505.377-279.111 0-505.377-226.264-505.377-505.377S235.888 9.622 514.999 9.622c279.113 0 505.379 226.266 505.379 505.379z"/></defs><use xlink:href="#a" overflow="visible" fill="#FFBF1F"/><clipPath id="b"><use xlink:href="#a" overflow="visible"/></clipPath><g clip-path="url(#b)"><path fill="#FFBF1F" d="M1021.413 517.214c0 279.115-226.265 505.377-505.378 505.377-279.112 0-505.377-226.264-505.377-505.378 0-279.113 226.265-505.378 505.377-505.378 279.113 0 505.378 226.265 505.378 505.379z"/><path fill="#FC9E17" d="M64.591 301.339c65.698-60.767 147.473-101.363 226.167-142.394 40.815-21.281 80.746-43.73 120.539-66.854 43.206-25.11 87.47-49.598 136.054-62.561l-2.864-37.722C469.489 62.96 382.009 118.799 296.63 176.392c-43.967 29.658-87.432 59.996-129.214 92.682-20.033 15.672-39.122 32.311-60.043 46.828-21.763 15.1-44.411 28.884-66.553 43.409-20.462 13.421-40.42 27.7-58.93 43.736-7.093 6.145-11.696 17.171-10.986 26.521.548 7.209 5.931 13.974 13.849 11.2 98.168-34.394 184.331-95.652 268.734-154.941 42.164-29.617 84.252-59.421 128.115-86.495 19.998-12.341 40.242-24.097 59.857-37.073 21.044-13.919 41.816-28.239 62.965-42.001 37.357-24.313 76.479-48.122 120.033-59.315-2.238-11.117-4.478-22.232-6.716-33.351-3.625 4.497-11.991 11.267-18.964 15.919-10.001 6.67-20.648 12.364-31.156 18.178-23.028 12.742-45.092 27.219-67.553 40.936-51.306 31.332-102.533 62.797-153.852 94.112-51.111 31.188-102.327 62.211-153.791 92.816-45.841 27.263-92.238 53.613-137.738 81.449-57.196 34.991-113.602 73.15-161.327 120.578-6.828 6.784-11.733 16.688-10.986 26.521.559 7.365 5.898 13.78 13.85 11.198 51.945-16.859 99.749-43.608 147.504-69.638 50.273-27.404 102.161-51.78 153.584-76.934 106.724-52.204 213.545-104.201 320.026-156.899 43.588-21.572 87.409-42.348 128.738-68.076 36.969-23.018 73.674-48.996 115.463-62.538-.954-12.575-1.908-25.146-2.864-37.721-32.515 34.457-76.607 55.146-117.22 78.288-50.043 28.516-97.458 62.321-145.694 93.778-48.672 31.741-97.557 62.7-143.462 98.404-36.259 28.201-71.636 58.477-113.409 78.263C166.968 440.29 75.416 461.753 37.56 541.29c-3.076 6.463-5.365 14.316-2.91 21.401 1.744 5.04 7.496 9.095 12.933 6.589 100.087-46.102 193.518-104.332 287.45-161.587 46.518-28.354 93.288-56.325 141.229-82.228 49.123-26.541 100.223-49.029 149.865-74.543 51.182-26.305 101.262-54.686 151.102-83.427-.984-12.997-1.971-25.993-2.959-38.989-89.506 66.279-184.819 124.035-280.237 181.279-95.315 57.186-189.7 115.122-280.916 178.699C148.345 533.63 70.699 560.08 20.878 624.456c-8.81 11.384-11.102 42.221 10.985 31.382 208.226-102.161 408.94-218.58 611.71-330.955 81.106-44.949 162.599-89.213 245.033-131.684l-2.959-38.989C684.77 269.933 489.944 395.937 300.087 528.914 223.16 582.793 147.083 637.886 71.74 693.957c-9.188 6.835-16.062 17.88-15.161 29.76.735 9.699 9.591 15.234 18.12 9.229 43.633-30.724 91.014-55.527 138.016-80.599 48.866-26.063 96.421-53.966 143.454-83.206 97.824-60.818 193.597-125.836 295.819-179.224 79.944-41.755 155.398-91.653 236.617-131.035l-7.131-35.752C726.442 362.758 545.962 469.948 368.333 577.764c-93.445 56.721-186.838 113.71-276.603 176.167-9.319 6.484-16.044 18.146-15.161 29.758.801 10.539 9.316 14.158 18.12 9.23 202.516-113.372 408.093-221.234 609.108-337.292 82.609-47.694 164.386-96.848 244.781-148.196-3.662-10.461-7.324-20.92-10.984-31.381-4.996 7.511-10.377 14.716-16.098 21.688-5.041 6.146-10.836 12.267-18.376 19.708-14.123 13.939-29.659 26.809-45.089 38.273-35.397 26.297-73.572 48.73-112.081 70.107-37.449 20.789-75.582 40.312-113.116 60.945-42.605 23.422-83.599 49.658-124.551 75.827-65.341 41.753-130.41 84.796-198.977 121.15-60.084 31.858-124.11 59.163-173.205 107.688-6.838 6.762-11.73 16.707-10.986 26.521.622 8.164 5.797 12.766 13.852 11.199 27.105-5.268 51.928-18.041 75.645-31.76 24.854-14.379 49.684-28.809 74.537-43.191a10605.337 10605.337 0 0 0 152.23-89.772c49.531-29.772 100.037-57.95 150.667-85.822 50.375-27.729 102.132-51.93 153.663-77.322 67.275-33.148 131.118-72.729 197.158-108.185l-10.984-31.383c-5.504 7.192-9.136 10.836-17.041 18.057-7.751 7.076-15.978 13.312-24.516 19.367-18.807 13.338-38.714 25.094-58.617 36.699-43.185 25.18-85.118 51.793-126.224 80.276-91.95 63.715-180.731 131.845-272.466 195.851-62.606 43.68-127.019 85.396-195.645 119.062l2.959 38.99c48.338-27.512 98.725-51.109 148.234-76.383 25.085-12.807 49.887-26.168 74.097-40.572 24.189-14.391 46.896-30.896 69.81-47.201 23.254-16.545 46.578-32.993 70.564-48.466 23.51-15.167 48.085-28.535 72.547-42.078 48.809-27.02 97.927-53.479 146.338-81.21 61.396-35.17 121.518-72.686 178.058-115.307l-10.984-31.382c-59.98 69.83-146.117 119.636-225.496 166.943-91.051 54.269-181.007 110.706-269.408 169.204-41.195 27.26-81.384 55.869-121.203 85.092-39.395 28.914-78.96 57.732-121.234 82.348-9.594 5.584-15.991 18.82-15.16 29.758.841 11.066 9.201 13.475 18.119 9.23 100.961-48.053 196.104-107.057 291.245-165.518 47.797-29.369 95.674-58.625 144.386-86.46 47.674-27.237 96.568-52.016 145.609-76.669 75.025-37.713 150.203-76.055 218.389-125.428l-7.131-35.751c-33.609 33.213-76.089 55.599-117.895 76.72a4039.337 4039.337 0 0 0-133.637 70.689c-99.297 54.921-199.127 109.008-295.387 169.18-39.695 24.812-79.178 50.248-116.168 78.982-32.521 25.262-64.553 53.299-102.398 70.43-8.954 4.055-15.02 11.32-17.994 20.766-1.854 5.883-3.031 24.236 8.273 22.725 45.448-6.074 87.678-22.926 128.725-42.799 43.947-21.275 85.809-46.65 127.57-71.857 92.4-55.779 188.994-103.605 284.819-153.17 30.956-16.012 61.8-31.989 92.062-49.282 29.731-16.989 59.46-33.979 89.188-50.968 9.618-5.496 15.986-18.892 15.161-29.759-.804-10.575-9.309-14.111-18.121-9.229-104.188 57.711-206.854 118.117-308.767 179.746-51.145 30.93-102.087 62.188-152.946 93.584-44.668 27.572-85.541 60.625-129.553 89.188-21.203 13.756-43.262 26.518-67.016 35.328l-1.309 40.957c171.867-107.34 370.172-160.402 549.303-253.342 47.312-24.547 93.093-52.107 136.094-83.643 9.217-6.758 16.058-17.938 15.16-29.76-.76-9.986-9.485-14.867-18.119-9.229-189.893 124.01-375.483 255.294-574.295 364.989a2775.571 2775.571 0 0 1-59.694 31.969l7.133 35.752c73.348-58.309 162.889-92.967 248.278-129.312 44.957-19.137 89.819-38.742 132.914-61.836 22.314-11.959 44.491-24.162 66.002-37.533 23.461-14.584 46.565-29.75 71.245-42.24l-14.291-26.021c-3.254 5.631 2.838-4.268-.768 1.271-1.092 1.672-2.266 3.291-3.438 4.908-1.197 1.656-2.473 3.256-3.742 4.855-.225.285-4.667 5.496-1.594 2.025-6.42 7.246-13.553 13.844-20.877 20.158-14.344 12.365-31.18 23.664-48.141 34.455-35.631 22.666-73.098 42.25-109.025 64.42-39.857 24.594-76.527 54.361-114.17 82.133-42.476 31.334-86.008 61.828-133.523 85.104-8.504 4.166-17.229 7.842-26.043 11.295.954 12.572 1.908 25.146 2.865 37.721 61.736-53.27 143.855-80.49 220.312-108.334 80.787-29.42 162.883-61.467 226.772-120.973 7.469-6.955 14.517-14.354 21.267-22.004 7.163-8.117 13.979-19.857 10.071-31.133-3.469-10.01-15.477-8.066-21.376-1.381-114.229 129.438-307.649 132.047-443.065 231.178a405.641 405.641 0 0 0-25.289 20.133c-7.098 6.125-11.693 17.186-10.986 26.523.529 6.965 5.992 14.279 13.852 11.197 97.135-38.068 176.129-109.006 260.492-168.248 66.981-47.033 147.925-76.375 205.264-136.568 10.397-10.916 19.23-22.635 26.766-35.684 7.101-12.287 4.061-35.306-14.291-26.02-23.682 11.982-45.959 26.396-68.421 40.475-22.415 14.049-45.567 26.727-68.829 39.299-42.021 22.705-85.975 41.566-129.891 60.242-90.248 38.379-182.229 75.838-259.648 137.379-7.225 5.744-11.672 17.469-10.985 26.521.819 10.785 9.259 13.842 18.12 9.23C584.75 936.469 771.74 806.555 960.965 681.342a11124.478 11124.478 0 0 1 56.154-36.924l-2.959-38.989c-164.072 120.32-362.512 176.992-545.047 261.855-48.147 22.383-95.298 46.992-140.351 75.131-8.23 5.139-13.766 14.979-14.994 24.48-1.041 8.053 3.029 20.43 13.686 16.479 48.653-18.047 91.169-48.994 132.91-79.129 45.077-32.541 91.929-61.576 139.312-90.625 101.836-62.436 204.242-123.968 307.943-183.266a7359.87 7359.87 0 0 1 86.651-48.766c-.985-12.996-1.972-25.993-2.96-38.988-51.546 29.457-102.699 59.619-155.438 86.898-53.777 27.817-107.557 55.633-161.336 83.449-43.93 22.723-87.301 45.756-129.695 71.246-41.771 25.117-83.297 50.699-126.523 73.277-41.221 21.529-86.023 41.922-132.549 48.141-3.242 14.498-6.481 28.994-9.721 43.49 47.462-21.482 85.908-55.805 127.178-86.811 44.623-33.523 92.952-62.742 140.678-91.576 96.972-58.587 197.005-111.868 295.911-167.064 73.6-41.076 157.644-70.725 218.6-130.964 6.843-6.76 11.733-16.708 10.988-26.521-.729-9.591-9.636-15.373-18.12-9.229-88.588 64.145-188.591 109.527-285.451 159.373-99.426 51.166-193.672 111.625-289.093 169.732-73.313 44.643-147.525 88.053-225.085 124.969l2.959 38.988c49.188-28.641 94.676-62.945 140.544-96.504 46.478-34 94.138-66.234 142.512-97.467 87.035-56.191 175.351-110.046 263.912-163.752 74.69-45.295 149.065-94.295 206.426-161.075 5.669-6.597 9.146-18.316 6.218-26.761-2.553-7.37-11.105-9.217-17.203-4.62-89.627 67.563-188.064 121.632-286.238 175.511-49.329 27.073-98.405 53.916-144.788 85.881-23.353 16.091-46.29 32.776-69.501 49.068-23.09 16.205-47.426 30.418-72.158 43.965-61.564 33.727-125.931 62.055-186.961 96.791-9.622 5.477-15.983 18.906-15.16 29.76.834 10.973 9.219 13.596 18.119 9.23 98.893-48.512 189.043-113.174 277.802-177.872 89.326-65.108 177.655-132.874 271.783-191.008 55.476-34.265 120.368-62.552 160.974-115.647 5.391-7.048 9.266-17.969 6.219-26.763-2.84-8.196-10.652-8.139-17.203-4.62-49.321 26.479-97.432 55.121-146.602 81.871-49.907 27.152-102.033 49.65-152.422 75.84-103.297 53.693-202.543 114.397-302.912 173.234a11398.73 11398.73 0 0 1-97.148 56.283c-30.903 17.713-60.723 37.979-96.279 44.889.954 12.572 1.908 25.146 2.865 37.721 33.756-33.367 76.162-55.738 118.041-77.18 45.688-23.391 90.238-48.039 134.127-74.681 87.6-53.175 171.682-111.858 262.071-160.353 54.957-29.484 110.544-57.98 162.961-91.898 49.711-32.166 98.854-70.181 131.993-120.016 5.023-7.557 9.406-17.564 6.218-26.762-2.7-7.791-10.854-8.675-17.203-4.621-195.874 125.101-399.875 236.655-603.807 347.893-83.529 45.561-167.062 91.117-250.083 137.596.985 12.996 1.972 25.992 2.959 38.988 170.95-118.941 354.397-218.406 528.241-332.895 94.264-62.08 185.904-128.777 269.847-204.379 7.025-6.327 11.708-17.035 10.988-26.521-.836-11.01-9.213-13.55-18.12-9.23-51.248 24.849-100.296 53.832-149.524 82.396-49.636 28.8-100.665 55.019-150.331 83.749-99.656 57.645-195.211 122.086-293.779 181.536-72.496 43.724-150.876 77.517-220.271 126.384.985 12.996 1.973 25.992 2.959 38.988 185.013-137.684 374.572-269.338 569.658-392.373 80.435-50.727 161.85-99.902 244.248-147.373 9.606-5.535 15.987-18.861 15.161-29.76-.821-10.815-9.251-13.799-18.12-9.229C679.47 260.432 479.433 377.96 275.685 488.664c-81.457 44.258-163.553 87.353-246.782 128.186l10.984 31.383c25.776-33.308 66.304-56.533 103.788-77.647 19.877-11.199 39.891-22.157 59.18-34.356 21.948-13.881 42.736-29.654 64.246-44.203 92.357-62.464 188.979-118.262 284.29-176.013 77.075-46.703 153.374-94.857 225.837-148.517 9.198-6.81 16.062-17.9 15.162-29.76-.793-10.436-9.346-14.29-18.121-9.229-48.863 28.18-97.979 55.93-148.079 81.867-49.613 25.688-100.764 48.179-150.024 74.562-96.332 51.593-187.564 112.021-281.984 166.92-45.945 26.715-92.726 52.251-141.018 74.497 3.339 9.33 6.681 18.662 10.023 27.99a167.79 167.79 0 0 1 2.938-5.881c.276-.53 3.928-6.72 1.068-2.127 2.277-3.657 4.846-7.124 7.492-10.519.168-.216 4.738-5.591 1.715-2.197 1.437-1.612 2.949-3.157 4.456-4.703 3.552-3.637 7.364-7.009 11.247-10.285 4.772-4.025 12.174-9.079 19.404-13.619 8.459-5.309 17.279-10.026 26.193-14.511 34.469-17.342 71.242-29.699 106.113-46.215 43.148-20.439 79.836-52.666 117.23-81.818 44.833-34.949 93.141-64.874 140.71-95.896 48.038-31.33 95.283-64.804 145.126-93.205 42.926-24.461 88.732-46.937 123.102-83.359 6.684-7.084 11.75-16.467 10.986-26.521-.559-7.366-5.897-13.776-13.851-11.199-49.908 16.174-93.238 47.806-137.599 74.86-48.914 29.833-102.049 53.269-153.393 78.592-106.676 52.613-213.651 104.618-320.469 156.94-43.396 21.257-86.618 42.541-129.029 65.714-40.359 22.048-80.935 43.731-124.823 57.979l2.863 37.722c72.181-71.732 163.499-120.634 250.486-171.761 103.368-60.754 205.491-123.592 307.752-186.184 31.838-19.49 63.288-39.892 95.544-58.647 28.137-16.359 57.43-30.229 78.302-56.136 6.78-8.413 13.28-38.49-6.716-33.35-47.432 12.189-90.47 38.453-131.143 64.924-21.107 13.74-41.834 28.054-62.84 41.949-19.621 12.977-39.934 24.667-59.938 37.012-88.902 54.875-170.566 120.623-260.034 174.661-39.992 24.155-81.579 45.8-125.744 61.276l2.863 37.721c39.103-33.88 85.59-57.931 127.509-87.985 21.175-15.182 40.63-32.546 61.216-48.488 20.628-15.977 41.773-31.276 63.117-46.279 86.076-60.504 176.02-115.53 257.792-181.999 18.233-14.82 35.915-30.312 52.962-46.484 6.924-6.571 11.721-16.852 10.986-26.521-.586-7.715-5.842-13.337-13.852-11.199C503.626-.24 458.109 24.438 414.134 49.748c-40.958 23.574-81.776 46.956-123.684 68.825-82.873 43.245-167.968 86.252-237.164 150.254-7.749 7.166-13.724 20.591-10.071 31.133 3.688 10.637 15.029 7.252 21.376 1.379z"/></g><path fill="#2F61DD" d="M275.128 383.168c3.376 8.322 9.418 11.554 16.865 5.501 8.956-7.28 13.777-20.342 17.989-30.669 5.806-14.234 10.285-29.05 13.984-43.96 2.902-11.693 5.732-23.806 5.914-35.912l-8.188 5.05c-.012 7.872 2.72 17.57 12.304 12.654 9.842-5.048 16.857-17.439 22.414-26.458 8.789-14.267 16.058-29.411 22.284-44.955 5.734-14.317 10.811-29.597 12.091-45.053.402-4.856.03-9.5-1.327-14.187-1.58-5.456-7.874 2.73-7.559 5.871 1.227 12.221-2.113 25.24-5.756 36.904-4.863 15.569-11.54 30.574-19.189 44.962-5.626 10.583-12.532 22.744-20.542 30.536-1.685 1.639-1.443 1.535-3.489 2.632 1.283-.688-1.652.322-.247.135-.918.122-.936-.048-.811.001-.835-.325-.836-.575-1.261-1.773-.596-1.679-.688-3.989-.724-6.319-.04-2.565-2.419-3.528-4.458-2.271-2.471 1.524-3.735 4.514-3.73 7.321.016 8.742-2.365 19.477-4.482 28.614a340.779 340.779 0 0 1-11.664 39.431c-3.576 9.841-7.636 19.778-13.766 28.327-3.747 5.225-7.903 5.269-11.336-1.411-1.952-3.798-6.425 2.293-5.316 5.029z"/><path fill="#D8724A" d="M393.417 707.196l-.003.006z"/><path fill="#FFE5B8" d="M765.229 355.734c-2.816-3.448-6.894-4.522-11.463-2.961-.566.193-1.135.39-1.699.582v-.104l-.361.229c-13.684 4.705-22.516 3.892-31.189 2.139 1.674-5.926 2.958-12.029 3.919-18.216.794-.026 1.622-.309 2.343-.787 3.111-2.064 4.846-6.231 4.767-10.07-.396-18.912-2.65-37.796-7.384-55.815-1.49-7.635-3.754-15.069-7.145-21.732-4.925-12.295-11.246-23.972-19.206-34.715-20.569-27.765-51.151-44.807-82.501-53.926-17.508-5.093-35.479-7.953-53.557-9.307-21.08-1.579-42.323-1.336-63.151 2.787a139.35 139.35 0 0 0-8.521 1.977c-28.578 1.11-56.901 7.118-82.801 20.717a136.938 136.938 0 0 0-7.127 4.03c-13.078 5.307-25.795 11.572-37.815 19.093-16.375 10.247-31.969 23.76-41.005 42.027-6.559 13.259-7.906 27.974-4.699 41.978-2.835 13.125-2.666 26.836.724 40.08-10.62 8.007-20.823 16.734-30.424 26.429-5.718 5.772-9.736 14.265-10.751 22.716-.459 3.824-.234 11.526 3.521 16.125 1.868 2.285 4.37 3.413 7.275 3.287 9.216-.45 18.707-1.658 28.716-3.664-8.031 4.278-15.31 8.735-22.012 13.47-7.939 5.607-13.66 15.646-14.927 26.204-.565 4.711.001 11.719 3.466 15.961 1.844 2.259 4.337 3.453 7.258 3.453 18.014-.081 36.896-1.726 57.379-5.014-23.348 10.82-47.588 22.685-71.095 36.92-8.845 5.355-13.921 17.053-15.026 26.27-.732 6.1.558 11.857 3.45 15.4 2.763 3.387 6.858 4.601 11.576 3.392 19.259-4.916 36.159-9.384 51.683-13.675-3.734 1.718-7.53 3.478-11.326 5.259l-.998.266-.031.236c-9.866 5.05-16.854 15.648-18.328 27.917-.73 6.107.553 11.881 3.463 15.441 2.771 3.393 6.837 4.593 11.543 3.349l2.022-.546c-.417.232-.925.464-1.341.697l-.385.055v.059c0 .586-1.917 1.17-2.967 1.754-8.386 4.672-13.75 16.765-14.896 26.3-.732 6.112.572 11.898 3.495 15.477 2.774 3.398 6.86 4.585 11.556 3.31a686.73 686.73 0 0 0 29.934-8.895c-7.173 7.514-13.458 23.562-11.013 33.629 1.608 6.625 6.749 9.735 14.366 8.556a376.083 376.083 0 0 0 21.271-3.925c-2.762 4.68-4.594 10.069-5.256 15.584-.545 4.541.104 11.422 3.732 15.863 2.826 3.461 6.9 4.508 11.441 2.885 3.244-1.162 6.49-2.32 9.74-3.47a39.716 39.716 0 0 0-6.896 17.967c-.747 6.225.401 11.554 3.233 15.022 2.699 3.307 6.799 4.621 11.674 3.771.646-.113 1.291-.261 1.936-.377l.123-.221c6.566-1.152 13.145-2.585 19.73-3.765-3.457 8.322-5.183 17.759-1.854 23.741.922 1.66 2.546 2.994 5.33 3.625 1.123.465 2.438.715 3.963.717h.048c5.177-.01 10.37-.088 15.573-.209 9.944.086 19.827.104 29.533-.531.588 5.447 3.123 10.551 7.254 12.516 11.727 5.57 24.872 8.396 39.068 8.396 30.234 0 60.903-12.752 81.342-22.346 38.867-18.242 74.087-42.178 106.358-65.33l.896-.542-.007-.117c9.233-7.106 15.059-19.826 14.248-31.322-.569-8.083-5.159-13.307-11.688-13.307-.421 0-.848.023-1.275.069 10.434-8.989 19.174-18.734 26.49-29.51 5.057-7.448 9.316-18.955 6.11-28.913-1.353-4.196-4.183-7.039-7.823-8a255.159 255.159 0 0 0 5.588-5.497c7.326-7.435 11.609-18.605 10.914-28.459-.473-6.689-4.632-13.8-11.407-13.8-1.306 0-2.649.276-3.996.822-2.05.831-4.121 1.666-6.208 2.503 7.178-5.43 12.504-15.192 13.723-25.345.57-4.766-.397-11.831-3.875-16.091-2.853-3.49-6.917-4.455-11.368-2.631-.533.219-1.072.438-1.612.658l.01-.316-1.182.788c-.87.35-1.748.701-2.633 1.051a348.42 348.42 0 0 0 17.613-16.149c5.708-5.609 9.732-14.106 10.77-22.729.609-5.092-.227-12.012-3.476-15.991-.903-1.104-1.964-1.955-3.161-2.531a811.286 811.286 0 0 0 17.377-10.646c8.856-5.584 13.914-17.208 15.002-26.254.722-5.974-.727-12.173-3.685-15.798zM383.546 229.245c-8.039 8.348-16.004 16.773-24.09 25.059a131.488 131.488 0 0 1 7.723-11.215c1.875-2.438 4.043-4.969 6.387-7.486 4.656-4.167 9.631-7.937 14.811-11.347-.439.452-.879.901-1.318 1.354a27.611 27.611 0 0 0-3.513 3.635zm-44.233 44.918c4.469-13.265 10.289-25.931 17.748-37.522 3.707-3.646 7.639-7.021 11.736-10.17-11.852 13.508-21.254 29.198-28.047 46.328-.479.454-.954.912-1.437 1.364zm332.612-64.95c.57.511 1.139 1.022 1.701 1.544a2.558 2.558 0 0 0-1.047-.394c-.218-.384-.432-.77-.654-1.15zm11.07 140.117c.457 1.104.902 2.214 1.354 3.322-1.156.003-2.588.008-4.178.017a79.87 79.87 0 0 0 2.824-3.339zm14.733-108.919a13.418 13.418 0 0 0-.6 4.066c.02 2.037.104 4.062.242 6.075-5.902-13.919-14.012-26.802-22.708-38.798-.028-.037-.057-.065-.085-.103a135.616 135.616 0 0 1 23.151 28.76zm-372.315 17.461c.091-.683.209-1.359.326-2.037.186-1.06-.092.277.34-1.478 1.32-5.38 3.264-9.337 5.844-13.377 3.412-5.342 6.5-8.762 11.229-13.309 6.274-6.036 13.25-11.295 20.647-15.95a166.58 166.58 0 0 0-8.861 11.378c-11.754 10.651-22.071 22.979-29.764 37.336-.017.03-.032.062-.049.093.077-.887.173-1.773.288-2.656zm100.224 49.032l2.708-1.302.137.356c-.951.315-1.902.628-2.845.946zm90.964-5.721c4.117 2.436 8.143 5.055 12.093 7.748a623.523 623.523 0 0 1 4.745 3.275c-5.934-2.81-11.49-5.706-16.646-8.798a23.695 23.695 0 0 0-.192-2.225z"/><path fill="#EAA286" d="M773.017 487.078c-1.279-12.006-3.092-23.938-5.293-35.801 1.452-20.888 1.807-41.73-1.492-62.491.15-.724.301-1.448.449-2.171.35-1.689-.254-3.672-1.615-4.435a166.422 166.422 0 0 0-2.68-11.452c-1.4-5.141-6.734-.297-8.529 2.877-1.583-16.329-4.689-32.544-8.705-48.339-8.648-34.01-22.597-67.204-41.996-96.504-.442-.67-1.039-.984-1.689-1.066-3.116-6.161-6.586-12.043-10.592-17.386-.012-15.267-14.232-26.256-26.299-33.771-9.922-6.18-20.791-11.374-31.948-15.46-8.893-8.232-18.562-15.561-29.358-21.254-24.055-12.686-52.5-13.422-78.908-9.74-23.589 3.287-46.244 10.128-68.557 18.096a276.768 276.768 0 0 0-47.879 18.057l-1.326.5c-.29.109-.572.305-.838.561-42.38 21.113-79.116 53.167-103.551 94.065-1.096 1.832-1.718 5.081-.258 6.904 1.986 2.479 5.023-.223 6.401-1.835a297.217 297.217 0 0 1 17.039-18.311 194.008 194.008 0 0 0-7.668 11.566c-15.97 26.072-26.403 56.035-27.294 86.743-.108 3.718 4.62.127 4.758-2.191 2.482-41.571 22.383-82.249 51.992-111.253 14.615-14.316 32.329-25.45 52.15-30.836 23.563-6.405 47.615-1.233 70.916 3.88 1.641.36 3.285.729 4.928 1.1.453.642 1.126 1.043 2.109.968.507-.038 1.014-.095 1.52-.143 17.031 3.902 34.195 8.162 51.492 10.865.422.266.939.464 1.576.577 1.867.331 3.759.473 5.664.456 15.143 1.949 30.385 2.508 45.724.388 17.234-2.383 33.813-8.208 51.103-10.23 8.752-1.023 17.55 6.01 26.188 7.732.823.164 1.626 3.238 2.426 3.445 7.795 10.043 15.068 10.908 21.521 21.702 25.531 42.707 35.785 91.869 40.855 140.806 1.674 16.163 2.953 32.325 3.703 48.496-.41 22.54-.461 45.084-.384 67.629a533.776 533.776 0 0 1-.821 11.334c-1.77 20.897-4.553 41.967-10.43 62.145-6.576 22.577-20.254 42.443-34.303 61.02-16.015 21.175-33.903 42.665-55.033 58.942-.361.279-.732.549-1.098.825-12.729 4.318-24.768 11.737-34.11 20.697a207.493 207.493 0 0 1-30.657 11.706c-20.293 5.963-41.746 8.369-62.791 5.789-3.689-.453-7.152 8.289-2.795 8.881 30.988 4.221 63.17-2.369 92.08-15.531.24 2.064 1.488 3.391 4.511 2.645 9.689-2.387 19.474-7.594 27.716-13.514.344.188.797.223 1.372.047.306 1.058 1.136 1.6 2.798.99 2.953-1.081 5.736-2.545 8.34-4.287.698.64 1.656.892 2.901.392 15.798-6.341 28.692-20.001 39.692-32.552 8.415-9.602 15.935-20.104 22.752-30.977 1.869.326 4.567-1.304 5.862-2.797 14.466-16.691 23.979-37.178 31.931-57.598 6.322-16.235 11.652-33.105 15.566-50.184-.021 6.129.137 12.249.568 18.354.295 4.159 4.219 4.197 6.763 1.818 19.928-18.638 16.148-46.322 13.531-70.889zM407.513 190.257c2.273-1.1 4.557-2.176 6.855-3.219.514.674 1.324 1.159 2.524 1.351.7.112 1.399.204 2.098.286-3.85.318-7.677.842-11.477 1.582zm127.213 16.378c-.507.185-1.045.528-1.581.979-.521-.082-1.041-.171-1.562-.256 1.122-.256 2.239-.522 3.356-.8l-.213.077zm40.57 1.784c-.158.501-.293 1.229-.348 2.019-2.791.189-5.598.277-8.412.274 3.07-1.609 6.008-3.266 8.754-4.817l1.408-.413a11.498 11.498 0 0 0-1.402 2.937zm-3.338-47.183c1.31.144 2.619.298 3.928.458a385.77 385.77 0 0 0-3.877-.096 5.255 5.255 0 0 0-.051-.362zm-44.151-14.053c1.657-3.406 2.45-7.549-.269-8.548 15.947-1.503 31.961-.994 47.932 2.579 10.021 2.243 19.334 6.355 27.988 11.66-24.861-5.311-50.322-7.079-75.651-5.691zm89.625 55.371c-1.559.35-3.114.707-4.67 1.066 5.319-2.451 10.646-4.841 16.118-6.665 7.51-.321 15.551-.233 23.127 1.172l.274.322c-11.708-.678-23.485 1.554-34.849 4.105zm91.997 422.403c1.061-3.366 2.328-6.669 3.598-9.88a197.287 197.287 0 0 1 3.229-7.65 142.406 142.406 0 0 0 5.583-9.288c2.081-3.802 4.146-7.614 6.186-11.441-4.953 13.008-10.811 26.442-18.596 38.259zm24.211-248.555a600.374 600.374 0 0 0-1.624-13.218A1457.86 1457.86 0 0 1 734.017 376a14.42 14.42 0 0 0-.377.402zm28.668 162.764c-.345-13.102.295-26.208 1.291-39.31a377.877 377.877 0 0 1 1.368 19.378c.31 7.044-.078 13.882-2.659 19.932z"/><path fill="#EF6100" d="M754.954 928.56c-8.074-32.607-21.58-64-40.216-91.533a213.555 213.555 0 0 0-4.173-8.086c-.197-6.117-2.125-11.527-7.221-12.402-4.605-7.4-9.551-14.51-14.646-21.266-26.798-35.527-62.837-58.982-106.585-67.721-44.931-8.979-91.942-1.576-136.422 6.484-39.748 7.205-82.573 12-115.87 36.916-11.701 8.754-21.122 19.104-28.86 30.547-5.383 5.328-10.402 11.07-14.977 17.26a138.755 138.755 0 0 0-2.652 3.725c-9.52 11.635-18.69 23.58-28.209 35.043-6.078 7.316-11.057 22.535-4.309 30.961 2.011 2.512 4.332 3.574 6.742 3.678-1.203 8.711-1.85 17.521-2.016 26.338-1.857 3.32-2.842 7.143-2.162 10.123-3.029 5.385-3.969 12.455.419 15.426.928.629 1.863 1.242 2.798 1.857.83 3.723 3.183 4.525 5.846 3.732.403.248.809.494 1.213.74 1.516 3.109 4.28 5.158 8.791 5.141 10.822 6.049 22.051 11.348 33.56 16.02-.022.9-.017 1.809.054 2.73.619 8.148 5.908 13.18 14.087 11.389a171.328 171.328 0 0 0 14.495-3.863c19.373 6.094 39.21 10.799 58.951 14.658 43.615 8.525 88.959 12.666 133.35 13.906 54.308 1.518 140.014-4.232 180.911-47.979a573.683 573.683 0 0 0 37.687-15.346c6.854-3.074 11.263-11.017 9.414-18.478zm-47.293-18.981a93.017 93.017 0 0 0 6.074-9.73c.293 2.609.471 5.225.523 7.834-2.206.605-4.405 1.24-6.597 1.896zm-394.705 31.588c9.836-5.307 19.258-11.439 28.248-17.559 1.379-.939 2.736-1.906 4.105-2.861-8.924 7.227-17.373 14.941-25.139 23.324a199.55 199.55 0 0 1-7.214-2.904zm212.957-179.699c-10.054 4.518-19.861 9.629-29.474 15.045 3.905-4.41 6.938-9.514 8.55-15.156 6.983-.108 13.961-.096 20.924.111zm73.606 12.523c-10.758 6.684-21.674 13.102-32.631 19.445 3.935-7.227 7.279-14.826 9.873-22.867.305-.945.562-1.953.766-3 7.404 1.698 14.741 3.811 21.992 6.422zM282.921 892.212a234.192 234.192 0 0 0 5.967-2.891 196.456 196.456 0 0 0-7.733 10.369c.538-2.475 1.085-4.947 1.639-7.42l.127-.058zm121.916-16.197c21.76-16.17 45.393-29.861 68.367-44.211 14.445-9.025 29.115-17.76 44.408-25.096a329.236 329.236 0 0 1-4.066 3.594c-9.414 8.172-16.902 13.504-28.146 21.201-11.896 8.143-24.152 15.754-36.461 23.256-25.481 15.523-52.898 30.279-78.338 47.41 11.417-8.715 22.715-17.592 34.236-26.154zm114.236-11.51c-15.752 10.668-31.944 20.639-48.229 30.463 20.947-15.795 42.572-29.451 65.388-42.432a692.196 692.196 0 0 1-17.159 11.969zm-61.947 90.683c-4.215 2.9-7.881 6.898-10.576 11.473-4.383-.287-8.764-.6-13.141-.949a5638.478 5638.478 0 0 0 23.717-10.524zm238.242-89.834a162.097 162.097 0 0 0 5.498-8.211 235.658 235.658 0 0 1 1.891 4.318 351.835 351.835 0 0 0-7.389 3.893zm-44.147-28.333c3.8-4.428 7.534-8.926 11.188-13.508 1.779-2.229 3.371-4.902 4.623-7.797a215.627 215.627 0 0 1 9.566 9.561 417.797 417.797 0 0 0-25.377 11.744zm-7.881-40.45c-7.347 4.918-14.282 10.363-21.062 16.014 4.68-6.867 8.945-14.014 12.72-21.463a196.116 196.116 0 0 1 8.342 5.449zM513.935 963.71a189.475 189.475 0 0 0-5.447 5.703 562.868 562.868 0 0 1-3.443-.1 904.865 904.865 0 0 0 8.89-5.603z"/><path fill="#FFE5B8" d="M566.658 720.747a41.735 41.735 0 0 0-2.543-1.068c-1.285-4.348-3.103-8.687-5.467-13.031-5.544-10.187-19.897 1.719-23.645 6.781a41.183 41.183 0 0 0-2.16 3.236c-8.247.824-16.362 2.524-23.575 4.314-16.019 3.975-32.887 13.889-40.758 28.297a80.905 80.905 0 0 0-.701-.75c-1.465-1.551-2.701-3.289-3.855-5.074.753 1.102-1.047-2.133-1.194-2.48-.622-1.463-1.067-2.99-1.515-4.512a73.556 73.556 0 0 0-.192-.637 33.511 33.511 0 0 0-.155-1.273c-.247-1.785-.305-3.592-.369-5.391-.006-.207-.014-.393-.021-.562.056-.33.125-.908.211-1.855.195-2.113.574-4.205.947-6.293 1.571-8.811-3.336-19.974-13.92-16.758-11.293 3.43-45.381 35.041-47.293 45.764-3.279 18.387 2.909 56.402 14.353 71.762 9.456 12.689 53.669 47.408 68.892 48.799 14.547 1.33 87.363-14.039 100.468-20.094 2.027-.605 33.476-59.447 35.403-60.281 0 0-10.354-48.799-26.792-45.928 4.353-5.613-26.952 11.402-23.989 5.072 3.395-7.259 8.057-23.321-2.13-28.038z"/><path fill="#EAA286" d="M556.042 741.64c-16.241 8.99-35.043 12.492-53.48 11.877-18.386-.611-38.959-5.086-50.162-20.955-3.469-4.914-9.293 7.297-8.195 10.617 14.47 43.859 71.082 48.984 107.482 30.758 7.631-3.822 12.435-12.633 13.54-20.881.672-5.012-1.601-15.612-9.185-11.416z"/><path d="M294.949 870.694c9.696.854 21.032 4.447 25.304 14.07 3.937 8.877 3.747 20.131 3.547 29.654-.232 10.783-1.832 21.549-2.933 32.264-.829 8.068-3.786 21.18 1.245 28.217 5.242 7.334 12.998-9.072 13.516-12.473 1.492-9.844-.31-20.869-.039-30.916.309-11.428.676-22.895-.781-34.262-1.229-9.584-4.82-17.727-11.846-24.43-7.713-7.354-17.943-6.592-27.551-4.24-.621.155-1.407 2.034-.462 2.116zm351.81 4.948c2.416 8.334 6.133 16.139 9.109 24.287 3.584 9.805 5.523 20.109 7.471 30.332 3.971 20.834 5.524 42.115 8.639 63.086.154 1.037.414 3.264 1.829 3.561.415.088.835.174 1.251.264 2.601.543 4.723-2.025 5.627-4.227 3.765-9.188.385-19.93-.805-29.537-1.469-11.869-3.43-23.678-5.77-35.408-2.311-11.576-5.549-22.895-10.13-33.783-3.382-8.041-7.659-16.908-16.475-19.709-.505-.165-.852.763-.746 1.134z"/><path d="M683.624 844.472c-13.678 5.008-25.521 13.041-34.771 24.338-1.544 1.885-3.006 4.732-2.221 7.246 1.003 3.217 4.23.289 5.281-1.154 7.957-10.959 18.678-18.848 30.91-24.479 1.869-.861 3.867-7.072.801-5.951z"/><path fill="#FF8A0B" d="M397.226 804.133c.252-.007.49.012.735.074l-.675-.176c.222.07.415.167.598.312l-.534-.44c.167.148.299.314.408.509l-.347-.646c.1.195.172.398.218.613l-.159-.801c.018.092.034.185.039.278.034.716.348 1.521 1.024 1.865.69.352 1.495.112 2.111-.268.854-.526 1.511-1.359 1.961-2.243.487-.956.632-1.853.662-2.905a4.343 4.343 0 0 0-.378-1.824c-.601-1.355-1.662-2.161-3.167-2.276-.844-.064-1.686.491-2.265 1.038-.8.756-1.389 1.753-1.719 2.8-.278.883-.404 1.906-.093 2.803.228.662.817 1.306 1.581 1.287z"/><path d="M412.417 403.41c-19.478 1.846-30.547 19.388-45.311 30.056-3.453.726-7.06.706-10.857-.4-3.139-.915-6.735 5.805-3.631 7.125 2.975 1.266 5.869 1.874 8.693 1.983.182 1.56 1.189 2.463 3.473 1.366a38.728 38.728 0 0 0 3.952-2.202c3.583-.926 7.041-2.533 10.379-4.513.628 1.148 1.789 1.908 3.261 1.333 7.402-2.894 14.574-6.466 22.133-8.92 12.525.561 25.445 8.765 34.711 16.842 3.248 2.831 6.027-3.245 6.08-5.766.203-9.598-.205-19.341-6.145-27.356-5.978-8.069-17.289-10.442-26.738-9.548zm248.59 28.205c-6.521-19.372-23.305-33.356-44.407-28.694-20.747 4.584-32.286 25.546-32.493 45.48-.047 4.436 5.378.068 5.576-2.566.025-.333.059-.664.09-.994.559-.021 1.167-.174 1.811-.481 6.338-3.032 12.294-6.818 18.385-10.333.849-.096 1.697-.195 2.545-.279 4.959-.496 11.224-1.402 17.267-1.312 5.009.857 9.952 2.199 14.704 3.748 2.157.702 4.318-.821 5.649-2.964 1.271 1.765 2.366 3.662 3.31 5.552 2.758 5.522 8.861-3.302 7.563-7.157z" fill="#EAA286"/><path d="M430.786 446.053a34.33 34.33 0 0 0-1.131-1.39c-4.496-6.796-11.912-11.489-20.461-12.292-5.168-1.113-10.531-1.002-15.576.722-4.113 1.406-8.178 4.01-10.748 7.556-11.488 8.349-13.625 24.482-4.634 36.541 11.257 15.093 32.226 15.945 46.881 5.634 12.654-8.901 14.988-24.626 5.669-36.771zm-51.133 7.572a27.228 27.228 0 0 0-.548 3.202c.023-1.147.222-2.207.548-3.202z"/><circle fill="#FFF" cx="411.245" cy="453.14" r="10.99"/><path d="M446.892 445.34c-9.767-8.259-20.573-15.806-33.37-18.209-8.408-1.579-16.842.281-24.481 3.841-6.186 2.883-11.876 7.051-18.423 9.104-2.786.874-5.617.933-8.469.333-4.138-.869-6.779-4.244-10.387-6.011-3.613-1.77-6.386 5.263-4.816 7.794 3.812 6.145 12.508 8.693 19.267 7.572 6.737-1.118 12.752-5.632 18.517-9 7.128-4.166 14.637-7.145 23.027-6.738 13.359.647 25.482 9.094 35.485 17.222 2.011 1.634 5.565-4.288 3.65-5.908zm-104.413-38.123c4.27-6.276 11.989-10.841 19.509-14.685 10.235-5.231 21.982-8.485 33.35-9.975 12.138-1.59 24.823-1.166 36.629 2.227a81.027 81.027 0 0 1 17.892 7.583c5.809 3.334 10.71 7.925 16.222 11.678 2.669 1.817 6.369-1.631 7.762-3.512 2.425-3.277 3.862-7.98 1.627-11.683-7.428-12.302-22.553-19.076-35.968-22.446-13.926-3.499-28.655-2.953-42.709-.586-22.886 3.854-48.911 14.91-61.062 35.831-1.181 2.034-1.899 5.565-.282 7.584 2.066 2.579 5.693-.052 7.03-2.016z"/><path d="M360.174 431.247c8.608 13.277 30.661 8.5 43.529 6.183 2.532-.456 5.145-7.603 1.663-7.438-11.947.564-31.961 6.524-40.409-5.202-2.173-3.017-6.497 3.814-4.783 6.457z"/><path fill="#2F61DD" d="M510.724 79.339c-9.754-9.615-18.451-15.393-31.904-17.932-9.041-1.707-18.806-.211-27.936-.191-11.965.026-21.932 8.568-28.684 17.69-7.817 10.562-14.147 25.767-12.502 39.564-3.777-.091-7.365.384-11.584 1.054-5.768.917-11.383 4.262-16.199 7.519-7.318 4.948-14.119 10.812-20.916 16.458-6.484 5.387-11.701 13.345-15.049 21.984-5.775 1.316-11.58 2.534-17.212 4.232-7.633 2.303-15.479 5.54-21.95 10.217-12.186 8.808-21.488 19.748-26.141 34.514a32.726 32.726 0 0 0-1.456 4.744c-.071.162-.145.323-.216.485a86.937 86.937 0 0 0-7.722-2.056c-6.683-1.469-12.919 1.457-18.698 4.387-12.69 6.436-20.74 22.081-26.516 34.457-3.359 7.195-6.332 14.627-9.277 21.987-2.592 6.481-3.785 16.023-1.793 24.073l-.383 1.402a176.526 176.526 0 0 0-6.269 4.41c-17.514 12.892-33.562 28.493-36.534 51.482-.77 5.941-.26 12.658-.24 18.695l.126 38.452.021 6.4a194.673 194.673 0 0 0-4.777 8.001c-8.164 14.35-10.869 30.962-11.043 47.215-.127 11.847 4.246 22.523 10.909 32.114a94.943 94.943 0 0 0 2.919 3.938c-.217.546-.432 1.086-.646 1.612-1.303 3.195-2.477 6.439-3.654 9.684a60.632 60.632 0 0 0-1.928 2.562c-8.361 11.824-15.061 28.585-10.022 43.127 4.188 12.092 15.343 13.147 24.897 8.885-4.569 16.19-7.17 32.285-7.557 49.127-.307 13.355 2.723 27.009 10.447 38.069 1.467 2.101 3.211 3.96 5.145 5.596a110.039 110.039 0 0 0-2.652 11.826c-2.082 12.487-.23 29.443 10.102 38.243 14.896 12.689 34.631 16.805 50.494 28.172 3.648 3.553 6.688 7.65 10.539 10.99 3.963 3.438 7.474 6.389 12.34 8.229 6.263 2.367 13.103 3.688 19.722 4.691 27.009 4.098 54.702-8.512 79.054-18.812 15.475-6.547 25.975-19.805 31.008-35.775 4.08-12.948 4.625-29.036-7.727-37.465a328.013 328.013 0 0 1-7.475-5.257l1.844 1.517c-6.793-5.415-14.039-10.271-20.892-15.637-19.772-16.901-36.845-36.766-49.699-59.411-7.128-14.061-12.625-28.968-16.134-44.338-1.623-9.525-2.575-19.105-2.613-28.762.372-6.244.936-12.475 1.361-18.718.897-13.176.836-24.261-1.84-37.05-2.068-9.886-8.094-16.962-15.882-21.357 19.79-8.667 35.463-26.692 44.742-45.656 8.667-17.712 12.806-37.139 12.856-56.667 5.365-1.536 10.613-3.619 15.979-6.182 12.477-5.958 22.146-15.869 30.914-26.293 10.291-12.231 17.698-28.516 20.519-45.315.96-.22 1.94-.521 2.946-.935 10.715-4.411 17.857-8.979 26.953-16.052 9.336-7.261 15.683-17.706 21.685-27.646 7.142-11.827 10.681-25.333 12.32-39.029a193.251 193.251 0 0 0 8.304-40.379c11.092.478 22.369-10.006 28.191-17.873 6.318-8.536 10.771-18.816 12.139-29.384.904-6.985.833-18.123-4.754-23.632zm-280.598 524.53a23.506 23.506 0 0 1-.259-.761 52.567 52.567 0 0 0 1.646-1.448c.214 1.188.433 2.376.661 3.562a24.22 24.22 0 0 1-1.598-.773c-.156-.187-.3-.387-.45-.58zm-65.893-74.817c-.2.532-.395 1.066-.598 1.598-2.738 6.69-2.537 6.152.598-1.598zm73.146 143.598l-.034.164c-3.732 5.957-3.723 5.906.034-.164zm1.1-1.591c.044-.086.084-.175.129-.261l-.131.209a2.25 2.25 0 0 0-.004-.082l.273-.425c-.042 1.958-.219 1.655-.267.559zm5.281-7.982a82.725 82.725 0 0 0 5.054-8.521 364.519 364.519 0 0 0 4.814 9.076 180.9 180.9 0 0 0 2.777 4.877c-4.259-1.729-8.567-3.414-12.645-5.432z"/><path fill="#219DF9" d="M462.537 199.64c-1.616-10.78-13.949.869-12.838 7.918 5.146 32.629-23.652 64.196-57.069 57.046-5.185-1.108-8.851 7.952-8.564 11.73 2.186 28.802-15.85 62.416-44.352 71.111-1.014-2.864-4.404-3.67-7.223-1.932-1.598.985-2.881 2.323-3.865 3.861-12.521.455-30.115-4.025-32.626-17.05-1.118-5.806.873-10.296 3.976-14.651 4.623-6.487 11.529-10.959 18.644-14.28 3.442-1.607 8.604-11.895 3.217-14.108-9.338-3.835-19.031-10.245-19.822-20.766-.271-3.596.955-7.627 2.344-10.681 2.458-5.403 5.37-9.365 9.382-14.188 7.857-9.446 17.897-17.263 28.297-23.705 8.744-5.416 18.89-10.742 29.245-12.324 2.467 1.998 5.881-1.073 7.767-4.963.249-.493.462-1.005.641-1.524.893-2.473 1.091-5.046.014-6.734-4.592-7.205-8.123-15.383-7.545-24.093.516-7.768 4.259-14.617 8.818-20.742 10.213-13.72 25.17-23.852 39.621-32.616 3.111-1.888 5.22-6.091 4.945-9.707-.207-2.726-2.094-4.135-4.32-3.657-.76-.718-1.8-.993-3.146-.38-19.039 8.673-35.312 21.673-50.857 35.492-13.184 11.721-25.466 23.951-40.704 32.998-12.187 7.234-25.149 13.903-35.007 24.319-9.973 10.539-15.608 23.604-19.324 37.324-18.041-.283-34.269 8.104-42.801 25.049-7.392 14.679-6.49 31.288-.577 46.042-17.044 6.264-33.458 14.146-45.71 28.046-7.384 8.378-12.932 20.92-12.51 32.217.369 9.897 8.345 17.784 14.674 24.521 2.299 2.447 5.237 5.248 6.469 8.262-.099.757-.164 1.51-.254 2.337.043-.396-.257.346-.361.691-.379.499-1.354 1.903-1.658 2.275-2.746 3.344-6.724 6.086-9.979 8.976-4.564 4.051-8.772 8.654-11.758 14.008-11.397 20.432-11.101 47.404-10.506 70.061.257 9.807.943 19.596 1.703 29.381-5.377 10.296-9.019 21.304-9.25 33.18-.267 13.695 7.559 24.357 19.406 29.688-2.484 7.515-4.762 15.062-6.434 22.837-1.104 5.132-1.65 10.371-1.486 15.622.192 6.124 3.21 11.777 6.479 16.811 5.07 7.809 13.48 11.396 20.645 16.795 6.079 4.581 8.747 12.376 9.967 19.136 2.553 14.151 1.621 29.478 7.795 42.775 7.539 16.236 24.381 19.639 40.721 18.529 8.723 26.666 40.113 28.904 64.346 25.471 15.202-2.152 30.043-6.396 44.367-11.875 12.189-4.662 24.471-10.186 35.24-17.635 4.354-3.012 9.531-12.307 3.738-16.395-27.77-19.599-51.879-43.883-69.959-72.746-17.771-28.37-28.311-60.889-32.529-93.992-.438-3.434-2.252-5.155-5.709-4.617-42.646 6.646-84.72-33.826-77.217-76.812 1.686-9.655 6.881-21.2 14.877-27.217 6.977-5.248 15.5-4.71 23.681-3.429 9.013 1.412 17.825 3.727 27.028 3.111 10.102-.675 19.98-5.04 27.83-11.326 12.344-9.885 20.865-24.496 26.982-38.853 4.311-10.116 7.77-20.749 9.461-31.641 32.557-9.7 54.236-48.801 57.131-80.873 40.403 2.157 72.241-43.887 66.509-82.108z"/><path fill="#EAA286" d="M739.233 456.91c-.011-3.53-3.232-4.885-6.031-3.378a4.571 4.571 0 0 0-1.408-1.099 161.516 161.516 0 0 1-12.737-7.177c-7.817-17.663-19.407-34.232-30.381-49.774-12.531-17.747-26.046-34.779-38.302-52.725a297.434 297.434 0 0 1-4.029-6.061c-9.724-30.351-17.861-61.196-33.219-89.426a186.789 186.789 0 0 0-3.611-6.296c-1.693-2.842-5.789-.66-7.418.879-.936.884-1.818 2.009-2.535 3.256-.396-1.804-.8-3.584-1.252-5.298-1.02-3.858-5.818 1.857-5.481 4.257 11.015 78.247 27.017 170.23 102.689 212.41 4.505 2.512 9.153 4.753 13.897 6.768 3.203 8.106 5.615 16.533 6.854 25.475 6.066 43.777-8.301 89.768-29.221 127.816a207.636 207.636 0 0 1-5.695 9.718c-19.355 25.81-44.086 47.57-72.271 63.284-37.777 21.061-81.728 29.471-124.586 23.723-13.48-1.808-26.828-4.937-39.648-9.443-17.725-7.476-34.416-17.456-49.502-29.38-9.611-7.597-18.488-16.083-26.57-25.276-17.881-23.881-29.091-52.334-36.335-81.177-9.29-36.993-12.071-75.502-12.524-113.532-.09-7.629-.066-15.258.051-22.885-8.335 4.675-17.279 8.09-26.558 9.737-1.079 20.757-.553 41.589 1.649 62.233 5.066 47.475 18.631 96.188 45.206 136.294 41.433 62.526 115.587 101.872 190.983 95.55 39.234-3.291 75.791-19.023 106.557-43.321 23.225-18.343 41.912-41.194 56.543-66.551 13.221-19.27 23.793-40.352 31.687-62.33 5.631-15.679 9.956-32.427 12.504-48.889 2.931-18.948.758-38.324.694-57.382zm-12.429 11.592a6.96 6.96 0 0 0 .869-.351c.027 1.647.064 3.295.109 4.941a138.68 138.68 0 0 0-.978-4.59z"/><path fill="#2F61DD" d="M865.28 404.696c6.066-14.183 8.304-29.81 5.1-45.151-3.025-14.491-14.018-25.273-25.514-33.611-10.615-7.7-23.121-12.798-35.614-16.544-3.79-1.137-7.644-2.219-11.54-3.174 5.247-18.638 4.567-38.255-7.059-54.983-9.391-13.515-25.062-21.262-41.521-25.231-3.752-5.194-7.404-10.433-10.79-15.796-.132-.344-.247-.697-.366-1.048l-.02-.225c-.006-.07-.006-.142-.012-.213.125-1.137.275-2.272.449-3.403.953-6.194 2.763-12.284 3-18.575.505-13.364-1.277-24.835-12.355-33.421-5.809-4.502-14.045-5.965-21.807-6.467-4.538-9.81-10.203-19.187-17.471-27.127-8.311-9.079-18.734-16.37-29.709-21.85-10.271-5.129-21.205-8.862-31.939-12.876-10.069-3.765-20.893-7.22-29.698-13.561-12.743-11.824-22.712-29.066-40.179-34.145-36.428-10.589-65.548 19.403-77.197 51.194-5.917 16.147-5.94 35.35-.071 52.099-4.412 8.351-8.255 16.965-11.35 26.094-4.915 14.501-8.023 32.34-2.333 47.054 3.97 10.259 8.92 20.842 15.895 29.415 4.017 4.937 9.611 10.099 15.869 11.888 3.652 1.045 7.219 2.239 11.027 1.858 7.32-.732 10.979-2.021 17.542-5.185a855.61 855.61 0 0 0 1.803 3.234c3.632 4.456 8.319 6.844 14.06 7.163a31.654 31.654 0 0 0 7.236-.834 63.707 63.707 0 0 0 6.812 4.331c6.687 3.664 14.477 5.54 22.048 5.929 2.812.144 5.634-.01 8.436-.24l.243-.019c1.496 7.196 4.352 14.028 9.104 18.815 3.085 4.96 6.404 8.734 11.562 12.889 5.244 4.224 10.906 6.014 17.364 7.68 6.107 1.576 12.276 1.683 18.356.831.014 15.487 3.082 30.896 10.135 44.806 6.273 12.373 13.911 21.938 25.273 30.059 5.744 4.106 12.488 6.964 19.502 8.738a97.387 97.387 0 0 0-.425 8.574c-.06 10.603 3.593 20.091 8.649 29.146 7.514 13.457 22.888 22.512 37.222 26.95 17.687 5.478 35.271 6.396 53.416 2.927-3.103 14.312-4.148 29.092-3.636 43.771.236 6.737.83 13.456 1.059 20.193.039 1.155.045 2.311.051 3.466-.167 1.58-.583 3.963-.883 5.68-.523.816-1.07 1.639-1.499 2.21a41.888 41.888 0 0 1-1.386 1.706 139.993 139.993 0 0 1-3.01 3.009c-1.797 1.741-3.681 3.391-5.576 5.022a131.74 131.74 0 0 1-3.134 2.593 57.857 57.857 0 0 0-4.081 3.273 78.16 78.16 0 0 1-4.801-4.898c-5.43-6.06-13.204-5.183-19.641-1.213-10.263 6.329-18.366 19.533-19.346 31.579-.285 3.501-.738 6.97-1.336 10.431-.084.471-.177.939-.267 1.41a164.119 164.119 0 0 1-1.19 4.414c-1.064 3.739-2.343 7.41-3.659 11.066a149.7 149.7 0 0 1-1.267 3.305c-.41.929-.826 1.855-1.246 2.779-1.731 3.81-3.623 7.545-5.582 11.242a220.045 220.045 0 0 1-3.449 6.215c-.336.588-.916 1.555-1.484 2.494-4.561 7.121-9.543 13.966-14.641 20.708-2.686 3.551-5.496 7.006-8.367 10.407-.145.171-.293.34-.438.51-.208.235-.405.454-.565.631a240.488 240.488 0 0 1-5.096 5.4c-5.786 5.978-11.996 11.543-18.467 16.773-.855.652-2.13 1.629-2.697 2.043a178.678 178.678 0 0 1-5.772 4.005c-3.801 2.548-7.735 4.891-11.743 7.096-3.961 2.18-7.814 4.507-11.873 6.521l-.225.107c-.769.333-1.539.661-2.312.984-2.012.841-4.059 1.591-6.115 2.314-11.348 3.993-18.898 16.477-20.388 27.988-.618 4.777-.269 10.42 2.89 14.363s7.107 3.791 11.592 3.078c11.159-1.773 21.791-5.369 31.895-10.258.781 5.293 3.136 10.086 8.076 12.949 21.473 12.441 49.912 24.117 74.668 14.455 17.668-6.896 30.574-20.934 39.146-37.588 4.319-8.393 7.203-17.217 9.085-26.268.71-.32 1.421-.651 2.133-.979 25.649-11.831 45.554-38.295 49.294-66.338a56.74 56.74 0 0 0 .49-7.773c14.509-14.563 25.01-33.747 30.529-53.419 7.828-27.901 7.43-60.887-6.696-86.805 6.537-11.589 11.063-24.402 13.815-38.085 3.147-15.641 3.227-36.522-5.988-50.561zm-36.752-12.552c.023-.041.049-.081.073-.122.05-.047.017.002-.073.122zm-8.616 85.058c-.446.344-.565.428 0 0zm-80.182 215.04l.028-.07-.104.395c.027-.111.053-.222.076-.325zm86.474-297.391a3.654 3.654 0 0 0-.062.063l.059-.071.003.008zm.817-.892l-.006.007v-.097a.065.065 0 0 1 .008-.009c-.002.032-.002.066-.002.099zM548.726 117.025c-.059-.005-.119-.015-.178-.021 1.375-.656 1.125-.392.178.021zm271.107 271.196c.178-.324.363-.645.535-.972 2.051 2.113 3.915 4.39 5.524 6.866.102.235.202.471.3.708-.051.062-.1.128-.15.191-1.422 1.489-2.921 2.899-4.386 4.347a16.29 16.29 0 0 1-.587.546 63.43 63.43 0 0 1-1.926 1.189c-.508.302-1.291.709-2.023 1.079a62.375 62.375 0 0 1-6.811 2.22c3.745-4.457 7.204-10.128 9.524-16.174zm-.276 12.957c-1.273 1.022-2.105 1.6 0 0zm7.466-7.423l-.008.011c.005-.575.014-.475.008-.011zm-89.24-183.444c.014-.197.043-.393.06-.59l.046.085c-.007 5.516-.248 2.536-.106.505zm.106-.879l.001.053-.02-.03.008-.082a.89.89 0 0 1 .011.059zm-.197-1.089c-.507-1.66-.83-4.53 0 0zm-47.463 455.014c1.971-2.274 1.077-1.228 0 0z"/><path d="M607.112 484.259c14.655 10.312 35.624 9.459 46.881-5.635 8.992-12.058 6.854-28.191-4.635-36.541-2.568-3.545-6.635-6.149-10.747-7.556-5.045-1.724-10.408-1.835-15.577-.721-8.549.802-15.965 5.495-20.46 12.292-.389.456-.77.917-1.132 1.389-9.318 12.147-6.984 27.871 5.67 36.772zm46.012-25.997a27.474 27.474 0 0 0-.549-3.202c.326.996.527 2.054.549 3.202z"/><circle fill="#FFF" cx="620.985" cy="454.574" r="10.99"/><path d="M588.232 451.97c9.898-8.091 21.589-15.906 34.769-16.549 8.267-.403 15.79 2.991 22.759 7.07 5.86 3.43 11.443 7.473 18.226 8.827 7.502 1.497 16.062-3.09 20.465-9 1.54-2.068 2.142-8.712-2.162-6.178-6.168 3.632-10.223 7.648-17.902 5.459-6.712-1.914-12.607-6.223-18.871-9.183-21.624-10.221-42.031.465-58.97 14.703-2.355 1.978-1.903 7.784 1.686 4.851zm102.808-52.523c-11.159-19.966-37.586-29.028-58.707-32.615-27.864-4.732-62.484 1.323-79.686 26.009-1.976 2.836-3.592 6.791-2.387 10.271 1.479 4.267 5.656 2.537 8.203.531 9.94-7.831 19.131-14.078 31.469-17.578 12.405-3.518 25.449-3.534 38.139-1.751 11.461 1.61 22.677 5.118 33.06 10.218 8.04 3.95 16.324 8.682 21.597 16.136 1.962 2.773 5.725-.252 7.03-2.016 1.965-2.655 2.955-6.21 1.282-9.205z"/><path d="M668.009 427.384c-3.817 5.394-11.639 5.713-17.646 5.707-7.075-.008-14.073-1.345-21.13-1.664-3.091-.14-6.112 6.833-2.371 7.534 13.843 2.593 35.243 6.525 44.455-7.439 2.275-3.448-.104-8.665-3.308-4.138z"/><path fill="#219DF9" d="M882.888 463.848c1.242-8.742.342-17.608-1.817-26.12-1.886-7.436-5.722-16.825-11.614-21.959-2.195-1.913-4.432-2.25-6.507-1.564a54.82 54.82 0 0 0-1.571-2.506c-2.715-4.065-6.168-7.352-10.085-9.869 4.247-10.265 7.28-20.797 7.967-31.575 1.576-6.635 1.821-13.471.368-20.516-1.818-8.817-7.961-16.535-14.344-22.571-9.782-9.251-21.717-16.062-32.935-23.443 1.657-9.416 1.616-19.043-1.753-28.199-.152-.414-.326-.816-.493-1.223.384-2.662.601-5.367.61-8.122.041-13.449-8.648-24.112-20.762-28.962-4.854-1.942-9.219 1.316-11.896 6.017a60.432 60.432 0 0 0-5.641-5.161c-3.835-4.774-8.518-8.795-14.222-11.509-3.472-1.651-7.133-2.647-10.864-3.107.188-.497.359-.987.49-1.456 2.464-8.808 3.18-18.393 1.645-27.497-1.01-8.395-3.612-16.512-8.486-23.669-8.688-12.754-25.303-17.319-39.948-15.591-2.824.333-5.233 1.596-7.202 3.407a196.45 196.45 0 0 0-5.514-34.99 73.981 73.981 0 0 0-3.527-12.249c-2.189-5.693-8.164-4.151-11.754-.761-1.254 1.186-2.408 2.642-3.373 4.249-2.332-2.815-4.938-5.401-7.859-7.662-12.391-9.586-26.336-7.673-38.418-.839-.868-18.5-8.859-35.991-23.307-48.552-18.631-16.197-43.127-23.387-67.6-20.91-5.436.55-9.135 5.345-10.699 10.307-1.051 3.335-1.432 11.067 3.998 10.984 20.595-.313 41.422 6.686 57.621 19.433 15.851 12.473 23.857 31.759 20.574 50.702-1.482 8.552 6.306 12.155 12.309 6.271 9.289-9.106 21.726-14.082 32.936-4.817 10.857 8.974 16.387 23.772 17.765 37.428.665 6.589 4.744 7.163 8.732 5.249.179 3.239.28 6.485.298 9.734.028 5.505 4.998 7.654 9.381 5.372.065.934.231 1.859.543 2.761.732 2.112 2.042 3.161 3.565 3.487a71.165 71.165 0 0 0-3.063 3.862c-2.627 3.554-4.606 8.849-3.08 13.254 1.867 5.388 7.367 3.435 10.586.685.523-.429.826-.682.907-.759.661-.472 1.344-.91 2.036-1.335.5-.295 1.014-.569 1.535-.826.121-.033.314-.096.613-.203.46-.165.723-.278.865-.357.143.021.381.036.787.033.258-.002.514.024.769.054.198.065.808.228 1.132.375.376.185.74.391 1.094.616.075.045.129.074.188.108.824.772 1.521 1.678 2.181 2.589.632.871 1.196 1.803 1.742 2.735-.837-1.356 1.028 2.429 1.313 3.177.515 1.35.926 2.737 1.316 4.126.155.549.666 3.011.748 3.297.457 2.734.773 5.483.91 8.256.024.505.004 1.763-.008 2.575a46.799 46.799 0 0 1-.174 1.585c-2.002 3.817-3.23 8.072-2.902 12.401.387 5.104 4.369 10.407 10.113 8.179a61.942 61.942 0 0 1 7.187-2.314c.982-.249 1.98-.429 2.979-.601-1.402.262 1.548-.087 1.755-.099 2.04-.112 4.082.042 6.104.301.832.107 1.653.283 2.472.466-1.585-.325 1.687.666 2.109.835 1.723.688 3.34 1.611 4.905 2.598.654.412 1.275.874 1.893 1.339-1.278-.937 1.298 1.238 1.63 1.569 1.348 1.342 2.537 2.833 3.674 4.354.58.776 1.107 1.591 1.635 2.403.345.544.678 1.094 1 1.65a69.388 69.388 0 0 1 4.541 11.197c.304.983.559 1.981.813 2.979.063.248.306 1.418.407 1.876.255 1.514.449 3.036.6 4.563-.49 6.398-1.007 12.802-1.469 19.208a99.515 99.515 0 0 1-1.125 3.598c-.986 2.952-1.501 7.493.251 10.493-.279 5.527-.472 11.056-.5 16.584-.04 7.91 7.983 7.189 12.302 3.308 5.074-4.562 9.347-9.874 12.82-15.658.2-.033.396-.058.605-.108 11.104-2.705 20.705 1.084 28.138 7.927-.112 3.006.927 5.655 3.62 7.06a37.502 37.502 0 0 1 4.398 2.688 56.279 56.279 0 0 1 2.34 4.083c4.492 8.658 7.244 18.116 9.248 27.624.508 2.41 1.282 8.544 1.58 12.421.142 1.842.205 3.688.242 5.535a41.537 41.537 0 0 0-8.445-.162c-5.93.5-10.004 5.913-11.688 11.259-1.164 3.693-1.558 12.024 4.368 11.999 11.066-.047 18.815 4.128 25.153 12.613.761 1.019 1.44 2.097 2.101 3.183.115.202.199.35.264.459.257.51.512 1.021.755 1.537 1.13 2.403 1.995 4.925 2.732 7.473.128.44.671 2.807.739 2.963.188 1.067.346 2.14.483 3.214.341 2.661.456 5.345.45 8.024-.029-.332-.158 2.596-.212 3.182a66.49 66.49 0 0 1-.845 5.861l-.039.215a64.222 64.222 0 0 1-1.077 3.812 49.147 49.147 0 0 1-.717 2.104c.057-.238-.989 2.252-1.328 2.932-.236.475-.978 1.748-1.354 2.413a54.448 54.448 0 0 1-1.931 2.649 30.13 30.13 0 0 0-.34.442 23.24 23.24 0 0 0-.584.582 33.707 33.707 0 0 1-1.904 1.78c.141-.171-1.928 1.448-2.463 1.794-.898.582-1.836 1.099-2.783 1.596.527-.32-2.266.932-2.806 1.12-1.341.467-2.72.811-4.103 1.123-2.342.53-.411.219-2.857.44-2.229.202-4.676.592-5.852.715-6.209.651-10.425 6.085-12.215 11.768-1.527 4.846-1.359 11.329 4.564 12.541a30.14 30.14 0 0 0 5.396.596c.032.052.057.107.091.158 4.001 5.893 6.588 12.418 8.142 19.566-.198-.916.379 2.887.469 3.668.2 1.746.289 3.503.351 5.259.019.537-.024 3.642.002 3.874a78.97 78.97 0 0 1-.546 5.769c-.193 1.504-.462 2.995-.748 4.482.137-.858-.771 3.126-.947 3.754-.481 1.725-1.049 3.423-1.637 5.114-.206.595-.438 1.181-.662 1.77-.182.432-.648 1.587-.782 1.89-1.301 2.926-2.806 5.756-4.414 8.524.286-.551-1.792 2.754-2.185 3.32-1.211 1.751-2.515 3.438-3.848 5.098-.174.216-.354.426-.531.639-.08.079-1.185 1.363-1.41 1.605-1.184 1.273-2.431 2.487-3.691 3.684-1.248 1.184-2.557 2.303-3.879 3.401l-.312.262a70.834 70.834 0 0 1-2.978 2.101c-1.38.937-2.812 1.793-4.258 2.624-.465.269-3.283 1.688-3.216 1.699-3.108 1.38-6.354 2.427-9.658 3.219-12.275 2.942-26.83-1.085-37.812-10.18-5.008-4.146-10.274-.588-13.732 3.938-36.13 47.275-68.182 96.82-118.279 130.416-4.861 3.26-8.188 8.785-8.939 14.592-.469 3.621.551 10.432 5.688 10.158 13.472-.715 27.019 1.805 40.234 4.102 15.488 2.693 30.941 5.711 46.604 7.23 14.354 1.393 29.574 1.518 43.429-3.006 15.375-5.018 27.916-17.002 34.112-31.896a82.95 82.95 0 0 0 4.41-14.059 152.232 152.232 0 0 0 5.679-8.287c4.208-.264 8.431-1.369 12.651-3.473 11.414-5.689 18.505-19.017 22.148-30.642 4.312-13.76 5.457-30.778 1.93-46.017 43.045-16.61 63.411-85.837 33.871-121.882 16.098-9.454 26.206-26.64 28.818-45.009zM711.772 238.497c-.369 1.136-1.013 2.397 0 0zM660.112 718.8c-.826.255-1.655.49-2.49.703 3.533-3.452 7-6.975 10.402-10.569a323.292 323.292 0 0 0-7.912 9.866zm98.278-79.267c.35-.571.157-.283-.578.867a72.432 72.432 0 0 0-6.428 7.088 270.374 270.374 0 0 0 3.432-8.4c.617-1.59 1.021-3.662 1.023-5.743a52.61 52.61 0 0 0 6.574.861c-1.572 1.624-2.904 3.543-4.023 5.327z"/><path d="M390.695 745.186c-1.937 40.931 9.213 84.829 41.088 112.673 33.196 28.998 84.538 33.152 123.923 14.897 50.37-23.345 72.711-85.347 59.572-137.652-.795-3.163-4.361-3.186-6.636-1.782-3.561 2.195-6.341 7.242-5.849 11.479 2.486 21.376 3.75 41.848-3.043 62.637-5.402 16.531-15.941 31.222-30.877 41.575-34.759 24.093-86.917 23.041-121.327-.903-34.167-23.775-46.921-68.183-45.919-107.957.063-2.523-2.123-4.441-4.573-3.698-3.353 1.017-6.198 5.312-6.359 8.731z"/><ellipse fill="#FFAD9F" cx="669.663" cy="523.595" rx="27.265" ry="26.217"/><ellipse fill="#FFAD9F" cx="361.129" cy="525.03" rx="27.265" ry="26.217"/><path fill="#EAA286" d="M295.79 459.063c-11.34-10.79-28.431-25.102-45.445-18.287-19.118 7.657-29.26 29.139-30.943 48.693-2.062 23.96 7.786 71.169 41.75 61.655 13.932-3.902 25.055-16.56 33.102-27.848 5.588-7.838 11.369-22.144 4.31-30.961-7.026-8.771-19.023.301-23.644 6.782a106.41 106.41 0 0 1-4.316 5.662c-2.736 3.34 3.945-4.32 1.123-1.283a54.444 54.444 0 0 1-2.051 2.055 44 44 0 0 1-2.012 1.8c-2.732 2.353 4.449-3.294 1.627-1.276-1.195.855-2.475 1.579-3.787 2.234 6.079-3.032 2.004-.967.149-.517-2.576.626 4.514-.474 1.929-.228-.551.054-1.104.044-1.656.033-1.619-.03-5.396-1.25.179.37-1.196-.347-2.32-.912-3.394-1.534-3.47-2.011.332.512-.025.19-.879-.781-1.662-1.666-2.416-2.565-.799-.951-1.506-1.978-2.184-3.016-.354-.542-.678-1.102-1.002-1.658-1.332-2.293 2.174 4.309.48.787-1.215-2.531-2.151-5.191-2.955-7.881a61.775 61.775 0 0 1-1.08-4.229c-.693-3.071.922 4.909.365 1.807a67.45 67.45 0 0 1-.442-2.915c-.391-2.895-.55-5.814-.55-8.73 0-3.297-.24 5.795-.086 2.528.033-.7.094-1.396.153-2.093.115-1.353.312-2.697.542-4.037.773-4.536-1.803 6.715-.254 1.385a32.85 32.85 0 0 1 .583-1.757c1.126-3.192-2.898 6.772-1.524 3.72 2.312-5.151-2.242 3.243-1.411 2.023 2.86-4.211-4.846 4.609-1.103 1.312-5.311 4.677-4.184 3.117-2.6 2.087 1.268-.82 3.804-1.77-2.531 1.062.964-.431 1.995-.683 3.027-.873-5.949 1.103-2.063.31-.201.447.633.047 1.258.156 1.881.266 2.414.417-4.203-1.312-.5-.104 3.275 1.067 6.313 2.813 9.194 4.668 1.809 1.165 3.526 2.467 5.219 3.792-3.129-2.448.146.149.64.579 1.338 1.162 2.623 2.377 3.906 3.599 8.09 7.696 18.184.599 23.645-6.781 4.992-6.745 12.205-23.449 4.308-30.963z"/><path d="M289.247 454.483c-16.199-10.647-38.796-20.222-56.459-7.203-14.27 10.515-18.129 30.82-17.102 47.43 1.095 17.728 8.232 36.916 22.244 48.429 15.521 12.751 39.414 11.552 53.464-2.964 1.179-1.218 5.163-10.629.464-9.844-8.59 1.438-15.834 6.318-24.777 6.831-7.27.415-14.128-1.92-20.164-5.849-12.591-8.201-19.71-24.212-22.047-38.561-1.926-11.837-1.618-27.506 8.438-35.832 14.739-12.207 37.853-1.708 52.156 5.675 2.939 1.515 6.564-6.282 3.783-8.112z"/><path d="M243.933 497.479c5.932-7.295 13.878-12.87 23.557-12.994 10.674-.134 13.038 9.331 17.08 17.077 1.844 3.537 5.914-4.286 6.063-5.595 1.356-11.9-4.64-23.753-17.832-23.986-12.923-.23-24.544 10.695-31.368 20.529-1.782 2.571-.905 9.155 2.5 4.969z"/><path d="M291.052 491.463c-7.693-.317-17.34-.396-22.783 6.044-5.384 6.368-4.323 16.008.294 22.514 1.979 2.789 5.22-4.134 4.628-5.991-.844-2.646-4.775-9.605-1.938-12.059 4.52-3.906 12.346-4.012 17.947-4.309 2.246-.12 4.621-6.086 1.852-6.199zm480.168-42.16c-.249-3.285-3.089-4.825-5.916-3.015-14.875 9.522-31.34 12.789-46.872 2.644-14.376-9.392-19.663-27.917-15.531-44.042.497-1.944 1.241-6.389-1.509-7.313-31.176-10.482-57.77-40.077-52.377-73.897a40.822 40.822 0 0 0 3.993-1.039c4.485-1.422 8.657-13.054 1.557-11.973a46.61 46.61 0 0 1-4.286.445c-.459-.751-1.195-1.27-2.332-1.323-1.284-.061-2.47.482-3.492 1.33-29.383-1.558-63.112-26.671-54.201-58.26.619-2.193.891-6.521-2.43-6.677a3.924 3.924 0 0 0-.498.014 8.675 8.675 0 0 0-.006-.955c-.238-3.128-3.23-5.19-6.025-3.069-9.059 6.878-19.116 11.851-30.629 12.377-10.969.501-21.475-3.186-31.09-8.133-18.159-9.344-33.682-23.409-48.854-37.071-.053-.112-.107-.225-.159-.338a43.622 43.622 0 0 0-1.647-5.512 17.368 17.368 0 0 1-.057-4.799c1.196-9.094 12.852-13.733 20.191-16.377 4.082-1.471 7.967-12.688 1.641-11.363.199-1.478 0-2.861-.785-3.864-4.373-5.591-9.735-13.001-8.6-20.538.786-5.217 11.845-7.094 15.689-7.818 4.977-.938 8.533-13.362 1.582-12.164-11.764 2.029-21.9 7.771-26.114 19.433-3.673 10.161 1.021 20.75 6.931 29.149-9.17 4.795-16.609 12.576-19.703 22.788-.18.595-.331 1.186-.471 1.775-2.467 2.711-3.662 6.47-2.849 10.059 2.075 9.168 3.626 18.087 1.275 27.387-2.065 8.171-6.505 15.427-12.396 21.398-13.803 13.992-34.078 18.808-52.898 13.939-2.242-.58-4.968 2.243-6.085 3.752-2.052 2.772-3.288 6.5-2.302 9.907 4.387 15.178 2.844 31.191-6.51 44.18-9.48 13.162-25.518 20.69-41.304 22.797-4.722.63-8.727 6.229-8.046 11.021 2.121 14.935 2.31 30.544-2.027 45.12-4.598 15.45-15.844 25.428-31.473 29.071-5.059 1.18-8.848 13.986-1.641 12.611 39.488-7.537 48.731-49.117 47.206-84.071 35.784-7.45 60.562-40.595 58.125-76.475 19.798 1.18 38.972-6.871 53.005-21.686 9.09-9.597 16.535-23.172 19.311-37.222a56.524 56.524 0 0 0 3.929 3.517c1.231 1.004 2.733.618 4.13-.496 10.883 10.698 22.688 20.406 36.323 27.356 10.347 5.272 22.016 8.399 33.667 7.66 11.828-.75 22.358-5.753 31.606-12.776-3.887 19.164 3.07 37.615 17.938 50.731 10.914 9.628 25.997 16.84 40.929 17.093-3.179 17.564-.128 35.062 9.127 50.817 9.531 16.226 25.597 28.512 43.054 35.258-3.316 19.354 1.617 39.046 17.843 51.683 17.57 13.684 42.54 9.652 58.474-4.387 2.307-2.032 3.821-5.587 3.589-8.659z"/><path d="M869.479 393.369c10.464-20.558 9.115-44.49-3.281-64.562-11.309-18.312-31.363-28.916-52.182-27.746 3.377-4.637 5.814-9.977 7.119-15.914 2.369-10.781-1.907-21.839-7.657-30.772-12.229-19-34.438-33.567-56.433-39.444 6.36-18.207 5.178-38.271-6.338-54.554-11.83-16.728-32.154-22.69-51.49-19.028 1.262-18.086-4.203-36.105-21.09-45.536-14.66-8.188-32.576-6.402-47.816-.184-2.861-13.847-11.744-25.846-21.574-35.733-11.042-11.106-24.534-20.289-39.288-25.644-13.087-4.749-27.227-5.992-40.049.106-11.622 5.527-18.337 16.883-22.024 28.865-17.106-8.408-37.982-10.678-56.131-5.147-21.04 6.413-32.826 24.885-33.785 45.685-17.135 2.605-33.086 8.955-46.744 20.017-13.115 10.621-22.283 25.543-27.427 41.536-18.723-2.789-37.615 1.581-52.647 13.508-14.072 11.164-21.114 28.475-22.184 46.016-19.338-1.071-38.494 7.468-50.934 22.46-6.771 8.159-10.33 18.568-10.354 29.102-.015 6.593 2.084 12.871 5.335 18.54-19.808 4.837-35.786 21.294-43.833 40.119-9.647 22.57-8.581 48.755 7.895 66.827-13.059 10.414-28.76 20.06-31.72 37.417-1.739 10.207-.714 20.537 3.823 29.879 3.566 7.346 9.21 13.692 11.672 21.548 1.986 6.344-.277 14.626-2.423 20.615-2.538 7.083-6.523 14.088-9.823 21.075-6.484 13.727-12.193 30.825-.976 43.762 5.615 6.477 13.829 10.38 21.933 13.279-8.557 14.046-14.172 30.412-12.13 46.868 2.339 18.857 16.039 31.372 32.999 37.436-7.578 16.226-8.573 34.669.93 50.833 10.053 17.1 29.854 22.84 48.361 19.891-1.462 9.744.081 19.725 6.637 27.646 9.009 10.887 24.622 12.842 37.784 11.355 3.494-.396 5.855-3.4 6.87-6.617.591-1.879.941-7.453-2.567-7.053-11.104 1.266-23.653.449-32.182-7.67-7.036-6.695-8.099-16.377-5.269-25.279.924-2.904.416-7.957-3.838-6.854-16.598 4.312-34.013.543-44.838-13.369-10.001-12.851-9.778-30.885-1.062-44.288 1.213-1.864 4.465-9.107.379-10.266-15.832-4.488-29.725-13.713-33.537-30.543-3.439-15.178 4.422-31.327 13.182-43.162 1.422-1.92 4.361-9.071.383-10.347-9.784-3.136-20.719-7.107-27.079-15.663-3.831-5.153-3.257-11.237-1.626-16.586 4.566-14.976 14.865-28.537 17.973-44.62 1.561-8.076 1.693-16.572-1.773-24.187-3.521-7.733-9.153-14.228-12.132-22.248-1.694-4.562-2.136-9.366-1.679-14.188.425-4.498 1.576-6.997 4.469-10.574 6.271-7.754 15.175-13.524 22.975-19.609 1.833-1.431 3.639-2.899 5.309-4.521 2.951-2.865 5.4-8.813 1.619-11.913-34.047-27.914-9.355-89.327 34.363-86.25 4.828.34 10.214-9.248 6.6-12.951-11.256-11.529-17.748-27.928-5.51-41.199 11.668-12.651 30.439-17.023 46.946-13.962 4.491.833 7.679-6.78 7.402-10.14-1.317-16.065 3.085-31.78 16.565-41.599 13.822-10.068 31.765-11.45 48.152-8.644 3.9.669 6.342-5.229 6.945-8.014 7.238-33.419 36.693-53.146 69.326-56.85.277-.031.553-.104.824-.205.434-.08.883-.249 1.336-.528 2.443-1.507 4.004-4.696 3.841-7.538l-.01-.218a4.865 4.865 0 0 0-.045-1.002c-.337-8.636 1.073-17.1 6.554-24.049 5.012-6.356 13.216-9.661 20.853-11.471 17.708-4.195 37.915.18 53.188 9.707 4.083 2.548 7.743-5.16 8.231-7.876 2.035-11.351 6.756-21.323 17.809-25.257 11.189-3.983 23.875-.832 34.424 3.589 23.326 9.777 42.922 28.763 52.742 52.061-2.48 3.61-2.733 10.576 2.399 7.864 14.734-7.786 32.89-10.261 48.29-2.897 16.82 8.042 21.394 26.447 18.555 43.599-.439 2.651.932 5.555 3.982 4.798 17.812-4.418 36.158.629 47.873 15.041 11.17 13.742 12.563 32.965 4.908 48.657-1.423 2.916-2.371 8.091 1.85 8.984 19.979 4.229 39.215 16.865 52.258 32.386 5.605 6.669 10.402 14.723 10.985 23.59.579 8.788-6.693 14.693-13.495 19.369-2.744 1.886-4.711 5.343-4.453 8.738.242 3.183 2.715 4.044 5.32 2.711.146-.074.283-.156.427-.231.569.343 1.354.456 2.394.243 20.93-4.28 41.137 6.324 53.285 23.129 11.363 15.718 15.633 38.187 4.154 54.998-1.686 2.468-4.158 7.857-1.476 10.593 13.522 13.785 20.021 33.156 20.488 52.217.423 17.272-5.877 34.85-22.733 41.846-4.15 1.723-9.667 9.588-5.764 13.949 16.499 18.433 23.141 43.251 16.193 67.219-6.504 22.434-24.321 39.966-46.451 47-5.135 1.632-8.175 8.979-5.635 13.636 7.117 13.045 10.617 30.46 3.854 43.972-7.285 14.556-26.064 16.626-40.849 14.327-5.162-.803-9.146 8.396-7.59 12.362 4.039 10.3 6.973 21.937 3.957 32.909-2.229 8.105-8.166 14.23-15.893 18.66-19.181 10.996-43.551 7.883-63.439.859-5.785-2.043-12.326 10.555-6.715 13.176 22.872 10.684 52.969 10.832 74.508-3.193 10.412-6.781 18.06-17.174 21.66-29.035 3-9.881 2.713-20.23.5-30.191 17.725-.43 33.543-8.665 42.519-25.462 8.55-16.002 7.638-34.804 1.32-51.315 23.194-10.767 40.548-31.593 48.444-56.078 8.162-25.312 4.182-52.902-10.928-74.365 33.374-24.5 31.062-81.956 5.03-112.233z"/><path fill="#2F61DD" d="M518.763 180.514c-6.092 20.618-.328 44.21 15.747 58.814 7.049 6.403 16.068 10.673 25.694 10.729 11.379.065 20.681-6.258 27.773-14.662 2.886-3.419 1.562-10.436-3.495-6.49-13.512 10.543-30.217 10.895-43.567-.151-13.778-11.4-20.887-30.532-16.105-47.961 1.654-6.032-4.67-4.936-6.047-.279z"/><path fill="#EAA286" d="M745.856 465.761c11.34-10.79 28.431-25.102 45.444-18.287 19.119 7.657 29.261 29.139 30.944 48.693 2.062 23.959-7.786 71.168-41.75 61.655-13.932-3.902-25.055-16.56-33.102-27.849-5.59-7.838-11.369-22.143-4.31-30.96 7.026-8.771 19.023.301 23.643 6.782a107.356 107.356 0 0 0 4.316 5.662c2.737 3.339-3.944-4.32-1.122-1.284a53.018 53.018 0 0 0 2.051 2.056 43.976 43.976 0 0 0 2.011 1.8c2.733 2.353-4.449-3.294-1.626-1.276 1.195.855 2.475 1.579 3.787 2.234-6.08-3.032-2.004-.968-.149-.518 2.575.627-4.514-.473-1.929-.227.551.053 1.104.044 1.656.033 1.619-.03 5.396-1.251-.179.37 1.196-.348 2.319-.912 3.394-1.535 3.47-2.011-.332.513.025.19.879-.78 1.662-1.665 2.416-2.565.799-.951 1.505-1.977 2.184-3.015.353-.542.678-1.102 1.002-1.658 1.332-2.293-2.174 4.309-.48.786 1.215-2.53 2.151-5.19 2.955-7.88a61.775 61.775 0 0 0 1.08-4.229c.693-3.071-.922 4.909-.365 1.806a67.17 67.17 0 0 0 .442-2.914c.391-2.895.55-5.814.55-8.73 0-3.297.24 5.794.086 2.528-.034-.7-.094-1.396-.154-2.093-.114-1.353-.312-2.697-.541-4.037-.773-4.537 1.803 6.715.254 1.385a32.85 32.85 0 0 0-.583-1.757c-1.126-3.192 2.898 6.772 1.524 3.72-2.312-5.151 2.242 3.243 1.411 2.023-2.86-4.211 4.845 4.609 1.103 1.312 5.311 4.677 4.184 3.117 2.6 2.086-1.268-.82-3.804-1.769 2.531 1.063-.964-.431-1.995-.683-3.027-.873 5.948 1.103 2.063.31.201.447-.633.047-1.258.156-1.881.266-2.414.417 4.203-1.312.5-.105-3.275 1.068-6.314 2.814-9.194 4.669-1.81 1.165-3.526 2.467-5.22 3.792 3.13-2.448-.145.149-.639.579-1.338 1.162-2.624 2.377-3.907 3.599-8.089 7.696-18.183.598-23.644-6.781-4.991-6.745-12.204-23.45-4.308-30.963z"/><path d="M752.399 461.181c16.199-10.647 38.795-20.223 56.459-7.203 14.27 10.515 18.129 30.82 17.102 47.429-1.095 17.728-8.232 36.917-22.244 48.43-15.521 12.75-39.414 11.552-53.464-2.964-1.179-1.219-5.164-10.629-.464-9.844 8.59 1.437 15.834 6.317 24.777 6.831 7.27.414 14.128-1.921 20.164-5.85 12.59-8.2 19.709-24.211 22.047-38.56 1.926-11.837 1.617-27.506-8.438-35.832-14.739-12.207-37.853-1.708-52.156 5.674-2.939 1.516-6.564-6.282-3.783-8.111z"/><path d="M797.714 504.176c-5.932-7.295-13.878-12.87-23.558-12.994-10.673-.134-13.037 9.331-17.079 17.077-1.844 3.536-5.914-4.286-6.064-5.595-1.355-11.9 4.641-23.753 17.833-23.986 12.923-.23 24.544 10.695 31.368 20.529 1.781 2.571.904 9.154-2.5 4.969z"/><path d="M750.595 498.16c7.693-.317 17.34-.396 22.782 6.044 5.385 6.368 4.324 16.008-.293 22.514-1.979 2.789-5.22-4.134-4.628-5.991.844-2.646 4.775-9.605 1.938-12.059-4.52-3.906-12.346-4.012-17.947-4.309-2.247-.12-4.622-6.087-1.852-6.199z"/><path d="M738.728 437.73c1.518 56.309-6.207 116.071-25.756 161.98-27.74 65.153-81.303 112.831-147.234 127.856-74.087 16.885-155.498-4.727-208.256-63.931-53.334-59.85-66.604-144.198-59.796-223.75-3.414-2.066-6.901-3.917-10.526-5.373a555.233 555.233 0 0 0-2.887 28.925C278.502 542.63 295 625.173 346.886 684.753c51.743 59.424 131.511 82.004 205.402 69.07 68.648-12.018 125.691-58.746 159.934-122.47 28.031-52.169 41.439-122.043 39.745-188.195-4.404-1.842-8.798-3.703-13.239-5.428z"/><path fill="#219DF9" d="M536.693 66.915c9.267-1.377 17.129-.805 25.807 2.976 8.764 3.817 15.96 10.349 22.143 17.503 11.304 13.082 20.609 32.15 18.992 49.861-.261 2.852.916 6.61 4.567 5.501 3.435-1.043 6.204-5.359 6.431-8.828 1.345-20.604-7.977-40.773-21.498-55.92-13.296-14.894-35.689-26.281-55.576-17.753-2.229.955-4.979 7.271-.866 6.66z"/><path fill="#219DF9" d="M607.084 144.325c6.705-7.277 15.01-11.994 25.111-10.6 8.902 1.228 16.934 8.012 22.884 14.288 7.275 7.673 13.088 16.959 17.735 26.417 4.17 8.488 5.991 18.146 10.448 26.403 2.563 4.748 8.411-4.315 8.527-6.642.556-11.066-4.606-22.194-9.517-31.836-5.384-10.572-12.1-20.458-20.822-28.562-7.566-7.03-16.835-12.226-27.412-12.035-12.322.223-22.041 8.906-29.503 17.836-2.019 2.419-.639 8.191 2.549 4.731zm159.608 197.491c16.992-6.895 35.499-2.948 47.199 11.055 5.297 6.339 8.162 14.087 8.825 21.139.35 3.716-.045 6.565-.756 9.092-.316 1.126-.725 2.223-1.133 3.318 1.185-3.185-.331.471-.566.939-.554 1.103-1.198 2.163-1.806 3.236 1.471-2.597-1.318 1.858-1.658 2.32-2.982 4.056-5.247 10.063-3.507 15.086 1.965 5.669 8.703 4.514 12.051.78 18.511-20.655 23.345-50.588 7.27-74.15-6.127-8.981-15.745-15.97-26.131-19.079-13.527-4.048-26.68-1.296-39.103 4.881-4.37 2.172-7.235 8.193-7.829 12.778-.524 4.062 1.603 10.853 7.144 8.605z"/><path d="M432.786 730.81c-52.449.236-112.002.178-146.701 46.682-15.367 20.59-23.492 45.121-28.268 70.109-4.773 24.971-7.039 51.592-4.207 76.82.59 5.256 5.271-1.189 5.689-3.328 8.62-44.168 5.604-93.609 32.531-132.162 30.453-43.605 91.803-36.723 137.492-46.531 3.699-.792 8.916-11.616 3.464-11.59zm141.762 16.13c24.852-1.959 51.439-.736 75.059 7.84 21.271 7.725 37.508 22.736 50.893 40.543 14.266 18.98 22.674 40.893 30.601 63.041 8.068 22.541 14.585 45.912 19.163 69.402 1.387 7.121 10.975-4.879 10.281-9.461-7.576-50.061-16.369-100.477-47.488-142.049-13.711-18.32-33.334-32.42-55.076-39.434-27.78-8.959-55.855-3.881-82.566 6.152-1.013.384-2.666 4.107-.867 3.966z"/><path fill="#FFF" d="M452.964 566.322c-1.145-1.641 44.16-9.381 65.332-12 32.334-4 72.668 3.667 72.668 3.667s-18.334 34.334-50.334 37.667-72.334-7.334-87.666-29.334z"/><path d="M419.388 575.349c.781-4.982 2.494-9.071 6.061-12.724 1.389-1.422 2.576-3.759 1.873-5.788-.66-1.904-2.846-1.445-3.975-.257-5.193 5.462-9.904 13.208-8.965 21.073.504 4.223 4.674-.179 5.006-2.304zm192.091-27c4.205 3.059 6.943 7.539 9.785 11.796 2.186 3.276 7.229-4.111 5.246-7.084-3.107-4.659-6.49-9.075-11.215-12.202-2.858-1.893-6.669 5.413-3.816 7.49z"/><path fill="#FF617F" d="M454.84 582.551c12.04 11.943 21.885 26.721 36.625 35.615 13.848 8.357 30.777 9.746 46.451 7.57 28.195-3.914 61.8-22.908 55.104-56.068-.533-2.639-3.677-1.474-4.935-.319-15.196 13.954-33.622 24.522-53.865 28.938-21.204 4.626-43.025.237-62.184-9.369-4.313-2.163-8.335 6.64-6.026 9.753 13.886 18.718 40.626 22.966 62.374 21.28 23.888-1.852 48.684-11.799 61.163-33.24 2.349-4.035-.013-9.156-4.55-5.616-19.103 14.906-42.621 27.728-67.219 29.424-11.041.762-21.971-1.388-31.429-7.242-11.133-6.892-17.778-18.784-22.188-30.737-2.047-5.548-8.849 3.154-7.532 7.125 4.312 13.003 11.466 24.806 22.674 32.932 9.748 7.066 22.122 9.453 33.955 8.958 27.382-1.147 53.434-15.987 74.524-32.445l-4.55-5.616c-10.128 17.4-35.083 23.801-53.588 25.258-19.756 1.555-44.384-2.066-56.864-19.22l-6.026 9.753c20.179 10.371 42.176 14.363 64.559 10.128 22.763-4.308 42.359-17.422 59.381-32.557l-5.146-1.384c5.039 27.564-29.013 38.376-50.553 40.34-14.467 1.318-29.115-1.502-41.539-9.212-12.823-7.958-22.332-20.968-33.507-30.946-3.049-2.726-7.528 4.498-5.109 6.897z"/><path fill="#FF617F" d="M457.635 570.263c32.839-20.44 72.352-18.883 109.13-12.999 4.238.678 8.296-9.275 3.248-10.322-18.826-3.906-37.451-2.234-56.068 1.934-18.317 4.102-36.11 9.56-54.872 11.394l-1.321 10.055c18.606-12.074 40.408-19.794 62.512-21.862a112.991 112.991 0 0 1 33.038 1.785c11.142 2.271 20.754 7.298 30.635 12.666 4.092 2.224 8.293-6.898 4.902-9.619-17.57-14.102-43.641-17.054-65.321-15.173-23.664 2.053-46.33 10.348-66.482 22.762-2.027 1.248-6.494 10.408-1.321 10.055 18.382-1.258 36.067-6.769 53.874-11.093 18.958-4.604 37.906-6.502 57.175-2.58l3.248-10.322c-38.462-6.005-79.858-6.645-112.858 17.001-2.236 1.601-3.496 8.793.481 6.318z"/><path d="M445.894 571.804c8.094 18.01 18.684 42.201 36.445 53.117 16.486 10.132 39.896 8.186 59.773 5.931 39.016-4.427 45.035-43.004 54.998-69.241 1.51-3.976-1.543-3.173-2.779-.186-10.115 24.472-16.369 60.413-53.689 63.207-19.232 1.439-39.834 3.1-55.736-6.396-16.736-9.995-26.002-32.516-35.828-46.973-1.516-2.232-3.184.541-3.184.541z"/><path d="M451.234 573.713c8.808-3.852 16.054-9.526 23.435-15.568 8.709-7.13 18.004-11.731 29.115-13.846 15.783-3.002 33.863-2.732 49.264 1.919 15.153 4.577 28.032 16.188 44.461 16.24 3.012.01 5.854-7.088 2.289-7.271-16.888-.873-30.528-12.929-46.545-17.133-15.077-3.957-31.817-3.355-47.105-.904-10.924 1.752-20.812 6.229-29.516 12.991-7.972 6.194-15.214 12.969-24.56 17.125-2.391 1.063-4.067 7.859-.838 6.447z"/><path d="M420.874 567.731c16.084 7.944 34.309 5.223 51.062 1.138 20.578-5.019 40.802-10.269 62.148-10.104 28.176.219 66.391 18.049 87.122-9.77 1.877-2.518.161-6.177-2.449-3.064-10.339 12.324-25.916 13.229-40.843 11.693-15.309-1.575-30.065-5.213-45.548-5.126-18.503.104-36.473 4.55-54.312 9.002-17.959 4.481-36.746 8.508-54.586 1.141-2.208-.912-4.729 4.036-2.594 5.09z"/><path d="M596.364 557.762c-10.384 8.907-19.915 18.701-30.192 27.703-11.587 10.148-27.064 11.985-41.845 12.273-7.253.142-14.516.321-21.642-1.211-7.565-1.626-14.574-5.69-20.997-9.844-11.816-7.641-21.169-16.698-35.619-18.864-2.832-.424-5.523 6.158-2.165 6.879 15.22 3.266 25.293 14.804 38.153 22.636 6.475 3.943 13.493 6.783 20.957 8.145 7.513 1.37 15.692.674 23.286.368 14.125-.568 28.1-3.578 39.438-12.47 11.525-9.038 21.631-20.312 32.536-30.119 2.561-2.303 2.092-8.93-1.91-5.496z"/><path d="M490.032 577.487v-4c-13.367-1.751-26.965-4.346-40.492-4.021-2.979.071-5.867 7.128-2.289 7.271m146.178-7.591c2.885-.539 5.018-7.646.922-7.086-9.742 1.331-24.607 7.467-34 10.499"/></svg>