<svg xmlns="http://www.w3.org/2000/svg" xmlns:xlink="http://www.w3.org/1999/xlink" width="1030" height="1030" viewBox="0 0 1030 1030"><defs><path id="a" d="M1020.377 515.001c0 279.115-226.264 505.377-505.377 505.377S9.623 794.114 9.623 515.001 235.887 9.622 515 9.622s505.377 226.266 505.377 505.379z"/></defs><clipPath id="b"><use xlink:href="#a" overflow="visible"/></clipPath><g clip-path="url(#b)"><path fill="#EF6100" d="M1021.413 517.214c0 279.115-226.265 505.377-505.378 505.377-279.112 0-505.377-226.264-505.377-505.378 0-279.113 226.265-505.378 505.377-505.378 279.113 0 505.378 226.265 505.378 505.379z"/><path fill="#EA2700" d="M64.592 301.339c65.697-60.767 147.472-101.363 226.166-142.394 40.815-21.281 80.746-43.73 120.539-66.854 43.206-25.11 87.47-49.598 136.055-62.561l-2.865-37.722C469.49 62.96 382.01 118.799 296.631 176.392c-43.967 29.658-87.433 59.996-129.215 92.682-20.033 15.672-39.121 32.311-60.043 46.828-21.763 15.1-44.41 28.884-66.553 43.409-20.461 13.421-40.42 27.7-58.93 43.736-7.092 6.145-11.695 17.171-10.986 26.521.549 7.209 5.931 13.974 13.85 11.2 98.167-34.394 184.33-95.652 268.734-154.941 42.164-29.617 84.251-59.421 128.115-86.495 19.997-12.341 40.242-24.097 59.857-37.073 21.043-13.919 41.816-28.239 62.965-42.001 37.357-24.313 76.479-48.122 120.033-59.315-2.239-11.117-4.479-22.232-6.717-33.351-3.625 4.497-11.99 11.267-18.963 15.919-10.002 6.67-20.648 12.364-31.156 18.178-23.029 12.742-45.092 27.219-67.553 40.936-51.307 31.332-102.534 62.797-153.853 94.112-51.11 31.188-102.327 62.211-153.79 92.816-45.842 27.263-92.239 53.613-137.738 81.449C-2.51 405.993-58.916 444.152-106.64 491.58c-6.829 6.784-11.734 16.688-10.986 26.521.559 7.365 5.898 13.78 13.849 11.198 51.945-16.859 99.749-43.608 147.504-69.638 50.274-27.404 102.161-51.78 153.585-76.934 106.723-52.204 213.545-104.201 320.025-156.899 43.588-21.572 87.41-42.348 128.738-68.076 36.969-23.018 73.674-48.996 115.463-62.538-.953-12.575-1.908-25.146-2.863-37.721-32.516 34.457-76.607 55.146-117.221 78.288-50.043 28.516-97.458 62.321-145.693 93.778-48.672 31.741-97.557 62.7-143.463 98.404-36.258 28.201-71.635 58.477-113.408 78.263C166.968 440.29 75.416 461.753 37.56 541.29c-3.076 6.463-5.364 14.316-2.909 21.401 1.744 5.04 7.496 9.095 12.932 6.589 100.087-46.102 193.518-104.332 287.45-161.587 46.519-28.354 93.288-56.325 141.229-82.228 49.123-26.541 100.223-49.029 149.865-74.543 51.182-26.305 101.262-54.686 151.102-83.427-.985-12.997-1.971-25.993-2.959-38.989-89.507 66.279-184.82 124.035-280.238 181.279-95.315 57.186-189.699 115.122-280.916 178.699C148.344 533.63 70.698 560.08 20.878 624.456c-8.811 11.384-11.102 42.221 10.984 31.382 208.227-102.161 408.941-218.58 611.711-330.955 81.105-44.949 162.598-89.213 245.032-131.684-.985-12.996-1.972-25.994-2.959-38.989-200.876 115.724-395.703 241.728-585.56 374.705-76.926 53.879-153.004 108.972-228.347 165.043-9.188 6.835-16.062 17.88-15.161 29.76.736 9.699 9.592 15.234 18.12 9.229 43.634-30.724 91.015-55.527 138.017-80.599 48.865-26.063 96.42-53.966 143.453-83.206 97.824-60.818 193.598-125.836 295.82-179.224 79.943-41.755 155.398-91.653 236.616-131.035l-7.13-35.752c-155.031 139.627-335.512 246.817-513.14 354.633-93.445 56.721-186.838 113.71-276.604 176.167-9.318 6.484-16.043 18.146-15.16 29.758.8 10.539 9.316 14.158 18.119 9.23 202.516-113.372 408.094-221.234 609.108-337.292 82.61-47.694 164.386-96.848 244.782-148.196l-10.985-31.381c-4.995 7.511-10.376 14.716-16.097 21.688-5.041 6.146-10.836 12.267-18.377 19.708-14.123 13.939-29.658 26.809-45.089 38.273-35.397 26.297-73.571 48.73-112.081 70.107-37.449 20.789-75.582 40.312-113.115 60.945-42.606 23.422-83.6 49.658-124.551 75.827-65.342 41.753-130.41 84.796-198.977 121.15-60.085 31.858-124.111 59.163-173.205 107.688-6.838 6.762-11.73 16.707-10.986 26.521.621 8.164 5.797 12.766 13.852 11.199 27.105-5.268 51.927-18.041 75.644-31.76 24.854-14.379 49.684-28.809 74.538-43.191a10610.827 10610.827 0 0 0 152.23-89.772c49.531-29.772 100.037-57.95 150.666-85.822 50.375-27.729 102.133-51.93 153.664-77.322 67.275-33.148 131.117-72.729 197.158-108.185l-10.984-31.383c-5.504 7.192-9.137 10.836-17.041 18.057-7.752 7.076-15.979 13.312-24.516 19.367-18.808 13.338-38.715 25.094-58.618 36.699-43.185 25.18-85.118 51.793-126.224 80.276-91.95 63.715-180.73 131.845-272.466 195.851-62.606 43.68-127.019 85.396-195.644 119.062l2.959 38.99c48.337-27.512 98.725-51.109 148.233-76.383 25.085-12.807 49.888-26.168 74.097-40.572 24.189-14.391 46.896-30.896 69.811-47.201 23.253-16.545 46.578-32.993 70.564-48.466 23.51-15.167 48.084-28.535 72.547-42.078 48.808-27.02 97.926-53.479 146.338-81.21 61.396-35.17 121.518-72.686 178.057-115.307l-10.984-31.382c-59.98 69.826-146.118 119.632-225.496 166.939-91.051 54.269-181.008 110.706-269.408 169.204-41.196 27.26-81.385 55.869-121.204 85.092-39.394 28.914-78.96 57.732-121.233 82.348-9.595 5.584-15.992 18.82-15.16 29.758.84 11.066 9.201 13.475 18.119 9.23 100.961-48.053 196.104-107.057 291.244-165.518 47.797-29.369 95.674-58.625 144.387-86.46 47.674-27.237 96.567-52.016 145.608-76.669 75.025-37.713 150.204-76.055 218.39-125.428l-7.131-35.751c-33.61 33.213-76.09 55.599-117.895 76.72a4038.336 4038.336 0 0 0-133.637 70.689c-99.297 54.921-199.128 109.008-295.388 169.18-39.694 24.812-79.177 50.248-116.167 78.982-32.521 25.262-64.553 53.299-102.399 70.43-8.954 4.055-15.019 11.32-17.994 20.766-1.853 5.883-3.031 24.236 8.274 22.725 45.447-6.074 87.677-22.926 128.725-42.799 43.947-21.275 85.808-46.65 127.57-71.857 92.4-55.779 188.994-103.605 284.818-153.17 30.956-16.012 61.8-31.989 92.062-49.282l89.188-50.968c9.619-5.496 15.986-18.892 15.162-29.759-.805-10.575-9.309-14.111-18.121-9.229-104.188 57.711-206.854 118.117-308.768 179.746-51.145 30.93-102.086 62.188-152.945 93.584-44.668 27.572-85.542 60.625-129.553 89.188-21.203 13.756-43.262 26.518-67.016 35.328L331.72 981.4c171.867-107.34 370.172-160.402 549.303-253.342 47.312-24.547 93.092-52.107 136.094-83.643 9.217-6.758 16.057-17.938 15.159-29.76-.759-9.986-9.485-14.867-18.118-9.229C824.266 729.44 638.676 860.724 439.863 970.419a2775.571 2775.571 0 0 1-59.694 31.969l7.133 35.752c73.349-58.309 162.89-92.967 248.278-129.312 44.957-19.137 89.819-38.742 132.914-61.836 22.314-11.959 44.492-24.162 66.002-37.533 23.461-14.584 46.566-29.75 71.246-42.24l-14.291-26.021c-3.254 5.631 2.838-4.268-.768 1.271-1.092 1.672-2.266 3.291-3.438 4.908-1.197 1.656-2.473 3.256-3.743 4.855-.225.285-4.667 5.496-1.593 2.025-6.42 7.246-13.554 13.844-20.877 20.158-14.345 12.365-31.18 23.664-48.141 34.455-35.631 22.666-73.099 42.25-109.025 64.42-39.857 24.594-76.527 54.361-114.17 82.133-42.477 31.334-86.009 61.828-133.524 85.104-8.503 4.166-17.229 7.842-26.042 11.295.953 12.572 1.908 25.146 2.864 37.721 61.737-53.27 143.856-80.49 220.312-108.334 80.787-29.42 162.883-61.467 226.773-120.973 7.468-6.955 14.516-14.354 21.266-22.004 7.164-8.117 13.979-19.857 10.072-31.133-3.469-10.01-15.477-8.066-21.377-1.381-114.229 129.438-307.648 132.047-443.064 231.178a405.347 405.347 0 0 0-25.289 20.133c-7.098 6.125-11.693 17.186-10.986 26.523.528 6.965 5.991 14.279 13.852 11.197 97.134-38.068 176.129-109.006 260.492-168.248 66.98-47.033 147.924-76.375 205.264-136.568 10.396-10.916 19.23-22.635 26.766-35.684 7.1-12.287 4.061-35.306-14.291-26.02-23.682 11.982-45.959 26.396-68.422 40.475-22.414 14.049-45.567 26.727-68.828 39.299-42.021 22.705-85.976 41.566-129.891 60.242-90.248 38.379-182.23 75.838-259.648 137.379-7.226 5.744-11.672 17.469-10.986 26.521.82 10.785 9.26 13.842 18.12 9.23C584.75 936.47 771.74 806.556 960.965 681.343a11079.5 11079.5 0 0 1 56.154-36.924c-.986-12.996-1.974-25.993-2.959-38.989-164.072 120.319-362.512 176.991-545.047 261.854-48.147 22.383-95.297 46.992-140.35 75.131-8.23 5.139-13.767 14.979-14.994 24.48-1.042 8.053 3.028 20.43 13.685 16.479 48.653-18.047 91.169-48.994 132.91-79.129 45.077-32.541 91.929-61.576 139.313-90.625 101.836-62.436 204.242-123.968 307.943-183.266a7351.688 7351.688 0 0 1 86.65-48.766c-.985-12.996-1.971-25.993-2.959-38.988-51.547 29.457-102.699 59.619-155.438 86.898-53.777 27.817-107.557 55.633-161.336 83.449-43.93 22.723-87.301 45.756-129.696 71.246-41.771 25.117-83.297 50.699-126.522 73.277-41.221 21.529-86.023 41.922-132.55 48.141l-9.721 43.49c47.462-21.482 85.909-55.805 127.179-86.811 44.622-33.523 92.951-62.742 140.678-91.576 96.971-58.587 197.004-111.868 295.91-167.064 73.6-41.076 157.644-70.725 218.6-130.964 6.844-6.76 11.734-16.708 10.988-26.521-.729-9.591-9.636-15.373-18.119-9.229-88.589 64.145-188.592 109.527-285.451 159.373-99.426 51.166-193.672 111.625-289.094 169.732-73.312 44.643-147.525 88.053-225.084 124.969.985 12.996 1.973 25.992 2.959 38.988 49.188-28.641 94.676-62.945 140.543-96.504 46.479-34 94.139-66.234 142.512-97.467 87.035-56.191 175.351-110.046 263.912-163.752 74.69-45.295 149.065-94.295 206.426-161.075 5.669-6.597 9.146-18.316 6.219-26.761-2.553-7.37-11.105-9.217-17.203-4.62-89.628 67.563-188.064 121.632-286.239 175.511-49.329 27.073-98.405 53.916-144.788 85.881-23.352 16.091-46.289 32.776-69.5 49.068-23.091 16.205-47.427 30.418-72.158 43.965-61.564 33.727-125.932 62.055-186.961 96.791-9.623 5.477-15.984 18.906-15.16 29.76.834 10.973 9.219 13.596 18.119 9.23 98.893-48.512 189.042-113.174 277.801-177.872 89.326-65.108 177.656-132.874 271.783-191.008 55.476-34.265 120.369-62.552 160.975-115.647 5.39-7.048 9.266-17.969 6.219-26.763-2.841-8.196-10.652-8.139-17.203-4.62-49.322 26.479-97.433 55.121-146.603 81.871-49.907 27.152-102.032 49.65-152.421 75.84C537.59 565.519 438.344 626.223 337.975 685.06a11414.429 11414.429 0 0 1-97.149 56.283c-30.903 17.713-60.723 37.979-96.278 44.889.953 12.572 1.908 25.146 2.865 37.721 33.756-33.367 76.161-55.738 118.04-77.18 45.688-23.391 90.239-48.039 134.128-74.681 87.599-53.175 171.682-111.858 262.07-160.353 54.957-29.484 110.545-57.98 162.961-91.898 49.711-32.166 98.854-70.181 131.993-120.016 5.024-7.557 9.407-17.564 6.218-26.762-2.699-7.791-10.854-8.675-17.203-4.621-195.874 125.101-399.874 236.655-603.807 347.893-83.528 45.561-167.062 91.117-250.083 137.596l2.959 38.988C265.64 673.978 449.086 574.513 622.931 460.024c94.264-62.08 185.903-128.777 269.846-204.379 7.025-6.327 11.709-17.035 10.988-26.521-.836-11.01-9.213-13.55-18.12-9.23-51.248 24.849-100.296 53.832-149.524 82.396-49.636 28.8-100.664 55.019-150.33 83.749-99.657 57.645-195.211 122.086-293.78 181.536-72.495 43.724-150.876 77.517-220.271 126.384.985 12.996 1.974 25.992 2.959 38.988 185.013-137.684 374.572-269.338 569.659-392.373 80.434-50.727 161.85-99.902 244.247-147.373 9.606-5.535 15.987-18.861 15.161-29.76-.821-10.815-9.25-13.799-18.12-9.229-206.175 106.22-406.212 223.748-609.961 334.452-81.456 44.258-163.553 87.353-246.782 128.186l10.984 31.383c25.777-33.308 66.305-56.533 103.789-77.647 19.876-11.199 39.891-22.157 59.179-34.356 21.948-13.881 42.736-29.654 64.247-44.203 92.357-62.464 188.979-118.262 284.289-176.013 77.076-46.703 153.375-94.857 225.838-148.517 9.197-6.81 16.061-17.9 15.162-29.76-.793-10.436-9.346-14.29-18.121-9.229-48.864 28.18-97.98 55.93-148.08 81.867-49.613 25.688-100.764 48.179-150.023 74.562-96.332 51.593-187.564 112.021-281.984 166.92-45.945 26.715-92.727 52.251-141.018 74.497 3.338 9.33 6.68 18.662 10.022 27.99a169.555 169.555 0 0 1 2.938-5.881c.275-.53 3.927-6.72 1.067-2.127 2.278-3.657 4.847-7.124 7.493-10.519.167-.216 4.737-5.591 1.715-2.197 1.436-1.612 2.948-3.157 4.455-4.703 3.552-3.637 7.364-7.009 11.248-10.285 4.771-4.025 12.173-9.079 19.404-13.619 8.458-5.309 17.279-10.026 26.193-14.511 34.469-17.342 71.242-29.699 106.113-46.215 43.147-20.439 79.836-52.666 117.23-81.818 44.832-34.949 93.141-64.874 140.709-95.896 48.039-31.33 95.283-64.804 145.127-93.205 42.926-24.461 88.732-46.937 123.102-83.359 6.684-7.084 11.75-16.467 10.986-26.521-.559-7.366-5.898-13.776-13.852-11.199-49.908 16.174-93.238 47.806-137.598 74.86-48.915 29.833-102.049 53.269-153.393 78.592-106.677 52.613-213.652 104.618-320.47 156.94-43.396 21.257-86.618 42.541-129.028 65.714-40.359 22.048-80.936 43.731-124.824 57.979l2.863 37.722c72.182-71.732 163.5-120.634 250.486-171.761 103.369-60.754 205.491-123.592 307.752-186.184 31.838-19.49 63.289-39.892 95.545-58.647 28.137-16.359 57.43-30.229 78.301-56.136 6.781-8.413 13.281-38.49-6.715-33.35-47.43 12.188-90.468 38.452-131.139 64.922-21.107 13.74-41.835 28.054-62.84 41.949-19.621 12.977-39.934 24.667-59.938 37.012-88.902 54.875-170.567 120.623-260.035 174.661C76.088 360.719 34.5 382.364-9.664 397.84l2.862 37.721c39.103-33.88 85.59-57.931 127.509-87.985 21.175-15.182 40.631-32.546 61.217-48.488 20.627-15.977 41.773-31.276 63.117-46.279 86.076-60.504 176.019-115.53 257.791-181.999 18.234-14.82 35.916-30.312 52.963-46.484 6.924-6.571 11.72-16.852 10.985-26.521-.585-7.715-5.842-13.337-13.851-11.199-49.303 13.154-94.82 37.832-138.795 63.142-40.957 23.574-81.775 46.956-123.684 68.825-82.873 43.245-167.968 86.252-237.164 150.254-7.748 7.166-13.724 20.591-10.07 31.133 3.688 10.637 15.028 7.252 21.376 1.379z"/></g><path fill="#2F61DD" d="M221.14 612.463c-8.344-38.913-8.591-79.807-4.728-119.273 3.768-38.485 11.9-78.394 30.218-112.791l-9.154 1.161c-.164 37.649-3.348 75.207-6.915 112.663-3.528 37.047-8.302 74.227-8.569 111.485-.014 1.977 1.642 3.497 3.592 2.905 2.741-.833 4.714-4.147 4.997-6.859 3.898-37.506 7.151-75.097 10.695-112.639 3.576-37.882 6.603-75.858 6.544-113.935-.011-6.984-7.527-1.939-9.154 1.161-18.991 36.193-27.327 77.627-31.066 118.017-3.807 41.122-2.551 83.595 7.537 123.782.532 2.119 2.988 1.296 4.08.265 1.619-1.529 2.387-3.777 1.923-5.942zm53.589 72.41c8.031 17.16 16.42 33.853 28.561 48.525 8.645 10.447 22.973-12.887 18.878-21.415-6.104-12.716-13.903-24.401-28.258-27.98-11.717-2.921-23.771 5.164-32.448 11.974-9.696 7.609-17.789 17.193-26.128 26.205-4.493 4.855-9.082 9.611-13.876 14.171a115.922 115.922 0 0 1-6.631 5.822c-1.163.926-1.113.887.149-.116-.557.416-1.121.822-1.689 1.222-1.372.977-2.801 1.868-4.249 2.728l6.913 19.752c13-16.484 33.749-27.738 53.727-36.286l-7.259-3.698c5.384 14.285 15.502 26.314 20.574 40.71 2.049 5.815 8.296 4.068 11.795.763 4.237-4.002 7.6-11.327 5.558-17.179-5.051-14.469-15.534-26.422-20.276-40.991-.985-3.025-4.165-4.865-7.259-3.698-26.142 9.857-50.632 23.818-68.824 45.415-3.539 4.201-5.77 11.49-3.915 16.844 1.782 5.145 6.711 5.143 10.828 2.908 21.095-11.447 35.211-32.099 52.742-47.872 1.779-1.601 3.631-3.113 5.501-4.604-3.058 2.438.415-.21 1.06-.653 1.006-.691 2.052-1.321 3.105-1.937.634-.37 4.232-2.026.98-.598 1.003-.441 2.043-.786 3.088-1.11.606-.188 4.085-.804 1.056-.406 1.02-.134 2.049-.132 3.075-.106 1.034.026 2.056.202 3.069.398-2.521-.488.724.36 1.281.595 1.071.451 2.074 1.05 3.061 1.657.329.202 3.064 2.381 1.796 1.272 5.085 4.447 9.079 10.502 12.574 16.216l17.61-23.773c-12.767-10.978-20.811-26.69-28.63-41.344-6.579-12.334-21.738 7.618-17.539 16.589z"/><path fill="#FFE5B8" d="M775.176 347.815c-2.876-3.521-7.04-4.619-11.706-3.024l-1.736.595.001-.107-.369.234c-13.975 4.805-22.995 3.975-31.854 2.184 1.709-6.052 3.021-12.285 4.003-18.603.812-.027 1.657-.315 2.392-.804 3.179-2.108 4.95-6.364 4.869-10.284-.404-19.314-2.707-38.6-7.541-57.002-1.522-7.797-3.834-15.39-7.296-22.194-5.03-12.556-11.485-24.481-19.614-35.453-21.007-28.355-52.239-45.759-84.255-55.072-17.88-5.201-36.233-8.122-54.695-9.504-21.528-1.613-43.223-1.364-64.494 2.846a143.834 143.834 0 0 0-8.703 2.019c-29.185 1.134-58.11 7.27-84.561 21.157a138.98 138.98 0 0 0-7.277 4.116c-13.356 5.419-26.344 11.818-38.62 19.499-16.723 10.465-32.648 24.265-41.876 42.92a62.433 62.433 0 0 0-4.068 10.522c7.197 6.74 11.295 15.739 12.099 26.125 1.328 17.207-3.263 34.593-8.146 50.937-4.844 16.217-10.4 32.121-14.033 48.677a350.459 350.459 0 0 0-3.071 15.799 218.048 218.048 0 0 0 11.46-1.987 225.148 225.148 0 0 0-12.295 7.043c-2.792 17.604-4.449 35.351-5.842 53.133 15.792-.491 32.29-2.116 49.964-4.953-16.913 7.838-34.282 16.233-51.52 25.628-1.345 18.046-2.778 36.087-5.215 54.006 13.28-3.454 25.47-6.713 36.91-9.875-3.814 1.754-7.69 3.551-11.567 5.371l-1.019.271-.033.241c-10.075 5.157-17.21 15.98-18.716 28.511-.746 6.237.564 12.133 3.536 15.77 2.83 3.464 6.982 4.69 11.789 3.419l2.065-.557c-.427.237-.944.474-1.368.712l-.395.056v.06c0 .599-1.957 1.195-3.029 1.791-8.564 4.771-14.042 17.121-15.213 26.859-.748 6.242.584 12.151 3.569 15.806 2.833 3.471 7.006 4.683 11.801 3.38a701.55 701.55 0 0 0 30.57-9.084c-7.326 7.674-13.744 24.063-11.247 34.344 1.643 6.766 6.893 9.942 14.672 8.737a384.16 384.16 0 0 0 21.724-4.008c-2.822 4.779-4.691 10.283-5.368 15.915-.558 4.638.106 11.665 3.812 16.2 2.885 3.535 7.047 4.604 11.684 2.946 3.313-1.187 6.629-2.369 9.947-3.543a40.568 40.568 0 0 0-7.041 18.349c-.763 6.356.409 11.799 3.302 15.342 2.756 3.377 6.943 4.719 11.921 3.852.66-.116 1.318-.267 1.977-.385l.127-.226c6.706-1.177 13.423-2.64 20.15-3.845-3.531 8.499-5.293 18.137-1.894 24.246.941 1.695 2.601 3.058 5.444 3.702 1.147.475 2.489.729 4.047.731h.049c5.287-.01 10.591-.09 15.904-.213 10.156.088 20.249.105 30.16-.543.602 5.563 3.189 10.775 7.409 12.781 11.976 5.689 25.401 8.575 39.898 8.575 30.877 0 62.198-13.022 83.07-22.82 39.693-18.63 75.662-43.074 108.62-66.719l.915-.554-.007-.119c9.43-7.258 15.379-20.248 14.551-31.988-.581-8.255-5.269-13.59-11.936-13.59-.43 0-.866.024-1.304.071 10.656-9.181 19.582-19.133 27.054-30.138 5.164-7.606 9.515-19.357 6.241-29.527-1.382-4.285-4.271-7.188-7.99-8.17a257.154 257.154 0 0 0 5.707-5.614c7.48-7.593 11.855-19.001 11.146-29.063-.482-6.832-4.729-14.093-11.649-14.093-1.333 0-2.705.282-4.081.84-2.094.849-4.208 1.701-6.34 2.556 7.331-5.545 12.77-15.516 14.015-25.884.582-4.867-.406-12.083-3.958-16.433-2.913-3.564-7.063-4.55-11.609-2.687-.544.224-1.095.448-1.646.672l.01-.323-1.206.805c-.889.357-1.787.716-2.689 1.073a355.66 355.66 0 0 0 17.988-16.493c5.829-5.729 9.939-14.406 10.997-23.212.622-5.2-.231-12.267-3.549-16.331-.922-1.128-2.005-1.997-3.228-2.585a826.153 826.153 0 0 0 17.746-10.873c9.045-5.703 14.209-17.574 15.32-26.812.734-6.098-.747-12.428-3.766-16.13zm-449.409-97.324l-.05.095a63.15 63.15 0 0 1 .294-2.713c.093-.697.212-1.388.333-2.081.189-1.082-.094.284.346-1.509 1.348-5.494 3.334-9.535 5.969-13.661 3.485-5.456 6.638-8.948 11.466-13.592 6.409-6.164 13.533-11.535 21.087-16.289a170.304 170.304 0 0 0-9.05 11.62c-12.003 10.878-22.541 23.467-30.395 38.13zm15.908 12.626c-.49.464-.976.932-1.468 1.393 4.564-13.546 10.507-26.481 18.125-38.32 3.786-3.723 7.801-7.171 11.986-10.386-12.104 13.795-21.706 29.819-28.643 47.313zm47.29-48.193a28.28 28.28 0 0 0-3.586 3.713c-8.211 8.525-16.345 17.13-24.602 25.591a134.364 134.364 0 0 1 7.887-11.453c1.915-2.491 4.129-5.075 6.522-7.646 4.754-4.256 9.835-8.105 15.125-11.588-.448.462-.897.921-1.346 1.383zm39.4 83.023l2.766-1.33.14.364c-.972.322-1.943.641-2.906.966zm93.092-3.571c-.025-.78-.1-1.534-.196-2.272 4.205 2.487 8.317 5.162 12.352 7.913a641.186 641.186 0 0 1 4.846 3.345c-6.061-2.87-11.735-5.828-17.002-8.986zm159.1-95.022c-.223-.392-.441-.787-.669-1.175.583.521 1.163 1.044 1.737 1.577a2.617 2.617 0 0 0-1.068-.402zm7.752 145.331a81.012 81.012 0 0 0 2.885-3.41c.467 1.127.922 2.261 1.383 3.393-1.182.002-2.644.008-4.268.017zm17.565-104.288c-6.028-14.214-14.31-27.371-23.19-39.622-.029-.038-.059-.067-.088-.105a138.504 138.504 0 0 1 23.644 29.37 13.669 13.669 0 0 0-.612 4.153c.018 2.081.105 4.149.246 6.204z"/><path fill="#D8724A" d="M395.46 706.748h-.001l-.002.006z"/><path fill="#2F61DD" d="M274.713 375.778c3.441 8.467 9.604 11.766 17.17 5.576 9.119-7.461 14.028-20.755 18.324-31.303 5.915-14.521 10.481-29.63 14.253-44.837 2.955-11.916 5.843-24.265 6.024-36.601l-8.188 5.05c-.012 7.837 2.5 17.568 12.129 13.046 4.221-1.982 7.597-5.989 10.605-9.415 4.176-4.757 7.757-10.037 11.122-15.386 8.974-14.268 16.484-29.405 22.879-44.989 5.999-14.617 11.28-29.941 13.289-45.68.779-6.103.727-12.014-.982-17.956-1.567-5.449-7.881 2.722-7.559 5.871 1.315 12.849-2.267 26.35-6.106 38.479-5.01 15.828-11.831 31.087-19.647 45.717-5.734 10.733-12.675 22.956-20.887 30.861-1.691 1.628-1.417 1.491-3.465 2.584 1.003-.536-.608.163-1.013.243.455-.09-.02-.061-.273-.175-.53-.24-.717-.475-1.203-1.902-.58-1.704-.665-4.02-.7-6.349-.039-2.565-2.42-3.527-4.458-2.271-2.471 1.524-3.735 4.514-3.73 7.321.016 8.954-2.424 19.95-4.594 29.308a348.018 348.018 0 0 1-11.937 40.318c-3.641 10.006-7.735 20.336-14.102 28.956-1.417 1.918-3.294 4.063-5.343 4.188-2.975.182-5.091-3.34-6.292-5.685-1.946-3.796-6.427 2.295-5.316 5.031z"/><path fill="#61E9FF" d="M764.682 932.816c-8.245-33.301-22.038-65.36-41.07-93.479a217.484 217.484 0 0 0-4.262-8.258c-.202-6.248-2.17-11.772-7.374-12.666-4.703-7.558-9.754-14.818-14.957-21.718-27.368-36.283-64.172-60.236-108.851-69.16-45.886-9.17-93.896-1.61-139.322 6.622-40.592 7.358-84.328 12.255-118.332 37.7-11.95 8.94-21.571 19.51-29.475 31.196-5.497 5.441-10.622 11.306-15.293 17.627a140.187 140.187 0 0 0-2.709 3.804c-9.723 11.882-19.088 24.081-28.809 35.788-6.208 7.472-11.292 23.014-4.401 31.619 2.055 2.564 4.424 3.65 6.887 3.756-1.229 8.896-1.889 17.894-2.059 26.897-1.897 3.391-2.901 7.294-2.209 10.338-3.093 5.5-4.052 12.72.429 15.754.948.643 1.903 1.269 2.857 1.897.847 3.802 3.25 4.621 5.97 3.812.412.253.826.505 1.238.756 1.548 3.176 4.372 5.268 8.977 5.25 11.052 6.177 22.521 11.589 34.274 16.36-.023.919-.017 1.847.055 2.788.632 8.321 6.033 13.46 14.387 11.631a175.539 175.539 0 0 0 14.802-3.945c19.786 6.223 40.044 11.028 60.205 14.97 44.542 8.706 90.85 12.936 136.185 14.201 55.461 1.551 142.988-4.322 184.756-48.998a586.228 586.228 0 0 0 38.488-15.672c6.998-3.138 11.501-11.25 9.613-18.87zm-48.298-19.383a94.847 94.847 0 0 0 6.202-9.938c.3 2.665.48 5.336.536 8.001a295.98 295.98 0 0 0-6.738 1.937zm-403.095 32.258c10.045-5.419 19.667-11.683 28.848-17.932 1.407-.959 2.794-1.946 4.192-2.922-9.112 7.38-17.742 15.259-25.672 23.82a200.418 200.418 0 0 1-7.368-2.966zm217.482-183.518c-10.267 4.613-20.282 9.834-30.099 15.364 3.988-4.504 7.086-9.716 8.73-15.478 7.133-.11 14.26-.098 21.369.114zm75.171 12.79c-10.987 6.825-22.134 13.38-33.324 19.858 4.019-7.38 7.434-15.142 10.083-23.354.311-.966.573-1.994.781-3.063 7.563 1.734 15.055 3.892 22.46 6.559zM282.615 895.696a244.25 244.25 0 0 0 6.094-2.952 200.547 200.547 0 0 0-7.898 10.59c.55-2.527 1.108-5.053 1.674-7.578l.13-.06zm124.508-16.542c22.222-16.514 46.356-30.496 69.82-45.15 14.753-9.218 29.735-18.138 45.353-25.629a328.796 328.796 0 0 1-4.153 3.67c-9.614 8.346-17.261 13.791-28.744 21.651-12.149 8.316-24.666 16.089-37.236 23.751-26.023 15.853-54.023 30.923-80.003 48.418 11.658-8.9 23.197-17.966 34.963-26.711zM523.786 867.4c-16.085 10.895-32.622 21.077-49.252 31.11 21.393-16.131 43.477-30.077 66.778-43.334-5.739 4.144-11.58 8.197-17.526 12.224zm-63.263 92.612c-4.306 2.962-8.048 7.045-10.802 11.716a940.056 940.056 0 0 1-13.42-.969c8.081-3.571 16.16-7.142 24.222-10.747zm243.307-91.744a166.302 166.302 0 0 0 5.614-8.386 232.254 232.254 0 0 1 1.931 4.41 347.998 347.998 0 0 0-7.545 3.976zm-45.086-28.937a498.34 498.34 0 0 0 11.426-13.795c1.816-2.275 3.443-5.006 4.722-7.962a220.468 220.468 0 0 1 9.769 9.764 427.806 427.806 0 0 0-25.917 11.993zm-8.049-41.309c-7.503 5.022-14.587 10.584-21.51 16.354 4.778-7.014 9.136-14.312 12.99-21.92a201.63 201.63 0 0 1 8.52 5.566zM518.539 968.714a195.061 195.061 0 0 0-5.562 5.824c-1.173-.03-2.345-.065-3.518-.102a890.354 890.354 0 0 0 9.08-5.722z"/><path fill="#FFE5B8" d="M572.384 720.587a43.161 43.161 0 0 0-2.597-1.092c-1.312-4.439-3.169-8.871-5.583-13.308-5.663-10.403-20.321 1.755-24.147 6.925a42.025 42.025 0 0 0-2.206 3.306c-8.424.842-16.711 2.579-24.076 4.406-16.359 4.059-33.587 14.184-41.625 28.898-.21-.229-.44-.475-.716-.767-1.495-1.583-2.758-3.358-3.937-5.182.769 1.125-1.07-2.179-1.22-2.533-.635-1.494-1.09-3.054-1.548-4.607-.074-.252-.138-.461-.195-.65-.029-.3-.079-.716-.16-1.301-.251-1.823-.311-3.668-.376-5.505a44.006 44.006 0 0 0-.022-.574c.057-.338.127-.928.215-1.896.2-2.158.586-4.294.967-6.427 1.605-8.998-3.407-20.398-14.216-17.114-11.534 3.503-46.345 35.786-48.298 46.736-3.349 18.778 2.971 57.602 14.657 73.287 9.656 12.96 54.809 48.416 70.356 49.837 14.856 1.358 89.221-14.338 102.604-20.521 2.07-.618 34.188-60.711 36.155-61.562 0 0-10.574-49.836-27.361-46.904 4.445-5.732-27.525 11.646-24.5 5.181 3.47-7.412 8.232-23.817-2.171-28.633z"/><path fill="#EAA286" d="M561.542 741.923c-16.587 9.182-35.788 12.758-54.617 12.13-18.777-.624-39.786-5.194-51.228-21.4-3.543-5.019-9.491 7.452-8.371 10.843 14.777 44.792 72.594 50.025 109.767 31.411 7.793-3.903 12.699-12.901 13.828-21.324.688-5.119-1.634-15.944-9.379-11.66z"/><path d="M294.899 873.721c9.902.872 21.479 4.542 25.841 14.37 4.021 9.065 3.827 20.559 3.623 30.284-.237 11.013-1.871 22.007-2.995 32.949-.846 8.24-3.866 21.63 1.271 28.817 5.354 7.489 13.275-9.266 13.803-12.738 1.525-10.053-.316-21.312-.04-31.573.315-11.671.69-23.381-.797-34.99-1.255-9.787-4.923-18.103-12.099-24.948-7.877-7.51-18.325-6.732-28.136-4.331-.632.158-1.436 2.077-.471 2.16zm359.289 5.052c2.468 8.512 6.264 16.481 9.304 24.804 3.66 10.013 5.641 20.536 7.629 30.977 4.055 21.276 5.642 43.011 8.822 64.427.157 1.06.422 3.333 1.867 3.637.425.09.853.177 1.277.269 2.657.555 4.823-2.068 5.747-4.316 3.845-9.383.394-20.353-.821-30.165-1.5-12.121-3.503-24.181-5.893-36.16-2.36-11.822-5.666-23.382-10.346-34.502-3.453-8.212-7.82-17.268-16.824-20.128-.516-.169-.871.779-.762 1.157z"/><path d="M691.837 846.941c-13.969 5.114-26.065 13.318-35.512 24.854-1.577 1.925-3.068 4.833-2.268 7.4 1.024 3.285 4.321.295 5.394-1.179 8.126-11.192 19.075-19.248 31.568-24.999 1.908-.878 3.949-7.221.818-6.076z"/><path fill="#FF8A0B" d="M399.376 805.66c.251-.006.49.012.735.072l-.676-.176c.223.068.418.164.604.305l-.535-.439c.171.146.306.311.42.504l-.347-.646c.114.213.194.436.244.673l-.159-.801c.017.09.033.181.037.272.033.716.349 1.521 1.024 1.865.69.352 1.495.112 2.111-.268.854-.526 1.511-1.359 1.961-2.243.487-.955.632-1.853.662-2.905a4.316 4.316 0 0 0-.401-1.881c-.629-1.348-1.665-2.147-3.185-2.261-.845-.062-1.685.49-2.265 1.038-.8.756-1.389 1.753-1.719 2.8-.278.883-.404 1.906-.093 2.803.229.663.818 1.308 1.582 1.288z"/><path fill="#2F61DD" d="M856.578 509.477c-.749-12.445-2.003-24.845-3.247-37.247a775.106 775.106 0 0 0-.444-4.567c-.033-.344-.076-.686-.111-1.03-.642-6.458-1.261-12.918-1.783-19.388-1.03-12.775-1.275-25.541-2.909-38.275a231.147 231.147 0 0 0-7.825-36.782c-4.113-13.747-9.728-26.97-16.043-39.845a612.819 612.819 0 0 0-12.169-34.043c-3.503-19.917-11.4-38.856-23.407-55.277-1.506-2.06-3.101-4.047-4.735-6-10.553-19.73-22.437-38.744-35.707-56.764-12.959-17.597-27.382-35.405-44.143-49.547-24.956-21.059-54.667-37.003-85.187-48.341-33.479-12.438-70.124-20.7-105.807-14.53-16.962 2.933-32.56 10.243-45.623 21.443-6.254 5.363-11.636 11.704-16.2 18.632-14.777-6.21-30.667-9.903-46.681-9.03-22.243 1.214-42.066 10.457-59.521 23.823a76.91 76.91 0 0 0-12.186 3.888c-23.004 9.53-40.977 27.855-54.002 48.737-32.439 52.003-53.656 115.766-60.92 175.679-1.212 9.999-2.251 20.011-3.173 30.033-4.747 22.622-8.821 45.371-12.417 68.093-9.919 62.678-5.545 126.051-7.08 189.49-.589 24.37-.53 48.785 1.396 73.095 1.372 17.314 3.229 35.045 8.082 51.781l.101.346c2.126 7.229 10.644 5.072 14.613.945a127.537 127.537 0 0 0 5.387-5.979c-2.932 3.465 2.747-3.203 3.423-4.079 3.058-3.955 5.628-8.359 7.975-12.768 4.301-8.082 7.139-16.795 9.223-25.669.118-.339.229-.678.342-1.017 1.301 1.059 3.052 1.491 5.054.885 4.738-1.438 8.929-6.975 10.046-12.049 3.144 7.97 6.629 15.797 10.526 23.419 4.38 8.564 9.185 16.872 14.863 24.647 3.117 4.267 8.347 2.693 12.18.752 9.838-4.98 24.993-8.375 37.508-10.741 13.749-2.597 27.64-4.715 40.925-9.249 5.234-1.785 9.203-6.219 11.681-11.178a83.534 83.534 0 0 0 4.604-.65c11.505-1.99 21.18-25.15 10.361-32.596-19.938-13.72-37.783-29.862-53.354-48.423-14.583-17.382-25.846-35.848-34.606-55.328-9.072-20.173-15.439-41.483-19.922-63.115l-.109-.527c-.043-.232-.113-.598-.218-1.143-.252-1.317-.49-2.637-.73-3.956a382.371 382.371 0 0 1-1.339-7.954c-.924-5.783-1.693-11.59-2.376-17.406-1.329-11.309-2.182-22.671-2.744-34.042-.798-16.164-.867-32.358-.535-48.535.028-1.344.064-2.688.1-4.031 1.535-2.792 2.529-5.833 2.793-8.626.957-10.127 2.415-20.182 4.517-30.136l.217-.938c.326-1.392.68-2.777 1.034-4.162.58-2.265 1.221-4.514 1.877-6.757 1.274-4.353 2.74-8.646 4.312-12.899.237-.641 1.613-4.041 1.812-4.574.697-1.62 1.417-3.229 2.154-4.831 1.794-3.902 3.762-7.722 5.815-11.493a200.025 200.025 0 0 1 3.166-5.553c.127-.214.256-.427.384-.64.008 0 1.133-1.838 1.391-2.242 2.296-3.6 4.728-7.111 7.222-10.577 3.49-4.851 7.188-9.549 10.997-14.155 6.025 11.902 13.084 23.271 21.319 33.883 3.094 3.987 5.267 28.266 8.702 25.346-.452 22.812 10.759-22.534 12.715-26.147 14.018-25.901 29.999-49.254 47.787-74.158 8.927-12.499 17.996-24.896 26.963-37.366.437 1.362.886-7.491 1.355-6.141.83 4.21 1.713 8.242 2.585 12.009 4.291 18.529 10.097 36.744 18.059 54.021 6.528 14.165 13.857 27.948 20.894 41.86 6.082 12.022 16.218 21.278 26.503 29.729 3.441 2.826 6.959 5.546 10.477 8.262 6.633 7.258 14.092 13.748 22.686 19.107.021.014.045.022.068.036.104 2.458 2.13 4.029 4.683.91 11.869-14.504 16.894-33.919 20.805-51.866 1.253-5.752 2.361-11.566 3.471-17.387 35.224 42.496 78.655 80.985 98.48 133.281 1.691 4.463 6.124 4.983 9.896 2.658 4.687-2.89 8.957 14.647 9.572 9.228 2.187-19.269 14.22-51.599 16.346-70.888a320.326 320.326 0 0 1 6.084 9.837c1.399 14.398 2.499 28.797 3.167 43.202-.419 23.019-.471 46.042-.392 69.066a550.41 550.41 0 0 1-.839 11.575c-1.808 21.342-4.65 42.859-10.651 63.465-6.716 23.058-20.686 43.346-35.032 62.316-16.354 21.625-34.624 43.572-56.203 60.195-.37.285-.749.561-1.122.843-12.999 4.41-25.294 11.987-34.834 21.138a211.96 211.96 0 0 1-31.309 11.955c-20.725 6.089-42.635 8.547-64.126 5.912-3.768-.463-7.304 8.465-2.855 9.069 31.647 4.311 64.513-2.42 94.037-15.861.247 2.108 1.521 3.463 4.608 2.7 9.895-2.438 19.887-7.755 28.305-13.801.351.191.812.228 1.401.048.311 1.08 1.158 1.634 2.857 1.012 3.016-1.104 5.856-2.599 8.518-4.378.712.652 1.69.91 2.962.399 16.134-6.476 29.303-20.426 40.536-33.243 8.594-9.806 16.273-20.531 23.235-31.636 1.908.333 4.665-1.331 5.987-2.856 14.773-17.046 24.488-37.968 32.609-58.821a389.24 389.24 0 0 0 7.651-21.51 346.474 346.474 0 0 1-1.588 7.237c-.491 2.122-.065 3.587.777 4.365-.079.438-.154.876-.232 1.314a579.861 579.861 0 0 1-2.588 13.417 409.72 409.72 0 0 1-9.947 20.016c-2.729 5.122-5.604 10.166-8.569 15.153-.429.723-.868 1.438-1.306 2.155-.109.165-1.317 2.114-1.562 2.499a271.617 271.617 0 0 1-5.573 8.431c-6.779 9.865-13.882 19.432-21.622 28.572-.254.301-2.094 2.405-2.56 2.95a349.922 349.922 0 0 1-3.232 3.556 292.445 292.445 0 0 1-7.881 8.183c-5.32 5.337-10.888 10.422-16.623 15.307-11.659 9.931-21.665 17.85-35.052 26.138-5.359 3.319-9.021 10.48-8.544 16.771.466 6.147 5.201 7.707 10.21 5.202a224.239 224.239 0 0 0 19.407-10.963c.047.855.376 1.57 1.031 2.005a6.623 6.623 0 0 0-.069 1.481c.182 2.4 2.305 3.629 4.39 2.236 1.526-1.02 3.053-2.047 4.578-3.078.02 0 .039-.004.059-.006-.03.193-.066.388-.091.579-.541 4.175.609 11.102 6.205 11.082 19.446-.066 36.425-7.236 51.611-17.734 6.866-1.793 13.644-3.89 20.285-6.343-.884 17.578-.979 35.195-.015 52.836.484 8.868 8.505 7.952 13.719 3.688 1.115-.911 2.222-1.835 3.328-2.756-1.17 3.377-1.748 7.005-.551 10.462 1.765 5.09 6.912 5.437 11.034 2.964 21.819-13.105 37.261-34.332 48.446-57.458a357.446 357.446 0 0 0 4.38-4.653c6.544 9.664 12.829 20.012 13.085 31.729.108 4.899 3.988 8.747 8.951 7.241 6.629-2.015 12.042-10.383 12.451-17.093 3.198-52.493 4.344-105.138 1.578-157.651 8.107-26.717 6.871-57.63 5.292-83.841zM289.912 674.693a162.647 162.647 0 0 0 8.729 12.654c6.326 8.318 13.611 15.667 21.68 22.29a117.95 117.95 0 0 0 3.767 2.954c-6.324 1.415-12.586 3.116-18.738 5.342-1.876-3.027-3.661-6.107-5.426-9.211l-.113-.202c-.17-.313-.387-.713-.521-.966a208.432 208.432 0 0 1-1.884-3.676 229.806 229.806 0 0 1-3.948-8.319c-5.302-11.718-9.651-23.855-13.435-36.14-.656-2.13-1.29-4.269-1.911-6.41a251.292 251.292 0 0 0 2.817 5.822c1.696 3.185 1.986 3.711.871 1.576a643.382 643.382 0 0 0 1.912 3.562 187.062 187.062 0 0 0 6.2 10.724zm418.065-51.932c1.083-3.438 2.377-6.812 3.673-10.09a199.717 199.717 0 0 1 3.298-7.813 145.344 145.344 0 0 0 5.702-9.485 1192.73 1192.73 0 0 0 6.317-11.685c-5.057 13.285-11.04 27.003-18.99 39.073zm53.132 57.62l-.361-2.211a78.11 78.11 0 0 1 3.085 1.686l-2.724.525zm7.056-33.825c-.131-.055-.262-.11-.393-.163.171-.254.345-.506.514-.761l-.121.924zm22.471 70.779a607.6 607.6 0 0 0-4.428 3.742 133.01 133.01 0 0 0 4.433-5.221c-.003.494-.003.987-.005 1.479zm58.446-156.194c-.164-1.897-.323-3.796-.496-5.691.29-.332.545-.689.812-1.038a225.87 225.87 0 0 1-.316 6.729z"/><path fill="#EAA286" d="M748.627 440.929c-.011-3.605-3.301 5.224-6.159 6.763-.383-.443-.854-21.251-1.439-21.547-4.473-2.26-8.807-35.345-13.007-37.967-2.005-4.53-4.254 1.223-6.673-3.167-3.358 6.18-7.267 52.91-12.122 58.286-1.779 1.97-4.159 4.643-6.868 6.472.542.311 1.075.628 1.624.934 4.601 2.565 9.347 4.854 14.192 6.912 3.271 8.278 5.733 16.884 6.999 26.016 6.195 44.708-8.478 91.675-29.842 130.533a209.7 209.7 0 0 1-5.817 9.925c-19.767 26.358-45.021 48.581-73.807 64.629-38.58 21.509-83.465 30.098-127.234 24.228-13.767-1.847-27.398-5.042-40.491-9.645-18.102-7.635-35.147-17.827-50.555-30.004-9.815-7.759-18.881-16.425-27.134-25.814-18.262-24.388-37.879-53.446-45.277-82.901-9.489-37.78-14.371-77.107-14.833-115.946-.093-7.791 10.144-138.133 10.265-145.922-8.512 4.774-22.421 73.637-27.122 132.495-1.103 21.198-.564 42.473 1.684 63.557 5.174 48.483 19.027 98.231 46.167 139.19 42.313 63.855 118.044 104.038 195.042 97.581 40.068-3.36 77.403-19.428 108.822-44.242 23.719-18.732 42.803-42.069 57.745-67.965 13.501-19.68 24.299-41.21 32.36-63.655 5.75-16.012 10.168-33.116 12.77-49.928 2.993-19.355.775-49.355.71-68.818zm-12.694 22.05c.3-.097.595-.217.889-.358.027 1.683.064 3.365.11 5.046-.305-1.567-.641-3.13-.999-4.688z"/><path fill="#EAA286" d="M678.68 433.08c-9.774-15.045-19.609-30.052-29.566-44.98-7.11-10.662-14.384-21.228-22.096-31.459 11.498 29.289 27.721 55.927 51.662 76.439z"/><path d="M392.794 745.51c-1.927 40.844 8.875 84.423 39.787 113.027 32.215 29.81 82.676 35.645 122.8 19.674 55.068-21.92 80.453-87.078 66.527-142.841-.791-3.165-4.364-3.184-6.636-1.782-3.557 2.193-6.347 7.245-5.849 11.479 2.521 21.422 3.841 42.018-2.739 62.912-5.264 16.714-15.396 31.667-30.08 42.398-34.125 24.938-86.067 25.364-121.603 3.343-37.931-23.508-52.357-70.793-51.274-113.244.064-2.523-2.124-4.441-4.573-3.698-3.353 1.018-6.198 5.313-6.36 8.732z"/><path d="M435.667 730.863c-53.565.241-114.384.182-149.82 47.674-15.694 21.027-23.991 46.08-28.868 71.6-4.875 25.501-7.188 52.688-4.297 78.453.603 5.367 5.385-1.215 5.811-3.399 8.803-45.106 5.724-95.599 33.224-134.971 31.101-44.532 93.754-37.504 140.414-47.521 3.774-.807 9.103-11.862 3.536-11.836z"/><path fill="#EAA286" d="M601.371 321.993c-.574-4.989-4.597-4.915-7.615-2.711-.406-5.945-6.111-5.642-9.807-1.034 32.851-40.957-29.322 90.429-18.318 51.999-2.027 7.08-3.769 4.021-5.49 11.179-6.53-9.103-13.197-7.899-19.861-16.896-10.531-14.22-20.688-28.826-31.566-42.768-12.062-15.461-26.174-39.507-37.706-55.181l2.195-2.194c2.509-2.512 4.322-6.135 4.047-9.767-.269-3.538-3.546-5.656-6.673-3.4a5488.92 5488.92 0 0 0-6.435 4.65 297.098 297.098 0 0 0-2.984-5.945c2.752-3.291 5.278-6.732 7.27-10.441 1.505-2.806 2.902-8.792-.811-10.685-3.297-1.68-6.607 1.684-8.408 4.434.485-.997.974-1.993 1.446-2.999 1.278-2.729 2.497-6.82.353-9.496-1.954-2.441-5.578-1.036-7.344.87-30.494 32.886-56.746 70.52-75 111.629-4.21 6.185-8.249 12.477-12.024 18.928-8.258-14.037-16.192-28.344-26.709-40.488-1.427-3.115-2.89-6.211-4.445-9.264-1.674-3.286-4.059-2.958-6.173-1.16-3.571-1.586-7.169 5.725-5.208 8.719.165.251.323.506.487.758.002.045.001.095.005.139 1.584 17.68 6.018 35.022 13.828 50.996 7.182 14.692 17.986 29.875 34.046 35.49 3.805 1.331 6.823-2.336 8.336-5.603 1.914-1.801 3.465-4.422 3.917-5.959 2.24-7.617 5.054-14.928 8.337-21.977 4.981-9.333 10.707-18.269 17.073-26.781 6.235-8.338 13.143-16.111 20.529-23.441 6.282-6.235 13.388-11.539 19.953-17.415 14.021 27.186 31.857 52.342 52.479 74.963a389.761 389.761 0 0 0 9.964 13.17c9.683 14.559 21.243 27.911 35.625 37.213a194.245 194.245 0 0 0 13.366 10.242c1.756 1.225 3.758.311 5.447-1.168.8.264 1.6.53 2.413.771 3.735 1.107 6.887-2.035 8.431-5.198 7.819-16.028 13.178-33.375 17.342-50.673 4.144-17.212 7.731-35.738 5.688-53.506zm-218.709 37.48a172.47 172.47 0 0 0 2.608-3.124 202.144 202.144 0 0 0-2.606 5.479c.028-.477.061-.951.071-1.438a4.628 4.628 0 0 0-.073-.917zm133.036-8.328a171.787 171.787 0 0 1-2.188-3.564c.789 1.089 1.577 2.177 2.365 3.268-.06.098-.12.195-.177.296zM500.5 332.311c-.534-.99-1.062-1.978-1.584-2.96-.633-1.195-1.25-2.397-1.872-3.597a356.298 356.298 0 0 1 3.829 4.851 13.338 13.338 0 0 0-.373 1.706z"/><path d="M580.441 747.337c25.38-2.001 52.532-.752 76.654 8.006 21.723 7.89 38.305 23.22 51.974 41.405 14.57 19.384 23.156 41.762 31.251 64.381 8.24 23.021 14.896 46.888 19.57 70.878 1.418 7.272 11.208-4.983 10.501-9.662-7.738-51.125-16.718-102.612-48.497-145.068-14.004-18.71-34.044-33.109-56.247-40.271-28.372-9.149-57.044-3.964-84.323 6.282-1.031.391-2.72 4.192-.883 4.049z"/><path fill="#219DF9" d="M714.911 144.28c-18.214-17.296-36.882-44.472-57.587-58.701C634.66 70.003 609.803 57.8 581.97 55.902c-26.16-1.784-51.587 6.815-75.25 17.053-13.372 5.786-26.905 11.792-39.612 18.923-6.052 3.396-12.412 7.538-19.506 8.115-4.124.335-8.282.304-12.413.55-7.355.437-14.616 1.72-21.976 2.01-9.919.389-19.302.737-28.271 3.306-.451-.289-1.126-.223-2.073.408l-.694.465c-3.929 1.351-7.78 3.168-11.561 5.684-1.055.702-1.875 2.423-2.18 4.028-32.075 24.05-61.09 56.77-55.89 99.405.249 2.042 5.219 2.659 3.458 1.762-3.458-1.762 36.21-43.315 56.937-49.601-5.711 28.295-1.186 56.817-1.394 85.777-.027 3.737 63.384-82.292 112.965-103.517 7.134 21.665 61.528 118.078 79.923 132.952 1.942 1.571 23.367-69.315 24.615-98.587 90.839 13.542 196.969 261.1 208.205 291.079 1.47 3.923 39.36-215.861-82.342-331.434z"/><path d="M370.578 352.857c-5.581-11.731-10.467-23.837-14.878-36.05-3.578-9.906-6.737-19.994-8.969-30.293a86.072 86.072 0 0 1-1.784-13.17c-.195-3.328.193-6.881.732-8.582.848-2.677 1.029-7.992-2.978-8.18-3.94-.185-6.96 4.433-7.968 7.675-2.727 8.77-1.941 18.144-.33 27.044 2.023 11.168 5.378 22.043 9.168 32.725 4.701 13.25 10.11 26.35 16.248 39.006 3.711 7.651 13.39-4.643 10.759-10.175zm309.618 411.354c18.055-8.564 35.271-18.729 53.184-27.564l-6.474-3.299c4.007 21.673 3.685 43.91 7.831 65.571.466 2.431 2.086 5.596 5.23 4.229 31.033-13.478 55.23-37.604 80.873-58.958l-7.562.896c17.396 22.265 24.953 50.652 35.871 76.296 3.838 9.014 15.302-5.264 12.506-11.83-11.332-26.614-19.463-55.913-37.66-78.935-2.144-2.712-5.546-.797-7.562.896-23.495 19.727-45.863 42.887-74.358 55.423l5.23 4.229c-4.333-22.083-4.357-44.721-8.837-66.799-.633-3.124-4.085-2.71-6.146-1.651-18.024 9.258-35.151 20.107-53.027 29.627-4.881 2.602-6.962 15.598.901 11.869z"/><path d="M860.973 813.783c1.741-49.644 1.446-99.386 2.536-149.053 1.015-46.245 1.932-92.491 2.309-138.746.227-27.693 1.298-55.625-.479-83.277-1.499-23.345-5.519-46.512-11.067-69.218-11.607-47.499-31.091-92.96-55.606-135.185-23.856-41.09-53.299-79.334-88.349-111.502-30.702-28.179-66.55-52.306-106.91-63.941-25.55-7.366-51.88-8.946-77.93-3.087-30.978 6.967-59.311 23.856-85.269 41.542-3.572 2.434-6.122 6.958-5.789 11.36.292 3.855 3.606 5.622 6.917 3.524 23.913-15.15 48.346-30.038 75.813-37.748 23.461-6.585 47.839-5.99 71.432-.458 40.018 9.382 76.352 33.021 106.784 59.948 35.509 31.417 65.073 69.436 89.398 110.008 25.055 41.788 44.331 87.308 56.371 134.535 5.71 22.396 9.473 45.271 11.052 68.333 1.893 27.627.711 55.591.498 83.264-.355 46.238-1.373 92.461-2.218 138.691-.89 48.654-2.461 97.522-.691 146.164.093 2.556 2.059 4.584 4.683 3.787 3.405-1.034 6.392-5.449 6.515-8.941z"/><path d="M446.525 105.562c-22.384-7.574-45.493-10.656-68.883-6.501-21.31 3.785-40.752 14.063-57.469 27.568-39.775 32.132-63.533 81.706-80.802 128.672-21.439 58.307-33.766 119.97-42.425 181.348-8.732 61.898-13.229 124.381-14.563 186.863-1.003 46.98-.606 94.325 4.189 141.113 1.226 11.967 2.723 24.008 5.538 35.719.977 4.064 5.559 2.279 7.618.493 20.823-18.062 41.547-36.24 62.315-54.366l-6.483.769c8.608 12.401 17.462 24.639 25.994 37.093 3.661 5.342 11.889-6.767 8.585-11.59-8.595-12.544-16.873-25.31-25.392-37.907-1.654-2.446-4.903-.585-6.483.769-20.858 17.878-41.762 35.704-62.565 53.646l7.618.493a132.83 132.83 0 0 1-.804-3.631c-.323-1.557.27 1.427-.131-.662a181.17 181.17 0 0 1-.449-2.444 258.249 258.249 0 0 1-1.529-9.817c-1.123-8.109-1.948-16.259-2.648-24.414-1.86-21.669-2.734-43.423-3.171-65.163-1.163-57.884 1.022-114.614 6.004-172.382 5.429-62.946 14.475-126.914 29.615-187.243 7.15-28.491 15.804-56.662 26.812-83.91.079-.195 1.127-2.75.349-.862.315-.766.635-1.529.955-2.293a442.288 442.288 0 0 1 6.245-14.189 376.944 376.944 0 0 1 8.749-17.729 317.366 317.366 0 0 1 9.371-16.569c.184-.304 1.506-2.445.297-.494.39-.629.785-1.255 1.179-1.881a281.514 281.514 0 0 1 2.386-3.707 254.383 254.383 0 0 1 5.299-7.771 222.148 222.148 0 0 1 10.691-13.896 197.695 197.695 0 0 1 2.666-3.122c1.509-1.736-1.199 1.342.329-.367.45-.503.905-1.001 1.36-1.5a178.84 178.84 0 0 1 6.009-6.246 157.946 157.946 0 0 1 12.084-10.812c.496-.4.997-.794 1.498-1.188-1.489 1.17.193-.138.419-.31a132.953 132.953 0 0 1 9.808-6.775c16.823-10.588 36.495-16.564 56.903-16.909 15.39-.259 30.787 2.206 45.492 6.667 6.595 2 13.652-12.455 7.42-14.563zm9.541 114.614c4.696 34.574 20.183 66.958 38.171 96.48 16.559 27.175 36.57 53.749 60.626 74.768 5.286 4.619 13.024-7.896 8.748-11.81-22.962-21.014-42.217-46.088-58.851-72.305-17.894-28.204-33.723-60.057-38.434-93.461-1.218-8.647-11.021.72-10.26 6.328z"/><path d="M570.385 382.687c8.492-25.002 12.287-51.689 24.077-75.51 1.305-2.636 2.741-8.091-.748-9.869-3.437-1.751-7.136 2.552-8.424 5.195-12.341 25.31-16.486 53.107-24.944 79.721-.781 2.456-.942 7.331 2.73 7.503 3.672.172 6.303-4.079 7.309-7.04z"/><path d="M581.335 309.834c47.67 44.396 80.859 101.659 113.645 157.246 2.179 3.695 7.321-.543 8.783-2.518 2.428-3.281 3.738-7.799 1.602-11.501-16.216-28.11-32.588-56.096-50.945-82.881-18.409-26.861-38.579-53.873-65.152-73.183-4.704-3.417-11.829 9.209-7.933 12.837z"/><path d="M704.707 462.381c6.056-14.134 10.708-28.695 14.621-43.554 3.521-13.368 7.662-26.746 10.735-40.209.555-2.429 1.231-6.261-1.587-7.696-3.314-1.689-7.18 2.467-8.33 5.137-5.292 12.283-7.832 25.815-11.113 38.737-3.689 14.532-7.619 29.098-13.396 42.963-1.119 2.686-2.827 7.942.74 9.759 3.311 1.688 7.185-2.464 8.33-5.137zM464.777 200.13c-26.934 17.309-46.24 44.436-62.448 71.482-17.099 28.532-30.54 59.157-42.421 90.173-.982 2.563-.881 7.733 2.879 7.91 3.969.186 6.503-4.326 7.704-7.421 11.121-28.656 23.864-56.82 39.289-83.433 14.233-24.559 31.821-49.708 56.009-65.374 3.23-2.092 5.48-6.302 5.187-10.179-.262-3.436-3.239-5.06-6.199-3.158zm-135.266 84.052c-19.026 47.525-37.961 95.111-59.559 141.544-22.425 48.212-47.936 94.921-77.076 139.412-1.837 2.806-3.993 7.593-1.492 10.716 2.384 2.977 6.663-.025 8.184-2.347 29.964-45.749 56.327-93.618 79.305-143.236 22.106-47.737 41.338-96.745 60.739-145.623.969-2.44.818-7.381-2.748-7.548-3.812-.18-6.173 4.134-7.353 7.082z"/><path d="M715.28 379.314c11.43 23.077 21.232 47.056 31.461 70.677 14.52 33.531 28.865 67.142 42.848 100.9 5.921 14.296 12.287 28.583 17.199 43.271 1.295 3.872 5.51 2.646 7.778.503 2.819-2.663 4.975-7.444 3.665-11.329-8.077-23.964-18.95-47.2-28.863-70.434a7416.444 7416.444 0 0 0-43.741-100.513c-6.41-14.429-12.635-29.014-19.714-43.132-3.771-7.521-13.321 4.629-10.633 10.057z"/><path d="M748.11 431.554c1.549 57.505-6.34 118.539-26.303 165.423-28.33 66.538-83.031 115.229-150.364 130.574-75.662 17.244-158.803-4.827-212.683-65.289-54.469-61.122-68.02-198.327-61.067-279.569-3.487-2.11-8.069 32.765-11.771 31.278-1.238 9.833-1.208 33.986-1.928 43.837-5.892 80.877 10.956 165.174 63.944 226.021 52.844 60.688 134.307 83.747 209.769 70.539 70.107-12.273 128.363-59.995 163.333-125.073 28.627-53.278 42.319-124.637 40.59-192.196-4.495-1.883-8.984-3.784-13.52-5.545z"/><path fill="#FF617F" d="M556.318 593.777c-9.745-5.318-19.763-8.592-30.196-11.143-2.059-.502-4.231 2.979-4.81 6.203-.334-.01-.669-.022-1.003-.031a231.73 231.73 0 0 0-12.422-.021c-2.242-2.652-4.858-4.633-8.155-5.635-4.543-1.379-9.608.777-13.659 3.171-8.614 5.093-15.769 13.037-23.66 19.566-.525.127-1.095.618-1.624 1.308a67.517 67.517 0 0 1-3.958 2.916c-2.046 1.385-2.968 8.173.383 6.21a61.584 61.584 0 0 0 2.351-1.455l.064.171a8.054 8.054 0 0 0-.261.4 10.86 10.86 0 0 0-1.417 7.51c2.411 14.268 8.416 16.831 18.335 24.961 9.139 7.491 20.703 9.879 31.489 8.864 7.877-.742 15.599-3.292 22.698-7.38 6.415 1.682 13.081-.288 18.983-6.326 8.915-9.124 13.753-14.096 13.182-28.273 2.65-.834-2.887-19.145-6.32-21.016zm-80.661 46.688a68.21 68.21 0 0 0 6.15 5.72 36.967 36.967 0 0 1-6.15-5.72z"/><path d="M563.965 610.034c-.968 9.532-4.275 18.112-10.313 24.958-7.65 8.671-18.088 12.948-28.183 14.884-20.933 4.014-46.256-3.161-60.09-24.091-3.804-5.755-6.27-12.425-7.564-19.491-1.671-.274-3.344-.545-5.017-.812 4.948 53.469 68.423 68.294 99.787 38.245 8.884-8.513 14.364-20.684 15.687-34.032-1.434.13-2.87.243-4.307.339z"/><path d="M436.862 604.314c12.921 12.787 25.87.816 36.779-9.351 5.456-5.086 11.197-10.578 18.093-12.113 8.781-1.956 15.062 6.529 20.531 13.511 2.083 2.659 4.908-3.678 3.63-6.037-4.412-8.143-11.783-15.179-20.019-15.224-7.038-.04-13.488 5.045-18.981 9.931-11.125 9.893-23.566 25.713-37.469 13.084-1.826-1.659-4.409 4.374-2.564 6.199z"/><path d="M514.805 595.909c5.933-6.977 13.003-12.506 21.479-10.398 6.528 1.624 12.199 7.62 17.217 12.646 10.346 10.366 22.424 21.444 35.21 9.509 1.222-1.142 2.147-2.932 2.026-4.898-.104-1.676-1.26-2.408-2.422-1.521-6.039 4.616-11.893 5.317-18.306 1.406-6.265-3.823-11.456-10.064-16.965-15.259-5.211-4.915-11.01-9.291-17.709-9.89-8.635-.772-16.233 6.115-21.979 13.271-1.792 2.233-1.458 8.552 1.449 5.134zm-25.433 19.111c8.008 6.422 17.396 13.275 28.206 11.708 8.163-1.184 14.963-8.034 21.512-12.47 2.476-1.675 3.373-9.09-.492-6.492-5.903 3.968-11.534 9.412-18.513 11.378-9.784 2.756-20.149-5.328-27.285-10.85-2.353-1.821-5.927 4.72-3.428 6.726z"/><path d="M534.462 618.553c10.133.242 22.101 1.376 31.086-4.313 1.807-1.143 4.068-8.185.218-6.78-9.539 3.476-18.946 3.576-28.995 3.758-3.041.053-5.879 7.248-2.309 7.335zm-37.831-10.163c-5.258-.728-10.782-.01-16.092-.285-6.113-.317-11.452-2.177-17.335-3.362-3.028-.612-5.173 5.439-2.956 7.212 4.128 3.301 11.32 3.631 16.371 3.916 6.021.339 12.683.436 18.571-1.03 2.097-.524 4.639-6.007 1.441-6.451z"/><path fill="#EAA286" d="M596.47 587.794c2.884 2.342 5.521 4.573 7.304 7.924 1.838 3.455 2.388 7.304 3.155 11.079.382 1.873 2.595 1.816 3.86 1.037 2.23-1.377 3.441-4.126 3.4-6.677-.126-7.989-4.956-21.127-14.868-20.317-2.796.227-5.312 4.957-2.851 6.954zm-163.701-3.403c-2.884 2.342-5.521 4.572-7.304 7.924-1.838 3.454-2.388 7.303-3.156 11.079-.381 1.873-2.594 1.816-3.859 1.036-2.231-1.376-3.441-4.126-3.401-6.676.126-7.99 4.956-21.128 14.868-20.317 2.796.227 5.312 4.956 2.852 6.954z"/><ellipse fill="#FFF" cx="401.793" cy="460.532" rx="79.868" ry="79.568"/><ellipse fill="#FFF" cx="633.225" cy="460.532" rx="79.87" ry="79.568"/><path fill="#FFBF1F" d="M759.289 417.23h-45.244c-2.587 0-3.186-3.938-4.444-6.099-6.037-10.357-14.427-19.151-23.99-26.307-39.084-29.249-94.735-19.52-124.533 17.884-7.802 9.793-13.357 21.356-16.555 33.448-8.461-2.27-17.443-2.757-26.14-2.907-8.799-.15-18.294-.004-26.753 2.825-8.763-35.832-38.835-62.749-75.387-67.864-37.827-5.294-74.975 15.792-92.523 49.02h-41.622c-7.311 0-12.978 4.103-16.498 10.298-4.133 7.276-2.16 16.728 4.139 21.97 4.271 3.554 9.375 3.505 14.564 3.505h29.338c-2.792 45.442 28.506 86.355 73.63 94.743 52.901 9.833 102.595-31.658 106.61-84.243 8.625-4.532 19.029-3.614 28.528-2.916 5.019.369 10.028 1.042 14.937 2.155 2.733.622 4.19.515 4.373 3.391.241 3.809.835 7.586 1.569 11.328 5.09 25.932 22.147 48.186 45.131 60.925 42.758 23.7 96.348 6.163 121.021-34.557 9.211-15.202 13.385-33.138 12.667-50.827h34.072c8.905 0 15.643-5.301 18.52-13.64 3.722-10.782-4.424-21.609-15.41-22.132zM632.827 519.965c-23.86-.258-45.762-13.384-56.828-34.623-11.132-21.365-8.184-47.764 6.803-66.425 15.394-19.167 42.142-26.358 65.469-19.951 22.516 6.184 39.682 24.979 44.896 47.53 8.826 38.171-22.462 73.06-60.34 73.469zm-228.104 0c-23.862-.258-45.762-13.384-56.828-34.623-11.267-21.624-8.135-48.026 7.19-66.76 15.451-18.886 41.899-25.983 65.081-19.616 22.516 6.184 39.681 24.979 44.895 47.53 8.827 38.171-22.46 73.06-60.338 73.469z"/><path d="M760.43 413.416h-43.416c-3.542 0-3.568-2.292-4.924-5.016-1.361-2.732-3.214-5.257-4.995-7.725-3.663-5.074-8.043-9.602-12.678-13.787-15.923-14.38-36.194-22.339-57.596-22.97-44.316-1.306-83.156 30.317-94.661 72.334l4.09-3.798c-8.776-2.216-17.702-2.837-26.727-3.02-9.271-.188-18.49.206-27.399 2.977.664.311 1.329.621 1.995.931-9.221-36.42-39.682-63.458-76.735-68.947-39.386-5.834-77.316 17.905-95.639 51.914l3.116-2.893h-41.622c-9.673 0-18.445 7.807-21.21 16.857-2.97 9.72.116 21.012 10.034 25.252 5.066 2.167 11.634 1.293 16.97 1.293h23.47l-1.437-2.742c-2.473 46.118 28.762 89.279 75.067 97.484 46.617 8.26 90.501-22.505 105.593-66.036 2.577-7.433 4.073-15.268 4.733-23.095l-3.071 4.735c6.692-3.235 13.76-3.529 21.061-3.218 7.9.336 15.779 1.186 23.479 3.015 2.202.522 1.77 6.806 2.063 8.714.469 3.045 1.099 6.062 1.831 9.055 1.507 6.166 3.838 12.184 6.72 17.835 11.354 22.27 31.487 39.513 55.465 46.769 45.984 13.915 95.958-13.886 113.706-57.271 5.312-12.982 7.45-27.048 7.012-41.026l-3.757 5.782h34.072c7.863 0 14.227-4.237 18.634-10.498 9.058-12.867 3.474-31.42-13.244-32.905-2.815-.25-5.659 7.329-2.28 7.629 13.38 1.188 20.363 17.364 8.296 25.748-5.274 3.664-13.141 2.397-19.146 2.397h-24.051c-2.41 0-3.816 3.879-3.757 5.781.908 28.946-11.775 55.258-34.929 72.549-18.977 14.17-43.339 20.145-66.711 16.741-25.397-3.7-47.817-20.153-61.228-41.665-7.774-12.471-10.157-25.417-12.483-39.635-.761-4.648-7.582-4.483-11.214-5.106-7.545-1.294-15.46-1.789-23.11-1.623-4.761.104-13.304.807-16.769 4.607-1.717 1.882-1.767 4.2-2.008 6.594-.344 3.43-.945 6.843-1.718 10.202-2.653 11.533-7.889 22.22-14.825 31.762-13.894 19.114-35.871 31.962-59.179 35.244-48.832 6.874-93.916-31.235-98.831-79.437-.449-4.401-.505-8.858-.269-13.273.056-1.052.036-2.741-1.437-2.741-10.297 0-20.595.012-30.892-.002-4.854-.007-9.308-.607-13.027-3.981-3.685-3.344-5.232-8.509-4.611-13.336 1.485-11.547 15.748-10.825 24-10.825h32.329c1.494 0 2.52-1.789 3.115-2.893 17.748-32.944 55.341-51.756 92.28-45.679 34.51 5.678 62.659 32.729 71.166 66.332.254 1.002 1.127 1.2 1.995.931 7.912-2.462 16.112-2.759 24.338-2.697 9.183.068 18.388.564 27.321 2.819 2.065.521 3.636-2.137 4.09-3.798 11.548-42.17 52.847-68.576 95.925-63.948 21.117 2.268 40.233 13.151 54.503 28.62 3.862 4.188 7.755 9.027 10.306 14.149.829 1.665 1.337 3.32 2.443 4.843 1.374 1.886 4.574 1.32 6.498 1.32h41.588c2.884 0 5.569-7.629 2.282-7.629z"/><path d="M633.967 516.15c-26.471-.59-50.482-17.067-59.187-42.325-9.293-26.966 4.023-56.43 29.694-68.047 23.663-10.708 52.056-4.768 70.044 13.613 17.435 17.817 23.229 45.936 10.411 67.928-10.445 17.919-30.533 28.375-50.962 28.831-2.892.064-5.535 7.702-2.279 7.629 47.332-1.057 80.744-52.923 58.128-95.712-11.483-21.727-33.36-35.085-57.942-35.201-24.695-.116-46.593 14.139-57.887 35.744-10.502 20.092-9.497 44.703 2.072 64.024 11.604 19.376 33.362 30.649 55.629 31.146 2.869.063 5.594-7.556 2.279-7.63zm-228.104 0c-26.524-.592-50.518-17.116-59.225-42.416-9.392-27.289 4.553-56.873 30.586-68.272 24.01-10.514 52.469-3.94 70.18 14.988 17.096 18.271 22.031 46.294 8.717 68.016-10.583 17.268-30.31 27.238-50.258 27.684-2.892.064-5.536 7.702-2.28 7.629 47.332-1.057 80.742-52.923 58.127-95.712-11.521-21.797-33.513-35.181-58.181-35.193-25.017-.012-47.061 14.797-58.135 36.847-10.25 20.409-8.75 45.002 3.365 64.189 11.771 18.644 33.072 29.385 54.823 29.869 2.871.064 5.596-7.555 2.281-7.629z"/><path d="M584.004 455.289c2.287 1.925 4.929 2.241 7.596 1.819 13.298-13.984 28.621-23.081 45.22-12.834.431.265.856.551 1.281.834 7.873 4.814 14.186-.36 18.163-7.567 1.891-3.428 5.61 4.341 4.131 7.338-2.299 4.653-5.76 7.253-9.742 8.563.369.175.735.363 1.112.517 2.256.921 4.55.954 6.854.317 3.367-.931 5.503-4.615 8.46-6.437 3.163-1.951 5.492 5.946 4.159 8.856-3.126 6.823-10.527 9.503-16.134 8.139-1.134-.276-2.24-.708-3.327-1.24-.366.066-.824-.041-1.413-.436-6.313-4.227-12.818-6.762-19.936-6.145-5.327.465-10.711 2.108-15.931 3.519-9.324 2.52-23.291 12.549-31.529 1.585-1.414-1.883-2.404-9.72 1.036-6.828zm-137.447 0c-2.312 1.925-4.981 2.241-7.675 1.819-13.44-13.984-28.926-23.081-45.701-12.834-.435.265-.864.551-1.293.834-7.958 4.814-14.336-.36-18.355-7.567-1.911-3.428-5.671 4.341-4.175 7.338 2.323 4.653 5.82 7.253 9.845 8.563-.374.175-.744.363-1.125.517-2.28.921-4.598.954-6.926.317-3.404-.931-5.563-4.615-8.55-6.437-3.197-1.951-5.551 5.946-4.204 8.856 3.159 6.823 10.639 9.503 16.305 8.139 1.145-.276 2.264-.708 3.363-1.24.369.066.832-.041 1.428-.436 6.379-4.227 12.953-6.762 20.146-6.145 5.384.465 10.825 2.108 16.101 3.519 9.422 2.52 23.538 12.549 31.864 1.585 1.427-1.883 2.427-9.72-1.048-6.828z"/></svg>