<svg xmlns="http://www.w3.org/2000/svg" xmlns:xlink="http://www.w3.org/1999/xlink" width="1030" height="1030" viewBox="0 0 1030 1030"><defs><path id="a" d="M1020.379 512.903c0 279.115-226.266 505.376-505.379 505.376-279.111 0-505.377-226.264-505.377-505.376C9.623 233.79 235.888 7.524 515 7.524c279.113 0 505.379 226.266 505.379 505.379z"/></defs><use xlink:href="#a" overflow="visible" fill="#FFBF1F"/><clipPath id="b"><use xlink:href="#a" overflow="visible"/></clipPath><g clip-path="url(#b)"><path fill="#FFBF1F" d="M1021.414 515.116c0 279.115-226.266 505.376-505.379 505.376-279.112 0-505.377-226.264-505.377-505.377S236.924 9.737 516.035 9.737c279.113 0 505.379 226.264 505.379 505.379z"/><path fill="#FC9E17" d="M64.591 299.241c65.699-60.767 147.473-101.363 226.168-142.394 40.814-21.281 80.746-43.73 120.539-66.854 43.205-25.11 87.469-49.598 136.053-62.561-.955-12.573-1.91-25.146-2.863-37.722C469.49 60.862 382.009 116.701 296.63 174.293c-43.967 29.658-87.432 59.996-129.213 92.682-20.033 15.672-39.123 32.311-60.043 46.828-21.764 15.1-44.412 28.884-66.553 43.409-20.463 13.421-40.42 27.7-58.93 43.736-7.094 6.145-11.697 17.171-10.986 26.521.547 7.209 5.93 13.974 13.848 11.2 98.168-34.394 184.332-95.652 268.734-154.941 42.164-29.617 84.252-59.421 128.115-86.495 19.998-12.341 40.242-24.097 59.857-37.073 21.045-13.919 41.816-28.239 62.965-42.001 37.358-24.313 76.481-48.122 120.034-59.315l-6.715-33.351c-3.625 4.497-11.992 11.267-18.965 15.919-10 6.67-20.648 12.364-31.156 18.178-23.027 12.742-45.092 27.219-67.553 40.936-51.305 31.332-102.533 62.797-153.852 94.112-51.111 31.188-102.326 62.211-153.791 92.816-45.84 27.263-92.238 53.613-137.738 81.449-57.197 34.991-113.604 73.15-161.328 120.578-6.828 6.784-11.732 16.688-10.986 26.52.559 7.365 5.898 13.781 13.85 11.199 51.945-16.86 99.75-43.609 147.504-69.638 50.273-27.404 102.162-51.78 153.584-76.934 106.725-52.203 213.545-104.2 320.028-156.898 43.588-21.572 87.408-42.348 128.738-68.076 36.969-23.018 73.674-48.996 115.463-62.538-.955-12.575-1.908-25.146-2.865-37.721-32.514 34.457-76.607 55.146-117.219 78.288-50.043 28.516-97.459 62.321-145.696 93.778-48.672 31.741-97.557 62.7-143.461 98.404-36.26 28.201-71.637 58.477-113.41 78.263-71.922 34.063-163.473 55.526-201.33 135.063-3.076 6.463-5.365 14.316-2.91 21.402 1.744 5.039 7.496 9.094 12.934 6.588C147.669 521.08 241.101 462.85 335.033 405.595c46.518-28.354 93.289-56.325 141.229-82.228 49.124-26.541 100.223-49.029 149.866-74.543 51.182-26.305 101.262-54.686 151.102-83.427-.984-12.997-1.971-25.993-2.959-38.989-89.506 66.279-184.818 124.035-280.237 181.279-95.316 57.186-189.701 115.122-280.916 178.699-64.773 45.146-142.418 71.595-192.24 135.972-8.809 11.383-11.102 42.221 10.986 31.381 208.225-102.16 408.939-218.58 611.709-330.955 81.107-44.949 162.6-89.213 245.033-131.684l-2.959-38.989C684.77 267.835 489.943 393.839 300.087 526.816 223.16 580.695 147.083 635.789 71.74 691.859c-9.188 6.836-16.062 17.881-15.16 29.76.734 9.699 9.59 15.234 18.119 9.229 43.633-30.723 91.014-55.527 138.016-80.598 48.867-26.064 96.422-53.967 143.455-83.207 97.824-60.818 193.596-125.835 295.819-179.223 79.945-41.755 155.398-91.653 236.617-131.035l-7.131-35.752C726.443 360.66 545.963 467.85 368.333 575.666c-93.445 56.721-186.838 113.709-276.602 176.166-9.32 6.484-16.045 18.146-15.162 29.758.801 10.539 9.316 14.158 18.121 9.23 202.516-113.371 408.092-221.234 609.108-337.292 82.609-47.694 164.387-96.848 244.781-148.196-3.662-10.461-7.324-20.92-10.984-31.381-4.996 7.511-10.377 14.716-16.098 21.688-5.041 6.146-10.836 12.267-18.375 19.708-14.123 13.939-29.66 26.809-45.09 38.273-35.396 26.297-73.572 48.73-112.08 70.107-37.449 20.789-75.582 40.312-113.117 60.945-42.605 23.422-83.598 49.658-124.551 75.828-65.34 41.752-130.41 84.795-198.977 121.15-60.084 31.857-124.109 59.162-173.205 107.688-6.838 6.762-11.73 16.707-10.986 26.521.623 8.164 5.797 12.766 13.852 11.199 27.105-5.268 51.928-18.041 75.645-31.76 24.854-14.379 49.684-28.809 74.537-43.191a10614.59 10614.59 0 0 0 152.23-89.771c49.531-29.773 100.038-57.951 150.668-85.822 50.375-27.73 102.131-51.93 153.662-77.323 67.275-33.148 131.119-72.729 197.158-108.185l-10.984-31.383c-5.504 7.192-9.135 10.836-17.041 18.057-7.75 7.076-15.977 13.312-24.516 19.367-18.807 13.338-38.713 25.094-58.617 36.699-43.184 25.18-85.117 51.793-126.223 80.276-91.951 63.715-180.732 131.844-272.467 195.85-62.605 43.68-127.018 85.396-195.645 119.062l2.959 38.99c48.338-27.512 98.725-51.109 148.234-76.383 25.086-12.807 49.887-26.168 74.098-40.572 24.189-14.391 46.895-30.896 69.809-47.201 23.254-16.545 46.578-32.992 70.564-48.465 23.51-15.168 48.086-28.535 72.547-42.078 48.809-27.02 97.928-53.48 146.338-81.211 61.396-35.169 121.518-72.685 178.059-115.306-3.661-10.458-7.323-20.918-10.983-31.378-59.982 69.826-146.119 119.632-225.498 166.94-91.051 54.268-181.006 110.705-269.409 169.203-41.195 27.26-81.383 55.869-121.203 85.092-39.395 28.914-78.959 57.732-121.234 82.348-9.594 5.584-15.99 18.82-15.16 29.758.842 11.066 9.201 13.475 18.119 9.23 100.961-48.053 196.105-107.057 291.247-165.518 47.797-29.369 95.674-58.625 144.385-86.459 47.674-27.238 96.568-52.016 145.609-76.67 75.025-37.713 150.203-76.055 218.389-125.427-2.375-11.916-4.754-23.834-7.131-35.751-33.609 33.213-76.088 55.599-117.895 76.72a4044.129 4044.129 0 0 0-133.637 70.689c-99.297 54.922-199.127 109.008-295.387 169.18-39.695 24.812-79.178 50.248-116.168 78.982-32.521 25.262-64.553 53.299-102.398 70.43-8.953 4.055-15.02 11.32-17.994 20.766-1.854 5.883-3.031 24.236 8.273 22.725 45.449-6.074 87.678-22.926 128.725-42.799 43.947-21.275 85.809-46.65 127.571-71.857 92.4-55.779 188.994-103.605 284.82-153.17 30.955-16.012 61.799-31.988 92.061-49.281 29.732-16.99 59.461-33.979 89.189-50.969 9.617-5.496 15.986-18.891 15.16-29.758-.803-10.576-9.309-14.111-18.121-9.23-104.188 57.711-206.854 118.117-308.766 179.746-51.145 30.93-102.088 62.188-152.947 93.584-44.668 27.572-85.542 60.625-129.553 89.188-21.203 13.756-43.262 26.518-67.016 35.328-.436 13.652-.871 27.305-1.309 40.957 171.867-107.34 370.172-160.402 549.303-253.342 47.312-24.547 93.094-52.107 136.094-83.643 9.217-6.758 16.059-17.938 15.16-29.76-.76-9.986-9.484-14.867-18.119-9.229C824.266 727.342 638.676 858.625 439.865 968.32a2775.644 2775.644 0 0 1-59.695 31.969l7.133 35.752c73.348-58.309 162.889-92.967 248.28-129.312 44.957-19.137 89.818-38.742 132.914-61.836 22.314-11.959 44.49-24.162 66.002-37.533 23.461-14.584 46.564-29.75 71.244-42.24l-14.291-26.021c-3.254 5.631 2.838-4.268-.768 1.271-1.092 1.672-2.266 3.291-3.438 4.908-1.197 1.656-2.473 3.256-3.742 4.855-.225.285-4.666 5.496-1.594 2.025-6.42 7.246-13.553 13.844-20.877 20.158-14.344 12.365-31.18 23.664-48.141 34.455-35.631 22.666-73.098 42.25-109.025 64.42-39.857 24.594-76.527 54.361-114.17 82.133-42.475 31.334-86.008 61.828-133.524 85.104-8.504 4.166-17.229 7.842-26.043 11.295.955 12.572 1.908 25.146 2.865 37.721 61.736-53.27 143.856-80.49 220.313-108.334 80.787-29.42 162.883-61.467 226.771-120.973 7.469-6.955 14.518-14.354 21.268-22.004 7.162-8.117 13.979-19.857 10.07-31.133-3.469-10.01-15.477-8.066-21.375-1.381-114.23 129.438-307.65 132.047-443.067 231.178a405.641 405.641 0 0 0-25.289 20.133c-7.098 6.125-11.693 17.186-10.986 26.523.529 6.965 5.992 14.279 13.852 11.197 97.135-38.068 176.129-109.006 260.493-168.248 66.982-47.033 147.926-76.375 205.264-136.568 10.398-10.916 19.23-22.635 26.766-35.684 7.102-12.287 4.061-35.305-14.291-26.02-23.682 11.982-45.959 26.396-68.42 40.475-22.416 14.049-45.568 26.727-68.83 39.299-42.02 22.705-85.975 41.566-129.891 60.242-90.248 38.379-182.229 75.838-259.649 137.379-7.225 5.744-11.672 17.469-10.984 26.521.818 10.785 9.258 13.842 18.119 9.23C584.75 934.371 771.74 804.457 960.965 679.244a11193.585 11193.585 0 0 1 56.154-36.924l-2.959-38.988C850.09 723.65 651.65 780.322 469.115 865.186c-48.148 22.383-95.299 46.992-140.352 75.131-8.23 5.139-13.766 14.979-14.994 24.48-1.041 8.053 3.029 20.43 13.686 16.479 48.654-18.047 91.17-48.994 132.91-79.129 45.078-32.541 91.93-61.576 139.313-90.625 101.836-62.436 204.242-123.967 307.943-183.266a7368.069 7368.069 0 0 1 86.652-48.766l-2.961-38.988c-51.545 29.457-102.699 59.619-155.438 86.898-53.777 27.818-107.557 55.633-161.336 83.449-43.93 22.723-87.301 45.756-129.695 71.246-41.772 25.117-83.297 50.699-126.524 73.277-41.221 21.529-86.023 41.922-132.549 48.141-3.242 14.498-6.48 28.994-9.721 43.49 47.463-21.482 85.908-55.805 127.178-86.811 44.623-33.523 92.953-62.742 140.678-91.576 96.973-58.586 197.006-111.867 295.912-167.064 73.6-41.076 157.643-70.725 218.6-130.963 6.842-6.76 11.732-16.708 10.988-26.521-.729-9.591-9.637-15.373-18.121-9.229-88.588 64.145-188.59 109.527-285.451 159.373-99.426 51.166-193.672 111.625-289.092 169.732-73.314 44.643-147.525 88.053-225.086 124.969l2.959 38.988c49.188-28.641 94.676-62.945 140.545-96.504 46.477-34 94.137-66.234 142.512-97.467 87.035-56.191 175.35-110.045 263.912-163.752 74.689-45.295 149.064-94.294 206.426-161.075 5.668-6.597 9.145-18.316 6.217-26.761-2.553-7.37-11.105-9.217-17.203-4.62-89.627 67.563-188.064 121.632-286.238 175.51-49.328 27.074-98.404 53.916-144.787 85.881-23.354 16.092-46.291 32.777-69.502 49.068-23.09 16.205-47.426 30.418-72.158 43.965-61.564 33.727-125.93 62.055-186.961 96.791-9.621 5.477-15.982 18.906-15.16 29.76.834 10.973 9.219 13.596 18.119 9.23 98.893-48.512 189.043-113.174 277.803-177.871 89.326-65.109 177.654-132.875 271.783-191.008 55.475-34.265 120.367-62.552 160.973-115.647 5.391-7.048 9.266-17.969 6.219-26.763-2.84-8.196-10.652-8.139-17.203-4.62-49.32 26.479-97.432 55.121-146.602 81.871-49.906 27.152-102.033 49.65-152.422 75.84C537.59 563.42 438.343 624.125 337.974 682.961a11372.038 11372.038 0 0 1-97.148 56.283c-30.902 17.713-60.723 37.979-96.279 44.889.955 12.572 1.908 25.146 2.865 37.721 33.756-33.367 76.162-55.738 118.041-77.18 45.688-23.391 90.238-48.039 134.127-74.68 87.6-53.176 171.682-111.859 262.073-160.353 54.957-29.484 110.543-57.98 162.961-91.898 49.711-32.166 98.854-70.181 131.992-120.016 5.023-7.557 9.406-17.564 6.219-26.762-2.701-7.791-10.855-8.675-17.203-4.621-195.874 125.101-399.876 236.655-603.808 347.892-83.529 45.561-167.061 91.117-250.082 137.596.984 12.996 1.971 25.992 2.959 38.988C265.64 671.879 449.087 572.414 622.932 457.926c94.264-62.08 185.904-128.777 269.848-204.379 7.025-6.327 11.707-17.035 10.988-26.521-.836-11.01-9.213-13.55-18.121-9.23-51.248 24.849-100.295 53.832-149.523 82.396-49.637 28.8-100.666 55.019-150.332 83.749-99.657 57.645-195.211 122.086-293.78 181.537-72.496 43.723-150.875 77.516-220.271 126.383l2.959 38.988C259.712 593.164 449.271 461.51 644.357 338.475c80.436-50.727 161.85-99.902 244.248-147.373 9.607-5.535 15.988-18.861 15.162-29.76-.822-10.815-9.252-13.799-18.121-9.229-206.175 106.22-406.213 223.749-609.961 334.453-81.457 44.258-163.553 87.352-246.781 128.186 3.66 10.463 7.322 20.922 10.984 31.383 25.775-33.309 66.303-56.533 103.787-77.648 19.877-11.199 39.891-22.156 59.18-34.355 21.949-13.881 42.736-29.655 64.246-44.204 92.357-62.464 188.979-118.262 284.292-176.013 77.074-46.703 153.373-94.857 225.836-148.517 9.199-6.81 16.062-17.9 15.162-29.76-.793-10.436-9.346-14.29-18.121-9.229-48.863 28.18-97.979 55.93-148.078 81.867-49.613 25.688-100.764 48.179-150.026 74.562-96.332 51.593-187.564 112.021-281.984 166.92-45.945 26.715-92.725 52.251-141.018 74.497l10.023 27.99c.941-1.98 1.92-3.936 2.938-5.881.277-.529 3.928-6.719 1.068-2.127 2.277-3.656 4.846-7.123 7.492-10.518.168-.217 4.738-5.592 1.715-2.197 1.438-1.613 2.949-3.158 4.457-4.703 3.551-3.637 7.363-7.01 11.246-10.285 4.773-4.026 12.174-9.08 19.404-13.62 8.459-5.309 17.279-10.026 26.193-14.511 34.469-17.342 71.242-29.699 106.113-46.215 43.148-20.439 79.836-52.666 117.23-81.818 44.834-34.949 93.141-64.874 140.711-95.896 48.038-31.33 95.284-64.804 145.125-93.205 42.926-24.461 88.732-46.937 123.102-83.359 6.684-7.084 11.75-16.467 10.986-26.521-.559-7.366-5.896-13.776-13.85-11.199-49.908 16.174-93.238 47.806-137.6 74.86-48.914 29.833-102.049 53.269-153.393 78.592-106.676 52.613-213.65 104.618-320.469 156.94-43.396 21.257-86.617 42.541-129.029 65.714-40.359 22.048-80.934 43.731-124.822 57.979.953 12.574 1.908 25.146 2.863 37.722 72.18-71.733 163.498-120.634 250.486-171.761 103.367-60.754 205.49-123.592 307.752-186.184 31.838-19.49 63.288-39.892 95.543-58.647 28.137-16.359 57.43-30.229 78.303-56.136 6.779-8.413 13.279-38.49-6.717-33.35-47.432 12.189-90.469 38.453-131.143 64.924-21.107 13.74-41.834 28.054-62.84 41.949-19.621 12.977-39.934 24.667-59.938 37.012-88.902 54.875-170.566 120.623-260.033 174.661-39.996 24.156-81.582 45.802-125.748 61.277l2.863 37.721c39.104-33.88 85.59-57.931 127.51-87.985 21.174-15.182 40.629-32.546 61.215-48.488 20.629-15.977 41.773-31.276 63.117-46.279 86.076-60.504 176.02-115.53 257.793-181.999 18.233-14.82 35.915-30.312 52.961-46.484 6.924-6.571 11.721-16.852 10.986-26.521-.586-7.715-5.842-13.337-13.852-11.199C503.624-2.338 458.106 22.34 414.132 47.65c-40.959 23.574-81.777 46.956-123.684 68.825-82.873 43.245-167.969 86.252-237.164 150.254-7.75 7.166-13.725 20.591-10.072 31.133 3.692 10.637 15.034 7.252 21.379 1.379z"/></g><path d="M413.636 728.873l-.002.006zm359.833-340.136c-2.725-3.338-6.672-4.377-11.094-2.866-.547.188-1.098.378-1.645.563v-.101l-.35.222c-13.242 4.554-21.789 3.767-30.184 2.07 1.619-5.735 2.861-11.643 3.793-17.629.768-.025 1.568-.299 2.266-.762 3.012-1.998 4.689-6.031 4.613-9.746-.383-18.303-2.564-36.578-7.145-54.018-1.443-7.389-3.633-14.583-6.916-21.031-4.766-11.899-10.883-23.199-18.586-33.597-19.906-26.87-49.504-43.363-79.842-52.188-16.945-4.929-34.338-7.696-51.832-9.007-20.4-1.528-40.959-1.293-61.118 2.697a136.83 136.83 0 0 0-8.246 1.913c-27.656 1.074-55.066 6.889-80.133 20.05a132.232 132.232 0 0 0-6.896 3.9c-12.656 5.136-24.965 11.199-36.598 18.478-15.846 9.916-30.938 22.994-39.682 40.673-6.348 12.831-7.652 27.072-4.549 40.625-2.744 12.702-2.58 25.971.701 38.788-10.279 7.749-20.152 16.195-29.445 25.577-5.533 5.587-9.422 13.806-10.402 21.984-.445 3.701-.229 11.155 3.406 15.605 1.807 2.211 4.229 3.303 7.041 3.181 8.918-.436 18.104-1.604 27.789-3.546-7.771 4.141-14.814 8.454-21.303 13.036-7.684 5.427-13.219 15.143-14.445 25.359-.547 4.56.002 11.342 3.355 15.447 1.783 2.186 4.197 3.342 7.023 3.342 17.434-.079 35.709-1.67 55.531-4.853-22.596 10.472-46.057 21.954-68.805 35.73-8.561 5.183-13.473 16.502-14.543 25.422-.709 5.904.539 11.477 3.34 14.904 2.674 3.277 6.637 4.453 11.203 3.283 18.639-4.758 34.994-9.082 50.018-13.234a1469.338 1469.338 0 0 0-10.961 5.09l-.967.256-.031.229c-9.547 4.889-16.311 15.145-17.736 27.018-.707 5.91.535 11.498 3.352 14.943 2.68 3.285 6.615 4.445 11.172 3.242l1.955-.529c-.402.225-.895.449-1.295.676l-.375.053v.057c0 .566-1.855 1.133-2.871 1.697-8.115 4.521-13.307 16.225-14.416 25.453-.709 5.914.555 11.514 3.383 14.977 2.684 3.289 6.639 4.438 11.184 3.203a665.411 665.411 0 0 0 28.969-8.607c-6.941 7.271-13.025 22.803-10.658 32.545 1.557 6.412 6.533 9.422 13.904 8.279a364.219 364.219 0 0 0 20.586-3.797c-2.674 4.527-4.447 9.744-5.088 15.082-.527 4.395.102 11.053 3.613 15.352 2.734 3.35 6.678 4.361 11.072 2.791 3.139-1.125 6.281-2.246 9.426-3.357a38.445 38.445 0 0 0-6.672 17.389c-.723 6.023.387 11.18 3.129 14.537 2.611 3.201 6.58 4.473 11.297 3.65.625-.109 1.25-.252 1.873-.365l.119-.213c6.355-1.115 12.721-2.502 19.096-3.645-3.346 8.055-5.016 17.188-1.795 22.977.893 1.607 2.465 2.896 5.16 3.508 1.086.449 2.357.691 3.834.693l.047.002c5.01-.012 10.035-.086 15.07-.203 9.625.084 19.189.1 28.582-.516.568 5.273 3.021 10.213 7.02 12.113 11.35 5.391 24.072 8.125 37.811 8.125 29.26 0 58.941-12.34 78.721-21.623 37.613-17.656 71.699-40.82 102.932-63.227l.867-.523-.008-.113c8.938-6.879 14.574-19.188 13.789-30.314-.551-7.822-4.992-12.877-11.311-12.877-.406 0-.82.023-1.234.066 10.098-8.699 18.557-18.131 25.637-28.559 4.895-7.207 9.016-18.344 5.914-27.98-1.309-4.062-4.049-6.812-7.572-7.742a245.529 245.529 0 0 0 5.408-5.32c7.09-7.195 11.236-18.006 10.562-27.543-.457-6.473-4.482-13.354-11.039-13.354-1.264 0-2.564.268-3.867.795-1.984.805-3.988 1.613-6.008 2.422 6.945-5.254 12.1-14.703 13.279-24.528.553-4.612-.385-11.449-3.75-15.572-2.76-3.378-6.693-4.312-11.002-2.546-.516.212-1.037.424-1.561.637l.01-.306-1.143.763c-.842.338-1.691.678-2.549 1.017a337.565 337.565 0 0 0 17.047-15.629c5.523-5.429 9.418-13.652 10.422-21.997.59-4.928-.219-11.625-3.363-15.477-.875-1.068-1.9-1.892-3.061-2.449a778.765 778.765 0 0 0 16.818-10.304c8.57-5.403 13.465-16.653 14.518-25.407.698-5.779-.704-11.778-3.565-15.286zM404.083 266.323c-7.781 8.079-15.488 16.233-23.312 24.252a127.023 127.023 0 0 1 7.473-10.854c1.814-2.36 3.914-4.809 6.182-7.246 4.506-4.032 9.32-7.681 14.332-10.98-.424.438-.85.872-1.275 1.31a26.778 26.778 0 0 0-3.4 3.518zm-42.806 43.47c4.324-12.837 9.957-25.095 17.176-36.313 3.588-3.527 7.393-6.795 11.357-9.842-11.469 13.072-20.568 28.257-27.143 44.835-.462.44-.923.883-1.39 1.32zm321.893-62.857c.553.494 1.104.99 1.646 1.494a2.474 2.474 0 0 0-1.012-.381c-.21-.371-.417-.745-.634-1.113zm10.715 135.603c.441 1.068.873 2.143 1.309 3.215-1.117.003-2.504.008-4.043.017a80.794 80.794 0 0 0 2.734-3.232zm14.258-105.41a12.911 12.911 0 0 0-.58 3.936c.018 1.971.1 3.932.234 5.879-5.713-13.471-13.561-25.938-21.977-37.548-.027-.035-.055-.063-.082-.099a131.275 131.275 0 0 1 22.405 27.832zm-360.319 16.899a48.72 48.72 0 0 1 .316-1.972c.18-1.025-.09.269.328-1.43 1.277-5.207 3.16-9.036 5.656-12.946 3.303-5.17 6.291-8.479 10.865-12.88 6.074-5.842 12.824-10.931 19.982-15.437a161.451 161.451 0 0 0-8.574 11.012c-11.377 10.309-21.361 22.238-28.805 36.133-.016.029-.031.061-.049.09.078-.859.169-1.716.281-2.57zm96.994 47.452l2.621-1.26c.045.114.09.229.133.345-.92.305-1.84.606-2.754.915zm88.034-5.537c3.984 2.356 7.881 4.892 11.703 7.498a558.18 558.18 0 0 1 4.592 3.17c-5.742-2.719-11.119-5.522-16.109-8.515a22.892 22.892 0 0 0-.186-2.153z" fill="#D8724A"/><path fill="#61E9FF" d="M763.525 943.104c-7.814-31.557-20.885-61.938-38.92-88.584a205.62 205.62 0 0 0-4.039-7.824c-.191-5.922-2.057-11.156-6.988-12.004-4.457-7.162-9.242-14.041-14.174-20.58-25.934-34.383-60.811-57.082-103.15-65.539-43.482-8.689-88.979-1.525-132.026 6.275-38.467 6.975-79.912 11.613-112.137 35.727-11.324 8.473-20.441 18.488-27.932 29.562-5.209 5.158-10.066 10.715-14.492 16.705a127.82 127.82 0 0 0-2.566 3.604c-9.215 11.26-18.09 22.82-27.301 33.914-5.883 7.08-10.701 21.809-4.17 29.963 1.945 2.432 4.191 3.459 6.525 3.561-1.164 8.43-1.791 16.957-1.951 25.488-1.797 3.213-2.75 6.912-2.094 9.797-2.93 5.211-3.84 12.053.406 14.93.898.607 1.803 1.201 2.707 1.797.805 3.604 3.08 4.379 5.658 3.611.391.24.783.479 1.174.717 1.467 3.008 4.143 4.992 8.508 4.975 10.473 5.854 21.34 10.982 32.479 15.504a26.03 26.03 0 0 0 .053 2.643c.598 7.885 5.717 12.754 13.633 11.021a165.957 165.957 0 0 0 14.027-3.738c18.75 5.896 37.947 10.451 57.051 14.186 42.211 8.25 86.094 12.258 129.053 13.459 52.559 1.469 135.502-4.096 175.082-46.434a555.088 555.088 0 0 0 36.473-14.852c6.633-2.976 10.9-10.664 9.111-17.884zm-45.769-18.37a90.247 90.247 0 0 0 5.879-9.418c.283 2.527.455 5.057.506 7.584a291.01 291.01 0 0 0-6.385 1.834zm-381.987 30.571c9.52-5.137 18.637-11.07 27.338-16.994 1.334-.908 2.646-1.844 3.973-2.768-8.637 6.992-16.814 14.461-24.328 22.572a193.344 193.344 0 0 1-6.983-2.81zm206.094-173.909c-9.729 4.371-19.221 9.318-28.524 14.561 3.78-4.27 6.715-9.207 8.274-14.668 6.758-.105 13.514-.094 20.25.107zm71.235 12.12c-10.412 6.469-20.975 12.68-31.58 18.818 3.809-6.992 7.045-14.348 9.555-22.129.297-.916.545-1.893.742-2.904 7.165 1.642 14.265 3.687 21.283 6.215zM306.701 907.928a234.456 234.456 0 0 0 5.775-2.797 189.202 189.202 0 0 0-7.484 10.035c.52-2.396 1.049-4.789 1.586-7.182l.123-.056zm117.988-15.676c21.059-15.65 43.93-28.898 66.164-42.787 13.98-8.734 28.178-17.188 42.979-24.285a301.828 301.828 0 0 1-3.938 3.477c-9.111 7.908-16.358 13.068-27.239 20.518-11.514 7.881-23.375 15.248-35.287 22.506-24.66 15.025-51.193 29.305-75.812 45.883 11.049-8.435 21.983-17.025 33.133-25.312zm110.555-11.139c-15.244 10.324-30.915 19.975-46.674 29.48 20.271-15.285 41.202-28.502 63.282-41.064a673.547 673.547 0 0 1-16.608 11.584zm-59.952 87.762c-4.08 2.807-7.627 6.676-10.236 11.102-4.24-.277-8.48-.58-12.717-.918a5550.184 5550.184 0 0 0 22.953-10.184zm230.567-86.939a156.802 156.802 0 0 0 5.32-7.947 218.024 218.024 0 0 1 1.83 4.18 327.366 327.366 0 0 0-7.15 3.767zm-42.724-27.422a473.088 473.088 0 0 0 10.826-13.072c1.723-2.156 3.264-4.744 4.475-7.547a209.31 209.31 0 0 1 9.258 9.254 403.764 403.764 0 0 0-24.559 11.365zm-7.627-39.145c-7.109 4.76-13.824 10.029-20.385 15.496 4.529-6.646 8.658-13.562 12.311-20.77a188.981 188.981 0 0 1 8.074 5.274zM530.271 977.121a184.572 184.572 0 0 0-5.271 5.52 741.96 741.96 0 0 1-3.334-.096c2.879-1.789 5.746-3.6 8.605-5.424z"/><path fill="#D8724A" d="M581.297 741.986a41.113 41.113 0 0 0-2.461-1.033c-1.244-4.207-3.002-8.406-5.291-12.611-5.365-9.857-19.256 1.664-22.883 6.562a39.574 39.574 0 0 0-2.09 3.133c-7.982.797-15.836 2.443-22.816 4.174-15.502 3.848-31.829 13.441-39.446 27.387a75.057 75.057 0 0 0-.678-.727c-1.418-1.5-2.613-3.182-3.73-4.91.729 1.066-1.014-2.064-1.156-2.4-.602-1.416-1.033-2.895-1.467-4.367-.07-.238-.131-.438-.186-.615-.027-.285-.074-.68-.15-1.232-.238-1.729-.295-3.477-.357-5.219-.006-.199-.014-.379-.02-.543.053-.318.119-.879.203-1.797.189-2.043.555-4.068.916-6.088 1.521-8.527-3.227-19.33-13.471-16.219-10.93 3.318-43.918 33.91-45.77 44.289-3.174 17.795 2.816 54.586 13.891 69.449 9.15 12.279 51.939 45.881 66.672 47.227 14.078 1.287 84.549-13.588 97.231-19.447 1.961-.586 32.396-57.531 34.262-58.338 0 0-10.02-47.227-25.928-44.447 4.211-5.434-26.084 11.033-23.217 4.908 3.288-7.024 7.799-22.569-2.058-27.136z"/><path fill="#AF543F" d="M571.023 762.207c-15.719 8.699-33.914 12.09-51.758 11.494-17.793-.592-37.704-4.924-48.545-20.279-3.357-4.756-8.994 7.061-7.932 10.275 14.002 42.445 68.792 47.404 104.018 29.766 7.385-3.699 12.035-12.225 13.105-20.207.651-4.852-1.55-15.11-8.888-11.049z"/><path d="M318.341 887.102c9.385.828 20.355 4.305 24.488 13.619 3.811 8.59 3.627 19.482 3.434 28.699-.225 10.434-1.773 20.854-2.838 31.223-.803 7.809-3.664 20.498 1.205 27.309 5.074 7.098 12.58-8.781 13.08-12.07 1.445-9.529-.301-20.197-.039-29.922.299-11.059.654-22.156-.754-33.156-1.189-9.277-4.666-17.156-11.465-23.643-7.465-7.117-17.365-6.381-26.664-4.104-.599.148-1.361 1.966-.447 2.045zm340.475 4.789c2.338 8.066 5.936 15.619 8.816 23.506 3.469 9.488 5.346 19.461 7.23 29.354 3.842 20.162 5.346 40.758 8.359 61.053.148 1.004.4 3.16 1.77 3.445.402.086.809.168 1.211.256 2.518.525 4.57-1.959 5.445-4.09 3.645-8.893.373-19.289-.777-28.586-1.422-11.486-3.32-22.914-5.586-34.268-2.236-11.203-5.369-22.156-9.803-32.693-3.273-7.783-7.412-16.365-15.943-19.074-.489-.161-.823.737-.722 1.097z"/><path d="M694.494 861.727c-13.236 4.846-24.699 12.619-33.652 23.553-1.494 1.822-2.908 4.578-2.148 7.012.971 3.113 4.094.281 5.111-1.117 7.701-10.605 18.076-18.24 29.914-23.689 1.808-.836 3.742-6.845.775-5.759z"/><path fill="#FF8A0B" d="M417.283 822.813c.25-.007.484.012.727.074l-.676-.175c.218.07.407.169.585.313l-.534-.439c.162.148.289.313.393.507l-.347-.645c.093.19.159.387.201.595l-.159-.801c.014.077.027.155.03.233.035.716.348 1.521 1.024 1.865.69.352 1.495.112 2.111-.268.854-.526 1.511-1.359 1.961-2.243.487-.956.63-1.853.663-2.905a4.21 4.21 0 0 0-.388-1.83c-.613-1.317-1.615-2.094-3.095-2.21-.843-.066-1.687.492-2.265 1.038-.8.756-1.39 1.753-1.719 2.8-.278.883-.404 1.907-.093 2.803.228.663.818 1.309 1.581 1.288z"/><path fill="#AF543F" d="M748.094 485.241a441.681 441.681 0 0 1-2.768 9.443c-5.166 16.883-1.643 33.414-8.369 49.718-1.471 33.812-23.17 67.666-39.15 96.734a198.808 198.808 0 0 1-5.512 9.404c-18.732 24.979-42.664 46.037-69.943 61.244-36.559 20.383-79.094 28.521-120.571 22.959-13.047-1.75-25.963-4.777-38.371-9.139-17.154-7.234-33.307-16.895-47.908-28.434-9.301-7.352-17.893-15.564-25.713-24.461-17.305-23.111-33.961-50.648-40.971-78.562-8.992-35.801-25.23-73.068-25.67-109.874a813.441 813.441 0 0 1 .049-22.147c-8.066 4.524 2.633 7.83-6.346 9.424-1.045 20.088-.535 40.249 1.596 60.228 4.904 45.945 18.031 93.088 43.75 131.902 40.098 60.512 111.861 98.59 184.829 92.471 37.971-3.186 73.35-18.41 103.123-41.926 22.477-17.752 40.562-39.865 54.721-64.406 12.795-18.648 23.027-39.051 30.666-60.32 5.449-15.174 9.635-31.383 12.102-47.314 2.838-18.338.734-37.089.674-55.534a4.74 4.74 0 0 0-.218-1.41z"/><path d="M410.826 765.69c-1.95 40.997 9.719 85.003 42.791 111.73 34.051 27.52 85.748 29.277 123.613 8.652 44.623-24.307 63.437-82.562 51.315-130.377-.802-3.16-4.356-3.188-6.636-1.782-3.566 2.199-6.332 7.238-5.849 11.479 2.438 21.371 3.605 41.703-3.585 62.372-5.68 16.328-17.019 30.587-32.387 40.275-35.332 22.272-88.145 19.404-120.026-7.76-28.521-24.301-39.201-63.336-38.305-99.624.062-2.523-2.122-4.442-4.573-3.697-3.352 1.02-6.195 5.313-6.358 8.732z"/><ellipse fill="#AD4040" cx="680.98" cy="551.188" rx="26.387" ry="25.373"/><ellipse fill="#AD4040" cx="382.389" cy="552.578" rx="26.388" ry="25.371"/><path fill="#D8724A" d="M319.156 488.736c-10.975-10.442-27.514-24.292-43.98-17.697-18.502 7.41-28.318 28.199-29.947 47.124-1.994 23.188 7.535 68.877 40.406 59.67 13.482-3.777 24.246-16.027 32.033-26.951 5.41-7.586 11.004-21.43 4.172-29.963-6.801-8.488-18.41.291-22.881 6.562a103.594 103.594 0 0 1-4.178 5.48c-2.648 3.232 3.818-4.182 1.086-1.242a53.905 53.905 0 0 1-1.984 1.988 44.56 44.56 0 0 1-1.947 1.742c-2.645 2.277 4.307-3.188 1.574-1.234-1.156.828-2.395 1.527-3.664 2.162 5.883-2.936 1.939-.936.145-.5-2.494.605 4.367-.459 1.865-.221-.531.053-1.068.043-1.602.031-1.566-.029-5.223-1.209.172.359-1.156-.336-2.244-.883-3.283-1.484-3.357-1.947.32.494-.025.184-.85-.756-1.607-1.611-2.338-2.482-.773-.92-1.457-1.914-2.113-2.918-.342-.525-.656-1.066-.971-1.605-1.289-2.219 2.105 4.17.467.762-1.176-2.449-2.082-5.023-2.861-7.627a61.818 61.818 0 0 1-1.045-4.094c-.67-2.972.893 4.752.354 1.748a66.173 66.173 0 0 1-.428-2.82c-.377-2.802-.531-5.627-.531-8.449-.002-3.19-.234 5.608-.084 2.446.033-.677.092-1.351.148-2.025.111-1.309.303-2.61.525-3.906.748-4.391-1.746 6.498-.246 1.34.168-.575.365-1.139.564-1.7 1.088-3.09-2.805 6.555-1.477 3.6 2.238-4.985-2.17 3.139-1.365 1.958 2.77-4.075-4.689 4.461-1.066 1.27-5.141 4.526-4.049 3.017-2.516 2.02 1.227-.794 3.68-1.712-2.449 1.028.932-.417 1.93-.66 2.928-.845-5.756 1.067-1.996.3-.193.433.611.046 1.217.151 1.82.258 2.336.403-4.068-1.271-.484-.102 3.17 1.033 6.109 2.723 8.898 4.517 1.75 1.127 3.412 2.387 5.051 3.67-3.029-2.369.141.145.617.561 1.295 1.125 2.541 2.301 3.783 3.482 7.828 7.449 17.596.58 22.881-6.562 4.831-6.531 11.811-22.697 4.169-29.968z"/><path d="M312.824 484.303c-15.676-10.304-37.545-19.569-54.641-6.971-13.809 10.176-17.543 29.827-16.551 45.902 1.061 17.156 7.969 35.727 21.529 46.867 15.02 12.34 38.145 11.18 51.74-2.867 1.141-1.18 4.998-10.287.449-9.527-8.312 1.391-15.324 6.115-23.979 6.611-7.035.402-13.674-1.857-19.516-5.66-12.184-7.938-19.074-23.432-21.336-37.318-1.863-11.456-1.566-26.62 8.166-34.677 14.264-11.813 36.633-1.653 50.477 5.492 2.845 1.466 6.353-6.08 3.662-7.852z"/><path d="M268.968 525.914c5.742-7.061 13.432-12.457 22.799-12.576 10.33-.13 12.617 9.031 16.529 16.527 1.785 3.422 5.725-4.148 5.869-5.414 1.312-11.518-4.49-22.988-17.258-23.214-12.508-.223-23.754 10.351-30.357 19.869-1.724 2.488-.875 8.859 2.418 4.808z"/><path d="M314.57 520.092c-7.445-.307-16.781-.383-22.049 5.85-5.211 6.162-4.184 15.492.285 21.787 1.914 2.699 5.051-4 4.479-5.797-.816-2.562-4.621-9.297-1.875-11.67 4.373-3.781 11.947-3.883 17.369-4.17 2.174-.117 4.472-5.891 1.791-6z"/><path fill="#D8724A" d="M754.721 495.217c10.975-10.442 27.516-24.292 43.98-17.697 18.504 7.41 28.316 28.199 29.947 47.125 1.994 23.188-7.535 68.875-40.406 59.668-13.482-3.777-24.246-16.025-32.033-26.951-5.408-7.586-11.004-21.43-4.172-29.963 6.801-8.488 18.412.291 22.881 6.564a105.263 105.263 0 0 0 4.178 5.48c2.648 3.23-3.818-4.182-1.086-1.244.637.686 1.312 1.34 1.984 1.99a43.426 43.426 0 0 0 1.947 1.742c2.645 2.275-4.307-3.189-1.574-1.236 1.156.828 2.395 1.529 3.664 2.162-5.883-2.934-1.939-.936-.145-.5 2.492.605-4.367-.457-1.865-.219.531.051 1.066.041 1.602.031 1.566-.029 5.223-1.211-.172.357 1.156-.336 2.244-.883 3.283-1.484 3.359-1.947-.322.496.025.184.85-.756 1.607-1.611 2.338-2.482.771-.92 1.457-1.912 2.113-2.918.342-.523.654-1.066.969-1.604 1.291-2.221-2.104 4.168-.465.76 1.176-2.449 2.084-5.023 2.861-7.625.402-1.35.736-2.721 1.045-4.094.67-2.973-.893 4.75-.354 1.748.168-.938.299-1.879.428-2.82.379-2.803.531-5.627.531-8.45.002-3.19.234 5.608.084 2.446-.033-.677-.092-1.351-.148-2.025a46.41 46.41 0 0 0-.525-3.906c-.748-4.392 1.746 6.498.246 1.34a33.807 33.807 0 0 0-.562-1.7c-1.092-3.09 2.805 6.553 1.475 3.6-2.238-4.985 2.168 3.139 1.365 1.958-2.77-4.075 4.689 4.46 1.066 1.269 5.139 4.527 4.049 3.018 2.516 2.02-1.227-.795-3.68-1.711 2.449 1.029-.932-.418-1.93-.66-2.928-.846 5.756 1.068 1.996.301.193.434-.613.045-1.217.15-1.82.256-2.336.404 4.068-1.27.484-.102-3.17 1.035-6.111 2.725-8.898 4.52-1.75 1.127-3.412 2.387-5.051 3.67 3.029-2.369-.141.145-.619.561-1.295 1.123-2.539 2.299-3.779 3.482-7.83 7.447-17.598.578-22.883-6.562-4.831-6.531-11.812-22.696-4.169-29.968z"/><path d="M761.053 490.786c15.676-10.305 37.545-19.571 54.639-6.972 13.811 10.176 17.545 29.827 16.553 45.901-1.061 17.156-7.969 35.727-21.529 46.869-15.02 12.34-38.145 11.18-51.74-2.869-1.141-1.18-4.998-10.285-.449-9.525 8.312 1.389 15.324 6.113 23.979 6.609 7.035.402 13.674-1.857 19.516-5.66 12.184-7.936 19.074-23.432 21.336-37.316 1.863-11.457 1.564-26.621-8.166-34.678-14.264-11.813-36.633-1.653-50.477 5.491-2.846 1.466-6.354-6.081-3.662-7.85z"/><path d="M804.906 532.395c-5.74-7.061-13.43-12.455-22.797-12.574-10.33-.131-12.617 9.029-16.529 16.525-1.785 3.422-5.725-4.148-5.869-5.414-1.312-11.518 4.49-22.988 17.258-23.213 12.508-.223 23.754 10.35 30.357 19.868 1.725 2.487.875 8.858-2.42 4.808z"/><path d="M759.307 526.572c7.445-.307 16.779-.383 22.049 5.85 5.211 6.164 4.184 15.492-.285 21.789-1.914 2.699-5.051-4.002-4.479-5.799.816-2.561 4.621-9.295 1.875-11.67-4.373-3.781-11.947-3.883-17.369-4.17-2.172-.115-4.473-5.89-1.791-6z"/><path d="M747.82 468.09c1.469 54.494-6.006 112.332-24.926 156.761-26.846 63.055-78.682 109.195-142.49 123.736-71.7 16.34-150.487-4.574-201.545-61.871-51.615-57.92-64.457-139.551-57.869-216.54-3.305-2-6.68-3.791-10.186-5.2a536.99 536.99 0 0 0-2.795 27.993c-5.584 76.641 10.381 156.524 60.596 214.184 50.076 57.51 127.273 79.363 198.784 66.846 66.438-11.631 121.643-56.854 154.781-118.523 27.127-50.488 40.104-118.111 38.463-182.131-4.26-1.784-8.514-3.586-12.813-5.255z"/><path d="M451.738 751.725c-50.76.229-108.393.174-141.975 45.178-14.871 19.928-22.734 43.668-27.355 67.852-4.619 24.166-6.812 49.93-4.072 74.346.57 5.086 5.102-1.152 5.506-3.223 8.342-42.744 5.424-90.592 31.484-127.902 29.471-42.201 88.844-35.539 133.061-45.033 3.577-.767 8.628-11.242 3.351-11.218z"/><path fill="#163663" d="M818.754 379.786c-1.441-7.451-4.451-14.209-9.662-19.301 2.307-7.836 3.186-16.214 2.607-24.287-1.287-17.987-9.828-39.228-25.463-49.88a78.093 78.093 0 0 0-.242-2.718c2.379-3.882 3.588-8.527 3.588-13.008 0-12.574-.023-25.15-.035-37.726-.004-3.631-2.441-7.497-6.338-7.68-4.779-.224-8.676 3.59-11.293 7.475-2.725-3.183-5.918-5.9-9.613-7.955a17.383 17.383 0 0 0-.207-.357 45.395 45.395 0 0 0-.443-.867 179.285 179.285 0 0 1-1.773-3.534c-1.227-2.494-2.4-5.015-3.566-7.537-4.898-10.594-9.57-21.319-15.543-31.373-4.793-8.069-11.361-16.187-21.195-17.605-5.129-.74-9.934 4.565-12.57 8.857-6.359.161-12.764 2.523-18.215 6.343a5.03 5.03 0 0 1-.066.048c-.395-2.589-1.6-4.852-4.123-6.181a47.72 47.72 0 0 1-5.211-3.212c-5.502-6.889-12.025-12.825-20.264-16.854-1.506-3.61-3.398-7.072-5.771-10.301-3.309-4.499-7.545-7.957-12.291-10.473-5.18-8.199-15.367-9.766-24.172-8.165-3.881.705-7.658 2.443-11.197 4.698-16.377 3.821-29.684 13.371-40.514 26.605-1.141-8.069-3.625-16.24-8.998-22.531-6.045-7.082-14.969-10.075-23.975-10.931-17.465-1.659-32.674 9.162-42.731 22.861a144.87 144.87 0 0 0-6.77-11.861c-9.484-14.917-24.74-29.717-43.48-30.136-25.441-.569-45.996 24.965-56.092 45.585a83.161 83.161 0 0 0-5.912 16.167c-6.379-2.484-13.23-3.641-20.227-2.869-20.264 2.238-34.855 15.86-45.041 32.758-5.648 9.371-8.969 19.857-11.604 30.404-.271 1.092-.523 2.183-.777 3.274-6.674-.744-12.982.18-19.621 3.62-9.711 5.031-16.207 16.17-19.387 26.211-1.773 5.604-2.178 10.954-2.34 16.764-.012 1.054 0 1.277.029.684-.041 1.395-.041 2.71.072 4.158.047.604.119 1.21.197 1.816-.117.562-.236 1.123-.344 1.689-1.549 8.188-1.342 16.817.441 25.124-1.77-.952-3.92-1.239-6.225-.539-7.408 2.249-11.33 9.562-14.023 16.178a55.105 55.105 0 0 0-3.859 15.79c-4.012 5.262-7.441 10.838-10.148 16.469-6.111 12.704-9.885 28.133-5.039 41.885 3.1 8.792 9.721 14.364 17.594 17.824-4.004 4.779-6.697 10.4-8.1 16.948-3.004 14.007-8.049 39.196 11.477 42.831 2.221.412 4.566.21 6.799.019 1.398-.12 2.793-.294 4.186-.465.76-.094 1.52-.19 2.279-.286l1.734-.234c.498-.059.996-.115 1.496-.172 8.303-.938 16.447-1.594 24.797-.713 3.551.375 7.678 1.187 10.424 1.98 10.977 3.176 20.832-12.305 19.322-22.105-3.277-21.276-2.84-42.165.09-62.71 2.449-7.023 4.783-14.088 7.406-21.048.461-1.22.939-2.434 1.418-3.646l.266-.621a164.205 164.205 0 0 1 3.449-7.514c2.561-5.27 5.564-10.337 8.559-15.375-1.469 2.485.746-1.174 1.146-1.79.836-1.282 1.707-2.54 2.58-3.797 1.764-2.545 3.635-5.013 5.533-7.458 1.621-2.087 3.314-4.116 5.025-6.127.248-.268 1.871-2.124 2.09-2.364a226.367 226.367 0 0 1 4.391-4.646c4.484-4.647 9.203-9.03 14.098-13.241 2.457-2.113 4.967-4.166 7.49-6.198.121-.097 1.736-1.363 2.332-1.838a392.534 392.534 0 0 1 4.402-3.317c10.578-7.855 21.709-14.855 33.127-21.425 1.322-.762 2.652-1.51 3.982-2.258-3.602 2.025-.422.112.416-.255 2.107-.926 4.244-2.08 6.492-2.585 3.109-.699 6.902-3.231 9.896-4.647.547-.258 1.094-.511 1.641-.768.207-.09 2.902-1.335 3.506-1.607 16.334-7.394 33.029-14.005 50.08-19.56a349.103 349.103 0 0 1 27.418-7.7 285.515 285.515 0 0 1 13.871-2.909c2.307-.43 4.623-.81 6.939-1.175.309-.049.619-.092.928-.139a7.85 7.85 0 0 0 3.242.877c2.705.126 5.188-.708 7.424-2.09a196.63 196.63 0 0 1 7.781-.52c1.92 4.191 5.969 6.849 11.617 5.609a41.878 41.878 0 0 0 12.744-5.094 147.13 147.13 0 0 1 13.078 1.831 114.3 114.3 0 0 1 5.664 1.211c-.246-.022 3.949 1.133 4.623 1.341 4.152 1.276 8.203 2.857 12.176 4.607 5.477 2.414 10.693 5.366 15.645 8.713 13.695 15.959 29.516 29.644 45.434 43.396 9.012 7.786 18.098 15.452 26.352 24.07a161.312 161.312 0 0 1 3.959 4.306c-1.295 3.778-1.646 7.745-.197 11.082 9.588 22.076 22.729 42.357 35.217 62.854 2.58 4.233 5.17 8.496 7.695 12.804 4.275 27.328 3.365 56.016 3.455 83.325.023 7.234 6.672 9.459 12.252 6.242 4.723-2.723 8.975-6.265 12.844-10.234 1.703-.739 3.348-1.787 4.732-2.884 25.585-20.26 48.743-66.824 33.11-97.937zm-312.645-214.56l.068-.095c.238-.328.49-.645.738-.966.412-.391 1.094-.974 1.592-1.402.324-.207.65-.408.98-.604.496-.229 1.91-.92 2.553-1.142a51.186 51.186 0 0 0-3.143 5.193c-.086.073-.172.146-.258.221-1.273.895-2.539 1.8-3.803 2.711.086-.517.205-1.127.316-1.674.283-.694.648-1.582.957-2.242zm155.02 37.699c-.41-.901-.828-1.799-1.25-2.694a38.125 38.125 0 0 0 1.307-3.516l.068.086c.367.473.713.959 1.066 1.441a114.097 114.097 0 0 0-1.191 4.683zM247.994 437.5l.008-.007c-.055.054-.102.11-.158.163.044-.051.095-.104.15-.156zm2.869 3.715l-.057-.029c-.781-.423-1.519-1.374.057.029zm79.978-180.4c.055-.082.107-.165.162-.246 1.752-2.633 3.643-5.17 5.568-7.676a150.28 150.28 0 0 1 2.965-3.697c.418-.506.846-1.004 1.27-1.504.145-.146.355-.363.611-.626-.154.419-.309.84-.467 1.258-.35.802-.701 1.602-1.064 2.397-1.006 2.197-2.119 4.344-3.273 6.467a96.882 96.882 0 0 1-1.023 1.801 68.897 68.897 0 0 1-2.277 3.26 20.749 20.749 0 0 1-2.472-1.434zm35.008 5.736c.34.488.734.939 1.178 1.35-.869.755-1.748 1.496-2.609 2.261a69.466 69.466 0 0 0 1.431-3.611zm36.975-27.205l.309.174-.609.446c.101-.206.198-.414.3-.62zm263.674-4.956c.082.808.193 1.614.336 2.419a438.33 438.33 0 0 1-2.98-2.064 7.658 7.658 0 0 0 2.644-.355zm-339.495 75.271a7.166 7.166 0 0 0-2.018-1.549c-4.168-2.124-8.916.383-12.264 3.57.131-1.141.26-2.281.383-3.424 6.176-1.567 11.816-4.38 16.955-8.035 2.016-.352 4.01-.92 5.961-1.655a230.315 230.315 0 0 0-9.017 11.093z"/><path fill="#2F61DD" d="M818.754 379.786c-1.441-7.451-4.451-14.209-9.662-19.301 2.307-7.836 3.186-16.214 2.607-24.287-1.287-17.987-9.828-39.228-25.463-49.88a78.093 78.093 0 0 0-.242-2.718c2.379-3.882 3.588-8.527 3.588-13.008 0-12.574-.023-25.15-.035-37.726-.004-3.631-2.441-7.497-6.338-7.68-4.779-.224-8.676 3.59-11.293 7.475-2.725-3.183-5.918-5.9-9.613-7.955a17.383 17.383 0 0 0-.207-.357 45.395 45.395 0 0 0-.443-.867 179.285 179.285 0 0 1-1.773-3.534c-1.227-2.494-2.4-5.015-3.566-7.537-4.898-10.594-9.57-21.319-15.543-31.373-4.793-8.069-11.361-16.187-21.195-17.605-5.129-.74-9.934 4.565-12.57 8.857-6.359.161-12.764 2.523-18.215 6.343a5.03 5.03 0 0 1-.066.048c-.395-2.589-1.6-4.852-4.123-6.181a47.72 47.72 0 0 1-5.211-3.212c-5.502-6.889-12.025-12.825-20.264-16.854-1.506-3.61-3.398-7.072-5.771-10.301-3.309-4.499-7.545-7.957-12.291-10.473-5.18-8.199-15.367-9.766-24.172-8.165-3.881.705-7.658 2.443-11.197 4.698-16.377 3.821-29.684 13.371-40.514 26.605-1.141-8.069-3.625-16.24-8.998-22.531-6.045-7.082-14.969-10.075-23.975-10.931-17.465-1.659-32.674 9.162-42.731 22.861a144.87 144.87 0 0 0-6.77-11.861c-9.484-14.917-24.74-29.717-43.48-30.136-25.441-.569-45.996 24.965-56.092 45.585a83.161 83.161 0 0 0-5.912 16.167c-6.379-2.484-13.23-3.641-20.227-2.869-20.264 2.238-34.855 15.86-45.041 32.758-5.648 9.371-8.969 19.857-11.604 30.404-.271 1.092-.523 2.183-.777 3.274-6.674-.744-12.982.18-19.621 3.62-9.711 5.031-16.207 16.17-19.387 26.211-1.773 5.604-2.178 10.954-2.34 16.764-.012 1.054 0 1.277.029.684-.041 1.395-.041 2.71.072 4.158.047.604.119 1.21.197 1.816-.117.562-.236 1.123-.344 1.689-1.549 8.188-1.342 16.817.441 25.124-1.77-.952-3.92-1.239-6.225-.539-7.408 2.249-11.33 9.562-14.023 16.178a55.105 55.105 0 0 0-3.859 15.79c-4.012 5.262-7.441 10.838-10.148 16.469-6.111 12.704-9.885 28.133-5.039 41.885 3.1 8.792 9.721 14.364 17.594 17.824-4.004 4.779-16.375 10.4-17.777 16.948-3.006 14.007 1.629 39.196 21.154 42.831 2.221.412 4.566.21 6.799.019 1.398-.12 2.793-.294 4.186-.465.76-.094 1.52-.19 2.279-.286l1.734-.234c.498-.059.996-.115 1.496-.172 7.15-.808 14.184-1.4 21.332-.988-8.432-20.649-13.518-44.822 5.379-58.908-34.303-16.067-27.502-72.342 6.426-84.849-4.936-18.941-8.764-42.968.723-61.094 10.41-19.894 33.289-18.243 51.809-12.064 1.986-18.981 5.785-40.14 16.35-56.312 4.25-6.505 10.279-12.768 18.393-13.741 10.055-1.206 19.1 4.983 26.297 11.417 2.217-17.602 15.074-32.672 32.008-38.107 17.041-5.471 34.453-.069 44.125 15.052 8.824-12.796 22.729-19.89 38.459-16.911 15.988 3.026 29.889 13.357 39.939 25.854 14.533-16.458 37.025-25.006 58.664-19.039 21.496 5.927 36.309 23.697 40.605 45.225 9.951-4.922 21.943-10.677 33.285-9.094 7.33 1.022 12.617 5.686 16.57 11.709 5.381 8.196 9.188 17.315 14.57 25.522 5.777 8.809 12.811 16.093 20.545 23.166 8.584 7.85 16.469 16.291 17.873 28.371.98 8.436-.455 17.027-2.752 25.145-.445 1.578-1.494 3.031.207 3.928.84.441 1.682.885 2.484 1.394 1.367.864 2.711 1.775 3.955 2.813 2.635 2.198 5.025 4.692 6.996 7.511 9.076 12.979 11.18 30.022 9.436 45.455-.453 4.017-1.094 8.021-2.076 11.944-.467 1.861-.965 3.717-1.561 5.542-.346 1.06 2.773 3.608 3.422 4.394 4.188 5.076 7.727 10.788 9.627 17.132 7.969 26.602-11.66 51.732-30.859 67.818-1.051.882-2.125 1.737-3.201 2.595.094 7.143 6.695 9.331 12.246 6.132 4.723-2.723 8.975-6.265 12.844-10.234 1.703-.739 3.348-1.787 4.732-2.884 25.584-20.264 48.742-66.828 33.109-97.941z"/><path d="M588.932 767.338c24.051-1.896 49.783-.713 72.641 7.586 20.586 7.475 36.299 22.004 49.252 39.236 13.807 18.369 21.943 39.576 29.615 61.01 7.809 21.814 14.115 44.434 18.545 67.166 1.344 6.891 10.621-4.721 9.951-9.156-7.334-48.447-15.844-97.238-45.959-137.473-13.27-17.729-32.26-31.373-53.301-38.162-26.885-8.67-54.057-3.756-79.906 5.955-.979.369-2.579 3.973-.838 3.838z"/><path fill="#FFF" d="M564.051 617.355c1.875-2.9 3.748-8.027.752-9.713-.105-.061-.213-.105-.318-.152-.004-.094-.004-.188-.01-.283-.07-1.105-.436-2.578-1.365-3.062-1.982-1.033-4.402.529-6.467 2.939-4.887-3.699-10.471-3.6-15.523-.883-.283-1.824-.744-3.697-1.406-5.689-.809-2.434-2.641-2.672-4.361-1.441a18.357 18.357 0 0 0-4.559 4.729c-.748.256-1.504.82-2.195 1.625-.256.299-.498.617-.725.951a32.36 32.36 0 0 0-1.434-4.615c-.008-.043-.018-.084-.025-.127a.13.13 0 0 1-.018.021 33.75 33.75 0 0 0-.514-1.236c-1.117-2.514-4.107-.514-5.201.758a11.592 11.592 0 0 0-1.674 2.611 96.699 96.699 0 0 0-.969-2.062c-1.57-3.242-4.135-.988-5.997 2.266-.24-.318-.471-.646-.719-.961-1.861-2.363-4.133-1.113-5.855 1.367-.111-.15-.217-.303-.33-.453-2.432-3.229-5.039.426-6.289 4.346-2.166-1.918-4.422-3.674-6.795-5.193-2.139-1.367-4.924 4.705-3.254 6.49 5.24 5.605 9.957 11.674 14.137 18.438 2.324 5.123 5.252 9.811 8.83 13.781 3.42 3.793 6.674-2.094 7.741-6.654a8.21 8.21 0 0 0 .857-.844l.064.066c2.209 2.141 4.461-1.049 5.887-4.254.592.352 1.221.352 1.854.102.018 1.014.268 1.938.879 2.639 5.037 5.779 11.844 7.252 18.043 3.225 3.609-2.348 6.301-5.906 8.08-10.098 2.842-1.754 5.273-3.516 7.775-6.539.295-.36.703-1.128 1.104-2.095z"/><path fill="#FF617F" d="M582.68 611.797c-.348-4.688-2.848-3.863-4.928-1.695-.223-.576-.562-1.064-1.062-1.379-2.225-1.396-4.771 2.037-5.559 4.223-1.674 4.648-3.691 8.984-6.162 12.818-7.598 3.568-14.055 10.086-21.725 13.389-.553.238-1.184.779-1.805 1.496-3.688.174-7.41-.25-10.943-.979-14.316-2.943-27.725-12.123-39.795-22.262a75.854 75.854 0 0 1-4.898-7.994c4.25-3.238 8.373-6.752 12.635-9.975.316.914.959 1.615 2.027 1.926 8.834 2.57 18.096 3.07 27.143 2.467 1.426-.094 2.752-1.301 3.676-2.93 3.748-.117 7.494-.232 11.215 0 8.775.549 17.236 2.844 24.973 8.088 2.107 1.428 4.465-1.701 5.279-5.002 3.426.592 7.264-9.412 3.701-11.357-9.742-5.316-19.758-8.588-30.189-11.139-2.057-.502-4.229 2.977-4.807 6.201l-1.004-.031a234.748 234.748 0 0 0-12.418-.021c-2.242-2.65-4.857-4.631-8.152-5.633-4.543-1.379-9.608.777-13.657 3.17-8.611 5.092-15.764 13.033-23.654 19.561-.525.127-1.094.619-1.621 1.309a67.168 67.168 0 0 1-3.959 2.914c-2.045 1.385-2.967 8.172.383 6.209a60.483 60.483 0 0 0 2.35-1.455c.023.057.043.115.066.17a8.342 8.342 0 0 0-.262.4 10.85 10.85 0 0 0-1.416 7.508c2.408 14.264 8.412 26.504 18.33 34.633 9.135 7.488 20.698 9.875 31.479 8.861 7.875-.742 15.596-3.291 22.691-7.379 6.416 1.682 13.08-.287 18.979-6.324 9.3-9.517 14.179-25.054 13.089-39.788zm-86.87 27.51a68.468 68.468 0 0 0 6.15 5.719 37.127 37.127 0 0 1-6.15-5.719z"/><path d="M472.587 612.547c38.695-6.174 77.583-2.279 116.25 2.109 2.688.307 5.133-7.533 2.014-7.883-39.037-4.383-78.131-7.982-117.094-.674-1.914.36-3.441 6.809-1.17 6.448z"/><path d="M563.193 612.277c-5.656 15.875-23.502 20.352-35.953 20.438-.703 2.75-1.406 5.5-2.107 8.252.248-.014.504-.033.742-.123 2.072-.781 3.4-4.332 2.816-6.811-.408-1.73-2.883-1.994-4.02-2.43-3.176-1.215-6.273-2.691-9.305-4.375-7.68-4.262-15.068-10.852-16.895-21.547-.695-4.074-5.168 1.889-4.826 4.619 1.361 10.969 8.1 18.281 15.682 23.322 3.217 2.141 6.639 3.768 10.108 5.168a83.88 83.88 0 0 0 3.521 1.309c.367.129.734.256 1.102.387.982.35.16.393-.15-.877l2.816-6.809c.172-.029.344-.059.516-.086-2.77.184-5.326 8.322-2.107 8.252 15.395-.336 34.908-7.289 41.504-26.529 1.482-4.322-1.867-6.583-3.444-2.16z"/><path d="M472.666 605.832c-1.09 60.064 67.153 77.932 100.051 46.412 11.283-10.809 17.104-27.514 15.846-45.045-.32-4.43-4.273.482-4.188 3.182.404 12.791-2.869 24.379-10.592 33.131-7.648 8.67-18.082 12.945-28.174 14.881-20.928 4.012-46.243-3.16-60.075-24.084-5.938-8.984-8.631-20.193-8.658-31.676-.004-1.633-1.254-2.229-2.293-1.439-1.292.982-1.886 2.849-1.917 4.638z"/><path d="M457.027 603.166c12.918 12.783 25.861.816 36.77-9.348 5.453-5.084 11.193-10.576 18.088-12.109 8.78-1.957 15.057 6.527 20.526 13.506 2.082 2.658 4.906-3.678 3.629-6.035-4.412-8.141-11.781-15.174-20.014-15.219-7.036-.041-13.485 5.043-18.975 9.928-11.123 9.891-23.561 25.705-37.459 13.08-1.827-1.658-4.409 4.371-2.565 6.197z"/><path d="M534.947 594.764c5.932-6.977 13-12.504 21.473-10.396 6.527 1.623 12.197 7.619 17.213 12.645 10.342 10.361 22.418 21.438 35.199 9.506 1.223-1.143 2.146-2.932 2.025-4.898-.102-1.674-1.258-2.406-2.42-1.52-6.037 4.615-11.889 5.316-18.301 1.406-6.264-3.822-11.453-10.062-16.959-15.256-5.211-4.912-11.008-9.287-17.705-9.887-8.631-.771-16.229 6.113-21.973 13.268-1.79 2.229-1.456 8.548 1.448 5.132zm297.235-211.048c-4.238-9.867-11.859-17.371-20.773-22.959 10.469-12.869 15.408-30.115 13.473-46.728-2.143-18.385-13.473-33.711-30.785-38.476 5.615-13.521 6.758-28.814.557-42.51-7.158-15.815-21.98-23.195-38.24-22.898 1.973-18.918-4.74-37.202-21.971-47.866-16.98-10.509-37.121-7.698-53.109 2.391-3.867-23.454-20.754-46.342-43.404-53.742-23.736-7.755-46.346 3.039-62.721 19.836-5.73-13.447-17.457-22.715-33.002-23.184-15.662-.472-30.288 7.796-40.692 19.218-4.07-11.851-12.326-21.482-23.77-26.941-12.102-5.772-25.916-6.066-38.889-3.786-26.949 4.736-51.445 24.329-57.924 51.272-10.629.667-21.596 3.275-31.77 5.843-9.945 2.509-19.938 6.246-28.178 12.479-19.051 14.411-25.826 37.612-28.186 60.527-9.854-1.103-19.861-.001-28.447 5.535-10.621 6.848-16.412 18.688-19.074 30.664-3.855 17.35-1.449 36.819 4.256 54.188-7.76 1.729-15.004 4.97-21.594 10.124-9.559 7.475-15.035 19.074-17.439 30.703-3.49 16.886 2.072 39.948 16.045 51.819-5.6 2.903-10.555 7.297-13.805 11.903-6.541 9.271-8.604 21.087-6.721 32.165 3.713 21.819 20.781 41.954 43.844 43.276 6.049.347 11.779-13.783 4.59-14.583-17.742-1.972-31.105-17.379-35.547-33.906-.436-1.618-.668-3.099-.877-4.859-.23-1.927-.262-4.412-.207-5.254.049-.779.15-1.555.254-2.328.064-.446.143-.891.225-1.334l.072-.283c.199-.775.459-1.532.73-2.285-.203.624.299-.498.639-1.234.197-.333.502-.855.607-1.005.219-.298.451-.584.682-.871.084-.087.186-.194.32-.337 1.605-1.647.883-1.722 3.168-3.021 4.078-2.316 10.406-2.624 15.041-3.925 4.936-1.385 11.062-14.042 3.426-15.316-.092-.015-.182-.023-.273-.038.094-1.387-.186-2.658-.971-3.547-5.824-6.59-11.588-13.17-15.08-21.345-3.312-7.759-4.803-16.604-3.932-24.154.836-7.241 3.084-11.643 8.295-16.312 6.514-5.84 17.672-8.046 27.09-8.106 5.871-.038 11.367-9.373 9.002-14.663-7.562-16.92-11.83-37.188-9.439-54.598.131-.959.305-1.908.486-2.857-.135.775.445-1.8.527-2.098.281-1.02.623-2.021.977-3.019.051-.135.096-.249.131-.347.234-.519.48-1.031.732-1.54.133-.271.771-1.334 1.008-1.747.266-.378.539-.752.822-1.117-.262.374 1.123-1.244 1.398-1.509 1.588-1.531-.045-.189 1.795-1.441 7.967-5.424 20.322-4.225 30.234-1.941 4.84 1.114 9.381-7.314 9.547-11.017.578-12.921 1.811-25.651 6.17-37.65.24-.61.354-.904.344-.903.16-.37.318-.741.484-1.107a59.492 59.492 0 0 1 1.59-3.237c.135-.258 1.123-1.929 1.227-2.146.479-.72.973-1.427 1.48-2.125 1.852-2.541 4.992-5.538 7.445-7.272 16.377-11.571 38.51-10.806 57.709-16.855 3.346-1.054 5.68-4.522 6.684-7.71a11.01 11.01 0 0 0 .385-1.816c1.283-1.759 2.078-3.953 2.484-5.95.107-.531.469-1.859.699-2.648.219-.755 1.27-3.592 1.098-3.192 1.145-2.67 2.186-4.436 3.295-6.072 2.896-4.276 6.35-7.821 10.578-10.995 8.918-6.69 19.861-11.044 30.906-12.53 22.18-2.985 45.312 5.464 51.947 28.485.664 2.303 2.361 2.923 4.156 2.67.109.188.232.369.373.545 2.324 2.901 6.191-.137 7.74-2.22 8.119-10.912 21.143-18.153 34.901-17.879 15.18.303 25.059 11.432 28.465 25.461 1.365 5.617 7.799 1.325 9.725-1.15 13.414-17.241 34.555-28.02 56.268-20.378 9.965 3.506 18.145 10.266 24.527 18.556 7.951 10.325 10.863 22.289 14.385 34.561.838 2.923 4.021 3.029 6.223 1.672a10.502 10.502 0 0 0 2.338-1.992c13.465-9.987 31.713-10.835 46.207-2.541 14.148 8.094 21.475 24.948 17.441 40.755-1.09 4.271-.645 9.624 4.955 8.846 13.9-1.93 26.727 3.868 33.822 15.981 6.438 10.99 4.555 25.294-1.723 34.506-2.145 3.145-5.811 13.189 1.043 13.767 15.801 1.33 27.672 12.862 30.398 28.392 1.389 7.898.645 14.52-1.785 21.441-.086.245-.146.424-.197.575-.074.156-.172.372-.314.69-.398.896-.852 1.766-1.305 2.636-.016.03-.896 1.507-.973 1.674a51.83 51.83 0 0 1-1.375 1.95c-1.752 2.389-4.592 5.062-7.717 7.104-3.652 2.39-10.277 13.417-3.744 16.423 10.271 4.724 20.227 11.461 25.342 21.911 4.178 8.535 4.332 18.76 2.494 26.771-4.562 19.896-17.369 38.056-31.582 52.37-3.037 3.06-5.588 8.193-4.068 12.578 1.451 4.192 6.141 3.069 8.635.559 17.889-18.007 33.801-40.905 39.553-65.952 2.85-12.421 3.227-25.569-1.886-37.475z"/><path d="M315.443 466.336c-.023-42.647 7.54-87.288 27.431-125.342 11.112-21.26 26.768-38.135 46.626-51.478 20.929-14.063 44.359-24.238 68.218-32.175 43.241-14.385 92.565-22.068 137.229-9.649 38.179 10.616 70.132 35.365 93.834 66.643 20.416 26.94 34.142 58.088 43.933 90.285 9.591 31.537 12.666 63.861 14.578 96.615.139 2.377 1.887 4.297 4.378 3.541 3.328-1.011 5.764-5.056 6.089-8.36 1.969-19.958.687-39.945-2.081-59.771-2.848-20.401-7.269-40.861-13.727-60.433-12.594-38.167-32.517-74.894-60.962-103.574-28.86-29.1-66.07-47.418-106.891-51.731-23.479-2.48-47.566.22-70.633 4.731-25.624 5.011-50.576 13.797-74.065 25.114-21.917 10.56-42.616 24.102-60.792 40.298-17.393 15.499-30.267 36.173-39.541 57.37-16.82 38.448-23.018 81.386-22.114 123.15.058 2.654 2.498 3.665 4.622 2.354 2.565-1.579 3.87-4.676 3.868-7.588z"/><path d="M362.329 438.981c3.757-7.587 10.939-13.103 17.788-17.764 9.985-6.796 21.254-11.563 32.871-14.752 12.118-3.326 24.687-4.303 37.149-2.64 13.83 1.845 24.687 8.165 36.503 15.033 4.707 2.736 10.058-7.941 7.042-11.396-19.148-21.932-54.828-20.796-80.283-13.301-21.538 6.341-47.497 20.11-56.881 41.859-2.55 5.911 2.871 8.898 5.811 2.961z"/><path fill="#AF543F" d="M469.343 472.334c-1.645-6.49-4.34-17.165-7.789-21.078-6.625-10.342-15.871-18.751-28.77-19.887-19.135-1.684-37.205 14.389-43.957 35.57-1.195 3.748-.254 8.151 2.588 5.435.814.645 2.092.513 3.85-1.027 19.266-16.88 44.307-5.614 64.457 2.921.068.029.139.047.207.071a103.197 103.197 0 0 1 2.086 4.927c2.199 5.592 8.254-3.283 7.328-6.932z"/><path d="M476.57 474.803c-2.947 1.885-6.35 2.194-9.785 1.781-17.133-13.693-36.875-22.601-58.262-12.567-.555.26-1.102.54-1.648.816-10.145 4.714-18.275-.353-23.4-7.409-2.436-3.356-7.229 4.251-5.322 7.186 2.961 4.557 7.42 7.103 12.551 8.385-.477.172-.947.355-1.432.506-2.908.902-5.863.935-8.832.311-4.338-.912-7.092-4.52-10.9-6.303-4.074-1.91-7.076 5.822-5.359 8.672 4.027 6.681 13.562 9.305 20.787 7.97 1.461-.271 2.887-.693 4.287-1.215.471.065 1.061-.04 1.82-.427 8.133-4.139 16.516-6.621 25.684-6.017 6.863.455 13.799 2.064 20.525 3.445 12.012 2.468 30.006 12.288 40.621 1.552 1.821-1.843 3.095-9.517-1.335-6.686zm227.212-39.176c-8.935-21.337-33.865-34.009-54.79-40.206-26.569-7.869-60.205-6.986-80.705 14.202-1.94 2.006-3.38 4.764-3.162 7.633.219 2.89 2.725 4.261 5.215 2.657 11.091-7.141 21.616-12.413 34.767-14.576 12.787-2.104 26.379-.547 38.799 2.842 11.692 3.191 22.964 8.305 33.085 14.962 7.46 4.907 15.513 11.096 19.661 19.232 2.592 5.087 8.668-3.074 7.13-6.746z"/><path fill="#AF543F" d="M597.625 480.766a105.215 105.215 0 0 1 2.084-4.927c.07-.024.141-.042.209-.071 20.15-8.535 45.191-19.801 64.457-2.921 1.758 1.54 3.035 1.672 3.85 1.027 2.842 2.717 3.783-1.687 2.588-5.435-6.752-21.182-24.822-37.254-43.957-35.57-12.898 1.136-22.146 9.545-28.77 19.887-3.449 3.913-6.145 14.588-7.789 21.078-.926 3.649 5.129 12.524 7.328 6.932z"/><path d="M583.07 476.303c2.947 1.885 6.35 2.194 9.785 1.781 17.133-13.693 36.875-22.601 58.262-12.567.555.26 1.102.54 1.648.816 10.145 4.714 18.275-.353 23.4-7.409 2.436-3.356 7.229 4.251 5.322 7.186-2.961 4.557-7.42 7.103-12.551 8.385.477.172.947.355 1.432.506 2.908.902 5.863.935 8.832.311 4.338-.912 7.092-4.52 10.9-6.303 4.074-1.91 7.076 5.822 5.357 8.672-4.025 6.681-13.561 9.305-20.785 7.97-1.461-.271-2.887-.693-4.287-1.215-.471.065-1.061-.04-1.82-.427-8.133-4.139-16.516-6.621-25.684-6.017-6.863.455-13.801 2.064-20.525 3.445-12.012 2.468-30.006 12.288-40.621 1.552-1.821-1.843-3.096-9.517 1.335-6.686z"/></svg>