<svg xmlns="http://www.w3.org/2000/svg" xmlns:xlink="http://www.w3.org/1999/xlink" width="1030" height="1030" viewBox="0 0 1030 1030"><defs><path id="a" d="M1020.377 515.001c0 279.115-226.266 505.377-505.378 505.377-279.111 0-505.377-226.264-505.377-505.377S235.887 9.622 514.999 9.622s505.378 226.266 505.378 505.379z"/></defs><use xlink:href="#a" overflow="visible" fill="#0C7FF2"/><clipPath id="b"><use xlink:href="#a" overflow="visible"/></clipPath><g clip-path="url(#b)"><path fill="#22A1FF" d="M1021.412 517.214c0 279.115-226.264 505.377-505.377 505.377S10.659 796.327 10.659 517.213c0-279.113 226.264-505.378 505.376-505.378 279.113 0 505.377 226.265 505.377 505.379z"/><path fill="#0C7FF2" d="M64.59 301.339c65.699-60.767 147.473-101.363 226.168-142.394 40.814-21.281 80.746-43.73 120.539-66.854 43.205-25.11 87.469-49.598 136.052-62.561-.953-12.573-1.91-25.146-2.863-37.722C469.489 62.96 382.01 118.799 296.631 176.392c-43.969 29.658-87.434 59.996-129.215 92.682-20.033 15.672-39.121 32.311-60.043 46.828-21.764 15.1-44.41 28.884-66.553 43.409-20.463 13.421-40.42 27.7-58.93 43.736-7.092 6.145-11.695 17.171-10.986 26.521.547 7.209 5.93 13.974 13.85 11.2 98.166-34.394 184.33-95.652 268.734-154.941 42.162-29.617 84.25-59.421 128.115-86.495 19.996-12.341 40.24-24.097 59.857-37.073 21.043-13.919 41.816-28.239 62.963-42.001 37.357-24.313 76.48-48.122 120.033-59.315l-6.715-33.351c-3.625 4.497-11.992 11.267-18.965 15.919-10 6.67-20.648 12.364-31.156 18.178-23.027 12.742-45.09 27.219-67.55 40.936-51.307 31.332-102.535 62.797-153.854 94.112-51.111 31.188-102.326 62.211-153.791 92.816-45.84 27.263-92.238 53.613-137.736 81.449-57.199 34.991-113.605 73.15-161.33 120.578-6.828 6.784-11.732 16.688-10.986 26.521.561 7.365 5.898 13.78 13.85 11.198 51.945-16.859 99.75-43.608 147.504-69.638 50.273-27.404 102.162-51.78 153.586-76.934 106.723-52.204 213.543-104.201 320.025-156.899 43.588-21.572 87.408-42.348 128.738-68.076 36.969-23.018 73.674-48.996 115.463-62.538-.953-12.575-1.908-25.146-2.865-37.721-32.514 34.457-76.607 55.146-117.219 78.288-50.043 28.516-97.459 62.321-145.693 93.778-48.674 31.741-97.557 62.7-143.463 98.404-36.26 28.201-71.635 58.477-113.41 78.263-71.922 34.064-163.472 55.527-201.33 135.064-3.076 6.463-5.363 14.316-2.91 21.401 1.746 5.04 7.498 9.095 12.934 6.589C147.668 523.179 241.1 464.948 335.032 407.693c46.52-28.354 93.289-56.325 141.23-82.228 49.121-26.541 100.222-49.029 149.863-74.543 51.182-26.305 101.262-54.686 151.104-83.427l-2.959-38.989c-89.508 66.279-184.82 124.035-280.238 181.279-95.316 57.186-189.701 115.122-280.916 178.699-64.773 45.146-142.418 71.596-192.24 135.972-8.809 11.384-11.1 42.221 10.986 31.382 208.225-102.161 408.941-218.58 611.71-330.955 81.105-44.949 162.598-89.213 245.031-131.684-.984-12.996-1.973-25.994-2.959-38.989C684.77 269.934 489.942 395.938 300.086 528.915 223.16 582.794 147.082 637.887 71.738 693.958c-9.188 6.835-16.062 17.88-15.16 29.76.736 9.699 9.592 15.234 18.119 9.229 43.635-30.724 91.014-55.527 138.016-80.599 48.867-26.063 96.422-53.966 143.455-83.206 97.824-60.818 193.595-125.836 295.818-179.224 79.945-41.755 155.398-91.653 236.617-131.035l-7.131-35.752C726.441 362.758 545.96 469.948 368.332 577.764c-93.443 56.721-186.838 113.71-276.602 176.167-9.318 6.484-16.043 18.146-15.162 29.758.801 10.539 9.318 14.158 18.121 9.23 202.516-113.372 408.092-221.234 609.107-337.292 82.611-47.694 164.387-96.848 244.781-148.196l-10.984-31.381c-4.996 7.511-10.377 14.716-16.098 21.688-5.041 6.146-10.836 12.267-18.375 19.708-14.123 13.939-29.66 26.809-45.09 38.273-35.396 26.297-73.572 48.73-112.08 70.107-37.449 20.789-75.582 40.312-113.117 60.945-42.605 23.422-83.598 49.658-124.55 75.827-65.34 41.753-130.41 84.796-198.977 121.15-60.084 31.858-124.109 59.163-173.203 107.688-6.84 6.762-11.732 16.707-10.986 26.521.621 8.164 5.795 12.766 13.852 11.199 27.105-5.268 51.926-18.041 75.643-31.76 24.855-14.379 49.684-28.809 74.537-43.191a10605.544 10605.544 0 0 0 152.232-89.772c49.529-29.772 100.035-57.95 150.666-85.822 50.375-27.729 102.131-51.93 153.662-77.322 67.275-33.148 131.119-72.729 197.16-108.185-3.664-10.463-7.324-20.922-10.986-31.383-5.502 7.192-9.135 10.836-17.041 18.057-7.75 7.076-15.977 13.312-24.516 19.367-18.807 13.338-38.713 25.094-58.617 36.699-43.184 25.18-85.117 51.793-126.223 80.276-91.951 63.715-180.73 131.845-272.466 195.851-62.605 43.68-127.018 85.396-195.643 119.062.984 12.998 1.973 25.994 2.959 38.99 48.336-27.512 98.725-51.109 148.232-76.383 25.086-12.807 49.887-26.168 74.098-40.572 24.189-14.391 46.895-30.896 69.808-47.201 23.254-16.545 46.578-32.993 70.564-48.466 23.51-15.167 48.086-28.535 72.549-42.078 48.807-27.02 97.926-53.479 146.336-81.21 61.398-35.17 121.52-72.686 178.059-115.307l-10.984-31.382c-59.982 69.826-146.119 119.632-225.496 166.939-91.051 54.269-181.008 110.706-269.408 169.204-41.197 27.26-81.385 55.869-121.205 85.092-39.393 28.914-78.959 57.732-121.234 82.348-9.594 5.584-15.99 18.82-15.16 29.758.842 11.066 9.201 13.475 18.119 9.23 100.961-48.053 196.105-107.057 291.246-165.518 47.797-29.369 95.674-58.625 144.385-86.46 47.674-27.237 96.568-52.016 145.609-76.669 75.025-37.713 150.205-76.055 218.391-125.428l-7.133-35.751c-33.609 33.213-76.088 55.599-117.895 76.72a4042.342 4042.342 0 0 0-133.637 70.689c-99.297 54.921-199.127 109.008-295.386 169.18-39.695 24.812-79.178 50.248-116.166 78.982-32.521 25.262-64.553 53.299-102.4 70.43-8.953 4.055-15.018 11.32-17.994 20.766-1.854 5.883-3.031 24.236 8.273 22.725 45.449-6.074 87.678-22.926 128.725-42.799 43.949-21.275 85.809-46.65 127.57-71.857 92.402-55.779 188.996-103.605 284.82-153.17 30.955-16.012 61.799-31.989 92.061-49.282 29.732-16.989 59.461-33.979 89.189-50.968 9.617-5.496 15.986-18.892 15.16-29.759-.803-10.575-9.309-14.111-18.119-9.229-104.189 57.711-206.855 118.117-308.768 179.746-51.145 30.93-102.088 62.188-152.947 93.584-44.667 27.572-85.541 60.625-129.552 89.188-21.201 13.756-43.26 26.518-67.014 35.328-.438 13.652-.873 27.305-1.309 40.957 171.867-107.34 370.171-160.402 549.3-253.342 47.312-24.547 93.094-52.107 136.094-83.643 9.217-6.758 16.059-17.938 15.16-29.76-.758-9.986-9.484-14.867-18.119-9.229C824.264 729.44 638.674 860.724 439.864 970.419a2775.644 2775.644 0 0 1-59.695 31.969l7.133 35.752c73.348-58.309 162.89-92.967 248.279-129.312 44.957-19.137 89.818-38.742 132.914-61.836 22.314-11.959 44.49-24.162 66.002-37.533 23.461-14.584 46.564-29.75 71.244-42.24-4.762-8.674-9.527-17.348-14.291-26.021-3.254 5.631 2.84-4.268-.768 1.271-1.092 1.672-2.266 3.291-3.436 4.908-1.197 1.656-2.473 3.256-3.744 4.855-.225.285-4.666 5.496-1.594 2.025-6.42 7.246-13.553 13.844-20.875 20.158-14.346 12.365-31.18 23.664-48.143 34.455-35.631 22.666-73.098 42.25-109.025 64.42-39.855 24.594-76.525 54.361-114.168 82.133-42.477 31.334-86.009 61.828-133.525 85.104-8.502 4.166-17.229 7.842-26.043 11.295l2.865 37.721c61.736-53.27 143.855-80.49 220.312-108.334 80.787-29.42 162.883-61.467 226.771-120.973 7.469-6.955 14.518-14.354 21.268-22.004 7.162-8.117 13.979-19.857 10.07-31.133-3.467-10.01-15.477-8.066-21.375-1.381-114.229 129.438-307.65 132.047-443.066 231.178a405.602 405.602 0 0 0-25.287 20.133c-7.098 6.125-11.695 17.186-10.988 26.523.529 6.965 5.992 14.279 13.852 11.197 97.134-38.068 176.13-109.006 260.494-168.248 66.98-47.033 147.924-76.375 205.262-136.568 10.398-10.916 19.23-22.635 26.768-35.684 7.1-12.287 4.059-35.306-14.293-26.02-23.682 11.982-45.957 26.396-68.42 40.475-22.416 14.049-45.568 26.727-68.83 39.299-42.02 22.705-85.975 41.566-129.891 60.242-90.246 38.379-182.228 75.838-259.646 137.379-7.227 5.744-11.674 17.469-10.986 26.521.82 10.785 9.258 13.842 18.119 9.23C584.748 936.47 771.74 806.556 960.963 681.343a11215.54 11215.54 0 0 1 56.154-36.924l-2.959-38.989c-164.07 120.319-362.51 176.991-545.044 261.854-48.148 22.383-95.297 46.992-140.35 75.131-8.23 5.139-13.768 14.979-14.994 24.48-1.043 8.053 3.027 20.43 13.684 16.479 48.654-18.047 91.17-48.994 132.91-79.129 45.078-32.541 91.929-61.576 139.314-90.625 101.834-62.436 204.24-123.968 307.941-183.266a7368.069 7368.069 0 0 1 86.652-48.766l-2.959-38.988c-51.547 29.457-102.701 59.619-155.439 86.898-53.777 27.817-107.555 55.633-161.336 83.449-43.93 22.723-87.301 45.756-129.695 71.246-41.771 25.117-83.296 50.699-126.521 73.277-41.221 21.529-86.023 41.922-132.551 48.141-3.242 14.498-6.48 28.994-9.721 43.49 47.463-21.482 85.908-55.805 127.18-86.811 44.621-33.523 92.951-62.742 140.675-91.576 96.973-58.587 197.006-111.868 295.912-167.064 73.6-41.076 157.643-70.725 218.6-130.964 6.844-6.76 11.734-16.708 10.988-26.521-.729-9.591-9.637-15.373-18.119-9.229-88.59 64.145-188.592 109.527-285.453 159.373-99.426 51.166-193.67 111.625-289.091 169.732-73.314 44.643-147.525 88.053-225.086 124.969.986 12.996 1.975 25.992 2.959 38.988 49.189-28.641 94.676-62.945 140.545-96.504 46.477-34 94.139-66.234 142.511-97.467 87.035-56.191 175.35-110.046 263.912-163.752 74.689-45.295 149.064-94.295 206.426-161.075 5.668-6.597 9.145-18.316 6.217-26.761-2.553-7.37-11.104-9.217-17.201-4.62-89.629 67.563-188.066 121.632-286.24 175.511-49.328 27.073-98.404 53.916-144.787 85.881-23.352 16.091-46.291 32.776-69.5 49.068-23.092 16.205-47.428 30.418-72.158 43.965-61.566 33.727-125.932 62.055-186.961 96.791-9.623 5.477-15.984 18.906-15.162 29.76.834 10.973 9.221 13.596 18.121 9.23 98.893-48.512 189.041-113.174 277.8-177.872 89.326-65.108 177.654-132.874 271.783-191.008 55.475-34.265 120.367-62.552 160.975-115.647 5.389-7.048 9.264-17.969 6.217-26.763-2.84-8.196-10.652-8.139-17.203-4.62-49.32 26.479-97.432 55.121-146.602 81.871-49.906 27.152-102.033 49.65-152.422 75.84-103.297 53.693-202.541 114.397-302.912 173.234a11398.73 11398.73 0 0 1-97.148 56.283c-30.902 17.713-60.723 37.979-96.279 44.889l2.865 37.721c33.756-33.367 76.162-55.738 118.041-77.18 45.688-23.391 90.238-48.039 134.129-74.681 87.598-53.175 171.679-111.858 262.07-160.353 54.957-29.484 110.543-57.98 162.961-91.898 49.711-32.166 98.854-70.181 131.992-120.016 5.023-7.557 9.406-17.564 6.219-26.762-2.701-7.791-10.855-8.675-17.203-4.621-195.874 125.101-399.876 236.655-603.807 347.893-83.527 45.561-167.061 91.117-250.082 137.596l2.959 38.988c170.951-118.941 354.396-218.406 528.24-332.895 94.266-62.08 185.904-128.777 269.848-204.379 7.025-6.327 11.707-17.035 10.988-26.521-.836-11.01-9.213-13.55-18.121-9.23-51.248 24.849-100.295 53.832-149.523 82.396-49.637 28.8-100.666 55.019-150.332 83.749-99.656 57.645-195.208 122.086-293.779 181.536-72.496 43.724-150.875 77.517-220.271 126.384l2.959 38.988c185.014-137.684 374.572-269.338 569.66-392.373 80.434-50.727 161.848-99.902 244.246-147.373 9.607-5.535 15.988-18.861 15.162-29.76-.822-10.815-9.252-13.799-18.121-9.229-206.174 106.221-406.21 223.749-609.96 334.453-81.455 44.258-163.553 87.353-246.781 128.186 3.66 10.463 7.322 20.923 10.984 31.383 25.775-33.308 66.303-56.533 103.787-77.647 19.877-11.199 39.891-22.157 59.18-34.356 21.949-13.881 42.736-29.654 64.248-44.203 92.355-62.464 188.979-118.262 284.289-176.013 77.074-46.703 153.373-94.857 225.838-148.517 9.197-6.81 16.061-17.9 15.16-29.76-.793-10.436-9.346-14.29-18.119-9.229-48.865 28.18-97.98 55.93-148.08 81.867-49.613 25.688-100.764 48.179-150.025 74.562-96.332 51.593-187.564 112.021-281.982 166.92-45.947 26.715-92.727 52.251-141.02 74.497l10.023 27.99c.941-1.981 1.92-3.936 2.938-5.881.277-.53 3.928-6.72 1.068-2.127 2.277-3.657 4.848-7.124 7.494-10.519.166-.216 4.736-5.591 1.713-2.197 1.438-1.612 2.949-3.157 4.457-4.703 3.551-3.637 7.363-7.009 11.248-10.285 4.771-4.025 12.172-9.079 19.402-13.619 8.459-5.309 17.279-10.026 26.193-14.511 34.471-17.342 71.244-29.699 106.115-46.215 43.146-20.439 79.836-52.666 117.23-81.818 44.832-34.949 93.141-64.874 140.709-95.896 48.037-31.33 95.283-64.804 145.125-93.205 42.926-24.461 88.732-46.937 123.104-83.359 6.682-7.084 11.748-16.467 10.986-26.521-.561-7.366-5.898-13.776-13.852-11.199-49.908 16.174-93.238 47.806-137.598 74.86-48.916 29.833-102.051 53.269-153.392 78.592-106.678 52.613-213.652 104.618-320.471 156.94-43.397 21.254-86.617 42.538-129.03 65.711-40.357 22.048-80.934 43.731-124.822 57.979l2.863 37.722c72.18-71.732 163.498-120.634 250.486-171.761 103.367-60.754 205.49-123.592 307.752-186.184 31.838-19.49 63.287-39.892 95.542-58.647 28.137-16.359 57.43-30.229 78.303-56.136 6.779-8.413 13.279-38.49-6.717-33.35-47.432 12.189-90.469 38.453-131.14 64.924-21.107 13.74-41.836 28.054-62.842 41.949-19.619 12.977-39.934 24.667-59.936 37.012-88.904 54.875-170.568 120.623-260.035 174.661C76.086 360.719 34.5 382.364-9.666 397.84c.955 12.572 1.91 25.147 2.863 37.721 39.104-33.88 85.59-57.931 127.51-87.985 21.174-15.182 40.631-32.546 61.215-48.488 20.629-15.977 41.775-31.276 63.117-46.279 86.078-60.504 176.02-115.53 257.793-181.999 18.234-14.82 35.914-30.312 52.96-46.484 6.924-6.571 11.721-16.852 10.986-26.521-.586-7.715-5.842-13.337-13.852-11.199-49.3 13.154-94.818 37.832-138.792 63.142-40.959 23.574-81.777 46.956-123.684 68.825-82.873 43.245-167.969 86.252-237.164 150.254-7.75 7.166-13.725 20.591-10.07 31.133 3.687 10.637 15.029 7.252 21.374 1.379z"/></g><path fill="#D8724A" d="M395.704 716.552l-.002.006z"/><path fill="#FFE5B8" d="M744.441 373.549c-.547.188-1.098.378-1.645.563v-.101l-.35.222c-13.242 4.554-21.789 3.767-30.184 2.07 1.619-5.735 2.861-11.643 3.793-17.629.768-.025 1.568-.299 2.266-.762 3.012-1.998 4.689-6.031 4.613-9.746-.229-10.979-1.121-21.944-2.775-32.729-17.406-8.31-35.289-15.624-53.646-21.749-77.156-25.743-162.863-29.881-241.185-6.229-35.348 10.674-67.58 31.341-90.045 60.904-14.213 18.705-24.15 39.938-30.072 62.354a200.485 200.485 0 0 0 15.273-2.466c-6.143 3.272-11.822 6.655-17.141 10.19-2.445 11.071-3.947 22.387-4.521 33.791-.053 1.049-1.688 1.054-1.635 0 .549-10.874 1.873-21.729 4.086-32.396-.701.481-1.4.964-2.092 1.451-7.684 5.427-13.219 15.143-14.445 25.359-.547 4.56.002 11.342 3.355 15.447 1.783 2.186 4.197 3.342 7.023 3.342 17.434-.079 35.709-1.67 55.531-4.853-22.596 10.472-46.057 21.954-68.805 35.73-8.561 5.183-13.473 16.503-14.543 25.423-.709 5.903.539 11.476 3.34 14.904 2.674 3.277 6.637 4.452 11.203 3.282 18.639-4.758 34.994-9.081 50.018-13.234a1554.442 1554.442 0 0 0-10.961 5.09l-.967.257-.031.229c-9.547 4.888-16.311 15.145-17.736 27.018-.707 5.91.535 11.498 3.352 14.943 2.68 3.284 6.615 4.445 11.172 3.241l1.955-.528c-.402.225-.895.449-1.295.675l-.375.053v.057c0 .567-1.855 1.133-2.871 1.698-8.115 4.521-13.307 16.224-14.416 25.452-.709 5.915.555 11.515 3.383 14.978 2.684 3.289 6.639 4.438 11.184 3.203a665.452 665.452 0 0 0 28.969-8.608c-6.941 7.271-13.025 22.804-10.658 32.546 1.557 6.411 6.533 9.422 13.904 8.279a364.238 364.238 0 0 0 20.586-3.798c-2.674 4.528-4.447 9.745-5.088 15.082-.527 4.395.102 11.054 3.613 15.352 2.734 3.35 6.678 4.362 11.072 2.792 3.139-1.125 6.281-2.246 9.426-3.357a38.446 38.446 0 0 0-6.672 17.388c-.723 6.024.387 11.181 3.129 14.538 2.611 3.2 6.58 4.473 11.297 3.65.625-.109 1.25-.253 1.873-.365l.119-.213c6.355-1.115 12.721-2.502 19.096-3.645-3.346 8.055-5.016 17.188-1.795 22.977.893 1.607 2.465 2.896 5.16 3.508 1.086.449 2.357.691 3.834.693l.047.002c5.01-.012 10.035-.086 15.07-.203 9.625.084 19.189.1 28.582-.516.568 5.273 3.021 10.213 7.02 12.113 11.35 5.391 24.072 8.125 37.811 8.125 29.259 0 58.941-12.34 78.72-21.623 37.613-17.656 71.699-40.82 102.932-63.227l.867-.524-.008-.113c8.938-6.878 14.574-19.188 13.789-30.313-.551-7.822-4.992-12.877-11.311-12.877-.406 0-.82.022-1.234.066 10.098-8.699 18.557-18.131 25.637-28.559 4.895-7.208 9.016-18.344 5.914-27.981-1.309-4.062-4.049-6.812-7.572-7.742a241.13 241.13 0 0 0 5.408-5.32c7.09-7.194 11.236-18.006 10.562-27.542-.457-6.474-4.482-13.354-11.039-13.354-1.264 0-2.564.268-3.867.796-1.984.804-3.988 1.612-6.008 2.422 6.945-5.255 12.1-14.703 13.279-24.528.553-4.612-.385-11.449-3.75-15.572-2.76-3.378-6.693-4.312-11.002-2.546-.516.212-1.037.424-1.561.637l.01-.306-1.143.763c-.842.338-1.691.678-2.549 1.017a337.565 337.565 0 0 0 17.047-15.629c5.523-5.429 9.418-13.652 10.422-21.997.59-4.928-.219-11.625-3.363-15.477-.875-1.068-1.9-1.892-3.061-2.449a778.765 778.765 0 0 0 16.818-10.304c8.57-5.403 13.465-16.653 14.518-25.407.695-5.78-.707-11.779-3.568-15.287-2.723-3.34-6.671-4.379-11.093-2.868zm-317.556-44.391l2.621-1.26c.045.114.09.229.133.345-.92.305-1.84.607-2.754.915zm88.219-3.384a22.241 22.241 0 0 0-.186-2.153c3.984 2.356 7.88 4.892 11.703 7.498a558.18 558.18 0 0 1 4.592 3.17c-5.742-2.719-11.119-5.522-16.109-8.515zm158.113 47.674a78.47 78.47 0 0 0 2.734-3.231c.441 1.068.873 2.143 1.309 3.215-1.117.003-2.504.007-4.043.016z"/><path fill="#FFBF1F" d="M692.771 653.935l.096-.235c-.09.176-.113.242-.096.235z"/><path fill="#EF6100" d="M745.592 930.782c-7.814-31.557-20.885-61.938-38.92-88.584a205.62 205.62 0 0 0-4.039-7.824c-.191-5.922-2.057-11.156-6.988-12.004-4.457-7.162-9.242-14.041-14.174-20.58-25.934-34.383-60.811-57.082-103.15-65.539-43.482-8.689-88.978-1.525-132.025 6.275-38.467 6.975-79.912 11.613-112.137 35.727-11.324 8.473-20.441 18.488-27.932 29.562-5.209 5.158-10.066 10.715-14.492 16.705a127.82 127.82 0 0 0-2.566 3.604c-9.215 11.26-18.09 22.82-27.301 33.914-5.883 7.08-10.701 21.809-4.17 29.963 1.945 2.432 4.191 3.459 6.525 3.561-1.164 8.43-1.791 16.957-1.951 25.488-1.797 3.213-2.75 6.912-2.094 9.797-2.93 5.211-3.84 12.053.406 14.93.898.607 1.803 1.201 2.707 1.797.805 3.604 3.08 4.379 5.658 3.611.391.24.783.479 1.174.717 1.467 3.008 4.143 4.992 8.508 4.975 10.473 5.854 21.34 10.982 32.479 15.504a26.03 26.03 0 0 0 .053 2.643c.598 7.885 5.717 12.754 13.633 11.021a165.957 165.957 0 0 0 14.027-3.738c18.75 5.896 37.947 10.451 57.051 14.186 42.211 8.25 86.094 12.258 129.052 13.459 52.559 1.469 135.502-4.096 175.082-46.434a555.088 555.088 0 0 0 36.473-14.852c6.632-2.976 10.9-10.663 9.111-17.884zm-45.77-18.369a90.247 90.247 0 0 0 5.879-9.418c.283 2.527.455 5.057.506 7.584a285.58 285.58 0 0 0-6.385 1.834zm-381.986 30.57c9.52-5.137 18.637-11.07 27.338-16.994 1.334-.908 2.646-1.844 3.973-2.768-8.637 6.992-16.814 14.461-24.328 22.572a191.526 191.526 0 0 1-6.983-2.81zM523.93 769.075c-9.728 4.371-19.22 9.318-28.523 14.561 3.779-4.27 6.715-9.207 8.273-14.668 6.758-.106 13.513-.094 20.25.107zm71.234 12.119c-10.412 6.469-20.975 12.68-31.58 18.818 3.809-6.992 7.045-14.348 9.555-22.129.297-.916.545-1.893.742-2.904 7.166 1.643 14.265 3.688 21.283 6.215zM288.768 895.606a234.456 234.456 0 0 0 5.775-2.797 189.202 189.202 0 0 0-7.484 10.035c.52-2.396 1.049-4.789 1.586-7.182.041-.018.082-.036.123-.056zm117.988-15.675c21.059-15.65 43.93-28.898 66.164-42.787 13.98-8.734 28.178-17.188 42.979-24.285a301.828 301.828 0 0 1-3.938 3.477c-9.111 7.908-16.357 13.068-27.238 20.518-11.514 7.881-23.375 15.248-35.287 22.506-24.66 15.025-51.193 29.305-75.812 45.883 11.048-8.435 21.982-17.025 33.132-25.312zm110.555-11.139c-15.244 10.324-30.914 19.975-46.673 29.48 20.271-15.285 41.201-28.502 63.281-41.064a677.367 677.367 0 0 1-16.608 11.584zm-59.951 87.762c-4.08 2.807-7.627 6.676-10.236 11.102-4.24-.277-8.48-.58-12.717-.918a5815.094 5815.094 0 0 0 22.953-10.184zm230.566-86.94a156.802 156.802 0 0 0 5.32-7.947 218.024 218.024 0 0 1 1.83 4.18 331.78 331.78 0 0 0-7.15 3.767zm-42.725-27.422a473.088 473.088 0 0 0 10.826-13.072c1.723-2.156 3.264-4.744 4.475-7.547a209.31 209.31 0 0 1 9.258 9.254 405.26 405.26 0 0 0-24.559 11.365zm-7.627-39.144c-7.109 4.76-13.824 10.029-20.385 15.496 4.529-6.646 8.658-13.562 12.311-20.77a188.353 188.353 0 0 1 8.074 5.274zM512.338 964.8a184.572 184.572 0 0 0-5.271 5.52 741.96 741.96 0 0 1-3.334-.096c2.879-1.789 5.746-3.6 8.605-5.424z"/><path fill="#FFE5B8" d="M563.363 729.665a41.113 41.113 0 0 0-2.461-1.033c-1.244-4.207-3.002-8.406-5.291-12.611-5.365-9.857-19.256 1.664-22.883 6.562a39.574 39.574 0 0 0-2.09 3.133c-7.982.797-15.835 2.443-22.816 4.174-15.502 3.848-31.828 13.441-39.445 27.387a75.057 75.057 0 0 0-.678-.727c-1.418-1.5-2.613-3.182-3.73-4.91.729 1.066-1.014-2.064-1.156-2.4-.602-1.416-1.033-2.895-1.467-4.367-.07-.238-.131-.438-.186-.615-.027-.285-.074-.68-.15-1.232-.238-1.729-.295-3.477-.357-5.219-.006-.199-.014-.379-.02-.543.053-.318.119-.879.203-1.797.189-2.043.555-4.068.916-6.088 1.521-8.527-3.227-19.331-13.471-16.219-10.93 3.318-43.918 33.91-45.77 44.289-3.174 17.795 2.816 54.586 13.891 69.449 9.15 12.279 51.939 45.881 66.672 47.227 14.078 1.287 84.548-13.588 97.23-19.447 1.961-.586 32.396-57.531 34.262-58.338 0 0-10.02-47.227-25.928-44.447 4.211-5.434-26.084 11.033-23.217 4.908 3.288-7.025 7.8-22.57-2.058-27.136z"/><path fill="#EAA286" d="M553.09 749.886c-15.719 8.699-33.914 12.09-51.757 11.494-17.793-.592-37.703-4.924-48.545-20.279-3.357-4.756-8.994 7.061-7.932 10.275 14.002 42.445 68.791 47.404 104.017 29.766 7.385-3.699 12.035-12.225 13.105-20.207.651-4.852-1.55-15.11-8.888-11.049z"/><path d="M340.409 854.78c9.385.828 20.355 4.305 24.488 13.619 3.811 8.59 3.627 19.482 3.434 28.699-.225 10.434-1.773 20.854-2.838 31.223-.803 7.809-3.664 20.498 1.205 27.309 5.074 7.098 12.58-8.781 13.08-12.07 1.445-9.529-.301-20.197-.039-29.922.299-11.059.654-22.156-.754-33.156-1.189-9.277-4.666-17.156-11.465-23.643-7.465-7.117-17.365-6.381-26.664-4.104-.6.149-1.361 1.967-.447 2.045zm340.474 4.789c2.338 8.066 5.936 15.619 8.816 23.506 3.469 9.488 5.346 19.461 7.23 29.354 3.842 20.162 5.346 40.758 8.359 61.053.148 1.004.4 3.16 1.77 3.445.402.086.809.168 1.211.256 2.518.525 4.57-1.959 5.445-4.09 3.645-8.893.373-19.289-.777-28.586-1.422-11.486-3.32-22.914-5.586-34.268-2.236-11.203-5.369-22.156-9.803-32.693-3.273-7.783-7.412-16.365-15.943-19.074-.49-.16-.824.738-.722 1.097z"/><path d="M716.561 829.405c-13.236 4.846-24.699 12.619-33.652 23.553-1.494 1.822-2.908 4.578-2.148 7.012.971 3.113 4.094.281 5.111-1.117 7.701-10.605 18.076-18.24 29.914-23.689 1.808-.835 3.741-6.845.775-5.759z"/><path fill="#FF8A0B" d="M399.351 810.492c.25-.007.484.012.727.074l-.676-.175c.218.071.407.169.585.313l-.534-.439c.162.148.289.313.393.507l-.347-.645c.093.19.159.387.201.595l-.159-.801c.014.077.027.155.03.233.035.716.348 1.521 1.024 1.865.69.352 1.495.112 2.111-.268.854-.526 1.511-1.359 1.961-2.243.487-.956.63-1.853.663-2.905a4.206 4.206 0 0 0-.388-1.83c-.613-1.317-1.615-2.094-3.095-2.21-.843-.066-1.687.492-2.265 1.038-.8.756-1.39 1.753-1.719 2.8-.278.883-.404 1.906-.093 2.803.228.662.817 1.309 1.581 1.288z"/><path d="M414.092 422.555c-18.85 1.786-29.562 18.763-43.852 29.087-3.34.702-6.832.684-10.508-.388-3.037-.886-6.518 5.618-3.514 6.896 2.879 1.225 5.682 1.813 8.414 1.92.176 1.509 1.152 2.383 3.361 1.322a37.616 37.616 0 0 0 3.824-2.132c3.467-.896 6.814-2.451 10.045-4.367.607 1.111 1.73 1.847 3.154 1.29 7.166-2.8 14.105-6.258 21.42-8.633 12.121.543 24.627 8.482 33.594 16.3 3.143 2.739 5.832-3.141 5.883-5.58.197-9.288-.197-18.718-5.945-26.475-5.786-7.81-16.731-10.107-25.876-9.24zm240.58 27.296c-6.311-18.748-22.555-32.281-42.977-27.77-20.078 4.436-31.246 24.723-31.447 44.015-.045 4.293 5.205.066 5.396-2.483.025-.322.057-.643.088-.962.541-.021 1.129-.169 1.752-.466 6.133-2.935 11.898-6.6 17.793-10 .82-.093 1.643-.189 2.463-.271 4.799-.48 10.861-1.357 16.709-1.271 4.848.83 9.633 2.128 14.23 3.627 2.088.68 4.18-.795 5.469-2.868 1.23 1.708 2.289 3.544 3.203 5.373 2.67 5.346 8.577-3.194 7.321-6.924z" fill="#EAA286"/><path d="M431.87 463.823a35.586 35.586 0 0 0-1.096-1.346c-4.35-6.576-11.527-11.118-19.801-11.896-5.002-1.077-10.191-.97-15.074.698-3.98 1.361-7.914 3.881-10.402 7.312-11.117 8.08-13.186 23.693-4.484 35.363 10.895 14.606 31.188 15.432 45.371 5.452 12.245-8.611 14.503-23.829 5.486-35.583zm-49.485 7.328a26.551 26.551 0 0 0-.531 3.099c.021-1.11.215-2.136.531-3.099z"/><path fill="#FFF" d="M423.594 470.682c0 5.873-4.764 10.635-10.639 10.635-5.871 0-10.635-4.762-10.635-10.635 0-5.875 4.764-10.638 10.635-10.638 5.876 0 10.639 4.763 10.639 10.638z"/><path d="M447.522 463.044c-16.234-13.732-35.279-23.572-55.985-13.966-5.995 2.781-11.503 6.811-17.838 8.807-2.617.825-5.555 1.037-8.23.322-3.958-1.056-6.471-4.107-10.01-5.795-3.642-1.737-6.369 5.246-4.816 7.794 3.645 5.978 12.13 8.427 18.655 7.365 6.525-1.062 12.36-5.439 17.935-8.706 6.894-4.039 14.15-6.944 22.272-6.565 12.936.603 24.68 8.791 34.367 16.652 2.013 1.634 5.565-4.288 3.65-5.908zM346.5 426.354c4.117-6.029 11.528-10.383 18.812-14.102 9.883-5.046 21.243-8.177 32.218-9.606 11.719-1.526 23.967-1.107 35.362 2.18a79.207 79.207 0 0 1 16.767 7.034c5.832 3.275 10.706 7.869 16.236 11.569 2.686 1.797 6.356-1.614 7.762-3.512 2.438-3.294 3.843-7.962 1.627-11.683-7.127-11.969-21.867-18.529-34.856-21.79-13.511-3.391-27.806-2.841-41.438-.539-22.249 3.757-47.447 14.545-59.237 34.881-1.18 2.035-1.9 5.564-.282 7.584 2.067 2.582 5.689-.054 7.029-2.016z"/><path d="M363.455 449.599c8.351 12.869 29.708 8.273 42.189 5.997 2.525-.46 5.153-7.595 1.663-7.438-11.561.521-30.879 6.304-39.069-5.016-2.182-3.017-6.496 3.817-4.783 6.457z"/><path fill="#EAA286" d="M730.16 472.919a441.681 441.681 0 0 1-2.768 9.443c-5.166 16.883-1.643 33.413-8.369 49.719-1.471 33.812-23.17 67.666-39.15 96.733a198.84 198.84 0 0 1-5.512 9.405c-18.732 24.978-42.664 46.037-69.943 61.244-36.559 20.383-79.094 28.521-120.57 22.959-13.047-1.75-25.963-4.777-38.371-9.139-17.154-7.235-33.307-16.895-47.908-28.434-9.301-7.352-17.893-15.564-25.713-24.462-17.305-23.111-33.961-50.647-40.971-78.562-8.992-35.801-25.23-73.068-25.67-109.874a813.441 813.441 0 0 1 .049-22.147c-8.066 4.524 2.633 7.83-6.346 9.424-1.045 20.088-.535 40.249 1.596 60.229 4.904 45.944 18.031 93.088 43.75 131.902 40.098 60.512 111.861 98.59 184.828 92.471 37.971-3.186 73.35-18.41 103.123-41.926 22.477-17.752 40.562-39.866 54.721-64.406 12.795-18.648 23.027-39.051 30.666-60.321 5.449-15.174 9.635-31.382 12.102-47.313 2.838-18.339.734-37.09.674-55.534a4.746 4.746 0 0 0-.218-1.411z"/><path d="M392.894 753.369c-1.95 40.996 9.719 85.003 42.791 111.73 34.051 27.52 85.748 29.277 123.613 8.652 44.623-24.307 63.437-82.562 51.315-130.377-.802-3.16-4.356-3.188-6.636-1.782-3.566 2.199-6.332 7.238-5.849 11.479 2.438 21.37 3.605 41.703-3.585 62.372-5.68 16.328-17.018 30.587-32.387 40.275-35.332 22.272-88.144 19.404-120.025-7.76-28.521-24.301-39.201-63.336-38.305-99.624.062-2.523-2.122-4.442-4.573-3.698-3.354 1.02-6.197 5.314-6.359 8.733z"/><ellipse fill="#FFAD9F" cx="663.047" cy="538.866" rx="26.387" ry="25.372"/><ellipse fill="#FFAD9F" cx="364.457" cy="540.256" rx="26.388" ry="25.372"/><path fill="#EAA286" d="M301.223 476.414c-10.975-10.442-27.514-24.292-43.98-17.697-18.502 7.41-28.318 28.199-29.947 47.124-1.994 23.188 7.535 68.876 40.406 59.669 13.482-3.776 24.246-16.026 32.033-26.95 5.41-7.586 11.004-21.431 4.172-29.964-6.801-8.487-18.41.291-22.881 6.563a104.006 104.006 0 0 1-4.178 5.48c-2.648 3.231 3.818-4.182 1.086-1.242a53.905 53.905 0 0 1-1.984 1.988 44.56 44.56 0 0 1-1.947 1.742c-2.645 2.276 4.307-3.188 1.574-1.235-1.156.828-2.395 1.528-3.664 2.162 5.883-2.935 1.939-.936.145-.5-2.494.606 4.367-.458 1.865-.22-.531.052-1.068.042-1.602.031-1.566-.029-5.223-1.209.172.358-1.156-.335-2.244-.882-3.283-1.484-3.357-1.946.32.495-.025.185-.85-.756-1.607-1.612-2.338-2.483-.773-.92-1.457-1.913-2.113-2.918-.342-.524-.656-1.066-.971-1.604-1.289-2.22 2.105 4.169.467.762-1.176-2.45-2.082-5.024-2.861-7.627a61.977 61.977 0 0 1-1.045-4.094c-.67-2.973.893 4.751.354 1.748a66.173 66.173 0 0 1-.428-2.82c-.377-2.802-.531-5.627-.531-8.449-.002-3.19-.234 5.608-.084 2.446.033-.677.092-1.351.148-2.025.111-1.309.303-2.61.525-3.906.748-4.391-1.746 6.498-.246 1.34.168-.575.365-1.139.564-1.7 1.088-3.09-2.805 6.555-1.477 3.6 2.238-4.985-2.17 3.139-1.365 1.958 2.77-4.075-4.689 4.461-1.066 1.27-5.141 4.526-4.049 3.017-2.516 2.02 1.227-.794 3.68-1.712-2.449 1.028.932-.417 1.93-.66 2.928-.845-5.756 1.067-1.996.3-.193.433.611.046 1.217.151 1.82.258 2.336.403-4.068-1.271-.484-.102 3.17 1.033 6.109 2.723 8.898 4.518 1.75 1.127 3.412 2.387 5.051 3.67-3.029-2.369.141.145.617.561 1.295 1.124 2.541 2.3 3.783 3.482 7.828 7.448 17.596.579 22.881-6.562 4.831-6.531 11.812-22.697 4.169-29.969z"/><path d="M294.891 471.981c-15.676-10.304-37.545-19.569-54.641-6.971-13.809 10.176-17.543 29.827-16.551 45.901 1.061 17.156 7.969 35.727 21.529 46.868 15.02 12.34 38.145 11.18 51.74-2.868 1.141-1.179 4.998-10.286.449-9.526-8.312 1.391-15.324 6.114-23.979 6.611-7.035.401-13.674-1.858-19.516-5.661-12.184-7.937-19.074-23.432-21.336-37.317-1.863-11.456-1.566-26.62 8.166-34.678 14.264-11.813 36.633-1.653 50.477 5.492 2.846 1.467 6.354-6.079 3.662-7.851z"/><path d="M251.036 513.592c5.742-7.06 13.432-12.456 22.799-12.575 10.33-.13 12.617 9.03 16.529 16.526 1.785 3.423 5.725-4.147 5.869-5.414 1.312-11.518-4.49-22.987-17.258-23.214-12.508-.223-23.754 10.351-30.357 19.868-1.725 2.488-.875 8.861 2.418 4.809z"/><path d="M296.637 507.77c-7.445-.307-16.781-.383-22.049 5.85-5.211 6.163-4.184 15.492.285 21.788 1.914 2.699 5.051-4 4.479-5.798-.816-2.562-4.621-9.296-1.875-11.67 4.373-3.78 11.947-3.883 17.369-4.17 2.174-.117 4.473-5.89 1.791-6zm137.168 231.633c-50.76.229-108.393.174-141.975 45.178-14.871 19.928-22.734 43.668-27.355 67.852-4.619 24.166-6.812 49.93-4.072 74.346.57 5.086 5.102-1.152 5.506-3.223 8.342-42.744 5.424-90.592 31.484-127.902 29.471-42.201 88.844-35.539 133.061-45.033 3.578-.767 8.629-11.241 3.351-11.218zm137.193 15.614c24.051-1.896 49.783-.713 72.641 7.586 20.586 7.475 36.299 22.004 49.252 39.236 13.807 18.369 21.943 39.576 29.615 61.01 7.809 21.814 14.115 44.434 18.545 67.166 1.344 6.891 10.621-4.721 9.951-9.156-7.334-48.447-15.844-97.238-45.959-137.473-13.27-17.729-32.26-31.373-53.301-38.162-26.885-8.67-54.057-3.756-79.906 5.955-.979.369-2.578 3.972-.838 3.838z"/><path fill="#CE3613" d="M297.024 341.188c10.787-8.611 72.982-64.954 144.982-60.954s162.06 5.358 162.06 5.358S490.204 121.906 465.6 152.729c-24.601 30.824-168.576 188.459-168.576 188.459z"/><path d="M426.71 230.268c-15.43 18.971-18 43.954-4.058 64.481 2.926 4.309 9.099-5.345 6.766-9.134-10.116-16.429-10.343-34.244 1.942-49.53 3.765-4.683.191-11.768-4.65-5.817z"/><path fill="#FFBF1F" d="M395.504 222.251c18.338-8.428 38.591-17.521 59.087-18.238 14.324-.501 27.561 4.694 38.387 13.983 14.739 12.646 25.469 29.795 36.212 45.749 11.675 17.335 21.952 35.544 32.686 53.469 23.343 38.982 47.844 77.925 78.81 111.395 14.346 15.506 30.413 29.827 48.598 40.691 8.259 4.934 17.057 8.948 26.231 11.845 4.409 1.393 8.932 2.478 13.477 3.319 7.531 1.394 11.447-5.177 13.534-11.438 1.273-3.821.834-7.794.138-11.66-1.368-7.597-8.52.172-9.147 4.211a155.967 155.967 0 0 1-.757 4.511c-.734 3.961 2.394-1.839.154-.081l6.238-1.823c-4.071-1.678-8.676-2.013-12.917-3.204-4.735-1.33-9.349-3.072-13.862-5.019-9.062-3.911-17.571-9.036-25.628-14.711-17.652-12.433-32.82-28.238-46.701-44.675-29.135-34.502-52.586-73.428-75.618-112.13-10.486-17.621-21.045-35.056-33.407-51.458-10.336-13.712-21.659-27.619-36.348-36.882-30.867-19.464-70.271.065-98.917 14.369-2.616 1.306-4.104 9.549-.25 7.777zm-75.09 37.56c-13.946 25.542-23.247 53.494-32.646 80.95-1.373 4.01-1.835 10.911 2.729 13.236 4.411 2.248 10.092-1.989 12.313-5.572 8.755-14.125 14.805-29.262 18.875-45.362 3.749-14.828 7.637-30.524 8.921-45.781.332-3.943-.437-9.671-5.549-9.912-6.503-.306-11.052 7.193-12.875 12.402-4.53 12.943-6.16 28.335-9.075 40.783-3.271 13.961-6.793 24.934-13.884 36.659l17.056 4.401c8.223-25.354 16.454-50.704 27.358-75.065 1.732-3.871 4.053-11.613-1.079-14.229-5.075-2.587-10.112 3.768-12.144 7.49z"/><path d="M602.514 500.798c14.182 9.979 34.477 9.154 45.369-5.453 8.703-11.669 6.633-27.283-4.484-35.363-2.486-3.431-6.42-5.951-10.4-7.312-4.883-1.668-10.074-1.775-15.076-.697-8.273.775-15.449 5.317-19.801 11.896-.375.441-.744.888-1.094 1.344-9.02 11.753-6.76 26.972 5.486 35.585zm44.529-25.159a26.587 26.587 0 0 0-.531-3.099c.316.964.509 1.988.531 3.099z"/><circle fill="#FFF" cx="615.938" cy="472.069" r="10.636"/><path d="M584.27 469.628c9.582-7.827 20.891-15.379 33.647-15.978 7.997-.375 15.271 2.942 22.005 6.896 5.671 3.329 11.071 7.233 17.644 8.531 7.265 1.435 15.623-3.047 19.854-8.794 1.534-2.084 2.164-8.675-2.162-6.178-5.995 3.461-9.846 7.381-17.287 5.255-6.502-1.857-12.214-6.028-18.287-8.887-20.945-9.862-40.713.526-57.102 14.304-2.353 1.978-1.904 7.784 1.688 4.851zm99.601-51.09c-10.803-19.385-36.39-28.174-56.88-31.665-27.006-4.6-60.714 1.283-77.305 25.306-1.967 2.849-3.596 6.781-2.387 10.271 1.483 4.281 5.649 2.518 8.203.531 9.636-7.499 18.445-13.532 30.355-16.92 11.991-3.412 24.6-3.423 36.869-1.706 11.069 1.549 21.899 4.935 31.931 9.851 7.775 3.811 15.787 8.36 20.9 15.553 1.968 2.768 5.721-.247 7.03-2.016 1.969-2.658 2.954-6.207 1.284-9.205z"/><path d="M661.395 445.689c-3.804 5.355-11.743 5.517-17.68 5.447-6.613-.078-13.153-1.305-19.754-1.588-3.09-.133-6.113 6.823-2.371 7.534 13.454 2.555 34.161 6.296 43.113-7.255 2.276-3.448-.096-8.66-3.308-4.138z"/><path fill="#FF7C24" d="M885.51 727.31c-12.262-23.626-21.242-48.676-27.834-74.434-5.49-21.452-10.068-42.438-13.939-64.236.029-33.133 1.773-66.743.646-99.813 2.363-2.071 4.342-4.286 5.598-5.984 6.92-9.349-6.977-51.77-13.219-59.914a255.568 255.568 0 0 0-2.373-9.736c-.271-5.026-.846-10.044-1.439-14.966-1.645-13.641-2.613-27.339-4.547-40.953-3.848-27.103-9.729-54.328-19.619-79.935a431.143 431.143 0 0 0-1.514-5.587c-5.203-18.679-13.473-36.6-24.451-52.591-9.264-13.49-20.732-25.146-33.502-35.329-31.396-33.897-70.355-61.645-112.369-80.223-30.365-13.427-62.311-20.535-95.316-22.987-31.738-2.359-65.498.62-96.046 9.594-33.016 9.697-62.131 31.472-72.652 65.407-2.568 8.288-3.701 16.676-3.652 25.019-9.73-2.595-19.971-2.977-30.041-1.326-18.508 3.032-34.621 16.188-44.979 31.287-10.832 15.793-16.994 34.613-21.945 52.968-5.416 20.08-9.102 40.691-11.373 61.357-4.385 39.934-4.525 81.198 4.057 120.59.98 4.506 5.693 6.478 9.803 5.68-.436 4.256.162 9.311 5.271 9.55 6.518.307 10.615-7.086 12.611-12.147 8.83-22.41 14.553-46.072 22.057-68.956.887-2.706 1.953-5.364 2.992-8.015l.006-.015.25-.587a174.466 174.466 0 0 1 1.715-3.855c2.242-4.933 4.783-9.748 7.506-14.437.381-.616 1.043-1.694 1.305-2.091.781-1.184 1.604-2.339 2.426-3.493 1.664-2.333 3.459-4.567 5.297-6.764.207-.246.934-1.079 1.441-1.661.754-.816 1.52-1.62 2.293-2.418 2.48-2.565 5.139-4.951 7.857-7.26 4.281-3.636 8.666-7.184 13.029-10.725.938-.762 1.887-1.509 2.836-2.256.154-.108.355-.252.658-.471a415.296 415.296 0 0 1 6.133-4.377c5.73-4.001 11.674-7.719 17.232-11.961 8.59-6.557 15.258-14.472 19.107-23.905.521-.745.965-1.438 1.301-2.029 7.008-12.317 10.469-26.87 8.789-40.917.258-.231.512-.467.77-.696.238-.211 1.031-.841 1.535-1.244.912-.647 1.84-1.275 2.754-1.918 1.812-1.272 3.738-2.376 5.697-3.407.119-.048.254-.102.416-.169 1.301-.537 2.641-.97 3.984-1.385 1.002-.31 2.025-.55 3.045-.79.834-.161 1.156-.234.992-.226 2.773-.385 2.902-.393.367-.022 2.406-.133 4.789.252 7.178.175 2.172-.07 4.363.125 6.521.352 1.107.115 2.209.297 3.307.478.516.084 2.99.646 3.244.666 4.98 1.464 9.617 3.651 14.32 5.85 5.725 2.676 11.098 6.16 16.236 9.816a135.689 135.689 0 0 1 5.722 4.351l.383.321c2.777 2.338 5.443 4.809 8.066 7.318 6.551 6.266 16.076 9.965 16.501 10.724.436.83 7.527 14.911 10.465 21.205 12.092 25.899 53.15 52.272 65.189 78.198 11.926 25.682 24.943 51.479 42.453 73.868 15.605 19.956 36.084 37.445 60.357 45.607 13.736 4.618 28.064 6.512 42.52 5.932 2.258-.091 13.559-.88 5.213-.375 1.768-.106 3.531-.26 5.293-.424.859-.08 1.719-.178 2.578-.271-.078.37-.154.742-.234 1.112l-.059.267c-.18.798-.387 1.721-.518 2.289-2.32 10.055-4.916 20.045-7.715 29.976-5.893 20.892-12.637 41.564-20.668 61.734-.633 1.524-1.74 4.204-2.154 5.153-1.729 3.954-3.186 7.98-4.777 11.979a368.736 368.736 0 0 1-5.373 12.199 302.239 302.239 0 0 1-14.891 28.356c-1.08 1.765-2.76 4.49-2.863 4.529l-1.197 2.913c.492-1.269.346-1.189-.441.245a.05.05 0 0 1-.008.014l-.033.054a217.462 217.462 0 0 1-2.102 3.255 205.703 205.703 0 0 1-4.307 6.296c-.725 1.021-1.467 2.028-2.209 3.035-.453.612-3.904 4.588-1.271 1.808-1.623 1.713-2.977 3.316-4.225 5.145-.133.133-.316.329-.576.619a151.402 151.402 0 0 1-4.996 5.265c-3.559 3.6-7.354 6.957-11.314 10.106-3.793 3.017-6.129 9.17-5.77 13.923.211 2.772 1.432 4.627 3.18 5.467-.619 5.348.139 11.523 5.1 13.712 11.75 5.184 23.199 10.174 34.307 16.715 7.6 4.477 15.002 9.279 22.381 14.115 5.385 7.23 12.246 13.033 21.367 13.957 7.312 4.768 14.668 9.49 22.232 13.826 12.092 6.93 24.734 11.803 37.971 16.027 10.23 3.268 17.898-12.555 15.33-20.82-4.117-13.246-9.959-25.803-15.953-38.299 3.463 1.725 6.984 3.293 10.582 4.633 19.568 7.287 40.262 12.375 61.105 13.492 8.608.458 17.473-14.641 13.587-22.129zM306.668 341.25c.367-2.893.744-5.784 1.143-8.674 1.59.065 3.223-.366 4.816-1.101a144.595 144.595 0 0 0-5.959 9.775zm10.944-57.074c.205-.649.408-1.3.619-1.947a164.177 164.177 0 0 1 1.785-5.154c.252-.692.807-2.094 1.203-3.099a109.844 109.844 0 0 1 3.672-7.487c.322-.601.668-1.188 1.008-1.78l.197-.3c.057-.086.121-.166.18-.251a56.503 56.503 0 0 0 2.412 2.643c-3.646 5.819-7.355 11.602-11.076 17.375zm37.431 6.974c.75-.739 1.49-1.489 2.234-2.233.059.212.125.424.193.635-.811.527-1.62 1.062-2.427 1.598zm351.068 398.964c-.514.882-1 1.845-1.453 2.864-.514-.39-1.031-.777-1.551-1.163l.15-.113c.887-.852 1.766-1.708 2.639-2.573.656-.65 1.297-1.317 1.939-1.982l-1.724 2.967zM440.928 183.638a8.09 8.09 0 0 0 .07-.085c.273.129.547.259.82.392-.551.212-1.1.428-1.646.65.254-.319.504-.64.756-.957zm-30.375 73.766c.248-3.461.088-.368 0 0zm287.89 161.972c.137-.313.273-.628.404-.944.57.641 1.158 1.269 1.727 1.912.23.263.467.521.699.782a107.74 107.74 0 0 1-2.83-1.75zm35.346 33.845c.43.354.854.711 1.285 1.063-1.086-.888-1.42-1.166-1.285-1.063zm42.291 296.243a42.98 42.98 0 0 0 1.74-3.766 2018.73 2018.73 0 0 1 3.873 7.053 320.685 320.685 0 0 1-5.613-3.287zm35.529-163.52c-.357 7.955-.744 15.952-1.023 23.963-.088-.416-.182-.83-.268-1.245-.043-.203-.127-.628-.217-1.075-.289-1.495-.57-2.991-.848-4.489a472.717 472.717 0 0 1-1.693-9.821c.615-9.719.836-19.472.924-29.182.01-.943.008-1.887.012-2.83a2561.177 2561.177 0 0 0 3.332 20.054c-.072 1.541-.148 3.083-.219 4.625zm35.041 130.323a31.699 31.699 0 0 0 1.342-4.939 334.74 334.74 0 0 0 3.287 6.767 65.166 65.166 0 0 1-4.629-1.828z"/><path fill="#FFBF1F" d="M280.168 362.456c14.598-10.063 28.242-21.465 41.373-33.361 11.529-10.445 22.684-21.291 33.695-32.278 9.121-9.103 17.234-18.228 23.398-29.65 12.377-22.937 17.459-51.13 35.148-70.945 20.297-22.732 53.709-23.811 81.643-17.846 26.076 5.567 48.873 19.475 66.523 39.364 17.77 20.026 30.451 43.928 42.117 67.853 22.725 46.599 43.518 102.081 90.971 129.063-3.008-22.506-8.67-44.646-8.793-67.469-.004-.773 1.164-1.17 1.523-.412 15.777 33.252 49.77 51.771 84.326 59.983 18.209 4.328 37.762 7.042 56.516 6.096 1.91-.097 3.82-.241 5.727-.437-.285-4.767-.824-9.522-1.387-14.191-1.645-13.641-2.613-27.339-4.547-40.953-3.848-27.103-9.729-54.328-19.619-79.935a431.143 431.143 0 0 0-1.514-5.587c-5.203-18.679-13.473-36.6-24.451-52.591-9.264-13.49-20.732-25.146-33.502-35.329-31.396-33.897-70.355-61.645-112.369-80.223-30.365-13.427-62.311-20.535-95.316-22.987-31.738-2.359-65.498.62-96.046 9.594-33.016 9.697-62.131 31.472-72.652 65.407-2.568 8.288-3.701 16.676-3.652 25.019-9.73-2.595-19.971-2.977-30.041-1.326-18.508 3.032-34.621 16.188-44.979 31.287-10.832 15.793-16.994 34.613-21.945 52.968-5.416 20.08-9.102 40.691-11.373 61.357-1.842 16.779-2.922 33.793-2.932 50.804 7.766-3.773 15.149-8.443 22.158-13.275zm77.11-73.539c.059.212.125.424.193.635-.812.527-1.621 1.062-2.428 1.599.75-.74 1.491-1.49 2.235-2.234zm-39.047-6.688a164.177 164.177 0 0 1 1.785-5.154c.252-.692.807-2.094 1.203-3.099a109.844 109.844 0 0 1 3.672-7.487c.322-.601.668-1.188 1.008-1.78l.197-.3c.057-.086.121-.166.18-.251a56.503 56.503 0 0 0 2.412 2.643c-3.646 5.82-7.355 11.604-11.076 17.376.205-.651.408-1.301.619-1.948zm-10.42 50.347c1.59.065 3.223-.366 4.816-1.101a144.326 144.326 0 0 0-5.959 9.774c.368-2.892.745-5.783 1.143-8.673z"/><path d="M429.417 228.207c35.211-17.292 66.716 14.682 86.111 40.706 22.682 30.436 38.281 65.178 58.491 97.155 40.727 64.441 103.59 134.981 186.074 136.41 5.117.089 10.218-11.751 3.949-12.547-24.32-3.089-47.309-9.894-68.896-21.603-21.328-11.568-40.107-27.197-57.014-44.491-31.043-31.756-54.827-69.458-76.321-108.071-15.579-27.988-31.95-56.429-54.865-79.153-10.237-10.152-22.297-19.445-36.302-23.559-14.409-4.232-28.865-1.915-41.991 5.093-4.144 2.212-5.844 13.306.764 10.06z"/><path d="M885.49 760.062c-18.998-51.522-27.369-106.037-32.076-160.53-4.908-56.823-6.344-113.854-10.338-170.737-3.914-55.705-10.408-111.634-26-165.414-4.609-15.902-9.68-31.173-18.627-45.17-6.826-10.679-15.248-20.292-24.293-29.135-21.473-20.99-46.914-37.848-73.27-52.04-29.143-15.69-60.152-27.996-91.91-37.251-30.887-9.001-62.715-15.113-94.906-16.391-27.314-1.083-55.73 1.27-81.395 11.246-18.441 7.169-34.891 18.643-46.576 34.756-10.809 14.906-16.227 32.528-17.904 50.618-28.625 4.167-59.859 9.237-79.543 32.028-10.092 11.686-15.562 27.031-19.385 41.754-5.832 22.472-9.109 46.024-11.646 69.068-5.246 47.645-4.611 97.213 6.453 144.015.832 3.517 4.953 2.108 6.725.435 2.643-2.496 3.977-6.247 3.17-9.794-6.139-26.939-8.15-54.767-8.352-82.342-.197-27.487 1.988-55.055 6.594-82.154 3.264-19.191 5.439-38.486 12.639-56.739 4.258-10.797 10.914-19.696 21.34-26.205 17.916-11.186 40.867-14.442 61.748-17.652.771 1.572 2.797 1.963 4.486.922.852-.525 1.541-1.209 2.109-1.978 4.74-1.224 8.023-12.304 2.293-12.523.896-10.278 3.26-20.776 6.994-29.206 4.588-10.354 10.334-17.938 19.006-25.438 17.559-15.189 42.668-22.459 66.078-25.12 29.932-3.401 60.353-.404 89.849 5.07 32.461 6.023 64.186 15.969 94.613 28.725 29.311 12.286 57.668 27.382 83.428 46.053 21.168 15.343 41.182 33.774 54.635 56.425 9.299 15.656 13.949 34.951 18.568 52.703 7.002 26.914 11.635 54.384 15.096 81.959 7.098 56.554 8.891 113.625 12.135 170.483 4.008 70.246 9.781 142.254 32.607 209.268-23.811-13.307-49.926-22.234-74.678-33.599-2.447-1.123-5.082.936-6.646 3.698a6.467 6.467 0 0 0-1.033.777c-2.309 2.182-3.656 5.646-2.838 8.773 1.908 7.299 6.127 14.346 9.641 20.984 3.814 7.205 7.904 14.26 12.016 21.297 5.604 9.596 11.264 19.184 16.348 29.062-28.115-9.137-54.523-21.871-80.191-37.037-30.703-18.143-60.277-38.713-87.377-61.924-4.912-4.207-12.023 7.367-8.035 10.846 27.113 23.645 56.553 44.832 87.391 63.338 16.434 9.861 33.387 18.898 50.904 26.684 15.74 6.996 32.545 13.611 49.674 16.135 4.85.715 10.369-11.5 5.264-12.844-1.125-.297-2.24-.615-3.361-.922-5.873-14.16-13.357-27.523-20.971-40.818-4.26-7.439-8.531-14.875-12.518-22.467-1.381-2.629-2.621-5.352-3.84-8.088 25.432 12.336 52.273 21.742 76.045 37.342 1.609 1.057 3.418.471 4.977-.941 2.952-1.537 6.008-6.953 4.883-10.005z"/><path d="M298.079 480.976c3.316-74.682 37.324-174.862 123.051-185.683 39.138-4.94 79.89-7.031 119.139-2.54 4.564.522 8.901-10.115 3.475-11.039-23.735-4.043-47.963-3.644-71.938-2.499-15.266.729-30.535 1.93-45.715 3.718-17.437 2.054-33.721 6.988-48.808 16.123-17.23 10.433-31.498 25.388-42.987 41.796-28.677 40.955-42.5 93.02-44.325 142.576-.283 7.624 7.881 2.65 8.108-2.452z"/><path d="M729.887 485.769c1.469 54.494-6.006 82.331-24.926 126.762-26.846 63.054-78.682 109.195-142.49 123.736-71.699 16.34-150.486-4.574-201.544-61.871-51.615-57.921-64.457-139.552-57.869-216.54-3.305-2-6.68-3.791-10.186-5.2a536.99 536.99 0 0 0-2.795 27.993c-5.584 76.642 10.381 156.524 60.596 214.185 50.076 57.51 127.273 79.363 198.783 66.846 66.438-11.631 121.643-56.854 154.781-118.523 27.127-50.488 40.104-68.111 38.463-132.132-4.261-1.786-8.514-23.587-12.813-25.256z"/><path fill="#FFBF1F" d="M410.553 257.404c.248-3.461.088-.368 0 0zm323.236 195.817c.43.354.854.711 1.285 1.063-1.086-.888-1.42-1.166-1.285-1.063z"/><path fill="#FF617F" d="M554.234 582.9c-9.543-5.208-19.352-8.413-29.568-10.91-2.016-.492-4.145 2.916-4.709 6.073-.328-.009-.656-.021-.982-.03a228.374 228.374 0 0 0-12.164-.021c-2.195-2.598-4.758-4.537-7.986-5.518-4.447-1.351-9.408.761-13.375 3.104-8.434 4.986-15.439 12.766-23.166 19.159-.516.124-1.072.605-1.59 1.28a66.311 66.311 0 0 1-3.877 2.855c-2.004 1.355-2.906 8.003.375 6.081a62.447 62.447 0 0 0 2.303-1.425l.062.167a6.755 6.755 0 0 0-.256.392 10.633 10.633 0 0 0-1.387 7.354c2.359 13.971 8.24 16.481 17.953 24.441 8.949 7.336 20.271 9.674 30.834 8.68 7.713-.727 15.273-3.223 22.224-7.226 6.283 1.646 12.811-.282 18.59-6.194 8.729-8.935 13.467-13.803 12.906-27.686 2.595-.814-2.827-18.744-6.187-20.576zm-78.984 45.716a66.79 66.79 0 0 0 6.023 5.601 36.256 36.256 0 0 1-6.023-5.601z"/><path d="M561.721 598.819c-.947 9.333-4.186 17.735-10.1 24.438-7.49 8.49-17.711 12.679-27.596 14.573-20.496 3.931-45.292-3.095-58.839-23.589-3.725-5.635-6.139-12.166-7.406-19.086a1141.59 1141.59 0 0 0-4.912-.795c4.846 52.355 66.998 66.872 97.71 37.448 8.699-8.335 14.064-20.253 15.359-33.323-1.404.129-2.808.24-4.216.334z"/><path d="M437.264 593.219c12.652 12.521 25.33.799 36.014-9.156 5.342-4.98 10.963-10.358 17.717-11.861 8.598-1.915 14.748 6.394 20.104 13.229 2.039 2.604 4.805-3.602 3.555-5.911-4.32-7.974-11.539-14.863-19.604-14.907-6.891-.039-13.207 4.94-18.586 9.725-10.893 9.687-23.074 25.177-36.688 12.812-1.789-1.627-4.318 4.281-2.512 6.069z"/><path d="M513.584 584.988c5.808-6.832 12.732-12.246 21.031-10.183 6.393 1.591 11.945 7.462 16.857 12.384 10.131 10.15 21.959 20.998 34.479 9.311 1.195-1.118 2.102-2.87 1.984-4.797-.102-1.641-1.234-2.357-2.371-1.488-5.914 4.521-11.646 5.207-17.926 1.377-6.135-3.744-11.217-9.855-16.611-14.941-5.104-4.812-10.781-9.098-17.34-9.684-8.455-.757-15.896 5.988-21.521 12.995-1.755 2.184-1.427 8.373 1.418 5.026zM488.68 603.7c7.842 6.288 17.035 12.999 27.619 11.465 7.992-1.159 14.65-7.867 21.064-12.21 2.424-1.641 3.303-8.901-.482-6.357-5.781 3.885-11.295 9.216-18.127 11.141-9.582 2.699-19.73-5.217-26.718-10.623-2.303-1.784-5.803 4.62-3.356 6.584z"/><path d="M532.832 607.16c9.922.237 21.641 1.348 30.439-4.224 1.768-1.119 3.982-8.015.213-6.64-9.342 3.403-18.553 3.502-28.393 3.68-2.976.054-5.755 7.099-2.259 7.184zm-37.042-9.951c-5.148-.713-10.559-.01-15.758-.279-5.984-.311-11.213-2.132-16.975-3.293-2.965-.6-5.064 5.326-2.895 7.062 4.043 3.231 11.086 3.555 16.031 3.834 5.896.332 12.418.427 18.184-1.009 2.053-.511 4.543-5.88 1.413-6.315z"/><path fill="#EAA286" d="M593.549 577.042c2.824 2.293 5.406 4.478 7.152 7.759 1.799 3.383 2.338 7.151 3.09 10.849.373 1.834 2.539 1.778 3.779 1.015 2.184-1.348 3.369-4.04 3.33-6.537-.123-7.823-4.854-20.688-14.559-19.895-2.737.222-5.202 4.853-2.792 6.809zm-160.293-3.333c-2.824 2.293-5.406 4.478-7.152 7.759-1.799 3.383-2.338 7.151-3.09 10.849-.373 1.834-2.541 1.778-3.779 1.015-2.184-1.348-3.369-4.04-3.33-6.537.123-7.823 4.854-20.688 14.559-19.895 2.738.222 5.201 4.853 2.792 6.809z"/></svg>