<svg xmlns="http://www.w3.org/2000/svg" xmlns:xlink="http://www.w3.org/1999/xlink" width="1030" height="1030" viewBox="0 0 1030 1030"><defs><path id="a" d="M1020.379 515.001c0 279.116-226.266 505.377-505.379 505.377-279.111 0-505.377-226.264-505.377-505.377S235.888 9.622 515 9.622c279.113 0 505.379 226.266 505.379 505.379z"/></defs><use xlink:href="#a" overflow="visible" fill="#0C7FF2"/><clipPath id="b"><use xlink:href="#a" overflow="visible"/></clipPath><g clip-path="url(#b)"><circle fill="#22A1FF" cx="516.036" cy="517.214" r="505.378"/><path fill="#0C7FF2" d="M64.591 301.339c65.699-60.768 147.473-101.363 226.168-142.395 40.814-21.281 80.746-43.73 120.539-66.854 43.205-25.11 87.469-49.598 136.053-62.561-.955-12.573-1.91-25.146-2.863-37.722C469.49 62.959 382.009 118.798 296.63 176.392c-43.967 29.658-87.432 59.996-129.213 92.682-20.033 15.672-39.123 32.311-60.043 46.828-21.764 15.1-44.412 28.883-66.553 43.408-20.463 13.422-40.42 27.701-58.93 43.736-7.094 6.145-11.697 17.172-10.986 26.521.547 7.209 5.93 13.975 13.848 11.201 98.168-34.395 184.332-95.652 268.734-154.941 42.164-29.617 84.252-59.422 128.115-86.496 19.998-12.34 40.242-24.096 59.857-37.072 21.045-13.92 41.816-28.24 62.965-42.002 37.358-24.313 76.481-48.122 120.034-59.315l-6.715-33.351c-3.625 4.497-11.992 11.267-18.965 15.919-10 6.67-20.648 12.364-31.156 18.178-23.027 12.742-45.092 27.219-67.553 40.936-51.305 31.332-102.533 62.798-153.852 94.112-51.111 31.189-102.326 62.211-153.791 92.816-45.84 27.264-92.238 53.613-137.738 81.449-57.197 34.992-113.604 73.15-161.328 120.578-6.828 6.785-11.732 16.689-10.986 26.522.559 7.365 5.898 13.779 13.85 11.197 51.945-16.86 99.75-43.608 147.504-69.637 50.273-27.404 102.162-51.781 153.584-76.934 106.725-52.205 213.545-104.201 320.028-156.9 43.588-21.572 87.408-42.348 128.738-68.076 36.969-23.018 73.674-48.996 115.463-62.538-.955-12.575-1.908-25.146-2.865-37.721-32.514 34.457-76.607 55.146-117.219 78.288-50.043 28.516-97.459 62.322-145.696 93.779-48.672 31.74-97.557 62.699-143.461 98.404-36.26 28.201-71.637 58.477-113.41 78.262-71.922 34.064-163.473 55.527-201.33 135.065-3.076 6.463-5.365 14.316-2.91 21.4 1.744 5.041 7.496 9.096 12.934 6.59 100.086-46.102 193.518-104.333 287.449-161.588 46.518-28.354 93.289-56.324 141.229-82.227 49.124-26.541 100.223-49.029 149.866-74.543 51.182-26.305 101.262-54.686 151.102-83.428-.984-12.997-1.971-25.993-2.959-38.989-89.506 66.28-184.818 124.036-280.237 181.28-95.316 57.186-189.701 115.121-280.916 178.699C148.345 533.631 70.7 560.08 20.878 624.455c-8.809 11.385-11.102 42.221 10.986 31.383 208.225-102.162 408.939-218.581 611.709-330.956 81.107-44.949 162.6-89.213 245.033-131.684l-2.959-38.99C684.77 269.933 489.943 395.937 300.087 528.916 223.16 582.795 147.083 637.887 71.74 693.959c-9.188 6.834-16.062 17.879-15.16 29.76.734 9.699 9.59 15.234 18.119 9.229 43.633-30.725 91.014-55.527 138.016-80.6 48.867-26.062 96.422-53.965 143.455-83.205 97.824-60.819 193.596-125.836 295.819-179.225 79.945-41.754 155.398-91.652 236.617-131.035l-7.131-35.752C726.443 362.757 545.963 469.949 368.333 577.764c-93.445 56.721-186.838 113.711-276.602 176.168-9.32 6.482-16.045 18.146-15.162 29.758.801 10.539 9.316 14.158 18.121 9.23 202.516-113.373 408.092-221.234 609.108-337.293 82.609-47.693 164.387-96.848 244.781-148.195-3.662-10.461-7.324-20.92-10.984-31.381-4.996 7.51-10.377 14.715-16.098 21.688-5.041 6.146-10.836 12.268-18.375 19.709-14.123 13.939-29.66 26.809-45.09 38.273-35.396 26.297-73.572 48.73-112.08 70.107-37.449 20.789-75.582 40.312-113.117 60.945-42.605 23.422-83.598 49.659-124.551 75.827-65.34 41.754-130.41 84.797-198.977 121.15-60.084 31.859-124.109 59.162-173.205 107.688-6.838 6.764-11.73 16.707-10.986 26.523.623 8.162 5.797 12.764 13.852 11.197 27.105-5.266 51.928-18.041 75.645-31.758 24.854-14.379 49.684-28.811 74.537-43.193a10577.434 10577.434 0 0 0 152.23-89.771c49.531-29.771 100.038-57.949 150.668-85.822 50.375-27.729 102.131-51.93 153.662-77.323 67.275-33.148 131.119-72.729 197.158-108.184l-10.984-31.383c-5.504 7.191-9.135 10.836-17.041 18.057-7.75 7.076-15.977 13.311-24.516 19.367-18.807 13.338-38.713 25.094-58.617 36.699-43.184 25.18-85.117 51.793-126.223 80.276-91.951 63.715-180.732 131.846-272.467 195.852-62.605 43.68-127.018 85.396-195.645 119.062l2.959 38.99c48.338-27.514 98.725-51.109 148.234-76.385 25.086-12.807 49.887-26.168 74.098-40.57 24.189-14.391 46.895-30.896 69.809-47.201 23.254-16.545 46.578-32.994 70.564-48.467 23.51-15.166 48.086-28.535 72.547-42.078 48.809-27.02 97.928-53.479 146.338-81.209 61.396-35.17 121.518-72.686 178.059-115.307-3.662-10.461-7.324-20.922-10.984-31.383-59.982 69.826-146.119 119.633-225.498 166.94-91.051 54.27-181.006 110.707-269.409 169.205-41.195 27.26-81.383 55.869-121.203 85.092-39.395 28.912-78.959 57.73-121.234 82.346-9.594 5.584-15.99 18.822-15.16 29.76.842 11.066 9.201 13.475 18.119 9.23 100.961-48.053 196.105-107.057 291.247-165.518 47.797-29.371 95.674-58.625 144.385-86.461 47.674-27.236 96.568-52.016 145.609-76.668 75.025-37.713 150.203-76.055 218.389-125.428-2.375-11.916-4.754-23.834-7.131-35.752-33.609 33.213-76.088 55.6-117.895 76.721a4036.555 4036.555 0 0 0-133.637 70.689c-99.297 54.92-199.127 109.008-295.387 169.178-39.695 24.814-79.178 50.248-116.168 78.982-32.521 25.264-64.553 53.299-102.398 70.432-8.953 4.053-15.02 11.32-17.994 20.764-1.854 5.885-3.031 24.238 8.273 22.727 45.449-6.074 87.678-22.926 128.725-42.801 43.947-21.275 85.809-46.648 127.571-71.857 92.4-55.777 188.994-103.604 284.82-153.168 30.955-16.012 61.799-31.99 92.061-49.283 29.732-16.988 59.461-33.979 89.189-50.967 9.617-5.496 15.986-18.893 15.16-29.76-.803-10.574-9.309-14.111-18.121-9.229-104.188 57.711-206.854 118.117-308.766 179.746-51.145 30.928-102.088 62.186-152.947 93.582-44.668 27.574-85.542 60.625-129.553 89.188-21.203 13.758-43.262 26.518-67.016 35.328-.436 13.654-.871 27.307-1.309 40.959C503.589 874.062 701.895 821 881.025 728.062c47.312-24.547 93.094-52.107 136.094-83.643 9.217-6.758 16.059-17.939 15.16-29.76-.76-9.986-9.484-14.867-18.119-9.23-189.895 124.01-375.484 255.295-574.295 364.99a2766.709 2766.709 0 0 1-59.695 31.967l7.133 35.754c73.348-58.311 162.889-92.969 248.28-129.314 44.957-19.135 89.818-38.74 132.914-61.834 22.314-11.959 44.49-24.162 66.002-37.533 23.461-14.584 46.564-29.752 71.244-42.24l-14.291-26.021c-3.254 5.631 2.838-4.268-.768 1.27-1.092 1.674-2.266 3.293-3.438 4.908-1.197 1.658-2.473 3.258-3.742 4.857-.225.285-4.666 5.494-1.594 2.025-6.42 7.244-13.553 13.844-20.877 20.158-14.344 12.363-31.18 23.662-48.141 34.453-35.631 22.668-73.098 42.25-109.025 64.42-39.857 24.596-76.527 54.363-114.17 82.133-42.475 31.336-86.008 61.83-133.524 85.105-8.504 4.164-17.229 7.84-26.043 11.295.955 12.572 1.908 25.146 2.865 37.721 61.736-53.27 143.856-80.492 220.313-108.336 80.787-29.418 162.883-61.465 226.771-120.971 7.469-6.955 14.518-14.354 21.268-22.004 7.162-8.119 13.979-19.857 10.07-31.133-3.469-10.01-15.477-8.066-21.375-1.381-114.23 129.438-307.65 132.047-443.067 231.178a404.904 404.904 0 0 0-25.289 20.133c-7.098 6.125-11.693 17.184-10.986 26.521.529 6.965 5.992 14.281 13.852 11.197 97.135-38.068 176.129-109.004 260.493-168.246 66.982-47.033 147.926-76.377 205.264-136.568 10.398-10.916 19.23-22.635 26.766-35.684 7.102-12.287 4.061-35.307-14.291-26.021-23.682 11.984-45.959 26.396-68.42 40.475-22.416 14.051-45.568 26.729-68.83 39.299-42.02 22.707-85.975 41.566-129.891 60.244-90.248 38.377-182.229 75.838-259.649 137.379-7.225 5.744-11.672 17.469-10.984 26.521.818 10.785 9.258 13.842 18.119 9.23C584.75 936.471 771.74 806.557 960.965 681.344a11056.22 11056.22 0 0 1 56.154-36.924l-2.959-38.99C850.09 725.75 651.65 782.422 469.115 867.285c-48.148 22.383-95.299 46.992-140.352 75.131-8.23 5.139-13.766 14.977-14.994 24.479-1.041 8.055 3.029 20.432 13.686 16.479 48.654-18.045 91.17-48.992 132.91-79.127 45.078-32.543 91.93-61.576 139.313-90.627 101.836-62.436 204.242-123.967 307.943-183.264a7368.069 7368.069 0 0 1 86.652-48.766c-.986-12.996-1.973-25.994-2.961-38.988-51.545 29.457-102.699 59.619-155.438 86.898l-161.336 83.449c-43.93 22.723-87.301 45.754-129.695 71.244-41.772 25.119-83.297 50.701-126.524 73.279-41.221 21.529-86.023 41.922-132.549 48.141-3.242 14.498-6.48 28.992-9.721 43.49 47.463-21.484 85.908-55.805 127.178-86.811 44.623-33.523 92.953-62.742 140.678-91.576 96.973-58.588 197.006-111.869 295.912-167.064 73.6-41.076 157.643-70.725 218.6-130.965 6.842-6.76 11.732-16.707 10.988-26.521-.729-9.59-9.637-15.373-18.121-9.229-88.588 64.145-188.59 109.528-285.451 159.374-99.426 51.166-193.672 111.625-289.092 169.73-73.314 44.645-147.525 88.053-225.086 124.969l2.959 38.99c49.188-28.641 94.676-62.945 140.545-96.504 46.477-34 94.137-66.236 142.512-97.467 87.035-56.191 175.35-110.047 263.912-163.752 74.689-45.295 149.064-94.295 206.426-161.077 5.668-6.596 9.145-18.316 6.217-26.76-2.553-7.371-11.105-9.217-17.203-4.621-89.627 67.564-188.064 121.633-286.238 175.512-49.328 27.072-98.404 53.916-144.787 85.881-23.354 16.09-46.291 32.775-69.502 49.068-23.09 16.205-47.426 30.418-72.158 43.965-61.564 33.727-125.93 62.053-186.961 96.791-9.621 5.477-15.982 18.906-15.16 29.76.834 10.973 9.219 13.596 18.119 9.23 98.893-48.512 189.043-113.176 277.803-177.873 89.326-65.107 177.654-132.873 271.783-191.008 55.475-34.264 120.367-62.551 160.973-115.646 5.391-7.049 9.266-17.969 6.219-26.764-2.84-8.195-10.652-8.139-17.203-4.619-49.32 26.479-97.432 55.121-146.602 81.871-49.906 27.152-102.033 49.65-152.422 75.84C537.59 565.52 438.343 626.223 337.974 685.061a11479.568 11479.568 0 0 1-97.148 56.283c-30.902 17.713-60.723 37.979-96.279 44.889.955 12.572 1.908 25.146 2.865 37.721 33.756-33.367 76.162-55.738 118.041-77.182 45.688-23.389 90.238-48.037 134.127-74.68 87.6-53.174 171.682-111.857 262.073-160.352 54.957-29.484 110.543-57.98 162.961-91.898 49.711-32.166 98.854-70.182 131.992-120.016 5.023-7.557 9.406-17.564 6.219-26.762-2.701-7.791-10.855-8.676-17.203-4.621-195.873 125.1-399.875 236.654-603.807 347.893-83.529 45.561-167.061 91.117-250.082 137.596.984 12.996 1.971 25.992 2.959 38.988 170.948-118.941 354.395-218.406 528.24-332.895 94.264-62.08 185.904-128.777 269.848-204.379 7.025-6.328 11.707-17.035 10.988-26.521-.836-11.01-9.213-13.551-18.121-9.23-51.248 24.848-100.295 53.832-149.523 82.395-49.637 28.801-100.666 55.02-150.332 83.75-99.657 57.645-195.211 122.086-293.78 181.536-72.496 43.725-150.875 77.518-220.271 126.385l2.959 38.988c185.014-137.684 374.572-269.338 569.659-392.374 80.436-50.727 161.85-99.902 244.248-147.373 9.607-5.535 15.988-18.861 15.162-29.76-.822-10.816-9.252-13.8-18.121-9.23C679.471 260.431 479.433 377.96 275.685 488.664c-81.457 44.258-163.553 87.354-246.781 128.186 3.66 10.463 7.322 20.924 10.984 31.383 25.775-33.307 66.303-56.533 103.787-77.646 19.877-11.199 39.891-22.158 59.18-34.357 21.949-13.881 42.736-29.655 64.246-44.204 92.357-62.463 188.979-118.262 284.292-176.012 77.074-46.703 153.373-94.857 225.836-148.518 9.199-6.81 16.062-17.9 15.162-29.76-.793-10.436-9.346-14.29-18.121-9.229-48.863 28.18-97.979 55.931-148.078 81.868-49.613 25.688-100.764 48.178-150.026 74.561-96.332 51.594-187.564 112.021-281.984 166.92-45.945 26.715-92.725 52.252-141.018 74.499l10.023 27.99c.941-1.982 1.92-3.936 2.938-5.881.277-.531 3.928-6.721 1.068-2.127 2.277-3.658 4.846-7.125 7.492-10.52.168-.215 4.738-5.59 1.715-2.197 1.438-1.611 2.949-3.156 4.457-4.703 3.551-3.637 7.363-7.008 11.246-10.285 4.773-4.026 12.174-9.079 19.404-13.62 8.459-5.309 17.279-10.025 26.193-14.51 34.469-17.342 71.242-29.699 106.113-46.215 43.148-20.439 79.836-52.666 117.23-81.818 44.834-34.949 93.141-64.875 140.711-95.896 48.038-31.33 95.284-64.805 145.125-93.205 42.926-24.462 88.732-46.938 123.102-83.36 6.684-7.084 11.75-16.467 10.986-26.521-.559-7.366-5.896-13.776-13.85-11.199-49.908 16.174-93.238 47.806-137.6 74.86-48.914 29.833-102.049 53.27-153.393 78.592-106.676 52.613-213.65 104.619-320.469 156.941-43.396 21.256-86.617 42.541-129.029 65.713-40.359 22.049-80.934 43.732-124.822 57.98.953 12.574 1.908 25.146 2.863 37.721 72.18-71.733 163.498-120.633 250.486-171.76 103.367-60.754 205.49-123.592 307.752-186.184 31.838-19.491 63.288-39.893 95.543-58.648 28.137-16.359 57.43-30.229 78.303-56.136 6.779-8.413 13.279-38.49-6.717-33.35-47.432 12.189-90.469 38.453-131.143 64.924-21.107 13.74-41.834 28.054-62.84 41.949-19.621 12.977-39.934 24.667-59.938 37.013-88.902 54.875-170.566 120.623-260.033 174.66-39.996 24.156-81.582 45.803-125.748 61.277l2.863 37.721c39.104-33.879 85.59-57.93 127.51-87.984 21.174-15.182 40.629-32.547 61.215-48.488 20.629-15.977 41.773-31.277 63.117-46.279 86.076-60.504 176.02-115.531 257.793-182 18.233-14.82 35.915-30.312 52.961-46.484 6.924-6.571 11.721-16.852 10.986-26.521-.586-7.715-5.842-13.337-13.852-11.199C503.624-.24 458.106 24.438 414.132 49.748c-40.959 23.574-81.777 46.956-123.684 68.825-82.873 43.245-167.969 86.253-237.164 150.255-7.75 7.166-13.725 20.59-10.072 31.133 3.692 10.636 15.034 7.251 21.379 1.378z"/></g><path fill="#D8724A" d="M387.453 718.172h-.002l-.002.006z"/><path fill="#FFE5B8" d="M736.189 375.168c-.545.188-1.098.378-1.643.563v-.101l-.35.222c-13.244 4.554-21.791 3.767-30.186 2.07 1.621-5.735 2.863-11.643 3.793-17.629.768-.025 1.57-.299 2.268-.762 3.012-1.998 4.689-6.031 4.613-9.746-.23-10.979-1.123-21.944-2.777-32.729-17.406-8.31-35.289-15.624-53.646-21.749-77.156-25.743-162.864-29.881-241.186-6.229-35.348 10.674-67.578 31.341-90.043 60.904-14.215 18.705-24.15 39.938-30.072 62.354a200.645 200.645 0 0 0 15.273-2.466c-6.143 3.272-11.824 6.655-17.143 10.19-9.471 42.879-5.764 58.482-4.52 33.791.053-1.049-1.688 1.054-1.637 0 .549-10.874 1.873-21.729 4.088-32.396-.703.481-1.402.964-2.092 1.451-7.684 5.427-13.221 15.143-14.447 25.359-.547 4.56.002 11.342 3.355 15.447 1.785 2.186 4.197 3.342 7.023 3.342 17.434-.079-9.723 9.699 10.1 6.517-22.596 10.472-.625 10.585-23.373 24.361-8.561 5.183-13.473 16.503-14.541 25.423-.709 5.902.539 11.475 3.338 14.904 2.674 3.277 6.637 4.451 11.203 3.281 18.639-4.758 34.994-9.08 50.018-13.234a1698.5 1698.5 0 0 0-10.961 5.09l-.967.258-.031.229c-9.547 4.887-16.309 15.145-17.736 27.018-.707 5.91.535 11.498 3.352 14.943 2.682 3.283 6.617 4.445 11.172 3.24l1.957-.527c-.404.225-.895.449-1.297.674l-.375.053v.057c0 .568-1.854 1.133-2.869 1.699-8.117 4.52-13.309 16.223-14.418 25.451-.709 5.916.555 11.516 3.383 14.979 2.686 3.289 6.639 4.438 11.184 3.203a665.493 665.493 0 0 0 28.969-8.609c-6.941 7.271-13.023 22.805-10.658 32.547 1.559 6.41 6.533 9.422 13.904 8.279a364.258 364.258 0 0 0 20.586-3.799c-2.674 4.529-4.445 9.746-5.086 15.082-.529 4.395.1 11.055 3.611 15.352 2.734 3.35 6.678 4.363 11.072 2.793 3.139-1.125 6.281-2.246 9.426-3.357a38.446 38.446 0 0 0-6.672 17.387c-.723 6.025.387 11.182 3.129 14.539 2.613 3.199 6.58 4.473 11.297 3.65.625-.109 1.25-.254 1.873-.365l.119-.213c6.355-1.115 12.721-2.502 19.096-3.645-3.346 8.055-5.016 17.188-1.795 22.975.893 1.609 2.465 2.898 5.16 3.51 1.086.449 2.357.691 3.834.693h.047c5.01-.01 10.035-.084 15.072-.201 9.623.082 19.188.1 28.58-.516.57 5.273 3.023 10.211 7.021 12.113 11.348 5.391 24.07 8.125 37.809 8.125 29.262 0 58.942-12.342 78.721-21.625 37.615-17.654 71.699-40.818 102.932-63.225l.867-.525-.006-.113c8.936-6.877 14.572-19.188 13.789-30.312-.551-7.822-4.994-12.877-11.311-12.877-.408 0-.82.021-1.234.066 10.098-8.699 18.555-18.131 25.637-28.559 4.893-7.209 9.014-18.344 5.912-27.982-1.309-4.061-4.049-6.812-7.57-7.742 1.84-1.756 3.65-3.535 5.406-5.32 7.092-7.193 11.236-18.006 10.564-27.541-.459-6.475-4.482-13.355-11.041-13.355-1.264 0-2.562.268-3.867.797a2060.54 2060.54 0 0 1-6.008 2.422c6.947-5.256 12.1-14.704 13.281-24.529.551-4.612-.385-11.449-3.75-15.572-2.762-3.378-6.695-4.312-11.002-2.546-.516.212-1.039.424-1.562.637l.012-.306-1.145.763c-.84.338-1.691.678-2.549 1.017a336.704 336.704 0 0 0 17.047-15.629c5.523-5.429 9.418-13.652 10.422-21.997.59-4.928-.219-11.625-3.363-15.477-.875-1.068-1.9-1.892-3.059-2.449a783.52 783.52 0 0 0 16.816-10.304c8.57-5.403 13.467-16.653 14.518-25.407.697-5.78-.705-11.779-3.566-15.287-2.725-3.339-6.671-4.378-11.095-2.868zm-317.557-44.39c.871-.419 1.748-.841 2.623-1.26l.131.345c-.92.304-1.84.606-2.754.915zm88.219-3.384a21.627 21.627 0 0 0-.186-2.153c3.984 2.356 7.881 4.892 11.704 7.498a594.852 594.852 0 0 1 4.594 3.17c-5.744-2.719-11.122-5.523-16.112-8.515zm158.116 47.674a76.857 76.857 0 0 0 2.732-3.231c.443 1.068.873 2.143 1.311 3.215-1.119.002-2.504.007-4.043.016z"/><path fill="#FFBF1F" d="M684.52 655.555l.098-.236c-.091.177-.116.243-.098.236z"/><path fill="#163663" d="M737.34 932.4c-7.814-31.555-20.885-61.936-38.92-88.582a204.306 204.306 0 0 0-4.039-7.826c-.191-5.92-2.057-11.154-6.986-12.002-4.459-7.162-9.244-14.043-14.176-20.58-25.934-34.383-60.811-57.084-103.15-65.539-43.482-8.689-88.979-1.525-132.026 6.275-38.467 6.973-79.912 11.613-112.137 35.727-11.324 8.473-20.441 18.486-27.93 29.562a143.466 143.466 0 0 0-14.494 16.703 132.375 132.375 0 0 0-2.566 3.605c-9.215 11.26-18.09 22.82-27.301 33.912-5.883 7.082-10.701 21.811-4.17 29.965 1.945 2.432 4.191 3.459 6.525 3.559-1.164 8.432-1.789 16.957-1.951 25.49-1.797 3.213-2.75 6.912-2.092 9.795-2.932 5.211-3.842 12.055.404 14.93a248.71 248.71 0 0 0 2.707 1.797c.805 3.604 3.082 4.381 5.658 3.613.391.24.783.477 1.176.715 1.467 3.01 4.141 4.994 8.506 4.977 10.473 5.854 21.34 10.982 32.479 15.504a26.03 26.03 0 0 0 .053 2.643c.6 7.885 5.717 12.754 13.633 11.021a165.957 165.957 0 0 0 14.027-3.738c18.75 5.896 37.947 10.449 57.051 14.184 42.211 8.252 86.094 12.258 129.055 13.459 52.557 1.469 135.502-4.096 175.08-46.432a556.193 556.193 0 0 0 36.473-14.852c6.632-2.974 10.9-10.662 9.111-17.885zm-45.77-18.367a89.913 89.913 0 0 0 5.879-9.418c.283 2.525.455 5.057.506 7.582a278.23 278.23 0 0 0-6.385 1.836zm-381.987 30.571c9.52-5.137 18.637-11.07 27.338-16.994 1.334-.908 2.646-1.844 3.973-2.768-8.635 6.992-16.812 14.459-24.328 22.572a193.344 193.344 0 0 1-6.983-2.81zm206.094-173.909c-9.729 4.371-19.219 9.316-28.523 14.559 3.781-4.268 6.715-9.207 8.275-14.668 6.758-.104 13.512-.092 20.248.109zm71.237 12.117c-10.412 6.471-20.977 12.682-31.58 18.82 3.807-6.994 7.045-14.35 9.553-22.131a24.75 24.75 0 0 0 .742-2.902c7.166 1.643 14.266 3.688 21.285 6.213zM280.517 897.227a245.59 245.59 0 0 0 5.773-2.799 189.202 189.202 0 0 0-7.484 10.035c.521-2.396 1.049-4.789 1.586-7.18.041-.021.084-.039.125-.056zm117.986-15.676c21.059-15.65 43.93-28.9 66.164-42.787 13.98-8.734 28.178-17.188 42.979-24.287a317.599 317.599 0 0 1-3.938 3.479c-9.109 7.908-16.357 13.068-27.238 20.518-11.512 7.879-23.375 15.246-35.285 22.506-24.662 15.023-51.195 29.303-75.814 45.883 11.048-8.435 21.984-17.027 33.132-25.312zm110.555-11.139c-15.242 10.324-30.914 19.973-46.674 29.48 20.273-15.287 41.201-28.504 63.282-41.064a671.654 671.654 0 0 1-16.608 11.584zm-59.949 87.762c-4.08 2.805-7.629 6.674-10.236 11.102-4.242-.277-8.48-.58-12.719-.92a5405.488 5405.488 0 0 0 22.955-10.182zm230.565-86.94a157.704 157.704 0 0 0 5.32-7.947 223.494 223.494 0 0 1 1.83 4.178 336.648 336.648 0 0 0-7.15 3.769zm-42.725-27.422a473.154 473.154 0 0 0 10.828-13.072c1.723-2.156 3.262-4.746 4.475-7.547a210.399 210.399 0 0 1 9.258 9.254 405.881 405.881 0 0 0-24.561 11.365zm-7.627-39.146c-7.109 4.76-13.822 10.029-20.383 15.498 4.527-6.646 8.656-13.562 12.309-20.771a189.296 189.296 0 0 1 8.074 5.273zM504.085 966.418a185.827 185.827 0 0 0-5.271 5.521c-1.111-.029-2.223-.064-3.332-.096a860.9 860.9 0 0 0 8.603-5.425z"/><path fill="#FFE5B8" d="M555.111 731.285a41.911 41.911 0 0 0-2.461-1.035c-1.244-4.205-3.002-8.404-5.291-12.609-5.365-9.857-19.256 1.664-22.883 6.562a40.322 40.322 0 0 0-2.09 3.133c-7.983.797-15.836 2.443-22.817 4.174-15.502 3.848-31.826 13.441-39.445 27.385a57.226 57.226 0 0 0-.678-.725c-1.418-1.5-2.613-3.184-3.73-4.912.729 1.068-1.014-2.062-1.156-2.4-.602-1.414-1.033-2.893-1.467-4.365-.07-.238-.131-.438-.186-.615-.027-.285-.074-.68-.15-1.232-.238-1.729-.295-3.479-.355-5.219-.008-.201-.016-.379-.021-.545.053-.318.121-.879.203-1.795.189-2.045.555-4.07.918-6.09 1.52-8.525-3.229-19.33-13.473-16.217-10.93 3.318-43.918 33.91-45.768 44.287-3.174 17.795 2.814 54.586 13.889 69.451 9.15 12.279 51.939 45.881 66.672 47.225 14.078 1.287 84.549-13.586 97.231-19.445 1.963-.586 32.398-57.533 34.262-58.338 0 0-10.02-47.227-25.928-44.449 4.213-5.432-26.084 11.035-23.217 4.91 3.287-7.025 7.801-22.569-2.059-27.136z"/><path fill="#EAA286" d="M544.457 751.506c-15.719 8.699-33.915 12.09-51.758 11.492-17.793-.59-37.703-4.922-48.545-20.279-3.357-4.756-8.994 7.062-7.932 10.275 14.002 42.447 68.791 47.406 104.018 29.768 7.385-3.699 12.035-12.227 13.105-20.209.651-4.852-1.55-15.108-8.888-11.047z"/><path d="M291.775 876.4c9.385.826 20.355 4.305 24.488 13.617 3.811 8.59 3.627 19.482 3.434 28.699-.225 10.436-1.773 20.854-2.838 31.225-.803 7.807-3.664 20.496 1.205 27.307 5.074 7.098 12.58-8.779 13.08-12.07 1.445-9.527-.301-20.197-.039-29.92.299-11.059.654-22.156-.754-33.158-1.189-9.275-4.666-17.154-11.465-23.643-7.465-7.117-17.365-6.379-26.664-4.104-.599.151-1.361 1.967-.447 2.047zm340.475 4.788c2.338 8.066 5.936 15.619 8.816 23.506 3.469 9.488 5.346 19.461 7.23 29.355 3.842 20.162 5.346 40.758 8.359 61.053.148 1.004.4 3.158 1.77 3.445.402.084.809.168 1.211.254 2.518.527 4.57-1.959 5.445-4.09 3.645-8.891.373-19.287-.777-28.586-1.422-11.486-3.32-22.912-5.586-34.266-2.236-11.203-5.369-22.156-9.803-32.695-3.273-7.781-7.412-16.363-15.943-19.074-.49-.158-.824.74-.722 1.098z"/><path d="M667.928 851.023c-13.236 4.848-24.699 12.621-33.652 23.555-1.494 1.822-2.908 4.578-2.148 7.012.971 3.113 4.094.279 5.111-1.117 7.701-10.605 18.076-18.24 29.914-23.691 1.808-.833 3.742-6.843.775-5.759z"/><path fill="#FF8A0B" d="M391.098 812.112c.25-.007.484.012.727.074l-.676-.175c.218.07.407.168.585.313l-.534-.439c.162.147.289.312.393.506l-.347-.645c.093.19.159.387.201.594l-.159-.8c.014.077.027.154.03.232.035.716.348 1.521 1.024 1.865.69.352 1.495.112 2.111-.268.854-.526 1.511-1.359 1.961-2.243.487-.956.63-1.853.663-2.905a4.202 4.202 0 0 0-.388-1.829c-.613-1.316-1.615-2.093-3.095-2.209-.843-.066-1.687.492-2.265 1.038-.8.756-1.39 1.753-1.719 2.8-.278.883-.404 1.907-.093 2.803.228.662.817 1.309 1.581 1.288z"/><path fill="#FFBF1F" d="M835.201 443.544c2.264-29.524-5.312-58.537-15.021-86.185-8.094-23.047-17.377-45.92-26.855-68.438-17.795-42.274-40.258-83.582-70.352-118.42-28.795-33.335-67.457-62.077-111.906-69.229-14.721-2.368-31.258.538-45.359 4.767-14.316 4.293-27.279 11.831-36.176 23.191-23.899-12.549-50.428-18.93-77.463-18.718-15.223-4.043-31.039-5.59-47.145-4.477-27.545 1.903-56.361 9.612-80.918 22.225-40.418 20.759-65.344 58.139-79.879 100.126-2.979 8.604-5.582 17.321-7.945 26.108-16.561 28.619-28.238 59.827-33.002 92.084a123.097 123.097 0 0 0-6.957 13.764c-7.523 17.604-10.531 36.511-8.902 55.591.742 8.66 9.553 3.046 11.812-1.497a443.231 443.231 0 0 0 4.758-9.895c.6.615 1.363 1.014 2.287 1.085a79.696 79.696 0 0 0-4.582 16.452c-2.475 2.969-3.971 6.925-4.691 10.491-11.168 55.353-10.625 111.769-7.098 167.847 2.797 44.486 7.945 88.754 12.33 133.096a675.573 675.573 0 0 1-2.279 23.906c-.445 3.9-.951 7.791-1.488 11.678a320.386 320.386 0 0 1-1.533 5.846c-1.658 6.148-3.67 12.203-5.842 18.188-2.186 6.023-3.625 9.314-6.605 15.688-3.055 6.533-6.494 12.879-10.152 19.09-2.385 4.053-3.789 11.158-.564 15.186 2.754 3.438 6.988 2.234 10.262-.137a17.2 17.2 0 0 0 .783 3.355c2.125 6.137 6.818 7.209 12.566 6.402 12.723-1.785 24.09-6.533 33.904-13.758 5.129-.158 10.344-1.689 15.52-4.311 3.355-1.699 6.332-4.123 9.264-6.439-5.188 4.098 1.709-1.361 3.062-2.59 1.264-1.148 2.469-2.361 3.658-3.588 5.701-5.873 10.891-12.277 15.824-18.803 9.344-12.354 17.93-25.254 27.664-37.314 1.059-1.311 2.137-2.607 3.213-3.904.443-.533.896-1.059 1.348-1.586a100.246 100.246 0 0 1 7.088-7.061c.422-.379 1.379-1.164 2.033-1.703a60.044 60.044 0 0 1 2.359-1.574c.432-.271.875-.523 1.32-.773.547-.221 2.328-1.02 3.1-1.26 1.076-.332 2.1-.787 3.082-1.324 3.643-.408 7.312-.688 11.014-.941 10.621-.729 21.561-.869 32.158.148 5.174.496 9.697-5.219 11.729-9.205 2.021-3.969 4.713-13.928-1.242-16.375-29.984-12.332-52.777-35.117-69.373-62.588-7.844-12.984-13.957-27.352-18.873-41.932-5.166-15.324-8.684-29.383-10.793-43.609-.836-5.648-4.025-9.93-10.27-8.305-1.873.486-3.754.93-5.648 1.326-.717.15-4.537.762-4.141.744-3.213.4-6.455.664-9.688.711-2.939.041-5.877-.191-8.781-.631-.543-.082-2.602-.541-3.074-.617a47.806 47.806 0 0 1-3.191-1.074 34.933 34.933 0 0 1-2.842-1.24c-1.434-3.002-4.244-4.697-7.406-4.742-.299-.275-.605-.545-.898-.826-1.744-1.682-3.264-3.518-4.645-5.504a47.82 47.82 0 0 1-1.957-3.102l-.033-.061a59.901 59.901 0 0 1-.906-1.854c-1.08-2.309-1.967-4.703-2.75-7.127-.4-1.24-.748-2.5-1.08-3.76-.166-.639-.316-1.281-.467-1.924l-.121-.508c-1.018-5.512-1.424-11.129-1.447-16.729-.004-.59.006-1.18.016-1.77.057-1.277.143-2.554.242-3.829a114.843 114.843 0 0 1 1.867-13.301l.115-.592c.027-.113.059-.237.094-.386a113.799 113.799 0 0 1 2.455-8.629 104.732 104.732 0 0 1 1.775-4.987c.236-.542.471-1.084.715-1.622a86.204 86.204 0 0 1 2.248-4.566c.357-.679 1.268-2.221 1.773-3.085a59.113 59.113 0 0 1 2.67-3.637c.535-.569 1.73-1.87 2.295-2.402.389-.365.797-.712 1.201-1.059a29.08 29.08 0 0 1 2.873-1.754c.438-.169.875-.334 1.32-.481.602-.2 1.215-.363 1.832-.502.281.018 2.266-.186 3.014-.16 1.137.038 2.264.203 3.379.423l.18.059c.65.207 1.285.461 1.918.719 1.348.55 2.633 1.244 3.885 1.984.672.396 1.318.833 1.961 1.273.586.4 3.387 2.635.934.604 7.117 5.89 14.361-1.744 17.861-8.089 10.211-18.512 15.922-38.721 19.148-59.409 18.121-7.848 38.473-18.581 57.207-24.753 20.453-6.737 46.186-12.4 57.207-30.352 9.512-15.488 3.58-34.041 6.844-51.685.191-1.04.369-2.083.553-3.124 3.66-3.76 7.303-7.525 10.957-11.242a569.483 569.483 0 0 0 1.814 4.988 52.242 52.242 0 0 0 4.822 15.321c.977 1.982 2.088 3.385 3.285 4.327 2.535 5.38 5.346 10.629 8.576 15.675.406.635.832 1.243 1.26 1.849 2.299 7.885 4.756 15.712 7.959 23.243 1.42 3.341 4.33 5.322 8.035 4.094 6.373-2.113 12.857-3.931 19.422-5.502 3.549.89 7.156 1.662 10.805 2.315.449 2.248.842 4.482 1.203 6.709.424 3.26.867 6.517 1.326 9.768 1.178 8.332 7.537 12.498 15.225 7.757 6.885-4.245 12.25-13.187 12.793-21.586 3.199-.013 6.389-.112 9.555-.312l-.047.285c-.854 5.229.875 12.442 7.217 12.892 15.148 1.073 32.336-.821 43.111-12.813 6.963-7.747 11.109-16.748 12.912-26.385.539-1.51.887-3.018.982-4.416 1.193-17.492 1.504-35.238.361-52.854a2168.96 2168.96 0 0 0 3.881 5.644c14.172 20.524 29.975 40.329 42.223 62.104 9.48 16.851 18.412 34.956 35.043 45.941 6.834 4.513 14.629 6.733 22.617 7.812-.182 2.652.062 5.297.846 7.821 3.357 10.827 8.848 20.855 14.518 30.623 2.797 4.819 5.766 9.539 8.672 14.294a360.5 360.5 0 0 1 4.168 7.002c.535.925 1.061 1.854 1.574 2.79-.105-.19 2.363 4.353 1.209 2.167 5.959 11.29 16.381 4.915 22.697-2.687.293-.352.59-.7.885-1.051.904-.979 1.83-1.939 2.771-2.884.457-.459.922-.913 1.393-1.362a466.021 466.021 0 0 1 6.088 23.899c2.646 11.687 4.865 25.068 6.467 38.711 1.197 10.21 1.885 20.478 2.467 30.748a36.396 36.396 0 0 1-3.748-.494c-.238-.045-.434-.08-.598-.107l-.135-.041c-1.133-.334-2.244-.74-3.348-1.164-2.654-1.023-5.195-2.328-7.66-3.74-2.627-1.502-5.131-3.217-7.566-5.01-6.959-5.115-16.34 6.764-18.803 11.596-3.102 6.088-4.926 14.576-.408 20.051-.201.795-.391 1.594-.596 2.389-1.1 4.279-2.303 8.531-3.555 12.768a429.835 429.835 0 0 1-3.959 12.604 435.545 435.545 0 0 1-1.926 5.678c-7.938 3.674-13.936 13.756-14.562 22.041-.424 5.604-.617 11.176-.641 16.729-3.674 8.156-7.602 16.205-11.707 24.148a336.77 336.77 0 0 1-7.215 13.176 273.642 273.642 0 0 1-2.848 4.811c-.297.477-.992 1.604-1.225 1.969a248.184 248.184 0 0 1-2.643 4.068 225.958 225.958 0 0 1-8.238 11.629 196.624 196.624 0 0 1-4.287 5.449c-.719.885-1.451 1.754-2.186 2.623-.236.279-.477.555-.715.832l-.271.301c-2.904 3.215-5.979 6.275-9.17 9.203a116.318 116.318 0 0 1-4.738 4.084c-.139.113-.244.201-.344.283a95.802 95.802 0 0 1-3.17 2.277c-2.033 1.412-4.15 2.705-6.307 3.93a44.092 44.092 0 0 0-13.041.266c-1.26.178-1.295.215-.109.111a16.355 16.355 0 0 0-3.748.625c-1.648.424-3.229 1.07-4.777 1.76-4.977 2.217-8.979 4.928-13.26 8.307-5.5 4.34-13.652 25.533-.877 26.199 11.191.584 21.658-1.809 31.361-6.203 1.98.74 3.887 1.662 5.766 2.623 4.428 2.264 8.535 5.131 12.471 8.152 14.336 11.002 27.926 27.52 40.154 42.141 12.01 14.357 22.312 31.092 38.836 40.816 13.932 8.201 30.02 6.631 45.252 4.098 4.453-.742 8.891-1.566 13.324-2.414.678 1.521 1.354 3.043 2.027 4.564 3.82 8.65 12.537 6.781 18.453 1.193 3.107-2.936 5.709-6.732 7.4-10.877.256-.039.51-.084.766-.125 4.779-.742 8.951-6.58 10.93-10.461 2.254-4.424 3.719-10.113 2.039-14.99a447.74 447.74 0 0 1-6.621-20.904c.938-3.771 1.016-7.631-.273-11.09a372.013 372.013 0 0 1-9.748-30.041c-2.73-13.619-4.943-27.334-6.723-41.119 7.643-5.508 11.064-14.941 11.34-24.068 1.189-39.496-.43-79.055-4.334-118.381 6.287-5.223 10.602-14.361 9.824-22.318-1.219-12.471-2.559-25.002-4.564-37.398a822.117 822.117 0 0 0-1.766-13.659c.178-1.521.332-3.036.465-4.54.232-2.619.377-5.245.471-7.873.092-2.526.176-5.056.211-7.584.021-1.55.109-7.485-.133-.972.117-3.146.098-6.283-.025-9.416 7.692-3.737 14.534-16.365 15.006-22.535z"/><path fill="#EAA286" d="M721.908 474.539a430.38 430.38 0 0 1-2.768 9.443c-5.166 16.883-1.643 33.413-8.369 49.719-1.469 33.811-23.168 67.666-39.15 96.732a198.872 198.872 0 0 1-5.512 9.406c-18.73 24.977-42.664 46.037-69.941 61.244-36.561 20.383-79.096 28.521-120.573 22.959-13.047-1.75-25.963-4.777-38.371-9.139-17.154-7.236-33.307-16.895-47.908-28.434-9.301-7.352-17.893-15.564-25.713-24.463-17.305-23.111-33.961-50.646-40.971-78.561-8.99-35.801-25.23-73.069-25.67-109.875a813.441 813.441 0 0 1 .049-22.147c-8.066 4.524 2.633 7.83-6.346 9.424-1.045 20.088-.535 40.249 1.596 60.229 4.904 45.943 18.031 93.088 43.75 131.902 40.098 60.512 111.863 98.59 184.829 92.469 37.971-3.184 73.35-18.408 103.123-41.924 22.477-17.752 40.562-39.867 54.723-64.406 12.795-18.648 23.025-39.051 30.666-60.322 5.449-15.174 9.633-31.381 12.1-47.312 2.838-18.339.736-37.09.674-55.535a4.669 4.669 0 0 0-.218-1.409z"/><path d="M384.641 754.989c-1.949 40.996 9.72 85.001 42.791 111.729 34.051 27.52 85.748 29.276 123.612 8.652 44.623-24.306 63.438-82.56 51.316-130.375-.802-3.16-4.356-3.188-6.636-1.782-3.566 2.199-6.332 7.238-5.849 11.479 2.438 21.37 3.605 41.702-3.585 62.37-5.68 16.328-17.019 30.587-32.387 40.275-35.332 22.272-88.145 19.404-120.025-7.76-28.521-24.3-39.2-63.335-38.305-99.622.062-2.523-2.122-4.442-4.573-3.697-3.354 1.018-6.197 5.312-6.359 8.731z"/><ellipse fill="#FFAD9F" cx="654.797" cy="540.486" rx="26.387" ry="25.371"/><ellipse fill="#FFAD9F" cx="356.205" cy="541.875" rx="26.387" ry="25.373"/><path fill="#EAA286" d="M292.589 478.034c-10.975-10.442-27.514-24.292-43.98-17.697-18.502 7.41-28.318 28.199-29.947 47.124-1.994 23.188 7.535 68.875 40.406 59.668 13.482-3.775 24.246-16.025 32.033-26.949 5.41-7.586 11.004-21.432 4.172-29.964-6.801-8.487-18.41.291-22.881 6.564a104.422 104.422 0 0 1-4.178 5.48c-2.648 3.23 3.818-4.182 1.086-1.242a53.905 53.905 0 0 1-1.984 1.988 44.56 44.56 0 0 1-1.947 1.742c-2.645 2.275 4.307-3.189 1.574-1.236-1.156.828-2.395 1.529-3.664 2.162 5.883-2.934 1.939-.936.145-.5-2.494.607 4.367-.457 1.865-.219-.531.051-1.068.041-1.602.031-1.566-.029-5.223-1.209.172.357-1.156-.334-2.244-.881-3.283-1.484-3.357-1.945.32.496-.025.186-.85-.756-1.607-1.613-2.338-2.484-.773-.92-1.457-1.912-2.113-2.918-.342-.523-.656-1.066-.971-1.604-1.289-2.22 2.105 4.168.467.762-1.176-2.451-2.082-5.025-2.861-7.627a61.977 61.977 0 0 1-1.045-4.094c-.67-2.973.893 4.751.354 1.748a66.173 66.173 0 0 1-.428-2.82c-.377-2.802-.531-5.627-.531-8.449-.002-3.19-.234 5.608-.084 2.446.033-.677.092-1.351.148-2.025.111-1.309.303-2.61.525-3.906.748-4.391-1.746 6.498-.246 1.34.168-.575.365-1.139.564-1.7 1.088-3.09-2.805 6.555-1.477 3.6 2.238-4.985-2.17 3.139-1.365 1.958 2.77-4.075-4.689 4.461-1.066 1.27-5.141 4.526-4.049 3.017-2.516 2.02 1.227-.794 3.68-1.712-2.449 1.028.932-.417 1.93-.66 2.928-.845-5.756 1.067-1.996.3-.193.433.611.046 1.217.151 1.82.258 2.336.403-4.068-1.271-.484-.102 3.17 1.033 6.109 2.723 8.898 4.518 1.75 1.127 3.412 2.387 5.051 3.67-3.029-2.369.141.145.617.561 1.295 1.124 2.541 2.3 3.783 3.482 7.828 7.448 17.596.579 22.881-6.562 4.831-6.532 11.812-22.698 4.169-29.969z"/><path d="M286.257 473.601c-15.676-10.304-37.545-19.569-54.641-6.971-13.809 10.176-17.543 29.827-16.551 45.901 1.061 17.156 7.969 35.726 21.529 46.869 15.02 12.34 38.145 11.18 51.74-2.869 1.141-1.178 4.998-10.285.449-9.525-8.312 1.391-15.324 6.113-23.979 6.611-7.035.4-13.674-1.859-19.516-5.662-12.184-7.936-19.074-23.432-21.336-37.317-1.863-11.456-1.566-26.62 8.166-34.678 14.264-11.813 36.633-1.653 50.477 5.492 2.846 1.466 6.354-6.079 3.662-7.851z"/><path d="M242.402 515.211c5.742-7.06 13.432-12.456 22.799-12.575 10.33-.13 12.617 9.03 16.529 16.526 1.785 3.424 5.725-4.147 5.869-5.414 1.312-11.518-4.49-22.987-17.258-23.214-12.508-.223-23.754 10.351-30.357 19.868-1.725 2.489-.875 8.862 2.418 4.809z"/><path d="M288.003 509.389c-7.445-.307-16.781-.383-22.049 5.85-5.211 6.164-4.184 15.492.285 21.789 1.914 2.699 5.051-4 4.479-5.799-.816-2.561-4.621-9.295-1.875-11.67 4.373-3.78 11.947-3.882 17.369-4.169 2.174-.117 4.473-5.89 1.791-6.001z"/><path fill="#FF7C24" d="M383.38 720.354c-29.984-12.332-52.777-35.117-69.373-62.588-7.844-12.984-13.957-27.352-18.873-41.932-5.166-15.324-8.684-29.383-10.793-43.609-.836-5.648-4.025-9.93-10.27-8.305-1.873.486-3.754.93-5.648 1.326-.717.15-4.537.762-4.141.744-3.213.4-6.455.664-9.688.711-2.939.041-5.877-.191-8.781-.631-.543-.082-2.602-.541-3.074-.617a47.806 47.806 0 0 1-3.191-1.074 34.933 34.933 0 0 1-2.842-1.24c-1.434-3.002-4.244-4.697-7.406-4.742-.299-.275-.605-.545-.898-.826-1.744-1.682-3.264-3.518-4.645-5.504a47.82 47.82 0 0 1-1.957-3.102l-.033-.061a59.901 59.901 0 0 1-.906-1.854c-1.08-2.309-1.967-4.703-2.75-7.127-.4-1.24-.748-2.5-1.08-3.76-.166-.639-.316-1.281-.467-1.924l-.121-.508c-1.018-5.512-1.424-11.129-1.447-16.729-.004-.59.006-1.18.016-1.77.057-1.277.143-2.554.242-3.829a114.843 114.843 0 0 1 1.867-13.301l.115-.592c.027-.113.059-.237.094-.386a113.799 113.799 0 0 1 2.455-8.629 104.732 104.732 0 0 1 1.775-4.987c.236-.542.471-1.084.715-1.622a86.204 86.204 0 0 1 2.248-4.566c.357-.679 1.268-2.221 1.773-3.085a59.113 59.113 0 0 1 2.67-3.637c.535-.569 1.73-1.87 2.295-2.402.389-.365.797-.712 1.201-1.059a29.08 29.08 0 0 1 2.873-1.754c.438-.169.875-.334 1.32-.481.602-.2 1.215-.363 1.832-.502.281.018 2.266-.186 3.014-.16 1.137.038 2.264.203 3.379.423l.18.059c.65.207 1.285.461 1.918.719 1.348.55 2.633 1.244 3.885 1.984.672.396 1.318.833 1.961 1.273.586.4 3.387 2.635.934.604 6.652 5.505 13.412-.804 17.127-6.831a188.082 188.082 0 0 1-6.082-11.45c-31.092-63.975-26.207-141.509-3.467-207.289 12.17-35.21 29.715-68.854 54.197-97.116 8.367-9.659 17.459-18.561 27.154-26.703-6.426 2.483-12.684 5.267-18.682 8.348-40.418 20.759-65.344 58.139-79.879 100.126-2.979 8.604-5.582 17.321-7.945 26.108-16.561 28.619-28.238 59.827-33.002 92.084a123.097 123.097 0 0 0-6.957 13.764c-7.523 17.604-10.531 36.511-8.902 55.591.742 8.66 9.553 3.046 11.812-1.497a443.231 443.231 0 0 0 4.758-9.895c.6.615 1.363 1.014 2.287 1.085a79.696 79.696 0 0 0-4.582 16.452c-2.475 2.969-3.971 6.925-4.691 10.491-11.168 55.353-10.625 111.769-7.098 167.847 2.797 44.486 7.945 88.754 12.33 133.096a675.573 675.573 0 0 1-2.279 23.906c-.445 3.9-.951 7.791-1.488 11.678a320.386 320.386 0 0 1-1.533 5.846c-1.658 6.148-3.67 12.203-5.842 18.188-2.186 6.023-3.625 9.314-6.605 15.688-3.055 6.533-6.494 12.879-10.152 19.09-2.385 4.053-3.789 11.158-.564 15.186 2.754 3.438 6.988 2.234 10.262-.137a17.2 17.2 0 0 0 .783 3.355c2.125 6.137 6.818 7.209 12.566 6.402 12.723-1.785 24.09-6.533 33.904-13.758 5.129-.158 10.344-1.689 15.52-4.311 3.355-1.699 6.332-4.123 9.264-6.439-5.188 4.098 1.709-1.361 3.062-2.59 1.264-1.148 2.469-2.361 3.658-3.588 5.701-5.873 10.891-12.277 15.824-18.803 9.344-12.354 17.93-25.254 27.664-37.314 1.059-1.311 2.137-2.607 3.213-3.904.443-.533.896-1.059 1.348-1.586a100.246 100.246 0 0 1 7.088-7.061c.422-.379 1.379-1.164 2.033-1.703a60.044 60.044 0 0 1 2.359-1.574c.432-.271.875-.523 1.32-.773.547-.221 2.328-1.02 3.1-1.26 1.076-.332 2.1-.787 3.082-1.324 3.643-.408 7.312-.688 11.014-.941 10.621-.729 21.561-.869 32.158.148 5.174.496 9.697-5.219 11.729-9.205 2.02-3.969 4.711-13.928-1.244-16.375z"/><path d="M425.171 741.023c-50.76.229-108.393.172-141.975 45.178-14.871 19.926-22.734 43.668-27.355 67.852-4.619 24.166-6.812 49.928-4.072 74.344.57 5.086 5.102-1.15 5.506-3.221 8.342-42.746 5.424-90.594 31.484-127.904 29.471-42.201 88.844-35.539 133.061-45.031 3.578-.766 8.629-11.243 3.351-11.218zm137.194 15.612c24.051-1.896 49.783-.713 72.641 7.586 20.586 7.477 36.299 22.004 49.252 39.238 13.807 18.369 21.943 39.574 29.617 61.01 7.807 21.814 14.113 44.432 18.543 67.166 1.344 6.891 10.621-4.723 9.951-9.156-7.334-48.447-15.844-97.24-45.959-137.473-13.27-17.729-32.26-31.375-53.301-38.162-26.885-8.672-54.057-3.756-79.906 5.955-.978.369-2.578 3.971-.838 3.836z"/><path fill="#FFF" d="M537.865 606.652c1.875-2.898 3.748-8.027.752-9.713-.105-.059-.213-.105-.318-.15-.004-.096-.004-.189-.01-.285-.07-1.105-.436-2.578-1.365-3.061-1.982-1.033-4.402.529-6.467 2.938-4.887-3.697-10.469-3.598-15.524-.881-.283-1.824-.744-3.697-1.406-5.689-.809-2.434-2.641-2.674-4.359-1.443a18.363 18.363 0 0 0-4.561 4.729c-.746.256-1.504.822-2.195 1.627-.256.299-.496.615-.725.951a32.452 32.452 0 0 0-1.432-4.617c-.01-.043-.02-.084-.027-.127-.006.01-.012.016-.018.023-.164-.412-.33-.824-.514-1.238-1.117-2.512-4.105-.514-5.201.76a11.617 11.617 0 0 0-1.674 2.611c-.312-.684-.633-1.369-.967-2.062-1.572-3.244-4.137-.988-5.998 2.266-.24-.318-.471-.648-.719-.961-1.861-2.363-4.133-1.113-5.855 1.367-.111-.152-.217-.303-.33-.453-2.432-3.229-5.039.426-6.289 4.346-2.164-1.918-4.42-3.674-6.795-5.193-2.139-1.367-4.922 4.703-3.254 6.49 5.24 5.604 9.957 11.672 14.139 18.438 2.322 5.123 5.252 9.809 8.828 13.779 3.42 3.795 6.674-2.092 7.74-6.652.301-.256.586-.537.857-.846.021.023.043.047.066.068 2.207 2.141 4.459-1.049 5.885-4.256.592.352 1.221.352 1.854.104.02 1.012.268 1.938.879 2.637 5.039 5.781 11.844 7.252 18.043 3.225 3.611-2.346 6.301-5.906 8.08-10.098 2.842-1.754 5.273-3.514 7.777-6.539.297-.358.703-1.126 1.103-2.095z"/><path fill="#FF617F" d="M556.494 601.094c-.346-4.688-2.848-3.863-4.928-1.693-.223-.578-.562-1.064-1.062-1.379-2.225-1.396-4.771 2.037-5.557 4.221-1.676 4.648-3.693 8.984-6.164 12.82-7.596 3.566-14.055 10.084-21.725 13.389-.553.238-1.182.779-1.805 1.494-3.688.176-7.41-.25-10.943-.977-14.316-2.945-27.723-12.123-39.793-22.264a75.711 75.711 0 0 1-4.9-7.992c4.25-3.24 8.373-6.754 12.635-9.975.316.912.959 1.613 2.029 1.924 8.832 2.572 18.094 3.072 27.141 2.469 1.426-.094 2.752-1.303 3.678-2.93 3.746-.119 7.492-.232 11.213 0 8.775.549 17.236 2.844 24.973 8.086 2.107 1.43 4.465-1.699 5.279-5.002 3.426.594 7.266-9.412 3.701-11.355-9.742-5.318-19.756-8.59-30.189-11.139-2.057-.504-4.229 2.977-4.807 6.201-.334-.01-.668-.023-1.002-.031a232.703 232.703 0 0 0-12.42-.021c-2.242-2.652-4.857-4.633-8.152-5.633-4.543-1.379-9.605.775-13.656 3.17-8.611 5.09-15.764 13.033-23.652 19.561-.525.125-1.096.617-1.623 1.307a67.127 67.127 0 0 1-3.957 2.914c-2.047 1.385-2.969 8.172.381 6.211a63.028 63.028 0 0 0 2.35-1.455c.023.057.045.113.066.17a6.316 6.316 0 0 0-.26.4 10.85 10.85 0 0 0-1.418 7.508c2.41 14.264 8.414 26.504 18.33 34.631 9.137 7.49 20.697 9.877 31.48 8.861 7.875-.742 15.594-3.291 22.692-7.377 6.414 1.682 13.078-.287 18.977-6.324 9.299-9.519 14.178-25.056 13.088-39.79zm-86.868 27.51a67.889 67.889 0 0 0 6.148 5.719 37.033 37.033 0 0 1-6.148-5.719z"/><path d="M446.402 601.844c38.695-6.174 77.583-2.279 116.25 2.111 2.688.305 5.133-7.533 2.014-7.885-39.037-4.381-78.129-7.982-117.094-.674-1.914.362-3.442 6.811-1.17 6.448z"/><path d="M537.01 601.574c-5.658 15.875-23.504 20.354-35.956 20.438l-2.107 8.252c.25-.012.504-.031.742-.123 2.072-.781 3.4-4.33 2.816-6.809-.406-1.73-2.883-1.996-4.02-2.432-3.176-1.213-6.273-2.691-9.305-4.373-7.68-4.264-15.068-10.854-16.893-21.547-.697-4.076-5.168 1.887-4.828 4.619 1.361 10.967 8.1 18.281 15.682 23.322 3.217 2.141 6.641 3.768 10.107 5.166a83.56 83.56 0 0 0 3.521 1.311c.367.129.734.256 1.102.387.982.348.16.393-.15-.877l2.816-6.811c.172-.027.344-.057.516-.086-2.77.186-5.326 8.324-2.107 8.252 15.395-.336 34.909-7.289 41.504-26.527 1.484-4.322-1.866-6.586-3.44-2.162z"/><path d="M446.48 595.131c-1.088 60.062 67.152 77.932 100.053 46.412 11.281-10.811 17.102-27.514 15.844-45.045-.318-4.43-4.273.48-4.188 3.18.404 12.791-2.869 24.381-10.59 33.133-7.65 8.67-18.084 12.945-28.176 14.879-20.926 4.014-46.243-3.16-60.073-24.084-5.939-8.982-8.633-20.193-8.658-31.676-.006-1.631-1.256-2.227-2.295-1.439-1.292.982-1.886 2.849-1.917 4.64z"/><path d="M430.843 592.465c12.916 12.783 25.861.814 36.768-9.348 5.455-5.086 11.193-10.576 18.088-12.111 8.779-1.955 15.057 6.527 20.525 13.508 2.082 2.658 4.906-3.678 3.629-6.035-4.41-8.143-11.781-15.176-20.014-15.221-7.035-.039-13.484 5.045-18.975 9.928-11.121 9.891-23.561 25.705-37.459 13.08-1.825-1.659-4.407 4.373-2.562 6.199z"/><path d="M508.763 584.062c5.93-6.977 12.999-12.504 21.471-10.396 6.527 1.623 12.197 7.617 17.213 12.643 10.342 10.363 22.42 21.439 35.201 9.506 1.221-1.141 2.146-2.93 2.023-4.896-.102-1.676-1.258-2.408-2.42-1.52-6.037 4.613-11.889 5.314-18.299 1.404-6.266-3.822-11.455-10.061-16.961-15.254-5.211-4.914-11.008-9.289-17.705-9.887-8.631-.773-16.229 6.113-21.973 13.268-1.79 2.23-1.456 8.549 1.45 5.132z"/><path fill="#FF7C24" d="M835.201 443.544c2.264-29.524-5.312-58.537-15.021-86.185-8.094-23.047-17.377-45.92-26.855-68.438-17.795-42.274-40.258-83.582-70.352-118.42-28.795-33.335-67.457-62.077-111.906-69.229-14.721-2.368-31.258.538-45.359 4.767-14.316 4.293-27.279 11.831-36.176 23.191a163.039 163.039 0 0 0-34.221-13.285c17.809 16.691 32.167 36.843 41.079 60.507 10.357-8.437 21.777-15.88 34.441-20.321 17.902-6.278 37.039-5.586 54.141 2.814 18.469 9.072 33.066 24.647 44.889 41.184 14.551 20.353 35.754 43.003 45.156 66.13 10.168 25.01 39.434 89.387 46.035 115.557 5.988 23.749 2.83 47.716 6.002 72.008 1.658 12.707-20.035-12.792-19.826.105a34.712 34.712 0 0 0 4.373-4.412c.293-.352.59-.7.885-1.051.904-.979 1.83-1.939 2.771-2.884.457-.459.922-.913 1.393-1.362a466.021 466.021 0 0 1 6.088 23.899c2.646 11.687 4.865 25.068 6.467 38.711 1.197 10.21 1.885 20.478 2.467 30.748a36.396 36.396 0 0 1-3.748-.494c-.238-.045-.434-.08-.598-.107l-.135-.041c-1.133-.334-2.244-.74-3.348-1.164-2.654-1.023-5.195-2.328-7.66-3.74-2.627-1.502-5.131-3.217-7.566-5.01-6.959-5.115-16.34 6.764-18.803 11.596-3.102 6.088-4.926 14.576-.408 20.051-.201.795-.391 1.594-.596 2.389-1.1 4.279-2.303 8.531-3.555 12.768a429.835 429.835 0 0 1-3.959 12.604 435.545 435.545 0 0 1-1.926 5.678c-7.938 3.674-13.936 13.756-14.562 22.041-.424 5.604-.617 11.176-.641 16.729-3.674 8.156-7.602 16.205-11.707 24.148a336.77 336.77 0 0 1-7.215 13.176 273.642 273.642 0 0 1-2.848 4.811c-.297.477-.992 1.604-1.225 1.969a248.184 248.184 0 0 1-2.643 4.068 225.958 225.958 0 0 1-8.238 11.629 196.624 196.624 0 0 1-4.287 5.449c-.719.885-1.451 1.754-2.186 2.623-.236.279-.477.555-.715.832l-.271.301c-2.904 3.215-5.979 6.275-9.17 9.203a116.318 116.318 0 0 1-4.738 4.084c-.139.113-.244.201-.344.283a95.802 95.802 0 0 1-3.17 2.277c-2.033 1.412-4.15 2.705-6.307 3.93a44.092 44.092 0 0 0-13.041.266c-1.26.178-1.295.215-.109.111a16.355 16.355 0 0 0-3.748.625c-1.648.424-3.229 1.07-4.777 1.76-4.977 2.217-8.979 4.928-13.26 8.307-5.5 4.34-13.652 25.533-.877 26.199 11.191.584 21.658-1.809 31.361-6.203 1.98.74 3.887 1.662 5.766 2.623 4.428 2.264 8.535 5.131 12.471 8.152 14.336 11.002 27.926 27.52 40.154 42.141 12.01 14.357 22.312 31.092 38.836 40.816 13.932 8.201 30.02 6.631 45.252 4.098 4.453-.742 8.891-1.566 13.324-2.414.678 1.521 1.354 3.043 2.027 4.564 3.82 8.65 12.537 6.781 18.453 1.193 3.107-2.936 5.709-6.732 7.4-10.877.256-.039.51-.084.766-.125 4.779-.742 8.951-6.58 10.93-10.461 2.254-4.424 3.719-10.113 2.039-14.99a447.74 447.74 0 0 1-6.621-20.904c.938-3.771 1.016-7.631-.273-11.09a372.013 372.013 0 0 1-9.748-30.041c-2.73-13.619-4.943-27.334-6.723-41.119 7.643-5.508 11.064-14.941 11.34-24.068 1.189-39.496-.43-79.055-4.334-118.381 6.287-5.223 10.602-14.361 9.824-22.318-1.219-12.471-2.559-25.002-4.564-37.398a822.117 822.117 0 0 0-1.766-13.659c.178-1.521.332-3.036.465-4.54.232-2.619.377-5.245.471-7.873.092-2.526.176-5.056.211-7.584.021-1.55.109-7.485-.133-.972.117-3.146.098-6.283-.025-9.416 7.693-3.741 14.535-16.369 15.007-22.539z"/><path d="M721.635 487.388c1.469 54.495-6.006 82.331-24.924 126.762-26.848 63.053-78.684 109.195-142.492 123.734-71.7 16.342-150.487-4.574-201.545-61.869-51.615-57.922-64.457-139.553-57.869-216.541-3.303-2-6.678-3.791-10.186-5.2a536.99 536.99 0 0 0-2.795 27.993c-5.584 76.642 10.381 156.525 60.596 214.185 50.076 57.508 127.273 79.361 198.784 66.846 66.438-11.633 121.643-56.854 154.781-118.523 27.129-50.488 40.104-68.111 38.465-132.132-4.262-1.784-8.514-23.586-12.815-25.255z"/><path fill="#FFBF1F" d="M725.537 454.84c.43.354.855.711 1.285 1.063-1.086-.888-1.418-1.165-1.285-1.063z"/><path d="M309.967 233.619c-20.64 24.071-34.535 51.685-41.126 82.694-6.735 31.682-7.051 64.496-10.607 96.605-.293 2.651 1.285 4.374 3.836 3.101 23.024-11.495 45.931-23.332 70.062-32.38 11.509-4.316 23.308-7.827 35.325-10.415 6.394-1.377 12.861-2.385 19.359-3.11 7.136-.796 14.347-.653 21.456-1.553 3.474-.44 7.958-8.777 2.963-9.414-12.67-1.615-26.731 1.146-39.177 3.589-13.205 2.591-26.096 6.613-38.682 11.333-24.802 9.3-48.301 21.764-71.938 33.62l3.836 3.101c3.317-30.412 3.961-61.238 9.426-91.385 5.54-30.561 18.838-57.616 38.84-81.316 2.992-3.548.248-8.925-3.573-4.47z"/><path d="M412.88 365.925c.265-34.381.157-68.969 4.41-103.142l-6.913 4.264c6.255 14.739 12.165 29.622 17.943 44.554a3046.506 3046.506 0 0 1 8.989 23.573c2.984 7.905 5.522 16.183 9.115 23.829 2.336 4.971 7.631-2.958 6.658-6.298-4.698-16.134-11.828-31.929-17.896-47.599-5.775-14.914-11.734-29.755-18.057-44.446-1.991-4.625-6.614 1.781-6.913 4.264-4.189 34.777-3.861 69.894-3.59 104.858.015 1.964 1.858 2.689 3.405 1.735 1.901-1.173 2.833-3.443 2.849-5.592z"/><path d="M444.547 359.686c53.187-2.641 106.466-2.98 159.599-6.722 3.547-.25 5.469-4.349 5.47-7.492.006-24.37-4.139-48.154-7.729-72.167l-7.545 7.156c10.499 16.298 23.592 30.86 34.915 46.582 11.815 16.407 21.812 33.9 27.733 53.318.998 3.275 4.643 2.152 6.478.419 2.398-2.266 4.064-6.15 3.052-9.434-5.886-19.089-15.667-36.514-27.261-52.695-11.754-16.406-24.76-32.259-38.091-47.405-3.338-3.792-8.094 4.176-7.545 7.156 4.354 23.65 8.049 47.746 8.271 71.833l5.47-7.492c-53.395 4.358-107.038 4.402-160.402 9.278-3.134.286-6.066 7.846-2.415 7.665zm225.288-150.067c11.353 7.811 19.427 20.73 26.562 32.215 10.337 16.635 19.137 34.221 27.366 51.975 8.354 18.022 15.854 36.465 22.333 55.244 4.793 13.896 9.505 28.292 11.316 42.938.258 2.083.407 4.18.421 6.279.017 2.463 2.331 3.369 4.269 2.174 2.356-1.453 3.591-4.326 3.571-7.009-.096-12.924-4.197-26.072-7.946-38.312-5.59-18.25-12.537-36.097-20.093-53.615-7.925-18.372-16.781-36.337-26.81-53.655-7.924-13.682-16.955-27.47-28.292-38.593-2.709-2.658-5.658-5.13-8.86-7.173-2.91-1.857-6.77 5.514-3.837 7.532z"/><path d="M767.747 395.941c-32.948-17.604-72.594-9.785-107.383-21.211-4.689-1.54-9.544 8.862-5.221 10.247 35.295 11.303 74.399 3.702 108.617 18.789 3.359 1.48 7.223-6.096 3.987-7.825z"/><path d="M252.25 835.926c-25.26 3.27-50.598 3.555-75.738-.832l3.793 6.777c4.508-57.877 25.281-113.654 23.908-172.125-.297-12.713-2.26-25.363-3.293-38.031-1.016-12.426-1.693-24.877-2.189-37.334-1.043-26.219-1.102-52.475-.633-78.706.859-48.107 3.734-96.192 8.055-144.108 1.545-17.141 3.076-34.364 5.604-51.395 2.729-18.386 8.072-36.403 15.211-54.223 14.352-35.815 38.068-70.107 67.33-97.354 30.465-28.368 67.969-48.671 108.945-56.637 50.002-9.721 101.119 2.097 145.768 25.207 3.211 1.662 7.32-1.475 8.951-4.051.135-.213.291-.413.445-.611 1.271-1.629-2.357 2.344.1-.021.404-.391.83-.76 1.26-1.123 1.467-1.238-2.107 1.526.037-.016 1.512-1.086 3.129-2.017 4.783-2.865 1.732-.889-1.094.408 1.445-.646a52.111 52.111 0 0 1 3.312-1.22c2.844-.959 5.777-1.638 8.727-2.183 6.816-1.259 15.221-1.255 22.756-.762 21.162 1.384 42.266 7.307 61.998 14.849 6.527 2.496 12.883 5.434 19.053 8.713 7.381 3.924 14.461 8.4 21.232 13.294a190.176 190.176 0 0 1 7.967 6.096c1.051.846.596.47 2.244 1.86 3.875 3.27 7.607 6.703 11.229 10.25 17.461 17.107 31.762 37.231 43.443 58.649 37.195 68.2 47.924 150.264 50.164 227.169 1.709 58.621-3.695 117.082-5.004 175.656-.922 41.26-.789 82.754 3.26 123.863 2.186 22.199 5.236 45.178 13.156 66.168 3.793 10.055 9.191 20.805 18.514 26.807a20.013 20.013 0 0 0 3.168 1.65c2.473-6.031 4.945-12.062 7.416-18.094-43.225 3.623-86.48 6.979-129.674 10.965-5.25.484-8.84 5.201-10.34 9.961-.918 2.912-1.416 11.104 3.863 10.617 43.471-4.014 86.889-8.66 130.326-13.035 3.857-.389 6.584-3.152 8.295-6.512 1.408-2.76 3.355-9.912-.877-11.584a21.407 21.407 0 0 1-4.223-2.26 22.202 22.202 0 0 1-1.031-.75c-1.373-1.051 1.121.967.057.047a30.104 30.104 0 0 1-2.25-2.184c-1.609-1.715-3.031-3.613-4.303-5.592a55.847 55.847 0 0 1-2.016-3.43c1.135 2.076-.098-.221-.342-.711a75.945 75.945 0 0 1-1.146-2.414c-3.371-7.367-5.691-15.201-7.621-23.053-1.512-6.146-2.041-8.967-3.027-14.602-1.115-6.373-2.012-12.785-2.793-19.207-4.643-38.166-5.074-76.857-4.625-115.252.682-58.311 6.213-116.459 5.961-174.776-.354-81.563-9.732-167.402-45.68-241.713-19.822-40.977-48.682-78.178-88.045-101.93-19.848-11.976-41.965-19.289-64.449-24.591-25.312-5.969-59.654-9.953-80.838 9.14-1.588 1.433-3.193 3.045-4.342 4.855 2.984-1.35 5.969-2.7 8.951-4.051-43.52-22.577-92.319-34.099-141.264-27.438-42.889 5.837-82.264 25.232-115.619 52.413-32.838 26.761-59.312 61.584-78.105 99.437-9.01 18.147-16.242 37.287-21.221 56.931-4.377 17.27-6.465 34.819-8.322 52.499-4.721 44.929-7.625 90.075-9.236 135.217-1.852 51.857-2.113 103.966 2.312 155.707 1.34 15.68 3.48 31.117 3.141 46.9-.371 17.18-3.002 34.359-5.92 51.262-5.988 34.693-14.881 69.125-17.061 104.367-.186 2.994.291 6.248 3.795 6.777 25.938 3.924 51.879 2.861 77.752-1.033 5.738-.859 10.292-16.527 3.5-15.648z"/><path d="M291.04 401.527c1.872 27.119-4.576 53.486-4.875 80.54l7.179-4.427c-3.466-25.595-8.347-56.008 6.623-79.02l-6.047-1.607c-4.255 25.252-8.562 50.6-11.948 75.984-.264 1.977.689 4.528 3.142 3.784 2.582-.784 3.943-3.648 4.423-6.072 4.979-25.141 7.916-50.726 12.052-76.016.74-4.521-3.952-4.859-6.047-1.607-17.256 26.786-13.86 58.983-9.377 88.98.95 6.356 7.173-.893 7.179-4.427.023-14.123 1.996-28.121 3.47-42.14 1.301-12.379 2.571-25.864-.495-38.072-.967-3.847-5.427 1.958-5.279 4.1z"/><path fill="#EAA286" d="M724.756 454.034c10.977-10.442 27.516-24.292 43.982-17.697 18.502 7.41 28.316 28.199 29.947 47.124 1.994 23.188-7.537 68.875-40.406 59.668-13.482-3.775-24.246-16.025-32.033-26.949-5.41-7.586-11.004-21.431-4.172-29.964 6.801-8.487 18.41.291 22.881 6.563 1.336 1.875 2.719 3.7 4.178 5.48 2.648 3.231-3.818-4.182-1.086-1.242.637.686 1.312 1.338 1.984 1.988a43.377 43.377 0 0 0 1.945 1.742c2.646 2.276-4.305-3.188-1.572-1.235 1.156.828 2.395 1.528 3.664 2.162-5.883-2.935-1.939-.936-.145-.5 2.492.606-4.369-.458-1.867-.22.533.052 1.068.042 1.604.031 1.566-.029 5.223-1.209-.174.358 1.158-.335 2.246-.882 3.285-1.484 3.357-1.946-.32.495.025.185.85-.756 1.607-1.612 2.338-2.483.771-.92 1.455-1.913 2.113-2.918.342-.524.656-1.066.969-1.604 1.289-2.22-2.104 4.169-.465.762 1.176-2.45 2.082-5.024 2.859-7.627.404-1.349.736-2.721 1.047-4.094.67-2.973-.893 4.751-.354 1.748.166-.938.301-1.879.428-2.82.377-2.802.531-5.627.531-8.449 0-3.19.232 5.608.082 2.446-.031-.677-.09-1.351-.146-2.025a46.355 46.355 0 0 0-.525-3.906c-.748-4.391 1.746 6.498.246 1.34a31.615 31.615 0 0 0-.564-1.7c-1.09-3.09 2.805 6.555 1.477 3.6-2.24-4.985 2.168 3.139 1.365 1.958-2.77-4.075 4.689 4.461 1.066 1.27 5.141 4.526 4.049 3.017 2.516 2.02-1.227-.794-3.682-1.712 2.449 1.028-.932-.417-1.93-.66-2.93-.845 5.758 1.067 1.998.3.195.433-.613.046-1.219.151-1.82.258-2.336.403 4.068-1.271.482-.102-3.168 1.033-6.109 2.723-8.896 4.518-1.75 1.127-3.412 2.387-5.051 3.67 3.027-2.369-.141.145-.619.561-1.295 1.124-2.539 2.3-3.781 3.482-7.828 7.448-17.596.579-22.881-6.562-4.831-6.532-11.812-22.698-4.171-29.969z"/><path d="M731.09 449.601c15.676-10.304 37.545-19.569 54.639-6.971 13.811 10.176 17.545 29.827 16.551 45.901-1.059 17.156-7.967 35.726-21.527 46.869-15.02 12.34-38.145 11.18-51.74-2.869-1.141-1.178-4.998-10.285-.449-9.525 8.312 1.391 15.322 6.113 23.979 6.611 7.035.4 13.672-1.859 19.516-5.662 12.184-7.936 19.074-23.431 21.334-37.317 1.865-11.456 1.568-26.62-8.164-34.678-14.266-11.813-36.633-1.653-50.477 5.492-2.846 1.466-6.354-6.079-3.662-7.851z"/><path d="M774.943 491.211c-5.74-7.06-13.43-12.456-22.799-12.575-10.328-.13-12.617 9.03-16.527 16.526-1.785 3.423-5.725-4.147-5.869-5.414-1.312-11.518 4.49-22.987 17.258-23.214 12.506-.223 23.754 10.351 30.357 19.868 1.723 2.489.875 8.861-2.42 4.809z"/><path d="M729.344 485.389c7.445-.307 16.781-.383 22.047 5.85 5.211 6.163 4.186 15.492-.283 21.788-1.916 2.699-5.051-4-4.479-5.798.816-2.562 4.621-9.296 1.875-11.67-4.373-3.78-11.949-3.883-17.369-4.17-2.174-.116-4.473-5.889-1.791-6z"/><path d="M736.596 466.653c-2.447-20.391-8.453-42.781-21.523-59.297-1.963-6.276-3.92-12.55-5.799-18.832-1.102-3.678-4.777-.654-6.393 2.761-.467-.982-.93-1.967-1.414-2.943-2.617-5.285-9.152 3.201-7.426 7.023 7.123 15.76 13.238 32.006 17.359 48.792 2.623 25.914 2.488 52.237 2.479 78.085 0 1.773 1.465 3.145 3.225 2.609 2.584-.785 4.051-3.703 4.488-6.158.391-2.205.727-4.404 1.035-6.602 1.244 12.749 2.217 25.514 3.191 38.19.135 1.77 1.387 3.223 3.275 2.648 2.582-.783 4.178-3.766 4.557-6.256 4.018-26.409 6.139-53.401 2.946-80.02zm-400.919-17.199c3.757-7.587 10.939-13.103 17.788-17.764 9.985-6.796 21.254-11.563 32.871-14.752 12.118-3.326 24.687-4.303 37.149-2.64 13.83 1.845 24.687 8.165 36.503 15.033 4.707 2.736 10.058-7.941 7.042-11.396-19.148-21.932-54.828-20.796-80.283-13.301-21.538 6.341-47.497 20.11-56.881 41.859-2.551 5.91 2.87 8.898 5.811 2.961z"/><path fill="#EAA286" d="M442.691 482.807c-1.645-6.49-4.34-17.165-7.789-21.078-6.625-10.342-15.871-18.751-28.77-19.887-19.135-1.684-37.205 14.389-43.957 35.57-1.195 3.748-.254 8.151 2.588 5.435.814.645 2.092.513 3.85-1.027 19.266-16.88 44.307-5.614 64.457 2.921.068.029.139.047.207.071a103.197 103.197 0 0 1 2.086 4.927c2.199 5.592 8.254-3.283 7.328-6.932z"/><path d="M449.917 485.276c-2.947 1.885-6.35 2.194-9.785 1.781-17.133-13.693-36.875-22.601-58.262-12.567-.555.26-1.102.54-1.648.816-10.145 4.714-18.275-.353-23.4-7.409-2.436-3.356-7.229 4.251-5.322 7.186 2.961 4.557 7.42 7.103 12.551 8.385-.477.172-.947.355-1.432.506-2.908.902-5.863.935-8.832.311-4.338-.912-7.092-4.52-10.9-6.303-4.074-1.91-7.076 5.822-5.359 8.672 4.027 6.681 13.562 9.305 20.787 7.97 1.461-.271 2.887-.693 4.287-1.215.471.065 1.061-.04 1.82-.427 8.133-4.139 16.516-6.621 25.684-6.017 6.863.455 13.799 2.064 20.525 3.445 12.012 2.468 30.006 12.288 40.621 1.552 1.822-1.843 3.095-9.517-1.335-6.686zM684.13 444.1c-8.935-21.337-33.865-34.009-54.79-40.206-26.569-7.869-60.205-6.986-80.705 14.202-1.94 2.006-3.38 4.764-3.162 7.633.219 2.89 2.725 4.261 5.215 2.657 11.091-7.141 21.616-12.413 34.767-14.576 12.787-2.104 26.379-.547 38.799 2.842 11.692 3.191 22.964 8.305 33.085 14.962 7.46 4.907 15.513 11.096 19.661 19.232 2.592 5.087 8.668-3.075 7.13-6.746z"/><path fill="#EAA286" d="M577.973 489.239a105.215 105.215 0 0 1 2.084-4.927c.07-.024.141-.042.209-.071 20.15-8.535 45.191-19.801 64.457-2.921 1.758 1.54 3.035 1.672 3.85 1.027 2.842 2.717 3.783-1.687 2.588-5.435-6.752-21.182-24.822-37.254-43.957-35.57-12.898 1.136-22.146 9.545-28.77 19.887-3.449 3.913-6.145 14.588-7.789 21.078-.926 3.649 5.128 12.524 7.328 6.932z"/><path d="M563.418 484.776c2.947 1.885 6.35 2.194 9.785 1.781 17.133-13.693 36.875-22.601 58.262-12.567.555.26 1.102.54 1.648.816 10.145 4.714 18.275-.353 23.4-7.409 2.436-3.356 7.229 4.251 5.322 7.186-2.961 4.557-7.42 7.103-12.551 8.385.477.172.947.355 1.432.506 2.908.902 5.863.935 8.832.311 4.338-.912 7.092-4.52 10.9-6.303 4.074-1.91 7.076 5.822 5.357 8.672-4.025 6.681-13.561 9.305-20.785 7.97-1.461-.271-2.887-.693-4.287-1.215-.471.065-1.061-.04-1.82-.427-8.133-4.139-16.516-6.621-25.684-6.017-6.863.455-13.801 2.064-20.525 3.445-12.012 2.468-30.006 12.288-40.621 1.552-1.821-1.843-3.097-9.517 1.335-6.686z"/></svg>