<svg xmlns="http://www.w3.org/2000/svg" xmlns:xlink="http://www.w3.org/1999/xlink" width="1030" height="1030" viewBox="0 0 1030 1030"><defs><path id="a" d="M1020.377 515.001c0 279.115-226.264 505.377-505.377 505.377-279.112 0-505.377-226.264-505.377-505.377S235.887 9.622 515 9.622s505.377 226.266 505.377 505.379z"/></defs><use xlink:href="#a" overflow="visible" fill="#0C7FF2"/><clipPath id="b"><use xlink:href="#a" overflow="visible"/></clipPath><g clip-path="url(#b)"><path fill="#22A1FF" d="M1021.412 517.214c0 279.115-226.264 505.377-505.377 505.377S10.659 796.327 10.659 517.214 236.922 11.835 516.035 11.835c279.113 0 505.377 226.266 505.377 505.379z"/><path fill="#0C7FF2" d="M64.591 301.339c65.698-60.766 147.472-101.363 226.167-142.393 40.814-21.281 80.746-43.73 120.539-66.854 43.205-25.111 87.469-49.598 136.054-62.561l-2.865-37.723C469.49 62.96 382.01 118.8 296.631 176.392c-43.968 29.658-87.434 59.996-129.215 92.682-20.033 15.672-39.121 32.311-60.043 46.828-21.764 15.1-44.41 28.885-66.553 43.41-20.462 13.42-40.42 27.699-58.93 43.736-7.092 6.145-11.695 17.17-10.986 26.521.548 7.209 5.93 13.973 13.85 11.199 98.166-34.393 184.33-95.652 268.734-154.941 42.163-29.617 84.25-59.42 128.115-86.494 19.996-12.342 40.241-24.098 59.857-37.074 21.043-13.918 41.816-28.238 62.964-42 37.358-24.314 76.479-48.123 120.034-59.316-2.24-11.117-4.479-22.232-6.717-33.35-3.625 4.496-11.99 11.266-18.963 15.918-10.002 6.67-20.648 12.365-31.156 18.178-23.029 12.742-45.092 27.219-67.552 40.936-51.307 31.332-102.535 62.797-153.854 94.113-51.11 31.188-102.326 62.211-153.79 92.816-45.841 27.262-92.239 53.613-137.737 81.449-57.199 34.99-113.605 73.15-161.329 120.578-6.829 6.783-11.733 16.688-10.986 26.52.56 7.365 5.898 13.781 13.849 11.199 51.945-16.859 99.75-43.609 147.504-69.639 50.274-27.404 102.162-51.779 153.586-76.934 106.723-52.203 213.544-104.201 320.025-156.898 43.588-21.572 87.41-42.348 128.738-68.076 36.969-23.018 73.674-48.996 115.463-62.539-.953-12.574-1.908-25.146-2.863-37.721-32.516 34.457-76.607 55.146-117.221 78.289-50.043 28.516-97.459 62.32-145.693 93.777-48.673 31.742-97.557 62.701-143.463 98.404-36.259 28.201-71.635 58.477-113.409 78.264C166.967 440.29 75.417 461.753 37.559 541.29c-3.076 6.463-5.363 14.316-2.909 21.402 1.745 5.039 7.497 9.094 12.933 6.588C147.668 523.179 241.1 464.948 335.032 407.694c46.52-28.355 93.289-56.326 141.23-82.229 49.123-26.541 100.222-49.029 149.865-74.543 51.182-26.305 101.262-54.686 151.102-83.426-.986-12.998-1.971-25.994-2.959-38.99-89.508 66.279-184.82 124.035-280.238 181.279-95.316 57.186-189.7 115.123-280.916 178.699C148.343 533.63 70.698 560.08 20.877 624.457c-8.81 11.383-11.101 42.221 10.985 31.381 208.226-102.16 408.941-218.58 611.71-330.955 81.105-44.949 162.598-89.213 245.031-131.684-.984-12.996-1.971-25.994-2.959-38.988C684.77 269.935 489.943 395.938 300.086 528.915 223.16 582.794 147.082 637.888 71.738 693.958c-9.188 6.836-16.062 17.881-15.16 29.76.736 9.699 9.592 15.234 18.119 9.229 43.635-30.723 91.015-55.527 138.017-80.598 48.866-26.064 96.421-53.967 143.454-83.207 97.824-60.818 193.597-125.836 295.82-179.223 79.943-41.756 155.398-91.654 236.615-131.035l-7.129-35.752C726.443 362.759 545.961 469.948 368.333 577.765 274.889 634.486 181.495 691.474 91.73 753.931c-9.318 6.484-16.043 18.146-15.161 29.758.8 10.539 9.317 14.158 18.12 9.23 202.516-113.371 408.093-221.234 609.107-337.291 82.611-47.695 164.387-96.848 244.783-148.197l-10.986-31.381c-4.994 7.512-10.375 14.717-16.096 21.689-5.041 6.145-10.836 12.266-18.377 19.707-14.123 13.939-29.658 26.809-45.09 38.273-35.396 26.297-73.57 48.73-112.08 70.107-37.449 20.789-75.582 40.312-113.115 60.945-42.607 23.422-83.6 49.658-124.551 75.828-65.341 41.752-130.41 84.795-198.977 121.15-60.085 31.857-124.11 59.162-173.204 107.688-6.839 6.762-11.731 16.707-10.986 26.521.621 8.164 5.796 12.766 13.852 11.199 27.105-5.268 51.926-18.041 75.643-31.76 24.855-14.379 49.684-28.809 74.538-43.191a10620.193 10620.193 0 0 0 152.231-89.771c49.53-29.773 100.037-57.951 150.666-85.822 50.375-27.73 102.133-51.93 153.664-77.322 67.275-33.148 131.117-72.73 197.158-108.186l-10.984-31.383c-5.504 7.193-9.137 10.836-17.041 18.057-7.752 7.076-15.979 13.312-24.516 19.367-18.809 13.338-38.715 25.094-58.619 36.699-43.184 25.18-85.117 51.793-126.223 80.277-91.951 63.715-180.73 131.844-272.466 195.85-62.605 43.68-127.018 85.396-195.643 119.062.985 12.998 1.973 25.994 2.959 38.99 48.336-27.512 98.725-51.109 148.232-76.383 25.086-12.807 49.888-26.168 74.098-40.572 24.189-14.391 46.895-30.896 69.81-47.201 23.252-16.545 46.578-32.992 70.564-48.465 23.51-15.168 48.084-28.535 72.547-42.078 48.807-27.02 97.926-53.48 146.338-81.211 61.396-35.17 121.518-72.686 178.057-115.307-3.662-10.461-7.322-20.922-10.984-31.381-59.98 69.826-146.119 119.631-225.496 166.939-91.051 54.268-181.008 110.705-269.408 169.203-41.197 27.26-81.385 55.869-121.205 85.092-39.393 28.914-78.959 57.732-121.233 82.348-9.595 5.584-15.991 18.82-15.16 29.758.841 11.066 9.201 13.475 18.119 9.23 100.961-48.053 196.104-107.057 291.245-165.518 47.797-29.369 95.674-58.625 144.387-86.459 47.674-27.238 96.566-52.016 145.607-76.67 75.025-37.713 150.205-76.055 218.391-125.428l-7.131-35.75c-33.611 33.213-76.09 55.598-117.895 76.719a4042.123 4042.123 0 0 0-133.637 70.689c-99.297 54.922-199.129 109.008-295.388 169.18-39.694 24.812-79.177 50.248-116.166 78.982-32.521 25.262-64.553 53.299-102.4 70.43-8.953 4.055-15.018 11.32-17.994 20.766-1.853 5.883-3.031 24.236 8.274 22.725 45.448-6.074 87.677-22.926 128.725-42.799 43.948-21.275 85.808-46.65 127.571-71.857 92.4-55.779 188.994-103.605 284.818-153.17 30.955-16.012 61.799-31.988 92.062-49.281l89.188-50.969c9.619-5.496 15.986-18.891 15.162-29.758-.805-10.576-9.309-14.111-18.121-9.23-104.188 57.711-206.854 118.117-308.768 179.746-51.145 30.93-102.086 62.188-152.945 93.584-44.668 27.572-85.542 60.625-129.553 89.188-21.202 13.756-43.261 26.518-67.015 35.328l-1.309 40.957c171.867-107.34 370.171-160.402 549.302-253.342 47.312-24.547 93.092-52.107 136.094-83.643 9.217-6.758 16.057-17.938 15.158-29.76-.758-9.986-9.484-14.867-18.117-9.229C824.266 729.44 638.676 860.724 439.864 970.419a2775.644 2775.644 0 0 1-59.695 31.969l7.133 35.752c73.349-58.309 162.89-92.967 248.279-129.312 44.957-19.137 89.818-38.742 132.914-61.836 22.314-11.959 44.492-24.162 66.002-37.533 23.461-14.584 46.566-29.75 71.246-42.24-4.764-8.674-9.529-17.348-14.291-26.021-3.254 5.631 2.838-4.268-.768 1.271-1.092 1.672-2.266 3.291-3.438 4.908-1.197 1.656-2.473 3.256-3.744 4.855-.225.285-4.666 5.496-1.592 2.025-6.42 7.246-13.555 13.844-20.877 20.158-14.346 12.365-31.18 23.664-48.141 34.455-35.631 22.666-73.1 42.25-109.025 64.42-39.857 24.594-76.527 54.361-114.17 82.133-42.477 31.334-86.009 61.828-133.525 85.104-8.502 4.166-17.229 7.842-26.042 11.295l2.864 37.721c61.737-53.27 143.857-80.49 220.312-108.334 80.787-29.42 162.883-61.467 226.773-120.973 7.467-6.955 14.516-14.354 21.266-22.004 7.164-8.117 13.979-19.857 10.072-31.133-3.469-10.01-15.477-8.066-21.377-1.381-114.229 129.438-307.648 132.047-443.065 231.178a405.328 405.328 0 0 0-25.288 20.133c-7.098 6.125-11.694 17.186-10.987 26.523.528 6.965 5.991 14.279 13.852 11.197 97.133-38.068 176.129-109.006 260.493-168.248 66.98-47.033 147.924-76.375 205.264-136.568 10.396-10.916 19.23-22.635 26.766-35.684 7.1-12.287 4.061-35.305-14.291-26.02-23.682 11.982-45.959 26.396-68.422 40.475-22.414 14.049-45.568 26.727-68.828 39.299-42.021 22.705-85.977 41.566-129.891 60.242-90.248 38.379-182.23 75.838-259.648 137.379-7.227 5.744-11.673 17.469-10.986 26.521.82 10.785 9.259 13.842 18.119 9.23C584.75 936.47 771.74 806.556 960.965 681.343a11102.88 11102.88 0 0 1 56.154-36.924c-.986-12.996-1.975-25.992-2.959-38.988-164.072 120.318-362.512 176.99-545.046 261.854-48.148 22.383-95.297 46.992-140.35 75.131-8.23 5.139-13.768 14.979-14.994 24.48-1.043 8.053 3.027 20.43 13.684 16.479 48.654-18.047 91.17-48.994 132.91-79.129 45.078-32.541 91.929-61.576 139.314-90.625 101.836-62.436 204.242-123.967 307.943-183.266a7351.688 7351.688 0 0 1 86.65-48.766c-.986-12.996-1.971-25.992-2.959-38.988-51.547 29.457-102.699 59.619-155.438 86.898-53.777 27.818-107.557 55.633-161.336 83.449-43.93 22.723-87.301 45.756-129.697 71.246-41.77 25.117-83.296 50.699-126.521 73.277-41.221 21.529-86.023 41.922-132.551 48.141l-9.721 43.49c47.463-21.482 85.909-55.805 127.18-86.811 44.621-33.523 92.951-62.742 140.677-91.576 96.971-58.586 197.004-111.867 295.91-167.064 73.6-41.076 157.643-70.725 218.6-130.963 6.844-6.76 11.734-16.709 10.988-26.521-.729-9.592-9.637-15.373-18.119-9.23-88.59 64.145-188.592 109.527-285.451 159.373-99.426 51.166-193.672 111.625-289.093 169.732-73.313 44.643-147.525 88.053-225.085 124.969.985 12.996 1.974 25.992 2.959 38.988 49.188-28.641 94.676-62.945 140.544-96.504 46.478-34 94.139-66.234 142.511-97.467 87.035-56.191 175.35-110.045 263.912-163.752 74.689-45.295 149.064-94.295 206.426-161.074 5.668-6.598 9.145-18.316 6.219-26.762-2.553-7.369-11.105-9.217-17.203-4.619-89.629 67.562-188.064 121.631-286.24 175.51-49.328 27.074-98.404 53.916-144.787 85.881-23.352 16.092-46.289 32.777-69.5 49.068-23.092 16.205-47.428 30.418-72.158 43.965-61.565 33.727-125.932 62.055-186.961 96.791-9.623 5.477-15.984 18.906-15.161 29.76.834 10.973 9.22 13.596 18.12 9.23 98.893-48.512 189.041-113.174 277.8-177.871 89.326-65.109 177.656-132.875 271.783-191.008 55.475-34.266 120.369-62.553 160.975-115.648 5.389-7.047 9.266-17.969 6.219-26.762-2.842-8.197-10.652-8.139-17.203-4.621-49.322 26.479-97.434 55.121-146.604 81.871-49.906 27.152-102.031 49.65-152.42 75.84C537.59 565.519 438.344 626.224 337.974 685.06a11387.662 11387.662 0 0 1-97.149 56.283c-30.902 17.713-60.723 37.979-96.278 44.889l2.865 37.721c33.756-33.367 76.161-55.738 118.04-77.18 45.688-23.391 90.239-48.039 134.129-74.68 87.598-53.176 171.681-111.859 262.07-160.354 54.957-29.484 110.545-57.98 162.961-91.898 49.711-32.166 98.854-70.18 131.992-120.016 5.025-7.557 9.408-17.564 6.219-26.762-2.699-7.791-10.855-8.674-17.203-4.621-195.874 125.102-399.874 236.655-603.807 347.893-83.527 45.561-167.061 91.117-250.082 137.596l2.959 38.988c170.951-118.941 354.396-218.406 528.242-332.895 94.264-62.08 185.902-128.777 269.846-204.379 7.025-6.326 11.709-17.035 10.988-26.521-.836-11.01-9.213-13.549-18.121-9.23-51.248 24.85-100.295 53.832-149.523 82.396-49.637 28.799-100.664 55.018-150.33 83.748-99.658 57.645-195.21 122.086-293.781 181.537-72.495 43.723-150.875 77.516-220.271 126.383.986 12.996 1.974 25.992 2.959 38.988 185.014-137.684 374.572-269.338 569.66-392.373 80.434-50.727 161.85-99.902 244.246-147.373 9.607-5.535 15.988-18.861 15.162-29.76-.822-10.814-9.25-13.799-18.121-9.229-206.174 106.221-406.21 223.748-609.96 334.453-81.455 44.258-163.553 87.352-246.781 128.186 3.66 10.463 7.322 20.922 10.984 31.383 25.776-33.309 66.304-56.533 103.788-77.648 19.876-11.199 39.891-22.156 59.179-34.355 21.949-13.881 42.736-29.654 64.248-44.203 92.356-62.465 188.979-118.262 284.289-176.014 77.076-46.703 153.375-94.857 225.838-148.516 9.197-6.811 16.061-17.9 15.162-29.76-.793-10.436-9.346-14.291-18.121-9.23-48.865 28.18-97.98 55.93-148.08 81.867-49.613 25.688-100.764 48.18-150.024 74.562-96.332 51.592-187.564 112.021-281.983 166.92-45.946 26.715-92.727 52.25-141.019 74.496 3.339 9.33 6.681 18.662 10.022 27.99.942-1.98 1.92-3.936 2.938-5.881.276-.529 3.927-6.719 1.067-2.127 2.278-3.656 4.848-7.123 7.494-10.518.166-.217 4.736-5.592 1.714-2.197 1.437-1.613 2.948-3.158 4.456-4.703 3.551-3.637 7.363-7.01 11.248-10.285 4.771-4.025 12.172-9.08 19.403-13.619 8.458-5.309 17.279-10.027 26.193-14.512 34.47-17.342 71.243-29.699 106.114-46.215 43.146-20.439 79.836-52.666 117.23-81.818 44.832-34.949 93.141-64.873 140.709-95.896 48.039-31.33 95.283-64.803 145.126-93.205 42.926-24.461 88.732-46.936 123.102-83.359 6.684-7.084 11.75-16.467 10.986-26.521-.559-7.365-5.898-13.775-13.852-11.199-49.908 16.174-93.238 47.807-137.598 74.861-48.916 29.832-102.049 53.268-153.392 78.592-106.676 52.613-213.651 104.616-320.469 156.939-43.396 21.258-86.617 42.541-129.028 65.715-40.358 22.047-80.935 43.73-124.823 57.979l2.863 37.723c72.181-71.732 163.499-120.635 250.486-171.762 103.368-60.754 205.49-123.592 307.752-186.184 31.838-19.49 63.289-39.891 95.544-58.646 28.137-16.359 57.43-30.23 78.301-56.137 6.781-8.412 13.281-38.49-6.715-33.35-47.433 12.189-90.471 38.453-131.142 64.923-21.107 13.74-41.836 28.055-62.841 41.949-19.62 12.977-39.934 24.668-59.937 37.012-88.903 54.875-170.568 120.623-260.035 174.662C76.087 360.72 34.5 382.364-9.665 397.841c.954 12.572 1.909 25.146 2.862 37.721 39.104-33.881 85.59-57.932 127.51-87.986 21.174-15.182 40.631-32.545 61.216-48.488 20.628-15.977 41.774-31.275 63.117-46.279 86.077-60.504 176.019-115.529 257.792-181.998 18.234-14.82 35.916-30.312 52.962-46.484 6.924-6.572 11.719-16.852 10.984-26.521-.584-7.715-5.842-13.336-13.85-11.199-49.302 13.154-94.82 37.832-138.794 63.143-40.958 23.574-81.776 46.955-123.684 68.824-82.873 43.246-167.969 86.252-237.164 150.254-7.749 7.166-13.725 20.592-10.07 31.133 3.688 10.636 15.029 7.251 21.375 1.378z"/></g><path fill="#EAA286" d="M288.639 465.104c-11.235-10.689-28.168-24.869-45.025-18.117-18.941 7.586-28.99 28.869-30.658 48.242-2.042 23.738 7.715 70.512 41.365 61.086 13.803-3.865 24.823-16.406 32.795-27.59 5.537-7.766 11.264-21.939 4.271-30.674-6.962-8.691-18.849.297-23.425 6.719a105.237 105.237 0 0 1-4.276 5.609c-2.712 3.309 3.908-4.279 1.112-1.271a56.54 56.54 0 0 1-2.031 2.037 44.75 44.75 0 0 1-1.993 1.781c-2.708 2.332 4.408-3.264 1.61-1.264-1.184.848-2.451 1.564-3.752 2.213 6.023-3.004 1.986-.957.148-.512-2.553.621 4.473-.469 1.91-.225-.545.053-1.093.043-1.641.033-1.604-.031-5.346-1.24.178.367-1.186-.346-2.299-.904-3.362-1.521-3.438-1.992.328.508-.026.189-.869-.775-1.646-1.65-2.393-2.543-.791-.941-1.491-1.959-2.163-2.986-.351-.537-.672-1.092-.993-1.643-1.32-2.273 2.153 4.268.477.779-1.204-2.508-2.132-5.145-2.93-7.809a63.442 63.442 0 0 1-1.069-4.189c-.687-3.043.913 4.863.362 1.789a67.57 67.57 0 0 1-.438-2.889c-.387-2.867-.544-5.76-.544-8.648-.001-3.268-.238 5.74-.085 2.504.033-.693.093-1.383.151-2.074.114-1.338.31-2.67.537-3.998.767-4.496-1.787 6.652-.252 1.371.172-.588.374-1.166.578-1.74 1.115-3.164-2.871 6.709-1.512 3.686 2.293-5.104-2.221 3.213-1.396 2.004 2.834-4.172-4.801 4.568-1.093 1.301-5.262 4.633-4.145 3.088-2.575 2.066 1.254-.812 3.768-1.752-2.508 1.053.954-.426 1.977-.676 2.998-.865-5.893 1.092-2.044.309-.199.443.628.047 1.247.154 1.865.264 2.391.414-4.165-1.301-.496-.104 3.245 1.057 6.256 2.787 9.109 4.625 1.792 1.154 3.493 2.443 5.17 3.756-3.1-2.424.145.148.634.574 1.325 1.152 2.601 2.355 3.871 3.566 8.015 7.625 18.015.592 23.425-6.719 4.947-6.681 12.091-23.23 4.269-30.676zm528.687 9.594c-.943-4.082-2.412-7.926-4.297-11.531.865-5.312.279-10.635-2.844-14.533-3.205-4-7.225-4.295-11.135-2.863-6.186-5.443-13.32-9.908-20.607-13.371-11.836-5.623-25.098 10.73-27.803 25.039-4.16 4.025-7.775 8.197-10.555 11.641-5.93 7.352-11.016 22.254-4.271 30.676 7.172 8.949 18.529-.646 23.428-6.719.262-.326 1.002-1.172 1.592-1.848a67.325 67.325 0 0 1 2.562-2.479c.061 1.645.26 3.193.625 4.59.596 2.273.725 3.031.936 4.975-.787.426-1.727.867-3.057 1.576-5.455 2.908-11.057 10.215-13.908 18.07-13.49 11.025-20.941 40.24-3.809 40.24 5.949 0 11.637-4.422 15.973-10.473 10.559 7.002 22.92 8.314 33.594-3.654a64.158 64.158 0 0 0 10.361-15.824c11.268-15.428 17.668-34.221 13.215-53.512zm-52.094 25.717a9.352 9.352 0 0 0-.174.479c.055-.168.111-.336.17-.5l.004.021z"/><path fill="#FF617F" d="M752.094 929.315c-8-32.305-21.381-63.406-39.844-90.686a211.876 211.876 0 0 0-4.135-8.012c-.197-6.062-2.105-11.42-7.154-12.287-4.562-7.332-9.463-14.377-14.51-21.068-26.551-35.201-62.256-58.439-105.602-67.098-44.516-8.896-91.093-1.562-135.162 6.426-39.381 7.137-81.811 11.889-114.801 36.574-11.593 8.674-20.926 18.928-28.594 30.264-5.333 5.281-10.305 10.971-14.838 17.102-.9 1.219-1.772 2.449-2.627 3.691-9.433 11.525-18.519 23.361-27.949 34.717-6.022 7.25-10.955 22.33-4.27 30.678 1.992 2.488 4.292 3.539 6.682 3.643-1.192 8.631-1.833 17.359-1.998 26.094-1.84 3.291-2.814 7.078-2.143 10.029-3.001 5.336-3.932 12.34.416 15.285.918.621 1.846 1.23 2.771 1.84.822 3.688 3.153 4.482 5.791 3.697.4.246.803.488 1.203.732 1.502 3.082 4.24 5.113 8.709 5.094 10.723 5.992 21.848 11.244 33.25 15.873-.021.891-.017 1.791.053 2.705.614 8.072 5.854 13.057 13.957 11.283a170.145 170.145 0 0 0 14.361-3.826c19.195 6.037 38.848 10.697 58.406 14.52 43.213 8.449 88.139 12.551 132.119 13.779 53.807 1.504 138.721-4.193 179.24-47.535a570.098 570.098 0 0 0 37.34-15.205c6.792-3.045 11.161-10.914 9.329-18.309zm-46.856-18.802c2.201-3.102 4.223-6.312 6.016-9.643a85.09 85.09 0 0 1 .52 7.762 286.379 286.379 0 0 0-6.536 1.881zm-391.061 31.295c9.745-5.258 19.081-11.334 27.987-17.396 1.365-.93 2.711-1.889 4.066-2.834-8.84 7.158-17.212 14.805-24.905 23.107a197.723 197.723 0 0 1-7.148-2.877zm210.991-178.039c-9.96 4.477-19.677 9.539-29.201 14.906 3.869-4.369 6.875-9.426 8.47-15.016 6.918-.107 13.833-.096 20.731.11zm72.926 12.406c-10.658 6.623-21.473 12.982-32.33 19.266 3.898-7.158 7.213-14.688 9.783-22.654a26.29 26.29 0 0 0 .758-2.973c7.336 1.681 14.605 3.775 21.789 6.361zM284.42 893.306a251.368 251.368 0 0 0 5.911-2.863 194.08 194.08 0 0 0-7.662 10.273 1131.4 1131.4 0 0 1 1.624-7.352c.041-.021.085-.039.127-.058zm120.789-16.049c21.559-16.021 44.973-29.586 67.736-43.803 14.312-8.941 28.847-17.594 43.998-24.863a309.5 309.5 0 0 1-4.029 3.561c-9.328 8.098-16.746 13.379-27.885 21.004-11.787 8.068-23.931 15.611-36.125 23.043-25.246 15.381-52.41 29.998-77.615 46.971 11.312-8.634 22.506-17.429 33.92-25.913zm113.182-11.403c-15.605 10.568-31.648 20.447-47.783 30.18 20.754-15.648 42.18-29.178 64.785-42.039-5.567 4.02-11.235 7.953-17.002 11.859zM457.016 955.7c-4.176 2.873-7.809 6.834-10.479 11.367a942.37 942.37 0 0 1-13.02-.941 5606.72 5606.72 0 0 0 23.499-10.426zm236.043-89.004a158.915 158.915 0 0 0 5.445-8.137 212.87 212.87 0 0 1 1.875 4.279 340.547 340.547 0 0 0-7.32 3.858zm-43.741-28.072a489.162 489.162 0 0 0 11.086-13.383c1.762-2.209 3.34-4.859 4.58-7.727a214.878 214.878 0 0 1 9.477 9.473 415.774 415.774 0 0 0-25.143 11.637zm-7.808-40.076c-7.277 4.873-14.15 10.268-20.867 15.865 4.637-6.805 8.863-13.885 12.604-21.264a194.679 194.679 0 0 1 8.263 5.399zM513.3 964.142a190.937 190.937 0 0 0-5.397 5.652c-1.138-.029-2.274-.064-3.412-.098a922.005 922.005 0 0 0 8.809-5.554z"/><path fill="#FFE5B8" d="M565.537 723.423a41.622 41.622 0 0 0-2.52-1.059c-1.273-4.307-3.074-8.605-5.416-12.91-5.494-10.092-19.715 1.703-23.428 6.719a40.613 40.613 0 0 0-2.139 3.207c-8.172.816-16.212 2.5-23.357 4.273-15.871 3.939-32.584 13.76-40.383 28.035a81.054 81.054 0 0 0-.695-.742c-1.45-1.535-2.676-3.258-3.818-5.027.745 1.092-1.039-2.113-1.184-2.457-.617-1.449-1.057-2.965-1.502-4.471-.071-.244-.133-.447-.189-.631a30.486 30.486 0 0 0-.154-1.262c-.244-1.768-.303-3.559-.365-5.342l-.021-.557c.055-.326.124-.9.209-1.838.194-2.094.568-4.166.938-6.234 1.557-8.729-3.305-19.789-13.791-16.604-11.189 3.398-17.515 16.025-19.407 26.65-3.25 18.217-1.6 37.744 9.738 52.963 9.367 12.57 25.291 18.426 40.374 19.803 14.411 1.318 28.681-1.631 41.663-7.629a53.833 53.833 0 0 0 5.891-2.127c12.773-5.523 23.76-15.09 30.721-27.164 4.312-5.562 8.008-11.547 10.943-17.818 3.365-7.188 7.984-23.104-2.108-27.778z"/><path d="M282.157 460.567c-16.049-10.549-38.438-20.035-55.938-7.137-14.139 10.418-17.961 30.535-16.944 46.99 1.085 17.564 8.157 36.576 22.04 47.982 15.376 12.633 39.05 11.445 52.969-2.936 1.168-1.207 5.116-10.531.461-9.754-8.512 1.424-15.688 6.26-24.549 6.768-7.203.412-13.998-1.902-19.979-5.795-12.474-8.125-19.527-23.988-21.843-38.203-1.909-11.729-1.603-27.252 8.358-35.502 14.604-12.094 37.504-1.691 51.676 5.623 2.913 1.501 6.505-6.223 3.749-8.036zm469.083-.099c12.623-7.477 31.449-14.691 44.408-3.77 10.525 8.869 12.789 24.951 12.641 37.865-.154 13.547-4.01 28.654-13.221 38.932-11.842 13.213-26.248 8.324-40.939 4.357-4.469-1.207-10.336 9.051-6.717 12.055 15.186 12.611 36.209 8.387 49.414-4.611 13.523-13.314 19.711-34.145 20.719-52.627.875-15.973-1.621-35.719-15.117-46.305-16.717-13.113-37.666.113-51.334 11.355-.803.661-1.647 3.811.146 2.749z"/><path fill="#D8724A" d="M384.062 709.999h-.001l-.003.006z"/><path fill="#FFE5B8" d="M780.621 361.782c-3.006-3.418-7.354-4.48-12.227-2.934l-1.814.576.002-.104-.385.229c-14.596 4.66-24.016 3.855-33.268 2.117 1.785-5.871 3.156-11.918 4.182-18.047.846-.025 1.729-.307 2.498-.779 3.318-2.047 5.168-6.174 5.084-9.977-.422-18.738-2.826-37.449-7.875-55.301-1.59-7.564-4.004-14.932-7.619-21.531-5.254-12.184-11.996-23.75-20.486-34.395-21.938-27.508-54.555-44.395-87.99-53.428-18.674-5.047-37.842-7.881-57.121-9.221-22.484-1.564-45.141-1.324-67.355 2.76a159.685 159.685 0 0 0-9.088 1.959c-30.479 1.1-60.688 7.053-88.312 20.525a148.677 148.677 0 0 0-7.601 3.994c-13.949 5.256-27.513 11.465-40.332 18.916-17.465 10.152-34.098 23.539-43.734 41.639-6.996 13.137-8.434 27.715-5.012 41.59-3.024 13.004-2.845 26.588.771 39.709-11.328 7.934-22.209 16.582-32.449 26.186-6.098 5.721-10.385 14.133-11.466 22.506-.489 3.789-.25 11.42 3.755 15.977 1.992 2.264 4.66 3.381 7.759 3.256 9.829-.445 19.952-1.643 30.628-3.629-8.566 4.238-16.33 8.654-23.478 13.346-8.468 5.555-14.569 15.502-15.92 25.961-.604 4.668.001 11.611 3.696 15.814 1.967 2.236 4.625 3.422 7.741 3.422 19.212-.082 39.353-1.711 61.198-4.969-24.902 10.721-50.756 22.475-75.826 36.58-9.436 5.305-14.848 16.895-16.027 26.027-.781 6.043.595 11.748 3.68 15.258 2.947 3.354 7.314 4.557 12.348 3.359 20.539-4.871 38.564-9.297 55.121-13.549a1797.095 1797.095 0 0 0-12.079 5.211l-1.064.262-.034.234c-10.522 5.004-17.975 15.506-19.547 27.66-.779 6.051.588 11.771 3.692 15.299 2.954 3.361 7.292 4.551 12.312 3.318l2.156-.541c-.444.229-.985.459-1.429.689l-.411.055v.059c0 .58-2.045 1.158-3.164 1.736-8.944 4.631-14.665 16.611-15.889 26.059-.781 6.055.611 11.787 3.729 15.334 2.959 3.365 7.316 4.541 12.325 3.277a773.022 773.022 0 0 0 31.925-8.812c-7.649 7.445-14.354 23.346-11.746 33.318 1.717 6.564 7.199 9.646 15.322 8.479a430.672 430.672 0 0 0 22.688-3.889c-2.946 4.637-4.899 9.975-5.606 15.439-.58 4.498.111 11.316 3.98 15.717 3.015 3.428 7.361 4.467 12.203 2.857 3.46-1.15 6.923-2.299 10.388-3.438-3.927 5.186-6.526 11.396-7.354 17.801-.796 6.168.428 11.447 3.449 14.885 2.879 3.275 7.251 4.578 12.45 3.736.689-.113 1.377-.26 2.064-.373l.131-.219c7.004-1.143 14.02-2.562 21.045-3.73-3.688 8.246-5.527 17.596-1.979 23.521.983 1.645 2.717 2.965 5.688 3.592 1.195.459 2.599.707 4.225.709l.052.002c5.521-.012 11.06-.088 16.609-.207 10.606.084 21.146.102 31.498-.529.628 5.4 3.331 10.455 7.737 12.402 12.508 5.518 26.527 8.318 41.668 8.318 32.248 0 64.957-12.635 86.755-22.139 41.453-18.074 79.018-41.789 113.438-64.727l.957-.537-.008-.117c9.848-7.041 16.061-19.643 15.195-31.031-.605-8.01-5.502-13.184-12.465-13.184-.449 0-.902.021-1.359.068 11.127-8.906 20.449-18.562 28.252-29.238 5.395-7.379 9.938-18.779 6.518-28.645-1.441-4.158-4.461-6.975-8.344-7.928a272.172 272.172 0 0 0 5.961-5.445c7.812-7.367 12.381-18.434 11.639-28.197-.504-6.627-4.939-13.672-12.166-13.672-1.391 0-2.826.273-4.262.814-2.188.824-4.395 1.65-6.621 2.48 7.656-5.379 13.336-15.053 14.635-25.111.609-4.721-.424-11.723-4.133-15.941-3.041-3.459-7.377-4.414-12.123-2.607-.57.217-1.145.436-1.721.652l.01-.314-1.26.781c-.926.348-1.865.695-2.809 1.041a362.528 362.528 0 0 0 18.787-16c6.088-5.557 10.381-13.977 11.486-22.52.648-5.045-.244-11.9-3.707-15.844-.965-1.094-2.094-1.938-3.371-2.508a870.269 870.269 0 0 0 18.533-10.549c9.445-5.531 14.84-17.049 16-26.012.768-5.91-.777-12.051-3.929-15.643zM373.534 236.46c-8.575 8.271-17.07 16.619-25.693 24.828a130.471 130.471 0 0 1 8.236-11.111c2-2.416 4.312-4.924 6.812-7.418 4.965-4.129 10.271-7.863 15.795-11.24-.468.447-.938.893-1.404 1.34a28.487 28.487 0 0 0-3.746 3.601zm-47.176 44.504c4.766-13.143 10.973-25.691 18.928-37.176 3.955-3.613 8.147-6.957 12.519-10.076-12.641 13.383-22.669 28.93-29.913 45.9-.514.45-1.02.905-1.534 1.352zm354.747-64.352c.607.508 1.215 1.014 1.814 1.531a2.855 2.855 0 0 0-1.117-.391c-.232-.378-.46-.763-.697-1.14zm11.807 138.825c.488 1.094.963 2.193 1.443 3.291-1.234.004-2.76.008-4.455.018a83.564 83.564 0 0 0 3.012-3.309zm15.713-107.913a12.363 12.363 0 0 0-.639 4.027c.02 2.02.109 4.025.258 6.02-6.295-13.791-14.945-26.553-24.221-38.439-.029-.037-.061-.064-.09-.102 9.331 8.188 17.659 17.641 24.692 28.494zm-397.093 17.299c.096-.676.223-1.348.348-2.018.197-1.051-.098.273.361-1.465 1.409-5.33 3.482-9.25 6.234-13.254 3.639-5.291 6.933-8.68 11.975-13.186 6.693-5.979 14.133-11.189 22.022-15.803a167.198 167.198 0 0 0-9.451 11.273c-12.536 10.553-23.542 22.766-31.745 36.99-.018.031-.033.062-.051.094.082-.879.183-1.756.307-2.631zm106.893 48.58c.96-.43 1.927-.861 2.89-1.291l.145.354c-1.014.312-2.028.621-3.035.937zm97.017-5.67c4.392 2.414 8.687 5.008 12.898 7.678a604.095 604.095 0 0 1 5.062 3.244c-6.328-2.783-12.256-5.654-17.754-8.717a21.236 21.236 0 0 0-.206-2.205zm17.507 143.629c9.09-6.875 17.588-13.934 25.604-21.26a293.397 293.397 0 0 0 15.002 3.1 2742.495 2742.495 0 0 0-40.606 18.16z"/><path d="M283.944 497.204l-.256-.01c-.441-10.117-6.418-19.09-17.826-19.291-12.804-.23-24.317 10.596-31.078 20.34-1.765 2.547-.896 9.068 2.477 4.922 5.877-7.227 13.75-12.752 23.34-12.875 6.174-.076 9.541 3.09 12.07 7.266-4.334.668-8.414 2.225-11.298 5.637-5.335 6.311-4.284 15.861.29 22.307 1.961 2.764 5.172-4.096 4.586-5.936-.836-2.623-4.731-9.518-1.92-11.947 2.939-2.541 7.289-3.455 11.502-3.869a94.925 94.925 0 0 0 1.691 3.463c1.488 2.854 4.439-1.758 5.562-4.268 1.833-1.342 3.201-5.643.86-5.739zm147.755 239.275c-6.974 22.109-5.688 45.855 11.019 63.252 14.908 15.521 37.254 21.803 58.237 21.549 22.008-.262 44.131-7.805 60.043-23.258 8.27-8.029 14.229-18.852 17.18-29.941 2.422-9.113 4.883-26.236-4.193-32.162-3.436-2.248-6.559 5.719-6.93 7.689-1.693 9.047-.385 19.221-2.887 27.443-.748 2.455-1.701 4.182-4.076 7.531-.979 1.383-4.359 4.715-6.648 6.547-14.182 11.357-32.752 15.729-50.619 15.994-17.975.273-36.807-3.596-51.285-14.732-15.79-12.152-18.938-32.535-15.171-51.018.943-4.628-3.89-1.368-4.67 1.106zM296.336 871.985c9.606.846 20.838 4.406 25.07 13.941 3.9 8.793 3.713 19.945 3.514 29.381-.229 10.682-1.814 21.348-2.904 31.967-.821 7.992-3.751 20.982 1.232 27.955 5.195 7.266 12.879-8.988 13.392-12.357 1.479-9.754-.307-20.678-.039-30.631.307-11.322.671-22.684-.772-33.945-1.218-9.496-4.775-17.562-11.737-24.205-7.642-7.285-17.778-6.531-27.296-4.199-.616.152-1.395 2.013-.46 2.093z"/><path fill="#FF7D08" d="M840.078 433.833a527.508 527.508 0 0 0-5.049-8.254c.285-1.842.447-3.697.471-5.539.336-27.803-7.539-55.91-17.291-81.994-.012-.035-.021-.07-.031-.107-6.516-22.473-14.596-44.527-24.723-65.633-.17-.354-.344-.703-.516-1.059-9.15-23.836-20.756-46.754-34.275-68.281-12.232-19.48-26.482-37.891-43.154-53.781-13.547-12.912-29.119-26.227-46.781-33.045-6.877-2.654-13.885-4.047-21.031-3.207-17.25-9.637-35.973-16.451-55.805-18.002a78.76 78.76 0 0 0-2.795-.162c-22.984-8.639-47.646-13.312-71.223-6.996-11.794 3.16-22.578 9.496-31.689 17.881.203-4.926-1.145-9.518-5.809-11.895-9.002-4.586-19.5 6.701-22.626 13.953a442.176 442.176 0 0 1-6.54 14.447l-.014-.029c-1.622-3.432-3.562-6.498-5.994-9.385-1.119-1.332-2.334-2.58-3.58-3.793-.853-.828-4.52-4.047-1.869-1.643-1.323-1.201-2.736-2.303-4.12-3.43-11.229-9.139-25.903-10.393-39.647-7.879-15.061 2.754-29.307 11.004-41.684 19.703-14.531 10.211-27.846 22.111-40.248 34.795-19.834 20.285-39.5 42.773-53.68 67.52-16.016 27.949-28.049 58.93-35.405 90.262-4.444 18.928-7.632 38.789-7.427 58.463-8.252 8.447-16.281 17.088-23.474 26.496-6.323 8.27-11.935 27.68 2.345 30.918 13.84 3.143 28.02-3.203 40.269-9.51-12.69 14.717-22.638 30.99-25.942 50.77-.659 3.947-.152 8.906 2.443 12.148 3.316 4.141 9.631 3.809 13.627.842 1.818-1.354 3.708-2.553 5.66-3.666-3.254 6.854-5.691 14.027-6.961 21.793-.446 2.729-.326 6.074.762 8.895-8.9 12.764-13.854 28.477-12.338 44.039.66 6.77 4.93 11.4 11.982 9.689.424-.102.85-.197 1.274-.293l.817 2.473c-4.906 7.025-9.473 14.301-13.398 22.057-2.716 5.367-4.521 12.256-2.473 18.17 1.546 4.463 6.272 7.49 10.98 5.596 5.442-2.191 10.889-4.328 16.385-6.295-6.754 9.104-13.324 18.268-19.027 28.123-2.893 5-4.367 12.287-2.432 17.875 1.487 4.295 6.216 7.488 10.801 5.504 6.643-2.877 13.242-5.879 19.863-8.838-12.443 14.039-21.746 28.98-25.133 47.957-1.791 10.035-1.039 20.42.77 30.385 1.088 5.992 2.904 12.648 4.918 20.311 1.547 5.891 2.63 11.141 3.752 17.293 4.717 25.875 6.577 52.432 13.768 77.807 1.035 3.65 4.75 5.238 8.217 4.186 5.949-1.807 9.377-7.787 11.432-13.189.602-1.58 1.211-3.158 1.829-4.734.307-.775.616-1.549.928-2.322l.001-.004c.219-.531.686-1.672 1.406-3.432-1.396 3.508 1.078-2.234 1.445-3.031.828-1.799 1.688-3.58 2.559-5.357a203.698 203.698 0 0 1 5.342-10.172c.312-.559 1.824-3.068 2.111-3.572a196.522 196.522 0 0 1 2.15-3.305c1.943-2.924 4.018-5.76 6.171-8.533a126.926 126.926 0 0 1 3.249-3.982l.037-.043c.495-.545.992-1.09 1.496-1.629a90.19 90.19 0 0 1 7.148-6.857c.408-.354 2.189-1.748 2.746-2.197.971-.711 1.953-1.404 2.945-2.082 2.41-1.643 4.92-3.135 7.473-4.547a83.875 83.875 0 0 1 3.424-1.77c-.611.324 2.744-1.225 3.344-1.471 3.733-1.535 7.583-2.818 11.485-3.91a63.176 63.176 0 0 0 7.495-1.854c.345-.074.689-.154 1.035-.227 1.822-.383 3.658-.697 5.497-.998.511-.08 1.022-.154 1.534-.23-.861.139 1.979-.23 2.146-.248 4.013-.449 8.049-.68 12.084-.812a260.344 260.344 0 0 1 27.113.502c13.186.938 26.828-26.498 14.01-34.178-28.266-16.932-51.109-39.656-72.822-64.346-11.479-13.053-22.68-26.373-34.434-39.16.203-.5.414-.992.612-1.496 2.699-6.865.975-20.891-8.771-19.066a240.816 240.816 0 0 1-5.369-19.268c1.479-6.43 1.367-13.811-3.371-16.51a338.139 338.139 0 0 1-2.864-20c3.815-6.07 6.407-14.064 4.013-20.977-1.104-3.189-3.43-5.113-6.139-5.791-1.693-35.754.967-69.893 3.93-94.518 23.516-21.275 38-49.814 52.07-78.34 28.825-21.902 52.639-50.008 71.199-81.059a224.12 224.12 0 0 0 8.715-16.037c12.878-17.256 24.995-35.047 36.133-53.373.665 7.422 1.975 14.791 3.773 21.967 5.078 20.254 15.39 38.545 31.191 52.322 15.314 13.352 33.556 22.529 52.724 29.033 6.535 2.217 13.146 4.188 19.779 6.096 14.709 10.217 29.898 19.758 45.33 28.902 11.297 6.695 22.623 13.412 34.205 19.598 21.656 11.566 44.004 21.727 66.029 32.551 18.752 9.215 36.607 19.322 53.361 30.775 3.105 17.594 7.463 35.043 11.594 52.543-3.451 34-5.555 68.166-8.516 102.234-1.754 2.785-3.062 5.67-3.783 7.928a411.261 411.261 0 0 1-8.785 24.822c-.285.725-.572 1.447-.863 2.168-.074.174-.16.383-.27.639-.676 1.637-1.178 2.855-1.514 3.676a315.28 315.28 0 0 1-6.805 14.92c-3.701 7.621-7.758 15.088-12.07 22.379-.109.188-.223.373-.334.559-.352.572-1.014 1.658-1.264 2.053a256.18 256.18 0 0 1-3.648 5.57c-2.463 3.678-5.051 7.27-7.707 10.807-2.387 3.18-4.879 6.277-7.422 9.33-.566.676-1.139 1.35-1.713 2.02-.178.207-.324.381-.445.521l-.23.26a230.553 230.553 0 0 1-4.535 4.895c-6.166 6.498-12.775 12.564-19.686 18.26-.289.238-2.908 2.316-2.988 2.402a239.703 239.703 0 0 1-4.986 3.699 293.016 293.016 0 0 1-11.529 7.912c-8.057 5.268-16.492 9.939-25.137 14.166-4.998 2.443-8.273 9.395-8.949 14.605-.604 4.678 1.826 12.359 8.166 9.834 1.123-.447 2.242-.9 3.355-1.361.613 2.33 1.873 4.236 4.168 4.965 26.723 8.482 48.881 26.842 67.119 46.979 9.395 10.377 18.707 23.059 24.148 34.172a112.405 112.405 0 0 1 7.35 19.32c.307 1.109.574 2.229.83 3.348-.146-.561.498 2.607.578 3.113.506 3.195.404 6.721.334 9.953-.098 4.418 3.049 9.133 7.719 9.352 7.117.334 12.742-6.758 15.697-12.32a313.943 313.943 0 0 0 7.387-14.861c1.721-3.707 3.316-7.455 4.854-11.242 1.842-4.543-1.713 4.268.156-.262a712.216 712.216 0 0 0 3.615-8.887c4.412-11.098 8.258-22.43 11.359-33.963 6.727-25.02 11.541-50.637 14.852-76.326 2.873-22.291 4.756-44.67 6.164-67.086a830.689 830.689 0 0 0 5.76-23.855c5.691-25.129 11.062-50.73 13.355-76.43 1.484-16.643 1.027-33.104-.734-49.475.857-11.588.598-23.34-1.012-34.752 3.604-1.676 6.947-4.84 8.912-7.494 5.385-7.274 8.522-17.631 3.604-25.844zM262.211 794.116c-1.082-7.975-1.857-16-2.557-24.031.318.668.629 1.338.955 2 2.477 5.021 6.557 6.877 11.203 5.414-3.449 5.371-6.632 10.936-9.601 16.617zm25.184-37.099c.111-.545.212-1.088.295-1.633.285-1.871.617-3.729.979-5.582-.1.65.348-1.135.729-2.666a58.257 58.257 0 0 0 4.977 2.801 123.938 123.938 0 0 0-6.98 7.08zm44.321-44.563a339.945 339.945 0 0 0-5.972-10.26c.68.02 1.353.029 2.016.029 3.58 3.66 7.217 7.262 10.928 10.779-2.32-.194-4.645-.374-6.972-.548zm-32.888-354.656c-.886 1.764-1.8 3.516-2.726 5.26-.733-1.516-1.753-2.781-3.105-3.633 2.537-3.691 5.064-7.393 7.582-11.1a9.897 9.897 0 0 0 2.035 1.705 403.395 403.395 0 0 1-3.786 7.768zm16.583-83.569c.1-1.924-.143-3.842-1.021-5.51.374-.457.747-.914 1.128-1.363 1.824-2.002 3.725-3.932 5.648-5.838 2.396-2.373 4.885-4.652 7.417-6.881a6696.718 6696.718 0 0 0-13.172 19.592zm22.422-108.082c-.188.146-.21.164.025-.02-.008.007-.017.015-.025.02zm171.895-6.589c.001.045.005.09.006.137-.664.767-.48.452-.006-.137zm193.438 64.541a235.755 235.755 0 0 1 6.867 6.393 517.03 517.03 0 0 1 5.797 7.238 449.223 449.223 0 0 1 3.389 4.387 707.668 707.668 0 0 0-16.053-18.018zm63.645 547.886a504.916 504.916 0 0 1-1.741 8.311 243.2 243.2 0 0 0-.197.854c-2.043 8.898-4.445 17.707-6.857 26.508a336.387 336.387 0 0 1-2.131 7.402c-.732-1.629-1.5-3.244-2.293-4.844a183.045 183.045 0 0 0-2.295-4.447c3.822-5.768 6.141-13.008 5.564-17.713a58.484 58.484 0 0 0-1.033-5.932c2.762-2.688 5.035-6.031 6.525-8.551a340.538 340.538 0 0 0 6.266-11.086 588.465 588.465 0 0 1-1.808 9.498zm3.179-72.072a420.267 420.267 0 0 1-6.779 18.051l-.051.123c-.344.828-.699 1.654-1.051 2.479-.105-.244-.215-.486-.322-.73a575.281 575.281 0 0 0 10.672-36.287c.891.277 1.842.4 2.83.379a579.37 579.37 0 0 1-5.299 15.985z"/><path fill="#E83A64" d="M677.488 862.798c.15-.297.271-.58.426-.877.709-1.373 1.541-7.242-1.816-5.617-.889.432-1.746.893-2.602 1.365a3.686 3.686 0 0 0-1.451-.248c-.729.051-1.459.102-2.186.156-3.746.262-6.168 3.811-7.455 7.531-2.994 2.283-5.943 4.648-9.006 6.938-1.582 1.184-2.832 6.898.264 4.945 2.58-1.627 5.086-3.367 7.633-5.025.094 2.627.809 5.131 1.83 7.576-8.775 31.225 7.729 65.773 12.252 97.346 2.113 14.748 15.809-2.643 16.58-9.701 3.854-35.331 3.816-72.895-14.469-104.389zm-193.29-10.508c-19.103.988-37.549-8.969-51.068-21.762-6.35-6.008-11.615-13.09-16.188-20.508-4.65-7.549-6.589-17.041-11.931-24.025-.762-.965-1.757-1.43-2.985-1.393-.657.094-1.267.244-1.848.426-.698-3.664-1.214-7.301-1.461-10.883-.426-6.131-6.399 1.932-6.524 4.9-.197 4.695.047 9.424.547 14.154-1.859 5.859-1.203 13.371.135 18.252 1.437 5.242 3.723 10.35 6.465 15.244 3.969 15.324 9.313 30.283 17.255 44.045 6.572 11.393 16.245 23.465 30.003 25.666 16.957 2.707 30.688-13.115 38.576-25.984 1.975-3.224 7.903-18.591-.976-18.132z"/><path fill="#EAA286" d="M769.988 491.913c-1.268-11.895-3.062-23.717-5.242-35.471 1.438-20.695 1.789-41.346-1.479-61.914l.445-2.15c.346-1.674-.252-3.639-1.602-4.395a164.501 164.501 0 0 0-2.654-11.346c-1.387-5.094-6.672-.295-8.451 2.852-1.568-16.18-4.645-32.244-8.625-47.895-8.568-33.695-22.387-66.584-41.607-95.613-.439-.662-1.029-.975-1.674-1.055-3.088-6.105-6.525-11.934-10.494-17.227-.012-15.125-14.102-26.014-26.057-33.459-9.83-6.123-20.598-11.268-31.652-15.318-8.811-8.156-18.391-15.416-29.088-21.057-23.832-12.568-52.016-13.297-78.18-9.65-23.371 3.256-45.816 10.035-67.923 17.93a274.277 274.277 0 0 0-47.436 17.889c-.438.166-.876.332-1.314.496-.287.107-.566.303-.831.555-41.987 20.918-78.385 52.676-102.595 93.197-1.084 1.814-1.701 5.033-.255 6.84 1.968 2.457 4.978-.219 6.343-1.816a294.75 294.75 0 0 1 16.881-18.143 192.742 192.742 0 0 0-7.597 11.461c-15.822 25.83-26.159 55.516-27.042 85.941-.107 3.684 4.578.125 4.715-2.172 2.459-41.188 22.176-81.49 51.512-110.225 14.48-14.186 32.03-25.215 51.668-30.553 23.347-6.346 47.176-1.221 70.262 3.846 1.626.357 3.254.721 4.883 1.088.447.637 1.115 1.033 2.09.959.502-.037 1.004-.094 1.505-.141 16.874 3.867 33.88 8.086 51.016 10.766.418.264.932.459 1.562.57 1.85.328 3.723.469 5.611.453 15.002 1.93 30.104 2.484 45.301.383 17.076-2.359 33.502-8.131 50.631-10.135 8.672-1.014 17.389 5.955 25.945 7.66.816.164 1.611 3.209 2.404 3.414 7.723 9.951 14.93 10.807 21.322 21.502 25.295 42.312 35.455 91.021 40.479 139.506 1.658 16.014 2.926 32.025 3.668 48.049-.406 22.33-.455 44.666-.379 67.002a529.632 529.632 0 0 1-.814 11.23c-1.752 20.705-4.512 41.578-10.334 61.57-6.514 22.369-20.066 42.051-33.986 60.457-15.865 20.979-33.59 42.27-54.523 58.398-.359.275-.727.543-1.088.816-12.611 4.279-24.539 11.629-33.795 20.506a205.608 205.608 0 0 1-30.375 11.598c-20.105 5.908-41.361 8.293-62.21 5.736-3.655-.449-7.086 8.211-2.77 8.799 30.703 4.182 62.585-2.348 91.23-15.389.238 2.047 1.475 3.359 4.469 2.621 9.6-2.365 19.295-7.525 27.461-13.389.34.186.789.221 1.359.045.303 1.049 1.123 1.586 2.771.982 2.926-1.07 5.682-2.521 8.264-4.248.691.635 1.641.885 2.873.389 15.652-6.283 28.428-19.816 39.326-32.25 8.338-9.514 15.787-19.92 22.543-30.691 1.852.322 4.523-1.291 5.807-2.771 14.332-16.537 23.758-36.834 31.637-57.066 6.264-16.084 11.545-32.799 15.422-49.719-.021 6.072.137 12.135.564 18.184.291 4.121 4.178 4.158 6.699 1.801 19.744-18.465 15.998-45.893 13.404-70.233zM407.861 197.831a317.626 317.626 0 0 1 6.792-3.188c.51.668 1.312 1.148 2.502 1.338.693.111 1.385.201 2.078.283a105.18 105.18 0 0 0-11.372 1.567zM533.9 214.06c-.504.184-1.037.523-1.568.971-.516-.082-1.031-.17-1.547-.254 1.109-.254 2.219-.518 3.324-.793l-.209.076zm40.194 1.767c-.156.496-.289 1.217-.344 2-2.766.188-5.547.275-8.334.271 3.043-1.594 5.953-3.234 8.672-4.773.465-.137.93-.271 1.396-.408a11.422 11.422 0 0 0-1.39 2.91zm-3.307-46.746c1.297.141 2.594.293 3.893.453-1.281-.039-2.561-.07-3.844-.096a4.038 4.038 0 0 0-.049-.357zm-43.744-13.926c1.643-3.375 2.43-7.479-.266-8.469 15.801-1.488 31.666-.984 47.49 2.557 9.928 2.221 19.154 6.297 27.729 11.553-24.631-5.264-49.857-7.014-74.953-5.641zm88.799 54.862a705.65 705.65 0 0 0-4.627 1.055c5.27-2.428 10.547-4.795 15.969-6.602 7.441-.318 15.408-.232 22.914 1.16.09.107.182.213.271.32-11.601-.674-23.267 1.539-34.527 4.067zm91.146 418.502c1.051-3.336 2.307-6.607 3.564-9.789a196.55 196.55 0 0 1 3.199-7.58 141.43 141.43 0 0 0 5.531-9.201 1156.05 1156.05 0 0 0 6.129-11.336c-4.905 12.888-10.708 26.197-18.423 37.906zm23.989-246.26a596.088 596.088 0 0 0-1.609-13.096c.678 4.23 1.342 8.463 1.982 12.699-.127.129-.25.26-.373.397zm28.402 161.262c-.342-12.982.291-25.967 1.279-38.947a374.451 374.451 0 0 1 1.355 19.199c.309 6.978-.077 13.753-2.634 19.748z"/><path d="M401.477 773.017c-1.481 22.27 7.006 42.752 22.377 58.725 13.928 14.471 41.062 28.125 61.447 23.111 2.994-.738 7.909-10.424 3.576-11.861-9.212-3.053-19.125-3.09-28.45-6.111-9.454-3.061-18.224-7.996-26.167-13.912-17.281-12.875-28.607-30.572-28.236-52.607.064-3.867-4.408.575-4.547 2.655zm243.421 103.871c2.395 8.258 6.076 15.988 9.025 24.062 3.551 9.715 5.473 19.924 7.402 30.053 3.932 20.643 5.471 41.725 8.559 62.502.152 1.029.408 3.234 1.811 3.527.412.088.828.172 1.24.262 2.576.539 4.68-2.006 5.574-4.188 3.73-9.104.383-19.746-.797-29.264-1.455-11.76-3.398-23.459-5.717-35.082-2.289-11.469-5.496-22.682-10.035-33.471-3.352-7.967-7.588-16.752-16.322-19.527-.501-.161-.845.759-.74 1.126z"/><path d="M681.422 846.005c-13.551 4.963-25.285 12.922-34.449 24.115-1.529 1.865-2.979 4.688-2.201 7.178.994 3.188 4.191.287 5.232-1.145 7.885-10.857 18.506-18.674 30.625-24.252 1.851-.853 3.832-7.005.793-5.896z"/><path fill="#FFBF1F" d="M360.05 111.808a206.73 206.73 0 0 0-5.747 3.896c-14.531 10.211-27.846 22.111-40.248 34.795-5.625 5.754-11.232 11.691-16.709 17.799 19.655-20.287 40.967-39.043 62.704-56.49z"/><path fill="#FFBF1F" d="M283.165 186.485a502.596 502.596 0 0 0-9.764 11.381c-4.688 6.545-9.075 13.258-13.025 20.152-16.016 27.949-28.049 58.93-35.405 90.262-4.444 18.928-7.632 38.789-7.427 58.463a473.15 473.15 0 0 0-8.667 9.09c3.216 5.215 7.996 9.23 14.695 10.91 15.77 3.953 31.53-4.115 44.065-13.098 29.266-20.969 50.162-50.982 73.332-77.998 7.418-8.646 16.576-15.996 24.874-23.801 9.587-9.016 19.134-18.076 28.727-27.088 12.985-12.199 26.054-24.32 39.419-36.104a644.004 644.004 0 0 0 13.549-21.314c.26 2.906.623 5.805 1.072 8.688 1.138-.961 2.27-1.93 3.412-2.885.314-.262.855-.365 1.156 0 17.793 21.682 37.469 41.803 58.588 60.256 35.419 30.949 74.578 57.639 116.123 79.678 16.123 8.553 32.818 15.768 49.156 23.857 15.248 7.549 30.285 15.518 45.58 22.977 16.174 7.891 32.625 15.562 49.783 21.088 12.562 4.047 27.445 8.387 40.631 4.793 7.764-2.115 14.691-5.633 20.787-10.203-2.779-19.643-8.721-39.1-15.617-57.543-.012-.035-.021-.07-.031-.107-6.516-22.473-14.596-44.527-24.723-65.633-.17-.354-.344-.703-.516-1.059-9.15-23.836-20.756-46.754-34.275-68.281-12.232-19.48-26.482-37.891-43.154-53.781-13.547-12.912-29.119-26.227-46.781-33.045-6.877-2.654-13.885-4.047-21.031-3.207-17.25-9.637-35.973-16.451-55.805-18.002a78.76 78.76 0 0 0-2.795-.162c-22.984-8.639-47.646-13.312-71.223-6.996-11.794 3.16-22.578 9.496-31.689 17.881.203-4.926-1.145-9.518-5.809-11.895-9.002-4.586-19.5 6.701-22.626 13.953a442.176 442.176 0 0 1-6.54 14.447l-.014-.029c-1.622-3.432-3.562-6.498-5.994-9.385-1.119-1.332-2.334-2.58-3.58-3.793-.853-.828-4.52-4.047-1.869-1.643-1.323-1.201-2.736-2.303-4.12-3.43-11.229-9.139-25.903-10.393-39.647-7.879-8.74 1.598-17.203 5.055-25.188 9.367-31.361 24.529-61.234 51.271-87.634 81.118zm32.246 87.744c.1-1.924-.143-3.842-1.021-5.51.374-.457.747-.914 1.128-1.363 1.824-2.002 3.725-3.932 5.648-5.838 2.396-2.373 4.885-4.652 7.417-6.881a6696.718 6696.718 0 0 0-13.172 19.592zm394.622-43.738a517.03 517.03 0 0 1 5.797 7.238 449.223 449.223 0 0 1 3.389 4.387 709.388 709.388 0 0 0-16.053-18.018 237.149 237.149 0 0 1 6.867 6.393zm-200.305-70.933c.001.045.005.09.006.137-.664.767-.48.452-.006-.137z"/><path fill="#FFBF1F" d="M337.833 166.147c-.188.146-.21.164.025-.02-.008.007-.017.015-.025.02z"/><path d="M381.463 193.595c-14.329 13.461-25.193 31.275-35.867 47.645-11.768 18.043-23.157 36.35-35.494 54.016-16.266 23.289-33.898 46.012-56.221 63.098 17.093-22.191 31.004-46.859 43.728-71.941 9.879-19.471 19.066-39.281 28.789-58.83 9.919-19.945 20.865-39.174 32.515-58.15 1.68-2.736 2.574-7.689.387-10.42-2.873-3.588-7.765.129-9.657 2.77-25.208 35.18-41.915 76.209-60.905 114.865-17.525 35.674-37.466 70.668-64.986 99.562-.121.053-.24.109-.362.162-4.163 1.789-8.454 3.27-12.796 4.557-5.957 1.766-11.27 16.943-2.032 15.629a98.966 98.966 0 0 0 6.062-1.076c1.667 1.148 4.197.076 5.832-1.34l.065-.059c36.395-9.885 64.231-39.529 85.853-69.412 24.869-34.375 44.211-72.451 69.807-106.32 3.604-4.77 7.414-9.363 10.998-14.145 2.012-2.686 3.5-6.75 2.344-10.088-1.386-3.994-5.679-2.762-8.06-.523zm434.715 229.289c3.59-2.215 5.701-6.762 5.553-10.898-1.422-39.408-17.275-77.516-37.668-110.742-10.725-17.471-23.588-33.672-38.357-47.896-13.352-12.857-28.746-24.641-46.338-30.967-6.426-2.311-13.672 11.502-7.486 14.693 34.107 17.588 59.965 45.779 80.318 77.902 9.506 15 18.023 31.402 24.549 48.521a171.342 171.342 0 0 0-5.332-8.564c-11.607-17.428-26.738-32.004-42.979-45.076-33.643-27.084-72.703-46.23-108.602-69.984-8.354-5.525-16.646-11.121-24.66-17.133-4.699-3.525-12.332 9.59-8.123 13.148 33.377 28.203 71.967 49.09 107.881 73.752 32.848 22.553 62.678 50.254 78.4 87.354-8.604-10.336-18.141-19.943-27.709-28.807-19.902-18.436-41.916-34.531-64.705-49.193-20.139-12.955-41.145-24.875-62.559-35.598-19.836-9.932-40.135-18.93-59.695-29.41-25.059-13.426-53.002-30.283-66.873-56.17-3.899-7.275-12.938 4.527-10.375 9.814 19.304 39.848 63.587 61.898 101.134 81.18 19.164 9.84 38.357 19.32 57.039 30.08 23.346 13.443 46.184 27.904 67.656 44.195 15.004 11.381 29.164 23.895 42.258 37.43 13.045 13.484 23.564 28.533 34.744 43.504 4.895 6.557 14.09-7.877 11.547-13.102a131.85 131.85 0 0 0-2.066-4.051 16.412 16.412 0 0 0 2.242-3.871c.069-.039.137-.07.206-.111z" fill="#FF7D08"/><path fill="#FF8A0B" d="M397.657 806.076c.25-.007.486.012.729.072l-.676-.175c.22.069.411.165.593.308l-.535-.439c.166.146.296.311.405.503l-.347-.645c.1.193.17.395.217.606l-.159-.801c.018.092.034.184.038.276.035.716.348 1.521 1.024 1.865.69.352 1.495.112 2.111-.268.854-.526 1.511-1.359 1.961-2.243.487-.956.631-1.853.663-2.905.018-.604-.132-1.263-.376-1.815-.598-1.35-1.653-2.152-3.152-2.268-.844-.064-1.686.491-2.265 1.038-.8.756-1.39 1.753-1.719 2.8-.278.883-.404 1.906-.093 2.803.228.663.817 1.308 1.581 1.288z"/><path d="M453.34 143.276c27.946-30.701 66.065-46.838 107.449-46.669 42.683.174 84.252 14.449 119.98 37.404 19.05 12.239 36.185 27.236 51.232 44.132 17.336 19.463 31.142 42.019 43.308 64.987 25.479 48.103 42.643 100.56 51.104 154.301 8.527 54.157 8.796 109.362 3.233 163.829-2.84 27.806-7.311 55.437-12.972 82.802-5.146 24.878-11.938 49.302-18.382 73.859-9.342 35.599-17.907 71.395-27.233 106.996-3.973 15.165-7.948 30.341-12.537 45.333-1.591 5.197-3.276 10.371-5.202 15.455-.157.411-.316.821-.478 1.23-.79 2.02.689-1.624-.109.275a65.845 65.845 0 0 1-1.116 2.485 38.036 38.036 0 0 1-1.057 2.059l-.204.358c1.096-1.759.963-1.538-.4.663 1.403-2.296.739-1.212.349-.709-1.947 2.513-3.724 7.433-1.433 10.293 2.382 2.975 6.251-.178 7.86-2.254 7.323-9.449 10.562-22.84 14.113-34.02 6.165-19.402 11.439-39.078 16.63-58.758 5.859-22.217 11.524-44.483 17.226-66.741 5.729-22.369 12.064-44.586 17.589-67.005 26.552-107.734 34.517-221.105 9.135-329.851-12.579-53.896-34.229-105.248-64.231-151.759-25.098-38.909-60.816-70.509-102.491-90.712-35.553-17.235-75.593-25.06-114.856-19.449-38.975 5.569-74.408 25.223-99.946 55.076-2.795 3.269-.813 11.061 3.439 6.39z"/><path d="M473.215 122.685c-21.838-36.403-67.443-37.601-103.701-25.22-20.594 7.032-39.607 18.533-55.901 32.893-18.046 15.905-30.946 36.64-42.809 57.327-27.772 48.433-46.315 102.151-57.549 156.713-12.147 58.999-13.188 120.371-11.287 180.383 3.362 106.121 20.409 212.243 47.701 314.795a1447.196 1447.196 0 0 0 7.78 28.062c1 3.475 4.915 2.232 6.811.441 2.575-2.433 4.191-6.417 3.209-9.92-26.868-95.837-45.143-194.307-52.161-293.635-4.359-61.7-5.101-124.91 3.098-186.329 7.304-54.716 23.648-108.701 47.578-158.429 10.81-22.462 23.193-45.347 39.206-64.581 13.261-15.928 31.076-28.031 49.694-36.816 33.859-15.978 79.685-19.891 106.538 10.775 1.282 1.465 2.458 3.019 3.605 4.589 3.841 5.257 10.871-6.575 8.188-11.048z"/><path d="M750.426 395.313c9.174 67.629 3.338 149.383-23.348 208.191-29.287 64.553-85.838 111.791-155.449 126.676-78.222 16.729-164.175-4.684-219.878-63.34-56.311-59.297-70.319-142.865-63.133-221.684-3.604-2.047-7.286-3.881-11.113-5.324a518.76 518.76 0 0 0-3.049 28.658c-6.092 78.463 11.326 160.244 66.107 219.273 54.633 58.873 138.852 81.246 216.865 68.432 72.48-11.906 132.707-58.203 168.859-121.338 36.676-64.053 49.643-155.043 37.936-232.572-4.496-2.542-9.088-4.888-13.797-6.972z"/><path d="M432.902 733.392c-51.966.234-110.968.178-145.347 46.252-15.227 20.4-23.275 44.705-28.006 69.463-4.729 24.74-6.975 51.115-4.17 76.111.586 5.207 5.225-1.18 5.638-3.299 8.54-43.76 5.552-92.744 32.231-130.941 30.172-43.203 90.955-36.383 136.223-46.102 3.662-.785 8.832-11.508 3.431-11.484zm140.452 15.984c24.621-1.941 50.965-.73 74.367 7.766 21.072 7.654 37.16 22.527 50.422 40.17 14.133 18.805 22.463 40.514 30.316 62.459 7.994 22.332 14.451 45.488 18.986 68.762 1.375 7.053 10.873-4.834 10.188-9.373-7.506-49.6-16.219-99.551-47.049-140.738-13.586-18.15-33.027-32.119-54.568-39.068-27.523-8.879-55.34-3.846-81.805 6.096-1.002.375-2.641 4.065-.857 3.926z"/><path fill="#EAA286" d="M754.361 415.169c-13.842-13.646-29.471-25.127-45.439-36.133-7.957-5.482-16.172-10.602-24.381-15.693l-.99-.611c1.125 1.383.486.934-1.92-1.352-.947-.729-1.846-1.426-2.879-2.031-2.008-1.18-4.057-2.295-6.09-3.428-4.414-2.457-8.836-4.932-13.344-7.211-17.402-8.807-35.893-15.346-54.023-22.459-17.799-6.982-35.525-14.305-52.734-22.646-10.643-5.158-21.023-10.859-30.988-17.232-4.867-3.113-9.75-6.184-14.472-9.52a194.058 194.058 0 0 1-6.887-5.125c-.959-.742-1.9-1.506-2.842-2.268.375.277-2.545-2.184-2.996-2.578-15.281-13.359-28.053-29.555-37.031-47.07.219-3.197.275-6.41.138-9.627-.104-2.461-1.974-4.424-4.515-3.652a6.834 6.834 0 0 0-2.024 1.025c-2.381-2.027-5.722-1.516-8.604.283.521-4.348.863-8.721 1.127-13.078.141-2.316-.217-5.678-3.26-5.822-3.104-.145-5.412 2.92-6.745 5.295-12.582 22.406-22.085 46.459-33.841 69.301a338.931 338.931 0 0 1-14.302 25.135c-5.233 6.977-10.54 13.906-15.622 20.982-.626.871-1.15 2.168-1.459 3.531a292.767 292.767 0 0 1-10.917 13.332c-16.2 18.609-31.984 37.25-45.025 58.277a278.27 278.27 0 0 0-8.628 14.93c-6.726 8.752-12.744 18.045-17.553 27.994-1.033 2.139-1.961 5.41-.279 7.51.482.604 1.057.912 1.667 1.014a248.453 248.453 0 0 0-4.981 15.793 274.317 274.317 0 0 0-.837 3.113c-1.37 5.16 3.981 4.211 5.159.24a257.577 257.577 0 0 1 10.307-28.543c13.844-19.848 29.794-38.17 45.971-56.279 7.801-7.324 15.779-14.467 23.732-21.609 28.699-25.773 59.27-52.105 77.738-86.596a126.79 126.79 0 0 0 1.832-3.578c4.115 8.082 8.848 15.844 14.225 23.139 11.279 15.303 25.332 28.42 40.432 39.891 14.744 11.199 31.652 19.982 48.23 28.094 17.291 8.463 35.271 15.828 53.201 22.822 12.064 4.705 24.109 9.328 36.336 13.586 5.945 2.07 12 3.84 17.973 5.832 7.748 2.584 11.656 3.373 19.111 5.965 24.002 8.344 46.688 20.338 66.809 35.871 3.146 2.428 8-2.176 9.609-4.35 2.373-3.21 5.648-10.878 2.011-14.464zM418.682 252.333c.63-1.244 1.273-3.307 1.086-5.049 3.014-6.158 5.97-12.352 8.871-18.57-2.76 9.984-6.842 19.668-11.377 28.695-5.767 11.479-12.653 22.359-20.115 32.836-.186.162-.365.33-.551.492a386.39 386.39 0 0 0 10.6-18.688c4.146-6.366 8.037-12.9 11.486-19.716zm1.695 26.037a207.351 207.351 0 0 0 2.9-3.713c5.649-7.426 10.736-15.408 15.03-23.793-3.825 10.836-9.338 20.748-18.121 28.045l.191-.539zm-20.921 26.465c-.997 1.014-2.009 2.01-3.015 3.014a383.016 383.016 0 0 0 10.086-14c.308-.307.609-.619.914-.926.06 1.061.321 2.027.81 2.732a419.955 419.955 0 0 1-8.795 9.18z"/><path d="M478.029 107.7c-19.082 15.416-37.541 35.752-43.495 60.226-4.826 19.836.09 38.621 10.994 55.491 12.516 19.365 31.382 34.532 49.777 48.015 23.243 17.037 48.414 31.292 73.884 44.678 54.195 28.484 110.559 53.256 162.975 85.031 17.418 10.559 34.934 21.621 49.674 35.798 11.215 10.786 23.127 24.639 27.254 39.321.812 2.888 4.083 1.839 5.644.365 2.132-2.014 3.475-5.318 2.659-8.219-2.66-9.459-6.295-18.756-12.088-27.308-6.218-9.178-13.863-17.238-21.833-24.899-19.551-18.793-42.179-33.962-65.339-47.898-52.992-31.886-110.218-56.125-164.544-85.549-23.745-12.861-47.888-25.454-69.309-42.069-15.595-12.096-31.144-27.408-37.854-45.652-2.408-6.547-3.24-11.16-3.185-18.45.008-1.072-.059.881.044-.935.05-.886.134-1.769.227-2.65.189-1.797.491-3.581.85-5.352.235-1.159-.266 1.05.225-.899.23-.915.494-1.821.766-2.725.56-1.865 1.23-3.695 1.95-5.503-.734 1.844.294-.626.442-.954.427-.944.867-1.88 1.325-2.809.953-1.934 2.004-3.817 3.1-5.672.447-.738.458-.762.031-.073a103.262 103.262 0 0 1 2.662-4.047c1.374-2.001 2.833-3.942 4.329-5.853 6.353-8.116 14.009-15.528 21.888-22.632 4.068-3.668 3.523-14.089-3.053-8.777z"/><path d="M432.923 172.356c-3.135 20.552-9.338 40.396-18.888 58.876-8.536 16.519-19.582 31.513-31.442 45.778-24.822 29.854-52.77 56.91-73.538 89.975-17.234 27.439-29 57.388-35.454 89.128-.635 3.121 1.231 7.04 4.916 5.921 4.079-1.239 6.111-5.707 6.921-9.502 4.814-22.549 12.651-44.315 23.541-64.636 9.416-17.57 21.282-33.673 33.967-49.003 24.398-29.484 51.871-56.312 71.988-89.117 15.002-24.464 24.214-51.967 27.814-80.393.325-2.564-.883-5.886-4.081-4.915-3.255.99-5.265 4.75-5.744 7.888zM323.917 428.079c3.757-7.587 10.939-13.103 17.788-17.764 9.986-6.796 21.254-11.563 32.871-14.752 12.118-3.326 24.687-4.303 37.149-2.64 13.83 1.845 24.687 8.165 36.503 15.034 4.707 2.736 10.058-7.941 7.042-11.396-19.148-21.932-54.827-20.797-80.282-13.302-21.538 6.341-47.497 20.11-56.881 41.859-2.551 5.911 2.87 8.899 5.81 2.961z"/><path fill="#EAA286" d="M430.932 461.433c-1.645-6.49-4.342-17.164-7.791-21.078-6.623-10.342-15.87-18.75-28.768-19.887-19.136-1.684-37.205 14.389-43.959 35.57-1.194 3.748-.252 8.152 2.589 5.436.814.645 2.093.512 3.849-1.027 19.266-16.881 44.309-5.615 64.457 2.92.069.029.139.047.209.072a103.69 103.69 0 0 1 2.084 4.926c2.199 5.591 8.255-3.284 7.33-6.932z"/><path d="M438.159 463.901c-2.948 1.885-6.352 2.195-9.785 1.781-17.134-13.693-36.875-22.6-58.264-12.566-.554.26-1.101.539-1.648.816-10.145 4.713-18.275-.354-23.4-7.41-2.436-3.355-7.229 4.252-5.322 7.186 2.962 4.557 7.42 7.104 12.553 8.385-.477.172-.948.355-1.434.506-2.906.902-5.861.936-8.831.311-4.339-.912-7.093-4.52-10.901-6.303-4.072-1.91-7.074 5.822-5.357 8.672 4.026 6.682 13.562 9.305 20.786 7.971 1.461-.271 2.887-.693 4.287-1.215.471.064 1.061-.041 1.821-.428 8.133-4.139 16.514-6.621 25.683-6.016 6.862.455 13.8 2.064 20.524 3.445 12.012 2.467 30.008 12.287 40.622 1.551 1.821-1.842 3.095-9.516-1.334-6.686zm256.209-39.175c-8.935-21.337-33.864-34.009-54.788-40.206-26.57-7.87-60.205-6.986-80.705 14.202-1.94 2.006-3.38 4.764-3.162 7.633.219 2.89 2.725 4.261 5.215 2.657 11.091-7.141 21.616-12.413 34.767-14.577 12.787-2.104 26.379-.547 38.798 2.842 11.692 3.19 22.964 8.304 33.084 14.961 7.46 4.907 15.513 11.096 19.661 19.232 2.592 5.089 8.668-3.073 7.13-6.744z"/><path fill="#EAA286" d="M588.211 469.864a104.817 104.817 0 0 1 2.086-4.926c.07-.025.139-.043.209-.072 20.148-8.535 45.191-19.801 64.455-2.92 1.758 1.539 3.035 1.672 3.85 1.027 2.842 2.717 3.783-1.688 2.59-5.436-6.754-21.182-24.824-37.254-43.959-35.57-12.898 1.137-22.145 9.545-28.77 19.887-3.447 3.914-6.145 14.588-7.789 21.078-.926 3.649 5.131 12.524 7.328 6.932z"/><path d="M573.656 465.401c2.947 1.885 6.352 2.195 9.785 1.781 17.133-13.693 36.875-22.6 58.264-12.566.553.26 1.1.539 1.648.816 10.145 4.713 18.275-.354 23.4-7.41 2.436-3.355 7.229 4.252 5.322 7.186-2.963 4.557-7.42 7.104-12.553 8.385.477.172.947.355 1.434.506 2.906.902 5.861.936 8.83.311 4.34-.912 7.092-4.52 10.902-6.303 4.072-1.91 7.074 5.822 5.357 8.672-4.027 6.682-13.562 9.305-20.787 7.971-1.461-.271-2.887-.693-4.287-1.215-.471.064-1.061-.041-1.82-.428-8.133-4.139-16.514-6.621-25.684-6.016-6.861.455-13.799 2.064-20.523 3.445-12.014 2.467-30.008 12.287-40.623 1.551-1.821-1.842-3.094-9.516 1.335-6.686z"/><path fill="#FF617F" d="M552.516 580.173c-9.543-5.207-19.352-8.412-29.568-10.91-2.016-.492-4.145 2.916-4.709 6.074l-.982-.031a228.374 228.374 0 0 0-12.164-.02c-2.196-2.598-4.758-4.537-7.986-5.518-4.447-1.352-9.408.76-13.375 3.104-8.434 4.986-15.439 12.766-23.167 19.16-.515.123-1.072.605-1.589 1.279a65.857 65.857 0 0 1-3.877 2.855c-2.004 1.355-2.906 8.004.375 6.082a60.319 60.319 0 0 0 2.302-1.426l.063.168a6.75 6.75 0 0 0-.256.391 10.634 10.634 0 0 0-1.387 7.354c2.359 13.971 8.24 16.482 17.953 24.441 8.948 7.336 20.271 9.674 30.833 8.68 7.714-.727 15.274-3.223 22.225-7.225 6.283 1.646 12.811-.283 18.59-6.195 8.729-8.934 13.467-13.803 12.906-27.686 2.594-.815-2.828-18.745-6.187-20.577zm-78.984 45.717a66.777 66.777 0 0 0 6.023 5.6 36.255 36.255 0 0 1-6.023-5.6z"/><path d="M560.002 596.093c-.947 9.332-4.186 17.734-10.1 24.438-7.49 8.49-17.711 12.68-27.596 14.574-20.497 3.93-45.292-3.096-58.839-23.59-3.725-5.635-6.139-12.166-7.406-19.086-1.637-.268-3.273-.533-4.912-.795 4.846 52.355 66.998 66.873 97.71 37.449 8.699-8.336 14.064-20.254 15.359-33.324-1.404.129-2.808.238-4.216.334z"/><path d="M435.545 590.491c12.651 12.521 25.33.799 36.013-9.156 5.343-4.98 10.964-10.357 17.717-11.861 8.599-1.914 14.748 6.395 20.104 13.23 2.039 2.604 4.806-3.602 3.555-5.912-4.32-7.973-11.538-14.863-19.603-14.906-6.891-.039-13.207 4.939-18.586 9.725-10.893 9.686-23.075 25.176-36.688 12.811-1.79-1.626-4.319 4.282-2.512 6.069z"/><path d="M511.865 582.261c5.809-6.832 12.733-12.246 21.032-10.182 6.393 1.59 11.945 7.461 16.857 12.383 10.131 10.15 21.959 20.998 34.479 9.311 1.195-1.117 2.102-2.869 1.984-4.797-.102-1.641-1.234-2.357-2.371-1.488-5.914 4.521-11.646 5.207-17.926 1.377-6.135-3.744-11.217-9.855-16.611-14.941-5.104-4.812-10.781-9.098-17.34-9.684-8.455-.756-15.896 5.988-21.522 12.996-1.755 2.183-1.427 8.372 1.418 5.025zm-24.904 18.713c7.842 6.287 17.035 12.998 27.618 11.465 7.993-1.16 14.651-7.867 21.065-12.211 2.424-1.641 3.303-8.9-.482-6.357-5.781 3.885-11.295 9.217-18.127 11.141-9.582 2.699-19.731-5.217-26.718-10.623-2.303-1.785-5.803 4.62-3.356 6.585z"/><path d="M531.113 604.433c9.922.238 21.641 1.348 30.439-4.223 1.768-1.119 3.982-8.016.213-6.641-9.342 3.404-18.553 3.502-28.393 3.68-2.976.055-5.755 7.1-2.259 7.184zm-37.042-9.952c-5.148-.713-10.559-.01-15.758-.279-5.984-.311-11.213-2.131-16.975-3.293-2.965-.6-5.065 5.326-2.895 7.062 4.043 3.232 11.085 3.555 16.03 3.834 5.896.332 12.419.428 18.185-1.008 2.053-.511 4.544-5.88 1.413-6.316z"/><path fill="#EAA286" d="M591.83 574.315c2.824 2.293 5.406 4.477 7.152 7.758 1.799 3.383 2.338 7.152 3.09 10.85.373 1.834 2.539 1.777 3.779 1.014 2.184-1.348 3.369-4.039 3.33-6.537-.123-7.822-4.854-20.688-14.559-19.895-2.737.223-5.202 4.853-2.792 6.81zm-160.293-3.334c-2.823 2.293-5.405 4.479-7.151 7.76-1.799 3.383-2.338 7.15-3.09 10.848-.373 1.834-2.541 1.779-3.779 1.016-2.184-1.348-3.369-4.041-3.33-6.537.123-7.824 4.854-20.688 14.559-19.895 2.736.223 5.2 4.853 2.791 6.808z"/><ellipse fill="#FFAD9F" cx="670.525" cy="549.653" rx="27.266" ry="26.217"/><ellipse fill="#FFAD9F" cx="351.993" cy="551.089" rx="27.266" ry="26.217"/></svg>