<svg xmlns="http://www.w3.org/2000/svg" xmlns:xlink="http://www.w3.org/1999/xlink" width="1030" height="1030" viewBox="0 0 1030 1030"><defs><path id="a" d="M1020.378 515.001c0 279.115-226.266 505.377-505.379 505.377-279.111 0-505.377-226.264-505.377-505.377S235.888 9.622 514.999 9.622c279.113 0 505.379 226.266 505.379 505.379z"/></defs><use xlink:href="#a" overflow="visible" fill="#FFBF1F"/><clipPath id="b"><use xlink:href="#a" overflow="visible"/></clipPath><g clip-path="url(#b)"><path fill="#FFBF1F" d="M1021.413 517.214c0 279.115-226.265 505.377-505.378 505.377-279.112 0-505.377-226.264-505.377-505.377S236.923 11.835 516.035 11.835c279.113 0 505.378 226.266 505.378 505.379z"/><path fill="#FC9E17" d="M64.591 301.339c65.698-60.766 147.473-101.363 226.167-142.393 40.815-21.281 80.746-43.73 120.539-66.854 43.206-25.111 87.47-49.598 136.054-62.561l-2.864-37.723C469.489 62.96 382.009 118.8 296.63 176.392c-43.967 29.658-87.432 59.996-129.214 92.682-20.033 15.672-39.122 32.311-60.043 46.828-21.763 15.1-44.411 28.885-66.553 43.41-20.462 13.42-40.42 27.699-58.93 43.736-7.093 6.145-11.696 17.17-10.986 26.521.548 7.209 5.931 13.973 13.849 11.199 98.168-34.393 184.331-95.652 268.734-154.941 42.164-29.617 84.252-59.42 128.115-86.494 19.998-12.342 40.242-24.098 59.857-37.074 21.044-13.918 41.816-28.238 62.965-42 37.357-24.314 76.479-48.123 120.033-59.316l-6.716-33.35c-3.625 4.496-11.991 11.266-18.964 15.918-10.001 6.67-20.648 12.365-31.156 18.178-23.028 12.742-45.092 27.219-67.553 40.936-51.306 31.332-102.533 62.797-153.852 94.113-51.111 31.188-102.327 62.211-153.791 92.816-45.841 27.262-92.238 53.613-137.738 81.449-57.197 34.99-113.604 73.15-161.328 120.578-6.828 6.783-11.733 16.688-10.986 26.52.559 7.365 5.898 13.781 13.85 11.199 51.945-16.859 99.749-43.609 147.504-69.639C94 432.257 145.888 407.882 197.311 382.727c106.724-52.203 213.545-104.201 320.026-156.898 43.588-21.572 87.409-42.348 128.738-68.076 36.969-23.018 73.674-48.996 115.463-62.539-.954-12.574-1.908-25.146-2.864-37.721-32.515 34.457-76.607 55.146-117.22 78.289-50.043 28.516-97.458 62.32-145.694 93.777-48.672 31.742-97.557 62.701-143.462 98.404-36.259 28.201-71.636 58.477-113.409 78.264C166.968 440.29 75.416 461.753 37.56 541.29c-3.076 6.463-5.365 14.316-2.91 21.402 1.744 5.039 7.496 9.094 12.933 6.588 100.087-46.102 193.518-104.332 287.45-161.586 46.518-28.355 93.288-56.326 141.229-82.229 49.123-26.541 100.223-49.029 149.865-74.543 51.182-26.305 101.262-54.686 151.102-83.426-.984-12.998-1.971-25.994-2.959-38.99-89.506 66.279-184.819 124.035-280.237 181.279-95.315 57.186-189.7 115.123-280.916 178.699C148.345 533.63 70.699 560.08 20.878 624.457c-8.81 11.383-11.102 42.221 10.985 31.381 208.226-102.16 408.94-218.58 611.71-330.955 81.106-44.949 162.599-89.213 245.033-131.684l-2.959-38.988C684.77 269.934 489.944 395.938 300.087 528.914 223.16 582.793 147.083 637.887 71.74 693.957c-9.188 6.836-16.062 17.881-15.161 29.76.735 9.699 9.591 15.234 18.12 9.229 43.633-30.723 91.014-55.527 138.016-80.598 48.866-26.064 96.421-53.967 143.454-83.207 97.824-60.818 193.597-125.836 295.819-179.223 79.944-41.756 155.398-91.654 236.617-131.035l-7.131-35.752C726.442 362.759 545.962 469.948 368.333 577.765c-93.445 56.72-186.838 113.709-276.603 176.166-9.319 6.484-16.044 18.146-15.161 29.758.801 10.539 9.316 14.158 18.12 9.23 202.516-113.371 408.093-221.234 609.108-337.291 82.609-47.695 164.386-96.848 244.781-148.197-3.662-10.461-7.324-20.92-10.984-31.381-4.996 7.512-10.377 14.717-16.098 21.689-5.041 6.145-10.836 12.266-18.376 19.707-14.123 13.939-29.659 26.809-45.089 38.273-35.397 26.297-73.572 48.73-112.081 70.107-37.449 20.789-75.582 40.312-113.116 60.945-42.605 23.422-83.599 49.658-124.551 75.828-65.341 41.752-130.41 84.795-198.977 121.15-60.084 31.857-124.11 59.162-173.205 107.688-6.838 6.762-11.73 16.707-10.986 26.521.622 8.164 5.797 12.766 13.852 11.199 27.105-5.268 51.928-18.041 75.645-31.76 24.854-14.379 49.684-28.809 74.537-43.191a10614.59 10614.59 0 0 0 152.23-89.771c49.531-29.773 100.037-57.951 150.667-85.822 50.375-27.73 102.132-51.93 153.663-77.322 67.275-33.148 131.118-72.73 197.158-108.186l-10.984-31.383c-5.504 7.193-9.136 10.836-17.041 18.057-7.751 7.076-15.978 13.312-24.516 19.367-18.807 13.338-38.714 25.094-58.617 36.699-43.185 25.18-85.118 51.793-126.224 80.277-91.95 63.715-180.731 131.844-272.466 195.85-62.606 43.68-127.019 85.396-195.645 119.062l2.959 38.99c48.338-27.512 98.725-51.109 148.234-76.383 25.085-12.807 49.887-26.168 74.097-40.572 24.189-14.391 46.896-30.896 69.81-47.201 23.254-16.545 46.578-32.992 70.564-48.465 23.51-15.168 48.085-28.535 72.547-42.078 48.809-27.02 97.927-53.48 146.338-81.211 61.396-35.17 121.518-72.686 178.058-115.307l-10.984-31.381c-59.98 69.829-146.117 119.634-225.496 166.942-91.051 54.268-181.007 110.705-269.408 169.203-41.195 27.26-81.384 55.869-121.203 85.092-39.395 28.914-78.96 57.732-121.234 82.348-9.594 5.584-15.991 18.82-15.16 29.758.841 11.066 9.201 13.475 18.119 9.23 100.961-48.053 196.104-107.057 291.245-165.518 47.797-29.369 95.674-58.625 144.386-86.459 47.674-27.238 96.568-52.016 145.609-76.67 75.025-37.713 150.203-76.055 218.389-125.428l-7.131-35.75c-33.609 33.213-76.089 55.598-117.895 76.719a4043.125 4043.125 0 0 0-133.637 70.689c-99.297 54.922-199.127 109.008-295.387 169.18-39.695 24.812-79.178 50.248-116.168 78.982-32.521 25.262-64.553 53.299-102.398 70.43-8.954 4.055-15.02 11.32-17.994 20.766-1.854 5.883-3.031 24.236 8.273 22.725 45.448-6.074 87.678-22.926 128.725-42.799 43.947-21.275 85.809-46.65 127.57-71.857 92.4-55.779 188.994-103.605 284.819-153.17 30.956-16.012 61.8-31.988 92.062-49.281l89.188-50.969c9.618-5.496 15.986-18.891 15.161-29.758-.804-10.576-9.309-14.111-18.121-9.23-104.188 57.711-206.854 118.117-308.767 179.746-51.145 30.93-102.087 62.188-152.946 93.584-44.668 27.572-85.541 60.625-129.553 89.188-21.203 13.756-43.262 26.518-67.016 35.328l-1.309 40.957c171.867-107.34 370.172-160.402 549.303-253.342 47.312-24.547 93.093-52.107 136.094-83.643 9.217-6.758 16.058-17.938 15.16-29.76-.76-9.986-9.485-14.867-18.119-9.229-189.893 124.01-375.483 255.294-574.295 364.989a2775.571 2775.571 0 0 1-59.694 31.969l7.133 35.752c73.348-58.309 162.889-92.967 248.278-129.312 44.957-19.137 89.819-38.742 132.914-61.836 22.314-11.959 44.491-24.162 66.002-37.533 23.461-14.584 46.565-29.75 71.245-42.24l-14.291-26.021c-3.254 5.631 2.838-4.268-.768 1.271-1.092 1.672-2.266 3.291-3.438 4.908-1.197 1.656-2.473 3.256-3.742 4.855-.225.285-4.667 5.496-1.594 2.025-6.42 7.246-13.553 13.844-20.877 20.158-14.344 12.365-31.18 23.664-48.141 34.455-35.631 22.666-73.098 42.25-109.025 64.42-39.857 24.594-76.527 54.361-114.17 82.133-42.476 31.334-86.008 61.828-133.523 85.104-8.504 4.166-17.229 7.842-26.043 11.295.954 12.572 1.908 25.146 2.865 37.721 61.736-53.27 143.855-80.49 220.312-108.334 80.787-29.42 162.883-61.467 226.772-120.973 7.469-6.955 14.517-14.354 21.267-22.004 7.163-8.117 13.979-19.857 10.071-31.133-3.469-10.01-15.477-8.066-21.376-1.381-114.229 129.438-307.649 132.047-443.065 231.178a405.641 405.641 0 0 0-25.289 20.133c-7.098 6.125-11.693 17.186-10.986 26.523.529 6.965 5.992 14.279 13.852 11.197 97.135-38.068 176.129-109.006 260.492-168.248 66.981-47.033 147.925-76.375 205.264-136.568 10.397-10.916 19.23-22.635 26.766-35.684 7.101-12.287 4.061-35.305-14.291-26.02-23.682 11.982-45.959 26.396-68.421 40.475-22.415 14.049-45.567 26.727-68.829 39.299-42.021 22.705-85.975 41.566-129.891 60.242-90.248 38.379-182.229 75.838-259.648 137.379-7.225 5.744-11.672 17.469-10.985 26.521.819 10.785 9.259 13.842 18.12 9.23C584.75 936.469 771.74 806.555 960.965 681.342a11193.585 11193.585 0 0 1 56.154-36.924l-2.959-38.988C850.089 725.748 651.649 782.42 469.114 867.284c-48.147 22.383-95.298 46.992-140.351 75.131-8.23 5.139-13.766 14.979-14.994 24.48-1.041 8.053 3.029 20.43 13.686 16.479 48.653-18.047 91.169-48.994 132.91-79.129 45.077-32.541 91.929-61.576 139.312-90.625 101.836-62.436 204.242-123.967 307.943-183.266a7359.87 7359.87 0 0 1 86.651-48.766c-.985-12.996-1.972-25.992-2.96-38.988-51.546 29.457-102.699 59.619-155.438 86.898-53.777 27.818-107.557 55.633-161.336 83.449-43.93 22.723-87.301 45.756-129.695 71.246-41.771 25.117-83.297 50.699-126.523 73.277-41.221 21.529-86.023 41.922-132.549 48.141-3.242 14.498-6.481 28.994-9.721 43.49 47.462-21.482 85.908-55.805 127.178-86.811 44.623-33.523 92.952-62.742 140.678-91.576 96.972-58.586 197.005-111.867 295.911-167.064 73.6-41.076 157.644-70.725 218.6-130.963 6.843-6.76 11.733-16.709 10.988-26.521-.729-9.592-9.636-15.373-18.12-9.23-88.588 64.145-188.591 109.527-285.451 159.373-99.426 51.166-193.672 111.625-289.093 169.732-73.313 44.643-147.525 88.053-225.085 124.969l2.959 38.988c49.188-28.641 94.676-62.945 140.544-96.504 46.478-34 94.138-66.234 142.512-97.467 87.035-56.191 175.351-110.045 263.912-163.752 74.69-45.295 149.065-94.295 206.426-161.074 5.669-6.598 9.146-18.316 6.218-26.762-2.553-7.369-11.105-9.217-17.203-4.619-89.627 67.562-188.064 121.631-286.238 175.51-49.329 27.074-98.405 53.916-144.788 85.881-23.353 16.092-46.29 32.777-69.501 49.068-23.09 16.205-47.426 30.418-72.158 43.965-61.564 33.727-125.931 62.055-186.961 96.791-9.622 5.477-15.983 18.906-15.16 29.76.834 10.973 9.219 13.596 18.119 9.23 98.893-48.512 189.043-113.174 277.802-177.871 89.326-65.109 177.655-132.875 271.783-191.008 55.476-34.266 120.368-62.553 160.974-115.648 5.391-7.047 9.266-17.969 6.219-26.762-2.84-8.197-10.652-8.139-17.203-4.621-49.321 26.479-97.432 55.121-146.602 81.871-49.907 27.152-102.033 49.65-152.422 75.84-103.298 53.693-202.544 114.398-302.913 173.234a11372.038 11372.038 0 0 1-97.148 56.283c-30.903 17.713-60.723 37.979-96.279 44.889.954 12.572 1.908 25.146 2.865 37.721 33.756-33.367 76.162-55.738 118.041-77.18 45.688-23.391 90.238-48.039 134.127-74.68 87.6-53.176 171.682-111.859 262.071-160.354 54.957-29.484 110.544-57.98 162.961-91.898 49.711-32.166 98.854-70.18 131.993-120.016 5.023-7.557 9.406-17.564 6.218-26.762-2.7-7.791-10.854-8.674-17.203-4.621-195.874 125.102-399.875 236.655-603.807 347.893-83.529 45.561-167.062 91.117-250.083 137.596.985 12.996 1.972 25.992 2.959 38.988 170.95-118.941 354.397-218.406 528.241-332.895 94.264-62.08 185.904-128.777 269.847-204.379 7.025-6.326 11.708-17.035 10.988-26.521-.836-11.01-9.213-13.549-18.12-9.23-51.248 24.85-100.296 53.832-149.524 82.396-49.636 28.799-100.665 55.018-150.331 83.748-99.656 57.645-195.211 122.086-293.779 181.537-72.496 43.723-150.876 77.516-220.271 126.383.985 12.996 1.973 25.992 2.959 38.988 185.013-137.684 374.572-269.338 569.658-392.373 80.435-50.727 161.85-99.902 244.248-147.373 9.606-5.535 15.987-18.861 15.161-29.76-.821-10.814-9.251-13.799-18.12-9.229C679.47 260.433 479.433 377.96 275.685 488.665c-81.457 44.258-163.553 87.352-246.782 128.186l10.984 31.383c25.776-33.309 66.304-56.533 103.788-77.648 19.877-11.199 39.891-22.156 59.18-34.355 21.948-13.881 42.736-29.654 64.246-44.203 92.357-62.465 188.979-118.262 284.29-176.014 77.075-46.703 153.374-94.857 225.837-148.516 9.198-6.811 16.062-17.9 15.162-29.76-.793-10.436-9.346-14.291-18.121-9.23-48.863 28.18-97.979 55.93-148.079 81.867-49.613 25.688-100.764 48.18-150.024 74.562-96.332 51.592-187.564 112.021-281.984 166.92-45.945 26.715-92.726 52.25-141.018 74.496 3.339 9.33 6.681 18.662 10.023 27.99.941-1.98 1.919-3.936 2.938-5.881.276-.529 3.928-6.719 1.068-2.127 2.277-3.656 4.846-7.123 7.492-10.518.168-.217 4.738-5.592 1.715-2.197 1.437-1.613 2.949-3.158 4.456-4.703 3.552-3.637 7.364-7.01 11.247-10.285 4.772-4.025 12.174-9.08 19.404-13.619 8.459-5.309 17.279-10.027 26.193-14.512 34.469-17.342 71.242-29.699 106.113-46.215 43.148-20.439 79.836-52.666 117.23-81.818 44.833-34.949 93.141-64.873 140.71-95.896 48.038-31.33 95.283-64.803 145.126-93.205 42.926-24.461 88.732-46.936 123.102-83.359 6.684-7.084 11.75-16.467 10.986-26.521-.559-7.365-5.897-13.775-13.851-11.199-49.908 16.174-93.238 47.807-137.599 74.861-48.914 29.832-102.049 53.268-153.393 78.592-106.674 52.612-213.649 104.615-320.467 156.938-43.396 21.258-86.618 42.541-129.029 65.715-40.359 22.047-80.935 43.73-124.823 57.979l2.863 37.723c72.181-71.732 163.499-120.635 250.486-171.762C258.522 291.58 360.645 228.742 462.906 166.15c31.838-19.49 63.288-39.891 95.544-58.646 28.137-16.359 57.43-30.23 78.302-56.137 6.78-8.412 13.28-38.49-6.716-33.35-47.432 12.189-90.47 38.453-131.143 64.924-21.107 13.74-41.834 28.055-62.84 41.949-19.621 12.977-39.934 24.668-59.938 37.012-88.902 54.875-170.566 120.623-260.034 174.662-39.994 24.156-81.581 45.8-125.746 61.277l2.863 37.721c39.103-33.881 85.59-57.932 127.509-87.986 21.175-15.182 40.63-32.545 61.216-48.488 20.628-15.977 41.773-31.275 63.117-46.279 86.076-60.504 176.02-115.529 257.792-181.998 18.233-14.82 35.915-30.312 52.962-46.484 6.924-6.572 11.721-16.852 10.986-26.521-.586-7.715-5.842-13.336-13.852-11.199C503.626-.239 458.109 24.439 414.134 49.75c-40.958 23.574-81.776 46.955-123.684 68.824-82.873 43.246-167.968 86.252-237.164 150.254-7.749 7.166-13.724 20.592-10.071 31.133 3.688 10.636 15.029 7.251 21.376 1.378z"/></g><path fill="#163663" d="M495.708 254.501c-7.095-15.719-25.343-25.719-40.314-32.465-11.598-5.225-25.336-10.742-38.639-12.143a63.64 63.64 0 0 0-5.032.354c-21.819 2.412-38.283 15.352-50.79 32.736-24.426 33.953-35.887 76.613-45.616 116.721-11.917 49.127-21.843 98.754-27.45 149.027-6.594 59.115-8.151 120.016 3.224 178.668 4.388 22.629 8.425 49.098 26.972 64.902 5.796 4.939 15.568 10.783 23.223 6.275 6.916-4.074 9.861-11.529 9.71-18.801-.442-21.373-4.589-42.773-7.167-63.955-3.356-27.59-4.844-54.84-4.104-82.639 1.615-60.682 10.115-120.611 23.475-179.779 6.68-29.588 14.584-58.834 22.217-88.182 5.522-21.229 12.008-48.197 33.324-59.229 19.386-10.033 35.406 3.066 53.227 9.992 7.522 2.922 16.908 4.631 22.228-3.109 3.907-5.687 4.352-12.082 1.512-18.373z"/><path d="M492.546 231.481c-22.26-16.398-46.934-32.195-75.713-30.664-22.111 1.176-39.572 13.176-53.565 29.508-13.903 16.229-23.44 35.986-31.419 55.645-8.278 20.402-14.477 41.615-19.936 62.922-26.484 103.42-45.03 213.242-30.52 319.945a439.488 439.488 0 0 0 7.87 42.223c2.705 11.396 5.366 23.098 11.228 33.336 7.805 13.631 24.955 30.721 41.873 22.107 7.912-4.029 13.705-14.266 15.469-22.652 1.4-6.662.297-14.207-.318-20.893-2.211-24.01-6.129-47.84-8.48-71.838-5.807-59.318.052-120.377 9.938-178.963 5.026-29.773 11.599-59.258 18.894-88.551 3.779-15.178 7.782-30.299 11.852-45.4 3.297-12.234 6.145-24.658 10.412-36.604 3.828-10.715 9.646-20.562 19.796-26.264 8.976-5.043 18.677-2.371 27.538 1.441 15.316 6.596 33.443 20.018 48.471 5.545 12.477-12.016 12.691-30.061 2.661-43.404-10.807-14.379-28.85-23.465-45.157-29.965-13.064-5.209-27.482-9.67-41.692-9.025-4.103.186-7.556 9.869-3.042 9.664 15.796-.715 33.064 6.088 47.166 12.439 14.973 6.746 33.221 16.746 40.315 32.465 2.839 6.289 2.396 12.686-1.515 18.375-5.319 7.74-14.705 6.031-22.227 3.109-17.822-6.926-33.842-20.025-53.228-9.992-21.316 11.029-27.802 38-33.324 59.229-7.633 29.348-15.538 58.594-22.217 88.182-13.359 59.168-21.86 119.098-23.476 179.779-.739 27.799.748 55.049 4.104 82.639 2.579 21.182 6.724 42.582 7.167 63.955.15 7.271-2.795 14.727-9.709 18.799-7.654 4.51-17.428-1.334-23.225-6.273-18.547-15.805-22.582-42.273-26.971-64.902-11.375-58.652-9.817-119.553-3.225-178.668 5.607-50.273 15.533-99.9 27.451-149.027 9.729-40.107 21.189-82.768 45.617-116.721 12.506-17.385 28.969-30.324 50.789-32.738 28.454-3.145 54.274 13.117 76.513 28.76 2.774 1.95 6.713-5.401 3.835-7.523z"/><path fill="#163663" d="M549.114 254.501c7.096-15.719 25.344-25.719 40.316-32.465 11.596-5.225 25.336-10.742 38.638-12.143a63.64 63.64 0 0 1 5.032.354c21.82 2.412 38.283 15.352 50.789 32.736 24.427 33.953 35.887 76.613 45.617 116.721 11.917 49.127 21.844 98.754 27.451 149.027 6.592 59.115 8.15 120.016-3.225 178.668-4.389 22.629-8.424 49.098-26.971 64.902-5.797 4.939-15.57 10.783-23.225 6.275-6.915-4.074-9.859-11.529-9.709-18.801.442-21.373 4.588-42.773 7.167-63.955 3.356-27.59 4.844-54.84 4.104-82.639-1.614-60.682-10.116-120.611-23.476-179.779-6.679-29.588-14.584-58.834-22.217-88.182-5.521-21.229-12.007-48.197-33.323-59.229-19.386-10.033-35.405 3.066-53.228 9.992-7.521 2.922-16.907 4.631-22.227-3.109-3.907-5.687-4.351-12.082-1.513-18.373z"/><path d="M552.277 231.481c22.26-16.398 46.935-32.195 75.713-30.664 22.112 1.176 39.571 13.176 53.565 29.508 13.904 16.229 23.44 35.986 31.419 55.645 8.278 20.402 14.478 41.615 19.935 62.922 26.486 103.42 45.031 213.242 30.521 319.945a439.8 439.8 0 0 1-7.871 42.223c-2.705 11.396-5.365 23.098-11.228 33.336-7.804 13.631-24.955 30.721-41.872 22.107-7.913-4.029-13.707-14.266-15.471-22.652-1.399-6.662-.296-14.207.318-20.893 2.211-24.01 6.131-47.84 8.48-71.838 5.809-59.318-.051-120.377-9.938-178.963-5.025-29.773-11.598-59.258-18.893-88.551-3.779-15.178-7.783-30.299-11.854-45.4-3.297-12.234-6.143-24.658-10.41-36.604-3.83-10.715-9.646-20.562-19.797-26.264-8.976-5.043-18.676-2.371-27.538 1.441-15.316 6.596-33.444 20.018-48.47 5.545-12.477-12.016-12.693-30.061-2.662-43.404 10.807-14.379 28.85-23.465 45.157-29.965 13.064-5.209 27.482-9.67 41.692-9.025 4.104.186 7.556 9.869 3.043 9.664-15.797-.715-33.066 6.088-47.168 12.439-14.971 6.746-33.22 16.746-40.314 32.465-2.84 6.289-2.395 12.686 1.516 18.375 5.318 7.74 14.705 6.031 22.227 3.109 17.821-6.926 33.842-20.025 53.227-9.992 21.316 11.029 27.802 38 33.324 59.229 7.633 29.348 15.537 58.594 22.217 88.182 13.359 59.168 21.86 119.098 23.475 179.779.74 27.799-.747 55.049-4.104 82.639-2.578 21.182-6.725 42.582-7.166 63.955-.151 7.271 2.793 14.727 9.709 18.799 7.654 4.51 17.427-1.334 23.223-6.273 18.548-15.805 22.584-42.273 26.972-64.902 11.376-58.652 9.817-119.553 3.224-178.668-5.607-50.273-15.533-99.9-27.449-149.027-9.73-40.107-21.191-82.768-45.617-116.721-12.507-17.385-28.971-30.324-50.789-32.738-28.455-3.145-54.275 13.117-76.514 28.76-2.771 1.95-6.71-5.401-3.832-7.523z"/><g fill="#D8724A"><path d="M392.339 692.696h-.002l-.002.006z"/><path d="M783.147 323.276c-2.961-3.625-7.246-4.754-12.048-3.111l-1.787.611.001-.109-.381.24c-14.382 4.945-23.666 4.092-32.783 2.248 1.76-6.229 3.109-12.645 4.119-19.146.836-.027 1.705-.324 2.463-.826 3.271-2.17 5.094-6.551 5.01-10.586-.415-19.879-2.785 3.367-7.76-15.572-1.567-8.025-3.946-15.84-7.51-22.842-37.217-143.875-223.455-135.191-226.404-134.414-30.037 1.166-64.217 6.201-91.439 20.494-2.543 1.336-63.345 33.127-75.979 41.031-17.213 10.771-48.931 89.344-58.236 136.133-1.665 8.375-10.232 14.992-11.299 23.875-.482 4.02-.246 12.115 3.699 16.949 1.963 2.402 4.594 3.588 7.647 3.455 9.687-.473 19.663-1.742 30.183-3.852-8.441 4.498-16.092 9.182-23.137 14.158-8.345 5.895-14.357 16.445-15.688 27.543-.595 4.951.001 12.318 3.643 16.777 1.938 2.373 4.559 3.629 7.63 3.629 18.934-.086 38.781-1.814 60.311-5.27-24.541 11.373-50.021 23.844-74.729 38.807-9.297 5.629-14.631 17.924-15.793 27.611-.77 6.41.586 12.463 3.625 16.188 2.904 3.559 7.209 4.836 12.168 3.564 20.243-5.168 38.007-9.863 54.324-14.373a1614.326 1614.326 0 0 0-11.904 5.527l-1.05.279-.034.248c-10.369 5.309-17.714 16.447-19.264 29.344-.768 6.42.581 12.488 3.64 16.23 2.912 3.564 7.187 4.826 12.134 3.52l2.125-.574c-.439.244-.972.488-1.408.732l-.406.059v.061c0 .617-2.014 1.23-3.117 1.844-8.814 4.91-14.453 17.621-15.658 27.645-.77 6.424.602 12.506 3.674 16.266 2.916 3.572 7.211 4.82 12.146 3.48a725.536 725.536 0 0 0 31.463-9.35c-7.539 7.896-14.146 24.766-11.576 35.348 1.691 6.963 7.095 10.232 15.101 8.992a396.705 396.705 0 0 0 22.358-4.125c-2.903 4.918-4.828 10.584-5.524 16.379-.573 4.773.109 12.006 3.923 16.674 2.971 3.639 7.254 4.738 12.025 3.033 3.41-1.223 6.822-2.439 10.238-3.646a41.753 41.753 0 0 0-7.248 18.885c-.784 6.541.422 12.143 3.399 15.789 2.837 3.477 7.146 4.857 12.27 3.965.679-.119 1.356-.275 2.034-.396l.131-.232c6.902-1.211 13.814-2.717 20.738-3.957-3.633 8.748-5.447 18.666-1.949 24.953.969 1.746 2.677 3.148 5.604 3.812 1.18.486 2.562.75 4.166.752h.049c5.441-.01 10.9-.092 16.369-.219 10.453.09 20.84.109 31.042-.561.618 5.727 3.282 11.092 7.624 13.156 12.327 5.855 26.144 8.824 41.065 8.824 31.78 0 64.015-13.402 85.497-23.486 40.854-19.174 77.873-44.332 111.793-68.668l.943-.568-.008-.123c9.705-7.471 15.828-20.84 14.977-32.924-.6-8.496-5.424-13.986-12.285-13.986-.442 0-.891.025-1.342.072 10.969-9.447 20.154-19.691 27.844-31.018 5.315-7.828 9.793-19.922 6.424-30.389-1.422-4.412-4.396-7.4-8.224-8.41 2-1.908 3.966-3.84 5.874-5.777 7.699-7.814 12.201-19.557 11.471-29.912-.496-7.031-4.867-14.506-11.989-14.506-1.372 0-2.784.291-4.2.865-2.155.873-4.332 1.75-6.525 2.631 7.545-5.707 13.144-15.969 14.424-26.641.6-5.01-.418-12.436-4.073-16.912-2.998-3.67-7.271-4.684-11.948-2.766-.561.23-1.127.461-1.695.691l.011-.332-1.241.828c-.916.367-1.839.736-2.769 1.104a366.14 366.14 0 0 0 18.513-16.975c6-5.895 10.23-14.826 11.32-23.891.641-5.352-.238-12.625-3.652-16.809-.95-1.16-2.064-2.055-3.322-2.66a857.123 857.123 0 0 0 18.264-11.189c9.309-5.869 14.625-18.088 15.769-27.596.75-6.275-.773-12.791-3.881-16.602z"/></g><path fill="#61E9FF" d="M772.348 925.368c-8.487-34.271-22.683-67.268-42.271-96.209a222.808 222.808 0 0 0-4.387-8.498c-.208-6.432-2.233-12.117-7.589-13.037-4.841-7.777-10.039-15.25-15.395-22.352-28.167-37.342-66.047-61.998-112.03-71.182-47.227-9.438-96.641-1.656-143.393 6.816-41.779 7.574-86.793 12.613-121.791 38.803-12.299 9.201-22.2 20.078-30.335 32.107-5.657 5.6-10.933 11.635-15.741 18.141-.955 1.293-1.881 2.6-2.787 3.916-10.008 12.229-19.646 24.785-29.65 36.832-6.39 7.691-11.622 23.688-4.529 32.543 2.113 2.641 4.553 3.758 7.087 3.867-1.265 9.156-1.944 18.416-2.118 27.684-1.953 3.49-2.987 7.508-2.273 10.639-3.184 5.66-4.172 13.092.44 16.215.976.66 1.958 1.307 2.94 1.951.873 3.914 3.346 4.758 6.145 3.924.424.262.85.52 1.275.777 1.594 3.268 4.498 5.424 9.239 5.404 11.376 6.357 23.179 11.928 35.274 16.838-.022.947-.017 1.9.058 2.871.651 8.562 6.209 13.852 14.806 11.971a180.766 180.766 0 0 0 15.236-4.062c20.363 6.406 41.213 11.352 61.963 15.406 45.844 8.963 93.505 13.314 140.163 14.619 57.083 1.594 147.167-4.449 190.154-50.43a604.868 604.868 0 0 0 39.612-16.131c7.205-3.229 11.839-11.579 9.897-19.423zm-49.71-19.949a97.811 97.811 0 0 0 6.385-10.229c.307 2.744.494 5.492.551 8.236a306.754 306.754 0 0 0-6.936 1.993zm-414.872 33.203c10.339-5.58 20.242-12.025 29.691-18.457 1.449-.986 2.876-2.004 4.315-3.008-9.379 7.596-18.262 15.705-26.424 24.518a217.64 217.64 0 0 1-7.582-3.053zm223.837-188.881c-10.566 4.748-20.875 10.119-30.979 15.812 4.105-4.635 7.293-10 8.986-15.93 7.34-.114 14.676-.101 21.993.118zm77.367 13.162c-11.309 7.025-22.781 13.771-34.298 20.438 4.136-7.594 7.651-15.582 10.378-24.033.32-.994.59-2.055.805-3.154 7.782 1.784 15.494 4.005 23.115 6.749zM276.196 887.165c2.107-.982 4.195-2 6.271-3.039a207.037 207.037 0 0 0-8.129 10.9c.566-2.604 1.141-5.201 1.723-7.801l.135-.06zm128.146-17.025c22.87-16.996 47.711-31.387 71.859-46.471 15.185-9.484 30.604-18.666 46.679-26.377a346.39 346.39 0 0 1-4.275 3.777c-9.896 8.59-17.766 14.193-29.584 22.283-12.504 8.559-25.387 16.561-38.324 24.445-26.783 16.316-55.602 31.826-82.34 49.832 11.999-9.159 23.874-18.489 35.985-27.489zm120.071-12.098c-16.555 11.213-33.575 21.693-50.691 32.018 22.018-16.602 44.748-30.955 68.729-44.598-5.906 4.264-11.917 8.435-18.038 12.58zm-65.111 95.316c-4.431 3.049-8.283 7.25-11.117 12.059a995.783 995.783 0 0 1-13.812-.998c8.315-3.674 16.631-7.35 24.929-11.061zm250.416-94.423a169.47 169.47 0 0 0 5.777-8.631 229.853 229.853 0 0 1 1.988 4.539 370.817 370.817 0 0 0-7.765 4.092zm-46.405-29.782a513.422 513.422 0 0 0 11.76-14.197c1.87-2.344 3.545-5.154 4.859-8.197a226.92 226.92 0 0 1 10.055 10.051 441.043 441.043 0 0 0-26.674 12.343zm-8.283-42.515c-7.722 5.17-15.013 10.893-22.139 16.83 4.919-7.217 9.403-14.729 13.371-22.559 2.977 1.84 5.901 3.75 8.768 5.729zM519.014 962.315a202.76 202.76 0 0 0-5.726 5.994c-1.207-.031-2.414-.068-3.621-.104a931.94 931.94 0 0 0 9.347-5.89z"/><path fill="#D8724A" d="M574.431 706.938a45.142 45.142 0 0 0-2.673-1.123c-1.351-4.568-3.261-9.129-5.746-13.695-5.828-10.707-20.913 1.805-24.853 7.127a43.268 43.268 0 0 0-2.271 3.402c-8.668.865-17.198 2.652-24.778 4.533-16.838 4.178-34.568 14.598-42.841 29.742-.218-.234-.454-.488-.738-.787-1.539-1.629-2.838-3.457-4.051-5.334.791 1.158-1.102-2.24-1.256-2.607-.654-1.537-1.121-3.143-1.593-4.742a46.155 46.155 0 0 0-.202-.668c-.029-.309-.08-.738-.163-1.34-.259-1.875-.32-3.775-.388-5.666-.006-.217-.014-.412-.021-.592.058-.346.131-.955.221-1.949.206-2.221.604-4.42.996-6.613 1.651-9.262-3.506-20.994-14.631-17.615-11.871 3.605-47.7 36.83-49.709 48.102-3.447 19.326 3.057 59.285 15.085 75.43 9.938 13.336 56.411 49.83 72.412 51.291 15.289 1.396 91.826-14.758 105.601-21.121 2.131-.637 35.186-62.484 37.211-63.359 0 0-10.883-51.293-28.16-48.275 4.575-5.9-28.33 11.984-25.215 5.332 3.569-7.631 8.47-24.514-2.237-29.473z"/><path fill="#AF543F" d="M587.91 722.011c-24.679 11.588-53.247 16.104-81.263 15.311-27.937-.789-59.197-6.557-76.22-27.012-5.271-6.336-14.12 9.404-12.454 13.686 21.987 56.539 108.01 63.145 163.318 39.648 11.594-4.926 18.895-16.285 20.574-26.916 1.025-6.463-2.431-20.125-13.955-14.717z"/><path d="M288.839 864.546c10.191.898 22.106 4.676 26.596 14.791 4.139 9.33 3.939 21.16 3.729 31.17-.244 11.332-1.926 22.648-3.082 33.912-.871 8.479-3.979 22.262 1.309 29.658 5.511 7.709 13.663-9.535 14.206-13.109 1.569-10.348-.325-21.936-.041-32.498.325-12.01.71-24.062-.82-36.01-1.291-10.076-5.066-18.633-12.452-25.678-8.107-7.73-18.859-6.93-28.957-4.457-.654.162-1.482 2.135-.488 2.221zm369.785 5.201c2.539 8.76 6.446 16.963 9.575 25.529 3.767 10.305 5.806 21.137 7.853 31.881 4.172 21.898 5.806 44.266 9.08 66.309.16 1.092.434 3.432 1.922 3.742l1.314.277c2.734.572 4.965-2.127 5.914-4.441 3.957-9.658.406-20.949-.845-31.047-1.544-12.477-3.606-24.887-6.064-37.217-2.429-12.168-5.832-24.064-10.647-35.51-3.555-8.453-8.051-17.773-17.316-20.717-.532-.171-.897.803-.786 1.194z"/><path d="M697.373 836.985c-14.376 5.264-26.826 13.707-36.549 25.582-1.622 1.979-3.159 4.973-2.335 7.615 1.055 3.381 4.448.305 5.552-1.213 8.364-11.52 19.633-19.812 32.49-25.73 1.964-.904 4.064-7.431.842-6.254z"/><path fill="#FF8A0B" d="M396.406 794.383c.253-.006.494.012.741.071l-.676-.176c.226.067.425.162.614.302l-.534-.439c.195.161.347.348.471.569l-.347-.646c.109.214.186.437.234.671l-.159-.801c.016.089.031.18.036.27.032.716.349 1.521 1.024 1.865.69.352 1.495.112 2.111-.268.854-.526 1.511-1.359 1.961-2.243.486-.955.633-1.854.662-2.905.018-.625-.137-1.304-.391-1.873-.619-1.388-1.71-2.214-3.251-2.325-.846-.062-1.684.489-2.265 1.038-.8.756-1.389 1.753-1.719 2.8-.278.883-.404 1.906-.093 2.803.228.663.817 1.305 1.581 1.287z"/><path d="M412.308 373.388c-20.472 1.941-32.106 20.379-47.625 31.592-3.629.764-7.42.742-11.412-.42-3.299-.963-7.079 6.102-3.816 7.488 3.127 1.33 6.17 1.971 9.137 2.084.191 1.641 1.252 2.59 3.652 1.438a41.382 41.382 0 0 0 4.152-2.314c3.767-.975 7.401-2.664 10.91-4.744.66 1.207 1.88 2.006 3.426 1.4 7.782-3.041 15.319-6.795 23.265-9.375 13.165.59 26.746 9.213 36.485 17.703 3.414 2.975 6.334-3.412 6.391-6.061.213-10.088-.216-20.33-6.459-28.754-6.286-8.483-18.173-10.977-28.106-10.037zM673.6 403.034c-6.854-20.361-24.495-35.061-46.676-30.16-21.808 4.818-33.936 26.852-34.153 47.805-.049 4.662 5.652.072 5.861-2.697.025-.352.061-.699.094-1.045.588-.023 1.227-.184 1.902-.506 6.662-3.188 12.923-7.168 19.325-10.861.892-.102 1.784-.205 2.675-.295 5.212-.52 11.797-1.473 18.148-1.379 5.266.902 10.461 2.312 15.455 3.939 2.268.738 4.539-.863 5.938-3.115 1.337 1.855 2.487 3.85 3.479 5.836 2.902 5.804 9.316-3.469 7.952-7.522z" fill="#AF543F"/><path d="M431.616 418.21a38.87 38.87 0 0 0-1.188-1.461c-4.727-7.143-12.521-12.076-21.506-12.92-5.433-1.17-11.069-1.053-16.373.758-4.323 1.479-8.596 4.215-11.296 7.943-12.076 8.773-14.322 25.732-4.871 38.406 11.831 15.865 33.871 16.762 49.275 5.922 13.301-9.355 15.754-25.882 5.959-38.648zm-53.744 7.959a28.55 28.55 0 0 0-.577 3.365c.024-1.205.233-2.318.577-3.365z"/><circle fill="#FFF" cx="411.076" cy="425.659" r="11.552"/><path d="M448.44 417.602c-10.371-8.767-21.931-16.833-35.575-19.187-8.688-1.5-17.363.49-25.23 4.18-6.411 3.006-12.313 7.307-19.083 9.494-2.979.963-5.995 1.078-9.059.451-4.411-.902-7.234-4.429-11.048-6.368-3.569-1.815-6.411 5.288-4.816 7.794 4.134 6.493 13.304 9.18 20.505 7.847 6.968-1.29 13.165-5.919 19.166-9.413 7.363-4.287 15.146-7.383 23.803-7.04 14.193.563 27.08 9.518 37.687 18.149 2.01 1.636 5.566-4.287 3.65-5.907zm-109.79-40.397c4.543-6.711 12.837-11.652 20.841-15.723 10.761-5.473 22.874-8.672 34.769-10.426 12.648-1.864 26.176-1.277 38.496 2.198a84.885 84.885 0 0 1 18.991 7.971c6.168 3.523 11.381 8.369 17.177 12.417 2.644 1.847 6.388-1.657 7.762-3.512 2.407-3.252 3.892-8.006 1.627-11.683-7.954-12.913-23.838-20.045-38.028-23.559-14.307-3.542-29.387-3.04-43.832-.689-24.084 3.919-51.733 15.425-64.55 37.437-1.183 2.032-1.898 5.566-.282 7.584 2.063 2.577 5.697-.047 7.029-2.015z"/><path d="M357.519 402.483c9.011 13.924 32.18 8.856 45.655 6.476 2.543-.449 5.134-7.613 1.663-7.438-12.557.632-33.683 6.877-42.535-5.495-2.159-3.017-6.497 3.81-4.783 6.457z"/><path fill="#AF543F" d="M732.532 499.421c-2.846 34.348-15.319 68.443-31.561 97.984a215.64 215.64 0 0 1-5.987 10.215c-20.345 27.129-46.337 50-75.964 66.518-39.707 22.137-85.902 30.977-130.951 24.936-14.169-1.9-28.198-5.189-41.674-9.926-18.631-7.859-36.175-18.35-52.032-30.883-10.103-7.984-19.433-16.904-27.927-26.566-18.795-25.102-30.578-55.008-38.191-85.324-9.766-38.885-12.688-79.359-13.164-119.334-.096-8.018-.07-16.037.053-24.053-8.761 4.912-18.162 8.502-27.914 10.234-1.141 21.922-.564 43.873 1.734 65.412 5.324 49.9 19.582 101.104 47.515 143.258 43.55 65.721 121.493 107.078 200.741 100.432 41.238-3.459 79.664-19.994 112-45.535 24.412-19.279 56.668-41.195 72.047-67.848 13.895-20.254 12.396-44.516 20.691-67.617 5.919-16.48 10.466-34.084 13.143-51.387 1.772-11.455 1.77-23.057 1.436-34.658-7.483 14.978-15.628 29.626-23.995 44.142z"/><path d="M616.951 458.368c15.404 10.838 37.444 9.941 49.276-5.924 9.451-12.672 7.204-29.631-4.871-38.406-2.7-3.727-6.974-6.465-11.297-7.943-5.303-1.811-10.939-1.928-16.372-.756-8.985.842-16.78 5.775-21.506 12.92-.409.479-.81.963-1.188 1.459-9.796 12.767-7.342 29.295 5.958 38.65zm48.362-27.326a28.477 28.477 0 0 0-.576-3.365c.344 1.047.553 2.16.576 3.365z"/><circle fill="#FFF" cx="631.533" cy="427.167" r="11.552"/><path d="M597.062 424.306c10.509-8.6 22.953-16.91 36.97-17.469 8.537-.341 16.326 3.161 23.537 7.364 6.089 3.548 11.874 7.72 18.876 9.239 7.963 1.727 16.964-3.022 21.7-9.275 1.55-2.047 2.105-8.763-2.162-6.178-3.511 2.127-6.141 4.91-10.221 6.044-2.876.799-6.104.492-8.935-.346-6.937-2.053-13.036-6.487-19.525-9.571-22.698-10.788-44.119.374-61.926 15.34-2.354 1.979-1.9 7.787 1.686 4.852zm107.894-54.796c-11.813-21.046-39.896-30.559-62.191-34.215-29.073-4.769-64.829 1.655-82.874 27.218-1.989 2.818-3.587 6.806-2.387 10.271 1.472 4.248 5.668 2.563 8.203.531 10.508-8.424 20.385-15.039 33.526-18.699 12.779-3.559 26.196-3.609 39.264-1.83 12.205 1.662 24.157 5.354 35.215 10.77 8.537 4.182 17.361 9.244 22.932 17.175 1.954 2.781 5.73-.259 7.03-2.016 1.962-2.652 2.96-6.215 1.282-9.205z"/><path d="M681.044 398.694c-4.02 5.714-12.235 6.102-18.593 6.102-7.471 0-14.858-1.407-22.308-1.767-3.093-.149-6.111 6.848-2.371 7.534 14.452 2.653 36.962 6.888 46.58-7.731 2.27-3.451-.118-8.673-3.308-4.138zM389.753 732.541c-1.92 40.871 8.514 84.203 38.378 113.752 31.405 31.074 80.672 38.441 121.896 25.161 28.328-9.126 51.344-29.611 64.772-56.022 14.111-27.753 17.909-62.908 10.425-93.109-.785-3.168-4.368-3.182-6.636-1.782-3.552 2.189-6.354 7.248-5.849 11.479 2.556 21.377 3.967 42.045-2.242 62.991-5.169 17.436-14.93 32.246-29.396 44.006-32.355 26.302-84.596 27.779-120.715 9.136-43.748-22.581-60.905-74.137-59.7-120.645.065-2.524-2.124-4.441-4.573-3.698-3.352 1.017-6.199 5.312-6.36 8.731z"/><ellipse fill="#AD4040" cx="685.851" cy="499.714" rx="28.658" ry="27.557"/><ellipse fill="#AD4040" cx="363.655" cy="501.222" rx="28.658" ry="27.557"/><path fill="#D8724A" d="M289.724 431.886c-11.92-11.342-29.885-26.385-47.768-19.223-20.096 8.049-30.756 30.629-32.525 51.182-2.166 25.184 8.185 74.805 43.884 64.807 14.644-4.104 26.335-17.406 34.792-29.271 5.875-8.238 11.951-23.275 4.53-32.543-7.386-9.219-19.995.316-24.851 7.129a111.123 111.123 0 0 1-4.537 5.951c-2.877 3.512 4.146-4.541 1.18-1.348-.693.744-1.426 1.453-2.154 2.158a49.162 49.162 0 0 1-2.115 1.893c-2.873 2.473 4.677-3.463 1.709-1.342-1.256.898-2.601 1.66-3.98 2.35 6.391-3.188 2.107-1.018.158-.543-2.709.656 4.744-.498 2.025-.24-.578.057-1.159.047-1.74.035-1.701-.031-5.672-1.314.188.389-1.257-.363-2.438-.959-3.567-1.613-3.646-2.113.349.539-.027.201-.923-.82-1.746-1.752-2.539-2.697-.839-1-1.582-2.078-2.295-3.17a38.541 38.541 0 0 1-1.053-1.742c-1.4-2.41 2.285 4.529.506.828-1.278-2.662-2.262-5.457-3.107-8.283-.438-1.465-.8-2.955-1.135-4.447-.729-3.227.969 5.16.383 1.9a73.338 73.338 0 0 1-.464-3.064c-.411-3.043-.577-6.111-.577-9.178-.002-3.465-.254 6.092-.091 2.658.035-.736.099-1.467.161-2.199.121-1.422.328-2.836.569-4.244.813-4.768-1.896 7.059-.267 1.455.182-.623.396-1.236.613-1.846 1.182-3.355-3.047 7.119-1.604 3.91 2.432-5.414-2.356 3.408-1.482 2.127 3.007-4.426-5.094 4.844-1.159 1.379-5.583 4.914-4.397 3.275-2.732 2.193 1.332-.863 3.998-1.861-2.66 1.115 1.013-.451 2.097-.717 3.181-.916-6.252 1.158-2.168.324-.211.469.666.051 1.323.164 1.979.279 2.535.439-4.419-1.379-.526-.109 3.442 1.121 6.636 2.957 9.663 4.906 1.902 1.225 3.707 2.594 5.486 3.986-3.289-2.574.153.156.672.609 1.406 1.221 2.758 2.498 4.106 3.781 8.503 8.09 19.112.629 24.853-7.127 5.244-7.09 12.826-24.649 4.528-32.545z"/><path d="M282.845 427.071c-17.025-11.191-40.777-21.256-59.344-7.57-14.998 11.051-19.055 32.395-17.975 49.852 1.15 18.635 8.654 38.803 23.381 50.904 16.313 13.402 41.428 12.141 56.195-3.115 1.238-1.281 5.428-11.172.488-10.348-9.029 1.512-16.643 6.641-26.045 7.18-7.64.438-14.849-2.018-21.193-6.146-13.234-8.621-20.717-25.449-23.173-40.531-2.024-12.441-1.701-28.91 8.868-37.662 15.492-12.832 39.787-1.795 54.822 5.965 3.09 1.59 6.9-6.605 3.976-8.529z"/><path d="M235.216 472.263c6.234-7.668 14.587-13.527 24.761-13.658 11.218-.141 13.704 9.809 17.952 17.951 1.938 3.717 6.217-4.506 6.373-5.881 1.427-12.51-4.877-24.967-18.742-25.213-13.584-.242-25.799 11.242-32.971 21.578-1.873 2.703-.951 9.623 2.627 5.223z"/><path d="M284.741 465.94c-8.086-.334-18.225-.416-23.945 6.352-5.66 6.695-4.545 16.826.309 23.664 2.08 2.932 5.485-4.344 4.863-6.297-.887-2.781-5.019-10.096-2.036-12.674 4.751-4.105 12.978-4.217 18.864-4.529 2.361-.127 4.857-6.396 1.945-6.516z"/><path fill="#D8724A" d="M821.185 457.251h-.001l-.003.006z"/><path fill="#D8724A" d="M762.784 438.925c11.92-11.342 29.884-26.385 47.767-19.221 20.097 8.047 30.756 30.627 32.526 51.18 2.166 25.184-8.185 74.805-43.885 64.807-14.643-4.102-26.334-17.406-34.791-29.271-5.876-8.238-11.951-23.273-4.531-32.543 7.387-9.219 19.996.316 24.852 7.129a110.6 110.6 0 0 0 4.537 5.951c2.876 3.51-4.146-4.541-1.18-1.35.691.746 1.425 1.455 2.154 2.162a49.841 49.841 0 0 0 2.114 1.891c2.874 2.473-4.677-3.463-1.708-1.342 1.256.9 2.6 1.66 3.979 2.35-6.39-3.188-2.106-1.018-.157-.545 2.707.66-4.744-.496-2.026-.238.578.057 1.159.047 1.741.035 1.7-.031 5.671-1.314-.189.389 1.258-.365 2.439-.959 3.566-1.613 3.648-2.113-.348.539.028.201.923-.82 1.746-1.75 2.538-2.697.84-1 1.582-2.078 2.295-3.168.371-.57.713-1.158 1.055-1.744 1.4-2.41-2.285 4.529-.506.826 1.277-2.658 2.262-5.455 3.107-8.281.438-1.465.799-2.955 1.135-4.445.729-3.229-.969 5.158-.384 1.896.182-1.018.326-2.039.464-3.062.411-3.043.578-6.111.578-9.176.001-3.467.254 6.09.09 2.656-.035-.734-.098-1.467-.16-2.199a50.32 50.32 0 0 0-.57-4.244c-.812-4.768 1.896 7.059.268 1.457a35.064 35.064 0 0 0-.613-1.848c-1.184-3.355 3.047 7.119 1.604 3.91-2.432-5.414 2.355 3.408 1.482 2.127-3.008-4.426 5.093 4.846 1.158 1.379 5.582 4.916 4.397 3.275 2.732 2.191-1.331-.861-3.998-1.857 2.66 1.119-1.012-.453-2.096-.719-3.181-.918 6.252 1.158 2.169.324.212.471-.666.049-1.323.164-1.979.277-2.537.439 4.418-1.379.525-.109-3.441 1.123-6.636 2.957-9.663 4.906-1.901 1.225-3.706 2.594-5.485 3.986 3.289-2.572-.154.156-.672.609-1.406 1.221-2.759 2.498-4.107 3.781-8.502 8.09-19.111.629-24.852-7.127-5.247-7.09-12.827-24.647-4.528-32.545z"/><path d="M769.663 434.11c17.025-11.191 40.775-21.256 59.343-7.57 14.999 11.051 19.054 32.395 17.976 49.852-1.151 18.633-8.654 38.803-23.382 50.904-16.313 13.4-41.428 12.143-56.194-3.115-1.238-1.281-5.428-11.172-.488-10.348 9.028 1.51 16.643 6.641 26.043 7.182 7.641.434 14.85-2.02 21.195-6.15 13.233-8.619 20.716-25.447 23.172-40.529 2.025-12.441 1.701-28.91-8.867-37.662-15.492-12.83-39.787-1.795-54.822 5.963-3.091 1.592-6.9-6.605-3.976-8.527z"/><path d="M817.292 479.302c-6.234-7.666-14.588-13.527-24.762-13.658-11.217-.141-13.703 9.809-17.951 17.951-1.939 3.717-6.217-4.506-6.374-5.881-1.426-12.508 4.877-24.967 18.743-25.213 13.584-.242 25.799 11.242 32.971 21.578 1.873 2.703.951 9.623-2.627 5.223z"/><path d="M767.765 472.979c8.087-.334 18.227-.416 23.947 6.354 5.659 6.693 4.545 16.824-.309 23.664-2.08 2.932-5.486-4.346-4.864-6.299.887-2.781 5.02-10.096 2.037-12.674-4.751-4.105-12.978-4.217-18.865-4.529-2.36-.125-4.857-6.398-1.946-6.516z"/><path d="M755.292 409.462c1.594 59.186-6.525 122.002-27.072 170.258-29.158 68.48-85.457 118.596-154.758 134.387-77.871 17.748-164.494-4.967-219.947-67.195-56.059-62.908-70.718-174.455-61.799-329.781-3.59-2.172-7.256-4.117-11.064-5.646-1.273 10.119-4.397 103.299-5.137 113.438-6.065 83.24 13.377 181.562 67.914 244.188 54.387 62.459 138.23 86.193 215.897 72.6 72.155-12.633 132.113-61.748 168.104-128.729 29.465-54.834 43.557-128.277 41.776-197.811-4.627-1.94-9.246-3.897-13.914-5.709z"/><path d="M433.719 717.515c-55.13.248-117.725.188-154.197 49.066-16.152 21.643-24.691 47.428-29.711 73.693-5.018 26.246-7.399 54.227-4.423 80.744.62 5.525 5.541-1.25 5.98-3.498 9.061-46.426 5.891-98.391 34.193-138.914 32.01-45.834 96.494-38.6 144.518-48.91 3.885-.83 9.37-12.209 3.64-12.181zm149.005 16.957c26.121-2.061 54.067-.775 78.894 8.238 22.357 8.119 39.423 23.898 53.493 42.615 14.994 19.951 23.832 42.982 32.164 66.262 8.48 23.693 15.329 48.258 20.141 72.949 1.459 7.484 11.535-5.129 10.809-9.945-7.965-52.617-17.207-105.609-49.915-149.307-14.413-19.256-35.038-34.076-57.89-41.447-29.201-9.418-58.711-4.08-86.786 6.467-1.064.4-2.802 4.314-.91 4.168z"/><path fill="#FFF" d="M555.7 571.577c2.037-3.148 4.07-8.719.816-10.549-.113-.064-.23-.115-.346-.166-.004-.102-.004-.203-.011-.307-.075-1.201-.474-2.801-1.483-3.326-2.152-1.123-4.78.576-7.021 3.191-5.308-4.016-11.372-3.908-16.86-.957-.308-1.982-.81-4.016-1.528-6.18-.878-2.643-2.867-2.904-4.735-1.566-1.989 1.422-3.634 3.174-4.952 5.137-.812.275-1.635.891-2.385 1.764-.277.326-.539.67-.787 1.033a35.151 35.151 0 0 0-1.556-5.014c-.009-.045-.021-.09-.028-.137-.006.01-.013.016-.019.025a33.979 33.979 0 0 0-.56-1.346c-1.213-2.729-4.459-.557-5.647.824a12.548 12.548 0 0 0-1.817 2.836 116.56 116.56 0 0 0-1.053-2.24c-1.706-3.521-4.49-1.072-6.512 2.461-.262-.346-.512-.703-.781-1.043-2.021-2.566-4.488-1.209-6.359 1.484-.121-.164-.234-.328-.358-.492-2.642-3.506-5.474.463-6.831 4.721-2.352-2.084-4.802-3.99-7.379-5.641-2.324-1.484-5.348 5.109-3.535 7.049 5.691 6.086 10.814 12.678 15.355 20.023 2.522 5.564 5.703 10.654 9.59 14.967 3.713 4.121 7.248-2.271 8.405-7.227.327-.275.638-.582.933-.916.023.023.045.049.07.072 2.396 2.326 4.844-1.139 6.393-4.621.643.383 1.326.383 2.012.113.021 1.1.291 2.104.955 2.863 5.473 6.277 12.863 7.877 19.596 3.502 3.922-2.549 6.844-6.414 8.775-10.967 3.088-1.904 5.729-3.816 8.447-7.102.319-.383.761-1.217 1.196-2.268z"/><path fill="#FF617F" d="M575.933 565.54c-.376-5.092-3.094-4.195-5.352-1.842-.242-.625-.61-1.154-1.154-1.496-2.416-1.518-5.182 2.213-6.035 4.584-1.819 5.049-4.012 9.76-6.695 13.924-8.25 3.875-15.264 10.953-23.594 14.541-.6.26-1.285.848-1.961 1.625-4.004.189-8.048-.273-11.885-1.062-15.549-3.197-30.111-13.168-43.221-24.18a81.977 81.977 0 0 1-5.32-8.682c4.615-3.518 9.094-7.334 13.723-10.832.344.99 1.041 1.752 2.203 2.09 9.594 2.793 19.651 3.336 29.478 2.68 1.55-.102 2.989-1.414 3.993-3.182 4.069-.127 8.139-.252 12.18 0 9.531.598 18.721 3.09 27.123 8.783 2.289 1.551 4.85-1.846 5.734-5.432 3.72.643 7.889-10.223 4.019-12.334-10.581-5.775-21.458-9.33-32.788-12.098-2.234-.547-4.594 3.232-5.221 6.734l-1.09-.035c-4.493-.131-8.99-.129-13.487-.021-2.436-2.881-5.274-5.031-8.854-6.117-4.934-1.498-10.434.842-14.832 3.441-9.352 5.529-17.121 14.154-25.689 21.244-.57.137-1.188.672-1.762 1.42a73.473 73.473 0 0 1-4.299 3.166c-2.222 1.504-3.223 8.875.416 6.744a69.39 69.39 0 0 0 2.552-1.58l.071.186a8.457 8.457 0 0 0-.283.434 11.788 11.788 0 0 0-1.539 8.154c2.616 15.49 9.137 28.785 19.908 37.613 9.922 8.133 22.479 10.727 34.189 9.625 8.553-.807 16.938-3.574 24.645-8.014 6.967 1.826 14.205-.312 20.613-6.869 10.099-10.335 15.397-27.21 14.214-43.212zm-94.346 29.877a73.594 73.594 0 0 0 6.678 6.211 40.055 40.055 0 0 1-6.678-6.211z"/><path d="M456.364 566.354c42.025-6.705 84.26-2.477 126.256 2.293 2.92.33 5.576-8.184 2.188-8.564-42.396-4.758-84.855-8.668-127.174-.73-2.08.39-3.738 7.394-1.27 7.001z"/><path d="M554.77 566.062c-6.144 17.242-25.524 22.105-39.049 22.197l-2.29 8.963c.271-.016.548-.035.807-.135 2.25-.848 3.694-4.703 3.061-7.395-.443-1.879-3.133-2.168-4.366-2.641-3.449-1.318-6.813-2.924-10.106-4.752-8.341-4.629-16.365-11.787-18.348-23.4-.756-4.426-5.613 2.049-5.243 5.016 1.479 11.912 8.797 19.855 17.031 25.332 3.494 2.324 7.212 4.092 10.979 5.611 1.267.51 2.544.973 3.825 1.422.398.141.798.277 1.196.42 1.067.379.174.426-.164-.953l3.06-7.396c.186-.029.373-.062.56-.092-3.007.201-5.784 9.039-2.29 8.963 16.721-.365 37.915-7.918 45.078-28.812 1.607-4.696-2.03-7.153-3.741-2.348z"/><path d="M456.446 559.062c-1.182 65.236 72.936 84.643 108.667 50.408 12.253-11.74 18.575-29.883 17.208-48.924-.346-4.809-4.641.523-4.547 3.455.438 13.893-3.115 26.479-11.503 35.986-8.308 9.414-19.64 14.059-30.601 16.16-22.729 4.357-50.224-3.434-65.244-26.158-6.449-9.756-9.374-21.932-9.404-34.402-.004-1.773-1.363-2.42-2.49-1.562-1.405 1.066-2.049 3.093-2.086 5.037z"/><path d="M439.464 556.167c14.029 13.883 28.088.885 39.934-10.152 5.924-5.523 12.157-11.486 19.646-13.154 9.535-2.123 16.354 7.09 22.292 14.67 2.262 2.887 5.329-3.992 3.941-6.555-4.791-8.842-12.794-16.48-21.736-16.529-7.641-.043-14.645 5.479-20.608 10.783-12.079 10.742-25.589 27.918-40.683 14.205-1.985-1.801-4.79 4.75-2.786 6.732z"/><path d="M524.092 547.04c6.442-7.576 14.118-13.58 23.321-11.291 7.088 1.764 13.246 8.275 18.693 13.732 11.233 11.256 24.35 23.285 38.231 10.324 1.327-1.24 2.331-3.184 2.2-5.318-.112-1.82-1.367-2.615-2.63-1.65-6.557 5.012-12.912 5.773-19.875 1.525-6.804-4.15-12.44-10.928-18.421-16.568-5.658-5.336-11.954-10.086-19.229-10.738-9.375-.838-17.625 6.641-23.864 14.412-1.945 2.422-1.581 9.283 1.574 5.572z"/><path fill="#163663" d="M501.521 196.937c-4.188-12.432-14.023-22.543-23.027-31.682-8.469-8.6-17.816-16.406-28.093-22.756-14.487-8.951-30.999-13.918-47.92-15.285-17.167-1.387-36.077-.406-51.396 8.152-12.395 6.924-22.812 20.244-21.174 35.02.541 4.873 2.814 10.223 7.542 12.311 4.452 1.969 9.121-.527 12.654-3.523 24.569-7.986 48.034 6.459 67.149 21.486 18.348 14.424 35.803 33.723 61.295 32.221 19.106-1.128 28.859-18.452 22.97-35.944zm-155.988-22.993"/><path d="M343.858 182.153c26.051-11.123 51.068 4.105 71.243 19.965 18.349 14.424 35.802 33.723 61.295 32.221 19.104-1.127 28.858-18.451 22.968-35.943-4.187-12.432-14.023-22.543-23.026-31.682-8.47-8.6-17.815-16.406-28.093-22.756-14.488-8.951-31-13.918-47.92-15.285-17.167-1.387-36.078-.406-51.396 8.152-12.395 6.924-22.812 20.244-21.172 35.02.54 4.873 2.812 10.223 7.541 12.311 5.508 2.436 11.35-1.961 14.959-5.686 1.505-1.553 2.83-4.041 2.078-6.264-.701-2.074-3.072-1.586-4.31-.311-2.654 2.736-5.843 5.301-9.624 3.141-3.352-1.912-4.019-6.916-4.074-10.332-.188-11.459 13.175-19.881 22.5-23.332 12.24-4.529 26.134-4.541 38.998-3.816 12.686.713 25.035 3.826 36.597 9.053 11.186 5.059 21.304 12.309 30.442 20.443 9.984 8.889 19.91 19.012 26.723 30.572 3.758 6.383 8.352 18.145.963 23.76-7.594 5.77-19.043 4.291-27.516 1.729-11.039-3.338-19.916-10.082-28.557-17.439-8.916-7.592-17.888-15.127-27.607-21.684-19.028-12.836-41.048-19.434-62.721-9.197-2.496 1.181-4.013 8.95-.291 7.36z"/><path fill="#163663" d="M397.853 267.96c-5.318 7.74-14.705 6.031-22.227 3.107-17.821-6.926-33.842-20.023-53.227-9.99-21.316 11.029-27.803 37.998-33.324 59.229-7.633 29.348-15.537 58.594-22.217 88.18-13.359 59.17-21.86 119.1-23.475 179.781-.74 27.799.746 55.047 4.104 82.639 2.578 21.182 6.725 42.58 7.166 63.955.151 7.27-2.793 14.727-9.709 18.799-7.654 4.508-17.428-1.336-23.224-6.273-18.547-15.805-22.583-42.273-26.972-64.902-11.375-58.652-9.816-119.553-3.224-178.668 5.608-50.273 15.534-99.9 27.45-149.027 9.73-40.107 21.191-82.768 45.617-116.721 12.506-17.387 28.97-30.324 50.789-32.738a65.662 65.662 0 0 1 5.033-.354c13.302 1.4 27.041 6.92 38.638 12.145 14.972 6.746 33.22 16.744 40.315 32.465 2.841 6.287 2.397 12.684-1.513 18.373z"/><path d="M396.206 226.565c-22.26-16.398-46.935-32.197-75.713-30.664-22.112 1.176-39.572 13.174-53.566 29.508-13.902 16.229-23.439 35.986-31.418 55.645-8.279 20.402-14.478 41.615-19.936 62.922-26.485 103.42-45.031 213.242-30.521 319.943a439.59 439.59 0 0 0 7.871 42.225c2.704 11.395 5.365 23.096 11.228 33.334 7.804 13.631 24.955 30.723 41.872 22.107 7.913-4.029 13.706-14.266 15.47-22.652 1.4-6.662.297-14.205-.318-20.891-2.211-24.01-6.13-47.84-8.48-71.84-5.808-59.318.051-120.377 9.938-178.961 5.026-29.773 11.599-59.26 18.894-88.551 3.779-15.178 7.782-30.299 11.853-45.402 3.297-12.234 6.144-24.658 10.412-36.602 3.828-10.717 9.645-20.562 19.795-26.266 8.977-5.043 18.678-2.371 27.539 1.443 15.316 6.594 33.443 20.016 48.47 5.545 12.477-12.016 12.692-30.061 2.661-43.406-10.807-14.377-28.85-23.463-45.156-29.963-13.064-5.211-27.482-9.67-41.693-9.027-4.102.188-7.555 9.871-3.042 9.666 15.796-.715 33.065 6.086 47.167 12.439 14.972 6.744 33.221 16.744 40.314 32.465 2.84 6.289 2.396 12.686-1.515 18.375-5.319 7.74-14.705 6.031-22.227 3.107-17.821-6.926-33.841-20.023-53.228-9.99-21.316 11.029-27.801 37.998-33.324 59.229-7.633 29.348-15.537 58.592-22.217 88.18-13.359 59.17-21.859 119.098-23.475 179.781-.74 27.799.748 55.047 4.104 82.637 2.579 21.184 6.725 42.582 7.167 63.957.151 7.27-2.794 14.727-9.709 18.799-7.654 4.508-17.427-1.336-23.224-6.275-18.547-15.803-22.583-42.271-26.971-64.9-11.376-58.652-9.818-119.553-3.225-178.668 5.607-50.273 15.533-99.9 27.451-149.027 9.729-40.107 21.189-82.768 45.616-116.721 12.507-17.387 28.97-30.324 50.789-32.738 28.454-3.145 54.274 13.117 76.513 28.76 2.774 1.948 6.711-5.403 3.834-7.523z"/><path fill="#163663" d="M678.007 178.81c76.295 127.564 96.512 321.131 124.375 443.725 6.281 26.473 28.525 146.977 55.6 95.396 35.064-66.799-49.789-421.006-75.669-480.182-10.632-29.32-31.383-62.158-54.634-83.586-20.941-21.156-70.236-19.871-49.136 20.027"/><path fill="#000205" d="M675.436 182.282c27.054 45.785 45.464 96.305 60.249 147.217 15.287 52.645 26.449 106.418 36.766 160.223 8.816 45.975 16.643 92.193 27.123 137.83 6.789 29.561 12.021 60.447 24.901 88.133 3.694 7.938 10.171 21.129 20.921 19.188 10.124-1.832 16.152-16.104 18.891-24.744 7.529-23.766 5.977-50.893 4.596-75.408-2.062-36.584-7.165-73.004-13.08-109.141-6.527-39.885-14.408-79.553-23.127-119.014-7.754-35.105-16.209-70.068-25.7-104.746-6.003-21.934-11.915-44.318-20.632-65.373-8.225-19.861-17.315-38.602-29.775-56.23-7.01-9.92-14.893-19.234-23.594-27.707-5.408-5.268-11.023-9.627-18.018-12.592-10.792-4.574-25.131-6.4-35.451.309-13.129 8.535-10.461 25.199-4.313 37.137 2.431 4.719 8.452-2.945 6.704-6.342-2.67-5.182-8.223-15.941-3.111-21.344 4.598-4.859 13.02-4.785 19.109-4.137 22.132 2.355 37.252 21.623 49.75 38.143 20.51 27.111 33.174 58.402 43.102 90.605 20.938 67.922 36.486 137.826 49.787 207.598 7.336 38.48 13.735 77.186 18.1 116.125 3.354 29.918 6.237 60.689 3.35 90.77-.863 8.99-2.555 19.357-6.013 26.637-1.833 3.859-4.608 9.258-8.997 10.547-3.722 1.092-7.193-2.607-9.271-5.145-9.072-11.074-13.229-26.848-17.225-40.293-4.633-15.596-8.275-31.473-11.776-47.355-20.604-93.475-34.31-188.467-58.658-281.109-16.094-61.232-36.735-122.205-69.463-176.723-1.957-3.256-6.913 3.949-5.145 6.941z"/><path d="M452.401 128.313c24.467 1.203 45.184 23.545 60.51 42.055 7.447 8.994 14.258 18.582 20.438 28.631 5.437 8.842 11.579 20.338 21.446 23.922 10.56 3.836 21.518-7.5 26.29-16.539 6.584-12.473 2.545-25-3.788-36.469-14.234-25.779-31.967-48.391-55.5-64.645-24.408-16.857-58.598-30.271-83.523-7.301-5.976 5.508-19.68 21.25-11.738 30.482 6.382 7.416 21.231 2.832 28.647.43 3.648-1.182 6.157-11.504 1.188-9.904-5.904 1.9-19.205 6.385-24.363.387-2.123-2.473 3.393-7.994 4.639-9.477 5.303-6.297 11.434-10.414 19.02-12.654 12.746-3.762 26.078-.238 38.009 4.854 12.188 5.197 23.591 12.406 34.048 20.916 11.471 9.332 21.421 20.777 29.943 33.234 3.955 5.781 7.453 11.936 11.102 17.945 3.858 6.355 7.798 13.195 8.658 20.891.834 7.457-5.533 14.006-11.059 17.355-4.84 2.932-10.271-.07-13.991-3.564-8.216-7.719-13.346-19.086-19.765-28.441-10-14.574-21.367-28.352-34.338-39.9-12.277-10.93-26.85-21.158-43.322-20.979-3.34.037-6.529 8.574-2.551 8.771z"/><path fill="#163663" d="M565.37 210.966c-4.839 2.932-10.271-.068-13.99-3.562-8.217-7.719-13.347-19.086-19.766-28.441-9.999-14.574-21.366-28.354-34.338-39.9-11.311-10.07-24.573-19.539-39.473-20.824-.404-.771-1.181-1.123-2.43-.721-5.903 1.9-19.205 6.387-24.362.385-2.124-2.471 3.392-7.994 4.639-9.475 5.303-6.297 11.433-10.416 19.019-12.654 12.746-3.762 26.078-.236 38.01 4.852 12.187 5.199 23.59 12.41 34.047 20.918 11.471 9.332 21.422 20.777 29.944 33.234 3.954 5.781 7.452 11.938 11.101 17.945 3.859 6.355 7.799 13.195 8.658 20.893.835 7.453-5.533 14.002-11.059 17.35z"/><path d="M546.57 118.54c28.923 10.664 45.954 33.881 55.503 58.121 4.83 12.26 16.301 41.701 38.957 34.17 21.91-7.281 15.916-33.889 12.297-48.279-5.085-20.215-15.688-39.998-32.412-55.371-12.107-11.133-29.886-21.584-48.74-20.713-17.09.789-28.517 13.029-30.31 26.602-.223 1.693.677 3.904 3.234 3.256 2.654-.674 4.064-3.139 4.554-5.225 2.535-10.826 11.273-16.307 24.58-15.422 17.287 1.148 32.49 11.771 43.217 22.344 17.116 16.871 26.315 38.619 30.195 60.248 1.277 7.117 3.532 17.631-3.895 23.08-6.179 4.533-15.278-1.045-19.453-4.844-7.023-6.389-10.643-14.955-13.602-23.098-3.166-8.715-7.337-17.232-12.575-25.223-10.722-16.355-25.954-30.111-46.884-37.299-4.003-1.376-8.538 6.225-4.666 7.653z"/><path fill="#163663" d="M642.753 199.892c-6.179 4.533-15.278-1.045-19.453-4.844-7.022-6.389-10.643-14.955-13.602-23.098-3.166-8.715-7.337-17.23-12.574-25.223-10.722-16.355-25.955-30.113-46.885-37.301a3.102 3.102 0 0 0-1.488-.125c2.639-10.598 11.322-15.957 24.484-15.082 17.288 1.148 32.49 11.771 43.217 22.344 17.117 16.871 26.316 38.619 30.195 60.248 1.278 7.118 3.534 17.631-3.894 23.081z"/></svg>