<svg xmlns="http://www.w3.org/2000/svg" xmlns:xlink="http://www.w3.org/1999/xlink" width="1030" height="1030" viewBox="0 0 1030 1030"><defs><path id="a" d="M1020.377 515.001c0 279.115-226.264 505.377-505.377 505.377S9.623 794.114 9.623 515.001 235.887 9.622 515 9.622s505.377 226.266 505.377 505.379z"/></defs><clipPath id="b"><use xlink:href="#a" overflow="visible"/></clipPath><g clip-path="url(#b)"><path fill="#EF6100" d="M1021.413 517.214c0 279.115-226.265 505.377-505.378 505.377-279.112 0-505.377-226.264-505.377-505.377S236.923 11.835 516.035 11.835c279.113 0 505.378 226.266 505.378 505.379z"/><path fill="#EA2700" d="M64.592 301.339c65.697-60.766 147.472-101.363 226.166-142.393 40.815-21.281 80.746-43.73 120.539-66.854 43.206-25.111 87.47-49.598 136.055-62.561l-2.865-37.723C469.49 62.96 382.01 118.8 296.631 176.392c-43.967 29.658-87.433 59.996-129.215 92.682-20.033 15.672-39.121 32.311-60.043 46.828-21.763 15.1-44.41 28.885-66.553 43.41-20.461 13.42-40.42 27.699-58.93 43.736-7.092 6.145-11.695 17.17-10.986 26.521.549 7.209 5.931 13.973 13.85 11.199 98.167-34.393 184.33-95.652 268.734-154.941 42.164-29.617 84.251-59.42 128.115-86.494 19.997-12.342 40.242-24.098 59.857-37.074 21.043-13.918 41.816-28.238 62.965-42 37.357-24.314 76.479-48.123 120.033-59.316-2.239-11.117-4.479-22.232-6.717-33.35-3.625 4.496-11.99 11.266-18.963 15.918-10.002 6.67-20.648 12.365-31.156 18.178-23.029 12.742-45.092 27.219-67.553 40.936-51.307 31.332-102.534 62.797-153.853 94.113-51.11 31.188-102.327 62.211-153.79 92.816-45.842 27.262-92.239 53.613-137.738 81.449-57.198 34.99-113.604 73.15-161.328 120.578-6.829 6.783-11.734 16.688-10.986 26.52.559 7.365 5.898 13.781 13.849 11.199 51.945-16.859 99.749-43.609 147.504-69.639 50.274-27.404 102.161-51.779 153.585-76.934 106.723-52.203 213.545-104.201 320.025-156.898 43.588-21.572 87.41-42.348 128.738-68.076 36.969-23.018 73.674-48.996 115.463-62.539-.953-12.574-1.908-25.146-2.863-37.721-32.516 34.457-76.607 55.146-117.221 78.289-50.043 28.516-97.458 62.32-145.693 93.777-48.672 31.742-97.557 62.701-143.463 98.404-36.258 28.201-71.635 58.477-113.408 78.264C166.968 440.29 75.416 461.753 37.56 541.29c-3.076 6.463-5.364 14.316-2.909 21.402 1.744 5.039 7.496 9.094 12.932 6.588 100.087-46.102 193.518-104.332 287.45-161.586 46.519-28.355 93.288-56.326 141.229-82.229 49.123-26.541 100.223-49.029 149.865-74.543 51.182-26.305 101.262-54.686 151.102-83.426-.985-12.998-1.971-25.994-2.959-38.99-89.507 66.279-184.82 124.035-280.238 181.279-95.315 57.186-189.699 115.123-280.916 178.699C148.344 533.63 70.698 560.08 20.878 624.457c-8.811 11.383-11.102 42.221 10.984 31.381 208.227-102.16 408.941-218.58 611.711-330.955 81.105-44.949 162.598-89.213 245.032-131.684-.985-12.996-1.972-25.994-2.959-38.988-200.876 115.724-395.703 241.727-585.56 374.704-76.926 53.879-153.004 108.973-228.347 165.043-9.188 6.836-16.062 17.881-15.161 29.76.736 9.699 9.592 15.234 18.12 9.229 43.634-30.723 91.015-55.527 138.017-80.598 48.865-26.064 96.42-53.967 143.453-83.207 97.824-60.818 193.598-125.836 295.82-179.223 79.943-41.756 155.398-91.654 236.616-131.035l-7.13-35.752c-155.031 139.627-335.512 246.816-513.14 354.633-93.445 56.72-186.838 113.709-276.604 176.166-9.318 6.484-16.043 18.146-15.16 29.758.8 10.539 9.316 14.158 18.119 9.23 202.516-113.371 408.094-221.234 609.108-337.291 82.61-47.695 164.386-96.848 244.782-148.197l-10.985-31.381c-4.995 7.512-10.376 14.717-16.097 21.689-5.041 6.145-10.836 12.266-18.377 19.707-14.123 13.939-29.658 26.809-45.089 38.273-35.397 26.297-73.571 48.73-112.081 70.107-37.449 20.789-75.582 40.312-113.115 60.945-42.606 23.422-83.6 49.658-124.551 75.828-65.342 41.752-130.41 84.795-198.977 121.15-60.085 31.857-124.111 59.162-173.205 107.688-6.838 6.762-11.73 16.707-10.986 26.521.621 8.164 5.797 12.766 13.852 11.199 27.105-5.268 51.927-18.041 75.644-31.76 24.854-14.379 49.684-28.809 74.538-43.191a10620.09 10620.09 0 0 0 152.23-89.771c49.531-29.773 100.037-57.951 150.666-85.822 50.375-27.73 102.133-51.93 153.664-77.322 67.275-33.148 131.117-72.73 197.158-108.186l-10.984-31.383c-5.504 7.193-9.137 10.836-17.041 18.057-7.752 7.076-15.979 13.312-24.516 19.367-18.808 13.338-38.715 25.094-58.618 36.699-43.185 25.18-85.118 51.793-126.224 80.277-91.95 63.715-180.73 131.844-272.466 195.85-62.606 43.68-127.019 85.396-195.644 119.062l2.959 38.99c48.337-27.512 98.725-51.109 148.233-76.383 25.085-12.807 49.888-26.168 74.097-40.572 24.189-14.391 46.896-30.896 69.811-47.201 23.253-16.545 46.578-32.992 70.564-48.465 23.51-15.168 48.084-28.535 72.547-42.078 48.808-27.02 97.926-53.48 146.338-81.211 61.396-35.17 121.518-72.686 178.057-115.307-3.661-10.461-7.322-20.922-10.984-31.381-59.98 69.826-146.118 119.631-225.496 166.939-91.051 54.268-181.008 110.705-269.408 169.203-41.196 27.26-81.385 55.869-121.204 85.092-39.394 28.914-78.96 57.732-121.233 82.348-9.595 5.584-15.992 18.82-15.16 29.758.84 11.066 9.201 13.475 18.119 9.23 100.961-48.053 196.104-107.057 291.244-165.518 47.797-29.369 95.674-58.625 144.387-86.459 47.674-27.238 96.567-52.016 145.608-76.67 75.025-37.713 150.204-76.055 218.39-125.428l-7.131-35.75c-33.61 33.213-76.09 55.598-117.895 76.719a4042.123 4042.123 0 0 0-133.637 70.689c-99.297 54.922-199.128 109.008-295.388 169.18-39.694 24.812-79.177 50.248-116.167 78.982-32.521 25.262-64.553 53.299-102.399 70.43-8.954 4.055-15.019 11.32-17.994 20.766-1.853 5.883-3.031 24.236 8.274 22.725 45.447-6.074 87.677-22.926 128.725-42.799 43.947-21.275 85.808-46.65 127.57-71.857 92.4-55.779 188.994-103.605 284.818-153.17 30.956-16.012 61.8-31.988 92.062-49.281l89.188-50.969c9.619-5.496 15.986-18.891 15.162-29.758-.805-10.576-9.309-14.111-18.121-9.23-104.188 57.711-206.854 118.117-308.768 179.746-51.145 30.93-102.086 62.188-152.945 93.584-44.668 27.572-85.542 60.625-129.553 89.188-21.203 13.756-43.262 26.518-67.016 35.328l-1.309 40.957c171.867-107.34 370.172-160.402 549.303-253.342 47.312-24.547 93.092-52.107 136.094-83.643 9.217-6.758 16.057-17.938 15.159-29.76-.759-9.986-9.485-14.867-18.118-9.229C824.266 729.44 638.676 860.724 439.863 970.419a2775.571 2775.571 0 0 1-59.694 31.969l7.133 35.752c73.349-58.309 162.89-92.967 248.278-129.312 44.957-19.137 89.819-38.742 132.914-61.836 22.314-11.959 44.492-24.162 66.002-37.533 23.461-14.584 46.566-29.75 71.246-42.24l-14.291-26.021c-3.254 5.631 2.838-4.268-.768 1.271-1.092 1.672-2.266 3.291-3.438 4.908-1.197 1.656-2.473 3.256-3.743 4.855-.225.285-4.667 5.496-1.593 2.025-6.42 7.246-13.554 13.844-20.877 20.158-14.345 12.365-31.18 23.664-48.141 34.455-35.631 22.666-73.099 42.25-109.025 64.42-39.857 24.594-76.527 54.361-114.17 82.133-42.477 31.334-86.009 61.828-133.524 85.104-8.503 4.166-17.229 7.842-26.042 11.295.953 12.572 1.908 25.146 2.864 37.721 61.737-53.27 143.856-80.49 220.312-108.334 80.787-29.42 162.883-61.467 226.773-120.973 7.468-6.955 14.516-14.354 21.266-22.004 7.164-8.117 13.979-19.857 10.072-31.133-3.469-10.01-15.477-8.066-21.377-1.381-114.229 129.438-307.648 132.047-443.064 231.178a405.347 405.347 0 0 0-25.289 20.133c-7.098 6.125-11.693 17.186-10.986 26.523.528 6.965 5.991 14.279 13.852 11.197 97.134-38.068 176.129-109.006 260.492-168.248 66.98-47.033 147.924-76.375 205.264-136.568 10.396-10.916 19.23-22.635 26.766-35.684 7.1-12.287 4.061-35.305-14.291-26.02-23.682 11.982-45.959 26.396-68.422 40.475-22.414 14.049-45.567 26.727-68.828 39.299-42.021 22.705-85.976 41.566-129.891 60.242-90.248 38.379-182.23 75.838-259.648 137.379-7.226 5.744-11.672 17.469-10.986 26.521.82 10.785 9.26 13.842 18.12 9.23C584.75 936.47 771.74 806.556 960.965 681.343a11148.048 11148.048 0 0 1 56.154-36.924c-.986-12.996-1.974-25.992-2.959-38.988-164.072 120.318-362.512 176.99-545.047 261.854-48.147 22.383-95.297 46.992-140.35 75.131-8.23 5.139-13.767 14.979-14.994 24.48-1.042 8.053 3.028 20.43 13.685 16.479 48.653-18.047 91.169-48.994 132.91-79.129 45.077-32.541 91.929-61.576 139.313-90.625 101.836-62.436 204.242-123.967 307.943-183.266a7351.688 7351.688 0 0 1 86.65-48.766c-.985-12.996-1.971-25.992-2.959-38.988-51.547 29.457-102.699 59.619-155.438 86.898-53.777 27.818-107.557 55.633-161.336 83.449-43.93 22.723-87.301 45.756-129.696 71.246-41.771 25.117-83.297 50.699-126.522 73.277-41.221 21.529-86.023 41.922-132.55 48.141l-9.721 43.49c47.462-21.482 85.909-55.805 127.179-86.811 44.622-33.523 92.951-62.742 140.678-91.576 96.971-58.586 197.004-111.867 295.91-167.064 73.6-41.076 157.644-70.725 218.6-130.963 6.844-6.76 11.734-16.709 10.988-26.521-.729-9.592-9.636-15.373-18.119-9.23-88.589 64.145-188.592 109.527-285.451 159.373-99.426 51.166-193.672 111.625-289.094 169.732-73.312 44.643-147.525 88.053-225.084 124.969.985 12.996 1.973 25.992 2.959 38.988 49.188-28.641 94.676-62.945 140.543-96.504 46.479-34 94.139-66.234 142.512-97.467 87.035-56.191 175.351-110.045 263.912-163.752 74.69-45.295 149.065-94.295 206.426-161.074 5.669-6.598 9.146-18.316 6.219-26.762-2.553-7.369-11.105-9.217-17.203-4.619-89.628 67.562-188.064 121.631-286.239 175.51-49.329 27.074-98.405 53.916-144.788 85.881-23.352 16.092-46.289 32.777-69.5 49.068-23.091 16.205-47.427 30.418-72.158 43.965-61.564 33.727-125.932 62.055-186.961 96.791-9.623 5.477-15.984 18.906-15.16 29.76.834 10.973 9.219 13.596 18.119 9.23 98.893-48.512 189.042-113.174 277.801-177.871 89.326-65.109 177.656-132.875 271.783-191.008 55.476-34.266 120.369-62.553 160.975-115.648 5.39-7.047 9.266-17.969 6.219-26.762-2.841-8.197-10.652-8.139-17.203-4.621-49.322 26.479-97.433 55.121-146.603 81.871-49.907 27.152-102.032 49.65-152.421 75.84C537.59 565.519 438.344 626.224 337.975 685.06a11387.662 11387.662 0 0 1-97.149 56.283c-30.903 17.713-60.723 37.979-96.278 44.889.953 12.572 1.908 25.146 2.865 37.721 33.756-33.367 76.161-55.738 118.04-77.18 45.688-23.391 90.239-48.039 134.128-74.68 87.599-53.176 171.682-111.859 262.07-160.354 54.957-29.484 110.545-57.98 162.961-91.898 49.711-32.166 98.854-70.18 131.993-120.016 5.024-7.557 9.407-17.564 6.218-26.762-2.699-7.791-10.854-8.674-17.203-4.621-195.874 125.102-399.874 236.655-603.807 347.893-83.528 45.561-167.062 91.117-250.083 137.596l2.959 38.988C265.64 673.978 449.086 574.513 622.931 460.024c94.264-62.08 185.903-128.777 269.846-204.379 7.025-6.326 11.709-17.035 10.988-26.521-.836-11.01-9.213-13.549-18.12-9.23-51.248 24.85-100.296 53.832-149.524 82.396-49.636 28.799-100.664 55.018-150.33 83.748-99.657 57.645-195.211 122.086-293.78 181.537-72.495 43.723-150.876 77.516-220.271 126.383.985 12.996 1.974 25.992 2.959 38.988 185.013-137.684 374.572-269.338 569.659-392.373 80.434-50.727 161.85-99.902 244.247-147.373 9.606-5.535 15.987-18.861 15.161-29.76-.821-10.814-9.25-13.799-18.12-9.229C679.471 260.433 479.434 377.96 275.685 488.665c-81.456 44.258-163.553 87.352-246.782 128.186l10.984 31.383c25.777-33.309 66.305-56.533 103.789-77.648 19.876-11.199 39.891-22.156 59.179-34.355 21.948-13.881 42.736-29.654 64.247-44.203 92.357-62.465 188.979-118.262 284.289-176.014 77.076-46.703 153.375-94.857 225.838-148.516 9.197-6.811 16.061-17.9 15.162-29.76-.793-10.436-9.346-14.291-18.121-9.23-48.864 28.18-97.98 55.93-148.08 81.867-49.613 25.688-100.764 48.18-150.023 74.562-96.332 51.592-187.564 112.021-281.984 166.92-45.945 26.715-92.727 52.25-141.018 74.496 3.338 9.33 6.68 18.662 10.022 27.99.942-1.98 1.919-3.936 2.938-5.881.275-.529 3.927-6.719 1.067-2.127 2.278-3.656 4.847-7.123 7.493-10.518.167-.217 4.737-5.592 1.715-2.197 1.436-1.613 2.948-3.158 4.455-4.703 3.552-3.637 7.364-7.01 11.248-10.285 4.771-4.025 12.173-9.08 19.404-13.619 8.458-5.309 17.279-10.027 26.193-14.512 34.469-17.342 71.242-29.699 106.113-46.215 43.147-20.439 79.836-52.666 117.23-81.818 44.832-34.949 93.141-64.873 140.709-95.896 48.039-31.33 95.283-64.803 145.127-93.205 42.926-24.461 88.732-46.936 123.102-83.359 6.684-7.084 11.75-16.467 10.986-26.521-.559-7.365-5.898-13.775-13.852-11.199-49.908 16.174-93.238 47.807-137.598 74.861-48.915 29.832-102.049 53.268-153.393 78.592-106.677 52.613-213.652 104.617-320.47 156.939-43.396 21.258-86.618 42.541-129.028 65.715-40.359 22.047-80.936 43.73-124.824 57.979l2.863 37.723c72.182-71.732 163.5-120.635 250.486-171.762 103.369-60.754 205.491-123.592 307.752-186.184 31.838-19.49 63.289-39.891 95.545-58.646 28.137-16.359 57.43-30.23 78.301-56.137 6.781-8.412 13.281-38.49-6.715-33.35-47.43 12.188-90.468 38.452-131.139 64.922-21.107 13.74-41.835 28.055-62.84 41.949-19.621 12.977-39.934 24.668-59.938 37.012-88.902 54.875-170.567 120.623-260.035 174.662C76.088 360.72 34.5 382.364-9.664 397.841l2.862 37.721c39.103-33.881 85.59-57.932 127.509-87.986 21.175-15.182 40.631-32.545 61.217-48.488 20.627-15.977 41.773-31.275 63.117-46.279C331.117 192.304 421.06 137.278 502.832 70.81c18.234-14.82 35.916-30.312 52.963-46.484 6.924-6.572 11.72-16.852 10.985-26.521-.585-7.715-5.842-13.336-13.851-11.199-49.303 13.154-94.82 37.832-138.795 63.143-40.957 23.574-81.775 46.955-123.684 68.824-82.873 43.246-167.968 86.252-237.164 150.254-7.748 7.166-13.724 20.592-10.07 31.133 3.688 10.637 15.028 7.252 21.376 1.379z"/></g><path fill="#2F61DD" d="M218.677 613.814c-8.204-38.34-8.399-78.643-4.522-117.516 3.731-37.412 11.694-76.176 29.502-109.616l-9.154 1.161c-.164 36.866-3.283 73.642-6.776 110.317-3.455 36.27-8.146 72.677-8.368 109.155-.012 1.976 1.64 3.497 3.592 2.905 2.743-.834 4.711-4.146 4.997-6.859 3.854-36.724 7.023-73.538 10.493-110.301 3.502-37.105 6.465-74.301 6.406-111.597-.011-6.983-7.527-1.94-9.154 1.161-18.719 35.685-26.884 76.559-30.498 116.384-3.633 40.041-2.354 81.364 7.478 120.484.533 2.119 2.988 1.297 4.08.265 1.621-1.53 2.388-3.778 1.924-5.943z"/><path fill="#FFE5B8" d="M761.119 354.735c-2.816-3.449-6.895-4.523-11.463-2.961l-1.699.582v-.105l-.361.23c-13.684 4.705-22.516 3.891-31.189 2.139 1.674-5.926 2.957-12.029 3.918-18.217.795-.025 1.623-.309 2.344-.787 3.111-2.064 4.846-6.23 4.766-10.07-.395-18.912-2.65-37.795-7.383-55.814-1.49-7.635-3.754-15.07-7.145-21.732-4.926-12.295-11.246-23.973-19.207-34.715-20.568-27.766-51.15-44.807-82.5-53.926-17.508-5.094-35.48-7.953-53.557-9.307-21.08-1.58-42.324-1.336-63.152 2.787a138.221 138.221 0 0 0-8.521 1.977c-28.577 1.109-56.901 7.117-82.801 20.717a136.481 136.481 0 0 0-7.126 4.029c-13.078 5.307-25.796 11.572-37.816 19.094-16.375 10.246-31.969 23.76-41.004 42.027a61.22 61.22 0 0 0-3.984 10.303c7.047 6.6 11.062 15.41 11.848 25.582 1.301 16.848-3.195 33.873-7.977 49.875-4.742 15.881-10.184 31.453-13.74 47.664a344.294 344.294 0 0 0-3.008 15.471 214.89 214.89 0 0 0 11.223-1.945 220.756 220.756 0 0 0-12.039 6.896c-2.734 17.238-4.357 34.615-5.721 52.027 15.463-.48 31.617-2.07 48.924-4.85-16.561 7.676-33.568 15.896-50.447 25.096-1.318 17.67-2.721 35.336-5.107 52.881a2422.578 2422.578 0 0 0 36.143-9.67 1679.019 1679.019 0 0 0-11.326 5.26l-.998.266-.032.236c-9.866 5.049-16.853 15.648-18.327 27.916-.73 6.107.553 11.881 3.463 15.441 2.77 3.393 6.836 4.594 11.543 3.35l2.021-.547c-.417.232-.924.465-1.34.697l-.386.055v.059c0 .586-1.917 1.17-2.966 1.754-8.387 4.672-13.75 16.766-14.896 26.301-.732 6.111.572 11.898 3.494 15.477 2.774 3.398 6.861 4.584 11.557 3.309a685.753 685.753 0 0 0 29.934-8.895c-7.174 7.514-13.459 23.562-11.014 33.629 1.609 6.625 6.75 9.736 14.367 8.557a376.996 376.996 0 0 0 21.271-3.926c-2.763 4.68-4.594 10.07-5.256 15.584-.546 4.541.104 11.422 3.732 15.863 2.825 3.461 6.9 4.508 11.44 2.885a2498.95 2498.95 0 0 1 9.74-3.469 39.712 39.712 0 0 0-6.896 17.967c-.746 6.225.401 11.553 3.234 15.021 2.699 3.307 6.799 4.621 11.673 3.771.646-.113 1.291-.26 1.936-.377l.124-.221c6.566-1.152 13.144-2.584 19.73-3.764-3.457 8.322-5.184 17.758-1.854 23.74.922 1.66 2.546 2.994 5.331 3.625 1.123.465 2.438.715 3.963.717h.047c5.178-.01 10.371-.088 15.574-.209 9.943.086 19.826.104 29.532-.531.589 5.447 3.123 10.551 7.255 12.516 11.727 5.57 24.871 8.396 39.068 8.396 30.234 0 60.902-12.752 81.342-22.346 38.867-18.242 74.086-42.178 106.357-65.33l.896-.541-.006-.117c9.232-7.107 15.059-19.826 14.248-31.322-.57-8.084-5.16-13.307-11.688-13.307-.422 0-.848.023-1.275.068 10.434-8.988 19.174-18.734 26.49-29.51 5.057-7.447 9.316-18.955 6.109-28.912-1.352-4.197-4.182-7.039-7.822-8a257.442 257.442 0 0 0 5.588-5.498c7.326-7.434 11.609-18.605 10.914-28.459-.473-6.689-4.633-13.799-11.408-13.799-1.305 0-2.648.275-3.996.822-2.049.83-4.121 1.666-6.207 2.502 7.178-5.43 12.504-15.191 13.723-25.344.57-4.766-.398-11.832-3.875-16.092-2.854-3.49-6.918-4.455-11.369-2.631-.533.219-1.072.439-1.611.658l.01-.316-1.182.789c-.871.35-1.748.701-2.633 1.051a348.437 348.437 0 0 0 17.613-16.15c5.707-5.609 9.732-14.105 10.77-22.729.609-5.092-.227-12.012-3.477-15.992-.902-1.104-1.963-1.955-3.16-2.531a811.286 811.286 0 0 0 17.377-10.646c8.855-5.584 13.914-17.207 15.002-26.254.719-5.972-.73-12.17-3.687-15.795zm-440.057-95.298c-.016.029-.031.062-.049.092.078-.887.173-1.773.289-2.656.09-.682.208-1.359.326-2.037.186-1.059-.092.277.339-1.477 1.32-5.381 3.265-9.338 5.845-13.377 3.412-5.342 6.5-8.762 11.228-13.309 6.274-6.037 13.251-11.295 20.647-15.951a166.914 166.914 0 0 0-8.861 11.379c-11.754 10.65-22.071 22.978-29.764 37.336zm15.579 12.363c-.48.453-.955.912-1.438 1.363 4.469-13.264 10.288-25.93 17.748-37.521 3.707-3.646 7.639-7.021 11.736-10.17-11.851 13.507-21.253 29.197-28.046 46.328zm46.306-47.19a27.669 27.669 0 0 0-3.512 3.635c-8.04 8.348-16.005 16.773-24.09 25.059a131.646 131.646 0 0 1 7.723-11.215c1.875-2.438 4.043-4.969 6.387-7.486 4.655-4.166 9.631-7.936 14.811-11.346-.44.451-.88.9-1.319 1.353zm38.578 81.295l2.709-1.303.137.357c-.951.315-1.902.628-2.846.946zm91.157-3.496a23.112 23.112 0 0 0-.192-2.227c4.117 2.436 8.144 5.055 12.093 7.748a632.788 632.788 0 0 1 4.746 3.275c-5.934-2.808-11.491-5.704-16.647-8.796zm155.787-93.045c-.219-.385-.432-.771-.654-1.15.57.51 1.139 1.021 1.701 1.543a2.56 2.56 0 0 0-1.047-.393zm7.592 142.305a80.503 80.503 0 0 0 2.824-3.338c.457 1.104.902 2.213 1.354 3.322-1.157.002-2.589.008-4.178.016zm17.199-102.115c-5.902-13.92-14.012-26.803-22.709-38.799-.027-.037-.057-.064-.084-.102a135.518 135.518 0 0 1 23.15 28.758 13.392 13.392 0 0 0-.6 4.066c.02 2.038.104 4.063.243 6.077z"/><path fill="#D8724A" d="M389.307 706.196h-.001l-.003.006z"/><path fill="#2F61DD" d="M271.018 382.168c3.376 8.322 9.418 11.554 16.865 5.501 8.956-7.28 13.777-20.342 17.989-30.669 5.806-14.234 10.285-29.05 13.984-43.96 2.902-11.693 5.732-23.806 5.914-35.912l-8.188 5.05c-.012 7.872 2.72 17.57 12.304 12.654 9.842-5.048 16.857-17.439 22.414-26.458 8.789-14.267 16.058-29.411 22.284-44.955 5.734-14.317 10.811-29.597 12.091-45.053.402-4.856.03-9.5-1.327-14.187-1.58-5.456-7.874 2.73-7.559 5.871 1.227 12.221-2.113 25.24-5.756 36.904-4.863 15.569-11.54 30.574-19.189 44.962-5.626 10.583-12.532 22.744-20.542 30.536-1.685 1.639-1.443 1.535-3.489 2.632 1.283-.688-1.652.322-.247.135-.918.122-.936-.048-.811.001-.835-.325-.836-.575-1.261-1.773-.596-1.679-.688-3.989-.724-6.319-.04-2.565-2.419-3.528-4.458-2.271-2.471 1.524-3.735 4.514-3.73 7.321.016 8.742-2.365 19.477-4.482 28.614a340.779 340.779 0 0 1-11.664 39.431c-3.576 9.841-7.636 19.778-13.766 28.327-3.747 5.225-7.903 5.269-11.336-1.411-1.952-3.798-6.426 2.293-5.316 5.029zM750.844 927.56c-8.074-32.607-21.58-64-40.217-91.533a213.533 213.533 0 0 0-4.172-8.086c-.197-6.117-2.125-11.527-7.221-12.402-4.605-7.4-9.551-14.51-14.646-21.266-26.797-35.527-62.836-58.982-106.584-67.721-44.932-8.979-91.943-1.576-136.423 6.484-39.747 7.205-82.573 12-115.87 36.916-11.701 8.754-21.121 19.104-28.86 30.547-5.383 5.328-10.401 11.07-14.976 17.26-.91 1.23-1.79 2.473-2.652 3.725-9.521 11.635-18.691 23.58-28.209 35.043-6.079 7.316-11.057 22.535-4.31 30.961 2.011 2.512 4.332 3.574 6.743 3.678-1.203 8.711-1.85 17.521-2.016 26.338-1.857 3.32-2.842 7.143-2.163 10.123-3.028 5.385-3.968 12.455.419 15.426.928.629 1.863 1.242 2.799 1.857.829 3.723 3.182 4.525 5.846 3.732.402.248.809.494 1.213.74 1.516 3.109 4.279 5.158 8.79 5.141 10.822 6.049 22.052 11.348 33.56 16.02-.021.9-.016 1.809.055 2.73.619 8.148 5.907 13.18 14.086 11.389a171.328 171.328 0 0 0 14.495-3.863c19.374 6.094 39.21 10.799 58.952 14.658 43.615 8.525 88.959 12.666 133.35 13.906 54.307 1.518 140.014-4.232 180.91-47.979a573.484 573.484 0 0 0 37.688-15.346c6.852-3.074 11.26-11.017 9.413-18.478zm-47.293-18.981a93.184 93.184 0 0 0 6.074-9.73c.293 2.609.471 5.225.523 7.834-2.207.605-4.406 1.24-6.597 1.896zm-394.705 31.588c9.836-5.307 19.258-11.439 28.248-17.559 1.378-.939 2.736-1.906 4.104-2.861-8.923 7.227-17.373 14.941-25.138 23.324a198.815 198.815 0 0 1-7.214-2.904zm212.956-179.699c-10.054 4.518-19.86 9.629-29.474 15.045 3.906-4.41 6.939-9.514 8.55-15.156 6.983-.108 13.962-.096 20.924.111zm73.606 12.523c-10.758 6.684-21.674 13.102-32.631 19.445 3.934-7.227 7.279-14.826 9.873-22.867a26.18 26.18 0 0 0 .766-3c7.404 1.698 14.74 3.811 21.992 6.422zM278.811 891.212c2.006-.934 3.99-1.902 5.967-2.891a195.92 195.92 0 0 0-7.734 10.369 1364.9 1364.9 0 0 1 1.639-7.42l.128-.058zm121.916-16.197c21.759-16.17 45.392-29.861 68.366-44.211 14.446-9.025 29.116-17.76 44.409-25.096a322.17 322.17 0 0 1-4.067 3.594c-9.414 8.172-16.901 13.504-28.146 21.201-11.896 8.143-24.152 15.754-36.461 23.256-25.482 15.523-52.898 30.279-78.338 47.41 11.416-8.715 22.715-17.592 34.237-26.154zm114.235-11.51c-15.751 10.668-31.944 20.639-48.228 30.463 20.947-15.795 42.572-29.451 65.387-42.432-5.617 4.057-11.337 8.026-17.159 11.969zm-61.946 90.683c-4.216 2.9-7.881 6.898-10.577 11.473-4.383-.287-8.763-.6-13.141-.949a5638.878 5638.878 0 0 0 23.718-10.524zm238.242-89.834a162.097 162.097 0 0 0 5.498-8.211 242.732 242.732 0 0 1 1.891 4.318 351.835 351.835 0 0 0-7.389 3.893zm-44.149-28.333a485.052 485.052 0 0 0 11.189-13.508c1.779-2.229 3.371-4.902 4.623-7.797a216.71 216.71 0 0 1 9.566 9.561 418.387 418.387 0 0 0-25.378 11.744zm-7.88-40.45c-7.346 4.918-14.281 10.363-21.061 16.014 4.68-6.867 8.945-14.014 12.719-21.463a194.854 194.854 0 0 1 8.342 5.449zM509.824 962.71a187.004 187.004 0 0 0-5.447 5.703 563.196 563.196 0 0 1-3.444-.1 881.888 881.888 0 0 0 8.891-5.603z"/><path fill="#FFE5B8" d="M562.547 719.747a41.47 41.47 0 0 0-2.543-1.068c-1.285-4.348-3.102-8.686-5.467-13.031-5.543-10.186-19.896 1.719-23.645 6.781a41.845 41.845 0 0 0-2.16 3.236c-8.247.824-16.362 2.525-23.574 4.314-16.02 3.975-32.888 13.889-40.759 28.297a60.467 60.467 0 0 0-.701-.75c-1.464-1.551-2.7-3.289-3.854-5.074.752 1.102-1.048-2.133-1.195-2.48-.621-1.463-1.066-2.99-1.515-4.512a73.556 73.556 0 0 0-.192-.637 29.793 29.793 0 0 0-.155-1.273c-.247-1.785-.305-3.592-.368-5.391a74.11 74.11 0 0 0-.021-.562c.055-.33.125-.908.211-1.855.195-2.113.574-4.205.947-6.293 1.57-8.811-3.336-19.973-13.92-16.758-11.294 3.43-45.381 35.041-47.293 45.764-3.279 18.387 2.908 56.402 14.352 71.762 9.456 12.689 53.668 47.408 68.893 48.799 14.547 1.33 87.363-14.039 100.467-20.094 2.027-.605 33.477-59.447 35.404-60.281 0 0-10.355-48.799-26.793-45.928 4.354-5.613-26.951 11.402-23.988 5.072 3.394-7.259 8.056-23.321-2.131-28.038z"/><path fill="#EAA286" d="M551.932 740.64c-16.241 8.99-35.043 12.492-53.48 11.877-18.386-.611-38.959-5.086-50.162-20.955-3.469-4.914-9.293 7.297-8.195 10.617 14.47 43.859 71.082 48.984 107.482 30.758 7.631-3.822 12.436-12.633 13.541-20.881.671-5.012-1.602-15.612-9.186-11.416z"/><path d="M290.839 869.694c9.696.854 21.032 4.447 25.304 14.07 3.937 8.877 3.747 20.131 3.547 29.654-.232 10.783-1.832 21.549-2.933 32.264-.829 8.068-3.786 21.18 1.245 28.217 5.242 7.334 12.998-9.072 13.516-12.473 1.492-9.844-.31-20.869-.039-30.916.309-11.428.676-22.895-.781-34.262-1.229-9.584-4.82-17.727-11.846-24.43-7.713-7.354-17.943-6.592-27.551-4.24-.621.155-1.407 2.034-.462 2.116zm351.809 4.948c2.416 8.334 6.133 16.139 9.109 24.287 3.584 9.805 5.523 20.109 7.471 30.332 3.971 20.834 5.525 42.115 8.639 63.086.154 1.037.414 3.264 1.83 3.561.414.088.834.174 1.25.264 2.602.543 4.723-2.025 5.627-4.227 3.766-9.188.385-19.93-.805-29.537-1.469-11.869-3.43-23.678-5.77-35.408-2.311-11.576-5.549-22.895-10.129-33.783-3.383-8.041-7.66-16.908-16.475-19.709-.504-.165-.852.763-.747 1.134z"/><path d="M679.514 843.472c-13.678 5.008-25.521 13.041-34.771 24.338-1.543 1.885-3.006 4.732-2.221 7.246 1.004 3.217 4.23.289 5.281-1.154 7.957-10.959 18.678-18.848 30.91-24.479 1.869-.861 3.867-7.072.801-5.951z"/><path fill="#FF8A0B" d="M393.116 803.133c.252-.007.49.012.735.074l-.676-.176c.222.07.415.167.598.312l-.534-.44c.167.148.299.314.408.509l-.347-.646c.1.195.172.398.218.613l-.159-.801c.018.092.034.185.039.278.034.716.348 1.521 1.024 1.865.69.352 1.495.112 2.111-.268.854-.526 1.511-1.359 1.961-2.243.487-.956.632-1.853.662-2.905a4.343 4.343 0 0 0-.378-1.824c-.601-1.355-1.661-2.161-3.166-2.276-.844-.064-1.686.491-2.265 1.038-.8.756-1.389 1.753-1.719 2.8-.278.883-.404 1.906-.093 2.803.228.662.817 1.306 1.581 1.287z"/><path fill="#FFBF1F" d="M840.828 523.032c-.734-12.188-1.963-24.328-3.18-36.473-.141-1.49-.287-2.98-.436-4.471-.033-.338-.076-.672-.109-1.01-.627-6.324-1.234-12.648-1.746-18.984-1.01-12.508-1.248-25.008-2.85-37.479a226.27 226.27 0 0 0-7.662-36.016c-4.025-13.461-9.525-26.41-15.709-39.016a599.86 599.86 0 0 0-11.914-33.336c-3.43-19.502-11.164-38.047-22.92-54.125-1.477-2.018-3.037-3.963-4.637-5.877-10.334-19.318-21.971-37.938-34.965-55.582-12.689-17.23-26.812-34.668-43.225-48.516-24.436-20.619-53.529-36.232-83.414-47.334-32.781-12.18-68.664-20.27-103.604-14.229-16.609 2.873-31.883 10.029-44.674 20.998-6.123 5.25-11.393 11.459-15.862 18.244-14.47-6.082-30.028-9.697-45.709-8.842-21.78 1.188-41.19 10.238-58.282 23.326a75.323 75.323 0 0 0-11.932 3.807c-22.525 9.332-40.124 27.275-52.879 47.723-31.764 50.922-52.539 113.357-59.652 172.023-1.188 9.791-2.205 19.594-3.107 29.408-4.648 22.15-8.637 44.426-12.158 66.676-9.713 61.373-5.43 123.426-6.933 185.545-.577 23.863-.521 47.77 1.366 71.574 1.344 16.953 3.163 34.314 7.914 50.703l.1.338c2.082 7.078 10.422 4.967 14.309.926a125.411 125.411 0 0 0 5.275-5.854c-2.871 3.393 2.689-3.137 3.352-3.994 2.994-3.873 5.511-8.186 7.809-12.502 4.211-7.914 6.99-16.445 9.031-25.135.115-.332.224-.664.334-.996 1.275 1.037 2.989 1.461 4.95.867 4.64-1.408 8.743-6.83 9.837-11.799 3.078 7.805 6.49 15.469 10.307 22.932 4.289 8.387 8.992 16.521 14.554 24.135 3.052 4.178 8.173 2.637 11.927.736 9.634-4.877 24.473-8.201 36.728-10.518 13.462-2.543 27.063-4.617 40.073-9.057 5.125-1.748 9.01-6.09 11.438-10.945a81.154 81.154 0 0 0 4.508-.637c11.266-1.949 20.738-24.627 10.146-31.916-19.524-13.436-36.997-29.242-52.243-47.416-14.279-17.02-25.309-35.102-33.887-54.176-8.883-19.754-15.117-40.621-19.506-61.803l-.107-.516c-.043-.229-.11-.586-.213-1.119-.248-1.289-.48-2.582-.715-3.873a388.06 388.06 0 0 1-1.312-7.789c-.904-5.662-1.658-11.348-2.326-17.043-1.301-11.074-2.137-22.199-2.688-33.334-.781-15.828-.848-31.686-.522-47.525.026-1.316.062-2.631.097-3.947 1.504-2.732 2.477-5.711 2.736-8.445.938-9.918 2.363-19.762 4.423-29.51l.212-.918c.32-1.363.667-2.719 1.014-4.074.567-2.219 1.195-4.42 1.838-6.617 1.246-4.262 2.682-8.467 4.223-12.631.232-.627 1.579-3.955 1.773-4.479a203.83 203.83 0 0 1 2.109-4.73c1.757-3.82 3.684-7.561 5.694-11.254a195.703 195.703 0 0 1 3.099-5.438l.377-.627c.008 0 1.109-1.799 1.361-2.195 2.248-3.525 4.63-6.963 7.07-10.355 3.418-4.75 7.039-9.352 10.77-13.861 5.899 11.654 12.811 22.787 20.875 33.178 3.029 3.904 5.156 27.678 8.521 24.818-.442 22.338 10.534-22.064 12.45-25.602 13.726-25.363 29.373-48.23 46.791-72.615 8.742-12.238 17.621-24.377 26.402-36.588.429 1.334.867-7.334 1.328-6.014.812 4.123 1.678 8.07 2.531 11.76 4.201 18.145 9.887 35.979 17.683 52.896 6.392 13.871 13.567 27.367 20.459 40.99 5.954 11.771 15.88 20.834 25.952 29.109 3.369 2.768 6.814 5.43 10.258 8.09 6.495 7.107 13.799 13.461 22.213 18.709.023.014.045.021.066.035.104 2.406 2.086 3.945 4.586.891 11.623-14.201 16.543-33.213 20.371-50.785 1.229-5.633 2.312-11.326 3.398-17.025 34.492 41.611 77.02 79.299 96.432 130.506 1.656 4.371 5.998 4.881 9.689 2.604 4.59-2.83 8.771 14.342 9.373 9.035 2.141-18.867 13.924-50.525 16.006-69.412a309.798 309.798 0 0 1 5.957 9.633c1.371 14.098 2.447 28.197 3.102 42.303-.41 22.539-.461 45.084-.385 67.629a540.448 540.448 0 0 1-.82 11.334c-1.77 20.896-4.553 41.967-10.43 62.145-6.576 22.576-20.254 42.443-34.303 61.02-16.016 21.174-33.904 42.664-55.033 58.941-.361.279-.732.549-1.098.826-12.73 4.318-24.768 11.736-34.111 20.697a207.588 207.588 0 0 1-30.656 11.705c-20.293 5.963-41.748 8.369-62.791 5.789-3.689-.453-7.152 8.289-2.796 8.881 30.988 4.221 63.171-2.369 92.081-15.531.24 2.064 1.488 3.391 4.51 2.645 9.689-2.387 19.475-7.594 27.717-13.514.344.188.797.223 1.371.047.307 1.059 1.137 1.6 2.799.99 2.953-1.08 5.736-2.545 8.34-4.287.697.641 1.656.893 2.9.393 15.799-6.342 28.693-20.002 39.693-32.553 8.414-9.602 15.934-20.104 22.752-30.977 1.869.326 4.566-1.303 5.861-2.797 14.467-16.691 23.98-37.178 31.932-57.598a382.384 382.384 0 0 0 7.492-21.061c-.496 2.367-1.01 4.73-1.555 7.086-.482 2.078-.064 3.512.76 4.273-.076.43-.15.859-.227 1.287a566.456 566.456 0 0 1-2.535 13.139 399.894 399.894 0 0 1-9.74 19.6c-2.672 5.016-5.486 9.953-8.391 14.838-.42.707-.85 1.406-1.277 2.109-.107.162-1.291 2.07-1.529 2.447a264.537 264.537 0 0 1-5.457 8.256c-6.639 9.66-13.594 19.027-21.172 27.977-.25.295-2.051 2.355-2.508 2.889a359.637 359.637 0 0 1-3.164 3.482c-2.514 2.727-5.1 5.385-7.717 8.012-5.209 5.227-10.662 10.205-16.277 14.988-11.416 9.725-21.213 17.479-34.322 25.594-5.248 3.25-8.834 10.262-8.367 16.422.457 6.02 5.094 7.547 10 5.094a219.805 219.805 0 0 0 19.002-10.734c.045.838.369 1.537 1.01 1.963-.07.482-.105.967-.068 1.451.178 2.35 2.258 3.553 4.299 2.189 1.494-.998 2.99-2.004 4.482-3.014.02 0 .039-.004.057-.006-.029.189-.064.379-.088.566-.529 4.088.598 10.871 6.076 10.852 19.041-.064 35.668-7.086 50.537-17.365 6.723-1.756 13.359-3.809 19.863-6.211-.865 17.213-.959 34.463-.016 51.736.475 8.684 8.328 7.787 13.436 3.611 1.09-.893 2.174-1.797 3.258-2.699-1.146 3.307-1.711 6.859-.539 10.244 1.727 4.984 6.768 5.324 10.803 2.902 21.365-12.832 36.486-33.617 47.439-56.262a336.606 336.606 0 0 0 4.287-4.557c6.408 9.463 12.562 19.596 12.814 31.068.105 4.797 3.904 8.564 8.766 7.09 6.49-1.973 11.791-10.166 12.191-16.736 3.131-51.4 4.252-102.949 1.545-154.369 7.936-26.161 6.725-56.429 5.18-82.095zM285.955 684.81a159.043 159.043 0 0 0 8.547 12.391c6.195 8.146 13.329 15.342 21.229 21.826 1.213.996 2.446 1.953 3.689 2.893-6.193 1.387-12.324 3.051-18.348 5.23-1.838-2.965-3.586-5.98-5.313-9.02-.037-.064-.073-.131-.11-.197-.167-.307-.379-.697-.51-.945a210.32 210.32 0 0 1-1.846-3.6 227.727 227.727 0 0 1-3.865-8.146c-5.191-11.473-9.449-23.359-13.154-35.387a389.837 389.837 0 0 1-1.871-6.277c.895 1.91 1.812 3.812 2.759 5.701 1.66 3.119 1.944 3.633.853 1.543a584.109 584.109 0 0 0 1.871 3.488 254.604 254.604 0 0 0 2.111 3.832 181.77 181.77 0 0 0 3.958 6.668zm409.363-50.852c1.061-3.367 2.328-6.67 3.598-9.881a197.044 197.044 0 0 1 3.229-7.65c1.953-3 3.824-6.076 5.582-9.287 2.082-3.803 4.146-7.615 6.186-11.441-4.952 13.007-10.809 26.441-18.595 38.259zm52.028 56.42c-.119-.721-.236-1.443-.354-2.164a77.704 77.704 0 0 1 3.021 1.65c-.888.172-1.777.344-2.667.514zm6.908-33.121c-.129-.053-.256-.107-.383-.158.166-.25.336-.496.502-.746l-.119.904zm22.002 69.306a586.018 586.018 0 0 0-4.334 3.664 132.095 132.095 0 0 0 4.34-5.111c-.002.483-.002.965-.006 1.447zm57.23-152.943c-.16-1.857-.316-3.717-.484-5.572.283-.326.533-.676.795-1.018-.07 2.198-.174 4.395-.311 6.59z"/><path fill="#EAA286" d="M735.123 445.911c-.012-3.531-3.232 5.115-6.031 6.621-.375-.434-.836-20.809-1.408-21.098-4.381-2.213-8.625-34.609-12.738-37.178-1.963-4.436-4.164 1.197-6.533-3.102-3.289 6.053-7.115 51.809-11.871 57.074-1.742 1.928-4.072 4.545-6.725 6.336.531.305 1.055.615 1.59.914 4.506 2.512 9.154 4.754 13.898 6.768 3.203 8.107 5.615 16.533 6.854 25.475 6.066 43.777-8.301 89.768-29.221 127.816a208.033 208.033 0 0 1-5.695 9.719c-19.355 25.809-44.086 47.57-72.271 63.283-37.777 21.061-81.729 29.471-124.586 23.723-13.48-1.807-26.828-4.936-39.648-9.443-17.726-7.475-34.416-17.455-49.503-29.379-9.611-7.598-18.488-16.084-26.569-25.277-17.882-23.881-37.092-52.334-44.336-81.176-9.29-36.994-14.07-75.502-14.523-113.533-.091-7.629 9.932-135.258 10.051-142.885-8.336 4.676-21.955 72.105-26.559 129.738-1.079 20.756-.553 41.588 1.65 62.232 5.066 47.475 18.631 96.188 45.205 136.295 41.434 62.525 115.588 101.871 190.983 95.549 39.235-3.291 75.792-19.023 106.558-43.32 23.225-18.344 41.912-41.195 56.543-66.551 13.221-19.27 23.793-40.352 31.686-62.33 5.631-15.68 9.957-32.428 12.504-48.889 2.931-18.948.758-48.325.695-67.382zm-12.43 21.592c.293-.096.582-.213.869-.352.027 1.648.064 3.295.109 4.941a133.179 133.179 0 0 0-.978-4.589z"/><path fill="#EAA286" d="M666.631 438.226c-9.57-14.732-19.201-29.428-28.951-44.045-6.963-10.439-14.084-20.785-21.635-30.805 11.258 28.68 27.144 54.764 50.586 74.85z"/><path d="M386.583 744.186c-1.937 40.931 9.214 84.829 41.088 112.673 33.196 28.998 84.538 33.152 123.924 14.897 50.369-23.345 72.71-85.347 59.571-137.652-.795-3.163-4.361-3.186-6.636-1.782-3.561 2.195-6.341 7.242-5.849 11.479 2.486 21.376 3.75 41.848-3.043 62.637-5.401 16.531-15.941 31.222-30.877 41.575-34.759 24.093-86.916 23.041-121.327-.903-34.167-23.775-46.921-68.182-45.919-107.957.063-2.523-2.123-4.441-4.573-3.698-3.352 1.017-6.197 5.312-6.359 8.731z"/><path d="M428.676 729.81c-52.449.236-112.002.178-146.701 46.682-15.367 20.59-23.492 45.121-28.268 70.109-4.773 24.971-7.039 51.592-4.207 76.82.59 5.256 5.271-1.189 5.689-3.328 8.62-44.168 5.604-93.609 32.531-132.162 30.453-43.605 91.803-36.723 137.492-46.531 3.698-.792 8.916-11.616 3.464-11.59z"/><path fill="#EAA286" d="M590.932 329.45c-.562-4.885-4.502-4.812-7.457-2.654-.398-5.822-5.984-5.525-9.602-1.014 32.166-40.104-28.713 88.547-17.938 50.916-1.986 6.934-3.691 3.938-5.377 10.947-6.395-8.914-12.922-7.734-19.447-16.545-10.312-13.924-20.258-28.225-30.91-41.877-11.811-15.141-25.629-38.686-36.92-54.033.717-.715 1.435-1.432 2.148-2.148 2.457-2.459 4.232-6.008 3.963-9.562-.262-3.465-3.473-5.539-6.533-3.33a3339.328 3339.328 0 0 0-6.301 4.555 287.5 287.5 0 0 0-2.922-5.822c2.695-3.221 5.168-6.592 7.117-10.223 1.475-2.748 2.842-8.609-.793-10.463-3.229-1.645-6.471 1.648-8.233 4.342.476-.977.954-1.951 1.415-2.936 1.252-2.672 2.445-6.68.346-9.299-1.912-2.391-5.461-1.014-7.191.852-29.858 32.201-55.564 69.051-73.438 109.305-4.123 6.057-8.078 12.217-11.775 18.535-8.085-13.744-15.854-27.754-26.152-39.646-1.397-3.049-2.83-6.082-4.353-9.07-1.64-3.219-3.976-2.896-6.045-1.137-3.496-1.553-7.021 5.605-5.101 8.539.162.246.317.494.479.742.002.045 0 .092.004.137 1.553 17.311 5.893 34.293 13.541 49.934 7.031 14.387 17.611 29.254 33.338 34.752 3.725 1.303 6.68-2.289 8.162-5.486 1.873-1.764 3.394-4.33 3.836-5.836 2.193-7.459 4.949-14.617 8.164-21.52 4.878-9.139 10.484-17.889 16.717-26.223 6.105-8.164 12.869-15.775 20.102-22.953 6.152-6.105 13.11-11.299 19.539-17.053 13.729 26.621 31.193 51.252 51.387 73.402a379.87 379.87 0 0 0 9.756 12.896c9.482 14.256 20.801 27.33 34.885 36.439a190.131 190.131 0 0 0 13.088 10.027c1.721 1.199 3.68.305 5.334-1.143.783.258 1.566.518 2.363.754 3.656 1.084 6.742-1.992 8.254-5.09 7.658-15.693 12.904-32.68 16.982-49.617 4.056-16.855 7.57-34.995 5.568-52.394zm-214.159 36.699a161.563 161.563 0 0 0 2.555-3.059 196.778 196.778 0 0 0-2.553 5.365c.028-.467.061-.93.07-1.408a4.246 4.246 0 0 0-.072-.898zm130.268-8.154a163.725 163.725 0 0 1-2.141-3.49l2.314 3.199c-.058.098-.116.193-.173.291zm-14.881-18.441a574.262 574.262 0 0 1-1.551-2.898c-.621-1.17-1.225-2.348-1.834-3.523a353.937 353.937 0 0 1 3.75 4.75 13.306 13.306 0 0 0-.365 1.671z"/><path d="M570.438 745.94c24.852-1.959 51.439-.736 75.059 7.84 21.271 7.725 37.508 22.736 50.893 40.543 14.266 18.98 22.674 40.893 30.602 63.041 8.068 22.541 14.584 45.912 19.162 69.402 1.387 7.121 10.975-4.879 10.281-9.461-7.576-50.061-16.369-100.477-47.488-142.049-13.711-18.32-33.334-32.42-55.076-39.434-27.779-8.959-55.855-3.881-82.566 6.152-1.012.384-2.666 4.107-.867 3.966z"/><path fill="#FFEE73" d="M702.109 155.437c-17.836-16.938-36.115-43.547-56.389-57.48-22.193-15.25-46.533-27.199-73.787-29.059-25.615-1.746-50.514 6.674-73.684 16.699-13.094 5.664-26.344 11.547-38.787 18.529-5.926 3.324-12.152 7.381-19.1 7.945-4.039.328-8.109.299-12.154.539-7.203.428-14.312 1.686-21.519 1.969-9.714.381-18.9.721-27.683 3.236-.441-.281-1.104-.217-2.031.4-.227.15-.453.303-.68.455-3.846 1.322-7.617 3.102-11.319 5.564-1.034.688-1.837 2.373-2.136 3.945-31.406 23.549-59.818 55.588-54.727 97.336.244 1.998 5.111 2.604 3.388 1.725-3.388-1.725 35.456-42.414 55.752-48.568-5.593 27.707-1.161 55.635-1.366 83.992-.025 3.66 62.065-80.58 110.615-101.361 6.985 21.213 60.248 115.619 78.26 130.184 1.902 1.539 22.881-67.871 24.102-96.535 88.949 13.262 192.869 255.666 203.871 285.021 1.441 3.84 38.542-211.37-80.626-324.536z"/><path d="M365.055 359.565c-5.459-11.479-10.24-23.325-14.556-35.274-3.442-9.528-6.482-19.228-8.668-29.125a86.224 86.224 0 0 1-1.848-13.177c-.208-3.327.158-6.882.693-8.573.848-2.677 1.029-7.992-2.978-8.18-3.939-.185-6.961 4.433-7.968 7.675-5.815 18.729 2.402 41.015 8.645 58.611 4.606 12.984 9.908 25.819 15.922 38.219 3.71 7.65 13.388-4.644 10.758-10.176zm303.071 403.022c17.68-8.378 34.54-18.321 52.078-26.969l-6.474-3.299c3.914 21.224 3.605 42.998 7.661 64.21.465 2.432 2.086 5.596 5.23 4.229 30.412-13.212 54.125-36.84 79.257-57.768l-7.562.896c17.022 21.798 24.419 49.579 35.105 74.681 3.838 9.014 15.301-5.263 12.506-11.83-11.101-26.072-19.072-54.766-36.895-77.319-2.144-2.712-5.546-.796-7.562.896-22.984 19.301-44.868 41.964-72.743 54.232l5.23 4.229c-4.243-21.635-4.275-43.81-8.667-65.438-.634-3.123-4.085-2.71-6.146-1.651-17.65 9.07-34.42 19.698-51.922 29.031-4.875 2.605-6.962 15.596.904 11.87z"/><path d="M845.246 810.969c1.767-49.344 1.46-98.795 2.551-148.164 1.026-46.455 1.916-92.911 2.258-139.377.199-27.188 1.265-54.608-.952-81.735-1.915-23.419-6.326-46.646-12.298-69.354-12.448-47.334-32.73-92.582-58.146-134.336-24.5-40.251-54.609-77.579-90.477-108.262-31.381-26.846-67.66-48.697-108.366-57.507-23.908-5.175-48.396-4.232-71.884 2.566-27 7.814-51.765 22.692-74.82 38.412-3.572 2.435-6.122 6.958-5.789 11.36.292 3.856 3.606 5.621 6.917 3.524 23.945-15.158 48.42-30.048 76.03-37.43 23.281-6.225 47.471-5.129 70.698.69 40.094 10.044 76.221 34.511 106.364 62.068 35.145 32.13 64.238 70.787 87.921 111.979 24.201 42.094 42.518 87.95 53.167 135.345 11.338 50.46 8.827 102.088 8.305 153.441-.456 44.863-1.53 89.715-2.296 134.573-.724 42.4-1.955 84.976-.38 127.36.095 2.555 2.058 4.584 4.683 3.787 3.407-1.033 6.388-5.448 6.514-8.94z"/><path d="M439.386 117.372c-22.353-7.57-45.465-10.568-68.787-6.143-21.285 4.039-40.648 14.683-57.128 28.505-39.532 33.158-62.764 83.566-79.567 131.2-20.797 58.956-32.616 121.094-40.759 182.945-8.083 61.402-12.08 123.345-12.85 185.26-.555 44.604-.036 89.728 5.511 134.052 1.04 8.305 2.308 16.62 4.265 24.763.977 4.064 5.559 2.28 7.618.493 20.389-17.688 40.681-35.49 61.016-53.241l-6.483.769c8.43 12.141 17.105 24.118 25.459 36.312 3.661 5.343 11.889-6.767 8.585-11.59-8.417-12.283-16.517-24.789-24.857-37.126-1.654-2.446-4.903-.585-6.483.769-20.425 17.503-40.894 34.955-61.266 52.521l7.618.493a132.494 132.494 0 0 1-.804-3.638c-.322-1.557.269 1.422-.13-.67-.156-.817-.304-1.636-.449-2.455a254.928 254.928 0 0 1-1.526-9.88c-1.12-8.181-1.938-16.402-2.629-24.63-1.838-21.894-2.674-43.872-3.062-65.835-1.029-58.274 1.343-115.507 6.669-173.696 5.767-62.998 15.144-126.305 31.234-186.602 3.838-14.382 8.118-28.647 12.903-42.743a542.468 542.468 0 0 1 7.301-20.171c2.84-7.395 4.141-10.539 7.31-17.763 5.27-12.015 11.128-23.778 17.681-35.146.752-1.306 1.52-2.603 2.292-3.897.383-.643.772-1.282 1.161-1.921 1.306-2.149-1.023 1.638.301-.489a265.232 265.232 0 0 1 5.192-7.998 229.824 229.824 0 0 1 10.493-14.333c4.396-5.545 5.776-7.091 10.169-11.687a161.226 161.226 0 0 1 11.907-11.238 147.66 147.66 0 0 1 2.965-2.452c.496-.401.997-.795 1.498-1.189-1.487 1.17.194-.14.42-.312a137.872 137.872 0 0 1 6.672-4.743 122.256 122.256 0 0 1 13.395-7.751c3.15-1.572 8.338-3.722 13.127-5.317 4.89-1.629 9.903-2.872 14.971-3.8 9.582-1.754 20.929-1.901 31.513-1 10.216.87 20.307 2.968 30.111 5.938 6.597 1.996 13.656-12.453 7.423-14.564zm9.159 112.445c4.567 33.613 19.541 65.091 36.967 93.836 16.29 26.869 36.031 53.154 59.79 73.905 5.287 4.618 13.023-7.895 8.748-11.81-22.283-20.406-40.986-44.703-57.19-70.118-17.71-27.778-33.4-59.19-38.053-92.141-1.222-8.647-11.024.721-10.262 6.328z"/><path d="M560.695 388.885c8.313-24.467 12.031-50.583 23.566-73.895 1.305-2.636 2.741-8.091-.748-9.869-3.437-1.751-7.136 2.552-8.424 5.195-12.086 24.8-16.154 52.027-24.434 78.105-.78 2.456-.943 7.331 2.73 7.503 3.674.174 6.304-4.078 7.31-7.039z"/><path d="M571.22 317.669c46.629 43.545 79.146 99.549 111.264 153.994 2.179 3.694 7.32-.542 8.783-2.518 2.429-3.281 3.737-7.798 1.602-11.501-16.013-27.764-32.185-55.402-50.347-81.835-17.913-26.071-37.535-52.252-63.37-70.977-4.711-3.414-11.821 9.205-7.932 12.837z"/><path d="M692.211 466.964c5.812-13.566 10.325-27.531 14.103-41.789 3.545-13.379 7.681-26.791 10.744-40.274.553-2.43 1.232-6.26-1.587-7.696-3.315-1.689-7.178 2.467-8.33 5.137-5.308 12.294-7.82 25.859-11.113 38.794-3.55 13.938-7.347 27.904-12.887 41.206-1.118 2.686-2.827 7.941.74 9.759 3.31 1.688 7.184-2.464 8.33-5.137zM457.17 209.985c-26.19 16.835-44.997 43.125-60.82 69.396-16.951 28.143-30.233 58.395-41.966 89.028-.982 2.563-.881 7.733 2.879 7.91 3.97.186 6.502-4.326 7.704-7.421 10.789-27.796 23.143-55.112 38.05-80.959 13.994-24.263 31.294-49.15 55.164-64.617 3.229-2.092 5.48-6.301 5.187-10.179-.261-3.436-3.238-5.061-6.198-3.158zM324.625 292.42c-18.626 46.522-37.165 93.104-58.307 138.556-21.953 47.195-46.925 92.918-75.449 136.471-1.837 2.806-3.994 7.593-1.492 10.716 2.384 2.977 6.663-.025 8.184-2.347 29.348-44.811 55.173-91.694 77.678-140.294 21.652-46.758 40.487-94.76 59.488-142.636.968-2.44.818-7.381-2.748-7.548-3.812-.179-6.173 4.135-7.354 7.082z"/><path d="M702.359 385.682c11.548 23.32 21.438 47.56 31.766 71.433 14.433 33.365 28.702 66.806 42.571 100.409 5.257 12.736 10.884 25.463 15.258 38.542 1.295 3.872 5.51 2.646 7.778.503 2.819-2.663 4.975-7.445 3.665-11.329-8.166-24.22-19.182-47.702-29.211-71.181-14.286-33.442-28.79-66.795-43.586-100.016-5.726-12.854-11.299-25.836-17.608-38.419-3.771-7.52-13.32 4.63-10.633 10.058z"/><path d="M734.617 436.731c1.518 56.309-6.207 116.07-25.756 161.98-27.74 65.152-81.303 112.83-147.234 127.855-74.088 16.885-155.498-4.727-208.256-63.93-53.335-59.85-66.604-194.199-59.797-273.75-3.414-2.066-7.9 32.082-11.525 30.627-1.212 9.627-1.184 33.277-1.888 42.924-5.771 79.193 10.728 161.736 62.613 221.316 51.743 59.424 131.511 82.004 205.403 69.07 68.648-12.018 125.691-58.746 159.934-122.469 28.031-52.17 41.439-122.043 39.744-188.195-4.402-1.842-8.796-3.703-13.238-5.428z"/><path fill="#FFF" d="M440.361 593.312c-1.143-1.641 44.162-9.381 65.334-12 32.334-4 72.666 3.666 72.666 3.666s-18.332 34.334-50.332 37.668c-32 3.332-72.334-7.334-87.668-29.334z"/><path d="M406.787 602.337c.781-4.982 2.494-9.07 6.061-12.723 1.389-1.422 2.574-3.76 1.871-5.789-.658-1.904-2.844-1.445-3.973-.256-5.195 5.461-9.904 13.207-8.965 21.072.504 4.223 4.674-.179 5.006-2.304zm192.092-27c4.205 3.059 6.943 7.539 9.783 11.797 2.188 3.275 7.23-4.111 5.248-7.084-3.109-4.66-6.49-9.076-11.215-12.203-2.859-1.893-6.67 5.414-3.816 7.49z"/><path fill="#FF617F" d="M442.24 609.541c12.04 11.943 21.884 26.719 36.624 35.614 13.848 8.357 30.777 9.745 46.45 7.569 28.196-3.914 61.8-22.907 55.104-56.067-.533-2.639-3.677-1.474-4.935-.319-15.196 13.954-33.622 24.522-53.865 28.938-21.204 4.625-43.025.237-62.184-9.37-4.312-2.163-8.335 6.64-6.026 9.753 13.887 18.718 40.627 22.967 62.375 21.281 23.887-1.852 48.683-11.799 61.162-33.24 2.348-4.034-.014-9.157-4.551-5.616-19.102 14.906-42.62 27.728-67.217 29.424-11.041.761-21.97-1.389-31.429-7.243-11.133-6.891-17.778-18.783-22.188-30.736-2.047-5.548-8.849 3.154-7.532 7.125 4.312 13.003 11.467 24.806 22.674 32.931 9.748 7.067 22.122 9.454 33.954 8.958 27.381-1.146 53.433-15.986 74.523-32.444l-4.551-5.616c-10.126 17.4-35.081 23.801-53.586 25.257-19.756 1.555-44.384-2.066-56.865-19.22l-6.026 9.753c20.179 10.371 42.175 14.364 64.559 10.129 22.763-4.308 42.359-17.422 59.381-32.557l-5.146-1.384c5.039 27.565-29.012 38.375-50.552 40.339-14.468 1.319-29.115-1.501-41.539-9.211-12.823-7.958-22.331-20.968-33.506-30.947-3.049-2.725-7.527 4.5-5.108 6.899z"/><path fill="#FF617F" d="M445.035 597.251c32.839-20.439 72.352-18.882 109.13-12.999 4.239.678 8.296-9.275 3.248-10.322-18.826-3.905-37.452-2.234-56.068 1.934-18.317 4.102-36.11 9.56-54.872 11.394l-1.321 10.055c18.606-12.074 40.408-19.793 62.511-21.861a112.955 112.955 0 0 1 33.038 1.785c11.142 2.271 20.754 7.297 30.635 12.665 4.092 2.224 8.293-6.898 4.902-9.619-17.57-14.101-43.64-17.053-65.32-15.172-23.664 2.053-46.33 10.348-66.481 22.761-2.027 1.248-6.494 10.408-1.321 10.055 18.382-1.258 36.067-6.769 53.874-11.093 18.959-4.604 37.906-6.501 57.175-2.58l3.248-10.322c-38.462-6.004-79.858-6.644-112.858 17.001-2.238 1.601-3.497 8.794.48 6.318z"/><path d="M433.293 598.792c8.094 18.01 18.684 42.201 36.445 53.117 16.486 10.133 39.896 8.186 59.773 5.932 39.016-4.428 45.035-43.004 54.998-69.242 1.51-3.975-1.543-3.172-2.779-.186-10.115 24.473-16.369 60.414-53.689 63.207-19.232 1.439-39.834 3.1-55.736-6.396-16.736-9.994-26.002-32.516-35.828-46.973-1.516-2.23-3.184.541-3.184.541z"/><path d="M438.634 600.701c8.808-3.852 16.054-9.526 23.435-15.568 8.709-7.13 18.004-11.731 29.115-13.846 15.783-3.002 33.862-2.732 49.263 1.92 15.152 4.578 28.033 16.188 44.462 16.24 3.012.01 5.854-7.088 2.289-7.271-16.888-.873-30.53-12.929-46.547-17.134-15.076-3.957-31.815-3.355-47.103-.904-10.924 1.752-20.812 6.229-29.516 12.991-7.972 6.194-15.214 12.969-24.56 17.125-2.391 1.063-4.068 7.859-.838 6.447z"/><path d="M408.273 594.72c16.085 7.945 34.309 5.223 51.062 1.138 20.578-5.019 40.802-10.269 62.149-10.104 28.176.219 66.388 18.049 87.121-9.77 1.877-2.518.161-6.177-2.449-3.064-10.34 12.323-25.916 13.23-40.844 11.694-15.309-1.576-30.064-5.214-45.547-5.127-18.503.104-36.473 4.55-54.312 9.002-17.959 4.481-36.746 8.509-54.586 1.141-2.208-.912-4.728 4.035-2.594 5.09z"/><path d="M583.764 584.751c-10.384 8.907-19.915 18.701-30.192 27.702-11.587 10.149-27.064 11.985-41.844 12.274-7.253.142-14.516.321-21.642-1.211-7.565-1.627-14.574-5.691-20.997-9.845-11.816-7.641-21.169-16.698-35.619-18.864-2.832-.424-5.523 6.158-2.165 6.879 15.22 3.266 25.293 14.804 38.153 22.636 6.475 3.943 13.493 6.783 20.957 8.145 7.513 1.371 15.692.675 23.286.369 14.125-.568 28.1-3.578 39.438-12.47 11.525-9.037 21.631-20.313 32.536-30.119 2.56-2.303 2.091-8.93-1.911-5.496z"/><path d="M477.432 604.476v-4c-13.367-1.75-26.967-4.346-40.492-4.021-2.979.072-5.869 7.129-2.289 7.271m146.175-7.592c2.885-.539 5.02-7.646.922-7.086-9.74 1.332-24.605 7.467-33.998 10.5"/><path d="M408.043 410.87c-19.477 1.846-30.546 19.387-45.31 30.055-3.452.727-7.06.707-10.858-.4-3.137-.914-6.734 5.805-3.631 7.125 2.975 1.266 5.871 1.875 8.693 1.984.182 1.559 1.191 2.463 3.475 1.365a38.812 38.812 0 0 0 3.951-2.201c3.583-.926 7.041-2.533 10.379-4.514.629 1.148 1.789 1.908 3.26 1.334 7.404-2.895 14.574-6.467 22.134-8.92 12.524.561 25.446 8.764 34.712 16.842 3.248 2.83 6.025-3.246 6.079-5.766.203-9.598-.204-19.342-6.144-27.357-5.98-8.068-17.29-10.441-26.74-9.547zm248.591 28.205c-6.521-19.373-23.305-33.357-44.407-28.695-20.747 4.584-32.285 25.547-32.493 45.48-.046 4.436 5.378.068 5.576-2.566.024-.332.059-.664.091-.994.559-.021 1.166-.174 1.809-.48 6.338-3.033 12.295-6.818 18.386-10.334.849-.096 1.697-.195 2.546-.279 4.957-.496 11.223-1.402 17.266-1.312 5.009.857 9.952 2.199 14.703 3.748 2.158.703 4.318-.82 5.65-2.963 1.271 1.764 2.366 3.662 3.311 5.551 2.756 5.522 8.86-3.302 7.562-7.156z" fill="#EAA286"/><path d="M426.414 453.513a35.429 35.429 0 0 0-1.132-1.391c-4.497-6.795-11.911-11.488-20.46-12.291-5.169-1.113-10.532-1.002-15.578.721-4.112 1.406-8.178 4.01-10.746 7.557-11.488 8.348-13.627 24.482-4.635 36.541 11.256 15.092 32.226 15.945 46.881 5.633 12.654-8.901 14.988-24.626 5.67-36.77zm-51.133 7.572a27.385 27.385 0 0 0-.549 3.201c.023-1.146.223-2.207.549-3.201z"/><circle fill="#FFF" cx="406.871" cy="460.599" r="10.99"/><path d="M442.519 452.799c-9.767-8.259-20.573-15.806-33.37-18.209-8.408-1.579-16.842.281-24.481 3.841-6.186 2.883-11.876 7.051-18.423 9.104-2.786.875-5.618.933-8.469.334-4.138-.869-6.78-4.244-10.388-6.011-3.613-1.77-6.386 5.263-4.816 7.794 3.813 6.145 12.508 8.693 19.267 7.571 6.737-1.118 12.752-5.632 18.518-9.001 7.128-4.166 14.637-7.145 23.027-6.738 13.359.647 25.481 9.094 35.484 17.222 2.012 1.635 5.566-4.287 3.651-5.907zm-104.413-38.123c4.27-6.276 11.989-10.841 19.509-14.685 10.235-5.231 21.982-8.485 33.35-9.975 12.137-1.59 24.823-1.166 36.629 2.228a81.027 81.027 0 0 1 17.892 7.583c5.809 3.334 10.709 7.925 16.221 11.677 2.669 1.817 6.369-1.631 7.762-3.512 2.425-3.277 3.862-7.98 1.627-11.683-7.427-12.302-22.552-19.076-35.967-22.445-13.925-3.499-28.655-2.953-42.708-.586-22.886 3.854-48.911 14.91-61.062 35.83-1.181 2.034-1.899 5.565-.282 7.584 2.066 2.579 5.693-.052 7.029-2.016z"/><path d="M355.801 438.706c8.607 13.278 30.661 8.5 43.529 6.183 2.532-.456 5.145-7.603 1.663-7.438-11.947.564-31.962 6.525-40.409-5.202-2.173-3.017-6.497 3.814-4.783 6.457zm246.937 53.012c14.656 10.312 35.625 9.459 46.881-5.635 8.992-12.057 6.854-28.191-4.633-36.541-2.57-3.545-6.635-6.148-10.748-7.555-5.045-1.725-10.408-1.836-15.576-.721-8.549.801-15.965 5.494-20.461 12.291-.389.457-.77.918-1.131 1.389-9.319 12.147-6.984 27.871 5.668 36.772zm46.013-25.996a27.28 27.28 0 0 0-.548-3.203c.326.996.526 2.054.548 3.203z"/><circle fill="#FFF" cx="616.611" cy="462.034" r="10.99"/><path d="M583.859 459.429c9.898-8.091 21.589-15.906 34.769-16.549 8.267-.403 15.79 2.991 22.76 7.07 5.859 3.43 11.442 7.474 18.225 8.827 7.502 1.498 16.062-3.09 20.464-9 1.539-2.068 2.142-8.712-2.162-6.178-6.168 3.632-10.222 7.648-17.901 5.459-6.712-1.914-12.607-6.224-18.87-9.184-21.625-10.222-42.032.465-58.971 14.703-2.355 1.979-1.903 7.785 1.686 4.852zm102.809-52.523c-11.159-19.966-37.586-29.027-58.708-32.614-27.864-4.732-62.484 1.323-79.686 26.01-1.976 2.836-3.592 6.791-2.387 10.271 1.479 4.267 5.656 2.537 8.203.531 9.94-7.831 19.131-14.079 31.469-17.578 12.405-3.519 25.449-3.534 38.14-1.752 11.461 1.61 22.677 5.118 33.059 10.217 8.041 3.95 16.325 8.682 21.598 16.136 1.962 2.773 5.725-.252 7.03-2.016 1.965-2.655 2.955-6.21 1.282-9.205z"/><path d="M663.637 434.844c-3.817 5.394-11.64 5.713-17.646 5.707-7.075-.008-14.072-1.345-21.129-1.665-3.091-.14-6.112 6.833-2.371 7.534 13.844 2.594 35.241 6.525 44.455-7.438 2.274-3.448-.104-8.664-3.309-4.138z"/></svg>