<svg xmlns="http://www.w3.org/2000/svg" xmlns:xlink="http://www.w3.org/1999/xlink" width="1030" height="1030" viewBox="0 0 1030 1030"><defs><path id="a" d="M1020.379 515.001c0 279.115-226.266 505.377-505.379 505.377-279.111 0-505.377-226.264-505.377-505.377S235.888 9.622 515 9.622c279.113 0 505.379 226.266 505.379 505.379z"/></defs><use xlink:href="#a" overflow="visible" fill="#0C7FF2"/><clipPath id="b"><use xlink:href="#a" overflow="visible"/></clipPath><g clip-path="url(#b)"><path fill="#22A1FF" d="M1021.414 517.214c0 279.115-226.266 505.377-505.379 505.377-279.112 0-505.377-226.264-505.377-505.377S236.923 11.835 516.035 11.835c279.113 0 505.379 226.266 505.379 505.379z"/><path fill="#0C7FF2" d="M64.591 301.339c65.699-60.766 147.473-101.363 226.168-142.393 40.814-21.281 80.746-43.73 120.539-66.854 43.205-25.111 87.469-49.598 136.053-62.561-.955-12.574-1.91-25.146-2.863-37.723C469.49 62.96 382.009 118.8 296.63 176.392c-43.967 29.658-87.432 59.996-129.213 92.682-20.033 15.672-39.123 32.311-60.043 46.828-21.764 15.1-44.412 28.885-66.553 43.41-20.463 13.42-40.42 27.699-58.93 43.736-7.094 6.145-11.697 17.17-10.986 26.521.547 7.209 5.93 13.973 13.848 11.199 98.168-34.393 184.332-95.652 268.734-154.941 42.164-29.617 84.252-59.42 128.115-86.494 19.998-12.342 40.242-24.098 59.857-37.074 21.045-13.918 41.816-28.238 62.965-42 37.358-24.314 76.481-48.123 120.034-59.316l-6.715-33.35c-3.625 4.496-11.992 11.266-18.965 15.918-10 6.67-20.648 12.365-31.156 18.178-23.027 12.742-45.092 27.219-67.553 40.936-51.305 31.332-102.533 62.797-153.852 94.113-51.111 31.188-102.326 62.211-153.791 92.816-45.84 27.262-92.238 53.613-137.738 81.449-57.197 34.99-113.604 73.15-161.328 120.578-6.828 6.783-11.732 16.688-10.986 26.52.559 7.365 5.898 13.781 13.85 11.199 51.945-16.859 99.75-43.609 147.504-69.639 50.273-27.404 102.162-51.779 153.584-76.934 106.725-52.203 213.545-104.201 320.028-156.898 43.588-21.572 87.408-42.348 128.738-68.076 36.969-23.018 73.674-48.996 115.463-62.539-.955-12.574-1.908-25.146-2.865-37.721-32.514 34.457-76.607 55.146-117.219 78.289-50.043 28.516-97.459 62.32-145.696 93.777-48.672 31.742-97.557 62.701-143.461 98.404-36.26 28.201-71.637 58.477-113.41 78.264C166.968 440.29 75.417 461.753 37.56 541.29c-3.076 6.463-5.365 14.316-2.91 21.402 1.744 5.039 7.496 9.094 12.934 6.588 100.086-46.102 193.518-104.332 287.449-161.586 46.518-28.355 93.289-56.326 141.229-82.229 49.124-26.541 100.223-49.029 149.866-74.543 51.182-26.305 101.262-54.686 151.102-83.426-.984-12.998-1.971-25.994-2.959-38.99-89.506 66.279-184.818 124.035-280.237 181.279-95.316 57.186-189.701 115.123-280.916 178.699C148.345 533.63 70.7 560.08 20.878 624.457c-8.809 11.383-11.102 42.221 10.986 31.381 208.225-102.16 408.939-218.58 611.709-330.955 81.107-44.949 162.6-89.213 245.033-131.684l-2.959-38.988C684.77 269.935 489.943 395.938 300.087 528.915 223.16 582.794 147.083 637.888 71.74 693.958c-9.188 6.836-16.062 17.881-15.16 29.76.734 9.699 9.59 15.234 18.119 9.229 43.633-30.723 91.014-55.527 138.016-80.598 48.867-26.064 96.422-53.967 143.455-83.207 97.824-60.818 193.596-125.836 295.819-179.223 79.945-41.756 155.398-91.654 236.617-131.035l-7.131-35.752C726.443 362.759 545.963 469.948 368.333 577.765c-93.445 56.721-186.838 113.709-276.602 176.166-9.32 6.484-16.045 18.146-15.162 29.758.801 10.539 9.316 14.158 18.121 9.23 202.516-113.371 408.092-221.234 609.108-337.291 82.609-47.695 164.387-96.848 244.781-148.197-3.662-10.461-7.324-20.92-10.984-31.381-4.996 7.512-10.377 14.717-16.098 21.689-5.041 6.145-10.836 12.266-18.375 19.707-14.123 13.939-29.66 26.809-45.09 38.273-35.396 26.297-73.572 48.73-112.08 70.107-37.449 20.789-75.582 40.312-113.117 60.945-42.605 23.422-83.598 49.658-124.551 75.828-65.34 41.752-130.41 84.795-198.977 121.15-60.084 31.857-124.109 59.162-173.205 107.688-6.838 6.762-11.73 16.707-10.986 26.521.623 8.164 5.797 12.766 13.852 11.199 27.105-5.268 51.928-18.041 75.645-31.76 24.854-14.379 49.684-28.809 74.537-43.191a10614.59 10614.59 0 0 0 152.23-89.771c49.531-29.773 100.038-57.951 150.668-85.822 50.375-27.73 102.131-51.93 153.662-77.322 67.275-33.148 131.119-72.73 197.158-108.186l-10.984-31.383c-5.504 7.193-9.135 10.836-17.041 18.057-7.75 7.076-15.977 13.312-24.516 19.367-18.807 13.338-38.713 25.094-58.617 36.699-43.184 25.18-85.117 51.793-126.223 80.277-91.951 63.715-180.732 131.844-272.467 195.85-62.605 43.68-127.018 85.396-195.645 119.062l2.959 38.99c48.338-27.512 98.725-51.109 148.234-76.383 25.086-12.807 49.887-26.168 74.098-40.572 24.189-14.391 46.895-30.896 69.809-47.201 23.254-16.545 46.578-32.992 70.564-48.465 23.51-15.168 48.086-28.535 72.547-42.078 48.809-27.02 97.928-53.48 146.338-81.211 61.396-35.17 121.518-72.686 178.059-115.307l-10.984-31.381c-59.982 69.826-146.119 119.631-225.498 166.939-91.051 54.268-181.006 110.705-269.409 169.203-41.195 27.26-81.383 55.869-121.203 85.092-39.395 28.914-78.959 57.732-121.234 82.348-9.594 5.584-15.99 18.82-15.16 29.758.842 11.066 9.201 13.475 18.119 9.23 100.961-48.053 196.105-107.057 291.247-165.518 47.797-29.369 95.674-58.625 144.385-86.459 47.674-27.238 96.568-52.016 145.609-76.67 75.025-37.713 150.203-76.055 218.389-125.428-2.375-11.916-4.754-23.834-7.131-35.75-33.609 33.213-76.088 55.598-117.895 76.719a4044.129 4044.129 0 0 0-133.637 70.689c-99.297 54.922-199.127 109.008-295.387 169.18-39.695 24.812-79.178 50.248-116.168 78.982-32.521 25.262-64.553 53.299-102.398 70.43-8.953 4.055-15.02 11.32-17.994 20.766-1.854 5.883-3.031 24.236 8.273 22.725 45.449-6.074 87.678-22.926 128.725-42.799 43.947-21.275 85.809-46.65 127.571-71.857 92.4-55.779 188.994-103.605 284.82-153.17 30.955-16.012 61.799-31.988 92.061-49.281 29.732-16.99 59.461-33.979 89.189-50.969 9.617-5.496 15.986-18.891 15.16-29.758-.803-10.576-9.309-14.111-18.121-9.23-104.188 57.711-206.854 118.117-308.766 179.746-51.145 30.93-102.088 62.188-152.947 93.584-44.668 27.572-85.542 60.625-129.553 89.188-21.203 13.756-43.262 26.518-67.016 35.328-.436 13.652-.871 27.305-1.309 40.957 171.867-107.34 370.172-160.402 549.303-253.342 47.312-24.547 93.094-52.107 136.094-83.643 9.217-6.758 16.059-17.938 15.16-29.76-.76-9.986-9.484-14.867-18.119-9.229C824.266 729.44 638.676 860.724 439.865 970.419a2775.644 2775.644 0 0 1-59.695 31.969l7.133 35.752c73.348-58.309 162.889-92.967 248.28-129.312 44.957-19.137 89.818-38.742 132.914-61.836 22.314-11.959 44.49-24.162 66.002-37.533 23.461-14.584 46.564-29.75 71.244-42.24l-14.291-26.021c-3.254 5.631 2.838-4.268-.768 1.271-1.092 1.672-2.266 3.291-3.438 4.908-1.197 1.656-2.473 3.256-3.742 4.855-.225.285-4.666 5.496-1.594 2.025-6.42 7.246-13.553 13.844-20.877 20.158-14.344 12.365-31.18 23.664-48.141 34.455-35.631 22.666-73.098 42.25-109.025 64.42-39.857 24.594-76.527 54.361-114.17 82.133-42.475 31.334-86.008 61.828-133.524 85.104-8.504 4.166-17.229 7.842-26.043 11.295.955 12.572 1.908 25.146 2.865 37.721 61.736-53.27 143.856-80.49 220.313-108.334 80.787-29.42 162.883-61.467 226.771-120.973 7.469-6.955 14.518-14.354 21.268-22.004 7.162-8.117 13.979-19.857 10.07-31.133-3.469-10.01-15.477-8.066-21.375-1.381-114.23 129.438-307.65 132.047-443.067 231.178a405.641 405.641 0 0 0-25.289 20.133c-7.098 6.125-11.693 17.186-10.986 26.523.529 6.965 5.992 14.279 13.852 11.197 97.135-38.068 176.129-109.006 260.493-168.248 66.982-47.033 147.926-76.375 205.264-136.568 10.398-10.916 19.23-22.635 26.766-35.684 7.102-12.287 4.061-35.305-14.291-26.02-23.682 11.982-45.959 26.396-68.42 40.475-22.416 14.049-45.568 26.727-68.83 39.299-42.02 22.705-85.975 41.566-129.891 60.242-90.248 38.379-182.229 75.838-259.649 137.379-7.225 5.744-11.672 17.469-10.984 26.521.818 10.785 9.258 13.842 18.119 9.23C584.75 936.47 771.74 806.556 960.965 681.343a11193.585 11193.585 0 0 1 56.154-36.924l-2.959-38.988c-164.07 120.318-362.51 176.99-545.045 261.854-48.148 22.383-95.299 46.992-140.352 75.131-8.23 5.139-13.766 14.979-14.994 24.48-1.041 8.053 3.029 20.43 13.686 16.479 48.654-18.047 91.17-48.994 132.91-79.129 45.078-32.541 91.93-61.576 139.313-90.625 101.836-62.436 204.242-123.967 307.943-183.266a7368.069 7368.069 0 0 1 86.652-48.766l-2.961-38.988c-51.545 29.457-102.699 59.619-155.438 86.898-53.777 27.818-107.557 55.633-161.336 83.449-43.93 22.723-87.301 45.756-129.695 71.246-41.772 25.117-83.297 50.699-126.524 73.277-41.221 21.529-86.023 41.922-132.549 48.141-3.242 14.498-6.48 28.994-9.721 43.49 47.463-21.482 85.908-55.805 127.178-86.811 44.623-33.523 92.953-62.742 140.678-91.576 96.973-58.586 197.006-111.867 295.912-167.064 73.6-41.076 157.643-70.725 218.6-130.963 6.842-6.76 11.732-16.709 10.988-26.521-.729-9.592-9.637-15.373-18.121-9.23-88.588 64.145-188.59 109.527-285.451 159.373-99.426 51.166-193.672 111.625-289.092 169.732-73.314 44.643-147.525 88.053-225.086 124.969l2.959 38.988c49.188-28.641 94.676-62.945 140.545-96.504 46.477-34 94.137-66.234 142.512-97.467 87.035-56.191 175.35-110.045 263.912-163.752 74.689-45.295 149.064-94.295 206.426-161.074 5.668-6.598 9.145-18.316 6.217-26.762-2.553-7.369-11.105-9.217-17.203-4.619-89.627 67.562-188.064 121.631-286.238 175.51-49.328 27.074-98.404 53.916-144.787 85.881-23.354 16.092-46.291 32.777-69.502 49.068-23.09 16.205-47.426 30.418-72.158 43.965-61.564 33.727-125.93 62.055-186.961 96.791-9.621 5.477-15.982 18.906-15.16 29.76.834 10.973 9.219 13.596 18.119 9.23 98.893-48.512 189.043-113.174 277.803-177.871 89.326-65.109 177.654-132.875 271.783-191.008 55.475-34.266 120.367-62.553 160.973-115.648 5.391-7.047 9.266-17.969 6.219-26.762-2.84-8.197-10.652-8.139-17.203-4.621-49.32 26.479-97.432 55.121-146.602 81.871-49.906 27.152-102.033 49.65-152.422 75.84C537.59 565.519 438.343 626.224 337.974 685.06a11372.038 11372.038 0 0 1-97.148 56.283c-30.902 17.713-60.723 37.979-96.279 44.889.955 12.572 1.908 25.146 2.865 37.721 33.756-33.367 76.162-55.738 118.041-77.18 45.688-23.391 90.238-48.039 134.127-74.68 87.6-53.176 171.682-111.859 262.073-160.354 54.957-29.484 110.543-57.98 162.961-91.898 49.711-32.166 98.854-70.18 131.992-120.016 5.023-7.557 9.406-17.564 6.219-26.762-2.701-7.791-10.855-8.674-17.203-4.621-195.874 125.102-399.876 236.655-603.808 347.893-83.529 45.561-167.061 91.117-250.082 137.596.984 12.996 1.971 25.992 2.959 38.988C265.64 673.978 449.087 574.513 622.932 460.024c94.264-62.08 185.904-128.777 269.848-204.379 7.025-6.326 11.707-17.035 10.988-26.521-.836-11.01-9.213-13.549-18.121-9.23-51.248 24.85-100.295 53.832-149.523 82.396-49.637 28.799-100.666 55.018-150.332 83.748-99.657 57.645-195.211 122.086-293.78 181.537-72.496 43.723-150.875 77.516-220.271 126.383l2.959 38.988c185.014-137.684 374.572-269.338 569.659-392.373 80.436-50.727 161.85-99.902 244.248-147.373 9.607-5.535 15.988-18.861 15.162-29.76-.822-10.814-9.252-13.799-18.121-9.229C679.471 260.433 479.433 377.96 275.685 488.665c-81.457 44.258-163.553 87.352-246.781 128.186 3.66 10.463 7.322 20.922 10.984 31.383 25.775-33.309 66.303-56.533 103.787-77.648 19.877-11.199 39.891-22.156 59.18-34.355 21.949-13.881 42.736-29.654 64.246-44.203 92.357-62.465 188.979-118.262 284.292-176.014 77.074-46.703 153.373-94.857 225.836-148.516 9.199-6.811 16.062-17.9 15.162-29.76-.793-10.436-9.346-14.291-18.121-9.23-48.863 28.18-97.979 55.93-148.078 81.867-49.613 25.688-100.764 48.18-150.026 74.562-96.332 51.592-187.564 112.021-281.984 166.92-45.945 26.715-92.725 52.25-141.018 74.496l10.023 27.99c.941-1.98 1.92-3.936 2.938-5.881.277-.529 3.928-6.719 1.068-2.127 2.277-3.656 4.846-7.123 7.492-10.518.168-.217 4.738-5.592 1.715-2.197 1.438-1.613 2.949-3.158 4.457-4.703 3.551-3.637 7.363-7.01 11.246-10.285 4.773-4.025 12.174-9.08 19.404-13.619 8.459-5.309 17.279-10.027 26.193-14.512 34.469-17.342 71.242-29.699 106.113-46.215 43.148-20.439 79.836-52.666 117.23-81.818 44.834-34.949 93.141-64.873 140.711-95.896 48.038-31.33 95.284-64.803 145.125-93.205 42.926-24.461 88.732-46.936 123.102-83.359 6.684-7.084 11.75-16.467 10.986-26.521-.559-7.365-5.896-13.775-13.85-11.199-49.908 16.174-93.238 47.807-137.6 74.861-48.914 29.832-102.049 53.268-153.393 78.592-106.676 52.613-213.65 104.617-320.469 156.939-43.396 21.258-86.617 42.541-129.029 65.715-40.359 22.047-80.934 43.73-124.822 57.979.953 12.574 1.908 25.146 2.863 37.723 72.18-71.732 163.498-120.635 250.486-171.762 103.367-60.754 205.49-123.592 307.752-186.184 31.838-19.49 63.288-39.891 95.543-58.646 28.137-16.359 57.43-30.23 78.303-56.137 6.779-8.412 13.279-38.49-6.717-33.35-47.429 12.188-90.466 38.452-131.14 64.922-21.107 13.74-41.834 28.055-62.84 41.949-19.621 12.977-39.934 24.668-59.938 37.012-88.902 54.875-170.566 120.623-260.033 174.662-39.996 24.157-81.582 45.801-125.748 61.278l2.863 37.721c39.104-33.881 85.59-57.932 127.51-87.986 21.174-15.182 40.629-32.545 61.215-48.488 20.629-15.977 41.773-31.275 63.117-46.279 86.076-60.504 176.02-115.529 257.793-181.998 18.233-14.82 35.915-30.312 52.961-46.484 6.924-6.572 11.721-16.852 10.986-26.521-.586-7.715-5.842-13.336-13.852-11.199C503.627-.239 458.109 24.439 414.135 49.75c-40.959 23.574-81.777 46.955-123.684 68.824-82.873 43.246-167.969 86.252-237.164 150.254-7.75 7.166-13.725 20.592-10.072 31.133 3.689 10.636 15.031 7.251 21.376 1.378z"/></g><path fill="#D8724A" d="M403.57 706.196l-.004.006z"/><path fill="#FFE5B8" d="M775.383 354.735c-2.816-3.449-6.895-4.523-11.463-2.961l-1.699.582v-.105l-.361.23c-13.684 4.705-22.516 3.891-31.189 2.139 1.674-5.926 2.957-12.029 3.918-18.217.795-.025 1.623-.309 2.344-.787 3.111-2.064 4.846-6.23 4.766-10.07-.395-18.912-2.65-37.795-7.383-55.814-1.49-7.635-3.754-15.07-7.145-21.732-4.926-12.295-11.246-23.973-19.207-34.715-20.568-27.766-51.15-44.807-82.5-53.926-17.508-5.094-35.48-7.953-53.557-9.307-21.08-1.58-42.324-1.336-63.153 2.787a138.02 138.02 0 0 0-8.52 1.977c-28.578 1.109-56.902 7.117-82.801 20.717a136.102 136.102 0 0 0-7.127 4.029c-13.078 5.307-25.795 11.572-37.816 19.094-16.375 10.246-31.969 23.76-41.004 42.027-6.559 13.258-7.906 27.973-4.699 41.977-2.836 13.125-2.666 26.836.723 40.08-10.619 8.008-20.822 16.734-30.424 26.43-5.717 5.771-9.736 14.264-10.75 22.715-.459 3.824-.234 11.527 3.52 16.125 1.869 2.285 4.371 3.414 7.275 3.287 9.217-.449 18.707-1.658 28.717-3.664-8.031 4.279-15.311 8.736-22.014 13.471-7.938 5.607-13.658 15.646-14.926 26.203-.564 4.711.002 11.719 3.467 15.961 1.844 2.26 4.336 3.453 7.258 3.453 18.014-.08 36.896-1.725 57.379-5.014-23.348 10.82-47.588 22.686-71.096 36.92-8.844 5.355-13.92 17.053-15.025 26.27-.732 6.1.557 11.857 3.449 15.4 2.764 3.387 6.859 4.602 11.576 3.393 19.26-4.916 36.16-9.385 51.684-13.676a1702.177 1702.177 0 0 0-11.326 5.26l-.998.266-.031.236c-9.867 5.049-16.854 15.648-18.328 27.916-.73 6.107.553 11.881 3.463 15.441 2.77 3.393 6.836 4.594 11.543 3.35l2.021-.547c-.416.232-.924.465-1.34.697l-.385.055v.059c0 .586-1.918 1.17-2.967 1.754-8.387 4.672-13.75 16.766-14.896 26.301-.732 6.111.572 11.898 3.494 15.477 2.775 3.398 6.861 4.584 11.557 3.309a685.753 685.753 0 0 0 29.934-8.895c-7.174 7.514-13.459 23.562-11.014 33.629 1.609 6.625 6.75 9.736 14.367 8.557a376.996 376.996 0 0 0 21.271-3.926c-2.762 4.68-4.594 10.07-5.256 15.584-.545 4.541.104 11.422 3.732 15.863 2.826 3.461 6.9 4.508 11.441 2.885 3.242-1.162 6.49-2.32 9.74-3.469a39.689 39.689 0 0 0-6.896 17.967c-.746 6.225.4 11.553 3.234 15.021 2.699 3.307 6.799 4.621 11.674 3.771.645-.113 1.291-.26 1.936-.377l.123-.221c6.566-1.152 13.145-2.584 19.73-3.764-3.457 8.322-5.184 17.758-1.854 23.74.922 1.66 2.545 2.994 5.33 3.625 1.123.465 2.438.715 3.963.717h.047c5.178-.01 10.371-.088 15.574-.209 9.943.086 19.826.104 29.533-.531.588 5.447 3.123 10.551 7.254 12.516 11.727 5.57 24.871 8.396 39.069 8.396 30.234 0 60.902-12.752 81.342-22.346 38.867-18.242 74.086-42.178 106.357-65.33l.896-.541-.006-.117c9.232-7.107 15.059-19.826 14.248-31.322-.57-8.084-5.16-13.307-11.688-13.307-.422 0-.848.023-1.275.068 10.434-8.988 19.174-18.734 26.49-29.51 5.057-7.447 9.316-18.955 6.109-28.912-1.352-4.197-4.182-7.039-7.822-8a257.442 257.442 0 0 0 5.588-5.498c7.326-7.434 11.609-18.605 10.914-28.459-.473-6.689-4.633-13.799-11.408-13.799-1.305 0-2.648.275-3.996.822-2.049.83-4.121 1.666-6.207 2.502 7.178-5.43 12.504-15.191 13.723-25.344.57-4.766-.398-11.832-3.875-16.092-2.854-3.49-6.918-4.455-11.369-2.631-.533.219-1.072.439-1.611.658l.01-.316-1.182.789c-.871.35-1.748.701-2.633 1.051a348.437 348.437 0 0 0 17.613-16.15c5.707-5.609 9.732-14.105 10.77-22.729.609-5.092-.227-12.012-3.477-15.992-.902-1.104-1.963-1.955-3.16-2.531a811.286 811.286 0 0 0 17.377-10.646c8.855-5.584 13.914-17.207 15.002-26.254.72-5.973-.729-12.171-3.686-15.796zm-381.684-126.49c-8.039 8.348-16.004 16.773-24.09 25.059a131.646 131.646 0 0 1 7.723-11.215c1.875-2.438 4.043-4.969 6.387-7.486 4.656-4.166 9.631-7.936 14.811-11.346-.439.451-.879.9-1.318 1.354a27.539 27.539 0 0 0-3.513 3.634zm-44.233 44.918c4.469-13.264 10.289-25.93 17.748-37.521 3.707-3.646 7.639-7.021 11.736-10.17-11.852 13.508-21.254 29.197-28.047 46.328-.48.453-.954.912-1.437 1.363zm332.612-64.949c.57.51 1.139 1.021 1.701 1.543a2.56 2.56 0 0 0-1.047-.393c-.218-.385-.431-.771-.654-1.15zm11.07 140.117c.457 1.104.902 2.213 1.354 3.322a1333.2 1333.2 0 0 0-4.178.016 80.503 80.503 0 0 0 2.824-3.338zm14.733-108.92a13.392 13.392 0 0 0-.6 4.066c.02 2.037.104 4.062.242 6.076-5.902-13.92-14.012-26.803-22.709-38.799-.027-.037-.057-.064-.084-.102a135.553 135.553 0 0 1 23.151 28.759zm-372.315 17.461c.09-.682.209-1.359.326-2.037.186-1.059-.092.277.34-1.477 1.32-5.381 3.264-9.338 5.844-13.377 3.412-5.342 6.5-8.762 11.229-13.309 6.273-6.037 13.25-11.295 20.646-15.951a167.232 167.232 0 0 0-8.861 11.379c-11.754 10.65-22.07 22.979-29.764 37.336-.016.029-.031.062-.049.092.078-.886.174-1.773.289-2.656zm100.223 49.033l2.709-1.303.137.357c-.952.315-1.903.628-2.846.946zm90.963-5.722c4.119 2.436 8.145 5.055 12.094 7.748a632.788 632.788 0 0 1 4.746 3.275c-5.934-2.809-11.49-5.705-16.646-8.797a22.77 22.77 0 0 0-.194-2.226z"/><path fill="#EAA286" d="M783.17 486.079c-1.279-12.006-3.092-23.939-5.293-35.801 1.451-20.889 1.807-41.73-1.492-62.492.15-.723.301-1.447.449-2.17.35-1.689-.254-3.672-1.615-4.436a166.259 166.259 0 0 0-2.68-11.451c-1.4-5.141-6.734-.297-8.529 2.877-1.584-16.33-4.689-32.545-8.705-48.34-8.648-34.01-22.598-67.203-41.996-96.504-.443-.67-1.039-.984-1.689-1.066-3.117-6.16-6.586-12.043-10.592-17.385-.012-15.268-14.232-26.256-26.299-33.771-9.922-6.18-20.791-11.375-31.949-15.461-8.893-8.232-18.561-15.561-29.357-21.254-24.055-12.686-52.5-13.422-78.908-9.74-23.59 3.287-46.245 10.129-68.557 18.096a276.82 276.82 0 0 0-47.879 18.057l-1.328.5c-.289.109-.57.305-.836.561-42.381 21.113-79.117 53.168-103.551 94.066-1.096 1.832-1.719 5.08-.258 6.904 1.986 2.479 5.023-.223 6.4-1.836a298.128 298.128 0 0 1 17.039-18.311 195.646 195.646 0 0 0-7.668 11.566c-15.969 26.072-26.402 56.035-27.293 86.744-.109 3.717 4.619.127 4.758-2.191 2.482-41.572 22.383-82.25 51.992-111.254 14.615-14.316 32.328-25.449 52.15-30.836 23.562-6.404 47.615-1.232 70.916 3.881 1.641.359 3.285.729 4.928 1.1.453.641 1.125 1.043 2.109.967.506-.037 1.014-.094 1.52-.143 17.031 3.902 34.196 8.162 51.493 10.865.422.266.939.465 1.576.578 1.867.33 3.758.473 5.664.455 15.143 1.949 30.385 2.508 45.723.389 17.234-2.383 33.814-8.209 51.104-10.23 8.752-1.023 17.549 6.01 26.188 7.732.822.164 1.625 3.238 2.426 3.445 7.795 10.043 15.068 10.908 21.521 21.701 25.531 42.707 35.785 91.869 40.855 140.807 1.674 16.162 2.953 32.324 3.703 48.496-.41 22.539-.461 45.084-.385 67.629a540.448 540.448 0 0 1-.82 11.334c-1.77 20.896-4.553 41.967-10.43 62.145-6.576 22.576-20.254 42.443-34.303 61.02-16.016 21.174-33.904 42.664-55.033 58.941-.363.279-.732.549-1.098.826-12.73 4.318-24.768 11.736-34.111 20.697a207.588 207.588 0 0 1-30.656 11.705c-20.293 5.963-41.748 8.369-62.792 5.789-3.689-.453-7.152 8.289-2.795 8.881 30.989 4.221 63.17-2.369 92.081-15.531.24 2.064 1.488 3.391 4.51 2.645 9.689-2.387 19.475-7.594 27.717-13.514.344.188.797.223 1.371.047.307 1.059 1.137 1.6 2.799.99 2.953-1.08 5.736-2.545 8.34-4.287.697.641 1.656.893 2.9.393 15.799-6.342 28.693-20.002 39.693-32.553 8.414-9.602 15.934-20.104 22.752-30.977 1.869.326 4.566-1.303 5.861-2.797 14.467-16.691 23.98-37.178 31.932-57.598 6.322-16.234 11.652-33.105 15.566-50.184-.021 6.129.137 12.25.568 18.354.295 4.16 4.219 4.197 6.762 1.818 19.927-18.638 16.148-46.321 13.531-70.888zM417.666 189.257c2.273-1.1 4.557-2.176 6.855-3.219.514.674 1.324 1.16 2.523 1.352.701.111 1.4.203 2.098.285-3.85.318-7.676.842-11.476 1.582zm127.213 16.379c-.508.184-1.045.527-1.582.979-.521-.082-1.041-.17-1.562-.256 1.123-.256 2.24-.521 3.357-.799-.071.025-.141.048-.213.076zm40.57 1.783c-.158.502-.293 1.229-.348 2.02-2.791.189-5.6.277-8.412.273 3.07-1.609 6.008-3.266 8.754-4.816.469-.139.938-.275 1.408-.414a11.48 11.48 0 0 0-1.402 2.937zm-3.338-47.182a308.7 308.7 0 0 1 3.928.457 385.77 385.77 0 0 0-3.877-.096 5.14 5.14 0 0 0-.051-.361zm-44.152-14.054c1.658-3.406 2.451-7.549-.268-8.547 15.947-1.504 31.961-.994 47.932 2.578 10.021 2.244 19.334 6.355 27.988 11.66-24.861-5.311-50.322-7.078-75.652-5.691zm89.625 55.371c-1.559.35-3.113.707-4.67 1.066 5.32-2.451 10.646-4.84 16.119-6.664 7.51-.322 15.551-.234 23.127 1.172.09.107.184.215.273.322-11.706-.679-23.484 1.553-34.849 4.104zm91.998 422.404c1.061-3.367 2.328-6.67 3.598-9.881a197.044 197.044 0 0 1 3.229-7.65c1.953-3 3.824-6.076 5.582-9.287 2.082-3.803 4.146-7.615 6.186-11.441-4.952 13.007-10.81 26.441-18.595 38.259zm24.211-248.555a593.752 593.752 0 0 0-1.625-13.219c.686 4.27 1.355 8.541 2.002 12.816-.129.132-.254.265-.377.403zm28.668 162.764c-.346-13.102.295-26.209 1.291-39.311a376.705 376.705 0 0 1 1.367 19.379c.311 7.043-.078 13.881-2.658 19.932z"/><path fill="#FFBF1F" d="M822.898 329.302c-1.262-14.197 6.143-28.715 1.893-42.35-15.059-48.316-33.67-93.516-71.201-127.541-28.619-25.945-83.115-46.225-119.49-59.227-30.818-11.018-69.859-18.566-98.344 2.537-5.25 3.891-9.836 8.297-13.865 13.092l-.189-.184c-6.852-6.346-14.786-11.021-23.344-14.658-18.162-7.717-38.514-11.58-58.152-12.717-9.018-.52-17.857-.025-26.787 1.25-11.539 1.646-22.662 6.881-32.826 12.334-23.137 12.414-43.148 31.238-60.471 50.744-8.586 9.668-16.797 19.605-24.381 30.08-8.102 11.189-14.541 24.084-20.029 36.729-11.457 26.393-18.762 54.041-24.004 82.281-6.785 36.543-10.332 73.996-12.549 111.1-1.756 29.41-2.967 58.842-5.326 88.213-1.34 16.674-3.023 33.322-5.25 49.902a634.62 634.62 0 0 1-3.77 24.537 483.315 483.315 0 0 1-2.146 11.463 428.247 428.247 0 0 1-1.162 5.627c-.049.229-.1.457-.148.686-.152.678-.344 1.533-.451 1.994-2.945 12.686-6.572 25.24-11.297 37.383l-.111.279a182.681 182.681 0 0 1-1.736 3.953 147.704 147.704 0 0 1-3.787 7.705 126.823 126.823 0 0 1-1.818 3.316c-.18.314-.449.773-.734 1.248a100.037 100.037 0 0 1-4.078 5.85 81.265 81.265 0 0 1-2.133 2.693l-.049.061a66.658 66.658 0 0 1-5.094 4.893c-.176.152-.416.35-.67.555a61.73 61.73 0 0 1-1.994 1.371c-2.086 1.375-4.23 2.68-6.453 3.824a49.382 49.382 0 0 1-3.594 1.337c-2.221.744-4.504 1.285-6.805 1.711a20.17 20.17 0 0 0-.434.082l-.35.035a55.79 55.79 0 0 1-4.045.256c-2.83.094-5.664-.072-8.477-.369-6.051-.639-11.934 5.342-15 12.299-4.443 6.996-9.207 20.014-2.74 26.5 29.713 29.795 61.355 66.932 105.639 72.697 12.738 1.658 25.254-.801 36.6-6.629 11.506-5.908 20.689-15.93 29.91-24.773a170.02 170.02 0 0 1 6.359-5.793c1.047-.906 4.375-2.359.799-.416.143-.078 3.055-1.488 3.018-1.516 5.793-2.512 11.883-4.291 18.035-5.67 2.91-.652 5.855-1.148 8.801-1.615.102-.018 2.336-.322 2.848-.398 1.193-.15 2.389-.295 3.584-.436 7.502-.881 15.008-1.674 22.492-2.711 4.377-.605 8.75-1.256 13.1-2.025 6.625-1.174 12.275-8.955 15.055-14.412 3.469-6.805 6.23-17.5.9-24.201-14.713-18.504-30.822-16.701-46.008-34.811-7.703-9.184-15.217-37.682-22.248-47.395a288.888 288.888 0 0 1-9.654-14.252 246.621 246.621 0 0 1-4.469-7.348 208.983 208.983 0 0 1-2.703-4.769c-.262-.498-.525-.996-.783-1.496a179.838 179.838 0 0 1-13.348-33.619c-.812-2.855-1.51-5.744-2.164-8.641l-.164-.719-.07-.375c-.275-1.477-.51-2.957-.721-4.443-.922-6.475-1.516-12.994-1.959-19.518-.9-13.252-.969-26.559-.633-39.832.012-.266.023-.613.041-1.078.061-1.652.135-3.301.209-4.951.15-3.316.336-6.631.531-9.943.43-7.215.982-14.422 1.588-21.621 2.238-26.627 6.082-38.242 8.85-64.814 1.129-10.854 16.84-45.291 19-56 .252-1.039 5.238-3.332 5.51-4.367.588-2.244-18.748 5.533-18.055 3.32a133.479 133.479 0 0 1 2.201-6.373l.012-.031c.285-.676.605-1.436.834-1.938a104.866 104.866 0 0 1 4.105-8.062c.664-1.051 1.717-2.721 2.27-3.514 1.361-1.953 2.809-3.842 4.299-5.697.301-.375.613-.736.922-1.104a109.523 109.523 0 0 1 4.062-4.117c1.486-1.441 3.033-2.82 4.598-4.178.789-.686 1.598-1.35 2.406-2.016l.125-.102c7.391-5.537 15.41-10.195 23.645-14.35.816-.412 4.191-1.996 4.967-2.375a306.53 306.53 0 0 1 5.135-2.215c5.26-2.209 10.605-8.043 15.979-9.959 13.389-4.77 27.652-14.928 41.492-18.004 15.484-3.443 30.92.438 45.73-5.322 10.186-3.959 20.072-5.246 28.576-12.053 17.963 6.584 38.124 8.793 56.752 10.715 21.604 2.229 43.381 3.193 65.098 3.227 11.996 28.469 18.861 58.994 28.053 88.414 2.002 6.406 4.135 12.742 6.564 19a325.39 325.39 0 0 0 3.896 9.551 251.99 251.99 0 0 0 1.865 4.262c.859 1.928 1.775 3.641 2.836 5.541-2.549-4.57-.996-1.578-.506-.508a131.727 131.727 0 0 0 4.822 9.488c5.361 18.555 17.916 35.504 31.588 48.383 8.787 8.275 18.811 15.752 30.174 20.041 2.572.971 5.254 1.664 7.928 2.314-.342-.088.836.182 2.172.48-.418 5.84 1.873 10.863 8.631 12.584 17.375 4.422 41.729 5.732 52.785-7.283 11.439-13.471 6.682-42.227 8.941-59.328 2.255-17.072 2.068-34.644.544-51.775zM572.496 169.954c1.008-1.148 2.731-3.084 0 0zm210.262 212.533c-.256.898-.463 1.816-.703 2.719l.025-.012c-.244.717-.279.562.686-2.744a.22.22 0 0 0-.008.037z"/><path fill="#FF617F" d="M765.107 927.56c-8.074-32.607-21.58-64-40.217-91.533a213.533 213.533 0 0 0-4.172-8.086c-.197-6.117-2.125-11.527-7.221-12.402-4.605-7.4-9.551-14.51-14.646-21.266-26.797-35.527-62.836-58.982-106.584-67.721-44.932-8.979-91.944-1.576-136.422 6.484-39.748 7.205-82.574 12-115.871 36.916-11.701 8.754-21.121 19.104-28.859 30.547-5.383 5.328-10.402 11.07-14.977 17.26-.91 1.23-1.789 2.473-2.652 3.725-9.52 11.635-18.691 23.58-28.209 35.043-6.078 7.316-11.057 22.535-4.309 30.961 2.01 2.512 4.332 3.574 6.742 3.678-1.203 8.711-1.85 17.521-2.016 26.338-1.857 3.32-2.842 7.143-2.162 10.123-3.029 5.385-3.969 12.455.418 15.426.928.629 1.863 1.242 2.799 1.857.83 3.723 3.182 4.525 5.846 3.732.402.248.809.494 1.213.74 1.516 3.109 4.279 5.158 8.791 5.141 10.822 6.049 22.051 11.348 33.559 16.02-.021.9-.016 1.809.055 2.73.619 8.148 5.908 13.18 14.086 11.389a171.205 171.205 0 0 0 14.494-3.863c19.375 6.094 39.211 10.799 58.953 14.658 43.615 8.525 88.959 12.666 133.35 13.906 54.307 1.518 140.014-4.232 180.91-47.979a573.484 573.484 0 0 0 37.688-15.346c6.853-3.074 11.261-11.017 9.413-18.478zm-47.293-18.981a93.184 93.184 0 0 0 6.074-9.73c.293 2.609.471 5.225.523 7.834-2.206.605-4.405 1.24-6.597 1.896zm-394.705 31.588c9.836-5.307 19.258-11.439 28.248-17.559 1.379-.939 2.736-1.906 4.105-2.861-8.924 7.227-17.373 14.941-25.139 23.324a199.55 199.55 0 0 1-7.214-2.904zm212.957-179.699c-10.055 4.518-19.861 9.629-29.475 15.045 3.906-4.41 6.939-9.514 8.551-15.156 6.983-.108 13.962-.096 20.924.111zm73.606 12.523c-10.758 6.684-21.674 13.102-32.631 19.445 3.934-7.227 7.279-14.826 9.873-22.867a26.18 26.18 0 0 0 .766-3c7.404 1.698 14.74 3.811 21.992 6.422zM293.074 891.212c2.006-.934 3.99-1.902 5.967-2.891a196.474 196.474 0 0 0-7.734 10.369 1364.9 1364.9 0 0 1 1.639-7.42l.128-.058zm121.916-16.197c21.76-16.17 45.393-29.861 68.367-44.211 14.445-9.025 29.115-17.76 44.409-25.096a329.236 329.236 0 0 1-4.066 3.594c-9.415 8.172-16.903 13.504-28.147 21.201-11.896 8.143-24.152 15.754-36.461 23.256-25.482 15.523-52.898 30.279-78.338 47.41 11.415-8.715 22.714-17.592 34.236-26.154zm114.237-11.51c-15.752 10.668-31.946 20.639-48.229 30.463 20.947-15.795 42.573-29.451 65.387-42.432-5.617 4.057-11.336 8.026-17.158 11.969zm-61.948 90.683c-4.215 2.9-7.881 6.898-10.576 11.473-4.383-.287-8.764-.6-13.141-.949a5638.478 5638.478 0 0 0 23.717-10.524zm238.242-89.834a162.097 162.097 0 0 0 5.498-8.211 242.732 242.732 0 0 1 1.891 4.318 356.868 356.868 0 0 0-7.389 3.893zm-44.148-28.333a485.052 485.052 0 0 0 11.189-13.508c1.779-2.229 3.371-4.902 4.623-7.797a215.582 215.582 0 0 1 9.564 9.561 418.614 418.614 0 0 0-25.376 11.744zm-7.881-40.45c-7.346 4.918-14.283 10.363-21.061 16.014 4.68-6.867 8.945-14.014 12.719-21.463a194.229 194.229 0 0 1 8.342 5.449zM524.088 962.71a187.004 187.004 0 0 0-5.447 5.703 563.196 563.196 0 0 1-3.444-.1 881.888 881.888 0 0 0 8.891-5.603z"/><path fill="#FFE5B8" d="M576.811 719.747a41.47 41.47 0 0 0-2.543-1.068c-1.285-4.348-3.102-8.686-5.467-13.031-5.543-10.186-19.896 1.719-23.645 6.781a41.845 41.845 0 0 0-2.16 3.236c-8.246.824-16.361 2.525-23.574 4.314-16.02 3.975-32.887 13.889-40.758 28.297a80.905 80.905 0 0 0-.701-.75c-1.465-1.551-2.701-3.289-3.855-5.074.752 1.102-1.047-2.133-1.195-2.48-.621-1.463-1.066-2.99-1.514-4.512-.074-.246-.135-.451-.193-.637a31.134 31.134 0 0 0-.154-1.273c-.248-1.785-.305-3.592-.369-5.391-.006-.207-.014-.393-.021-.562.055-.33.125-.908.211-1.855.195-2.113.574-4.205.947-6.293 1.57-8.811-3.336-19.973-13.92-16.758-11.293 3.43-45.381 35.041-47.293 45.764-3.279 18.387 2.908 56.402 14.352 71.762 9.457 12.689 53.668 47.408 68.893 48.799 14.547 1.33 87.364-14.039 100.467-20.094 2.027-.605 33.477-59.447 35.404-60.281 0 0-10.355-48.799-26.793-45.928 4.354-5.613-26.951 11.402-23.988 5.072 3.394-7.259 8.056-23.321-2.131-28.038z"/><path fill="#EAA286" d="M566.195 740.64c-16.24 8.99-35.043 12.492-53.481 11.877-18.385-.611-38.959-5.086-50.162-20.955-3.469-4.914-9.293 7.297-8.195 10.617 14.471 43.859 71.083 48.984 107.483 30.758 7.631-3.822 12.436-12.633 13.541-20.881.672-5.012-1.602-15.612-9.186-11.416z"/><path d="M442.939 729.81c-52.449.236-112.002.178-146.701 46.682-15.367 20.59-23.492 45.121-28.268 70.109-4.773 24.971-7.039 51.592-4.207 76.82.59 5.256 5.271-1.189 5.689-3.328 8.621-44.168 5.604-93.609 32.531-132.162 30.453-43.605 91.803-36.723 137.492-46.531 3.698-.792 8.917-11.616 3.464-11.59zm141.762 16.13c24.852-1.959 51.439-.736 75.059 7.84 21.271 7.725 37.508 22.736 50.893 40.543 14.266 18.98 22.674 40.893 30.6 63.041 8.07 22.541 14.586 45.912 19.164 69.402 1.387 7.121 10.975-4.879 10.281-9.461-7.576-50.061-16.369-100.477-47.488-142.049-13.711-18.32-33.334-32.42-55.076-39.434-27.779-8.959-55.855-3.881-82.566 6.152-1.011.384-2.666 4.107-.867 3.966z"/><path d="M305.103 869.694c9.695.854 21.031 4.447 25.303 14.07 3.938 8.877 3.748 20.131 3.547 29.654-.232 10.783-1.832 21.549-2.932 32.264-.83 8.068-3.787 21.18 1.244 28.217 5.242 7.334 12.998-9.072 13.516-12.473 1.492-9.844-.309-20.869-.039-30.916.309-11.428.676-22.895-.781-34.262-1.229-9.584-4.82-17.727-11.846-24.43-7.713-7.354-17.943-6.592-27.551-4.24-.621.155-1.406 2.034-.461 2.116zm351.809 4.948c2.416 8.334 6.133 16.139 9.109 24.287 3.584 9.805 5.523 20.109 7.471 30.332 3.971 20.834 5.525 42.115 8.639 63.086.154 1.037.414 3.264 1.828 3.561.416.088.836.174 1.252.264 2.602.543 4.723-2.025 5.627-4.227 3.766-9.188.385-19.93-.805-29.537-1.469-11.869-3.43-23.678-5.77-35.408-2.311-11.576-5.549-22.895-10.129-33.783-3.383-8.041-7.66-16.908-16.475-19.709-.505-.165-.852.763-.747 1.134z"/><path fill="#FFBF1F" d="M882.979 710.233c-2.455-7.086-8.758-6.428-14.326-3.85 3.393-1.57-.32.033-.879.25-1.117.436-2.262.803-3.404 1.17-2.285.732-4.629 1.26-6.979 1.721-.225.045-1.609.234-2.164.318-.879.084-1.758.15-2.639.209-2.822.188-5.605.066-8.424-.131-2.43-.17-4.844-.518-7.246-.916-1.211-.201-2.414-.457-3.615-.713-.184-.037-1.748-.447-2.248-.57-4.885-1.414-9.578-3.379-14.236-5.404-4.588-1.994-8.969-4.441-13.182-7.131-2.094-1.338-4.104-2.799-6.082-4.301a59.42 59.42 0 0 0-.625-.469 36.821 36.821 0 0 1-.367-.314c-1.244-1.055-2.436-2.17-3.617-3.293a72.313 72.313 0 0 1-3.615-3.732 256.956 256.956 0 0 0-.627-5.66c-.922-7.51-2.154-15.156-3.902-22.684.318-3.246.654-6.49.996-9.732 2.932-27.914 6.369-56.271 2.262-84.244-.559-3.809-1.883-7.791-4.934-9.811a48.81 48.81 0 0 0-1.523-3.01c-3.635-6.553-10.822-9.305-17.662-10.885-5.328-1.23-11.551 5.15-14.236 8.781-4.203 5.678-6.215 12.178-6.182 19.188.008.73.004 1.461-.004 2.191-.104 2.135-.303 4.264-.529 6.389-.062.441-.105.768-.129.992-.168.672-.332 1.344-.514 2.008-.596 2.197-1.285 4.369-1.994 6.531a260.883 260.883 0 0 1-4.355 12.211c-.398.91-.795 1.82-1.205 2.725-.957 2.121-1.986 4.207-3.033 6.283-1.916 3.801-4.074 7.459-6.148 11.174-.33.539-.654 1.084-.979 1.627a4.635 4.635 0 0 0-.078.123c-1.285 2.025-2.627 4.014-3.979 5.994-5.504 8.059-11.605 15.744-17.852 23.234-.627.752-1.271 1.486-1.908 2.229-.582.633-3.061 3.426-3.771 4.195-3.354 3.629-6.82 7.152-10.344 10.617-6.936 6.824-14.219 13.289-21.725 19.477-3.688 3.041-7.248 6.234-10.943 9.271l-.51.414c1.695-1.391-3.473 2.727-4.941 4.039-1.729 1.541-3.578 2.969-5.379 4.426a446.803 446.803 0 0 1-2.497 1.992 324.638 324.638 0 0 1-5.42 4.049 284.437 284.437 0 0 1-10.652 7.42c-6.949 4.629-11.697 12.57-12.766 20.842-.826 6.383 2.658 18.006 11.65 14.031 6.314-2.791 12.539-5.76 18.633-8.953 1.469 1.291 3.426 2.23 5.953 2.695 1.195.221 2.381.461 3.566.723l.201.043c.195.062.482.15.898.273 2.295.674 4.537 1.514 6.756 2.4 4.826 1.928 9.416 4.414 13.85 7.107 4.166 2.533 8.135 5.385 12.01 8.334.98.746 1.945 1.512 2.908 2.277.162.129 1.201.977 1.688 1.371a340.917 340.917 0 0 1 5.924 5.08c15.426 13.482 30.105 28.646 48.178 38.639 18.203 10.064 40.822 10.781 59.73 2.615 22.389-9.67 39.818-28.27 53.969-47.648 4.711-6.453 8.961-13.217 13.135-20.025a350.605 350.605 0 0 0 4.762-8.016c.344-.59.541-.932.592-1.033a164.02 164.02 0 0 0 1.662-2.775 353.75 353.75 0 0 0 2.623-4.557c2.85-5.024 4.364-12.215 2.423-17.821zm-158.815-39.234c.25-.297.494-.602.742-.9a505.394 505.394 0 0 0-1.869 3.963 9.872 9.872 0 0 0-1.027-.555c.717-.838 1.443-1.664 2.154-2.508z"/><path d="M693.777 843.472c-13.678 5.008-25.521 13.041-34.771 24.338-1.543 1.885-3.006 4.732-2.221 7.246 1.004 3.217 4.23.289 5.281-1.154 7.957-10.959 18.678-18.848 30.91-24.479 1.87-.861 3.868-7.072.801-5.951z"/><path fill="#FFEE73" d="M883.178 703.579c-1.059-3.053-4.553-2.309-6.365-.412a66.853 66.853 0 0 1-3.006 2.953c-.895-1.303-2.592-1.574-4.328-.578-8.748 5.016-20.01 11.277-31.498 14.748a44.49 44.49 0 0 1-10.582-1.918c-16.924-5.197-30.623-19.002-38.393-34.584-3.197-6.412-5.273-13.215-6.523-20.205-.498-4.824-.852-9.662-1.146-14.475a438.136 438.136 0 0 1-.387-7.59c.176-7.838.988-15.66 2.068-23.205 3.342-23.377 9.867-46.131 11.66-69.746.508-6.701-4.59-5.713-7.758-2.385.604-4.297-4.645-3-6.027.945-1.348 3.84-2.746 7.732-4.166 11.664-2.045-4.062-8.516 2.895-9.107 5.475-2.715 11.811-4.131 23.709-4.785 35.656-8.697 30.143-12.771 61.254.064 90.633 6.768 15.49 18.379 28.895 32.467 37.473 4.654 3.748 10.174 6.365 16.611 7.416 13.021 3.846 27.152 3.621 41.023-2.273 10.619-4.516 19.514-11.797 27.18-20.324 2.148-2.391 4.152-5.93 2.998-9.268zM774.113 682.62c.197 1.152.402 2.301.625 3.443a77.716 77.716 0 0 1-1.117-2.139c.19-.423.354-.859.492-1.304z"/><path fill="#FF8A0B" d="M407.379 803.133c.252-.007.49.012.735.074l-.675-.176c.222.07.415.167.598.312l-.534-.44c.167.148.299.314.408.509l-.347-.646c.1.195.172.398.218.613l-.159-.801c.018.092.034.185.039.278.034.716.348 1.521 1.024 1.865.69.352 1.495.112 2.111-.268.854-.526 1.511-1.359 1.961-2.243.487-.956.632-1.853.663-2.905.018-.608-.133-1.27-.379-1.824-.601-1.355-1.662-2.161-3.167-2.276-.844-.064-1.686.491-2.265 1.038-.8.756-1.39 1.753-1.719 2.8-.278.883-.404 1.906-.093 2.803.228.662.817 1.306 1.581 1.287z"/><path d="M718.707 800.839c15.662 15.211 34.898 24.88 57.001 25.056 20.356.162 40.024-7.924 56.355-19.657 35.283-25.351 60.031-69.764 56.416-113.84-.356-4.348-4.006-6.251-7.744-3.945-4.138 2.552-6.733 7.916-6.48 12.719 1.861 35.317-16.926 68.869-45.493 89.247-14.123 10.074-30.967 16.655-48.418 17.046-19.062.427-37.61-7.391-52.07-19.539-5.855-4.92-14.151 8.462-9.567 12.913z"/><path d="M880.791 689.187c-7.487 5.567-15.292 10.617-23.678 14.726-4.597 2.253-12.875 4.996-17.061 5.478-2.577.297-5.189.281-7.771.06-3.462-.297-3.546-.394-6.298-1.438-2.133-.81-4.131-1.939-6.01-3.223-.474-.323-.928-.673-1.382-1.021 1.311 1.007-.192-.18-.379-.347-1.03-.914-1.979-1.917-2.896-2.943-4.074-4.563-5.676-7.805-7.741-12.613-2.465-5.739-4.144-11.803-5.466-17.896-.561-2.579.297 1.618-.208-.999-.154-.804-.295-1.609-.437-2.415a158.73 158.73 0 0 1-.771-4.938c-.53-3.697-.914-7.414-1.227-11.136-.628-7.49-.888-15.001-.878-22.517.02-14.442 1.433-31.385 3.8-47.433a316.383 316.383 0 0 1 4-21.819c-.619 2.812.551-2.272.766-3.148a202.69 202.69 0 0 1 3.811-13.457c1.104-3.474 1.332-10.371-3.864-10.615-5.206-.245-8.902 5.773-10.341 9.961-8.999 26.195-12.443 55.079-13.567 82.628-1.15 28.2-.421 59.381 13.374 84.773 6.535 12.03 17.931 20.502 31.905 20.793 20.689.43 40.021-14.07 55.097-26.526 2.794-2.308 4.555-6.755 4.283-10.334-.281-3.701-3.772-6.047-7.061-3.601z"/><path fill="#FFEE73" d="M816.668 295.849c-3.945-19.016-10.168-37.447-18.379-54.936-4.053-13.629-9.584-26.783-16.963-39.033-10.053-16.693-23.127-31.584-37.02-45.164-23.078-22.561-49.902-42.119-79.375-55.432-22.574-10.197-48.469-16.838-73.17-12.5a115.339 115.339 0 0 0-13.197-.271c-14.195.549-28.215 5.85-38.951 15.076-11.516 9.896-18.793 24.547-22.373 39.078-1.207 4.895 3.824 4.027 4.889.225 2.178-7.781 5.26-15.035 9.91-21.664 1.752-2.5 4.322-4.629 6.674-6.539 1.057-.855 2.23-1.588 3.377-2.312.641-.406 1.303-.779 1.965-1.152.336-.189 2.713-1.115 1.562-1.021 2.914-.24 6.312-2.445 9.199-3.301a53.618 53.618 0 0 1 9.541-1.881c7.082-.752 14.428-.557 21.512.117 21.646 2.055 42.744 9.291 62.699 18.654 16.098 8.381 31.33 18.508 45.418 29.191 35.086 26.607 67.166 61.041 87.143 100.559 8.604 17.018 13.928 35.492 16.637 54.42-9.207-1.896-17.992-5.443-26.252-10.602-14.078-8.791-25.367-21.436-35.551-34.369-20.824-26.445-37.008-57.021-62.129-79.873-2.385-2.172-5.941 3.557-4.027 5.438 24.852 24.406 40.979 56.279 62.012 83.756 17.354 22.67 39.254 42.537 67.277 47.178.289 3.287.502 6.58.646 9.879a389.606 389.606 0 0 1-1.887 31.191 102.32 102.32 0 0 1-7.65-2.584c-7.975-3.023-15.4-7.359-22.303-12.338-14.832-10.693-26.885-24.996-37.717-39.584-22.705-30.57-39.641-65.207-63.697-94.795-4.809-5.914-9.971-11.547-15.578-16.713-2.418-2.227-6.057 3.627-4.107 5.545 26.318 25.881 43.188 60.492 62.564 91.471 18.883 30.193 41.107 63.234 75.01 77.852 3.488 1.504 7.654 3.143 11.949 4.307a450.99 450.99 0 0 1-3.102 19.986c-2.816 7.66-7.205 14.322-14.316 17.367a25.74 25.74 0 0 1-1.166.455 416.664 416.664 0 0 1-37.471-18.832c-1.1-.625-2.197-1.26-3.293-1.895a153.304 153.304 0 0 1-24.275-24.391c-21.477-27.031-34.969-59.498-48.516-90.943-9.406-21.834-18.984-43.68-30.941-64.066-7.23-15.529-16.85-29.754-30.219-41.057-3.625-3.064-8.713 5.17-5.939 8.02 6.068 6.227 11.537 12.912 16.535 19.93 7.234 11.801 12.18 25.105 16.297 38.381 6.748 21.756 10.188 44.51 16.473 66.426 6.131 21.369 17.457 42.055 30.176 60.211 11.332 16.178 25.254 30.217 40.891 42.24 24.748 19.029 53.645 31.953 82.434 43.551 4.494 1.811 8.535-3.893 9.602-7.531 13.902-47.503 17.258-97.124 7.172-145.725zM794.885 418.63a97.05 97.05 0 0 1-.486-.188c.238-.324.453-.666.648-1.012-.055.401-.106.801-.162 1.2zm13.709-31.127a2.47 2.47 0 0 0-1.217.064c-.811.248-1.516.73-2.117 1.34.371-4.141.775-8.275 1.275-12.4.084-.408.172-.814.25-1.223a22.999 22.999 0 0 0 2.764-.189c-.223 4.14-.549 8.279-.955 12.408zm.088-24.783c.488-4.375.818-8.76 1.047-13.115.178 4.439.244 8.883.201 13.328-.416-.077-.83-.151-1.248-.213zm-19.672 51.957c-.049.213-.092.426-.141.639-.059.26-.115.559-.162.875-.295-.119-.588-.246-.881-.365.401-.376.795-.757 1.184-1.149zM656.057 287.601a489.893 489.893 0 0 1-2.938-11.152c9.506 23.322 18.502 46.973 30.346 69.182-5.559-8.295-10.531-16.994-14.965-25.934-5.16-10.409-9.328-20.913-12.443-32.096z"/><path d="M517.76 142.001c-.26 1.176.57-2.291.74-2.948.356-1.376.75-2.743 1.156-4.106a104.656 104.656 0 0 1 2.964-8.503c-.823 2.085.722-1.635.987-2.222a83.726 83.726 0 0 1 3.604-7.001c.32-.56.653-1.113.987-1.665-1.327 2.197.212-.281.488-.698 1.388-2.094 2.909-4.097 4.512-6.03.268-.322 1.688-1.919.166-.215a63.137 63.137 0 0 1 4.332-4.36 61.163 61.163 0 0 1 2.791-2.396c1.612-1.316-1.342 1.001.319-.246.49-.368.994-.716 1.492-1.072 2.174-1.556 4.518-2.892 6.89-4.116a56.029 56.029 0 0 1 1.688-.827c-1.488.71.416-.163.602-.242a62.484 62.484 0 0 1 3.572-1.376c2.691-.959 5.46-1.693 8.251-2.296 5.391-1.164 10.701-1.491 16.877-1.359 14.806.315 29.466 4.007 43.327 9.009 45.453 16.4 86.154 46.54 122.976 77.117 19.826 16.464 37.146 34.018 49.691 56.742 10.905 19.753 17.26 42.143 20.596 64.357 7.573 50.43.826 101.82-8.269 151.577-.658 3.602 1.373 8.157 5.686 6.848 4.652-1.413 7.168-6.604 8.006-10.989 17.175-89.902 27.604-199.393-44.667-269.133-20.833-20.104-44.782-37.944-68.564-54.392-18.794-12.999-38.475-24.834-59.368-34.15-26.867-11.979-58.09-20.827-87.275-12.327-32.068 9.34-49.823 39.441-56.023 70.49-.604 3.022 1.186 6.822 4.762 5.735 3.97-1.207 5.889-5.529 6.704-9.206z"/><path fill="#FFEE73" d="M523.26 206.22c-16.778-9.453-36.93-10.209-55.602-7.725-21.812 2.902-42.68 10.207-62.533 19.525-17.824 8.365-35.031 18.855-49.77 31.982-4.199 3.74-8.053 7.893-11.621 12.322-6.518 6.094-12.383 12.836-17.277 20.377-1.715-.049-3.287 1.25-4.506 2.709 7.498-20.541 17.658-40.08 30.781-57.473 23.447-31.074 59.738-53.705 99.42-54.447 8.004-.15 16.217.377 24.1 1.801 3.271.59 6.449-7.295 2.52-8.004-20.211-3.646-41.459-4.863-61.441.797-18.732 5.305-35.488 15.918-49.844 28.887-23.311 21.062-40.018 49.012-51.586 78.424-1.016.229-6.324-1.004-12.889-2.238.469-2.295.922-4.594 1.396-6.887.834-4.021 1.686-8.037 2.555-12.051a652.733 652.733 0 0 1 2.242-10.061c1.547-6.748 21.027-70.062 60.787-87.471 17.961-7.865 33.395-20.951 51.652-28.127a185.708 185.708 0 0 1 8.174-2.992c25.104-2.291 50.914 1.066 74.887 9.463 5.607 1.965 11.778-8.674 7.98-12.916l-.018-.02c2.031-3.684 2.455-8.273-.73-9.869-9.969-4.994-20.711-8.85-31.486-11.658-9.359-2.438-20.32-2.096-29.945-2.041-17.195.098-34.527 2.525-50.885 7.898-29.422 9.666-53.889 29.512-71.855 54.463-3.781 5.252-7.277 10.695-10.537 16.281a201.804 201.804 0 0 0-12.172 18.527 217.393 217.393 0 0 0-20.846 34.289c-10.41 21.369-17.697 44.209-23.232 67.283-4.742 19.77-9.039 40.066-11.402 60.275-2.498 21.365-2.559 43.1-3.383 64.574-.139 3.643-.283 7.285-.434 10.928a613.51 613.51 0 0 0-.912 18.131c-.016.436 0 .896.045 1.357-.998 20.84-2.258 41.664-4.064 62.453-.836 9.635-1.785 19.33-2.922 29.012-4.105 16.014-8.547 31.941-13.531 47.699-7.162 22.639-14.076 42.607-26.068 62.943-.152.26-.309.518-.463.775-.08.121-.693 1.119-.826 1.33a110.001 110.001 0 0 1-2.311 3.471 85.609 85.609 0 0 1-4.699 6.18c-.127.154-.219.264-.289.352a64.057 64.057 0 0 1-1.273 1.365c-.779.814-1.609 1.588-2.439 2.35a41.778 41.778 0 0 1-2.053 1.748c.256-.232-1.551 1.102-1.963 1.371-2.373 1.549-4.959 2.621-7.658 3.119-3.709.076-7.484-.369-11.35-1.23-2.393-.531-4.969 2.16-6.365 5.264a110.905 110.905 0 0 1-5.299-2.348c-3.205-1.52-6.973 5.875-3.855 7.566 10.723 5.814 22.721 10.23 35.086 9.752 10.533-.406 20.008-4.748 28.104-11.314 19.59-15.891 28.959-42.352 35.436-66.025 13.33-48.723 14.766-99.023 18.754-149.031 1.637-7.734 3.24-15.473 4.818-23.217.307-1.502.598-3.01.9-4.514.279.098.557.205.84.289-.414 2.178 43.32-142.373 45.539-141.242 3.09 1.574 1.611 29.297 10.018 9.992 6.494-14.912 14.334-30.014 25.109-42.422.998-.791 2.01-1.572 3.033-2.348 20.426-15.467 43.828-26.545 68.324-33.832 30.344-9.023 62.271-11.926 93.823-11.156 5.493.136 11.753-11.429 6.011-14.665zM216.628 638.196a129.552 129.552 0 0 1-5.65 11.664c2.295-4.41 4.41-8.926 6.398-13.48-.281.697-.537 1.318-.748 1.816z"/><path fill="#EAA286" d="M756.01 464.761c11.34-10.789 28.432-25.102 45.445-18.287 19.119 7.658 29.26 29.139 30.943 48.693 2.061 23.959-7.785 71.168-41.75 61.656-13.932-3.902-25.055-16.561-33.102-27.85-5.59-7.838-11.369-22.143-4.309-30.959 7.025-8.771 19.023.301 23.643 6.781a106.944 106.944 0 0 0 4.316 5.662c2.736 3.34-3.945-4.32-1.123-1.283a52.993 52.993 0 0 0 2.051 2.055 43.497 43.497 0 0 0 2.012 1.801c2.732 2.352-4.449-3.295-1.627-1.277 1.195.855 2.475 1.58 3.787 2.234-6.08-3.031-2.004-.967-.148-.518 2.574.627-4.514-.473-1.93-.227.551.053 1.104.045 1.656.033 1.619-.029 5.396-1.25-.178.371 1.195-.348 2.318-.912 3.393-1.535 3.471-2.012-.332.512.025.189.879-.779 1.662-1.664 2.416-2.564.799-.951 1.506-1.977 2.184-3.016.354-.541.678-1.102 1.002-1.658 1.332-2.293-2.174 4.309-.48.787 1.215-2.531 2.152-5.191 2.955-7.881a61.627 61.627 0 0 0 1.08-4.229c.693-3.072-.922 4.908-.365 1.805.174-.969.311-1.941.443-2.914.391-2.895.549-5.814.549-8.73 0-3.297.24 5.795.086 2.529-.033-.701-.094-1.396-.154-2.094a47.063 47.063 0 0 0-.541-4.037c-.773-4.537 1.803 6.715.254 1.385a31.954 31.954 0 0 0-.584-1.756c-1.125-3.193 2.9 6.771 1.525 3.719-2.312-5.15 2.242 3.244 1.412 2.023-2.861-4.211 4.844 4.609 1.102 1.312 5.311 4.676 4.184 3.117 2.6 2.086-1.268-.82-3.805-1.77 2.531 1.062-.963-.43-1.994-.682-3.027-.873 5.949 1.104 2.064.311.201.447-.633.047-1.258.156-1.881.266-2.414.418 4.203-1.312.5-.105-3.275 1.068-6.314 2.814-9.193 4.67-1.811 1.164-3.527 2.467-5.221 3.791 3.131-2.447-.145.15-.639.58-1.338 1.162-2.623 2.377-3.906 3.598-8.09 7.697-18.184.598-23.645-6.781-4.992-6.743-12.205-23.448-4.308-30.961z"/><path d="M762.553 460.181c16.199-10.646 38.795-20.223 56.459-7.203 14.27 10.516 18.129 30.82 17.102 47.43-1.094 17.727-8.232 36.916-22.244 48.43-15.52 12.75-39.414 11.551-53.463-2.965-1.18-1.219-5.164-10.629-.465-9.844 8.59 1.438 15.834 6.318 24.777 6.832 7.27.414 14.129-1.922 20.164-5.85 12.59-8.201 19.709-24.211 22.047-38.561 1.926-11.836 1.617-27.506-8.438-35.832-14.74-12.207-37.852-1.707-52.156 5.674-2.94 1.516-6.565-6.281-3.783-8.111z"/><path d="M807.867 503.177c-5.932-7.295-13.877-12.871-23.557-12.994-10.674-.135-13.037 9.33-17.08 17.076-1.844 3.537-5.914-4.285-6.064-5.594-1.355-11.9 4.641-23.754 17.834-23.986 12.922-.23 24.543 10.695 31.367 20.529 1.781 2.57.904 9.154-2.5 4.969z"/><path d="M760.748 497.161c7.693-.318 17.34-.396 22.783 6.043 5.385 6.369 4.324 16.008-.293 22.514-1.98 2.789-5.221-4.133-4.629-5.99.844-2.646 4.775-9.605 1.938-12.059-4.52-3.906-12.346-4.012-17.947-4.309-2.246-.121-4.621-6.088-1.852-6.199z"/><path fill="#EAA286" d="M749.387 455.911c-.012-3.531-3.232-4.885-6.031-3.379a4.553 4.553 0 0 0-1.408-1.098 161.407 161.407 0 0 1-12.738-7.178c-7.816-17.662-19.406-34.232-30.381-49.773-12.531-17.748-26.045-34.779-38.301-52.725a298.814 298.814 0 0 1-4.029-6.061c-9.725-30.352-17.861-61.197-33.219-89.426a187.827 187.827 0 0 0-3.611-6.297c-1.693-2.842-5.791-.66-7.418.879-.936.885-1.818 2.01-2.535 3.256a133.04 133.04 0 0 0-1.252-5.297c-1.02-3.859-5.818 1.857-5.482 4.256 11.016 78.248 27.018 170.23 102.689 212.41 4.506 2.512 9.154 4.754 13.898 6.768 3.203 8.107 5.615 16.533 6.854 25.475 6.066 43.777-8.301 89.768-29.221 127.816a208.033 208.033 0 0 1-5.695 9.719c-19.355 25.809-44.086 47.57-72.271 63.283-37.777 21.061-81.729 29.471-124.586 23.723-13.48-1.807-26.828-4.936-39.648-9.443-17.725-7.475-34.416-17.455-49.502-29.379-9.611-7.598-18.488-16.084-26.57-25.277-17.881-23.881-29.092-52.334-36.336-81.176-9.289-36.994-12.07-75.502-12.523-113.533-.496-41.693 2.361-83.365 5.922-124.879.205-2.369-.266-5.814-3.334-5.957-3.896-.184-6.662 4.32-7.74 7.455-18.936 55.092-25.889 114.52-19.705 172.467 5.066 47.475 18.631 96.188 45.205 136.295 41.434 62.525 115.588 101.871 190.985 95.549 39.234-3.291 75.791-19.023 106.557-43.32 23.225-18.344 41.912-41.195 56.543-66.551 13.221-19.27 23.793-40.352 31.686-62.33 5.631-15.68 9.957-32.428 12.504-48.889 2.929-18.949.755-38.326.693-57.383zm-12.43 11.592c.293-.096.582-.213.869-.352.027 1.648.064 3.295.109 4.941a133.179 133.179 0 0 0-.978-4.589z"/><path d="M748.881 436.731c1.518 56.309-6.207 116.07-25.756 161.98-27.74 65.152-81.303 112.83-147.234 127.855-74.088 16.885-155.499-4.727-208.256-63.93-53.334-59.85-66.604-144.199-59.797-223.75-3.414-2.066-3.9-3.918-7.525-5.373-1.211 9.627-5.184 19.277-5.887 28.924-5.771 79.193 10.727 161.736 62.613 221.316 51.742 59.424 131.51 82.004 205.403 69.07 68.648-12.018 125.691-58.746 159.934-122.469 28.031-52.17 41.439-122.043 39.744-188.195-4.403-1.842-8.798-3.703-13.239-5.428zm-406.25-60.514c4.27-6.276 11.989-10.841 19.509-14.685 10.235-5.231 21.982-8.485 33.35-9.975 12.138-1.59 24.823-1.166 36.629 2.228a81.027 81.027 0 0 1 17.892 7.583c5.809 3.334 10.71 7.925 16.222 11.677 2.669 1.817 6.369-1.631 7.762-3.512 2.425-3.277 3.863-7.98 1.627-11.683-7.428-12.302-22.553-19.076-35.968-22.445-13.926-3.499-28.655-2.953-42.709-.586-22.886 3.854-48.911 14.91-61.062 35.83-1.181 2.034-1.899 5.565-.282 7.584 2.066 2.579 5.694-.052 7.03-2.016zm348.562-7.77c-11.159-19.966-37.586-29.027-58.707-32.614-27.865-4.732-62.484 1.324-79.687 26.01-1.977 2.836-3.592 6.791-2.387 10.271 1.479 4.268 5.656 2.537 8.203.531 9.94-7.831 19.132-14.079 31.469-17.578 12.405-3.519 25.449-3.534 38.14-1.752 11.461 1.61 22.677 5.118 33.059 10.217 8.041 3.95 16.325 8.682 21.598 16.136 1.962 2.773 5.725-.252 7.03-2.016 1.965-2.655 2.955-6.21 1.282-9.205z"/><path d="M623.23 232.542c-49.805-9.916-101.197-16.759-152.025-12.094-31.247 2.868-62.62 10.762-89.132 28.083-21.614 14.121-40.094 34.982-51.272 58.252-10.087 20.999-12.086 44.394-17.498 66.764-3.012 12.451-7.543 24.434-10.477 36.921-3.147 13.395-6.091 26.961-8.5 40.506-.999 5.62 5.312 2.619 6.33-.855 4.271-14.581 6.374-29.761 10.021-44.508 3.407-13.774 8.325-27.023 11.342-40.918 2.719-12.517 4.587-25.207 8.004-37.567 3.527-12.763 9.265-24.161 16.87-34.963 14.313-20.331 33.678-36.263 56.385-46.416 26.479-11.839 55.755-16.19 84.533-17.316 44.46-1.739 89.22 4.242 132.841 12.302 3.341.617 6.593-7.391 2.578-8.191z"/><path d="M530.488 97.288c-40.26-14.619-86.018-12.059-126.944-1.123-14.666 3.92-28.289 9.66-40.941 18.152-18.143 12.176-33.49 28.182-46.953 45.273-23.213 29.473-42.846 64.678-53.025 100.947-10.053 35.818-15.338 73.176-20.656 109.926-5.865 40.535-10.779 81.229-14.799 121.988-1.764 17.877-3.193 35.705-3.83 53.662-.941 26.551-1.348 53.426-7.949 79.32-1.379 5.406-3.068 10.729-4.926 15.988-1.762 4.984-4.082 10.631-5.939 14.379-2.732 5.51-7.746 10.945-13.275 14.775-6.26 4.334-13.568 6.654-21.191 5.99-9.572-.836-17.16-7.797-22.812-14.998-3.973-5.061-11.043 6.295-8.398 10.926-.098 18.785 6.604 37.406 15.469 53.732 9.502 17.494 22.338 34.021 38.939 45.293 9.156 6.217 20.053 10.686 30.355 14.613 8.561 3.262 17.473 5.762 26.568 6.932 16.652 2.143 34.836-1.844 50.172-8.312 3.186-1.342 6.83-10.768 1.227-9.428-8.145 1.947-16.02 4.682-24.289 6.158-7.434 1.326-15.031 1.451-22.533.688-8.869-.902-17.441-3.494-25.764-6.596-10.084-3.758-20.27-8.084-29.59-13.484-16.293-9.441-28.619-25.076-37.992-41.1-7.127-12.184-12.75-25.781-15.363-39.809 5.059 4.838 11.111 8.342 18.373 9.787 8.992 1.789 18.334-1.391 26.027-5.879 19.713-11.498 28.281-33.615 34.549-54.385 7.848-25.996 9.447-53.133 10.621-80.094.832-19.08 2.074-38.043 3.943-57.047 3.963-40.318 8.928-80.555 14.699-120.652 2.973-20.643 6.207-41.25 9.924-61.773 3.061-16.898 5.943-31.666 10.291-47.717 4.373-16.145 9.703-28.666 17.088-43.438 9.186-18.371 19.961-35.496 32.686-51.658 12.58-15.979 27.334-30.572 44.672-41.33 11.248-6.98 23.5-11.084 36.25-14.258 37.598-9.361 79.809-11.443 116.875 1.117 7.455 2.531 15.502-14.002 8.441-16.565zm-129.64 646.898c-1.938 40.931 9.213 84.829 41.087 112.673 33.196 28.998 84.539 33.152 123.924 14.897 50.369-23.345 72.71-85.347 59.571-137.652-.795-3.163-4.361-3.186-6.636-1.782-3.561 2.195-6.341 7.242-5.849 11.479 2.486 21.376 3.75 41.848-3.043 62.637-5.401 16.531-15.941 31.222-30.877 41.575-34.759 24.093-86.916 23.041-121.327-.903-34.167-23.775-46.921-68.183-45.919-107.957.063-2.523-2.123-4.441-4.573-3.698-3.352 1.017-6.197 5.312-6.358 8.731zm123.465-527.519c4.426-16.35 11.812-33.903 30.667-36.256 20.419-2.547 39.446 8.576 51.1 24.68 11.899 16.444 16.639 37.26 20.844 56.754 4.22 19.56 7.678 39.037 13.934 58.1 11.742 35.78 29.929 70.898 56.461 97.964 12.795 13.052 27.757 24.123 44.516 31.511 17.021 7.503 39.622 13.303 58.01 8.377 5.87-1.572 12.845-16.309 4.001-17.897-10.731-1.928-21.726-1.287-32.523-3.531-9.937-2.065-19.503-5.895-28.479-10.577-18.338-9.564-33.545-23.82-46.338-39.912-25.656-32.273-42.047-72.661-50.226-112.861-7.282-35.8-13.205-79.278-46.154-101.311-15.759-10.538-37.729-12.883-54.699-4.061-17.716 9.209-25.995 30.329-30.367 48.594-.546 2.28-.99 6.752 2.518 6.917 3.255.153 5.989-3.736 6.735-6.491z"/><path fill="#FFEE73" d="M646.059 288.952c12.309 28.703 33.371 54.428 55.031 76.561 11.615 11.869 24.266 22.992 38.23 32.033 10.402 6.736 22.703 12.883 35.396 12.766 26.832-.244 34.225-32.158 35.676-53.352l-7.354 3.387c.01 14.051-.215 28.053-2.879 41.896 2.469-.746 4.938-1.492 7.406-2.24.221-3.715 2.467-7.99 4.164-10.574 1.17-1.779 2.535-4.824.947-6.807-1.516-1.893-4.23.018-5.199 1.49-3.523 5.363-6.947 11.604-7.318 18.131-.109 1.906.568 4.467 3.076 3.705 2.514-.764 3.879-3.572 4.33-5.945 2.768-14.596 2.848-29.41 2.863-44.215.006-5.863-7.109-.09-7.354 3.385-.854 12.15-2.266 30.051-13.559 37.625-9.012 6.041-21.098 2.658-30.189-1.316-14.061-6.146-26.551-15.74-37.99-25.828-13.221-11.66-25.223-24.559-36.561-38.033-12.412-14.75-24.73-30.498-33.121-47.963-1.925-4.012-6.836 2.4-5.595 5.294z"/><ellipse fill="#FFAD9F" cx="679.815" cy="532.595" rx="27.265" ry="26.217"/><ellipse fill="#FFAD9F" cx="371.282" cy="534.03" rx="27.265" ry="26.217"/><path fill="#FFF" d="M478.47 457.94c0 29.49-30.818 53.396-68.834 53.396-38.014 0-68.832-23.906-68.832-53.396 0-29.492-10.635-40.578 27.117-45.055C473.464 400.37 478.47 428.448 478.47 457.94zm92.065-9.177c0 29.49 30.818 53.396 68.834 53.396 38.014 0 68.832-23.906 68.832-53.396 0-29.492 10.635-40.578-27.115-45.055-105.545-12.516-110.551 15.563-110.551 45.055z"/><path fill="#2695F9" stroke="#000" stroke-width="8" stroke-miterlimit="10" d="M498.23 429.415c-.359-4.727-1.473-9.186-3.314-13.26a167.305 167.305 0 0 0-1.121-6.254c-.635-3.186-3.396-5.246-6.678-4.908-9.648-9.584-23.156-13.391-33.008-14.891-5.76-.873-11.883-1.318-18.197-1.318-14.096 0-29.418 2.105-48.223 6.625-10.451 2.514-19.682 5.264-28.215 8.406a263.902 263.902 0 0 0-20.801 7.471c-7.064 2.881-15.297 6.492-22.803 11.439-2.951 1.943-4.988 5.246-5.453 8.836-.244 1.895.127 4.854 1.98 6.961 1.133 1.289 2.645 2.051 4.295 2.174.285 10.412 1.994 20.332 5.031 29.488l.006 1.764.248-1.014c4.371 12.822 11.363 24.127 20.693 33.193 15.365 14.932 37.354 23.967 60.326 24.789a95.2 95.2 0 0 0 3.418.061h.004c21.516 0 42.332-7.227 58.617-20.35 15.93-12.834 26.697-32.1 30.336-54.258 2.484-8.831 3.445-17.225 2.859-24.954zm-156.67 8.897c-.115-1.752-.23-3.551-.277-5.311 1.338-1.025 2.869-2.006 4.574-2.928 47.512-23.863 96.736-18.023 114.822-10.787.824.33 1.725.35 2.549.539 6.902 4.15 11.221 10.58 12.176 18.154.664 5.277.221 11.139-1.322 17.426-3.121 15.049-7.811 26.549-12.779 32.748-8.539 10.654-21.896 17.559-40.84 21.104-.828.061-4.531.201-5.559.201-13.25 0-26.488-3.119-38.295-9.018-15.051-9.973-34.135-31.654-34.961-51.775.141-.752.217-1.506.227-2.252.033-2.767-.143-5.476-.315-8.101zm211.805 8.695c3.637 22.158 14.406 41.422 30.334 54.258 16.287 13.123 37.104 20.35 58.617 20.35h.004c1.133 0 2.283-.021 3.42-.061 22.971-.824 44.959-9.859 60.326-24.789 9.328-9.068 16.32-20.373 20.693-33.193l.246 1.012.006-1.762c3.037-9.158 4.748-19.076 5.031-29.49 1.652-.123 3.162-.885 4.297-2.172 1.852-2.107 2.223-5.068 1.979-6.961-.465-3.59-2.502-6.893-5.451-8.838-7.508-4.945-15.74-8.559-22.805-11.439a264.129 264.129 0 0 0-20.801-7.471c-8.533-3.143-17.762-5.891-28.215-8.404-18.803-4.521-34.127-6.627-48.223-6.627-6.314 0-12.438.445-18.195 1.32-9.854 1.5-23.361 5.305-33.01 14.891-3.279-.34-6.041 1.723-6.678 4.906a166.938 166.938 0 0 0-1.121 6.254c-1.84 4.074-2.955 8.535-3.314 13.262-.585 7.725.376 16.12 2.86 24.954zm153.496-7.959c.01.746.086 1.5.229 2.254-.826 20.119-19.91 41.801-34.963 51.773-11.807 5.9-25.043 9.018-38.293 9.018-1.027 0-4.73-.141-5.559-.199-18.943-3.547-32.303-10.451-40.842-21.105-4.967-6.199-9.658-17.699-12.779-32.748-1.543-6.287-1.986-12.148-1.32-17.424.953-7.576 5.271-14.006 12.176-18.154.822-.189 1.725-.211 2.549-.541 18.084-7.234 67.311-13.074 114.82 10.789 1.705.922 3.238 1.902 4.574 2.928-.045 1.758-.162 3.557-.277 5.311-.17 2.623-.348 5.33-.315 8.098z"/><path fill="#2695F9" d="M557.455 432.63c-.986-14.641-18.047-21.629-30.754-21.967-12.895-.342-29.727 4.443-35.176 17.479-.889 2.125-3.385 13.725.955 11.5 19.086-9.791 32.754-12.191 48.059-7.053.967 3.512 14.186 11.883 17.75 12.834 4.566 1.223-.57-8.869-.834-12.793z"/><path d="M500.755 442.204c5.588-8.193 15.819-10.418 25.178-9.229 10.012 1.273 18.488 7.266 22.686 16.424 1.689 3.686 5.523-2.197 4.879-4.613-2.992-11.213-14.529-17.449-25.291-19.035-11.643-1.715-23.813 2.871-30.305 12.883-.779 1.201-1.707 3.234-.637 4.57 1.027 1.281 2.826-.025 3.49-1zm-6.213-18.914c15.445-10.312 36.42-18.449 52.407-4.609 2.973 2.574 7.305-4.486 4.879-6.584-17.969-15.557-40.586-6.855-57.725 5.402-1.377.984-2.383 2.68-2.252 4.42.111 1.471 1.414 2.223 2.691 1.371zm98.956 26.18c2.473 1.885 5.328 2.193 8.211 1.781 14.373-13.693 30.936-22.602 48.877-12.568.465.26.924.541 1.383.816 8.51 4.715 15.332-.352 19.631-7.408 2.045-3.357 6.064 4.25 4.465 7.186-2.484 4.557-6.225 7.102-10.529 8.385.4.172.795.355 1.203.506 2.438.902 4.918.934 7.408.311 3.639-.912 5.949-4.52 9.145-6.303 3.418-1.91 5.936 5.822 4.494 8.672-3.377 6.68-11.377 9.305-17.438 7.969-1.225-.27-2.422-.693-3.596-1.215-.396.066-.891-.039-1.527-.426-6.824-4.139-13.855-6.621-21.547-6.018-5.758.455-11.578 2.064-17.219 3.445-10.078 2.469-25.174 12.289-34.08 1.553-1.527-1.844-2.598-9.518 1.119-6.686zm-137.827 0c-2.473 1.885-5.328 2.193-8.209 1.781-14.373-13.693-30.936-22.602-48.877-12.568-.465.26-.924.541-1.383.816-8.512 4.715-15.334-.352-19.633-7.408-2.043-3.357-6.064 4.25-4.465 7.186 2.484 4.557 6.225 7.102 10.529 8.385-.398.172-.795.355-1.201.506-2.439.902-4.918.934-7.408.311-3.641-.912-5.949-4.52-9.145-6.303-3.418-1.91-5.938 5.822-4.496 8.672 3.379 6.68 11.377 9.305 17.438 7.969 1.227-.27 2.422-.693 3.598-1.215.395.066.889-.039 1.527-.426 6.822-4.139 13.854-6.621 21.547-6.018 5.756.455 11.576 2.064 17.219 3.445 10.078 2.469 25.174 12.289 34.078 1.553 1.53-1.844 2.598-9.518-1.119-6.686z"/><path fill="#FFF" d="M457.605 569.321c-1.143-1.641 44.162-9.381 65.334-12 32.334-4 72.666 3.666 72.666 3.666s-18.332 34.334-50.332 37.668c-32 3.332-72.334-7.334-87.668-29.334z"/><path d="M424.031 583.347c.781-4.982 2.494-9.07 6.061-12.723 1.389-1.422 2.574-3.76 1.871-5.789-.658-1.904-2.844-1.445-3.973-.256-5.195 5.461-9.904 13.207-8.965 21.072.504 4.223 4.674-.179 5.006-2.304zm192.092-27c4.205 3.059 6.943 7.539 9.783 11.797 2.188 3.275 7.23-4.111 5.248-7.084-3.109-4.66-6.49-9.076-11.215-12.203-2.859-1.893-6.669 5.414-3.816 7.49z"/><path fill="#FF617F" d="M459.483 590.551c12.04 11.943 21.884 26.719 36.624 35.614 13.849 8.357 30.778 9.745 46.451 7.569 28.196-3.914 61.8-22.907 55.104-56.067-.533-2.639-3.677-1.474-4.935-.319-15.196 13.954-33.622 24.522-53.865 28.938-21.204 4.625-43.026.237-62.184-9.37-4.312-2.163-8.335 6.64-6.026 9.753 13.887 18.718 40.627 22.967 62.376 21.281 23.887-1.852 48.683-11.799 61.162-33.24 2.348-4.034-.014-9.157-4.551-5.616-19.102 14.906-42.62 27.728-67.218 29.424-11.04.761-21.97-1.389-31.429-7.243-11.133-6.891-17.777-18.783-22.188-30.736-2.047-5.548-8.849 3.154-7.532 7.125 4.312 13.003 11.467 24.806 22.674 32.931 9.748 7.067 22.122 9.454 33.954 8.958 27.382-1.146 53.434-15.986 74.523-32.444l-4.551-5.616c-10.126 17.4-35.081 23.801-53.586 25.257-19.756 1.555-44.384-2.066-56.865-19.22l-6.026 9.753c20.179 10.371 42.176 14.364 64.559 10.129 22.763-4.308 42.359-17.422 59.381-32.557l-5.146-1.384c5.039 27.565-29.012 38.375-50.552 40.339-14.468 1.319-29.115-1.501-41.539-9.211-12.823-7.958-22.331-20.968-33.506-30.947-3.049-2.725-7.528 4.499-5.109 6.899z"/><path fill="#FF617F" d="M462.278 578.261c32.839-20.439 72.353-18.882 109.131-12.999 4.239.678 8.296-9.275 3.248-10.322-18.826-3.905-37.452-2.234-56.068 1.934-18.317 4.102-36.11 9.56-54.872 11.394l-1.321 10.055c18.606-12.074 40.408-19.793 62.511-21.861a112.955 112.955 0 0 1 33.038 1.785c11.142 2.271 20.754 7.297 30.635 12.665 4.092 2.224 8.293-6.898 4.902-9.619-17.57-14.101-43.64-17.053-65.32-15.172-23.664 2.053-46.33 10.348-66.481 22.761-2.027 1.248-6.494 10.408-1.321 10.055 18.382-1.258 36.068-6.769 53.874-11.093 18.959-4.604 37.906-6.501 57.176-2.58l3.248-10.322c-38.462-6.004-79.858-6.644-112.858 17.001-2.239 1.601-3.499 8.793.478 6.318z"/><path d="M450.537 579.802c8.094 18.01 18.684 42.201 36.445 53.117 16.486 10.133 39.897 8.186 59.774 5.932 39.016-4.428 45.035-43.004 54.998-69.242 1.51-3.975-1.543-3.172-2.779-.186-10.115 24.473-16.369 60.414-53.689 63.207-19.232 1.439-39.834 3.1-55.737-6.396-16.736-9.994-26.002-32.516-35.828-46.973-1.516-2.231-3.184.541-3.184.541z"/><path d="M455.877 581.711c8.808-3.852 16.054-9.526 23.435-15.568 8.709-7.13 18.004-11.732 29.116-13.846 15.783-3.002 33.862-2.732 49.263 1.92 15.152 4.578 28.033 16.188 44.462 16.24 3.012.01 5.854-7.088 2.289-7.271-16.888-.873-30.53-12.929-46.547-17.134-15.076-3.957-31.815-3.355-47.103-.904-10.924 1.752-20.813 6.229-29.516 12.991-7.972 6.194-15.214 12.969-24.56 17.125-2.392 1.063-4.069 7.859-.839 6.447z"/><path d="M425.517 575.729c16.085 7.945 34.309 5.223 51.062 1.138 20.578-5.019 40.802-10.269 62.149-10.104 28.176.219 66.388 18.049 87.121-9.77 1.877-2.518.161-6.177-2.449-3.064-10.34 12.323-25.916 13.23-40.844 11.694-15.309-1.576-30.064-5.214-45.547-5.127-18.504.104-36.474 4.55-54.312 9.002-17.959 4.481-36.746 8.509-54.586 1.141-2.208-.911-4.729 4.036-2.594 5.09z"/><path d="M601.008 565.761c-10.384 8.907-19.915 18.701-30.192 27.702-11.587 10.149-27.064 11.985-41.845 12.274-7.253.142-14.516.321-21.642-1.211-7.565-1.627-14.574-5.691-20.998-9.845-11.816-7.641-21.169-16.698-35.619-18.864-2.832-.424-5.523 6.158-2.165 6.879 15.22 3.266 25.293 14.804 38.153 22.636 6.475 3.943 13.494 6.784 20.957 8.145 7.513 1.371 15.693.675 23.287.369 14.125-.568 28.1-3.578 39.438-12.47 11.525-9.037 21.631-20.313 32.536-30.119 2.561-2.303 2.092-8.93-1.91-5.496z"/><path d="M494.675 585.485v-4c-13.367-1.75-26.967-4.346-40.492-4.021-2.979.072-5.869 7.129-2.289 7.271m146.176-7.591c2.885-.539 5.02-7.646.922-7.086-9.74 1.332-24.605 7.467-33.998 10.5"/></svg>