<svg xmlns="http://www.w3.org/2000/svg" xmlns:xlink="http://www.w3.org/1999/xlink" width="1030" height="1030" viewBox="0 0 1030 1030"><defs><path id="a" d="M1020.377 515.001c0 279.115-226.266 505.377-505.378 505.377-279.111 0-505.377-226.264-505.377-505.377S235.887 9.622 514.999 9.622s505.378 226.266 505.378 505.379z"/></defs><use xlink:href="#a" overflow="visible" fill="#FFBF1F"/><clipPath id="b"><use xlink:href="#a" overflow="visible"/></clipPath><g clip-path="url(#b)"><path fill="#FFBF1F" d="M1021.412 517.214c0 279.115-226.264 505.377-505.377 505.377S10.659 796.327 10.659 517.214 236.922 11.835 516.035 11.835c279.113 0 505.377 226.266 505.377 505.379z"/><path fill="#FC9E17" d="M64.59 301.339c65.699-60.766 147.473-101.363 226.168-142.393 40.814-21.281 80.746-43.73 120.539-66.854 43.205-25.111 87.469-49.598 136.052-62.561-.953-12.574-1.91-25.146-2.863-37.723C469.489 62.96 382.01 118.8 296.631 176.392c-43.969 29.658-87.434 59.996-129.215 92.682-20.033 15.672-39.121 32.311-60.043 46.828-21.764 15.1-44.41 28.885-66.553 43.41-20.463 13.42-40.42 27.699-58.93 43.736-7.092 6.145-11.695 17.17-10.986 26.521.547 7.209 5.93 13.973 13.85 11.199 98.166-34.393 184.33-95.652 268.734-154.941 42.162-29.617 84.25-59.42 128.115-86.494 19.996-12.342 40.24-24.098 59.857-37.074 21.043-13.918 41.816-28.238 62.963-42 37.357-24.314 76.48-48.123 120.033-59.316l-6.715-33.35c-3.625 4.496-11.992 11.266-18.965 15.918-10 6.67-20.648 12.365-31.156 18.178-23.027 12.742-45.09 27.219-67.55 40.936-51.307 31.332-102.535 62.797-153.854 94.113-51.111 31.188-102.326 62.211-153.791 92.816-45.84 27.262-92.238 53.613-137.736 81.449-57.199 34.99-113.605 73.15-161.33 120.578-6.828 6.783-11.732 16.688-10.986 26.52.561 7.365 5.898 13.781 13.85 11.199 51.945-16.859 99.75-43.609 147.504-69.639C94 432.257 145.889 407.882 197.313 382.728c106.723-52.203 213.543-104.201 320.025-156.898 43.588-21.572 87.408-42.348 128.738-68.076 36.969-23.018 73.674-48.996 115.463-62.539-.953-12.574-1.908-25.146-2.865-37.721-32.514 34.457-76.607 55.146-117.219 78.289-50.043 28.516-97.459 62.32-145.693 93.777-48.674 31.742-97.557 62.701-143.463 98.404-36.26 28.201-71.635 58.477-113.41 78.264-71.922 34.062-163.472 55.525-201.33 135.062-3.076 6.463-5.363 14.316-2.91 21.402 1.746 5.039 7.498 9.094 12.934 6.588C147.668 523.179 241.1 464.948 335.032 407.694c46.52-28.355 93.289-56.326 141.23-82.229 49.121-26.541 100.222-49.029 149.863-74.543 51.182-26.305 101.262-54.686 151.104-83.426l-2.959-38.99c-89.508 66.279-184.82 124.035-280.238 181.279-95.316 57.186-189.701 115.123-280.916 178.699-64.773 45.146-142.418 71.596-192.24 135.973-8.809 11.383-11.1 42.221 10.986 31.381 208.225-102.16 408.941-218.58 611.71-330.955 81.105-44.949 162.598-89.213 245.031-131.684-.984-12.996-1.973-25.994-2.959-38.988C684.77 269.935 489.942 395.938 300.086 528.915 223.16 582.794 147.082 637.888 71.738 693.958c-9.188 6.836-16.062 17.881-15.16 29.76.736 9.699 9.592 15.234 18.119 9.229 43.635-30.723 91.014-55.527 138.016-80.598 48.867-26.064 96.422-53.967 143.455-83.207 97.824-60.818 193.595-125.836 295.818-179.223 79.945-41.756 155.398-91.654 236.617-131.035l-7.131-35.752C726.441 362.759 545.96 469.948 368.332 577.765 274.889 634.486 181.494 691.474 91.73 753.931c-9.318 6.484-16.043 18.146-15.162 29.758.801 10.539 9.318 14.158 18.121 9.23 202.516-113.371 408.092-221.234 609.107-337.291 82.611-47.695 164.387-96.848 244.781-148.197l-10.984-31.381c-4.996 7.512-10.377 14.717-16.098 21.689-5.041 6.145-10.836 12.266-18.375 19.707-14.123 13.939-29.66 26.809-45.09 38.273-35.396 26.297-73.572 48.73-112.08 70.107-37.449 20.789-75.582 40.312-113.117 60.945-42.605 23.422-83.598 49.658-124.55 75.828-65.34 41.752-130.41 84.795-198.977 121.15-60.084 31.857-124.109 59.162-173.203 107.688-6.84 6.762-11.732 16.707-10.986 26.521.621 8.164 5.795 12.766 13.852 11.199 27.105-5.268 51.926-18.041 75.643-31.76 24.855-14.379 49.684-28.809 74.537-43.191a10614.796 10614.796 0 0 0 152.232-89.771c49.529-29.773 100.035-57.951 150.666-85.822 50.375-27.73 102.131-51.93 153.662-77.322 67.275-33.148 131.119-72.73 197.16-108.186-3.664-10.463-7.324-20.922-10.986-31.383-5.502 7.193-9.135 10.836-17.041 18.057-7.75 7.076-15.977 13.312-24.516 19.367-18.807 13.338-38.713 25.094-58.617 36.699-43.184 25.18-85.117 51.793-126.223 80.277-91.951 63.715-180.73 131.844-272.466 195.85-62.605 43.68-127.018 85.396-195.643 119.062.984 12.998 1.973 25.994 2.959 38.99 48.336-27.512 98.725-51.109 148.232-76.383 25.086-12.807 49.887-26.168 74.098-40.572 24.189-14.391 46.895-30.896 69.808-47.201 23.254-16.545 46.578-32.992 70.564-48.465 23.51-15.168 48.086-28.535 72.549-42.078 48.807-27.02 97.926-53.48 146.336-81.211 61.398-35.17 121.52-72.686 178.059-115.307-3.662-10.461-7.322-20.922-10.984-31.381-59.982 69.826-146.119 119.631-225.496 166.939-91.051 54.268-181.008 110.705-269.408 169.203-41.197 27.26-81.385 55.869-121.205 85.092-39.393 28.914-78.959 57.732-121.234 82.348-9.594 5.584-15.99 18.82-15.16 29.758.842 11.066 9.201 13.475 18.119 9.23 100.961-48.053 196.105-107.057 291.246-165.518 47.797-29.369 95.674-58.625 144.385-86.459 47.674-27.238 96.568-52.016 145.609-76.67 75.025-37.713 150.205-76.055 218.391-125.428l-7.133-35.75c-33.609 33.213-76.088 55.598-117.895 76.719a4046.137 4046.137 0 0 0-133.637 70.689c-99.297 54.922-199.127 109.008-295.386 169.18-39.695 24.812-79.178 50.248-116.166 78.982-32.521 25.262-64.553 53.299-102.4 70.43-8.953 4.055-15.018 11.32-17.994 20.766-1.854 5.883-3.031 24.236 8.273 22.725 45.449-6.074 87.678-22.926 128.725-42.799 43.949-21.275 85.809-46.65 127.57-71.857 92.402-55.779 188.996-103.605 284.82-153.17 30.955-16.012 61.799-31.988 92.061-49.281 29.732-16.99 59.461-33.979 89.189-50.969 9.617-5.496 15.986-18.891 15.16-29.758-.803-10.576-9.309-14.111-18.119-9.23-104.189 57.711-206.855 118.117-308.768 179.746-51.145 30.93-102.088 62.188-152.947 93.584-44.667 27.572-85.541 60.625-129.552 89.188-21.201 13.756-43.26 26.518-67.014 35.328-.438 13.652-.873 27.305-1.309 40.957 171.867-107.34 370.171-160.402 549.3-253.342 47.312-24.547 93.094-52.107 136.094-83.643 9.217-6.758 16.059-17.938 15.16-29.76-.758-9.986-9.484-14.867-18.119-9.229C824.264 729.44 638.674 860.724 439.864 970.419a2775.644 2775.644 0 0 1-59.695 31.969l7.133 35.752c73.348-58.309 162.89-92.967 248.279-129.312 44.957-19.137 89.818-38.742 132.914-61.836 22.314-11.959 44.49-24.162 66.002-37.533 23.461-14.584 46.564-29.75 71.244-42.24-4.762-8.674-9.527-17.348-14.291-26.021-3.254 5.631 2.84-4.268-.768 1.271-1.092 1.672-2.266 3.291-3.436 4.908-1.197 1.656-2.473 3.256-3.744 4.855-.225.285-4.666 5.496-1.594 2.025-6.42 7.246-13.553 13.844-20.875 20.158-14.346 12.365-31.18 23.664-48.143 34.455-35.631 22.666-73.098 42.25-109.025 64.42-39.855 24.594-76.525 54.361-114.168 82.133-42.477 31.334-86.009 61.828-133.525 85.104-8.502 4.166-17.229 7.842-26.043 11.295l2.865 37.721c61.736-53.27 143.855-80.49 220.312-108.334 80.787-29.42 162.883-61.467 226.771-120.973 7.469-6.955 14.518-14.354 21.268-22.004 7.162-8.117 13.979-19.857 10.07-31.133-3.467-10.01-15.477-8.066-21.375-1.381-114.229 129.438-307.65 132.047-443.066 231.178a405.602 405.602 0 0 0-25.287 20.133c-7.098 6.125-11.695 17.186-10.988 26.523.529 6.965 5.992 14.279 13.852 11.197 97.134-38.068 176.13-109.006 260.494-168.248 66.98-47.033 147.924-76.375 205.262-136.568 10.398-10.916 19.23-22.635 26.768-35.684 7.1-12.287 4.059-35.305-14.293-26.02-23.682 11.982-45.957 26.396-68.42 40.475-22.416 14.049-45.568 26.727-68.83 39.299-42.02 22.705-85.975 41.566-129.891 60.242-90.246 38.379-182.228 75.838-259.646 137.379-7.227 5.744-11.674 17.469-10.986 26.521.82 10.785 9.258 13.842 18.119 9.23C584.748 936.47 771.74 806.556 960.963 681.343a11285.786 11285.786 0 0 1 56.154-36.924l-2.959-38.988c-164.07 120.318-362.51 176.99-545.044 261.854-48.148 22.383-95.297 46.992-140.35 75.131-8.23 5.139-13.768 14.979-14.994 24.48-1.043 8.053 3.027 20.43 13.684 16.479 48.654-18.047 91.17-48.994 132.91-79.129 45.078-32.541 91.929-61.576 139.314-90.625 101.834-62.436 204.24-123.967 307.941-183.266a7368.069 7368.069 0 0 1 86.652-48.766l-2.959-38.988c-51.547 29.457-102.701 59.619-155.439 86.898-53.777 27.818-107.555 55.633-161.336 83.449-43.93 22.723-87.301 45.756-129.695 71.246-41.771 25.117-83.296 50.699-126.521 73.277C377.1 879 332.298 899.393 285.77 905.612c-3.242 14.498-6.48 28.994-9.721 43.49 47.463-21.482 85.908-55.805 127.18-86.811 44.621-33.523 92.951-62.742 140.675-91.576 96.973-58.586 197.006-111.867 295.912-167.064 73.6-41.076 157.643-70.725 218.6-130.963 6.844-6.76 11.734-16.709 10.988-26.521-.729-9.592-9.637-15.373-18.119-9.23-88.59 64.145-188.592 109.527-285.453 159.373-99.426 51.166-193.67 111.625-289.091 169.732-73.314 44.643-147.525 88.053-225.086 124.969.986 12.996 1.975 25.992 2.959 38.988 49.189-28.641 94.676-62.945 140.545-96.504 46.477-34 94.139-66.234 142.511-97.467 87.035-56.191 175.35-110.045 263.912-163.752 74.689-45.295 149.064-94.295 206.426-161.074 5.668-6.598 9.145-18.316 6.217-26.762-2.553-7.369-11.104-9.217-17.201-4.619-89.629 67.562-188.066 121.631-286.24 175.51-49.328 27.074-98.404 53.916-144.787 85.881-23.352 16.092-46.291 32.777-69.5 49.068-23.092 16.205-47.428 30.418-72.158 43.965-61.566 33.727-125.932 62.055-186.961 96.791-9.623 5.477-15.984 18.906-15.162 29.76.834 10.973 9.221 13.596 18.121 9.23 98.893-48.512 189.041-113.174 277.8-177.871 89.326-65.109 177.654-132.875 271.783-191.008 55.475-34.266 120.367-62.553 160.975-115.648 5.389-7.047 9.264-17.969 6.217-26.762-2.84-8.197-10.652-8.139-17.203-4.621-49.32 26.479-97.432 55.121-146.602 81.871-49.906 27.152-102.033 49.65-152.422 75.84-103.297 53.692-202.541 114.397-302.912 173.233a11372.038 11372.038 0 0 1-97.148 56.283c-30.902 17.713-60.723 37.979-96.279 44.889l2.865 37.721c33.756-33.367 76.162-55.738 118.041-77.18 45.688-23.391 90.238-48.039 134.129-74.68 87.598-53.176 171.679-111.859 262.07-160.354 54.957-29.484 110.543-57.98 162.961-91.898 49.711-32.166 98.854-70.18 131.992-120.016 5.023-7.557 9.406-17.564 6.219-26.762-2.701-7.791-10.855-8.674-17.203-4.621-195.874 125.102-399.876 236.655-603.807 347.893-83.527 45.561-167.061 91.117-250.082 137.596l2.959 38.988c170.951-118.941 354.396-218.406 528.24-332.895 94.266-62.08 185.904-128.777 269.848-204.379 7.025-6.326 11.707-17.035 10.988-26.521-.836-11.01-9.213-13.549-18.121-9.23-51.248 24.85-100.295 53.832-149.523 82.396-49.637 28.799-100.666 55.018-150.332 83.748-99.656 57.645-195.208 122.086-293.779 181.537-72.496 43.723-150.875 77.516-220.271 126.383l2.959 38.988c185.014-137.684 374.572-269.338 569.66-392.373 80.434-50.727 161.848-99.902 244.246-147.373 9.607-5.535 15.988-18.861 15.162-29.76-.822-10.814-9.252-13.799-18.121-9.229-206.174 106.221-406.21 223.748-609.96 334.453-81.455 44.258-163.553 87.352-246.781 128.186 3.66 10.463 7.322 20.922 10.984 31.383 25.775-33.309 66.303-56.533 103.787-77.648 19.877-11.199 39.891-22.156 59.18-34.355 21.949-13.881 42.736-29.654 64.248-44.203 92.355-62.465 188.979-118.262 284.289-176.014 77.074-46.703 153.373-94.857 225.838-148.516 9.197-6.811 16.061-17.9 15.16-29.76-.793-10.436-9.346-14.291-18.119-9.23-48.865 28.18-97.98 55.93-148.08 81.867-49.613 25.688-100.764 48.18-150.025 74.562-96.332 51.592-187.564 112.021-281.982 166.92-45.947 26.715-92.727 52.25-141.02 74.496l10.023 27.99c.941-1.98 1.92-3.936 2.938-5.881.277-.529 3.928-6.719 1.068-2.127 2.277-3.656 4.848-7.123 7.494-10.518.166-.217 4.736-5.592 1.713-2.197 1.438-1.613 2.949-3.158 4.457-4.703 3.551-3.637 7.363-7.01 11.248-10.285 4.771-4.025 12.172-9.08 19.402-13.619 8.459-5.309 17.279-10.027 26.193-14.512 34.471-17.342 71.244-29.699 106.115-46.215 43.146-20.439 79.836-52.666 117.23-81.818 44.832-34.949 93.141-64.873 140.709-95.896 48.037-31.33 95.283-64.803 145.125-93.205 42.926-24.461 88.732-46.936 123.104-83.359 6.682-7.084 11.748-16.467 10.986-26.521-.561-7.365-5.898-13.775-13.852-11.199-49.908 16.174-93.238 47.807-137.598 74.861-48.916 29.832-102.051 53.268-153.392 78.592-106.678 52.613-213.653 104.616-320.471 156.939-43.397 21.258-86.617 42.541-129.03 65.715-40.357 22.047-80.934 43.73-124.822 57.979l2.863 37.723c72.18-71.732 163.498-120.635 250.486-171.762 103.367-60.754 205.49-123.592 307.752-186.184 31.838-19.49 63.287-39.891 95.542-58.646 28.137-16.359 57.43-30.23 78.303-56.137 6.779-8.412 13.279-38.49-6.717-33.35-47.432 12.189-90.469 38.453-131.14 64.924-21.107 13.74-41.836 28.055-62.842 41.949-19.619 12.977-39.934 24.668-59.936 37.012-88.904 54.875-170.568 120.623-260.035 174.662-39.995 24.156-81.581 45.8-125.747 61.277.955 12.572 1.91 25.146 2.863 37.721 39.104-33.881 85.59-57.932 127.51-87.986 21.174-15.182 40.631-32.545 61.215-48.488 20.629-15.977 41.775-31.275 63.117-46.279 86.078-60.504 176.02-115.529 257.793-181.998 18.234-14.82 35.914-30.312 52.96-46.484 6.924-6.572 11.721-16.852 10.986-26.521-.586-7.715-5.842-13.336-13.852-11.199-49.3 13.154-94.818 37.832-138.792 63.143-40.959 23.574-81.777 46.955-123.684 68.824-82.873 43.246-167.969 86.252-237.164 150.254-7.75 7.166-13.725 20.592-10.07 31.133 3.687 10.636 15.029 7.251 21.374 1.378z"/></g><path fill="#D8724A" d="M393.495 707.685l-.002.005z"/><path fill="#FFE5B8" d="M758.015 349.16c-.571.196-1.147.394-1.719.588v-.104l-.365.231c-13.842 4.761-22.775 3.938-31.55 2.164 1.692-5.994 2.99-12.169 3.965-18.427.802-.027 1.639-.312 2.368-.796 3.147-2.088 4.901-6.304 4.821-10.187-.238-11.476-1.172-22.937-2.9-34.21-18.194-8.685-36.887-16.33-56.074-22.732-80.648-26.909-170.233-31.233-252.1-6.513-36.948 11.157-70.639 32.76-94.12 63.661-14.856 19.552-25.243 41.747-31.433 65.175a210.2 210.2 0 0 0 15.964-2.576c-6.42 3.419-12.357 6.955-17.916 10.65-2.556 11.573-4.126 23.4-4.726 35.32-.055 1.096-1.764 1.103-1.709 0 .574-11.365 1.958-22.712 4.271-33.863-.733.504-1.464 1.009-2.187 1.517-8.031 5.673-13.817 15.828-15.099 26.507-.572 4.767.002 11.855 3.507 16.146 1.864 2.284 4.387 3.493 7.341 3.493 18.223-.082 37.325-1.746 58.044-5.071-23.618 10.944-48.141 22.947-71.918 37.348-8.948 5.416-14.083 17.249-15.201 26.572-.741 6.171.563 11.996 3.491 15.579 2.794 3.426 6.937 4.654 11.71 3.432 19.482-4.974 36.578-9.493 52.281-13.833a1559.47 1559.47 0 0 0-11.457 5.32l-1.011.267-.033.239c-9.979 5.109-17.048 15.83-18.539 28.24-.739 6.178.56 12.019 3.503 15.619 2.801 3.435 6.915 4.646 11.677 3.39l2.044-.554c-.421.234-.935.47-1.354.706l-.392.056v.059c0 .593-1.939 1.185-3.001 1.774-8.482 4.727-13.909 16.959-15.068 26.605-.741 6.182.58 12.034 3.536 15.654 2.805 3.438 6.939 4.638 11.69 3.348a694.338 694.338 0 0 0 30.28-8.997c-7.256 7.601-13.615 23.835-11.141 34.018 1.627 6.703 6.829 9.849 14.534 8.654a380.422 380.422 0 0 0 21.518-3.969c-2.795 4.732-4.649 10.186-5.318 15.765-.551 4.594.106 11.553 3.777 16.046 2.858 3.502 6.98 4.56 11.573 2.918 3.281-1.176 6.565-2.348 9.853-3.51-3.724 5.294-6.19 11.635-6.974 18.176-.755 6.296.404 11.686 3.271 15.195 2.729 3.346 6.878 4.675 11.808 3.815.653-.114 1.307-.264 1.958-.382l.125-.223c6.643-1.166 13.296-2.615 19.96-3.81-3.497 8.419-5.243 17.966-1.876 24.017.933 1.68 2.577 3.027 5.394 3.667 1.135.469 2.464.723 4.007.725l.049.002c5.237-.013 10.489-.09 15.752-.213 10.061.088 20.058.104 29.875-.539.594 5.513 3.158 10.676 7.337 12.662 11.863 5.635 25.162 8.492 39.521 8.492 30.584 0 61.608-12.898 82.283-22.602 39.315-18.455 74.943-42.667 107.59-66.088l.906-.547-.009-.118c9.343-7.19 15.234-20.056 14.414-31.687-.576-8.177-5.219-13.46-11.823-13.46-.425 0-.857.024-1.29.069 10.555-9.093 19.396-18.951 26.797-29.851 5.116-7.533 9.424-19.174 6.182-29.247-1.367-4.246-4.231-7.121-7.915-8.093a252.35 252.35 0 0 0 5.653-5.561c7.41-7.521 11.745-18.821 11.04-28.79-.478-6.765-4.685-13.958-11.538-13.958-1.321 0-2.681.28-4.042.831a1509.87 1509.87 0 0 1-6.28 2.531c7.26-5.492 12.647-15.369 13.881-25.637.577-4.822-.402-11.967-3.92-16.277-2.885-3.532-6.996-4.508-11.5-2.662-.539.222-1.084.443-1.631.666l.01-.319-1.194.796c-.88.353-1.768.708-2.664 1.063a353.422 353.422 0 0 0 17.818-16.336c5.773-5.675 9.845-14.271 10.894-22.994.616-5.151-.229-12.151-3.516-16.177-.914-1.117-1.986-1.977-3.199-2.56a811.366 811.366 0 0 0 17.58-10.769c8.958-5.649 14.074-17.408 15.174-26.558.728-6.041-.738-12.312-3.729-15.979-2.848-3.483-6.974-4.569-11.596-2.989zm-331.928-46.4c.911-.439 1.827-.88 2.74-1.317.047.119.094.239.139.359-.962.319-1.923.636-2.879.958zm92.212-3.538a23.563 23.563 0 0 0-.194-2.25c4.164 2.462 8.237 5.112 12.232 7.837a583.975 583.975 0 0 1 4.8 3.313c-6.002-2.84-11.623-5.772-16.838-8.9zm165.267 49.832a81.643 81.643 0 0 0 2.858-3.377c.462 1.117.913 2.24 1.368 3.36-1.167.003-2.616.008-4.226.017z"/><path fill="#FFBF1F" d="M704.007 642.233l.1-.245c-.094.184-.119.254-.1.245z"/><path fill="#EF6100" d="M759.217 931.61c-8.168-32.985-21.83-64.741-40.681-92.593a216.215 216.215 0 0 0-4.222-8.179c-.2-6.189-2.15-11.661-7.305-12.547-4.659-7.486-9.661-14.677-14.815-21.512-27.107-35.938-63.562-59.665-107.818-68.505-45.45-9.083-93.005-1.595-138 6.56-40.208 7.29-83.529 12.139-117.211 37.343-11.837 8.856-21.367 19.325-29.196 30.9-5.445 5.392-10.522 11.2-15.148 17.461a135.361 135.361 0 0 0-2.683 3.767c-9.632 11.77-18.909 23.854-28.537 35.449-6.149 7.4-11.185 22.796-4.358 31.319 2.033 2.541 4.381 3.615 6.821 3.722-1.217 8.811-1.872 17.724-2.04 26.642-1.878 3.358-2.875 7.225-2.188 10.24-3.062 5.446-4.014 12.598.425 15.605.939.635 1.884 1.255 2.829 1.878.841 3.767 3.22 4.577 5.915 3.774.408.251.819.5 1.227.749 1.533 3.145 4.33 5.219 8.893 5.2 10.947 6.118 22.306 11.479 33.948 16.205-.022.911-.016 1.83.055 2.763.625 8.241 5.976 13.331 14.25 11.521a173.187 173.187 0 0 0 14.662-3.908c19.599 6.164 39.665 10.925 59.633 14.828 44.121 8.623 89.99 12.812 134.892 14.068 54.938 1.535 141.635-4.281 183.006-48.535a581.094 581.094 0 0 0 38.123-15.524c6.933-3.108 11.393-11.144 9.523-18.691zm-47.841-19.2a94.362 94.362 0 0 0 6.146-9.845 86.46 86.46 0 0 1 .528 7.927 300.816 300.816 0 0 0-6.674 1.918zm-399.272 31.953c9.95-5.369 19.48-11.571 28.575-17.763 1.394-.949 2.766-1.928 4.152-2.894-9.028 7.309-17.576 15.115-25.429 23.594a198.368 198.368 0 0 1-7.298-2.937zm215.419-181.778c-10.168 4.569-20.09 9.74-29.813 15.22 3.95-4.463 7.019-9.624 8.647-15.332 7.064-.111 14.125-.098 21.166.112zm74.458 12.668c-10.883 6.761-21.924 13.253-33.009 19.67 3.98-7.309 7.363-14.997 9.987-23.131.31-.957.569-1.979.775-3.035 7.492 1.717 14.912 3.853 22.247 6.496zM281.72 894.843a246.79 246.79 0 0 0 6.037-2.924 198.25 198.25 0 0 0-7.823 10.489 1068.46 1068.46 0 0 1 1.658-7.507l.128-.058zm123.327-16.386c22.012-16.358 45.918-30.206 69.159-44.724 14.613-9.129 29.453-17.965 44.923-25.384a301.685 301.685 0 0 1-4.115 3.634c-9.523 8.267-17.098 13.66-28.471 21.446-12.035 8.237-24.433 15.938-36.884 23.524-25.776 15.705-53.51 30.631-79.244 47.959 11.549-8.814 22.978-17.793 34.632-26.455zm115.558-11.643c-15.934 10.791-32.313 20.879-48.786 30.814 21.189-15.977 43.066-29.792 66.145-42.923-5.684 4.105-11.47 8.12-17.359 12.109zm-62.664 91.734c-4.265 2.934-7.972 6.978-10.699 11.604-4.432-.29-8.864-.606-13.292-.96a5983.09 5983.09 0 0 0 23.991-10.644zm241-90.874a164.314 164.314 0 0 0 5.562-8.307 222.537 222.537 0 0 1 1.912 4.369 350.599 350.599 0 0 0-7.474 3.938zm-44.658-28.663a494.709 494.709 0 0 0 11.316-13.663c1.801-2.254 3.411-4.959 4.677-7.889a218.5 218.5 0 0 1 9.677 9.673 422.994 422.994 0 0 0-25.67 11.879zm-7.971-40.916c-7.432 4.976-14.45 10.483-21.308 16.197 4.734-6.947 9.05-14.176 12.867-21.709a196.236 196.236 0 0 1 8.441 5.512zM515.408 967.167a195.152 195.152 0 0 0-5.51 5.77c-1.162-.03-2.323-.065-3.485-.101a880.201 880.201 0 0 0 8.995-5.669z"/><path fill="#FFE5B8" d="M568.742 721.392a42.859 42.859 0 0 0-2.572-1.08c-1.301-4.397-3.139-8.787-5.531-13.183-5.607-10.303-20.127 1.739-23.918 6.859a41.237 41.237 0 0 0-2.185 3.275c-8.344.833-16.552 2.554-23.849 4.362-16.203 4.021-33.269 14.05-41.23 28.626a79.293 79.293 0 0 0-.708-.76c-1.482-1.567-2.731-3.325-3.899-5.132.762 1.114-1.06-2.158-1.208-2.509-.629-1.48-1.08-3.025-1.533-4.565a77.81 77.81 0 0 0-.194-.643 34.41 34.41 0 0 0-.157-1.288c-.249-1.807-.309-3.634-.374-5.455-.006-.208-.015-.396-.021-.567.055-.333.125-.919.212-1.879.198-2.135.58-4.252.957-6.363 1.591-8.913-3.373-20.204-14.08-16.952-11.424 3.469-45.905 35.444-47.841 46.293-3.317 18.601 2.944 57.057 14.519 72.593 9.564 12.835 54.29 47.957 69.689 49.363 14.715 1.346 88.375-14.203 101.63-20.327 2.05-.612 33.862-60.135 35.812-60.979 0 0-10.473-49.363-27.101-46.458 4.401-5.68-27.265 11.532-24.268 5.13 3.437-7.34 8.153-23.589-2.15-28.361z"/><path fill="#EAA286" d="M558.004 742.527c-16.431 9.093-35.449 12.637-54.1 12.014-18.598-.618-39.41-5.146-50.742-21.196-3.51-4.972-9.401 7.38-8.291 10.74 14.636 44.366 71.904 49.55 108.725 31.112 7.719-3.866 12.58-12.777 13.698-21.121.681-5.071-1.62-15.793-9.29-11.549z"/><path d="M293.887 873.074c9.809.865 21.276 4.499 25.596 14.235 3.983 8.979 3.791 20.364 3.589 29.998-.234 10.905-1.854 21.797-2.966 32.636-.839 8.161-3.83 21.425 1.259 28.544 5.304 7.419 13.149-9.179 13.672-12.616 1.51-9.961-.314-21.111-.041-31.276.312-11.559.684-23.159-.788-34.656-1.243-9.697-4.877-17.933-11.984-24.713-7.802-7.439-18.151-6.67-27.871-4.289-.625.155-1.421 2.055-.466 2.137zm355.883 5.005c2.443 8.432 6.204 16.326 9.215 24.57 3.626 9.917 5.588 20.342 7.559 30.682 4.016 21.074 5.587 42.603 8.737 63.815.155 1.05.419 3.304 1.85 3.602.421.09.845.176 1.266.268 2.632.549 4.777-2.048 5.691-4.275 3.81-9.295.391-20.162-.812-29.879-1.485-12.007-3.47-23.951-5.838-35.818-2.338-11.711-5.612-23.159-10.247-34.174-3.421-8.135-7.747-17.105-16.665-19.937-.513-.168-.863.771-.756 1.146z"/><path d="M687.062 846.551c-13.835 5.064-25.816 13.189-35.175 24.618-1.562 1.905-3.04 4.785-2.246 7.329 1.015 3.254 4.279.294 5.343-1.168 8.05-11.085 18.895-19.065 31.268-24.762 1.89-.871 3.911-7.153.81-6.017z"/><path fill="#FF8A0B" d="M397.363 805.697a2.7 2.7 0 0 1 .728.071l-.676-.176c.221.067.415.162.598.302l-.534-.439c.169.145.303.307.416.498l-.347-.646c.113.212.192.432.241.666l-.159-.801c.017.09.032.18.037.271.033.716.348 1.521 1.024 1.865.69.352 1.495.112 2.111-.268.854-.526 1.511-1.359 1.961-2.243.487-.956.632-1.853.662-2.905a4.299 4.299 0 0 0-.398-1.871c-.626-1.342-1.656-2.139-3.169-2.252-.845-.063-1.685.49-2.265 1.038-.8.756-1.389 1.753-1.719 2.8-.278.883-.404 1.906-.093 2.803.229.662.818 1.307 1.582 1.287z"/><path fill="#EAA286" d="M743.087 453.026a462.61 462.61 0 0 1-2.893 9.871c-5.399 17.647-1.717 34.926-8.748 51.969-1.537 35.343-24.219 70.729-40.922 101.112a207.921 207.921 0 0 1-5.762 9.83c-19.58 26.108-44.595 48.12-73.108 64.016-38.213 21.306-82.673 29.812-126.026 23.998-13.637-1.829-27.138-4.993-40.107-9.552-17.931-7.562-34.814-17.659-50.076-29.721-9.722-7.685-18.703-16.269-26.876-25.568-18.088-24.157-35.498-52.94-42.825-82.117-9.399-37.422-26.372-76.375-26.832-114.846a850.79 850.79 0 0 1 .051-23.151c-8.432 4.73 2.752 8.185-6.633 9.85-1.092 20.997-.559 42.072 1.668 62.955 5.126 48.024 18.848 97.3 45.73 137.872 41.913 63.25 116.924 103.052 193.193 96.655 39.688-3.329 76.668-19.243 107.789-43.823 23.494-18.555 42.398-41.669 57.197-67.32 13.374-19.493 24.069-40.818 32.054-63.051 5.696-15.86 10.071-32.803 12.649-49.456 2.967-19.167.768-38.768.704-58.046a4.928 4.928 0 0 0-.227-1.477z"/><path d="M390.804 746.094c-1.934 40.923 9.049 84.699 40.465 112.958 32.547 29.275 83.414 34.514 123.078 17.521 52.985-22.7 77.121-86.221 63.508-140.591-.792-3.164-4.362-3.185-6.636-1.782-3.559 2.194-6.344 7.244-5.849 11.479 2.499 21.35 3.801 41.846-2.832 62.65-5.291 16.596-15.505 31.409-30.251 42.001-34.313 24.645-86.331 24.538-121.425 1.8-36.423-23.6-50.174-69.712-49.125-111.069.064-2.523-2.123-4.441-4.573-3.698-3.353 1.017-6.199 5.312-6.36 8.731z"/><ellipse fill="#FFAD9F" cx="672.937" cy="521.958" rx="27.581" ry="26.521"/><ellipse fill="#FFAD9F" cx="360.833" cy="523.411" rx="27.582" ry="26.52"/><path fill="#EAA286" d="M294.738 456.68c-11.471-10.916-28.759-25.392-45.971-18.498-19.339 7.746-29.6 29.475-31.303 49.255-2.084 24.237 7.876 71.994 42.235 62.37 14.093-3.948 25.343-16.752 33.483-28.171 5.655-7.929 11.502-22.399 4.361-31.318-7.109-8.873-19.244.304-23.917 6.859a108.116 108.116 0 0 1-4.367 5.729c-2.768 3.379 3.991-4.371 1.135-1.298a58.058 58.058 0 0 1-2.074 2.078 46.16 46.16 0 0 1-2.036 1.821c-2.764 2.38 4.501-3.332 1.646-1.291-1.208.866-2.503 1.597-3.83 2.26 6.149-3.068 2.027-.978.151-.523-2.607.633 4.565-.479 1.95-.23-.555.055-1.117.045-1.674.033-1.637-.031-5.459-1.264.18.375-1.208-.351-2.346-.923-3.432-1.552-3.509-2.035.335.517-.026.192-.888-.79-1.68-1.685-2.444-2.595-.809-.962-1.523-2.001-2.209-3.05-.357-.549-.686-1.115-1.015-1.678-1.347-2.319 2.201 4.359.488.796-1.229-2.56-2.176-5.251-2.991-7.972a64.138 64.138 0 0 1-1.092-4.279c-.7-3.107.933 4.967.37 1.827a70.109 70.109 0 0 1-.447-2.948c-.394-2.927-.555-5.881-.555-8.832-.002-3.334-.245 5.863-.088 2.558.035-.708.096-1.413.155-2.117.117-1.368.316-2.729.549-4.083.782-4.589-1.825 6.792-.257 1.4.176-.602.382-1.19.59-1.778 1.137-3.23-2.932 6.851-1.543 3.762 2.339-5.21-2.269 3.281-1.427 2.048 2.895-4.261-4.902 4.663-1.115 1.327-5.373 4.73-4.232 3.152-2.629 2.111 1.282-.831 3.846-1.791-2.56 1.074.974-.435 2.017-.69 3.06-.882-6.016 1.115-2.086.312-.202.451.639.049 1.272.159 1.903.269 2.442.423-4.252-1.327-.506-.106 3.313 1.08 6.386 2.846 9.301 4.722 1.829 1.178 3.566 2.495 5.279 3.836-3.167-2.477.147.151.645.586 1.354 1.176 2.656 2.405 3.955 3.64 8.182 7.786 18.392.606 23.917-6.86 5.05-6.819 12.346-23.717 4.357-31.318z"/><path d="M288.12 452.046c-16.385-10.769-39.244-20.454-57.113-7.286-14.434 10.636-18.337 31.178-17.3 47.98 1.108 17.933 8.33 37.343 22.503 48.988 15.699 12.898 39.871 11.686 54.082-2.997 1.192-1.232 5.224-10.752.47-9.958-8.689 1.453-16.018 6.392-25.064 6.91-7.354.421-14.292-1.941-20.399-5.916-12.735-8.297-19.938-24.492-22.301-39.007-1.948-11.974-1.637-27.824 8.536-36.247 14.909-12.347 38.291-1.727 52.761 5.741 2.972 1.532 6.638-6.357 3.825-8.208z"/><path d="M242.28 495.541c6.002-7.38 14.039-13.021 23.831-13.146 10.797-.135 13.188 9.44 17.277 17.275 1.866 3.577 5.983-4.336 6.135-5.659 1.372-12.039-4.694-24.028-18.039-24.265-13.074-.233-24.829 10.82-31.731 20.768-1.803 2.601-.916 9.26 2.527 5.027z"/><path d="M289.945 489.455c-7.782-.32-17.541-.4-23.046 6.115-5.447 6.441-4.373 16.193.298 22.772 2 2.822 5.279-4.181 4.681-6.059-.854-2.679-4.83-9.718-1.96-12.198 4.571-3.952 12.488-4.059 18.155-4.359 2.272-.122 4.675-6.157 1.872-6.271zM433.32 731.57c-53.057.238-113.298.182-148.399 47.223-15.544 20.829-23.764 45.644-28.594 70.922-4.828 25.26-7.121 52.189-4.256 77.71.596 5.316 5.333-1.204 5.755-3.368 8.719-44.679 5.669-94.691 32.909-133.69 30.805-44.111 92.865-37.147 139.083-47.071 3.739-.802 9.018-11.75 3.502-11.726zm143.402 16.32c25.14-1.981 52.036-.745 75.929 7.93 21.518 7.812 37.941 23 51.48 41.012 14.432 19.201 22.937 41.367 30.955 63.771 8.162 22.802 14.755 46.444 19.385 70.205 1.404 7.202 11.102-4.935 10.401-9.57-7.666-50.64-16.561-101.639-48.039-143.694-13.87-18.53-33.72-32.793-55.713-39.889-28.102-9.062-56.503-3.926-83.522 6.225-1.023.385-2.695 4.151-.876 4.01z"/><path fill="#2F61DD" d="M290.349 315.334c11.275-9.001 76.285-67.895 151.543-63.714 75.259 4.181 169.395 5.602 169.395 5.602S492.271 86.129 466.554 118.346c-25.715 32.219-176.205 196.988-176.205 196.988z"/><path d="M426.01 199.525c-16.065 19.728-18.684 45.714-4.193 67.062 2.922 4.305 9.108-5.343 6.766-9.134-4.833-7.821-7.952-16.333-8.247-25.567-.317-9.926 4.257-19.006 10.325-26.543 3.768-4.681.192-11.765-4.651-5.818z"/><path fill="#FFBF1F" d="M393.31 190.831c18.613-8.572 39.044-17.736 59.782-19.052 14.595-.926 27.866 3.458 39.486 12.23 14.668 11.073 25.108 27.43 35.424 42.324 12.126 17.509 22.862 35.772 33.739 54.066 23.166 38.966 47.021 77.881 76.28 112.645 26.267 31.207 58.863 61.426 99.727 70.797 7.059 1.619 12.177 1.293 15.984-5.828 2.939-5.5 3.249-10.906 2.216-16.936-1.302-7.601-8.545.172-9.147 4.211a162.242 162.242 0 0 1-.759 4.706c-.725 4.044 2.187-1.46.021.269l6.238-1.823c-4.107-1.639-8.678-1.997-12.941-3.17-4.742-1.305-9.369-3.007-13.901-4.91-9.077-3.81-17.631-8.8-25.75-14.341-17.744-12.11-33.082-27.531-47.139-43.681-29.896-34.345-54.022-73.385-77.331-112.354-10.802-18.058-21.348-36.122-33.415-53.377-10.956-15.666-22.855-31.217-37.812-43.29-11.463-9.253-25.09-14.074-39.85-13.63-19.078.573-37.913 7.986-54.989 15.896-5.236 2.426-10.448 4.894-15.613 7.469-2.621 1.307-4.099 9.552-.25 7.779zm-78.213 39.596c-14.51 26.672-24.211 55.828-34.004 84.48-1.371 4.011-1.836 10.91 2.729 13.236 4.412 2.248 10.091-1.989 12.313-5.572 9.096-14.671 15.349-30.418 19.57-47.141 3.904-15.466 7.875-31.767 9.313-47.668.356-3.942-.455-9.672-5.549-9.912-6.484-.305-11.079 7.189-12.875 12.402-4.678 13.583-6.382 29.518-9.465 42.661-3.407 14.526-7.207 26.269-14.581 38.446l17.056 4.401c8.625-26.551 17.247-53.101 28.716-78.596 1.739-3.867 4.048-11.616-1.079-14.229-5.071-2.582-10.118 3.768-12.144 7.492z"/><path fill="#163663" d="M905.467 718.93c-12.816-24.694-22.203-50.879-29.094-77.803-5.738-22.422-10.523-44.357-14.57-67.144.031-34.632 1.854-69.762.676-104.329 2.471-2.166 4.539-4.481 5.852-6.255 7.233-9.773-7.292-54.112-13.817-62.625-.759-3.407-1.586-6.8-2.48-10.177-.283-5.255-.884-10.5-1.504-15.645-1.72-14.258-2.731-28.575-4.753-42.806-4.021-28.328-10.169-56.787-20.507-83.551a484.449 484.449 0 0 0-1.582-5.841c-5.438-19.523-14.083-38.256-25.558-54.97-9.684-14.101-21.671-26.285-35.019-36.929-32.817-35.431-73.539-64.435-117.454-83.854-31.74-14.033-65.131-21.464-99.631-24.026-33.174-2.466-68.461.647-100.393 10.028-34.51 10.136-64.942 32.895-75.94 68.366-2.685 8.664-3.869 17.431-3.817 26.152-10.171-2.713-20.875-3.111-31.4-1.386-19.346 3.168-36.188 16.92-47.014 32.703-11.322 16.508-17.763 36.18-22.938 55.364-5.661 20.989-9.514 42.533-11.888 64.134-4.583 41.741-4.73 84.874 4.24 126.047 1.025 4.71 5.951 6.772 10.246 5.937-.455 4.448.169 9.732 5.51 9.983 6.812.32 11.096-7.407 13.182-12.698 9.229-23.424 15.211-48.157 23.055-72.076.927-2.83 2.042-5.608 3.127-8.378a.098.098 0 0 1 .006-.014c.073-.174.159-.372.261-.615.576-1.351 1.184-2.69 1.792-4.03 2.344-5.155 5-10.189 7.846-15.089.398-.645 1.09-1.772 1.364-2.187.816-1.237 1.676-2.443 2.535-3.65 1.74-2.44 3.616-4.775 5.537-7.07.216-.257.976-1.129 1.507-1.737.788-.854 1.588-1.692 2.396-2.527 2.593-2.681 5.372-5.175 8.213-7.588 4.475-3.799 9.058-7.509 13.619-11.21.98-.796 1.972-1.576 2.964-2.358.161-.112.372-.264.688-.492a448.06 448.06 0 0 1 6.411-4.575c5.99-4.181 12.202-8.068 18.012-12.502 8.979-6.854 15.948-15.125 19.972-24.986a27.918 27.918 0 0 0 1.359-2.121c7.325-12.876 10.942-28.087 9.187-42.77.27-.241.535-.488.804-.727.249-.22 1.078-.88 1.604-1.3.954-.678 1.923-1.333 2.879-2.005 1.895-1.331 3.907-2.484 5.955-3.562.125-.049.265-.106.435-.175 1.36-.562 2.76-1.015 4.165-1.448 1.047-.324 2.117-.576 3.183-.827.872-.167 1.208-.245 1.037-.235 2.899-.402 3.034-.41.384-.024 2.515-.139 5.006.263 7.502.184 2.27-.073 4.561.131 6.816.368 1.158.121 2.309.31 3.457.498.539.088 3.125.676 3.391.696 5.206 1.531 10.052 3.817 14.968 6.114 5.983 2.797 11.6 6.439 16.971 10.261 1.233.878 2.439 1.796 3.644 2.713.786.604 1.563 1.215 2.337 1.835l.4.335c2.903 2.444 5.69 5.026 8.432 7.649 6.847 6.549 16.804 10.416 17.248 11.21.456.868 7.868 15.585 10.938 22.165 12.64 27.07 55.556 54.637 68.14 81.736 12.466 26.844 26.072 53.808 44.375 77.212 16.312 20.858 37.717 39.14 63.089 47.671 14.357 4.826 29.334 6.806 44.443 6.2 2.36-.096 14.172-.92 5.449-.392 1.848-.112 3.69-.271 5.532-.443.898-.083 1.797-.186 2.694-.284-.081.388-.161.776-.244 1.164l-.062.278c-.188.835-.404 1.798-.541 2.393-2.426 10.51-5.139 20.952-8.064 31.333-6.159 21.836-13.208 43.445-21.603 64.528-.662 1.592-1.819 4.393-2.252 5.385-1.807 4.135-3.33 8.342-4.994 12.521a434.778 434.778 0 0 1-1.526 3.594 394.121 394.121 0 0 1-4.09 9.158 316.34 316.34 0 0 1-15.564 29.639c-1.129 1.846-2.885 4.693-2.992 4.734l-1.252 3.046c.515-1.327.361-1.243-.461.255a.038.038 0 0 1-.009.015l-.034.057a229.09 229.09 0 0 1-2.197 3.401 213.457 213.457 0 0 1-4.501 6.582 217.481 217.481 0 0 1-2.31 3.172c-.474.64-4.081 4.796-1.329 1.889-1.696 1.791-3.111 3.467-4.415 5.378-.139.139-.331.345-.603.646a155.963 155.963 0 0 1-5.223 5.504c-3.719 3.763-7.686 7.272-11.826 10.563-3.965 3.154-6.406 9.585-6.03 14.554.221 2.896 1.496 4.836 3.323 5.714-.647 5.59.146 12.045 5.33 14.332 12.282 5.418 24.25 10.634 35.859 17.471 7.943 4.68 15.682 9.699 23.394 14.754 5.629 7.558 12.801 13.623 22.335 14.589 7.643 4.983 15.331 9.92 23.238 14.452 12.639 7.243 25.854 12.337 39.689 16.753 10.693 3.415 18.708-13.123 16.023-21.763-4.304-13.846-10.41-26.971-16.675-40.032 3.619 1.803 7.3 3.442 11.061 4.843 20.454 7.616 42.084 12.935 63.871 14.103 9.001.479 18.266-15.304 14.204-23.13zM300.43 315.399a864.32 864.32 0 0 1 1.194-9.066c1.662.067 3.368-.384 5.034-1.151a150.772 150.772 0 0 0-6.228 10.217zm11.439-59.657c.214-.68.427-1.36.647-2.036a171.223 171.223 0 0 1 1.866-5.387c.263-.725.843-2.188 1.257-3.24a115.11 115.11 0 0 1 3.838-7.825c.337-.629.698-1.244 1.053-1.862l.206-.312c.06-.09.127-.174.188-.264.812.95 1.654 1.87 2.521 2.762-3.81 6.085-7.687 12.13-11.576 18.164zm39.125 7.29c.784-.773 1.558-1.558 2.335-2.335.062.223.131.443.202.664-.848.551-1.694 1.11-2.537 1.671zM717.95 680.051a31.11 31.11 0 0 0-1.52 2.995c-.536-.409-1.077-.812-1.62-1.217.055-.041.102-.076.156-.119a241.32 241.32 0 0 0 2.759-2.688c.686-.68 1.355-1.378 2.027-2.072-.602 1.032-1.202 2.068-1.802 3.101zM440.766 150.653l.074-.088c.286.135.572.27.857.408-.576.223-1.149.447-1.721.68.265-.332.526-.667.79-1zm-31.75 77.106c.259-3.617.092-.386 0 0zM709.935 397.06c.144-.327.286-.656.423-.986.597.67 1.211 1.325 1.805 1.999.241.274.488.543.731.817a109.998 109.998 0 0 1-2.959-1.83zm36.945 35.378c.449.369.893.743 1.344 1.11-1.135-.929-1.485-1.219-1.344-1.11zm44.205 309.648a44.999 44.999 0 0 0 1.819-3.936c1.354 2.455 2.705 4.911 4.048 7.371a329.834 329.834 0 0 1-5.867-3.435zm37.138-170.92c-.374 8.315-.778 16.676-1.07 25.048-.092-.435-.189-.868-.279-1.301-.045-.212-.133-.657-.227-1.125a523.953 523.953 0 0 1-.886-4.691 501.32 501.32 0 0 1-1.771-10.267c.644-10.158.874-20.352.966-30.502.01-.986.008-1.973.012-2.958a2723.379 2723.379 0 0 0 3.483 20.962c-.076 1.61-.155 3.224-.228 4.834zm36.627 136.221a33.069 33.069 0 0 0 1.402-5.163 346.44 346.44 0 0 0 3.436 7.073 66.962 66.962 0 0 1-4.838-1.91z"/><path fill="#2F61DD" d="M272.731 337.564c15.258-10.518 29.52-22.436 43.245-34.871 12.051-10.918 23.71-22.254 35.22-33.738 9.534-9.516 18.015-19.054 24.458-30.993 12.937-23.975 18.249-53.445 36.739-74.156 21.215-23.761 56.14-24.888 85.337-18.653 27.256 5.818 51.084 20.356 69.533 41.145 18.574 20.934 31.829 45.916 44.023 70.924 23.753 48.707 45.486 106.7 95.088 134.903-3.145-23.524-9.062-46.665-9.191-70.522-.004-.809 1.217-1.223 1.593-.431 16.491 34.757 52.021 54.114 88.142 62.699 19.033 4.524 39.471 7.36 59.074 6.372 1.996-.102 3.993-.253 5.985-.457-.298-4.981-.861-9.953-1.449-14.834-1.72-14.258-2.731-28.575-4.753-42.806-4.021-28.328-10.169-56.787-20.507-83.551a484.449 484.449 0 0 0-1.582-5.841c-5.438-19.523-14.083-38.256-25.558-54.97-9.684-14.101-21.671-26.285-35.019-36.929-32.817-35.431-73.539-64.435-117.454-83.854-31.74-14.033-65.131-21.464-99.631-24.026-33.174-2.466-68.461.647-100.393 10.028-34.51 10.136-64.942 32.895-75.94 68.366-2.685 8.664-3.869 17.431-3.817 26.152-10.171-2.713-20.875-3.111-31.4-1.386-19.346 3.168-36.188 16.92-47.014 32.703-11.322 16.508-17.763 36.18-22.938 55.364-5.661 20.989-9.514 42.533-11.888 64.134-1.925 17.539-3.054 35.322-3.064 53.104 8.117-3.944 15.834-8.825 23.161-13.876zm80.599-76.867c.062.223.131.443.202.664-.849.551-1.694 1.111-2.538 1.672.784-.774 1.558-1.558 2.336-2.336zm-40.814-6.99a171.223 171.223 0 0 1 1.866-5.387c.263-.725.843-2.188 1.257-3.24a115.11 115.11 0 0 1 3.838-7.825c.337-.629.698-1.244 1.053-1.862l.206-.312c.06-.09.127-.174.188-.264.812.95 1.654 1.87 2.521 2.762-3.812 6.084-7.688 12.129-11.578 18.164.216-.681.428-1.361.649-2.036zm-10.891 52.626c1.662.067 3.368-.384 5.034-1.151a150.808 150.808 0 0 0-6.229 10.218c.384-3.024.778-6.047 1.195-9.067z"/><path d="M428.716 197.012c34.808-17.143 66.474 11.996 86.646 37.784 22.864 29.23 38.4 62.849 57.444 94.462 22.794 37.837 49.539 74.136 83.107 103.14 32.935 28.457 74.2 50.379 118.551 51.241 5.124.1 10.211-11.769 3.949-12.547-24.33-3.026-47.438-9.646-69.21-21.003-21.489-11.211-40.564-26.4-57.807-43.327-32.49-31.896-58.198-70.418-80.24-110.056-16.962-30.501-34.057-61.648-58.308-87.094-10.948-11.487-23.991-22.296-39.252-27.347-15.522-5.139-31.355-2.935-45.644 4.688-4.146 2.211-5.838 13.311.764 10.059z"/><path d="M905.447 753.163c-19.858-53.853-28.608-110.836-33.528-167.794-5.13-59.396-6.631-119.008-10.806-178.465-4.091-58.226-10.879-116.685-27.177-172.9-4.818-16.622-10.118-32.583-19.47-47.214-7.135-11.161-15.938-21.209-25.393-30.453-22.444-21.94-49.037-39.561-76.585-54.395-30.462-16.401-62.875-29.263-96.07-38.938-32.284-9.407-65.553-15.797-99.2-17.132-28.551-1.131-58.253 1.327-85.078 11.755-19.276 7.495-36.47 19.486-48.684 36.329-11.298 15.581-16.961 34.001-18.715 52.91-29.92 4.354-62.568 9.654-83.143 33.477-10.548 12.214-16.267 28.255-20.262 43.644-6.096 23.49-9.521 48.108-12.173 72.194-5.483 49.8-4.82 101.612 6.745 150.533.87 3.675 5.177 2.203 7.029.454 2.762-2.609 4.157-6.529 3.313-10.236-6.417-28.159-8.519-57.246-8.729-86.068-.206-28.732 2.078-57.546 6.892-85.872 3.412-20.06 5.686-40.228 13.211-59.308 4.45-11.286 11.408-20.586 22.305-27.391 18.727-11.691 42.717-15.095 64.543-18.451.806 1.644 2.923 2.052 4.689.964.89-.549 1.611-1.264 2.205-2.066 4.955-1.28 8.386-12.861 2.396-13.09.937-10.745 3.407-21.718 7.311-30.529 4.795-10.822 10.801-18.75 19.866-26.589 18.353-15.877 44.599-23.475 69.068-26.258 31.287-3.554 63.084-.423 93.916 5.3 33.93 6.296 67.09 16.691 98.895 30.024 30.638 12.843 60.278 28.622 87.204 48.137 22.126 16.038 43.045 35.304 57.107 58.979 9.72 16.365 14.58 36.533 19.408 55.088 7.319 28.132 12.161 56.844 15.779 85.668 7.419 59.112 9.293 118.767 12.684 178.197 4.189 73.426 10.224 148.692 34.083 218.738-24.888-13.908-52.186-23.24-78.058-35.118-2.558-1.174-5.312.979-6.947 3.865a6.784 6.784 0 0 0-1.08.812c-2.413 2.28-3.821 5.901-2.966 9.17 1.994 7.629 6.404 14.995 10.077 21.935 3.986 7.531 8.262 14.904 12.56 22.261 5.856 10.029 11.773 20.052 17.087 30.377-29.388-9.55-56.991-22.86-83.82-38.713-32.093-18.964-63.005-40.465-91.331-64.727-5.135-4.397-12.568 7.701-8.399 11.337 28.341 24.715 59.112 46.861 91.346 66.204 17.178 10.308 34.897 19.754 53.208 27.892 16.453 7.312 34.018 14.227 51.922 16.864 5.069.748 10.839-12.02 5.502-13.425-1.176-.311-2.342-.643-3.514-.963-6.139-14.802-13.962-28.77-21.92-42.666-4.452-7.776-8.917-15.548-13.084-23.483-1.443-2.748-2.739-5.594-4.014-8.454 26.583 12.895 54.64 22.727 79.486 39.031 1.683 1.104 3.573.492 5.202-.983 3.088-1.605 6.283-7.267 5.107-10.458z"/><path d="M291.268 461.503c1.8-40.788 11.533-81.991 30.324-118.354 18.261-35.337 47.472-65.45 87.386-74.264 15.809-3.491 32.651-4.156 48.728-5.229 28.841-1.925 58.211-2.53 86.975.8 4.565.528 8.9-10.121 3.475-11.039-23.775-4.025-47.998-3.771-72.021-2.734a708.982 708.982 0 0 0-49.352 3.849c-16.022 1.819-31.018 5.648-45.442 13.013-17.789 9.083-32.797 23.042-45.196 38.535-34.841 43.541-50.957 102.876-52.986 157.876-.282 7.623 7.884 2.65 8.109-2.453z"/><path d="M742.802 466.457c1.535 56.96-6.278 86.058-26.055 132.498-28.061 65.908-82.242 114.138-148.938 129.337-74.943 17.079-157.296-4.781-210.665-64.672-53.951-60.541-67.374-145.866-60.488-226.338-3.454-2.09-6.982-3.962-10.646-5.437a560.515 560.515 0 0 0-2.921 29.261c-5.836 80.108 10.851 163.606 63.338 223.876 52.342 60.113 133.033 82.955 207.779 69.871 69.444-12.157 127.147-59.426 161.786-123.887 28.354-52.773 41.918-71.194 40.203-138.111-4.454-1.865-8.9-24.652-13.393-26.398z"/><path fill="#FFBF1F" d="M409.016 227.759c.259-3.617.092-.386 0 0zM746.88 432.438c.449.369.893.743 1.344 1.11-1.135-.929-1.485-1.219-1.344-1.11z"/><path fill="#FF617F" d="M559.199 567.985c-9.975-5.444-20.227-8.795-30.906-11.403-2.106-.515-4.332 3.048-4.922 6.347-.343-.008-.686-.022-1.027-.03a236.327 236.327 0 0 0-12.713-.022c-2.295-2.716-4.973-4.742-8.348-5.768-4.648-1.41-9.834.796-13.98 3.246-8.815 5.212-16.138 13.344-24.214 20.025-.539.131-1.121.633-1.662 1.339a69.474 69.474 0 0 1-4.052 2.985c-2.095 1.416-3.038 8.363.392 6.354a66.39 66.39 0 0 0 2.407-1.488l.065.174c-.1.145-.192.284-.268.41a11.105 11.105 0 0 0-1.449 7.687c2.466 14.603 8.613 17.227 18.766 25.548 9.354 7.668 21.189 10.111 32.229 9.072 8.062-.76 15.965-3.368 23.23-7.554 6.567 1.721 13.39-.294 19.431-6.474 9.124-9.34 14.076-14.428 13.49-28.938 2.71-.853-2.957-19.595-6.469-21.51zm-82.557 47.785a69.464 69.464 0 0 0 6.296 5.854 37.759 37.759 0 0 1-6.296-5.854z"/><path d="M567.024 584.624c-.989 9.757-4.374 18.539-10.557 25.546-7.829 8.874-18.512 13.251-28.845 15.231-21.422 4.109-47.342-3.233-61.501-24.655-3.893-5.89-6.417-12.717-7.742-19.95-1.71-.281-3.421-.557-5.134-.831 5.065 54.726 70.03 69.897 102.132 39.143 9.093-8.711 14.701-21.169 16.055-34.83-1.467.132-2.935.248-4.408.346z"/><path d="M436.936 578.771c13.225 13.086 26.477.835 37.644-9.571 5.583-5.206 11.459-10.828 18.519-12.397 8.987-2.003 15.416 6.682 21.013 13.827 2.131 2.721 5.021-3.765 3.716-6.178-4.516-8.336-12.062-15.536-20.491-15.583-7.203-.041-13.805 5.165-19.427 10.164-11.386 10.126-24.119 26.317-38.348 13.393-1.871-1.698-4.515 4.475-2.626 6.345z"/><path d="M516.71 570.168c6.071-7.141 13.309-12.8 21.982-10.645 6.683 1.664 12.486 7.801 17.621 12.945 10.589 10.609 22.952 21.948 36.038 9.732 1.25-1.17 2.197-3.001 2.074-5.015-.105-1.715-1.29-2.464-2.479-1.556-6.182 4.725-12.173 5.443-18.736 1.439-6.413-3.913-11.725-10.302-17.363-15.617-5.335-5.03-11.27-9.51-18.125-10.122-8.838-.792-16.615 6.259-22.495 13.582-1.834 2.286-1.491 8.754 1.483 5.257zm-26.031 19.558c8.197 6.574 17.806 13.589 28.868 11.983 8.354-1.21 15.314-8.223 22.019-12.761 2.533-1.715 3.452-9.306-.505-6.646-6.043 4.061-11.806 9.632-18.947 11.645-10.015 2.822-20.623-5.452-27.927-11.104-2.408-1.864-6.066 4.831-3.508 6.883z"/><path d="M536.829 593.344c10.37.247 22.62 1.408 31.816-4.416 1.848-1.17 4.163-8.377.223-6.939-9.765 3.557-19.393 3.66-29.678 3.847-3.11.054-6.016 7.418-2.361 7.508zm-38.719-10.403c-5.381-.745-11.036-.01-16.471-.291-6.255-.325-11.721-2.229-17.743-3.442-3.099-.627-5.293 5.567-3.025 7.382 4.226 3.377 11.588 3.716 16.757 4.008 6.164.347 12.98.445 19.006-1.056 2.145-.535 4.748-6.146 1.476-6.601z"/><path fill="#EAA286" d="M600.293 561.861c2.952 2.396 5.651 4.681 7.477 8.11 1.88 3.536 2.443 7.475 3.229 11.339.39 1.917 2.654 1.86 3.95 1.062 2.282-1.408 3.521-4.224 3.48-6.833-.128-8.178-5.072-21.623-15.217-20.795-2.861.234-5.438 5.073-2.919 7.117zm-167.546-3.483c-2.952 2.397-5.651 4.68-7.476 8.109-1.88 3.536-2.443 7.476-3.229 11.341-.39 1.917-2.656 1.857-3.95 1.06-2.283-1.409-3.521-4.222-3.481-6.833.129-8.177 5.073-21.624 15.218-20.795 2.86.232 5.435 5.073 2.918 7.118z"/><path fill="#FFF" d="M477.37 459.663c0 44.979-36.596 81.438-81.746 81.438-45.144 0-81.745-36.459-81.745-81.438s36.601-81.44 81.745-81.44c45.15 0 81.746 36.461 81.746 81.44z"/><ellipse fill="#FFF" cx="632.496" cy="459.663" rx="81.746" ry="81.438"/><path fill="#2695F9" d="M761.522 415.344h-46.305c-2.648 0-3.261-4.03-4.551-6.241-6.178-10.602-14.765-19.603-24.554-26.925-40.001-29.937-96.962-19.978-127.46 18.304-7.984 10.022-13.67 21.856-16.942 34.234-8.66-2.323-17.853-2.824-26.753-2.977-9.007-.153-18.725-.004-27.383 2.891-8.968-36.674-39.746-64.222-77.157-69.458-38.717-5.418-76.736 16.165-94.698 50.172h-42.6c-7.482 0-13.284 4.199-16.885 10.54-4.23 7.448-2.211 17.123 4.236 22.487 4.371 3.638 9.595 3.587 14.905 3.587h30.029c-2.858 46.51 29.175 88.386 75.36 96.97 54.143 10.065 105.005-32.402 109.115-86.223 8.828-4.638 19.476-3.699 29.198-2.982 5.137.377 10.264 1.065 15.289 2.205 2.796.637 4.289.527 4.475 3.471.247 3.899.855 7.766 1.606 11.594 5.21 26.542 22.667 49.319 46.191 62.358 43.762 24.257 98.611 6.306 123.865-35.37 9.428-15.56 13.7-33.917 12.965-52.022h34.874c9.113 0 16.009-5.424 18.953-13.959 3.809-11.04-4.528-22.122-15.773-22.656zM632.088 520.492c-24.421-.264-46.836-13.699-58.163-35.437-11.394-21.867-8.376-48.886 6.962-67.984 15.757-19.619 43.133-26.979 67.009-20.421 23.045 6.331 40.614 25.566 45.95 48.647 9.034 39.068-22.99 74.776-61.758 75.195zm-233.463 0c-24.423-.264-46.838-13.699-58.165-35.437-11.53-22.132-8.325-49.153 7.36-68.327 15.813-19.332 42.884-26.595 66.61-20.079 23.045 6.331 40.614 25.566 45.951 48.647 9.034 39.069-22.99 74.777-61.756 75.196z"/><path d="M762.689 411.44h-44.438c-3.623 0-3.65-2.346-5.038-5.135-1.395-2.794-3.289-5.379-5.112-7.907-3.75-5.191-8.233-9.826-12.976-14.111-16.298-14.717-37.046-22.863-58.949-23.51-45.358-1.335-85.11 31.031-96.886 74.035l4.185-3.887c-8.982-2.269-18.118-2.905-27.354-3.091-9.489-.192-18.925.21-28.042 3.046l2.042.953c-9.438-37.276-40.614-64.951-78.539-70.567-40.312-5.972-79.133 18.325-97.887 53.132l3.189-2.96h-42.601c-9.899 0-18.877 7.99-21.707 17.253-3.04 9.948.118 21.505 10.269 25.845 5.186 2.219 11.908 1.325 17.369 1.325h24.021l-1.47-2.807c-2.532 47.202 29.437 91.378 76.83 99.775 47.712 8.453 92.63-23.035 108.076-67.587 2.638-7.609 4.168-15.628 4.844-23.639l-3.144 4.847c6.85-3.312 14.084-3.611 21.557-3.293 8.087.343 16.149 1.212 24.03 3.084 2.256.535 1.812 6.966 2.113 8.919.479 3.118 1.124 6.204 1.874 9.267 1.541 6.312 3.928 12.472 6.878 18.255 11.62 22.792 32.227 40.44 56.768 47.867 47.065 14.242 98.214-14.213 116.379-58.618 5.435-13.286 7.625-27.683 7.176-41.99l-3.846 5.918h34.873c8.048 0 14.562-4.336 19.071-10.745 9.272-13.165 3.558-32.155-13.555-33.674-2.883-.257-5.791 7.5-2.333 7.809 13.694 1.215 20.842 17.771 8.49 26.352-5.399 3.75-13.449 2.454-19.597 2.454h-24.616c-2.466 0-3.905 3.971-3.844 5.917.929 29.626-12.054 56.558-35.751 74.254-19.421 14.503-44.356 20.619-68.279 17.134-25.994-3.787-48.94-20.625-62.666-42.643-7.956-12.763-10.396-26.015-12.775-40.567-.78-4.757-7.76-4.587-11.478-5.226-7.724-1.325-15.823-1.832-23.652-1.66-4.874.106-13.617.825-17.163 4.716-1.758 1.925-1.809 4.297-2.056 6.749-.351 3.509-.967 7.002-1.757 10.44-2.715 11.804-8.074 22.742-15.175 32.509-14.219 19.562-36.712 32.714-60.57 36.072-49.978 7.034-96.123-31.971-101.153-81.304-.459-4.506-.517-9.066-.273-13.586.057-1.076.037-2.805-1.472-2.805-10.538 0-21.079.013-31.617-.002-4.969-.008-9.528-.623-13.333-4.075-3.772-3.424-5.354-8.709-4.72-13.649 1.519-11.818 16.118-11.08 24.563-11.08h33.089c1.529 0 2.581-1.831 3.189-2.962 18.165-33.718 56.642-52.972 94.448-46.751 35.323 5.81 64.132 33.497 72.839 67.891.259 1.025 1.154 1.227 2.042.951 8.097-2.519 16.491-2.823 24.911-2.76 9.397.069 18.819.578 27.962 2.887 2.114.533 3.722-2.188 4.187-3.887 11.818-43.162 54.088-70.188 98.179-65.451 21.613 2.321 41.18 13.46 55.782 29.292 3.955 4.287 7.938 9.24 10.549 14.482.85 1.703 1.368 3.397 2.501 4.957 1.406 1.929 4.681 1.352 6.651 1.352h42.565c2.951-.001 5.699-7.81 2.333-7.81z"/><path d="M633.256 516.589c-27.093-.604-51.669-17.468-60.578-43.319-9.512-27.599 4.118-57.756 30.393-69.646 24.218-10.961 53.279-4.881 71.689 13.933 17.845 18.235 23.775 47.014 10.654 69.524-10.689 18.338-31.249 29.04-52.158 29.508-2.96.065-5.665 7.882-2.334 7.809 48.443-1.082 82.641-54.167 59.494-97.962-11.753-22.236-34.145-35.91-59.304-36.028-25.276-.119-47.688 14.472-59.247 36.584-10.748 20.564-9.722 45.754 2.121 65.528 11.876 19.832 34.146 31.37 56.936 31.878 2.935.065 5.726-7.734 2.334-7.809zm-233.465 0c-27.146-.606-51.703-17.519-60.617-43.413-9.611-27.93 4.661-58.21 31.305-69.877 24.576-10.761 53.702-4.032 71.831 15.34 17.498 18.7 22.549 47.384 8.921 69.616-10.833 17.673-31.023 27.876-51.44 28.334-2.958.065-5.665 7.882-2.333 7.809 48.445-1.082 82.641-54.167 59.494-97.962-11.792-22.31-34.3-36.008-59.547-36.021-25.605-.012-48.168 15.146-59.502 37.713-10.49 20.889-8.954 46.061 3.444 65.698 12.049 19.082 33.85 30.076 56.111 30.572 2.937.065 5.726-7.734 2.333-7.809z"/><path d="M585.254 454.296c2.341 1.97 5.044 2.294 7.773 1.862 13.611-14.313 29.294-23.623 46.283-13.135.441.271.876.563 1.311.854 8.059 4.926 14.52-.37 18.591-7.746 1.935-3.507 5.742 4.444 4.228 7.511-2.354 4.763-5.896 7.425-9.971 8.764.378.18.751.372 1.137.529 2.31.943 4.657.978 7.017.325 3.446-.954 5.633-4.724 8.658-6.588 3.238-1.997 5.623 6.085 4.257 9.064-3.199 6.984-10.773 9.726-16.512 8.332-1.162-.284-2.293-.725-3.405-1.27-.376.067-.843-.043-1.447-.447-6.462-4.326-13.119-6.921-20.403-6.288-5.453.476-10.963 2.158-16.306 3.602-9.544 2.578-23.839 12.843-32.27 1.621-1.449-1.927-2.461-9.949 1.059-6.99zm-140.677 0c-2.366 1.97-5.1 2.294-7.855 1.862-13.756-14.313-29.606-23.623-46.775-13.135-.445.271-.884.563-1.325.854-8.144 4.926-14.672-.37-18.786-7.746-1.956-3.507-5.804 4.444-4.273 7.511 2.376 4.763 5.957 7.425 10.077 8.764-.384.18-.762.372-1.151.529-2.333.943-4.706.978-7.09.325-3.483-.954-5.694-4.724-8.75-6.588-3.272-1.997-5.682 6.085-4.304 9.064 3.234 6.984 10.89 9.726 16.689 8.332 1.172-.284 2.317-.725 3.442-1.27.378.067.852-.043 1.462-.447 6.529-4.326 13.258-6.921 20.619-6.288 5.51.476 11.08 2.158 16.479 3.602 9.644 2.578 24.09 12.843 32.613 1.621 1.462-1.927 2.485-9.949-1.072-6.99z"/></svg>