<svg xmlns="http://www.w3.org/2000/svg" xmlns:xlink="http://www.w3.org/1999/xlink" width="1030" height="1030" viewBox="0 0 1030 1030"><defs><path id="a" d="M1020.377 515.001c0 279.115-226.264 505.377-505.377 505.377S9.623 794.114 9.623 515.001 235.887 9.622 515 9.622s505.377 226.266 505.377 505.379z"/></defs><clipPath id="b"><use xlink:href="#a" overflow="visible"/></clipPath><g clip-path="url(#b)"><circle fill="#EF6100" cx="516.036" cy="517.213" r="505.377"/><path fill="#EA2700" d="M64.592 301.339c65.697-60.767 147.472-101.363 226.166-142.394 40.815-21.281 80.746-43.73 120.539-66.854 43.206-25.11 87.47-49.598 136.055-62.561l-2.865-37.722C469.49 62.96 382.01 118.799 296.631 176.392c-43.967 29.658-87.433 59.996-129.215 92.682-20.033 15.672-39.121 32.311-60.043 46.828-21.763 15.1-44.41 28.884-66.553 43.409-20.461 13.421-40.42 27.7-58.93 43.736-7.092 6.145-11.695 17.171-10.986 26.521.549 7.209 5.931 13.974 13.85 11.2 98.167-34.394 184.33-95.652 268.734-154.941 42.164-29.617 84.251-59.421 128.115-86.495 19.997-12.341 40.242-24.097 59.857-37.073 21.043-13.919 41.816-28.239 62.965-42.001 37.357-24.313 76.479-48.122 120.033-59.315-2.239-11.117-4.479-22.232-6.717-33.351-3.625 4.497-11.99 11.267-18.963 15.919-10.002 6.67-20.648 12.364-31.156 18.178-23.029 12.742-45.092 27.219-67.553 40.936-51.307 31.332-102.534 62.797-153.853 94.112-51.11 31.188-102.327 62.211-153.79 92.816-45.842 27.263-92.239 53.613-137.738 81.449C-2.51 405.993-58.916 444.152-106.64 491.58c-6.829 6.784-11.734 16.688-10.986 26.521.559 7.365 5.898 13.78 13.849 11.198 51.945-16.859 99.749-43.608 147.504-69.638 50.274-27.404 102.161-51.78 153.585-76.934 106.723-52.204 213.545-104.201 320.025-156.899 43.588-21.572 87.41-42.348 128.738-68.076 36.969-23.018 73.674-48.996 115.463-62.538-.953-12.575-1.908-25.146-2.863-37.721-32.516 34.457-76.607 55.146-117.221 78.288-50.043 28.516-97.458 62.321-145.693 93.778-48.672 31.741-97.557 62.7-143.463 98.404-36.258 28.201-71.635 58.477-113.408 78.263C166.968 440.29 75.416 461.753 37.56 541.29c-3.076 6.463-5.364 14.316-2.909 21.4 1.744 5.041 7.496 9.096 12.932 6.59 100.087-46.102 193.518-104.332 287.45-161.587 46.519-28.354 93.288-56.325 141.229-82.228 49.123-26.541 100.223-49.029 149.865-74.543 51.182-26.305 101.262-54.686 151.102-83.427-.985-12.997-1.971-25.993-2.959-38.989-89.507 66.279-184.82 124.035-280.238 181.279-95.315 57.186-189.699 115.122-280.916 178.699C148.344 533.63 70.698 560.08 20.878 624.455c-8.811 11.385-11.102 42.221 10.984 31.383 208.227-102.161 408.941-218.58 611.711-330.955 81.105-44.949 162.598-89.213 245.032-131.684-.985-12.996-1.972-25.994-2.959-38.989-200.876 115.724-395.703 241.728-585.56 374.705-76.926 53.879-153.004 108.971-228.347 165.043-9.188 6.834-16.062 17.879-15.161 29.76.736 9.699 9.592 15.234 18.12 9.229 43.634-30.725 91.015-55.527 138.017-80.6 48.865-26.062 96.42-53.965 143.453-83.205 97.824-60.818 193.598-125.836 295.82-179.224 79.943-41.755 155.398-91.653 236.616-131.035l-7.13-35.752c-155.031 139.627-335.512 246.817-513.14 354.632-93.445 56.72-186.838 113.711-276.604 176.168-9.318 6.482-16.043 18.146-15.16 29.758.8 10.539 9.316 14.158 18.119 9.23 202.516-113.373 408.094-221.234 609.108-337.292 82.61-47.694 164.386-96.848 244.782-148.196l-10.985-31.381c-4.995 7.511-10.376 14.716-16.097 21.688-5.041 6.146-10.836 12.267-18.377 19.708-14.123 13.939-29.658 26.809-45.089 38.273-35.397 26.297-73.571 48.73-112.081 70.107-37.449 20.789-75.582 40.312-113.115 60.945-42.606 23.422-83.6 49.658-124.551 75.826-65.342 41.754-130.41 84.797-198.977 121.15-60.085 31.859-124.111 59.162-173.205 107.688-6.838 6.764-11.73 16.707-10.986 26.523.621 8.162 5.797 12.764 13.852 11.197 27.105-5.266 51.927-18.041 75.644-31.758 24.854-14.379 49.684-28.811 74.538-43.193a10582.895 10582.895 0 0 0 152.23-89.771c49.531-29.771 100.037-57.949 150.666-85.822 50.375-27.729 102.133-51.929 153.664-77.321 67.275-33.148 131.117-72.729 197.158-108.185l-10.984-31.383c-5.504 7.192-9.137 10.836-17.041 18.057-7.752 7.076-15.979 13.312-24.516 19.367-18.808 13.338-38.715 25.094-58.618 36.699-43.185 25.18-85.118 51.793-126.224 80.276-91.95 63.714-180.73 131.845-272.466 195.851-62.606 43.68-127.019 85.396-195.644 119.062l2.959 38.99c48.337-27.514 98.725-51.109 148.233-76.385 25.085-12.807 49.888-26.168 74.097-40.57 24.189-14.391 46.896-30.896 69.811-47.201 23.253-16.545 46.578-32.994 70.564-48.467 23.51-15.166 48.084-28.535 72.547-42.078 48.808-27.02 97.926-53.479 146.338-81.209 61.396-35.17 121.518-72.686 178.057-115.307l-10.984-31.382c-59.98 69.826-146.118 119.632-225.496 166.939-91.051 54.269-181.008 110.706-269.408 169.204-41.196 27.26-81.385 55.869-121.204 85.092-39.394 28.912-78.96 57.73-121.233 82.346-9.595 5.584-15.992 18.822-15.16 29.76.84 11.066 9.201 13.475 18.119 9.23 100.961-48.053 196.104-107.057 291.244-165.518 47.797-29.371 95.674-58.625 144.387-86.461 47.674-27.236 96.567-52.016 145.608-76.668 75.025-37.713 150.204-76.055 218.39-125.428l-7.131-35.751c-33.61 33.213-76.09 55.599-117.895 76.72a4036.445 4036.445 0 0 0-133.637 70.689c-99.297 54.92-199.128 109.008-295.388 169.178-39.694 24.814-79.177 50.248-116.167 78.982-32.521 25.264-64.553 53.299-102.399 70.432-8.954 4.053-15.019 11.32-17.994 20.764-1.853 5.885-3.031 24.238 8.274 22.727 45.447-6.074 87.677-22.926 128.725-42.801 43.947-21.275 85.808-46.648 127.57-71.857 92.4-55.777 188.994-103.604 284.818-153.168 30.956-16.012 61.8-31.99 92.062-49.283 29.73-16.988 59.459-33.979 89.188-50.967 9.619-5.496 15.986-18.893 15.162-29.759-.805-10.575-9.309-14.111-18.121-9.229-104.188 57.711-206.854 118.117-308.768 179.746-51.143 30.93-102.084 62.188-152.943 93.585-44.668 27.574-85.542 60.625-129.553 89.188-21.203 13.758-43.262 26.518-67.016 35.328l-1.309 40.959C503.59 874.062 701.895 820.999 881.025 728.062c47.312-24.547 93.092-52.107 136.094-83.643 9.217-6.758 16.057-17.939 15.159-29.76-.759-9.986-9.485-14.867-18.118-9.23-189.895 124.01-375.484 255.295-574.297 364.99a2766.637 2766.637 0 0 1-59.694 31.967l7.133 35.754c73.349-58.311 162.89-92.969 248.278-129.314 44.957-19.135 89.819-38.74 132.914-61.834 22.314-11.959 44.492-24.162 66.002-37.533 23.461-14.584 46.566-29.752 71.246-42.24l-14.291-26.021c-3.254 5.631 2.838-4.268-.768 1.27-1.092 1.674-2.266 3.293-3.438 4.908-1.197 1.658-2.473 3.258-3.743 4.857-.225.285-4.667 5.494-1.593 2.025-6.42 7.244-13.554 13.844-20.877 20.158-14.345 12.363-31.18 23.662-48.141 34.453-35.631 22.668-73.099 42.25-109.025 64.42-39.857 24.596-76.527 54.363-114.17 82.133-42.477 31.336-86.009 61.83-133.524 85.105-8.503 4.164-17.229 7.84-26.042 11.295.953 12.572 1.908 25.146 2.864 37.721 61.737-53.27 143.856-80.492 220.312-108.336 80.787-29.418 162.883-61.465 226.773-120.971 7.468-6.955 14.516-14.354 21.266-22.004 7.164-8.119 13.979-19.857 10.072-31.133-3.469-10.01-15.477-8.066-21.377-1.381-114.229 129.438-307.648 132.047-443.064 231.178a404.612 404.612 0 0 0-25.289 20.133c-7.098 6.125-11.693 17.184-10.986 26.521.528 6.965 5.991 14.281 13.852 11.197 97.134-38.068 176.129-109.004 260.492-168.246 66.98-47.033 147.924-76.377 205.264-136.568 10.396-10.916 19.23-22.635 26.766-35.684 7.1-12.287 4.061-35.307-14.291-26.021-23.682 11.984-45.959 26.396-68.422 40.475-22.414 14.051-45.567 26.729-68.828 39.299-42.021 22.707-85.976 41.566-129.891 60.244-90.248 38.377-182.23 75.838-259.648 137.379-7.226 5.744-11.672 17.469-10.986 26.521.82 10.785 9.26 13.842 18.12 9.23C584.75 936.47 771.74 806.556 960.965 681.343a11011.79 11011.79 0 0 1 56.154-36.924c-.986-12.996-1.974-25.994-2.959-38.99-164.072 120.32-362.512 176.992-545.047 261.855-48.147 22.383-95.297 46.992-140.35 75.131-8.23 5.139-13.767 14.977-14.994 24.479-1.042 8.055 3.028 20.432 13.685 16.479 48.653-18.045 91.169-48.992 132.91-79.127 45.077-32.543 91.929-61.576 139.313-90.627 101.836-62.436 204.242-123.967 307.943-183.264a7351.688 7351.688 0 0 1 86.65-48.766c-.985-12.996-1.971-25.994-2.959-38.988-51.547 29.457-102.699 59.619-155.438 86.898l-161.336 83.449c-43.93 22.723-87.301 45.754-129.696 71.244-41.771 25.119-83.297 50.701-126.522 73.279-41.221 21.529-86.023 41.922-132.55 48.141l-9.721 43.49c47.462-21.484 85.909-55.805 127.179-86.811 44.622-33.523 92.951-62.742 140.678-91.576 96.971-58.588 197.004-111.869 295.91-167.064 73.6-41.076 157.644-70.725 218.6-130.964 6.844-6.76 11.734-16.708 10.988-26.521-.729-9.591-9.636-15.373-18.119-9.229-88.589 64.145-188.592 109.527-285.451 159.373-99.426 51.166-193.672 111.625-289.094 169.73-73.312 44.645-147.525 88.053-225.084 124.969.985 12.998 1.973 25.994 2.959 38.99 49.188-28.641 94.676-62.945 140.543-96.504 46.479-34 94.139-66.236 142.512-97.467 87.035-56.191 175.351-110.047 263.912-163.752 74.69-45.295 149.065-94.295 206.426-161.075 5.669-6.597 9.146-18.316 6.219-26.761-2.553-7.37-11.105-9.217-17.203-4.62-89.628 67.563-188.064 121.632-286.239 175.511-49.329 27.072-98.405 53.916-144.788 85.881-23.352 16.09-46.289 32.775-69.5 49.068-23.091 16.205-47.427 30.418-72.158 43.965-61.564 33.727-125.932 62.053-186.961 96.791-9.623 5.477-15.984 18.906-15.16 29.76.834 10.973 9.219 13.596 18.119 9.23 98.893-48.512 189.042-113.176 277.801-177.873 89.326-65.107 177.656-132.873 271.783-191.007 55.476-34.265 120.369-62.552 160.975-115.647 5.39-7.048 9.266-17.969 6.219-26.763-2.841-8.196-10.652-8.139-17.203-4.62-49.322 26.479-97.433 55.121-146.603 81.871-49.907 27.152-102.032 49.65-152.421 75.84C537.59 565.519 438.344 626.222 337.975 685.06a11495.488 11495.488 0 0 1-97.149 56.283c-30.903 17.713-60.723 37.979-96.278 44.889.953 12.572 1.908 25.146 2.865 37.721 33.756-33.367 76.161-55.738 118.04-77.182 45.688-23.389 90.239-48.037 134.128-74.68 87.599-53.174 171.682-111.857 262.07-160.352 54.957-29.484 110.545-57.98 162.961-91.898 49.711-32.166 98.854-70.181 131.993-120.016 5.024-7.557 9.407-17.564 6.218-26.762-2.699-7.791-10.854-8.675-17.203-4.621-195.874 125.101-399.874 236.655-603.807 347.893-83.528 45.561-167.062 91.117-250.083 137.596l2.959 38.988C265.64 673.978 449.086 574.513 622.931 460.024c94.264-62.08 185.903-128.777 269.846-204.379 7.025-6.327 11.709-17.035 10.988-26.521-.836-11.01-9.213-13.55-18.12-9.23-51.248 24.849-100.296 53.832-149.524 82.396-49.636 28.8-100.664 55.019-150.33 83.749-99.657 57.645-195.211 122.086-293.78 181.535-72.495 43.725-150.876 77.518-220.271 126.385.985 12.996 1.974 25.992 2.959 38.988 185.013-137.684 374.572-269.338 569.659-392.373 80.434-50.727 161.85-99.902 244.247-147.373 9.606-5.535 15.987-18.861 15.161-29.76-.821-10.815-9.25-13.799-18.12-9.229-206.175 106.22-406.212 223.748-609.961 334.452-81.456 44.258-163.553 87.353-246.782 128.185l10.984 31.383c25.777-33.307 66.305-56.533 103.789-77.646 19.876-11.199 39.891-22.157 59.179-34.356 21.948-13.881 42.736-29.654 64.247-44.203 92.357-62.464 188.979-118.262 284.289-176.013 77.076-46.703 153.375-94.857 225.838-148.517 9.197-6.81 16.061-17.9 15.162-29.76-.793-10.436-9.346-14.29-18.121-9.229-48.864 28.18-97.98 55.93-148.08 81.867-49.613 25.688-100.764 48.179-150.023 74.562-96.332 51.593-187.564 112.021-281.984 166.92-45.945 26.715-92.727 52.251-141.018 74.497 3.338 9.33 6.68 18.662 10.022 27.99a169.555 169.555 0 0 1 2.938-5.881c.275-.53 3.927-6.72 1.067-2.127 2.278-3.657 4.847-7.124 7.493-10.519.167-.216 4.737-5.591 1.715-2.197 1.436-1.612 2.948-3.157 4.455-4.703 3.552-3.637 7.364-7.009 11.248-10.285 4.771-4.025 12.173-9.079 19.404-13.619 8.458-5.309 17.279-10.026 26.193-14.511 34.469-17.342 71.242-29.699 106.113-46.215 43.147-20.439 79.836-52.666 117.23-81.818 44.832-34.949 93.141-64.874 140.709-95.896 48.039-31.33 95.283-64.804 145.127-93.205 42.926-24.461 88.732-46.937 123.102-83.359 6.684-7.084 11.75-16.467 10.986-26.521-.559-7.366-5.898-13.776-13.852-11.199-49.908 16.174-93.238 47.806-137.598 74.86-48.915 29.833-102.049 53.269-153.393 78.592-106.677 52.613-213.652 104.618-320.47 156.94-43.396 21.257-86.618 42.541-129.028 65.714-40.359 22.048-80.936 43.731-124.824 57.979l2.863 37.722c72.182-71.732 163.5-120.634 250.486-171.761 103.369-60.754 205.491-123.592 307.752-186.184 31.838-19.49 63.289-39.892 95.545-58.647 28.137-16.359 57.43-30.229 78.301-56.136 6.781-8.413 13.281-38.49-6.715-33.35-47.43 12.188-90.468 38.452-131.139 64.922-21.107 13.74-41.835 28.054-62.84 41.949-19.621 12.977-39.934 24.667-59.938 37.012-88.902 54.875-170.567 120.623-260.035 174.661C76.088 360.719 34.5 382.364-9.664 397.84l2.862 37.721c39.103-33.88 85.59-57.931 127.509-87.985 21.175-15.182 40.631-32.546 61.217-48.488 20.627-15.977 41.773-31.276 63.117-46.279 86.076-60.504 176.019-115.53 257.791-181.999 18.234-14.82 35.916-30.312 52.963-46.484 6.924-6.571 11.72-16.852 10.985-26.521-.585-7.715-5.842-13.337-13.851-11.199-49.303 13.154-94.82 37.832-138.795 63.142-40.957 23.574-81.775 46.956-123.684 68.825-82.873 43.245-167.968 86.252-237.164 150.254-7.748 7.166-13.724 20.591-10.07 31.133 3.688 10.637 15.028 7.252 21.376 1.379z"/></g><path fill="#FFE5B8" d="M330.639 227.652c27.713-5.876 53.506-19.607 81.797-22.875l-1.371-18.025c-15.006 17.429-37.979 26.979-58.484 36.143-21.436 9.577-42.764 19.034-61.117 33.946-4.924 3.998-10.309 23.061 1.521 20.049 70.879-18.054 135.969-54.584 208.541-66.617l-3.57-17.727c-1.248 1.905-5.9 2.698-7.945 3.6-5.639 2.481-9.445 7.919-10.238 14.059-.518 3.99 1.658 11.23 7.273 8.758 8.34-3.672 15.734-5.718 21.014-13.778 3.355-5.123 7.379-19.542-3.568-17.729-72.57 12.031-137.664 48.566-208.543 66.616.51 6.685 1.016 13.367 1.523 20.051 38.066-30.924 90.617-36.309 123.699-74.733 2.578-2.994 7.512-19.05-1.371-18.024-29.949 3.458-56.908 17.262-86.195 23.47-9.334 1.978-15.814 25.54-2.966 22.816z"/><path d="M377.986 689.478l-.004.005zm418.356-367.356c-3.172-3.604-7.758-4.727-12.898-3.095-.639.201-1.279.407-1.914.608l.002-.11-.406.241c-32.693 10.443-40.773-5.12-74.791-.868-6.377 0-24.174.166-27.637 0-21.023-1.004-48.484-11.165-69.35-14.427-37.744-14.018-68.84-23.841-92.543-37.042-.094-2.607-.584-5.024-1.619-7.042-1.008-1.97-2.893-4.221-6.441-5.229a351.2 351.2 0 0 1-1.525-2.466c-4.98-8.135-9.199-16.855-13.381-25.664 4.111-6.964 6.115-15.229 5.613-21.844-.648-8.542-5.66-13.849-13.082-13.849-2.881 0-5.998.86-9.02 2.483-.215.117-.436.229-.652.345a122.721 122.721 0 0 0-5.662-8.21c-6.865-9.088-16.297-17.602-27.33-21.007-15.355-4.739-30.037-.267-43.643 7.401-1.939 1.093-3.752 2.495-5.412 4.126-7.225.871-14.32 3.837-20.658 7.46-10.221 5.843-16.992 20.078-16.115 31.634.844 11.123 9.926 15.15 19.262 9.812 2.521-1.442 5.91-2.479 8.877-2.331.508.042 1.012.105 1.514.184.037.054.461.221 1.299.51.967.387 5.459 3.399 4.43 2.422a42.81 42.81 0 0 1 5.273 5.431c-49.324 22.52-99.621 46.499-140.357 84.709-6.434 6.034-10.955 14.91-12.096 23.743-.518 3.997-.266 12.048 3.959 16.854 2.104 2.39 4.918 3.568 8.186 3.437 10.371-.472 21.051-1.733 32.311-3.831-9.035 4.475-17.225 9.132-24.768 14.08-8.932 5.861-15.367 16.354-16.793 27.39-.639 4.923.002 12.247 3.9 16.683 2.074 2.36 4.879 3.609 8.166 3.609 20.268-.085 41.516-1.804 64.561-5.241-26.27 11.311-53.545 23.71-79.994 38.59-9.953 5.598-15.662 17.823-16.908 27.458-.824 6.375.629 12.394 3.883 16.097 3.107 3.539 7.717 4.81 13.025 3.545 21.668-5.139 40.684-9.81 58.152-14.294a1906.958 1906.958 0 0 0-12.744 5.497l-1.123.277-.035.247c-11.102 5.277-18.963 16.356-20.623 29.18-.822 6.384.623 12.418 3.896 16.14 3.117 3.546 7.693 4.801 12.988 3.499l2.275-.569c-.471.241-1.039.484-1.508.729l-.434.057v.062c0 .611-2.156 1.223-3.338 1.832-9.436 4.885-15.471 17.524-16.762 27.489-.824 6.389.645 12.437 3.934 16.178 3.121 3.551 7.719 4.791 13.002 3.459a819.816 819.816 0 0 0 33.68-9.297c-8.07 7.854-15.143 24.627-12.391 35.148 1.811 6.925 7.594 10.176 16.164 8.943a451.508 451.508 0 0 0 23.934-4.103c-3.107 4.892-5.168 10.524-5.912 16.29-.613 4.745.115 11.938 4.199 16.58 3.18 3.617 7.764 4.711 12.873 3.016a3052.27 3052.27 0 0 1 10.957-3.627c-4.141 5.471-6.883 12.021-7.756 18.779-.842 6.505.451 12.076 3.639 15.701 3.037 3.456 7.648 4.83 13.135 3.941.727-.117 1.451-.271 2.178-.393l.139-.231c7.389-1.205 14.789-2.702 22.201-3.936-3.891 8.7-5.832 18.562-2.088 24.815 1.037 1.734 2.865 3.128 6 3.789 1.262.484 2.742.746 4.457.748v.002-.002l.055.002a892.856 892.856 0 0 0 17.521-.219c11.189.09 22.309.107 33.23-.557.662 5.695 3.512 11.029 8.16 13.082 13.195 5.822 27.988 8.775 43.959 8.775 34.02 0 68.527-13.329 91.525-23.355 43.732-19.067 83.359-44.084 119.672-68.283l1.01-.566-.008-.124c10.389-7.428 16.943-20.722 16.031-32.737-.643-8.449-5.805-13.908-13.152-13.908-.473 0-.953.023-1.436.071 11.742-9.396 21.576-19.582 29.807-30.845 5.689-7.783 10.482-19.811 6.877-30.219-1.521-4.387-4.707-7.357-8.803-8.362a276.3 276.3 0 0 0 6.287-5.746c8.242-7.771 13.062-19.446 12.279-29.745-.531-6.993-5.211-14.424-12.834-14.424-1.469 0-2.98.288-4.496.859-2.309.869-4.637 1.741-6.986 2.616 8.078-5.676 14.07-15.88 15.439-26.491.643-4.98-.445-12.366-4.359-16.818-3.209-3.648-7.783-4.656-12.789-2.75-.602.229-1.207.459-1.816.688l.012-.331-1.33.824c-.977.365-1.967.732-2.963 1.098a382.327 382.327 0 0 0 19.82-16.879c6.422-5.863 10.951-14.745 12.115-23.759.688-5.322-.254-12.555-3.908-16.714-1.018-1.155-2.209-2.044-3.557-2.646a934.63 934.63 0 0 0 19.551-11.128c9.965-5.836 15.656-17.987 16.881-27.442.806-6.241-.825-12.72-4.149-16.509zm-378.903-52.026c-1.068.328-2.141.655-3.201.988l3.049-1.361.152.373zm144.627 124.102a308.017 308.017 0 0 0 15.828 3.269 2905.962 2905.962 0 0 0-42.836 19.159c9.588-7.253 18.553-14.698 27.008-22.428z" fill="#FFE5B8"/><path fill="#FFE5B8" d="M277.32 431.124c-11.854-11.278-29.719-26.236-47.5-19.114-19.984 8.004-30.586 30.455-32.346 50.896-2.152 25.043 8.141 74.386 43.639 64.442 14.562-4.078 26.188-17.309 34.598-29.106 5.844-8.192 11.885-23.146 4.506-32.36-7.346-9.168-19.883.314-24.713 7.089a110.147 110.147 0 0 1-4.512 5.917c-2.859 3.491 4.125-4.515 1.174-1.342a55.676 55.676 0 0 1-2.143 2.149 46.773 46.773 0 0 1-2.102 1.881c-2.859 2.459 4.65-3.443 1.699-1.334-1.25.895-2.586 1.65-3.959 2.335 6.355-3.169 2.096-1.012.156-.54-2.691.654 4.719-.494 2.016-.237-.574.055-1.154.045-1.73.034-1.691-.031-5.641-1.307.188.388-1.252-.363-2.426-.954-3.549-1.604-3.625-2.103.348.535-.025.199-.918-.817-1.736-1.741-2.525-2.682-.836-.994-1.572-2.067-2.281-3.151-.369-.566-.709-1.151-1.049-1.733-1.393-2.396 2.271 4.504.504.822-1.271-2.646-2.25-5.426-3.09-8.236-.438-1.457-.795-2.938-1.129-4.421-.725-3.21.963 5.131.381 1.887a72.893 72.893 0 0 1-.463-3.046c-.406-3.024-.572-6.077-.572-9.126-.002-3.444-.252 6.057-.092 2.644.037-.731.1-1.459.162-2.188.119-1.413.326-2.819.564-4.219.811-4.742-1.883 7.018-.264 1.447.182-.621.395-1.23.609-1.837 1.176-3.338-3.031 7.079-1.596 3.889 2.42-5.385-2.342 3.39-1.475 2.114 2.992-4.401-5.062 4.817-1.152 1.371-5.549 4.889-4.371 3.258-2.715 2.181 1.324-.857 3.975-1.85-2.646 1.111 1.008-.45 2.084-.714 3.162-.912-6.215 1.151-2.154.323-.209.467.662.049 1.314.163 1.967.277 2.523.437-4.393-1.371-.521-.109 3.422 1.116 6.598 2.941 9.609 4.88 1.891 1.218 3.686 2.577 5.453 3.963-3.27-2.559.154.156.67.605 1.398 1.214 2.742 2.484 4.082 3.762 8.457 8.044 19.006.625 24.713-7.089 5.219-7.051 12.758-24.51 4.506-32.364zm496.467 29.466c.729-.9 4.953-5.618.574-.812 1.393-1.528 2.896-2.943 4.434-4.329 3.084-2.784-4.166 2.73.77-.481 4.443-2.892-2.441.758.297-.303 5.008-1.945-2.326-.71 2.547-.396 4.066.266-2.557-.987-.182-.09 1 .375 1.912.946 2.803 1.523 2.609 1.704-2.975-2.713-.662-.512.85.811 1.584 1.739 2.299 2.667.766.989 1.416 2.063 2.053 3.136-2.777-4.683-.414-.613.1.566.996 2.286 1.742 4.675 2.416 7.072.359 1.273 1.443 6.573.268.541.289 1.488.5 2.989.701 4.49.35 2.628.51 5.277.592 7.928.051 1.637-.219 7.26.105-.064-.062 1.426-.205 2.847-.361 4.268-.111 1.023-.277 2.042-.443 3.057-.654 3.954 1.752-6.692.264-1.306-.607 2.203-2.754 6.828 1.037-2.02-.947 2.211-3.736 5.764 1.58-2.219-1.996 2.994 4.697-4.935 2.232-2.45-.076.077 3.953-2.654 5.66-3.385-3.459 1.48 3.742-.099 1.158.003-1.424.055-4.555-1.028.342.422-2.15-.638-4.094-1.904-5.91-3.182-1.363-1.044-1.225-.919.41.377a51.342 51.342 0 0 1-1.959-1.833c-1.465-1.408-2.805-2.944-4.137-4.48a213183.29 213183.29 0 0 1-13.035 40.448c29.479-15.707 40.717-48.703 32.518-79.98l-28.107 38.179c11.375 4.028 22.732 6.134 31.961-3.873 6.74-7.313 10.734-15.278 12.301-25.085.402-2.516.217-5.122.268-7.67.016-2.224-.021-1.457-.113 2.299.766-6.103-1.08-1.765-5.537 13.014 6.299-7.707 11.594-23.513 4.504-32.36-7.586-9.472-19.51.723-24.713 7.088-5.199 6.361-7.537 13.881-9.158 21.766-.459 2.234-.328 6.213-.346 7.812-.012.735-.016 1.47-.014 2.203-.221-4.643.84-9.071 3.18-13.286 2.537-3.449 5.072-6.896 7.611-10.343 10.643-3.129 13.418-4.7 8.324-4.71-1.869-.093-3.773-.986-5.477-1.588-19.17-6.789-31.959 23.488-28.109 38.178.705 2.691.791 3.358 1.074 6.054.652 6.192 1.488-2.77-.129 2.414.621-1.988 1.357-3.784 2.824-5.307-1.738 1.804-2.857 2.071-6.006 3.751-11.115 5.922-22.834 29.147-13.037 40.447 12.633 14.57 31.291 23.372 46.635 6.163 14.824-16.627 19.588-38.439 17.641-60.282-1.424-15.958-6.518-34.353-20.691-43.582-19.668-12.806-42.682 11.303-53.562 24.79-6.256 7.757-11.621 23.477-4.504 32.362 7.561 9.44 19.543-.684 24.709-7.09z"/><path fill="#FFE5B8" d="M757.902 529.295c19.889 0 37.012-46.826 14.734-46.826-19.888 0-37.013 46.826-14.734 46.826z"/><path fill="#FFE5B8" d="M808.934 511.576c18.871-18.041 32.268-43.744 26.131-70.331-4.809-20.83-22.459-35.805-41.02-44.624-19.039-9.045-41.578 35.811-22.791 44.738 10.959 5.205 19.988 11.656 26.861 21.777 1.041 1.533 1.613 3.311 2.264 5.041.203.533.758 5.661.881 3.88.256-3.707-1.648 3.803.035.251.787-1.659-3.885 4.23-4.383 4.706-8.143 7.785-14.629 21.762-10.703 33.093 3.881 11.203 16.043 7.854 22.725 1.469z"/><path fill="#61E9FF" d="M243.719 924.136c28.207 27.635 66.396 40.509 104.211 48.715 41.137 8.929 83.477 11.397 125.428 13.152 47.277 1.976 94.703 2.275 141.689-4.072 49.162-6.645 96.172-21.494 141.361-41.768 7.162-3.212 11.77-11.514 9.84-19.314-20.451-82.584-74.207-157.745-156.93-186.005-40.379-13.794-83.424-13.138-125.523-11.2-37.896 1.74-76.176 6.509-112.422 18.064-37.266 11.885-71.807 32.588-95.303 64.376-27.779 37.578-34.566 85.482-30.996 131.024 1.025 13.086 15.264 2.018 16.924-5.085 8.564-36.586 14.385-74.438 28.354-109.494 12.449-31.245 36.254-52.614 67.59-64.14 21.697-7.978 45.07-11.053 67.686-15.355 24.26-4.616 48.59-8.896 73.189-11.266 47.549-4.578 96.148-.516 137.467 25.337 36.164 22.623 64.014 62.878 78.904 102.312 6.689 17.723 11.191 38.273 6.816 57.107-4.721 20.328-20.004 32.17-37.656 41.439-41.436 21.754-91.398 25.369-137.326 25.168-46.268-.201-93.42-4.771-139.031-12.525-53.768-9.139-108.613-25.072-154.168-55.933-8.346-5.652-20.258 16.366-11.395 22.37 43.434 29.424 95.082 44.797 146.115 54.771 45.588 8.912 92.984 13.24 139.381 14.536 75.639 2.114 209.551-9.257 213.271-110.116 1.543-41.824-19.674-82.182-44.199-114.699-28.01-37.135-65.678-61.65-111.404-70.785-46.963-9.383-96.102-1.646-142.594 6.779-41.543 7.531-86.307 12.543-121.109 38.586-54.277 40.611-61.725 113.949-76.051 175.166 5.641-1.697 11.283-3.391 16.924-5.086-2.924-37.31 1.057-76.279 23.414-107.477 19.254-26.87 49.494-43.195 80.199-53.527 36.125-12.156 74.539-16.504 112.439-18.246 42.633-1.961 85.799-2.123 126.35 12.838 76.641 28.273 125.324 99.963 144.367 176.879 3.283-6.438 6.561-12.876 9.842-19.314-43.607 19.562-88.873 34.066-136.225 41.051-46.281 6.828-93.479 6.168-140.09 4.283-40.111-1.62-80.297-4.123-119.799-11.629-37.254-7.076-77.211-19.482-104.934-46.643-8.327-8.158-21.573 12.901-14.606 19.726z"/><path fill="#61E9FF" d="M264.021 871.878c18.537-22.32 33.895-43.609 52.828-61.798 19.6-18.829 44.756-31.079 73.131-38.087-1.016-13.365-2.029-26.73-3.045-40.096-42.412 38.777-94.146 68.115-125.744 117.604-5.221 8.178-10.039 18.55-6.609 28.449 3.131 9.03 11.184 8.219 18.287 4.908 36.791-17.145 68.646-43.086 101.854-66.041 31.795-21.979 66.953-43.897 106.438-47.123.451-13.564.904-27.131 1.357-40.694-32.893 33.95-77.459 55.175-118.727 80.338-44.695 27.249-86.582 61.024-109.012 109.583-4.895 10.595-7.717 33.273 10.656 29.755 24.883-4.767 47.695-18.942 68.352-33.002 22.889-15.59 44.297-33.233 66.51-49.745 22.742-16.902 47.445-31.212 71.457-46.211 28.006-17.494 56.793-33.995 89.115-41.932l-13.199-23.561c-.438 1.357-3.498 9.186-.707 2.554-.979 2.327-2.125 4.579-3.287 6.819-.623 1.203-5.143 8.473-1.398 2.619-1.787 2.791-3.756 5.459-5.756 8.098-1.645 2.172-3.4 4.258-5.164 6.332 3.527-4.148-2.354 2.415-3.012 3.099-4.568 4.745-9.451 9.182-14.426 13.498-9.84 8.542-17.666 14.116-29.418 22.159-12.434 8.512-25.244 16.469-38.109 24.309-47.1 28.695-100.529 54.867-137.66 96.727-6.941 7.825-12.508 17.276-11.68 28.191.648 8.516 6.176 13.775 14.725 11.904 58.873-12.881 106.615-55.56 152.998-91.353 24.383-18.819 49.602-34.71 76.418-49.812 30.844-17.37 61.639-34.91 90.83-54.986-5.064-9.219-10.129-18.441-15.191-27.661a173.434 173.434 0 0 1-7.549 14.556c2.764-4.774-1.289 1.963-1.566 2.385-1.777 2.697-3.682 5.314-5.6 7.916-7.746 10.513-12.799 15.742-22.822 25.444-18.434 17.84-38.385 32.511-59.596 46.876-41.789 28.303-86.539 51.92-128.328 80.201-8.656 5.855-14.596 15.635-15.938 26.021-1.016 7.849 3.35 22.635 14.547 17.517 47.355-21.644 95.709-41.194 141.568-65.974 23.254-12.564 45.625-26.738 66.586-42.852 21.164-16.271 39.738-36.068 62.852-49.674-3.893-11.119-7.785-22.238-11.676-33.359-53.109 66.568-124.469 115.357-194.219 162.801-9.949 6.77-17.045 19.385-16.115 31.635.879 11.57 9.818 14.576 19.262 9.812 82.943-41.843 153.262-108.814 241.658-139.832-3.555-9.918-7.105-19.836-10.656-29.754a121.681 121.681 0 0 1-2.258 4.289c-3.74 6.924 2.779-4.037-1.496 2.555-2.633 4.061-5.607 7.889-8.662 11.635-1.223 1.504-3.891 4.316-7.541 7.932-3.547 3.51-7.301 6.809-11.094 10.047-13.951 11.906-32.162 23.256-49.057 33.658-35.139 21.636-72.402 42.256-100.551 73.051-7.021 7.683-12.498 17.387-11.678 28.191.625 8.254 6.201 14.111 14.723 11.906 76.457-19.782 135.25-77.178 204.393-112.157a59317.57 59317.57 0 0 1-17.736-21.468c-.357 1.493-3.221 9.065-.471 2.744a53.95 53.95 0 0 1-1.766 3.496c1.834-2.816 1.939-2.994.318-.535-1.568 2.361-3.381 4.562-5.191 6.737 3.076-3.694-3.055 2.936-3.691 3.556-9.539 9.312-18.021 15.117-29.242 22.761-22.057 15.03-45.666 28.234-65.662 46.082-7.482 6.679-12.441 18.14-11.68 28.19.543 7.117 6.449 15.543 14.725 11.906 46.279-20.35 91.875-45.24 141.926-55.033 18.723-3.664 31.771-50.689 5.928-45.633-50.049 9.795-95.643 34.686-141.924 55.033 1.016 13.365 2.029 26.73 3.045 40.098 5.537-4.942 4.949-4.389 10.488-8.401 5.881-4.261 11.957-8.258 18.029-12.243 13.057-8.568 26.256-16.914 38.959-26.01 24.697-17.689 51.133-40.342 58.533-71.258 3.213-13.419-.953-29.957-17.734-21.467-66.033 33.406-122.412 89.105-195.316 107.971 1.014 13.365 2.027 26.729 3.045 40.096 27.902-30.527 65.197-49.562 100.729-71.781 37.908-23.707 74.311-51.471 95.148-92.072 4.41-8.593 7.527-36.133-10.654-29.752-91.9 32.246-164.621 100.578-250.732 144.016l3.146 41.447c76.549-52.068 153.047-105.982 211.279-178.975 5.842-7.318 9.803-19.232 6.609-28.448-2.941-8.489-11.428-8.948-18.287-4.911-22.893 13.477-41.559 32.365-62.059 48.988-19.9 16.135-42.125 29.582-64.496 41.961-43.648 24.154-90.07 42.658-135.375 63.363l-1.393 43.538c44.1-29.843 91.338-54.713 135.229-84.909 45.307-31.176 90.91-68.959 114.324-120.037 3.189-6.957 5.729-15.144 3.094-22.75-2.803-8.086-11.65-9.475-18.287-4.91-53.531 36.816-113.141 63.4-164.818 102.928-44.635 34.141-89.854 76.676-146.352 89.037l3.045 40.098c18.373-20.715 36.27-32.721 59.555-47.74 25.555-16.484 52.041-31.47 77.922-47.428 48.916-30.163 103.225-66.648 121.768-124.117 3.273-10.148 1.385-27.143-13.199-23.561-32.016 7.859-61.443 23.754-89.457 40.734-24.842 15.06-50.238 30.061-73.869 46.977-22.287 15.953-43.416 33.465-65.727 49.397-20.082 14.343-41.732 29.06-66.381 33.778l10.656 29.754c9.361-20.266 19.561-32.668 37.727-48.709 16.131-14.246 36.248-26.811 56.031-38.641 41.211-24.645 84.965-47.004 118.76-81.885 6.018-6.211 10.379-13.891 11.502-22.58.809-6.248-.986-18.863-10.145-18.114-89.809 7.335-148.713 82.448-226.172 118.547l11.678 33.36c28.824-45.143 78.322-72.447 117.555-108.314 7.436-6.801 12.447-18.051 11.678-28.193-.633-8.33-6.193-14.011-14.723-11.905-32.922 8.13-62.334 23.3-87.604 45.931-24.412 21.865-43.643 49.206-64.492 74.312-6.354 7.647-11.557 23.555-4.506 32.361 7.614 9.509 19.465-.773 24.711-7.087z"/><path fill="#FFE5B8" d="M424.672 713.927c-3.428 19.219-1.688 39.82 10.273 55.873 9.883 13.263 26.682 19.439 42.594 20.893 39.402 3.604 77.822-22.93 94.119-57.746 3.551-7.586 8.426-24.375-2.223-29.308-17.885-8.284-41.709-4.292-59.984.243-25.543 6.34-53.156 27.121-46.287 56.99 2.348 10.205 13.148 16.588 22.047 20.324 13.408 5.627 29.283 4.916 42.494-.797 15.758-6.812 28.957-19.445 35.775-35.338 8.316-19.389 7.623-37.712-2.418-56.158-5.795-10.647-20.795 1.797-24.713 7.088-6.973 9.422-10.283 21.746-4.506 32.363 1.455 2.668 2.062 5.322 2.312 7.906-.354-3.652-1.207 4.438.24-.881 1.713-6.301-2.412 2.852 1.289-2.527 2.758-4.01-.959.866-1.756 1.579 2.928-2.616-2.656 1.343-2.834 1.442-.508.283-6.053 2.039-8.416 2.276-8.25.829-15.287-1.439-22.348-5.489-3.584-2.061-1.742-.356-4.342-3.803 4.32 5.727-1.008 19.303-7.232 26.158 1.598-1.482.98-1.072-1.859 1.228 1.014-.787 2.139-1.432 3.24-2.082.783-.46 5.033-2.368.674-.451 1.459-.642 2.965-1.179 4.463-1.722 6.715-2.427 13.777-3.896 20.814-5.021 2.744-.439 11.805-.971 17.027-.869 3.096.061 6.176.371 9.232.843.68.103 4.98 1.306 1.115.167 1.1.322 2.143.787 3.18 1.27-.742-9.771-1.482-19.539-2.225-29.309a64.009 64.009 0 0 1-1.656 3.406c-2.887 5.719 3.18-4.6-.322.691-1.014 1.535-2.16 2.98-3.301 4.425 3.721-4.704.021-.091-.809.751-.943.957-7.867 6.562-3.844 3.566-2.887 2.148-6 3.977-9.158 5.688-2.031 1.002-2.129 1.082-.293.249-1.619.739-3.289 1.37-4.953 1.999-3.305 1.25-6.721 2.172-10.154 2.974-4.676 1.095-3.744.828-7.574 1.114-3.359.252-6.729.158-10.084-.064-7.078-.474-8.969-1.098-14.566-3.426-2.359-.986-4.582-2.256-6.746-3.606-3.127-1.95-1.621-.755-4.844-4.161-1.754-1.857-3.205-3.973-4.561-6.13 1.914 3.046-.539-1.349-.715-1.767-.65-1.527-1.117-3.125-1.584-4.715-1.547-5.264.424 3.672-.363-1.996-.258-1.865-.318-3.756-.385-5.635-.219-6.328-.41 4.125.197-2.528.203-2.208.6-4.396.988-6.575 1.645-9.209-3.484-20.877-14.547-17.518-11.801 3.585-18.473 16.907-20.471 28.116z"/><path fill="#FFE5B8" d="M453.459 716.644c-.984 37.416 28.834 66.38 66.113 64.928 46.533-1.811 75.205-49.054 67.74-92.543-1.783-10.394-9.322-15.941-19.262-9.812-9.4 5.8-18.072 20.228-16.115 31.634.697 4.05 1.133 8.068 1.248 12.18-.162-5.863-2.076 10.713-.062 2.316-.375 1.559-.912 3.072-1.449 4.575 2.475-6.93.84-2.278-.029-.647 3.488-6.537 1.449-2.361.279-.785-3.102 4.179 3.906-4.014.268-.361-.922.926-4.785 3.91.088.22-1.131.856-2.346 1.599-3.555 2.337-.814.498-5.133 2.561-.537.486-1.305.588-2.664 1.06-4.016 1.531-2.738.953-5.588 1.551-8.438 2.037 3.414-.584-4.4.082-5.85.066-6.922-.082-10.59-1.029-14.863-2.542-2.805-.991-5.479-2.308-8.084-3.733-1.303-.711-2.541-1.534-3.779-2.354-.271-.18-4.053-3.178-1.479-.994-2.285-1.94-4.281-4.188-6.152-6.52-.953-1.184-1.783-2.46-2.609-3.73-2.695-4.142 1.318 2.987-.822-1.555-1.385-2.941-2.297-6.08-3.051-9.234 1.002 4.188-.006-1.402-.059-1.938-.248-2.452-.213-4.923-.148-7.382.297-11.23-10.766-15.053-19.262-9.812-10.888 6.716-15.793 19.415-16.115 31.632z"/><path d="M270.479 426.337c-16.93-11.13-40.547-21.137-59.012-7.529-14.914 10.99-18.947 32.214-17.873 49.574 1.143 18.529 8.605 38.586 23.25 50.619 16.221 13.327 41.197 12.074 55.881-3.098 1.232-1.272 5.396-11.109.484-10.289-8.977 1.502-16.549 6.604-25.896 7.14-7.598.434-14.768-2.007-21.076-6.113-13.16-8.572-20.602-25.307-23.043-40.305-2.014-12.371-1.691-28.749 8.818-37.451 15.406-12.76 39.564-1.785 54.516 5.931 3.07 1.582 6.859-6.568 3.951-8.479zm494.867-.107c13.316-7.886 33.18-15.497 46.85-3.977 11.105 9.358 13.49 26.324 13.336 39.948-.162 14.29-4.232 30.228-13.947 41.07-12.494 13.939-27.691 8.783-43.189 4.598-4.715-1.273-10.904 9.549-7.088 12.718 16.021 13.305 38.201 8.847 52.131-4.866 14.268-14.045 20.795-36.021 21.859-55.519.92-16.852-1.711-37.682-15.949-48.85-17.637-13.835-39.736.12-54.156 11.98-.849.698-1.738 4.021.153 2.898z"/><path fill="#EAA286" d="M493.334 644.845c10.592 1.711 20.764.733 31.068-2.096 5.393-1.48 10.486-3.877 15.365-6.57.352-.193.879-.546 1.494-.983.748-.263 1.496-.524 2.234-.804 7.348-2.779 12.111-5.85 14.92-11.723.482-.756.932-1.529 1.26-2.378 1.164-2.997 4.059-12.776-2.238-12.669-3.758.065-6.344 2.701-9.014 5.109-22.174 6.732-47.93 7.125-66.535-8.357-5.346-4.451-11.912 2.513-14.26 10.049a63.208 63.208 0 0 1-13.117-15.25c-2.037-3.31-6.951 4.933-5.805 7.518 8.333 18.755 23.636 34.763 44.628 38.154zm65.006 80.633c-16.975 9.396-36.627 13.057-55.9 12.413-19.215-.638-40.719-5.315-52.428-21.901-3.627-5.137-9.713 7.627-8.566 11.097 15.123 45.843 74.297 51.2 112.342 32.149 7.975-3.995 12.998-13.203 14.152-21.825.703-5.241-1.672-16.318-9.6-11.933z"/><path d="M629.744 429.664c11.428-24.942 53.541-27.5 58.627 3.339 3.771-3.472 7.543-6.941 11.312-10.412-3.705-21.568-24.869-32.463-45.375-30.786-21.209 1.731-43.598 23.346-38.15 45.891 1.854 7.671 10.273-3.479 10.93-6.371 1.588-6.994 1.852-11.812 7.877-16.151 5.838-4.203 13.678-5.248 20.664-5.235 15.42.027 29.994 9.143 33.031 24.76.83 4.277 5.65 1.728 7.359-.149 2.904-3.183 4.51-7.7 3.664-11.957-3.656-18.452-18.326-29.465-37.086-27.235-18.045 2.143-32.135 16.73-37.662 33.395-1.642 4.953 3.071 4.708 4.809.911zM449.533 601.407c16.154 12.85 32.699 21.597 53.266 24.566 17.426 2.516 41.076-.349 54.133-13.041 1.883-1.832 7.254-14.661.652-13.879-7.916.939-15.391 6.408-23.084 8.883-8.691 2.794-18.141 3.222-27.188 2.923-18.689-.618-38.303-7.329-55.102-15.196-2.22-1.039-4.452 4.331-2.677 5.744zM223.115 471.275c6.201-7.624 14.508-13.451 24.625-13.581 11.154-.14 13.627 9.753 17.852 17.849 1.928 3.697 6.18-4.48 6.338-5.847 1.418-12.438-4.852-24.827-18.639-25.071-13.508-.241-25.654 11.179-32.787 21.458-1.863 2.687-.947 9.568 2.611 5.192z"/><path d="M272.367 464.988c-8.041-.331-18.125-.413-23.814 6.317-5.627 6.656-4.518 16.731.307 23.532 2.07 2.915 5.457-4.321 4.838-6.264-.881-2.766-4.992-10.039-2.025-12.603 4.725-4.083 12.904-4.194 18.76-4.504 2.344-.123 4.829-6.361 1.934-6.478zm501.488 14.713c2.998-8.01 9.139-13.527 17.529-15.325 7.561-1.622 13.389 2.263 20.379 3.939 4.396 1.053 9.09-7.856 6.221-11.159-7.213-8.311-20.26-7.871-29.646-3.85-10.564 4.527-17.229 16.016-20.068 26.619-1.723 6.429 4.015 3.975 5.585-.224z"/><path d="M770.699 485.414c4.053-1.549 11.523-4.255 14.666.328 1.096 1.595.43 3.976.146 5.689-.553 3.326-2.061 6.404-2.633 9.767-.469 2.737 1.75 3.557 3.525 1.646 5.275-5.674 9.555-17.359 4.951-24.647-4.395-6.958-15.641-.724-20.424 2.099-1.348.796-2.92 6.145-.231 5.118zM428.24 717.415c-7.355 23.323-6 48.374 11.627 66.727 15.727 16.375 39.301 23.002 61.436 22.734 23.221-.277 46.559-8.234 63.346-24.537 8.723-8.471 15.008-19.887 18.123-31.587 2.557-9.615 5.15-27.679-4.422-33.931-3.627-2.37-6.922 6.035-7.311 8.113-1.787 9.544-.408 20.277-3.047 28.951-.789 2.591-1.795 4.412-4.299 7.944-1.035 1.459-4.602 4.976-7.018 6.909-14.959 11.979-34.551 16.592-53.398 16.873-18.963.287-38.832-3.793-54.104-15.544-16.658-12.819-19.979-34.323-16.006-53.822.995-4.881-4.103-1.443-4.927 1.17z"/><path d="M429.512 714.157c-54.822.246-117.068.188-153.338 48.793-16.061 21.521-24.553 47.162-29.543 73.281-4.99 26.1-7.357 53.924-4.398 80.293.617 5.493 5.51-1.244 5.945-3.479 9.012-46.166 5.859-97.842 34.004-138.14 31.83-45.577 95.955-38.383 143.709-48.636 3.865-.825 9.318-12.139 3.621-12.112zm148.17 16.862c25.975-2.047 53.768-.77 78.455 8.193 22.232 8.074 39.203 23.764 53.193 42.377 14.91 19.84 23.697 42.742 31.984 65.893 8.434 23.559 15.244 47.988 20.029 72.541 1.449 7.441 11.471-5.101 10.746-9.89-7.918-52.324-17.111-105.021-49.635-148.474-14.332-19.148-34.842-33.885-57.566-41.215-29.037-9.366-58.383-4.057-86.301 6.43-1.056.398-2.784 4.291-.905 4.145z"/><path d="M285.441 860.368c10.133.893 21.982 4.647 26.445 14.707 4.117 9.277 3.918 21.041 3.707 30.994-.24 11.271-1.914 22.523-3.064 33.725-.865 8.431-3.955 22.137 1.303 29.491 5.479 7.667 13.586-9.481 14.125-13.036 1.562-10.29-.322-21.812-.039-32.314.322-11.944.707-23.93-.816-35.812-1.283-10.017-5.037-18.528-12.381-25.534-8.062-7.686-18.756-6.891-28.797-4.432-.649.161-1.471 2.125-.483 2.211zm68.088-672.475c-27.516 36.534-53.09 74.961-71.105 117.172-8.85 20.738-15.328 42.27-19.617 64.392-2.178 11.22-3.459 22.598-4.232 33.994-.748 11.033-2.107 24.643 2.428 34.964 2.889 6.577 8.619-4.089 9.164-6.886 2.102-10.796 1.59-21.984 2.031-32.954.467-11.596 1.777-23.12 3.686-34.564 3.445-20.644 9.863-40.823 17.875-60.124 16.42-39.568 40.428-75.404 63.295-111.43 2.565-4.045.528-9.948-3.525-4.564zm-9.576 245.634c11.428-24.944 53.541-27.503 58.627 3.338 3.771-3.473 7.543-6.941 11.312-10.412-3.705-21.568-24.869-32.463-45.377-30.787-21.209 1.732-43.598 23.346-38.15 45.893 1.854 7.669 10.273-3.48 10.93-6.372 1.588-6.995 1.854-11.812 7.877-16.15 5.838-4.205 13.678-5.249 20.664-5.235 15.42.026 29.996 9.142 33.031 24.759.832 4.275 5.65 1.728 7.361-.151 2.904-3.182 4.508-7.699 3.664-11.955-3.656-18.452-18.328-29.465-37.088-27.236-18.043 2.143-32.133 16.73-37.66 33.396-1.642 4.953 3.071 4.707 4.809.912zm-31.471-52.868c10.473-10.107 24.629-14.168 38.463-17.367 14.287-3.305 29.545-3.823 43.949-1.013 18.314 3.571 30.031-38.169 14.395-37.758-39.062 1.029-78.961 13.062-101.184 47.426-2.962 4.576-2.543 15.391 4.377 8.712z"/><path fill="#08B5F9" d="M687.541 850.675c.156-.312.287-.612.449-.926.746-1.449 1.625-7.639-1.916-5.926-.938.455-1.842.942-2.744 1.439a3.94 3.94 0 0 0-1.533-.262c-.768.054-1.537.109-2.307.166-3.949.277-6.506 4.02-7.863 7.945-3.158 2.408-6.27 4.904-9.5 7.32-1.668 1.247-2.986 7.277.279 5.217 2.721-1.718 5.365-3.555 8.051-5.303.1 2.771.854 5.414 1.93 7.992-9.256 32.941 8.154 69.389 12.926 102.696 2.23 15.56 16.678-2.788 17.49-10.235 4.068-37.268 4.027-76.899-15.262-110.123zm-203.916-11.086c-20.15 1.043-39.611-9.461-53.873-22.957-6.699-6.338-12.254-13.811-17.078-21.636-4.906-7.963-6.953-17.979-12.588-25.345-.803-1.018-1.854-1.509-3.148-1.469-.695.098-1.336.256-1.949.447-.736-3.863-1.279-7.702-1.543-11.48-.447-6.469-6.75 2.037-6.883 5.17-.207 4.952.049 9.943.578 14.932-1.963 6.183-1.27 14.105.141 19.256 1.518 5.53 3.93 10.92 6.822 16.082 4.188 16.167 9.824 31.948 18.203 46.465 6.934 12.019 17.137 24.756 31.652 27.076 17.889 2.856 32.375-13.836 40.695-27.412 2.084-3.401 8.338-19.614-1.029-19.129z"/><path d="M396.357 755.96c-1.561 23.492 7.393 45.102 23.609 61.951 14.693 15.266 43.316 29.672 64.824 24.382 3.156-.78 8.342-10.998 3.771-12.513-9.717-3.222-20.176-3.262-30.014-6.447-9.975-3.23-19.225-8.436-27.604-14.678-18.234-13.582-30.18-32.252-29.789-55.5.071-4.077-4.648.609-4.797 2.805zM653.16 865.538c2.525 8.713 6.41 16.869 9.521 25.386 3.744 10.249 5.773 21.021 7.809 31.704 4.148 21.777 5.771 44.02 9.029 65.938.16 1.086.43 3.412 1.91 3.723.436.092.873.182 1.309.275 2.719.568 4.936-2.115 5.879-4.418 3.938-9.604.404-20.83-.838-30.873-1.537-12.406-3.586-24.748-6.033-37.008-2.414-12.102-5.797-23.93-10.586-35.311-3.537-8.406-8.006-17.674-17.221-20.603-.527-.17-.89.8-.779 1.187z"/><path fill="#EAA286" d="M769.213 385.573c-2.428-14.036-6.477-27.585-12.301-40.468a231.768 231.768 0 0 0 5.904-2.127c3.525-1.331 5.877-5.063 6.348-8.714.379-2.925-.977-6.388-4.508-5.43-1.922.521-3.854.999-5.787 1.472 1.256-2.723 1.289-5.703-1.848-6.463-3.482-.844-6.98-1.58-10.49-2.229a78.03 78.03 0 0 0-4.199-6.137c-1.551-2.047-4.354-.676-5.797.687a10.35 10.35 0 0 0-2.424 3.518c-50.592-6.55-103.342 1.779-151.586-17.677-14.1-5.686-26.295-14.112-38.652-22.792a718.185 718.185 0 0 1-30.084-22.321c-17.832-13.969-34.471-29.394-48.291-47.404-13.434-17.505-23.834-37.015-32.336-57.325-.475-1.134-1.17-1.554-1.934-1.499-3.141-1.953-8.26 5.188-8.51 8.204-4.012 48.359 27.715 93.095 60.312 125.546 17.457 17.377 37.223 32.784 58.691 44.894 23.584 13.304 50.436 20.393 76.967 24.987 39.299 6.806 80.783 6.376 119.637-3.602 13.234 80.734 7.121 168.236-29.385 241.69-23.055 46.388-58.75 84.115-104.91 107.939-2.818 1.455-3.951 8.885.512 6.76 26.051-12.402 49.648-29.826 69.5-50.799 1.303.373 2.957-.342 4.041-1.375 19.021-18.127 34.258-39.277 45.709-62.357.107-.191.219-.381.326-.572 8.348-13.182 17.037-26.155 23.277-40.294a5419.502 5419.502 0 0 0-1.771 15.448c-.881 7.789 7.23 5.836 9.521.502 14.004-32.615 15.74-69.563 14.291-104.852 3.765-25.703 4.168-51.821-.223-77.21zM448.131 210.747c-.717.65-1.383 1.506-1.967 2.464-3.123-6.098-5.855-12.39-8.031-18.825a262.645 262.645 0 0 0 9.998 16.361zm282.023 121.587c-29.619 6.639-61.08 4.427-90.678-3.038 8.844.627 17.711.941 26.521 1.158 21.442.529 42.847.15 64.157 1.88z"/><path fill="#FFBF1F" d="M794.611 255.087c2.744.698-2.254-1.032-3.105-1.44-1.717-.821-3.311-1.877-4.855-2.979-.121-.088-.213-.151-.307-.217-.062-.055-.109-.099-.184-.163-.814-.715-1.455-1.365-2.049-2.271-1.213-1.848-3.637-3.521-5.111-5.27-1.441-1.713-2.76-3.529-4.043-5.361-.67-.954-1.301-1.934-1.934-2.911-.324-.504-2.318-3.951-.596-.689-1.561-2.955-3.338-5.733-5.031-8.608-.629-1.067-1.23-2.15-1.834-3.232a224.408 224.408 0 0 1-1.086-2.09c-9.4-18.28-15.885-37.853-24.766-56.365-20.365-42.443-67.883-64.934-110.291-79.604-22.988-7.952-46.906-13.998-71.02-17.292-15.318-2.093-31.607-3.104-46.533.889-1.975.07-3.945.199-5.896.438-10.943 1.335-21.4 4.937-29.137 13.282-9.988 10.778-16.34 24.391-16.807 39.014-5.32 13.183-8.363 27.311-7.18 41.575 2.283 27.494 22.715 49.546 41.834 67.559 36.045 33.954 79.852 57.298 127.248 71.032a587.569 587.569 0 0 0 24.424 6.529c12.896 5.86 26.275 10.559 39.924 13.243 7.592 1.494 14.266.144 20.158-3.166 9.018.576 18.072.498 27.066-.44 6.988-.729 13.812-1.915 20.543-3.924 8.158-2.436 12.742-4.878 19.523-8.117 5.578-2.665 9.723-9.619 11.826-15.43 13.477-1.737 25.397-29.87 9.219-33.992zm-171.896-87.126c-12.025-9.749-25.252-17.507-38.879-24.608-5.318-3.877-10.646-7.779-16.045-11.558 16.707 6.663 31.682 15.276 46.102 26.418 4.693 3.626 9.777 8.014 14.877 12.707a393.956 393.956 0 0 1-6.055-2.959zm-15.354 50.953c3.021 3.212 5.879 6.579 8.672 10.003a382.283 382.283 0 0 1-21.861-16.441c4.349 2.237 8.76 4.358 13.189 6.438zM707.5 272.039c-.129-.003-.26.006-.389.001 1.309-.623 1.223-.347.389-.001z"/><path d="M691.691 832.96c-14.297 5.233-26.676 13.631-36.346 25.439-1.611 1.969-3.139 4.945-2.32 7.572 1.049 3.362 4.424.303 5.521-1.207 8.316-11.453 19.523-19.699 32.309-25.586 1.954-.9 4.041-7.391.836-6.218zM360.346 182.021c-31.393 31.44-52.271 71.361-67.654 112.637-16.684 44.767-26.637 92.449-30.334 140.04-6.428 82.774 11.947 169.05 69.74 231.323 57.633 62.109 146.482 85.713 228.783 72.193 76.465-12.561 140.002-61.402 178.141-128.008 46.629-81.432 56.936-204.14 29.129-293.524-2.162-6.953-9.982 5.568-9.041 9.926 16.416 75.881 13.109 179.204-19.252 250.524-30.898 68.099-90.557 117.934-163.994 133.637-82.521 17.647-173.199-4.941-231.965-66.82-59.439-62.594-74.201-150.825-66.588-234.018 3.689-40.333 12.518-80.194 25.955-118.39 13.266-37.699 31.766-74.854 58.559-104.8 1.808-2.02 1.927-8.134-1.479-4.72z"/><path d="M521.109 58.184c-41.156 19.437-85.487 55.119-77.953 105.967 6.62 44.68 45.912 79.391 81.182 103.387 43.84 29.827 95.311 50.991 147.815 58.94 40.636 6.152 91.409 4.638 120.762-28.617 9.117-10.33 15.368-22.837 18.581-36.219 1.495-6.227-4.95-5.171-6.227-.287-4.892 18.709-15.211 33.724-32.118 43.854-17.791 10.66-39.215 14.076-59.659 14.431-51.712.896-104.035-16.602-149.471-40.176-23.084-11.977-45.178-26.302-64.729-43.498-16.574-14.578-31.957-31.686-41.585-51.727-7.98-16.612-11.333-35.492-5.96-53.243 6.479-21.404 24.29-37.946 42.583-50.21 8.713-5.842 17.928-10.973 27.306-15.661 2.926-1.464 4.053-9.104-.527-6.941z"/><path d="M810.234 257.892c-19.228 14.341-35.405-7.759-41.746-24.323-4.642-12.126-5.617-25.174-8.632-37.726-2.462-10.254-5.909-20.263-10.563-29.731-8.956-18.22-22.758-32.876-38.141-45.869-13.749-11.613-28.052-21.583-44.071-29.762-31.852-16.262-67.36-27.646-103.035-31.003-32.503-3.06-69.416 2.1-91.855 28.216-7.789 9.065-13.215 19.812-16.664 31.217-1.892 6.258 4.639 4.95 6.258.289 25.683-73.955 128.049-49.052 181.47-26.451 33.661 14.241 66.211 35.571 88.31 65.154 12.811 17.149 19.381 37.567 23.361 58.383 3.705 19.378 10.735 46.396 31.798 53.954 8.968 3.218 17.716-.071 24.829-5.736 2.346-1.87 2.528-9.482-1.319-6.612zm-501.115 10.195c10.737-28.565 26.946-55.394 49.061-76.598 23.386-22.422 52.246-35.901 83.222-44.294 7.897-2.14 14.146-22.523 2.618-20.138-34.868 7.217-67.059 25.802-91.628 51.406-24.283 25.306-40.588 56.449-52.468 89.2-.811 2.234-.795 6.717 2.501 6.872 3.428.161 5.68-3.752 6.694-6.448z"/><path d="M802.638 263.881c-9.324 14.41-21.645 24.318-37.978 29.817-16.689 5.618-34.784 6.044-52.161 4.34-32.307-3.168-67.063-14.227-93.312-33.805-4.674-3.487-9.208-7.539-12.44-12.435-2.062-3.124-6.638 3.86-4.92 6.642 6.208 10.055 17.154 17.035 27.177 22.778 14.588 8.359 30.552 14.369 46.734 18.809 32.725 8.979 71.311 12.446 102.174-4.396 11.887-6.486 22.199-16.682 28.232-28.855 1.553-3.136-1.165-6.515-3.506-2.895z"/><path d="M805.974 266.28c-28.124 13.181-60.25 15.042-90.21 7.599-14.665-3.644-28.621-10.095-41.258-18.321-13.357-8.694-23.974-20.021-33.702-32.516-2.481-3.187-6.643 4.056-5.002 6.752 16.543 27.188 46.67 45.741 77.05 53.337 31.363 7.842 64.536 4.605 93.687-9.409 3.176-1.527 4.343-9.743-.565-7.442z"/><path fill="#FFBF1F" d="M514.729 81.511c-20.494 12.339-40.2 28.942-50.591 50.961-10.085 21.373-5.229 44.387 5.645 64.407 11.088 20.414 28.14 37.238 46.87 50.715 18.325 13.186 39.271 22.642 61.836 25.174 5.969.67 11.967.581 17.925-.143 3.698-.45 7.69-9.627 2.99-9.502-20.614.549-40.379-7.299-58.296-16.833-20.477-10.896-38.794-26.142-53.043-44.444-12.434-15.971-25.046-38.828-20.119-59.76 5.55-23.576 27.951-41.14 47.318-53.52 2.715-1.734 3.871-9.708-.535-7.055z"/><path d="M724.459 380.744c-8.668-15.481-22.762-28.59-39.352-35.098-16.16-6.339-34.527-9.052-51.816-9.538-16.727-.469-25.111 40.819-11.445 38.322 16.545-3.024 33.092-3.062 49.559.6 15.836 3.52 31.943 7.87 44.645 18.484 5.477 4.582 10.805-8.492 8.409-12.77z"/><path fill="#FFF" d="M599.881 493.346c-52.947 2.478-106.787 5.957-159.404-2.275-3.68-.575-6.445 5.049-6.812 7.862-1.537 11.742 2.807 22.398 9.525 31.547-4.492 8.378-4.936 18.017 3.705 25.256 9.963 8.35 24.098 12.082 37.094 14 7.371 3.412 15.338 5.537 23.627 6.265 37.104 3.257 69.377-23.049 85.76-54.323 3.648-6.964 6.529-14.37 8.857-21.869.585-1.885.857-6.614-2.352-6.463zm-121.846 35.486c1.992 1.812 4.191 3.305 6.541 4.523-4.557-.577-9.043-1.485-13.355-2.875a73.2 73.2 0 0 1 6.814-1.648zm83.817 2.019c-.363.003-.727.021-1.09.024 1.32-.186 2.639-.353 3.959-.501-.059.55-.129 1.091-.207 1.626-.491-.719-1.336-1.157-2.662-1.149zm-101.456-9.039a42.092 42.092 0 0 1-2.324-2.796 675.68 675.68 0 0 1 8.537-.136 57.357 57.357 0 0 0-6.213 2.932zm-12.988-16.163a12.1 12.1 0 0 0-.078-.225l.588.071c-.17.049-.342.092-.51.154zm139.934 1.885c-7.818-.019-15.639-.16-23.457-.364 9.104-.392 18.215-.793 27.332-1.13-.41 1.038-.834 2.069-1.275 3.095-.444-.952-1.251-1.598-2.6-1.601zm-135.436 32.913c.287.467.596.921.891 1.383a13.788 13.788 0 0 1-1.383-1.866l.492.483z"/><path d="M409.084 477.508c31.306 20.347 72.058 25.053 108.56 25.016a276.38 276.38 0 0 0 60.616-6.834c16.916-3.837 35.516-9.517 49.706-19.862 2.623-1.912 4.592-10.494-.586-7.713-15.383 8.263-30.847 14.379-47.917 18.327-19.739 4.564-39.986 6.298-60.209 6.538-35.553.422-75.443-3.998-106.695-22.293-2.727-1.599-6.168 5.07-3.475 6.821z"/><path d="M424.898 485.613c-3.569 45.075 25.028 88.523 70.124 98.243 20.604 4.441 44.29.359 63.069-8.833 16.665-8.158 29.273-22.549 37.248-39.094 7.506-15.572 12.546-34.789 12.19-52.14-.03-1.478-1.203-2.637-2.698-2.183-2.165.657-3.387 3.098-3.754 5.153-1.832 10.238-2.754 20.442-5.595 30.505-2.478 8.779-6.028 17.329-11.019 24.987-10.516 16.141-26.917 25.894-45.413 30.313-22.266 5.32-45.52 3.648-65.559-7.815-19.553-11.187-33.67-30.557-39.837-52.048-2.678-9.332-3.52-19.195-2.892-28.863.359-5.521-5.575-1.873-5.864 1.775z"/><path d="M428.281 519.901c25.274 12.967 53.888 19.807 82.174 21.321 29.4 1.574 61.931-2.993 86.654-20.074 2.506-1.731 3.903-9.569-.527-6.939-25.911 15.383-55.176 20.269-85.021 18.726-27.365-1.415-55.153-7.776-79.932-19.604-2.783-1.329-6.082 5.168-3.348 6.57z"/><path fill="#EAA286" d="M319.633 482.842a3.301 3.301 0 0 0-.359-.99c-.051-.086-.102-.158-.154-.236-1.066-2.272-2.672-4.246-4.766-5.42-7.301-4.095-13.268 6.892-15.379 12.007-.531 1.287-1.16 5.025 1.369 4.428.982 2.477 3.404 4.284 6.367 5.539 6.705 2.839 12.846-.933 13.807-8.057.312-2.31-.01-4.898-.885-7.271zm-4.334 9.707c.15-.276.229-.395.252-.431.004.03.01.045.012.05-.016-.002-.077.038-.264.381zm.269-.94a2.895 2.895 0 0 0-.018.503 1.12 1.12 0 0 1-.408.288c-.902.355-1.854.283-2.797.18-.764-.083-1.793-.295-2.855-.635.447-.255.867-.517 1.229-.695l3.297-1.64c.434.163.941.153 1.439-.045.004.029.012.06.016.088.117.73.134 1.545.097 1.956zm38.364-9.908a3.202 3.202 0 0 0-.359-.991c-.049-.086-.102-.158-.152-.235-1.066-2.272-2.672-4.247-4.766-5.42-7.301-4.095-13.27 6.891-15.379 12.006-.531 1.287-1.16 5.025 1.369 4.428.98 2.477 3.404 4.285 6.367 5.54 6.703 2.838 12.846-.934 13.807-8.058.31-2.309-.012-4.897-.887-7.27zm-4.332 9.706c.148-.276.229-.395.252-.431.004.03.008.046.012.05-.016-.002-.079.038-.264.381zm.269-.939a2.896 2.896 0 0 0-.018.503 1.115 1.115 0 0 1-.41.288c-.9.356-1.854.283-2.795.181-.764-.084-1.795-.296-2.855-.636.447-.254.867-.517 1.229-.695l3.297-1.64c.434.164.941.154 1.439-.044.004.028.01.059.016.087.117.729.134 1.546.097 1.956zm38.08-8.767a3.307 3.307 0 0 0-.359-.991c-.051-.086-.102-.158-.154-.235-1.066-2.272-2.672-4.247-4.766-5.42-7.301-4.095-13.27 6.891-15.379 12.006-.531 1.287-1.16 5.025 1.369 4.428.982 2.477 3.404 4.285 6.367 5.54 6.705 2.838 12.846-.934 13.807-8.058.312-2.309-.01-4.897-.885-7.27zm-4.334 9.706c.15-.276.229-.395.252-.431.004.03.008.046.012.05-.016-.002-.078.038-.264.381zm.27-.939a2.896 2.896 0 0 0-.018.503 1.12 1.12 0 0 1-.408.288c-.902.356-1.854.283-2.797.181-.764-.084-1.795-.296-2.855-.636.447-.254.867-.517 1.229-.695l3.297-1.64c.434.164.941.154 1.439-.044.004.028.012.059.016.087.116.729.134 1.546.097 1.956zm-45.119 24.264a3.202 3.202 0 0 0-.359-.991c-.049-.086-.102-.158-.152-.235-1.068-2.272-2.672-4.247-4.766-5.42-7.301-4.095-13.27 6.891-15.379 12.006-.531 1.288-1.16 5.025 1.369 4.428.98 2.477 3.404 4.285 6.367 5.54 6.703 2.839 12.844-.934 13.807-8.058.31-2.309-.012-4.897-.887-7.27zm-4.332 9.706a4.65 4.65 0 0 1 .252-.431c.004.03.008.045.012.05-.016-.001-.079.039-.264.381zm.267-.939a3.425 3.425 0 0 0-.018.503 1.12 1.12 0 0 1-.408.288c-.9.356-1.854.283-2.795.181-.766-.084-1.795-.296-2.857-.636.449-.254.869-.517 1.23-.695l3.297-1.64c.432.164.941.154 1.438-.044.006.028.012.059.016.087.117.729.134 1.546.097 1.956zm40.49-9.908a3.25 3.25 0 0 0-.357-.991c-.051-.085-.104-.158-.154-.235-1.066-2.272-2.672-4.246-4.766-5.42-7.301-4.095-13.27 6.892-15.379 12.006-.531 1.288-1.16 5.025 1.369 4.428.98 2.478 3.404 4.285 6.367 5.54 6.705 2.839 12.846-.934 13.807-8.057.313-2.31-.01-4.898-.887-7.271zm-4.332 9.706c.15-.275.229-.395.252-.431.004.03.008.046.012.05-.016-.001-.078.038-.264.381zm.27-.94a2.896 2.896 0 0 0-.018.503c-.039.044-.184.2-.41.288-.9.356-1.854.283-2.795.181-.764-.084-1.795-.296-2.855-.636.447-.254.867-.517 1.229-.695l3.297-1.64c.434.164.941.154 1.439-.044.004.029.012.059.016.088.116.729.134 1.545.097 1.955zm287.049-38.347a3.245 3.245 0 0 0-.357-.99c-.051-.086-.104-.159-.154-.236-1.066-2.272-2.672-4.246-4.766-5.42-7.301-4.095-13.27 6.892-15.379 12.006-.531 1.288-1.16 5.025 1.369 4.429.98 2.477 3.404 4.284 6.367 5.539 6.705 2.839 12.846-.933 13.807-8.057.312-2.31-.01-4.898-.887-7.271zm-4.332 9.707c.15-.276.229-.395.252-.431a.14.14 0 0 0 .012.05c-.016-.002-.079.037-.264.381zm.269-.94a2.895 2.895 0 0 0-.018.503 1.127 1.127 0 0 1-.41.288c-.9.355-1.854.282-2.795.18-.764-.083-1.795-.295-2.855-.635.447-.255.867-.517 1.229-.696l3.297-1.64c.434.164.941.154 1.439-.044.004.029.012.06.016.088.117.73.134 1.545.097 1.956zm38.364-9.909a3.206 3.206 0 0 0-.359-.99c-.049-.086-.102-.158-.152-.236-1.066-2.271-2.672-4.246-4.766-5.419-7.301-4.095-13.27 6.891-15.379 12.006-.531 1.287-1.16 5.025 1.369 4.428.98 2.477 3.404 4.284 6.367 5.54 6.703 2.838 12.844-.934 13.807-8.058.31-2.31-.012-4.898-.887-7.271zm-4.333 9.707a4.65 4.65 0 0 1 .252-.431c.004.03.008.045.012.05-.015-.002-.078.038-.264.381zm.268-.939a3.424 3.424 0 0 0-.018.503 1.1 1.1 0 0 1-.408.288c-.9.356-1.854.283-2.795.18-.766-.083-1.795-.295-2.855-.635.447-.255.867-.517 1.229-.695l3.297-1.64c.432.164.941.154 1.438-.045.006.029.012.06.016.088.118.729.135 1.546.096 1.956zm38.08-8.768a3.254 3.254 0 0 0-.357-.99c-.051-.086-.104-.158-.154-.236-1.066-2.271-2.672-4.246-4.766-5.419-7.301-4.095-13.27 6.891-15.379 12.006-.531 1.287-1.16 5.025 1.369 4.428.98 2.477 3.404 4.284 6.367 5.54 6.705 2.838 12.846-.934 13.807-8.058.31-2.31-.012-4.898-.887-7.271zm-4.332 9.707c.148-.276.229-.395.252-.431.004.03.008.045.012.05-.016-.002-.078.038-.264.381zm.27-.939a2.895 2.895 0 0 0-.018.503 1.115 1.115 0 0 1-.41.288c-.9.356-1.854.283-2.795.18-.764-.083-1.795-.295-2.855-.635.447-.255.867-.517 1.229-.695l3.297-1.64c.434.164.941.154 1.439-.045.004.029.01.06.016.088.116.729.134 1.546.097 1.956zm-45.12 24.263a3.258 3.258 0 0 0-.359-.99c-.049-.086-.102-.158-.154-.235-1.066-2.272-2.67-4.247-4.764-5.42-7.301-4.095-13.27 6.891-15.379 12.006-.531 1.287-1.16 5.025 1.369 4.428.98 2.477 3.404 4.284 6.365 5.54 6.705 2.838 12.846-.934 13.807-8.058.313-2.309-.009-4.897-.885-7.271zm-4.332 9.707a4.65 4.65 0 0 1 .252-.431c.004.03.008.045.012.05-.015-.001-.078.039-.264.381zm.268-.939a3.137 3.137 0 0 0-.018.503 1.12 1.12 0 0 1-.408.288c-.9.356-1.854.283-2.797.18-.764-.083-1.793-.295-2.855-.635.449-.255.869-.517 1.23-.695 1.098-.547 2.197-1.094 3.297-1.64.432.164.941.154 1.438-.044.004.028.012.059.016.087.117.729.134 1.546.097 1.956zm40.49-9.908a3.202 3.202 0 0 0-.359-.991c-.049-.086-.102-.158-.152-.235-1.066-2.272-2.672-4.246-4.766-5.42-7.301-4.095-13.27 6.892-15.379 12.006-.531 1.288-1.16 5.025 1.369 4.428.98 2.478 3.404 4.285 6.367 5.54 6.703 2.839 12.846-.934 13.807-8.058.311-2.309-.012-4.897-.887-7.27zm-4.332 9.706c.148-.275.229-.395.252-.431.004.03.008.045.012.05-.016-.001-.078.038-.264.381zm.27-.94a3.264 3.264 0 0 0-.02.503 1.082 1.082 0 0 1-.408.288c-.9.356-1.854.283-2.795.181-.764-.083-1.795-.296-2.855-.636.447-.254.867-.517 1.229-.695l3.297-1.64c.434.164.941.154 1.439-.044.004.029.01.059.016.088.116.729.134 1.545.097 1.955z"/><path d="M455.93 205.439c10.697 25.511 28.525 46.427 49.74 63.858 17.717 14.557 37.564 28.067 57.889 38.739 28.217 14.816 60.395 23.422 91.592 29.093 33.303 6.053 69.893 8.798 102.625-1.659 31.121-9.943 55.551-37.298 54.391-71.24-.092-2.687-2.166-4.814-4.918-3.979-3.9 1.185-6.242 5.654-6.842 9.394-.609 3.789-1.299 7.86-2.027 10.667-.463 1.795-1.047 3.557-1.615 5.32a61.525 61.525 0 0 1-.898 2.536c-.424 1.083-.428 1.104-.008.062a62.389 62.389 0 0 1-.709 1.587c-.711 1.556-1.521 3.062-2.369 4.547-1.391 2.445 1.127-1.707-.396.63-.453.697-.939 1.372-1.424 2.047-.445.621-3.232 4.012-2.023 2.649-1.271 1.433-2.645 2.769-4.053 4.065-2.82 2.6-3.361 2.956-6.789 5.205-2.662 1.745-6.6 3.874-8.77 4.85-6.969 3.133-14.373 5.239-21.84 6.791-34.104 7.089-71.064 1.779-104.586-5.932-25.443-5.852-51.533-13.935-74.363-26.849-19.145-10.831-38.033-23.383-54.969-37.426-18.789-15.581-35.621-33.718-45.805-56.148-3.872-8.526-14.415 5.039-11.833 11.193z"/></svg>