<svg xmlns="http://www.w3.org/2000/svg" xmlns:xlink="http://www.w3.org/1999/xlink" width="1030" height="1030" viewBox="0 0 1030 1030"><defs><path id="a" d="M1020.377 515.001c0 279.115-226.264 505.377-505.377 505.377S9.623 794.114 9.623 515.001 235.887 9.622 515 9.622s505.377 226.266 505.377 505.379z"/></defs><clipPath id="b"><use xlink:href="#a" overflow="visible"/></clipPath><g clip-path="url(#b)"><circle fill="#EF6100" cx="516.036" cy="517.213" r="505.378"/><path fill="#EA2700" d="M64.951 301.339c65.697-60.767 147.473-101.363 226.166-142.394 40.816-21.281 80.746-43.73 120.539-66.854 43.207-25.11 87.471-49.598 136.055-62.561l-2.865-37.722C469.85 62.96 382.369 118.799 296.99 176.392c-43.967 29.658-87.432 59.996-129.215 92.682-20.033 15.672-39.121 32.311-60.043 46.828-21.762 15.1-44.41 28.884-66.553 43.409-20.461 13.421-40.42 27.7-58.93 43.736-7.092 6.145-11.695 17.171-10.986 26.521.549 7.209 5.932 13.974 13.85 11.2 98.168-34.394 184.33-95.652 268.734-154.941 42.164-29.617 84.252-59.421 128.115-86.495 19.998-12.341 40.242-24.097 59.857-37.073 21.043-13.919 41.816-28.239 62.965-42.001 37.357-24.313 76.479-48.122 120.033-59.315-2.238-11.117-4.479-22.232-6.717-33.351-3.625 4.497-11.99 11.267-18.963 15.919-10.002 6.67-20.648 12.364-31.156 18.178-23.029 12.742-45.092 27.219-67.553 40.936-51.307 31.332-102.533 62.797-153.852 94.112-51.111 31.188-102.328 62.211-153.791 92.816-45.842 27.263-92.238 53.613-137.738 81.449-57.197 34.991-113.604 73.15-161.328 120.578-6.828 6.784-11.734 16.688-10.986 26.521.559 7.365 5.898 13.78 13.85 11.198 51.945-16.859 99.748-43.608 147.504-69.638 50.273-27.404 102.16-51.78 153.584-76.934 106.723-52.204 213.545-104.201 320.025-156.899 43.588-21.572 87.41-42.348 128.738-68.076 36.969-23.018 73.674-48.996 115.463-62.538-.953-12.575-1.908-25.146-2.863-37.721-32.516 34.457-76.607 55.146-117.221 78.288-50.043 28.516-97.457 62.321-145.693 93.778-48.672 31.741-97.557 62.7-143.463 98.404-36.258 28.201-71.635 58.477-113.408 78.263C167.328 440.29 75.775 461.753 37.92 541.29c-3.076 6.463-5.365 14.316-2.91 21.401 1.744 5.04 7.496 9.095 12.932 6.589C148.03 523.178 241.46 464.948 335.393 407.693c46.518-28.354 93.287-56.325 141.229-82.228 49.123-26.541 100.223-49.029 149.865-74.543 51.182-26.305 101.262-54.686 151.102-83.427-.984-12.997-1.971-25.993-2.959-38.989-89.506 66.279-184.82 124.035-280.238 181.279-95.314 57.186-189.699 115.122-280.916 178.699C148.705 533.63 71.058 560.08 21.238 624.456c-8.811 11.384-11.102 42.221 10.984 31.382 208.227-102.161 408.941-218.58 611.711-330.955 81.105-44.949 162.598-89.213 245.033-131.684l-2.959-38.989C685.129 269.934 490.303 395.938 300.445 528.915 223.52 582.794 147.441 637.887 72.1 693.958c-9.189 6.835-16.062 17.88-15.162 29.76.736 9.699 9.592 15.234 18.121 9.229 43.633-30.724 91.014-55.527 138.016-80.599 48.865-26.063 96.42-53.966 143.453-83.206 97.824-60.818 193.598-125.836 295.82-179.224 79.943-41.755 155.398-91.653 236.617-131.035l-7.131-35.752C726.803 362.758 546.322 469.948 368.693 577.764c-93.445 56.721-186.838 113.71-276.604 176.167-9.318 6.483-16.043 18.146-15.16 29.758.801 10.539 9.316 14.158 18.119 9.23 202.516-113.372 408.094-221.234 609.109-337.292 82.609-47.694 164.385-96.848 244.781-148.196-3.662-10.461-7.324-20.92-10.984-31.381-4.996 7.511-10.377 14.716-16.098 21.688-5.041 6.146-10.836 12.267-18.377 19.708-14.123 13.939-29.658 26.809-45.088 38.273-35.398 26.297-73.572 48.73-112.082 70.107-37.449 20.789-75.582 40.312-113.115 60.945-42.605 23.422-83.6 49.658-124.551 75.827-65.342 41.753-130.41 84.796-198.977 121.15-60.084 31.858-124.111 59.162-173.205 107.688-6.838 6.763-11.73 16.707-10.986 26.522.621 8.163 5.797 12.765 13.852 11.198 27.105-5.267 51.928-18.041 75.645-31.759 24.854-14.379 49.684-28.81 74.537-43.192a10595.979 10595.979 0 0 0 152.23-89.771c49.531-29.772 100.037-57.95 150.666-85.822 50.375-27.729 102.133-51.93 153.664-77.322 67.275-33.148 131.117-72.729 197.158-108.185l-10.984-31.383c-5.504 7.192-9.137 10.836-17.041 18.057-7.752 7.076-15.979 13.312-24.516 19.367-18.807 13.338-38.715 25.094-58.617 36.699-43.186 25.18-85.119 51.793-126.225 80.276-91.949 63.715-180.73 131.845-272.465 195.851-62.607 43.68-127.02 85.396-195.645 119.062l2.959 38.99c48.338-27.513 98.725-51.109 148.234-76.384 25.084-12.807 49.887-26.168 74.096-40.571 24.189-14.391 46.896-30.896 69.811-47.201 23.254-16.545 46.578-32.993 70.564-48.466 23.51-15.167 48.084-28.535 72.547-42.078 48.809-27.02 97.926-53.479 146.338-81.21 61.396-35.17 121.518-72.686 178.057-115.307-3.66-10.461-7.322-20.922-10.984-31.382-59.98 69.826-146.117 119.632-225.496 166.939-91.051 54.269-181.008 110.706-269.408 169.204-41.195 27.26-81.385 55.869-121.203 85.092-39.395 28.913-78.961 57.731-121.234 82.347-9.594 5.584-15.992 18.821-15.16 29.759.84 11.066 9.201 13.475 18.119 9.23 100.961-48.053 196.104-107.057 291.244-165.518 47.797-29.37 95.674-58.625 144.387-86.46 47.674-27.237 96.568-52.016 145.609-76.669 75.025-37.713 150.203-76.055 218.389-125.428l-7.131-35.751c-33.609 33.213-76.09 55.599-117.895 76.72a4038.336 4038.336 0 0 0-133.637 70.689C696.643 642.5 596.813 696.587 500.553 756.758c-39.695 24.813-79.178 50.248-116.168 78.982-32.521 25.263-64.553 53.299-102.398 70.431-8.955 4.054-15.02 11.32-17.994 20.765-1.854 5.884-3.031 24.237 8.273 22.726 45.447-6.074 87.678-22.926 128.725-42.8 43.947-21.275 85.809-46.649 127.57-71.857 92.4-55.778 188.994-103.604 284.818-153.169 30.957-16.012 61.801-31.989 92.062-49.282l89.188-50.968c9.619-5.496 15.986-18.892 15.162-29.759-.805-10.575-9.309-14.111-18.121-9.229-104.188 57.711-206.854 118.117-308.768 179.746-51.145 30.929-102.086 62.187-152.945 93.583-44.668 27.573-85.541 60.625-129.553 89.188-21.203 13.757-43.262 26.518-67.016 35.328l-1.309 40.958C503.949 874.062 702.254 821 881.385 728.062c47.312-24.547 93.092-52.107 136.094-83.643 9.217-6.758 16.057-17.938 15.16-29.76-.76-9.986-9.486-14.867-18.119-9.229-189.895 124.01-375.484 255.294-574.297 364.989a2771.025 2771.025 0 0 1-59.693 31.968l7.133 35.753c73.348-58.31 162.889-92.968 248.277-129.313 44.957-19.136 89.82-38.741 132.914-61.835 22.314-11.959 44.492-24.162 66.002-37.533 23.461-14.584 46.566-29.751 71.246-42.24l-14.291-26.021c-3.254 5.631 2.838-4.268-.768 1.271-1.092 1.673-2.266 3.292-3.438 4.908-1.197 1.657-2.473 3.257-3.742 4.856-.225.285-4.668 5.495-1.594 2.025-6.42 7.245-13.553 13.844-20.877 20.158-14.344 12.364-31.18 23.663-48.141 34.454-35.631 22.667-73.098 42.25-109.025 64.42-39.857 24.595-76.527 54.362-114.17 82.133-42.477 31.335-86.008 61.829-133.523 85.104-8.504 4.165-17.23 7.841-26.043 11.295.953 12.572 1.908 25.146 2.865 37.721 61.736-53.27 143.855-80.491 220.311-108.335 80.787-29.419 162.883-61.466 226.773-120.972 7.469-6.955 14.516-14.354 21.266-22.004 7.164-8.118 13.979-19.857 10.072-31.133-3.469-10.01-15.477-8.066-21.377-1.381-114.229 129.438-307.648 132.047-443.064 231.178a405.272 405.272 0 0 0-25.289 20.133c-7.098 6.125-11.693 17.185-10.986 26.522.529 6.965 5.992 14.28 13.852 11.197 97.135-38.068 176.129-109.005 260.492-168.247 66.98-47.033 147.924-76.376 205.264-136.568 10.396-10.916 19.23-22.635 26.766-35.684 7.1-12.287 4.061-35.306-14.291-26.021-23.682 11.983-45.959 26.396-68.422 40.475-22.414 14.05-45.566 26.728-68.828 39.299-42.021 22.706-85.975 41.566-129.891 60.243-90.248 38.378-182.23 75.838-259.648 137.379-7.225 5.744-11.672 17.469-10.986 26.521.82 10.785 9.26 13.842 18.121 9.23C585.109 936.47 772.1 806.556 961.324 681.343a11124.478 11124.478 0 0 1 56.154-36.924l-2.959-38.989C850.447 725.749 652.008 782.421 469.473 867.284c-48.146 22.383-95.297 46.992-140.35 75.131-8.23 5.139-13.766 14.978-14.994 24.479-1.041 8.054 3.029 20.431 13.686 16.479 48.652-18.046 91.168-48.993 132.91-79.128 45.076-32.542 91.928-61.576 139.312-90.626 101.836-62.436 204.242-123.967 307.943-183.265a7351.688 7351.688 0 0 1 86.65-48.766c-.984-12.996-1.971-25.993-2.959-38.988-51.547 29.457-102.699 59.619-155.438 86.898-53.777 27.817-107.557 55.633-161.336 83.449-43.93 22.723-87.301 45.755-129.695 71.245-41.771 25.118-83.297 50.7-126.523 73.278-41.221 21.529-86.023 41.922-132.549 48.141-3.242 14.498-6.482 28.993-9.721 43.49 47.461-21.483 85.908-55.805 127.178-86.811 44.623-33.523 92.951-62.742 140.678-91.576 96.971-58.587 197.004-111.868 295.91-167.064 73.6-41.076 157.645-70.725 218.6-130.964 6.844-6.76 11.734-16.708 10.988-26.521-.729-9.591-9.635-15.373-18.119-9.229-88.588 64.145-188.592 109.527-285.451 159.373-99.425 51.167-193.672 111.626-289.093 169.732-73.312 44.644-147.525 88.053-225.084 124.969l2.959 38.989c49.188-28.641 94.676-62.945 140.543-96.504 46.479-34 94.139-66.235 142.512-97.467 87.035-56.191 175.352-110.046 263.912-163.752 74.691-45.295 149.066-94.295 206.426-161.075 5.67-6.597 9.146-18.316 6.219-26.761-2.553-7.37-11.105-9.217-17.203-4.62-89.627 67.563-188.064 121.632-286.238 175.511-49.33 27.073-98.406 53.916-144.789 85.881-23.352 16.091-46.289 32.776-69.5 49.068-23.09 16.205-47.426 30.418-72.158 43.965-61.564 33.727-125.932 62.054-186.961 96.791-9.623 5.477-15.984 18.906-15.16 29.76.834 10.973 9.219 13.596 18.119 9.23 98.893-48.512 189.043-113.175 277.801-177.872 89.326-65.108 177.656-132.874 271.783-191.008 55.477-34.265 120.369-62.552 160.975-115.647 5.391-7.048 9.266-17.969 6.219-26.763-2.84-8.196-10.652-8.139-17.203-4.62-49.322 26.479-97.432 55.121-146.602 81.871-49.908 27.152-102.033 49.65-152.422 75.84-103.299 53.692-202.545 114.396-302.914 173.233a11425.55 11425.55 0 0 1-97.148 56.283c-30.904 17.713-60.723 37.979-96.279 44.889.953 12.572 1.908 25.146 2.865 37.721 33.756-33.367 76.162-55.738 118.041-77.181 45.688-23.39 90.238-48.038 134.127-74.68 87.6-53.175 171.682-111.858 262.07-160.353 54.957-29.484 110.545-57.98 162.961-91.898 49.711-32.166 98.854-70.181 131.994-120.016 5.023-7.557 9.406-17.564 6.217-26.762-2.699-7.791-10.854-8.675-17.203-4.621-195.874 125.101-399.874 236.655-603.805 347.893-83.529 45.561-167.062 91.117-250.084 137.596l2.959 38.988C266 673.978 449.447 574.513 623.291 460.024c94.264-62.08 185.904-128.777 269.846-204.379 7.025-6.327 11.709-17.035 10.988-26.521-.836-11.01-9.213-13.55-18.119-9.23-51.248 24.849-100.297 53.832-149.525 82.396-49.635 28.8-100.664 55.019-150.33 83.749-99.656 57.645-195.211 122.086-293.779 181.536-72.497 43.723-150.878 77.516-220.272 126.383.984 12.996 1.973 25.992 2.959 38.988C260.07 595.263 449.631 463.608 644.717 340.573c80.434-50.727 161.85-99.902 244.248-147.373 9.605-5.535 15.986-18.861 15.16-29.76-.82-10.815-9.25-13.799-18.119-9.229C679.83 260.432 479.793 377.96 276.045 488.664c-81.457 44.258-163.553 87.353-246.783 128.186l10.984 31.383c25.777-33.308 66.305-56.533 103.789-77.647 19.877-11.199 39.891-22.157 59.18-34.356 21.947-13.881 42.736-29.654 64.246-44.203 92.357-62.464 188.979-118.262 284.289-176.013 77.076-46.703 153.375-94.857 225.838-148.517 9.197-6.81 16.061-17.9 15.162-29.76-.793-10.436-9.346-14.29-18.121-9.229-48.863 28.18-97.98 55.93-148.08 81.867-49.613 25.688-100.764 48.179-150.023 74.562-96.332 51.593-187.564 112.021-281.984 166.92-45.945 26.715-92.727 52.251-141.018 74.497 3.338 9.33 6.68 18.662 10.023 27.99a166.06 166.06 0 0 1 2.938-5.881c.275-.53 3.928-6.72 1.068-2.127 2.277-3.657 4.846-7.124 7.492-10.519.168-.216 4.738-5.591 1.715-2.197 1.436-1.612 2.949-3.157 4.455-4.703 3.553-3.637 7.365-7.009 11.248-10.285 4.771-4.025 12.174-9.079 19.404-13.619 8.459-5.309 17.279-10.026 26.193-14.511 34.469-17.342 71.242-29.699 106.113-46.215 43.148-20.439 79.836-52.666 117.23-81.818 44.832-34.949 93.141-64.874 140.709-95.896 48.039-31.33 95.283-64.804 145.127-93.205 42.926-24.461 88.732-46.937 123.102-83.359 6.684-7.084 11.75-16.467 10.986-26.521-.559-7.366-5.898-13.776-13.852-11.199-49.908 16.174-93.238 47.806-137.598 74.86-48.914 29.833-102.049 53.269-153.393 78.592-106.676 52.613-213.652 104.618-320.469 156.94-43.396 21.257-86.619 42.541-129.029 65.714-40.359 22.048-80.936 43.731-124.824 57.979.955 12.574 1.91 25.146 2.863 37.722 72.182-71.732 163.5-120.634 250.486-171.761 103.369-60.754 205.492-123.592 307.752-186.184 31.838-19.49 63.289-39.892 95.545-58.647 28.137-16.359 57.43-30.229 78.301-56.136 6.781-8.413 13.281-38.49-6.715-33.35-47.429 12.188-90.468 38.452-131.14 64.922-21.107 13.74-41.834 28.054-62.84 41.949-19.621 12.977-39.934 24.667-59.938 37.012-88.902 54.875-170.566 120.623-260.035 174.661-39.994 24.157-81.582 45.802-125.746 61.278.953 12.572 1.908 25.147 2.863 37.721 39.102-33.88 85.59-57.931 127.508-87.985 21.176-15.182 40.631-32.546 61.217-48.488 20.627-15.977 41.773-31.276 63.117-46.279 86.076-60.504 176.02-115.53 257.791-181.999 18.234-14.82 35.916-30.312 52.963-46.484 6.924-6.571 11.721-16.852 10.986-26.521-.586-7.715-5.842-13.337-13.852-11.199-49.303 13.154-94.82 37.832-138.795 63.142-40.957 23.574-81.775 46.956-123.684 68.825-82.873 43.245-167.967 86.252-237.164 150.254-7.748 7.166-13.723 20.591-10.07 31.133 3.689 10.637 15.029 7.252 21.376 1.379z"/></g><path fill="#D8724A" d="M396.52 715.919h-.002l-.002.006z"/><path fill="#FFE5B8" d="M753.276 365.027c-.557.192-1.122.387-1.68.576v-.103l-.358.227c-13.548 4.658-22.292 3.853-30.879 2.118 1.658-5.868 2.929-11.911 3.88-18.035.785-.026 1.606-.306 2.319-.779 3.081-2.044 4.798-6.17 4.72-9.97-.235-11.231-1.149-22.449-2.841-33.481-17.807-8.501-36.102-15.983-54.881-22.25-78.931-26.335-166.609-30.568-246.733-6.373-36.161 10.919-69.132 32.062-92.114 62.305-14.542 19.135-24.706 40.857-30.764 63.788a205.478 205.478 0 0 0 15.625-2.523c-6.284 3.348-12.096 6.809-17.537 10.425-9.688 43.865-5.896 59.828-4.624 34.568.054-1.073-1.727 1.078-1.674 0 .562-11.124 1.916-22.229 4.182-33.142-.719.493-1.435.986-2.14 1.484-7.86 5.552-13.525 15.491-14.78 25.943-.56 4.665.002 11.603 3.433 15.803 1.826 2.236 4.294 3.418 7.185 3.418 17.834-.081-9.946 9.922 10.332 6.667-23.116 10.712-.64 10.829-23.911 24.921-8.757 5.302-13.783 16.883-14.875 26.008-.726 6.039.551 11.739 3.415 15.247 2.735 3.353 6.79 4.555 11.461 3.357 19.067-4.867 35.799-9.29 51.168-13.538a1622.966 1622.966 0 0 0-11.213 5.206l-.989.264-.032.233c-9.767 5-16.684 15.493-18.145 27.639-.723 6.046.547 11.763 3.429 15.287 2.743 3.36 6.77 4.548 11.429 3.315l2.002-.54c-.414.229-.915.46-1.327.69l-.383.054v.058c0 .581-1.896 1.159-2.936 1.738-8.304 4.624-13.614 16.597-14.75 26.037-.725 6.051.567 11.779 3.461 15.322 2.747 3.364 6.791 4.539 11.44 3.276a679.325 679.325 0 0 0 29.635-8.807c-7.101 7.439-13.323 23.328-10.903 33.295 1.594 6.559 6.684 9.639 14.224 8.47a372.156 372.156 0 0 0 21.059-3.886c-2.735 4.633-4.547 9.97-5.203 15.43-.542 4.495.102 11.308 3.694 15.704 2.797 3.427 6.832 4.463 11.327 2.856a2200.56 2200.56 0 0 1 9.643-3.435 39.33 39.33 0 0 0-6.826 17.787c-.739 6.163.396 11.438 3.201 14.873 2.673 3.273 6.731 4.575 11.557 3.734.639-.112 1.279-.259 1.916-.374l.122-.218c6.501-1.141 13.013-2.56 19.535-3.729-3.422 8.24-5.131 17.583-1.836 23.504.913 1.646 2.521 2.965 5.279 3.59 1.111.46 2.412.707 3.922.709l.048.001a736.549 736.549 0 0 0 15.419-.206c9.845.085 19.629.102 29.238-.527.583 5.395 3.093 10.446 7.183 12.392 11.609 5.515 24.624 8.312 38.678 8.312 29.935 0 60.297-12.625 80.531-22.121 38.48-18.062 73.349-41.758 105.299-64.68l.888-.537-.006-.115c9.141-7.036 14.907-19.629 14.105-31.011-.563-8.002-5.108-13.173-11.57-13.173-.418 0-.839.022-1.263.067 10.33-8.899 18.981-18.548 26.227-29.215 5.005-7.374 9.221-18.767 6.048-28.625-1.339-4.155-4.142-6.97-7.744-7.921a249.958 249.958 0 0 0 5.53-5.442c7.255-7.36 11.495-18.42 10.808-28.176-.47-6.622-4.586-13.661-11.295-13.661-1.293 0-2.622.273-3.956.814-2.028.822-4.08 1.649-6.146 2.477 7.107-5.375 12.378-15.041 13.587-25.092.563-4.719-.394-11.713-3.836-15.931-2.825-3.456-6.85-4.411-11.255-2.604-.528.217-1.063.434-1.599.651l.012-.312-1.171.78c-.859.346-1.73.693-2.607 1.04a343.742 343.742 0 0 0 17.438-15.989c5.651-5.553 9.635-13.966 10.662-22.503.604-5.041-.224-11.892-3.44-15.833-.896-1.093-1.944-1.935-3.129-2.505a800.05 800.05 0 0 0 17.203-10.541c8.768-5.528 13.776-17.037 14.852-25.992.713-5.913-.722-12.05-3.648-15.639-2.79-3.408-6.825-4.471-11.352-2.926zm-324.859-45.411l2.683-1.289c.044.117.09.234.134.353-.942.311-1.882.62-2.817.936zm90.247-3.462a22.337 22.337 0 0 0-.189-2.203c4.076 2.411 8.062 5.004 11.972 7.67a584.567 584.567 0 0 1 4.7 3.243c-5.877-2.781-11.377-5.649-16.483-8.71zm161.752 48.77a78.9 78.9 0 0 0 2.795-3.306c.454 1.093.894 2.192 1.341 3.289-1.145.003-2.562.009-4.136.017z"/><path fill="#FFBF1F" d="M700.418 651.861l.101-.24c-.092.181-.119.249-.101.24zm54.035 283.215c-7.994-32.282-21.364-63.361-39.814-90.621a207.202 207.202 0 0 0-4.132-8.005c-.196-6.057-2.104-11.412-7.147-12.279-4.562-7.326-9.457-14.364-14.502-21.053-26.529-35.174-62.209-58.396-105.522-67.047-44.482-8.89-91.025-1.561-135.062 6.42-39.352 7.134-81.75 11.88-114.716 36.548-11.584 8.668-20.912 18.913-28.572 30.243a146.795 146.795 0 0 0-14.828 17.088 131.715 131.715 0 0 0-2.625 3.688c-9.427 11.519-18.506 23.345-27.929 34.693-6.018 7.243-10.947 22.311-4.266 30.652 1.99 2.488 4.288 3.539 6.675 3.642-1.191 8.625-1.83 17.348-1.996 26.075-1.838 3.287-2.813 7.071-2.14 10.021-2.999 5.331-3.93 12.331.414 15.273.919.621 1.844 1.229 2.769 1.838.823 3.687 3.153 4.48 5.789 3.695.399.246.801.488 1.203.732 1.5 3.078 4.236 5.108 8.702 5.09 10.713 5.988 21.831 11.235 33.225 15.86-.022.892-.016 1.791.054 2.704.613 8.065 5.848 13.047 13.946 11.274a169.51 169.51 0 0 0 14.35-3.824c19.181 6.032 38.82 10.69 58.363 14.511 43.182 8.441 88.074 12.54 132.022 13.769 53.766 1.503 138.619-4.189 179.107-47.5a568.786 568.786 0 0 0 37.312-15.193c6.785-3.042 11.151-10.906 9.32-18.294zm-46.822-18.791a91.873 91.873 0 0 0 6.015-9.635c.29 2.585.466 5.173.518 7.758-2.185.6-4.363 1.227-6.533 1.877zm-390.772 31.274c9.739-5.255 19.065-11.325 27.967-17.385 1.365-.93 2.708-1.887 4.064-2.831-8.833 7.152-17.199 14.792-24.888 23.091a200.413 200.413 0 0 1-7.143-2.875zM527.693 769.65c-9.952 4.472-19.661 9.532-29.18 14.895 3.868-4.366 6.87-9.419 8.466-15.005 6.914-.107 13.823-.096 20.714.11zm72.875 12.398c-10.652 6.618-21.459 12.972-32.307 19.252 3.895-7.154 7.207-14.679 9.772-22.639.304-.937.558-1.936.759-2.971 7.332 1.681 14.595 3.773 21.776 6.358zM287.125 899.092a247.1 247.1 0 0 0 5.906-2.862 194.256 194.256 0 0 0-7.657 10.267c.534-2.452 1.073-4.899 1.623-7.346.042-.022.086-.04.128-.059zm120.7-16.036c21.543-16.011 44.94-29.564 67.686-43.771 14.302-8.935 28.826-17.583 43.967-24.845a322.915 322.915 0 0 1-4.028 3.558c-9.319 8.091-16.733 13.369-27.865 20.989-11.776 8.062-23.913 15.599-36.097 23.023-25.229 15.37-52.373 29.979-77.558 46.938 11.302-8.628 22.49-17.416 33.895-25.892zm113.097-11.395c-15.593 10.562-31.625 20.433-47.747 30.158 20.74-15.638 42.148-29.158 64.736-42.009a687.646 687.646 0 0 1-16.989 11.851zm-61.328 89.78c-4.174 2.87-7.804 6.828-10.472 11.356-4.34-.283-8.675-.594-13.011-.94a5527.057 5527.057 0 0 0 23.483-10.416zm235.867-88.939a160.007 160.007 0 0 0 5.443-8.13 227.174 227.174 0 0 1 1.872 4.274 345.157 345.157 0 0 0-7.315 3.856zm-43.707-28.053a481.816 481.816 0 0 0 11.077-13.373c1.763-2.205 3.337-4.854 4.577-7.72a216.274 216.274 0 0 1 9.472 9.467 414.327 414.327 0 0 0-25.126 11.626zm-7.803-40.046c-7.272 4.869-14.14 10.261-20.852 15.854 4.632-6.799 8.855-13.874 12.592-21.248a192.252 192.252 0 0 1 8.26 5.394zM515.835 969.876a191.926 191.926 0 0 0-5.393 5.647c-1.137-.03-2.274-.065-3.409-.098a889.201 889.201 0 0 0 8.802-5.549z"/><path fill="#FFE5B8" d="M568.034 729.334a42.204 42.204 0 0 0-2.518-1.058c-1.273-4.303-3.071-8.599-5.413-12.9-5.488-10.085-19.698 1.702-23.409 6.713a41.127 41.127 0 0 0-2.138 3.205c-8.166.815-16.2 2.5-23.341 4.27-15.858 3.937-32.558 13.751-40.353 28.016-.204-.222-.425-.46-.693-.742-1.451-1.534-2.673-3.256-3.816-5.024.745 1.093-1.037-2.11-1.183-2.455-.615-1.447-1.057-2.96-1.5-4.467a61.647 61.647 0 0 0-.19-.629 31.89 31.89 0 0 0-.154-1.261c-.244-1.769-.302-3.558-.364-5.339l-.022-.557c.054-.326.124-.899.208-1.837.194-2.091.567-4.163.939-6.229 1.555-8.723-3.303-19.774-13.782-16.591-11.181 3.395-44.928 34.69-46.82 45.307-3.247 18.204 2.879 55.842 14.208 71.048 9.361 12.562 53.134 46.937 68.206 48.312 14.402 1.317 86.493-13.899 99.467-19.894 2.008-.6 33.144-58.855 35.05-59.68 0 0-10.25-48.312-26.524-45.471 4.31-5.557-26.684 11.288-23.751 5.022 3.362-7.185 7.979-23.087-2.107-27.759z"/><path fill="#EAA286" d="M557.524 750.02c-16.081 8.899-34.694 12.368-52.948 11.758-18.203-.604-38.57-5.036-49.662-20.746-3.435-4.865-9.201 7.225-8.114 10.512 14.324 43.423 70.374 48.496 106.41 30.451 7.555-3.784 12.312-12.507 13.407-20.673.665-4.964-1.584-15.456-9.093-11.302z"/><path d="M299.033 877.787c9.599.846 20.822 4.403 25.052 13.931 3.896 8.788 3.708 19.931 3.511 29.359-.23 10.675-1.814 21.333-2.903 31.942-.819 7.987-3.749 20.968 1.233 27.936 5.191 7.261 12.869-8.982 13.381-12.348 1.479-9.748-.306-20.662-.038-30.609.304-11.313.669-22.666-.773-33.92-1.217-9.49-4.773-17.55-11.729-24.187-7.636-7.28-17.765-6.526-27.277-4.198-.615.154-1.394 2.013-.457 2.094zm384.802-25.96c-13.541 4.958-25.268 12.91-34.427 24.096-1.526 1.864-2.975 4.684-2.197 7.173.992 3.185 4.189.287 5.229-1.143 7.878-10.85 18.492-18.66 30.604-24.235 1.848-.853 3.826-7.001.791-5.891z"/><path fill="#FF8A0B" d="M400.277 811.929c.25-.007.485.012.728.072l-.676-.175c.22.069.411.165.592.308l-.534-.439c.166.146.296.311.404.503l-.347-.645c.099.193.17.394.216.605l-.159-.801c.018.092.034.184.039.276.034.716.348 1.521 1.024 1.865.69.352 1.495.112 2.111-.268.854-.526 1.511-1.359 1.961-2.243.487-.956.631-1.853.662-2.905a4.329 4.329 0 0 0-.375-1.814c-.598-1.35-1.652-2.152-3.15-2.268-.844-.064-1.686.491-2.265 1.038-.8.756-1.39 1.753-1.719 2.8-.278.883-.404 1.907-.093 2.803.228.663.817 1.307 1.581 1.288z"/><path fill="#2F61DD" d="M854.565 434.976c2.316-30.203-5.435-59.883-15.366-88.167-8.28-23.577-17.777-46.976-27.474-70.013-18.204-43.247-41.184-85.504-71.97-121.144-29.457-34.102-69.009-63.505-114.48-70.821-15.059-2.422-31.977.551-46.402 4.876-14.646 4.392-27.906 12.103-37.008 23.725-24.448-12.837-51.587-19.365-79.244-19.148-15.573-4.136-31.753-5.719-48.229-4.58-28.178 1.947-57.658 9.833-82.779 22.736-41.348 21.236-66.847 59.476-81.716 102.429-3.047 8.802-5.71 17.72-8.128 26.709-16.941 29.277-28.888 61.203-33.761 94.202a126.017 126.017 0 0 0-7.117 14.08c-7.697 18.009-10.774 37.351-9.107 56.87.759 8.859 9.772 3.116 12.084-1.532a454.755 454.755 0 0 0 4.867-10.122c.613.629 1.395 1.037 2.339 1.11a81.532 81.532 0 0 0-4.687 16.831c-2.532 3.037-4.062 7.084-4.799 10.733-11.425 56.625-10.87 114.339-7.261 171.707 2.861 45.51 8.128 90.795 12.614 136.156a687.44 687.44 0 0 1-2.332 24.458 515.457 515.457 0 0 1-1.522 11.945 327.089 327.089 0 0 1-1.569 5.98c-1.696 6.29-3.754 12.483-5.976 18.605-2.236 6.161-3.708 9.528-6.757 16.049-3.125 6.683-6.644 13.174-10.386 19.529-2.439 4.145-3.876 11.413-.578 15.533 2.817 3.517 7.149 2.287 10.498-.14.156 1.163.414 2.312.801 3.434 2.174 6.277 6.975 7.375 12.855 6.55 13.016-1.826 24.644-6.685 34.685-14.075 5.247-.161 10.582-1.729 15.876-4.409 3.433-1.738 6.478-4.219 9.477-6.588-5.307 4.191 1.748-1.392 3.133-2.649 1.293-1.175 2.525-2.416 3.742-3.67 5.833-6.008 11.141-12.561 16.188-19.236 9.559-12.637 18.342-25.834 28.3-38.172 1.083-1.341 2.186-2.668 3.287-3.993.454-.547.917-1.084 1.379-1.624a102.71 102.71 0 0 1 7.251-7.222c.431-.389 1.411-1.192 2.08-1.743a60.578 60.578 0 0 1 2.414-1.609c.442-.279.896-.537 1.351-.792.559-.226 2.381-1.044 3.171-1.288a17.186 17.186 0 0 0 3.153-1.355c3.726-.418 7.48-.703 11.267-.963 10.865-.746 22.056-.889 32.897.151 5.293.509 9.92-5.338 11.999-9.416 2.068-4.061 4.821-14.248-1.271-16.752-30.674-12.616-53.991-35.925-70.968-64.028-8.024-13.282-14.278-27.98-19.307-42.896-5.285-15.677-8.883-30.058-11.042-44.611-.855-5.779-4.118-10.159-10.505-8.497-1.917.498-3.84.952-5.779 1.358-.733.153-4.641.778-4.236.761-3.287.408-6.604.68-9.91.727-3.007.042-6.012-.196-8.983-.645-.555-.084-2.661-.554-3.145-.633a47.22 47.22 0 0 1-3.265-1.099 36.038 36.038 0 0 1-2.907-1.269c-1.467-3.071-4.342-4.806-7.577-4.851-.306-.282-.62-.558-.919-.846-1.784-1.72-3.338-3.598-4.751-5.63a48.9 48.9 0 0 1-2.002-3.174c-.01-.018-.024-.041-.034-.061a62.605 62.605 0 0 1-.927-1.896c-1.105-2.361-2.012-4.812-2.813-7.292a72.376 72.376 0 0 1-1.105-3.846c-.17-.653-.324-1.312-.478-1.969l-.124-.52c-1.041-5.638-1.457-11.385-1.48-17.112-.004-.604.006-1.208.016-1.812.058-1.307.146-2.612.248-3.917a117.287 117.287 0 0 1 1.91-13.607l.118-.605.096-.395a116.434 116.434 0 0 1 2.511-8.827 108.473 108.473 0 0 1 1.816-5.102c.242-.554.481-1.109.731-1.659a87.11 87.11 0 0 1 2.3-4.671c.365-.694 1.296-2.272 1.814-3.156a60.373 60.373 0 0 1 2.731-3.72c.547-.583 1.77-1.913 2.348-2.458.397-.374.815-.729 1.229-1.083a29.8 29.8 0 0 1 2.939-1.794 29.44 29.44 0 0 1 1.351-.492 19.38 19.38 0 0 1 1.874-.514c.288.018 2.318-.19 3.083-.164 1.163.039 2.316.208 3.457.433a26.896 26.896 0 0 1 2.146.795c1.379.562 2.693 1.273 3.974 2.03a35.47 35.47 0 0 1 2.006 1.303c.599.41 3.464 2.696.955.618 7.281 6.025 14.691-1.784 18.272-8.275 10.446-18.938 16.288-39.611 19.589-60.776 18.538-8.028 39.357-19.008 58.523-25.322 20.923-6.892 47.248-12.686 58.522-31.049 9.73-15.845 3.663-34.824 7.001-52.874.196-1.064.377-2.131.565-3.196 3.744-3.846 7.471-7.698 11.209-11.5a575.198 575.198 0 0 0 1.856 5.103 53.469 53.469 0 0 0 4.933 15.673c.999 2.028 2.136 3.463 3.361 4.427 2.593 5.504 5.469 10.874 8.773 16.035.416.649.851 1.272 1.289 1.892 2.352 8.066 4.865 16.073 8.142 23.777 1.453 3.418 4.43 5.445 8.22 4.188 6.52-2.162 13.153-4.021 19.869-5.628 3.63.91 7.321 1.7 11.053 2.369.459 2.3.861 4.585 1.23 6.863.434 3.335.887 6.667 1.357 9.992 1.205 8.524 7.71 12.786 15.575 7.936 7.043-4.343 12.531-13.49 13.087-22.083 3.272-.013 6.536-.115 9.774-.319-.016.098-.031.195-.048.292-.873 5.35.896 12.729 7.383 13.188 15.497 1.098 33.08-.84 44.103-13.108 7.123-7.925 11.365-17.133 13.209-26.992.552-1.544.907-3.087 1.006-4.518 1.221-17.894 1.538-36.048.369-54.069 1.321 1.926 2.644 3.851 3.971 5.773 14.497 20.996 30.664 41.256 43.193 63.532 9.698 17.238 18.836 35.76 35.849 46.998 6.991 4.617 14.966 6.888 23.138 7.992-.186 2.713.063 5.418.865 8.001 3.435 11.076 9.051 21.335 14.852 31.328 2.861 4.93 5.898 9.758 8.871 14.623a377.275 377.275 0 0 1 4.264 7.163 140.71 140.71 0 0 1 1.61 2.854c-.107-.195 2.418 4.453 1.237 2.217 6.096 11.55 16.758 5.028 23.219-2.748.3-.36.604-.716.905-1.075a106.611 106.611 0 0 1 2.835-2.95 81.65 81.65 0 0 1 1.425-1.394 476.308 476.308 0 0 1 6.229 24.449c2.707 11.956 4.977 25.645 6.615 39.602 1.225 10.445 1.928 20.949 2.523 31.454a36.7 36.7 0 0 1-3.834-.506 29.419 29.419 0 0 0-.611-.108c-.048-.016-.08-.025-.138-.042-1.159-.342-2.296-.758-3.425-1.192-2.716-1.046-5.315-2.38-7.837-3.825-2.688-1.537-5.249-3.291-7.74-5.125-7.119-5.233-16.716 6.92-19.235 11.861-3.173 6.229-5.039 14.913-.417 20.514-.206.812-.4 1.629-.609 2.442-1.125 4.378-2.356 8.729-3.637 13.062a444.495 444.495 0 0 1-4.05 12.893 455.76 455.76 0 0 1-1.971 5.808c-8.12 3.759-14.256 14.073-14.897 22.549-.434 5.731-.631 11.432-.655 17.112-3.758 8.344-7.776 16.578-11.977 24.704a344.778 344.778 0 0 1-7.38 13.479 280.1 280.1 0 0 1-2.914 4.922c-.303.487-1.015 1.639-1.252 2.014a276.564 276.564 0 0 1-2.704 4.161 230.762 230.762 0 0 1-8.428 11.897 198.13 198.13 0 0 1-4.386 5.574c-.735.904-1.484 1.793-2.235 2.684-.242.284-.487.566-.731.85l-.277.308c-2.972 3.29-6.116 6.42-9.381 9.416a119.647 119.647 0 0 1-4.848 4.177l-.352.291a99.586 99.586 0 0 1-3.243 2.329c-2.079 1.444-4.245 2.768-6.451 4.02a45.168 45.168 0 0 0-13.341.271c-1.289.183-1.325.221-.112.115a16.652 16.652 0 0 0-3.834.64c-1.687.433-3.303 1.094-4.888 1.8-5.091 2.268-9.185 5.041-13.564 8.497-5.627 4.439-13.967 26.12-.897 26.802 11.449.598 22.157-1.851 32.083-6.345 2.026.757 3.977 1.7 5.898 2.683 4.529 2.315 8.731 5.248 12.758 8.34 14.665 11.256 28.567 28.152 41.077 43.109 12.286 14.688 22.826 31.807 39.729 41.755 14.252 8.39 30.71 6.785 46.293 4.192 4.555-.759 9.095-1.603 13.63-2.47a2677.35 2677.35 0 0 1 2.074 4.669c3.908 8.851 12.825 6.938 18.878 1.222 3.179-3.004 5.84-6.888 7.57-11.127.262-.04.521-.087.783-.128 4.89-.759 9.157-6.732 11.182-10.702 2.306-4.524 3.804-10.346 2.086-15.335a457.67 457.67 0 0 1-6.773-21.385c.959-3.858 1.039-7.807-.28-11.345a380.675 380.675 0 0 1-9.972-30.732c-2.794-13.933-5.058-27.962-6.878-42.064 7.818-5.635 11.319-15.285 11.601-24.622 1.217-40.404-.439-80.872-4.434-121.104 6.432-5.343 10.846-14.691 10.051-22.832-1.247-12.757-2.618-25.577-4.67-38.257a828.43 828.43 0 0 0-1.807-13.974 165.1 165.1 0 0 0 .477-4.645c.237-2.679.385-5.366.481-8.054.094-2.584.18-5.172.216-7.758.021-1.585.111-7.657-.137-.994.12-3.218.101-6.428-.025-9.633 7.87-3.822 14.869-16.74 15.352-23.052z"/><path fill="#EAA286" d="M738.667 466.683a444.766 444.766 0 0 1-2.831 9.661c-5.285 17.271-1.681 34.182-8.562 50.863-1.503 34.589-23.701 69.222-40.051 98.958a203.885 203.885 0 0 1-5.639 9.621c-19.161 25.553-43.646 47.097-71.55 62.653-37.401 20.852-80.915 29.177-123.346 23.486-13.347-1.79-26.56-4.887-39.254-9.349-17.549-7.401-34.072-17.283-49.01-29.087-9.515-7.521-18.304-15.923-26.304-25.025-17.703-23.643-34.742-51.812-41.913-80.368-9.197-36.624-25.811-74.749-26.26-112.401-.09-7.553-.066-15.105.05-22.657-8.252 4.628 2.693 8.01-6.492 9.641-1.069 20.55-.547 41.175 1.632 61.614 5.017 47 18.446 95.229 44.756 134.936 41.02 61.903 114.436 100.857 189.08 94.597 38.844-3.258 75.036-18.833 105.494-42.89 22.994-18.16 41.496-40.783 55.981-65.888 13.089-19.077 23.555-39.948 31.371-61.708 5.575-15.523 9.854-32.104 12.378-48.402 2.903-18.76.754-37.942.689-56.811a4.667 4.667 0 0 0-.219-1.444z"/><path d="M393.768 753.546c-1.932 40.771 9.256 84.556 41.234 112.075 33.569 28.889 84.477 32.03 123.775 13.548 49.058-23.071 70.229-84.952 57.453-135.678-.797-3.163-4.359-3.187-6.636-1.782-3.562 2.196-6.339 7.241-5.849 11.479 2.479 21.44 3.703 41.924-3.267 62.73-5.529 16.506-16.438 31.097-31.58 41.213-35.149 23.481-87.278 21.539-121.003-3.422-32.234-23.858-44.156-66.786-43.195-105.197.063-2.523-2.123-4.441-4.573-3.697-3.353 1.017-6.197 5.312-6.359 8.731z"/><ellipse fill="#FFAD9F" cx="680.242" cy="544.377" rx="26.994" ry="25.955"/><ellipse fill="#FFAD9F" cx="363.53" cy="545.799" rx="26.994" ry="25.955"/><path fill="#EAA286" d="M299.864 470.258c-11.227-10.683-28.146-24.851-44.992-18.104-18.927 7.581-28.97 28.848-30.636 48.208-2.04 23.721 7.71 70.46 41.336 61.042 13.792-3.863 24.804-16.396 32.77-27.57 5.534-7.761 11.257-21.923 4.268-30.653-6.957-8.683-18.833.298-23.407 6.714a105.772 105.772 0 0 1-4.273 5.606c-2.709 3.306 3.906-4.278 1.111-1.271-.651.701-1.343 1.369-2.03 2.034a44.273 44.273 0 0 1-1.99 1.782c-2.708 2.328 4.403-3.262 1.608-1.264-1.183.847-2.45 1.563-3.749 2.212 6.018-3.002 1.984-.958.148-.512-2.55.62 4.468-.469 1.91-.225-.545.053-1.093.043-1.641.031-1.603-.029-5.343-1.236.178.367-1.185-.343-2.297-.902-3.36-1.519-3.435-1.991.328.506-.026.188-.87-.773-1.645-1.649-2.392-2.541-.791-.941-1.488-1.957-2.162-2.985-.35-.537-.671-1.091-.991-1.642-1.318-2.271 2.152 4.265.476.779-1.203-2.506-2.13-5.14-2.925-7.802-.414-1.38-.753-2.783-1.071-4.188-.685-3.041.913 4.86.362 1.788a70.706 70.706 0 0 1-.438-2.885c-.386-2.866-.543-5.757-.543-8.644 0-3.264-.238 5.737-.084 2.502.032-.692.092-1.382.15-2.072.114-1.339.31-2.671.537-3.997.766-4.491-1.786 6.648-.251 1.371.172-.588.374-1.165.577-1.74 1.115-3.161-2.869 6.706-1.51 3.683 2.29-5.1-2.218 3.211-1.396 2.003 2.833-4.169-4.797 4.563-1.091 1.299-5.259 4.63-4.142 3.086-2.573 2.066 1.255-.812 3.766-1.751-2.506 1.052.953-.427 1.974-.676 2.997-.864-5.89 1.092-2.044.307-.2.442.627.047 1.247.155 1.862.264 2.39.413-4.162-1.3-.494-.104 3.241 1.057 6.25 2.785 9.101 4.621 1.791 1.153 3.491 2.442 5.167 3.754-3.097-2.423.144.148.633.574 1.325 1.15 2.598 2.353 3.869 3.562 8.008 7.619 18 .592 23.407-6.714 4.942-6.671 12.083-23.209 4.264-30.648z"/><path d="M293.386 465.724c-16.036-10.541-38.408-20.02-55.895-7.131-14.128 10.41-17.949 30.513-16.932 46.957 1.083 17.551 8.15 36.548 22.022 47.946 15.365 12.623 39.022 11.437 52.93-2.935 1.167-1.206 5.113-10.522.459-9.745-8.503 1.423-15.674 6.255-24.53 6.764-7.197.41-13.986-1.901-19.964-5.792-12.464-8.119-19.513-23.971-21.825-38.175-1.908-11.72-1.603-27.232 8.352-35.476 14.594-12.085 37.476-1.691 51.638 5.619 2.91 1.499 6.499-6.22 3.745-8.032z"/><path d="M248.524 508.291c5.872-7.222 13.738-12.742 23.323-12.864 10.565-.133 12.907 9.238 16.907 16.906 1.826 3.502 5.856-4.243 6.004-5.539 1.342-11.782-4.594-23.516-17.655-23.748-12.793-.228-24.3 10.589-31.056 20.325-1.76 2.546-.893 9.065 2.477 4.92z"/><path d="M295.173 502.335c-7.617-.313-17.167-.392-22.554 5.984-5.331 6.305-4.282 15.849.29 22.289 1.96 2.761 5.167-4.092 4.582-5.932-.835-2.62-4.728-9.509-1.918-11.938 4.474-3.867 12.222-3.972 17.769-4.266 2.222-.118 4.574-6.024 1.831-6.137z"/><path fill="#163663" d="M392.354 718.151c-30.674-12.616-53.991-35.925-70.968-64.028-8.024-13.282-14.278-27.98-19.307-42.896-5.285-15.677-8.883-30.058-11.042-44.611-.855-5.779-4.118-10.159-10.505-8.497-1.917.498-3.84.952-5.779 1.358-.733.153-4.641.778-4.236.761-3.287.408-6.604.68-9.91.727-3.007.042-6.012-.196-8.983-.645-.555-.084-2.661-.554-3.145-.633a47.22 47.22 0 0 1-3.265-1.099 36.038 36.038 0 0 1-2.907-1.269c-1.467-3.071-4.342-4.806-7.577-4.851-.306-.282-.62-.558-.919-.846-1.784-1.72-3.338-3.598-4.751-5.63a48.9 48.9 0 0 1-2.002-3.174c-.01-.018-.024-.041-.034-.061a62.605 62.605 0 0 1-.927-1.896c-1.105-2.361-2.012-4.812-2.813-7.292a72.376 72.376 0 0 1-1.105-3.846c-.17-.653-.324-1.312-.478-1.969l-.124-.52c-1.041-5.638-1.457-11.385-1.48-17.112-.004-.604.006-1.208.016-1.812.058-1.307.146-2.612.248-3.917a117.287 117.287 0 0 1 1.91-13.607l.118-.605.096-.395a116.434 116.434 0 0 1 2.511-8.827 108.473 108.473 0 0 1 1.816-5.102c.242-.554.481-1.109.731-1.659a87.11 87.11 0 0 1 2.3-4.671c.365-.694 1.296-2.272 1.814-3.156a60.373 60.373 0 0 1 2.731-3.72c.547-.583 1.77-1.913 2.348-2.458.397-.374.815-.729 1.229-1.083a29.8 29.8 0 0 1 2.939-1.794 29.44 29.44 0 0 1 1.351-.492 19.38 19.38 0 0 1 1.874-.514c.288.018 2.318-.19 3.083-.164 1.163.039 2.316.208 3.457.433a26.896 26.896 0 0 1 2.146.795c1.379.562 2.693 1.273 3.974 2.03a35.47 35.47 0 0 1 2.006 1.303c.599.41 3.464 2.696.955.618 6.805 5.631 13.72-.822 17.521-6.988a192.755 192.755 0 0 1-6.222-11.713c-31.807-65.446-26.81-144.764-3.546-212.057 12.45-36.02 30.398-70.438 55.443-99.35 8.56-9.881 17.861-18.987 27.779-27.317-6.574 2.541-12.976 5.388-19.111 8.54-41.348 21.236-66.847 59.476-81.716 102.429-3.047 8.802-5.71 17.72-8.128 26.709-16.941 29.277-28.888 61.203-33.761 94.202a126.017 126.017 0 0 0-7.117 14.08c-7.697 18.009-10.774 37.351-9.107 56.87.759 8.859 9.772 3.116 12.084-1.532a454.755 454.755 0 0 0 4.867-10.122c.613.629 1.395 1.037 2.339 1.11a81.532 81.532 0 0 0-4.687 16.831c-2.532 3.037-4.062 7.084-4.799 10.733-11.425 56.625-10.87 114.339-7.261 171.707 2.861 45.51 8.128 90.795 12.614 136.156a687.44 687.44 0 0 1-2.332 24.458 515.457 515.457 0 0 1-1.522 11.945 327.089 327.089 0 0 1-1.569 5.98c-1.696 6.29-3.754 12.483-5.976 18.605-2.236 6.161-3.708 9.528-6.757 16.049-3.125 6.683-6.644 13.174-10.386 19.529-2.439 4.145-3.876 11.413-.578 15.533 2.817 3.517 7.149 2.287 10.498-.14.156 1.163.414 2.312.801 3.434 2.174 6.277 6.975 7.375 12.855 6.55 13.016-1.826 24.644-6.685 34.685-14.075 5.247-.161 10.582-1.729 15.876-4.409 3.433-1.738 6.478-4.219 9.477-6.588-5.307 4.191 1.748-1.392 3.133-2.649 1.293-1.175 2.525-2.416 3.742-3.67 5.833-6.008 11.141-12.561 16.188-19.236 9.559-12.637 18.342-25.834 28.3-38.172 1.083-1.341 2.186-2.668 3.287-3.993.454-.547.917-1.084 1.379-1.624a102.71 102.71 0 0 1 7.251-7.222c.431-.389 1.411-1.192 2.08-1.743a60.578 60.578 0 0 1 2.414-1.609c.442-.279.896-.537 1.351-.792.559-.226 2.381-1.044 3.171-1.288a17.186 17.186 0 0 0 3.153-1.355c3.726-.418 7.48-.703 11.267-.963 10.865-.746 22.056-.889 32.897.151 5.293.509 9.92-5.338 11.999-9.416 2.066-4.06 4.82-14.248-1.272-16.752z"/><path d="M435.496 739.296c-51.927.234-110.886.177-145.24 46.217-15.213 20.386-23.257 44.673-27.984 69.412-4.726 24.723-6.969 51.077-4.166 76.055.585 5.203 5.221-1.178 5.632-3.296 8.536-43.728 5.549-92.676 32.208-130.845 30.151-43.172 90.887-36.356 136.121-46.067 3.66-.784 8.827-11.501 3.429-11.476zm140.351 15.972c24.602-1.94 50.926-.729 74.309 7.761 21.06 7.647 37.134 22.51 50.385 40.14 14.126 18.791 22.448 40.485 30.299 62.413 7.988 22.315 14.438 45.454 18.97 68.711 1.374 7.049 10.865-4.831 10.18-9.367-7.501-49.562-16.208-99.476-47.014-140.635-13.575-18.136-33.004-32.096-54.529-39.04-27.503-8.87-55.298-3.842-81.744 6.093-1.003.376-2.639 4.061-.856 3.924z"/><path fill="#163663" d="M854.565 434.976c2.316-30.203-5.435-59.883-15.366-88.167-8.28-23.577-17.777-46.976-27.474-70.013-18.204-43.247-41.184-85.504-71.97-121.144-29.457-34.102-69.009-63.505-114.48-70.821-15.059-2.422-31.977.551-46.402 4.876-14.646 4.392-27.906 12.103-37.008 23.725a166.726 166.726 0 0 0-35.007-13.59c18.218 17.075 32.906 37.69 42.023 61.898 10.596-8.631 22.278-16.245 35.233-20.789 18.313-6.422 37.891-5.714 55.386 2.879 18.894 9.281 33.827 25.214 45.921 42.131 14.886 20.821 36.576 43.992 46.195 67.651 10.401 25.585 40.34 91.442 47.094 118.214 6.126 24.295 2.896 48.813 6.14 73.664 1.696 12.999-20.496-13.086-20.282.108a35.391 35.391 0 0 0 4.474-4.514c.3-.36.604-.716.905-1.075a106.611 106.611 0 0 1 2.835-2.95 81.65 81.65 0 0 1 1.425-1.394 476.308 476.308 0 0 1 6.229 24.449c2.707 11.956 4.977 25.645 6.615 39.602 1.225 10.445 1.928 20.949 2.523 31.454a36.7 36.7 0 0 1-3.834-.506 29.419 29.419 0 0 0-.611-.108c-.048-.016-.08-.025-.138-.042-1.159-.342-2.296-.758-3.425-1.192-2.716-1.046-5.315-2.38-7.837-3.825-2.688-1.537-5.249-3.291-7.74-5.125-7.119-5.233-16.716 6.92-19.235 11.861-3.173 6.229-5.039 14.913-.417 20.514-.206.812-.4 1.629-.609 2.442-1.125 4.378-2.356 8.729-3.637 13.062a444.495 444.495 0 0 1-4.05 12.893 455.76 455.76 0 0 1-1.971 5.808c-8.12 3.759-14.256 14.073-14.897 22.549-.434 5.731-.631 11.432-.655 17.112-3.758 8.344-7.776 16.578-11.977 24.704a344.778 344.778 0 0 1-7.38 13.479 280.1 280.1 0 0 1-2.914 4.922c-.303.487-1.015 1.639-1.252 2.014a276.564 276.564 0 0 1-2.704 4.161 230.762 230.762 0 0 1-8.428 11.897 198.13 198.13 0 0 1-4.386 5.574c-.735.904-1.484 1.793-2.235 2.684-.242.284-.487.566-.731.85l-.277.308c-2.972 3.29-6.116 6.42-9.381 9.416a119.647 119.647 0 0 1-4.848 4.177l-.352.291a99.586 99.586 0 0 1-3.243 2.329c-2.079 1.444-4.245 2.768-6.451 4.02a45.168 45.168 0 0 0-13.341.271c-1.289.183-1.325.221-.112.115a16.652 16.652 0 0 0-3.834.64c-1.687.433-3.303 1.094-4.888 1.8-5.091 2.268-9.185 5.041-13.564 8.497-5.627 4.439-13.967 26.12-.897 26.802 11.449.598 22.157-1.851 32.083-6.345 2.026.757 3.977 1.7 5.898 2.683 4.529 2.315 8.731 5.248 12.758 8.34 14.665 11.256 28.567 28.152 41.077 43.109 12.286 14.688 22.826 31.807 39.729 41.755 14.252 8.39 30.71 6.785 46.293 4.192 4.555-.759 9.095-1.603 13.63-2.47a2677.35 2677.35 0 0 1 2.074 4.669c3.908 8.851 12.825 6.938 18.878 1.222 3.179-3.004 5.84-6.888 7.57-11.127.262-.04.521-.087.783-.128 4.89-.759 9.157-6.732 11.182-10.702 2.306-4.524 3.804-10.346 2.086-15.335a457.67 457.67 0 0 1-6.773-21.385c.959-3.858 1.039-7.807-.28-11.345a380.675 380.675 0 0 1-9.972-30.732c-2.794-13.933-5.058-27.962-6.878-42.064 7.818-5.635 11.319-15.285 11.601-24.622 1.217-40.404-.439-80.872-4.434-121.104 6.432-5.343 10.846-14.691 10.051-22.832-1.247-12.757-2.618-25.577-4.67-38.257a828.43 828.43 0 0 0-1.807-13.974 165.1 165.1 0 0 0 .477-4.645c.237-2.679.385-5.366.481-8.054.094-2.584.18-5.172.216-7.758.021-1.585.111-7.657-.137-.994.12-3.218.101-6.428-.025-9.633 7.869-3.822 14.868-16.74 15.351-23.052z"/><path d="M738.388 479.828c1.502 55.747-6.145 84.225-25.497 129.677-27.466 64.504-80.494 111.707-145.77 126.581-73.349 16.717-153.948-4.679-206.181-63.293-52.802-59.253-65.939-142.761-59.2-221.52-3.379-2.046-6.831-3.878-10.42-5.32a548.647 548.647 0 0 0-2.859 28.637c-5.712 78.404 10.62 160.125 61.989 219.111 51.228 58.831 130.201 81.188 203.355 68.383 67.966-11.899 124.44-58.161 158.341-121.249 27.753-51.649 41.026-69.679 39.35-135.171-4.359-1.826-8.709-24.129-13.108-25.836z"/><path fill="#FFBF1F" d="M742.379 446.532c.44.362.876.727 1.315 1.088-1.111-.91-1.451-1.193-1.315-1.088z"/><path d="M317.293 220.274c-21.261 24.796-35.496 53.262-42.181 85.224-6.734 32.2-7.09 65.506-10.703 98.123-.293 2.651 1.285 4.374 3.836 3.101 23.562-11.763 47.001-23.879 71.695-33.139 12.051-4.519 24.411-8.18 37.004-10.838 13.615-2.875 27.208-2.888 40.908-4.585 3.483-.432 7.95-8.793 2.963-9.414-13.244-1.649-27.937 1.246-40.931 3.853-13.205 2.649-26.101 6.69-38.7 11.414-25.365 9.511-49.398 22.254-73.571 34.379l3.836 3.101c3.42-31.347 4.051-63.136 9.776-94.196 5.718-31.019 19.328-58.493 39.64-82.553 2.993-3.548.249-8.926-3.572-4.47z"/><path d="M422.46 355.615c.265-35.179.15-70.568 4.502-105.534l-6.913 4.264c6.274 14.782 12.208 29.707 18.01 44.68a3022.36 3022.36 0 0 1 9.022 23.633c3.229 8.543 5.974 17.486 9.843 25.758 2.324 4.97 7.638-2.955 6.658-6.299-4.746-16.198-11.874-32.05-17.962-47.793-6.018-15.559-12.224-31.043-18.819-46.368-1.991-4.625-6.614 1.781-6.913 4.264-4.288 35.569-3.953 71.489-3.682 107.25.015 1.964 1.858 2.688 3.405 1.735 1.9-1.17 2.833-3.44 2.849-5.59z"/><path d="M454.955 349.1c54.412-2.729 108.919-3.077 163.277-6.906 3.547-.25 5.469-4.349 5.47-7.492.006-24.927-4.235-49.26-7.913-73.823l-7.545 7.156c10.916 16.888 24.506 31.973 36.215 48.308 11.894 16.593 21.93 34.289 27.905 53.892.998 3.275 4.643 2.152 6.478.419 2.398-2.266 4.064-6.149 3.052-9.434-6.099-19.79-16.296-37.813-28.355-54.554-11.912-16.538-25.032-32.526-38.468-47.846-3.332-3.799-8.092 4.181-7.545 7.156 4.448 24.196 8.233 48.846 8.454 73.489l5.47-7.492c-54.618 4.459-109.492 4.499-164.082 9.462-3.135.285-6.062 7.848-2.413 7.665zM685.44 195.583c11.358 7.806 19.479 20.635 26.665 32.099 10.406 16.599 19.249 34.167 27.549 51.893 8.505 18.165 16.145 36.757 22.807 55.675 5.077 14.419 9.974 29.28 12.281 44.437.449 2.951.748 5.932.767 8.918.017 2.463 2.331 3.369 4.269 2.174 2.356-1.454 3.591-4.326 3.571-7.009-.095-12.915-4.137-26.041-7.853-38.284-5.539-18.253-12.435-36.106-19.924-53.639-7.923-18.549-16.765-36.69-26.735-54.227-8.073-14.199-17.188-28.356-28.501-40.216-3.326-3.487-6.988-6.754-11.058-9.353-2.909-1.857-6.772 5.515-3.838 7.532z"/><path d="M785.515 386.367c-33.716-17.991-74.276-9.976-109.867-21.671-4.689-1.541-9.544 8.86-5.221 10.246 36.098 11.574 76.115 3.775 111.102 19.249 3.357 1.485 7.223-6.096 3.986-7.824z"/><path d="M258.207 836.381c-25.841 3.345-51.762 3.637-77.48-.85l3.88 6.934c4.611-59.21 25.863-116.27 24.458-176.085-.304-13.006-2.312-25.946-3.369-38.905-1.039-12.712-1.732-25.45-2.24-38.193-1.067-26.822-1.127-53.681-.647-80.516.879-49.214 3.82-98.405 8.24-147.423 1.581-17.535 3.147-35.155 5.732-52.577 2.792-18.809 8.258-37.24 15.561-55.47 14.682-36.639 38.944-71.72 68.878-99.593 31.166-29.021 69.532-49.791 111.451-57.939 51.152-9.944 103.444 2.145 149.12 25.787 3.285 1.7 7.488-1.508 9.157-4.144.138-.218.298-.422.455-.625 1.301-1.666-2.411 2.398.103-.022.413-.399.849-.777 1.288-1.148 1.501-1.267-2.155 1.561.038-.016 1.547-1.111 3.201-2.063 4.894-2.931 1.772-.909-1.119.417 1.479-.661a53.693 53.693 0 0 1 3.389-1.248c2.909-.981 5.91-1.675 8.927-2.233 6.974-1.288 15.571-1.284 23.279-.779 21.649 1.416 43.238 7.475 63.425 15.19 6.677 2.553 13.179 5.559 19.49 8.913 7.551 4.014 14.794 8.594 21.721 13.6a195.49 195.49 0 0 1 8.15 6.237c1.075.865.609.481 2.296 1.903 3.964 3.345 7.782 6.857 11.486 10.486 17.862 17.501 32.492 38.088 44.442 59.999 38.051 69.769 49.026 153.719 51.318 232.394 1.748 59.97-3.78 119.773-5.119 179.696-.943 42.208-.808 84.657 3.335 126.711 2.235 22.711 5.356 46.217 13.459 67.691 3.88 10.284 9.402 21.281 18.939 27.422a20.467 20.467 0 0 0 3.24 1.689c2.53-6.17 5.06-12.341 7.587-18.511-44.219 3.706-88.47 7.139-132.656 11.217-5.371.496-9.043 5.32-10.578 10.189-.938 2.979-1.448 11.359 3.952 10.861 44.471-4.105 88.888-8.858 133.324-13.335 3.946-.396 6.735-3.224 8.485-6.66 1.44-2.824 3.433-10.141-.897-11.851a21.926 21.926 0 0 1-4.319-2.312 24.693 24.693 0 0 1-1.055-.769c-1.405-1.073 1.146.989.058.05-.81-.7-1.568-1.454-2.302-2.234-1.646-1.755-3.101-3.697-4.401-5.721a56.798 56.798 0 0 1-2.062-3.509c1.161 2.123-.1-.227-.35-.728a78.446 78.446 0 0 1-1.173-2.47c-3.448-7.537-5.822-15.551-7.796-23.583-1.547-6.288-2.088-9.172-3.098-14.938-1.141-6.52-2.058-13.078-2.856-19.647-4.75-39.045-5.191-78.625-4.731-117.904.697-59.65 6.355-119.137 6.098-178.795-.361-83.439-9.956-171.252-46.73-247.272-20.278-41.919-49.801-79.976-90.069-104.274-20.305-12.251-42.931-19.733-65.932-25.157-25.895-6.106-61.026-10.182-82.697 9.35-1.625 1.465-3.267 3.115-4.441 4.967l9.156-4.144c-44.52-23.097-94.441-34.883-144.512-28.07-43.875 5.971-84.156 25.813-118.278 53.619-33.593 27.376-60.677 63-79.902 101.724-9.217 18.565-16.616 38.145-21.709 58.24-4.478 17.667-6.613 35.62-8.514 53.706-4.829 45.962-7.8 92.147-9.449 138.327-1.894 53.049-2.162 106.356 2.366 159.287 1.371 16.04 3.561 31.833 3.213 47.979-.379 17.576-3.071 35.15-6.056 52.442-6.126 35.491-15.223 70.715-17.453 106.768-.19 3.062.297 6.392 3.882 6.933 26.534 4.014 53.072 2.927 79.541-1.057 5.869-.882 10.528-16.911 3.579-16.012z"/><path d="M297.952 391.953c1.972 27.734-4.668 54.711-4.968 82.38l7.179-4.427c-3.556-26.23-8.539-57.373 6.807-80.951l-6.047-1.607c-4.352 25.834-8.741 51.766-12.224 77.732-.265 1.977.69 4.528 3.142 3.784 2.58-.784 3.945-3.648 4.423-6.072 5.076-25.724 8.095-51.891 12.328-77.764.74-4.521-3.951-4.858-6.047-1.607-17.632 27.354-14.134 60.282-9.561 90.913.949 6.356 7.173-.893 7.179-4.427.024-14.754 2.155-29.36 3.641-44.01 1.258-12.399 2.471-25.817-.574-38.043-.957-3.841-5.431 1.949-5.278 4.099z"/><path fill="#EAA286" d="M741.972 445.707c11.228-10.683 28.146-24.851 44.992-18.104 18.928 7.581 28.968 28.848 30.636 48.208 2.04 23.721-7.708 70.459-41.335 61.042-13.793-3.863-24.804-16.396-32.771-27.57-5.534-7.761-11.257-21.924-4.268-30.653 6.957-8.682 18.834.298 23.407 6.715a104.186 104.186 0 0 0 4.273 5.606c2.71 3.306-3.906-4.278-1.11-1.271a54.815 54.815 0 0 0 2.029 2.034c.64.619 1.317 1.203 1.992 1.782 2.705 2.329-4.405-3.262-1.61-1.264 1.183.847 2.45 1.563 3.748 2.212-6.018-3.002-1.983-.958-.147-.512 2.552.621-4.47-.468-1.908-.225.544.053 1.091.043 1.639.032 1.603-.03 5.343-1.237-.176.367 1.183-.343 2.296-.902 3.358-1.519 3.435-1.991-.327.506.026.189.869-.773 1.645-1.649 2.392-2.541.791-.941 1.488-1.957 2.161-2.985.351-.536.672-1.091.993-1.641 1.317-2.271-2.153 4.265-.478.779 1.203-2.507 2.13-5.14 2.928-7.803a62.631 62.631 0 0 0 1.068-4.188c.686-3.041-.913 4.86-.361 1.788.17-.959.308-1.922.438-2.885.386-2.866.544-5.756.544-8.644.002-3.264.239 5.737.086 2.502-.034-.692-.095-1.381-.152-2.072a47.67 47.67 0 0 0-.537-3.996c-.766-4.492 1.786 6.647.252 1.371a32.19 32.19 0 0 0-.578-1.739c-1.112-3.161 2.869 6.706 1.511 3.683-2.292-5.1 2.22 3.21 1.396 2.003-2.833-4.169 4.798 4.563 1.091 1.299 5.259 4.63 4.143 3.086 2.574 2.066-1.255-.812-3.765-1.751 2.505 1.052-.953-.426-1.974-.675-2.995-.864 5.889 1.092 2.042.307.198.443-.626.047-1.247.155-1.862.264-2.39.413 4.162-1.3.493-.104-3.24 1.057-6.248 2.785-9.101 4.622-1.79 1.153-3.491 2.441-5.167 3.754 3.099-2.424-.145.148-.634.573-1.322 1.15-2.598 2.353-3.868 3.562-8.008 7.62-18 .592-23.407-6.713-4.942-6.679-12.084-23.217-4.265-30.655z"/><path d="M748.449 441.172c16.036-10.541 38.408-20.02 55.897-7.131 14.126 10.41 17.946 30.513 16.932 46.958-1.085 17.551-8.152 36.548-22.024 47.946-15.365 12.623-39.021 11.437-52.931-2.935-1.167-1.206-5.112-10.522-.459-9.745 8.503 1.422 15.677 6.255 24.529 6.763 7.197.411 13.989-1.9 19.965-5.791 12.464-8.119 19.513-23.971 21.825-38.176 1.907-11.719 1.604-27.232-8.353-35.475-14.592-12.085-37.476-1.691-51.638 5.619-2.908 1.499-6.496-6.221-3.743-8.033z"/><path d="M793.313 483.739c-5.874-7.222-13.74-12.743-23.323-12.865-10.567-.133-12.907 9.238-16.909 16.907-1.826 3.501-5.856-4.243-6.004-5.539-1.343-11.783 4.593-23.516 17.654-23.748 12.796-.228 24.3 10.589 31.056 20.325 1.765 2.546.896 9.065-2.474 4.92z"/><path d="M746.663 477.783c7.616-.314 17.167-.392 22.554 5.984 5.333 6.305 4.282 15.849-.289 22.289-1.96 2.761-5.167-4.092-4.582-5.931.835-2.62 4.728-9.51 1.918-11.938-4.474-3.868-12.224-3.972-17.769-4.266-2.224-.119-4.575-6.025-1.832-6.138z"/><path d="M753.692 458.616c-2.504-20.86-8.647-43.765-22.019-60.661-2.008-6.421-4.01-12.838-5.933-19.265-1.126-3.762-4.887-.669-6.539 2.824-.478-1.005-.951-2.012-1.446-3.011-2.678-5.407-9.363 3.275-7.597 7.185 7.286 16.122 13.542 32.742 17.759 49.914 2.683 26.51 2.545 53.439 2.535 79.882 0 1.814 1.498 3.216 3.299 2.669 2.644-.803 4.144-3.789 4.592-6.301.399-2.255.743-4.504 1.059-6.753 1.272 13.042 2.268 26.101 3.265 39.068.138 1.812 1.419 3.297 3.351 2.71 2.642-.802 4.274-3.853 4.662-6.399 4.109-27.018 6.279-54.631 3.012-81.862zM433.961 464.1a34.51 34.51 0 0 0-1.119-1.377c-4.452-6.728-11.794-11.374-20.258-12.169-5.117-1.102-10.426-.992-15.421.714-4.072 1.393-8.096 3.97-10.64 7.48-11.375 8.266-13.491 24.238-4.589 36.177 11.145 14.942 31.905 15.787 46.415 5.578 12.527-8.812 14.839-24.379 5.612-36.403zm-50.623 7.496a27.1 27.1 0 0 0-.543 3.17c.022-1.136.22-2.185.543-3.17z"/><circle fill="#FFF" cx="414.614" cy="471.115" r="10.881"/><path d="M449.926 463.366c-16.605-14.043-36.09-24.096-57.259-14.25-6.049 2.813-11.609 6.854-17.979 8.934-2.8.915-5.623 1.027-8.508.453-4.172-.83-6.809-4.219-10.437-5.981-3.622-1.76-6.381 5.258-4.816 7.794 3.812 6.177 12.583 8.675 19.341 7.458 6.566-1.182 12.422-5.553 18.061-8.852 6.921-4.049 14.226-7.006 22.376-6.716 13.392.477 25.563 8.941 35.571 17.069 2.012 1.633 5.565-4.289 3.65-5.909zm-103.363-37.68c4.26-6.256 12-10.803 19.521-14.62 10.093-5.121 21.476-8.092 32.626-9.73 11.853-1.741 24.554-1.16 36.091 2.111a80.408 80.408 0 0 1 17.865 7.516c5.804 3.313 10.688 7.896 16.195 11.626 2.674 1.811 6.365-1.626 7.762-3.512 2.429-3.282 3.856-7.975 1.627-11.683-7.386-12.284-22.537-19.008-35.92-22.314-13.523-3.34-27.78-2.829-41.428-.602-22.877 3.733-48.955 14.733-61.088 35.638-1.181 2.035-1.899 5.564-.282 7.584 2.068 2.582 5.694-.051 7.031-2.014z"/><path d="M364.027 449.473c8.524 13.152 30.371 8.428 43.116 6.125 2.53-.457 5.147-7.6 1.663-7.438-11.824.55-31.631 6.458-39.996-5.144-2.174-3.017-6.495 3.815-4.783 6.457zm243.48 50.405c14.511 10.209 35.27 9.365 46.415-5.579 8.901-11.938 6.785-27.911-4.59-36.177-2.543-3.509-6.567-6.088-10.64-7.48-4.995-1.707-10.304-1.816-15.421-.713-8.463.793-15.807 5.44-20.258 12.169-.384.452-.762.908-1.119 1.375-9.226 12.025-6.915 27.594 5.613 36.405zm45.554-25.737a27.136 27.136 0 0 0-.543-3.17c.323.986.521 2.034.543 3.17z"/><circle fill="#FFF" cx="621.242" cy="470.489" r="10.881"/><path d="M588.824 467.936c9.909-8.098 21.635-15.912 34.851-16.385 8.027-.288 15.344 3.072 22.11 7.037 5.729 3.357 11.168 7.265 17.771 8.678 7.513 1.606 16.126-2.945 20.537-8.887 1.538-2.073 2.148-8.7-2.162-6.178-3.327 1.947-5.771 4.596-9.61 5.659-2.697.747-5.735.44-8.385-.349-6.538-1.948-12.291-6.119-18.419-9.011-21.412-10.104-41.617.495-58.381 14.585-2.353 1.978-1.903 7.784 1.688 4.851zm101.817-52.081c-11.138-19.947-37.63-28.943-58.73-32.416-27.447-4.517-61.471 1.581-78.361 25.887-1.974 2.84-3.593 6.788-2.387 10.271 1.479 4.271 5.654 2.531 8.203.531 9.937-7.799 19.084-14.003 31.418-17.455 11.997-3.357 24.588-3.398 36.86-1.742 11.462 1.547 22.682 5.009 33.072 10.074 8.036 3.917 16.345 8.633 21.612 16.07 1.964 2.771 5.724-.25 7.03-2.016 1.966-2.655 2.954-6.208 1.283-9.204z"/><path d="M667.78 443.55c-3.77 5.327-11.51 5.637-17.439 5.63-7.005-.008-13.933-1.333-20.92-1.644-3.091-.138-6.113 6.83-2.371 7.534 13.717 2.581 34.914 6.457 44.039-7.382 2.273-3.449-.104-8.666-3.309-4.138z"/><path fill="#FFF" d="M460.94 611.721s-25.375-30.196 28.331-47.074c53.706-16.879 95.135 24.55 95.135 24.55s9.205 53.704-55.24 41.429c-64.445-12.275-68.226-18.905-68.226-18.905z"/><path d="M411.201 589.115c1.143-5.031 3.175-9.085 7.067-12.565 1.516-1.355 2.889-3.659 2.312-5.778-.54-1.989-2.803-1.673-4.038-.538-5.678 5.215-11.023 12.795-10.609 20.888.221 4.344 4.783.139 5.268-2.007zm197.931-14.244c4.08 3.412 6.563 8.176 9.169 12.718 2.004 3.495 7.662-3.695 5.847-6.867-2.852-4.972-5.997-9.713-10.603-13.231-2.787-2.131-7.183 5.063-4.413 7.38z"/><path fill="#FF617F" d="M447.178 599.031c11.417 12.947 20.394 28.483 34.67 38.618 13.248 9.404 30.452 12.319 46.364 11.173 28.423-2.049 65.031-18.34 60.497-52.588-.428-3.233-3.021-3.084-5.146-1.384-16.696 13.363-37.09 23.229-58.442 25.855-21.666 2.665-42.928-3.197-61.541-14.168-4.317-2.545-7.973 6.715-6.026 9.753 12.735 19.868 39.553 26.005 61.625 25.916 23.748-.095 50.271-8.129 64.138-28.633 1.249-1.848 2.314-4.34 1.532-6.596-.652-1.885-2.695-2.184-4.239-1.139-20.864 14.12-45.685 25.794-71.334 25.986-11.249.084-22.208-2.766-31.494-9.215-11.22-7.793-17.292-20.725-21.013-33.448-.762-2.605-3.688-1.684-5.12-.331-1.967 1.857-3.101 4.795-2.413 7.456 3.445 13.323 9.907 26.186 20.792 34.94 9.611 7.731 21.481 11.148 33.689 11.547 27.581.901 55.302-12.222 77.621-27.326l-2.707-7.734c-11.924 17.633-37.225 22.799-57.033 23.121-20.5.334-45.598-5.109-57.274-23.686l-6.026 9.753c19.685 11.861 41.964 17.646 64.899 14.711 23.245-2.976 43.736-14.359 62.012-28.511l-4.183-2.131c3.239 28.269-32.969 36.856-54.67 37.439-14.706.395-29.283-3.374-41.424-11.841-12.858-8.968-21.789-23.319-32.646-34.44-2.844-2.912-7.363 4.346-5.108 6.903z"/><path fill="#FF617F" d="M450.807 586.493c34.927-18.567 75.36-14.162 112.46-5.616 3.815.879 8.088-8.988 4.137-10.092-19.062-5.321-37.972-5.129-57.407-2.204-19.283 2.902-38.069 7.304-57.647 7.888l-1.321 10.055c19.835-11.049 42.695-17.28 65.388-17.854 11.486-.29 23.095 1.073 34.13 4.295 10.975 3.203 20.303 8.837 29.848 14.932 3.502 2.236 8.35-6.524 5.593-9.051-17.324-15.88-43.538-20.949-66.315-20.517-24.294.462-47.951 7.485-69.359 18.753-2.361 1.242-6.368 10.058-1.321 10.055 18.539-.012 36.737-4.35 54.903-7.516 19.522-3.401 39.202-4.279 58.483 1.025l4.137-10.092c-38.855-8.798-80.876-12.246-116.188 9.618-2.428 1.504-3.65 8.516.479 6.321z"/><path d="M438.5 587.335c7.013 18.942 16.144 44.366 33.517 56.739 16.125 11.484 40.153 11.119 60.597 10.195 40.127-1.814 48.944-40.771 60.933-66.858 1.816-3.953-1.354-3.346-2.825-.383-12.021 24.276-20.894 60.525-59.178 60.791-19.729.136-40.871.404-56.445-10.391-16.388-11.361-24.284-34.988-33.312-50.426-1.392-2.382-3.287.333-3.287.333z"/><path d="M444.052 589.615c9.475-3.397 17.354-8.985 25.517-14.714 9.494-6.662 19.574-10.58 31.164-11.745 16.255-1.634 34.144-.21 49.441 5.641 15.05 5.755 27.303 18.34 43.996 19.511 3.02.212 5.87-6.847 2.289-7.271-16.487-1.958-29.098-14.453-44.28-20.066-15.303-5.656-33.11-6.343-49.218-4.894-11.451 1.031-21.94 4.79-31.481 11.148-8.733 5.819-16.596 12.289-26.589 15.943-2.493.911-4.233 7.664-.839 6.447z"/><path d="M413.449 581.482c15.105 8.786 33.523 7.997 50.166 4.953 20.681-3.784 41.379-7.648 62.496-6.541 29.698 1.556 69.224 23.905 92.983-3.805 1.579-1.841.552-6.229-1.953-3.628-11.907 12.372-28.118 12.218-43.934 9.406-16.408-2.916-31.939-7.738-48.726-8.399-19.023-.749-37.785 2.98-56.417 6.281-17.392 3.082-35.646 4.78-52.022-3.357-2.135-1.061-4.658 3.889-2.593 5.09z"/><path d="M593.587 583.006c-11.609 8.664-22.29 18.681-34.034 27.11-12.646 9.076-28.118 9.844-43.109 9.119-7.513-.363-15.101-.621-22.326-2.877-7.575-2.365-14.356-6.853-20.644-11.576-5.41-4.064-10.353-8.68-15.667-12.856-5.696-4.476-12.078-7.099-19.111-8.649-2.539-.56-5.396 5.97-2.757 6.725 14.97 4.284 24.158 15.803 36.28 24.724 6.285 4.625 13.155 8.333 20.678 10.467 7.712 2.188 16.117 2.139 24.075 2.424 14.755.527 29.128-1.433 41.777-9.5 6.34-4.043 11.888-9.47 17.649-14.277 6.04-5.04 12.202-9.937 18.394-14.788 2.176-1.706 2.299-8.66-1.205-6.046z"/><path d="M483.157 596.194l.278-4.082c-13.523-2.715-27.221-6.305-41.05-6.911-3.045-.134-6.484 6.868-2.841 7.263m149.722 2.382c2.98-.35 5.652-7.456 1.432-7.168-10.034.684-25.633 5.915-35.429 8.359"/></svg>