<svg xmlns="http://www.w3.org/2000/svg" xmlns:xlink="http://www.w3.org/1999/xlink" width="1030" height="1030" viewBox="0 0 1030 1030"><defs><path id="a" d="M1020.377 515.001c0 279.115-226.264 505.377-505.377 505.377-279.112 0-505.377-226.264-505.377-505.377S235.887 9.622 515 9.622s505.377 226.266 505.377 505.379z"/></defs><clipPath id="b"><use xlink:href="#a" overflow="visible"/></clipPath><g clip-path="url(#b)"><path fill="#EF6100" d="M1021.412 517.214c0 279.115-226.264 505.377-505.377 505.377S10.659 796.327 10.659 517.214 236.922 11.835 516.035 11.835c279.113 0 505.377 226.266 505.377 505.379z"/><path fill="#EA2700" d="M64.591 301.339c65.698-60.766 147.472-101.363 226.167-142.393 40.814-21.281 80.746-43.73 120.539-66.854 43.205-25.111 87.469-49.598 136.054-62.561l-2.865-37.723C469.49 62.96 382.01 118.8 296.631 176.392c-43.968 29.658-87.434 59.996-129.215 92.682-20.033 15.672-39.121 32.311-60.043 46.828-21.764 15.1-44.41 28.885-66.553 43.41-20.462 13.42-40.42 27.699-58.93 43.736-7.092 6.145-11.695 17.17-10.986 26.521.548 7.209 5.93 13.973 13.85 11.199 98.166-34.393 184.33-95.652 268.734-154.941 42.163-29.617 84.25-59.42 128.115-86.494 19.996-12.342 40.241-24.098 59.857-37.074 21.043-13.918 41.816-28.238 62.964-42 37.358-24.314 76.479-48.123 120.034-59.316-2.24-11.117-4.479-22.232-6.717-33.35-3.625 4.496-11.99 11.266-18.963 15.918-10.002 6.67-20.648 12.365-31.156 18.178-23.029 12.742-45.092 27.219-67.552 40.936-51.307 31.332-102.535 62.797-153.854 94.113-51.11 31.188-102.326 62.211-153.79 92.816-45.841 27.262-92.239 53.613-137.737 81.449-57.199 34.99-113.605 73.15-161.329 120.578-6.829 6.783-11.733 16.688-10.986 26.52.56 7.365 5.898 13.781 13.849 11.199 51.945-16.859 99.75-43.609 147.504-69.639 50.274-27.404 102.162-51.779 153.586-76.934 106.723-52.203 213.544-104.201 320.025-156.898 43.588-21.572 87.41-42.348 128.738-68.076 36.969-23.018 73.674-48.996 115.463-62.539-.953-12.574-1.908-25.146-2.863-37.721-32.516 34.457-76.607 55.146-117.221 78.289-50.043 28.516-97.459 62.32-145.693 93.777-48.673 31.742-97.557 62.701-143.463 98.404-36.259 28.201-71.635 58.477-113.409 78.264C166.967 440.29 75.417 461.753 37.559 541.29c-3.076 6.463-5.363 14.316-2.909 21.402 1.745 5.039 7.497 9.094 12.933 6.588C147.668 523.179 241.1 464.948 335.032 407.694c46.52-28.355 93.289-56.326 141.23-82.229 49.123-26.541 100.222-49.029 149.865-74.543 51.182-26.305 101.262-54.686 151.102-83.426-.986-12.998-1.971-25.994-2.959-38.99-89.508 66.279-184.82 124.035-280.238 181.279-95.316 57.186-189.7 115.123-280.916 178.699C148.343 533.63 70.698 560.08 20.877 624.457c-8.81 11.383-11.101 42.221 10.985 31.381 208.226-102.16 408.941-218.58 611.71-330.955 81.105-44.949 162.598-89.213 245.031-131.684-.984-12.996-1.971-25.994-2.959-38.988C684.77 269.935 489.943 395.938 300.086 528.915 223.16 582.794 147.082 637.888 71.738 693.958c-9.188 6.836-16.062 17.881-15.16 29.76.736 9.699 9.592 15.234 18.119 9.229 43.635-30.723 91.015-55.527 138.017-80.598 48.866-26.064 96.421-53.967 143.454-83.207 97.824-60.818 193.597-125.836 295.82-179.223 79.943-41.756 155.398-91.654 236.615-131.035l-7.129-35.752C726.443 362.759 545.961 469.948 368.333 577.765 274.889 634.486 181.495 691.474 91.73 753.931c-9.318 6.484-16.043 18.146-15.161 29.758.8 10.539 9.317 14.158 18.12 9.23 202.516-113.371 408.093-221.234 609.107-337.291 82.611-47.695 164.387-96.848 244.783-148.197l-10.986-31.381c-4.994 7.512-10.375 14.717-16.096 21.689-5.041 6.145-10.836 12.266-18.377 19.707-14.123 13.939-29.658 26.809-45.09 38.273-35.396 26.297-73.57 48.73-112.08 70.107-37.449 20.789-75.582 40.312-113.115 60.945-42.607 23.422-83.6 49.658-124.551 75.828-65.341 41.752-130.41 84.795-198.977 121.15-60.085 31.857-124.11 59.162-173.204 107.688-6.839 6.762-11.731 16.707-10.986 26.521.621 8.164 5.796 12.766 13.852 11.199 27.105-5.268 51.926-18.041 75.643-31.76 24.855-14.379 49.684-28.809 74.538-43.191a10620.193 10620.193 0 0 0 152.231-89.771c49.53-29.773 100.037-57.951 150.666-85.822 50.375-27.73 102.133-51.93 153.664-77.322 67.275-33.148 131.117-72.73 197.158-108.186l-10.984-31.383c-5.504 7.193-9.137 10.836-17.041 18.057-7.752 7.076-15.979 13.312-24.516 19.367-18.809 13.338-38.715 25.094-58.619 36.699-43.184 25.18-85.117 51.793-126.223 80.277-91.951 63.715-180.73 131.844-272.466 195.85-62.605 43.68-127.018 85.396-195.643 119.062.985 12.998 1.973 25.994 2.959 38.99 48.336-27.512 98.725-51.109 148.232-76.383 25.086-12.807 49.888-26.168 74.098-40.572 24.189-14.391 46.895-30.896 69.81-47.201 23.252-16.545 46.578-32.992 70.564-48.465 23.51-15.168 48.084-28.535 72.547-42.078 48.807-27.02 97.926-53.48 146.338-81.211 61.396-35.17 121.518-72.686 178.057-115.307-3.662-10.461-7.322-20.922-10.984-31.381-59.98 69.826-146.119 119.631-225.496 166.939-91.051 54.268-181.008 110.705-269.408 169.203-41.197 27.26-81.385 55.869-121.205 85.092-39.393 28.914-78.959 57.732-121.233 82.348-9.595 5.584-15.991 18.82-15.16 29.758.841 11.066 9.201 13.475 18.119 9.23 100.961-48.053 196.104-107.057 291.245-165.518 47.797-29.369 95.674-58.625 144.387-86.459 47.674-27.238 96.566-52.016 145.607-76.67 75.025-37.713 150.205-76.055 218.391-125.428l-7.131-35.75c-33.611 33.213-76.09 55.598-117.895 76.719a4042.123 4042.123 0 0 0-133.637 70.689c-99.297 54.922-199.129 109.008-295.388 169.18-39.694 24.812-79.177 50.248-116.166 78.982-32.521 25.262-64.553 53.299-102.4 70.43-8.953 4.055-15.018 11.32-17.994 20.766-1.853 5.883-3.031 24.236 8.274 22.725 45.448-6.074 87.677-22.926 128.725-42.799 43.948-21.275 85.808-46.65 127.571-71.857 92.4-55.779 188.994-103.605 284.818-153.17 30.955-16.012 61.799-31.988 92.062-49.281l89.188-50.969c9.619-5.496 15.986-18.891 15.162-29.758-.805-10.576-9.309-14.111-18.121-9.23-104.188 57.711-206.854 118.117-308.768 179.746-51.145 30.93-102.086 62.188-152.945 93.584-44.668 27.572-85.542 60.625-129.553 89.188-21.202 13.756-43.261 26.518-67.015 35.328l-1.309 40.957c171.867-107.34 370.171-160.402 549.302-253.342 47.312-24.547 93.092-52.107 136.094-83.643 9.217-6.758 16.057-17.938 15.158-29.76-.758-9.986-9.484-14.867-18.117-9.229C824.266 729.44 638.676 860.724 439.864 970.419a2775.644 2775.644 0 0 1-59.695 31.969l7.133 35.752c73.349-58.309 162.89-92.967 248.279-129.312 44.957-19.137 89.818-38.742 132.914-61.836 22.314-11.959 44.492-24.162 66.002-37.533 23.461-14.584 46.566-29.75 71.246-42.24-4.764-8.674-9.529-17.348-14.291-26.021-3.254 5.631 2.838-4.268-.768 1.271-1.092 1.672-2.266 3.291-3.438 4.908-1.197 1.656-2.473 3.256-3.744 4.855-.225.285-4.666 5.496-1.592 2.025-6.42 7.246-13.555 13.844-20.877 20.158-14.346 12.365-31.18 23.664-48.141 34.455-35.631 22.666-73.1 42.25-109.025 64.42-39.857 24.594-76.527 54.361-114.17 82.133-42.477 31.334-86.009 61.828-133.525 85.104-8.502 4.166-17.229 7.842-26.042 11.295l2.864 37.721c61.737-53.27 143.857-80.49 220.312-108.334 80.787-29.42 162.883-61.467 226.773-120.973 7.467-6.955 14.516-14.354 21.266-22.004 7.164-8.117 13.979-19.857 10.072-31.133-3.469-10.01-15.477-8.066-21.377-1.381-114.229 129.438-307.648 132.047-443.065 231.178a405.328 405.328 0 0 0-25.288 20.133c-7.098 6.125-11.694 17.186-10.987 26.523.528 6.965 5.991 14.279 13.852 11.197 97.133-38.068 176.129-109.006 260.493-168.248 66.98-47.033 147.924-76.375 205.264-136.568 10.396-10.916 19.23-22.635 26.766-35.684 7.1-12.287 4.061-35.305-14.291-26.02-23.682 11.982-45.959 26.396-68.422 40.475-22.414 14.049-45.568 26.727-68.828 39.299-42.021 22.705-85.977 41.566-129.891 60.242-90.248 38.379-182.23 75.838-259.648 137.379-7.227 5.744-11.673 17.469-10.986 26.521.82 10.785 9.259 13.842 18.119 9.23C584.75 936.47 771.74 806.556 960.965 681.343a11102.88 11102.88 0 0 1 56.154-36.924c-.986-12.996-1.975-25.992-2.959-38.988-164.072 120.318-362.512 176.99-545.046 261.854-48.148 22.383-95.297 46.992-140.35 75.131-8.23 5.139-13.768 14.979-14.994 24.48-1.043 8.053 3.027 20.43 13.684 16.479 48.654-18.047 91.17-48.994 132.91-79.129 45.078-32.541 91.929-61.576 139.314-90.625 101.836-62.436 204.242-123.967 307.943-183.266a7351.688 7351.688 0 0 1 86.65-48.766c-.986-12.996-1.971-25.992-2.959-38.988-51.547 29.457-102.699 59.619-155.438 86.898-53.777 27.818-107.557 55.633-161.336 83.449-43.93 22.723-87.301 45.756-129.697 71.246-41.77 25.117-83.296 50.699-126.521 73.277-41.221 21.529-86.023 41.922-132.551 48.141l-9.721 43.49c47.463-21.482 85.909-55.805 127.18-86.811 44.621-33.523 92.951-62.742 140.677-91.576 96.971-58.586 197.004-111.867 295.91-167.064 73.6-41.076 157.643-70.725 218.6-130.963 6.844-6.76 11.734-16.709 10.988-26.521-.729-9.592-9.637-15.373-18.119-9.23-88.59 64.145-188.592 109.527-285.451 159.373-99.426 51.166-193.672 111.625-289.093 169.732-73.313 44.643-147.525 88.053-225.085 124.969.985 12.996 1.974 25.992 2.959 38.988 49.188-28.641 94.676-62.945 140.544-96.504 46.478-34 94.139-66.234 142.511-97.467 87.035-56.191 175.35-110.045 263.912-163.752 74.689-45.295 149.064-94.295 206.426-161.074 5.668-6.598 9.145-18.316 6.219-26.762-2.553-7.369-11.105-9.217-17.203-4.619-89.629 67.562-188.064 121.631-286.24 175.51-49.328 27.074-98.404 53.916-144.787 85.881-23.352 16.092-46.289 32.777-69.5 49.068-23.092 16.205-47.428 30.418-72.158 43.965-61.565 33.727-125.932 62.055-186.961 96.791-9.623 5.477-15.984 18.906-15.161 29.76.834 10.973 9.22 13.596 18.12 9.23 98.893-48.512 189.041-113.174 277.8-177.871 89.326-65.109 177.656-132.875 271.783-191.008 55.475-34.266 120.369-62.553 160.975-115.648 5.389-7.047 9.266-17.969 6.219-26.762-2.842-8.197-10.652-8.139-17.203-4.621-49.322 26.479-97.434 55.121-146.604 81.871-49.906 27.152-102.031 49.65-152.42 75.84C537.59 565.519 438.344 626.224 337.974 685.06a11387.662 11387.662 0 0 1-97.149 56.283c-30.902 17.713-60.723 37.979-96.278 44.889l2.865 37.721c33.756-33.367 76.161-55.738 118.04-77.18 45.688-23.391 90.239-48.039 134.129-74.68 87.598-53.176 171.681-111.859 262.07-160.354 54.957-29.484 110.545-57.98 162.961-91.898 49.711-32.166 98.854-70.18 131.992-120.016 5.025-7.557 9.408-17.564 6.219-26.762-2.699-7.791-10.855-8.674-17.203-4.621-195.874 125.102-399.874 236.655-603.807 347.893-83.527 45.561-167.061 91.117-250.082 137.596l2.959 38.988c170.951-118.941 354.396-218.406 528.242-332.895 94.264-62.08 185.902-128.777 269.846-204.379 7.025-6.326 11.709-17.035 10.988-26.521-.836-11.01-9.213-13.549-18.121-9.23-51.248 24.85-100.295 53.832-149.523 82.396-49.637 28.799-100.664 55.018-150.33 83.748-99.658 57.645-195.21 122.086-293.781 181.537-72.495 43.723-150.875 77.516-220.271 126.383.986 12.996 1.974 25.992 2.959 38.988 185.014-137.684 374.572-269.338 569.66-392.373 80.434-50.727 161.85-99.902 244.246-147.373 9.607-5.535 15.988-18.861 15.162-29.76-.822-10.814-9.25-13.799-18.121-9.229-206.174 106.221-406.21 223.748-609.96 334.453-81.455 44.258-163.553 87.352-246.781 128.186 3.66 10.463 7.322 20.922 10.984 31.383 25.776-33.309 66.304-56.533 103.788-77.648 19.876-11.199 39.891-22.156 59.179-34.355 21.949-13.881 42.736-29.654 64.248-44.203 92.356-62.465 188.979-118.262 284.289-176.014 77.076-46.703 153.375-94.857 225.838-148.516 9.197-6.811 16.061-17.9 15.162-29.76-.793-10.436-9.346-14.291-18.121-9.23-48.865 28.18-97.98 55.93-148.08 81.867-49.613 25.688-100.764 48.18-150.024 74.562-96.332 51.592-187.564 112.021-281.983 166.92-45.946 26.715-92.727 52.25-141.019 74.496 3.339 9.33 6.681 18.662 10.022 27.99.942-1.98 1.92-3.936 2.938-5.881.276-.529 3.927-6.719 1.067-2.127 2.278-3.656 4.848-7.123 7.494-10.518.166-.217 4.736-5.592 1.714-2.197 1.437-1.613 2.948-3.158 4.456-4.703 3.551-3.637 7.363-7.01 11.248-10.285 4.771-4.025 12.172-9.08 19.403-13.619 8.458-5.309 17.279-10.027 26.193-14.512 34.47-17.342 71.243-29.699 106.114-46.215 43.146-20.439 79.836-52.666 117.23-81.818 44.832-34.949 93.141-64.873 140.709-95.896 48.039-31.33 95.283-64.803 145.126-93.205 42.926-24.461 88.732-46.936 123.102-83.359 6.684-7.084 11.75-16.467 10.986-26.521-.559-7.365-5.898-13.775-13.852-11.199-49.908 16.174-93.238 47.807-137.598 74.861-48.916 29.832-102.049 53.268-153.392 78.592-106.676 52.613-213.651 104.616-320.469 156.939-43.396 21.258-86.617 42.541-129.028 65.715-40.358 22.047-80.935 43.73-124.823 57.979l2.863 37.723c72.181-71.732 163.499-120.635 250.486-171.762 103.368-60.754 205.49-123.592 307.752-186.184 31.838-19.49 63.289-39.891 95.544-58.646 28.137-16.359 57.43-30.23 78.301-56.137 6.781-8.412 13.281-38.49-6.715-33.35-47.433 12.189-90.471 38.453-131.142 64.923-21.107 13.74-41.836 28.055-62.841 41.949-19.62 12.977-39.934 24.668-59.937 37.012-88.903 54.875-170.568 120.623-260.035 174.662C76.087 360.72 34.5 382.364-9.665 397.841c.954 12.572 1.909 25.146 2.862 37.721 39.104-33.881 85.59-57.932 127.51-87.986 21.174-15.182 40.631-32.545 61.216-48.488 20.628-15.977 41.774-31.275 63.117-46.279 86.077-60.504 176.019-115.529 257.792-181.998 18.234-14.82 35.916-30.312 52.962-46.484 6.924-6.572 11.719-16.852 10.984-26.521-.584-7.715-5.842-13.336-13.85-11.199-49.302 13.154-94.82 37.832-138.794 63.143-40.958 23.574-81.776 46.955-123.684 68.824-82.873 43.246-167.969 86.252-237.164 150.254-7.749 7.166-13.725 20.592-10.07 31.133 3.688 10.636 15.029 7.251 21.375 1.378z"/></g><path fill="#2F61DD" d="M278.864 395.084c3.283 8.108 9.096 11.374 16.458 5.593 8.976-7.048 13.774-20.186 17.928-30.364 5.66-13.867 10.034-28.295 13.662-42.816 2.917-11.677 5.765-23.783 5.949-35.876l-8.188 5.05c-.012 7.906 2.865 17.513 12.389 12.379 9.928-5.351 16.846-17.748 22.513-26.974 8.784-14.302 15.979-29.595 22.093-45.209 5.516-14.086 10.486-29.251 11.271-44.465.21-4.081-.303-8.041-1.445-11.966-1.589-5.461-7.869 2.737-7.559 5.871 1.22 12.334-2.194 25.287-5.884 36.956-4.81 15.213-11.363 29.878-18.868 43.942-5.496 10.299-12.255 22.15-20.053 29.699-1.685 1.631-1.416 1.504-3.466 2.571 1.281-.667-1.628.218-.224.074-1.154.118-.066.25-.784-.069-.532-.237-.718-.52-1.185-1.966-.438-1.357-.579-3.822-.611-5.892-.041-2.564-2.419-3.528-4.458-2.271-2.471 1.524-3.735 4.514-3.73 7.321.017 8.72-2.384 19.458-4.512 28.582a335.908 335.908 0 0 1-11.356 38.31c-3.525 9.708-7.488 19.758-13.702 28.096-1.367 1.833-3.063 3.714-4.964 3.814-2.809.148-4.821-3.209-5.958-5.417-1.955-3.799-6.424 2.292-5.316 5.027z"/><path fill="#D8724A" d="M395.331 713.974l-.002.004z"/><path fill="#FFE5B8" d="M761.291 368.044c-2.773-3.395-6.785-4.451-11.283-2.914-.557.189-1.117.383-1.672.572v-.104l-.355.227c-13.469 4.631-22.162 3.83-30.699 2.105 1.648-5.832 2.912-11.84 3.857-17.93.781-.025 1.596-.305 2.307-.775 3.061-2.031 4.768-6.133 4.691-9.91-.391-18.615-2.609-37.201-7.268-54.938-1.467-7.514-3.695-14.832-7.033-21.391-4.848-12.1-11.068-23.594-18.902-34.168-20.246-27.328-50.348-44.102-81.203-53.076-17.232-5.014-34.922-7.828-52.713-9.16-20.748-1.555-41.658-1.314-62.158 2.742a138.466 138.466 0 0 0-8.387 1.947c-28.128 1.092-56.005 7.006-81.496 20.389a134.26 134.26 0 0 0-7.016 3.969c-12.872 5.223-25.389 11.389-37.22 18.791-16.117 10.086-31.466 23.387-40.359 41.365-6.455 13.051-7.782 27.533-4.625 41.316-2.79 12.92-2.624 26.414.712 39.449-10.453 7.881-20.496 16.473-29.945 26.014-5.627 5.682-9.582 14.039-10.581 22.359-.452 3.762-.231 11.344 3.466 15.869 1.838 2.25 4.301 3.359 7.16 3.236 9.07-.443 18.412-1.633 28.264-3.607-7.904 4.211-15.068 8.598-21.665 13.258-7.815 5.52-13.445 15.4-14.692 25.793-.557 4.637.002 11.533 3.412 15.709 1.814 2.223 4.268 3.398 7.143 3.398 17.73-.08 36.316-1.699 56.477-4.936-22.98 10.65-46.839 22.328-69.977 36.338-8.705 5.273-13.701 16.787-14.789 25.857-.721 6.004.549 11.672 3.396 15.158 2.72 3.334 6.751 4.527 11.394 3.338 18.957-4.838 35.591-9.234 50.869-13.459a1600.878 1600.878 0 0 0-11.147 5.176l-.982.262-.03.232c-9.711 4.971-16.588 15.402-18.04 27.477-.72 6.012.544 11.693 3.409 15.199 2.727 3.34 6.729 4.521 11.36 3.295l1.991-.535c-.41.229-.91.455-1.32.684l-.379.055v.059c0 .576-1.887 1.15-2.92 1.727-8.254 4.598-13.533 16.5-14.662 25.885-.721 6.016.563 11.711 3.44 15.232 2.731 3.346 6.753 4.514 11.374 3.258a675.115 675.115 0 0 0 29.463-8.754c-7.061 7.395-13.247 23.191-10.84 33.1 1.582 6.521 6.643 9.582 14.14 8.422a370.946 370.946 0 0 0 20.937-3.865c-2.718 4.607-4.521 9.912-5.173 15.34-.536 4.469.103 11.242 3.674 15.613 2.781 3.406 6.792 4.438 11.261 2.84 3.193-1.145 6.389-2.283 9.588-3.416a39.105 39.105 0 0 0-6.788 17.684c-.735 6.127.396 11.373 3.183 14.787 2.657 3.254 6.692 4.547 11.49 3.711.635-.111 1.271-.256 1.904-.369l.122-.219c6.463-1.133 12.938-2.543 19.42-3.705-3.402 8.191-5.101 17.479-1.825 23.367.908 1.635 2.506 2.947 5.246 3.568 1.106.457 2.4.701 3.901.703.017 0 .03.004.047.004a734.553 734.553 0 0 0 15.328-.207c9.788.084 19.515.102 29.068-.523.579 5.361 3.073 10.385 7.14 12.318 11.542 5.482 24.48 8.264 38.453 8.264 29.759 0 59.945-12.551 80.062-21.992 38.254-17.955 72.92-41.514 104.684-64.303l.883-.533-.008-.115c9.088-6.994 14.822-19.514 14.023-30.828-.561-7.955-5.078-13.098-11.502-13.098-.416 0-.836.023-1.256.068 10.27-8.848 18.871-18.439 26.072-29.045 4.977-7.332 9.17-18.656 6.016-28.459-1.332-4.131-4.117-6.928-7.701-7.873a253.936 253.936 0 0 0 5.5-5.41c7.211-7.318 11.426-18.312 10.742-28.012-.465-6.584-4.559-13.584-11.229-13.584-1.283 0-2.607.273-3.932.811-2.018.818-4.057 1.641-6.111 2.463 7.064-5.344 12.307-14.953 13.508-24.945.561-4.689-.393-11.645-3.814-15.836-2.809-3.436-6.809-4.387-11.189-2.59l-1.586.648.008-.312-1.162.775c-.857.344-1.721.689-2.592 1.033a342.32 342.32 0 0 0 17.336-15.895c5.619-5.521 9.58-13.885 10.6-22.371.6-5.012-.223-11.822-3.42-15.74-.889-1.088-1.934-1.924-3.111-2.49a799.79 799.79 0 0 0 17.104-10.479c8.717-5.498 13.695-16.938 14.766-25.842.702-5.878-.724-11.978-3.634-15.546zM385.616 243.546c-7.912 8.217-15.752 16.51-23.711 24.664a129.42 129.42 0 0 1 7.602-11.037c1.846-2.4 3.979-4.893 6.286-7.369 4.583-4.102 9.479-7.812 14.577-11.168-.433.443-.865.887-1.297 1.332a27.117 27.117 0 0 0-3.457 3.578zm-43.536 44.211c4.398-13.057 10.128-25.523 17.469-36.932 3.648-3.588 7.519-6.912 11.552-10.01-11.666 13.295-20.92 28.738-27.605 45.598-.474.449-.941.899-1.416 1.344zm327.375-63.928c.561.502 1.121 1.006 1.674 1.52a2.512 2.512 0 0 0-1.031-.387c-.213-.379-.424-.758-.643-1.133zm10.897 137.912c.449 1.086.887 2.178 1.332 3.27-1.139.004-2.549.008-4.113.016a78.809 78.809 0 0 0 2.781-3.286zm14.5-107.205a13.166 13.166 0 0 0-.59 4.004c.018 2.004.102 3.996.238 5.979-5.811-13.699-13.791-26.381-22.352-38.188-.027-.037-.055-.064-.084-.102a133.473 133.473 0 0 1 22.788 28.307zm-366.454 17.186c.089-.672.206-1.338.321-2.006.183-1.041-.09.275.334-1.453 1.301-5.295 3.213-9.189 5.752-13.166 3.358-5.258 6.398-8.623 11.052-13.1 6.176-5.939 13.042-11.117 20.322-15.699a164.645 164.645 0 0 0-8.722 11.199c-11.568 10.484-21.723 22.617-29.295 36.748l-.048.092c.076-.875.172-1.746.284-2.615zm98.645 48.261l2.666-1.283.135.352c-.935.31-1.871.617-2.801.931zm89.533-5.632c4.051 2.398 8.014 4.977 11.902 7.627a569.634 569.634 0 0 1 4.67 3.225c-5.84-2.766-11.309-5.617-16.385-8.66a22.977 22.977 0 0 0-.187-2.192z"/><path fill="#EAA286" d="M768.955 497.319c-1.26-11.816-3.043-23.561-5.209-35.236 1.428-20.559 1.777-41.074-1.469-61.508.146-.713.295-1.426.441-2.137.344-1.662-.25-3.613-1.59-4.365a162.934 162.934 0 0 0-2.639-11.271c-1.377-5.059-6.627-.291-8.395 2.832-1.559-16.072-4.615-32.031-8.568-47.578-8.512-33.475-22.24-66.146-41.334-94.984-.436-.658-1.023-.969-1.662-1.051-3.068-6.062-6.482-11.852-10.426-17.111-.012-15.025-14.008-25.842-25.885-33.24-9.766-6.082-20.463-11.193-31.445-15.215-8.752-8.104-18.27-15.316-28.896-20.92-23.676-12.486-51.674-13.211-77.666-9.588-23.216 3.236-45.515 9.969-67.476 17.811a272.633 272.633 0 0 0-47.126 17.773l-1.306.492c-.285.107-.562.301-.824.553-41.713 20.779-77.871 52.328-101.92 92.584-1.079 1.803-1.691 5-.254 6.795 1.955 2.441 4.943-.219 6.3-1.807a291.757 291.757 0 0 1 16.771-18.021 191.01 191.01 0 0 0-7.547 11.385c-15.718 25.662-25.987 55.152-26.864 85.377-.106 3.66 4.548.125 4.683-2.156 2.443-40.918 22.031-80.955 51.174-109.502 14.386-14.092 31.82-25.051 51.33-30.352 23.192-6.305 46.865-1.213 69.799 3.82 1.615.354 3.234.717 4.851 1.082.446.631 1.108 1.025 2.076.953.499-.039.998-.094 1.495-.143 16.764 3.842 33.658 8.035 50.681 10.695.416.262.926.457 1.553.568 1.838.326 3.699.465 5.574.449 14.904 1.918 29.906 2.469 45.004.381 16.963-2.346 33.281-8.078 50.297-10.068 8.615-1.008 17.275 5.914 25.775 7.609.811.162 1.602 3.188 2.389 3.393 7.672 9.883 14.83 10.736 21.182 21.359 25.131 42.035 35.223 90.422 40.213 138.59 1.646 15.908 2.906 31.816 3.645 47.732-.404 22.184-.453 44.373-.377 66.562a516.689 516.689 0 0 1-.809 11.156c-1.742 20.57-4.48 41.307-10.266 61.166-6.473 22.223-19.936 41.775-33.762 60.059-15.764 20.842-33.371 41.994-54.168 58.016-.355.275-.721.539-1.08.812-12.529 4.25-24.377 11.553-33.574 20.371a204.13 204.13 0 0 1-30.174 11.52c-19.975 5.869-41.09 8.238-61.802 5.699-3.631-.445-7.039 8.158-2.751 8.742 30.5 4.154 62.174-2.332 90.629-15.289.236 2.033 1.465 3.34 4.441 2.605 9.535-2.35 19.166-7.477 27.279-13.303.338.186.783.221 1.35.047.301 1.041 1.117 1.574 2.754.975 2.906-1.064 5.646-2.504 8.209-4.219.688.629 1.629.877 2.855.385 15.549-6.242 28.24-19.686 39.066-32.039 8.283-9.451 15.686-19.787 22.395-30.488 1.84.32 4.496-1.283 5.77-2.754 14.238-16.428 23.604-36.592 31.428-56.691 6.223-15.979 11.469-32.584 15.322-49.393-.021 6.033.135 12.057.559 18.064.291 4.094 4.152 4.131 6.656 1.789 19.615-18.344 15.894-45.592 13.318-69.772zM409.206 205.173a295.772 295.772 0 0 1 6.748-3.17c.505.664 1.303 1.141 2.484 1.33.689.109 1.377.201 2.064.281-3.79.313-7.556.828-11.296 1.559zm125.21 16.119c-.5.182-1.029.52-1.557.965-.514-.082-1.025-.17-1.537-.254 1.104-.252 2.203-.514 3.303-.785-.07.023-.139.049-.209.074zm39.932 1.756c-.156.492-.289 1.209-.344 1.986-2.746.188-5.51.273-8.279.27 3.023-1.582 5.914-3.213 8.617-4.74l1.385-.406a11.264 11.264 0 0 0-1.379 2.89zm-3.287-46.44c1.289.141 2.578.293 3.867.451-1.273-.039-2.543-.07-3.816-.094a4.718 4.718 0 0 0-.051-.357zm-43.456-13.832c1.631-3.354 2.412-7.43-.266-8.414 15.697-1.479 31.459-.979 47.178 2.539 9.865 2.207 19.029 6.254 27.549 11.477-24.47-5.227-49.531-6.969-74.461-5.602zm88.213 54.498c-1.533.344-3.064.697-4.596 1.051 5.236-2.412 10.479-4.766 15.865-6.561 7.391-.316 15.305-.229 22.762 1.152l.271.318c-11.524-.667-23.116 1.531-34.302 4.04zm90.549 415.754c1.045-3.312 2.293-6.564 3.541-9.725 1-2.531 2.07-5.037 3.178-7.531a138.468 138.468 0 0 0 5.496-9.141c2.047-3.742 4.082-7.494 6.088-11.262-4.873 12.806-10.639 26.028-18.303 37.659zm23.83-244.642a589.02 589.02 0 0 0-1.598-13.01c.674 4.203 1.332 8.408 1.969 12.615-.125.129-.248.26-.371.395zm28.217 160.203c-.34-12.896.291-25.797 1.271-38.691a372.576 372.576 0 0 1 1.346 19.072c.307 6.933-.076 13.662-2.617 19.619z"/><path fill="#61E9FF" d="M751.176 931.851c-7.945-32.094-21.238-62.992-39.582-90.092a208.322 208.322 0 0 0-4.107-7.959c-.193-6.021-2.092-11.346-7.107-12.207-4.531-7.283-9.398-14.281-14.414-20.93-26.375-34.969-61.848-58.057-104.906-66.656-44.225-8.838-90.496-1.551-134.275 6.383-39.122 7.092-81.273 11.812-114.046 36.336-11.517 8.615-20.79 18.803-28.405 30.064-5.299 5.246-10.239 10.896-14.741 16.988a130.854 130.854 0 0 0-2.61 3.668c-9.37 11.451-18.396 23.209-27.766 34.488-5.982 7.203-10.883 22.182-4.24 30.475 1.979 2.473 4.264 3.518 6.636 3.621-1.185 8.574-1.82 17.244-1.983 25.922-1.828 3.27-2.797 7.031-2.129 9.963-2.981 5.301-3.906 12.26.413 15.184.913.619 1.833 1.225 2.753 1.828.817 3.664 3.133 4.455 5.754 3.674.397.244.797.486 1.193.729 1.492 3.061 4.213 5.078 8.653 5.059 10.652 5.955 21.704 11.172 33.031 15.77-.022.887-.017 1.779.054 2.688.608 8.02 5.814 12.971 13.864 11.209a168.411 168.411 0 0 0 14.267-3.803c19.068 5.998 38.593 10.629 58.023 14.426 42.929 8.395 87.559 12.467 131.25 13.689 53.453 1.494 137.811-4.166 178.064-47.223a565.87 565.87 0 0 0 37.092-15.105c6.744-3.027 11.084-10.846 9.264-18.189zm-46.547-18.682a91.992 91.992 0 0 0 5.979-9.578c.287 2.57.463 5.143.516 7.711-2.175.597-4.339 1.22-6.495 1.867zm-388.492 31.092c9.682-5.225 18.955-11.26 27.803-17.283 1.357-.924 2.693-1.877 4.041-2.816-8.783 7.111-17.1 14.705-24.742 22.959a206.704 206.704 0 0 1-7.102-2.86zM525.742 767.39c-9.896 4.445-19.549 9.477-29.01 14.809 3.845-4.34 6.829-9.363 8.415-14.918 6.873-.108 13.742-.094 20.595.109zm72.446 12.326c-10.588 6.578-21.332 12.896-32.117 19.139 3.873-7.113 7.166-14.594 9.719-22.506.299-.932.553-1.924.754-2.953 7.286 1.669 14.507 3.75 21.644 6.32zM286.575 896.075a238.91 238.91 0 0 0 5.873-2.844 192.47 192.47 0 0 0-7.611 10.205c.529-2.438 1.067-4.871 1.613-7.303.041-.021.084-.038.125-.058zm119.997-15.941c21.417-15.916 44.678-29.393 67.29-43.518 14.219-8.881 28.658-17.479 43.71-24.697a352.368 352.368 0 0 1-4.003 3.537c-9.266 8.041-16.636 13.291-27.703 20.865-11.709 8.014-23.771 15.508-35.887 22.891-25.08 15.279-52.066 29.801-77.104 46.662 11.237-8.576 22.358-17.312 33.697-25.74zm112.438-11.328c-15.504 10.5-31.441 20.312-47.47 29.98 20.618-15.545 41.902-28.986 64.359-41.762a685.248 685.248 0 0 1-16.889 11.782zm-60.972 89.254c-4.148 2.855-7.757 6.791-10.41 11.291-4.313-.281-8.625-.59-12.934-.934a5339.637 5339.637 0 0 0 23.344-10.357zm234.491-88.418a159.944 159.944 0 0 0 5.41-8.084 212.576 212.576 0 0 1 1.861 4.252 343.157 343.157 0 0 0-7.271 3.832zm-43.453-27.889a483.09 483.09 0 0 0 11.014-13.295c1.75-2.193 3.316-4.826 4.549-7.676a213.202 213.202 0 0 1 9.416 9.412 411.884 411.884 0 0 0-24.979 11.559zm-7.756-39.813c-7.232 4.842-14.059 10.201-20.73 15.762 4.605-6.76 8.805-13.793 12.52-21.125a194.11 194.11 0 0 1 8.21 5.363zM513.952 966.448a188.409 188.409 0 0 0-5.361 5.613c-1.131-.029-2.26-.064-3.389-.1a895.025 895.025 0 0 0 8.75-5.513z"/><path fill="#FFE5B8" d="M565.846 727.31a41.746 41.746 0 0 0-2.504-1.053c-1.264-4.277-3.053-8.549-5.381-12.824-5.457-10.027-19.584 1.691-23.271 6.674a40.66 40.66 0 0 0-2.127 3.186c-8.117.812-16.104 2.484-23.203 4.246-15.768 3.914-32.369 13.67-40.117 27.852a77.369 77.369 0 0 0-.689-.738c-1.442-1.525-2.658-3.236-3.795-4.994.74 1.084-1.031-2.1-1.176-2.441-.612-1.439-1.051-2.943-1.49-4.439a71.208 71.208 0 0 0-.189-.627 33.487 33.487 0 0 0-.153-1.254c-.243-1.756-.3-3.535-.363-5.307-.006-.203-.014-.387-.021-.555.055-.322.123-.893.207-1.826.192-2.078.564-4.139.933-6.191 1.546-8.672-3.284-19.66-13.701-16.494-11.115 3.377-44.666 34.488-46.548 45.041-3.229 18.1 2.863 55.518 14.126 70.633 9.308 12.49 52.824 46.662 67.808 48.031 14.317 1.309 85.988-13.818 98.886-19.777 1.994-.596 32.947-58.512 34.846-59.332 0 0-10.191-48.031-26.371-45.205 4.283-5.525-26.527 11.223-23.611 4.994 3.341-7.147 7.929-22.958-2.096-27.6z"/><path fill="#EAA286" d="M555.396 747.874c-15.984 8.848-34.492 12.295-52.638 11.689-18.096-.602-38.346-5.006-49.372-20.625-3.415-4.836-9.147 7.182-8.067 10.451 14.243 43.168 69.965 48.213 105.791 30.273 7.51-3.764 12.24-12.436 13.328-20.553.662-4.934-1.577-15.364-9.042-11.235z"/><path fill="#FF8A0B" d="M399.061 809.445c.215-.006.42.007.632.049l-.676-.176c.264.068.491.176.703.348l-.534-.439c.146.133.262.279.363.449l-.347-.646c.114.213.193.436.241.673l-.159-.801c.014.079.027.158.031.237.035.716.348 1.521 1.024 1.865.69.352 1.495.112 2.111-.268.854-.526 1.511-1.359 1.961-2.243.487-.956.631-1.853.663-2.905a4.239 4.239 0 0 0-.393-1.847c-.619-1.327-1.631-2.108-3.123-2.225-.844-.065-1.687.492-2.265 1.038-.8.756-1.39 1.753-1.719 2.8-.278.883-.404 1.906-.093 2.803.227.663.815 1.308 1.58 1.288z"/><path d="M414.033 414.97c-19.171 1.816-30.065 19.082-44.598 29.582-3.398.715-6.948.695-10.687-.395-3.09-.9-6.629 5.713-3.573 7.014 2.927 1.246 5.776 1.844 8.556 1.953.18 1.533 1.172 2.422 3.418 1.344a38.517 38.517 0 0 0 3.891-2.168c3.526-.912 6.93-2.494 10.215-4.441.618 1.129 1.762 1.877 3.209 1.311 7.287-2.848 14.346-6.363 21.785-8.779 12.328.553 25.045 8.627 34.164 16.578 3.197 2.785 5.934-3.193 5.984-5.676.2-9.445-.201-19.037-6.047-26.926-5.885-7.942-17.017-10.278-26.317-9.397zm244.676 27.759c-6.418-19.066-22.938-32.83-43.709-28.242-20.42 4.512-31.777 25.145-31.982 44.766-.045 4.365 5.295.066 5.49-2.527.025-.328.057-.652.088-.979.549-.02 1.148-.172 1.781-.473 6.238-2.986 12.102-6.711 18.096-10.172.836-.094 1.67-.191 2.506-.273 4.879-.49 11.047-1.381 16.994-1.293 4.93.844 9.795 2.166 14.473 3.689 2.123.691 4.25-.809 5.561-2.916 1.252 1.734 2.328 3.604 3.258 5.463 2.714 5.438 8.721-3.248 7.444-7.043z" fill="#EAA286"/><path d="M432.113 456.94a34.231 34.231 0 0 0-1.113-1.367c-4.426-6.689-11.725-11.309-20.14-12.1-5.086-1.096-10.365-.986-15.33.711-4.049 1.383-8.049 3.947-10.579 7.438-11.308 8.217-13.41 24.096-4.562 35.965 11.08 14.855 31.719 15.693 46.144 5.545 12.454-8.76 14.753-24.238 5.58-36.192zm-50.329 7.454a26.964 26.964 0 0 0-.539 3.152c.023-1.131.218-2.172.539-3.152z"/><circle fill="#FFF" cx="412.878" cy="463.915" r="10.817"/><path d="M447.997 456.195c-16.513-13.966-35.887-23.961-56.938-14.172-6.012 2.795-11.538 6.81-17.869 8.877-2.782.908-5.587 1.019-8.453.449-4.146-.825-6.764-4.198-10.372-5.942-3.627-1.754-6.377 5.255-4.816 7.794 3.784 6.15 12.521 8.629 19.24 7.419 6.529-1.177 12.352-5.524 17.959-8.805 6.878-4.025 14.137-6.965 22.237-6.677 13.312.473 25.413 8.888 35.361 16.967 2.012 1.632 5.566-4.29 3.651-5.91zM345.24 418.771c4.278-6.276 12.086-10.83 19.628-14.629 9.939-5.007 21.331-8.127 32.337-9.565 12.139-1.586 24.809-1.112 36.588 2.378a80.148 80.148 0 0 1 16.758 7.136c5.823 3.306 10.712 7.9 16.235 11.628 2.677 1.808 6.363-1.623 7.762-3.512 2.431-3.285 3.853-7.972 1.627-11.683-7.382-12.308-22.61-19.01-36.015-22.266-13.551-3.292-27.846-2.725-41.499-.422-22.574 3.807-48.195 14.731-60.17 35.365-1.181 2.035-1.899 5.564-.282 7.584 2.068 2.583 5.693-.051 7.031-2.014z"/><path d="M362.574 442.419c8.474 13.081 30.202 8.387 42.875 6.093 2.529-.458 5.149-7.599 1.663-7.438-11.752.542-31.441 6.419-39.755-5.112-2.175-3.017-6.495 3.815-4.783 6.457z"/><path fill="#FFBF1F" d="M510.792 96.001c-9.601-9.465-18.16-15.15-31.402-17.65-8.898-1.68-18.51-.207-27.496-.189-11.776.027-21.586 8.434-28.231 17.414-7.694 10.395-13.925 25.359-12.306 38.941-3.718-.09-7.249.377-11.401 1.035-5.677.904-11.204 4.195-15.944 7.4-7.203 4.871-13.896 10.643-20.586 16.199-6.383 5.303-11.518 13.135-14.812 21.639-5.684 1.297-11.397 2.494-16.94 4.166-7.513 2.266-15.236 5.453-21.604 10.055-11.994 8.67-21.15 19.438-25.729 33.973a32.23 32.23 0 0 0-1.434 4.668c-.069.16-.142.318-.212.479a84.99 84.99 0 0 0-7.601-2.023c-6.577-1.445-12.716 1.434-18.403 4.316-12.49 6.336-20.414 21.734-26.098 33.916-3.307 7.082-6.233 14.396-9.132 21.641-2.552 6.379-3.726 15.771-1.765 23.695l-.377 1.379a172.305 172.305 0 0 0-6.17 4.342c-17.238 12.688-33.033 28.043-35.959 50.67-.758 5.85-.256 12.461-.236 18.402l.124 37.846c.007 2.102.015 4.201.02 6.301a192.594 192.594 0 0 0-4.702 7.875c-8.035 14.123-10.697 30.475-10.869 46.471-.125 11.66 4.18 22.17 10.738 31.609a94.17 94.17 0 0 0 2.873 3.875 227.49 227.49 0 0 1-.637 1.588c-1.282 3.145-2.438 6.338-3.597 9.529a62.268 62.268 0 0 0-1.897 2.523c-8.23 11.639-14.824 28.135-9.865 42.447 4.123 11.902 15.102 12.941 24.506 8.744-4.497 15.938-7.057 31.777-7.438 48.355-.302 13.145 2.68 26.584 10.283 37.469 1.443 2.068 3.16 3.898 5.062 5.508a108.366 108.366 0 0 0-2.609 11.641c-2.05 12.291-.228 28.98 9.941 37.641 14.662 12.49 34.086 16.541 49.699 27.729 3.592 3.496 6.584 7.531 10.373 10.818 3.901 3.381 7.356 6.287 12.146 8.098 6.164 2.33 12.896 3.629 19.41 4.617 26.584 4.033 53.842-8.379 77.81-18.518 15.231-6.441 25.566-19.492 30.521-35.211 4.016-12.744 4.551-28.578-7.605-36.875a314.706 314.706 0 0 1-7.357-5.174l1.814 1.494c-6.686-5.33-13.817-10.109-20.562-15.393-19.461-16.635-36.264-36.186-48.916-58.475-7.016-13.84-12.426-28.512-15.881-43.641-1.597-9.375-2.534-18.805-2.571-28.309.366-6.146.921-12.277 1.34-18.422.884-12.969.823-23.879-1.812-36.467-2.035-9.73-7.965-16.695-15.631-21.021 19.479-8.531 34.904-26.271 44.037-44.938 8.531-17.434 12.604-36.555 12.654-55.775 5.281-1.512 10.446-3.562 15.728-6.084 12.28-5.863 21.798-15.619 30.427-25.879 10.129-12.039 17.42-28.066 20.195-44.602.945-.217 1.91-.514 2.9-.92 10.546-4.342 17.576-8.838 26.529-15.799 9.188-7.148 15.436-17.428 21.343-27.211 7.029-11.641 10.513-24.934 12.126-38.416a190.03 190.03 0 0 0 8.173-39.742c10.917.471 22.018-9.85 27.748-17.592 6.219-8.402 10.603-18.521 11.947-28.922.889-6.875.817-17.838-4.68-23.26zM234.611 612.272c-.091-.248-.173-.5-.255-.75.551-.463 1.09-.939 1.621-1.424.211 1.17.426 2.338.65 3.506a23.688 23.688 0 0 1-1.572-.76c-.154-.185-.297-.382-.444-.572zm-64.855-73.638c-.197.523-.389 1.049-.589 1.572-2.694 6.584-2.498 6.055.589-1.572zM241.75 679.97l-.034.162c-3.673 5.863-3.664 5.812.034-.162zm1.083-1.567c.043-.084.082-.172.126-.256l-.128.205a1.073 1.073 0 0 0-.005-.08c.092-.139.18-.279.27-.42-.042 1.93-.216 1.631-.263.551zm5.197-7.855a81.346 81.346 0 0 0 4.975-8.387 359.963 359.963 0 0 0 4.738 8.934 183.84 183.84 0 0 0 2.734 4.799c-4.193-1.702-8.434-3.36-12.447-5.346z"/><path fill="#FFEE73" d="M463.364 214.407c-1.591-10.611-13.729.855-12.636 7.793 5.064 32.115-23.28 63.186-56.171 56.148-5.104-1.092-8.712 7.826-8.43 11.545 2.15 28.348-15.601 61.434-43.654 69.992-.997-2.818-4.334-3.613-7.108-1.902-1.572.971-2.835 2.287-3.804 3.801-12.324.447-29.642-3.963-32.113-16.781-1.1-5.713.859-10.133 3.913-14.42 4.551-6.387 11.349-10.787 18.351-14.057 3.388-1.582 8.469-11.707 3.166-13.887-9.191-3.773-18.731-10.082-19.51-20.438-.268-3.539.939-7.506 2.307-10.512 2.419-5.318 5.285-9.219 9.234-13.965 7.733-9.299 17.615-16.992 27.851-23.332 8.606-5.332 18.593-10.574 28.785-12.131 2.428 1.967 5.788-1.057 7.644-4.885.246-.484.455-.988.631-1.502.879-2.432 1.074-4.965.014-6.627-4.52-7.092-7.995-15.141-7.426-23.713.508-7.646 4.191-14.387 8.68-20.416 10.052-13.504 24.773-23.477 38.997-32.104 3.062-1.857 5.138-5.994 4.867-9.555-.204-2.682-2.062-4.068-4.252-3.6-.749-.705-1.771-.977-3.097-.373-18.74 8.537-34.758 21.332-50.057 34.934-12.977 11.537-25.065 23.574-40.064 32.479-11.994 7.121-24.753 13.686-34.455 23.938-9.816 10.373-15.363 23.23-19.021 36.736-17.757-.279-33.729 7.975-42.126 24.654-7.275 14.447-6.389 30.795-.568 45.316-16.775 6.166-32.932 13.924-44.99 27.604-7.268 8.246-12.729 20.592-12.313 31.711.364 9.742 8.214 17.504 14.442 24.133 2.264 2.41 5.156 5.166 6.367 8.133-.097.744-.161 1.486-.25 2.301.043-.391-.252.34-.355.68-.373.49-1.332 1.873-1.632 2.24-2.703 3.291-6.618 5.99-9.821 8.834-4.492 3.986-8.635 8.518-11.573 13.787-11.218 20.109-10.926 46.658-10.341 68.957.254 9.652.93 19.289 1.677 28.918-5.292 10.135-8.876 20.969-9.104 32.658-.262 13.48 7.439 23.975 19.102 29.221-2.445 7.396-4.688 14.826-6.332 22.479-1.088 5.051-1.625 10.207-1.463 15.375.188 6.027 3.158 11.592 6.376 16.547 4.99 7.686 13.269 11.217 20.319 16.529 5.983 4.51 8.609 12.182 9.811 18.836 2.512 13.928 1.596 29.014 7.672 42.102 7.42 15.98 23.996 19.328 40.079 18.238 8.585 26.244 39.481 28.449 63.333 25.068 14.963-2.119 29.57-6.297 43.668-11.688 11.998-4.588 24.086-10.025 34.686-17.357 4.287-2.965 9.382-12.113 3.68-16.137-27.332-19.289-51.062-43.191-68.857-71.602-17.491-27.922-27.865-59.928-32.018-92.512-.43-3.379-2.216-5.074-5.619-4.545-41.975 6.541-83.385-33.293-76.001-75.602 1.659-9.504 6.772-20.867 14.644-26.789 6.866-5.166 15.256-4.637 23.307-3.375 8.871 1.391 17.545 3.668 26.604 3.062 9.942-.664 19.666-4.961 27.393-11.148 12.148-9.729 20.536-24.109 26.557-38.24 4.243-9.957 7.647-20.422 9.312-31.143 32.044-9.547 53.383-48.033 56.231-79.6 39.765 2.129 71.101-43.192 65.461-80.811z"/><path fill="#EAA286" d="M735.703 467.628c-.01-3.477-3.182-4.809-5.936-3.326a4.521 4.521 0 0 0-1.387-1.082 159.414 159.414 0 0 1-12.537-7.062c-7.693-17.385-19.102-33.693-29.902-48.992-12.334-17.467-25.635-34.23-37.699-51.893a295.096 295.096 0 0 1-3.965-5.967c-9.57-29.871-17.58-60.232-32.695-88.018a185.382 185.382 0 0 0-3.555-6.197c-1.668-2.795-5.699-.648-7.301.867-.922.869-1.791 1.975-2.496 3.203-.391-1.775-.787-3.527-1.232-5.213-1.004-3.799-5.727 1.826-5.395 4.189 10.84 77.014 26.592 167.551 101.072 209.064 4.434 2.473 9.01 4.68 13.68 6.662 3.152 7.979 5.525 16.273 6.744 25.074 5.971 43.086-8.17 88.354-28.76 125.805a204.881 204.881 0 0 1-5.605 9.564c-19.051 25.402-43.393 46.82-71.135 62.287-37.182 20.729-80.441 29.006-122.624 23.35-13.269-1.779-26.406-4.859-39.024-9.295-17.445-7.359-33.875-17.182-48.723-28.918-9.46-7.477-18.197-15.83-26.152-24.879-17.6-23.504-28.633-51.51-35.763-79.898-9.144-36.41-11.882-74.312-12.327-111.744-.088-7.51-.066-15.018.05-22.525-8.204 4.602-17.007 7.963-26.14 9.584-1.062 20.432-.544 40.936 1.623 61.254 4.987 46.729 18.338 94.674 44.495 134.148 40.78 61.543 113.767 100.27 187.977 94.045 38.615-3.238 74.598-18.723 104.879-42.639 22.857-18.055 41.252-40.547 55.652-65.502 13.012-18.967 23.418-39.719 31.188-61.35 5.543-15.432 9.799-31.916 12.307-48.119 2.887-18.649.749-37.721.686-56.477zm-12.234 11.408c.289-.094.574-.209.855-.344.027 1.619.064 3.242.109 4.861a132.4 132.4 0 0 0-.964-4.517z"/><path fill="#FFBF1F" d="M859.766 416.235c5.971-13.959 8.174-29.34 5.02-44.441-2.979-14.264-13.797-24.875-25.111-33.082-10.449-7.578-22.758-12.596-35.055-16.283-3.73-1.119-7.523-2.184-11.357-3.125 5.164-18.344 4.496-37.65-6.947-54.117-9.244-13.301-24.668-20.926-40.869-24.834-3.691-5.111-7.287-10.268-10.619-15.547-.131-.338-.244-.688-.361-1.031-.006-.074-.014-.148-.018-.221-.008-.07-.008-.141-.014-.209.123-1.119.271-2.238.443-3.352.938-6.096 2.719-12.09 2.953-18.281.496-13.154-1.258-24.443-12.162-32.895-5.717-4.432-13.822-5.871-21.463-6.365-4.467-9.656-10.043-18.885-17.195-26.701-8.18-8.936-18.439-16.111-29.242-21.504-10.109-5.049-20.871-8.723-31.436-12.674-9.91-3.705-20.564-7.105-29.23-13.348-12.543-11.639-22.355-28.609-39.547-33.607-35.854-10.422-64.515 19.098-75.982 50.389-5.824 15.895-5.846 34.795-.07 51.277-4.342 8.221-8.125 16.699-11.17 25.686-4.838 14.271-7.898 31.83-2.297 46.312 3.907 10.096 8.779 20.514 15.645 28.951 3.953 4.859 9.46 9.939 15.619 11.701 3.595 1.027 7.105 2.203 10.854 1.828 7.205-.721 10.806-1.99 17.265-5.102.59 1.061 1.182 2.123 1.775 3.184 3.574 4.385 8.188 6.734 13.838 7.049 2.453 0 4.824-.283 7.123-.82a62.858 62.858 0 0 0 6.705 4.264c6.58 3.605 14.248 5.451 21.701 5.834 2.768.141 5.545-.01 8.303-.236.076-.006.16-.012.238-.02 1.473 7.084 4.283 13.809 8.961 18.521 3.037 4.881 6.305 8.596 11.381 12.684 5.16 4.158 10.734 5.92 17.09 7.561 6.012 1.551 12.084 1.656 18.068.818.012 15.242 3.033 30.408 9.975 44.1 6.174 12.178 13.691 21.592 24.875 29.586 5.654 4.041 12.293 6.854 19.195 8.6a95.498 95.498 0 0 0-.418 8.439c-.059 10.436 3.537 19.775 8.514 28.688 7.395 13.246 22.527 22.156 36.635 26.527 17.408 5.391 34.715 6.295 52.576 2.879-3.055 14.088-4.084 28.635-3.58 43.082.234 6.631.818 13.244 1.043 19.877.039 1.135.045 2.273.049 3.41-.164 1.555-.572 3.9-.867 5.59-.516.805-1.055 1.613-1.477 2.174-.33.441-.84 1.061-1.363 1.682a137.868 137.868 0 0 1-2.963 2.961c-1.768 1.713-3.623 3.336-5.488 4.943a129.099 129.099 0 0 1-3.084 2.551l-.568.424a57.04 57.04 0 0 0-3.449 2.799 77.648 77.648 0 0 1-4.725-4.822c-5.344-5.965-12.996-5.1-19.332-1.193-10.102 6.23-18.076 19.225-19.041 31.082a115.115 115.115 0 0 1-1.314 10.266c-.082.465-.174.926-.262 1.389-.371 1.453-.762 2.9-1.172 4.344-1.049 3.682-2.307 7.293-3.602 10.893-.283.783-.805 2.123-1.248 3.254-.402.912-.812 1.826-1.225 2.734-1.705 3.75-3.566 7.426-5.496 11.066a217.305 217.305 0 0 1-3.395 6.117c-.33.578-.9 1.529-1.461 2.453-4.488 7.01-9.393 13.746-14.41 20.381-2.643 3.496-5.41 6.896-8.234 10.244-.143.168-.289.334-.432.502-.205.232-.4.447-.557.621a237.425 237.425 0 0 1-5.016 5.316c-5.695 5.883-11.809 11.361-18.176 16.508-.844.643-2.098 1.604-2.656 2.012a172.981 172.981 0 0 1-5.682 3.941c-3.74 2.508-7.613 4.814-11.559 6.984-3.898 2.145-7.689 4.436-11.686 6.418l-.221.105c-.756.328-1.514.65-2.275.969-1.98.828-3.996 1.566-6.02 2.279-11.17 3.928-18.602 16.217-20.066 27.547-.609 4.701-.264 10.256 2.844 14.137 3.109 3.881 6.996 3.732 11.41 3.029 10.982-1.744 21.447-5.283 31.393-10.096.768 5.209 3.086 9.928 7.947 12.744 21.135 12.246 49.127 23.738 73.494 14.227 17.389-6.787 30.092-20.602 38.529-36.994 4.252-8.26 7.09-16.945 8.941-25.854.699-.314 1.398-.643 2.1-.965 25.246-11.645 44.838-37.691 48.518-65.293a55.61 55.61 0 0 0 .482-7.65c14.281-14.336 24.617-33.217 30.049-52.578 7.705-27.463 7.312-59.928-6.59-85.439 6.434-11.406 10.889-24.018 13.598-37.484 3.098-15.401 3.176-35.951-5.894-49.77zm-36.174-12.355c.023-.041.049-.08.072-.121.049-.045.018.004-.072.121zm-8.481 83.719c-.439.339-.556.422 0 0zm-78.918 211.656c.008-.021.02-.047.027-.07-.033.131-.068.26-.102.389l.075-.319zm85.112-292.711l-.061.062.057-.07.004.008zm.804-.877l-.008.006v-.094l.01-.01c-.002.032-.002.065-.002.098zM548.195 133.093c-.059-.004-.117-.016-.176-.02 1.354-.646 1.108-.386.176.02zm266.838 266.926c.176-.318.359-.635.527-.955 2.02 2.078 3.854 4.32 5.438 6.756.1.232.199.465.295.697-.049.062-.098.127-.148.189-1.398 1.465-2.875 2.854-4.316 4.277-.168.166-.365.35-.576.537-.625.402-1.258.793-1.896 1.172-.5.297-1.271.697-1.992 1.062a61.544 61.544 0 0 1-6.703 2.184c3.684-4.386 7.088-9.968 9.371-15.919zm-.271 12.753c-1.252 1.006-2.071 1.575 0 0zm7.349-7.306c-.002.004-.004.008-.008.012.004-.567.014-.469.008-.012zm-87.836-180.557c.014-.193.043-.387.059-.58.016.027.031.057.045.084-.006 5.43-.244 2.496-.104.496zm.104-.865c0 .018 0 .037.002.053l-.02-.029.008-.082a.54.54 0 0 1 .01.058zm-.191-1.07c-.5-1.635-.819-4.459 0 0zm-46.717 447.849c1.939-2.238 1.058-1.207 0 0z"/><path d="M605.662 494.544c14.424 10.15 35.062 9.311 46.143-5.545 8.852-11.869 6.746-27.748-4.561-35.965-2.529-3.49-6.531-6.055-10.578-7.438-4.967-1.697-10.244-1.807-15.332-.709-8.414.789-15.713 5.408-20.139 12.098-.383.449-.758.902-1.113 1.367-9.172 11.956-6.875 27.432 5.58 36.192zm45.287-25.588a27.075 27.075 0 0 0-.539-3.15c.32.98.518 2.021.539 3.15z"/><circle fill="#FFF" cx="619.317" cy="465.327" r="10.817"/><path d="M587.094 462.802c9.848-8.047 21.502-15.812 34.636-16.282 7.979-.285 15.251 3.056 21.977 6.998 5.696 3.339 11.104 7.226 17.67 8.631 7.473 1.6 16.055-2.932 20.437-8.848 1.537-2.076 2.152-8.694-2.162-6.178-3.309 1.93-5.734 4.566-9.549 5.622-2.678.741-5.695.438-8.326-.346-6.5-1.936-12.22-6.082-18.312-8.957-21.294-10.045-41.387.495-58.057 14.508-2.355 1.979-1.905 7.785 1.686 4.852zm101.24-51.822c-10.985-19.683-37.001-28.611-57.814-32.151-27.445-4.667-61.619 1.303-78.522 25.666-1.972 2.842-3.594 6.786-2.387 10.271 1.48 4.274 5.653 2.528 8.203.531 9.97-7.808 19.135-14.001 31.515-17.417 12.025-3.317 24.65-3.291 36.929-1.569 11.438 1.604 22.634 5.127 32.968 10.27 7.756 3.859 15.692 8.421 20.797 15.621 1.965 2.771 5.723-.25 7.03-2.016 1.965-2.657 2.953-6.209 1.281-9.206z"/><path d="M665.574 438.534c-3.743 5.287-11.436 5.591-17.321 5.584-6.965-.008-13.853-1.326-20.8-1.632-3.09-.136-6.113 6.829-2.371 7.534 13.646 2.573 34.725 6.417 43.801-7.349 2.273-3.448-.103-8.664-3.309-4.137zM392.566 751.389c-1.935 40.774 9.34 84.623 41.554 111.925 33.661 28.528 84.624 31.399 123.599 12.481 48.063-23.33 68.704-84.397 56.077-134.445-.798-3.162-4.358-3.187-6.636-1.782-3.563 2.197-6.337 7.24-5.849 11.479 2.456 21.31 3.683 41.66-3.245 62.34-5.485 16.374-16.296 30.861-31.363 40.928-35.062 23.425-87.077 21.391-120.609-3.657-31.801-23.755-43.543-66.27-42.594-104.302.063-2.523-2.123-4.441-4.573-3.698-3.354 1.017-6.198 5.312-6.361 8.731z"/><ellipse fill="#FFAD9F" cx="667.229" cy="533.261" rx="26.836" ry="25.805"/><ellipse fill="#FFAD9F" cx="363.552" cy="534.675" rx="26.836" ry="25.803"/><path fill="#EAA286" d="M299.243 469.747c-11.162-10.621-27.983-24.707-44.73-18-18.816 7.537-28.8 28.68-30.457 47.928-2.027 23.582 7.664 70.047 41.093 60.684 13.712-3.842 24.661-16.299 32.581-27.41 5.5-7.713 11.189-21.795 4.242-30.473-6.916-8.633-18.725.297-23.271 6.676a104.963 104.963 0 0 1-4.248 5.574c-2.693 3.285 3.882-4.254 1.104-1.264-.646.697-1.333 1.359-2.018 2.021a45.452 45.452 0 0 1-1.979 1.771c-2.69 2.316 4.38-3.242 1.601-1.256-1.176.842-2.436 1.555-3.728 2.199 5.984-2.984 1.973-.951.147-.508-2.535.615 4.443-.467 1.898-.225-.543.053-1.086.043-1.631.033-1.594-.031-5.311-1.23.178.363-1.178-.342-2.285-.896-3.342-1.51-3.414-1.979.327.504-.025.188-.865-.77-1.636-1.641-2.377-2.525-.787-.936-1.481-1.947-2.15-2.969-.347-.533-.666-1.084-.985-1.633-1.312-2.256 2.14 4.242.474.775-1.197-2.49-2.117-5.109-2.909-7.756a61.422 61.422 0 0 1-1.063-4.162c-.682-3.023.908 4.83.359 1.777a70.445 70.445 0 0 1-.435-2.869c-.384-2.85-.54-5.723-.54-8.592-.002-3.246-.238 5.703-.086 2.488.033-.689.092-1.375.151-2.061.114-1.332.307-2.654.532-3.973.762-4.465-1.773 6.607-.25 1.361.172-.584.372-1.158.575-1.729 1.107-3.143-2.853 6.666-1.501 3.662 2.276-5.072-2.207 3.191-1.389 1.99 2.816-4.145-4.77 4.537-1.086 1.291-5.227 4.602-4.117 3.068-2.559 2.055 1.248-.809 3.744-1.742-2.49 1.045.949-.424 1.963-.672 2.979-.859-5.854 1.086-2.029.305-.197.441.622.047 1.238.152 1.852.26 2.375.412-4.139-1.291-.492-.104 3.223 1.051 6.214 2.77 9.05 4.596 1.78 1.146 3.47 2.428 5.136 3.732-3.079-2.41.145.146.629.57 1.317 1.145 2.583 2.34 3.846 3.541 7.962 7.576 17.896.59 23.271-6.674 4.912-6.633 12.011-23.074 4.24-30.469z"/><path d="M292.801 465.237c-15.943-10.479-38.184-19.902-55.57-7.088-14.045 10.348-17.844 30.334-16.832 46.684 1.078 17.447 8.104 36.334 21.895 47.664 15.276 12.551 38.794 11.371 52.623-2.918 1.158-1.197 5.082-10.459.456-9.688-8.455 1.414-15.585 6.219-24.388 6.723-7.154.41-13.905-1.889-19.847-5.756-12.392-8.072-19.399-23.83-21.699-37.953-1.896-11.65-1.593-27.072 8.304-35.268 14.508-12.016 37.258-1.68 51.336 5.586 2.892 1.491 6.461-6.183 3.722-7.986z"/><path d="M248.201 507.558c5.838-7.182 13.66-12.668 23.187-12.791 10.505-.131 12.832 9.186 16.811 16.809 1.815 3.48 5.82-4.219 5.969-5.506 1.335-11.713-4.567-23.379-17.551-23.609-12.721-.227-24.159 10.527-30.875 20.205-1.755 2.532-.892 9.011 2.459 4.892z"/><path d="M294.578 501.636c-7.571-.312-17.067-.389-22.424 5.949-5.299 6.268-4.255 15.756.29 22.158 1.947 2.746 5.137-4.068 4.554-5.896-.83-2.605-4.7-9.453-1.907-11.869 4.449-3.844 12.152-3.947 17.665-4.24 2.209-.12 4.549-5.991 1.822-6.102zm472.608-41.496c-.244-3.234-3.039-4.75-5.822-2.969-14.641 9.373-30.846 12.59-46.135 2.604-14.148-9.244-19.354-27.479-15.285-43.35.488-1.912 1.221-6.287-1.486-7.197-30.686-10.318-56.859-39.447-51.553-72.734a39.934 39.934 0 0 0 3.932-1.023c4.414-1.398 8.52-12.848 1.531-11.783a46.239 46.239 0 0 1-4.219.438c-.451-.738-1.176-1.25-2.295-1.303-1.264-.059-2.432.475-3.438 1.309-28.92-1.533-62.119-26.25-53.348-57.342.609-2.158.877-6.418-2.393-6.57-.164-.008-.328 0-.488.012.01-.316.016-.633-.006-.939-.234-3.078-3.18-5.107-5.932-3.021-8.916 6.77-18.814 11.664-30.146 12.184-10.795.492-21.137-3.137-30.6-8.006-17.875-9.195-33.152-23.041-48.085-36.486l-.156-.334a42.776 42.776 0 0 0-1.621-5.424 17.107 17.107 0 0 1-.057-4.725c1.178-8.949 12.65-13.518 19.875-16.119 4.017-1.447 7.84-12.486 1.614-11.184.196-1.455 0-2.816-.772-3.805-4.305-5.502-9.582-12.795-8.465-20.215.773-5.133 11.658-6.98 15.443-7.695 4.897-.922 8.398-13.15 1.557-11.971-11.579 1.996-21.557 7.648-25.703 19.127-3.615 10 1.004 20.422 6.821 28.689-9.025 4.719-16.349 12.379-19.394 22.43a30.973 30.973 0 0 0-.463 1.748c-2.428 2.668-3.604 6.367-2.804 9.9 2.042 9.023 3.569 17.801 1.255 26.955-2.033 8.041-6.402 15.184-12.199 21.061-13.586 13.773-33.543 18.512-52.066 13.721-2.207-.57-4.889 2.207-5.988 3.693-2.02 2.729-3.236 6.396-2.266 9.75 4.316 14.939 2.799 30.701-6.408 43.484-9.331 12.955-25.115 20.365-40.653 22.439-4.647.619-8.589 6.131-7.919 10.846 2.088 14.699 2.273 30.062-1.996 44.41-4.525 15.207-15.594 25.027-30.977 28.613-4.979 1.16-8.709 13.766-1.615 12.412 38.867-7.418 47.965-48.342 46.463-82.748 35.221-7.332 59.608-39.955 57.211-75.27 19.485 1.16 38.357-6.764 52.17-21.344 8.946-9.447 16.274-22.807 19.006-36.637a55.479 55.479 0 0 0 3.867 3.463c1.212.986 2.69.607 4.064-.49 10.712 10.531 22.33 20.086 35.752 26.926 10.183 5.191 21.669 8.268 33.136 7.541 11.643-.738 22.008-5.664 31.109-12.576-3.826 18.863 3.021 37.023 17.656 49.934 10.742 9.477 25.588 16.574 40.285 16.822-3.129 17.289-.127 34.512 8.982 50.02 9.381 15.969 25.193 28.062 42.375 34.701-3.264 19.051 1.592 38.432 17.562 50.869 17.293 13.467 41.871 9.5 57.553-4.318 2.274-2.002 3.762-5.5 3.534-8.523z"/><path fill="#EAA286" d="M742.223 476.339c11.162-10.621 27.984-24.707 44.73-18 18.816 7.537 28.799 28.68 30.457 47.928 2.027 23.58-7.664 70.047-41.094 60.684-13.713-3.842-24.66-16.299-32.58-27.41-5.502-7.715-11.191-21.795-4.242-30.473 6.916-8.633 18.725.297 23.27 6.676a106.92 106.92 0 0 0 4.25 5.574c2.693 3.285-3.883-4.254-1.105-1.266.648.699 1.334 1.361 2.018 2.023a45.477 45.477 0 0 0 1.98 1.771c2.689 2.316-4.379-3.242-1.6-1.256 1.174.842 2.434 1.555 3.727 2.199-5.984-2.984-1.973-.953-.146-.51 2.535.617-4.443-.465-1.898-.223.541.051 1.086.043 1.631.033 1.592-.031 5.309-1.232-.178.363 1.178-.342 2.283-.896 3.34-1.512 3.416-1.977-.326.506.025.188.865-.768 1.637-1.639 2.377-2.525.787-.934 1.482-1.945 2.15-2.967.348-.533.666-1.084.986-1.633 1.312-2.256-2.141 4.242-.473.775 1.195-2.49 2.117-5.107 2.908-7.756a62.34 62.34 0 0 0 1.064-4.162c.682-3.023-.908 4.832-.359 1.775.17-.953.305-1.91.436-2.867.383-2.85.539-5.723.539-8.592 0-3.246.238 5.701.084 2.488-.031-.689-.092-1.375-.15-2.061a47.277 47.277 0 0 0-.533-3.975c-.762-4.465 1.775 6.611.25 1.363a34.974 34.974 0 0 0-.572-1.729c-1.109-3.143 2.852 6.666 1.5 3.66-2.277-5.07 2.205 3.193 1.389 1.992-2.816-4.145 4.768 4.537 1.084 1.291 5.227 4.604 4.117 3.068 2.559 2.053-1.246-.807-3.742-1.74 2.492 1.047-.949-.424-1.963-.672-2.979-.859 5.854 1.086 2.029.305.197.441-.623.045-1.238.152-1.852.26-2.377.412 4.137-1.291.492-.104-3.225 1.051-6.215 2.771-9.049 4.596-1.781 1.146-3.471 2.428-5.139 3.732 3.082-2.408-.143.146-.629.57-1.316 1.145-2.582 2.34-3.846 3.541-7.961 7.576-17.896.59-23.271-6.674-4.914-6.633-12.014-23.075-4.24-30.469z"/><path d="M748.662 471.829c15.943-10.479 38.184-19.904 55.57-7.088 14.047 10.348 17.844 30.334 16.834 46.68-1.078 17.451-8.105 36.338-21.896 47.668-15.273 12.551-38.793 11.371-52.621-2.916-1.16-1.199-5.082-10.461-.457-9.689 8.455 1.414 15.584 6.219 24.387 6.723 7.156.408 13.908-1.889 19.848-5.756 12.393-8.072 19.398-23.83 21.699-37.953 1.896-11.65 1.594-27.072-8.305-35.268-14.506-12.016-37.256-1.682-51.334 5.584-2.895 1.492-6.461-6.182-3.725-7.985z"/><path d="M793.264 514.149c-5.838-7.182-13.658-12.668-23.186-12.791-10.506-.131-12.832 9.186-16.812 16.809-1.814 3.48-5.82-4.219-5.967-5.506-1.336-11.713 4.566-23.379 17.551-23.609 12.721-.227 24.158 10.527 30.875 20.207 1.752 2.531.89 9.01-2.461 4.89z"/><path d="M746.887 508.228c7.572-.312 17.066-.389 22.424 5.949 5.301 6.268 4.256 15.756-.289 22.158-1.947 2.746-5.137-4.068-4.555-5.896.83-2.605 4.699-9.453 1.908-11.869-4.449-3.844-12.154-3.947-17.666-4.24-2.211-.12-4.549-5.993-1.822-6.102z"/><path d="M735.205 448.749c1.494 55.422-6.109 114.244-25.35 159.43-27.305 64.127-80.023 111.057-144.916 125.844-72.921 16.617-153.05-4.652-204.978-62.924-52.494-58.906-65.555-141.928-58.854-220.229-3.361-2.033-6.793-3.854-10.361-5.287a548.845 548.845 0 0 0-2.842 28.469c-5.68 77.947 10.559 159.191 61.628 217.834 50.929 58.486 129.44 80.711 202.168 67.982 67.568-11.83 123.713-57.822 157.416-120.543 27.59-51.348 40.787-120.121 39.119-185.232-4.333-1.815-8.659-3.647-13.03-5.344z"/><g fill="#FFEE73"><path d="M877.096 474.456c1.223-8.605.336-17.332-1.789-25.711-1.855-7.318-5.631-16.559-11.432-21.611-2.16-1.885-4.361-2.215-6.402-1.541a56.637 56.637 0 0 0-1.547-2.467c-2.674-4-6.072-7.236-9.928-9.713 4.182-10.104 7.166-20.469 7.842-31.078 1.553-6.531 1.793-13.26.363-20.193-1.791-8.678-7.836-16.275-14.119-22.215-9.627-9.105-21.375-15.811-32.416-23.074 1.633-9.27 1.592-18.744-1.725-27.756-.15-.406-.32-.803-.486-1.203.379-2.619.592-5.283.602-7.994.041-13.236-8.512-23.734-20.436-28.506-4.777-1.912-9.072 1.295-11.709 5.922a59.448 59.448 0 0 0-5.551-5.08c-3.775-4.699-8.385-8.656-13.998-11.328-3.418-1.625-7.021-2.605-10.693-3.059.186-.488.354-.971.482-1.432 2.426-8.67 3.129-18.104 1.619-27.064-.994-8.264-3.557-16.252-8.354-23.297-8.551-12.553-24.904-17.047-39.318-15.346-2.781.328-5.152 1.57-7.09 3.354a193.425 193.425 0 0 0-5.426-34.439 72.865 72.865 0 0 0-3.473-12.055c-2.154-5.605-8.035-4.088-11.568-.75-1.234 1.166-2.371 2.6-3.32 4.182-2.295-2.771-4.859-5.316-7.736-7.541-12.195-9.436-25.92-7.551-37.812-.826-.855-18.209-8.721-35.424-22.939-47.787-18.338-15.941-42.447-23.018-66.535-20.58-5.35.541-8.992 5.26-10.531 10.143-1.035 3.283-1.41 10.895 3.936 10.812 4.779-.072 9.566.27 14.307.977 18.869-6.326 39.506 4.506 51.992 18.492 12.77 14.305 21.727 33.16 21.264 52.576 5.475-4.324 11.777-7.416 18.996-7.547 10.412-.188 19.533 4.928 26.982 11.846 8.584 7.979 15.195 17.707 20.494 28.113 4.832 9.49 9.912 20.441 9.367 31.334-.111 2.205-5.459 10.566-8.105 6.988-.803 2.496-1.029 5.156-.197 7.553 1.838 5.303 7.25 3.381 10.418.674.516-.422.814-.67.893-.748a34.883 34.883 0 0 1 2.006-1.312c.492-.291.996-.561 1.51-.814.119-.031.311-.094.604-.199.453-.162.711-.273.852-.352.141.021.375.037.775.031.254-.002.506.025.756.055.195.062.795.223 1.113.369.371.182.73.383 1.078.605.074.045.127.074.184.107.812.76 1.496 1.65 2.146 2.549.623.857 1.178 1.773 1.715 2.691-.824-1.336 1.012 2.391 1.293 3.127.506 1.328.912 2.695 1.295 4.061.154.541.656 2.963.736 3.246.451 2.691.762 5.396.896 8.125.023.496.004 1.734-.008 2.535a45 45 0 0 1-.17 1.559c-1.971 3.758-3.18 7.945-2.857 12.207.381 5.023 4.301 10.242 9.953 8.051 2.322-.9 4.66-1.666 7.074-2.277.967-.248 1.949-.424 2.932-.594-1.379.26 1.523-.084 1.729-.096 2.008-.111 4.018.041 6.008.295.818.107 1.627.279 2.432.459-1.559-.32 1.66.656 2.076.822 1.695.676 3.287 1.586 4.828 2.557.645.406 1.256.861 1.863 1.318-1.258-.922 1.277 1.219 1.604 1.545 1.326 1.32 2.498 2.787 3.617 4.283.57.766 1.09 1.566 1.607 2.367.34.535.668 1.076.984 1.623a68.314 68.314 0 0 1 4.471 11.021c.299.969.549 1.949.801 2.932.062.244.301 1.396.4 1.846.25 1.49.441 2.988.59 4.492-.482 6.299-.99 12.602-1.445 18.906a98.99 98.99 0 0 1-1.107 3.541c-.971 2.906-1.477 7.375.246 10.328-.15 2.99-.271 5.98-.359 8.973 1.348-3.057 3.467-5.908 6.178-7.258 12.229-6.078 25.174-8.787 38.488-4.803 10.223 3.061 19.689 9.938 25.721 18.777 15.82 23.191 11.062 52.654-7.158 72.984-2.084 2.324-5.502 3.627-8.223 2.861.773.938 1.883 1.541 3.453 1.533 10.893-.045 18.52 4.062 24.758 12.414.748 1.004 1.418 2.064 2.068 3.133l.258.453c.254.502.504 1.004.744 1.512 1.111 2.365 1.963 4.848 2.689 7.355.125.434.66 2.764.727 2.916a66.12 66.12 0 0 1 .477 3.164c.336 2.619.449 5.26.443 7.898-.029-.328-.156 2.553-.209 3.131-.127 1.383-.326 2.758-.541 4.129-.09.549-.186 1.096-.291 1.639l-.037.213a62.907 62.907 0 0 1-1.061 3.75 48.082 48.082 0 0 1-.705 2.072c.055-.234-.975 2.215-1.309 2.885-.232.467-.961 1.721-1.332 2.375a52.26 52.26 0 0 1-1.9 2.607c-.133.172-.242.312-.334.436-.141.133-.316.311-.574.572a33.41 33.41 0 0 1-1.875 1.754c.139-.17-1.896 1.424-2.424 1.766a35.005 35.005 0 0 1-2.74 1.57c.52-.316-2.229.916-2.762 1.102-1.318.459-2.676.799-4.037 1.105-2.305.521-.404.217-2.812.434-2.193.199-4.602.582-5.76.705-6.111.641-10.26 5.988-12.021 11.582-1.504 4.768-1.338 11.15 4.492 12.344 1.779.363 3.553.547 5.311.586.033.051.057.105.09.154 3.938 5.801 6.484 12.223 8.014 19.258-.195-.9.373 2.844.461 3.611.197 1.719.285 3.447.346 5.176.018.529-.023 3.584.002 3.812a78.198 78.198 0 0 1-.537 5.68c-.191 1.479-.455 2.947-.736 4.41.135-.844-.76 3.078-.934 3.695-.473 1.697-1.031 3.369-1.609 5.033-.203.586-.432 1.162-.652 1.742-.18.426-.639 1.562-.77 1.859-1.281 2.881-2.762 5.666-4.344 8.391.281-.543-1.766 2.711-2.15 3.27-1.193 1.723-2.477 3.381-3.787 5.016-.172.213-.35.42-.523.629-.078.078-1.166 1.342-1.389 1.58-1.164 1.254-2.393 2.449-3.633 3.627-1.229 1.164-2.518 2.266-3.818 3.346-.123.104-.215.182-.307.258l-.486.357c-.801.596-1.623 1.152-2.445 1.713-1.359.922-2.77 1.764-4.191 2.582-.457.264-3.23 1.66-3.166 1.672-3.059 1.359-6.252 2.389-9.506 3.168-12.082 2.896-26.406-1.068-37.215-10.02-4.93-4.08-10.113-.578-13.518 3.877-35.561 46.529-67.107 95.295-116.416 128.361-4.785 3.209-8.061 8.648-8.799 14.363-.461 3.564.541 10.266 5.598 9.996 13.26-.701 26.592 1.779 39.602 4.039 15.244 2.648 30.453 5.619 45.869 7.115 14.129 1.371 29.107 1.494 42.746-2.957 15.131-4.939 27.475-16.734 33.574-31.395a81.484 81.484 0 0 0 4.34-13.838 149.736 149.736 0 0 0 5.59-8.156c4.143-.26 8.299-1.348 12.453-3.418 11.234-5.6 18.213-18.717 21.799-30.158 4.244-13.545 5.371-30.295 1.9-45.293 42.365-16.35 62.412-84.486 33.338-119.963 15.837-9.299 25.786-26.217 28.357-44.295zM708.674 252.653c-.363 1.118-.996 2.358 0 0zm-50.846 472.741c-.812.25-1.629.482-2.451.691a368.018 368.018 0 0 0 10.238-10.402 317.098 317.098 0 0 0-7.787 9.711zm96.731-78.018c.344-.564.154-.281-.57.852a71.49 71.49 0 0 0-6.326 6.977 263.386 263.386 0 0 0 3.379-8.268c.607-1.564 1.004-3.605 1.006-5.652 2.164.424 4.322.701 6.471.848-1.548 1.596-2.859 3.485-3.96 5.243z"/><path d="M764.973 359.079c-.457.148-.912.305-1.367.469.46-.121.915-.283 1.367-.469zm-96.164-170.506a123.188 123.188 0 0 0-4.436-7.828c.076.594.152 1.188.213 1.777.402 3.991 2.08 5.733 4.223 6.051z"/></g><path d="M434.082 737.212c-51.624.234-110.239.178-144.392 45.949-15.126 20.266-23.122 44.412-27.822 69.006-4.698 24.578-6.928 50.779-4.143 75.609.581 5.174 5.19-1.17 5.601-3.273 8.485-43.475 5.517-92.137 32.021-130.082 29.973-42.92 90.357-36.145 135.326-45.801 3.638-.777 8.775-11.432 3.409-11.408zm139.529 15.879c24.459-1.928 50.629-.725 73.877 7.717 20.936 7.602 36.916 22.377 50.09 39.906 14.043 18.68 22.318 40.246 30.121 62.047 7.941 22.188 14.354 45.189 18.859 68.311 1.365 7.008 10.803-4.803 10.121-9.312-7.459-49.273-16.113-98.895-46.74-139.814-13.496-18.029-32.811-31.908-54.211-38.811-27.342-8.818-54.977-3.82-81.266 6.055-.993.373-2.622 4.038-.851 3.901z"/><path d="M863.898 405.087c10.301-20.234 8.973-43.791-3.229-63.547-11.131-18.021-30.869-28.459-51.361-27.309 3.324-4.562 5.723-9.818 7.008-15.664 2.332-10.611-1.877-21.494-7.537-30.287-12.037-18.701-33.896-33.039-55.543-38.822 6.26-17.922 5.096-37.67-6.238-53.695-11.645-16.465-31.648-22.334-50.68-18.729 1.242-17.803-4.139-35.537-20.758-44.82-14.43-8.059-32.064-6.301-47.064-.18-2.816-13.629-11.559-25.439-21.234-35.172-10.869-10.932-24.148-19.969-38.67-25.24-12.881-4.674-26.797-5.896-39.418.105-11.439 5.439-18.048 16.617-21.677 28.41-16.838-8.275-37.385-10.51-55.248-5.066-20.708 6.312-32.309 24.494-33.252 44.967-16.865 2.564-32.566 8.814-46.009 19.701-12.909 10.453-21.933 25.141-26.995 40.883-18.428-2.746-37.023 1.555-51.818 13.293-13.852 10.988-20.782 28.027-21.834 45.291-19.034-1.053-37.889 7.352-50.133 22.107-6.664 8.031-10.167 18.275-10.189 28.643-.015 6.49 2.051 12.67 5.25 18.25-19.496 4.76-35.223 20.957-43.143 39.486-9.496 22.215-8.445 47.988 7.77 65.775-12.852 10.25-28.307 19.742-31.22 36.828-1.712 10.047-.702 20.213 3.763 29.408 3.511 7.23 9.065 13.477 11.488 21.209 1.955 6.244-.272 14.395-2.385 20.291-2.498 6.971-6.42 13.865-9.668 20.744-6.383 13.508-12.002 30.338-.961 43.07 5.527 6.375 13.611 10.217 21.588 13.07-8.422 13.826-13.949 29.934-11.939 46.131 2.303 18.562 15.787 30.879 32.48 36.848-7.459 15.969-8.439 34.121.914 50.031 9.895 16.83 29.385 22.479 47.6 19.578-1.438 9.59.08 19.414 6.533 27.211 8.867 10.715 24.234 12.641 37.189 11.176 3.439-.389 5.764-3.348 6.762-6.514.582-1.848.926-7.334-2.527-6.941-10.93 1.248-23.281.443-31.675-7.549-6.925-6.59-7.972-16.119-5.186-24.881.909-2.857.409-7.832-3.777-6.744-16.337 4.242-33.478.533-44.132-13.16-9.844-12.646-9.625-30.398-1.046-43.59 1.194-1.836 4.395-8.965.372-10.105-15.582-4.416-29.256-13.496-33.008-30.061-3.386-14.939 4.352-30.834 12.974-42.484 1.399-1.889 4.293-8.926.377-10.182-9.63-3.086-20.394-6.996-26.653-15.418-3.771-5.072-3.205-11.061-1.6-16.324 4.494-14.74 14.631-28.088 17.689-43.916 1.535-7.951 1.667-16.312-1.746-23.809-3.466-7.609-9.009-14.002-11.94-21.896-1.668-4.49-2.103-9.219-1.652-13.965.418-4.428 1.552-6.887 4.398-10.408 6.173-7.631 14.937-13.311 22.612-19.301 1.805-1.408 3.582-2.854 5.226-4.449 2.905-2.82 5.315-8.676 1.594-11.727-33.511-27.473-9.208-87.92 33.822-84.891 4.752.334 10.054-9.104 6.495-12.748-11.078-11.348-17.468-27.488-5.422-40.551 11.484-12.451 29.959-16.754 46.207-13.74 4.42.818 7.558-6.676 7.285-9.98-1.297-15.812 3.037-31.281 16.305-40.945 13.605-9.908 31.265-11.27 47.395-8.506 3.839.658 6.242-5.148 6.836-7.889 7.125-32.893 36.115-52.311 68.234-55.953.273-.031.545-.104.812-.203a3.79 3.79 0 0 0 1.314-.52c2.404-1.484 3.94-4.623 3.78-7.42-.005-.07-.007-.143-.011-.215.018-.35.006-.682-.043-.984-.332-8.5 1.057-16.832 6.45-23.672 4.933-6.256 13.008-9.508 20.524-11.289 17.43-4.129 37.318.176 52.35 9.555 4.02 2.506 7.621-5.08 8.102-7.754 2.003-11.172 6.65-20.986 17.529-24.857 11.014-3.922 23.498-.82 33.881 3.531 22.959 9.623 42.246 28.309 51.912 51.242-2.441 3.553-2.689 10.408 2.361 7.74 14.504-7.664 32.373-10.1 47.531-2.852 16.555 7.914 21.057 26.029 18.262 42.91-.432 2.611.918 5.469 3.92 4.723 17.531-4.348 35.59.619 47.119 14.805 10.994 13.527 12.365 32.445 4.832 47.891-1.4 2.871-2.334 7.965 1.82 8.844 19.664 4.162 38.598 16.6 51.434 31.877 5.518 6.562 10.24 14.49 10.812 23.217.57 8.65-6.588 14.463-13.281 19.064-2.701 1.857-4.637 5.26-4.383 8.602.238 3.133 2.672 3.98 5.236 2.668.143-.072.277-.154.42-.229.561.338 1.332.449 2.355.24 20.6-4.213 40.488 6.225 52.445 22.764 11.186 15.471 15.389 37.586 4.09 54.133-1.658 2.43-4.094 7.734-1.453 10.426 13.311 13.568 19.707 32.635 20.166 51.395.416 17.002-5.783 34.303-22.375 41.188-4.086 1.695-9.516 9.438-5.674 13.73 16.24 18.143 22.777 42.568 15.939 66.158-6.402 22.082-23.939 39.338-45.721 46.262-5.053 1.605-8.045 8.836-5.545 13.42 7.004 12.84 10.449 29.982 3.793 43.281-7.17 14.326-25.654 16.363-40.205 14.1-5.082-.789-9.002 8.264-7.471 12.17 3.975 10.137 6.863 21.59 3.895 32.389-2.193 7.979-8.037 14.008-15.643 18.367-18.879 10.822-42.865 7.758-62.439.848-5.695-2.012-12.133 10.387-6.609 12.967 22.512 10.516 52.135 10.66 73.334-3.145 10.248-6.674 17.775-16.902 21.32-28.578 2.951-9.725 2.67-19.912.492-29.715 17.445-.422 33.014-8.527 41.848-25.061 8.416-15.75 7.518-34.256 1.301-50.508 22.828-10.596 39.908-31.094 47.682-55.195 8.033-24.914 4.115-52.07-10.756-73.193 32.848-24.114 30.572-80.666 4.949-110.465z"/><path fill="#FF617F" d="M559.166 583.747c-9.393-5.127-19.047-8.281-29.104-10.74-1.982-.484-4.076 2.871-4.633 5.979-.322-.008-.645-.021-.967-.029-3.99-.117-7.98-.117-11.973-.02-2.161-2.559-4.683-4.467-7.86-5.432-4.377-1.33-9.26.748-13.164 3.057-8.302 4.906-15.197 12.562-22.803 18.857-.506.121-1.056.596-1.564 1.258a64.681 64.681 0 0 1-3.814 2.812c-1.973 1.334-2.86 7.877.369 5.984a57.618 57.618 0 0 0 2.265-1.402l.062.164a7.45 7.45 0 0 0-.251.387 10.456 10.456 0 0 0-1.365 7.236c2.322 13.752 8.109 16.223 17.67 24.057 8.807 7.221 19.953 9.521 30.348 8.543 7.591-.715 15.035-3.172 21.876-7.111 6.184 1.621 12.607-.277 18.295-6.096 8.594-8.795 13.256-13.588 12.705-27.252 2.553-.803-2.783-18.449-6.092-20.252zm-77.74 44.996a66.104 66.104 0 0 0 5.929 5.512 35.619 35.619 0 0 1-5.929-5.512z"/><path d="M566.535 599.415c-.934 9.186-4.119 17.455-9.939 24.053-7.375 8.357-17.432 12.48-27.162 14.346-20.175 3.867-44.579-3.047-57.913-23.219-3.666-5.547-6.042-11.975-7.29-18.785-1.61-.264-3.223-.525-4.834-.783 4.768 51.531 65.943 65.82 96.169 36.859 8.562-8.203 13.846-19.936 15.119-32.799-1.38.125-2.765.234-4.15.328z"/><path d="M444.038 593.901c12.452 12.324 24.932.787 35.445-9.012 5.26-4.9 10.793-10.195 17.438-11.674 8.464-1.885 14.516 6.293 19.786 13.021 2.008 2.561 4.732-3.545 3.5-5.818-4.251-7.848-11.355-14.629-19.292-14.672-6.783-.041-12.999 4.861-18.293 9.57-10.722 9.533-22.714 24.779-36.113 12.609-1.76-1.598-4.251 4.217-2.471 5.976z"/><path d="M519.154 585.802c5.721-6.725 12.533-12.053 20.701-10.023 6.291 1.566 11.76 7.346 16.594 12.189 9.973 9.99 21.613 20.668 33.936 9.164 1.176-1.102 2.068-2.826 1.951-4.721-.1-1.615-1.213-2.322-2.334-1.465-5.818 4.447-11.461 5.125-17.641 1.354-6.039-3.684-11.043-9.699-16.352-14.705-5.021-4.736-10.609-8.955-17.068-9.531-8.32-.744-15.643 5.893-21.182 12.791-1.726 2.148-1.404 8.24 1.395 4.947zm-24.509 18.416c7.718 6.189 16.766 12.795 27.183 11.285 7.867-1.143 14.422-7.744 20.732-12.018 2.385-1.615 3.25-8.762-.475-6.258-5.689 3.822-11.115 9.07-17.842 10.965-9.429 2.658-19.419-5.135-26.296-10.455-2.266-1.756-5.71 4.549-3.302 6.481z"/><path d="M538.1 607.624c9.768.232 21.301 1.326 29.961-4.158 1.742-1.1 3.922-7.887.209-6.535-9.191 3.352-18.258 3.447-27.943 3.623-2.931.052-5.667 6.988-2.227 7.07zm-36.458-9.795c-5.067-.701-10.392-.01-15.509-.273-5.892-.307-11.037-2.1-16.707-3.242-2.918-.59-4.987 5.242-2.85 6.951 3.979 3.18 10.909 3.498 15.777 3.773 5.803.328 12.225.42 17.898-.992 2.023-.504 4.472-5.789 1.391-6.217z"/><path fill="#EAA286" d="M597.863 577.981c2.779 2.256 5.32 4.406 7.039 7.635 1.771 3.33 2.301 7.039 3.041 10.678.367 1.805 2.5 1.75 3.719 1 2.15-1.328 3.318-3.977 3.279-6.436-.123-7.699-4.777-20.361-14.33-19.58-2.695.219-5.121 4.776-2.748 6.703zM440.092 574.7c-2.779 2.256-5.32 4.406-7.037 7.637-1.772 3.328-2.303 7.037-3.043 10.678-.367 1.805-2.5 1.75-3.719.998-2.15-1.326-3.317-3.977-3.277-6.434.121-7.701 4.775-20.363 14.328-19.582 2.695.219 5.12 4.777 2.748 6.703z"/></svg>