<svg xmlns="http://www.w3.org/2000/svg" xmlns:xlink="http://www.w3.org/1999/xlink" width="1030" height="1030" viewBox="0 0 1030 1030"><defs><path id="a" d="M1020.378 515.001c0 279.115-226.266 505.377-505.379 505.377-279.111 0-505.377-226.264-505.377-505.377S235.888 9.622 514.999 9.622c279.113 0 505.379 226.266 505.379 505.379z"/></defs><use xlink:href="#a" overflow="visible" fill="#FFBF1F"/><clipPath id="b"><use xlink:href="#a" overflow="visible"/></clipPath><g clip-path="url(#b)"><path fill="#FFBF1F" d="M1021.413 517.214c0 279.115-226.265 505.377-505.378 505.377-279.112 0-505.377-226.264-505.377-505.377S236.923 11.835 516.035 11.835c279.113 0 505.378 226.266 505.378 505.379z"/><path fill="#FC9E17" d="M64.591 301.339c65.698-60.766 147.473-101.363 226.167-142.393 40.815-21.281 80.746-43.73 120.539-66.854 43.206-25.111 87.47-49.598 136.054-62.561l-2.864-37.723C469.489 62.96 382.009 118.8 296.63 176.392c-43.967 29.658-87.432 59.996-129.214 92.682-20.033 15.672-39.122 32.311-60.043 46.828-21.763 15.1-44.411 28.885-66.553 43.41-20.462 13.42-40.42 27.699-58.93 43.736-7.093 6.145-11.696 17.17-10.986 26.521.548 7.209 5.931 13.973 13.849 11.199 98.168-34.393 184.331-95.652 268.734-154.941 42.164-29.617 84.252-59.42 128.115-86.494 19.998-12.342 40.242-24.098 59.857-37.074 21.044-13.918 41.816-28.238 62.965-42 37.357-24.314 76.479-48.123 120.033-59.316l-6.716-33.35c-3.625 4.496-11.991 11.266-18.964 15.918-10.001 6.67-20.648 12.365-31.156 18.178-23.028 12.742-45.092 27.219-67.553 40.936-51.306 31.332-102.533 62.797-153.852 94.113-51.111 31.188-102.327 62.211-153.791 92.816-45.841 27.262-92.238 53.613-137.738 81.449-57.197 34.99-113.604 73.15-161.328 120.578-6.828 6.783-11.733 16.688-10.986 26.52.559 7.365 5.898 13.781 13.85 11.199 51.945-16.859 99.749-43.609 147.504-69.639C94 432.257 145.888 407.882 197.311 382.727c106.724-52.203 213.545-104.201 320.026-156.898 43.588-21.572 87.409-42.348 128.738-68.076 36.969-23.018 73.674-48.996 115.463-62.539-.954-12.574-1.908-25.146-2.864-37.721-32.515 34.457-76.607 55.146-117.22 78.289-50.043 28.516-97.458 62.32-145.694 93.777-48.672 31.742-97.557 62.701-143.462 98.404-36.259 28.201-71.636 58.477-113.409 78.264C166.968 440.29 75.416 461.753 37.56 541.29c-3.076 6.463-5.365 14.316-2.91 21.402 1.744 5.039 7.496 9.094 12.933 6.588 100.087-46.102 193.518-104.332 287.45-161.586 46.518-28.355 93.288-56.326 141.229-82.229 49.123-26.541 100.223-49.029 149.865-74.543 51.182-26.305 101.262-54.686 151.102-83.426-.984-12.998-1.971-25.994-2.959-38.99-89.506 66.279-184.819 124.035-280.237 181.279-95.315 57.186-189.7 115.123-280.916 178.699C148.345 533.63 70.699 560.08 20.878 624.457c-8.81 11.383-11.102 42.221 10.985 31.381 208.226-102.16 408.94-218.58 611.71-330.955 81.106-44.949 162.599-89.213 245.033-131.684l-2.959-38.988C684.77 269.934 489.944 395.938 300.087 528.914 223.16 582.793 147.083 637.887 71.74 693.957c-9.188 6.836-16.062 17.881-15.161 29.76.735 9.699 9.591 15.234 18.12 9.229 43.633-30.723 91.014-55.527 138.016-80.598 48.866-26.064 96.421-53.967 143.454-83.207 97.824-60.818 193.597-125.836 295.819-179.223 79.944-41.756 155.398-91.654 236.617-131.035l-7.131-35.752C726.442 362.759 545.962 469.948 368.333 577.765c-93.445 56.72-186.838 113.709-276.603 176.166-9.319 6.484-16.044 18.146-15.161 29.758.801 10.539 9.316 14.158 18.12 9.23 202.516-113.371 408.093-221.234 609.108-337.291 82.609-47.695 164.386-96.848 244.781-148.197-3.662-10.461-7.324-20.92-10.984-31.381-4.996 7.512-10.377 14.717-16.098 21.689-5.041 6.145-10.836 12.266-18.376 19.707-14.123 13.939-29.659 26.809-45.089 38.273-35.397 26.297-73.572 48.73-112.081 70.107-37.449 20.789-75.582 40.312-113.116 60.945-42.605 23.422-83.599 49.658-124.551 75.828-65.341 41.752-130.41 84.795-198.977 121.15-60.084 31.857-124.11 59.162-173.205 107.688-6.838 6.762-11.73 16.707-10.986 26.521.622 8.164 5.797 12.766 13.852 11.199 27.105-5.268 51.928-18.041 75.645-31.76 24.854-14.379 49.684-28.809 74.537-43.191a10614.59 10614.59 0 0 0 152.23-89.771c49.531-29.773 100.037-57.951 150.667-85.822 50.375-27.73 102.132-51.93 153.663-77.322 67.275-33.148 131.118-72.73 197.158-108.186l-10.984-31.383c-5.504 7.193-9.136 10.836-17.041 18.057-7.751 7.076-15.978 13.312-24.516 19.367-18.807 13.338-38.714 25.094-58.617 36.699-43.185 25.18-85.118 51.793-126.224 80.277-91.95 63.715-180.731 131.844-272.466 195.85-62.606 43.68-127.019 85.396-195.645 119.062l2.959 38.99c48.338-27.512 98.725-51.109 148.234-76.383 25.085-12.807 49.887-26.168 74.097-40.572 24.189-14.391 46.896-30.896 69.81-47.201 23.254-16.545 46.578-32.992 70.564-48.465 23.51-15.168 48.085-28.535 72.547-42.078 48.809-27.02 97.927-53.48 146.338-81.211 61.396-35.17 121.518-72.686 178.058-115.307l-10.984-31.381c-59.98 69.829-146.117 119.634-225.496 166.942-91.051 54.268-181.007 110.705-269.408 169.203-41.195 27.26-81.384 55.869-121.203 85.092-39.395 28.914-78.96 57.732-121.234 82.348-9.594 5.584-15.991 18.82-15.16 29.758.841 11.066 9.201 13.475 18.119 9.23 100.961-48.053 196.104-107.057 291.245-165.518 47.797-29.369 95.674-58.625 144.386-86.459 47.674-27.238 96.568-52.016 145.609-76.67 75.025-37.713 150.203-76.055 218.389-125.428l-7.131-35.75c-33.609 33.213-76.089 55.598-117.895 76.719a4043.125 4043.125 0 0 0-133.637 70.689c-99.297 54.922-199.127 109.008-295.387 169.18-39.695 24.812-79.178 50.248-116.168 78.982-32.521 25.262-64.553 53.299-102.398 70.43-8.954 4.055-15.02 11.32-17.994 20.766-1.854 5.883-3.031 24.236 8.273 22.725 45.448-6.074 87.678-22.926 128.725-42.799 43.947-21.275 85.809-46.65 127.57-71.857 92.4-55.779 188.994-103.605 284.819-153.17 30.956-16.012 61.8-31.988 92.062-49.281l89.188-50.969c9.618-5.496 15.986-18.891 15.161-29.758-.804-10.576-9.309-14.111-18.121-9.23-104.188 57.711-206.854 118.117-308.767 179.746-51.145 30.93-102.087 62.188-152.946 93.584-44.668 27.572-85.541 60.625-129.553 89.188-21.203 13.756-43.262 26.518-67.016 35.328l-1.309 40.957c171.867-107.34 370.172-160.402 549.303-253.342 47.312-24.547 93.093-52.107 136.094-83.643 9.217-6.758 16.058-17.938 15.16-29.76-.76-9.986-9.485-14.867-18.119-9.229-189.893 124.01-375.483 255.294-574.295 364.989a2775.571 2775.571 0 0 1-59.694 31.969l7.133 35.752c73.348-58.309 162.889-92.967 248.278-129.312 44.957-19.137 89.819-38.742 132.914-61.836 22.314-11.959 44.491-24.162 66.002-37.533 23.461-14.584 46.565-29.75 71.245-42.24l-14.291-26.021c-3.254 5.631 2.838-4.268-.768 1.271-1.092 1.672-2.266 3.291-3.438 4.908-1.197 1.656-2.473 3.256-3.742 4.855-.225.285-4.667 5.496-1.594 2.025-6.42 7.246-13.553 13.844-20.877 20.158-14.344 12.365-31.18 23.664-48.141 34.455-35.631 22.666-73.098 42.25-109.025 64.42-39.857 24.594-76.527 54.361-114.17 82.133-42.476 31.334-86.008 61.828-133.523 85.104-8.504 4.166-17.229 7.842-26.043 11.295.954 12.572 1.908 25.146 2.865 37.721 61.736-53.27 143.855-80.49 220.312-108.334 80.787-29.42 162.883-61.467 226.772-120.973 7.469-6.955 14.517-14.354 21.267-22.004 7.163-8.117 13.979-19.857 10.071-31.133-3.469-10.01-15.477-8.066-21.376-1.381-114.229 129.438-307.649 132.047-443.065 231.178a405.641 405.641 0 0 0-25.289 20.133c-7.098 6.125-11.693 17.186-10.986 26.523.529 6.965 5.992 14.279 13.852 11.197 97.135-38.068 176.129-109.006 260.492-168.248 66.981-47.033 147.925-76.375 205.264-136.568 10.397-10.916 19.23-22.635 26.766-35.684 7.101-12.287 4.061-35.305-14.291-26.02-23.682 11.982-45.959 26.396-68.421 40.475-22.415 14.049-45.567 26.727-68.829 39.299-42.021 22.705-85.975 41.566-129.891 60.242-90.248 38.379-182.229 75.838-259.648 137.379-7.225 5.744-11.672 17.469-10.985 26.521.819 10.785 9.259 13.842 18.12 9.23C584.75 936.469 771.74 806.555 960.965 681.342a11193.585 11193.585 0 0 1 56.154-36.924l-2.959-38.988C850.089 725.748 651.649 782.42 469.114 867.284c-48.147 22.383-95.298 46.992-140.351 75.131-8.23 5.139-13.766 14.979-14.994 24.48-1.041 8.053 3.029 20.43 13.686 16.479 48.653-18.047 91.169-48.994 132.91-79.129 45.077-32.541 91.929-61.576 139.312-90.625 101.836-62.436 204.242-123.967 307.943-183.266a7359.87 7359.87 0 0 1 86.651-48.766c-.985-12.996-1.972-25.992-2.96-38.988-51.546 29.457-102.699 59.619-155.438 86.898-53.777 27.818-107.557 55.633-161.336 83.449-43.93 22.723-87.301 45.756-129.695 71.246-41.771 25.117-83.297 50.699-126.523 73.277-41.221 21.529-86.023 41.922-132.549 48.141-3.242 14.498-6.481 28.994-9.721 43.49 47.462-21.482 85.908-55.805 127.178-86.811 44.623-33.523 92.952-62.742 140.678-91.576 96.972-58.586 197.005-111.867 295.911-167.064 73.6-41.076 157.644-70.725 218.6-130.963 6.843-6.76 11.733-16.709 10.988-26.521-.729-9.592-9.636-15.373-18.12-9.23-88.588 64.145-188.591 109.527-285.451 159.373-99.426 51.166-193.672 111.625-289.093 169.732-73.313 44.643-147.525 88.053-225.085 124.969l2.959 38.988c49.188-28.641 94.676-62.945 140.544-96.504 46.478-34 94.138-66.234 142.512-97.467 87.035-56.191 175.351-110.045 263.912-163.752 74.69-45.295 149.065-94.295 206.426-161.074 5.669-6.598 9.146-18.316 6.218-26.762-2.553-7.369-11.105-9.217-17.203-4.619-89.627 67.562-188.064 121.631-286.238 175.51-49.329 27.074-98.405 53.916-144.788 85.881-23.353 16.092-46.29 32.777-69.501 49.068-23.09 16.205-47.426 30.418-72.158 43.965-61.564 33.727-125.931 62.055-186.961 96.791-9.622 5.477-15.983 18.906-15.16 29.76.834 10.973 9.219 13.596 18.119 9.23 98.893-48.512 189.043-113.174 277.802-177.871 89.326-65.109 177.655-132.875 271.783-191.008 55.476-34.266 120.368-62.553 160.974-115.648 5.391-7.047 9.266-17.969 6.219-26.762-2.84-8.197-10.652-8.139-17.203-4.621-49.321 26.479-97.432 55.121-146.602 81.871-49.907 27.152-102.033 49.65-152.422 75.84-103.298 53.693-202.544 114.398-302.913 173.234a11372.038 11372.038 0 0 1-97.148 56.283c-30.903 17.713-60.723 37.979-96.279 44.889.954 12.572 1.908 25.146 2.865 37.721 33.756-33.367 76.162-55.738 118.041-77.18 45.688-23.391 90.238-48.039 134.127-74.68 87.6-53.176 171.682-111.859 262.071-160.354 54.957-29.484 110.544-57.98 162.961-91.898 49.711-32.166 98.854-70.18 131.993-120.016 5.023-7.557 9.406-17.564 6.218-26.762-2.7-7.791-10.854-8.674-17.203-4.621-195.874 125.102-399.875 236.655-603.807 347.893-83.529 45.561-167.062 91.117-250.083 137.596.985 12.996 1.972 25.992 2.959 38.988 170.95-118.941 354.397-218.406 528.241-332.895 94.264-62.08 185.904-128.777 269.847-204.379 7.025-6.326 11.708-17.035 10.988-26.521-.836-11.01-9.213-13.549-18.12-9.23-51.248 24.85-100.296 53.832-149.524 82.396-49.636 28.799-100.665 55.018-150.331 83.748-99.656 57.645-195.211 122.086-293.779 181.537-72.496 43.723-150.876 77.516-220.271 126.383.985 12.996 1.973 25.992 2.959 38.988 185.013-137.684 374.572-269.338 569.658-392.373 80.435-50.727 161.85-99.902 244.248-147.373 9.606-5.535 15.987-18.861 15.161-29.76-.821-10.814-9.251-13.799-18.12-9.229C679.47 260.433 479.433 377.96 275.685 488.665c-81.457 44.258-163.553 87.352-246.782 128.186l10.984 31.383c25.776-33.309 66.304-56.533 103.788-77.648 19.877-11.199 39.891-22.156 59.18-34.355 21.948-13.881 42.736-29.654 64.246-44.203 92.357-62.465 188.979-118.262 284.29-176.014 77.075-46.703 153.374-94.857 225.837-148.516 9.198-6.811 16.062-17.9 15.162-29.76-.793-10.436-9.346-14.291-18.121-9.23-48.863 28.18-97.979 55.93-148.079 81.867-49.613 25.688-100.764 48.18-150.024 74.562-96.332 51.592-187.564 112.021-281.984 166.92-45.945 26.715-92.726 52.25-141.018 74.496 3.339 9.33 6.681 18.662 10.023 27.99.941-1.98 1.919-3.936 2.938-5.881.276-.529 3.928-6.719 1.068-2.127 2.277-3.656 4.846-7.123 7.492-10.518.168-.217 4.738-5.592 1.715-2.197 1.437-1.613 2.949-3.158 4.456-4.703 3.552-3.637 7.364-7.01 11.247-10.285 4.772-4.025 12.174-9.08 19.404-13.619 8.459-5.309 17.279-10.027 26.193-14.512 34.469-17.342 71.242-29.699 106.113-46.215 43.148-20.439 79.836-52.666 117.23-81.818 44.833-34.949 93.141-64.873 140.71-95.896 48.038-31.33 95.283-64.803 145.126-93.205 42.926-24.461 88.732-46.936 123.102-83.359 6.684-7.084 11.75-16.467 10.986-26.521-.559-7.365-5.897-13.775-13.851-11.199-49.908 16.174-93.238 47.807-137.599 74.861-48.914 29.832-102.049 53.268-153.393 78.592-106.674 52.612-213.649 104.615-320.467 156.938-43.396 21.258-86.618 42.541-129.029 65.715-40.359 22.047-80.935 43.73-124.823 57.979l2.863 37.723c72.181-71.732 163.499-120.635 250.486-171.762C258.522 291.58 360.645 228.742 462.906 166.15c31.838-19.49 63.288-39.891 95.544-58.646 28.137-16.359 57.43-30.23 78.302-56.137 6.78-8.412 13.28-38.49-6.716-33.35-47.432 12.189-90.47 38.453-131.143 64.924-21.107 13.74-41.834 28.055-62.84 41.949-19.621 12.977-39.934 24.668-59.938 37.012-88.902 54.875-170.566 120.623-260.034 174.662-39.994 24.156-81.581 45.8-125.746 61.277l2.863 37.721c39.103-33.881 85.59-57.932 127.509-87.986 21.175-15.182 40.63-32.545 61.216-48.488 20.628-15.977 41.773-31.275 63.117-46.279 86.076-60.504 176.02-115.529 257.792-181.998 18.233-14.82 35.915-30.312 52.962-46.484 6.924-6.572 11.721-16.852 10.986-26.521-.586-7.715-5.842-13.336-13.852-11.199C503.626-.239 458.109 24.439 414.134 49.75c-40.958 23.574-81.776 46.955-123.684 68.824-82.873 43.246-167.968 86.252-237.164 150.254-7.749 7.166-13.724 20.592-10.071 31.133 3.688 10.636 15.029 7.251 21.376 1.378z"/></g><path fill="#2F61DD" d="M590.197 357.02c-.689-.567-1.376-1.14-2.062-1.713-.479-.396-.97-.775-1.445-1.174l3.507 2.887z"/><path fill="#163663" d="M841.336 438.26a452.075 452.075 0 0 0-1.037-4.355c-1.162-4.766.177 3.23-.715-1.838-.262-1.497-.552-2.99-.85-4.483a450.074 450.074 0 0 0-.474-21.685c-.259-5.514-.671-11.028-1.423-16.5-.873-6.353-4.507-11.895-11.061-11.098-2.083-6.384-4.262-12.739-6.439-19.096-9.247-27.005-20.689-53.271-33.814-78.609-17.479-33.746-38.837-64.307-63.1-93.513-13.161-15.842-27.076-31.103-42.057-45.248-13.873-13.098-28.873-25.738-45.684-34.916-6.96-3.801-14.207-6.46-21.866-8.373-.921-1.842-2.276-3.43-4.201-4.408-2.163-1.102-4.336-1.158-6.452-.684-.022-7.013-3.184-14.186-10.962-15.043-33.064-3.64-63.631 16.413-83.021 41.676-9.651 12.573-17.236 28.167-20.998 44.469 2.298-11.141 3.344-22.691 2.798-34.141.338-.464.682-.924 1.026-1.384.184-.246.552-.682.886-1.075.49-.495.986-.979 1.489-1.459.285-.272 1.22-1.049 1.628-1.406.539-.371 1.084-.73 1.632-1.085 8.604-5.597 18.128-23.74 7.183-31.504-34.199-24.257-78.15-9.904-111.331 8.589-35.445 19.751-67.334 48.207-92.808 79.683-10.878 13.441-20.5 27.889-28.934 43.026-23.214 8.498-41.479 27.965-54.462 48.863-16.612 26.741-28.139 57.762-28.337 89.526-.06 9.515 9.273 8.901 14.713 4.52-12.219 49.412-15.294 100.709-12.144 151.433 3.195 51.474 9.074 105.81 33.244 152.209 5.902 11.333 12.487 22.691 22.151 31.246 7.465 6.607 15.57 10.565 24.973 12.89 4.209 4.443 8.889 8.472 13.853 12.027 3.688 2.643 9.251-.632 12.223-3.196.6.511 1.183 1.035 1.794 1.535 4.009 3.287 11.07-1.434 13.83-4.041a28.739 28.739 0 0 0 5.278-6.769c2.395-.259 4.781-.492 7.158-.674 2.841 2.383 6.788 1.467 10.007-.38 8.654.055 16.516 1.175 24.192 3.641 4.166 2.273 8.641 4.006 13.461 5.016 6.604 1.386 13.259-7.546 15.688-12.312 2.897-5.689 6.107-18.142-1.662-21.906a80.484 80.484 0 0 0-10.898-4.324 56.077 56.077 0 0 1-2.606-1.636c-.701-.468-1.378-.971-2.057-1.471-.274-.204-.472-.35-.635-.466-.073-.067-.174-.155-.334-.295-6.173-5.309-11.307-11.788-15.956-18.433-2.516-3.597-4.84-7.325-7.077-11.099a227.657 227.657 0 0 1-3.392-5.959l-.238-.431-.375-.712a285.45 285.45 0 0 1-2.157-4.188c-4.55-8.962-8.604-18.174-12.418-27.471-7.124-17.367-13.175-35.147-18.886-53.021-2.129-6.664-4.181-13.353-6.233-20.039-1.411-4.598-2.581-9.248-3.593-13.948.011-.039-.514-2.715-.534-2.821a222.74 222.74 0 0 1-.707-4.289c-.537-3.386-.966-6.787-1.365-10.193-2.751-23.541-2.726-47.293-3.566-70.967.121-1.185.246-2.371.369-3.557 11.751-6.884 22.53-15.464 32.189-25.042 3.801-3.769 7.1-9.563 7.423-15.269a428.714 428.714 0 0 0 6.936-6.884c1.12-.24 2.278-.718 3.436-1.475 47.759-31.181 95.808-80.583 110.889-137.764 14.058-24.489 25.383-50.471 31.6-78.046-3.548 17.74-2.486 36.14 5.435 52.276 2.443 4.976 6.045 7.671 10.25 8.052a176.247 176.247 0 0 0 11.768 34.673 217.048 217.048 0 0 0 4.253 8.708c-.952 5.999.015 12.156 5.342 15.582a222.929 222.929 0 0 0 5.749 3.569c15.872 24.585 36.144 45.909 58.815 64.817 16.33 13.461 34.292 25.207 52.983 35.101 19.291 10.215 39.771 18.116 60.085 26.014 20.723 8.058 41.608 15.882 61.888 25.016-10.186 36.393-17.751 73.473-27.677 109.942-2.692 9.892-5.521 19.743-8.69 29.494a403.64 403.64 0 0 1-4.751 13.726 345.629 345.629 0 0 1-2.56 6.755c-.324.835-.659 1.668-.993 2.501l-.324.763a274.676 274.676 0 0 1-13.214 26.967 394.643 394.643 0 0 1-3.587 6.312c-.438.751-.887 1.493-1.335 2.235-2.861 4.527-5.911 8.937-9.076 13.256-1.991 2.722-4.064 5.381-6.173 8.012a223.344 223.344 0 0 1-3.259 3.954c-.549.651-1.101 1.3-1.656 1.945a244.272 244.272 0 0 1-8.163 8.621c-1.53 1.444-2.941 3-4.252 4.656a272.737 272.737 0 0 1-4.392 4.607c-5.789 5.952-11.966 11.43-18.388 16.686a278.403 278.403 0 0 1-4.272 3.409l-1.066.817c-1.258.958-2.528 1.898-3.799 2.839-3.915 2.899-7.912 5.684-11.943 8.417-6.335 4.292-10.847 12.344-10.255 20.127.546 7.219 6.278 9.465 12.255 6.244 10.271-5.532 20.237-11.578 29.81-18.242 1.389 2.3 3.604 3.986 6.905 4.455 11.755 1.666 23.356.506 34.471-2.843.654 5.167 3.154 9.66 9.111 9.999 26.968 1.529 49.512-15.643 65.424-35.978a31.91 31.91 0 0 0 3.014-3.339c10.253-13.227 18.451-27.794 25.126-43.117 21.123-44.053 32.236-93.214 33.552-142.527a760.572 760.572 0 0 0 1.974-17.442c1.178-11.623 2.158-23.318 2.835-35.037 3.793-6.486 5.326-13.921 3.59-21.39z"/><path fill="#2F61DD" d="M263.226 616.837c-15.443-94.733-7.581-193.245 23.822-284.078 20.918-60.5 56.45-117.518 113.557-149.53 27.203-15.247 57.388-24.289 88.226-28.353 1.106-8.083 1.539-16.296 1.15-24.461.338-.464.682-.924 1.026-1.384.184-.246.552-.682.886-1.075.49-.495.986-.979 1.489-1.459.285-.272 1.22-1.049 1.628-1.406.539-.371 1.084-.73 1.632-1.085 8.604-5.597 18.128-23.74 7.183-31.504-34.199-24.257-78.15-9.904-111.331 8.589-35.445 19.751-67.334 48.207-92.808 79.683-10.878 13.441-20.5 27.889-28.934 43.026-23.214 8.498-41.479 27.965-54.462 48.863-16.612 26.741-28.139 57.762-28.337 89.526-.06 9.515 9.273 8.901 14.713 4.52-12.219 49.412-15.294 100.709-12.144 151.433 3.195 51.474 9.074 105.81 33.244 152.209 5.902 11.333 12.487 22.691 22.151 31.246 7.465 6.607 15.57 10.565 24.973 12.89 4.209 4.443 8.889 8.472 13.853 12.027 1.885 1.352 4.259 1.151 6.527.296-12.255-35.843-21.948-72.574-28.044-109.973z"/><path fill="#2F61DD" d="M841.336 438.26a452.075 452.075 0 0 0-1.037-4.355c-1.162-4.766.177 3.23-.715-1.838-.262-1.497-.552-2.99-.85-4.483a450.074 450.074 0 0 0-.474-21.685c-.259-5.514-.671-11.028-1.423-16.5-.873-6.353-4.507-11.895-11.061-11.098-2.083-6.384-4.262-12.739-6.439-19.096-9.247-27.005-20.689-53.271-33.814-78.609-17.479-33.746-38.837-64.307-63.1-93.513-13.161-15.842-27.076-31.103-42.057-45.248-13.873-13.098-28.873-25.738-45.684-34.916-6.96-3.801-14.207-6.46-21.866-8.373-.921-1.842-2.276-3.43-4.201-4.408-2.163-1.102-4.336-1.158-6.452-.684-.022-7.013-3.184-14.186-10.962-15.043-33.064-3.64-63.631 16.413-83.021 41.676-7.692 10.021-14.063 21.963-18.241 34.651 1.285-.166 2.57-.335 3.859-.482 37.518-4.285 75.453-2.949 110.638 11.944 69.029 29.22 114.462 95.6 147.298 160.153 9.672 19.013 19.11 38.333 27.599 57.907 7.061 16.278 13.163 33.098 15.934 50.691 2.995 19.021 2.397 38.317-.573 57.311-3.622 23.179-8.713 46.256-14.34 69.026C765.341 622.03 743.995 681.021 716 736.781c22.475-2.635 41.377-17.945 55.242-35.666a31.91 31.91 0 0 0 3.014-3.339c10.253-13.227 18.451-27.794 25.126-43.117 21.123-44.053 32.236-93.214 33.552-142.527a760.572 760.572 0 0 0 1.974-17.442c1.178-11.623 2.158-23.318 2.835-35.037 3.796-6.489 5.329-13.924 3.593-21.393z"/><g fill="#D8724A"><path d="M389.565 705.905h-.003l-.001.006zm99.347-559.309c3.989-.294 7.937-.514 11.811-.666.172-.046-7.392-.119-11.794-.186-.003.285-.012.569-.017.852z"/><path d="M732.098 546.62a264.815 264.815 0 0 0 5.742-5.647c7.525-7.638 11.926-19.113 11.211-29.236-.485-6.874-4.758-14.177-11.719-14.177-1.341 0-2.721.282-4.104.843-2.106.854-4.234 1.713-6.378 2.572 7.374-5.578 12.846-15.607 14.097-26.038.587-4.896-.407-12.154-3.98-16.53-2.931-3.587-7.105-4.578-11.679-2.704-.548.226-1.102.45-1.656.678l.01-.327-1.213.809c-.895.361-1.797.722-2.706 1.08a357.628 357.628 0 0 0 18.096-16.59c2.407-2.367 4.518-5.238 6.25-8.409a1.862 1.862 0 0 1-.119-.041c-38.364-13.08-75.01-31.092-109.82-51.774-15.844-9.414-31.367-19.378-46.462-29.953-16.508-11.562-32.521-23.458-46.547-38.035-24.057-25.003-47.267-56.069-51.47-90.969-1.239-10.281-3.496-20.498-5.22-30.576-10.376 58.765-36.756 76.195-74.014 122.592C380.525 351.411 341.56 423.354 296.058 439c14.492-.646 29.602-2.235 45.676-4.814-23.987 11.117-48.89 23.305-73.038 37.928-9.087 5.502-14.302 17.521-15.438 26.989-.752 6.267.573 12.182 3.545 15.822 2.839 3.478 7.045 4.725 11.893 3.483 19.785-5.051 37.147-9.639 53.095-14.049a1714.377 1714.377 0 0 0-11.636 5.403l-1.024.272-.032.244c-10.137 5.187-17.314 16.075-18.829 28.68-.751 6.274.568 12.206 3.557 15.863 2.846 3.484 7.024 4.717 11.858 3.44l2.078-.562c-.429.238-.95.477-1.377.717l-.396.057v.061c0 .601-1.969 1.2-3.047 1.802-8.615 4.799-14.127 17.222-15.305 27.019-.753 6.278.589 12.222 3.591 15.898 2.851 3.492 7.049 4.711 11.873 3.401a707.812 707.812 0 0 0 30.75-9.14c-7.368 7.719-13.825 24.206-11.312 34.549 1.652 6.807 6.934 10.001 14.759 8.79a386.962 386.962 0 0 0 21.853-4.033c-2.838 4.808-4.72 10.346-5.399 16.01-.561 4.666.106 11.735 3.834 16.297 2.903 3.558 7.09 4.631 11.754 2.964 3.332-1.194 6.668-2.383 10.006-3.564-3.782 5.377-6.286 11.816-7.083 18.458-.767 6.394.411 11.869 3.321 15.435 2.773 3.396 6.986 4.747 11.992 3.874.664-.117 1.327-.269 1.988-.388l.128-.226c6.746-1.185 13.503-2.657 20.27-3.868-3.551 8.549-5.324 18.243-1.904 24.388.946 1.707 2.616 3.077 5.476 3.727 1.154.477 2.505.732 4.071.734h.05c5.317-.01 10.653-.089 15.998-.214 10.217.089 20.369.107 30.34-.547.605 5.597 3.209 10.841 7.453 12.858 12.047 5.722 25.552 8.625 40.137 8.625 31.061 0 62.568-13.1 83.563-22.956 39.93-18.738 76.113-43.328 109.267-67.115l.921-.555-.007-.121c9.485-7.302 15.469-20.367 14.638-32.178-.586-8.305-5.301-13.671-12.009-13.671-.432 0-.869.024-1.31.07 10.72-9.234 19.698-19.247 27.213-30.315 5.195-7.652 9.572-19.474 6.279-29.704-1.393-4.312-4.301-7.232-8.041-8.218z"/></g><path fill="#EA2700" d="M760.982 933.316c-8.295-33.497-22.171-65.748-41.315-94.033a218.6 218.6 0 0 0-4.287-8.307c-.203-6.284-2.183-11.843-7.417-12.74-4.732-7.604-9.812-14.908-15.046-21.849-27.531-36.497-64.555-60.595-109.498-69.572-46.159-9.223-94.456-1.618-140.151 6.663-40.834 7.402-84.829 12.328-119.037 37.924-12.021 8.994-21.698 19.627-29.649 31.383-5.53 5.474-10.685 11.371-15.386 17.73a146.754 146.754 0 0 0-2.724 3.827c-9.781 11.952-19.201 24.225-28.98 35.999-6.244 7.52-11.358 23.153-4.426 31.809 2.065 2.581 4.449 3.672 6.926 3.779-1.234 8.947-1.899 18-2.07 27.057-1.908 3.412-2.919 7.338-2.222 10.398-3.112 5.532-4.077 12.796.431 15.851.953.644 1.914 1.274 2.875 1.906.852 3.825 3.269 4.65 6.005 3.835.415.255.83.507 1.246.759 1.558 3.194 4.396 5.3 9.03 5.282 11.119 6.214 22.654 11.659 34.478 16.457a28.11 28.11 0 0 0 .056 2.807c.637 8.368 6.068 13.537 14.471 11.699a175.585 175.585 0 0 0 14.892-3.971c19.903 6.261 40.281 11.097 60.562 15.06 44.808 8.76 91.391 13.013 136.995 14.288 55.792 1.558 143.839-4.348 185.854-49.291a590.644 590.644 0 0 0 38.717-15.765c7.04-3.156 11.569-11.318 9.67-18.985zm-48.586-19.497a95.609 95.609 0 0 0 6.24-9.997 88.76 88.76 0 0 1 .538 8.048 294.406 294.406 0 0 0-6.778 1.949zm-405.492 32.452c10.104-5.454 19.784-11.755 29.021-18.041 1.416-.965 2.811-1.959 4.217-2.938-9.167 7.422-17.848 15.35-25.826 23.962a212.977 212.977 0 0 1-7.412-2.983zM525.681 761.66c-10.328 4.641-20.403 9.892-30.279 15.456 4.013-4.531 7.129-9.774 8.784-15.571 7.172-.111 14.342-.099 21.495.115zm75.617 12.863c-11.052 6.868-22.266 13.461-33.522 19.979 4.043-7.423 7.479-15.232 10.144-23.492.312-.971.577-2.008.787-3.081 7.605 1.743 15.143 3.914 22.591 6.594zm-325.25 121.455c2.06-.96 4.1-1.955 6.129-2.97a201.107 201.107 0 0 0-7.943 10.653c.553-2.545 1.114-5.085 1.684-7.625.042-.019.087-.04.13-.058zm90.076 10.227c11.729-8.954 23.336-18.071 35.173-26.868 22.353-16.612 46.632-30.677 70.234-45.421 14.841-9.271 29.911-18.242 45.623-25.78a330.907 330.907 0 0 1-4.178 3.692c-9.673 8.396-17.365 13.873-28.916 21.779-12.223 8.365-24.812 16.185-37.458 23.892m72.051 10.014c-16.181 10.959-32.816 21.204-49.546 31.294 21.521-16.226 43.735-30.255 67.176-43.589a713.482 713.482 0 0 1-17.63 12.295zm-63.639 93.162c-4.33 2.979-8.096 7.085-10.865 11.786a965.23 965.23 0 0 1-13.5-.977 5620.374 5620.374 0 0 0 24.365-10.809zm244.755-92.289a165.571 165.571 0 0 0 5.646-8.436 229.58 229.58 0 0 1 1.943 4.437 347.412 347.412 0 0 0-7.589 3.999zm-45.355-29.109a500.66 500.66 0 0 0 11.493-13.877c1.827-2.29 3.465-5.036 4.75-8.012 3.377 3.17 6.651 6.45 9.827 9.823a430.485 430.485 0 0 0-26.07 12.066zm-8.097-41.553c-7.548 5.052-14.673 10.646-21.638 16.449 4.808-7.056 9.189-14.397 13.067-22.048a197.332 197.332 0 0 1 8.571 5.599zM513.376 969.429a198.722 198.722 0 0 0-5.597 5.858c-1.18-.03-2.358-.066-3.538-.103a919.043 919.043 0 0 0 9.135-5.755z"/><path fill="#D8724A" d="M567.541 719.824a44.047 44.047 0 0 0-2.613-1.096c-1.321-4.467-3.188-8.924-5.616-13.387-5.696-10.465-20.44 1.764-24.292 6.967a42.198 42.198 0 0 0-2.219 3.323c-8.473.848-16.81 2.595-24.219 4.433-16.457 4.083-33.786 14.268-41.872 29.07a98.322 98.322 0 0 0-.721-.771c-1.505-1.592-2.773-3.379-3.96-5.213.772 1.132-1.076-2.191-1.227-2.549-.64-1.503-1.098-3.072-1.558-4.634a96.43 96.43 0 0 0-.197-.654 31.285 31.285 0 0 0-.16-1.309c-.253-1.834-.312-3.69-.378-5.538l-.021-.579c.057-.337.127-.933.216-1.905.202-2.171.589-4.321.973-6.464 1.615-9.051-3.426-20.521-14.3-17.216-11.602 3.522-46.622 35.997-48.585 47.013-3.369 18.891 2.987 57.944 14.744 73.726 9.714 13.035 55.136 48.703 70.775 50.13 14.942 1.365 89.75-14.424 103.214-20.642 2.082-.624 34.39-61.073 36.37-61.929 0 0-10.638-50.132-27.524-47.183 4.472-5.768-27.689 11.712-24.646 5.21 3.491-7.453 8.281-23.955-2.184-28.803z"/><path fill="#AF543F" d="M580.715 734.557c-24.12 11.326-52.043 15.74-79.427 14.964-27.304-.771-57.856-6.408-74.495-26.401-5.153-6.192-13.803 9.193-12.172 13.376 21.488 55.261 105.566 61.719 159.625 38.753 11.332-4.813 18.468-15.916 20.109-26.307.999-6.318-2.377-19.67-13.64-14.385z"/><path d="M288.405 873.869c9.961.878 21.605 4.57 25.994 14.458 4.045 9.117 3.85 20.68 3.644 30.463-.238 11.078-1.881 22.139-3.012 33.146-.852 8.288-3.89 21.759 1.278 28.988 5.388 7.533 13.354-9.321 13.885-12.813 1.535-10.114-.317-21.44-.04-31.763.317-11.737.695-23.519-.801-35.195-1.262-9.848-4.952-18.213-12.17-25.099-7.925-7.556-18.435-6.773-28.304-4.355-.637.157-1.446 2.088-.474 2.17zm361.425 5.085c2.481 8.561 6.301 16.578 9.358 24.95 3.682 10.072 5.675 20.66 7.675 31.161 4.078 21.404 5.674 43.265 8.874 64.81.157 1.065.426 3.354 1.88 3.658.427.089.857.178 1.285.271 2.672.559 4.851-2.08 5.779-4.342 3.868-9.438.397-20.475-.825-30.344-1.509-12.194-3.525-24.324-5.928-36.377-2.373-11.894-5.7-23.519-10.406-34.705-3.475-8.263-7.869-17.371-16.926-20.248-.519-.17-.874.784-.766 1.166z"/><path d="M687.703 846.934c-14.052 5.145-26.22 13.396-35.723 25.001-1.585 1.935-3.088 4.862-2.281 7.443 1.031 3.307 4.347.298 5.425-1.185 8.175-11.258 19.189-19.364 31.756-25.148 1.92-.884 3.973-7.264.823-6.111z"/><path fill="#FF8A0B" d="M393.51 805.382c.253-.006.493.012.74.072l-.676-.175c.224.068.421.165.607.307l-.534-.439c.172.146.308.312.422.506l-.347-.645c.115.215.195.438.245.677l-.159-.801c.017.091.033.183.037.274.033.716.349 1.521 1.024 1.865.69.352 1.495.112 2.111-.268.854-.526 1.511-1.359 1.961-2.243.486-.955.632-1.853.662-2.905a4.343 4.343 0 0 0-.402-1.887c-.633-1.352-1.671-2.153-3.196-2.267-.845-.062-1.685.49-2.265 1.038-.8.756-1.389 1.753-1.719 2.8-.278.883-.404 1.907-.093 2.803.23.663.818 1.306 1.582 1.288z"/><path d="M409.083 393.815c-20.011 1.896-31.381 19.919-46.549 30.878-3.547.745-7.252.725-11.154-.412-3.224-.94-6.919 5.964-3.73 7.32 3.056 1.299 6.03 1.925 8.931 2.038.187 1.602 1.223 2.53 3.569 1.404a40.055 40.055 0 0 0 4.059-2.264c3.682-.95 7.233-2.603 10.663-4.634.646 1.178 1.838 1.959 3.35 1.368 7.605-2.972 14.972-6.642 22.737-9.164 12.868.577 26.142 9.004 35.661 17.303 3.337 2.907 6.19-3.335 6.245-5.924.209-9.859-.21-19.869-6.312-28.104-6.143-8.289-17.762-10.727-27.47-9.809zm255.385 28.977c-6.699-19.901-23.942-34.268-45.621-29.479-21.314 4.711-33.168 26.245-33.382 46.725-.047 4.558 5.524.07 5.729-2.637.026-.343.061-.682.093-1.021.574-.022 1.198-.18 1.859-.495 6.511-3.115 12.63-7.005 18.888-10.616.872-.099 1.743-.2 2.615-.287 5.093-.508 11.53-1.44 17.738-1.348 5.145.88 10.224 2.258 15.105 3.85 2.216.722 4.437-.843 5.804-3.044 1.306 1.812 2.431 3.763 3.4 5.704 2.834 5.673 9.105-3.392 7.772-7.352z" fill="#AF543F"/><path d="M427.955 437.625a37.276 37.276 0 0 0-1.162-1.426c-4.62-6.983-12.237-11.805-21.021-12.628-5.309-1.146-10.818-1.031-16.002.74-4.227 1.445-8.401 4.118-11.042 7.762-11.802 8.577-13.997 25.153-4.76 37.541 11.563 15.504 33.105 16.38 48.161 5.786 13.001-9.145 15.399-25.297 5.826-37.775zm-52.531 7.779a28.186 28.186 0 0 0-.562 3.289 11.18 11.18 0 0 1 .562-3.289z"/><circle fill="#FFF" cx="407.878" cy="444.906" r="11.29"/><path d="M444.444 436.968c-10.086-8.527-21.288-16.347-34.53-18.73-8.684-1.563-17.359.443-25.212 4.165-6.19 2.933-11.912 7.081-18.473 9.171-2.812.896-5.958 1.143-8.838.383-4.234-1.116-6.927-4.314-10.68-6.191-3.589-1.795-6.4 5.277-4.816 7.794 3.981 6.327 12.925 8.951 19.917 7.722 6.975-1.226 13.176-5.916 19.169-9.394 7.167-4.158 14.751-7.1 23.163-6.73 13.8.607 26.327 9.324 36.65 17.718 2.011 1.635 5.566-4.288 3.65-5.908zm-107.289-39.34c4.393-6.475 12.362-11.22 20.098-15.178 10.532-5.387 22.605-8.746 34.304-10.287 12.494-1.646 25.552-1.219 37.709 2.265a83.473 83.473 0 0 1 17.866 7.479c6.188 3.48 11.381 8.327 17.193 12.34 2.655 1.833 6.379-1.645 7.762-3.512 2.416-3.264 3.878-7.995 1.627-11.683-7.681-12.583-23.139-19.542-36.914-23.003-14.275-3.588-29.371-3.047-43.78-.626-23.426 3.937-50.158 15.219-62.612 36.635-1.182 2.033-1.898 5.566-.282 7.584 2.064 2.58 5.695-.047 7.029-2.014z"/><path d="M355.478 422.326c8.824 13.622 31.474 8.691 44.666 6.34 2.538-.452 5.139-7.608 1.663-7.438-12.276.601-32.88 6.713-41.546-5.359-2.166-3.017-6.497 3.812-4.783 6.457z"/><path fill="#AF543F" d="M722.067 516.998c-2.782 33.572-14.974 66.898-30.848 95.771a211.278 211.278 0 0 1-5.852 9.982c-19.884 26.515-45.29 48.871-74.247 65.016-38.809 21.636-83.96 30.275-127.989 24.37-13.85-1.858-27.561-5.072-40.733-9.7-18.208-7.682-35.355-17.935-50.854-30.185-9.874-7.804-18.994-16.522-27.295-25.968-18.372-24.531-29.887-53.764-37.329-83.396-9.545-38.005-12.401-77.564-12.865-116.634a852.993 852.993 0 0 1 .05-23.51c-8.562 4.802-17.751 8.31-27.283 10.003-1.114 21.426-.551 42.881 1.695 63.934 5.205 48.772 19.141 98.817 46.441 140.019 42.564 64.234 118.747 104.656 196.202 98.16 40.307-3.38 77.863-19.542 109.469-44.503 23.86-18.845 55.386-40.267 70.418-66.317 13.581-19.794 12.115-43.506 20.224-66.086 5.785-16.108 10.229-33.314 12.846-50.225 1.731-11.195 1.729-22.536 1.402-33.875-7.314 14.641-15.274 28.959-23.452 43.144z"/><path d="M609.099 476.874c15.057 10.594 36.599 9.719 48.162-5.788 9.238-12.386 7.041-28.962-4.761-37.539-2.639-3.644-6.815-6.319-11.041-7.763-5.183-1.771-10.692-1.885-16.002-.741-8.783.825-16.401 5.645-21.02 12.628-.399.47-.791.942-1.162 1.428-9.573 12.477-7.175 28.633 5.824 37.775zm47.27-26.707a28.328 28.328 0 0 0-.562-3.291c.334 1.026.539 2.111.562 3.291z"/><circle fill="#FFF" cx="623.351" cy="446.378" r="11.292"/><path d="M589.68 443.637c10.223-8.361 22.312-16.438 35.935-17.04 8.538-.378 16.294 3.18 23.482 7.401 5.882 3.454 11.498 7.46 18.29 8.876 7.745 1.614 16.535-3.062 21.112-9.151 1.545-2.056 2.122-8.74-2.162-6.178-3.317 1.985-5.81 4.648-9.621 5.797-2.868.864-6.096.621-8.943-.207-6.948-2.02-13.039-6.496-19.547-9.542-22.09-10.339-42.973.686-60.231 15.192-2.355 1.98-1.903 7.787 1.685 4.852zm8.17-89.673c-16.759 3.631-32.346 12.16-44.068 24.732-4.037 4.33-7.657 11.039-5.545 17.137 1.941 5.604 8.447 4.322 11.768.761 9.459-10.145 21.292-16.079 34.773-19 9.657-2.091 16.356-26.508 3.072-23.63zm100.768 31.332c-16.918-22.556-44.794-30.381-71.609-33.279-10.144-1.097-19.485 22.968-7.633 24.249 23.998 2.594 48.953 9.25 64.109 29.458 6.96 9.28 21.309-12.194 15.133-20.428z"/><path d="M671.706 418.503c-4.048 5.738-12.448 5.973-18.806 5.908-7.066-.072-14.056-1.379-21.106-1.709-3.092-.145-6.112 6.841-2.371 7.534 14.17 2.625 36.16 6.718 45.592-7.595 2.272-3.45-.112-8.668-3.309-4.138zm-284.79 326.385c-1.926 40.853 8.8 84.386 39.501 113.189 32.057 30.075 82.294 36.223 122.662 20.801 56.246-21.487 82.352-87.569 68.245-144.146-.789-3.166-4.364-3.184-6.636-1.782-3.556 2.192-6.349 7.245-5.849 11.479 2.528 21.415 3.867 42.026-2.638 62.936-5.209 16.741-15.178 31.757-29.784 42.614-33.923 25.214-85.777 26.086-121.635 4.649-39.087-23.366-54.041-71.515-52.934-114.774.064-2.523-2.124-4.441-4.573-3.697-3.353 1.017-6.198 5.312-6.359 8.731z"/><path fill="#AD4040" d="M704.451 517.287c0 14.873-12.539 26.933-28.01 26.933s-28.012-12.06-28.012-26.933c0-14.877 12.541-26.934 28.012-26.934s28.01 12.057 28.01 26.934z"/><ellipse fill="#AD4040" cx="361.53" cy="518.76" rx="28.011" ry="26.935"/><path fill="#D8724A" d="M289.269 450.991c-11.65-11.084-29.208-25.788-46.687-18.788-19.642 7.867-30.061 29.937-31.789 50.025-2.119 24.614 7.999 73.113 42.891 63.341 14.312-4.011 25.739-17.013 34.006-28.608 5.741-8.053 11.68-22.75 4.427-31.809-7.219-9.01-19.543.311-24.289 6.968a108.76 108.76 0 0 1-4.434 5.817c-2.812 3.432 4.052-4.439 1.152-1.317-.676.726-1.393 1.42-2.105 2.11-.665.644-1.367 1.247-2.066 1.85-2.809 2.415 4.57-3.386 1.67-1.312-1.228.877-2.542 1.622-3.89 2.294 6.244-3.115 2.058-.993.153-.531-2.647.644 4.637-.486 1.98-.234-.565.057-1.133.046-1.702.034-1.662-.03-5.543-1.283.185.381-1.228-.357-2.384-.938-3.485-1.578-3.564-2.066.339.526-.027.198-.902-.803-1.708-1.713-2.482-2.637-.819-.979-1.545-2.032-2.242-3.099a39.903 39.903 0 0 1-1.03-1.703c-1.368-2.354 2.233 4.427.494.809-1.248-2.601-2.21-5.334-3.036-8.096a64.015 64.015 0 0 1-1.109-4.346c-.711-3.154.947 5.043.375 1.856a73.091 73.091 0 0 1-.454-2.994c-.401-2.974-.564-5.974-.564-8.97 0-3.386-.247 5.954-.088 2.599.034-.72.096-1.435.156-2.151.119-1.388.32-2.77.557-4.148.795-4.659-1.852 6.9-.26 1.422a34.63 34.63 0 0 1 .599-1.804c1.156-3.279-2.978 6.958-1.566 3.821 2.377-5.292-2.303 3.333-1.449 2.078 2.939-4.326-4.978 4.735-1.132 1.348-5.458 4.804-4.298 3.204-2.672 2.145 1.302-.843 3.908-1.818-2.601 1.091.991-.442 2.05-.702 3.11-.897-6.111 1.134-2.119.318-.207.46.65.048 1.293.161 1.933.272 2.479.43-4.317-1.348-.513-.106 3.364 1.095 6.485 2.891 9.444 4.795 1.858 1.196 3.622 2.534 5.362 3.896-3.215-2.516.15.153.656.595 1.374 1.194 2.695 2.441 4.014 3.696 8.312 7.907 18.68.616 24.291-6.966 5.126-6.927 12.536-24.088 4.424-31.807z"/><path d="M282.547 446.286c-16.642-10.939-39.856-20.774-58.003-7.4-14.659 10.802-18.624 31.664-17.568 48.726 1.126 18.212 8.458 37.926 22.853 49.752 15.944 13.101 40.492 11.867 54.926-3.044 1.21-1.251 5.304-10.919.476-10.114-8.824 1.477-16.267 6.49-25.455 7.02-7.467.426-14.514-1.974-20.715-6.009-12.934-8.425-20.248-24.874-22.648-39.614-1.979-12.16-1.662-28.258 8.668-36.812 15.142-12.541 38.887-1.755 53.581 5.831 3.019 1.554 6.741-6.456 3.885-8.336z"/><path d="M235.993 490.456c6.096-7.496 14.259-13.221 24.202-13.35 10.964-.137 13.394 9.587 17.545 17.544 1.896 3.633 6.077-4.402 6.23-5.748 1.395-12.227-4.768-24.402-18.319-24.642-13.277-.236-25.215 10.989-32.227 21.091-1.828 2.641-.928 9.406 2.569 5.105z"/><path d="M284.4 484.276c-7.902-.327-17.813-.405-23.405 6.208-5.531 6.543-4.44 16.445.303 23.129 2.031 2.865 5.36-4.247 4.753-6.154-.867-2.719-4.904-9.868-1.99-12.39 4.644-4.013 12.684-4.12 18.438-4.424 2.307-.124 4.747-6.254 1.901-6.369z"/><path fill="#D8724A" d="M808.716 475.784h-.002l-.002.004z"/><path d="M782.845 442.273c9.274 2.06 18.718 3.74 28.228 4.888-3.706-3.381-7.951-6.155-12.75-8.076-7.852-3.145-15.716-1.904-23.056 1.415 2.518.619 5.044 1.212 7.578 1.773zm30.303 6.908c-13.55-1.515-27.029-4.168-40.201-7.562-8.09 4.183-15.449 10.675-21.312 16.251-7.64 7.271-1.512 22.913 3.511 30.497-2.312.252-4.504 1.35-6.357 3.664-7.254 9.061-1.315 23.754 4.426 31.806 8.268 11.599 19.693 24.603 34.006 28.611 34.894 9.772 45.01-38.727 42.892-63.341-1.226-14.237-6.823-29.461-16.965-39.926zm-22.241 50.902a.451.451 0 0 0-.022.044c-.17.285-.333.573-.514.852-.697 1.065-1.422 2.12-2.243 3.097a27.779 27.779 0 0 1-1.971 2.131l-.538.309c-.668.387-1.358.746-2.068 1.053a8.487 8.487 0 0 1-1.232.144c-.129.004-.259.002-.389.004a25.949 25.949 0 0 1-1.486-.549 22.697 22.697 0 0 1-.96-.619 32.23 32.23 0 0 1-1.019-.938 68.688 68.688 0 0 1-1.51-1.497 108.101 108.101 0 0 1-3.168-4.148c2.246-.3 4.471-1.325 6.564-3.319 1.319-1.253 2.641-2.501 4.015-3.696.261-.228 1.276-1.043 1.764-1.438 1.386-1.063 2.787-2.106 4.255-3.053 1.566-1.007 3.18-1.981 4.85-2.841-.036.294-.062.591-.103.886a93.005 93.005 0 0 1-.339 2.24 56.8 56.8 0 0 1-.85 3.244c-.825 2.762-1.788 5.494-3.036 8.094zm11.274-16.594c.085.002.17.006.252.01.583.489.741.759-.252-.01z" fill="#D8724A"/><path d="M782.845 442.273c11.874 2.637 24.021 4.65 36.235 5.722a34.645 34.645 0 0 0-2.72-2.229c-10.778-7.943-23.343-7.699-35.257-3.9.582.133 1.16.278 1.742.407zm-4.736.631c-7.065 2.619-13.826 6.367-19.752 10.261-2.856 1.878.867 9.89 3.886 8.333 14.696-7.582 38.44-18.368 53.582-5.827 10.33 8.552 10.649 24.65 8.669 36.81-2.402 14.74-9.715 31.189-22.648 39.612-6.201 4.037-13.248 6.437-20.716 6.011-9.188-.527-16.631-5.542-25.455-7.018-4.828-.807-.732 8.861.477 10.112 14.434 14.913 38.98 16.143 54.925 3.044 14.396-11.827 21.728-31.54 22.853-49.752.933-15.077-2.061-33.118-12.885-44.565-14.434-1.123-28.841-3.619-42.936-7.021z"/><path d="M804.91 497.335c-6.094-7.493-14.258-13.221-24.202-13.35-10.963-.137-13.393 9.587-17.544 17.545-1.896 3.633-6.077-4.402-6.23-5.748-1.395-12.225 4.767-24.4 18.319-24.643 13.277-.236 25.215 10.99 32.225 21.092 1.831 2.641.931 9.406-2.568 5.104z"/><path d="M756.504 491.156c7.902-.327 17.812-.405 23.404 6.21 5.532 6.541 4.441 16.445-.302 23.129-2.032 2.864-5.36-4.247-4.753-6.156.866-2.719 4.905-9.868 1.991-12.388-4.645-4.015-12.685-4.122-18.439-4.426-2.306-.123-4.748-6.254-1.901-6.369z"/><path d="M757.934 435.756c-.01-.367-.012-.736-.021-1.104-4.523-1.895-9.038-3.807-13.602-5.579.022.789.034 1.578.053 2.367a394.286 394.286 0 0 0 13.57 4.316zm-13.536-2.701c1.098 56.673-6.924 116.344-26.547 162.429-28.498 66.932-83.524 115.913-151.258 131.348-76.111 17.347-160.775-4.854-214.975-65.675-43.666-49-61.632-128.191-62.717-235.173-4.378 1.929-8.704 3.916-12.934 6.022-.254 6.032-.457 10.406-.588 12.178-5.928 81.359 13.075 177.459 66.38 238.667 53.157 61.047 135.105 84.245 211.016 70.957C623.3 741.46 681.902 693.457 717.08 627.993c28.409-52.87 42.185-123.438 40.884-190.576a425.746 425.746 0 0 1-13.566-4.362z"/><path d="M430.009 730.162c-53.883.244-115.062.184-150.711 47.957-15.787 21.154-24.134 46.357-29.039 72.026-4.903 25.655-7.232 53.003-4.322 78.92.604 5.401 5.416-1.221 5.845-3.418 8.855-45.376 5.757-96.168 33.42-135.774 31.286-44.799 94.312-37.726 141.251-47.804 3.796-.812 9.157-11.933 3.556-11.907zm145.637 16.574c25.529-2.014 52.845-.757 77.11 8.052 21.852 7.936 38.531 23.359 52.282 41.652 14.656 19.499 23.294 42.011 31.438 64.763 8.288 23.158 14.982 47.169 19.687 71.301 1.425 7.315 11.274-5.012 10.562-9.721-7.783-51.428-16.817-103.222-48.786-145.932-14.087-18.819-34.246-33.305-56.581-40.51-28.539-9.204-57.382-3.986-84.823 6.321-1.039.393-2.738 4.218-.889 4.074z"/><path fill="#FFF" d="M549.233 587.523c1.99-3.076 3.978-8.52.797-10.31-.11-.064-.224-.112-.337-.161-.004-.101-.004-.199-.011-.301-.074-1.174-.462-2.737-1.45-3.252-2.103-1.096-4.672.562-6.863 3.121-5.188-3.926-11.114-3.819-16.479-.937-.301-1.937-.791-3.926-1.494-6.04-.857-2.583-2.802-2.837-4.628-1.531-1.944 1.39-3.552 3.103-4.84 5.021-.793.271-1.598.871-2.33 1.725-.271.317-.528.654-.77 1.009a34.453 34.453 0 0 0-1.521-4.9c-.01-.044-.021-.089-.028-.133l-.019.024a32.429 32.429 0 0 0-.547-1.315c-1.185-2.666-4.357-.545-5.52.807a12.202 12.202 0 0 0-1.775 2.771c-.333-.725-.673-1.453-1.029-2.189-1.669-3.442-4.39-1.049-6.365 2.405-.256-.337-.501-.687-.763-1.02-1.977-2.51-4.389-1.182-6.217 1.451-.117-.159-.229-.321-.351-.48-2.582-3.428-5.35.452-6.676 4.614-2.298-2.038-4.693-3.902-7.213-5.514-2.271-1.451-5.227 4.993-3.454 6.89 5.562 5.947 10.569 12.392 15.007 19.57 2.466 5.438 5.575 10.414 9.373 14.629 3.63 4.027 7.086-2.222 8.216-7.063.32-.269.624-.569.912-.896.022.024.044.048.068.07 2.343 2.273 4.735-1.111 6.248-4.516.628.374 1.297.374 1.967.109.02 1.075.284 2.056.933 2.801 5.349 6.135 12.573 7.696 19.153 3.421 3.834-2.491 6.689-6.268 8.578-10.719 3.018-1.862 5.599-3.73 8.256-6.94.315-.378.747-1.191 1.172-2.221z"/><path fill="#FF617F" d="M569.008 581.623c-.367-4.976-3.022-4.101-5.229-1.798-.237-.613-.598-1.13-1.129-1.465-2.362-1.481-5.065 2.163-5.899 4.48-1.777 4.936-3.92 9.539-6.544 13.608-8.062 3.789-14.918 10.707-23.061 14.214-.585.254-1.255.827-1.915 1.588-3.914.186-7.866-.267-11.617-1.037-15.198-3.127-29.43-12.872-42.243-23.634a80.14 80.14 0 0 1-5.201-8.485c4.512-3.438 8.889-7.169 13.413-10.588.337.968 1.018 1.713 2.152 2.043 9.378 2.73 19.208 3.261 28.812 2.619 1.515-.101 2.922-1.382 3.903-3.109 3.978-.125 7.954-.246 11.904 0 9.315.583 18.297 3.019 26.511 8.585 2.235 1.516 4.739-1.804 5.603-5.311 3.637.63 7.711-9.99 3.928-12.055-10.342-5.645-20.972-9.119-32.046-11.824-2.184-.533-4.489 3.161-5.103 6.583-.355-.012-.71-.024-1.065-.034a249.74 249.74 0 0 0-13.183-.022c-2.381-2.814-5.155-4.917-8.655-5.978-4.82-1.465-10.197.823-14.496 3.363-9.14 5.404-16.733 13.834-25.108 20.765-.558.133-1.162.657-1.721 1.388a73.875 73.875 0 0 1-4.203 3.095c-2.171 1.469-3.149 8.674.407 6.592a66.325 66.325 0 0 0 2.494-1.546l.068.182a9.254 9.254 0 0 0-.276.424 11.531 11.531 0 0 0-1.504 7.971c2.558 15.141 8.931 28.135 19.458 36.762 9.698 7.949 21.972 10.485 33.417 9.408 8.358-.789 16.555-3.494 24.088-7.832 6.809 1.785 13.883-.307 20.146-6.715 9.872-10.102 15.051-26.595 13.894-42.237zm-92.214 29.203a71.78 71.78 0 0 0 6.528 6.069 39.184 39.184 0 0 1-6.528-6.069z"/><path d="M452.142 582.42c41.076-6.554 82.356-2.42 123.402 2.241 2.855.322 5.45-7.998 2.139-8.371-41.438-4.65-82.938-8.472-124.299-.714-2.032.383-3.654 7.229-1.242 6.844z"/><path d="M548.323 582.133c-6.004 16.853-24.947 21.606-38.165 21.695l-2.238 8.76c.265-.015.535-.034.788-.129 2.199-.832 3.61-4.599 2.991-7.229-.434-1.836-3.062-2.118-4.268-2.58-3.371-1.289-6.66-2.856-9.878-4.645-8.152-4.523-15.995-11.521-17.934-22.871-.738-4.327-5.485 2.002-5.125 4.903 1.447 11.641 8.599 19.404 16.647 24.757 3.414 2.271 7.049 3.999 10.729 5.485 1.238.499 2.487.951 3.739 1.389.391.137.779.272 1.169.411 1.043.369.17.418-.16-.932l2.99-7.229c.183-.027.364-.061.548-.09-2.94.197-5.654 8.836-2.238 8.76 16.343-.357 37.057-7.737 44.059-28.161 1.574-4.588-1.981-6.989-3.654-2.294z"/><path d="M452.224 575.291c-1.156 63.761 71.286 82.729 106.21 49.269 11.976-11.474 18.156-29.206 16.818-47.817-.338-4.701-4.536.513-4.444 3.377.429 13.578-3.045 25.881-11.242 35.172-8.12 9.202-19.195 13.742-29.908 15.796-22.215 4.259-49.089-3.355-63.771-25.566-6.303-9.535-9.162-21.437-9.19-33.625-.006-1.732-1.333-2.364-2.435-1.526-1.374 1.039-2.004 3.022-2.038 4.92z"/><path d="M435.624 572.463c13.713 13.57 27.454.865 39.031-9.924 5.79-5.397 11.883-11.227 19.2-12.856 9.321-2.074 15.985 6.931 21.79 14.339 2.209 2.82 5.207-3.902 3.852-6.405-4.683-8.644-12.505-16.108-21.245-16.157-7.469-.042-14.313 5.354-20.144 10.538-11.806 10.501-25.009 27.287-39.763 13.887-1.939-1.763-4.679 4.639-2.721 6.578z"/><path d="M518.339 563.543c6.297-7.406 13.8-13.273 22.794-11.035 6.929 1.723 12.947 8.086 18.271 13.42 10.979 11.002 23.799 22.758 37.366 10.092 1.298-1.212 2.279-3.11 2.151-5.199-.11-1.777-1.336-2.556-2.57-1.613-6.408 4.898-12.62 5.643-19.427 1.492-6.648-4.057-12.158-10.681-18.003-16.194-5.531-5.216-11.685-9.857-18.794-10.495-9.163-.819-17.228 6.49-23.325 14.086-1.901 2.366-1.546 9.072 1.537 5.446zm-19.36-449.252c-20.153 26.646-29.509 59.535-23.352 92.634 6.27 33.7 25.338 63.719 47.549 89.234 26.053 29.928 57.539 55.163 90.442 77.148 33.002 22.052 68.3 40.907 105.073 55.854 24.708 10.043 51.234 19.127 77.829 22.349 7.812.946 15.229-17.108 5.953-18.916-72.37-14.102-141.371-49.026-200.757-92.075-30.98-22.458-59.906-48.482-82.817-79.271-18.606-25.004-33.067-54.644-32.364-86.378.417-18.831 7.719-36.555 19.172-52.163 1.978-2.696 3.938-7.733 1.501-10.776-2.479-3.096-6.566.162-8.229 2.36z"/><path d="M486.071 158.792c7.1-16.25 16.325-32.843 27.783-45.09 9.3-9.94 19.644-17.037 32.454-21.009 25.501-7.905 53.18.767 76.328 13.234 29.596 15.939 55.054 39.058 78.017 63.338 24.375 25.774 46.141 54.109 65.311 83.943 15.698 24.429 29.7 49.412 38.59 77.313 16.734 52.522 27.479 107.173 26.773 162.463-1.097 85.906-35.15 162.543-78.235 235.183l9.744-7.648c-42.052 1.731-84.101 3.529-126.154 5.202-5.414.215-9.247 5.616-10.736 10.342-1.021 3.242-1.451 11.239 4.012 11.021 22.662-.9 45.326-1.735 67.989-2.603 14.547-.558 29.094-1.114 43.642-1.671l12.173-.467c.714-.026 1.427-.054 2.14-.081 7.197-.276 10.441-8.64 13.604-14.01 23.912-40.615 45.085-83.104 59.283-128.153 14.342-45.502 20.416-93.108 18.358-140.752-1.162-26.902-5.124-53.577-10.657-79.906-5.341-25.415-11.866-51.299-21.311-75.528-10.786-27.67-26.485-53.643-43.083-78.161-20.004-29.55-42.667-57.459-67.949-82.659-23.496-23.419-50.113-45.27-80.367-59.341-24.729-11.501-53.441-17.081-79.577-6.89-32.824 12.798-53.147 44.663-65.975 75.915a378.302 378.302 0 0 0-1.46 3.612c-.851 2.139-.93 5.989 1.489 7.222 3.116 1.59 6.722-2.319 7.814-4.819z"/><path d="M270.645 455.68c33.646-14.911 62.394-40.442 88.418-65.942 31.872-31.229 60.862-66.024 84.983-103.59 10.075-15.69 19.381-31.936 26.831-49.049 3.365-7.729 6.414-15.612 8.817-23.695 2.207-7.421 4.902-15.957 3.884-23.735-.386-2.949-2.229-5.48-5.535-4.477-3.626 1.102-6.077 4.896-7.191 8.297-2.924 8.918-2.872 13.259-5.602 22.07-1.197 3.863-2.576 7.669-4.035 11.44-1.266 3.272-2.785 6.736-4.903 11.296-8.588 18.481-18.598 34.815-29.891 51.306-24.811 36.232-53.998 69.74-86.005 99.78-20.765 19.49-43.455 39.021-69.296 51.474-3.033 1.462-5.021 5.713-5.427 8.859-.351 2.712 1.131 7.66 4.952 5.966z"/><path d="M507.018 112.189c-26.751-40.352-78.432-31.447-116.276-13.926-43.737 20.249-78.43 52.989-108.581 89.979-32.587 39.979-60.217 85.016-79.693 132.811-17.211 42.235-21.797 86.947-21.187 132.241 1.087 80.757 17.077 161.832 38.256 239.561 2.015 7.396 4.098 14.774 6.319 22.111 1.982 6.545 9.079 8.218 15.041 9.78 15.715 4.118 32.012 6.019 48.136 7.712 19.307 2.026 38.72 3.279 58.13 3.646 13.292.251 26.561.079 39.705-2.05 7.039-1.141 11.986-18.652 2.22-17.07.655-.105-2.285.26-2.974.327-1.504.146-3.011.248-4.519.342-3.797.236-7.588.451-11.392.559-8.777.249-17.566.108-26.341-.171-19.453-.62-38.899-2.103-58.229-4.363-13.971-1.633-29.182-3.301-41.968-7.752-1.666-.58-3.315-1.265-4.816-2.199-1.341-.834.817 1.046-.293-.296-.688-.831.782 1.85.493.909a424.333 424.333 0 0 1-1.544-5.161c-19.746-67.165-33.862-136.726-39.969-206.479-3.83-43.741-5.257-89.979 5.062-133 11.189-46.651 36.305-90.326 63.476-129.381 26.859-38.608 58.179-75.43 98.19-100.841 33.839-21.491 83.718-42.952 120.792-16.895 4.78 3.36 8.93 7.72 12.614 12.227 4.751 5.812 12.673-7.604 9.348-12.621z"/></svg>