<svg xmlns="http://www.w3.org/2000/svg" xmlns:xlink="http://www.w3.org/1999/xlink" width="1030" height="1030" viewBox="0 0 1030 1030"><defs><path id="a" d="M1020.379 515.001c0 279.115-226.266 505.377-505.379 505.377-279.111 0-505.377-226.264-505.377-505.377S235.888 9.622 515 9.622c279.113 0 505.379 226.266 505.379 505.379z"/></defs><use xlink:href="#a" overflow="visible" fill="#0C7FF2"/><clipPath id="b"><use xlink:href="#a" overflow="visible"/></clipPath><g clip-path="url(#b)"><path fill="#22A1FF" d="M1021.414 517.214c0 279.115-226.266 505.377-505.379 505.377-279.112 0-505.377-226.264-505.377-505.377S236.923 11.835 516.035 11.835c279.113 0 505.379 226.266 505.379 505.379z"/><path fill="#0C7FF2" d="M64.591 301.339c65.699-60.766 147.473-101.363 226.168-142.393 40.814-21.281 80.746-43.73 120.539-66.854 43.205-25.111 87.469-49.598 136.053-62.561-.955-12.574-1.91-25.146-2.863-37.723C469.49 62.96 382.009 118.8 296.63 176.392c-43.967 29.658-87.432 59.996-129.213 92.682-20.033 15.672-39.123 32.311-60.043 46.828-21.764 15.1-44.412 28.885-66.553 43.41-20.463 13.42-40.42 27.699-58.93 43.736-7.094 6.145-11.697 17.17-10.986 26.521.547 7.209 5.93 13.973 13.848 11.199 98.168-34.393 184.332-95.652 268.734-154.941 42.164-29.617 84.252-59.42 128.115-86.494 19.998-12.342 40.242-24.098 59.857-37.074 21.045-13.918 41.816-28.238 62.965-42 37.358-24.314 76.481-48.123 120.034-59.316l-6.715-33.35c-3.625 4.496-11.992 11.266-18.965 15.918-10 6.67-20.648 12.365-31.156 18.178-23.027 12.742-45.092 27.219-67.553 40.936-51.305 31.332-102.533 62.797-153.852 94.113-51.111 31.188-102.326 62.211-153.791 92.816-45.84 27.262-92.238 53.613-137.738 81.449-57.197 34.99-113.604 73.15-161.328 120.578-6.828 6.783-11.732 16.688-10.986 26.52.559 7.365 5.898 13.781 13.85 11.199 51.945-16.859 99.75-43.609 147.504-69.639 50.273-27.404 102.162-51.779 153.584-76.934 106.725-52.203 213.545-104.201 320.028-156.898 43.588-21.572 87.408-42.348 128.738-68.076 36.969-23.018 73.674-48.996 115.463-62.539-.955-12.574-1.908-25.146-2.865-37.721-32.514 34.457-76.607 55.146-117.219 78.289-50.043 28.516-97.459 62.32-145.696 93.777-48.672 31.742-97.557 62.701-143.461 98.404-36.26 28.201-71.637 58.477-113.41 78.264C166.968 440.29 75.417 461.753 37.56 541.29c-3.076 6.463-5.365 14.316-2.91 21.402 1.744 5.039 7.496 9.094 12.934 6.588 100.086-46.102 193.518-104.332 287.449-161.586 46.518-28.355 93.289-56.326 141.229-82.229 49.124-26.541 100.223-49.029 149.866-74.543 51.182-26.305 101.262-54.686 151.102-83.426-.984-12.998-1.971-25.994-2.959-38.99-89.506 66.279-184.818 124.035-280.237 181.279-95.316 57.186-189.701 115.123-280.916 178.699C148.345 533.63 70.7 560.08 20.878 624.457c-8.809 11.383-11.102 42.221 10.986 31.381 208.225-102.16 408.939-218.58 611.709-330.955 81.107-44.949 162.6-89.213 245.033-131.684l-2.959-38.988C684.77 269.935 489.943 395.938 300.087 528.915 223.16 582.794 147.083 637.888 71.74 693.958c-9.188 6.836-16.062 17.881-15.16 29.76.734 9.699 9.59 15.234 18.119 9.229 43.633-30.723 91.014-55.527 138.016-80.598 48.867-26.064 96.422-53.967 143.455-83.207 97.824-60.818 193.596-125.836 295.819-179.223 79.945-41.756 155.398-91.654 236.617-131.035l-7.131-35.752C726.443 362.759 545.963 469.948 368.333 577.765c-93.445 56.721-186.838 113.709-276.602 176.166-9.32 6.484-16.045 18.146-15.162 29.758.801 10.539 9.316 14.158 18.121 9.23 202.516-113.371 408.092-221.234 609.108-337.291 82.609-47.695 164.387-96.848 244.781-148.197-3.662-10.461-7.324-20.92-10.984-31.381-4.996 7.512-10.377 14.717-16.098 21.689-5.041 6.145-10.836 12.266-18.375 19.707-14.123 13.939-29.66 26.809-45.09 38.273-35.396 26.297-73.572 48.73-112.08 70.107-37.449 20.789-75.582 40.312-113.117 60.945-42.605 23.422-83.598 49.658-124.551 75.828-65.34 41.752-130.41 84.795-198.977 121.15-60.084 31.857-124.109 59.162-173.205 107.688-6.838 6.762-11.73 16.707-10.986 26.521.623 8.164 5.797 12.766 13.852 11.199 27.105-5.268 51.928-18.041 75.645-31.76 24.854-14.379 49.684-28.809 74.537-43.191a10614.59 10614.59 0 0 0 152.23-89.771c49.531-29.773 100.038-57.951 150.668-85.822 50.375-27.73 102.131-51.93 153.662-77.322 67.275-33.148 131.119-72.73 197.158-108.186l-10.984-31.383c-5.504 7.193-9.135 10.836-17.041 18.057-7.75 7.076-15.977 13.312-24.516 19.367-18.807 13.338-38.713 25.094-58.617 36.699-43.184 25.18-85.117 51.793-126.223 80.277-91.951 63.715-180.732 131.844-272.467 195.85-62.605 43.68-127.018 85.396-195.645 119.062l2.959 38.99c48.338-27.512 98.725-51.109 148.234-76.383 25.086-12.807 49.887-26.168 74.098-40.572 24.189-14.391 46.895-30.896 69.809-47.201 23.254-16.545 46.578-32.992 70.564-48.465 23.51-15.168 48.086-28.535 72.547-42.078 48.809-27.02 97.928-53.48 146.338-81.211 61.396-35.17 121.518-72.686 178.059-115.307l-10.984-31.381c-59.982 69.826-146.119 119.631-225.498 166.939-91.051 54.268-181.006 110.705-269.409 169.203-41.195 27.26-81.383 55.869-121.203 85.092-39.395 28.914-78.959 57.732-121.234 82.348-9.594 5.584-15.99 18.82-15.16 29.758.842 11.066 9.201 13.475 18.119 9.23 100.961-48.053 196.105-107.057 291.247-165.518 47.797-29.369 95.674-58.625 144.385-86.459 47.674-27.238 96.568-52.016 145.609-76.67 75.025-37.713 150.203-76.055 218.389-125.428-2.375-11.916-4.754-23.834-7.131-35.75-33.609 33.213-76.088 55.598-117.895 76.719a4044.129 4044.129 0 0 0-133.637 70.689c-99.297 54.922-199.127 109.008-295.387 169.18-39.695 24.812-79.178 50.248-116.168 78.982-32.521 25.262-64.553 53.299-102.398 70.43-8.953 4.055-15.02 11.32-17.994 20.766-1.854 5.883-3.031 24.236 8.273 22.725 45.449-6.074 87.678-22.926 128.725-42.799 43.947-21.275 85.809-46.65 127.571-71.857 92.4-55.779 188.994-103.605 284.82-153.17 30.955-16.012 61.799-31.988 92.061-49.281 29.732-16.99 59.461-33.979 89.189-50.969 9.617-5.496 15.986-18.891 15.16-29.758-.803-10.576-9.309-14.111-18.121-9.23-104.188 57.711-206.854 118.117-308.766 179.746-51.145 30.93-102.088 62.188-152.947 93.584-44.668 27.572-85.542 60.625-129.553 89.188-21.203 13.756-43.262 26.518-67.016 35.328-.436 13.652-.871 27.305-1.309 40.957 171.867-107.34 370.172-160.402 549.303-253.342 47.312-24.547 93.094-52.107 136.094-83.643 9.217-6.758 16.059-17.938 15.16-29.76-.76-9.986-9.484-14.867-18.119-9.229C824.266 729.44 638.676 860.724 439.865 970.419a2775.644 2775.644 0 0 1-59.695 31.969l7.133 35.752c73.348-58.309 162.889-92.967 248.28-129.312 44.957-19.137 89.818-38.742 132.914-61.836 22.314-11.959 44.49-24.162 66.002-37.533 23.461-14.584 46.564-29.75 71.244-42.24l-14.291-26.021c-3.254 5.631 2.838-4.268-.768 1.271-1.092 1.672-2.266 3.291-3.438 4.908-1.197 1.656-2.473 3.256-3.742 4.855-.225.285-4.666 5.496-1.594 2.025-6.42 7.246-13.553 13.844-20.877 20.158-14.344 12.365-31.18 23.664-48.141 34.455-35.631 22.666-73.098 42.25-109.025 64.42-39.857 24.594-76.527 54.361-114.17 82.133-42.475 31.334-86.008 61.828-133.524 85.104-8.504 4.166-17.229 7.842-26.043 11.295.955 12.572 1.908 25.146 2.865 37.721 61.736-53.27 143.856-80.49 220.313-108.334 80.787-29.42 162.883-61.467 226.771-120.973 7.469-6.955 14.518-14.354 21.268-22.004 7.162-8.117 13.979-19.857 10.07-31.133-3.469-10.01-15.477-8.066-21.375-1.381-114.23 129.438-307.65 132.047-443.067 231.178a405.641 405.641 0 0 0-25.289 20.133c-7.098 6.125-11.693 17.186-10.986 26.523.529 6.965 5.992 14.279 13.852 11.197 97.135-38.068 176.129-109.006 260.493-168.248 66.982-47.033 147.926-76.375 205.264-136.568 10.398-10.916 19.23-22.635 26.766-35.684 7.102-12.287 4.061-35.305-14.291-26.02-23.682 11.982-45.959 26.396-68.42 40.475-22.416 14.049-45.568 26.727-68.83 39.299-42.02 22.705-85.975 41.566-129.891 60.242-90.248 38.379-182.229 75.838-259.649 137.379-7.225 5.744-11.672 17.469-10.984 26.521.818 10.785 9.258 13.842 18.119 9.23C584.75 936.47 771.74 806.556 960.965 681.343a11193.585 11193.585 0 0 1 56.154-36.924l-2.959-38.988c-164.07 120.318-362.51 176.99-545.045 261.854-48.148 22.383-95.299 46.992-140.352 75.131-8.23 5.139-13.766 14.979-14.994 24.48-1.041 8.053 3.029 20.43 13.686 16.479 48.654-18.047 91.17-48.994 132.91-79.129 45.078-32.541 91.93-61.576 139.313-90.625 101.836-62.436 204.242-123.967 307.943-183.266a7368.069 7368.069 0 0 1 86.652-48.766l-2.961-38.988c-51.545 29.457-102.699 59.619-155.438 86.898-53.777 27.818-107.557 55.633-161.336 83.449-43.93 22.723-87.301 45.756-129.695 71.246-41.772 25.117-83.297 50.699-126.524 73.277-41.221 21.529-86.023 41.922-132.549 48.141-3.242 14.498-6.48 28.994-9.721 43.49 47.463-21.482 85.908-55.805 127.178-86.811 44.623-33.523 92.953-62.742 140.678-91.576 96.973-58.586 197.006-111.867 295.912-167.064 73.6-41.076 157.643-70.725 218.6-130.963 6.842-6.76 11.732-16.709 10.988-26.521-.729-9.592-9.637-15.373-18.121-9.23-88.588 64.145-188.59 109.527-285.451 159.373-99.426 51.166-193.672 111.625-289.092 169.732-73.314 44.643-147.525 88.053-225.086 124.969l2.959 38.988c49.188-28.641 94.676-62.945 140.545-96.504 46.477-34 94.137-66.234 142.512-97.467 87.035-56.191 175.35-110.045 263.912-163.752 74.689-45.295 149.064-94.295 206.426-161.074 5.668-6.598 9.145-18.316 6.217-26.762-2.553-7.369-11.105-9.217-17.203-4.619-89.627 67.562-188.064 121.631-286.238 175.51-49.328 27.074-98.404 53.916-144.787 85.881-23.354 16.092-46.291 32.777-69.502 49.068-23.09 16.205-47.426 30.418-72.158 43.965-61.564 33.727-125.93 62.055-186.961 96.791-9.621 5.477-15.982 18.906-15.16 29.76.834 10.973 9.219 13.596 18.119 9.23 98.893-48.512 189.043-113.174 277.803-177.871 89.326-65.109 177.654-132.875 271.783-191.008 55.475-34.266 120.367-62.553 160.973-115.648 5.391-7.047 9.266-17.969 6.219-26.762-2.84-8.197-10.652-8.139-17.203-4.621-49.32 26.479-97.432 55.121-146.602 81.871-49.906 27.152-102.033 49.65-152.422 75.84C537.59 565.519 438.343 626.224 337.974 685.06a11372.038 11372.038 0 0 1-97.148 56.283c-30.902 17.713-60.723 37.979-96.279 44.889.955 12.572 1.908 25.146 2.865 37.721 33.756-33.367 76.162-55.738 118.041-77.18 45.688-23.391 90.238-48.039 134.127-74.68 87.6-53.176 171.682-111.859 262.073-160.354 54.957-29.484 110.543-57.98 162.961-91.898 49.711-32.166 98.854-70.18 131.992-120.016 5.023-7.557 9.406-17.564 6.219-26.762-2.701-7.791-10.855-8.674-17.203-4.621-195.874 125.102-399.876 236.655-603.808 347.893-83.529 45.561-167.061 91.117-250.082 137.596.984 12.996 1.971 25.992 2.959 38.988C265.64 673.978 449.087 574.513 622.932 460.024c94.264-62.08 185.904-128.777 269.848-204.379 7.025-6.326 11.707-17.035 10.988-26.521-.836-11.01-9.213-13.549-18.121-9.23-51.248 24.85-100.295 53.832-149.523 82.396-49.637 28.799-100.666 55.018-150.332 83.748-99.657 57.645-195.211 122.086-293.78 181.537-72.496 43.723-150.875 77.516-220.271 126.383l2.959 38.988c185.014-137.684 374.572-269.338 569.659-392.373 80.436-50.727 161.85-99.902 244.248-147.373 9.607-5.535 15.988-18.861 15.162-29.76-.822-10.814-9.252-13.799-18.121-9.229C679.471 260.433 479.433 377.96 275.685 488.665c-81.457 44.258-163.553 87.352-246.781 128.186 3.66 10.463 7.322 20.922 10.984 31.383 25.775-33.309 66.303-56.533 103.787-77.648 19.877-11.199 39.891-22.156 59.18-34.355 21.949-13.881 42.736-29.654 64.246-44.203 92.357-62.465 188.979-118.262 284.292-176.014 77.074-46.703 153.373-94.857 225.836-148.516 9.199-6.811 16.062-17.9 15.162-29.76-.793-10.436-9.346-14.291-18.121-9.23-48.863 28.18-97.979 55.93-148.078 81.867-49.613 25.688-100.764 48.18-150.026 74.562-96.332 51.592-187.564 112.021-281.984 166.92-45.945 26.715-92.725 52.25-141.018 74.496l10.023 27.99c.941-1.98 1.92-3.936 2.938-5.881.277-.529 3.928-6.719 1.068-2.127 2.277-3.656 4.846-7.123 7.492-10.518.168-.217 4.738-5.592 1.715-2.197 1.438-1.613 2.949-3.158 4.457-4.703 3.551-3.637 7.363-7.01 11.246-10.285 4.773-4.025 12.174-9.08 19.404-13.619 8.459-5.309 17.279-10.027 26.193-14.512 34.469-17.342 71.242-29.699 106.113-46.215 43.148-20.439 79.836-52.666 117.23-81.818 44.834-34.949 93.141-64.873 140.711-95.896 48.038-31.33 95.284-64.803 145.125-93.205 42.926-24.461 88.732-46.936 123.102-83.359 6.684-7.084 11.75-16.467 10.986-26.521-.559-7.365-5.896-13.775-13.85-11.199-49.908 16.174-93.238 47.807-137.6 74.861-48.914 29.832-102.049 53.268-153.393 78.592-106.676 52.613-213.65 104.617-320.469 156.939-43.396 21.258-86.617 42.541-129.029 65.715-40.359 22.047-80.934 43.73-124.822 57.979.953 12.574 1.908 25.146 2.863 37.723 72.18-71.732 163.498-120.635 250.486-171.762 103.367-60.754 205.49-123.592 307.752-186.184 31.838-19.49 63.288-39.891 95.543-58.646 28.137-16.359 57.43-30.23 78.303-56.137 6.779-8.412 13.279-38.49-6.717-33.35-47.429 12.188-90.466 38.452-131.14 64.922-21.107 13.74-41.834 28.055-62.84 41.949-19.621 12.977-39.934 24.668-59.938 37.012-88.902 54.875-170.566 120.623-260.033 174.662-39.996 24.157-81.582 45.801-125.748 61.278l2.863 37.721c39.104-33.881 85.59-57.932 127.51-87.986 21.174-15.182 40.629-32.545 61.215-48.488 20.629-15.977 41.773-31.275 63.117-46.279 86.076-60.504 176.02-115.529 257.793-181.998 18.233-14.82 35.915-30.312 52.961-46.484 6.924-6.572 11.721-16.852 10.986-26.521-.586-7.715-5.842-13.336-13.852-11.199C503.627-.239 458.109 24.439 414.135 49.75c-40.959 23.574-81.777 46.955-123.684 68.824-82.873 43.246-167.969 86.252-237.164 150.254-7.75 7.166-13.725 20.592-10.072 31.133 3.689 10.636 15.031 7.251 21.376 1.378z"/></g><path fill="#D8724A" d="M387.506 691.515l-.004.006z"/><path fill="#FFE5B8" d="M789.568 311.461c-3.046-3.73-7.455-4.892-12.396-3.202l-1.838.629v-.114l-.391.249c-14.797 5.088-24.347 4.207-33.727 2.313 1.81-6.408 3.197-13.008 4.236-19.699.86-.027 1.755-.333 2.535-.851 3.364-2.232 5.239-6.737 5.153-10.89-.427-20.451-2.866-40.87-7.984-60.355-1.611-8.256-4.059-16.296-7.726-23.5-5.326-13.295-1.347-15.109-9.956-26.726-22.241-30.024-66.125-59.266-100.025-69.126-18.932-5.508-38.367-8.6-57.913-10.064-22.796-1.708-45.769-1.444-68.291 3.014a149.8 149.8 0 0 0-9.212 2.137c-30.903 1.2-61.532 7.696-89.537 22.402a146.743 146.743 0 0 0-7.707 4.357c-14.142 5.738-27.894 34.141-40.893 42.274-17.707 11.08-34.569 25.692-44.34 45.446-7.092 14.336-8.549 8.622-5.081 23.765-3.067 14.193-2.883 29.019.781 43.341-11.483 8.659-22.516 18.096-32.899 28.58-6.182 6.241-10.528 15.424-11.625 24.563-.497 4.135-.253 12.465 3.806 17.437 2.021 2.471 4.727 3.691 7.867 3.554 9.967-.486 20.229-1.793 31.053-3.962-8.685 4.627-16.556 9.447-23.805 14.566-8.583 6.064-14.769 16.919-16.14 28.335-.61 5.094.002 12.672 3.749 17.259 1.994 2.444 4.688 3.734 7.848 3.734 19.479-.087 39.898-1.865 62.047-5.422-25.247 11.701-51.459 24.531-76.879 39.924-9.563 5.791-15.053 18.44-16.248 28.407-.792 6.596.602 12.822 3.73 16.653 2.989 3.662 7.417 4.976 12.518 3.668 20.827-5.316 39.102-10.148 55.888-14.788a1747.69 1747.69 0 0 0-12.248 5.688l-1.079.287-.034.256c-10.67 5.459-18.225 16.921-19.819 30.188-.79 6.604.598 12.847 3.745 16.697 2.995 3.668 7.392 4.967 12.482 3.622l2.186-.592c-.45.252-.999.503-1.449.754l-.416.06v.063c0 .634-2.074 1.265-3.208 1.896-9.069 5.052-14.869 18.13-16.108 28.44-.792 6.608.619 12.866 3.778 16.735 3.001 3.675 7.419 4.957 12.497 3.578a742.638 742.638 0 0 0 32.369-9.618c-7.757 8.125-14.554 25.479-11.91 36.364 1.74 7.164 7.299 10.529 15.536 9.253a407.601 407.601 0 0 0 23.002-4.245c-2.986 5.061-4.967 10.89-5.684 16.853-.589 4.91.112 12.351 4.036 17.153 3.056 3.742 7.462 4.875 12.373 3.119 3.506-1.256 7.018-2.509 10.532-3.751a42.94 42.94 0 0 0-7.458 19.429c-.807 6.731.433 12.493 3.498 16.244 2.919 3.575 7.352 4.997 12.624 4.078.697-.123 1.396-.281 2.093-.408l.133-.238c7.101-1.246 14.214-2.794 21.336-4.07-3.738 9-5.605 19.203-2.004 25.672.997 1.796 2.752 3.238 5.764 3.92 1.214.503 2.636.773 4.285.775h.051a790.452 790.452 0 0 0 16.841-.226c10.752.093 21.439.111 31.936-.575.636 5.891 3.377 11.409 7.844 13.534 12.681 6.023 26.895 9.079 42.247 9.079 32.694 0 65.857-13.789 87.96-24.163 42.029-19.727 80.113-45.609 115.01-70.646l.97-.585-.007-.127c9.984-7.686 16.284-21.438 15.407-33.87-.616-8.741-5.579-14.39-12.638-14.39-.456 0-.917.025-1.379.074 11.282-9.72 20.733-20.258 28.645-31.91 5.469-8.054 10.074-20.497 6.606-31.265-1.461-4.538-4.521-7.611-8.458-8.65a276.565 276.565 0 0 0 6.042-5.946c7.923-8.038 12.554-20.118 11.802-30.773-.511-7.234-5.01-14.921-12.336-14.921-1.411 0-2.864.297-4.321.889-2.216.897-4.456 1.801-6.712 2.705 7.762-5.871 13.521-16.427 14.839-27.405.617-5.153-.431-12.795-4.19-17.401-3.085-3.774-7.48-4.818-12.294-2.845-.576.237-1.159.476-1.742.712l.011-.342-1.278.854c-.941.378-1.89.758-2.847 1.136a376.579 376.579 0 0 0 19.046-17.464c6.172-6.066 10.524-15.253 11.646-24.578.659-5.506-.244-12.989-3.759-17.293-.976-1.193-2.123-2.114-3.417-2.737a871.121 871.121 0 0 0 18.79-11.513c9.576-6.039 15.046-18.607 16.223-28.39.777-6.457-.79-13.158-3.988-17.078zM376.832 174.68c-8.693 9.026-17.306 18.138-26.05 27.097a142.508 142.508 0 0 1 8.351-12.127c2.028-2.636 4.372-5.373 6.906-8.095 5.035-4.505 10.415-8.581 16.016-12.269-.475.488-.951.974-1.426 1.464a29.95 29.95 0 0 0-3.797 3.93zm-47.831 48.572c4.833-14.343 11.126-28.04 19.192-40.574 4.009-3.943 8.26-7.593 12.691-10.998-12.816 14.607-22.983 31.573-30.329 50.097-.519.491-1.032.987-1.554 1.475zm359.672-70.233c.616.551 1.231 1.104 1.84 1.668a2.764 2.764 0 0 0-1.133-.424c-.236-.416-.467-.834-.707-1.244zm11.971 151.517c.494 1.193.976 2.393 1.464 3.592-1.25.002-2.799.009-4.518.017a88.859 88.859 0 0 0 3.054-3.609zm15.93-117.782a14.443 14.443 0 0 0-.648 4.397c.021 2.203.112 4.393.263 6.571-6.383-15.052-15.152-28.983-24.557-41.956-.03-.04-.062-.069-.091-.11a146.581 146.581 0 0 1 25.033 31.098zM313.97 205.636c.097-.737.226-1.47.353-2.203.201-1.145-.1.3.367-1.597 1.428-5.819 3.529-10.098 6.319-14.465 3.689-5.776 7.029-9.475 12.142-14.391 6.784-6.528 14.328-12.214 22.326-17.249a181.13 181.13 0 0 0-9.583 12.305c-12.71 11.517-23.866 24.848-32.185 40.374-.017.031-.034.067-.053.099.086-.96.189-1.919.314-2.873zm108.376 53.022l2.929-1.409c.049.129.1.258.148.386-1.028.341-2.057.679-3.077 1.023zm98.363-6.188c4.455 2.634 8.808 5.466 13.078 8.378a657.122 657.122 0 0 1 5.133 3.542c-6.416-3.037-12.426-6.169-18.002-9.513a24.534 24.534 0 0 0-.209-2.407z"/><path fill="#FF617F" d="M778.457 930.888c-8.731-35.261-23.336-69.207-43.488-98.98a232.017 232.017 0 0 0-4.512-8.743c-.213-6.615-2.298-12.466-7.809-13.412-4.979-8.002-10.327-15.689-15.838-22.995-28.977-38.418-67.947-63.781-115.255-73.23-48.587-9.709-99.424-1.704-147.521 7.012-42.982 7.792-89.292 12.977-125.298 39.92-12.653 9.466-22.839 20.657-31.208 33.032-5.82 5.761-11.249 11.971-16.195 18.663a148.503 148.503 0 0 0-2.868 4.028c-10.294 12.581-20.212 25.498-30.504 37.894-6.573 7.912-11.956 24.368-4.659 33.479 2.173 2.717 4.685 3.865 7.291 3.978-1.301 9.419-2 18.946-2.179 28.48-2.009 3.591-3.073 7.724-2.338 10.946-3.275 5.823-4.292 13.469.452 16.681 1.003.681 2.015 1.344 3.026 2.009.898 4.025 3.441 4.894 6.321 4.036.435.269.875.534 1.312.801 1.639 3.362 4.628 5.577 9.506 5.559 11.703 6.541 23.845 12.271 36.289 17.323-.023.973-.017 1.955.059 2.952.669 8.812 6.389 14.252 15.232 12.315a184.92 184.92 0 0 0 15.673-4.178c20.951 6.59 42.401 11.678 63.749 15.851 47.164 9.219 96.196 13.696 144.199 15.038 58.725 1.641 151.404-4.577 195.628-51.883a620.02 620.02 0 0 0 40.754-16.594c7.412-3.325 12.179-11.915 10.181-19.982zm-51.141-20.526c2.403-3.385 4.61-6.889 6.568-10.521.316 2.821.509 5.649.566 8.471a326.11 326.11 0 0 0-7.134 2.05zM300.5 944.521c10.636-5.738 20.824-12.37 30.546-18.987 1.491-1.016 2.959-2.062 4.439-3.094-9.649 7.814-18.786 16.157-27.184 25.222-2.623-1-5.225-2.043-7.801-3.141zm230.281-194.319c-10.872 4.885-21.477 10.412-31.872 16.269 4.224-4.769 7.504-10.288 9.246-16.39 7.551-.116 15.097-.103 22.626.121zm79.595 13.542c-11.633 7.228-23.438 14.167-35.286 21.027 4.254-7.814 7.872-16.032 10.677-24.728.329-1.022.606-2.112.828-3.244 8.007 1.836 15.939 4.121 23.781 6.945zM268.021 891.583a260.81 260.81 0 0 0 6.453-3.126 213.391 213.391 0 0 0-8.364 11.213c.583-2.676 1.174-5.35 1.772-8.023l.139-.064zm131.834-17.516c23.53-17.485 49.085-32.29 73.929-47.808 15.62-9.76 31.484-19.204 48.021-27.137a351.674 351.674 0 0 1-4.397 3.886c-10.18 8.837-18.277 14.603-30.436 22.926-12.865 8.805-26.118 17.036-39.427 25.147-27.556 16.787-57.202 32.743-84.711 51.268 12.344-9.423 24.562-19.022 37.021-28.282zm123.531-12.446c-17.034 11.536-34.544 22.318-52.152 32.941 22.651-17.08 46.035-31.847 70.706-45.884-6.074 4.387-12.258 8.679-18.554 12.943zm-66.988 98.062c-4.558 3.137-8.522 7.46-11.437 12.406-4.74-.311-9.477-.648-14.21-1.026 8.557-3.782 17.11-7.562 25.647-11.38zm257.625-97.143a174.811 174.811 0 0 0 5.945-8.879 250.482 250.482 0 0 1 2.044 4.67 376.049 376.049 0 0 0-7.989 4.209zm-47.74-30.639a525.546 525.546 0 0 0 12.1-14.607c1.924-2.409 3.646-5.301 4.999-8.431a233.956 233.956 0 0 1 10.343 10.338 453.487 453.487 0 0 0-27.442 12.7zm-8.522-43.74c-7.942 5.318-15.444 11.206-22.773 17.316 5.061-7.426 9.673-15.153 13.753-23.209a211.302 211.302 0 0 1 9.02 5.893zM517.828 968.897a203.179 203.179 0 0 0-5.89 6.167 655.825 655.825 0 0 1-3.724-.107 938.292 938.292 0 0 0 9.614-6.06z"/><path fill="#FFE5B8" d="M574.841 706.168a44.673 44.673 0 0 0-2.75-1.155c-1.39-4.701-3.354-9.392-5.911-14.091-5.994-11.015-21.516 1.858-25.568 7.333a45.19 45.19 0 0 0-2.336 3.499c-8.917.892-17.692 2.731-25.492 4.666-17.323 4.298-35.562 15.019-44.074 30.599-.224-.243-.467-.503-.758-.812-1.584-1.677-2.921-3.557-4.169-5.486.813 1.191-1.132-2.307-1.292-2.683-.671-1.582-1.153-3.233-1.637-4.879-.08-.266-.146-.487-.209-.688-.03-.316-.083-.758-.167-1.377-.268-1.931-.33-3.884-.399-5.829-.006-.224-.015-.425-.023-.608.059-.356.135-.982.228-2.006.211-2.285.621-4.548 1.024-6.806 1.698-9.527-3.607-21.597-15.052-18.121-12.212 3.709-49.073 37.892-51.141 49.487-3.546 19.883 3.145 60.99 15.519 77.6 10.227 13.722 58.034 51.266 74.498 52.769 15.73 1.438 94.471-15.181 108.641-21.729 2.191-.654 36.199-64.283 38.284-65.185 0 0-11.198-52.77-28.973-49.665 4.708-6.069-29.144 12.33-25.939 5.485 3.671-7.848 8.712-25.217-2.304-30.318z"/><path fill="#EAA286" d="M563.362 728.761c-17.562 9.722-37.895 13.508-57.832 12.843-19.88-.661-42.128-5.5-54.243-22.66-3.751-5.313-10.049 7.891-8.862 11.481 15.648 47.428 76.865 52.97 116.227 33.26 8.252-4.133 13.447-13.66 14.643-22.579.726-5.42-1.732-16.882-9.933-12.345z"/><path d="M430.078 717.05c-56.716.255-121.114.191-158.636 50.479-16.618 22.265-25.404 48.791-30.567 75.812-5.162 27.002-7.612 55.789-4.549 83.07.638 5.684 5.7-1.286 6.152-3.599 9.322-47.762 6.059-101.226 35.178-142.915 32.931-47.152 99.271-39.71 148.678-50.316 3.998-.854 9.641-12.56 3.744-12.531zm153.296 17.442c26.873-2.118 55.624-.796 81.165 8.479 23.002 8.353 40.559 24.586 55.032 43.841 15.427 20.524 24.519 44.22 33.089 68.17 8.728 24.375 15.773 49.647 20.724 75.049 8.906 45.695 17.809 34.046 11.118-10.231-8.193-54.133-17.701-108.65-51.353-153.604-14.826-19.812-36.046-35.058-59.557-42.642-30.039-9.688-60.399-4.197-89.283 6.652-1.092.413-2.88 4.439-.935 4.286z"/><path fill="#FFEE73" d="M787.663 667.432c.205-.458.382-.93.532-1.411"/><path fill="#EAA286" d="M768.619 419.624c12.263-11.667 30.744-27.144 49.143-19.775 20.675 8.281 31.641 31.509 33.461 52.655 2.228 25.908-8.419 76.958-45.146 66.672-15.065-4.22-27.094-17.908-35.795-30.115-6.045-8.475-12.294-23.944-4.659-33.478 7.597-9.485 20.571.325 25.566 7.333a115.56 115.56 0 0 0 4.667 6.123c2.959 3.611-4.266-4.672-1.214-1.388.712.767 1.466 1.495 2.218 2.222.698.678 1.436 1.313 2.175 1.947 2.955 2.543-4.812-3.563-1.759-1.381 1.292.925 2.676 1.708 4.095 2.417-6.574-3.278-2.167-1.046-.16-.56 2.783.678-4.881-.511-2.087-.245.596.057 1.193.048 1.791.036 1.751-.032 5.836-1.352-.192.401 1.293-.376 2.507-.986 3.669-1.66 3.753-2.175-.359.553.027.205.95-.843 1.797-1.8 2.612-2.773.864-1.028 1.629-2.137 2.361-3.261.382-.585.733-1.191 1.083-1.793 1.441-2.479-2.35 4.659-.52.851 1.314-2.737 2.328-5.614 3.196-8.522.452-1.506.823-3.04 1.168-4.573.749-3.322-.997 5.308-.396 1.952.188-1.047.336-2.1.479-3.151.423-3.13.594-6.287.594-9.44 0-3.565.26 6.266.093 2.735-.036-.758-.102-1.51-.167-2.264-.122-1.461-.336-2.917-.585-4.365-.836-4.906 1.949 7.261.274 1.497a34.294 34.294 0 0 0-.631-1.898c-1.217-3.453 3.136 7.322 1.649 4.021-2.501-5.569 2.424 3.508 1.526 2.188-3.094-4.554 5.238 4.984 1.191 1.419 5.743 5.056 4.524 3.371 2.812 2.256-1.371-.887-4.114-1.914 2.736 1.149-1.041-.465-2.156-.737-3.273-.944 6.434 1.193 2.232.336.218.484-.685.051-1.36.169-2.034.287-2.61.452 4.546-1.419.541-.114-3.542 1.155-6.828 3.043-9.941 5.05-1.958 1.259-3.814 2.667-5.646 4.099 3.386-2.646-.156.163-.69.627-1.446 1.257-2.836 2.57-4.224 3.89-8.748 8.324-19.663.646-25.568-7.333-5.397-7.294-13.197-25.358-4.658-33.483z"/><path d="M775.694 414.671c17.517-11.512 41.951-21.868 61.052-7.789 15.431 11.371 19.604 33.328 18.493 51.289-1.183 19.168-8.902 39.919-24.054 52.37-16.782 13.787-42.62 12.491-57.812-3.206-1.275-1.318-5.584-11.494-.502-10.645 9.288 1.554 17.122 6.833 26.793 7.388 7.86.448 15.278-2.078 21.805-6.325 13.613-8.869 21.312-26.181 23.84-41.698 2.082-12.799 1.749-29.744-9.124-38.747-15.939-13.2-40.931-1.846-56.399 6.135-3.18 1.638-7.099-6.793-4.092-8.772z"/><path d="M824.695 461.165c-6.414-7.888-15.006-13.918-25.473-14.051-11.543-.146-14.098 10.089-18.47 18.465-1.994 3.825-6.396-4.634-6.558-6.049-1.466-12.868 5.018-25.686 19.284-25.938 13.974-.249 26.54 11.565 33.919 22.199 1.928 2.781.98 9.9-2.702 5.374z"/><path d="M773.743 454.66c8.319-.344 18.75-.429 24.637 6.535 5.822 6.887 4.676 17.31-.317 24.345-2.142 3.016-5.646-4.469-5.005-6.478.912-2.862 5.163-10.387 2.095-13.04-4.887-4.224-13.35-4.338-19.407-4.659-2.43-.13-4.998-6.582-2.003-6.703z"/><path fill="#FF8A0B" d="M413.354 796.016c.255-.006.499.012.748.07l-.676-.176c.258.075.484.187.695.354l-.534-.439c.168.15.303.317.417.513l-.347-.646c.117.219.199.446.251.688l-.159-.801c.02.103.043.21.043.315.006.707.368 1.531 1.024 1.865.69.352 1.495.112 2.111-.268 1.73-1.067 2.639-3.178 2.624-5.148-.005-.65-.139-1.349-.416-1.938-.651-1.386-1.723-2.207-3.286-2.317-.847-.06-1.683.488-2.265 1.038-.8.756-1.389 1.753-1.719 2.8-.278.883-.404 1.906-.093 2.803.229.663.817 1.304 1.582 1.287z"/><path d="M817.664 522.305c7.291 0 13.57-17.167 5.402-17.167-7.291-.001-13.57 17.167-5.402 17.167z"/><path fill="#EAA286" d="M789.125 359.271c-12.675-51.362-26.356-103.119-50.434-150.509-11.802-23.23-26.203-45.225-44.456-63.914-18.419-18.86-40.364-32.158-65.489-40.042-26.239-8.234-53.953-10.934-81.345-11.187-26.495-.245-54.023.995-79.997 6.503-49.301 10.454-91.199 40.743-122.515 79.443-34.022 42.048-55.804 93.778-69.027 145.873-.596 2.342-.995 6.942 2.587 7.111 3.377.159 6.119-3.844 6.925-6.672 1.274-4.465 2.648-8.911 4.068-13.346-10.355 52.104-13.295 111.918-8.298 158.758 5.479 51.337 20.146 104.013 48.882 147.384 44.805 67.611 124.992 110.158 206.522 103.322 42.427-3.56 81.957-20.571 115.226-46.845 25.114-19.837 45.322-44.547 61.144-71.966 14.296-20.837 25.729-43.634 34.263-67.4 6.09-16.955 10.768-35.066 13.521-52.866.695-4.49 1.124-9.003 1.371-13.527 4.393-15.976 6.646-32.588 7.344-49.301 4.124-20.229 5.681-40.864 4.794-61.378 1.216 3.734 2.435 7.468 3.664 11.198 1.257 3.818 5.426 2.591 7.646.496 2.963-2.799 4.59-7.137 3.604-11.135zm-35.461 97.003c.057-.805.122-1.609.178-2.414.131.186.274.335.424.462-.204.649-.397 1.301-.602 1.952zM469.909 115.129c26.371-4.693 53.94-5.641 80.673-4.925 27.338.733 54.961 4.363 80.678 13.99 34.967 13.088 61.166 39.583 81.091 70.341-3.704-4.03-7.602-7.882-11.753-11.479-1.914-1.658-3.969-1.39-5.741-.114-31.501-29.566-70.606-50.034-113.388-57.242-14.426-3.234-29.227-4.845-43.975-5.231-23.545-.617-47.16 1.324-70.073 6.834a271.421 271.421 0 0 0-23.203 5.759c-35.157 10.429-67.16 29.49-93.121 55.208 29.995-36.723 69.259-64.321 118.812-73.141zM307.993 266.76c-.625 1.174-1.225 2.361-1.841 3.542l-.182-.458a295.533 295.533 0 0 1 9.983-19.536 292.09 292.09 0 0 0-7.96 16.452zm397.033 326.721a223.983 223.983 0 0 1-6.159 10.509c-20.93 27.908-47.672 51.44-78.15 68.432-40.852 22.774-88.378 31.869-134.723 25.653-14.577-1.954-29.011-5.337-42.874-10.212-19.167-8.083-37.216-18.875-53.529-31.769-10.393-8.216-19.992-17.393-28.732-27.334-19.335-25.824-43.742-56.258-50.105-87.78-38.346-189.985-6.537-217.285 3.675-257.808.349-1.383.019-3.195-.661-4.524 7.441-18.265 16.81-35.735 28.27-51.734 7.481-9.977 15.532-19.5 24.271-28.415 28.723-28.059 64.923-46.701 104.408-54.883 48.418-10.03 101.39-6.704 144.543 18.841 43.666 25.847 75.036 60.63 97.96 104.818 1.502 2.896 2.952 16.63 4.357 19.572 6.969 20.219 12.408 40.992 17.069 61.819 3.559 15.904 6.682 31.9 9.54 47.945.289 7.861.342 15.728.231 23.566-.346 25.104-2.509 50.175-4.72 75.18a530.65 530.65 0 0 1-3.433 8.374c-4.417 31.556-16.274 62.533-31.238 89.75zm48.162-296.124c.85 2.224 1.688 4.452 2.512 6.687 4.585 15.335 7.698 31.1 9.237 47.001a442.127 442.127 0 0 0-11.749-53.688z"/><path d="M385.005 732.461c-1.925 41.129 8.3 84.52 37.533 114.929 30.937 32.181 79.258 40.657 121.442 29.518 30.464-8.044 55.626-28.754 70.688-56.212 15.892-28.971 20.124-66.543 12.255-98.536-.78-3.17-4.372-3.179-6.636-1.782-3.547 2.187-6.361 7.251-5.849 11.479 2.59 21.344 4.089 42.092-1.776 63.088-4.921 17.616-14.07 32.673-28.064 44.934-31.49 27.592-82.951 31.128-120.409 15.055-49.519-21.249-69.583-76.927-68.25-127.505.066-2.524-2.125-4.441-4.573-3.698-3.353 1.016-6.201 5.311-6.361 8.73z"/><path fill="#FFAD9F" d="M715.709 503.79c0 15.656-13.198 28.35-29.484 28.35-16.283 0-29.481-12.693-29.481-28.35s13.198-28.35 29.481-28.35c16.286 0 29.484 12.694 29.484 28.35z"/><ellipse fill="#FFAD9F" cx="352.591" cy="505.342" rx="29.483" ry="28.349"/><path fill="#EAA286" d="M275.766 408.81c-12.265-11.667-30.745-27.144-49.143-19.774-20.675 8.281-31.64 31.509-33.463 52.655-2.228 25.908 8.42 76.958 45.148 66.672 15.065-4.22 27.093-17.908 35.792-30.115 6.045-8.476 12.296-23.944 4.662-33.478-7.599-9.485-20.571.325-25.566 7.333a115.56 115.56 0 0 1-4.667 6.123c-2.959 3.612 4.266-4.671 1.214-1.387-.714.767-1.468 1.495-2.217 2.222-.699.678-1.438 1.313-2.176 1.947-2.957 2.543 4.812-3.563 1.757-1.381-1.291.925-2.674 1.708-4.093 2.416 6.573-3.278 2.167-1.045.161-.56-2.786.678 4.881-.511 2.084-.245-.593.057-1.191.049-1.791.036-1.749-.032-5.833-1.352.194.401-1.292-.376-2.509-.986-3.668-1.66-3.753-2.175.359.553-.029.205-.949-.842-1.795-1.799-2.611-2.773-.864-1.028-1.628-2.137-2.361-3.261-.382-.585-.733-1.191-1.083-1.793-1.443-2.479 2.351 4.659.52.852-1.314-2.737-2.328-5.614-3.198-8.522-.45-1.506-.822-3.04-1.166-4.573-.75-3.322.997 5.308.393 1.952a80.67 80.67 0 0 1-.478-3.151c-.422-3.13-.593-6.288-.593-9.44-.002-3.565-.262 6.266-.093 2.735.036-.758.101-1.51.165-2.264.125-1.461.338-2.917.587-4.366.836-4.906-1.951 7.261-.274 1.498.188-.642.408-1.271.629-1.898 1.219-3.453-3.134 7.322-1.649 4.021 2.503-5.569-2.422 3.508-1.525 2.188 3.094-4.553-5.24 4.984-1.191 1.419-5.742 5.056-4.524 3.371-2.811 2.256 1.369-.887 4.112-1.914-2.737 1.149 1.041-.465 2.156-.737 3.271-.944-6.431 1.193-2.23.336-.218.484.687.051 1.362.169 2.036.287 2.61.452-4.545-1.419-.541-.114 3.542 1.155 6.826 3.043 9.941 5.05 1.956 1.259 3.812 2.668 5.644 4.1-3.384-2.646.158.163.693.627 1.446 1.256 2.836 2.57 4.224 3.89 8.748 8.324 19.663.646 25.568-7.333 5.398-7.296 13.197-25.361 4.659-33.486z"/><path d="M268.688 403.857c-17.515-11.513-41.949-21.868-61.05-7.789-15.433 11.371-19.604 33.328-18.495 51.289 1.185 19.168 8.904 39.919 24.056 52.37 16.782 13.787 42.62 12.49 57.812-3.206 1.274-1.318 5.584-11.494.503-10.645-9.289 1.554-17.123 6.832-26.793 7.388-7.861.448-15.278-2.078-21.807-6.325-13.614-8.869-21.312-26.181-23.838-41.698-2.082-12.799-1.75-29.744 9.124-38.748 15.938-13.2 40.931-1.846 56.399 6.136 3.179 1.639 7.099-6.793 4.089-8.772z"/><path d="M219.689 450.352c6.414-7.888 15.006-13.918 25.473-14.051 11.54-.146 14.098 10.089 18.47 18.465 1.994 3.825 6.396-4.634 6.556-6.049 1.468-12.868-5.016-25.687-19.283-25.938-13.975-.25-26.542 11.565-33.919 22.199-1.926 2.78-.978 9.9 2.703 5.374z"/><path d="M270.642 443.847c-8.319-.344-18.75-.429-24.637 6.535-5.823 6.887-4.676 17.31.317 24.345 2.14 3.016 5.644-4.469 5.005-6.478-.912-2.862-5.164-10.387-2.097-13.04 4.887-4.224 13.352-4.338 19.41-4.659 2.428-.131 4.997-6.583 2.002-6.703z"/><path fill="#FFF" d="M445.938 548.911c-1.235-1.774 47.755-10.144 70.649-12.977 34.965-4.325 78.578 3.965 78.578 3.965s-19.823 37.127-54.427 40.732c-34.603 3.603-78.219-7.93-94.8-31.72z"/><path d="M409.632 558.671c.845-5.388 2.697-9.809 6.554-13.758 1.501-1.537 2.784-4.065 2.023-6.26-.712-2.06-3.075-1.563-4.296-.276-5.618 5.904-10.71 14.281-9.694 22.786.545 4.566 5.054-.194 5.413-2.492zm207.72-29.196c4.548 3.307 7.509 8.152 10.579 12.756 2.366 3.542 7.819-4.445 5.675-7.66-3.361-5.039-7.018-9.814-12.127-13.195-3.092-2.048-7.213 5.853-4.127 8.099z"/><path fill="#FF617F" d="M448.177 566.18c12.918 12.757 23.493 28.557 39.205 38.162 14.675 8.971 32.997 10.879 49.728 8.499 30.262-4.306 67.292-23.938 59.983-60.032-.534-2.639-3.676-1.475-4.935-.319-16.686 15.315-36.944 26.935-59.221 31.594-22.738 4.756-46.084-.009-66.591-10.317-4.314-2.169-8.329 6.641-6.026 9.753 14.935 20.187 43.81 24.744 67.227 22.929 25.602-1.985 52.45-12.582 65.829-35.619 2.342-4.034-.012-9.16-4.551-5.616-20.733 16.188-46.272 30.123-72.98 31.94-11.786.801-23.486-1.444-33.635-7.611-12.293-7.471-19.647-20.475-24.469-33.617-2.034-5.544-8.854 3.148-7.532 7.125 4.713 14.181 12.578 27.119 24.936 35.828 10.456 7.369 23.592 9.85 36.174 9.31 29.493-1.264 57.571-17.222 80.292-34.961l-4.551-5.616c-11.03 18.995-38.03 26.046-58.254 27.636-21.426 1.686-48.185-2.247-61.715-20.867l-6.026 9.753c22.003 11.315 46.089 15.603 70.466 10.771 24.207-4.799 45.102-18.749 63.236-34.906l-5.146-1.384c5.587 30.238-31.78 42.195-55.4 44.271-15.614 1.373-31.459-1.728-44.827-10.107-13.816-8.661-24.049-22.691-36.107-33.494-3.046-2.734-7.534 4.502-5.11 6.895z"/><path fill="#FF617F" d="M450.972 552.914c35.493-22.25 78.344-20.588 118.16-14.219 4.239.678 8.295-9.273 3.248-10.322-20.369-4.236-40.542-2.408-60.681 2.117-19.783 4.446-39.017 10.358-59.289 12.308l-1.321 10.055c20.389-13.217 44.296-21.615 68.522-23.741a121.924 121.924 0 0 1 34.655 1.923c12.174 2.448 22.744 7.849 33.5 13.798 4.056 2.242 8.321-6.909 4.902-9.621-19.309-15.309-47.605-18.499-71.333-16.303-25.253 2.338-49.455 11.216-70.963 24.503-2.021 1.249-6.497 10.412-1.321 10.055 19.896-1.374 39.027-7.341 58.302-12.01 20.478-4.96 40.968-7.013 61.776-2.761l3.248-10.322c-41.499-6.49-86.235-7.232-121.888 18.221-2.246 1.604-3.477 8.801.483 6.319z"/><path d="M438.294 554.838c8.752 19.475 20.204 45.634 39.411 57.438 17.827 10.957 43.142 8.852 64.637 6.414 42.189-4.788 48.698-46.503 59.472-74.876 1.633-4.298-1.668-3.43-3.005-.2-10.938 26.464-17.701 65.329-58.058 68.35-20.798 1.557-43.075 3.352-60.271-6.917-18.098-10.808-28.117-35.161-38.743-50.794-1.639-2.412-3.443.585-3.443.585z"/><path d="M444.104 556.64c9.477-4.139 17.275-10.258 25.213-16.759 9.268-7.59 19.146-12.607 30.962-14.945 17.431-3.449 37.551-3.17 54.548 2.106 16.146 5.013 29.955 17.344 47.511 17.395 3.017.009 5.847-7.102 2.289-7.271-18.029-.861-32.6-13.685-49.612-18.333-16.271-4.444-34.346-3.836-50.895-1.304-11.888 1.819-22.678 6.533-32.187 13.834-8.806 6.761-16.704 14.267-26.992 18.83-2.394 1.062-4.067 7.857-.837 6.447z"/><path d="M411.345 550.227c17.3 8.528 36.953 5.626 54.969 1.233 21.885-5.335 43.435-10.995 66.131-10.988 30.618.008 72.778 19.779 95.325-10.422 1.878-2.515.15-6.187-2.449-3.064-11.236 13.489-28.277 14.459-44.553 12.755-16.8-1.76-32.962-5.713-49.963-5.51-19.911.237-39.237 5.091-58.439 9.88-19.2 4.788-39.395 8.981-58.427 1.026-2.206-.922-4.728 4.038-2.594 5.09z"/><path d="M601.085 539.878c-11.523 9.9-21.998 21.058-33.626 30.792-12.297 10.293-28.548 12.211-43.976 12.54-7.71.165-15.495.401-23.088-1.119-8.687-1.739-16.69-6.357-24.016-11.145-5.979-3.906-11.502-8.427-17.409-12.428-6.25-4.234-13.146-6.588-20.574-7.71-2.831-.428-5.526 6.17-2.165 6.879 16.222 3.42 26.93 15.526 40.549 23.963 6.954 4.309 14.446 7.471 22.468 9.102 8.398 1.708 17.625.908 26.136.562 15.174-.616 29.833-3.866 42.143-13.168 6.26-4.73 11.66-10.654 17.324-16.066 5.944-5.679 12.026-11.216 18.144-16.706 2.566-2.302 2.088-8.932-1.91-5.496z"/><path d="M486.023 560.983v-4.325c-14.455-1.893-29.161-4.699-43.786-4.349-3.221.078-6.347 7.709-2.476 7.863m158.069-8.209c3.12-.583 5.428-8.269.997-7.662-10.532 1.44-26.607 8.074-36.764 11.354"/><path d="M776.881 321.672c-2.295-22.117-6.414-44.141-12.737-65.468-9.468-31.94-24.827-62.632-46.956-87.702-26.847-30.411-63.748-51.637-103.771-58.6-3.647-.634-7.326-1.139-11.019-1.405a26.32 26.32 0 0 1-3.392-.46 500.511 500.511 0 0 0-46.49-6.648c-46.027-4.404-94.097-1.55-137.322 15.994-30.846 12.52-57.874 32.403-80.012 57.162-9.339 10.444-17.895 21.494-26.001 32.918-8.982 12.659-15.481 25.38-20.022 40.299-9.46 31.093-13.804 63.84-17.874 95.996-1.859 14.689-3.506 29.404-5.236 44.11-.666 5.66-1.345 11.32-2.116 16.968-.293 2.144-.61 4.288-.957 6.425-.169 1.035-1.269 6.366-.481 2.913-.687 3.014-1.331 8.919 3.327 9.137 1.609.076 3.157-.623 4.507-1.719-.391 2.112-32.614 135.666 66.86 245.658 57.151 63.193 142.209 88.675 222.113 74.689 74.233-12.995 135.917-63.525 172.945-132.433 29.63-55.145 44.139-128.58 43.068-198.669 1.484-2.14 2.447-4.691 2.703-6.991 3.024-27.056 1.668-55.133-1.137-82.174zm-43.822 253.614c-29.997 70.453-87.917 122.01-159.212 138.257-80.116 18.259-168.149-5.11-225.2-69.13-57.673-64.719-72.022-155.931-64.662-241.954-2.94-1.78-3.877-3.411-6.114-4.796 1.054-7.325 1.856-14.698 2.782-21.997 2.556-20.17 5.122-40.34 8.222-60.434 3.117-20.199 6.509-40.27 11.709-59.604a227.221 227.221 0 0 1 3.63-12.117 161.13 161.13 0 0 1 1.937-5.48c.215-.579.443-1.151.669-1.726-.059.192.828-1.958.978-2.293a83.51 83.51 0 0 1 2.135-4.393c.351-.674.727-1.337 1.101-2 .03-.051.046-.081.07-.125 1.668-2.581 3.521-5.06 5.295-7.569 3.704-5.24 7.491-10.423 11.403-15.511a340.563 340.563 0 0 1 6.046-7.62 323.76 323.76 0 0 1 4.817-5.737c.152-.177.953-1.085 1.365-1.557a238.74 238.74 0 0 1 14.951-15.333c5.504-5.164 11.72-10.317 16.656-13.971 30.322-22.455 66.638-34.483 103.973-38.386 26.326-2.754 52.959-1.711 79.21 1.322 13.905 1.605 27.722 5.231 41.632 6.326 4.027.317 8.034.915 12.007 1.639a156.97 156.97 0 0 1 9.289 2.002l1.121.281c.002.002.004.002.007.002a175.843 175.843 0 0 1 8.557 2.522c47.459 15.257 84.322 49.745 106.354 94.308 11.616 23.497 19.194 48.986 23.77 74.745 2.87 16.157 4.56 32.508 5.493 48.885.899 15.8.483 31.577.556 47.369-.901-.359-9.408 124.43-30.547 174.075z"/><path fill="#EAA286" d="M678.176 363.879c-7.052-20.949-25.2-36.071-48.021-31.03-22.435 4.957-34.912 27.625-35.136 49.181-.051 4.796 5.814.074 6.029-2.775.027-.359.063-.718.098-1.075.604-.023 1.261-.188 1.958-.52 6.854-3.28 13.293-7.373 19.88-11.175.917-.104 1.836-.211 2.752-.302 5.362-.537 12.136-1.517 18.671-1.419 5.417.927 10.763 2.378 15.901 4.053 2.331.76 4.669-.887 6.107-3.204 1.375 1.907 2.56 3.96 3.58 6.002 2.985 5.973 9.583-3.569 8.181-7.736z"/><path d="M619.896 420.805c15.847 11.151 38.521 10.229 50.695-6.093 9.724-13.038 7.411-30.485-5.012-39.514-2.777-3.833-7.175-6.648-11.623-8.169-5.455-1.865-11.255-1.985-16.843-.779-9.244.866-17.264 5.941-22.126 13.291-.42.495-.832.993-1.223 1.502-10.075 13.133-7.551 30.137 6.132 39.762zm49.756-28.112a29.749 29.749 0 0 0-.594-3.464c.353 1.078.569 2.223.594 3.464z"/><circle fill="#FFF" cx="634.898" cy="388.706" r="11.885"/><path d="M599.41 385.691c10.805-8.849 23.605-17.404 38.019-18.006 8.789-.367 16.813 3.206 24.244 7.525 6.268 3.644 12.224 7.947 19.424 9.518 8.187 1.787 17.38-3.06 22.277-9.468 1.556-2.036 2.085-8.791-2.162-6.178-3.503 2.155-6.178 4.954-10.234 6.157-3.055.906-6.472.626-9.495-.266-7.136-2.105-13.405-6.669-20.073-9.848-8.067-3.846-16.87-5.704-25.779-4.389-14.451 2.132-26.979 10.919-37.905 20.103-2.357 1.98-1.902 7.789 1.684 4.852zm110.904-56.142c-12.148-21.59-41.019-31.358-63.906-35.106-29.88-4.894-66.493 1.692-85.111 27.879-1.996 2.809-3.584 6.813-2.387 10.271 1.468 4.237 5.674 2.578 8.203.531 10.801-8.742 21.016-15.549 34.572-19.316 13.166-3.659 26.993-3.713 40.455-1.874 12.573 1.719 24.889 5.525 36.275 11.114 8.787 4.312 17.865 9.546 23.586 17.722 1.949 2.785 5.733-.263 7.03-2.016 1.962-2.649 2.964-6.216 1.283-9.205z"/><path d="M685.882 359.472c-4.264 6.081-13.078 6.386-19.812 6.329-7.484-.064-14.885-1.445-22.35-1.819-3.094-.155-6.11 6.855-2.371 7.534 14.814 2.69 37.981 7.101 47.841-7.906 2.268-3.452-.125-8.677-3.308-4.138z"/><path fill="#EAA286" d="M353.946 363.879c7.052-20.949 25.201-36.071 48.021-31.03 22.434 4.957 34.912 27.625 35.136 49.181.05 4.796-5.814.074-6.03-2.775-.028-.359-.063-.718-.097-1.075-.604-.023-1.261-.188-1.958-.52-6.854-3.28-13.293-7.373-19.88-11.175-.917-.104-1.835-.211-2.752-.302-5.362-.537-12.136-1.517-18.67-1.419-5.417.927-10.763 2.378-15.901 4.053-2.332.76-4.67-.887-6.108-3.204-1.375 1.907-2.56 3.96-3.58 6.002-2.985 5.973-9.583-3.569-8.181-7.736z"/><path d="M418.356 381.042a38.96 38.96 0 0 0-1.223-1.502c-4.862-7.35-12.881-12.425-22.125-13.291-5.588-1.206-11.388-1.086-16.843.779-4.448 1.521-8.845 4.336-11.623 8.169-12.423 9.029-14.736 26.477-5.012 39.514 12.174 16.322 34.849 17.245 50.695 6.093 13.684-9.624 16.208-26.628 6.131-39.762zm-55.292 8.187a29.749 29.749 0 0 0-.594 3.464c.026-1.241.241-2.386.594-3.464z"/><circle fill="#FFF" cx="397.224" cy="388.706" r="11.884"/><path d="M435.605 380.497c-10.669-9.016-22.583-17.326-36.625-19.723-8.938-1.526-17.852.534-25.938 4.341-6.589 3.102-12.662 7.532-19.63 9.772-2.987.96-6.322 1.242-9.389.442-4.484-1.169-7.347-4.503-11.293-6.551-3.544-1.84-6.426 5.3-4.816 7.794 4.293 6.649 13.661 9.43 21.083 8.039 7.167-1.343 13.534-6.102 19.714-9.691 7.582-4.404 15.602-7.57 24.509-7.2 14.589.606 27.831 9.804 38.735 18.685 2.009 1.636 5.567-4.288 3.65-5.908zm-106.767-41.743c4.685-6.941 13.259-12.078 21.496-16.271 11.091-5.646 23.566-8.96 35.83-10.77 13.042-1.925 26.98-1.334 39.688 2.24a87.575 87.575 0 0 1 19.017 7.89c6.563 3.678 12.088 8.79 18.196 13.116 2.63 1.863 6.398-1.67 7.762-3.512 2.397-3.239 3.907-8.021 1.627-11.683-8.236-13.225-24.482-20.559-39.074-24.175-14.696-3.643-30.184-3.145-45.023-.733-24.682 4.011-53.112 15.769-66.266 38.33-1.184 2.031-1.897 5.567-.282 7.584 2.061 2.575 5.699-.045 7.029-2.016z"/><path d="M342.194 364.77c9.25 14.311 33.077 9.071 46.915 6.65 2.549-.446 5.128-7.619 1.663-7.438-12.918.674-34.703 7.087-43.794-5.669-2.151-3.019-6.497 3.806-4.784 6.457z"/></svg>