<svg xmlns="http://www.w3.org/2000/svg" xmlns:xlink="http://www.w3.org/1999/xlink" width="1030" height="1030" viewBox="0 0 1030 1030"><defs><path id="a" d="M1020.377 515.001c0 279.115-226.266 505.377-505.378 505.377-279.111 0-505.377-226.264-505.377-505.377S235.887 9.622 514.999 9.622s505.378 226.266 505.378 505.379z"/></defs><use xlink:href="#a" overflow="visible" fill="#FFBF1F"/><clipPath id="b"><use xlink:href="#a" overflow="visible"/></clipPath><g clip-path="url(#b)"><path fill="#FFBF1F" d="M1021.412 517.214c0 279.115-226.264 505.377-505.377 505.377S10.659 796.327 10.659 517.214 236.922 11.835 516.035 11.835c279.113 0 505.377 226.266 505.377 505.379z"/><path fill="#FC9E17" d="M64.59 301.339c65.699-60.766 147.473-101.363 226.168-142.393 40.814-21.281 80.746-43.73 120.539-66.854 43.205-25.111 87.469-49.598 136.052-62.561-.953-12.574-1.91-25.146-2.863-37.723C469.489 62.96 382.01 118.8 296.631 176.392c-43.969 29.658-87.434 59.996-129.215 92.682-20.033 15.672-39.121 32.311-60.043 46.828-21.764 15.1-44.41 28.885-66.553 43.41-20.463 13.42-40.42 27.699-58.93 43.736-7.092 6.145-11.695 17.17-10.986 26.521.547 7.209 5.93 13.973 13.85 11.199 98.166-34.393 184.33-95.652 268.734-154.941 42.162-29.617 84.25-59.42 128.115-86.494 19.996-12.342 40.24-24.098 59.857-37.074 21.043-13.918 41.816-28.238 62.963-42 37.357-24.314 76.48-48.123 120.033-59.316l-6.715-33.35c-3.625 4.496-11.992 11.266-18.965 15.918-10 6.67-20.648 12.365-31.156 18.178-23.027 12.742-45.09 27.219-67.55 40.936-51.307 31.332-102.535 62.797-153.854 94.113-51.111 31.188-102.326 62.211-153.791 92.816-45.84 27.262-92.238 53.613-137.736 81.449-57.199 34.99-113.605 73.15-161.33 120.578-6.828 6.783-11.732 16.688-10.986 26.52.561 7.365 5.898 13.781 13.85 11.199 51.945-16.859 99.75-43.609 147.504-69.639C94 432.257 145.889 407.882 197.313 382.728c106.723-52.203 213.543-104.201 320.025-156.898 43.588-21.572 87.408-42.348 128.738-68.076 36.969-23.018 73.674-48.996 115.463-62.539-.953-12.574-1.908-25.146-2.865-37.721-32.514 34.457-76.607 55.146-117.219 78.289-50.043 28.516-97.459 62.32-145.693 93.777-48.674 31.742-97.557 62.701-143.463 98.404-36.26 28.201-71.635 58.477-113.41 78.264-71.922 34.062-163.472 55.525-201.33 135.062-3.076 6.463-5.363 14.316-2.91 21.402 1.746 5.039 7.498 9.094 12.934 6.588C147.668 523.179 241.1 464.948 335.032 407.694c46.52-28.355 93.289-56.326 141.23-82.229 49.121-26.541 100.222-49.029 149.863-74.543 51.182-26.305 101.262-54.686 151.104-83.426l-2.959-38.99c-89.508 66.279-184.82 124.035-280.238 181.279-95.316 57.186-189.701 115.123-280.916 178.699-64.773 45.146-142.418 71.596-192.24 135.973-8.809 11.383-11.1 42.221 10.986 31.381 208.225-102.16 408.941-218.58 611.71-330.955 81.105-44.949 162.598-89.213 245.031-131.684-.984-12.996-1.973-25.994-2.959-38.988C684.77 269.935 489.942 395.938 300.086 528.915 223.16 582.794 147.082 637.888 71.738 693.958c-9.188 6.836-16.062 17.881-15.16 29.76.736 9.699 9.592 15.234 18.119 9.229 43.635-30.723 91.014-55.527 138.016-80.598 48.867-26.064 96.422-53.967 143.455-83.207 97.824-60.818 193.595-125.836 295.818-179.223 79.945-41.756 155.398-91.654 236.617-131.035l-7.131-35.752C726.441 362.759 545.96 469.948 368.332 577.765 274.889 634.486 181.494 691.474 91.73 753.931c-9.318 6.484-16.043 18.146-15.162 29.758.801 10.539 9.318 14.158 18.121 9.23 202.516-113.371 408.092-221.234 609.107-337.291 82.611-47.695 164.387-96.848 244.781-148.197l-10.984-31.381c-4.996 7.512-10.377 14.717-16.098 21.689-5.041 6.145-10.836 12.266-18.375 19.707-14.123 13.939-29.66 26.809-45.09 38.273-35.396 26.297-73.572 48.73-112.08 70.107-37.449 20.789-75.582 40.312-113.117 60.945-42.605 23.422-83.598 49.658-124.55 75.828-65.34 41.752-130.41 84.795-198.977 121.15-60.084 31.857-124.109 59.162-173.203 107.688-6.84 6.762-11.732 16.707-10.986 26.521.621 8.164 5.795 12.766 13.852 11.199 27.105-5.268 51.926-18.041 75.643-31.76 24.855-14.379 49.684-28.809 74.537-43.191a10614.796 10614.796 0 0 0 152.232-89.771c49.529-29.773 100.035-57.951 150.666-85.822 50.375-27.73 102.131-51.93 153.662-77.322 67.275-33.148 131.119-72.73 197.16-108.186-3.664-10.463-7.324-20.922-10.986-31.383-5.502 7.193-9.135 10.836-17.041 18.057-7.75 7.076-15.977 13.312-24.516 19.367-18.807 13.338-38.713 25.094-58.617 36.699-43.184 25.18-85.117 51.793-126.223 80.277-91.951 63.715-180.73 131.844-272.466 195.85-62.605 43.68-127.018 85.396-195.643 119.062.984 12.998 1.973 25.994 2.959 38.99 48.336-27.512 98.725-51.109 148.232-76.383 25.086-12.807 49.887-26.168 74.098-40.572 24.189-14.391 46.895-30.896 69.808-47.201 23.254-16.545 46.578-32.992 70.564-48.465 23.51-15.168 48.086-28.535 72.549-42.078 48.807-27.02 97.926-53.48 146.336-81.211 61.398-35.17 121.52-72.686 178.059-115.307-3.662-10.461-7.322-20.922-10.984-31.381-59.982 69.826-146.119 119.631-225.496 166.939-91.051 54.268-181.008 110.705-269.408 169.203-41.197 27.26-81.385 55.869-121.205 85.092-39.393 28.914-78.959 57.732-121.234 82.348-9.594 5.584-15.99 18.82-15.16 29.758.842 11.066 9.201 13.475 18.119 9.23 100.961-48.053 196.105-107.057 291.246-165.518 47.797-29.369 95.674-58.625 144.385-86.459 47.674-27.238 96.568-52.016 145.609-76.67 75.025-37.713 150.205-76.055 218.391-125.428l-7.133-35.75c-33.609 33.213-76.088 55.598-117.895 76.719a4046.137 4046.137 0 0 0-133.637 70.689c-99.297 54.922-199.127 109.008-295.386 169.18-39.695 24.812-79.178 50.248-116.166 78.982-32.521 25.262-64.553 53.299-102.4 70.43-8.953 4.055-15.018 11.32-17.994 20.766-1.854 5.883-3.031 24.236 8.273 22.725 45.449-6.074 87.678-22.926 128.725-42.799 43.949-21.275 85.809-46.65 127.57-71.857 92.402-55.779 188.996-103.605 284.82-153.17 30.955-16.012 61.799-31.988 92.061-49.281 29.732-16.99 59.461-33.979 89.189-50.969 9.617-5.496 15.986-18.891 15.16-29.758-.803-10.576-9.309-14.111-18.119-9.23-104.189 57.711-206.855 118.117-308.768 179.746-51.145 30.93-102.088 62.188-152.947 93.584-44.667 27.572-85.541 60.625-129.552 89.188-21.201 13.756-43.26 26.518-67.014 35.328-.438 13.652-.873 27.305-1.309 40.957 171.867-107.34 370.171-160.402 549.3-253.342 47.312-24.547 93.094-52.107 136.094-83.643 9.217-6.758 16.059-17.938 15.16-29.76-.758-9.986-9.484-14.867-18.119-9.229C824.264 729.44 638.674 860.724 439.864 970.419a2775.644 2775.644 0 0 1-59.695 31.969l7.133 35.752c73.348-58.309 162.89-92.967 248.279-129.312 44.957-19.137 89.818-38.742 132.914-61.836 22.314-11.959 44.49-24.162 66.002-37.533 23.461-14.584 46.564-29.75 71.244-42.24-4.762-8.674-9.527-17.348-14.291-26.021-3.254 5.631 2.84-4.268-.768 1.271-1.092 1.672-2.266 3.291-3.436 4.908-1.197 1.656-2.473 3.256-3.744 4.855-.225.285-4.666 5.496-1.594 2.025-6.42 7.246-13.553 13.844-20.875 20.158-14.346 12.365-31.18 23.664-48.143 34.455-35.631 22.666-73.098 42.25-109.025 64.42-39.855 24.594-76.525 54.361-114.168 82.133-42.477 31.334-86.009 61.828-133.525 85.104-8.502 4.166-17.229 7.842-26.043 11.295l2.865 37.721c61.736-53.27 143.855-80.49 220.312-108.334 80.787-29.42 162.883-61.467 226.771-120.973 7.469-6.955 14.518-14.354 21.268-22.004 7.162-8.117 13.979-19.857 10.07-31.133-3.467-10.01-15.477-8.066-21.375-1.381-114.229 129.438-307.65 132.047-443.066 231.178a405.602 405.602 0 0 0-25.287 20.133c-7.098 6.125-11.695 17.186-10.988 26.523.529 6.965 5.992 14.279 13.852 11.197 97.134-38.068 176.13-109.006 260.494-168.248 66.98-47.033 147.924-76.375 205.262-136.568 10.398-10.916 19.23-22.635 26.768-35.684 7.1-12.287 4.059-35.305-14.293-26.02-23.682 11.982-45.957 26.396-68.42 40.475-22.416 14.049-45.568 26.727-68.83 39.299-42.02 22.705-85.975 41.566-129.891 60.242-90.246 38.379-182.228 75.838-259.646 137.379-7.227 5.744-11.674 17.469-10.986 26.521.82 10.785 9.258 13.842 18.119 9.23C584.748 936.47 771.74 806.556 960.963 681.343a11285.786 11285.786 0 0 1 56.154-36.924l-2.959-38.988c-164.07 120.318-362.51 176.99-545.044 261.854-48.148 22.383-95.297 46.992-140.35 75.131-8.23 5.139-13.768 14.979-14.994 24.48-1.043 8.053 3.027 20.43 13.684 16.479 48.654-18.047 91.17-48.994 132.91-79.129 45.078-32.541 91.929-61.576 139.314-90.625 101.834-62.436 204.24-123.967 307.941-183.266a7368.069 7368.069 0 0 1 86.652-48.766l-2.959-38.988c-51.547 29.457-102.701 59.619-155.439 86.898-53.777 27.818-107.555 55.633-161.336 83.449-43.93 22.723-87.301 45.756-129.695 71.246-41.771 25.117-83.296 50.699-126.521 73.277C377.1 879 332.298 899.393 285.77 905.612c-3.242 14.498-6.48 28.994-9.721 43.49 47.463-21.482 85.908-55.805 127.18-86.811 44.621-33.523 92.951-62.742 140.675-91.576 96.973-58.586 197.006-111.867 295.912-167.064 73.6-41.076 157.643-70.725 218.6-130.963 6.844-6.76 11.734-16.709 10.988-26.521-.729-9.592-9.637-15.373-18.119-9.23-88.59 64.145-188.592 109.527-285.453 159.373-99.426 51.166-193.67 111.625-289.091 169.732-73.314 44.643-147.525 88.053-225.086 124.969.986 12.996 1.975 25.992 2.959 38.988 49.189-28.641 94.676-62.945 140.545-96.504 46.477-34 94.139-66.234 142.511-97.467 87.035-56.191 175.35-110.045 263.912-163.752 74.689-45.295 149.064-94.295 206.426-161.074 5.668-6.598 9.145-18.316 6.217-26.762-2.553-7.369-11.104-9.217-17.201-4.619-89.629 67.562-188.066 121.631-286.24 175.51-49.328 27.074-98.404 53.916-144.787 85.881-23.352 16.092-46.291 32.777-69.5 49.068-23.092 16.205-47.428 30.418-72.158 43.965-61.566 33.727-125.932 62.055-186.961 96.791-9.623 5.477-15.984 18.906-15.162 29.76.834 10.973 9.221 13.596 18.121 9.23 98.893-48.512 189.041-113.174 277.8-177.871 89.326-65.109 177.654-132.875 271.783-191.008 55.475-34.266 120.367-62.553 160.975-115.648 5.389-7.047 9.264-17.969 6.217-26.762-2.84-8.197-10.652-8.139-17.203-4.621-49.32 26.479-97.432 55.121-146.602 81.871-49.906 27.152-102.033 49.65-152.422 75.84-103.297 53.692-202.541 114.397-302.912 173.233a11372.038 11372.038 0 0 1-97.148 56.283c-30.902 17.713-60.723 37.979-96.279 44.889l2.865 37.721c33.756-33.367 76.162-55.738 118.041-77.18 45.688-23.391 90.238-48.039 134.129-74.68 87.598-53.176 171.679-111.859 262.07-160.354 54.957-29.484 110.543-57.98 162.961-91.898 49.711-32.166 98.854-70.18 131.992-120.016 5.023-7.557 9.406-17.564 6.219-26.762-2.701-7.791-10.855-8.674-17.203-4.621-195.874 125.102-399.876 236.655-603.807 347.893-83.527 45.561-167.061 91.117-250.082 137.596l2.959 38.988c170.951-118.941 354.396-218.406 528.24-332.895 94.266-62.08 185.904-128.777 269.848-204.379 7.025-6.326 11.707-17.035 10.988-26.521-.836-11.01-9.213-13.549-18.121-9.23-51.248 24.85-100.295 53.832-149.523 82.396-49.637 28.799-100.666 55.018-150.332 83.748-99.656 57.645-195.208 122.086-293.779 181.537-72.496 43.723-150.875 77.516-220.271 126.383l2.959 38.988c185.014-137.684 374.572-269.338 569.66-392.373 80.434-50.727 161.848-99.902 244.246-147.373 9.607-5.535 15.988-18.861 15.162-29.76-.822-10.814-9.252-13.799-18.121-9.229-206.174 106.221-406.21 223.748-609.96 334.453-81.455 44.258-163.553 87.352-246.781 128.186 3.66 10.463 7.322 20.922 10.984 31.383 25.775-33.309 66.303-56.533 103.787-77.648 19.877-11.199 39.891-22.156 59.18-34.355 21.949-13.881 42.736-29.654 64.248-44.203 92.355-62.465 188.979-118.262 284.289-176.014 77.074-46.703 153.373-94.857 225.838-148.516 9.197-6.811 16.061-17.9 15.16-29.76-.793-10.436-9.346-14.291-18.119-9.23-48.865 28.18-97.98 55.93-148.08 81.867-49.613 25.688-100.764 48.18-150.025 74.562-96.332 51.592-187.564 112.021-281.982 166.92-45.947 26.715-92.727 52.25-141.02 74.496l10.023 27.99c.941-1.98 1.92-3.936 2.938-5.881.277-.529 3.928-6.719 1.068-2.127 2.277-3.656 4.848-7.123 7.494-10.518.166-.217 4.736-5.592 1.713-2.197 1.438-1.613 2.949-3.158 4.457-4.703 3.551-3.637 7.363-7.01 11.248-10.285 4.771-4.025 12.172-9.08 19.402-13.619 8.459-5.309 17.279-10.027 26.193-14.512 34.471-17.342 71.244-29.699 106.115-46.215 43.146-20.439 79.836-52.666 117.23-81.818 44.832-34.949 93.141-64.873 140.709-95.896 48.037-31.33 95.283-64.803 145.125-93.205 42.926-24.461 88.732-46.936 123.104-83.359 6.682-7.084 11.748-16.467 10.986-26.521-.561-7.365-5.898-13.775-13.852-11.199-49.908 16.174-93.238 47.807-137.598 74.861-48.916 29.832-102.051 53.268-153.392 78.592-106.678 52.613-213.653 104.616-320.471 156.939-43.397 21.258-86.617 42.541-129.03 65.715-40.357 22.047-80.934 43.73-124.822 57.979l2.863 37.723c72.18-71.732 163.498-120.635 250.486-171.762 103.367-60.754 205.49-123.592 307.752-186.184 31.838-19.49 63.287-39.891 95.542-58.646 28.137-16.359 57.43-30.23 78.303-56.137 6.779-8.412 13.279-38.49-6.717-33.35-47.432 12.189-90.469 38.453-131.14 64.924-21.107 13.74-41.836 28.055-62.842 41.949-19.619 12.977-39.934 24.668-59.936 37.012-88.904 54.875-170.568 120.623-260.035 174.662-39.995 24.156-81.581 45.8-125.747 61.277.955 12.572 1.91 25.146 2.863 37.721 39.104-33.881 85.59-57.932 127.51-87.986 21.174-15.182 40.631-32.545 61.215-48.488 20.629-15.977 41.775-31.275 63.117-46.279 86.078-60.504 176.02-115.529 257.793-181.998 18.234-14.82 35.914-30.312 52.96-46.484 6.924-6.572 11.721-16.852 10.986-26.521-.586-7.715-5.842-13.336-13.852-11.199-49.3 13.154-94.818 37.832-138.792 63.143-40.959 23.574-81.777 46.955-123.684 68.824-82.873 43.246-167.969 86.252-237.164 150.254-7.75 7.166-13.725 20.592-10.07 31.133 3.687 10.636 15.029 7.251 21.374 1.378z"/></g><path d="M393.677 692.336l-.004.006zm398.604-376.787c-3.02-3.698-7.392-4.85-12.289-3.174l-1.821.624v-.113l-.389.248c-14.668 5.044-24.137 4.17-33.436 2.292 1.794-6.353 3.17-12.896 4.2-19.529.852-.027 1.739-.331 2.512-.844 3.337-2.214 5.195-6.68 5.109-10.796-.423-20.275-2.842-40.519-7.914-59.836-1.599-8.185-4.024-16.156-7.659-23.298-5.281-13.181-1.336-14.98-9.871-26.496-22.051-29.767-65.557-58.756-99.166-68.532-18.77-5.461-38.036-8.526-57.415-9.978-22.6-1.694-45.374-1.432-67.702 2.988a148.338 148.338 0 0 0-9.134 2.119c-30.638 1.189-61.002 7.63-88.767 22.21a146.06 146.06 0 0 0-7.641 4.319c-14.021 5.689-27.654 33.847-40.542 41.911-17.555 10.984-34.272 25.472-43.958 45.055-7.032 14.213-8.476 8.547-5.039 23.561-3.04 14.07-2.858 28.77.775 42.968-11.384 8.585-22.323 17.94-32.616 28.334-6.128 6.187-10.438 15.291-11.524 24.352-.492 4.1-.251 12.357 3.773 17.287 2.004 2.45 4.686 3.66 7.799 3.524 9.881-.481 20.055-1.778 30.786-3.928-8.61 4.587-16.414 9.366-23.6 14.441-8.51 6.012-14.643 16.774-16.002 28.091-.605 5.051.002 12.563 3.717 17.111 1.977 2.423 4.648 3.702 7.781 3.702 19.312-.086 39.555-1.849 61.513-5.375-25.03 11.6-51.017 24.32-76.219 39.58-9.481 5.742-14.923 18.282-16.108 28.162-.785 6.54.597 12.712 3.697 16.51 2.963 3.631 7.354 4.933 12.411 3.637 20.648-5.27 38.766-10.061 55.408-14.661a1742.087 1742.087 0 0 0-12.143 5.639l-1.07.285-.034.253c-10.578 5.413-18.067 16.776-19.648 29.928-.784 6.548.592 12.737 3.712 16.554 2.969 3.638 7.329 4.925 12.375 3.591l2.167-.585c-.446.248-.99.497-1.436.746l-.413.06v.062c0 .628-2.056 1.255-3.18 1.88-8.991 5.009-14.741 17.975-15.97 28.196-.785 6.552.613 12.756 3.746 16.592 2.976 3.643 7.355 4.914 12.389 3.547a734.798 734.798 0 0 0 32.091-9.536c-7.691 8.056-14.429 25.262-11.808 36.053 1.726 7.103 7.237 10.438 15.402 9.174a405.51 405.51 0 0 0 22.805-4.209c-2.961 5.017-4.925 10.796-5.635 16.707-.584 4.868.111 12.244 4.001 17.006 3.03 3.711 7.397 4.833 12.266 3.093 3.476-1.246 6.958-2.487 10.442-3.719a42.57 42.57 0 0 0-7.394 19.262c-.8 6.674.429 12.386 3.468 16.104 2.894 3.545 7.289 4.954 12.515 4.043.691-.12 1.384-.278 2.075-.403l.132-.237c7.04-1.234 14.091-2.77 21.152-4.035-3.706 8.923-5.557 19.038-1.987 25.452.988 1.779 2.728 3.209 5.714 3.886 1.204.498 2.613.767 4.249.769h.05a783.553 783.553 0 0 0 16.697-.225c10.66.093 21.255.111 31.662-.569.63 5.84 3.348 11.312 7.776 13.418 12.572 5.972 26.664 9.001 41.884 9.001 32.412 0 65.29-13.67 87.203-23.956 41.667-19.557 79.424-45.217 114.021-70.037l.962-.58-.007-.126c9.898-7.619 16.144-21.255 15.275-33.579-.612-8.666-5.532-14.266-12.53-14.266-.452 0-.909.026-1.367.074 11.185-9.637 20.556-20.085 28.398-31.637 5.421-7.984 9.988-20.32 6.551-30.995-1.45-4.5-4.483-7.547-8.387-8.576a276.402 276.402 0 0 0 5.991-5.895c7.854-7.97 12.445-19.946 11.7-30.51-.507-7.171-4.967-14.793-12.23-14.793-1.398 0-2.84.295-4.284.882-2.196.89-4.418 1.786-6.654 2.682 7.695-5.821 13.405-16.286 14.711-27.17.611-5.109-.426-12.685-4.153-17.251-3.06-3.742-7.417-4.776-12.188-2.821-.571.235-1.149.471-1.728.706l.011-.339-1.267.846c-.935.375-1.875.752-2.823 1.126a373.216 373.216 0 0 0 18.883-17.314c6.118-6.013 10.434-15.122 11.545-24.366.654-5.459-.242-12.877-3.727-17.145-.968-1.183-2.104-2.096-3.388-2.713a869.113 869.113 0 0 0 18.629-11.414c9.493-5.986 14.917-18.447 16.083-28.146.773-6.406-.781-13.049-3.951-16.936zM383.095 179.945c-8.618 8.949-17.157 17.982-25.826 26.864a141.462 141.462 0 0 1 8.279-12.023c2.01-2.613 4.334-5.327 6.847-8.026 4.991-4.466 10.324-8.507 15.877-12.163-.471.484-.942.965-1.414 1.451a29.75 29.75 0 0 0-3.763 3.897zm-47.42 48.154c4.791-14.219 11.031-27.798 19.027-40.225 3.974-3.909 8.189-7.527 12.582-10.903-12.705 14.481-22.785 31.301-30.067 49.667-.516.486-1.025.978-1.542 1.461zm356.578-69.629c.611.547 1.221 1.095 1.824 1.654a2.746 2.746 0 0 0-1.123-.421c-.234-.412-.463-.827-.701-1.233zm11.868 150.214c.49 1.183.967 2.372 1.45 3.562-1.239.002-2.773.008-4.478.017a87.365 87.365 0 0 0 3.028-3.579zm15.794-116.769a14.323 14.323 0 0 0-.643 4.359c.021 2.184.11 4.355.259 6.514-6.327-14.923-15.021-28.734-24.345-41.594-.029-.04-.061-.069-.09-.109a145.264 145.264 0 0 1 24.819 30.83zm-399.142 18.719c.096-.73.224-1.458.35-2.184.199-1.135-.098.297.364-1.583 1.416-5.769 3.499-10.01 6.265-14.341 3.658-5.727 6.968-9.393 12.038-14.268 6.726-6.472 14.205-12.108 22.134-17.101a179.387 179.387 0 0 0-9.5 12.199c-12.601 11.417-23.661 24.634-31.909 40.026-.017.031-.033.067-.052.099.084-.95.186-1.9.31-2.847zm107.444 52.567l2.904-1.396c.048.128.099.255.147.383-1.019.336-2.039.671-3.051 1.013zm97.518-6.135c4.415 2.611 8.73 5.418 12.965 8.306a716.832 716.832 0 0 1 5.088 3.511c-6.362-3.011-12.318-6.116-17.846-9.431a24.415 24.415 0 0 0-.207-2.386z" fill="#D8724A"/><path fill="#22A1FF" d="M781.266 929.649c-8.656-34.956-23.135-68.611-43.115-98.128a228.775 228.775 0 0 0-4.472-8.669c-.212-6.559-2.278-12.357-7.742-13.297-4.938-7.933-10.238-15.555-15.702-22.797-28.728-38.088-67.362-63.233-114.264-72.601-48.169-9.626-98.567-1.689-146.251 6.951-42.612 7.725-88.525 12.865-124.221 39.576-12.544 9.385-22.643 20.479-30.939 32.748-5.771 5.712-11.152 11.868-16.056 18.503a144.45 144.45 0 0 0-2.843 3.994c-10.206 12.473-20.039 25.278-30.242 37.567-6.516 7.844-11.853 24.159-4.619 33.191 2.155 2.693 4.645 3.833 7.229 3.943-1.29 9.339-1.983 18.784-2.161 28.236-1.991 3.559-3.047 7.657-2.318 10.853-3.248 5.771-4.255 13.353.448 16.537.994.675 1.998 1.331 3 1.99.89 3.992 3.411 4.853 6.267 4.002.431.267.867.529 1.301.793 1.625 3.334 4.587 5.53 9.424 5.512 11.603 6.484 23.64 12.165 35.978 17.174a29.04 29.04 0 0 0 .058 2.928c.664 8.735 6.334 14.129 15.101 12.209a183.842 183.842 0 0 0 15.539-4.142c20.771 6.532 42.037 11.577 63.201 15.714 46.758 9.14 95.37 13.579 142.958 14.909 58.22 1.626 150.103-4.538 193.946-51.437a614.527 614.527 0 0 0 40.403-16.451c7.346-3.293 12.072-11.809 10.092-19.808zm-50.702-20.347c2.383-3.356 4.57-6.83 6.512-10.432.313 2.798.505 5.602.562 8.398-2.367.65-4.724 1.33-7.074 2.034zm-423.146 33.863c10.544-5.688 20.646-12.263 30.283-18.823 1.479-1.008 2.934-2.044 4.401-3.067-9.567 7.747-18.625 16.018-26.95 25.005-2.6-.991-5.179-2.025-7.734-3.115zM535.72 750.518c-10.778 4.843-21.292 10.323-31.598 16.13 4.188-4.729 7.439-10.199 9.167-16.249 7.486-.116 14.967-.103 22.431.119zm78.91 13.426c-11.533 7.164-23.236 14.045-34.982 20.847 4.217-7.748 7.804-15.895 10.584-24.516.326-1.014.601-2.095.821-3.216 7.938 1.82 15.801 4.086 23.577 6.885zm-339.411 126.74a254.647 254.647 0 0 0 6.397-3.1 211.659 211.659 0 0 0-8.292 11.116c.578-2.652 1.164-5.304 1.756-7.954l.139-.062zm130.701-17.366c23.328-17.334 48.664-32.013 73.293-47.396 15.486-9.676 31.213-19.039 47.609-26.904a352.91 352.91 0 0 1-4.359 3.854c-10.093 8.76-18.121 14.477-30.175 22.729-12.754 8.729-25.893 16.89-39.088 24.932-27.319 16.642-56.711 32.462-83.983 50.826 12.238-9.344 24.351-18.861 36.703-28.041zm122.467-12.339c-16.886 11.437-34.246 22.126-51.703 32.657 22.457-16.932 45.64-31.572 70.098-45.488-6.021 4.35-12.153 8.604-18.395 12.831zm-66.41 97.218c-4.519 3.109-8.449 7.396-11.338 12.299-4.699-.308-9.395-.643-14.087-1.017a6195.303 6195.303 0 0 0 25.425-11.282zm255.409-96.306a173.377 173.377 0 0 0 5.894-8.803 252.85 252.85 0 0 1 2.027 4.629 369.467 369.467 0 0 0-7.921 4.174zm-47.329-30.376a519.705 519.705 0 0 0 11.995-14.481c1.907-2.389 3.614-5.256 4.956-8.358a233.215 233.215 0 0 1 10.254 10.25 448.048 448.048 0 0 0-27.205 12.589zm-8.45-43.364c-7.875 5.271-15.312 11.109-22.578 17.167 5.018-7.362 9.59-15.023 13.635-23.01a208.67 208.67 0 0 1 8.943 5.843zM522.879 967.333a200.884 200.884 0 0 0-5.84 6.114c-1.23-.031-2.463-.068-3.691-.107a974.012 974.012 0 0 0 9.531-6.007z"/><path fill="#D8724A" d="M579.4 706.862a45.076 45.076 0 0 0-2.727-1.145c-1.377-4.661-3.324-9.312-5.86-13.97-5.943-10.92-21.33 1.842-25.349 7.269a44.614 44.614 0 0 0-2.315 3.47c-8.84.884-17.54 2.707-25.272 4.626-17.174 4.261-35.257 14.889-43.695 30.335-.222-.239-.462-.497-.751-.803-1.57-1.663-2.896-3.527-4.133-5.44.806 1.181-1.123-2.287-1.281-2.659-.666-1.568-1.143-3.205-1.623-4.837-.08-.264-.145-.484-.208-.683a34.576 34.576 0 0 0-.165-1.365c-.267-1.914-.327-3.851-.396-5.779-.006-.222-.015-.42-.023-.604.059-.354.134-.973.227-1.988.209-2.266.615-4.509 1.016-6.747 1.683-9.445-3.577-21.411-14.923-17.965-12.106 3.677-48.65 37.566-50.701 49.061-3.515 19.713 3.118 60.467 15.386 76.934 10.138 13.604 57.535 50.824 73.856 52.314 15.595 1.427 93.658-15.05 107.706-21.541 2.175-.649 35.89-63.731 37.956-64.625 0 0-11.102-52.315-28.724-49.237 4.667-6.018-28.894 12.225-25.717 5.438 3.64-7.781 8.638-25.001-2.284-30.059z"/><path fill="#AF543F" d="M568.02 729.262c-17.41 9.638-37.567 13.392-57.334 12.731-19.709-.655-41.766-5.452-53.776-22.464-3.719-5.269-9.962 7.822-8.786 11.382 15.514 47.02 76.205 52.514 115.227 32.974 8.182-4.098 13.332-13.543 14.517-22.386.72-5.373-1.718-16.735-9.848-12.237z"/><path d="M435.883 717.65c-56.229.254-120.072.191-157.272 50.046-16.474 22.073-25.185 48.372-30.305 75.161-5.117 26.771-7.546 55.31-4.51 82.355.632 5.635 5.651-1.275 6.1-3.568 9.242-47.35 6.007-100.354 34.875-141.686 32.647-46.747 98.418-39.368 147.4-49.884 3.964-.846 9.558-12.451 3.712-12.424zm151.976 17.293c26.643-2.1 55.146-.789 80.467 8.404 22.805 8.282 40.211 24.376 54.561 43.465 15.293 20.348 24.308 43.84 32.804 67.584 8.652 24.165 15.637 49.221 20.545 74.403 8.83 45.303 17.656 33.753 11.023-10.143-8.123-53.668-17.549-107.717-50.911-152.284-14.699-19.641-35.736-34.757-59.045-42.275-29.78-9.604-59.881-4.16-88.516 6.596-1.083.411-2.855 4.401-.928 4.25zM320.277 867.615c10.394.914 22.547 4.768 27.126 15.084 4.221 9.517 4.018 21.581 3.802 31.791-.249 11.56-1.964 23.102-3.143 34.589-.889 8.649-4.06 22.705 1.334 30.249 5.62 7.863 13.935-9.725 14.49-13.371 1.6-10.553-.331-22.373-.042-33.144.331-12.251.724-24.544-.838-36.73-1.316-10.274-5.167-19.004-12.699-26.19-8.269-7.883-19.236-7.066-29.536-4.545-.666.165-1.507 2.179-.494 2.267zm357.159-14.697c2.59 8.936 6.574 17.303 9.766 26.038 3.843 10.511 5.922 21.558 8.01 32.517 4.256 22.336 5.923 45.15 9.26 67.633.166 1.111.444 3.498 1.96 3.816l1.343.283c2.789.582 5.062-2.171 6.033-4.531 4.036-9.85.411-21.365-.863-31.665-1.575-12.726-3.678-25.384-6.186-37.96-2.478-12.41-5.948-24.544-10.859-36.218-3.626-8.62-8.211-18.127-17.661-21.129-.544-.176-.917.819-.803 1.216z"/><path d="M716.957 819.503c-14.663 5.369-27.36 13.98-37.277 26.092-1.654 2.021-3.222 5.073-2.381 7.768 1.076 3.448 4.536.31 5.662-1.237 8.53-11.748 20.023-20.205 33.138-26.242 2.004-.925 4.145-7.583.858-6.381z"/><path fill="#FFEE73" d="M790.392 668.46a12.4 12.4 0 0 0 .528-1.399"/><path fill="#AF543F" d="M771.513 422.782c12.156-11.566 30.48-26.91 48.719-19.605 20.498 8.21 31.369 31.239 33.174 52.203 2.209 25.685-8.346 76.296-44.759 66.099-14.936-4.184-26.86-17.753-35.486-29.856-5.992-8.403-12.189-23.739-4.619-33.19 7.531-9.403 20.395.323 25.347 7.27 1.48 2.075 3.013 4.1 4.626 6.07 2.935 3.581-4.229-4.632-1.203-1.375.705.76 1.453 1.482 2.198 2.203.693.672 1.425 1.303 2.157 1.931 2.929 2.521-4.77-3.533-1.744-1.37 1.28.917 2.653 1.694 4.06 2.395-6.519-3.25-2.147-1.036-.159-.555 2.76.672-4.839-.507-2.068-.243.59.057 1.183.048 1.775.035 1.736-.031 5.785-1.339-.19.398 1.281-.373 2.485-.978 3.637-1.646 3.722-2.157-.356.549.027.203.942-.835 1.782-1.783 2.59-2.749.856-1.02 1.614-2.119 2.342-3.233.378-.58.727-1.181 1.073-1.778 1.429-2.458-2.33 4.619-.515.844 1.302-2.714 2.308-5.565 3.168-8.449.448-1.493.816-3.013 1.157-4.534.743-3.293-.987 5.263-.391 1.935.186-1.039.333-2.082.475-3.124.419-3.104.589-6.233.589-9.36 0-3.534.258 6.212.093 2.711-.036-.751-.102-1.497-.167-2.245-.12-1.449-.332-2.892-.579-4.328-.829-4.864 1.933 7.199.271 1.484a33.181 33.181 0 0 0-.626-1.882c-1.206-3.423 3.11 7.26 1.636 3.987-2.479-5.521 2.404 3.479 1.514 2.169-3.066-4.514 5.193 4.941 1.182 1.407 5.693 5.013 4.484 3.341 2.787 2.236-1.359-.88-4.08-1.897 2.714 1.139-1.033-.46-2.139-.73-3.246-.936 6.378 1.183 2.213.333.216.48-.679.05-1.35.167-2.017.285-2.588.448 4.506-1.407.536-.113-3.512 1.145-6.77 3.017-9.856 5.006-1.94 1.248-3.781 2.645-5.596 4.064 3.355-2.624-.155.161-.686.622-1.434 1.246-2.812 2.548-4.188 3.857-8.673 8.251-19.494.64-25.349-7.27-5.353-7.228-13.086-25.137-4.619-33.192z"/><path d="M778.526 417.872c17.366-11.414 41.59-21.68 60.528-7.722 15.296 11.273 19.435 33.041 18.333 50.848-1.173 19.004-8.825 39.576-23.847 51.919-16.639 13.669-42.255 12.383-57.315-3.178-1.265-1.307-5.536-11.395-.498-10.553 9.208 1.542 16.975 6.774 26.562 7.325 7.793.444 15.147-2.061 21.617-6.271 13.497-8.792 21.128-25.955 23.635-41.339 2.065-12.688 1.734-29.488-9.045-38.414-15.803-13.086-40.579-1.83-55.915 6.083-3.15 1.623-7.036-6.736-4.055-8.698z"/><path d="M827.106 463.966c-6.359-7.82-14.877-13.798-25.254-13.93-11.444-.145-13.977 10.002-18.312 18.306-1.976 3.792-6.34-4.594-6.502-5.996-1.452-12.758 4.977-25.466 19.12-25.715 13.853-.247 26.312 11.466 33.627 22.008 1.91 2.756.971 9.815-2.679 5.327z"/><path d="M776.592 457.517c8.247-.341 18.589-.424 24.425 6.479 5.773 6.828 4.636 17.161-.314 24.136-2.123 2.99-5.597-4.431-4.962-6.422.904-2.837 5.119-10.298 2.077-12.928-4.845-4.188-13.235-4.301-19.24-4.619-2.409-.129-4.955-6.526-1.986-6.646z"/><path fill="#FF8A0B" d="M430.013 795.972a2.93 2.93 0 0 1 .741.069l-.676-.176c.257.075.48.185.689.352l-.534-.439c.167.148.301.314.414.508l-.347-.646c.115.217.197.442.25.682l-.16-.802c.021.103.043.209.043.313.006.707.368 1.531 1.024 1.865.69.352 1.495.112 2.111-.268 1.73-1.067 2.639-3.178 2.624-5.148-.005-.647-.138-1.342-.414-1.929-.647-1.381-1.714-2.199-3.27-2.31-.847-.06-1.683.488-2.265 1.038-.8.756-1.39 1.753-1.719 2.8-.278.883-.404 1.907-.093 2.803.229.664.818 1.306 1.582 1.288z"/><path d="M820.112 524.653c7.291 0 13.57-17.167 5.402-17.167-7.29 0-13.57 17.167-5.402 17.167z"/><path fill="#AF543F" d="M791.841 362.948c-12.565-50.92-26.129-102.232-49.999-149.214-11.7-23.031-25.979-44.836-44.074-63.364-18.26-18.699-40.018-31.881-64.926-39.698-26.014-8.164-53.489-10.84-80.645-11.091-26.268-.243-53.559.986-79.31 6.447-48.877 10.365-90.415 40.393-121.46 78.761-33.73 41.687-55.324 92.972-68.434 144.619-.59 2.322-.986 6.882 2.565 7.049 3.348.158 6.065-3.81 6.866-6.614 1.263-4.426 2.625-8.833 4.033-13.231-10.266 51.656-13.181 110.956-8.227 157.394 5.432 50.896 19.974 103.119 48.463 146.117 44.419 67.03 123.917 109.211 204.746 102.434 42.062-3.529 81.252-20.395 114.234-46.441 24.898-19.666 44.933-44.165 60.618-71.348 14.173-20.657 25.507-43.259 33.968-66.821 6.037-16.81 10.675-34.764 13.405-52.411.689-4.452 1.114-8.926 1.358-13.411 4.355-15.838 6.59-32.309 7.281-48.877 4.089-20.055 5.632-40.512 4.753-60.85 1.206 3.702 2.414 7.404 3.633 11.102 1.246 3.785 5.38 2.569 7.579.492 2.939-2.779 4.551-7.08 3.573-11.044zm-35.155 96.169c.056-.798.121-1.596.176-2.393a2.4 2.4 0 0 0 .421.458c-.201.643-.394 1.29-.597 1.935zM475.371 120.906c26.145-4.652 53.477-5.592 79.979-4.883 27.103.727 54.488 4.326 79.983 13.87 34.666 12.976 60.641 39.243 80.394 69.736-3.673-3.995-7.536-7.814-11.653-11.38-1.896-1.644-3.934-1.377-5.689-.113-31.23-29.312-70.001-49.604-112.414-56.75-14.301-3.206-28.975-4.803-43.597-5.187-23.342-.612-46.753 1.313-69.469 6.776a269.089 269.089 0 0 0-23.003 5.71c-34.854 10.339-66.583 29.236-92.32 54.733 29.736-36.408 68.663-63.768 117.789-72.512zM314.848 271.233c-.62 1.164-1.214 2.341-1.826 3.511l-.181-.455a293.142 293.142 0 0 1 9.898-19.368 290.507 290.507 0 0 0-7.891 16.312zm393.618 323.912a222.418 222.418 0 0 1-6.105 10.42c-20.75 27.668-47.263 50.997-77.479 67.843-40.5 22.578-87.618 31.594-133.562 25.432-14.452-1.937-28.761-5.291-42.506-10.123-19.001-8.014-36.896-18.713-53.068-31.496-10.304-8.146-19.82-17.243-28.485-27.1-19.169-25.601-43.366-55.773-49.675-87.024-38.016-188.352-6.48-215.417 3.644-255.592.345-1.371.019-3.168-.655-4.485 7.376-18.108 16.665-35.428 28.026-51.29 7.416-9.891 15.398-19.332 24.062-28.17 28.476-27.817 64.365-46.3 103.51-54.411 48.001-9.944 100.517-6.646 143.299 18.679 43.29 25.625 74.39 60.109 97.117 103.916 1.489 2.871 2.927 16.487 4.32 19.404 6.909 20.044 12.301 40.64 16.922 61.287 3.528 15.767 6.625 31.626 9.458 47.533.287 7.793.34 15.593.23 23.363-.343 24.887-2.488 49.744-4.68 74.533a535.066 535.066 0 0 1-3.402 8.302c-4.381 31.284-16.135 61.996-30.971 88.979zm47.749-293.579a599.924 599.924 0 0 1 2.488 6.629c4.547 15.204 7.633 30.832 9.159 46.597a438.552 438.552 0 0 0-11.647-53.226z"/><path d="M391.151 732.943c-1.921 41.002 8.336 84.312 37.68 114.465 30.999 31.853 79.635 40.141 121.516 28.367 29.991-8.433 54.626-29.142 69.199-56.503 15.21-28.561 19.27-65.252 11.541-96.605-.781-3.169-4.37-3.18-6.636-1.782-3.548 2.188-6.359 7.25-5.849 11.479 2.586 21.416 4.052 42.192-1.966 63.228-5.029 17.581-14.452 32.604-28.673 44.705-31.877 27.122-83.726 29.896-120.756 12.841-47.434-21.848-66.413-76.094-65.124-125.228.066-2.524-2.125-4.441-4.573-3.698-3.351 1.017-6.199 5.312-6.359 8.731z"/><ellipse fill="#AD4040" cx="689.828" cy="506.225" rx="29.229" ry="28.105"/><ellipse fill="#AD4040" cx="359.062" cy="507.764" rx="29.229" ry="28.105"/><path fill="#AF543F" d="M282.897 412.062c-12.159-11.566-30.48-26.911-48.72-19.605-20.497 8.21-31.368 31.238-33.175 52.202-2.209 25.685 8.349 76.296 44.761 66.099 14.936-4.183 26.86-17.754 35.484-29.856 5.993-8.403 12.191-23.739 4.622-33.19-7.534-9.404-20.395.322-25.347 7.27-1.48 2.075-3.013 4.1-4.627 6.07-2.934 3.581 4.23-4.631 1.205-1.375-.708.76-1.456 1.482-2.199 2.203-.693.672-1.426 1.303-2.156 1.931-2.931 2.521 4.77-3.532 1.742-1.37-1.279.917-2.651 1.694-4.058 2.396 6.516-3.25 2.148-1.037.159-.555-2.762.672 4.839-.506 2.066-.243-.588.057-1.181.048-1.775.036-1.733-.032-5.783-1.34.192.397-1.281-.373-2.487-.978-3.637-1.646-3.721-2.157.356.548-.03.204-.94-.835-1.779-1.784-2.588-2.75-.856-1.02-1.614-2.119-2.341-3.233-.379-.58-.727-1.181-1.074-1.778-1.43-2.458 2.331 4.619.515.844-1.302-2.714-2.307-5.565-3.17-8.449-.446-1.493-.815-3.013-1.156-4.533-.743-3.294.988 5.262.389 1.934a79.003 79.003 0 0 1-.473-3.124c-.419-3.104-.589-6.233-.589-9.36-.002-3.534-.26 6.212-.092 2.711.035-.751.101-1.497.163-2.245.124-1.449.335-2.891.582-4.328.829-4.864-1.935 7.198-.272 1.484.186-.636.404-1.26.624-1.882 1.208-3.423-3.107 7.26-1.635 3.987 2.481-5.521-2.402 3.479-1.512 2.169 3.068-4.514-5.195 4.941-1.181 1.407-5.693 5.013-4.484 3.342-2.787 2.236 1.357-.879 4.077-1.897-2.714 1.139 1.033-.46 2.138-.73 3.244-.936-6.376 1.183-2.211.333-.215.479.68.05 1.35.167 2.018.285 2.588.448-4.506-1.407-.536-.113 3.512 1.146 6.768 3.017 9.856 5.007 1.938 1.248 3.779 2.644 5.594 4.064-3.354-2.624.157.161.687.622 1.434 1.246 2.812 2.548 4.188 3.857 8.673 8.252 19.494.64 25.349-7.27 5.352-7.228 13.085-25.137 4.619-33.192z"/><path d="M275.881 407.151c-17.365-11.414-41.588-21.68-60.525-7.722-15.3 11.274-19.435 33.042-18.336 50.848 1.175 19.004 8.828 39.576 23.849 51.919 16.638 13.669 42.254 12.383 57.315-3.178 1.263-1.306 5.537-11.395.499-10.553-9.209 1.541-16.975 6.773-26.563 7.324-7.793.444-15.147-2.06-21.619-6.271-13.498-8.792-21.129-25.955-23.634-41.339-2.064-12.688-1.736-29.488 9.046-38.414 15.8-13.086 40.579-1.83 55.915 6.083 3.151 1.624 7.036-6.735 4.053-8.697z"/><path d="M227.303 453.246c6.359-7.82 14.877-13.798 25.254-13.93 11.441-.145 13.977 10.002 18.311 18.307 1.976 3.792 6.34-4.594 6.5-5.997 1.455-12.758-4.974-25.465-19.117-25.715-13.855-.247-26.314 11.466-33.627 22.008-1.911 2.756-.971 9.814 2.679 5.327z"/><path d="M277.818 446.796c-8.248-.341-18.59-.424-24.425 6.479-5.773 6.828-4.636 17.161.314 24.136 2.122 2.99 5.595-4.431 4.962-6.422-.905-2.837-5.12-10.298-2.079-12.928 4.845-4.188 13.237-4.301 19.243-4.619 2.407-.129 4.954-6.526 1.985-6.646z"/><path d="M779.703 325.673c-2.276-21.927-6.358-43.762-12.628-64.906-9.387-31.666-24.613-62.093-46.553-86.948-26.615-30.149-63.199-51.193-102.878-58.096-3.616-.628-7.264-1.128-10.924-1.393a25.817 25.817 0 0 1-3.362-.457 496.042 496.042 0 0 0-46.09-6.591c-45.631-4.366-93.288-1.537-136.141 15.856-30.581 12.412-57.376 32.124-79.324 56.67-9.259 10.354-17.741 21.31-25.777 32.635-8.905 12.551-15.348 25.162-19.85 39.953-9.378 30.826-13.685 63.291-17.72 95.17-1.843 14.563-3.476 29.15-5.19 43.73-.66 5.612-1.334 11.224-2.098 16.822-.291 2.125-.605 4.25-.949 6.37-.167 1.026-1.258 6.311-.477 2.887-.681 2.988-1.319 8.842 3.298 9.058 1.595.075 3.13-.618 4.468-1.705-.387 2.094-32.333 134.499 66.286 243.545 56.66 62.651 140.986 87.914 220.202 74.049 73.596-12.884 134.749-62.98 171.458-131.294 29.375-54.671 43.76-127.475 42.698-196.962 1.473-2.121 2.427-4.65 2.681-6.93 2.995-26.819 1.651-54.655-1.13-81.463zm-43.445 251.433c-29.739 69.847-87.162 120.96-157.844 137.068-79.426 18.102-166.703-5.067-223.262-68.536-57.177-64.163-71.403-154.59-64.106-239.873-2.915-1.766-3.844-3.382-6.062-4.755 1.045-7.262 1.841-14.572 2.758-21.808 2.534-19.996 5.077-39.993 8.151-59.914 3.091-20.026 6.454-39.924 11.608-59.091a224.265 224.265 0 0 1 3.6-12.013 160.589 160.589 0 0 1 1.92-5.434c.213-.573.439-1.141.663-1.711-.058.191.821-1.94.97-2.274a82.457 82.457 0 0 1 2.117-4.355c.348-.668.72-1.326 1.091-1.983.029-.05.046-.08.069-.124 1.654-2.559 3.49-5.017 5.25-7.504 3.672-5.195 7.427-10.333 11.304-15.377a337.01 337.01 0 0 1 5.995-7.554 328.047 328.047 0 0 1 3.155-3.79c.536-.637 1.079-1.267 1.621-1.897.151-.176.945-1.076 1.353-1.543a236.732 236.732 0 0 1 14.822-15.201c5.457-5.12 11.619-10.229 16.512-13.851 30.062-22.262 66.066-34.187 103.079-38.056 26.1-2.73 52.502-1.696 78.528 1.311 13.786 1.591 27.483 5.187 41.274 6.271 3.992.314 7.965.906 11.903 1.625 3.089.563 6.157 1.235 9.208 1.985.371.092.741.187 1.112.278.002.002.004.002.007.002a171.02 171.02 0 0 1 8.483 2.5c47.054 15.127 83.6 49.318 105.443 93.498 11.516 23.294 19.028 48.565 23.564 74.102 2.846 16.018 4.521 32.229 5.445 48.465.893 15.664.479 31.306.552 46.961-.892-.356-9.326 123.361-30.283 172.578z"/><path fill="#AF543F" d="M681.846 367.517c-6.99-20.769-24.983-35.761-47.607-30.763-22.241 4.914-34.611 27.388-34.834 48.758-.05 4.755 5.766.073 5.979-2.751.027-.356.062-.712.097-1.066.599-.023 1.25-.186 1.941-.515 6.794-3.251 13.178-7.31 19.709-11.078.908-.103 1.819-.209 2.728-.3 5.317-.532 12.031-1.503 18.51-1.407 5.371.919 10.672 2.357 15.765 4.018 2.312.754 4.63-.879 6.057-3.176 1.362 1.891 2.537 3.926 3.548 5.951 2.956 5.92 9.498-3.54 8.107-7.671z"/><path d="M624.069 423.953c15.709 11.056 38.189 10.141 50.258-6.041 9.641-12.926 7.348-30.223-4.969-39.174-2.753-3.8-7.112-6.591-11.522-8.099-5.408-1.849-11.158-1.968-16.698-.772-9.165.858-17.115 5.89-21.936 13.177-.417.49-.824.984-1.212 1.489-9.989 13.02-7.488 29.878 6.079 39.42zm49.327-27.87a29.2 29.2 0 0 0-.589-3.434c.35 1.068.564 2.203.589 3.434z"/><circle fill="#FFF" cx="638.941" cy="392.13" r="11.782"/><path d="M603.766 389.162c10.765-8.813 23.529-17.333 37.899-17.846 8.755-.312 16.728 3.331 24.111 7.651 6.217 3.637 12.173 7.926 19.371 9.341 7.987 1.57 16.945-3.254 21.696-9.487 1.554-2.039 2.091-8.782-2.162-6.178-3.499 2.143-6.158 4.935-10.213 6.118-3.055.892-6.463.579-9.475-.328-7.13-2.146-13.389-6.717-20.083-9.868-23.033-10.842-44.807.595-62.831 15.744-2.354 1.981-1.899 7.79 1.687 4.853zm109.978-55.728c-11.954-21.262-40.26-30.934-62.789-34.737-29.784-5.028-66.447 1.41-85.014 27.582-1.994 2.812-3.585 6.811-2.387 10.271 1.469 4.24 5.672 2.574 8.203.531 10.798-8.714 20.991-15.487 34.543-19.206 13.151-3.608 26.964-3.595 40.388-1.696 12.506 1.769 24.756 5.623 36.049 11.269 8.476 4.238 17.154 9.299 22.694 17.208 1.95 2.784 5.732-.262 7.03-2.016 1.962-2.651 2.963-6.217 1.283-9.206z"/><path d="M689.472 363.13c-4.22 6.017-12.954 6.314-19.615 6.257-7.42-.064-14.757-1.434-22.158-1.801-3.094-.153-6.11 6.853-2.371 7.534 14.699 2.678 37.673 7.037 47.453-7.852 2.266-3.452-.125-8.677-3.309-4.138z"/><path fill="#AF543F" d="M360.406 367.517c6.991-20.769 24.984-35.761 47.608-30.763 22.241 4.914 34.612 27.388 34.833 48.758.051 4.755-5.764.073-5.978-2.751-.027-.356-.062-.712-.096-1.066-.599-.023-1.25-.186-1.941-.515-6.794-3.251-13.179-7.31-19.709-11.078-.909-.103-1.82-.209-2.729-.3-5.316-.532-12.031-1.503-18.509-1.407-5.371.919-10.67 2.357-15.765 4.018-2.312.754-4.629-.879-6.055-3.176-1.363 1.891-2.538 3.926-3.549 5.951-2.96 5.92-9.501-3.54-8.11-7.671z"/><path d="M424.262 384.532a38.45 38.45 0 0 0-1.212-1.489c-4.82-7.287-12.771-12.318-21.935-13.177-5.541-1.195-11.29-1.076-16.699.772-4.41 1.508-8.769 4.299-11.522 8.099-12.316 8.951-14.609 26.249-4.969 39.174 12.069 16.181 34.548 17.096 50.259 6.041 13.566-9.541 16.068-26.399 6.078-39.42zm-54.817 8.117a29.693 29.693 0 0 0-.588 3.434 11.69 11.69 0 0 1 .588-3.434z"/><circle fill="#FFF" cx="403.311" cy="392.13" r="11.782"/><path d="M441.38 383.968c-10.629-8.983-22.517-17.274-36.525-19.593-8.974-1.485-17.709.712-25.816 4.476-6.578 3.054-12.567 7.532-19.551 9.661-2.978.908-6.024.945-9.058.278-4.387-.964-7.236-4.488-11.041-6.45-3.552-1.833-6.421 5.296-4.816 7.794 4.273 6.646 13.652 9.386 21.045 7.951 7.164-1.39 13.511-6.168 19.706-9.75 7.628-4.411 15.692-7.455 24.632-6.939 14.224.821 27.111 9.801 37.773 18.481 2.01 1.634 5.568-4.289 3.651-5.909zm-105.842-41.329c4.677-6.923 13.262-12.04 21.523-16.217 10.896-5.51 23.338-8.966 35.414-10.568 13.28-1.762 27.146-1.279 40.048 2.5a86.037 86.037 0 0 1 18.909 8.105c6.133 3.555 11.349 8.387 17.118 12.456 2.634 1.858 6.395-1.666 7.762-3.512 2.4-3.243 3.902-8.017 1.627-11.683-8.201-13.212-24.48-20.501-39.048-24.056-14.678-3.582-30.154-3.028-44.952-.549-24.311 4.072-52.195 15.727-65.149 37.955-1.184 2.031-1.897 5.567-.282 7.584 2.063 2.576 5.699-.045 7.03-2.015z"/><path d="M348.734 368.427c9.172 14.194 32.805 9.004 46.528 6.596 2.547-.447 5.13-7.617 1.663-7.438-12.803.662-34.395 7.025-43.408-5.615-2.152-3.018-6.496 3.807-4.783 6.457z"/><path fill="#FF617F" d="M576.753 530.666c-10.23-5.582-20.745-9.018-31.698-11.695-2.161-.528-4.443 3.126-5.048 6.512l-1.054-.034a244.354 244.354 0 0 0-13.04-.021c-2.354-2.785-5.101-4.864-8.562-5.916-4.769-1.448-10.086.815-14.339 3.328-9.042 5.346-16.552 13.686-24.835 20.541-.553.131-1.15.648-1.705 1.371a70.87 70.87 0 0 1-4.156 3.062c-2.148 1.453-3.116 8.58.402 6.521a64.48 64.48 0 0 0 2.469-1.529c.021.062.044.121.067.18a7.004 7.004 0 0 0-.274.419 11.395 11.395 0 0 0-1.487 7.884c2.529 14.978 8.834 17.67 19.247 26.202 9.594 7.865 21.732 10.371 33.056 9.306 8.268-.779 16.373-3.455 23.825-7.745 6.736 1.765 13.733-.304 19.929-6.642 9.358-9.577 14.438-14.798 13.838-29.681 2.779-.876-3.034-20.098-6.635-22.063zm-84.675 49.011a71.351 71.351 0 0 0 6.458 6.004 38.834 38.834 0 0 1-6.458-6.004z"/><path d="M584.779 547.734c-1.016 10.004-4.487 19.012-10.827 26.197-8.03 9.103-18.987 13.594-29.584 15.625-21.974 4.212-48.556-3.319-63.08-25.29-3.993-6.041-6.581-13.042-7.94-20.462-1.755-.286-3.509-.57-5.266-.852 5.195 56.129 71.826 71.691 104.751 40.147 9.325-8.936 15.078-21.714 16.466-35.726-1.504.141-3.01.258-4.52.361z"/><path d="M451.354 541.729c13.564 13.424 27.155.856 38.609-9.816 5.727-5.34 11.753-11.104 18.994-12.716 9.217-2.052 15.811 6.855 21.551 14.185 2.187 2.791 5.151-3.861 3.812-6.339-4.632-8.547-12.37-15.935-21.016-15.98-7.387-.042-14.159 5.296-19.925 10.425-11.677 10.385-24.737 26.99-39.331 13.734-1.919-1.743-4.63 4.59-2.694 6.507z"/><path d="M533.174 532.905c6.228-7.325 13.65-13.129 22.547-10.916 6.854 1.704 12.807 7.999 18.072 13.274 10.86 10.883 23.541 22.512 36.963 9.982 1.281-1.197 2.253-3.076 2.127-5.143-.109-1.759-1.323-2.527-2.542-1.596-6.34 4.847-12.485 5.582-19.218 1.477-6.576-4.015-12.024-10.566-17.809-16.019-5.471-5.159-11.557-9.753-18.588-10.381-9.065-.81-17.043 6.42-23.072 13.933-1.883 2.342-1.531 8.978 1.52 5.389zm-26.698 20.061c8.406 6.74 18.263 13.935 29.609 12.291 8.568-1.243 15.705-8.434 22.582-13.091 2.598-1.759 3.541-9.541-.517-6.815-6.199 4.164-12.109 9.881-19.434 11.943-10.272 2.894-21.152-5.593-28.645-11.389-2.467-1.911-6.219 4.954-3.595 7.061z"/><path d="M553.81 556.674c10.636.256 23.199 1.445 32.633-4.526 1.895-1.2 4.269-8.593.228-7.12-10.015 3.65-19.89 3.756-30.438 3.946-3.192.057-6.171 7.61-2.423 7.7zm-39.712-10.668c-5.521-.764-11.32-.01-16.894-.299-6.416-.333-12.021-2.284-18.198-3.531-3.179-.643-5.43 5.711-3.104 7.572 4.334 3.465 11.885 3.811 17.187 4.109 6.322.357 13.313.459 19.494-1.08 2.201-.548 4.87-6.304 1.515-6.771z"/></svg>