<svg xmlns="http://www.w3.org/2000/svg" xmlns:xlink="http://www.w3.org/1999/xlink" width="1030" height="1030" viewBox="0 0 1030 1030"><defs><path id="a" d="M1020.379 515.001c0 279.115-226.266 505.377-505.379 505.377-279.111 0-505.377-226.264-505.377-505.377S235.888 9.622 515 9.622c279.113 0 505.379 226.266 505.379 505.379z"/></defs><use xlink:href="#a" overflow="visible" fill="#FFBF1F"/><clipPath id="b"><use xlink:href="#a" overflow="visible"/></clipPath><g clip-path="url(#b)"><path fill="#FFBF1F" d="M1021.414 517.214c0 279.115-226.266 505.377-505.379 505.377-279.112 0-505.377-226.264-505.377-505.377S236.923 11.835 516.035 11.835c279.113 0 505.379 226.266 505.379 505.379z"/><path fill="#FC9E17" d="M64.591 301.339c65.699-60.766 147.473-101.363 226.168-142.393 40.814-21.281 80.746-43.73 120.539-66.854 43.205-25.111 87.469-49.598 136.053-62.561-.955-12.574-1.91-25.146-2.863-37.723C469.49 62.96 382.009 118.8 296.63 176.392c-43.967 29.658-87.432 59.996-129.213 92.682-20.033 15.672-39.123 32.311-60.043 46.828-21.764 15.1-44.412 28.885-66.553 43.41-20.463 13.42-40.42 27.699-58.93 43.736-7.094 6.145-11.697 17.17-10.986 26.521.547 7.209 5.93 13.973 13.848 11.199 98.168-34.393 184.332-95.652 268.734-154.941 42.164-29.617 84.252-59.42 128.115-86.494 19.998-12.342 40.242-24.098 59.857-37.074 21.045-13.918 41.816-28.238 62.965-42 37.358-24.314 76.481-48.123 120.034-59.316l-6.715-33.35c-3.625 4.496-11.992 11.266-18.965 15.918-10 6.67-20.648 12.365-31.156 18.178-23.027 12.742-45.092 27.219-67.553 40.936-51.305 31.332-102.533 62.797-153.852 94.113-51.111 31.188-102.326 62.211-153.791 92.816-45.84 27.262-92.238 53.613-137.738 81.449-57.197 34.99-113.604 73.15-161.328 120.578-6.828 6.783-11.732 16.688-10.986 26.52.559 7.365 5.898 13.781 13.85 11.199 51.945-16.859 99.75-43.609 147.504-69.639 50.273-27.404 102.162-51.779 153.584-76.934 106.725-52.203 213.545-104.201 320.028-156.898 43.588-21.572 87.408-42.348 128.738-68.076 36.969-23.018 73.674-48.996 115.463-62.539-.955-12.574-1.908-25.146-2.865-37.721-32.514 34.457-76.607 55.146-117.219 78.289-50.043 28.516-97.459 62.32-145.696 93.777-48.672 31.742-97.557 62.701-143.461 98.404-36.26 28.201-71.637 58.477-113.41 78.264C166.968 440.29 75.417 461.753 37.56 541.29c-3.076 6.463-5.365 14.316-2.91 21.402 1.744 5.039 7.496 9.094 12.934 6.588 100.086-46.102 193.518-104.332 287.449-161.586 46.518-28.355 93.289-56.326 141.229-82.229 49.124-26.541 100.223-49.029 149.866-74.543 51.182-26.305 101.262-54.686 151.102-83.426-.984-12.998-1.971-25.994-2.959-38.99-89.506 66.279-184.818 124.035-280.237 181.279-95.316 57.186-189.701 115.123-280.916 178.699C148.345 533.63 70.7 560.08 20.878 624.457c-8.809 11.383-11.102 42.221 10.986 31.381 208.225-102.16 408.939-218.58 611.709-330.955 81.107-44.949 162.6-89.213 245.033-131.684l-2.959-38.988C684.77 269.935 489.943 395.938 300.087 528.915 223.16 582.794 147.083 637.888 71.74 693.958c-9.188 6.836-16.062 17.881-15.16 29.76.734 9.699 9.59 15.234 18.119 9.229 43.633-30.723 91.014-55.527 138.016-80.598 48.867-26.064 96.422-53.967 143.455-83.207 97.824-60.818 193.596-125.836 295.819-179.223 79.945-41.756 155.398-91.654 236.617-131.035l-7.131-35.752C726.443 362.759 545.963 469.948 368.333 577.765c-93.445 56.721-186.838 113.709-276.602 176.166-9.32 6.484-16.045 18.146-15.162 29.758.801 10.539 9.316 14.158 18.121 9.23 202.516-113.371 408.092-221.234 609.108-337.291 82.609-47.695 164.387-96.848 244.781-148.197-3.662-10.461-7.324-20.92-10.984-31.381-4.996 7.512-10.377 14.717-16.098 21.689-5.041 6.145-10.836 12.266-18.375 19.707-14.123 13.939-29.66 26.809-45.09 38.273-35.396 26.297-73.572 48.73-112.08 70.107-37.449 20.789-75.582 40.312-113.117 60.945-42.605 23.422-83.598 49.658-124.551 75.828-65.34 41.752-130.41 84.795-198.977 121.15-60.084 31.857-124.109 59.162-173.205 107.688-6.838 6.762-11.73 16.707-10.986 26.521.623 8.164 5.797 12.766 13.852 11.199 27.105-5.268 51.928-18.041 75.645-31.76 24.854-14.379 49.684-28.809 74.537-43.191a10614.59 10614.59 0 0 0 152.23-89.771c49.531-29.773 100.038-57.951 150.668-85.822 50.375-27.73 102.131-51.93 153.662-77.322 67.275-33.148 131.119-72.73 197.158-108.186l-10.984-31.383c-5.504 7.193-9.135 10.836-17.041 18.057-7.75 7.076-15.977 13.312-24.516 19.367-18.807 13.338-38.713 25.094-58.617 36.699-43.184 25.18-85.117 51.793-126.223 80.277-91.951 63.715-180.732 131.844-272.467 195.85-62.605 43.68-127.018 85.396-195.645 119.062l2.959 38.99c48.338-27.512 98.725-51.109 148.234-76.383 25.086-12.807 49.887-26.168 74.098-40.572 24.189-14.391 46.895-30.896 69.809-47.201 23.254-16.545 46.578-32.992 70.564-48.465 23.51-15.168 48.086-28.535 72.547-42.078 48.809-27.02 97.928-53.48 146.338-81.211 61.396-35.17 121.518-72.686 178.059-115.307l-10.984-31.381c-59.982 69.826-146.119 119.631-225.498 166.939-91.051 54.268-181.006 110.705-269.409 169.203-41.195 27.26-81.383 55.869-121.203 85.092-39.395 28.914-78.959 57.732-121.234 82.348-9.594 5.584-15.99 18.82-15.16 29.758.842 11.066 9.201 13.475 18.119 9.23 100.961-48.053 196.105-107.057 291.247-165.518 47.797-29.369 95.674-58.625 144.385-86.459 47.674-27.238 96.568-52.016 145.609-76.67 75.025-37.713 150.203-76.055 218.389-125.428-2.375-11.916-4.754-23.834-7.131-35.75-33.609 33.213-76.088 55.598-117.895 76.719a4044.129 4044.129 0 0 0-133.637 70.689c-99.297 54.922-199.127 109.008-295.387 169.18-39.695 24.812-79.178 50.248-116.168 78.982-32.521 25.262-64.553 53.299-102.398 70.43-8.953 4.055-15.02 11.32-17.994 20.766-1.854 5.883-3.031 24.236 8.273 22.725 45.449-6.074 87.678-22.926 128.725-42.799 43.947-21.275 85.809-46.65 127.571-71.857 92.4-55.779 188.994-103.605 284.82-153.17 30.955-16.012 61.799-31.988 92.061-49.281 29.732-16.99 59.461-33.979 89.189-50.969 9.617-5.496 15.986-18.891 15.16-29.758-.803-10.576-9.309-14.111-18.121-9.23-104.188 57.711-206.854 118.117-308.766 179.746-51.145 30.93-102.088 62.188-152.947 93.584-44.668 27.572-85.542 60.625-129.553 89.188-21.203 13.756-43.262 26.518-67.016 35.328-.436 13.652-.871 27.305-1.309 40.957 171.867-107.34 370.172-160.402 549.303-253.342 47.312-24.547 93.094-52.107 136.094-83.643 9.217-6.758 16.059-17.938 15.16-29.76-.76-9.986-9.484-14.867-18.119-9.229C824.266 729.44 638.676 860.724 439.865 970.419a2775.644 2775.644 0 0 1-59.695 31.969l7.133 35.752c73.348-58.309 162.889-92.967 248.28-129.312 44.957-19.137 89.818-38.742 132.914-61.836 22.314-11.959 44.49-24.162 66.002-37.533 23.461-14.584 46.564-29.75 71.244-42.24l-14.291-26.021c-3.254 5.631 2.838-4.268-.768 1.271-1.092 1.672-2.266 3.291-3.438 4.908-1.197 1.656-2.473 3.256-3.742 4.855-.225.285-4.666 5.496-1.594 2.025-6.42 7.246-13.553 13.844-20.877 20.158-14.344 12.365-31.18 23.664-48.141 34.455-35.631 22.666-73.098 42.25-109.025 64.42-39.857 24.594-76.527 54.361-114.17 82.133-42.475 31.334-86.008 61.828-133.524 85.104-8.504 4.166-17.229 7.842-26.043 11.295.955 12.572 1.908 25.146 2.865 37.721 61.736-53.27 143.856-80.49 220.313-108.334 80.787-29.42 162.883-61.467 226.771-120.973 7.469-6.955 14.518-14.354 21.268-22.004 7.162-8.117 13.979-19.857 10.07-31.133-3.469-10.01-15.477-8.066-21.375-1.381-114.23 129.438-307.65 132.047-443.067 231.178a405.641 405.641 0 0 0-25.289 20.133c-7.098 6.125-11.693 17.186-10.986 26.523.529 6.965 5.992 14.279 13.852 11.197 97.135-38.068 176.129-109.006 260.493-168.248 66.982-47.033 147.926-76.375 205.264-136.568 10.398-10.916 19.23-22.635 26.766-35.684 7.102-12.287 4.061-35.305-14.291-26.02-23.682 11.982-45.959 26.396-68.42 40.475-22.416 14.049-45.568 26.727-68.83 39.299-42.02 22.705-85.975 41.566-129.891 60.242-90.248 38.379-182.229 75.838-259.649 137.379-7.225 5.744-11.672 17.469-10.984 26.521.818 10.785 9.258 13.842 18.119 9.23C584.75 936.47 771.74 806.556 960.965 681.343a11193.585 11193.585 0 0 1 56.154-36.924l-2.959-38.988c-164.07 120.318-362.51 176.99-545.045 261.854-48.148 22.383-95.299 46.992-140.352 75.131-8.23 5.139-13.766 14.979-14.994 24.48-1.041 8.053 3.029 20.43 13.686 16.479 48.654-18.047 91.17-48.994 132.91-79.129 45.078-32.541 91.93-61.576 139.313-90.625 101.836-62.436 204.242-123.967 307.943-183.266a7368.069 7368.069 0 0 1 86.652-48.766l-2.961-38.988c-51.545 29.457-102.699 59.619-155.438 86.898-53.777 27.818-107.557 55.633-161.336 83.449-43.93 22.723-87.301 45.756-129.695 71.246-41.772 25.117-83.297 50.699-126.524 73.277-41.221 21.529-86.023 41.922-132.549 48.141-3.242 14.498-6.48 28.994-9.721 43.49 47.463-21.482 85.908-55.805 127.178-86.811 44.623-33.523 92.953-62.742 140.678-91.576 96.973-58.586 197.006-111.867 295.912-167.064 73.6-41.076 157.643-70.725 218.6-130.963 6.842-6.76 11.732-16.709 10.988-26.521-.729-9.592-9.637-15.373-18.121-9.23-88.588 64.145-188.59 109.527-285.451 159.373-99.426 51.166-193.672 111.625-289.092 169.732-73.314 44.643-147.525 88.053-225.086 124.969l2.959 38.988c49.188-28.641 94.676-62.945 140.545-96.504 46.477-34 94.137-66.234 142.512-97.467 87.035-56.191 175.35-110.045 263.912-163.752 74.689-45.295 149.064-94.295 206.426-161.074 5.668-6.598 9.145-18.316 6.217-26.762-2.553-7.369-11.105-9.217-17.203-4.619-89.627 67.562-188.064 121.631-286.238 175.51-49.328 27.074-98.404 53.916-144.787 85.881-23.354 16.092-46.291 32.777-69.502 49.068-23.09 16.205-47.426 30.418-72.158 43.965-61.564 33.727-125.93 62.055-186.961 96.791-9.621 5.477-15.982 18.906-15.16 29.76.834 10.973 9.219 13.596 18.119 9.23 98.893-48.512 189.043-113.174 277.803-177.871 89.326-65.109 177.654-132.875 271.783-191.008 55.475-34.266 120.367-62.553 160.973-115.648 5.391-7.047 9.266-17.969 6.219-26.762-2.84-8.197-10.652-8.139-17.203-4.621-49.32 26.479-97.432 55.121-146.602 81.871-49.906 27.152-102.033 49.65-152.422 75.84C537.59 565.519 438.343 626.224 337.974 685.06a11372.038 11372.038 0 0 1-97.148 56.283c-30.902 17.713-60.723 37.979-96.279 44.889.955 12.572 1.908 25.146 2.865 37.721 33.756-33.367 76.162-55.738 118.041-77.18 45.688-23.391 90.238-48.039 134.127-74.68 87.6-53.176 171.682-111.859 262.073-160.354 54.957-29.484 110.543-57.98 162.961-91.898 49.711-32.166 98.854-70.18 131.992-120.016 5.023-7.557 9.406-17.564 6.219-26.762-2.701-7.791-10.855-8.674-17.203-4.621-195.874 125.102-399.876 236.655-603.808 347.893-83.529 45.561-167.061 91.117-250.082 137.596.984 12.996 1.971 25.992 2.959 38.988C265.64 673.978 449.087 574.513 622.932 460.024c94.264-62.08 185.904-128.777 269.848-204.379 7.025-6.326 11.707-17.035 10.988-26.521-.836-11.01-9.213-13.549-18.121-9.23-51.248 24.85-100.295 53.832-149.523 82.396-49.637 28.799-100.666 55.018-150.332 83.748-99.657 57.645-195.211 122.086-293.78 181.537-72.496 43.723-150.875 77.516-220.271 126.383l2.959 38.988c185.014-137.684 374.572-269.338 569.659-392.373 80.436-50.727 161.85-99.902 244.248-147.373 9.607-5.535 15.988-18.861 15.162-29.76-.822-10.814-9.252-13.799-18.121-9.229C679.471 260.433 479.433 377.96 275.685 488.665c-81.457 44.258-163.553 87.352-246.781 128.186 3.66 10.463 7.322 20.922 10.984 31.383 25.775-33.309 66.303-56.533 103.787-77.648 19.877-11.199 39.891-22.156 59.18-34.355 21.949-13.881 42.736-29.654 64.246-44.203 92.357-62.465 188.979-118.262 284.292-176.014 77.074-46.703 153.373-94.857 225.836-148.516 9.199-6.811 16.062-17.9 15.162-29.76-.793-10.436-9.346-14.291-18.121-9.23-48.863 28.18-97.979 55.93-148.078 81.867-49.613 25.688-100.764 48.18-150.026 74.562-96.332 51.592-187.564 112.021-281.984 166.92-45.945 26.715-92.725 52.25-141.018 74.496l10.023 27.99c.941-1.98 1.92-3.936 2.938-5.881.277-.529 3.928-6.719 1.068-2.127 2.277-3.656 4.846-7.123 7.492-10.518.168-.217 4.738-5.592 1.715-2.197 1.438-1.613 2.949-3.158 4.457-4.703 3.551-3.637 7.363-7.01 11.246-10.285 4.773-4.025 12.174-9.08 19.404-13.619 8.459-5.309 17.279-10.027 26.193-14.512 34.469-17.342 71.242-29.699 106.113-46.215 43.148-20.439 79.836-52.666 117.23-81.818 44.834-34.949 93.141-64.873 140.711-95.896 48.038-31.33 95.284-64.803 145.125-93.205 42.926-24.461 88.732-46.936 123.102-83.359 6.684-7.084 11.75-16.467 10.986-26.521-.559-7.365-5.896-13.775-13.85-11.199-49.908 16.174-93.238 47.807-137.6 74.861-48.914 29.832-102.049 53.268-153.393 78.592-106.676 52.613-213.65 104.617-320.469 156.939-43.396 21.258-86.617 42.541-129.029 65.715-40.359 22.047-80.934 43.73-124.822 57.979.953 12.574 1.908 25.146 2.863 37.723 72.18-71.732 163.498-120.635 250.486-171.762 103.367-60.754 205.49-123.592 307.752-186.184 31.838-19.49 63.288-39.891 95.543-58.646 28.137-16.359 57.43-30.23 78.303-56.137 6.779-8.412 13.279-38.49-6.717-33.35-47.429 12.188-90.466 38.452-131.14 64.922-21.107 13.74-41.834 28.055-62.84 41.949-19.621 12.977-39.934 24.668-59.938 37.012-88.902 54.875-170.566 120.623-260.033 174.662-39.996 24.157-81.582 45.801-125.748 61.278l2.863 37.721c39.104-33.881 85.59-57.932 127.51-87.986 21.174-15.182 40.629-32.545 61.215-48.488 20.629-15.977 41.773-31.275 63.117-46.279 86.076-60.504 176.02-115.529 257.793-181.998 18.233-14.82 35.915-30.312 52.961-46.484 6.924-6.572 11.721-16.852 10.986-26.521-.586-7.715-5.842-13.336-13.852-11.199C503.627-.239 458.109 24.439 414.135 49.75c-40.959 23.574-81.777 46.955-123.684 68.824-82.873 43.246-167.969 86.252-237.164 150.254-7.75 7.166-13.725 20.592-10.072 31.133 3.689 10.636 15.031 7.251 21.376 1.378z"/></g><path fill="#2F61DD" d="M275.128 387.77c3.375 8.322 9.418 11.554 16.865 5.501 8.956-7.28 13.777-20.342 17.989-30.669 5.806-14.234 10.285-29.05 13.984-43.96 2.902-11.693 5.732-23.806 5.914-35.912l-8.188 5.05c-.012 7.872 2.72 17.57 12.304 12.654 9.842-5.048 16.857-17.439 22.414-26.458 8.789-14.267 16.058-29.411 22.284-44.955 5.734-14.317 10.811-29.597 12.091-45.053.402-4.856.03-9.5-1.327-14.187-1.58-5.456-7.874 2.73-7.559 5.871 1.227 12.221-2.113 25.24-5.756 36.904-4.863 15.569-11.54 30.574-19.188 44.962-5.626 10.583-12.533 22.744-20.543 30.536-1.685 1.639-1.443 1.535-3.489 2.632 1.283-.688-1.652.322-.247.135-.918.122-.936-.048-.811.001-.835-.325-.836-.575-1.261-1.773-.595-1.679-.688-3.989-.724-6.319-.04-2.565-2.419-3.528-4.458-2.271-2.471 1.524-3.735 4.514-3.73 7.321.016 8.742-2.365 19.477-4.482 28.614a340.779 340.779 0 0 1-11.664 39.431c-3.576 9.841-7.636 19.778-13.766 28.327-3.747 5.225-7.903 5.269-11.336-1.411-1.951-3.798-6.425 2.293-5.316 5.029z"/><path d="M393.417 711.798l-.002.006zM765.23 360.335c-2.816-3.447-6.895-4.521-11.463-2.961-.566.193-1.135.391-1.699.582v-.104l-.361.229c-13.684 4.705-22.516 3.893-31.189 2.139 1.674-5.926 2.957-12.029 3.918-18.215.795-.027 1.623-.309 2.344-.787 3.111-2.064 4.846-6.232 4.766-10.07-.395-18.912-2.65-37.797-7.383-55.816-1.49-7.635-3.754-15.068-7.145-21.732-4.926-12.295-11.246-23.971-19.207-34.715-20.568-27.764-51.15-44.807-82.5-53.926-17.508-5.092-35.48-7.953-53.557-9.307-21.08-1.578-42.324-1.336-63.152 2.787-2.878.57-5.716 1.238-8.521 1.977-28.578 1.111-56.901 7.119-82.801 20.717a136.954 136.954 0 0 0-7.127 4.031c-13.078 5.307-25.795 11.572-37.815 19.092-16.375 10.248-31.969 23.76-41.005 42.027-6.559 13.26-7.906 27.975-4.699 41.979-2.835 13.125-2.666 26.836.724 40.08-10.62 8.006-20.823 16.734-30.424 26.428-5.718 5.773-9.736 14.266-10.751 22.717-.459 3.824-.234 11.525 3.521 16.125 1.868 2.285 4.37 3.412 7.275 3.287 9.216-.451 18.707-1.658 28.716-3.664-8.031 4.277-15.31 8.734-22.012 13.469-7.939 5.607-13.66 15.646-14.927 26.205-.565 4.711.001 11.719 3.466 15.961 1.844 2.258 4.337 3.453 7.258 3.453 18.014-.082 36.896-1.727 57.379-5.014-23.348 10.82-47.588 22.684-71.095 36.92-8.845 5.355-13.921 17.053-15.026 26.27-.732 6.1.558 11.857 3.45 15.4 2.763 3.387 6.858 4.6 11.576 3.391 19.259-4.916 36.159-9.383 51.683-13.674-3.734 1.717-7.53 3.477-11.326 5.258l-.998.266-.031.236c-9.866 5.051-16.854 15.648-18.328 27.918-.73 6.107.553 11.881 3.463 15.441 2.771 3.393 6.837 4.592 11.543 3.348l2.022-.545c-.417.232-.925.463-1.341.697l-.385.055v.059c0 .586-1.917 1.17-2.967 1.754-8.386 4.672-13.75 16.764-14.896 26.299-.732 6.113.572 11.898 3.495 15.477 2.774 3.398 6.86 4.586 11.556 3.311a688.123 688.123 0 0 0 29.934-8.895c-7.173 7.514-13.458 23.562-11.013 33.629 1.608 6.625 6.749 9.734 14.366 8.555a375.174 375.174 0 0 0 21.271-3.924c-2.762 4.68-4.594 10.068-5.256 15.584-.545 4.541.104 11.422 3.732 15.863 2.826 3.461 6.9 4.508 11.441 2.885 3.244-1.162 6.49-2.32 9.74-3.471a39.72 39.72 0 0 0-6.896 17.967c-.747 6.225.401 11.555 3.233 15.023 2.699 3.307 6.799 4.621 11.674 3.771.646-.113 1.291-.262 1.936-.377l.123-.221c6.566-1.152 13.145-2.586 19.73-3.766-3.457 8.322-5.183 17.76-1.854 23.74.922 1.662 2.546 2.994 5.33 3.627 1.123.463 2.438.713 3.963.715l.048.002c5.177-.012 10.37-.088 15.573-.209 9.944.086 19.827.104 29.533-.533.588 5.449 3.123 10.553 7.254 12.516 11.727 5.57 24.872 8.396 39.068 8.396 30.235 0 60.903-12.752 81.342-22.344 38.867-18.242 74.086-42.178 106.357-65.33l.896-.543-.006-.117c9.232-7.105 15.059-19.826 14.248-31.322-.57-8.082-5.16-13.307-11.688-13.307-.422 0-.848.023-1.275.07 10.434-8.99 19.174-18.734 26.49-29.51 5.057-7.449 9.316-18.955 6.109-28.914-1.352-4.195-4.182-7.039-7.822-8a257.374 257.374 0 0 0 5.588-5.496c7.326-7.436 11.609-18.605 10.914-28.459-.473-6.689-4.633-13.801-11.408-13.801-1.305 0-2.648.277-3.996.822-2.049.832-4.121 1.666-6.207 2.504 7.178-5.43 12.504-15.193 13.723-25.346.57-4.766-.398-11.83-3.875-16.09-2.854-3.49-6.918-4.455-11.369-2.631-.533.219-1.072.438-1.611.658l.01-.316-1.182.787c-.871.35-1.748.701-2.633 1.051a348.403 348.403 0 0 0 17.613-16.148c5.707-5.609 9.732-14.107 10.77-22.73.609-5.092-.227-12.012-3.477-15.99-.902-1.105-1.963-1.955-3.16-2.531a811.286 811.286 0 0 0 17.377-10.646c8.855-5.584 13.914-17.209 15.002-26.254.723-5.975-.726-12.174-3.684-15.799zM383.546 233.847c-8.039 8.348-16.004 16.773-24.09 25.059a131.33 131.33 0 0 1 7.723-11.215c1.875-2.439 4.043-4.969 6.387-7.486 4.656-4.168 9.631-7.938 14.811-11.348-.439.453-.879.902-1.318 1.354a27.558 27.558 0 0 0-3.513 3.636zm-44.232 44.918c4.469-13.266 10.289-25.932 17.748-37.523 3.707-3.645 7.639-7.021 11.736-10.17-11.852 13.508-21.254 29.199-28.047 46.328-.479.454-.955.912-1.437 1.365zm332.612-64.952c.57.512 1.139 1.023 1.701 1.545a2.565 2.565 0 0 0-1.047-.395c-.219-.382-.432-.769-.654-1.15zm11.07 140.118c.457 1.104.902 2.215 1.354 3.322-1.156.004-2.588.008-4.178.018a80.66 80.66 0 0 0 2.824-3.34zm14.733-108.918a13.383 13.383 0 0 0-.6 4.066c.02 2.037.104 4.062.242 6.074-5.902-13.918-14.012-26.801-22.709-38.797-.027-.037-.057-.066-.084-.104a135.647 135.647 0 0 1 23.151 28.761zm-372.315 17.461c.091-.684.209-1.359.326-2.037.186-1.061-.092.277.34-1.479 1.32-5.379 3.264-9.336 5.844-13.377 3.412-5.342 6.5-8.762 11.229-13.309 6.274-6.035 13.25-11.295 20.647-15.949a166.56 166.56 0 0 0-8.861 11.377c-11.754 10.652-22.071 22.979-29.764 37.336l-.049.094c.077-.889.172-1.774.288-2.656zm100.223 49.031l2.708-1.301.137.355c-.95.315-1.901.628-2.845.946zm90.965-5.721c4.117 2.436 8.143 5.055 12.092 7.748a578.427 578.427 0 0 1 4.746 3.275c-5.934-2.811-11.49-5.707-16.646-8.799a23.674 23.674 0 0 0-.192-2.224z" fill="#D8724A"/><path fill="#EAA286" d="M773.018 491.679c-1.279-12.006-3.092-23.938-5.293-35.801 1.451-20.887 1.807-41.73-1.492-62.49.15-.725.301-1.449.449-2.172.35-1.689-.254-3.672-1.615-4.434a166.586 166.586 0 0 0-2.68-11.453c-1.4-5.141-6.734-.297-8.529 2.877-1.584-16.328-4.689-32.543-8.705-48.338-8.648-34.01-22.598-67.205-41.996-96.504-.443-.67-1.039-.984-1.689-1.066-3.117-6.162-6.586-12.043-10.592-17.387-.012-15.266-14.232-26.256-26.299-33.771-9.922-6.18-20.791-11.373-31.949-15.459-8.893-8.232-18.561-15.561-29.357-21.254-24.055-12.686-52.5-13.422-78.908-9.74-23.589 3.287-46.245 10.127-68.557 18.096a276.687 276.687 0 0 0-47.879 18.057l-1.326.5c-.29.109-.572.305-.838.561-42.38 21.113-79.116 53.166-103.551 94.064-1.096 1.832-1.718 5.082-.258 6.904 1.986 2.48 5.023-.223 6.401-1.834a296.93 296.93 0 0 1 17.039-18.311 193.363 193.363 0 0 0-7.668 11.566c-15.97 26.072-26.403 56.035-27.294 86.742-.108 3.719 4.62.127 4.758-2.191 2.482-41.57 22.383-82.248 51.992-111.252 14.615-14.316 32.329-25.451 52.15-30.836 23.563-6.406 47.615-1.234 70.916 3.879 1.641.361 3.285.729 4.928 1.1.453.643 1.126 1.043 2.109.969.507-.039 1.014-.096 1.52-.143 17.031 3.902 34.195 8.162 51.493 10.865.422.266.939.463 1.576.576 1.867.332 3.758.473 5.664.457 15.143 1.949 30.385 2.508 45.723.387 17.234-2.383 33.814-8.207 51.104-10.23 8.752-1.023 17.549 6.01 26.188 7.732.822.164 1.625 3.238 2.426 3.445 7.795 10.043 15.068 10.908 21.521 21.703 25.531 42.707 35.785 91.869 40.855 140.805 1.674 16.164 2.953 32.326 3.703 48.496-.41 22.541-.461 45.084-.385 67.629a540.448 540.448 0 0 1-.82 11.334c-1.77 20.898-4.553 41.967-10.43 62.145-6.576 22.578-20.254 42.443-34.303 61.02-16.016 21.176-33.904 42.666-55.033 58.943-.361.279-.732.549-1.098.824-12.73 4.318-24.768 11.738-34.111 20.697a207.365 207.365 0 0 1-30.656 11.705c-20.293 5.963-41.746 8.371-62.792 5.791-3.689-.453-7.152 8.287-2.795 8.881 30.989 4.221 63.17-2.369 92.081-15.533.24 2.066 1.488 3.391 4.51 2.646 9.689-2.387 19.475-7.596 27.717-13.514.344.188.797.223 1.371.047.307 1.057 1.137 1.6 2.799.99 2.953-1.082 5.736-2.545 8.34-4.287.697.639 1.656.891 2.9.391 15.799-6.34 28.693-20 39.693-32.551 8.414-9.602 15.934-20.104 22.752-30.977 1.869.326 4.566-1.305 5.861-2.797 14.467-16.691 23.98-37.178 31.932-57.598 6.322-16.236 11.652-33.105 15.566-50.184-.021 6.129.137 12.248.568 18.354.295 4.158 4.219 4.197 6.762 1.818 19.927-18.637 16.148-46.323 13.531-70.889zM407.513 194.858c2.273-1.1 4.557-2.176 6.855-3.219.514.674 1.324 1.158 2.524 1.35.7.113 1.399.205 2.098.287-3.85.319-7.676.842-11.477 1.582zm127.214 16.377c-.508.186-1.045.529-1.582.98-.521-.082-1.041-.172-1.562-.256 1.123-.256 2.24-.523 3.357-.801a7.7 7.7 0 0 1-.213.077zm40.57 1.786c-.158.5-.293 1.229-.348 2.018-2.791.189-5.598.277-8.412.275 3.07-1.609 6.008-3.266 8.754-4.818l1.408-.412a11.418 11.418 0 0 0-1.402 2.937zm-3.338-47.184c1.309.145 2.619.299 3.928.459a385.77 385.77 0 0 0-3.877-.096 5.982 5.982 0 0 0-.051-.363zm-44.152-14.053c1.658-3.406 2.451-7.549-.268-8.549 15.947-1.502 31.961-.994 47.932 2.58 10.021 2.242 19.334 6.355 27.988 11.66-24.861-5.31-50.322-7.079-75.652-5.691zm89.625 55.371c-1.559.35-3.113.707-4.67 1.066 5.32-2.451 10.646-4.842 16.119-6.666 7.51-.32 15.551-.232 23.127 1.172.092.107.184.215.273.322-11.707-.677-23.484 1.555-34.849 4.106zm91.998 422.403c1.061-3.365 2.328-6.668 3.598-9.879a194.452 194.452 0 0 1 3.229-7.65 141.978 141.978 0 0 0 5.582-9.289c2.082-3.801 4.146-7.613 6.186-11.441-4.953 13.009-10.81 26.442-18.595 38.259zm24.211-248.555a595.032 595.032 0 0 0-1.625-13.217c.686 4.268 1.355 8.541 2.002 12.816-.129.129-.254.264-.377.401zm28.668 162.764c-.346-13.102.295-26.207 1.291-39.309a376.786 376.786 0 0 1 1.367 19.377c.31 7.045-.078 13.883-2.658 19.932z"/><path fill="#FF617F" d="M754.955 933.159c-8.074-32.605-21.58-63.998-40.217-91.531a212.03 212.03 0 0 0-4.172-8.086c-.197-6.119-2.125-11.527-7.221-12.402-4.605-7.4-9.551-14.51-14.646-21.266-26.797-35.527-62.836-58.984-106.584-67.723-44.932-8.979-91.943-1.576-136.422 6.486-39.748 7.205-82.573 12-115.87 36.916-11.701 8.754-21.122 19.102-28.86 30.547-5.383 5.328-10.402 11.07-14.977 17.26a137.172 137.172 0 0 0-2.652 3.725c-9.52 11.635-18.69 23.58-28.209 35.041-6.078 7.318-11.057 22.537-4.309 30.963 2.011 2.512 4.332 3.574 6.742 3.678-1.203 8.711-1.85 17.521-2.016 26.338-1.857 3.32-2.842 7.143-2.162 10.121-3.029 5.385-3.969 12.455.419 15.428.928.627 1.863 1.242 2.798 1.855.83 3.725 3.183 4.527 5.846 3.734.403.248.809.492 1.213.738 1.516 3.109 4.28 5.16 8.791 5.141 10.822 6.049 22.051 11.35 33.56 16.021-.022.9-.017 1.809.054 2.73.619 8.146 5.908 13.178 14.087 11.389a172.086 172.086 0 0 0 14.495-3.863c19.373 6.094 39.21 10.799 58.951 14.656 43.615 8.527 88.959 12.666 133.35 13.908 54.307 1.518 140.014-4.232 180.91-47.979a573.507 573.507 0 0 0 37.688-15.348c6.853-3.071 11.261-11.014 9.413-18.477zm-47.293-18.978a93.003 93.003 0 0 0 6.074-9.732 85.54 85.54 0 0 1 .523 7.836 281.634 281.634 0 0 0-6.597 1.896zm-394.705 31.588c9.836-5.309 19.258-11.439 28.248-17.561 1.379-.938 2.736-1.906 4.105-2.859-8.924 7.225-17.373 14.941-25.139 23.324a208.343 208.343 0 0 1-7.214-2.904zm212.957-179.7c-10.054 4.518-19.862 9.627-29.474 15.045 3.905-4.41 6.938-9.514 8.55-15.156 6.982-.109 13.961-.096 20.924.111zm73.606 12.522c-10.758 6.686-21.674 13.104-32.631 19.445 3.934-7.225 7.279-14.826 9.873-22.865.305-.945.561-1.955.766-3 7.404 1.697 14.74 3.81 21.992 6.42zM282.921 896.813a248.485 248.485 0 0 0 5.967-2.891 194.816 194.816 0 0 0-7.733 10.369c.538-2.477 1.085-4.949 1.639-7.42.041-.02.085-.038.127-.058zm121.916-16.197c21.76-16.172 45.393-29.861 68.367-44.213 14.445-9.023 29.115-17.758 44.409-25.094a329.325 329.325 0 0 1-4.067 3.594c-9.414 8.172-16.902 13.504-28.146 21.199-11.896 8.143-24.152 15.756-36.461 23.256-25.481 15.525-52.898 30.279-78.338 47.41 11.417-8.714 22.716-17.589 34.236-26.152zm114.237-11.51c-15.752 10.668-31.945 20.639-48.229 30.461 20.947-15.795 42.572-29.451 65.387-42.43a697.56 697.56 0 0 1-17.158 11.969zm-61.948 90.684c-4.215 2.898-7.881 6.896-10.576 11.471-4.383-.287-8.764-.6-13.141-.949a5785.994 5785.994 0 0 0 23.717-10.522zm238.243-89.834a162.154 162.154 0 0 0 5.498-8.213 249.285 249.285 0 0 1 1.891 4.318 356.694 356.694 0 0 0-7.389 3.895zm-44.148-28.334a487.996 487.996 0 0 0 11.189-13.508c1.779-2.229 3.371-4.904 4.623-7.799a218.378 218.378 0 0 1 9.566 9.562 419.054 419.054 0 0 0-25.378 11.745zm-7.881-40.449c-7.346 4.918-14.281 10.363-21.061 16.012 4.68-6.867 8.945-14.014 12.719-21.461a192.953 192.953 0 0 1 8.342 5.449zM513.935 968.31a191.97 191.97 0 0 0-5.447 5.705c-1.148-.031-2.296-.066-3.443-.1a973.27 973.27 0 0 0 8.89-5.605z"/><path fill="#D8724A" d="M566.658 725.347a42.76 42.76 0 0 0-2.543-1.068c-1.285-4.346-3.102-8.686-5.467-13.029-5.543-10.188-19.896 1.719-23.645 6.781a41.09 41.09 0 0 0-2.16 3.236c-8.246.824-16.361 2.523-23.575 4.312-16.019 3.977-32.887 13.889-40.758 28.297-.207-.223-.432-.465-.701-.75-1.465-1.549-2.701-3.287-3.855-5.074.753 1.104-1.047-2.131-1.194-2.48-.622-1.461-1.067-2.99-1.515-4.51a57.04 57.04 0 0 0-.192-.637 32.549 32.549 0 0 0-.155-1.273c-.247-1.785-.305-3.594-.369-5.393-.006-.207-.014-.391-.021-.562.056-.328.125-.908.211-1.855.195-2.111.574-4.205.947-6.291 1.571-8.811-3.336-19.975-13.92-16.758-11.293 3.43-45.381 35.039-47.293 45.762-3.279 18.389 2.909 56.404 14.353 71.764 9.456 12.688 53.669 47.408 68.892 48.797 14.547 1.33 87.364-14.039 100.467-20.094 2.027-.605 33.477-59.447 35.404-60.279 0 0-10.355-48.799-26.793-45.928 4.354-5.615-26.951 11.4-23.988 5.072 3.396-7.259 8.058-23.322-2.13-28.04z"/><path fill="#AF543F" d="M556.043 746.241c-16.24 8.988-35.043 12.492-53.481 11.875-18.385-.609-38.958-5.086-50.161-20.953-3.47-4.914-9.293 7.297-8.196 10.617 14.471 43.859 71.083 48.984 107.483 30.758 7.631-3.822 12.436-12.633 13.541-20.881.671-5.013-1.602-15.611-9.186-11.416z"/><path d="M294.951 875.294c9.695.855 21.031 4.447 25.303 14.072 3.938 8.875 3.748 20.131 3.547 29.654-.232 10.781-1.832 21.547-2.932 32.264-.829 8.066-3.786 21.18 1.244 28.217 5.243 7.334 12.999-9.072 13.516-12.473 1.493-9.846-.309-20.869-.039-30.918.309-11.426.676-22.893-.78-34.26-1.229-9.586-4.82-17.727-11.847-24.43-7.713-7.355-17.943-6.594-27.551-4.24-.62.155-1.407 2.032-.461 2.114zm351.809 4.947c2.416 8.336 6.133 16.139 9.109 24.289 3.584 9.805 5.523 20.109 7.471 30.332 3.971 20.834 5.525 42.113 8.639 63.084.154 1.039.414 3.266 1.83 3.561.414.088.834.174 1.25.264 2.602.545 4.723-2.023 5.627-4.227 3.766-9.188.385-19.93-.805-29.537-1.469-11.869-3.43-23.676-5.77-35.406-2.311-11.578-5.549-22.895-10.129-33.783-3.383-8.043-7.66-16.91-16.475-19.711-.505-.165-.853.763-.747 1.134z"/><path d="M683.625 849.073c-13.678 5.008-25.521 13.041-34.771 24.338-1.543 1.883-3.006 4.73-2.221 7.244 1.004 3.219 4.23.291 5.281-1.152 7.957-10.959 18.678-18.85 30.91-24.48 1.869-.862 3.867-7.071.801-5.95z"/><path fill="#FF8A0B" d="M397.227 808.732c.252-.007.49.012.735.074l-.675-.176c.222.07.415.168.598.312l-.534-.439c.167.147.299.313.408.509l-.347-.646c.1.196.172.398.218.613l-.159-.801c.018.093.034.186.039.279.034.716.348 1.521 1.024 1.865.69.352 1.495.112 2.111-.268.854-.526 1.511-1.359 1.961-2.243.487-.956.632-1.853.663-2.905.018-.608-.133-1.271-.379-1.825-.601-1.356-1.662-2.162-3.167-2.277-.844-.064-1.686.491-2.265 1.038-.8.756-1.39 1.753-1.719 2.8-.278.883-.404 1.906-.093 2.803.228.662.816 1.307 1.581 1.287z"/><path d="M412.417 408.011c-19.478 1.846-30.547 19.389-45.311 30.057-3.453.725-7.06.705-10.857-.4-3.139-.916-6.735 5.805-3.631 7.125 2.975 1.266 5.869 1.873 8.693 1.982.182 1.561 1.189 2.463 3.473 1.367a38.735 38.735 0 0 0 3.952-2.203c3.583-.926 7.041-2.533 10.379-4.512.628 1.148 1.789 1.908 3.261 1.332 7.402-2.893 14.574-6.465 22.133-8.92 12.525.561 25.445 8.766 34.711 16.842 3.248 2.832 6.027-3.244 6.08-5.766.203-9.598-.205-19.34-6.145-27.355-5.978-8.071-17.288-10.444-26.738-9.549zm248.591 28.205c-6.521-19.371-23.305-33.355-44.408-28.693-20.746 4.584-32.285 25.545-32.492 45.48-.047 4.436 5.377.068 5.576-2.566.025-.334.059-.664.09-.994.559-.021 1.166-.174 1.811-.482 6.338-3.031 12.293-6.818 18.385-10.332.848-.096 1.697-.195 2.545-.279 4.959-.496 11.223-1.402 17.266-1.312 5.01.857 9.953 2.199 14.705 3.748 2.156.701 4.318-.822 5.648-2.965 1.271 1.766 2.367 3.662 3.311 5.553 2.758 5.522 8.86-3.303 7.563-7.158z" fill="#AF543F"/><path d="M430.787 450.653a35.01 35.01 0 0 0-1.131-1.389c-4.496-6.797-11.912-11.49-20.461-12.293-5.168-1.113-10.531-1.002-15.576.723-4.113 1.406-8.178 4.01-10.748 7.555-11.488 8.35-13.625 24.482-4.634 36.541 11.257 15.094 32.226 15.945 46.881 5.635 12.653-8.901 14.988-24.625 5.669-36.772zm-51.133 7.573a27.28 27.28 0 0 0-.548 3.203 10.87 10.87 0 0 1 .548-3.203z"/><circle fill="#FFF" cx="411.246" cy="457.741" r="10.99"/><path d="M446.892 449.941c-9.767-8.259-20.573-15.806-33.37-18.209-8.408-1.579-16.842.281-24.481 3.841-6.186 2.883-11.876 7.051-18.423 9.104-2.787.874-5.618.933-8.469.333-4.138-.869-6.779-4.245-10.387-6.011-3.613-1.77-6.386 5.263-4.816 7.794 3.812 6.145 12.508 8.693 19.267 7.572 6.737-1.118 12.752-5.632 18.517-9 7.128-4.166 14.637-7.145 23.027-6.738 13.359.647 25.482 9.094 35.485 17.222 2.011 1.635 5.566-4.287 3.65-5.908zm-104.413-38.123c4.27-6.276 11.989-10.841 19.509-14.685 10.235-5.231 21.982-8.486 33.35-9.975 12.138-1.59 24.823-1.166 36.629 2.227a81.074 81.074 0 0 1 17.892 7.583c5.809 3.334 10.71 7.925 16.222 11.678 2.669 1.817 6.369-1.631 7.762-3.512 2.425-3.277 3.862-7.98 1.627-11.683-7.427-12.302-22.553-19.076-35.968-22.446-13.926-3.499-28.655-2.953-42.709-.586-22.886 3.855-48.911 14.911-61.062 35.831-1.181 2.034-1.899 5.565-.282 7.584 2.066 2.58 5.694-.051 7.03-2.016z"/><path d="M360.174 435.849c8.609 13.276 30.661 8.5 43.529 6.183 2.532-.456 5.145-7.603 1.663-7.438-11.947.564-31.96 6.523-40.409-5.202-2.173-3.017-6.496 3.814-4.783 6.457z"/><path fill="#163663" d="M510.724 83.94c-9.754-9.615-18.451-15.393-31.904-17.932-9.041-1.707-18.806-.211-27.936-.191-11.965.025-21.932 8.568-28.684 17.689-7.817 10.562-14.147 25.768-12.502 39.564-3.777-.09-7.365.385-11.584 1.055-5.768.916-11.383 4.262-16.199 7.518-7.318 4.949-14.119 10.812-20.916 16.459-6.484 5.387-11.701 13.344-15.049 21.984-5.775 1.316-11.58 2.533-17.212 4.232-7.633 2.303-15.479 5.539-21.95 10.217-12.186 8.807-21.488 19.748-26.141 34.514a32.65 32.65 0 0 0-1.456 4.744c-.071.162-.145.322-.216.484a87.276 87.276 0 0 0-7.722-2.055c-6.683-1.469-12.919 1.457-18.698 4.387-12.69 6.436-20.74 22.08-26.516 34.457-3.359 7.195-6.332 14.627-9.277 21.986-2.592 6.482-3.785 16.023-1.793 24.074l-.383 1.402a175.234 175.234 0 0 0-6.269 4.41c-17.514 12.891-33.562 28.492-36.534 51.482-.77 5.941-.26 12.658-.24 18.695l.126 38.451.021 6.4a195.381 195.381 0 0 0-4.777 8.002c-8.164 14.35-10.869 30.961-11.043 47.215-.127 11.846 4.246 22.523 10.909 32.113a93.622 93.622 0 0 0 2.919 3.938 216.37 216.37 0 0 1-.646 1.613c-1.303 3.195-2.477 6.439-3.654 9.684a60.632 60.632 0 0 0-1.928 2.562c-8.361 11.824-15.061 28.584-10.022 43.127 4.188 12.092 15.343 13.146 24.897 8.885-4.569 16.189-7.17 32.285-7.557 49.127-.307 13.355 2.723 27.008 10.447 38.068 1.467 2.102 3.211 3.961 5.145 5.596a110.147 110.147 0 0 0-2.652 11.826c-2.082 12.488-.23 29.443 10.102 38.244 14.896 12.689 34.631 16.805 50.494 28.172 3.648 3.553 6.688 7.65 10.539 10.99 3.963 3.436 7.474 6.387 12.34 8.227 6.263 2.369 13.103 3.688 19.722 4.693 27.009 4.096 54.702-8.514 79.054-18.814 15.475-6.545 25.975-19.805 31.008-35.775 4.08-12.947 4.625-29.035-7.727-37.463a328.054 328.054 0 0 1-7.475-5.258l1.844 1.518c-6.793-5.416-14.039-10.271-20.892-15.637-19.772-16.902-36.845-36.766-49.699-59.412-7.128-14.061-12.625-28.967-16.134-44.338-1.623-9.525-2.575-19.105-2.613-28.762.372-6.244.936-12.475 1.361-18.717.897-13.176.836-24.262-1.84-37.051-2.068-9.885-8.094-16.961-15.882-21.357 19.79-8.666 35.463-26.691 44.742-45.656 8.667-17.711 12.806-37.139 12.856-56.666 5.365-1.537 10.613-3.619 15.979-6.182 12.477-5.959 22.146-15.869 30.914-26.293 10.291-12.232 17.698-28.516 20.519-45.316.96-.219 1.94-.52 2.946-.934 10.715-4.412 17.857-8.98 26.953-16.053 9.336-7.26 15.683-17.705 21.685-27.645 7.142-11.828 10.681-25.334 12.32-39.029a193.277 193.277 0 0 0 8.304-40.379c11.092.477 22.369-10.006 28.191-17.873 6.318-8.537 10.771-18.816 12.139-29.385.905-6.984.833-18.123-4.754-23.631zM230.126 608.47a23.451 23.451 0 0 1-.259-.76 52.599 52.599 0 0 0 1.646-1.449c.214 1.189.433 2.377.661 3.562a24.22 24.22 0 0 1-1.598-.773c-.156-.188-.299-.387-.45-.58zm-65.892-74.817c-.2.531-.395 1.066-.598 1.598-2.738 6.689-2.538 6.152.598-1.598zm73.145 143.598l-.034.164c-3.731 5.957-3.722 5.906.034-.164zm1.101-1.592c.044-.086.084-.174.129-.26l-.131.209a2.049 2.049 0 0 0-.004-.082l.273-.426c-.042 1.96-.219 1.657-.267.559zm5.28-7.98a82.725 82.725 0 0 0 5.054-8.521 366.297 366.297 0 0 0 4.814 9.076 182.455 182.455 0 0 0 2.777 4.877c-4.259-1.729-8.567-3.415-12.645-5.432z"/><path fill="#2F61DD" d="M462.538 204.241c-1.616-10.781-13.949.869-12.838 7.918 5.146 32.629-23.652 64.195-57.069 57.045-5.185-1.107-8.851 7.953-8.564 11.73 2.186 28.803-15.85 62.416-44.352 71.111-1.014-2.863-4.404-3.67-7.223-1.932-1.598.986-2.881 2.324-3.865 3.861-12.521.455-30.115-4.025-32.626-17.049-1.118-5.807.873-10.297 3.976-14.652 4.623-6.486 11.529-10.959 18.644-14.279 3.442-1.607 8.604-11.895 3.217-14.109-9.338-3.834-19.031-10.244-19.822-20.766-.271-3.596.955-7.627 2.344-10.68 2.458-5.404 5.37-9.365 9.382-14.189 7.857-9.445 17.897-17.262 28.297-23.705 8.744-5.416 18.89-10.742 29.245-12.324 2.467 1.998 5.881-1.072 7.767-4.963a12.15 12.15 0 0 0 .641-1.523c.893-2.473 1.091-5.047.014-6.734-4.592-7.205-8.123-15.383-7.545-24.094.516-7.768 4.259-14.617 8.818-20.742 10.213-13.719 25.17-23.852 39.621-32.615 3.111-1.889 5.22-6.092 4.945-9.707-.207-2.727-2.094-4.135-4.32-3.658-.76-.717-1.8-.992-3.146-.379-19.039 8.672-35.312 21.672-50.857 35.492-13.184 11.721-25.466 23.951-40.704 32.998-12.187 7.234-25.149 13.902-35.007 24.318-9.973 10.539-15.608 23.604-19.324 37.324-18.041-.283-34.269 8.104-42.801 25.049-7.392 14.68-6.49 31.289-.577 46.043-17.044 6.264-33.458 14.146-45.71 28.045-7.384 8.379-12.932 20.92-12.51 32.217.369 9.898 8.345 17.785 14.674 24.521 2.299 2.447 5.237 5.248 6.469 8.262-.099.756-.164 1.51-.254 2.336.043-.396-.257.346-.361.691-.379.5-1.354 1.904-1.658 2.275-2.746 3.344-6.724 6.086-9.979 8.977-4.564 4.051-8.772 8.654-11.758 14.008-11.397 20.432-11.101 47.404-10.506 70.061.257 9.807.943 19.596 1.703 29.381-5.377 10.295-9.019 21.303-9.25 33.18-.267 13.695 7.559 24.357 19.406 29.688-2.484 7.516-4.762 15.062-6.434 22.838-1.104 5.131-1.65 10.371-1.486 15.621.192 6.125 3.21 11.777 6.479 16.811 5.07 7.809 13.48 11.396 20.645 16.795 6.079 4.582 8.747 12.377 9.967 19.137 2.553 14.15 1.621 29.477 7.795 42.775 7.539 16.236 24.381 19.637 40.721 18.529 8.723 26.664 40.113 28.904 64.346 25.471 15.202-2.154 30.043-6.396 44.367-11.875 12.189-4.662 24.471-10.186 35.24-17.635 4.354-3.012 9.531-12.307 3.738-16.396-27.77-19.598-51.879-43.881-69.959-72.744-17.771-28.371-28.311-60.889-32.529-93.992-.438-3.434-2.252-5.156-5.709-4.617-42.646 6.645-84.72-33.826-77.217-76.812 1.686-9.656 6.881-21.201 14.877-27.217 6.977-5.248 15.5-4.711 23.681-3.43 9.013 1.412 17.825 3.727 27.028 3.111 10.102-.674 19.98-5.039 27.83-11.326 12.344-9.885 20.865-24.496 26.982-38.852 4.311-10.117 7.77-20.75 9.461-31.641 32.557-9.701 54.236-48.801 57.131-80.873 40.402 2.157 72.24-43.888 66.509-82.109z"/><path fill="#AF543F" d="M739.234 461.511c-.012-3.529-3.232-4.885-6.031-3.377a4.589 4.589 0 0 0-1.408-1.1 162.026 162.026 0 0 1-12.738-7.176c-7.816-17.664-19.406-34.232-30.381-49.775-12.531-17.746-26.045-34.779-38.301-52.725a288.022 288.022 0 0 1-4.029-6.061c-9.725-30.35-17.861-61.195-33.219-89.426a185.761 185.761 0 0 0-3.611-6.295c-1.693-2.842-5.789-.66-7.418.879-.936.883-1.818 2.008-2.535 3.256a133.147 133.147 0 0 0-1.252-5.299c-1.02-3.857-5.818 1.857-5.482 4.258 11.016 78.246 27.018 170.23 102.689 212.41 4.506 2.512 9.154 4.752 13.898 6.768 3.203 8.105 5.615 16.533 6.854 25.475 6.066 43.777-8.301 89.768-29.221 127.816a209.008 209.008 0 0 1-5.695 9.717c-19.359 25.814-44.082 47.568-72.271 63.285-37.777 21.061-81.729 29.471-124.586 23.723-13.48-1.809-26.828-4.938-39.648-9.443-17.725-7.477-34.416-17.457-49.502-29.381-9.611-7.596-18.488-16.082-26.57-25.275-17.881-23.881-29.091-52.334-36.335-81.178-9.29-36.992-12.071-75.502-12.524-113.531-.09-7.629-.066-15.258.051-22.885-8.335 4.674-17.279 8.09-26.558 9.736-1.079 20.758-.553 41.59 1.649 62.234 5.066 47.475 18.631 96.188 45.206 136.293 41.433 62.527 115.587 101.873 190.984 95.549 39.234-3.289 75.791-19.021 106.557-43.32 23.225-18.342 41.912-31.193 56.543-56.551 13.221-19.27 23.793-50.352 31.686-72.33 5.631-15.678 9.957-32.426 12.504-48.889 2.931-18.949.757-38.324.694-57.382zm-12.429 11.592c.293-.094.582-.213.869-.35.027 1.646.064 3.295.109 4.941a138.738 138.738 0 0 0-.978-4.591z"/><path fill="#163663" d="M865.281 409.298c6.066-14.184 8.303-29.811 5.1-45.152-3.025-14.49-14.018-25.273-25.514-33.611-10.615-7.699-23.121-12.797-35.615-16.543-3.789-1.137-7.643-2.219-11.539-3.174 5.246-18.639 4.566-38.256-7.059-54.984-9.391-13.514-25.062-21.262-41.521-25.23-3.752-5.195-7.404-10.434-10.791-15.797-.131-.344-.246-.697-.365-1.047l-.02-.225c-.006-.07-.006-.143-.012-.213.125-1.137.275-2.273.449-3.404.953-6.193 2.762-12.283 3-18.574.504-13.365-1.277-24.836-12.355-33.422-5.809-4.502-14.045-5.965-21.807-6.467-4.539-9.809-10.203-19.186-17.471-27.127-8.311-9.078-18.734-16.369-29.709-21.85-10.271-5.129-21.205-8.861-31.939-12.875-10.07-3.766-20.893-7.221-29.699-13.561-12.742-11.824-22.711-29.066-40.178-34.145-36.428-10.59-65.548 19.402-77.198 51.193-5.917 16.148-5.94 35.35-.071 52.1-4.412 8.35-8.255 16.965-11.35 26.094-4.915 14.5-8.023 32.34-2.333 47.053 3.97 10.26 8.92 20.842 15.895 29.416 4.017 4.936 9.611 10.098 15.869 11.887 3.652 1.045 7.219 2.24 11.027 1.859 7.321-.732 10.979-2.021 17.542-5.186.6 1.08 1.199 2.158 1.803 3.234 3.633 4.457 8.32 6.844 14.061 7.164a31.71 31.71 0 0 0 7.236-.834 63.7 63.7 0 0 0 6.812 4.33c6.686 3.664 14.477 5.541 22.047 5.93 2.812.143 5.635-.01 8.436-.24.08-.008.164-.012.244-.02 1.496 7.197 4.352 14.029 9.104 18.816 3.086 4.959 6.404 8.734 11.562 12.889 5.244 4.223 10.906 6.014 17.363 7.68 6.107 1.576 12.277 1.682 18.357.83.014 15.488 3.082 30.896 10.135 44.807 6.273 12.373 13.91 21.938 25.273 30.059 5.744 4.105 12.488 6.963 19.502 8.738a97.75 97.75 0 0 0-.426 8.574c-.059 10.602 3.594 20.09 8.65 29.146 7.514 13.457 22.887 22.512 37.221 26.949 17.688 5.479 35.271 6.396 53.416 2.928-3.102 14.311-4.148 29.092-3.635 43.77.236 6.738.83 13.457 1.059 20.193.039 1.156.045 2.311.051 3.467-.168 1.58-.584 3.963-.883 5.68-.523.816-1.07 1.639-1.5 2.209a41.708 41.708 0 0 1-1.385 1.707 139.946 139.946 0 0 1-3.01 3.008c-1.797 1.742-3.682 3.391-5.576 5.023-1.027.885-2.08 1.74-3.135 2.592-.168.125-.354.262-.576.43a57.103 57.103 0 0 0-3.504 2.844 78.16 78.16 0 0 1-4.801-4.898c-5.43-6.061-13.205-5.184-19.641-1.213-10.264 6.328-18.367 19.533-19.346 31.578a116.859 116.859 0 0 1-1.336 10.432c-.084.471-.178.939-.268 1.41a165.112 165.112 0 0 1-1.189 4.414c-1.064 3.738-2.344 7.41-3.66 11.066-.285.795-.816 2.156-1.266 3.305-.41.928-.826 1.855-1.246 2.779-1.732 3.809-3.623 7.545-5.582 11.242a220.045 220.045 0 0 1-3.449 6.215c-.336.588-.916 1.555-1.484 2.494-4.561 7.121-9.543 13.965-14.641 20.707-2.686 3.551-5.496 7.006-8.367 10.408-.145.17-.293.34-.439.51-.207.234-.404.453-.564.631a245.02 245.02 0 0 1-5.096 5.4c-5.787 5.977-11.996 11.543-18.467 16.773-.855.652-2.131 1.629-2.697 2.043a178.691 178.691 0 0 1-5.773 4.004c-3.801 2.549-7.734 4.891-11.742 7.096-3.961 2.18-7.814 4.508-11.873 6.521l-.225.107c-.77.332-1.539.66-2.312.984-2.012.84-4.059 1.59-6.115 2.314-11.348 3.992-18.898 16.477-20.389 27.988-.617 4.777-.268 10.42 2.891 14.363s7.107 3.791 11.592 3.078c11.158-1.773 21.791-5.369 31.895-10.258.781 5.293 3.135 10.086 8.076 12.947 21.473 12.443 49.912 24.119 74.668 14.455 17.668-6.895 30.574-20.932 39.146-37.586 4.318-8.393 7.203-17.217 9.084-26.268.711-.32 1.422-.652 2.133-.98 25.65-11.83 45.555-38.295 49.295-66.338a56.73 56.73 0 0 0 .49-7.773c14.508-14.562 25.01-33.746 30.529-53.418 7.828-27.902 7.43-60.887-6.697-86.805 6.537-11.59 11.064-24.402 13.816-38.086 3.147-15.639 3.227-36.52-5.988-50.559zm-36.752-12.553l.072-.123c.051-.047.018.004-.072.123zm-8.617 85.059c-.445.343-.564.427 0 0zM739.73 696.843c.01-.021.02-.047.029-.07l-.104.395c.027-.11.052-.222.075-.325zm86.475-297.391c-.021.021-.043.041-.062.062l.059-.07c.001.002.001.006.003.008zm.816-.892l-.006.008v-.098c.002-.002.004-.006.008-.008-.002.031-.002.064-.002.098zM548.727 121.626c-.059-.004-.119-.014-.178-.02 1.375-.658 1.125-.392.178.02zm271.107 271.195c.178-.324.363-.645.535-.971 2.051 2.113 3.914 4.389 5.523 6.865.102.236.203.471.301.709-.051.062-.1.127-.15.191-1.422 1.488-2.922 2.898-4.387 4.346-.17.17-.371.355-.586.547a65.5 65.5 0 0 1-1.926 1.189 38.43 38.43 0 0 1-2.023 1.078 62.165 62.165 0 0 1-6.811 2.221c3.745-4.456 7.204-10.128 9.524-16.175zm-.277 12.957c-1.272 1.024-2.104 1.602 0 0zm7.466-7.422c-.002.004-.004.008-.008.01.005-.574.014-.474.008-.01zm-89.24-183.445c.014-.197.043-.393.061-.59.016.029.031.057.045.086-.006 5.516-.248 2.535-.106.504zm.106-.879c0 .018 0 .037.002.053l-.02-.029.008-.082a.5.5 0 0 1 .01.058zm-.196-1.088c-.507-1.66-.83-4.529 0 0zm-47.464 455.014c1.972-2.273 1.078-1.229 0 0z"/><path d="M607.113 488.86c14.654 10.311 35.623 9.459 46.881-5.635 8.992-12.059 6.854-28.191-4.635-36.541-2.568-3.545-6.635-6.15-10.748-7.557-5.045-1.723-10.408-1.834-15.576-.721-8.549.803-15.965 5.496-20.461 12.293-.389.455-.77.916-1.131 1.389-9.318 12.147-6.984 27.872 5.67 36.772zm46.012-25.998a27.457 27.457 0 0 0-.549-3.201c.326.996.526 2.055.549 3.201z"/><circle fill="#FFF" cx="620.986" cy="459.175" r="10.99"/><path d="M588.232 456.571c9.898-8.091 21.589-15.906 34.769-16.549 8.267-.403 15.79 2.991 22.76 7.069 5.86 3.43 11.443 7.473 18.226 8.827 7.502 1.497 16.062-3.09 20.465-9.001 1.539-2.068 2.142-8.712-2.162-6.178-6.168 3.632-10.223 7.648-17.902 5.459-6.712-1.914-12.607-6.223-18.871-9.183-21.625-10.221-42.032.466-58.971 14.704-2.355 1.98-1.903 7.786 1.686 4.852zm102.809-52.522c-11.159-19.966-37.586-29.028-58.707-32.615-27.865-4.732-62.484 1.323-79.687 26.009-1.977 2.836-3.592 6.791-2.387 10.271 1.479 4.268 5.656 2.537 8.203.531 9.94-7.831 19.132-14.078 31.469-17.577 12.405-3.519 25.449-3.534 38.14-1.751 11.461 1.61 22.677 5.118 33.059 10.218 8.041 3.95 16.325 8.683 21.598 16.137 1.962 2.773 5.725-.252 7.03-2.016 1.965-2.657 2.955-6.213 1.282-9.207z"/><path d="M668.01 431.985c-3.817 5.394-11.64 5.713-17.646 5.707-7.075-.008-14.072-1.345-21.129-1.663-3.091-.139-6.113 6.833-2.371 7.534 13.843 2.592 35.243 6.524 44.455-7.44 2.274-3.449-.105-8.665-3.309-4.138z"/><path fill="#2F61DD" d="M882.889 468.448c1.242-8.742.342-17.607-1.818-26.119-1.885-7.436-5.721-16.826-11.613-21.959-2.195-1.914-4.432-2.25-6.508-1.564a54.798 54.798 0 0 0-1.57-2.506c-2.715-4.066-6.168-7.352-10.086-9.869 4.248-10.266 7.281-20.797 7.967-31.576 1.576-6.635 1.822-13.471.369-20.516-1.818-8.816-7.961-16.535-14.344-22.57-9.783-9.252-21.717-16.062-32.936-23.443 1.658-9.416 1.617-19.043-1.752-28.199-.152-.414-.326-.816-.494-1.223.385-2.662.602-5.367.611-8.123.041-13.449-8.648-24.111-20.762-28.961-4.854-1.943-9.219 1.316-11.896 6.016a60.549 60.549 0 0 0-5.641-5.16c-3.836-4.775-8.518-8.795-14.223-11.51-3.471-1.65-7.133-2.646-10.863-3.107.188-.496.359-.986.49-1.455 2.463-8.809 3.18-18.393 1.645-27.498-1.01-8.395-3.613-16.512-8.486-23.668-8.688-12.754-25.303-17.32-39.949-15.592-2.824.334-5.232 1.596-7.201 3.408a196.54 196.54 0 0 0-5.514-34.99 73.992 73.992 0 0 0-3.527-12.25c-2.189-5.693-8.164-4.15-11.754-.76-1.254 1.186-2.408 2.641-3.373 4.248-2.332-2.814-4.938-5.4-7.859-7.662-12.391-9.586-26.336-7.672-38.418-.838-.869-18.5-8.859-35.992-23.307-48.553-18.631-16.197-43.127-23.387-67.6-20.91-5.436.551-9.135 5.346-10.699 10.307-1.051 3.336-1.432 11.068 3.998 10.984 20.594-.312 41.422 6.686 57.621 19.434 15.85 12.473 23.857 31.758 20.574 50.701-1.482 8.553 6.305 12.156 12.309 6.271 9.289-9.105 21.725-14.082 32.936-4.816 10.857 8.973 16.387 23.771 17.764 37.428.666 6.588 4.744 7.162 8.732 5.248.18 3.24.281 6.486.299 9.734.027 5.506 4.998 7.654 9.381 5.373.064.934.23 1.859.543 2.76.732 2.113 2.041 3.162 3.564 3.488a71.12 71.12 0 0 0-3.062 3.861c-2.627 3.555-4.607 8.85-3.08 13.254 1.867 5.389 7.367 3.436 10.586.686.523-.43.826-.682.906-.76.662-.471 1.344-.91 2.037-1.334.5-.295 1.014-.57 1.535-.826.121-.033.314-.096.613-.203.459-.166.723-.279.865-.357.143.021.381.035.787.033.258-.002.514.023.768.053.199.066.809.229 1.133.375.375.186.74.391 1.094.617.074.045.129.074.188.107.824.773 1.52 1.678 2.18 2.59.633.871 1.197 1.803 1.742 2.734-.836-1.355 1.029 2.43 1.314 3.178.514 1.35.926 2.736 1.316 4.125.154.549.666 3.012.748 3.297.457 2.734.773 5.484.91 8.256.023.506.004 1.764-.008 2.576a46.74 46.74 0 0 1-.174 1.584c-2.002 3.818-3.23 8.072-2.902 12.402.387 5.104 4.369 10.406 10.113 8.178a62.119 62.119 0 0 1 7.186-2.314c.982-.248 1.98-.428 2.98-.6-1.402.262 1.547-.088 1.754-.1 2.041-.111 4.082.043 6.104.301.832.107 1.654.283 2.473.467-1.586-.326 1.686.666 2.109.834 1.723.688 3.34 1.611 4.904 2.598.654.412 1.275.875 1.893 1.34-1.277-.938 1.299 1.238 1.631 1.568 1.348 1.342 2.537 2.834 3.674 4.354.58.777 1.107 1.592 1.635 2.404.344.543.678 1.094 1 1.65a69.443 69.443 0 0 1 4.541 11.197 60.3 60.3 0 0 1 .812 2.979c.064.248.307 1.418.408 1.875.254 1.514.449 3.037.6 4.564-.49 6.398-1.008 12.801-1.469 19.207a100.905 100.905 0 0 1-1.125 3.598c-.986 2.953-1.502 7.494.25 10.494-.279 5.527-.471 11.055-.5 16.584-.039 7.91 7.984 7.189 12.303 3.307 5.074-4.562 9.346-9.873 12.82-15.658.199-.033.395-.057.605-.107 11.104-2.705 20.705 1.084 28.137 7.926-.111 3.006.928 5.656 3.621 7.061a37.585 37.585 0 0 1 4.398 2.688 56.632 56.632 0 0 1 2.34 4.082c4.492 8.658 7.244 18.117 9.248 27.625.508 2.41 1.281 8.543 1.58 12.42.141 1.842.205 3.689.242 5.535a41.611 41.611 0 0 0-8.445-.162c-5.93.5-10.004 5.914-11.689 11.26-1.164 3.693-1.557 12.023 4.369 11.998 11.066-.047 18.814 4.129 25.152 12.613.762 1.02 1.441 2.098 2.102 3.184.115.201.199.35.264.459.256.51.512 1.02.754 1.537 1.131 2.402 1.996 4.924 2.732 7.473.129.439.672 2.807.74 2.963.188 1.066.346 2.139.482 3.213.342 2.662.457 5.346.451 8.025-.029-.332-.158 2.596-.213 3.182-.129 1.404-.33 2.803-.549 4.195a67.512 67.512 0 0 1-.295 1.666l-.039.215a65.188 65.188 0 0 1-1.078 3.811 47.355 47.355 0 0 1-.717 2.104c.057-.238-.988 2.252-1.328 2.932-.236.475-.977 1.748-1.354 2.414-.617.9-1.26 1.787-1.93 2.648-.137.174-.246.318-.34.443-.143.135-.322.314-.584.582a34.035 34.035 0 0 1-1.904 1.779c.141-.17-1.928 1.449-2.463 1.795-.898.582-1.836 1.098-2.783 1.596.527-.32-2.266.932-2.807 1.119-1.34.467-2.719.811-4.102 1.123-2.342.531-.412.219-2.857.441-2.229.201-4.676.592-5.852.715-6.209.65-10.426 6.084-12.215 11.768-1.527 4.846-1.359 11.328 4.564 12.541 1.809.369 3.609.557 5.396.596.031.051.057.107.09.158 4.002 5.893 6.588 12.418 8.143 19.566-.199-.916.379 2.887.469 3.668.199 1.746.289 3.502.35 5.258.02.537-.023 3.643.002 3.875a78.34 78.34 0 0 1-.545 5.768c-.193 1.504-.463 2.996-.748 4.482.137-.857-.771 3.127-.947 3.754-.482 1.725-1.049 3.424-1.637 5.115-.207.594-.438 1.18-.662 1.77-.182.432-.648 1.586-.783 1.889-1.301 2.926-2.805 5.756-4.414 8.525.287-.551-1.791 2.754-2.184 3.32-1.211 1.75-2.516 3.438-3.848 5.098-.174.215-.355.426-.531.639-.08.078-1.186 1.363-1.41 1.605-1.184 1.273-2.432 2.486-3.691 3.684-1.248 1.184-2.557 2.303-3.879 3.4l-.312.262a68.25 68.25 0 0 1-2.978 2.101c-1.381.938-2.812 1.793-4.258 2.625-.465.268-3.283 1.688-3.217 1.699-3.107 1.379-6.354 2.426-9.658 3.219-12.275 2.941-26.83-1.086-37.811-10.18-5.008-4.146-10.275-.588-13.732 3.938-36.131 47.275-68.182 96.82-118.279 130.414-4.861 3.26-8.189 8.787-8.939 14.592-.469 3.623.551 10.432 5.688 10.16 13.471-.715 27.018 1.805 40.234 4.102 15.488 2.691 30.941 5.711 46.604 7.23 14.354 1.393 29.574 1.516 43.428-3.006 15.375-5.02 27.916-17.002 34.113-31.896 1.918-4.609 3.361-9.303 4.41-14.059a152.604 152.604 0 0 0 5.678-8.287c4.209-.264 8.432-1.369 12.652-3.473 11.414-5.689 18.504-19.018 22.148-30.643 4.311-13.76 5.457-30.777 1.93-46.016 43.045-16.611 63.41-85.838 33.871-121.883 16.097-9.452 26.206-26.64 28.818-45.009zM711.773 243.099c-.369 1.134-1.013 2.396 0 0zm-51.66 480.302c-.826.254-1.656.49-2.49.701 3.533-3.451 7-6.973 10.402-10.568a324.563 324.563 0 0 0-7.912 9.867zm98.278-79.267c.35-.57.156-.283-.578.867a72.548 72.548 0 0 0-6.428 7.088 268.374 268.374 0 0 0 3.432-8.4c.617-1.59 1.021-3.662 1.023-5.742 2.197.43 4.391.713 6.574.861-1.572 1.623-2.904 3.543-4.023 5.326z"/><path d="M390.695 749.785c-1.937 40.931 9.213 84.83 41.088 112.674 33.195 28.998 84.538 33.151 123.923 14.898 50.371-23.345 72.711-85.347 59.572-137.652-.795-3.163-4.361-3.186-6.636-1.782-3.561 2.195-6.341 7.242-5.849 11.479 2.486 21.376 3.75 41.848-3.043 62.636-5.401 16.532-15.941 31.223-30.877 41.575-34.758 24.093-86.917 23.04-121.327-.904-34.167-23.774-46.921-68.183-45.919-107.957.063-2.523-2.123-4.441-4.573-3.698-3.352 1.017-6.197 5.312-6.359 8.731z"/><ellipse fill="#AD4040" cx="669.663" cy="528.196" rx="27.265" ry="26.217"/><ellipse fill="#AD4040" cx="361.13" cy="529.632" rx="27.265" ry="26.217"/><path fill="#D8724A" d="M295.792 463.665c-11.341-10.791-28.431-25.102-45.445-18.287-19.118 7.656-29.261 29.139-30.944 48.693-2.061 23.959 7.787 71.168 41.75 61.654 13.932-3.902 25.055-16.559 33.102-27.848 5.589-7.838 11.369-22.143 4.311-30.961-7.027-8.77-19.023.301-23.644 6.783a107.227 107.227 0 0 1-4.316 5.662c-2.736 3.34 3.944-4.32 1.122-1.283a55.172 55.172 0 0 1-2.05 2.055 44.515 44.515 0 0 1-2.012 1.799c-2.733 2.354 4.449-3.293 1.626-1.275-1.195.855-2.475 1.578-3.787 2.234 6.08-3.033 2.004-.967.15-.518-2.576.627 4.514-.473 1.928-.227-.551.053-1.104.043-1.656.033-1.619-.031-5.396-1.25.18.369-1.196-.346-2.32-.912-3.395-1.533-3.469-2.012.332.512-.025.189-.879-.781-1.662-1.666-2.416-2.564-.799-.951-1.505-1.979-2.184-3.016-.353-.543-.678-1.102-1.002-1.658-1.332-2.293 2.174 4.309.481.787-1.216-2.531-2.151-5.191-2.956-7.881a62.989 62.989 0 0 1-1.08-4.23c-.692-3.07.922 4.91.365 1.807a67.162 67.162 0 0 1-.441-2.914c-.391-2.895-.55-5.814-.55-8.73-.001-3.297-.241 5.795-.086 2.527a54.03 54.03 0 0 1 .153-2.092c.115-1.354.312-2.697.541-4.037.773-4.537-1.803 6.715-.254 1.385.174-.594.378-1.178.584-1.758 1.125-3.191-2.898 6.773-1.525 3.721 2.313-5.152-2.242 3.242-1.41 2.023 2.86-4.211-4.846 4.609-1.104 1.311-5.311 4.678-4.183 3.117-2.6 2.088 1.268-.82 3.805-1.77-2.53 1.062.964-.432 1.995-.684 3.026-.873-5.948 1.102-2.062.309-.201.447.633.047 1.259.156 1.882.266 2.413.416-4.204-1.312-.5-.105 3.274 1.068 6.313 2.814 9.194 4.668 1.809 1.166 3.525 2.467 5.219 3.793-3.129-2.449.146.148.639.578 1.338 1.162 2.624 2.377 3.907 3.6 8.089 7.695 18.183.598 23.644-6.781 4.991-6.746 12.204-23.449 4.309-30.963z"/><path d="M289.248 459.085c-16.198-10.648-38.795-20.223-56.459-7.203-14.27 10.514-18.129 30.82-17.102 47.43 1.096 17.727 8.233 36.916 22.245 48.428 15.521 12.752 39.414 11.553 53.464-2.963 1.178-1.219 5.163-10.629.464-9.844-8.591 1.438-15.834 6.318-24.778 6.83-7.269.416-14.127-1.92-20.164-5.848-12.59-8.201-19.709-24.213-22.046-38.561-1.927-11.838-1.618-27.506 8.437-35.832 14.74-12.207 37.854-1.709 52.157 5.674 2.939 1.516 6.563-6.281 3.782-8.111z"/><path d="M243.933 502.079c5.932-7.295 13.879-12.869 23.558-12.994 10.673-.133 13.038 9.332 17.079 17.078 1.845 3.537 5.914-4.287 6.064-5.596 1.356-11.9-4.641-23.752-17.832-23.986-12.924-.23-24.545 10.695-31.368 20.529-1.782 2.573-.905 9.157 2.499 4.969z"/><path d="M291.052 496.063c-7.693-.316-17.34-.395-22.782 6.045-5.384 6.367-4.323 16.008.294 22.514 1.979 2.789 5.219-4.135 4.627-5.992-.844-2.646-4.775-9.605-1.938-12.059 4.52-3.906 12.346-4.012 17.947-4.309 2.247-.118 4.623-6.085 1.852-6.199zm480.169-42.16c-.25-3.285-3.09-4.824-5.916-3.014-14.875 9.521-31.34 12.789-46.873 2.643-14.375-9.391-19.662-27.916-15.531-44.041.498-1.945 1.242-6.389-1.508-7.314-31.176-10.482-57.77-40.076-52.377-73.896a41.09 41.09 0 0 0 3.992-1.039c4.486-1.422 8.658-13.055 1.557-11.973a47.259 47.259 0 0 1-4.285.445c-.459-.752-1.195-1.27-2.332-1.324-1.285-.061-2.471.482-3.492 1.33-29.383-1.557-63.113-26.67-54.201-58.26.619-2.193.891-6.52-2.43-6.676-.168-.008-.334 0-.498.014.01-.322.018-.645-.006-.955-.238-3.129-3.23-5.191-6.025-3.07-9.059 6.879-19.117 11.852-30.629 12.377-10.969.502-21.475-3.186-31.09-8.133-18.16-9.344-33.682-23.408-48.854-37.07-.053-.113-.107-.225-.159-.338a43.573 43.573 0 0 0-1.647-5.512 17.368 17.368 0 0 1-.057-4.799c1.196-9.094 12.852-13.734 20.191-16.377 4.082-1.471 7.967-12.688 1.641-11.363.199-1.479 0-2.861-.785-3.865-4.373-5.59-9.735-13-8.6-20.537.786-5.217 11.845-7.094 15.689-7.818 4.977-.939 8.533-13.363 1.582-12.164-11.764 2.029-21.9 7.771-26.114 19.432-3.673 10.162 1.021 20.75 6.931 29.15-9.17 4.795-16.609 12.576-19.703 22.787-.18.596-.331 1.186-.471 1.775-2.467 2.711-3.662 6.471-2.849 10.059 2.075 9.168 3.626 18.088 1.275 27.387-2.065 8.172-6.505 15.428-12.396 21.398-13.803 13.992-34.078 18.809-52.898 13.939-2.242-.58-4.968 2.244-6.085 3.752-2.052 2.773-3.288 6.5-2.302 9.908 4.387 15.178 2.844 31.191-6.51 44.18-9.48 13.162-25.518 20.689-41.304 22.797-4.722.629-8.727 6.229-8.046 11.02 2.121 14.936 2.31 30.545-2.027 45.121-4.598 15.449-15.844 25.428-31.473 29.07-5.059 1.18-8.848 13.986-1.641 12.611 39.488-7.537 48.731-49.117 47.206-84.07 35.784-7.451 60.562-40.596 58.125-76.475 19.798 1.18 38.972-6.871 53.005-21.686 9.09-9.598 16.535-23.172 19.311-37.223a56.539 56.539 0 0 0 3.929 3.518c1.231 1.004 2.733.617 4.13-.496 10.883 10.697 22.688 20.406 36.323 27.355 10.347 5.273 22.015 8.4 33.667 7.66 11.828-.75 22.357-5.752 31.605-12.775-3.887 19.164 3.07 37.615 17.939 50.73 10.914 9.629 25.996 16.84 40.928 17.094-3.178 17.564-.127 35.062 9.127 50.816 9.531 16.227 25.598 28.512 43.055 35.258-3.316 19.355 1.617 39.047 17.842 51.684 17.57 13.684 42.541 9.652 58.475-4.387 2.307-2.033 3.821-5.587 3.589-8.66z"/><path d="M869.48 397.97c10.463-20.557 9.115-44.49-3.281-64.561-11.309-18.312-31.363-28.916-52.182-27.746 3.377-4.637 5.814-9.977 7.119-15.914 2.369-10.781-1.908-21.84-7.658-30.773-12.229-19-34.438-33.566-56.432-39.443 6.359-18.207 5.178-38.271-6.338-54.555-11.83-16.727-32.154-22.689-51.49-19.027 1.262-18.086-4.203-36.105-21.09-45.537-14.66-8.188-32.576-6.402-47.816-.184-2.861-13.846-11.744-25.846-21.574-35.732-11.043-11.107-24.535-20.289-39.289-25.645-13.086-4.748-27.227-5.992-40.049.107-11.621 5.527-18.336 16.883-22.024 28.865-17.106-8.408-37.982-10.678-56.131-5.148-21.04 6.414-32.826 24.885-33.785 45.686-17.135 2.605-33.086 8.955-46.744 20.016-13.115 10.621-22.283 25.543-27.427 41.537-18.723-2.789-37.615 1.58-52.647 13.508-14.072 11.164-21.114 28.475-22.184 46.016-19.338-1.072-38.494 7.467-50.934 22.459-6.771 8.16-10.33 18.568-10.354 29.102-.015 6.594 2.084 12.871 5.335 18.541-19.808 4.836-35.786 21.293-43.833 40.119-9.647 22.57-8.581 48.754 7.895 66.826-13.059 10.414-28.76 20.061-31.72 37.418-1.739 10.207-.714 20.537 3.823 29.879 3.566 7.346 9.21 13.691 11.672 21.547 1.986 6.344-.277 14.627-2.423 20.615-2.538 7.084-6.523 14.088-9.823 21.076-6.484 13.727-12.193 30.824-.976 43.762 5.615 6.477 13.829 10.379 21.933 13.279-8.557 14.045-14.172 30.412-12.13 46.867 2.339 18.857 16.039 31.373 32.999 37.436-7.578 16.227-8.573 34.67.93 50.832 10.053 17.102 29.854 22.84 48.361 19.891-1.462 9.744.081 19.725 6.637 27.646 9.009 10.887 24.622 12.844 37.784 11.355 3.494-.395 5.855-3.4 6.87-6.617.591-1.877.941-7.451-2.567-7.053-11.104 1.268-23.653.449-32.182-7.668-7.036-6.695-8.099-16.379-5.269-25.279.924-2.904.416-7.959-3.838-6.854-16.598 4.311-34.013.541-44.838-13.369-10.001-12.852-9.778-30.885-1.062-44.289 1.213-1.863 4.465-9.107.379-10.266-15.832-4.488-29.725-13.713-33.537-30.543-3.439-15.178 4.422-31.326 13.182-43.162 1.422-1.92 4.361-9.07.383-10.346-9.784-3.137-20.719-7.107-27.079-15.664-3.831-5.152-3.257-11.236-1.626-16.586 4.566-14.975 14.865-28.537 17.973-44.619 1.561-8.076 1.693-16.572-1.773-24.188-3.521-7.732-9.153-14.227-12.132-22.248-1.694-4.562-2.136-9.365-1.679-14.188.425-4.498 1.576-6.998 4.469-10.574 6.271-7.754 15.175-13.525 22.975-19.609 1.833-1.432 3.639-2.9 5.309-4.521 2.951-2.865 5.4-8.812 1.619-11.912-34.047-27.914-9.355-89.328 34.363-86.25 4.828.34 10.214-9.248 6.6-12.951-11.256-11.529-17.748-27.928-5.51-41.199 11.668-12.652 30.439-17.023 46.946-13.963 4.491.834 7.679-6.779 7.402-10.139-1.317-16.066 3.085-31.781 16.565-41.6 13.822-10.068 31.765-11.449 48.152-8.643 3.9.668 6.342-5.23 6.945-8.014 7.238-33.42 36.693-53.146 69.326-56.85.277-.031.553-.104.824-.205a3.89 3.89 0 0 0 1.336-.529c2.443-1.506 4.004-4.695 3.841-7.537l-.01-.219a4.868 4.868 0 0 0-.045-1.002c-.337-8.635 1.073-17.1 6.554-24.049 5.012-6.355 13.216-9.66 20.853-11.471 17.708-4.195 37.915.18 53.188 9.707 4.083 2.549 7.743-5.16 8.231-7.875 2.036-11.352 6.756-21.324 17.809-25.258 11.189-3.982 23.875-.832 34.424 3.59 23.326 9.777 42.922 28.762 52.742 52.061-2.48 3.609-2.734 10.576 2.398 7.863 14.734-7.785 32.891-10.26 48.291-2.896 16.82 8.041 21.393 26.447 18.555 43.598-.439 2.652.932 5.555 3.982 4.799 17.811-4.418 36.158.629 47.873 15.041 11.17 13.742 12.562 32.965 4.908 48.656-1.424 2.916-2.371 8.092 1.85 8.984 19.979 4.229 39.215 16.865 52.258 32.387 5.605 6.668 10.402 14.723 10.984 23.59.58 8.787-6.693 14.693-13.494 19.369-2.744 1.885-4.711 5.342-4.453 8.738.242 3.182 2.715 4.043 5.32 2.711.145-.074.283-.156.426-.232.57.344 1.355.457 2.395.244 20.93-4.281 41.137 6.324 53.285 23.129 11.363 15.717 15.633 38.186 4.154 54.998-1.686 2.467-4.158 7.857-1.477 10.592 13.523 13.785 20.021 33.156 20.488 52.217.424 17.273-5.877 34.85-22.732 41.846-4.15 1.723-9.668 9.588-5.764 13.949 16.498 18.434 23.141 43.252 16.193 67.219-6.504 22.434-24.322 39.967-46.451 47-5.135 1.633-8.176 8.979-5.635 13.637 7.117 13.045 10.617 30.459 3.854 43.971-7.285 14.557-26.064 16.627-40.848 14.328-5.162-.803-9.146 8.395-7.59 12.361 4.039 10.301 6.973 21.938 3.957 32.908-2.229 8.105-8.166 14.232-15.893 18.662-19.182 10.996-43.551 7.881-63.439.859-5.785-2.043-12.326 10.555-6.715 13.176 22.871 10.684 52.969 10.83 74.508-3.195 10.412-6.779 18.059-17.174 21.66-29.035 3-9.881 2.713-20.23.5-30.189 17.725-.43 33.543-8.666 42.518-25.463 8.551-16.002 7.639-34.803 1.32-51.314 23.195-10.768 40.549-31.594 48.445-56.078 8.162-25.312 4.182-52.902-10.928-74.365 33.374-24.502 31.062-81.957 5.03-112.234z"/><path fill="#D8724A" d="M745.857 470.362c11.34-10.791 28.432-25.102 45.445-18.287 19.119 7.656 29.26 29.139 30.943 48.693 2.062 23.959-7.785 71.168-41.75 61.654-13.932-3.902-25.055-16.559-33.102-27.848-5.59-7.838-11.369-22.143-4.309-30.961 7.025-8.771 19.023.301 23.643 6.783a107.77 107.77 0 0 0 4.316 5.662c2.736 3.338-3.945-4.32-1.123-1.285a53.044 53.044 0 0 0 2.051 2.057 43.454 43.454 0 0 0 2.012 1.799c2.732 2.354-4.449-3.293-1.627-1.275 1.195.855 2.475 1.578 3.787 2.234-6.08-3.033-2.004-.969-.148-.518 2.574.627-4.514-.473-1.93-.227.551.053 1.104.043 1.656.033 1.619-.031 5.396-1.252-.178.369 1.195-.348 2.318-.912 3.393-1.535 3.471-2.01-.332.514.025.191.879-.781 1.662-1.666 2.416-2.566.799-.951 1.506-1.977 2.184-3.014.354-.543.678-1.102 1.002-1.658 1.332-2.293-2.174 4.309-.48.785 1.215-2.529 2.152-5.189 2.955-7.879a61.802 61.802 0 0 0 1.08-4.23c.693-3.07-.922 4.91-.365 1.807.174-.969.311-1.941.443-2.914.391-2.895.549-5.814.549-8.73 0-3.297.24 5.793.086 2.527-.033-.699-.094-1.396-.154-2.092-.113-1.354-.311-2.697-.541-4.037-.773-4.537 1.803 6.715.254 1.385a33.797 33.797 0 0 0-.582-1.758c-1.127-3.191 2.898 6.773 1.523 3.721-2.312-5.152 2.242 3.242 1.412 2.023-2.861-4.211 4.844 4.609 1.102 1.311 5.311 4.678 4.184 3.117 2.6 2.086-1.268-.82-3.803-1.768 2.531 1.064-.963-.432-1.994-.684-3.027-.873 5.949 1.102 2.064.309.201.447-.633.047-1.258.156-1.881.266-2.414.416 4.203-1.312.5-.105-3.275 1.068-6.314 2.814-9.193 4.668-1.811 1.166-3.527 2.467-5.221 3.793 3.131-2.449-.145.148-.639.578-1.338 1.162-2.623 2.377-3.906 3.6-8.09 7.695-18.184.598-23.645-6.781-4.991-6.746-12.204-23.449-4.308-30.963z"/><path d="M752.4 465.782c16.199-10.648 38.795-20.223 56.459-7.203 14.27 10.514 18.129 30.82 17.102 47.428-1.094 17.729-8.232 36.918-22.244 48.43-15.52 12.75-39.414 11.553-53.463-2.963-1.18-1.219-5.164-10.629-.465-9.844 8.59 1.436 15.834 6.316 24.777 6.83 7.27.414 14.129-1.92 20.164-5.85 12.59-8.199 19.709-24.211 22.047-38.559 1.926-11.838 1.617-27.506-8.438-35.832-14.738-12.207-37.852-1.709-52.156 5.674-2.939 1.516-6.564-6.283-3.783-8.111z"/><path d="M797.715 508.776c-5.932-7.295-13.877-12.869-23.557-12.994-10.674-.133-13.037 9.332-17.08 17.078-1.844 3.535-5.914-4.287-6.064-5.596-1.355-11.9 4.641-23.752 17.834-23.986 12.922-.23 24.543 10.695 31.367 20.529 1.781 2.573.904 9.155-2.5 4.969z"/><path d="M750.596 502.761c7.693-.316 17.34-.395 22.783 6.045 5.385 6.367 4.324 16.008-.293 22.514-1.98 2.789-5.221-4.135-4.629-5.992.844-2.646 4.775-9.605 1.938-12.059-4.52-3.906-12.346-4.012-17.947-4.309-2.247-.119-4.622-6.086-1.852-6.199z"/><path d="M738.729 442.331c1.518 56.309-6.207 116.072-25.756 161.98-27.74 65.154-81.303 112.832-147.234 127.855-74.087 16.885-155.499-4.727-208.256-63.93-53.334-59.85-66.604-144.197-59.796-223.75-3.414-2.066-6.901-3.916-10.526-5.373a555.38 555.38 0 0 0-2.887 28.926c-5.771 79.193 10.727 161.736 62.613 221.316 51.743 59.422 131.511 82.004 205.403 69.07 68.648-12.02 125.691-58.746 159.934-122.471 28.031-52.168 41.439-122.043 39.744-188.195-4.404-1.842-8.798-3.703-13.239-5.428z"/><path d="M432.788 735.409c-52.45.236-112.003.18-146.702 46.682-15.367 20.592-23.491 45.123-28.267 70.111-4.773 24.971-7.039 51.592-4.208 76.82.59 5.256 5.272-1.189 5.689-3.328 8.621-44.17 5.604-93.609 32.532-132.162 30.452-43.607 91.803-36.723 137.491-46.533 3.698-.791 8.917-11.615 3.465-11.59zm141.761 16.133c24.852-1.959 51.439-.736 75.059 7.838 21.271 7.725 37.508 22.736 50.893 40.545 14.266 18.98 22.674 40.893 30.602 63.041 8.068 22.541 14.584 45.912 19.162 69.402 1.387 7.119 10.975-4.879 10.281-9.461-7.576-50.061-16.369-100.479-47.488-142.051-13.711-18.318-33.334-32.418-55.076-39.432-27.779-8.961-55.855-3.881-82.566 6.152-1.012.382-2.666 4.105-.867 3.966z"/><path fill="#FFF" d="M452.964 570.923c-1.145-1.641 44.16-9.381 65.333-12 32.334-4 72.668 3.668 72.668 3.668s-18.334 34.334-50.334 37.666c-32.001 3.334-72.335-7.334-87.667-29.334z"/><path d="M419.388 579.95c.781-4.982 2.494-9.072 6.061-12.725 1.389-1.422 2.576-3.758 1.873-5.787-.66-1.904-2.846-1.445-3.975-.258-5.193 5.463-9.904 13.209-8.965 21.074.504 4.224 4.674-.179 5.006-2.304zm192.092-27c4.205 3.059 6.943 7.539 9.785 11.795 2.186 3.277 7.229-4.111 5.246-7.084-3.107-4.658-6.49-9.074-11.215-12.201-2.858-1.893-6.669 5.414-3.816 7.49z"/><path fill="#FF617F" d="M454.841 587.152c12.04 11.943 21.885 26.72 36.625 35.615 13.848 8.356 30.778 9.745 46.451 7.569 28.196-3.914 61.8-22.908 55.104-56.068-.533-2.639-3.677-1.474-4.935-.319-15.196 13.955-33.622 24.523-53.865 28.939-21.204 4.625-43.026.237-62.184-9.369-4.313-2.163-8.335 6.64-6.026 9.753 13.886 18.718 40.626 22.966 62.374 21.28 23.888-1.853 48.684-11.8 61.164-33.241 2.348-4.034-.014-9.157-4.551-5.616-19.103 14.906-42.622 27.729-67.22 29.424-11.04.762-21.97-1.388-31.429-7.242-11.134-6.891-17.778-18.784-22.188-30.737-2.047-5.548-8.849 3.154-7.532 7.125 4.312 13.003 11.466 24.807 22.674 32.932 9.748 7.067 22.122 9.454 33.955 8.958 27.382-1.147 53.434-15.987 74.525-32.445l-4.551-5.616c-10.127 17.4-35.082 23.802-53.587 25.258-19.756 1.556-44.384-2.065-56.864-19.219l-6.026 9.753c20.179 10.371 42.176 14.363 64.559 10.128 22.763-4.308 42.359-17.423 59.381-32.558l-5.146-1.384c5.039 27.565-29.013 38.376-50.553 40.34-14.467 1.319-29.116-1.502-41.539-9.212-12.823-7.958-22.332-20.968-33.507-30.947-3.05-2.725-7.528 4.5-5.109 6.899z"/><path fill="#FF617F" d="M457.636 574.864c32.839-20.441 72.353-18.884 109.131-12.999 4.239.679 8.296-9.275 3.248-10.322-18.826-3.906-37.452-2.235-56.068 1.934-18.317 4.102-36.11 9.56-54.872 11.394l-1.321 10.055c18.606-12.075 40.408-19.795 62.512-21.862a112.927 112.927 0 0 1 33.039 1.785c11.142 2.271 20.754 7.298 30.635 12.666 4.092 2.224 8.293-6.898 4.902-9.619-17.57-14.102-43.641-17.054-65.321-15.174-23.664 2.053-46.331 10.348-66.482 22.763-2.027 1.248-6.494 10.408-1.321 10.055 18.382-1.258 36.068-6.769 53.874-11.093 18.959-4.605 37.906-6.502 57.176-2.58l3.248-10.322c-38.462-6.006-79.858-6.646-112.858 17.001-2.239 1.601-3.499 8.794.478 6.318z"/><path d="M445.894 576.405c8.094 18.01 18.684 42.201 36.445 53.117 16.486 10.131 39.897 8.186 59.774 5.93 39.016-4.426 45.035-43.004 54.998-69.24 1.51-3.977-1.543-3.174-2.779-.186-10.115 24.471-16.369 60.412-53.689 63.207-19.232 1.439-39.834 3.1-55.737-6.396-16.736-9.996-26.002-32.516-35.828-46.973-1.516-2.232-3.184.541-3.184.541z"/><path d="M451.235 578.314c8.808-3.852 16.054-9.526 23.435-15.568 8.709-7.13 18.004-11.731 29.115-13.846 15.784-3.002 33.864-2.732 49.264 1.919 15.154 4.576 28.031 16.188 44.461 16.239 3.012.01 5.854-7.088 2.289-7.271-16.888-.873-30.528-12.93-46.545-17.133-15.077-3.956-31.817-3.354-47.105-.903-10.924 1.752-20.812 6.229-29.516 12.991-7.972 6.194-15.214 12.969-24.56 17.125-2.391 1.064-4.068 7.86-.838 6.447z"/><path d="M420.875 572.333c16.084 7.943 34.31 5.223 51.062 1.138 20.578-5.019 40.802-10.269 62.148-10.104 28.175.219 66.392 18.048 87.122-9.77 1.877-2.518.161-6.177-2.449-3.064-10.339 12.324-25.916 13.229-40.843 11.693-15.31-1.576-30.065-5.213-45.548-5.126-18.504.104-36.474 4.55-54.312 9.002-17.958 4.481-36.747 8.507-54.586 1.141-2.209-.911-4.729 4.035-2.594 5.09z"/><path d="M596.365 562.362c-10.383 8.908-19.916 18.7-30.192 27.703-11.587 10.149-27.064 11.986-41.845 12.273-7.253.142-14.516.321-21.642-1.21-7.566-1.626-14.574-5.69-20.998-9.844-11.816-7.641-21.169-16.698-35.619-18.864-2.832-.424-5.523 6.158-2.165 6.879 15.22 3.266 25.293 14.804 38.153 22.636 6.475 3.943 13.493 6.783 20.957 8.144 7.513 1.37 15.693.674 23.287.369 14.125-.568 28.1-3.578 39.438-12.47 11.524-9.039 21.632-20.313 32.536-30.12 2.561-2.302 2.092-8.93-1.91-5.496z"/><path d="M490.033 582.089v-4c-13.367-1.752-26.965-4.346-40.492-4.021-2.979.07-5.867 7.127-2.289 7.271m146.178-7.592c2.885-.539 5.018-7.646.922-7.086-9.742 1.33-24.607 7.467-34 10.498"/></svg>