<svg xmlns="http://www.w3.org/2000/svg" xmlns:xlink="http://www.w3.org/1999/xlink" width="1030" height="1030" viewBox="0 0 1030 1030"><defs><path id="a" d="M1020.378 515.001c0 279.115-226.266 505.377-505.379 505.377-279.111 0-505.377-226.264-505.377-505.377S235.888 9.622 514.999 9.622c279.113 0 505.379 226.266 505.379 505.379z"/></defs><use xlink:href="#a" overflow="visible" fill="#FFBF1F"/><clipPath id="b"><use xlink:href="#a" overflow="visible"/></clipPath><g clip-path="url(#b)"><path fill="#FFBF1F" d="M1021.413 517.214c0 279.115-226.265 505.377-505.378 505.377-279.112 0-505.377-226.264-505.377-505.377S236.923 11.835 516.035 11.835c279.113 0 505.378 226.266 505.378 505.379z"/><path fill="#FC9E17" d="M64.591 301.339c65.698-60.766 147.473-101.363 226.167-142.393 40.815-21.281 80.746-43.73 120.539-66.854 43.206-25.111 87.47-49.598 136.054-62.561l-2.864-37.723C469.489 62.96 382.009 118.8 296.63 176.392c-43.967 29.658-87.432 59.996-129.214 92.682-20.033 15.672-39.122 32.311-60.043 46.828-21.763 15.1-44.411 28.885-66.553 43.41-20.462 13.42-40.42 27.699-58.93 43.736-7.093 6.145-11.696 17.17-10.986 26.521.548 7.209 5.931 13.973 13.849 11.199 98.168-34.393 184.331-95.652 268.734-154.941 42.164-29.617 84.252-59.42 128.115-86.494 19.998-12.342 40.242-24.098 59.857-37.074 21.044-13.918 41.816-28.238 62.965-42 37.357-24.314 76.479-48.123 120.033-59.316l-6.716-33.35c-3.625 4.496-11.991 11.266-18.964 15.918-10.001 6.67-20.648 12.365-31.156 18.178-23.028 12.742-45.092 27.219-67.553 40.936-51.306 31.332-102.533 62.797-153.852 94.113-51.111 31.188-102.327 62.211-153.791 92.816-45.841 27.262-92.238 53.613-137.738 81.449-57.197 34.99-113.604 73.15-161.328 120.578-6.828 6.783-11.733 16.688-10.986 26.52.559 7.365 5.898 13.781 13.85 11.199 51.945-16.859 99.749-43.609 147.504-69.639C94 432.257 145.888 407.882 197.311 382.727c106.724-52.203 213.545-104.201 320.026-156.898 43.588-21.572 87.409-42.348 128.738-68.076 36.969-23.018 73.674-48.996 115.463-62.539-.954-12.574-1.908-25.146-2.864-37.721-32.515 34.457-76.607 55.146-117.22 78.289-50.043 28.516-97.458 62.32-145.694 93.777-48.672 31.742-97.557 62.701-143.462 98.404-36.259 28.201-71.636 58.477-113.409 78.264C166.968 440.29 75.416 461.753 37.56 541.29c-3.076 6.463-5.365 14.316-2.91 21.402 1.744 5.039 7.496 9.094 12.933 6.588 100.087-46.102 193.518-104.332 287.45-161.586 46.518-28.355 93.288-56.326 141.229-82.229 49.123-26.541 100.223-49.029 149.865-74.543 51.182-26.305 101.262-54.686 151.102-83.426-.984-12.998-1.971-25.994-2.959-38.99-89.506 66.279-184.819 124.035-280.237 181.279-95.315 57.186-189.7 115.123-280.916 178.699C148.345 533.63 70.699 560.08 20.878 624.457c-8.81 11.383-11.102 42.221 10.985 31.381 208.226-102.16 408.94-218.58 611.71-330.955 81.106-44.949 162.599-89.213 245.033-131.684l-2.959-38.988C684.77 269.934 489.944 395.938 300.087 528.914 223.16 582.793 147.083 637.887 71.74 693.957c-9.188 6.836-16.062 17.881-15.161 29.76.735 9.699 9.591 15.234 18.12 9.229 43.633-30.723 91.014-55.527 138.016-80.598 48.866-26.064 96.421-53.967 143.454-83.207 97.824-60.818 193.597-125.836 295.819-179.223 79.944-41.756 155.398-91.654 236.617-131.035l-7.131-35.752C726.442 362.759 545.962 469.948 368.333 577.765c-93.445 56.72-186.838 113.709-276.603 176.166-9.319 6.484-16.044 18.146-15.161 29.758.801 10.539 9.316 14.158 18.12 9.23 202.516-113.371 408.093-221.234 609.108-337.291 82.609-47.695 164.386-96.848 244.781-148.197-3.662-10.461-7.324-20.92-10.984-31.381-4.996 7.512-10.377 14.717-16.098 21.689-5.041 6.145-10.836 12.266-18.376 19.707-14.123 13.939-29.659 26.809-45.089 38.273-35.397 26.297-73.572 48.73-112.081 70.107-37.449 20.789-75.582 40.312-113.116 60.945-42.605 23.422-83.599 49.658-124.551 75.828-65.341 41.752-130.41 84.795-198.977 121.15-60.084 31.857-124.11 59.162-173.205 107.688-6.838 6.762-11.73 16.707-10.986 26.521.622 8.164 5.797 12.766 13.852 11.199 27.105-5.268 51.928-18.041 75.645-31.76 24.854-14.379 49.684-28.809 74.537-43.191a10614.59 10614.59 0 0 0 152.23-89.771c49.531-29.773 100.037-57.951 150.667-85.822 50.375-27.73 102.132-51.93 153.663-77.322 67.275-33.148 131.118-72.73 197.158-108.186l-10.984-31.383c-5.504 7.193-9.136 10.836-17.041 18.057-7.751 7.076-15.978 13.312-24.516 19.367-18.807 13.338-38.714 25.094-58.617 36.699-43.185 25.18-85.118 51.793-126.224 80.277-91.95 63.715-180.731 131.844-272.466 195.85-62.606 43.68-127.019 85.396-195.645 119.062l2.959 38.99c48.338-27.512 98.725-51.109 148.234-76.383 25.085-12.807 49.887-26.168 74.097-40.572 24.189-14.391 46.896-30.896 69.81-47.201 23.254-16.545 46.578-32.992 70.564-48.465 23.51-15.168 48.085-28.535 72.547-42.078 48.809-27.02 97.927-53.48 146.338-81.211 61.396-35.17 121.518-72.686 178.058-115.307l-10.984-31.381c-59.98 69.829-146.117 119.634-225.496 166.942-91.051 54.268-181.007 110.705-269.408 169.203-41.195 27.26-81.384 55.869-121.203 85.092-39.395 28.914-78.96 57.732-121.234 82.348-9.594 5.584-15.991 18.82-15.16 29.758.841 11.066 9.201 13.475 18.119 9.23 100.961-48.053 196.104-107.057 291.245-165.518 47.797-29.369 95.674-58.625 144.386-86.459 47.674-27.238 96.568-52.016 145.609-76.67 75.025-37.713 150.203-76.055 218.389-125.428l-7.131-35.75c-33.609 33.213-76.089 55.598-117.895 76.719a4043.125 4043.125 0 0 0-133.637 70.689c-99.297 54.922-199.127 109.008-295.387 169.18-39.695 24.812-79.178 50.248-116.168 78.982-32.521 25.262-64.553 53.299-102.398 70.43-8.954 4.055-15.02 11.32-17.994 20.766-1.854 5.883-3.031 24.236 8.273 22.725 45.448-6.074 87.678-22.926 128.725-42.799 43.947-21.275 85.809-46.65 127.57-71.857 92.4-55.779 188.994-103.605 284.819-153.17 30.956-16.012 61.8-31.988 92.062-49.281l89.188-50.969c9.618-5.496 15.986-18.891 15.161-29.758-.804-10.576-9.309-14.111-18.121-9.23-104.188 57.711-206.854 118.117-308.767 179.746-51.145 30.93-102.087 62.188-152.946 93.584-44.668 27.572-85.541 60.625-129.553 89.188-21.203 13.756-43.262 26.518-67.016 35.328l-1.309 40.957c171.867-107.34 370.172-160.402 549.303-253.342 47.312-24.547 93.093-52.107 136.094-83.643 9.217-6.758 16.058-17.938 15.16-29.76-.76-9.986-9.485-14.867-18.119-9.229-189.893 124.01-375.483 255.294-574.295 364.989a2775.571 2775.571 0 0 1-59.694 31.969l7.133 35.752c73.348-58.309 162.889-92.967 248.278-129.312 44.957-19.137 89.819-38.742 132.914-61.836 22.314-11.959 44.491-24.162 66.002-37.533 23.461-14.584 46.565-29.75 71.245-42.24l-14.291-26.021c-3.254 5.631 2.838-4.268-.768 1.271-1.092 1.672-2.266 3.291-3.438 4.908-1.197 1.656-2.473 3.256-3.742 4.855-.225.285-4.667 5.496-1.594 2.025-6.42 7.246-13.553 13.844-20.877 20.158-14.344 12.365-31.18 23.664-48.141 34.455-35.631 22.666-73.098 42.25-109.025 64.42-39.857 24.594-76.527 54.361-114.17 82.133-42.476 31.334-86.008 61.828-133.523 85.104-8.504 4.166-17.229 7.842-26.043 11.295.954 12.572 1.908 25.146 2.865 37.721 61.736-53.27 143.855-80.49 220.312-108.334 80.787-29.42 162.883-61.467 226.772-120.973 7.469-6.955 14.517-14.354 21.267-22.004 7.163-8.117 13.979-19.857 10.071-31.133-3.469-10.01-15.477-8.066-21.376-1.381-114.229 129.438-307.649 132.047-443.065 231.178a405.641 405.641 0 0 0-25.289 20.133c-7.098 6.125-11.693 17.186-10.986 26.523.529 6.965 5.992 14.279 13.852 11.197 97.135-38.068 176.129-109.006 260.492-168.248 66.981-47.033 147.925-76.375 205.264-136.568 10.397-10.916 19.23-22.635 26.766-35.684 7.101-12.287 4.061-35.305-14.291-26.02-23.682 11.982-45.959 26.396-68.421 40.475-22.415 14.049-45.567 26.727-68.829 39.299-42.021 22.705-85.975 41.566-129.891 60.242-90.248 38.379-182.229 75.838-259.648 137.379-7.225 5.744-11.672 17.469-10.985 26.521.819 10.785 9.259 13.842 18.12 9.23C584.75 936.469 771.74 806.555 960.965 681.342a11193.585 11193.585 0 0 1 56.154-36.924l-2.959-38.988C850.089 725.748 651.649 782.42 469.114 867.284c-48.147 22.383-95.298 46.992-140.351 75.131-8.23 5.139-13.766 14.979-14.994 24.48-1.041 8.053 3.029 20.43 13.686 16.479 48.653-18.047 91.169-48.994 132.91-79.129 45.077-32.541 91.929-61.576 139.312-90.625 101.836-62.436 204.242-123.967 307.943-183.266a7359.87 7359.87 0 0 1 86.651-48.766c-.985-12.996-1.972-25.992-2.96-38.988-51.546 29.457-102.699 59.619-155.438 86.898-53.777 27.818-107.557 55.633-161.336 83.449-43.93 22.723-87.301 45.756-129.695 71.246-41.771 25.117-83.297 50.699-126.523 73.277-41.221 21.529-86.023 41.922-132.549 48.141-3.242 14.498-6.481 28.994-9.721 43.49 47.462-21.482 85.908-55.805 127.178-86.811 44.623-33.523 92.952-62.742 140.678-91.576 96.972-58.586 197.005-111.867 295.911-167.064 73.6-41.076 157.644-70.725 218.6-130.963 6.843-6.76 11.733-16.709 10.988-26.521-.729-9.592-9.636-15.373-18.12-9.23-88.588 64.145-188.591 109.527-285.451 159.373-99.426 51.166-193.672 111.625-289.093 169.732-73.313 44.643-147.525 88.053-225.085 124.969l2.959 38.988c49.188-28.641 94.676-62.945 140.544-96.504 46.478-34 94.138-66.234 142.512-97.467 87.035-56.191 175.351-110.045 263.912-163.752 74.69-45.295 149.065-94.295 206.426-161.074 5.669-6.598 9.146-18.316 6.218-26.762-2.553-7.369-11.105-9.217-17.203-4.619-89.627 67.562-188.064 121.631-286.238 175.51-49.329 27.074-98.405 53.916-144.788 85.881-23.353 16.092-46.29 32.777-69.501 49.068-23.09 16.205-47.426 30.418-72.158 43.965-61.564 33.727-125.931 62.055-186.961 96.791-9.622 5.477-15.983 18.906-15.16 29.76.834 10.973 9.219 13.596 18.119 9.23 98.893-48.512 189.043-113.174 277.802-177.871 89.326-65.109 177.655-132.875 271.783-191.008 55.476-34.266 120.368-62.553 160.974-115.648 5.391-7.047 9.266-17.969 6.219-26.762-2.84-8.197-10.652-8.139-17.203-4.621-49.321 26.479-97.432 55.121-146.602 81.871-49.907 27.152-102.033 49.65-152.422 75.84-103.298 53.693-202.544 114.398-302.913 173.234a11372.038 11372.038 0 0 1-97.148 56.283c-30.903 17.713-60.723 37.979-96.279 44.889.954 12.572 1.908 25.146 2.865 37.721 33.756-33.367 76.162-55.738 118.041-77.18 45.688-23.391 90.238-48.039 134.127-74.68 87.6-53.176 171.682-111.859 262.071-160.354 54.957-29.484 110.544-57.98 162.961-91.898 49.711-32.166 98.854-70.18 131.993-120.016 5.023-7.557 9.406-17.564 6.218-26.762-2.7-7.791-10.854-8.674-17.203-4.621-195.874 125.102-399.875 236.655-603.807 347.893-83.529 45.561-167.062 91.117-250.083 137.596.985 12.996 1.972 25.992 2.959 38.988 170.95-118.941 354.397-218.406 528.241-332.895 94.264-62.08 185.904-128.777 269.847-204.379 7.025-6.326 11.708-17.035 10.988-26.521-.836-11.01-9.213-13.549-18.12-9.23-51.248 24.85-100.296 53.832-149.524 82.396-49.636 28.799-100.665 55.018-150.331 83.748-99.656 57.645-195.211 122.086-293.779 181.537-72.496 43.723-150.876 77.516-220.271 126.383.985 12.996 1.973 25.992 2.959 38.988 185.013-137.684 374.572-269.338 569.658-392.373 80.435-50.727 161.85-99.902 244.248-147.373 9.606-5.535 15.987-18.861 15.161-29.76-.821-10.814-9.251-13.799-18.12-9.229C679.47 260.433 479.433 377.96 275.685 488.665c-81.457 44.258-163.553 87.352-246.782 128.186l10.984 31.383c25.776-33.309 66.304-56.533 103.788-77.648 19.877-11.199 39.891-22.156 59.18-34.355 21.948-13.881 42.736-29.654 64.246-44.203 92.357-62.465 188.979-118.262 284.29-176.014 77.075-46.703 153.374-94.857 225.837-148.516 9.198-6.811 16.062-17.9 15.162-29.76-.793-10.436-9.346-14.291-18.121-9.23-48.863 28.18-97.979 55.93-148.079 81.867-49.613 25.688-100.764 48.18-150.024 74.562-96.332 51.592-187.564 112.021-281.984 166.92-45.945 26.715-92.726 52.25-141.018 74.496 3.339 9.33 6.681 18.662 10.023 27.99.941-1.98 1.919-3.936 2.938-5.881.276-.529 3.928-6.719 1.068-2.127 2.277-3.656 4.846-7.123 7.492-10.518.168-.217 4.738-5.592 1.715-2.197 1.437-1.613 2.949-3.158 4.456-4.703 3.552-3.637 7.364-7.01 11.247-10.285 4.772-4.025 12.174-9.08 19.404-13.619 8.459-5.309 17.279-10.027 26.193-14.512 34.469-17.342 71.242-29.699 106.113-46.215 43.148-20.439 79.836-52.666 117.23-81.818 44.833-34.949 93.141-64.873 140.71-95.896 48.038-31.33 95.283-64.803 145.126-93.205 42.926-24.461 88.732-46.936 123.102-83.359 6.684-7.084 11.75-16.467 10.986-26.521-.559-7.365-5.897-13.775-13.851-11.199-49.908 16.174-93.238 47.807-137.599 74.861-48.914 29.832-102.049 53.268-153.393 78.592-106.674 52.612-213.649 104.615-320.467 156.938-43.396 21.258-86.618 42.541-129.029 65.715-40.359 22.047-80.935 43.73-124.823 57.979l2.863 37.723c72.181-71.732 163.499-120.635 250.486-171.762C258.522 291.58 360.645 228.742 462.906 166.15c31.838-19.49 63.288-39.891 95.544-58.646 28.137-16.359 57.43-30.23 78.302-56.137 6.78-8.412 13.28-38.49-6.716-33.35-47.432 12.189-90.47 38.453-131.143 64.924-21.107 13.74-41.834 28.055-62.84 41.949-19.621 12.977-39.934 24.668-59.938 37.012-88.902 54.875-170.566 120.623-260.034 174.662-39.994 24.156-81.581 45.8-125.746 61.277l2.863 37.721c39.103-33.881 85.59-57.932 127.509-87.986 21.175-15.182 40.63-32.545 61.216-48.488 20.628-15.977 41.773-31.275 63.117-46.279 86.076-60.504 176.02-115.529 257.792-181.998 18.233-14.82 35.915-30.312 52.962-46.484 6.924-6.572 11.721-16.852 10.986-26.521-.586-7.715-5.842-13.336-13.852-11.199C503.626-.239 458.109 24.439 414.134 49.75c-40.958 23.574-81.776 46.955-123.684 68.824-82.873 43.246-167.968 86.252-237.164 150.254-7.749 7.166-13.724 20.592-10.071 31.133 3.688 10.636 15.029 7.251 21.376 1.378z"/></g><path fill="#EAA286" d="M285.88 468.248c-11.236-10.689-28.169-24.869-45.025-18.117-18.943 7.586-28.991 28.869-30.659 48.242-2.042 23.738 7.714 70.512 41.365 61.086 13.803-3.865 24.823-16.406 32.795-27.59 5.537-7.766 11.265-21.939 4.271-30.674-6.963-8.691-18.848.297-23.424 6.719a106.327 106.327 0 0 1-4.277 5.609c-2.711 3.309 3.908-4.279 1.111-1.271a54.946 54.946 0 0 1-2.031 2.037 44.172 44.172 0 0 1-1.992 1.781c-2.709 2.332 4.408-3.264 1.61-1.264-1.184.848-2.451 1.564-3.751 2.213 6.023-3.004 1.984-.957.147-.512-2.552.621 4.472-.469 1.911-.225-.546.053-1.094.043-1.642.033-1.604-.031-5.347-1.24.178.367-1.185-.346-2.299-.904-3.362-1.521-3.438-1.992.328.508-.025.189-.871-.775-1.646-1.65-2.394-2.543-.791-.941-1.491-1.959-2.163-2.986-.35-.537-.672-1.092-.993-1.643-1.32-2.273 2.153 4.268.477.779-1.204-2.508-2.132-5.145-2.929-7.809a62.222 62.222 0 0 1-1.07-4.189c-.686-3.043.914 4.863.361 1.789a72.687 72.687 0 0 1-.438-2.889c-.387-2.867-.544-5.76-.544-8.648-.001-3.268-.239 5.74-.085 2.504a53.25 53.25 0 0 1 .152-2.074c.113-1.338.309-2.67.536-3.998.767-4.496-1.786 6.652-.252 1.371.173-.588.374-1.166.577-1.74 1.116-3.164-2.871 6.709-1.51 3.686 2.291-5.104-2.221 3.213-1.398 2.004 2.835-4.172-4.801 4.568-1.092 1.301-5.262 4.633-4.145 3.088-2.575 2.066 1.255-.812 3.769-1.752-2.508 1.053.954-.426 1.976-.676 2.998-.865-5.893 1.092-2.044.309-.198.443.627.047 1.246.154 1.863.264 2.391.414-4.164-1.301-.494-.104 3.244 1.057 6.254 2.787 9.107 4.625 1.793 1.154 3.494 2.443 5.172 3.756-3.102-2.424.145.148.633.574 1.325 1.152 2.6 2.355 3.871 3.566 8.015 7.625 18.016.592 23.426-6.719 4.946-6.682 12.092-23.231 4.27-30.676zm528.685 9.594c-.943-4.082-2.412-7.926-4.297-11.531.865-5.312.279-10.635-2.844-14.533-3.203-4-7.225-4.295-11.133-2.863-6.188-5.443-13.322-9.908-20.609-13.371-11.836-5.623-25.098 10.73-27.803 25.039-4.158 4.025-7.775 8.197-10.553 11.641-5.932 7.352-11.016 22.254-4.271 30.676 7.17 8.949 18.527-.646 23.426-6.719a91.252 91.252 0 0 1 1.594-1.848 64.477 64.477 0 0 1 2.562-2.479c.059 1.645.258 3.193.623 4.59.596 2.273.727 3.031.938 4.975-.789.426-1.727.867-3.059 1.576-5.455 2.908-11.057 10.215-13.906 18.07-13.49 11.025-20.943 40.24-3.811 40.24 5.949 0 11.637-4.422 15.973-10.473 10.559 7.002 22.922 8.314 33.594-3.654a64.1 64.1 0 0 0 10.361-15.824c11.268-15.428 17.669-34.221 13.215-53.512zm-52.093 25.717a9.352 9.352 0 0 0-.174.479c.055-.168.111-.336.17-.5l.004.021z"/><path fill="#EA2700" d="M749.335 932.459c-8-32.305-21.383-63.406-39.846-90.686a211.876 211.876 0 0 0-4.135-8.012c-.195-6.062-2.105-11.42-7.152-12.287-4.564-7.332-9.463-14.377-14.512-21.068-26.551-35.201-62.256-58.439-105.6-67.098-44.517-8.896-91.094-1.562-135.164 6.426-39.38 7.137-81.81 11.889-114.799 36.574-11.594 8.674-20.927 18.928-28.595 30.264-5.333 5.281-10.306 10.971-14.838 17.102-.9 1.219-1.772 2.449-2.627 3.691-9.433 11.525-18.519 23.361-27.95 34.717-6.021 7.25-10.953 22.33-4.269 30.678 1.993 2.488 4.292 3.539 6.681 3.643-1.191 8.631-1.832 17.359-1.996 26.094-1.842 3.291-2.815 7.078-2.144 10.029-3.001 5.336-3.932 12.34.416 15.285.918.621 1.846 1.23 2.772 1.84.82 3.688 3.152 4.482 5.791 3.697.399.246.801.488 1.201.732 1.502 3.082 4.241 5.113 8.709 5.094 10.723 5.992 21.849 11.244 33.251 15.873-.022.891-.017 1.791.054 2.705.613 8.072 5.854 13.057 13.956 11.283a170.021 170.021 0 0 0 14.36-3.826c19.195 6.037 38.85 10.697 58.407 14.52 43.214 8.449 88.139 12.551 132.119 13.779 53.806 1.504 138.72-4.193 179.239-47.535a570.098 570.098 0 0 0 37.34-15.205c6.794-3.045 11.161-10.914 9.331-18.309zm-46.857-18.803a92.237 92.237 0 0 0 6.018-9.643c.289 2.588.467 5.178.518 7.762a293.849 293.849 0 0 0-6.536 1.881zm-391.061 31.295c9.746-5.258 19.08-11.334 27.987-17.396 1.366-.93 2.712-1.889 4.067-2.834-8.841 7.158-17.213 14.805-24.906 23.107a195.187 195.187 0 0 1-7.148-2.877zm210.99-178.039c-9.961 4.477-19.678 9.539-29.201 14.906 3.87-4.369 6.875-9.426 8.471-15.016 6.918-.107 13.834-.095 20.73.11zm72.927 12.406c-10.659 6.623-21.474 12.982-32.33 19.266 3.898-7.158 7.212-14.688 9.782-22.654.303-.938.557-1.936.759-2.973 7.335 1.682 14.604 3.775 21.789 6.361zM281.659 896.449a247.664 247.664 0 0 0 5.912-2.863 192.985 192.985 0 0 0-7.662 10.273c.533-2.453 1.074-4.904 1.623-7.352.043-.021.086-.038.127-.058zM402.45 880.4c21.559-16.021 44.973-29.586 67.734-43.803 14.313-8.941 28.848-17.594 43.999-24.863a330.59 330.59 0 0 1-4.029 3.561c-9.327 8.098-16.745 13.379-27.886 21.004-11.787 8.068-23.93 15.611-36.125 23.043-25.246 15.381-52.409 29.998-77.613 46.971 11.311-8.633 22.504-17.428 33.92-25.913zm113.18-11.402c-15.605 10.568-31.648 20.447-47.782 30.18 20.755-15.648 42.179-29.178 64.784-42.039a687.852 687.852 0 0 1-17.002 11.859zm-61.373 89.846c-4.178 2.873-7.809 6.834-10.48 11.367a943.353 943.353 0 0 1-13.019-.941 5724.897 5724.897 0 0 0 23.499-10.426zm236.041-89.004a160.272 160.272 0 0 0 5.447-8.137 224.818 224.818 0 0 1 1.873 4.279 334.052 334.052 0 0 0-7.32 3.858zm-43.74-28.072a485.53 485.53 0 0 0 11.086-13.383c1.762-2.209 3.34-4.859 4.58-7.727a216.019 216.019 0 0 1 9.479 9.473 414.37 414.37 0 0 0-25.145 11.637zm-7.807-40.077c-7.279 4.873-14.152 10.268-20.868 15.865 4.636-6.805 8.862-13.885 12.603-21.264a194.747 194.747 0 0 1 8.265 5.399zM510.54 967.285a190.937 190.937 0 0 0-5.397 5.652c-1.138-.029-2.274-.064-3.411-.098a914.57 914.57 0 0 0 8.808-5.554z"/><path fill="#FFE5B8" d="M562.776 726.566a41.622 41.622 0 0 0-2.52-1.059c-1.273-4.307-3.073-8.605-5.416-12.91-5.493-10.092-19.713 1.703-23.426 6.719a40.637 40.637 0 0 0-2.141 3.207c-8.172.816-16.212 2.5-23.357 4.273-15.871 3.939-32.584 13.76-40.383 28.035-.205-.221-.427-.461-.693-.742-1.451-1.535-2.676-3.258-3.82-5.027.746 1.092-1.037-2.113-1.183-2.457-.616-1.449-1.058-2.965-1.501-4.471-.072-.244-.135-.447-.19-.631a29.178 29.178 0 0 0-.155-1.262c-.244-1.768-.301-3.559-.364-5.342a78.365 78.365 0 0 0-.021-.557c.055-.326.123-.9.209-1.838.193-2.094.568-4.166.938-6.234 1.557-8.729-3.305-19.789-13.791-16.604-11.189 3.398-17.514 16.025-19.408 26.65-3.249 18.217-1.6 37.744 9.738 52.963 9.367 12.57 25.292 18.426 40.375 19.803 14.412 1.318 28.68-1.631 41.662-7.629a53.833 53.833 0 0 0 5.891-2.127c12.775-5.523 23.762-15.09 30.721-27.164 4.312-5.562 8.009-11.547 10.943-17.818 3.366-7.188 7.984-23.104-2.108-27.778z"/><path d="M279.396 463.711c-16.049-10.549-38.436-20.035-55.938-7.137-14.137 10.418-17.961 30.535-16.943 46.99 1.085 17.564 8.157 36.576 22.04 47.982 15.376 12.633 39.05 11.445 52.97-2.936 1.167-1.207 5.115-10.531.459-9.754-8.511 1.424-15.688 6.26-24.549 6.768-7.201.412-13.997-1.902-19.978-5.795-12.474-8.125-19.527-23.988-21.843-38.203-1.908-11.729-1.604-27.252 8.358-35.502 14.604-12.094 37.504-1.691 51.677 5.623 2.913 1.501 6.502-6.224 3.747-8.036zm469.085-.1c12.621-7.477 31.449-14.691 44.406-3.77 10.527 8.869 12.789 24.951 12.641 37.865-.152 13.547-4.01 28.654-13.221 38.932-11.84 13.213-26.248 8.324-40.939 4.357-4.469-1.207-10.334 9.051-6.717 12.055 15.186 12.611 36.209 8.387 49.414-4.611 13.523-13.314 19.711-34.145 20.721-52.627.873-15.973-1.623-35.719-15.117-46.305-16.717-13.113-37.668.113-51.334 11.355-.805.661-1.647 3.812.146 2.749z"/><path fill="#D8724A" d="M381.302 713.143h-.001l-.003.005z"/><path fill="#FFE5B8" d="M777.86 364.926c-3.006-3.418-7.354-4.48-12.227-2.934l-1.814.576.002-.104-.385.229c-14.596 4.66-24.016 3.855-33.268 2.117 1.787-5.871 3.156-11.918 4.182-18.047.846-.025 1.73-.307 2.498-.779 3.318-2.047 5.168-6.174 5.084-9.977-.422-18.738-2.826-37.449-7.875-55.301-1.59-7.564-4.004-14.932-7.619-21.531-5.254-12.184-11.996-23.75-20.486-34.395-21.938-27.508-54.555-44.395-87.99-53.428-18.674-5.047-37.842-7.881-57.121-9.221-22.482-1.564-45.141-1.324-67.354 2.76a159.906 159.906 0 0 0-9.089 1.959c-30.479 1.1-60.688 7.053-88.311 20.525a148.708 148.708 0 0 0-7.602 3.994c-13.947 5.256-27.512 11.465-40.332 18.916-17.465 10.152-34.097 23.539-43.733 41.639-6.995 13.137-8.433 27.715-5.012 41.59-3.024 13.004-2.845 26.588.771 39.709-11.327 7.934-22.209 16.582-32.448 26.186-6.098 5.721-10.384 14.133-11.466 22.506-.489 3.789-.25 11.42 3.755 15.977 1.992 2.264 4.661 3.381 7.759 3.256 9.829-.445 19.953-1.643 30.627-3.629-8.566 4.238-16.328 8.654-23.477 13.346-8.469 5.555-14.568 15.502-15.92 25.961-.604 4.668.002 11.611 3.697 15.814 1.966 2.236 4.625 3.422 7.74 3.422 19.213-.082 39.353-1.711 61.197-4.969-24.9 10.721-50.756 22.475-75.826 36.58-9.434 5.305-14.847 16.895-16.025 26.027-.781 6.043.594 11.748 3.68 15.258 2.945 3.354 7.314 4.557 12.346 3.359 20.541-4.871 38.565-9.297 55.122-13.549a1797.095 1797.095 0 0 0-12.079 5.211l-1.064.262-.035.234c-10.521 5.004-17.975 15.506-19.546 27.66-.78 6.051.589 11.771 3.692 15.299 2.955 3.361 7.291 4.551 12.312 3.318l2.157-.541c-.445.229-.986.459-1.43.689l-.412.055v.059c0 .58-2.043 1.158-3.164 1.736-8.943 4.631-14.664 16.611-15.887 26.059-.781 6.055.609 11.787 3.728 15.334 2.958 3.365 7.316 4.541 12.325 3.277a773.058 773.058 0 0 0 31.926-8.812c-7.65 7.445-14.354 23.346-11.746 33.318 1.716 6.564 7.198 9.646 15.322 8.479a430.849 430.849 0 0 0 22.688-3.889c-2.946 4.637-4.899 9.975-5.605 15.439-.582 4.498.111 11.316 3.979 15.717 3.015 3.428 7.36 4.467 12.203 2.857 3.46-1.15 6.923-2.299 10.388-3.438-3.927 5.186-6.525 11.396-7.354 17.801-.796 6.168.428 11.447 3.449 14.885 2.879 3.275 7.252 4.578 12.45 3.736.688-.113 1.376-.26 2.064-.373l.131-.219c7.005-1.143 14.021-2.562 21.045-3.73-3.688 8.246-5.528 17.596-1.978 23.521.982 1.645 2.715 2.965 5.686 3.592 1.196.459 2.6.707 4.227.709l.051.002a862.304 862.304 0 0 0 16.609-.207c10.606.084 21.146.102 31.498-.529.628 5.4 3.33 10.455 7.736 12.402 12.509 5.518 26.529 8.318 41.669 8.318 32.247 0 64.957-12.635 86.756-22.139 41.453-18.074 79.019-41.789 113.438-64.727l.955-.537-.008-.117c9.848-7.041 16.061-19.643 15.197-31.031-.607-8.01-5.502-13.184-12.467-13.184-.447 0-.902.021-1.359.068 11.129-8.906 20.449-18.562 28.252-29.238 5.395-7.379 9.938-18.779 6.518-28.645-1.441-4.158-4.461-6.975-8.344-7.928a272.172 272.172 0 0 0 5.961-5.445c7.812-7.367 12.381-18.434 11.639-28.197-.502-6.627-4.939-13.672-12.166-13.672-1.391 0-2.824.273-4.262.814-2.186.824-4.395 1.65-6.621 2.48 7.656-5.379 13.336-15.053 14.635-25.111.609-4.721-.422-11.723-4.133-15.941-3.041-3.459-7.375-4.414-12.123-2.607-.568.217-1.145.436-1.721.652l.012-.314-1.26.781c-.928.348-1.865.695-2.809 1.041a361.64 361.64 0 0 0 18.785-16c6.088-5.557 10.381-13.977 11.486-22.52.65-5.045-.242-11.9-3.707-15.844a9.794 9.794 0 0 0-3.371-2.508 865.353 865.353 0 0 0 18.533-10.549c9.445-5.531 14.84-17.049 16-26.012.767-5.911-.778-12.051-3.931-15.643zM370.774 239.604c-8.576 8.271-17.072 16.619-25.693 24.828 2.52-3.803 5.255-7.51 8.235-11.111 1.999-2.416 4.313-4.924 6.812-7.418 4.966-4.129 10.271-7.863 15.797-11.24l-1.406 1.34a28.29 28.29 0 0 0-3.745 3.601zm-47.177 44.503c4.766-13.143 10.974-25.691 18.93-37.176 3.953-3.613 8.146-6.957 12.518-10.076-12.641 13.383-22.67 28.93-29.914 45.9-.513.45-1.021.905-1.534 1.352zm354.749-64.351c.608.508 1.214 1.014 1.813 1.531a2.857 2.857 0 0 0-1.115-.391c-.234-.378-.461-.763-.698-1.14zm11.805 138.824c.488 1.094.963 2.193 1.443 3.291-1.232.004-2.76.008-4.455.018a80.71 80.71 0 0 0 3.012-3.309zm15.713-107.912a12.363 12.363 0 0 0-.639 4.027c.021 2.02.111 4.025.258 6.02-6.295-13.791-14.943-26.553-24.22-38.439-.029-.037-.06-.064-.091-.102 9.331 8.187 17.659 17.64 24.692 28.494zm-397.093 17.299c.097-.676.222-1.348.349-2.018.197-1.051-.099.273.36-1.465 1.409-5.33 3.482-9.25 6.235-13.254 3.639-5.291 6.932-8.68 11.975-13.186 6.691-5.979 14.132-11.189 22.021-15.803a167.794 167.794 0 0 0-9.451 11.273c-12.536 10.553-23.541 22.766-31.744 36.99l-.053.094c.083-.879.184-1.756.308-2.631zm106.894 48.58l2.889-1.291.146.354c-1.014.312-2.029.62-3.035.937zm97.017-5.67c4.392 2.414 8.687 5.008 12.899 7.678a638.647 638.647 0 0 1 5.062 3.244c-6.329-2.783-12.255-5.654-17.755-8.717a21.21 21.21 0 0 0-.206-2.205zm17.508 143.629c9.09-6.875 17.588-13.934 25.602-21.26a293.843 293.843 0 0 0 15.002 3.1 2751.728 2751.728 0 0 0-40.604 18.16z"/><path d="M281.184 500.348l-.256-.01c-.442-10.117-6.417-19.09-17.825-19.291-12.805-.23-24.318 10.596-31.078 20.34-1.766 2.547-.897 9.068 2.476 4.922 5.878-7.227 13.751-12.752 23.341-12.875 6.173-.076 9.539 3.09 12.07 7.266-4.335.668-8.414 2.225-11.299 5.637-5.334 6.311-4.285 15.861.291 22.307 1.961 2.764 5.17-4.096 4.584-5.936-.836-2.623-4.73-9.518-1.92-11.947 2.939-2.541 7.29-3.455 11.503-3.869a93.318 93.318 0 0 0 1.691 3.463c1.489 2.854 4.438-1.758 5.562-4.268 1.832-1.343 3.2-5.644.86-5.739zm147.754 239.275c-6.975 22.109-5.688 45.855 11.02 63.252 14.908 15.521 37.253 21.803 58.236 21.549 22.01-.262 44.133-7.805 60.043-23.258 8.271-8.029 14.229-18.852 17.18-29.941 2.424-9.113 4.883-26.236-4.192-32.162-3.436-2.248-6.559 5.719-6.929 7.689-1.694 9.047-.387 19.221-2.889 27.443-.746 2.455-1.7 4.182-4.074 7.531-.98 1.383-4.361 4.715-6.65 6.547-14.182 11.357-32.751 15.729-50.617 15.994-17.977.273-36.809-3.596-51.286-14.732-15.79-12.152-18.938-32.535-15.171-51.018.943-4.628-3.89-1.369-4.671 1.106zM293.577 875.129c9.605.846 20.838 4.406 25.07 13.941 3.9 8.793 3.713 19.945 3.514 29.381-.23 10.682-1.814 21.348-2.905 31.967-.821 7.992-3.751 20.982 1.233 27.955 5.194 7.266 12.879-8.988 13.391-12.357 1.479-9.754-.307-20.678-.039-30.631.307-11.322.67-22.684-.773-33.945-1.217-9.496-4.775-17.562-11.736-24.205-7.643-7.285-17.777-6.531-27.297-4.199-.615.152-1.394 2.013-.458 2.093z"/><path fill="#163663" d="M837.317 436.977a512.723 512.723 0 0 0-5.049-8.254c.285-1.842.449-3.697.471-5.539.338-27.803-7.537-55.91-17.291-81.994-.012-.035-.021-.07-.031-.107-6.514-22.473-14.596-44.527-24.723-65.633-.168-.354-.344-.703-.514-1.059-9.152-23.836-20.758-46.754-34.277-68.281-12.232-19.48-26.48-37.891-43.152-53.781-13.547-12.912-29.12-26.227-46.782-33.045-6.876-2.654-13.884-4.047-21.031-3.207-17.25-9.637-35.972-16.451-55.806-18.002a78.76 78.76 0 0 0-2.795-.162c-22.983-8.639-47.646-13.312-71.222-6.996-11.796 3.16-22.577 9.496-31.688 17.881.201-4.926-1.146-9.518-5.809-11.895-9.004-4.586-19.501 6.701-22.627 13.953a440.085 440.085 0 0 1-6.541 14.447l-.013-.029c-1.622-3.432-3.562-6.498-5.993-9.385-1.121-1.332-2.334-2.58-3.58-3.793-.854-.828-4.521-4.047-1.871-1.643-1.322-1.201-2.734-2.303-4.119-3.43-11.229-9.139-25.903-10.393-39.647-7.879-15.062 2.754-29.307 11.004-41.684 19.703-14.531 10.211-27.845 22.111-40.247 34.795-19.835 20.285-39.501 42.773-53.682 67.52-16.015 27.949-28.049 58.93-35.404 90.262-4.443 18.928-7.633 38.789-7.426 58.463-8.252 8.447-16.283 17.088-23.475 26.496-6.324 8.27-11.935 27.68 2.345 30.918 13.839 3.143 28.021-3.203 40.269-9.51-12.689 14.717-22.639 30.99-25.942 50.77-.659 3.947-.153 8.906 2.443 12.148 3.315 4.141 9.632 3.809 13.626.842 1.82-1.354 3.709-2.553 5.66-3.666-3.254 6.854-5.689 14.027-6.96 21.793-.446 2.729-.326 6.074.763 8.895-8.9 12.764-13.854 28.477-12.338 44.039.659 6.77 4.929 11.4 11.98 9.689.424-.102.851-.197 1.275-.293l.817 2.473c-4.905 7.025-9.474 14.301-13.398 22.057-2.716 5.367-4.522 12.256-2.472 18.17 1.545 4.463 6.271 7.49 10.979 5.596 5.442-2.191 10.89-4.328 16.386-6.295-6.755 9.104-13.325 18.268-19.028 28.123-2.892 5-4.368 12.287-2.433 17.875 1.488 4.295 6.217 7.488 10.802 5.504 6.644-2.877 13.243-5.879 19.864-8.838-12.443 14.039-21.748 28.98-25.134 47.957-1.791 10.035-1.038 20.42.77 30.385 1.087 5.992 2.905 12.648 4.918 20.311 1.547 5.891 2.63 11.141 3.751 17.293 4.719 25.875 6.578 52.432 13.769 77.807 1.034 3.65 4.749 5.238 8.216 4.186 5.949-1.807 9.378-7.787 11.434-13.189.601-1.58 1.211-3.158 1.828-4.734.307-.775.615-1.549.928-2.322l.001-.004c.219-.531.687-1.672 1.407-3.432-1.398 3.508 1.078-2.234 1.445-3.031.827-1.799 1.688-3.58 2.557-5.357a205.397 205.397 0 0 1 5.343-10.172c.312-.559 1.825-3.068 2.111-3.572a209.805 209.805 0 0 1 2.149-3.305c1.945-2.924 4.019-5.76 6.172-8.533a125.555 125.555 0 0 1 3.25-3.982l.035-.043c.496-.545.993-1.09 1.498-1.629a90.164 90.164 0 0 1 7.146-6.857c.41-.354 2.189-1.748 2.746-2.197a107.9 107.9 0 0 1 2.947-2.082c2.409-1.643 4.919-3.135 7.471-4.547a83.914 83.914 0 0 1 3.425-1.77c-.61.324 2.745-1.225 3.344-1.471 3.733-1.535 7.583-2.818 11.485-3.91a63.16 63.16 0 0 0 7.494-1.854c.346-.074.69-.154 1.036-.227 1.823-.383 3.659-.697 5.497-.998.511-.08 1.022-.154 1.535-.23-.863.139 1.977-.23 2.146-.248 4.013-.449 8.049-.68 12.084-.812a260.325 260.325 0 0 1 27.112.502c13.188.938 26.83-26.498 14.01-34.178-28.264-16.932-51.108-39.656-72.82-64.346-11.48-13.053-22.681-26.373-34.434-39.16.203-.5.413-.992.611-1.496 2.699-6.865.975-20.891-8.77-19.066-2.045-6.281-3.826-12.721-5.37-19.268 1.478-6.43 1.366-13.811-3.372-16.51a338.968 338.968 0 0 1-2.863-20c3.814-6.07 6.407-14.064 4.014-20.977-1.105-3.189-3.431-5.113-6.139-5.791-1.693-35.754.967-69.893 3.93-94.518 23.515-21.275 37.998-49.814 52.069-78.34 28.825-21.902 52.638-50.008 71.199-81.059a223.714 223.714 0 0 0 8.714-16.037c12.879-17.256 24.996-35.047 36.134-53.373.665 7.422 1.976 14.791 3.774 21.967 5.077 20.254 15.389 38.545 31.191 52.322 15.313 13.352 33.555 22.529 52.723 29.033 6.535 2.217 13.148 4.188 19.781 6.096 14.709 10.217 29.896 19.758 45.33 28.902 11.295 6.695 22.623 13.412 34.205 19.598 21.654 11.566 44.002 21.727 66.027 32.551 18.752 9.215 36.607 19.322 53.361 30.775 3.105 17.594 7.463 35.043 11.594 52.543-3.451 34-5.553 68.166-8.516 102.234-1.752 2.785-3.061 5.67-3.783 7.928a409.887 409.887 0 0 1-8.785 24.822c-.285.725-.572 1.447-.863 2.168l-.268.639-1.516 3.676c-.373.873-.746 1.746-1.123 2.617a318.294 318.294 0 0 1-5.682 12.303c-3.699 7.621-7.758 15.088-12.068 22.379-.111.188-.225.373-.336.559-.352.572-1.014 1.658-1.264 2.053a263.746 263.746 0 0 1-3.646 5.57c-2.463 3.678-5.053 7.27-7.709 10.807-2.387 3.18-4.877 6.277-7.422 9.33-.566.676-1.139 1.35-1.713 2.02-.178.207-.324.381-.443.521-.072.08-.148.164-.232.26a225.417 225.417 0 0 1-4.535 4.895c-6.164 6.498-12.775 12.564-19.685 18.26-.288.238-2.909 2.316-2.989 2.402a239.579 239.579 0 0 1-4.984 3.699 294.52 294.52 0 0 1-11.529 7.912c-8.058 5.268-16.494 9.939-25.139 14.166-4.998 2.443-8.273 9.395-8.947 14.605-.605 4.678 1.824 12.359 8.165 9.834 1.122-.447 2.241-.9 3.356-1.361.613 2.33 1.872 4.236 4.168 4.965 26.722 8.482 48.879 26.842 67.117 46.979 9.395 10.377 18.707 23.059 24.148 34.172a112.24 112.24 0 0 1 7.35 19.32 73.66 73.66 0 0 1 .83 3.348c-.146-.561.498 2.607.578 3.113.506 3.195.406 6.721.334 9.953-.096 4.418 3.049 9.133 7.719 9.352 7.117.334 12.744-6.758 15.697-12.32a312.033 312.033 0 0 0 7.387-14.861c1.721-3.707 3.316-7.455 4.854-11.242 1.842-4.543-1.711 4.268.156-.262a744.334 744.334 0 0 0 3.617-8.887c4.41-11.098 8.256-22.43 11.357-33.963 6.729-25.02 11.541-50.637 14.852-76.326 2.873-22.291 4.756-44.67 6.164-67.086a830.689 830.689 0 0 0 5.76-23.855c5.691-25.129 11.062-50.73 13.355-76.43 1.484-16.643 1.027-33.104-.734-49.475.859-11.588.6-23.34-1.012-34.752 3.605-1.676 6.947-4.84 8.912-7.494 5.384-7.274 8.522-17.632 3.602-25.844zM259.452 797.26c-1.082-7.975-1.859-16-2.557-24.031.317.668.629 1.338.954 2 2.478 5.021 6.556 6.877 11.202 5.414-3.448 5.371-6.63 10.935-9.599 16.617zm25.183-37.1a32.17 32.17 0 0 0 .295-1.633c.286-1.871.618-3.729.979-5.582-.101.65.348-1.135.727-2.666a58.428 58.428 0 0 0 4.978 2.801 124.578 124.578 0 0 0-6.979 7.08zm44.321-44.562a339.973 339.973 0 0 0-5.973-10.26c.682.02 1.354.029 2.016.029a411.236 411.236 0 0 0 10.928 10.779 722.473 722.473 0 0 0-6.971-.548zm-32.889-354.657c-.886 1.764-1.8 3.516-2.726 5.26-.733-1.516-1.753-2.781-3.105-3.633 2.537-3.691 5.063-7.393 7.583-11.1a9.912 9.912 0 0 0 2.033 1.705 386.465 386.465 0 0 1-3.785 7.768zm16.584-83.568c.099-1.924-.145-3.842-1.021-5.51.375-.457.747-.914 1.127-1.363 1.825-2.002 3.725-3.932 5.649-5.838 2.397-2.373 4.886-4.652 7.417-6.881a6145.236 6145.236 0 0 0-13.172 19.592zm22.422-108.082c-.188.146-.211.164.024-.02l-.024.02zm171.895-6.59l.006.137c-.664.767-.479.453-.006-.137zm193.437 64.541a230.704 230.704 0 0 1 6.867 6.393 517.17 517.17 0 0 1 5.799 7.238c1.141 1.453 2.264 2.92 3.387 4.387a709.388 709.388 0 0 0-16.053-18.018zm63.645 547.887a504.916 504.916 0 0 1-1.741 8.311c-.051.219-.113.496-.197.854-2.043 8.898-4.443 17.707-6.857 26.508a336.341 336.341 0 0 1-2.129 7.402 149.777 149.777 0 0 0-2.293-4.844 190.537 190.537 0 0 0-2.297-4.447c3.824-5.768 6.141-13.008 5.564-17.713a58.484 58.484 0 0 0-1.033-5.932c2.764-2.688 5.035-6.031 6.525-8.551a340.59 340.59 0 0 0 6.268-11.086c-.58 3.17-1.179 6.338-1.81 9.498zm3.179-72.072a417.389 417.389 0 0 1-6.49 17.326c-.115.289-.209.525-.287.725-.02.041-.033.076-.053.123-.344.828-.697 1.654-1.051 2.479-.105-.244-.215-.486-.322-.73a576.631 576.631 0 0 0 10.674-36.287c.889.277 1.84.4 2.83.379a586.232 586.232 0 0 1-5.301 15.985z"/><path fill="#BF210C" d="M674.729 865.941c.148-.297.271-.58.424-.877.709-1.373 1.541-7.242-1.814-5.617a56.75 56.75 0 0 0-2.603 1.365 3.687 3.687 0 0 0-1.452-.248c-.729.051-1.457.102-2.186.156-3.744.262-6.167 3.811-7.453 7.531-2.996 2.283-5.944 4.648-9.007 6.938-1.582 1.184-2.832 6.898.265 4.945 2.578-1.627 5.085-3.367 7.631-5.025.094 2.627.809 5.131 1.831 7.576-8.776 31.225 7.728 65.773 12.251 97.346 2.115 14.748 15.809-2.643 16.58-9.701 3.854-35.33 3.817-72.894-14.467-104.389zm-193.291-10.507c-19.103.988-37.55-8.969-51.067-21.762-6.352-6.008-11.616-13.09-16.189-20.508-4.65-7.549-6.59-17.041-11.931-24.025-.762-.965-1.757-1.43-2.985-1.393-.657.094-1.267.244-1.848.426-.698-3.664-1.213-7.301-1.461-10.883-.426-6.131-6.4 1.932-6.524 4.9-.196 4.695.046 9.424.546 14.154-1.859 5.859-1.203 13.371.136 18.252 1.437 5.242 3.724 10.35 6.464 15.244 3.971 15.324 9.314 30.283 17.256 44.045 6.572 11.393 16.244 23.465 30.004 25.666 16.956 2.707 30.688-13.115 38.576-25.984 1.974-3.224 7.9-18.591-.977-18.132z"/><path fill="#EAA286" d="M767.229 495.057c-1.268-11.895-3.064-23.717-5.244-35.471 1.439-20.695 1.789-41.346-1.479-61.914l.445-2.15c.346-1.674-.252-3.639-1.6-4.395a165.691 165.691 0 0 0-2.656-11.346c-1.387-5.094-6.672-.295-8.449 2.852-1.57-16.18-4.646-32.244-8.627-47.895-8.566-33.695-22.387-66.584-41.607-95.613-.438-.662-1.029-.975-1.674-1.055-3.088-6.105-6.523-11.934-10.494-17.227-.012-15.125-14.1-26.014-26.056-33.459-9.829-6.123-20.599-11.268-31.653-15.318-8.811-8.156-18.389-15.416-29.086-21.057-23.834-12.568-52.016-13.297-78.18-9.65-23.372 3.256-45.818 10.035-67.926 17.93a274.339 274.339 0 0 0-47.436 17.889c-.438.166-.875.332-1.314.496-.287.107-.566.303-.83.555-41.988 20.918-78.385 52.676-102.594 93.197-1.086 1.814-1.702 5.033-.256 6.84 1.968 2.457 4.977-.219 6.343-1.816a294.147 294.147 0 0 1 16.882-18.143 191.781 191.781 0 0 0-7.598 11.461c-15.822 25.83-26.16 55.516-27.042 85.941-.106 3.684 4.577.125 4.715-2.172 2.458-41.188 22.176-81.49 51.511-110.225 14.48-14.186 32.031-25.215 51.67-30.553 23.346-6.346 47.176-1.221 70.262 3.846 1.625.357 3.253.721 4.881 1.088.449.637 1.115 1.033 2.091.959.501-.037 1.003-.094 1.505-.141 16.875 3.867 33.881 8.086 51.017 10.766.417.264.931.459 1.562.57 1.85.328 3.725.469 5.612.453 15.002 1.93 30.104 2.484 45.301.383 17.075-2.359 33.502-8.131 50.631-10.135 8.671-1.014 17.388 5.955 25.946 7.66.814.164 1.609 3.209 2.402 3.414 7.723 9.951 14.93 10.807 21.324 21.502 25.295 42.312 35.453 91.021 40.477 139.506 1.658 16.014 2.926 32.025 3.67 48.049-.408 22.33-.457 44.666-.381 67.002a529.632 529.632 0 0 1-.814 11.23c-1.752 20.705-4.51 41.578-10.332 61.57-6.516 22.369-20.068 42.051-33.986 60.457-15.867 20.979-33.59 42.27-54.524 58.398-.359.275-.728.543-1.089.816-12.611 4.279-24.539 11.629-33.795 20.506a205.585 205.585 0 0 1-30.373 11.598c-20.105 5.908-41.362 8.293-62.212 5.736-3.655-.449-7.086 8.211-2.77 8.799 30.702 4.182 62.587-2.348 91.229-15.389.239 2.047 1.475 3.359 4.47 2.621 9.601-2.365 19.294-7.525 27.46-13.389.341.186.789.221 1.359.045.303 1.049 1.125 1.586 2.772.982 2.926-1.07 5.683-2.521 8.263-4.248.691.635 1.641.885 2.874.389 15.652-6.283 28.428-19.816 39.325-32.25 8.338-9.514 15.788-19.92 22.543-30.691 1.852.322 4.525-1.291 5.807-2.771 14.334-16.537 23.758-36.834 31.637-57.066 6.264-16.084 11.545-32.799 15.424-49.719-.023 6.072.135 12.135.562 18.184.291 4.121 4.18 4.158 6.699 1.801 19.744-18.466 16-45.894 13.406-70.233zM405.101 200.975a313.122 313.122 0 0 1 6.792-3.188c.509.668 1.313 1.148 2.501 1.338a51.51 51.51 0 0 0 2.078.283c-3.815.317-7.606.834-11.371 1.567zm126.039 16.228c-.503.184-1.036.523-1.567.971-.517-.082-1.031-.17-1.548-.254 1.111-.254 2.219-.518 3.325-.793l-.21.076zm40.195 1.768c-.156.496-.29 1.217-.345 2a120.41 120.41 0 0 1-8.335.271c3.043-1.594 5.953-3.234 8.672-4.773.467-.137.932-.271 1.396-.408a11.351 11.351 0 0 0-1.388 2.91zm-3.309-46.746c1.299.141 2.596.293 3.893.453-1.28-.039-2.561-.07-3.842-.096a3.408 3.408 0 0 0-.051-.357zm-43.742-13.926c1.641-3.375 2.428-7.479-.268-8.469 15.801-1.488 31.667-.984 47.49 2.557 9.929 2.221 19.154 6.297 27.729 11.553-24.631-5.264-49.855-7.014-74.951-5.641zm88.797 54.861a705.65 705.65 0 0 0-4.627 1.055c5.271-2.428 10.548-4.795 15.971-6.602 7.439-.318 15.406-.232 22.912 1.16.091.107.182.213.271.32-11.599-.673-23.267 1.54-34.527 4.067zm91.147 418.502c1.051-3.336 2.309-6.607 3.564-9.789a196.55 196.55 0 0 1 3.199-7.58 140.545 140.545 0 0 0 5.531-9.201 1156.05 1156.05 0 0 0 6.129-11.336c-4.904 12.889-10.709 26.197-18.423 37.906zm23.988-246.26a596.088 596.088 0 0 0-1.609-13.096c.68 4.23 1.342 8.463 1.982 12.699-.127.13-.25.261-.373.397zm28.404 161.262c-.342-12.982.291-25.967 1.279-38.947a377.875 377.875 0 0 1 1.354 19.199c.309 6.979-.076 13.754-2.633 19.748z"/><path d="M398.717 776.16c-1.481 22.27 7.005 42.752 22.378 58.725 13.928 14.471 41.061 28.125 61.446 23.111 2.993-.738 7.909-10.424 3.576-11.861-9.212-3.053-19.125-3.09-28.45-6.111-9.454-3.061-18.225-7.996-26.166-13.912-17.283-12.875-28.608-30.572-28.237-52.607.063-3.866-4.409.575-4.547 2.655zm243.421 103.871c2.395 8.258 6.076 15.988 9.025 24.062 3.552 9.715 5.473 19.924 7.402 30.053 3.934 20.643 5.473 41.725 8.559 62.502.152 1.029.41 3.234 1.812 3.527.411.088.827.172 1.238.262 2.578.539 4.68-2.006 5.575-4.188 3.73-9.104.382-19.746-.796-29.264-1.455-11.76-3.399-23.459-5.717-35.082-2.289-11.469-5.497-22.682-10.037-33.471-3.351-7.967-7.588-16.752-16.322-19.527-.5-.161-.843.759-.739 1.126z"/><path d="M678.663 849.148c-13.551 4.963-25.286 12.922-34.451 24.115-1.529 1.865-2.977 4.688-2.2 7.178.994 3.188 4.192.287 5.231-1.145 7.885-10.857 18.508-18.674 30.627-24.252 1.852-.853 3.83-7.005.793-5.896z"/><path fill="#FFBF1F" d="M357.29 114.951a203.787 203.787 0 0 0-5.747 3.896c-14.531 10.211-27.845 22.111-40.247 34.795-5.626 5.754-11.232 11.691-16.711 17.799 19.656-20.287 40.967-39.043 62.705-56.49z"/><path fill="#2F61DD" d="M280.404 189.629a500.051 500.051 0 0 0-9.764 11.381c-4.688 6.545-9.075 13.258-13.026 20.152-16.015 27.949-28.049 58.93-35.404 90.262-4.443 18.928-7.633 38.789-7.426 58.463a470.142 470.142 0 0 0-8.668 9.09c3.215 5.215 7.996 9.23 14.695 10.91 15.77 3.953 31.53-4.115 44.066-13.098 29.265-20.969 50.16-50.982 73.33-77.998 7.418-8.646 16.576-15.996 24.875-23.801 9.588-9.016 19.135-18.076 28.727-27.088 12.985-12.199 26.054-24.32 39.418-36.104a640.758 640.758 0 0 0 13.55-21.314 134.9 134.9 0 0 0 1.072 8.688c1.138-.961 2.269-1.93 3.412-2.885.315-.262.855-.365 1.156 0 17.793 21.682 37.469 41.803 58.587 60.256 35.42 30.949 74.58 57.639 116.123 79.678 16.123 8.553 32.819 15.768 49.156 23.857 15.248 7.549 30.287 15.518 45.58 22.977 16.176 7.891 32.627 15.562 49.783 21.088 12.564 4.047 27.445 8.387 40.631 4.793 7.766-2.115 14.691-5.633 20.787-10.203-2.779-19.643-8.721-39.1-15.617-57.543-.012-.035-.021-.07-.031-.107-6.514-22.473-14.596-44.527-24.723-65.633-.168-.354-.344-.703-.514-1.059-9.152-23.836-20.758-46.754-34.277-68.281-12.232-19.48-26.48-37.891-43.152-53.781-13.547-12.912-29.12-26.227-46.782-33.045-6.876-2.654-13.884-4.047-21.031-3.207-17.25-9.637-35.972-16.451-55.806-18.002a78.76 78.76 0 0 0-2.795-.162c-22.983-8.639-47.646-13.312-71.222-6.996-11.796 3.16-22.577 9.496-31.688 17.881.201-4.926-1.146-9.518-5.809-11.895-9.004-4.586-19.501 6.701-22.627 13.953a440.085 440.085 0 0 1-6.541 14.447l-.013-.029c-1.622-3.432-3.562-6.498-5.993-9.385-1.121-1.332-2.334-2.58-3.58-3.793-.854-.828-4.521-4.047-1.871-1.643-1.322-1.201-2.734-2.303-4.119-3.43-11.229-9.139-25.903-10.393-39.647-7.879-8.74 1.598-17.202 5.055-25.188 9.367-31.359 24.528-61.233 51.27-87.634 81.118zm32.247 87.744c.099-1.924-.145-3.842-1.021-5.51.375-.457.747-.914 1.127-1.363 1.825-2.002 3.725-3.932 5.649-5.838 2.397-2.373 4.886-4.652 7.417-6.881a6145.236 6145.236 0 0 0-13.172 19.592zm394.621-43.738a517.17 517.17 0 0 1 5.799 7.238c1.141 1.453 2.264 2.92 3.387 4.387a709.388 709.388 0 0 0-16.053-18.018 230.704 230.704 0 0 1 6.867 6.393zm-200.304-70.934l.006.137c-.664.767-.479.453-.006-.137z"/><path fill="#FFBF1F" d="M335.073 169.291c-.188.146-.211.164.024-.02l-.024.02z"/><path d="M378.702 196.738c-14.328 13.461-25.191 31.275-35.866 47.645-11.767 18.043-23.157 36.35-35.494 54.016-16.265 23.289-33.897 46.012-56.22 63.098 17.092-22.191 31.002-46.859 43.727-71.941 9.879-19.471 19.066-39.281 28.789-58.83 9.919-19.945 20.865-39.174 32.515-58.15 1.681-2.736 2.573-7.689.388-10.42-2.874-3.588-7.766.129-9.658 2.77-25.208 35.18-41.916 76.209-60.906 114.865-17.525 35.674-37.465 70.668-64.984 99.562-.123.053-.241.109-.363.162-4.164 1.789-8.453 3.27-12.796 4.557-5.957 1.766-11.271 16.943-2.032 15.629a98.934 98.934 0 0 0 6.061-1.076c1.668 1.148 4.198.076 5.833-1.34l.065-.059c36.395-9.885 64.232-39.529 85.852-69.412 24.871-34.375 44.213-72.451 69.809-106.32 3.604-4.77 7.413-9.363 10.996-14.145 2.013-2.686 3.501-6.75 2.345-10.088-1.386-3.993-5.679-2.761-8.061-.523zm434.715 229.289c3.59-2.215 5.703-6.762 5.555-10.898-1.424-39.408-17.277-77.516-37.67-110.742-10.725-17.471-23.588-33.672-38.357-47.896-13.35-12.857-28.746-24.641-46.338-30.967-6.426-2.311-13.672 11.502-7.486 14.693 34.107 17.588 59.965 45.779 80.32 77.902 9.504 15 18.023 31.402 24.547 48.521a169.886 169.886 0 0 0-5.332-8.564c-11.607-17.428-26.738-32.004-42.977-45.076-33.643-27.084-72.704-46.23-108.604-69.984-8.353-5.525-16.646-11.121-24.659-17.133-4.699-3.525-12.333 9.59-8.124 13.148 33.378 28.203 71.967 49.09 107.881 73.752 32.848 22.553 62.678 50.254 78.4 87.354-8.604-10.336-18.141-19.943-27.707-28.807-19.904-18.436-41.918-34.531-64.707-49.193-20.139-12.955-41.143-24.875-62.557-35.598-19.837-9.932-40.137-18.93-59.697-29.41-25.059-13.426-53.002-30.283-66.873-56.17-3.898-7.275-12.936 4.527-10.375 9.814 19.305 39.848 63.59 61.898 101.137 81.18 19.164 9.84 38.355 19.32 57.039 30.08 23.344 13.443 46.184 27.904 67.656 44.195 15.002 11.381 29.162 23.895 42.258 37.43 13.043 13.484 23.562 28.533 34.742 43.504 4.896 6.557 14.09-7.877 11.549-13.102a136.5 136.5 0 0 0-2.066-4.051 16.55 16.55 0 0 0 2.242-3.871c.068-.038.135-.07.203-.111z" fill="#163663"/><path fill="#FF8A0B" d="M394.898 809.22c.25-.007.486.012.728.073l-.676-.176c.22.069.411.166.592.308l-.534-.439c.166.146.296.311.405.503l-.347-.645c.1.193.17.395.217.606l-.159-.801c.018.092.034.184.039.276.034.716.348 1.521 1.024 1.865.69.352 1.495.112 2.111-.268.854-.526 1.511-1.359 1.961-2.243.487-.956.631-1.853.662-2.905a4.322 4.322 0 0 0-.376-1.815c-.598-1.35-1.652-2.152-3.151-2.268-.844-.064-1.686.491-2.265 1.038-.8.756-1.389 1.753-1.719 2.8-.278.883-.404 1.907-.093 2.803.228.663.817 1.307 1.581 1.288z"/><path d="M450.58 146.42c27.946-30.701 66.066-46.838 107.449-46.669 42.684.174 84.253 14.449 119.981 37.404 19.05 12.239 36.186 27.236 51.233 44.132 17.335 19.463 31.142 42.019 43.308 64.987 25.479 48.103 42.641 100.56 51.103 154.301 8.527 54.157 8.797 109.362 3.234 163.829-2.84 27.806-7.311 55.437-12.972 82.802-5.146 24.879-11.937 49.302-18.381 73.859-9.343 35.599-17.909 71.395-27.235 106.996-3.973 15.165-7.948 30.341-12.537 45.333-1.591 5.197-3.276 10.371-5.202 15.455-.157.411-.316.821-.479 1.23-.789 2.019.69-1.624-.108.275a65.845 65.845 0 0 1-1.116 2.485 38.036 38.036 0 0 1-1.057 2.059l-.204.358c1.096-1.759.963-1.538-.4.663 1.403-2.296.739-1.213.349-.709-1.947 2.514-3.724 7.433-1.433 10.293 2.382 2.975 6.251-.178 7.86-2.254 7.323-9.449 10.562-22.84 14.113-34.02 6.165-19.402 11.439-39.078 16.63-58.758 5.859-22.217 11.524-44.483 17.227-66.741 5.729-22.369 12.064-44.586 17.59-67.005 26.551-107.734 34.515-221.105 9.134-329.851-12.579-53.896-34.229-105.248-64.23-151.759-25.098-38.909-60.817-70.509-102.492-90.712-35.553-17.235-75.594-25.06-114.856-19.449-38.975 5.569-74.408 25.223-99.947 55.076-2.796 3.269-.815 11.061 3.438 6.39z"/><path d="M470.454 125.828c-21.837-36.403-67.443-37.601-103.701-25.22-20.594 7.032-39.607 18.533-55.901 32.893-18.047 15.905-30.946 36.64-42.809 57.327-27.772 48.433-46.315 102.151-57.548 156.713-12.147 58.999-13.188 120.371-11.287 180.382 3.362 106.122 20.41 212.243 47.7 314.796a1454.345 1454.345 0 0 0 7.779 28.062c1 3.475 4.915 2.232 6.811.441 2.575-2.433 4.191-6.417 3.209-9.92-26.866-95.837-45.141-194.307-52.16-293.636-4.359-61.699-5.101-124.909 3.098-186.328 7.304-54.716 23.648-108.701 47.578-158.429 10.809-22.462 23.192-45.348 39.205-64.581 13.261-15.928 31.077-28.031 49.695-36.816 33.858-15.978 79.685-19.892 106.537 10.775 1.282 1.465 2.458 3.019 3.605 4.589 3.842 5.258 10.872-6.575 8.189-11.048z"/><path d="M747.665 398.457c9.174 67.629 3.338 149.383-23.346 208.191-29.289 64.553-85.84 111.791-155.451 126.676-78.222 16.729-164.176-4.684-219.877-63.34-56.312-59.297-70.32-142.865-63.133-221.684-3.605-2.047-7.287-3.881-11.115-5.324a518.75 518.75 0 0 0-3.047 28.658c-6.094 78.463 11.326 160.244 66.106 219.273 54.632 58.873 138.851 81.246 216.866 68.432 72.479-11.906 132.705-58.203 168.857-121.338 36.678-64.053 49.645-155.043 37.938-232.572-4.497-2.542-9.089-4.888-13.798-6.972z"/><path d="M430.142 736.535c-51.966.234-110.969.178-145.348 46.252-15.225 20.4-23.273 44.705-28.006 69.463-4.729 24.74-6.974 51.115-4.168 76.111.584 5.207 5.223-1.18 5.637-3.299 8.541-43.76 5.552-92.744 32.231-130.941 30.171-43.203 90.955-36.383 136.222-46.102 3.663-.785 8.833-11.507 3.432-11.484zm140.453 15.985c24.621-1.941 50.964-.73 74.365 7.766 21.074 7.654 37.16 22.527 50.422 40.17 14.135 18.805 22.465 40.514 30.318 62.459 7.994 22.332 14.449 45.488 18.984 68.762 1.375 7.053 10.873-4.834 10.188-9.373-7.506-49.6-16.219-99.551-47.049-140.738-13.586-18.15-33.027-32.119-54.567-39.068-27.524-8.879-55.341-3.846-81.805 6.096-1.001.375-2.639 4.064-.856 3.926z"/><path fill="#EAA286" d="M751.603 418.312c-13.844-13.646-29.473-25.127-45.441-36.133-7.955-5.482-16.172-10.602-24.381-15.693l-.99-.611c1.126 1.383.486.934-1.92-1.352-.945-.729-1.846-1.426-2.877-2.031-2.008-1.18-4.057-2.295-6.092-3.428-4.414-2.457-8.836-4.932-13.344-7.211-17.401-8.807-35.893-15.346-54.023-22.459-17.798-6.982-35.523-14.305-52.734-22.646-10.641-5.158-21.021-10.859-30.986-17.232-4.869-3.113-9.752-6.184-14.473-9.52a195.05 195.05 0 0 1-6.889-5.125c-.957-.742-1.898-1.506-2.84-2.268.374.277-2.547-2.184-2.996-2.578-15.283-13.359-28.055-29.555-37.031-47.07.218-3.197.273-6.41.137-9.627-.105-2.461-1.974-4.424-4.514-3.652a6.816 6.816 0 0 0-2.025 1.025c-2.381-2.027-5.723-1.516-8.605.283.521-4.348.864-8.721 1.129-13.078.141-2.316-.219-5.678-3.26-5.822-3.104-.145-5.412 2.92-6.746 5.295-12.582 22.406-22.085 46.459-33.841 69.301a338.931 338.931 0 0 1-14.302 25.135c-5.233 6.977-10.54 13.906-15.623 20.982-.625.871-1.15 2.168-1.458 3.531a292.767 292.767 0 0 1-10.917 13.332c-16.199 18.609-31.984 37.25-45.025 58.277a278.287 278.287 0 0 0-8.629 14.93c-6.725 8.752-12.744 18.045-17.552 27.994-1.033 2.139-1.961 5.41-.278 7.51.481.604 1.057.912 1.666 1.014a247.166 247.166 0 0 0-4.98 15.793 254.867 254.867 0 0 0-.838 3.113c-1.37 5.16 3.98 4.211 5.158.24a257.785 257.785 0 0 1 10.308-28.543c13.845-19.848 29.794-38.17 45.971-56.279 7.802-7.324 15.779-14.467 23.731-21.609 28.699-25.773 59.271-52.105 77.74-86.596a129.502 129.502 0 0 0 1.832-3.578c4.113 8.082 8.846 15.844 14.224 23.139 11.28 15.303 25.331 28.42 40.431 39.891 14.744 11.199 31.652 19.982 48.23 28.094 17.293 8.463 35.271 15.828 53.201 22.822 12.064 4.705 24.109 9.328 36.337 13.586 5.945 2.07 11.999 3.84 17.972 5.832 7.749 2.584 11.656 3.373 19.112 5.965 24.001 8.344 46.687 20.338 66.808 35.871 3.146 2.428 8.002-2.176 9.609-4.35 2.373-3.21 5.65-10.878 2.014-14.464zM415.922 255.477c.63-1.244 1.274-3.307 1.086-5.049 3.014-6.158 5.97-12.352 8.871-18.57-2.759 9.984-6.841 19.668-11.376 28.695-5.768 11.479-12.654 22.359-20.117 32.836-.185.162-.364.33-.55.492a387.253 387.253 0 0 0 10.601-18.688c4.144-6.367 8.035-12.9 11.485-19.716zm1.696 26.037c.98-1.229 1.95-2.467 2.899-3.713 5.649-7.426 10.735-15.408 15.03-23.793-3.825 10.836-9.338 20.748-18.121 28.045.065-.18.127-.36.192-.539zm-20.923 26.465c-.997 1.014-2.009 2.01-3.015 3.014a383.016 383.016 0 0 0 10.086-14c.308-.307.609-.619.914-.926.059 1.061.321 2.027.81 2.732a419.856 419.856 0 0 1-8.795 9.18z"/><path d="M475.268 110.844c-19.082 15.416-37.541 35.752-43.495 60.226-4.826 19.836.09 38.621 10.994 55.491 12.517 19.365 31.382 34.532 49.777 48.015 23.243 17.037 48.414 31.292 73.884 44.678 54.195 28.484 110.559 53.256 162.975 85.031 17.418 10.559 34.934 21.621 49.674 35.798 11.215 10.786 23.127 24.639 27.254 39.321.812 2.888 4.083 1.839 5.644.365 2.132-2.014 3.475-5.318 2.659-8.219-2.66-9.459-6.295-18.756-12.088-27.308-6.218-9.178-13.863-17.238-21.833-24.899-19.551-18.793-42.179-33.962-65.339-47.898-52.992-31.886-110.218-56.125-164.544-85.549-23.744-12.861-47.888-25.454-69.309-42.069-15.595-12.096-31.144-27.408-37.854-45.652-2.408-6.547-3.24-11.16-3.185-18.45.008-1.072-.059.881.043-.935.05-.886.134-1.769.227-2.65.188-1.797.491-3.581.85-5.352.235-1.159-.266 1.05.225-.899.23-.915.494-1.821.765-2.725.561-1.865 1.23-3.695 1.95-5.503-.734 1.844.294-.626.442-.954.427-.944.867-1.88 1.325-2.809.953-1.934 2.005-3.817 3.1-5.672.447-.738.458-.762.032-.073a105.506 105.506 0 0 1 2.662-4.047c1.374-2.001 2.833-3.942 4.329-5.853 6.353-8.116 14.009-15.528 21.888-22.632 4.069-3.668 3.524-14.09-3.052-8.777z"/><path d="M430.164 175.5c-3.135 20.552-9.338 40.396-18.888 58.876-8.537 16.519-19.583 31.513-31.443 45.778-24.822 29.854-52.77 56.91-73.538 89.975-17.234 27.439-29 57.388-35.455 89.128-.634 3.121 1.232 7.04 4.916 5.921 4.079-1.239 6.111-5.707 6.922-9.502 4.814-22.549 12.65-44.315 23.541-64.636 9.416-17.57 21.282-33.673 33.967-49.003 24.398-29.484 51.871-56.312 71.988-89.117 15.003-24.464 24.215-51.967 27.815-80.393.325-2.564-.883-5.886-4.081-4.915-3.255.99-5.265 4.75-5.744 7.888z"/><path fill="#FF617F" d="M549.755 583.316c-9.543-5.207-19.352-8.412-29.568-10.91-2.016-.492-4.143 2.916-4.709 6.074l-.982-.031a228.372 228.372 0 0 0-12.164-.02c-2.195-2.598-4.756-4.537-7.984-5.518-4.449-1.352-9.409.76-13.376 3.104-8.435 4.986-15.44 12.766-23.167 19.16-.515.123-1.072.605-1.59 1.279a65.505 65.505 0 0 1-3.876 2.855c-2.004 1.355-2.906 8.004.375 6.082.776-.453 1.54-.934 2.302-1.426l.062.168a7.875 7.875 0 0 0-.254.391 10.646 10.646 0 0 0-1.389 7.354c2.36 13.971 8.24 16.482 17.953 24.441 8.949 7.336 20.273 9.674 30.834 8.68 7.713-.727 15.275-3.223 22.226-7.225 6.282 1.646 12.81-.283 18.589-6.195 8.73-8.934 13.467-13.803 12.907-27.686 2.594-.815-2.829-18.745-6.189-20.577zm-78.983 45.717a66.756 66.756 0 0 0 6.021 5.6 36.201 36.201 0 0 1-6.021-5.6z"/><path d="M557.241 599.236c-.947 9.332-4.186 17.734-10.099 24.438-7.491 8.49-17.711 12.68-27.595 14.574-20.498 3.93-45.294-3.096-58.84-23.59-3.725-5.635-6.14-12.166-7.406-19.086-1.637-.268-3.275-.533-4.913-.795 4.845 52.355 66.999 66.873 97.71 37.449 8.699-8.336 14.065-20.254 15.361-33.324-1.403.129-2.81.239-4.218.334z"/><path d="M432.784 593.635c12.652 12.521 25.331.799 36.014-9.156 5.343-4.98 10.964-10.357 17.717-11.861 8.6-1.914 14.748 6.395 20.104 13.23 2.039 2.604 4.807-3.602 3.555-5.912-4.32-7.973-11.538-14.863-19.602-14.906-6.893-.039-13.207 4.939-18.586 9.725-10.894 9.686-23.076 25.176-36.689 12.811-1.79-1.627-4.319 4.282-2.513 6.069z"/><path d="M509.104 585.404c5.81-6.832 12.732-12.246 21.031-10.182 6.393 1.59 11.946 7.461 16.859 12.383 10.13 10.15 21.957 20.998 34.477 9.311 1.197-1.117 2.103-2.869 1.984-4.797-.102-1.641-1.233-2.357-2.371-1.488-5.914 4.521-11.645 5.207-17.924 1.377-6.135-3.744-11.219-9.855-16.613-14.941-5.102-4.812-10.78-9.098-17.34-9.684-8.455-.756-15.896 5.988-21.521 12.996-1.754 2.183-1.427 8.373 1.418 5.025zm-24.902 18.713c7.84 6.287 17.033 12.998 27.617 11.465 7.993-1.16 14.651-7.867 21.064-12.211 2.424-1.641 3.303-8.9-.482-6.357-5.779 3.885-11.294 9.217-18.127 11.141-9.581 2.699-19.73-5.217-26.718-10.623-2.302-1.784-5.802 4.62-3.354 6.585z"/><path d="M528.353 607.576c9.922.238 21.641 1.348 30.439-4.223 1.769-1.119 3.984-8.016.213-6.641-9.341 3.404-18.551 3.502-28.392 3.68-2.976.055-5.757 7.1-2.26 7.184zm-37.043-9.951c-5.148-.713-10.557-.01-15.757-.279-5.985-.311-11.214-2.131-16.974-3.293-2.966-.6-5.066 5.326-2.896 7.062 4.042 3.232 11.085 3.555 16.03 3.834 5.896.332 12.42.428 18.185-1.008 2.053-.511 4.542-5.88 1.412-6.316z"/><path fill="#EAA286" d="M589.071 577.459c2.822 2.293 5.405 4.477 7.15 7.758 1.8 3.383 2.338 7.152 3.09 10.85.374 1.834 2.541 1.777 3.779 1.014 2.185-1.348 3.37-4.039 3.33-6.537-.123-7.822-4.853-20.688-14.559-19.895-2.735.222-5.2 4.853-2.79 6.81zm-160.295-3.334c-2.824 2.293-5.406 4.479-7.151 7.76-1.8 3.383-2.339 7.15-3.091 10.848-.373 1.834-2.539 1.779-3.777 1.016-2.186-1.348-3.371-4.041-3.331-6.537.124-7.824 4.853-20.688 14.56-19.895 2.736.222 5.201 4.853 2.79 6.808z"/><ellipse fill="#FFAD9F" cx="667.767" cy="552.797" rx="27.266" ry="26.217"/><ellipse fill="#FFAD9F" cx="349.233" cy="554.232" rx="27.266" ry="26.217"/><path d="M398.595 400.824c-20.473 1.941-32.107 20.379-47.625 31.592-3.629.764-7.42.742-11.412-.42-3.299-.963-7.08 6.102-3.816 7.488 3.126 1.33 6.17 1.971 9.137 2.084.191 1.641 1.252 2.59 3.651 1.438a41.288 41.288 0 0 0 4.153-2.314c3.766-.975 7.4-2.664 10.909-4.744.661 1.207 1.88 2.006 3.427 1.4 7.781-3.041 15.318-6.795 23.264-9.375 13.166.59 26.746 9.213 36.486 17.703 3.414 2.975 6.334-3.412 6.39-6.061.214-10.088-.216-20.33-6.458-28.754-6.286-8.482-18.174-10.976-28.106-10.037zm261.291 29.647c-6.854-20.361-24.494-35.061-46.676-30.16-21.807 4.818-33.936 26.852-34.153 47.805-.048 4.662 5.653.072 5.861-2.697.026-.352.062-.699.095-1.045.588-.023 1.227-.184 1.902-.506 6.662-3.188 12.922-7.168 19.324-10.861.893-.102 1.784-.205 2.676-.295 5.211-.52 11.797-1.473 18.148-1.379 5.265.902 10.461 2.312 15.455 3.939 2.268.738 4.539-.863 5.938-3.115 1.338 1.855 2.488 3.85 3.48 5.836 2.9 5.804 9.315-3.47 7.95-7.522z" fill="#EAA286"/><path d="M417.903 445.646a38.9 38.9 0 0 0-1.189-1.461c-4.727-7.143-12.52-12.076-21.506-12.92-5.432-1.17-11.069-1.053-16.373.758-4.322 1.479-8.596 4.215-11.296 7.943-12.075 8.773-14.322 25.732-4.871 38.406 11.831 15.865 33.872 16.762 49.276 5.922 13.301-9.355 15.754-25.882 5.959-38.648zm-53.745 7.959a28.757 28.757 0 0 0-.577 3.365c.024-1.204.234-2.318.577-3.365z"/><circle fill="#FFF" cx="397.363" cy="453.096" r="11.552"/><path d="M434.727 445.038c-10.371-8.767-21.931-16.833-35.575-19.187-8.688-1.5-17.363.49-25.23 4.18-6.411 3.006-12.313 7.307-19.083 9.494-2.979.963-5.994 1.078-9.059.451-4.411-.902-7.233-4.429-11.047-6.368-3.569-1.815-6.411 5.288-4.816 7.794 4.133 6.493 13.303 9.18 20.505 7.847 6.969-1.29 13.165-5.919 19.166-9.413 7.363-4.287 15.146-7.383 23.802-7.04 14.193.563 27.08 9.518 37.687 18.149 2.009 1.637 5.566-4.287 3.65-5.907zm-109.789-40.396c4.543-6.711 12.837-11.652 20.841-15.723 10.76-5.473 22.874-8.672 34.768-10.426 12.648-1.864 26.176-1.277 38.496 2.198a84.885 84.885 0 0 1 18.991 7.971c6.167 3.523 11.381 8.369 17.177 12.417 2.644 1.847 6.388-1.657 7.762-3.512 2.407-3.252 3.892-8.006 1.627-11.683-7.954-12.913-23.838-20.045-38.029-23.559-14.307-3.542-29.387-3.04-43.832-.689-24.085 3.919-51.733 15.425-64.55 37.437-1.183 2.032-1.898 5.566-.282 7.584 2.064 2.577 5.698-.047 7.031-2.015z"/><path d="M343.805 429.92c9.012 13.925 32.181 8.856 45.656 6.476 2.543-.449 5.134-7.613 1.663-7.438-12.557.632-33.684 6.877-42.536-5.495-2.159-3.018-6.497 3.809-4.783 6.457zm259.432 55.885c15.404 10.838 37.445 9.941 49.276-5.924 9.452-12.672 7.204-29.631-4.87-38.406-2.701-3.727-6.975-6.465-11.297-7.943-5.303-1.811-10.939-1.928-16.373-.756-8.985.842-16.78 5.775-21.506 12.92-.408.479-.809.963-1.188 1.459-9.796 12.767-7.341 29.294 5.958 38.65zm48.364-27.326a28.893 28.893 0 0 0-.576-3.365 11.47 11.47 0 0 1 .576 3.365z"/><circle fill="#FFF" cx="617.819" cy="454.604" r="11.552"/><path d="M583.35 451.742c10.508-8.6 22.953-16.91 36.969-17.469 8.537-.341 16.326 3.161 23.537 7.364 6.089 3.548 11.874 7.72 18.877 9.239 7.962 1.727 16.963-3.022 21.699-9.275 1.55-2.047 2.105-8.763-2.162-6.178-3.511 2.127-6.141 4.91-10.221 6.044-2.875.799-6.104.492-8.934-.346-6.938-2.053-13.036-6.487-19.525-9.571-22.699-10.788-44.119.374-61.926 15.34-2.354 1.98-1.901 7.788 1.686 4.852zm107.892-54.796c-11.813-21.046-39.895-30.559-62.191-34.215-29.073-4.769-64.828 1.655-82.874 27.218-1.989 2.818-3.587 6.806-2.387 10.271 1.472 4.248 5.667 2.563 8.203.531 10.509-8.424 20.386-15.039 33.526-18.699 12.779-3.559 26.196-3.609 39.265-1.83 12.204 1.662 24.157 5.354 35.214 10.77 8.538 4.182 17.361 9.244 22.932 17.175 1.954 2.781 5.73-.259 7.03-2.016 1.962-2.651 2.96-6.214 1.282-9.205z"/><path d="M667.331 426.13c-4.02 5.714-12.236 6.102-18.594 6.102-7.471 0-14.858-1.407-22.308-1.767-3.093-.149-6.111 6.848-2.371 7.534 14.452 2.653 36.963 6.888 46.581-7.731 2.27-3.451-.118-8.673-3.308-4.138z"/></svg>