<svg xmlns="http://www.w3.org/2000/svg" xmlns:xlink="http://www.w3.org/1999/xlink" width="1030" height="1030" viewBox="0 0 1030 1030"><defs><path id="a" d="M1020.379 515.001c0 279.115-226.266 505.377-505.379 505.377-279.111 0-505.377-226.264-505.377-505.377S235.888 9.622 515 9.622c279.113 0 505.379 226.266 505.379 505.379z"/></defs><use xlink:href="#a" overflow="visible" fill="#FFBF1F"/><clipPath id="b"><use xlink:href="#a" overflow="visible"/></clipPath><g clip-path="url(#b)"><circle fill="#FFBF1F" cx="516.036" cy="517.213" r="505.378"/><path fill="#FC9E17" d="M64.591 301.339c65.699-60.767 147.473-101.363 226.168-142.394 40.814-21.281 80.746-43.73 120.539-66.854 43.205-25.11 87.469-49.598 136.053-62.561-.955-12.573-1.91-25.146-2.863-37.722C469.49 62.96 382.009 118.799 296.63 176.392c-43.967 29.658-87.432 59.996-129.213 92.682-20.033 15.672-39.123 32.311-60.043 46.828-21.764 15.1-44.412 28.884-66.553 43.409-20.463 13.421-40.42 27.7-58.93 43.736-7.094 6.145-11.697 17.171-10.986 26.521.547 7.209 5.93 13.974 13.848 11.2 98.168-34.394 184.332-95.652 268.734-154.941 42.164-29.617 84.252-59.421 128.115-86.495 19.998-12.341 40.242-24.097 59.857-37.073 21.045-13.919 41.816-28.239 62.965-42.001 37.358-24.313 76.481-48.122 120.034-59.315l-6.715-33.351c-3.625 4.497-11.992 11.267-18.965 15.919-10 6.67-20.648 12.364-31.156 18.178-23.027 12.742-45.092 27.219-67.553 40.936-51.305 31.332-102.533 62.797-153.852 94.112-51.111 31.188-102.326 62.211-153.791 92.816-45.84 27.263-92.238 53.613-137.738 81.449-57.197 34.991-113.604 73.15-161.328 120.578-6.828 6.784-11.732 16.688-10.986 26.521.559 7.365 5.898 13.78 13.85 11.198 51.945-16.859 99.75-43.608 147.504-69.638 50.273-27.404 102.162-51.78 153.584-76.934 106.725-52.204 213.545-104.201 320.028-156.899 43.588-21.572 87.408-42.348 128.738-68.076 36.969-23.018 73.674-48.996 115.463-62.538-.955-12.575-1.908-25.146-2.865-37.721-32.514 34.457-76.607 55.146-117.219 78.288-50.043 28.516-97.459 62.321-145.696 93.778-48.672 31.741-97.557 62.7-143.461 98.404-36.26 28.201-71.637 58.477-113.41 78.263C166.968 440.29 75.417 461.753 37.56 541.29c-3.076 6.463-5.365 14.316-2.91 21.4 1.744 5.041 7.496 9.096 12.934 6.59 100.086-46.102 193.518-104.332 287.449-161.587 46.518-28.354 93.289-56.325 141.229-82.228 49.124-26.541 100.223-49.029 149.866-74.543 51.182-26.305 101.262-54.686 151.102-83.427-.984-12.997-1.971-25.993-2.959-38.989-89.506 66.279-184.818 124.035-280.237 181.279-95.316 57.186-189.701 115.122-280.916 178.699C148.345 533.63 70.7 560.08 20.878 624.455c-8.809 11.385-11.102 42.221 10.986 31.383 208.225-102.161 408.939-218.58 611.709-330.955 81.107-44.949 162.6-89.213 245.033-131.684l-2.959-38.989C684.77 269.934 489.943 395.938 300.087 528.915 223.16 582.794 147.083 637.886 71.74 693.958c-9.188 6.834-16.062 17.879-15.16 29.76.734 9.699 9.59 15.234 18.119 9.229 43.633-30.725 91.014-55.527 138.016-80.6 48.867-26.062 96.422-53.965 143.455-83.205 97.824-60.818 193.596-125.836 295.819-179.224 79.945-41.755 155.398-91.653 236.617-131.035l-7.131-35.752C726.443 362.758 545.963 469.948 368.333 577.763c-93.445 56.721-186.838 113.711-276.602 176.168-9.32 6.482-16.045 18.146-15.162 29.758.801 10.539 9.316 14.158 18.121 9.23 202.516-113.373 408.092-221.234 609.108-337.292 82.609-47.694 164.387-96.848 244.781-148.196-3.662-10.461-7.324-20.92-10.984-31.381-4.996 7.511-10.377 14.716-16.098 21.688-5.041 6.146-10.836 12.267-18.375 19.708-14.123 13.939-29.66 26.809-45.09 38.273-35.396 26.297-73.572 48.73-112.08 70.107-37.449 20.789-75.582 40.312-113.117 60.945-42.605 23.422-83.598 49.658-124.551 75.826-65.34 41.754-130.41 84.797-198.977 121.15-60.084 31.859-124.109 59.162-173.205 107.688-6.838 6.764-11.73 16.707-10.986 26.523.623 8.162 5.797 12.764 13.852 11.197 27.105-5.266 51.928-18.041 75.645-31.758 24.854-14.379 49.684-28.811 74.537-43.193a10577.434 10577.434 0 0 0 152.23-89.771c49.531-29.771 100.038-57.949 150.668-85.822 50.375-27.729 102.131-51.929 153.662-77.321 67.275-33.148 131.119-72.729 197.158-108.185l-10.984-31.383c-5.504 7.192-9.135 10.836-17.041 18.057-7.75 7.076-15.977 13.312-24.516 19.367-18.807 13.338-38.713 25.094-58.617 36.699-43.184 25.18-85.117 51.793-126.223 80.276-91.951 63.714-180.732 131.845-272.467 195.851-62.605 43.68-127.018 85.396-195.645 119.062l2.959 38.99c48.338-27.514 98.725-51.109 148.234-76.385 25.086-12.807 49.887-26.168 74.098-40.57 24.189-14.391 46.895-30.896 69.809-47.201 23.254-16.545 46.578-32.994 70.564-48.467 23.51-15.166 48.086-28.535 72.547-42.078 48.809-27.02 97.928-53.479 146.338-81.209 61.396-35.17 121.518-72.686 178.059-115.307-3.662-10.461-7.324-20.922-10.984-31.382-59.982 69.826-146.119 119.632-225.498 166.939-91.051 54.269-181.006 110.706-269.409 169.204-41.195 27.26-81.383 55.869-121.203 85.092-39.395 28.912-78.959 57.73-121.234 82.346-9.594 5.584-15.99 18.822-15.16 29.76.842 11.066 9.201 13.475 18.119 9.23 100.961-48.053 196.105-107.057 291.247-165.518 47.797-29.371 95.674-58.625 144.385-86.461 47.674-27.236 96.568-52.016 145.609-76.668 75.025-37.713 150.203-76.055 218.389-125.428-2.375-11.916-4.754-23.834-7.131-35.751-33.609 33.213-76.088 55.599-117.895 76.72a4038.445 4038.445 0 0 0-133.637 70.689c-99.297 54.92-199.127 109.008-295.387 169.178-39.695 24.814-79.178 50.248-116.168 78.982-32.521 25.264-64.553 53.299-102.398 70.432-8.953 4.053-15.02 11.32-17.994 20.764-1.854 5.885-3.031 24.238 8.273 22.727 45.449-6.074 87.678-22.926 128.725-42.801 43.947-21.275 85.809-46.648 127.571-71.857 92.4-55.777 188.994-103.604 284.82-153.168 30.955-16.012 61.799-31.99 92.061-49.283 29.732-16.988 59.461-33.979 89.189-50.967 9.617-5.496 15.986-18.893 15.16-29.759-.803-10.575-9.309-14.111-18.121-9.229-104.188 57.711-206.854 118.117-308.766 179.746-51.145 30.928-102.088 62.186-152.947 93.582-44.668 27.574-85.542 60.625-129.553 89.188-21.203 13.758-43.262 26.518-67.016 35.328-.436 13.654-.871 27.307-1.309 40.959 171.867-107.342 370.172-160.404 549.303-253.342 47.312-24.547 93.094-52.107 136.094-83.643 9.217-6.758 16.059-17.939 15.16-29.76-.76-9.986-9.484-14.867-18.119-9.23-189.895 124.01-375.484 255.295-574.295 364.99a2766.709 2766.709 0 0 1-59.695 31.967l7.133 35.754c73.348-58.311 162.889-92.969 248.28-129.314 44.957-19.135 89.818-38.74 132.914-61.834 22.314-11.959 44.49-24.162 66.002-37.533 23.461-14.584 46.564-29.752 71.244-42.24l-14.291-26.021c-3.254 5.631 2.838-4.268-.768 1.27-1.092 1.674-2.266 3.293-3.438 4.908-1.197 1.658-2.473 3.258-3.742 4.857-.225.285-4.666 5.494-1.594 2.025-6.42 7.244-13.553 13.844-20.877 20.158-14.344 12.363-31.18 23.662-48.141 34.453-35.631 22.668-73.098 42.25-109.025 64.42-39.857 24.596-76.527 54.363-114.17 82.133-42.475 31.336-86.008 61.83-133.524 85.105-8.504 4.164-17.229 7.84-26.043 11.295.955 12.572 1.908 25.146 2.865 37.721 61.736-53.27 143.856-80.492 220.313-108.336 80.787-29.418 162.883-61.465 226.771-120.971 7.469-6.955 14.518-14.354 21.268-22.004 7.162-8.119 13.979-19.857 10.07-31.133-3.469-10.01-15.477-8.066-21.375-1.381-114.23 129.438-307.65 132.047-443.067 231.178a404.904 404.904 0 0 0-25.289 20.133c-7.098 6.125-11.693 17.184-10.986 26.521.529 6.965 5.992 14.281 13.852 11.197 97.135-38.068 176.129-109.004 260.493-168.246 66.982-47.033 147.926-76.377 205.264-136.568 10.398-10.916 19.23-22.635 26.766-35.684 7.102-12.287 4.061-35.307-14.291-26.021-23.682 11.984-45.959 26.396-68.42 40.475-22.416 14.051-45.568 26.729-68.83 39.299-42.02 22.707-85.975 41.566-129.891 60.244-90.248 38.377-182.229 75.838-259.649 137.379-7.225 5.744-11.672 17.469-10.984 26.521.818 10.785 9.258 13.842 18.119 9.23C584.75 936.47 771.74 806.556 960.965 681.343a11056.22 11056.22 0 0 1 56.154-36.924l-2.959-38.99c-164.07 120.32-362.51 176.992-545.045 261.855-48.148 22.383-95.299 46.992-140.352 75.131-8.23 5.139-13.766 14.977-14.994 24.479-1.041 8.055 3.029 20.432 13.686 16.479 48.654-18.045 91.17-48.992 132.91-79.127 45.078-32.543 91.93-61.576 139.313-90.627 101.836-62.436 204.242-123.967 307.943-183.264a7368.069 7368.069 0 0 1 86.652-48.766c-.986-12.996-1.973-25.994-2.961-38.988-51.545 29.457-102.699 59.619-155.438 86.898l-161.336 83.449c-43.93 22.723-87.301 45.754-129.695 71.244-41.772 25.119-83.297 50.701-126.524 73.279-41.221 21.529-86.023 41.922-132.549 48.141-3.242 14.498-6.48 28.992-9.721 43.49 47.463-21.484 85.908-55.805 127.178-86.811 44.623-33.523 92.953-62.742 140.678-91.576 96.973-58.588 197.006-111.869 295.912-167.064 73.6-41.076 157.643-70.725 218.6-130.964 6.842-6.76 11.732-16.708 10.988-26.521-.729-9.591-9.637-15.373-18.121-9.229-88.588 64.145-188.59 109.527-285.451 159.373-99.426 51.166-193.672 111.625-289.092 169.73-73.314 44.645-147.525 88.053-225.086 124.969l2.959 38.99c49.188-28.641 94.676-62.945 140.545-96.504 46.477-34 94.137-66.236 142.512-97.467 87.035-56.191 175.35-110.047 263.912-163.752 74.689-45.295 149.064-94.295 206.426-161.075 5.668-6.597 9.145-18.316 6.217-26.761-2.553-7.37-11.105-9.217-17.203-4.62-89.627 67.563-188.064 121.632-286.238 175.511-49.328 27.072-98.404 53.916-144.787 85.881-23.354 16.09-46.291 32.775-69.502 49.068-23.09 16.205-47.426 30.418-72.158 43.965-61.564 33.727-125.93 62.053-186.961 96.791-9.621 5.477-15.982 18.906-15.16 29.76.834 10.973 9.219 13.596 18.119 9.23 98.893-48.512 189.043-113.176 277.803-177.873 89.326-65.107 177.654-132.873 271.783-191.007 55.475-34.265 120.367-62.552 160.973-115.647 5.391-7.048 9.266-17.969 6.219-26.763-2.84-8.196-10.652-8.139-17.203-4.62-49.32 26.479-97.432 55.121-146.602 81.871-49.906 27.152-102.033 49.65-152.422 75.84C537.59 565.519 438.343 626.222 337.974 685.06a11479.568 11479.568 0 0 1-97.148 56.283c-30.902 17.713-60.723 37.979-96.279 44.889.955 12.572 1.908 25.146 2.865 37.721 33.756-33.367 76.162-55.738 118.041-77.182 45.688-23.389 90.238-48.037 134.127-74.68 87.6-53.174 171.682-111.857 262.073-160.352 54.957-29.484 110.543-57.98 162.961-91.898 49.711-32.166 98.854-70.181 131.992-120.016 5.023-7.557 9.406-17.564 6.219-26.762-2.701-7.791-10.855-8.675-17.203-4.621-195.874 125.101-399.876 236.655-603.808 347.893-83.529 45.561-167.061 91.117-250.082 137.596.984 12.996 1.971 25.992 2.959 38.988C265.64 673.978 449.087 574.513 622.932 460.024c94.264-62.08 185.904-128.777 269.848-204.379 7.025-6.327 11.707-17.035 10.988-26.521-.836-11.01-9.213-13.55-18.121-9.23-51.248 24.849-100.295 53.832-149.523 82.396-49.637 28.8-100.666 55.019-150.332 83.749-99.657 57.645-195.211 122.086-293.78 181.535-72.496 43.725-150.875 77.518-220.271 126.385l2.959 38.988c185.014-137.684 374.572-269.338 569.659-392.373 80.436-50.727 161.85-99.902 244.248-147.373 9.607-5.535 15.988-18.861 15.162-29.76-.822-10.815-9.252-13.799-18.121-9.229-206.177 106.22-406.215 223.748-609.963 334.452-81.457 44.258-163.553 87.353-246.781 128.185 3.66 10.463 7.322 20.924 10.984 31.383 25.775-33.307 66.303-56.533 103.787-77.646 19.877-11.199 39.891-22.157 59.18-34.356 21.949-13.881 42.736-29.654 64.246-44.203 92.357-62.464 188.979-118.262 284.292-176.013 77.074-46.703 153.373-94.857 225.836-148.517 9.199-6.81 16.062-17.9 15.162-29.76-.793-10.436-9.346-14.29-18.121-9.229-48.863 28.18-97.979 55.93-148.078 81.867-49.613 25.688-100.764 48.179-150.026 74.562-96.332 51.593-187.564 112.021-281.984 166.92-45.945 26.715-92.725 52.251-141.018 74.497l10.023 27.99c.941-1.981 1.92-3.936 2.938-5.881.277-.53 3.928-6.72 1.068-2.127 2.277-3.657 4.846-7.124 7.492-10.519.168-.216 4.738-5.591 1.715-2.197 1.438-1.612 2.949-3.157 4.457-4.703 3.551-3.637 7.363-7.009 11.246-10.285 4.773-4.025 12.174-9.079 19.404-13.619 8.459-5.309 17.279-10.026 26.193-14.511 34.469-17.342 71.242-29.699 106.113-46.215 43.148-20.439 79.836-52.666 117.23-81.818 44.834-34.949 93.141-64.874 140.711-95.896 48.038-31.33 95.284-64.804 145.125-93.205 42.926-24.461 88.732-46.937 123.102-83.359 6.684-7.084 11.75-16.467 10.986-26.521-.559-7.366-5.896-13.776-13.85-11.199-49.908 16.174-93.238 47.806-137.6 74.86-48.914 29.833-102.049 53.269-153.393 78.592-106.676 52.613-213.65 104.618-320.469 156.94-43.396 21.257-86.617 42.541-129.029 65.714-40.359 22.048-80.934 43.731-124.822 57.979.953 12.574 1.908 25.146 2.863 37.722 72.18-71.732 163.498-120.634 250.486-171.761 103.367-60.754 205.49-123.592 307.752-186.184 31.838-19.49 63.288-39.892 95.543-58.647 28.137-16.359 57.43-30.229 78.303-56.136 6.779-8.413 13.279-38.49-6.717-33.35-47.429 12.188-90.466 38.452-131.14 64.922-21.107 13.74-41.834 28.054-62.84 41.949-19.621 12.977-39.934 24.667-59.938 37.012-88.902 54.875-170.566 120.623-260.033 174.661-39.996 24.157-81.582 45.802-125.748 61.278l2.863 37.721c39.104-33.88 85.59-57.931 127.51-87.985 21.174-15.182 40.629-32.546 61.215-48.488 20.629-15.977 41.773-31.276 63.117-46.279 86.076-60.504 176.02-115.53 257.793-181.999 18.233-14.82 35.915-30.312 52.961-46.484 6.924-6.571 11.721-16.852 10.986-26.521-.586-7.715-5.842-13.337-13.852-11.199C503.627-.24 458.109 24.438 414.135 49.748c-40.959 23.574-81.777 46.956-123.684 68.825-82.873 43.245-167.969 86.252-237.164 150.254-7.75 7.166-13.725 20.591-10.072 31.133 3.689 10.637 15.031 7.252 21.376 1.379z"/></g><path fill="#D8724A" d="M282.704 433.637c-12.008-11.425-30.104-26.578-48.118-19.363-20.245 8.108-30.982 30.852-32.765 51.558-2.183 25.369 8.245 75.354 44.207 65.28 14.75-4.131 26.528-17.533 35.048-29.485 5.917-8.299 12.037-23.447 4.562-32.781-7.439-9.287-20.142.318-25.033 7.181a112.738 112.738 0 0 1-4.57 5.994c-2.898 3.537 4.177-4.573 1.187-1.359-.696.75-1.435 1.466-2.17 2.177a47.356 47.356 0 0 1-2.129 1.905c-2.895 2.491 4.711-3.488 1.721-1.351-1.266.906-2.62 1.671-4.01 2.365 6.438-3.21 2.123-1.025.158-.547-2.727.663 4.78-.5 2.042-.24-.582.055-1.167.045-1.753.035-1.713-.032-5.714-1.324.19.393-1.267-.368-2.458-.966-3.593-1.625-3.674-2.13.35.542-.028.202-.93-.828-1.759-1.764-2.558-2.717-.845-1.007-1.593-2.094-2.311-3.192-.374-.574-.718-1.166-1.062-1.756-1.411-2.428 2.303 4.562.511.833-1.288-2.68-2.279-5.497-3.13-8.343-.441-1.476-.805-2.976-1.144-4.479-.734-3.252.976 5.198.386 1.911a75.015 75.015 0 0 1-.467-3.085c-.414-3.064-.582-6.156-.582-9.245-.002-3.489-.255 6.135-.091 2.678a58.48 58.48 0 0 1 .163-2.216 50.03 50.03 0 0 1 .574-4.273c.819-4.804-1.909 7.108-.269 1.466.184-.629.399-1.247.617-1.861 1.191-3.381-3.069 7.171-1.614 3.939 2.449-5.455-2.375 3.434-1.494 2.142 3.029-4.458-5.13 4.88-1.167 1.389-5.623 4.952-4.43 3.3-2.752 2.209 1.341-.869 4.026-1.874-2.681 1.125 1.021-.456 2.113-.723 3.205-.924-6.298 1.167-2.185.328-.214.473.671.05 1.333.166 1.993.281 2.556.442-4.45-1.389-.528-.111 3.466 1.131 6.684 2.979 9.734 4.943 1.915 1.233 3.733 2.611 5.526 4.015-3.314-2.592.154.158.677.613 1.417 1.229 2.778 2.517 4.137 3.811 8.565 8.148 19.251.633 25.034-7.181 5.283-7.142 12.92-24.828 4.561-32.784zm565.001 10.253c-1.007-4.363-2.578-8.47-4.592-12.323.924-5.678.299-11.367-3.039-15.531-3.425-4.275-7.721-4.59-11.898-3.061-6.61-5.817-14.236-10.589-22.023-14.289-12.648-6.009-26.823 11.467-29.712 26.76-4.445 4.3-8.312 8.759-11.279 12.439-6.34 7.858-11.772 23.782-4.564 32.784 7.663 9.564 19.801-.691 25.034-7.181.281-.347 1.072-1.251 1.703-1.974a69.789 69.789 0 0 1 2.738-2.648c.063 1.756.277 3.412.667 4.904.638 2.43.775 3.24 1.001 5.317-.843.454-1.846.927-3.267 1.685-5.83 3.106-11.817 10.916-14.864 19.311-14.416 11.783-22.379 43.004-4.07 43.004 6.357 0 12.436-4.725 17.069-11.191 11.283 7.481 24.496 8.886 35.902-3.906 4.626-5.189 8.28-10.877 11.072-16.91 12.041-16.49 18.881-36.575 14.122-57.19zm-55.672 27.484c-.058.146-.118.311-.186.51.06-.179.118-.357.182-.533l.004.023z"/><path fill="#61E9FF" d="M248.666 933.063c28.574 27.994 67.26 41.035 105.567 49.349 41.672 9.045 84.564 11.546 127.062 13.323 47.891 2.001 95.934 2.305 143.531-4.125 49.802-6.731 97.423-21.774 143.2-42.312 7.256-3.254 11.925-11.663 9.969-19.565-20.718-83.658-75.173-159.798-158.972-188.425-40.904-13.974-84.508-13.309-127.157-11.346-38.388 1.763-77.167 6.593-113.883 18.299-37.752 12.04-72.741 33.012-96.544 65.214-28.141 38.067-35.016 86.595-31.399 132.729 1.039 13.256 15.462 2.043 17.146-5.151 8.674-37.062 14.57-75.407 28.721-110.919 12.611-31.651 36.726-53.299 68.469-64.975 21.98-8.081 45.657-11.196 68.566-15.555 24.575-4.677 49.224-9.013 74.142-11.412 48.168-4.638 97.4-.522 139.258 25.666 36.633 22.918 64.845 63.696 79.929 103.643 6.776 17.954 11.337 38.771 6.905 57.851-4.782 20.593-20.264 32.589-38.146 41.979-41.975 22.037-92.585 25.699-139.11 25.496-46.872-.204-94.638-4.834-140.843-12.688-54.467-9.258-110.026-25.398-156.174-56.66-8.452-5.727-20.521 16.579-11.541 22.661 43.997 29.807 96.317 45.38 148.016 55.483 46.181 9.028 94.192 13.413 141.192 14.726 76.623 2.142 212.279-9.377 216.047-111.549 1.562-42.368-19.93-83.251-44.774-116.191-28.374-37.618-66.532-62.452-112.854-71.706-47.574-9.505-97.353-1.668-144.448 6.867-42.085 7.629-87.43 12.706-122.685 39.088-54.985 41.14-62.53 115.432-77.042 177.445 5.714-1.72 11.43-3.435 17.146-5.152-2.964-37.795 1.068-77.271 23.717-108.875 19.504-27.22 50.138-43.757 81.243-54.224 36.595-12.314 75.509-16.719 113.902-18.483 43.188-1.986 86.916-2.15 127.995 13.005 77.638 28.642 126.954 101.264 146.245 179.181 3.326-6.521 6.646-13.044 9.97-19.566-44.175 19.817-90.029 34.51-137.997 41.585-46.882 6.917-94.692 6.248-141.913 4.339-40.633-1.641-81.341-4.177-121.357-11.78-37.738-7.168-78.215-19.735-106.299-47.249-8.44-8.268-21.858 13.065-14.8 19.979z"/><path fill="#61E9FF" d="M269.234 880.125c18.776-22.61 34.335-44.176 53.514-62.602 19.854-19.074 45.338-31.483 74.082-38.582l-3.084-40.617c-42.962 39.281-95.372 69.001-127.38 119.133-5.288 8.284-10.169 18.791-6.695 28.819 3.172 9.148 11.331 8.326 18.525 4.973 37.27-17.368 69.54-43.646 103.179-66.9 32.208-22.266 67.824-44.469 107.822-47.736.457-13.741.916-27.483 1.375-41.224-33.32 34.392-78.465 55.893-120.271 81.383-45.276 27.604-87.707 61.818-110.43 111.009-4.958 10.732-7.815 33.706 10.795 30.143 25.208-4.829 48.318-19.189 69.241-33.432 23.187-15.793 44.873-33.666 67.375-50.393 23.04-17.122 48.062-31.618 72.389-46.812 28.37-17.723 57.531-34.438 90.273-42.478-4.457-7.955-8.913-15.91-13.368-23.867-.445 1.375-3.544 9.305-.719 2.587-.989 2.357-2.152 4.639-3.328 6.908-.633 1.219-5.211 8.583-1.418 2.653-1.809 2.827-3.803 5.53-5.831 8.203-1.666 2.2-3.442 4.312-5.231 6.414 3.573-4.202-2.384 2.446-3.051 3.139-4.628 4.808-9.574 9.302-14.611 13.674-9.969 8.653-17.896 14.3-29.801 22.447-12.597 8.623-25.575 16.684-38.607 24.625-47.712 29.069-101.837 55.581-139.451 97.985-7.032 7.927-12.668 17.501-11.832 28.559.657 8.626 6.256 13.954 14.916 12.059 59.639-13.049 108.004-56.282 154.989-92.541 24.702-19.064 50.25-35.161 77.413-50.46 31.247-17.596 62.442-35.364 92.012-55.701l-15.389-28.021a174.79 174.79 0 0 1-7.647 14.745c2.8-4.836-1.306 1.988-1.586 2.416-1.801 2.732-3.73 5.384-5.673 8.019-7.847 10.649-12.964 15.947-23.119 25.775-18.674 18.072-38.885 32.935-60.371 47.486-42.333 28.671-87.664 52.596-129.997 81.244-8.771 5.933-14.788 15.839-16.146 26.36-1.027 7.951 3.393 22.93 14.736 17.744 47.972-21.925 96.954-41.729 143.411-66.831 23.559-12.729 46.219-27.087 67.454-43.409 21.438-16.483 40.253-36.538 63.667-50.32-3.943-11.264-7.887-22.527-11.827-33.794-53.801 67.435-126.089 116.858-196.747 164.919-10.079 6.858-17.267 19.638-16.325 32.047.89 11.721 9.948 14.766 19.512 9.94 84.023-42.388 155.256-110.23 244.803-141.651-3.602-10.047-7.196-20.095-10.795-30.142a122.302 122.302 0 0 1-2.287 4.345c-3.789 7.015 2.815-4.089-1.516 2.588-2.668 4.113-5.681 7.992-8.775 11.786-1.238 1.523-3.939 4.373-7.639 8.035-3.594 3.556-7.395 6.897-11.238 10.178-14.133 12.062-32.581 23.559-49.695 34.096-35.596 21.918-73.342 42.806-101.858 74.002-7.112 7.782-12.662 17.612-11.831 28.558.633 8.361 6.282 14.295 14.915 12.062 77.454-20.04 137.01-78.182 207.052-113.616l-17.967-21.747c-.36 1.512-3.261 9.183-.475 2.779a55.144 55.144 0 0 1-1.791 3.542c1.86-2.854 1.965-3.033.323-.542-1.589 2.392-3.423 4.621-5.26 6.824 3.116-3.742-3.094 2.974-3.737 3.603-9.665 9.434-18.258 15.313-29.624 23.057-22.342 15.226-46.261 28.602-66.517 46.682-7.58 6.766-12.604 18.375-11.83 28.557.548 7.21 6.533 15.746 14.916 12.062 46.88-20.614 93.068-45.829 143.771-55.749 18.967-3.712 32.185-51.35 6.005-46.227-50.7 9.922-96.887 35.137-143.771 55.749l3.085 40.619c5.609-5.007 5.014-4.445 10.625-8.511 5.957-4.315 12.112-8.365 18.264-12.402 13.227-8.68 26.6-17.134 39.466-26.348 25.019-17.92 51.8-40.867 59.297-72.186 3.253-13.593-.968-30.347-17.968-21.746-66.892 33.841-124.004 90.266-197.857 109.376l3.085 40.617c28.266-30.925 66.046-50.206 102.039-72.715 38.401-24.016 75.277-52.141 96.386-93.271 4.468-8.704 7.626-36.603-10.792-30.139-93.097 32.665-166.762 101.887-253.996 145.889l3.188 41.987c77.545-52.746 155.039-107.361 214.029-181.304 5.918-7.413 9.93-19.482 6.695-28.818-2.979-8.6-11.576-9.064-18.523-4.975-23.19 13.651-42.099 32.786-62.868 49.625-20.157 16.345-42.673 29.967-65.335 42.507-44.217 24.469-91.243 43.214-137.137 64.188-.471 14.701-.939 29.402-1.411 44.104 44.673-30.231 92.526-55.425 136.989-86.015 45.897-31.581 92.093-69.855 115.812-121.599 3.23-7.048 5.805-15.341 3.134-23.046-2.839-8.191-11.802-9.598-18.525-4.974-54.226 37.295-114.612 64.225-166.961 104.267-45.215 34.585-91.024 77.673-148.258 90.195 1.027 13.537 2.056 27.078 3.085 40.619 18.612-20.984 36.741-33.146 60.329-48.361 25.887-16.698 52.718-31.879 78.936-48.045 49.555-30.555 104.568-67.516 123.352-125.731 3.316-10.28 1.403-27.496-13.369-23.867-32.434 7.962-62.245 24.062-90.623 41.265-25.165 15.255-50.892 30.451-74.83 47.588-22.577 16.16-43.981 33.899-66.582 50.04-20.341 14.529-42.273 29.438-67.244 34.218 3.599 10.047 7.196 20.096 10.795 30.141 9.483-20.529 19.815-33.093 38.217-49.343 16.341-14.432 36.722-27.159 56.76-39.144 41.747-24.965 86.07-47.615 120.305-82.95 6.096-6.291 10.514-14.071 11.652-22.873.819-6.33-.998-19.109-10.277-18.351-90.977 7.431-150.647 83.521-229.114 120.09l11.83 33.794c29.199-45.729 79.343-73.39 119.084-109.724 7.533-6.89 12.609-18.285 11.832-28.561-.643-8.438-6.274-14.192-14.917-12.06-33.348 8.235-63.145 23.603-88.741 46.528-24.731 22.149-44.212 49.846-65.333 75.279-6.437 7.747-11.707 23.861-4.562 32.782 7.706 9.635 19.712-.781 25.028-7.178z"/><path fill="#D8724A" d="M431.973 720.119c-3.473 19.469-1.709 40.339 10.407 56.6 10.012 13.436 27.029 19.693 43.148 21.165 39.916 3.65 78.837-23.229 95.346-58.497 3.597-7.686 8.533-24.692-2.254-29.689-18.117-8.392-42.251-4.348-60.765.246-25.874 6.423-53.846 27.475-46.888 57.732 2.376 10.338 13.318 16.804 22.334 20.588 13.583 5.7 29.663 4.98 43.046-.807 15.964-6.901 29.335-19.698 36.24-35.798 8.425-19.641 7.723-38.202-2.447-56.889-5.87-10.786-21.067 1.82-25.036 7.18-7.063 9.545-10.417 22.029-4.562 32.784 1.472 2.703 2.087 5.392 2.34 8.01-.357-3.7-1.221 4.496.244-.893 1.734-6.383-2.444 2.889 1.306-2.561 2.794-4.062-.972.878-1.779 1.6 2.966-2.65-2.69 1.36-2.87 1.461-.515.287-6.132 2.066-8.525 2.307-8.355.84-15.486-1.458-22.639-5.561-3.631-2.088-1.765-.361-4.398-3.853 4.378 5.801-1.021 19.554-7.327 26.499 1.619-1.502.993-1.087-1.883 1.243 1.027-.798 2.167-1.45 3.284-2.109.792-.466 5.099-2.398.681-.457 1.48-.649 3.003-1.194 4.521-1.744 6.804-2.458 13.957-3.947 21.086-5.087 2.779-.445 11.958-.983 17.249-.88 3.136.062 6.256.376 9.354.854.687.104 5.043 1.322 1.127.169 1.114.326 2.171.798 3.222 1.286l-2.252-29.689a64.17 64.17 0 0 1-1.68 3.45c-2.924 5.793 3.221-4.659-.326.7-1.027 1.556-2.187 3.02-3.344 4.482 3.769-4.765.021-.092-.819.761-.956.97-7.97 6.648-3.894 3.613-2.925 2.176-6.078 4.028-9.277 5.761-2.058 1.016-2.156 1.097-.295.253-1.643.749-3.334 1.388-5.02 2.024-3.348 1.267-6.809 2.2-10.286 3.013-4.737 1.109-3.793.839-7.674 1.129-3.403.255-6.816.16-10.213-.065-7.172-.479-9.087-1.112-14.758-3.471-2.39-.999-4.64-2.285-6.834-3.653-3.167-1.976-1.642-.765-4.905-4.215-1.779-1.882-3.249-4.024-4.622-6.21 1.939 3.086-.546-1.366-.724-1.789-.659-1.548-1.129-3.166-1.604-4.776-1.567-5.332.429 3.72-.368-2.022-.261-1.89-.322-3.805-.39-5.708-.222-6.41-.416 4.179.2-2.561.208-2.237.607-4.453 1.003-6.661 1.664-9.329-3.532-21.148-14.738-17.745-11.959 3.631-18.718 17.126-20.742 28.48z"/><path fill="#D8724A" d="M461.137 722.871c-1 37.903 29.207 67.244 66.972 65.772 47.139-1.834 76.184-49.691 68.622-93.747-1.807-10.528-9.444-16.148-19.511-9.938-9.524 5.875-18.31 20.49-16.325 32.045.705 4.103 1.147 8.174 1.265 12.338-.166-5.939-2.104 10.853-.065 2.347-.378 1.579-.924 3.112-1.468 4.635 2.507-7.02.853-2.308-.028-.655 3.534-6.622 1.467-2.393.281-.796-3.142 4.233 3.957-4.065.271-.366-.935.938-4.848 3.961.089.223-1.146.868-2.376 1.62-3.601 2.367-.825.505-5.2 2.595-.545.493-1.321.596-2.696 1.073-4.065 1.551-2.776.966-5.661 1.571-8.55 2.063 3.459-.591-4.457.083-5.923.067-7.013-.083-10.729-1.042-15.058-2.575-2.841-1.004-5.551-2.337-8.19-3.781-1.32-.721-2.575-1.555-3.827-2.385-.277-.182-4.107-3.219-1.5-1.007-2.314-1.966-4.337-4.242-6.232-6.604-.965-1.199-1.804-2.492-2.643-3.778-2.73-4.196 1.337 3.025-.831-1.575-1.405-2.979-2.327-6.159-3.09-9.354 1.013 4.242-.006-1.421-.06-1.964-.253-2.484-.215-4.987-.15-7.478.299-11.377-10.907-15.249-19.514-9.94-11.032 6.802-16 19.667-16.324 32.042z"/><path d="M275.775 428.788c-17.152-11.274-41.076-21.412-59.779-7.627-15.11 11.133-19.196 32.633-18.108 50.219 1.16 18.77 8.718 39.088 23.553 51.277 16.434 13.501 41.733 12.231 56.608-3.138 1.249-1.289 5.469-11.254.493-10.423-9.095 1.521-16.766 6.689-26.235 7.232-7.697.439-14.96-2.033-21.351-6.193-13.332-8.684-20.87-25.636-23.343-40.829-2.04-12.532-1.713-29.123 8.933-37.938 15.607-12.926 40.079-1.808 55.225 6.008 3.112 1.604 6.949-6.652 4.004-8.588zm501.307-.108c13.487-7.988 33.609-15.699 47.457-4.028 11.25 9.48 13.668 26.667 13.509 40.468-.164 14.476-4.285 30.621-14.128 41.604-12.655 14.121-28.052 8.898-43.752 4.658-4.776-1.29-11.046 9.673-7.178 12.883 16.228 13.479 38.696 8.962 52.807-4.93 14.453-14.227 21.065-36.489 22.145-56.24.934-17.071-1.733-38.172-16.157-49.485-17.864-14.015-40.253.122-54.858 12.136-.863.705-1.763 4.07.155 2.934z"/><path d="M384.68 695.352l-.004.005zm423.799-372.135c-3.211-3.651-7.858-4.788-13.065-3.135-.646.204-1.294.413-1.939.616l.002-.112-.411.245c-15.597 4.982-25.666 4.12-35.553 2.264 1.909-6.275 3.374-12.737 4.468-19.289.906-.027 1.85-.326 2.671-.832 3.546-2.188 5.524-6.599 5.434-10.664-.451-20.023-3.021-40.019-8.415-59.098-1.7-8.084-4.279-15.956-8.144-23.01-5.615-13.019-12.821-25.382-21.893-36.757-23.445-29.397-58.304-47.442-94.036-57.098-19.955-5.393-40.439-8.421-61.044-9.855-24.027-1.672-48.24-1.414-71.981 2.952-3.28.603-6.515 1.31-9.712 2.093-32.573 1.175-64.856 7.537-94.378 21.935a159.811 159.811 0 0 0-8.122 4.268c-14.907 5.618-29.403 12.252-43.103 20.215-18.666 10.849-36.439 25.157-46.739 44.5-7.475 14.039-9.013 29.619-5.356 44.447-3.231 13.896-3.039 28.414.825 42.437-12.106 8.478-23.734 17.72-34.678 27.983-6.517 6.113-11.098 15.104-12.253 24.052-.524 4.049-.267 12.205 4.012 17.073 2.129 2.421 4.98 3.615 8.292 3.481 10.504-.478 21.322-1.756 32.73-3.881-9.154 4.533-17.451 9.251-25.09 14.264-9.05 5.938-15.569 16.567-17.013 27.746-.645 4.987.002 12.407 3.951 16.9 2.101 2.391 4.942 3.656 8.272 3.656 20.531-.086 42.056-1.827 65.401-5.31-26.611 11.458-54.242 24.019-81.035 39.092-10.083 5.67-15.866 18.055-17.126 27.815-.835 6.458.635 12.555 3.931 16.306 3.15 3.585 7.817 4.873 13.195 3.591 21.952-5.206 41.215-9.938 58.909-14.48a1926.811 1926.811 0 0 0-12.91 5.568l-1.138.281-.036.25c-11.246 5.346-19.209 16.569-20.889 29.559-.833 6.467.629 12.58 3.945 16.35 3.158 3.593 7.793 4.863 13.157 3.545l2.305-.576c-.475.244-1.052.49-1.527.737l-.439.058v.062c0 .619-2.185 1.238-3.381 1.855-9.559 4.948-15.672 17.753-16.98 27.847-.835 6.472.653 12.599 3.985 16.389 3.162 3.597 7.819 4.854 13.171 3.504a828.14 828.14 0 0 0 34.118-9.418c-8.175 7.956-15.34 24.947-12.552 35.605 1.834 7.016 7.692 10.309 16.374 9.061a458.722 458.722 0 0 0 24.247-4.156c-3.15 4.955-5.237 10.661-5.991 16.502-.622 4.807.119 12.093 4.253 16.796 3.221 3.664 7.865 4.772 13.041 3.055 3.698-1.23 7.398-2.457 11.102-3.674-4.196 5.542-6.974 12.178-7.858 19.023-.851 6.59.457 12.233 3.686 15.905 3.077 3.501 7.75 4.893 13.306 3.993.736-.119 1.47-.275 2.206-.398l.14-.234c7.485-1.221 14.981-2.737 22.49-3.986-3.941 8.813-5.908 18.804-2.115 25.139 1.051 1.757 2.903 3.168 6.078 3.838 1.278.49 2.778.756 4.515.758l.055.002c5.9-.012 11.82-.093 17.75-.222 11.335.091 22.599.108 33.663-.563.67 5.77 3.559 11.173 8.268 13.252 13.367 5.898 28.351 8.89 44.531 8.89 34.462 0 69.419-13.503 92.715-23.659 44.301-19.315 84.445-44.658 121.229-69.172l1.022-.574-.008-.125c10.524-7.524 17.164-20.991 16.24-33.163-.649-8.56-5.88-14.09-13.321-14.09-.481 0-.966.024-1.454.072 11.893-9.518 21.854-19.837 30.192-31.246 5.765-7.884 10.62-20.068 6.966-30.611-1.541-4.444-4.768-7.453-8.917-8.472a281.56 281.56 0 0 0 6.369-5.82c8.35-7.873 13.232-19.7 12.438-30.132-.538-7.084-5.278-14.612-13.001-14.612-1.487 0-3.019.292-4.555.871-2.336.881-4.696 1.764-7.075 2.65 8.182-5.75 14.252-16.086 15.641-26.836.651-5.045-.453-12.527-4.418-17.037-3.251-3.696-7.883-4.717-12.955-2.786-.609.231-1.223.465-1.839.697l.011-.335-1.346.835c-.991.37-1.994.742-3.002 1.112a386.91 386.91 0 0 0 20.076-17.099c6.506-5.939 11.094-14.937 12.275-24.068.694-5.392-.26-12.718-3.961-16.932-1.031-1.17-2.238-2.07-3.604-2.68a946.824 946.824 0 0 0 19.806-11.273c10.095-5.912 15.859-18.221 17.101-27.799.82-6.322-.832-12.885-4.202-16.723zM373.43 189.288c-9.165 8.839-18.244 17.761-27.458 26.532a139.031 139.031 0 0 1 8.801-11.874c2.137-2.582 4.61-5.261 7.281-7.927 5.306-4.414 10.977-8.404 16.881-12.014-.501.479-1.003.955-1.502 1.433a30.244 30.244 0 0 0-4.003 3.85zm-50.417 47.56c5.092-14.044 11.727-27.456 20.229-39.73 4.226-3.86 8.706-7.434 13.376-10.769-13.507 14.304-24.225 30.917-31.967 49.055-.548.48-1.09.965-1.638 1.444zm379.116-68.771c.648.541 1.298 1.083 1.938 1.635a3.043 3.043 0 0 0-1.192-.417c-.25-.406-.493-.816-.746-1.218zm12.617 148.36c.521 1.168 1.028 2.344 1.543 3.517-1.319.002-2.95.009-4.763.018a87.504 87.504 0 0 0 3.22-3.535zm16.792-115.327a13.243 13.243 0 0 0-.683 4.306c.021 2.156.118 4.301.274 6.433-6.727-14.738-15.971-28.378-25.883-41.081-.032-.041-.063-.07-.097-.108 9.973 8.748 18.872 18.851 26.389 30.45zm-424.369 18.488a49.58 49.58 0 0 1 .372-2.157c.209-1.122-.105.293.386-1.565 1.505-5.695 3.722-9.886 6.662-14.164 3.89-5.655 7.41-9.276 12.797-14.091 7.152-6.391 15.104-11.959 23.535-16.888a179.494 179.494 0 0 0-10.101 12.046c-13.396 11.278-25.157 24.329-33.924 39.532-.02.033-.038.066-.056.099.088-.939.196-1.877.329-2.812zm114.235 51.917l3.088-1.379.154.378c-1.082.332-2.166.663-3.242 1.001zm103.681-6.058c4.693 2.579 9.284 5.352 13.785 8.204a620.739 620.739 0 0 1 5.409 3.468c-6.763-2.976-13.096-6.042-18.975-9.316-.029-.808-.11-1.59-.219-2.356zm18.711 153.493c9.715-7.347 18.797-14.889 27.361-22.719a311.03 311.03 0 0 0 16.032 3.311 2951.395 2951.395 0 0 0-43.393 19.408z" fill="#D8724A"/><path fill="#AF543F" d="M501.528 650.139c10.729 1.733 21.036.742 31.474-2.123 5.462-1.5 10.622-3.928 15.564-6.656.356-.195.891-.553 1.514-.996.758-.266 1.516-.531 2.266-.814 7.443-2.815 12.267-5.925 15.112-11.875.488-.766.943-1.549 1.275-2.408 1.18-3.036 4.114-12.943-2.265-12.834-3.807.066-6.429 2.736-9.133 5.176-22.463 6.82-48.554 7.218-67.402-8.466-5.415-4.51-12.067 2.545-14.445 10.179a64.088 64.088 0 0 1-13.288-15.448c-2.064-3.353-7.042 4.997-5.88 7.615 8.441 18.998 23.943 35.215 45.208 38.65zm65.853 81.681c-17.195 9.519-37.104 13.227-56.627 12.574-19.466-.646-41.25-5.384-53.111-22.186-3.674-5.204-9.839 7.726-8.678 11.24 15.319 46.439 75.264 51.867 113.804 32.568 8.08-4.047 13.167-13.375 14.337-22.109.713-5.307-1.695-16.528-9.725-12.087z"/><path d="M457.158 606.136c16.365 13.017 33.125 21.878 53.958 24.886 17.653 2.549 41.611-.353 54.838-13.21 1.907-1.856 7.349-14.853.661-14.06-8.02.951-15.589 6.491-23.385 8.998-8.805 2.83-18.375 3.264-27.541 2.961-18.933-.626-38.802-7.425-55.819-15.395-2.249-1.051-4.511 4.388-2.712 5.82zM227.796 474.311c6.28-7.724 14.695-13.626 24.943-13.758 11.299-.142 13.804 9.88 18.084 18.081 1.953 3.746 6.262-4.539 6.42-5.923 1.436-12.6-4.913-25.15-18.881-25.397-13.684-.244-25.988 11.324-33.214 21.737-1.885 2.721-.957 9.693 2.648 5.26z"/><path d="M277.687 467.942c-8.146-.335-18.361-.418-24.122 6.399-5.702 6.743-4.579 16.949.311 23.838 2.095 2.953 5.526-4.377 4.899-6.345-.893-2.802-5.055-10.17-2.052-12.767 4.786-4.136 13.072-4.249 19.004-4.562 2.377-.126 4.892-6.444 1.96-6.563zM785.7 482.846c3.037-8.114 9.26-13.703 17.757-15.524 7.659-1.643 13.563 2.292 20.646 3.991 4.454 1.066 9.206-7.959 6.3-11.305-7.307-8.418-20.523-7.973-30.032-3.899-10.702 4.586-17.453 16.224-20.33 26.965-1.742 6.512 4.068 4.026 5.659-.228z"/><path d="M782.503 488.633c4.105-1.569 11.673-4.31 14.858.333 1.108 1.616.436 4.027.146 5.764-.56 3.369-2.085 6.487-2.667 9.894-.475 2.773 1.772 3.603 3.573 1.668 5.342-5.748 9.677-17.585 5.014-24.968-4.449-7.048-15.844-.733-20.688 2.126-1.368.805-2.959 6.224-.236 5.183zM435.59 723.653c-7.453 23.626-6.08 49.003 11.776 67.595 15.931 16.588 39.812 23.301 62.236 23.029 23.521-.28 47.165-8.341 64.169-24.855 8.838-8.581 15.205-20.146 18.358-31.998 2.59-9.74 5.218-28.039-4.479-34.372-3.672-2.401-7.01 6.113-7.405 8.219-1.811 9.668-.414 20.541-3.087 29.327-.799 2.625-1.818 4.47-4.354 8.048-1.047 1.479-4.661 5.041-7.106 6.999-15.156 12.136-35.001 16.808-54.096 17.093-19.21.291-39.336-3.842-54.808-15.746-16.875-12.986-20.239-34.77-16.214-54.522 1.009-4.947-4.157-1.464-4.99 1.183z"/><path d="M436.876 720.353c-55.536.249-118.592.19-155.331 49.428-16.271 21.802-24.874 47.776-29.929 74.235-5.055 26.438-7.453 54.625-4.456 81.337.625 5.565 5.582-1.26 6.025-3.523 9.127-46.767 5.934-99.115 34.444-139.937 32.244-46.171 97.204-38.883 145.579-49.269 3.915-.837 9.439-12.299 3.668-12.271zm150.1 17.081c26.312-2.073 54.466-.779 79.475 8.3 22.521 8.18 39.713 24.073 53.885 42.929 15.104 20.098 24.008 43.298 32.4 66.749 8.544 23.865 15.442 48.613 20.29 73.485 1.469 7.538 11.62-5.167 10.886-10.019-8.021-53.005-17.332-106.387-50.28-150.405-14.519-19.397-35.295-34.325-58.315-41.751-29.415-9.488-59.143-4.109-87.424 6.514-1.072.403-2.823 4.346-.917 4.198z"/><path d="M290.931 868.466c10.265.904 22.268 4.708 26.791 14.898 4.169 9.398 3.967 21.314 3.755 31.397-.245 11.418-1.939 22.816-3.104 34.163-.878 8.541-4.008 22.425 1.318 29.875 5.552 7.767 13.763-9.604 14.311-13.205 1.581-10.425-.329-22.097-.042-32.735.327-12.1.716-24.241-.827-36.277-1.3-10.147-5.103-18.77-12.542-25.866-8.167-7.786-19-6.98-29.171-4.489-.657.163-1.49 2.152-.489 2.239zm27.393-485.95c10.609-10.239 24.95-14.352 38.963-17.593 14.473-3.348 29.931-3.873 44.523-1.026 18.551 3.618 30.422-38.666 14.58-38.249-39.571 1.043-79.988 13.232-102.5 48.043-2.999 4.635-2.576 15.59 4.434 8.825z"/><path fill="#08B5F9" d="M698.263 858.646c.16-.316.291-.62.455-.938.758-1.469 1.646-7.738-1.941-6.003-.949.461-1.865.954-2.779 1.458a3.978 3.978 0 0 0-1.552-.266c-.779.055-1.559.111-2.336.169-4.003.28-6.591 4.071-7.966 8.048-3.201 2.44-6.354 4.969-9.626 7.416-1.689 1.264-3.024 7.372.283 5.285 2.756-1.74 5.436-3.602 8.155-5.372.102 2.808.865 5.484 1.957 8.096-9.378 33.37 8.259 70.292 13.092 104.033 2.26 15.762 16.896-2.825 17.72-10.369 4.119-37.753 4.08-77.899-15.462-111.557zm-206.568-11.23c-20.415 1.057-40.129-9.584-54.576-23.256-6.786-6.42-12.413-13.99-17.3-21.917-4.97-8.066-7.043-18.212-12.751-25.675-.813-1.03-1.878-1.528-3.189-1.487-.703.099-1.354.259-1.975.453-.746-3.914-1.296-7.803-1.561-11.63-.455-6.553-6.84 2.063-6.973 5.237-.211 5.017.049 10.072.583 15.126-1.986 6.263-1.286 14.289.145 19.506 1.536 5.603 3.979 11.062 6.909 16.292 4.242 16.377 9.952 32.363 18.44 47.069 7.024 12.175 17.36 25.077 32.064 27.428 18.122 2.894 32.796-14.016 41.227-27.769 2.111-3.443 8.444-19.867-1.043-19.377z"/><path fill="#AF543F" d="M797.116 462.286c-1.354-12.712-3.272-25.346-5.604-37.908 1.538-22.115 1.914-44.184-1.578-66.166l.475-2.298c.37-1.789-.27-3.888-1.71-4.695a176.066 176.066 0 0 0-2.837-12.126c-1.483-5.443-7.131-.313-9.032 3.046-1.676-17.29-4.964-34.457-9.218-51.182-9.156-36.008-23.925-71.157-44.466-102.181-.469-.708-1.1-1.042-1.788-1.13-3.301-6.522-6.973-12.75-11.215-18.407-.014-16.166-15.07-27.8-27.846-35.759-10.506-6.543-22.013-12.042-33.827-16.369-9.416-8.716-19.652-16.475-31.085-22.504-25.472-13.432-55.589-14.211-83.55-10.314-24.977 3.481-48.965 10.725-72.59 19.16a293.04 293.04 0 0 0-50.694 19.12l-1.405.53c-.307.115-.605.322-.888.592-44.872 22.355-83.77 56.294-109.641 99.598-1.16 1.941-1.818 5.381-.273 7.312 2.103 2.625 5.318-.235 6.778-1.943a314.523 314.523 0 0 1 18.04-19.387 205.262 205.262 0 0 0-8.118 12.246c-16.911 27.606-27.957 59.331-28.9 91.845-.115 3.938 4.893.135 5.039-2.32 2.627-44.018 23.699-87.088 55.049-117.797 15.476-15.159 34.231-26.947 55.219-32.65 24.949-6.782 50.415-1.306 75.087 4.108 1.737.381 3.476.771 5.217 1.165.479.679 1.191 1.104 2.234 1.025.536-.041 1.072-.101 1.608-.151 18.033 4.132 36.208 8.642 54.521 11.504.445.281.995.492 1.668.611 1.979.35 3.98.5 5.999.483 16.032 2.063 32.171 2.655 48.413.411 18.248-2.523 35.802-8.691 54.106-10.833 9.268-1.083 18.583 6.364 27.729 8.187.87.174 1.722 3.429 2.568 3.647 8.252 10.635 15.955 11.551 22.786 22.98 27.033 45.219 37.89 97.272 43.259 149.087 1.773 17.112 3.128 34.227 3.922 51.349-.436 23.865-.489 47.735-.407 71.606-.252 4-.53 8-.869 12.001-1.873 22.127-4.821 44.435-11.044 65.8-6.963 23.903-21.445 44.939-36.32 64.607-16.956 22.421-35.896 45.175-58.27 62.409-.384.297-.775.581-1.163.875-13.479 4.572-26.224 12.427-36.116 21.914a219.77 219.77 0 0 1-32.46 12.393c-21.487 6.314-44.203 8.863-66.485 6.131-3.906-.479-7.572 8.776-2.96 9.403 32.812 4.47 66.887-2.509 97.497-16.445.255 2.187 1.576 3.589 4.775 2.802 10.261-2.528 20.621-8.043 29.348-14.309.364.197.843.235 1.452.049.323 1.119 1.201 1.693 2.962 1.049 3.129-1.146 6.074-2.694 8.833-4.539.737.676 1.753.944 3.07.414 16.727-6.714 30.381-21.177 42.026-34.466 8.911-10.166 16.873-21.287 24.091-32.8 1.979.346 4.835-1.38 6.206-2.961 15.318-17.672 25.391-39.364 33.81-60.986 6.695-17.188 12.338-35.051 16.483-53.135-.024 6.491.144 12.971.601 19.435.312 4.403 4.466 4.443 7.161 1.925 21.102-19.733 17.1-49.047 14.327-75.058zm-387.002-314.28a323.726 323.726 0 0 1 7.259-3.407c.544.713 1.403 1.227 2.673 1.43.74.119 1.48.215 2.22.303-4.076.335-8.127.89-12.152 1.674zm134.698 17.341c-.538.197-1.108.56-1.676 1.038-.552-.086-1.103-.181-1.654-.27a195.25 195.25 0 0 0 3.554-.848l-.224.08zm42.956 1.89c-.168.53-.311 1.299-.368 2.137-2.956.201-5.928.293-8.907.291 3.25-1.705 6.36-3.458 9.268-5.102l1.491-.436a12.085 12.085 0 0 0-1.484 3.11zm-3.537-49.957c1.388.15 2.774.314 4.161.483a432.894 432.894 0 0 0-4.107-.101 3.62 3.62 0 0 0-.054-.382zm-46.747-14.883c1.754-3.605 2.595-7.993-.284-9.05 16.885-1.591 33.841-1.053 50.751 2.73 10.611 2.374 20.47 6.73 29.635 12.347-26.324-5.623-53.282-7.495-80.102-6.027zm94.897 58.629c-1.649.37-3.298.749-4.943 1.129 5.631-2.595 11.271-5.125 17.066-7.056 7.949-.341 16.465-.248 24.486 1.24l.291.341c-12.397-.718-24.866 1.646-36.9 4.346zm97.408 447.248c1.123-3.563 2.465-7.062 3.809-10.461a212.13 212.13 0 0 1 3.419-8.101c2.067-3.177 4.05-6.434 5.911-9.834 2.204-4.025 4.391-8.062 6.549-12.114-5.241 13.775-11.444 27.998-19.688 40.51zm25.636-263.173a646.183 646.183 0 0 0-1.72-13.995c.725 4.52 1.433 9.043 2.119 13.571a10.07 10.07 0 0 0-.399.424zm30.354 172.337c-.366-13.872.311-27.75 1.367-41.621a400.747 400.747 0 0 1 1.448 20.518c.329 7.456-.082 14.697-2.815 21.103z"/><path d="M403.292 762.699c-1.583 23.798 7.487 45.688 23.915 62.758 14.885 15.464 43.882 30.058 65.667 24.698 3.2-.79 8.453-11.141 3.821-12.675-9.843-3.264-20.438-3.305-30.404-6.531-10.102-3.272-19.475-8.546-27.962-14.869-18.47-13.759-30.572-32.672-30.177-56.222.069-4.13-4.712.617-4.86 2.841zm260.143 111.004c2.559 8.826 6.493 17.089 9.646 25.716 3.795 10.383 5.849 21.294 7.91 32.117 4.202 22.061 5.849 44.592 9.146 66.795.162 1.101.438 3.457 1.936 3.771.44.093.884.184 1.325.278 2.754.576 5-2.143 5.957-4.475 3.987-9.729.408-21.102-.851-31.275-1.555-12.567-3.633-25.07-6.109-37.489-2.447-12.259-5.874-24.241-10.726-35.77-3.581-8.516-8.11-17.904-17.445-20.871-.535-.172-.903.812-.789 1.203z"/><path d="M702.467 840.701c-14.48 5.302-27.022 13.809-36.816 25.771-1.634 1.994-3.182 5.01-2.353 7.671 1.062 3.406 4.481.307 5.594-1.223 8.425-11.603 19.777-19.956 32.729-25.919 1.978-.912 4.093-7.488.846-6.3zm77.454-522.995c-2.19-7.043-10.112 5.641-9.157 10.055 16.628 76.868 13.278 181.536-19.504 253.784-31.301 68.984-91.734 119.468-166.128 135.375-83.596 17.877-175.453-5.006-234.981-67.689-60.179-63.371-75.15-152.681-67.47-236.911-3.853-2.188-7.788-4.147-11.877-5.689a551.944 551.944 0 0 0-3.256 30.627c-6.512 83.852 12.103 171.249 70.647 234.333 58.385 62.917 148.388 86.828 231.763 73.133 77.457-12.725 141.821-62.201 180.456-129.674 47.234-82.492 57.675-206.797 29.507-297.344z"/><path d="M735.663 372.472c-8.783-15.683-23.06-28.962-39.865-35.554-16.369-6.421-34.977-9.17-52.491-9.663-16.944-.475-25.438 41.351-11.594 38.821 16.76-3.064 33.524-3.102 50.203.607 16.042 3.565 32.361 7.972 45.226 18.725 5.551 4.641 10.947-8.602 8.521-12.936z"/><path fill="#FFF" d="M609.462 496.668c-53.634 2.51-108.177 6.034-161.477-2.305-3.729-.583-6.529 5.115-6.903 7.965-1.555 11.895 2.843 22.689 9.649 31.957-4.551 8.487-5 18.251 3.753 25.586 10.092 8.457 24.411 12.238 37.576 14.181 7.467 3.456 15.538 5.609 23.937 6.347 37.584 3.299 70.277-23.35 86.875-55.03 3.694-7.055 6.612-14.557 8.971-22.154.595-1.909.872-6.699-2.381-6.547zM486.03 532.616a31.027 31.027 0 0 0 6.628 4.582c-4.616-.584-9.163-1.504-13.529-2.912a73.967 73.967 0 0 1 6.901-1.67zm84.909 2.045c-.367.003-.735.021-1.104.024 1.336-.188 2.671-.356 4.009-.507-.06.557-.131 1.104-.208 1.646-.498-.726-1.355-1.171-2.697-1.163zm-102.777-9.155a42.858 42.858 0 0 1-2.352-2.833c2.882-.063 5.765-.11 8.648-.137a57.499 57.499 0 0 0-6.296 2.97zm-13.157-16.374l-.077-.228c.198.025.398.049.596.072-.174.049-.349.093-.519.156zm141.757 1.91c-7.922-.019-15.842-.163-23.764-.369 9.224-.396 18.451-.803 27.688-1.145a108.074 108.074 0 0 1-1.292 3.135c-.448-.965-1.267-1.619-2.632-1.621zm-137.2 33.341c.291.473.604.933.902 1.4a14.006 14.006 0 0 1-1.401-1.891c.166.166.333.328.499.491z"/><path d="M416.206 480.58c31.711 20.6 72.992 25.363 109.96 25.323 20.364-.022 40.891-2.326 60.759-6.774 17.352-3.885 36.428-9.663 50.983-20.257 2.628-1.912 4.587-10.498-.584-7.713-15.776 8.494-31.672 14.722-49.196 18.721-19.795 4.517-40.085 6.241-60.354 6.479-36.019.425-76.437-4.053-108.093-22.601-2.727-1.598-6.17 5.072-3.475 6.822z"/><path d="M432.24 488.824c-3.583 45.261 24.82 88.839 69.9 99.23 20.737 4.779 44.557.862 63.66-8.058 16.92-7.9 29.868-22.058 38.218-38.554 8.157-16.114 13.495-36.311 13.149-54.429-.028-1.478-1.205-2.636-2.698-2.183-2.163.657-3.389 3.099-3.754 5.153-1.829 10.295-2.761 20.557-5.597 30.678-2.476 8.836-6.013 17.462-10.99 25.195-10.443 16.228-26.713 26.233-45.215 30.868-22.223 5.566-45.743 4.253-66.02-6.813-19.816-10.814-34.405-29.867-41.167-51.234-3.221-10.177-4.313-20.998-3.622-31.627.36-5.522-5.575-1.875-5.864 1.774z"/><path d="M435.65 523.526c25.598 13.129 54.581 20.054 83.229 21.587 29.784 1.595 62.722-3.029 87.771-20.325 2.509-1.731 3.9-9.571-.525-6.939-26.237 15.597-55.908 20.541-86.136 18.978-27.727-1.435-55.886-7.88-80.99-19.87-2.783-1.33-6.083 5.167-3.349 6.569z"/><path fill="#AF543F" d="M325.567 486.028a3.271 3.271 0 0 0-.364-1.003c-.049-.087-.103-.16-.156-.239-1.08-2.302-2.707-4.301-4.828-5.49-7.394-4.148-13.44 6.981-15.579 12.163-.536 1.304-1.173 5.091 1.387 4.485.995 2.509 3.448 4.34 6.45 5.611 6.792 2.876 13.013-.945 13.986-8.162.317-2.34-.009-4.961-.896-7.365zm-4.39 9.833c.152-.28.231-.399.255-.436.004.031.01.045.012.05-.016-.002-.077.039-.267.386zm.273-.952a2.762 2.762 0 0 0-.018.51c-.04.044-.186.202-.414.292-.914.36-1.877.287-2.833.182-.774-.084-1.816-.299-2.893-.643.455-.258.88-.523 1.244-.704l3.34-1.661c.439.166.954.155 1.458-.045.004.03.012.061.016.089.12.738.137 1.564.1 1.98zm38.864-10.037a3.34 3.34 0 0 0-.364-1.004c-.051-.087-.103-.16-.156-.238-1.08-2.302-2.707-4.302-4.828-5.491-7.396-4.148-13.44 6.98-15.579 12.162-.538 1.304-1.175 5.091 1.387 4.485.995 2.509 3.448 4.341 6.45 5.612 6.792 2.875 13.013-.946 13.986-8.163.317-2.337-.009-4.959-.896-7.363zm-4.39 9.833c.152-.28.231-.4.255-.436.004.03.01.046.012.05-.016-.002-.077.038-.267.386zm.273-.952c-.027.3-.025.441-.018.509-.04.045-.186.202-.414.292-.914.361-1.877.287-2.833.183-.774-.085-1.816-.3-2.893-.644.453-.257.878-.523 1.244-.705l3.34-1.661c.439.166.954.156 1.458-.044.004.028.012.059.016.088.12.739.137 1.566.1 1.982zm38.575-8.881a3.287 3.287 0 0 0-.364-1.004c-.049-.087-.103-.16-.156-.238-1.08-2.302-2.707-4.302-4.828-5.491-7.394-4.148-13.44 6.98-15.579 12.162-.536 1.304-1.175 5.091 1.387 4.485.995 2.509 3.449 4.341 6.45 5.612 6.792 2.875 13.013-.946 13.986-8.163.317-2.337-.009-4.959-.896-7.363zm-4.39 9.833c.152-.28.231-.4.255-.436.004.03.01.046.012.05-.016-.002-.077.038-.267.386zm.273-.952c-.028.3-.026.441-.018.509-.04.045-.186.202-.414.292-.914.361-1.877.287-2.833.183-.773-.085-1.816-.3-2.893-.644.455-.257.88-.523 1.245-.705l3.339-1.661c.439.166.954.156 1.458-.044.004.028.012.059.016.088.12.739.138 1.566.1 1.982zm-45.706 24.58a3.244 3.244 0 0 0-.364-1.004c-.049-.087-.103-.16-.154-.238-1.08-2.302-2.707-4.302-4.828-5.491-7.396-4.148-13.442 6.98-15.579 12.163-.538 1.305-1.175 5.091 1.387 4.485.993 2.509 3.448 4.341 6.45 5.611 6.792 2.876 13.013-.945 13.986-8.162.315-2.339-.012-4.96-.898-7.364zm-4.388 9.833c.15-.28.231-.4.255-.437.004.03.008.045.012.05-.016-.002-.079.039-.267.387zm.272-.952c-.027.3-.025.441-.018.51-.04.044-.186.201-.416.292-.912.36-1.878.286-2.831.183-.774-.085-1.818-.3-2.893-.644.453-.258.878-.523 1.245-.705 1.114-.554 2.228-1.106 3.34-1.661.439.167.954.157 1.458-.044.004.028.01.06.016.088.12.739.137 1.566.099 1.981zm41.018-10.037a3.287 3.287 0 0 0-.364-1.004c-.05-.086-.103-.16-.157-.238-1.08-2.302-2.707-4.302-4.827-5.491-7.394-4.148-13.44 6.981-15.579 12.162-.536 1.306-1.175 5.091 1.387 4.485.995 2.51 3.449 4.342 6.45 5.612 6.792 2.876 13.013-.945 13.986-8.161.316-2.34-.01-4.961-.896-7.365zm-4.391 9.832c.152-.278.231-.399.255-.436.004.03.01.046.012.05-.016-.001-.077.039-.267.386zm.273-.951c-.028.3-.026.441-.018.51-.04.044-.187.202-.414.291-.915.361-1.878.287-2.833.184-.773-.085-1.816-.3-2.893-.645.455-.257.88-.523 1.245-.704 1.114-.554 2.228-1.107 3.339-1.661.439.166.954.156 1.458-.044.004.029.012.059.016.089.12.736.138 1.564.1 1.98zm290.787-38.847a3.28 3.28 0 0 0-.364-1.003c-.05-.087-.103-.162-.156-.24-1.08-2.302-2.707-4.301-4.828-5.49-7.394-4.148-13.439 6.981-15.578 12.162-.536 1.305-1.176 5.091 1.387 4.486.995 2.509 3.448 4.34 6.45 5.611 6.792 2.876 13.013-.944 13.986-8.161.315-2.34-.012-4.961-.897-7.365zm-4.391 9.833c.152-.28.231-.4.255-.437.004.03.011.045.013.05-.017-.001-.078.039-.268.387zm.273-.951a2.903 2.903 0 0 0-.019.509 1.143 1.143 0 0 1-.413.292c-.914.36-1.878.286-2.833.182-.774-.084-1.816-.298-2.893-.643.455-.258.88-.523 1.244-.705l3.34-1.661c.439.167.954.156 1.458-.044.004.03.012.061.016.089.12.738.137 1.564.1 1.981zm38.863-10.038a3.304 3.304 0 0 0-.362-1.003c-.052-.087-.104-.16-.156-.239-1.08-2.301-2.707-4.301-4.828-5.49-7.396-4.148-13.441 6.98-15.578 12.162-.539 1.304-1.176 5.091 1.387 4.485.995 2.509 3.448 4.34 6.45 5.612 6.792 2.875 13.013-.946 13.986-8.163.315-2.339-.012-4.961-.899-7.364zm-4.389 9.833c.152-.28.231-.399.255-.436.004.031.008.045.013.05-.017-.002-.08.039-.268.386zm.273-.952a2.904 2.904 0 0 0-.019.509 1.114 1.114 0 0 1-.415.292c-.912.361-1.878.287-2.831.182-.773-.084-1.818-.299-2.893-.643.453-.258.878-.523 1.244-.704l3.34-1.661c.439.166.953.156 1.458-.045.004.029.012.06.016.089.12.738.138 1.566.1 1.981zm38.576-8.881a3.334 3.334 0 0 0-.364-1.003c-.052-.087-.103-.16-.156-.239-1.08-2.301-2.706-4.301-4.827-5.49-7.396-4.148-13.44 6.98-15.579 12.162-.538 1.304-1.176 5.091 1.387 4.485.995 2.509 3.448 4.34 6.45 5.612 6.792 2.875 13.013-.946 13.986-8.163.316-2.339-.011-4.961-.897-7.364zm-4.391 9.833c.152-.28.231-.399.256-.436.004.031.01.045.012.05-.016-.002-.078.039-.268.386zm.273-.952a2.854 2.854 0 0 0-.018.509c-.04.045-.187.202-.414.292-.914.361-1.878.287-2.833.182-.773-.084-1.816-.299-2.893-.643.453-.258.878-.523 1.244-.704l3.34-1.661c.439.166.954.156 1.458-.045.004.029.012.06.016.089.12.738.138 1.566.1 1.981zm-45.706 24.58a3.264 3.264 0 0 0-.364-1.003c-.05-.087-.103-.161-.154-.239-1.08-2.302-2.707-4.302-4.828-5.49-7.396-4.147-13.441 6.98-15.578 12.162-.539 1.304-1.176 5.091 1.387 4.485.993 2.509 3.448 4.34 6.45 5.612 6.79 2.875 13.011-.945 13.985-8.162.315-2.339-.012-4.961-.898-7.365zm-4.388 9.833c.15-.28.229-.399.255-.437.004.031.008.046.012.051-.016-.002-.08.039-.267.386zm.271-.952a3.42 3.42 0 0 0-.019.509 1.1 1.1 0 0 1-.413.292c-.912.361-1.878.287-2.831.183-.774-.085-1.818-.299-2.893-.644.453-.258.878-.523 1.244-.704l3.34-1.661c.439.166.953.156 1.458-.045.004.029.01.06.016.089.12.738.137 1.565.098 1.981zm41.019-10.037a3.346 3.346 0 0 0-.364-1.005c-.051-.087-.103-.16-.156-.238-1.08-2.302-2.706-4.301-4.827-5.49-7.396-4.148-13.44 6.981-15.579 12.162-.538 1.305-1.176 5.091 1.387 4.485.995 2.51 3.448 4.341 6.45 5.612 6.792 2.876 13.013-.946 13.986-8.162.316-2.338-.011-4.96-.897-7.364zm-4.391 9.832c.152-.279.231-.399.256-.437.004.031.01.046.012.051-.016 0-.077.039-.268.386zm.274-.952c-.027.3-.025.441-.018.51-.04.045-.187.202-.414.292-.914.361-1.877.287-2.833.183-.773-.084-1.816-.3-2.893-.644.453-.257.878-.523 1.244-.704 1.114-.555 2.229-1.107 3.34-1.661.439.166.954.156 1.458-.045.004.03.012.06.017.089.118.738.136 1.565.099 1.98z"/><path d="M279.177 412.888c4.506-40.308 8.447-80.871 15.963-120.756 3.222-17.095 7.184-33.7 12.822-50.884a287.588 287.588 0 0 1 4.109-11.623c1.94-5.159 2.053-5.396 4.268-10.418a216.764 216.764 0 0 1 11.251-21.986c.495-.845 1.001-1.682 1.511-2.518-1.356 2.223.353-.534.53-.812a189.555 189.555 0 0 1 3.232-4.86c2.38-3.48 4.907-6.857 7.525-10.161a176.64 176.64 0 0 1 3.724-4.516c.157-.185 2.293-2.618.713-.839.649-.731 1.311-1.451 1.972-2.171a187.754 187.754 0 0 1 9.023-9.134c12.373-11.737 25.806-20.728 41.828-28.893 40.131-20.451 87.628-28.228 132.288-30.574 21.872-1.149 44.038.086 65.274 5.727 22.461 5.965 43.337 16.63 63.05 28.747 21.305 13.095 41.44 27.739 58.043 46.577 13.821 15.68 24.372 33.713 32.051 53.106 10.775 27.211 15.9 56.275 20.332 85.072 2.811 18.26 5.008 36.547 6.391 54.977 1.454 19.375 1.657 39.905-4.304 58.596-.768 2.406-1.124 6.47 1.623 7.869 3.435 1.75 7.273-2.552 8.517-5.252 6.547-14.213 10.424-29.401 11.078-45.059.653-15.614-.647-31.178-2.078-46.714-2.289-24.856-6.122-49.673-11.051-74.148-8.573-42.582-24.05-83.026-54.529-114.856-17.804-18.592-39.417-33.315-61.444-46.42-19.8-11.779-40.792-21.21-63.241-26.591-21.914-5.253-44.589-5.765-66.978-4.232-25.575 1.751-51.283 5.569-76.188 11.665-38.11 9.328-74.827 25.809-103.987 52.476-25.869 23.656-43.515 54.851-55.254 87.58-21.048 58.685-24.372 122.683-28.876 184.297-.204 2.793.863 6.51 4.49 5.409 3.487-1.061 5.938-5.244 6.322-8.681z"/><path d="M396.062 406.659a33.664 33.664 0 0 0-1.037-1.272c-4.118-6.226-10.91-10.524-18.741-11.259-4.735-1.02-9.646-.918-14.268.661-3.767 1.288-7.49 3.673-9.843 6.921-10.522 7.646-12.481 22.424-4.244 33.468 10.31 13.824 29.516 14.605 42.938 5.161 11.592-8.153 13.731-22.555 5.195-33.68zm-46.833 6.936a24.836 24.836 0 0 0-.502 2.933 9.897 9.897 0 0 1 .502-2.933zm344.269-13.975a33.606 33.606 0 0 0-1.036-1.271c-4.118-6.225-10.91-10.524-18.741-11.259-4.734-1.02-9.646-.919-14.267.661-3.768 1.287-7.491 3.672-9.844 6.92-10.521 7.647-12.48 22.424-4.244 33.469 10.311 13.823 29.517 14.605 42.938 5.161 11.591-8.154 13.73-22.554 5.194-33.681zm-46.834 6.936a24.888 24.888 0 0 0-.502 2.934 9.941 9.941 0 0 1 .502-2.934z"/><circle fill="#FFF" cx="378.163" cy="413.148" r="10.067"/><circle fill="#FFF" cx="659.875" cy="406.885" r="10.066"/><path fill="#D8724A" d="M282.704 433.637c-12.008-11.425-30.104-26.578-48.118-19.363-20.245 8.108-30.982 30.852-32.765 51.558-2.183 25.369 8.245 75.354 44.207 65.28 14.75-4.131 26.528-17.533 35.048-29.485 5.917-8.299 12.037-23.447 4.562-32.781-7.439-9.287-20.142.318-25.033 7.181a112.738 112.738 0 0 1-4.57 5.994c-2.898 3.537 4.177-4.573 1.187-1.359-.696.75-1.435 1.466-2.17 2.177a47.356 47.356 0 0 1-2.129 1.905c-2.895 2.491 4.711-3.488 1.721-1.351-1.266.906-2.62 1.671-4.01 2.365 6.438-3.21 2.123-1.025.158-.547-2.727.663 4.78-.5 2.042-.24-.582.055-1.167.045-1.753.035-1.713-.032-5.714-1.324.19.393-1.267-.368-2.458-.966-3.593-1.625-3.674-2.13.35.542-.028.202-.93-.828-1.759-1.764-2.558-2.717-.845-1.007-1.593-2.094-2.311-3.192-.374-.574-.718-1.166-1.062-1.756-1.411-2.428 2.303 4.562.511.833-1.288-2.68-2.279-5.497-3.13-8.343-.441-1.476-.805-2.976-1.144-4.479-.734-3.252.976 5.198.386 1.911a75.015 75.015 0 0 1-.467-3.085c-.414-3.064-.582-6.156-.582-9.245-.002-3.489-.255 6.135-.091 2.678a58.48 58.48 0 0 1 .163-2.216 50.03 50.03 0 0 1 .574-4.273c.819-4.804-1.909 7.108-.269 1.466.184-.629.399-1.247.617-1.861 1.191-3.381-3.069 7.171-1.614 3.939 2.449-5.455-2.375 3.434-1.494 2.142 3.029-4.458-5.13 4.88-1.167 1.389-5.623 4.952-4.43 3.3-2.752 2.209 1.341-.869 4.026-1.874-2.681 1.125 1.021-.456 2.113-.723 3.205-.924-6.298 1.167-2.185.328-.214.473.671.05 1.333.166 1.993.281 2.556.442-4.45-1.389-.528-.111 3.466 1.131 6.684 2.979 9.734 4.943 1.915 1.233 3.733 2.611 5.526 4.015-3.314-2.592.154.158.677.613 1.417 1.229 2.778 2.517 4.137 3.811 8.565 8.148 19.251.633 25.034-7.181 5.283-7.142 12.92-24.828 4.561-32.784zm565.001 10.253c-1.007-4.363-2.578-8.47-4.592-12.323.924-5.678.299-11.367-3.039-15.531-3.425-4.275-7.721-4.59-11.898-3.061-6.61-5.817-14.236-10.589-22.023-14.289-12.648-6.009-26.823 11.467-29.712 26.76-4.445 4.3-8.312 8.759-11.279 12.439-6.34 7.858-11.772 23.782-4.564 32.784 7.663 9.564 19.801-.691 25.034-7.181.281-.347 1.072-1.251 1.703-1.974a69.789 69.789 0 0 1 2.738-2.648c.063 1.756.277 3.412.667 4.904.638 2.43.775 3.24 1.001 5.317-.843.454-1.846.927-3.267 1.685-5.83 3.106-11.817 10.916-14.864 19.311-14.416 11.783-22.379 43.004-4.07 43.004 6.357 0 12.436-4.725 17.069-11.191 11.283 7.481 24.496 8.886 35.902-3.906 4.626-5.189 8.28-10.877 11.072-16.91 12.041-16.49 18.881-36.575 14.122-57.19zm-55.672 27.484c-.058.146-.118.311-.186.51.06-.179.118-.357.182-.533l.004.023z"/><path fill="#61E9FF" d="M248.666 933.063c28.574 27.994 67.26 41.035 105.567 49.349 41.672 9.045 84.564 11.546 127.062 13.323 47.891 2.001 95.934 2.305 143.531-4.125 49.802-6.731 97.423-21.774 143.2-42.312 7.256-3.254 11.925-11.663 9.969-19.565-20.718-83.658-75.173-159.798-158.972-188.425-40.904-13.974-84.508-13.309-127.157-11.346-38.388 1.763-77.167 6.593-113.883 18.299-37.752 12.04-72.741 33.012-96.544 65.214-28.141 38.067-35.016 86.595-31.399 132.729 1.039 13.256 15.462 2.043 17.146-5.151 8.674-37.062 14.57-75.407 28.721-110.919 12.611-31.651 36.726-53.299 68.469-64.975 21.98-8.081 45.657-11.196 68.566-15.555 24.575-4.677 49.224-9.013 74.142-11.412 48.168-4.638 97.4-.522 139.258 25.666 36.633 22.918 64.845 63.696 79.929 103.643 6.776 17.954 11.337 38.771 6.905 57.851-4.782 20.593-20.264 32.589-38.146 41.979-41.975 22.037-92.585 25.699-139.11 25.496-46.872-.204-94.638-4.834-140.843-12.688-54.467-9.258-110.026-25.398-156.174-56.66-8.452-5.727-20.521 16.579-11.541 22.661 43.997 29.807 96.317 45.38 148.016 55.483 46.181 9.028 94.192 13.413 141.192 14.726 76.623 2.142 212.279-9.377 216.047-111.549 1.562-42.368-19.93-83.251-44.774-116.191-28.374-37.618-66.532-62.452-112.854-71.706-47.574-9.505-97.353-1.668-144.448 6.867-42.085 7.629-87.43 12.706-122.685 39.088-54.985 41.14-62.53 115.432-77.042 177.445 5.714-1.72 11.43-3.435 17.146-5.152-2.964-37.795 1.068-77.271 23.717-108.875 19.504-27.22 50.138-43.757 81.243-54.224 36.595-12.314 75.509-16.719 113.902-18.483 43.188-1.986 86.916-2.15 127.995 13.005 77.638 28.642 126.954 101.264 146.245 179.181 3.326-6.521 6.646-13.044 9.97-19.566-44.175 19.817-90.029 34.51-137.997 41.585-46.882 6.917-94.692 6.248-141.913 4.339-40.633-1.641-81.341-4.177-121.357-11.78-37.738-7.168-78.215-19.735-106.299-47.249-8.44-8.268-21.858 13.065-14.8 19.979z"/><path fill="#61E9FF" d="M269.234 880.125c18.776-22.61 34.335-44.176 53.514-62.602 19.854-19.074 45.338-31.483 74.082-38.582l-3.084-40.617c-42.962 39.281-95.372 69.001-127.38 119.133-5.288 8.284-10.169 18.791-6.695 28.819 3.172 9.148 11.331 8.326 18.525 4.973 37.27-17.368 69.54-43.646 103.179-66.9 32.208-22.266 67.824-44.469 107.822-47.736.457-13.741.916-27.483 1.375-41.224-33.32 34.392-78.465 55.893-120.271 81.383-45.276 27.604-87.707 61.818-110.43 111.009-4.958 10.732-7.815 33.706 10.795 30.143 25.208-4.829 48.318-19.189 69.241-33.432 23.187-15.793 44.873-33.666 67.375-50.393 23.04-17.122 48.062-31.618 72.389-46.812 28.37-17.723 57.531-34.438 90.273-42.478-4.457-7.955-8.913-15.91-13.368-23.867-.445 1.375-3.544 9.305-.719 2.587-.989 2.357-2.152 4.639-3.328 6.908-.633 1.219-5.211 8.583-1.418 2.653-1.809 2.827-3.803 5.53-5.831 8.203-1.666 2.2-3.442 4.312-5.231 6.414 3.573-4.202-2.384 2.446-3.051 3.139-4.628 4.808-9.574 9.302-14.611 13.674-9.969 8.653-17.896 14.3-29.801 22.447-12.597 8.623-25.575 16.684-38.607 24.625-47.712 29.069-101.837 55.581-139.451 97.985-7.032 7.927-12.668 17.501-11.832 28.559.657 8.626 6.256 13.954 14.916 12.059 59.639-13.049 108.004-56.282 154.989-92.541 24.702-19.064 50.25-35.161 77.413-50.46 31.247-17.596 62.442-35.364 92.012-55.701l-15.389-28.021a174.79 174.79 0 0 1-7.647 14.745c2.8-4.836-1.306 1.988-1.586 2.416-1.801 2.732-3.73 5.384-5.673 8.019-7.847 10.649-12.964 15.947-23.119 25.775-18.674 18.072-38.885 32.935-60.371 47.486-42.333 28.671-87.664 52.596-129.997 81.244-8.771 5.933-14.788 15.839-16.146 26.36-1.027 7.951 3.393 22.93 14.736 17.744 47.972-21.925 96.954-41.729 143.411-66.831 23.559-12.729 46.219-27.087 67.454-43.409 21.438-16.483 40.253-36.538 63.667-50.32-3.943-11.264-7.887-22.527-11.827-33.794-53.801 67.435-126.089 116.858-196.747 164.919-10.079 6.858-17.267 19.638-16.325 32.047.89 11.721 9.948 14.766 19.512 9.94 84.023-42.388 155.256-110.23 244.803-141.651-3.602-10.047-7.196-20.095-10.795-30.142a122.302 122.302 0 0 1-2.287 4.345c-3.789 7.015 2.815-4.089-1.516 2.588-2.668 4.113-5.681 7.992-8.775 11.786-1.238 1.523-3.939 4.373-7.639 8.035-3.594 3.556-7.395 6.897-11.238 10.178-14.133 12.062-32.581 23.559-49.695 34.096-35.596 21.918-73.342 42.806-101.858 74.002-7.112 7.782-12.662 17.612-11.831 28.558.633 8.361 6.282 14.295 14.915 12.062 77.454-20.04 137.01-78.182 207.052-113.616l-17.967-21.747c-.36 1.512-3.261 9.183-.475 2.779a55.144 55.144 0 0 1-1.791 3.542c1.86-2.854 1.965-3.033.323-.542-1.589 2.392-3.423 4.621-5.26 6.824 3.116-3.742-3.094 2.974-3.737 3.603-9.665 9.434-18.258 15.313-29.624 23.057-22.342 15.226-46.261 28.602-66.517 46.682-7.58 6.766-12.604 18.375-11.83 28.557.548 7.21 6.533 15.746 14.916 12.062 46.88-20.614 93.068-45.829 143.771-55.749 18.967-3.712 32.185-51.35 6.005-46.227-50.7 9.922-96.887 35.137-143.771 55.749l3.085 40.619c5.609-5.007 5.014-4.445 10.625-8.511 5.957-4.315 12.112-8.365 18.264-12.402 13.227-8.68 26.6-17.134 39.466-26.348 25.019-17.92 51.8-40.867 59.297-72.186 3.253-13.593-.968-30.347-17.968-21.746-66.892 33.841-124.004 90.266-197.857 109.376l3.085 40.617c28.266-30.925 66.046-50.206 102.039-72.715 38.401-24.016 75.277-52.141 96.386-93.271 4.468-8.704 7.626-36.603-10.792-30.139-93.097 32.665-166.762 101.887-253.996 145.889l3.188 41.987c77.545-52.746 155.039-107.361 214.029-181.304 5.918-7.413 9.93-19.482 6.695-28.818-2.979-8.6-11.576-9.064-18.523-4.975-23.19 13.651-42.099 32.786-62.868 49.625-20.157 16.345-42.673 29.967-65.335 42.507-44.217 24.469-91.243 43.214-137.137 64.188-.471 14.701-.939 29.402-1.411 44.104 44.673-30.231 92.526-55.425 136.989-86.015 45.897-31.581 92.093-69.855 115.812-121.599 3.23-7.048 5.805-15.341 3.134-23.046-2.839-8.191-11.802-9.598-18.525-4.974-54.226 37.295-114.612 64.225-166.961 104.267-45.215 34.585-91.024 77.673-148.258 90.195 1.027 13.537 2.056 27.078 3.085 40.619 18.612-20.984 36.741-33.146 60.329-48.361 25.887-16.698 52.718-31.879 78.936-48.045 49.555-30.555 104.568-67.516 123.352-125.731 3.316-10.28 1.403-27.496-13.369-23.867-32.434 7.962-62.245 24.062-90.623 41.265-25.165 15.255-50.892 30.451-74.83 47.588-22.577 16.16-43.981 33.899-66.582 50.04-20.341 14.529-42.273 29.438-67.244 34.218 3.599 10.047 7.196 20.096 10.795 30.141 9.483-20.529 19.815-33.093 38.217-49.343 16.341-14.432 36.722-27.159 56.76-39.144 41.747-24.965 86.07-47.615 120.305-82.95 6.096-6.291 10.514-14.071 11.652-22.873.819-6.33-.998-19.109-10.277-18.351-90.977 7.431-150.647 83.521-229.114 120.09l11.83 33.794c29.199-45.729 79.343-73.39 119.084-109.724 7.533-6.89 12.609-18.285 11.832-28.561-.643-8.438-6.274-14.192-14.917-12.06-33.348 8.235-63.145 23.603-88.741 46.528-24.731 22.149-44.212 49.846-65.333 75.279-6.437 7.747-11.707 23.861-4.562 32.782 7.706 9.635 19.712-.781 25.028-7.178z"/><path fill="#D8724A" d="M431.973 720.119c-3.473 19.469-1.709 40.339 10.407 56.6 10.012 13.436 27.029 19.693 43.148 21.165 39.916 3.65 78.837-23.229 95.346-58.497 3.597-7.686 8.533-24.692-2.254-29.689-18.117-8.392-42.251-4.348-60.765.246-25.874 6.423-53.846 27.475-46.888 57.732 2.376 10.338 13.318 16.804 22.334 20.588 13.583 5.7 29.663 4.98 43.046-.807 15.964-6.901 29.335-19.698 36.24-35.798 8.425-19.641 7.723-38.202-2.447-56.889-5.87-10.786-21.067 1.82-25.036 7.18-7.063 9.545-10.417 22.029-4.562 32.784 1.472 2.703 2.087 5.392 2.34 8.01-.357-3.7-1.221 4.496.244-.893 1.734-6.383-2.444 2.889 1.306-2.561 2.794-4.062-.972.878-1.779 1.6 2.966-2.65-2.69 1.36-2.87 1.461-.515.287-6.132 2.066-8.525 2.307-8.355.84-15.486-1.458-22.639-5.561-3.631-2.088-1.765-.361-4.398-3.853 4.378 5.801-1.021 19.554-7.327 26.499 1.619-1.502.993-1.087-1.883 1.243 1.027-.798 2.167-1.45 3.284-2.109.792-.466 5.099-2.398.681-.457 1.48-.649 3.003-1.194 4.521-1.744 6.804-2.458 13.957-3.947 21.086-5.087 2.779-.445 11.958-.983 17.249-.88 3.136.062 6.256.376 9.354.854.687.104 5.043 1.322 1.127.169 1.114.326 2.171.798 3.222 1.286l-2.252-29.689a64.17 64.17 0 0 1-1.68 3.45c-2.924 5.793 3.221-4.659-.326.7-1.027 1.556-2.187 3.02-3.344 4.482 3.769-4.765.021-.092-.819.761-.956.97-7.97 6.648-3.894 3.613-2.925 2.176-6.078 4.028-9.277 5.761-2.058 1.016-2.156 1.097-.295.253-1.643.749-3.334 1.388-5.02 2.024-3.348 1.267-6.809 2.2-10.286 3.013-4.737 1.109-3.793.839-7.674 1.129-3.403.255-6.816.16-10.213-.065-7.172-.479-9.087-1.112-14.758-3.471-2.39-.999-4.64-2.285-6.834-3.653-3.167-1.976-1.642-.765-4.905-4.215-1.779-1.882-3.249-4.024-4.622-6.21 1.939 3.086-.546-1.366-.724-1.789-.659-1.548-1.129-3.166-1.604-4.776-1.567-5.332.429 3.72-.368-2.022-.261-1.89-.322-3.805-.39-5.708-.222-6.41-.416 4.179.2-2.561.208-2.237.607-4.453 1.003-6.661 1.664-9.329-3.532-21.148-14.738-17.745-11.959 3.631-18.718 17.126-20.742 28.48z"/><path fill="#D8724A" d="M461.137 722.871c-1 37.903 29.207 67.244 66.972 65.772 47.139-1.834 76.184-49.691 68.622-93.747-1.807-10.528-9.444-16.148-19.511-9.938-9.524 5.875-18.31 20.49-16.325 32.045.705 4.103 1.147 8.174 1.265 12.338-.166-5.939-2.104 10.853-.065 2.347-.378 1.579-.924 3.112-1.468 4.635 2.507-7.02.853-2.308-.028-.655 3.534-6.622 1.467-2.393.281-.796-3.142 4.233 3.957-4.065.271-.366-.935.938-4.848 3.961.089.223-1.146.868-2.376 1.62-3.601 2.367-.825.505-5.2 2.595-.545.493-1.321.596-2.696 1.073-4.065 1.551-2.776.966-5.661 1.571-8.55 2.063 3.459-.591-4.457.083-5.923.067-7.013-.083-10.729-1.042-15.058-2.575-2.841-1.004-5.551-2.337-8.19-3.781-1.32-.721-2.575-1.555-3.827-2.385-.277-.182-4.107-3.219-1.5-1.007-2.314-1.966-4.337-4.242-6.232-6.604-.965-1.199-1.804-2.492-2.643-3.778-2.73-4.196 1.337 3.025-.831-1.575-1.405-2.979-2.327-6.159-3.09-9.354 1.013 4.242-.006-1.421-.06-1.964-.253-2.484-.215-4.987-.15-7.478.299-11.377-10.907-15.249-19.514-9.94-11.032 6.802-16 19.667-16.324 32.042z"/><path d="M275.775 428.788c-17.152-11.274-41.076-21.412-59.779-7.627-15.11 11.133-19.196 32.633-18.108 50.219 1.16 18.77 8.718 39.088 23.553 51.277 16.434 13.501 41.733 12.231 56.608-3.138 1.249-1.289 5.469-11.254.493-10.423-9.095 1.521-16.766 6.689-26.235 7.232-7.697.439-14.96-2.033-21.351-6.193-13.332-8.684-20.87-25.636-23.343-40.829-2.04-12.532-1.713-29.123 8.933-37.938 15.607-12.926 40.079-1.808 55.225 6.008 3.112 1.604 6.949-6.652 4.004-8.588zm501.307-.108c13.487-7.988 33.609-15.699 47.457-4.028 11.25 9.48 13.668 26.667 13.509 40.468-.164 14.476-4.285 30.621-14.128 41.604-12.655 14.121-28.052 8.898-43.752 4.658-4.776-1.29-11.046 9.673-7.178 12.883 16.228 13.479 38.696 8.962 52.807-4.93 14.453-14.227 21.065-36.489 22.145-56.24.934-17.071-1.733-38.172-16.157-49.485-17.864-14.015-40.253.122-54.858 12.136-.863.705-1.763 4.07.155 2.934z"/><path d="M384.68 695.352l-.004.005zm423.799-372.135c-3.211-3.651-7.858-4.788-13.065-3.135-.646.204-1.294.413-1.939.616l.002-.112-.411.245c-15.597 4.982-25.666 4.12-35.553 2.264 1.909-6.275 3.374-12.737 4.468-19.289.906-.027 1.85-.326 2.671-.832 3.546-2.188 5.524-6.599 5.434-10.664-.451-20.023-3.021-40.019-8.415-59.098-1.7-8.084-4.279-15.956-8.144-23.01-5.615-13.019-12.821-25.382-21.893-36.757-23.445-29.397-58.304-47.442-94.036-57.098-19.955-5.393-40.439-8.421-61.044-9.855-24.027-1.672-48.24-1.414-71.981 2.952-3.28.603-6.515 1.31-9.712 2.093-32.573 1.175-64.856 7.537-94.378 21.935a159.811 159.811 0 0 0-8.122 4.268c-14.907 5.618-29.403 12.252-43.103 20.215-18.666 10.849-36.439 25.157-46.739 44.5-7.475 14.039-9.013 29.619-5.356 44.447-3.231 13.896-3.039 28.414.825 42.437-12.106 8.478-23.734 17.72-34.678 27.983-6.517 6.113-11.098 15.104-12.253 24.052-.524 4.049-.267 12.205 4.012 17.073 2.129 2.421 4.98 3.615 8.292 3.481 10.504-.478 21.322-1.756 32.73-3.881-9.154 4.533-17.451 9.251-25.09 14.264-9.05 5.938-15.569 16.567-17.013 27.746-.645 4.987.002 12.407 3.951 16.9 2.101 2.391 4.942 3.656 8.272 3.656 20.531-.086 42.056-1.827 65.401-5.31-26.611 11.458-54.242 24.019-81.035 39.092-10.083 5.67-15.866 18.055-17.126 27.815-.835 6.458.635 12.555 3.931 16.306 3.15 3.585 7.817 4.873 13.195 3.591 21.952-5.206 41.215-9.938 58.909-14.48a1926.811 1926.811 0 0 0-12.91 5.568l-1.138.281-.036.25c-11.246 5.346-19.209 16.569-20.889 29.559-.833 6.467.629 12.58 3.945 16.35 3.158 3.593 7.793 4.863 13.157 3.545l2.305-.576c-.475.244-1.052.49-1.527.737l-.439.058v.062c0 .619-2.185 1.238-3.381 1.855-9.559 4.948-15.672 17.753-16.98 27.847-.835 6.472.653 12.599 3.985 16.389 3.162 3.597 7.819 4.854 13.171 3.504a828.14 828.14 0 0 0 34.118-9.418c-8.175 7.956-15.34 24.947-12.552 35.605 1.834 7.016 7.692 10.309 16.374 9.061a458.722 458.722 0 0 0 24.247-4.156c-3.15 4.955-5.237 10.661-5.991 16.502-.622 4.807.119 12.093 4.253 16.796 3.221 3.664 7.865 4.772 13.041 3.055 3.698-1.23 7.398-2.457 11.102-3.674-4.196 5.542-6.974 12.178-7.858 19.023-.851 6.59.457 12.233 3.686 15.905 3.077 3.501 7.75 4.893 13.306 3.993.736-.119 1.47-.275 2.206-.398l.14-.234c7.485-1.221 14.981-2.737 22.49-3.986-3.941 8.813-5.908 18.804-2.115 25.139 1.051 1.757 2.903 3.168 6.078 3.838 1.278.49 2.778.756 4.515.758l.055.002c5.9-.012 11.82-.093 17.75-.222 11.335.091 22.599.108 33.663-.563.67 5.77 3.559 11.173 8.268 13.252 13.367 5.898 28.351 8.89 44.531 8.89 34.462 0 69.419-13.503 92.715-23.659 44.301-19.315 84.445-44.658 121.229-69.172l1.022-.574-.008-.125c10.524-7.524 17.164-20.991 16.24-33.163-.649-8.56-5.88-14.09-13.321-14.09-.481 0-.966.024-1.454.072 11.893-9.518 21.854-19.837 30.192-31.246 5.765-7.884 10.62-20.068 6.966-30.611-1.541-4.444-4.768-7.453-8.917-8.472a281.56 281.56 0 0 0 6.369-5.82c8.35-7.873 13.232-19.7 12.438-30.132-.538-7.084-5.278-14.612-13.001-14.612-1.487 0-3.019.292-4.555.871-2.336.881-4.696 1.764-7.075 2.65 8.182-5.75 14.252-16.086 15.641-26.836.651-5.045-.453-12.527-4.418-17.037-3.251-3.696-7.883-4.717-12.955-2.786-.609.231-1.223.465-1.839.697l.011-.335-1.346.835c-.991.37-1.994.742-3.002 1.112a386.91 386.91 0 0 0 20.076-17.099c6.506-5.939 11.094-14.937 12.275-24.068.694-5.392-.26-12.718-3.961-16.932-1.031-1.17-2.238-2.07-3.604-2.68a946.824 946.824 0 0 0 19.806-11.273c10.095-5.912 15.859-18.221 17.101-27.799.82-6.322-.832-12.885-4.202-16.723zM373.43 189.288c-9.165 8.839-18.244 17.761-27.458 26.532a139.031 139.031 0 0 1 8.801-11.874c2.137-2.582 4.61-5.261 7.281-7.927 5.306-4.414 10.977-8.404 16.881-12.014-.501.479-1.003.955-1.502 1.433a30.244 30.244 0 0 0-4.003 3.85zm-50.417 47.56c5.092-14.044 11.727-27.456 20.229-39.73 4.226-3.86 8.706-7.434 13.376-10.769-13.507 14.304-24.225 30.917-31.967 49.055-.548.48-1.09.965-1.638 1.444zm379.116-68.771c.648.541 1.298 1.083 1.938 1.635a3.043 3.043 0 0 0-1.192-.417c-.25-.406-.493-.816-.746-1.218zm12.617 148.36c.521 1.168 1.028 2.344 1.543 3.517-1.319.002-2.95.009-4.763.018a87.504 87.504 0 0 0 3.22-3.535zm16.792-115.327a13.243 13.243 0 0 0-.683 4.306c.021 2.156.118 4.301.274 6.433-6.727-14.738-15.971-28.378-25.883-41.081-.032-.041-.063-.07-.097-.108 9.973 8.748 18.872 18.851 26.389 30.45zm-424.369 18.488a49.58 49.58 0 0 1 .372-2.157c.209-1.122-.105.293.386-1.565 1.505-5.695 3.722-9.886 6.662-14.164 3.89-5.655 7.41-9.276 12.797-14.091 7.152-6.391 15.104-11.959 23.535-16.888a179.494 179.494 0 0 0-10.101 12.046c-13.396 11.278-25.157 24.329-33.924 39.532-.02.033-.038.066-.056.099.088-.939.196-1.877.329-2.812zm114.235 51.917l3.088-1.379.154.378c-1.082.332-2.166.663-3.242 1.001zm103.681-6.058c4.693 2.579 9.284 5.352 13.785 8.204a620.739 620.739 0 0 1 5.409 3.468c-6.763-2.976-13.096-6.042-18.975-9.316-.029-.808-.11-1.59-.219-2.356zm18.711 153.493c9.715-7.347 18.797-14.889 27.361-22.719a311.03 311.03 0 0 0 16.032 3.311 2951.395 2951.395 0 0 0-43.393 19.408z" fill="#D8724A"/><path fill="#AF543F" d="M501.528 650.139c10.729 1.733 21.036.742 31.474-2.123 5.462-1.5 10.622-3.928 15.564-6.656.356-.195.891-.553 1.514-.996.758-.266 1.516-.531 2.266-.814 7.443-2.815 12.267-5.925 15.112-11.875.488-.766.943-1.549 1.275-2.408 1.18-3.036 4.114-12.943-2.265-12.834-3.807.066-6.429 2.736-9.133 5.176-22.463 6.82-48.554 7.218-67.402-8.466-5.415-4.51-12.067 2.545-14.445 10.179a64.088 64.088 0 0 1-13.288-15.448c-2.064-3.353-7.042 4.997-5.88 7.615 8.441 18.998 23.943 35.215 45.208 38.65zm65.853 81.681c-17.195 9.519-37.104 13.227-56.627 12.574-19.466-.646-41.25-5.384-53.111-22.186-3.674-5.204-9.839 7.726-8.678 11.24 15.319 46.439 75.264 51.867 113.804 32.568 8.08-4.047 13.167-13.375 14.337-22.109.713-5.307-1.695-16.528-9.725-12.087z"/><path d="M457.158 606.136c16.365 13.017 33.125 21.878 53.958 24.886 17.653 2.549 41.611-.353 54.838-13.21 1.907-1.856 7.349-14.853.661-14.06-8.02.951-15.589 6.491-23.385 8.998-8.805 2.83-18.375 3.264-27.541 2.961-18.933-.626-38.802-7.425-55.819-15.395-2.249-1.051-4.511 4.388-2.712 5.82zM227.796 474.311c6.28-7.724 14.695-13.626 24.943-13.758 11.299-.142 13.804 9.88 18.084 18.081 1.953 3.746 6.262-4.539 6.42-5.923 1.436-12.6-4.913-25.15-18.881-25.397-13.684-.244-25.988 11.324-33.214 21.737-1.885 2.721-.957 9.693 2.648 5.26z"/><path d="M277.687 467.942c-8.146-.335-18.361-.418-24.122 6.399-5.702 6.743-4.579 16.949.311 23.838 2.095 2.953 5.526-4.377 4.899-6.345-.893-2.802-5.055-10.17-2.052-12.767 4.786-4.136 13.072-4.249 19.004-4.562 2.377-.126 4.892-6.444 1.96-6.563zM785.7 482.846c3.037-8.114 9.26-13.703 17.757-15.524 7.659-1.643 13.563 2.292 20.646 3.991 4.454 1.066 9.206-7.959 6.3-11.305-7.307-8.418-20.523-7.973-30.032-3.899-10.702 4.586-17.453 16.224-20.33 26.965-1.742 6.512 4.068 4.026 5.659-.228z"/><path d="M782.503 488.633c4.105-1.569 11.673-4.31 14.858.333 1.108 1.616.436 4.027.146 5.764-.56 3.369-2.085 6.487-2.667 9.894-.475 2.773 1.772 3.603 3.573 1.668 5.342-5.748 9.677-17.585 5.014-24.968-4.449-7.048-15.844-.733-20.688 2.126-1.368.805-2.959 6.224-.236 5.183zM435.59 723.653c-7.453 23.626-6.08 49.003 11.776 67.595 15.931 16.588 39.812 23.301 62.236 23.029 23.521-.28 47.165-8.341 64.169-24.855 8.838-8.581 15.205-20.146 18.358-31.998 2.59-9.74 5.218-28.039-4.479-34.372-3.672-2.401-7.01 6.113-7.405 8.219-1.811 9.668-.414 20.541-3.087 29.327-.799 2.625-1.818 4.47-4.354 8.048-1.047 1.479-4.661 5.041-7.106 6.999-15.156 12.136-35.001 16.808-54.096 17.093-19.21.291-39.336-3.842-54.808-15.746-16.875-12.986-20.239-34.77-16.214-54.522 1.009-4.947-4.157-1.464-4.99 1.183z"/><path d="M436.876 720.353c-55.536.249-118.592.19-155.331 49.428-16.271 21.802-24.874 47.776-29.929 74.235-5.055 26.438-7.453 54.625-4.456 81.337.625 5.565 5.582-1.26 6.025-3.523 9.127-46.767 5.934-99.115 34.444-139.937 32.244-46.171 97.204-38.883 145.579-49.269 3.915-.837 9.439-12.299 3.668-12.271zm150.1 17.081c26.312-2.073 54.466-.779 79.475 8.3 22.521 8.18 39.713 24.073 53.885 42.929 15.104 20.098 24.008 43.298 32.4 66.749 8.544 23.865 15.442 48.613 20.29 73.485 1.469 7.538 11.62-5.167 10.886-10.019-8.021-53.005-17.332-106.387-50.28-150.405-14.519-19.397-35.295-34.325-58.315-41.751-29.415-9.488-59.143-4.109-87.424 6.514-1.072.403-2.823 4.346-.917 4.198z"/><path d="M290.931 868.466c10.265.904 22.268 4.708 26.791 14.898 4.169 9.398 3.967 21.314 3.755 31.397-.245 11.418-1.939 22.816-3.104 34.163-.878 8.541-4.008 22.425 1.318 29.875 5.552 7.767 13.763-9.604 14.311-13.205 1.581-10.425-.329-22.097-.042-32.735.327-12.1.716-24.241-.827-36.277-1.3-10.147-5.103-18.77-12.542-25.866-8.167-7.786-19-6.98-29.171-4.489-.657.163-1.49 2.152-.489 2.239zm27.393-485.95c10.609-10.239 24.95-14.352 38.963-17.593 14.473-3.348 29.931-3.873 44.523-1.026 18.551 3.618 30.422-38.666 14.58-38.249-39.571 1.043-79.988 13.232-102.5 48.043-2.999 4.635-2.576 15.59 4.434 8.825z"/><path fill="#08B5F9" d="M698.263 858.646c.16-.316.291-.62.455-.938.758-1.469 1.646-7.738-1.941-6.003-.949.461-1.865.954-2.779 1.458a3.978 3.978 0 0 0-1.552-.266c-.779.055-1.559.111-2.336.169-4.003.28-6.591 4.071-7.966 8.048-3.201 2.44-6.354 4.969-9.626 7.416-1.689 1.264-3.024 7.372.283 5.285 2.756-1.74 5.436-3.602 8.155-5.372.102 2.808.865 5.484 1.957 8.096-9.378 33.37 8.259 70.292 13.092 104.033 2.26 15.762 16.896-2.825 17.72-10.369 4.119-37.753 4.08-77.899-15.462-111.557zm-206.568-11.23c-20.415 1.057-40.129-9.584-54.576-23.256-6.786-6.42-12.413-13.99-17.3-21.917-4.97-8.066-7.043-18.212-12.751-25.675-.813-1.03-1.878-1.528-3.189-1.487-.703.099-1.354.259-1.975.453-.746-3.914-1.296-7.803-1.561-11.63-.455-6.553-6.84 2.063-6.973 5.237-.211 5.017.049 10.072.583 15.126-1.986 6.263-1.286 14.289.145 19.506 1.536 5.603 3.979 11.062 6.909 16.292 4.242 16.377 9.952 32.363 18.44 47.069 7.024 12.175 17.36 25.077 32.064 27.428 18.122 2.894 32.796-14.016 41.227-27.769 2.111-3.443 8.444-19.867-1.043-19.377z"/><path fill="#AF543F" d="M797.116 462.286c-1.354-12.712-3.272-25.346-5.604-37.908 1.538-22.115 1.914-44.184-1.578-66.166l.475-2.298c.37-1.789-.27-3.888-1.71-4.695a176.066 176.066 0 0 0-2.837-12.126c-1.483-5.443-7.131-.313-9.032 3.046-1.676-17.29-4.964-34.457-9.218-51.182-9.156-36.008-23.925-71.157-44.466-102.181-.469-.708-1.1-1.042-1.788-1.13-3.301-6.522-6.973-12.75-11.215-18.407-.014-16.166-15.07-27.8-27.846-35.759-10.506-6.543-22.013-12.042-33.827-16.369-9.416-8.716-19.652-16.475-31.085-22.504-25.472-13.432-55.589-14.211-83.55-10.314-24.977 3.481-48.965 10.725-72.59 19.16a293.04 293.04 0 0 0-50.694 19.12l-1.405.53c-.307.115-.605.322-.888.592-44.872 22.355-83.77 56.294-109.641 99.598-1.16 1.941-1.818 5.381-.273 7.312 2.103 2.625 5.318-.235 6.778-1.943a314.523 314.523 0 0 1 18.04-19.387 205.262 205.262 0 0 0-8.118 12.246c-16.911 27.606-27.957 59.331-28.9 91.845-.115 3.938 4.893.135 5.039-2.32 2.627-44.018 23.699-87.088 55.049-117.797 15.476-15.159 34.231-26.947 55.219-32.65 24.949-6.782 50.415-1.306 75.087 4.108 1.737.381 3.476.771 5.217 1.165.479.679 1.191 1.104 2.234 1.025.536-.041 1.072-.101 1.608-.151 18.033 4.132 36.208 8.642 54.521 11.504.445.281.995.492 1.668.611 1.979.35 3.98.5 5.999.483 16.032 2.063 32.171 2.655 48.413.411 18.248-2.523 35.802-8.691 54.106-10.833 9.268-1.083 18.583 6.364 27.729 8.187.87.174 1.722 3.429 2.568 3.647 8.252 10.635 15.955 11.551 22.786 22.98 27.033 45.219 37.89 97.272 43.259 149.087 1.773 17.112 3.128 34.227 3.922 51.349-.436 23.865-.489 47.735-.407 71.606-.252 4-.53 8-.869 12.001-1.873 22.127-4.821 44.435-11.044 65.8-6.963 23.903-21.445 44.939-36.32 64.607-16.956 22.421-35.896 45.175-58.27 62.409-.384.297-.775.581-1.163.875-13.479 4.572-26.224 12.427-36.116 21.914a219.77 219.77 0 0 1-32.46 12.393c-21.487 6.314-44.203 8.863-66.485 6.131-3.906-.479-7.572 8.776-2.96 9.403 32.812 4.47 66.887-2.509 97.497-16.445.255 2.187 1.576 3.589 4.775 2.802 10.261-2.528 20.621-8.043 29.348-14.309.364.197.843.235 1.452.049.323 1.119 1.201 1.693 2.962 1.049 3.129-1.146 6.074-2.694 8.833-4.539.737.676 1.753.944 3.07.414 16.727-6.714 30.381-21.177 42.026-34.466 8.911-10.166 16.873-21.287 24.091-32.8 1.979.346 4.835-1.38 6.206-2.961 15.318-17.672 25.391-39.364 33.81-60.986 6.695-17.188 12.338-35.051 16.483-53.135-.024 6.491.144 12.971.601 19.435.312 4.403 4.466 4.443 7.161 1.925 21.102-19.733 17.1-49.047 14.327-75.058zm-387.002-314.28a323.726 323.726 0 0 1 7.259-3.407c.544.713 1.403 1.227 2.673 1.43.74.119 1.48.215 2.22.303-4.076.335-8.127.89-12.152 1.674zm134.698 17.341c-.538.197-1.108.56-1.676 1.038-.552-.086-1.103-.181-1.654-.27a195.25 195.25 0 0 0 3.554-.848l-.224.08zm42.956 1.89c-.168.53-.311 1.299-.368 2.137-2.956.201-5.928.293-8.907.291 3.25-1.705 6.36-3.458 9.268-5.102l1.491-.436a12.085 12.085 0 0 0-1.484 3.11zm-3.537-49.957c1.388.15 2.774.314 4.161.483a432.894 432.894 0 0 0-4.107-.101 3.62 3.62 0 0 0-.054-.382zm-46.747-14.883c1.754-3.605 2.595-7.993-.284-9.05 16.885-1.591 33.841-1.053 50.751 2.73 10.611 2.374 20.47 6.73 29.635 12.347-26.324-5.623-53.282-7.495-80.102-6.027zm94.897 58.629c-1.649.37-3.298.749-4.943 1.129 5.631-2.595 11.271-5.125 17.066-7.056 7.949-.341 16.465-.248 24.486 1.24l.291.341c-12.397-.718-24.866 1.646-36.9 4.346zm97.408 447.248c1.123-3.563 2.465-7.062 3.809-10.461a212.13 212.13 0 0 1 3.419-8.101c2.067-3.177 4.05-6.434 5.911-9.834 2.204-4.025 4.391-8.062 6.549-12.114-5.241 13.775-11.444 27.998-19.688 40.51zm25.636-263.173a646.183 646.183 0 0 0-1.72-13.995c.725 4.52 1.433 9.043 2.119 13.571a10.07 10.07 0 0 0-.399.424zm30.354 172.337c-.366-13.872.311-27.75 1.367-41.621a400.747 400.747 0 0 1 1.448 20.518c.329 7.456-.082 14.697-2.815 21.103z"/><path d="M403.292 762.699c-1.583 23.798 7.487 45.688 23.915 62.758 14.885 15.464 43.882 30.058 65.667 24.698 3.2-.79 8.453-11.141 3.821-12.675-9.843-3.264-20.438-3.305-30.404-6.531-10.102-3.272-19.475-8.546-27.962-14.869-18.47-13.759-30.572-32.672-30.177-56.222.069-4.13-4.712.617-4.86 2.841zm260.143 111.004c2.559 8.826 6.493 17.089 9.646 25.716 3.795 10.383 5.849 21.294 7.91 32.117 4.202 22.061 5.849 44.592 9.146 66.795.162 1.101.438 3.457 1.936 3.771.44.093.884.184 1.325.278 2.754.576 5-2.143 5.957-4.475 3.987-9.729.408-21.102-.851-31.275-1.555-12.567-3.633-25.07-6.109-37.489-2.447-12.259-5.874-24.241-10.726-35.77-3.581-8.516-8.11-17.904-17.445-20.871-.535-.172-.903.812-.789 1.203z"/><path d="M702.467 840.701c-14.48 5.302-27.022 13.809-36.816 25.771-1.634 1.994-3.182 5.01-2.353 7.671 1.062 3.406 4.481.307 5.594-1.223 8.425-11.603 19.777-19.956 32.729-25.919 1.978-.912 4.093-7.488.846-6.3zm77.454-522.995c-2.19-7.043-10.112 5.641-9.157 10.055 16.628 76.868 13.278 181.536-19.504 253.784-31.301 68.984-91.734 119.468-166.128 135.375-83.596 17.877-175.453-5.006-234.981-67.689-60.179-63.371-75.15-152.681-67.47-236.911-3.853-2.188-7.788-4.147-11.877-5.689a551.944 551.944 0 0 0-3.256 30.627c-6.512 83.852 12.103 171.249 70.647 234.333 58.385 62.917 148.388 86.828 231.763 73.133 77.457-12.725 141.821-62.201 180.456-129.674 47.234-82.492 57.675-206.797 29.507-297.344z"/><path d="M735.663 372.472c-8.783-15.683-23.06-28.962-39.865-35.554-16.369-6.421-34.977-9.17-52.491-9.663-16.944-.475-25.438 41.351-11.594 38.821 16.76-3.064 33.524-3.102 50.203.607 16.042 3.565 32.361 7.972 45.226 18.725 5.551 4.641 10.947-8.602 8.521-12.936z"/><path fill="#FFF" d="M609.462 496.668c-53.634 2.51-108.177 6.034-161.477-2.305-3.729-.583-6.529 5.115-6.903 7.965-1.555 11.895 2.843 22.689 9.649 31.957-4.551 8.487-5 18.251 3.753 25.586 10.092 8.457 24.411 12.238 37.576 14.181 7.467 3.456 15.538 5.609 23.937 6.347 37.584 3.299 70.277-23.35 86.875-55.03 3.694-7.055 6.612-14.557 8.971-22.154.595-1.909.872-6.699-2.381-6.547zM486.03 532.616a31.027 31.027 0 0 0 6.628 4.582c-4.616-.584-9.163-1.504-13.529-2.912a73.967 73.967 0 0 1 6.901-1.67zm84.909 2.045c-.367.003-.735.021-1.104.024 1.336-.188 2.671-.356 4.009-.507-.06.557-.131 1.104-.208 1.646-.498-.726-1.355-1.171-2.697-1.163zm-102.777-9.155a42.858 42.858 0 0 1-2.352-2.833c2.882-.063 5.765-.11 8.648-.137a57.499 57.499 0 0 0-6.296 2.97zm-13.157-16.374l-.077-.228c.198.025.398.049.596.072-.174.049-.349.093-.519.156zm141.757 1.91c-7.922-.019-15.842-.163-23.764-.369 9.224-.396 18.451-.803 27.688-1.145a108.074 108.074 0 0 1-1.292 3.135c-.448-.965-1.267-1.619-2.632-1.621zm-137.2 33.341c.291.473.604.933.902 1.4a14.006 14.006 0 0 1-1.401-1.891c.166.166.333.328.499.491z"/><path d="M416.206 480.58c31.711 20.6 72.992 25.363 109.96 25.323 20.364-.022 40.891-2.326 60.759-6.774 17.352-3.885 36.428-9.663 50.983-20.257 2.628-1.912 4.587-10.498-.584-7.713-15.776 8.494-31.672 14.722-49.196 18.721-19.795 4.517-40.085 6.241-60.354 6.479-36.019.425-76.437-4.053-108.093-22.601-2.727-1.598-6.17 5.072-3.475 6.822z"/><path d="M432.24 488.824c-3.583 45.261 24.82 88.839 69.9 99.23 20.737 4.779 44.557.862 63.66-8.058 16.92-7.9 29.868-22.058 38.218-38.554 8.157-16.114 13.495-36.311 13.149-54.429-.028-1.478-1.205-2.636-2.698-2.183-2.163.657-3.389 3.099-3.754 5.153-1.829 10.295-2.761 20.557-5.597 30.678-2.476 8.836-6.013 17.462-10.99 25.195-10.443 16.228-26.713 26.233-45.215 30.868-22.223 5.566-45.743 4.253-66.02-6.813-19.816-10.814-34.405-29.867-41.167-51.234-3.221-10.177-4.313-20.998-3.622-31.627.36-5.522-5.575-1.875-5.864 1.774z"/><path d="M435.65 523.526c25.598 13.129 54.581 20.054 83.229 21.587 29.784 1.595 62.722-3.029 87.771-20.325 2.509-1.731 3.9-9.571-.525-6.939-26.237 15.597-55.908 20.541-86.136 18.978-27.727-1.435-55.886-7.88-80.99-19.87-2.783-1.33-6.083 5.167-3.349 6.569z"/><path fill="#AF543F" d="M325.567 486.028a3.271 3.271 0 0 0-.364-1.003c-.049-.087-.103-.16-.156-.239-1.08-2.302-2.707-4.301-4.828-5.49-7.394-4.148-13.44 6.981-15.579 12.163-.536 1.304-1.173 5.091 1.387 4.485.995 2.509 3.448 4.34 6.45 5.611 6.792 2.876 13.013-.945 13.986-8.162.317-2.34-.009-4.961-.896-7.365zm-4.39 9.833c.152-.28.231-.399.255-.436.004.031.01.045.012.05-.016-.002-.077.039-.267.386zm.273-.952a2.762 2.762 0 0 0-.018.51c-.04.044-.186.202-.414.292-.914.36-1.877.287-2.833.182-.774-.084-1.816-.299-2.893-.643.455-.258.88-.523 1.244-.704l3.34-1.661c.439.166.954.155 1.458-.045.004.03.012.061.016.089.12.738.137 1.564.1 1.98zm38.864-10.037a3.34 3.34 0 0 0-.364-1.004c-.051-.087-.103-.16-.156-.238-1.08-2.302-2.707-4.302-4.828-5.491-7.396-4.148-13.44 6.98-15.579 12.162-.538 1.304-1.175 5.091 1.387 4.485.995 2.509 3.448 4.341 6.45 5.612 6.792 2.875 13.013-.946 13.986-8.163.317-2.337-.009-4.959-.896-7.363zm-4.39 9.833c.152-.28.231-.4.255-.436.004.03.01.046.012.05-.016-.002-.077.038-.267.386zm.273-.952c-.027.3-.025.441-.018.509-.04.045-.186.202-.414.292-.914.361-1.877.287-2.833.183-.774-.085-1.816-.3-2.893-.644.453-.257.878-.523 1.244-.705l3.34-1.661c.439.166.954.156 1.458-.044.004.028.012.059.016.088.12.739.137 1.566.1 1.982zm38.575-8.881a3.287 3.287 0 0 0-.364-1.004c-.049-.087-.103-.16-.156-.238-1.08-2.302-2.707-4.302-4.828-5.491-7.394-4.148-13.44 6.98-15.579 12.162-.536 1.304-1.175 5.091 1.387 4.485.995 2.509 3.449 4.341 6.45 5.612 6.792 2.875 13.013-.946 13.986-8.163.317-2.337-.009-4.959-.896-7.363zm-4.39 9.833c.152-.28.231-.4.255-.436.004.03.01.046.012.05-.016-.002-.077.038-.267.386zm.273-.952c-.028.3-.026.441-.018.509-.04.045-.186.202-.414.292-.914.361-1.877.287-2.833.183-.773-.085-1.816-.3-2.893-.644.455-.257.88-.523 1.245-.705l3.339-1.661c.439.166.954.156 1.458-.044.004.028.012.059.016.088.12.739.138 1.566.1 1.982zm-45.706 24.58a3.244 3.244 0 0 0-.364-1.004c-.049-.087-.103-.16-.154-.238-1.08-2.302-2.707-4.302-4.828-5.491-7.396-4.148-13.442 6.98-15.579 12.163-.538 1.305-1.175 5.091 1.387 4.485.993 2.509 3.448 4.341 6.45 5.611 6.792 2.876 13.013-.945 13.986-8.162.315-2.339-.012-4.96-.898-7.364zm-4.388 9.833c.15-.28.231-.4.255-.437.004.03.008.045.012.05-.016-.002-.079.039-.267.387zm.272-.952c-.027.3-.025.441-.018.51-.04.044-.186.201-.416.292-.912.36-1.878.286-2.831.183-.774-.085-1.818-.3-2.893-.644.453-.258.878-.523 1.245-.705 1.114-.554 2.228-1.106 3.34-1.661.439.167.954.157 1.458-.044.004.028.01.06.016.088.12.739.137 1.566.099 1.981zm41.018-10.037a3.287 3.287 0 0 0-.364-1.004c-.05-.086-.103-.16-.157-.238-1.08-2.302-2.707-4.302-4.827-5.491-7.394-4.148-13.44 6.981-15.579 12.162-.536 1.306-1.175 5.091 1.387 4.485.995 2.51 3.449 4.342 6.45 5.612 6.792 2.876 13.013-.945 13.986-8.161.316-2.34-.01-4.961-.896-7.365zm-4.391 9.832c.152-.278.231-.399.255-.436.004.03.01.046.012.05-.016-.001-.077.039-.267.386zm.273-.951c-.028.3-.026.441-.018.51-.04.044-.187.202-.414.291-.915.361-1.878.287-2.833.184-.773-.085-1.816-.3-2.893-.645.455-.257.88-.523 1.245-.704 1.114-.554 2.228-1.107 3.339-1.661.439.166.954.156 1.458-.044.004.029.012.059.016.089.12.736.138 1.564.1 1.98zm290.787-38.847a3.28 3.28 0 0 0-.364-1.003c-.05-.087-.103-.162-.156-.24-1.08-2.302-2.707-4.301-4.828-5.49-7.394-4.148-13.439 6.981-15.578 12.162-.536 1.305-1.176 5.091 1.387 4.486.995 2.509 3.448 4.34 6.45 5.611 6.792 2.876 13.013-.944 13.986-8.161.315-2.34-.012-4.961-.897-7.365zm-4.391 9.833c.152-.28.231-.4.255-.437.004.03.011.045.013.05-.017-.001-.078.039-.268.387zm.273-.951a2.903 2.903 0 0 0-.019.509 1.143 1.143 0 0 1-.413.292c-.914.36-1.878.286-2.833.182-.774-.084-1.816-.298-2.893-.643.455-.258.88-.523 1.244-.705l3.34-1.661c.439.167.954.156 1.458-.044.004.03.012.061.016.089.12.738.137 1.564.1 1.981zm38.863-10.038a3.304 3.304 0 0 0-.362-1.003c-.052-.087-.104-.16-.156-.239-1.08-2.301-2.707-4.301-4.828-5.49-7.396-4.148-13.441 6.98-15.578 12.162-.539 1.304-1.176 5.091 1.387 4.485.995 2.509 3.448 4.34 6.45 5.612 6.792 2.875 13.013-.946 13.986-8.163.315-2.339-.012-4.961-.899-7.364zm-4.389 9.833c.152-.28.231-.399.255-.436.004.031.008.045.013.05-.017-.002-.08.039-.268.386zm.273-.952a2.904 2.904 0 0 0-.019.509 1.114 1.114 0 0 1-.415.292c-.912.361-1.878.287-2.831.182-.773-.084-1.818-.299-2.893-.643.453-.258.878-.523 1.244-.704l3.34-1.661c.439.166.953.156 1.458-.045.004.029.012.06.016.089.12.738.138 1.566.1 1.981zm38.576-8.881a3.334 3.334 0 0 0-.364-1.003c-.052-.087-.103-.16-.156-.239-1.08-2.301-2.706-4.301-4.827-5.49-7.396-4.148-13.44 6.98-15.579 12.162-.538 1.304-1.176 5.091 1.387 4.485.995 2.509 3.448 4.34 6.45 5.612 6.792 2.875 13.013-.946 13.986-8.163.316-2.339-.011-4.961-.897-7.364zm-4.391 9.833c.152-.28.231-.399.256-.436.004.031.01.045.012.05-.016-.002-.078.039-.268.386zm.273-.952a2.854 2.854 0 0 0-.018.509c-.04.045-.187.202-.414.292-.914.361-1.878.287-2.833.182-.773-.084-1.816-.299-2.893-.643.453-.258.878-.523 1.244-.704l3.34-1.661c.439.166.954.156 1.458-.045.004.029.012.06.016.089.12.738.138 1.566.1 1.981zm-45.706 24.58a3.264 3.264 0 0 0-.364-1.003c-.05-.087-.103-.161-.154-.239-1.08-2.302-2.707-4.302-4.828-5.49-7.396-4.147-13.441 6.98-15.578 12.162-.539 1.304-1.176 5.091 1.387 4.485.993 2.509 3.448 4.34 6.45 5.612 6.79 2.875 13.011-.945 13.985-8.162.315-2.339-.012-4.961-.898-7.365zm-4.388 9.833c.15-.28.229-.399.255-.437.004.031.008.046.012.051-.016-.002-.08.039-.267.386zm.271-.952a3.42 3.42 0 0 0-.019.509 1.1 1.1 0 0 1-.413.292c-.912.361-1.878.287-2.831.183-.774-.085-1.818-.299-2.893-.644.453-.258.878-.523 1.244-.704l3.34-1.661c.439.166.953.156 1.458-.045.004.029.01.06.016.089.12.738.137 1.565.098 1.981zm41.019-10.037a3.346 3.346 0 0 0-.364-1.005c-.051-.087-.103-.16-.156-.238-1.08-2.302-2.706-4.301-4.827-5.49-7.396-4.148-13.44 6.981-15.579 12.162-.538 1.305-1.176 5.091 1.387 4.485.995 2.51 3.448 4.341 6.45 5.612 6.792 2.876 13.013-.946 13.986-8.162.316-2.338-.011-4.96-.897-7.364zm-4.391 9.832c.152-.279.231-.399.256-.437.004.031.01.046.012.051-.016 0-.077.039-.268.386zm.274-.952c-.027.3-.025.441-.018.51-.04.045-.187.202-.414.292-.914.361-1.877.287-2.833.183-.773-.084-1.816-.3-2.893-.644.453-.257.878-.523 1.244-.704 1.114-.555 2.229-1.107 3.34-1.661.439.166.954.156 1.458-.045.004.03.012.06.017.089.118.738.136 1.565.099 1.98z"/><path d="M279.177 412.888c4.506-40.308 8.447-80.871 15.963-120.756 3.222-17.095 7.184-33.7 12.822-50.884a287.588 287.588 0 0 1 4.109-11.623c1.94-5.159 2.053-5.396 4.268-10.418a216.764 216.764 0 0 1 11.251-21.986c.495-.845 1.001-1.682 1.511-2.518-1.356 2.223.353-.534.53-.812a189.555 189.555 0 0 1 3.232-4.86c2.38-3.48 4.907-6.857 7.525-10.161a176.64 176.64 0 0 1 3.724-4.516c.157-.185 2.293-2.618.713-.839.649-.731 1.311-1.451 1.972-2.171a187.754 187.754 0 0 1 9.023-9.134c12.373-11.737 25.806-20.728 41.828-28.893 40.131-20.451 87.628-28.228 132.288-30.574 21.872-1.149 44.038.086 65.274 5.727 22.461 5.965 43.337 16.63 63.05 28.747 21.305 13.095 41.44 27.739 58.043 46.577 13.821 15.68 24.372 33.713 32.051 53.106 10.775 27.211 15.9 56.275 20.332 85.072 2.811 18.26 5.008 36.547 6.391 54.977 1.454 19.375 1.657 39.905-4.304 58.596-.768 2.406-1.124 6.47 1.623 7.869 3.435 1.75 7.273-2.552 8.517-5.252 6.547-14.213 10.424-29.401 11.078-45.059.653-15.614-.647-31.178-2.078-46.714-2.289-24.856-6.122-49.673-11.051-74.148-8.573-42.582-24.05-83.026-54.529-114.856-17.804-18.592-39.417-33.315-61.444-46.42-19.8-11.779-40.792-21.21-63.241-26.591-21.914-5.253-44.589-5.765-66.978-4.232-25.575 1.751-51.283 5.569-76.188 11.665-38.11 9.328-74.827 25.809-103.987 52.476-25.869 23.656-43.515 54.851-55.254 87.58-21.048 58.685-24.372 122.683-28.876 184.297-.204 2.793.863 6.51 4.49 5.409 3.487-1.061 5.938-5.244 6.322-8.681z"/><path d="M396.062 406.659a33.664 33.664 0 0 0-1.037-1.272c-4.118-6.226-10.91-10.524-18.741-11.259-4.735-1.02-9.646-.918-14.268.661-3.767 1.288-7.49 3.673-9.843 6.921-10.522 7.646-12.481 22.424-4.244 33.468 10.31 13.824 29.516 14.605 42.938 5.161 11.592-8.153 13.731-22.555 5.195-33.68zm-46.833 6.936a24.836 24.836 0 0 0-.502 2.933 9.897 9.897 0 0 1 .502-2.933zm344.269-13.975a33.606 33.606 0 0 0-1.036-1.271c-4.118-6.225-10.91-10.524-18.741-11.259-4.734-1.02-9.646-.919-14.267.661-3.768 1.287-7.491 3.672-9.844 6.92-10.521 7.647-12.48 22.424-4.244 33.469 10.311 13.823 29.517 14.605 42.938 5.161 11.591-8.154 13.73-22.554 5.194-33.681zm-46.834 6.936a24.888 24.888 0 0 0-.502 2.934 9.941 9.941 0 0 1 .502-2.934z"/><circle fill="#FFF" cx="378.163" cy="413.148" r="10.067"/><circle fill="#FFF" cx="659.875" cy="406.885" r="10.066"/></svg>