<svg xmlns="http://www.w3.org/2000/svg" xmlns:xlink="http://www.w3.org/1999/xlink" width="1030" height="1030" viewBox="0 0 1030 1030"><defs><path id="a" d="M1020.377 515.001c0 279.115-226.264 505.377-505.376 505.377-279.113 0-505.377-226.264-505.377-505.377S235.887 9.622 515 9.622c279.113 0 505.377 226.266 505.377 505.379z"/></defs><clipPath id="b"><use xlink:href="#a" overflow="visible"/></clipPath><g clip-path="url(#b)"><circle fill="#EF6100" cx="516.036" cy="517.213" r="505.378"/><path fill="#EA2700" d="M64.592 301.339c65.697-60.767 147.473-101.363 226.166-142.394 40.816-21.281 80.746-43.73 120.539-66.854 43.207-25.11 87.471-49.598 136.054-62.561l-2.865-37.722C469.491 62.96 382.01 118.799 296.631 176.392c-43.967 29.658-87.432 59.996-129.215 92.682-20.033 15.672-39.121 32.311-60.043 46.828-21.762 15.1-44.41 28.884-66.553 43.409-20.461 13.421-40.42 27.7-58.93 43.736-7.092 6.145-11.695 17.171-10.986 26.521.549 7.209 5.932 13.974 13.85 11.2 98.168-34.394 184.33-95.652 268.734-154.941 42.164-29.617 84.252-59.421 128.115-86.495 19.998-12.341 40.242-24.097 59.857-37.073 21.043-13.919 41.816-28.239 62.965-42.001 37.357-24.313 76.478-48.122 120.033-59.315-2.238-11.117-4.479-22.232-6.717-33.351-3.625 4.497-11.99 11.267-18.963 15.919-10.002 6.67-20.648 12.364-31.156 18.178-23.029 12.742-45.092 27.219-67.552 40.936-51.307 31.332-102.533 62.797-153.852 94.112-51.111 31.188-102.328 62.211-153.791 92.816-45.842 27.263-92.238 53.613-137.738 81.449-57.197 34.991-113.604 73.15-161.328 120.578-6.828 6.784-11.734 16.688-10.986 26.521.559 7.365 5.898 13.78 13.85 11.198 51.945-16.859 99.748-43.608 147.504-69.638 50.273-27.404 102.16-51.78 153.584-76.934 106.723-52.204 213.545-104.201 320.025-156.899 43.588-21.572 87.41-42.348 128.738-68.076 36.969-23.018 73.674-48.996 115.463-62.538-.953-12.575-1.908-25.146-2.863-37.721-32.516 34.457-76.607 55.146-117.221 78.288-50.043 28.516-97.457 62.321-145.693 93.778-48.672 31.741-97.557 62.7-143.463 98.404-36.258 28.201-71.635 58.477-113.408 78.263-71.922 34.064-163.474 55.527-201.33 135.064-3.076 6.463-5.365 14.316-2.91 21.4 1.744 5.041 7.496 9.096 12.932 6.59C147.67 523.179 241.1 464.948 335.034 407.693c46.518-28.354 93.287-56.325 141.229-82.228 49.123-26.541 100.222-49.029 149.865-74.543 51.182-26.305 101.262-54.686 151.102-83.427-.984-12.997-1.971-25.993-2.959-38.989-89.506 66.279-184.82 124.035-280.238 181.279-95.314 57.186-189.699 115.122-280.916 178.699C148.346 533.63 70.699 560.08 20.879 624.455c-8.811 11.385-11.102 42.221 10.984 31.383 208.227-102.161 408.941-218.58 611.71-330.955 81.105-44.949 162.598-89.213 245.033-131.684l-2.959-38.989C684.77 269.934 489.944 395.938 300.086 528.915 223.16 582.794 147.082 637.886 71.74 693.958c-9.189 6.834-16.062 17.879-15.162 29.76.736 9.699 9.592 15.234 18.121 9.229 43.633-30.725 91.014-55.527 138.016-80.6 48.865-26.062 96.42-53.965 143.453-83.205 97.824-60.818 193.597-125.836 295.82-179.224 79.943-41.755 155.398-91.653 236.617-131.035l-7.131-35.752c-155.031 139.627-335.512 246.817-513.14 354.632-93.445 56.721-186.838 113.711-276.604 176.168-9.318 6.482-16.043 18.146-15.16 29.758.801 10.539 9.316 14.158 18.119 9.23 202.516-113.373 408.094-221.234 609.109-337.292 82.609-47.694 164.385-96.848 244.781-148.196-3.662-10.461-7.324-20.92-10.984-31.381-4.996 7.511-10.377 14.716-16.098 21.688-5.041 6.146-10.836 12.267-18.377 19.708-14.123 13.939-29.658 26.809-45.088 38.273-35.398 26.297-73.572 48.73-112.082 70.107-37.449 20.789-75.582 40.312-113.115 60.945-42.605 23.422-83.6 49.658-124.55 75.826-65.342 41.754-130.41 84.797-198.977 121.15-60.084 31.859-124.111 59.162-173.205 107.688-6.838 6.764-11.73 16.707-10.986 26.523.621 8.162 5.797 12.764 13.852 11.197 27.105-5.266 51.928-18.041 75.645-31.758 24.854-14.379 49.684-28.811 74.537-43.193a10577.434 10577.434 0 0 0 152.23-89.771c49.531-29.771 100.037-57.949 150.666-85.822 50.375-27.729 102.133-51.929 153.664-77.321 67.275-33.148 131.117-72.729 197.158-108.185l-10.984-31.383c-5.504 7.192-9.137 10.836-17.041 18.057-7.752 7.076-15.979 13.312-24.516 19.367-18.807 13.338-38.715 25.094-58.617 36.699-43.186 25.18-85.119 51.793-126.225 80.276-91.949 63.714-180.73 131.845-272.464 195.851-62.607 43.68-127.02 85.396-195.645 119.062l2.959 38.99c48.338-27.514 98.725-51.109 148.234-76.385 25.084-12.807 49.887-26.168 74.096-40.57 24.189-14.391 46.896-30.896 69.81-47.201 23.254-16.545 46.578-32.994 70.564-48.467 23.51-15.166 48.084-28.535 72.547-42.078 48.809-27.02 97.926-53.479 146.338-81.209 61.396-35.17 121.518-72.686 178.057-115.307-3.66-10.461-7.322-20.922-10.984-31.382-59.98 69.826-146.117 119.632-225.496 166.939-91.051 54.269-181.008 110.706-269.408 169.204-41.195 27.26-81.385 55.869-121.203 85.092-39.395 28.912-78.961 57.73-121.234 82.346-9.594 5.584-15.992 18.822-15.16 29.76.84 11.066 9.201 13.475 18.119 9.23C355.577 881.943 450.72 822.939 545.86 764.478c47.797-29.371 95.674-58.625 144.387-86.461 47.674-27.236 96.568-52.016 145.609-76.668 75.025-37.713 150.203-76.055 218.389-125.428l-7.131-35.751c-33.609 33.213-76.09 55.599-117.895 76.72a4036.445 4036.445 0 0 0-133.637 70.689c-99.297 54.92-199.127 109.008-295.386 169.178-39.695 24.814-79.178 50.248-116.168 78.982-32.521 25.264-64.553 53.299-102.398 70.432-8.955 4.053-15.02 11.32-17.994 20.764-1.854 5.885-3.031 24.238 8.273 22.727 45.447-6.074 87.678-22.926 128.725-42.801 43.947-21.275 85.809-46.648 127.57-71.857 92.4-55.777 188.994-103.604 284.818-153.168 30.957-16.012 61.801-31.99 92.062-49.283 29.73-16.988 59.459-33.979 89.188-50.967 9.619-5.496 15.986-18.893 15.162-29.759-.805-10.575-9.309-14.111-18.121-9.229-104.188 57.711-206.854 118.117-308.768 179.746-51.145 30.93-102.086 62.188-152.945 93.585-44.667 27.574-85.541 60.625-129.552 89.188-21.203 13.758-43.262 26.518-67.016 35.328l-1.309 40.959C503.59 874.062 701.895 820.999 881.025 728.062c47.312-24.547 93.092-52.107 136.094-83.643 9.217-6.758 16.057-17.939 15.16-29.76-.76-9.986-9.486-14.867-18.119-9.23-189.895 124.01-375.484 255.295-574.296 364.99a2766.565 2766.565 0 0 1-59.693 31.967l7.133 35.754c73.348-58.311 162.888-92.969 248.277-129.314 44.957-19.135 89.82-38.74 132.914-61.834 22.314-11.959 44.492-24.162 66.002-37.533 23.461-14.584 46.566-29.752 71.246-42.24l-14.291-26.021c-3.254 5.631 2.838-4.268-.768 1.27-1.092 1.674-2.266 3.293-3.438 4.908-1.197 1.658-2.473 3.258-3.742 4.857-.225.285-4.668 5.494-1.594 2.025-6.42 7.244-13.553 13.844-20.877 20.158-14.344 12.363-31.18 23.662-48.141 34.453-35.631 22.668-73.098 42.25-109.025 64.42-39.857 24.596-76.527 54.363-114.17 82.133-42.477 31.336-86.007 61.83-133.523 85.105-8.504 4.164-17.23 7.84-26.043 11.295.953 12.572 1.908 25.146 2.865 37.721 61.736-53.27 143.855-80.492 220.31-108.336 80.787-29.418 162.883-61.465 226.773-120.971 7.469-6.955 14.516-14.354 21.266-22.004 7.164-8.119 13.979-19.857 10.072-31.133-3.469-10.01-15.477-8.066-21.377-1.381-114.229 129.438-307.648 132.047-443.064 231.178a404.904 404.904 0 0 0-25.289 20.133c-7.098 6.125-11.693 17.184-10.986 26.521.529 6.965 5.992 14.281 13.852 11.197 97.134-38.068 176.128-109.004 260.492-168.246 66.98-47.033 147.924-76.377 205.264-136.568 10.396-10.916 19.23-22.635 26.766-35.684 7.1-12.287 4.061-35.307-14.291-26.021-23.682 11.984-45.959 26.396-68.422 40.475-22.414 14.051-45.566 26.729-68.828 39.299-42.021 22.707-85.975 41.566-129.891 60.244-90.248 38.377-182.23 75.838-259.648 137.379-7.225 5.744-11.672 17.469-10.986 26.521.82 10.785 9.26 13.842 18.121 9.23 201.62-104.906 388.61-234.82 577.835-360.033a11056.22 11056.22 0 0 1 56.154-36.924l-2.959-38.99c-164.072 120.32-362.512 176.992-545.046 261.855-48.146 22.383-95.297 46.992-140.35 75.131-8.23 5.139-13.766 14.977-14.994 24.479-1.041 8.055 3.029 20.432 13.686 16.479 48.652-18.045 91.168-48.992 132.91-79.127 45.076-32.543 91.927-61.576 139.312-90.627 101.836-62.436 204.242-123.967 307.943-183.264a7351.688 7351.688 0 0 1 86.65-48.766c-.984-12.996-1.971-25.994-2.959-38.988-51.547 29.457-102.699 59.619-155.438 86.898l-161.336 83.449c-43.93 22.723-87.301 45.754-129.695 71.244-41.771 25.119-83.296 50.701-126.523 73.279-41.221 21.529-86.023 41.922-132.549 48.141a226098.1 226098.1 0 0 0-9.721 43.49c47.461-21.484 85.908-55.805 127.178-86.811 44.623-33.523 92.951-62.742 140.677-91.576 96.971-58.588 197.004-111.869 295.91-167.064 73.6-41.076 157.645-70.725 218.6-130.964 6.844-6.76 11.734-16.708 10.988-26.521-.729-9.591-9.635-15.373-18.119-9.229-88.588 64.145-188.592 109.527-285.451 159.373-99.426 51.166-193.672 111.625-289.093 169.73-73.312 44.645-147.525 88.053-225.084 124.969l2.959 38.99c49.188-28.641 94.676-62.945 140.543-96.504 46.479-34 94.139-66.236 142.511-97.467 87.035-56.191 175.352-110.047 263.912-163.752 74.691-45.295 149.066-94.295 206.426-161.075 5.67-6.597 9.146-18.316 6.219-26.761-2.553-7.37-11.105-9.217-17.203-4.62-89.627 67.563-188.064 121.632-286.238 175.511-49.33 27.072-98.406 53.916-144.789 85.881-23.352 16.09-46.289 32.775-69.5 49.068-23.09 16.205-47.426 30.418-72.158 43.965-61.564 33.727-125.932 62.053-186.961 96.791-9.623 5.477-15.984 18.906-15.16 29.76.834 10.973 9.219 13.596 18.119 9.23 98.893-48.512 189.043-113.176 277.8-177.873 89.326-65.107 177.656-132.873 271.783-191.007 55.477-34.265 120.369-62.552 160.975-115.647 5.391-7.048 9.266-17.969 6.219-26.763-2.84-8.196-10.652-8.139-17.203-4.62-49.322 26.479-97.432 55.121-146.602 81.871-49.908 27.152-102.033 49.65-152.422 75.84C537.59 565.519 438.344 626.222 337.975 685.06a11479.568 11479.568 0 0 1-97.148 56.283c-30.904 17.713-60.723 37.979-96.279 44.889.953 12.572 1.908 25.146 2.865 37.721 33.756-33.367 76.162-55.738 118.041-77.182 45.688-23.389 90.238-48.037 134.127-74.68 87.6-53.174 171.681-111.857 262.07-160.352 54.957-29.484 110.545-57.98 162.961-91.898 49.711-32.166 98.854-70.181 131.994-120.016 5.023-7.557 9.406-17.564 6.217-26.762-2.699-7.791-10.854-8.675-17.203-4.621-195.874 125.101-399.874 236.655-603.805 347.893-83.529 45.561-167.062 91.117-250.084 137.596l2.959 38.988c170.951-118.941 354.398-218.406 528.242-332.895 94.264-62.08 185.904-128.777 269.846-204.379 7.025-6.327 11.709-17.035 10.988-26.521-.836-11.01-9.213-13.55-18.119-9.23-51.248 24.849-100.297 53.832-149.525 82.396-49.635 28.8-100.664 55.019-150.33 83.749-99.656 57.645-195.21 122.086-293.779 181.535-72.496 43.725-150.877 77.518-220.271 126.385.984 12.996 1.973 25.992 2.959 38.988 185.012-137.684 374.572-269.338 569.658-392.373 80.434-50.727 161.85-99.902 244.248-147.373 9.605-5.535 15.986-18.861 15.16-29.76-.82-10.815-9.25-13.799-18.119-9.229-206.177 106.22-406.214 223.748-609.962 334.452-81.457 44.258-163.553 87.353-246.783 128.185l10.984 31.383c25.777-33.307 66.305-56.533 103.789-77.646 19.877-11.199 39.891-22.157 59.18-34.356 21.947-13.881 42.736-29.654 64.246-44.203 92.357-62.464 188.979-118.262 284.289-176.013 77.076-46.703 153.375-94.857 225.838-148.517 9.197-6.81 16.061-17.9 15.162-29.76-.793-10.436-9.346-14.29-18.121-9.229-48.863 28.18-97.98 55.93-148.08 81.867-49.613 25.688-100.764 48.179-150.023 74.562-96.332 51.593-187.564 112.021-281.984 166.92-45.945 26.715-92.727 52.251-141.018 74.497 3.338 9.33 6.68 18.662 10.023 27.99a166.06 166.06 0 0 1 2.938-5.881c.275-.53 3.928-6.72 1.068-2.127 2.277-3.657 4.846-7.124 7.492-10.519.168-.216 4.738-5.591 1.715-2.197 1.436-1.612 2.949-3.157 4.455-4.703 3.553-3.637 7.365-7.009 11.248-10.285 4.771-4.025 12.174-9.079 19.404-13.619 8.459-5.309 17.279-10.026 26.193-14.511 34.469-17.342 71.242-29.699 106.113-46.215 43.148-20.439 79.836-52.666 117.23-81.818 44.832-34.949 93.141-64.874 140.709-95.896 48.039-31.33 95.283-64.804 145.126-93.205 42.926-24.461 88.732-46.937 123.102-83.359 6.684-7.084 11.75-16.467 10.986-26.521-.559-7.366-5.898-13.776-13.852-11.199-49.908 16.174-93.238 47.806-137.598 74.86-48.914 29.833-102.049 53.269-153.392 78.592-106.676 52.613-213.652 104.618-320.469 156.94-43.396 21.257-86.619 42.541-129.029 65.714-40.359 22.048-80.936 43.731-124.824 57.979.955 12.574 1.91 25.146 2.863 37.722 72.182-71.732 163.5-120.634 250.486-171.761 103.369-60.754 205.492-123.592 307.752-186.184 31.838-19.49 63.289-39.892 95.544-58.647 28.137-16.359 57.43-30.229 78.301-56.136 6.781-8.413 13.281-38.49-6.715-33.35-47.429 12.188-90.468 38.452-131.139 64.922-21.107 13.74-41.834 28.054-62.84 41.949-19.621 12.977-39.934 24.667-59.938 37.012-88.902 54.875-170.566 120.623-260.035 174.661C76.088 360.719 34.5 382.364-9.664 397.84c.953 12.572 1.908 25.147 2.863 37.721 39.102-33.88 85.59-57.931 127.508-87.985 21.176-15.182 40.631-32.546 61.217-48.488 20.627-15.977 41.773-31.276 63.117-46.279 86.076-60.504 176.02-115.53 257.791-181.999 18.234-14.82 35.916-30.312 52.962-46.484 6.924-6.571 11.721-16.852 10.986-26.521-.586-7.715-5.842-13.337-13.852-11.199-49.302 13.154-94.82 37.832-138.794 63.142-40.957 23.574-81.775 46.956-123.684 68.825-82.873 43.245-167.967 86.252-237.164 150.254-7.748 7.166-13.723 20.591-10.07 31.133 3.689 10.637 15.029 7.252 21.376 1.379z"/></g><path fill="#2F61DD" d="M494.858 65.081c8.136-5.776 19.977-5.66 29.483-4.918 10.338.807 22.728 3.284 30.926 10.125l5.867-11.514c-19.671-.238-39.17-3.855-58.674-6.071l-.375 11.205c6.333-6.076 14.749-8.529 23.401-8.329 4.477.104 8.771 1.203 12.87 2.95 4.681 1.994 7.906 5.516 12.027 8.288 4.678 3.146 8.507-7.499 6.637-10.741-5.334-9.248-18.83-13.146-28.784-13.413-10.932-.294-21.635 4.215-29.459 11.729-2.217 2.129-5.953 10.576-.375 11.205 19.55 2.203 39.068 5.678 58.798 5.677 5.069 0 9.123-8.875 5.009-12.22-9.264-7.533-22.504-10.102-34.119-10.8-12.03-.723-25.507 1.066-34.686 9.542-2.211 2.043-3.054 10.486 1.454 7.285zm-141.711 601.42c-13.707-23.325-29.008-45.664-42.318-69.221-.098-.17-.855-1.549-1.164-2.102a260.352 260.352 0 0 1-2.021-3.889c-1.41-2.775-2.732-5.592-4.018-8.427-2.637-5.826-4.92-11.806-6.943-17.868-2.146-6.434-4.008-12.943-5.535-19.552-.033-.141-.58-2.725-.646-2.956a246.384 246.384 0 0 1-.922-5.219c-.498-2.978-.822-5.969-1.537-8.91a45.034 45.034 0 0 1-.545-2.429c-.039-.224-.135-.723-.291-1.533-.658-3.563-1.346-7.167-4.941-8.998-4.578-2.333-10.494.608-13.668 3.994a349.037 349.037 0 0 0-7.473 8.234c-4.42-2.701-10.607.193-14.012 3.662-8.645 8.796-15.154 18.801-21.273 29.453-2.295 3.997-4.506 8.042-6.836 12.021a1.925 1.925 0 0 0-.08.131c-.646 1-1.309 1.99-1.982 2.971-1.389 2.029-2.889 3.984-4.443 5.888-2.896 3.544-5.172 8.576-5.871 13.606a30.866 30.866 0 0 0-.576 1.643 27.582 27.582 0 0 0-.904 3.949c-3.316 2.105-6.82 3.861-10.441 5.371-6.346 2.646-10.605 8.98-11.482 15.76-.711 5.498 1.771 11.287 8.156 9.82 11.477-2.637 21.73-7.275 30.758-13.793 7.936 1.133 16.014.81 24.217 1.152-.15.619-.297 1.24-.451 1.858a189.67 189.67 0 0 1-4.275 14.465 138.37 138.37 0 0 1-1.824 5.029c.236-.712-1.715 3.979-2.203 4.974a93.737 93.737 0 0 1-2.975 5.537l-.004.006a66.87 66.87 0 0 1-1.752 2.516 51.265 51.265 0 0 1-1.605 2.084c-.307.32-.623.633-.943.939-1.402 1.149-2.805 2.295-4.203 3.445-3.699 3.033-6.418 8.097-7.521 13.164-3.451 3.928-5.688 9.371-6.299 14.095-.67 5.173.74 11.927 6.992 12.487 19.543 1.75 38.77 5.734 58.266 7.859 21.182 2.311 42.418.559 61.992-8.299 11.455-5.182 20.647-20.923 13.596-32.917zm-43.277 1.463c1.254 1.748 2.516 3.494 3.775 5.24a98.37 98.37 0 0 1-5.5.304 37.849 37.849 0 0 0 1.725-5.544z"/><path fill="#FFE5B8" d="M289.637 449.234c-11.605-11.041-29.092-25.684-46.502-18.712-19.562 7.835-29.939 29.815-31.662 49.824-2.109 24.517 7.967 72.821 42.721 63.088 14.254-3.994 25.637-16.944 33.869-28.495 5.719-8.02 11.635-22.658 4.41-31.68-7.189-8.975-19.465.309-24.191 6.94a110.287 110.287 0 0 1-4.416 5.793c-2.801 3.417 4.035-4.421 1.146-1.313a55.475 55.475 0 0 1-2.098 2.103 45.964 45.964 0 0 1-2.057 1.842c-2.799 2.406 4.551-3.371 1.662-1.307-1.223.877-2.529 1.616-3.875 2.286 6.221-3.102 2.053-.989.154-.528-2.637.641 4.617-.483 1.973-.232-.562.054-1.129.045-1.695.034-1.656-.031-5.521-1.279.184.379-1.223-.356-2.373-.935-3.471-1.571-3.551-2.057.338.524-.029.195-.896-.799-1.697-1.704-2.471-2.625-.816-.974-1.539-2.022-2.232-3.085a36.397 36.397 0 0 1-1.025-1.697c-1.365-2.346 2.223 4.409.49.805-1.242-2.59-2.201-5.311-3.023-8.062a64.389 64.389 0 0 1-1.105-4.328c-.709-3.143.943 5.023.373 1.848a76.86 76.86 0 0 1-.453-2.982c-.398-2.961-.561-5.948-.561-8.933-.002-3.373-.248 5.929-.088 2.587.035-.717.096-1.429.156-2.141.117-1.384.318-2.76.555-4.132.791-4.642-1.846 6.871-.26 1.418a35.36 35.36 0 0 1 .596-1.798c1.152-3.268-2.965 6.93-1.561 3.807 2.367-5.271-2.293 3.318-1.441 2.069 2.926-4.309-4.959 4.718-1.129 1.343-5.436 4.786-4.281 3.188-2.66 2.135 1.297-.841 3.893-1.811-2.59 1.087.986-.44 2.041-.698 3.096-.894-6.084 1.128-2.109.317-.205.458.648.048 1.289.16 1.926.272 2.469.427-4.301-1.344-.512-.108 3.352 1.093 6.459 2.88 9.406 4.778 1.852 1.191 3.609 2.523 5.342 3.879-3.201-2.504.148.152.652.593 1.371 1.189 2.686 2.433 4 3.682 8.277 7.876 18.604.613 24.191-6.938 5.109-6.904 12.49-23.995 4.41-31.684z"/><path fill="#61E9FF" d="M768.273 928.653c-8.262-33.363-22.08-65.484-41.148-93.656a219.028 219.028 0 0 0-4.27-8.275c-.205-6.26-2.176-11.795-7.389-12.689-4.713-7.572-9.773-14.848-14.986-21.759-27.422-36.354-64.297-60.354-109.061-69.296-45.975-9.187-94.078-1.613-139.589 6.637-40.672 7.371-84.49 12.277-118.562 37.772-11.973 8.958-21.611 19.546-29.529 31.256-5.508 5.454-10.645 11.329-15.324 17.661a143.036 143.036 0 0 0-2.715 3.812c-9.74 11.904-19.123 24.127-28.863 35.855-6.221 7.486-11.312 23.059-4.41 31.681 2.059 2.569 4.434 3.649 6.9 3.755-1.23 8.915-1.893 17.934-2.062 26.957-1.902 3.398-2.908 7.309-2.213 10.357-3.1 5.51-4.061 12.744.43 15.785.949.643 1.906 1.271 2.861 1.899.85 3.81 3.256 4.631 5.982 3.819.412.254.826.504 1.24.758 1.553 3.18 4.381 5.279 8.994 5.26 11.074 6.188 22.564 11.611 34.342 16.392a27.25 27.25 0 0 0 .055 2.794c.633 8.337 6.045 13.484 14.412 11.654a175.9 175.9 0 0 0 14.83-3.953c19.826 6.235 40.123 11.049 60.322 14.996 44.629 8.725 91.027 12.961 136.447 14.23 55.568 1.555 143.266-4.331 185.113-49.093a587.125 587.125 0 0 0 38.561-15.702c7.013-3.143 11.523-11.272 9.632-18.907zM316.01 941.554c10.066-5.43 19.707-11.704 28.904-17.967 1.412-.961 2.801-1.951 4.201-2.926-9.129 7.393-17.777 15.289-25.725 23.863a205.805 205.805 0 0 1-7.38-2.97zm217.912-183.871c-10.289 4.625-20.328 9.85-30.167 15.393 3.998-4.51 7.098-9.734 8.746-15.506 7.149-.114 14.294-.098 21.421.113zm75.295 12.807c-11.008 6.839-22.168 13.415-33.377 19.901 4.025-7.393 7.447-15.168 10.104-23.396.311-.967.574-2 .783-3.068 7.572 1.734 15.074 3.896 22.49 6.563zm69.094 42.698a223.312 223.312 0 0 1 9.783 9.779 432.445 432.445 0 0 0-25.963 12.021 506.287 506.287 0 0 0 11.449-13.821c1.82-2.279 3.449-5.016 4.731-7.979zm-24.241-19.584c-7.518 5.032-14.617 10.601-21.555 16.382 4.789-7.025 9.156-14.337 13.023-21.957a202.182 202.182 0 0 1 8.532 5.575zm-109.599 57.261c-5.746 4.151-11.6 8.213-17.557 12.247-16.117 10.916-32.685 21.117-49.347 31.17 21.433-16.163 43.56-30.135 66.904-43.417zm-89.318 2.275c-26.074 15.885-54.127 30.981-80.158 48.511 11.682-8.917 23.244-17.999 35.031-26.761 22.264-16.547 46.447-30.556 69.953-45.238 14.783-9.234 29.793-18.172 45.441-25.678a344.727 344.727 0 0 1-4.162 3.676c-9.632 8.362-17.292 13.818-28.796 21.693-12.176 8.331-24.715 16.121-37.309 23.797zM285.28 891.464a250.576 250.576 0 0 0 6.104-2.959 200.993 200.993 0 0 0-7.92 10.648c.553-2.545 1.113-5.09 1.686-7.632.042-.022.085-.038.13-.057zm153.976 75.204c8.096-3.577 16.193-7.153 24.273-10.767-4.314 2.969-8.062 7.061-10.822 11.74a974.71 974.71 0 0 1-13.451-.973zm82.4-2.048a196.014 196.014 0 0 0-5.574 5.838c-1.179-.033-2.361-.068-3.542-.104a891.882 891.882 0 0 0 9.116-5.734zM712.92 855.558a223 223 0 0 1 1.943 4.439 376.431 376.431 0 0 0-7.561 3.985 167.227 167.227 0 0 0 5.618-8.424zm6.963 53.675a95.8 95.8 0 0 0 6.213-9.967 87.94 87.94 0 0 1 .537 8.027 307.71 307.71 0 0 0-6.75 1.94z"/><path fill="#FFE5B8" d="M585.395 716.015a43.988 43.988 0 0 0-2.602-1.094c-1.316-4.447-3.176-8.886-5.594-13.332-5.674-10.423-20.359 1.758-24.195 6.939a43.204 43.204 0 0 0-2.211 3.31c-8.438.845-16.742 2.583-24.121 4.415-16.39 4.068-33.65 14.211-41.705 28.953a57.071 57.071 0 0 0-.719-.766c-1.498-1.587-2.762-3.365-3.943-5.192.77 1.128-1.072-2.183-1.221-2.538-.637-1.496-1.092-3.061-1.551-4.616-.076-.253-.139-.463-.197-.651a34.223 34.223 0 0 0-.158-1.305c-.254-1.824-.312-3.674-.377-5.515-.008-.214-.016-.4-.021-.575.055-.338.127-.93.215-1.9.199-2.16.588-4.303.969-6.438 1.607-9.015-3.412-20.438-14.244-17.147-11.555 3.511-18.086 16.552-20.041 27.522-3.357 18.814-1.652 38.982 10.057 54.698 9.674 12.983 26.119 19.03 41.695 20.452 14.885 1.361 29.621-1.685 43.029-7.88a55.071 55.071 0 0 0 6.084-2.196c13.191-5.704 24.539-15.582 31.725-28.053 4.455-5.745 8.271-11.926 11.303-18.402 3.475-7.426 8.246-23.861-2.177-28.689z"/><g fill="#FFE5B8"><path d="M388.186 702.149h-.002l-.004.006z"/><path d="M797.734 342.526c-3.104-3.527-7.594-4.626-12.627-3.029-.623.197-1.25.398-1.871.596v-.107l-.398.235c-15.072 4.813-24.801 3.98-34.355 2.188 1.844-6.064 3.26-12.31 4.316-18.64.875-.026 1.787-.315 2.582-.806 3.426-2.112 5.338-6.376 5.25-10.304-.436-19.352-2.92-38.675-8.133-57.11-1.643-7.813-4.135-15.42-7.869-22.238-5.426-12.581-12.391-24.527-21.156-35.521-22.656-28.408-56.344-45.847-90.873-55.178-19.287-5.211-39.082-8.138-58.994-9.522-23.219-1.616-46.619-1.367-69.562 2.852-3.17.583-6.295 1.266-9.385 2.023-31.477 1.135-62.676 7.283-91.205 21.197a152.694 152.694 0 0 0-7.848 4.124c-14.406 5.43-28.414 11.841-41.654 19.536-18.037 10.485-35.215 24.312-45.166 43.003-7.227 13.567-8.709 28.624-5.178 42.953-3.121 13.429-2.938 27.458.797 41.01-11.697 8.193-22.936 17.124-33.512 27.042-6.297 5.908-10.725 14.597-11.842 23.244-.506 3.912-.256 11.794 3.879 16.5 2.057 2.338 4.812 3.492 8.014 3.363 10.15-.462 20.605-1.697 31.629-3.749-8.846 4.378-16.863 8.938-24.246 13.782-8.744 5.737-15.045 16.01-16.441 26.813-.623 4.819.002 11.989 3.818 16.331 2.031 2.311 4.777 3.534 7.994 3.534 19.842-.084 40.643-1.767 63.203-5.131-25.719 11.072-52.42 23.212-78.311 37.776-9.744 5.48-15.334 17.449-16.553 26.881-.807 6.24.615 12.132 3.801 15.758 3.043 3.465 7.555 4.707 12.752 3.471 21.213-5.031 39.828-9.603 56.928-13.994-4.113 1.759-8.295 3.56-12.475 5.382l-1.1.272-.035.241c-10.867 5.167-18.564 16.012-20.188 28.565-.805 6.25.607 12.157 3.812 15.801 3.053 3.47 7.531 4.698 12.715 3.425l2.229-.558c-.459.237-1.018.474-1.477.712l-.424.057v.061c0 .6-2.111 1.196-3.27 1.793-9.236 4.783-15.145 17.156-16.408 26.911-.807 6.255.631 12.175 3.85 15.837 3.057 3.478 7.557 4.69 12.73 3.386a800.281 800.281 0 0 0 32.971-9.101c-7.9 7.688-14.824 24.109-12.131 34.41 1.773 6.778 7.436 9.961 15.826 8.754a444.053 444.053 0 0 0 23.43-4.016c-3.043 4.789-5.061 10.303-5.789 15.945-.602 4.646.115 11.686 4.109 16.232 3.113 3.541 7.602 4.611 12.604 2.951a2641.15 2641.15 0 0 1 10.729-3.55c-4.057 5.355-6.742 11.769-7.594 18.384-.824 6.369.439 11.822 3.561 15.371 2.973 3.385 7.49 4.729 12.859 3.859.711-.117 1.422-.268 2.131-.387l.137-.225c7.232-1.18 14.479-2.645 21.734-3.853-3.811 8.517-5.711 18.173-2.045 24.292 1.016 1.699 2.805 3.064 5.873 3.709 1.234.475 2.686.731 4.365.733l.053.001c5.699-.012 11.422-.09 17.152-.214 10.955.087 21.84.106 32.529-.544.65 5.574 3.441 10.797 7.992 12.806 12.918 5.7 27.396 8.591 43.033 8.591 33.303 0 67.084-13.047 89.598-22.863 42.812-18.666 81.607-43.156 117.154-66.848l.986-.554-.006-.12c10.168-7.272 16.586-20.286 15.693-32.049-.627-8.271-5.682-13.616-12.873-13.616-.465 0-.934.024-1.406.07 11.494-9.197 21.121-19.169 29.18-30.195 5.568-7.62 10.262-19.394 6.73-29.583-1.49-4.294-4.607-7.203-8.617-8.187a273.295 273.295 0 0 0 6.156-5.625c8.068-7.607 12.785-19.037 12.02-29.12-.52-6.844-5.102-14.119-12.564-14.119-1.438 0-2.918.282-4.402.841-2.256.852-4.539 1.704-6.836 2.562 7.906-5.556 13.771-15.545 15.113-25.934.629-4.876-.438-12.106-4.268-16.466-3.143-3.571-7.619-4.557-12.521-2.691-.588.225-1.182.449-1.777.674l.012-.324-1.301.808c-.959.357-1.926.717-2.9 1.074a374.21 374.21 0 0 0 19.4-16.523c6.287-5.74 10.721-14.435 11.863-23.258.67-5.21-.25-12.291-3.828-16.363-.996-1.13-2.162-2-3.482-2.59a897.044 897.044 0 0 0 19.141-10.895c9.754-5.712 15.326-17.607 16.525-26.863.792-6.107-.804-12.449-4.062-16.159zM377.313 213.101c-8.857 8.541-17.631 17.163-26.535 25.64a134.426 134.426 0 0 1 8.506-11.475c2.064-2.495 4.453-5.085 7.035-7.66 5.127-4.265 10.607-8.121 16.312-11.609-.482.462-.969.921-1.451 1.384a29.264 29.264 0 0 0-3.867 3.72zm-48.723 45.961c4.922-13.573 11.332-26.533 19.549-38.395 4.084-3.73 8.414-7.185 12.928-10.406-13.055 13.821-23.412 29.877-30.895 47.405-.527.464-1.052.933-1.582 1.396zm366.371-66.459c.627.522 1.252 1.047 1.873 1.58a2.95 2.95 0 0 0-1.152-.402c-.243-.393-.477-.79-.721-1.178zm12.191 143.372c.504 1.129.996 2.265 1.492 3.398-1.275.003-2.852.008-4.602.018a85.138 85.138 0 0 0 3.11-3.416zm16.229-111.451a12.809 12.809 0 0 0-.662 4.161c.023 2.085.115 4.157.27 6.218-6.504-14.244-15.436-27.425-25.014-39.699-.031-.038-.062-.067-.094-.106 9.637 8.455 18.236 18.217 25.5 29.426zM313.28 242.393c.098-.699.229-1.393.359-2.085.203-1.084-.102.283.371-1.512 1.457-5.504 3.598-9.555 6.439-13.688 3.758-5.466 7.16-8.965 12.367-13.617 6.912-6.176 14.596-11.558 22.744-16.319a172.197 172.197 0 0 0-9.762 11.641c-12.945 10.898-24.312 23.512-32.785 38.202l-.053.097c.087-.911.191-1.817.32-2.719zm110.394 50.169c.992-.442 1.988-.889 2.984-1.331.049.119.1.243.148.364-1.044.323-2.093.641-3.132.967zm100.195-5.854c4.535 2.492 8.971 5.172 13.32 7.928 1.75 1.109 3.49 2.228 5.229 3.353-6.537-2.875-12.656-5.839-18.336-9.004a21.699 21.699 0 0 0-.213-2.277z"/></g><path fill="#EAA286" d="M501.104 658.458c10.369 1.674 20.33.718 30.414-2.051 5.281-1.451 10.268-3.797 15.043-6.434.346-.189.861-.533 1.463-.962.732-.257 1.463-.515 2.189-.788 7.191-2.72 11.854-5.727 14.604-11.476.471-.739.912-1.497 1.234-2.327 1.139-2.934 3.975-12.508-2.189-12.403-3.68.065-6.213 2.646-8.826 5.003-21.707 6.59-46.919 6.975-65.134-8.182-5.234-4.357-11.662 2.461-13.961 9.838a61.926 61.926 0 0 1-12.842-14.93c-1.994-3.24-6.805 4.828-5.682 7.359 8.156 18.363 23.136 34.034 43.687 37.353zm63.638 78.936c-16.617 9.199-35.857 12.783-54.722 12.152-18.812-.625-39.863-5.205-51.326-21.439-3.549-5.029-9.51 7.464-8.387 10.862 14.807 44.878 72.734 50.122 109.98 31.472 7.805-3.91 12.723-12.926 13.854-21.365.689-5.132-1.639-15.973-9.399-11.682z"/><path d="M458.225 615.935c15.814 12.578 32.012 21.143 52.145 24.05 17.06 2.463 40.212-.343 52.994-12.769 1.844-1.793 7.102-14.35.639-13.586-7.75.92-15.064 6.273-22.598 8.695-8.508 2.736-17.758 3.154-26.615 2.862-18.295-.606-37.498-7.175-53.943-14.876-2.173-1.017-4.36 4.241-2.622 5.624zM284.788 482.386l-.264-.01c-.457-10.45-6.629-19.717-18.41-19.925-13.225-.236-25.115 10.943-32.096 21.007-1.824 2.63-.928 9.366 2.557 5.084 6.07-7.465 14.201-13.169 24.105-13.297 6.375-.08 9.852 3.191 12.465 7.503-4.477.69-8.689 2.298-11.668 5.823-5.51 6.515-4.424 16.378.299 23.036 2.025 2.854 5.342-4.23 4.736-6.131-.863-2.707-4.887-9.829-1.984-12.338 3.037-2.624 7.531-3.567 11.879-3.996a94.798 94.798 0 0 0 1.75 3.577c1.535 2.946 4.582-1.815 5.744-4.407 1.891-1.387 3.305-5.828.887-5.926zM437.383 729.5c-7.203 22.833-5.875 47.356 11.379 65.323 15.396 16.029 38.475 22.517 60.145 22.255 22.73-.271 45.578-8.06 62.011-24.021 8.541-8.293 14.693-19.469 17.742-30.921 2.502-9.413 5.041-27.097-4.33-33.217-3.549-2.32-6.775 5.907-7.156 7.941-1.75 9.345-.398 19.851-2.982 28.343-.773 2.536-1.756 4.319-4.209 7.777-1.012 1.428-4.504 4.871-6.867 6.763-14.646 11.729-33.824 16.243-52.277 16.519-18.564.281-38.014-3.714-52.965-15.217-16.307-12.551-19.557-33.6-15.668-52.688.974-4.78-4.018-1.415-4.823 1.143z"/><path d="M438.625 726.312c-53.668.24-114.604.182-150.109 47.766-15.725 21.068-24.037 46.17-28.922 71.739-4.885 25.55-7.203 52.79-4.307 78.604.604 5.377 5.395-1.219 5.822-3.407 8.82-45.194 5.732-95.782 33.287-135.231 31.16-44.619 93.936-37.574 140.686-47.611 3.782-.812 9.122-11.888 3.543-11.86zm145.053 16.505c25.428-2.004 52.635-.754 76.803 8.021 21.764 7.903 38.379 23.264 52.074 41.484 14.596 19.423 23.199 41.843 31.311 64.506 8.256 23.064 14.924 46.979 19.607 71.016 1.422 7.283 11.23-4.992 10.521-9.682-7.754-51.224-16.75-102.811-48.592-145.349-14.029-18.745-34.109-33.173-56.354-40.349-28.428-9.168-57.154-3.972-84.484 6.295-1.035.392-2.726 4.203-.886 4.058z"/><path d="M297.586 869.444c9.922.873 21.521 4.551 25.891 14.398 4.029 9.082 3.836 20.598 3.629 30.342-.236 11.033-1.873 22.049-3 33.015-.848 8.255-3.873 21.671 1.273 28.871 5.365 7.505 13.301-9.282 13.83-12.763 1.529-10.072-.316-21.354-.041-31.635.318-11.691.691-23.425-.797-35.057-1.258-9.807-4.932-18.139-12.121-24.996-7.893-7.525-18.361-6.746-28.191-4.338-.635.157-1.439 2.079-.473 2.163z"/><path fill="#EAA286" d="M629.646 340.622c-.895-10.08-11.199-7.134-15.41-.958-5.775 8.466-9.711 17.612-13.082 27.256-3.01 8.616-5.176 16.214-8.705 23.066-3.998 7.766-8.9 14.188-14.904 21.475-4.975 6.036-9.904 11.78-14.221 18.115-3.094-9.312-7.26-18.219-12.129-26.888-6.76-12.035-16.723-24.858-29.721-30.48-.604-3.45-3.705-5.864-7.326-4.765-5.064 1.537-7.883 6.59-9.67 11.155-3.264 8.332-6.352 19.234-6.791 29.817-8.092-4.723-15.791-9.641-22.66-16.135-13.877-13.12-25.574-30.495-22.973-49.625.598-4.401-1.543-10.076-6.992-8.421-5.693 1.729-8.859 8.126-9.848 13.515-4.32 23.612 4.984 47.932 21.48 64.911 8.055 8.291 17.592 15.318 27.713 20.864 4.58 2.51 9.822 4.154 14.818 5.608 5.158 1.502 11.064 3.505 16.416 2.079 3.539-.944 6.308-4.454 7.882-7.546 1.463-2.867 3.676-9.792.568-12.573.439-1.693.598-3.4.357-5.003-.463-3.082-.742-6.188-.965-9.299 4.193 4.991 7.811 10.521 11.174 16.028 6.781 11.106 11.855 23.662 14.807 36.336 1.504 6.456 8.604 3.344 11.826.765 36.122-28.895 72.778-69.535 68.356-119.297z"/><path fill="#08B5F9" d="M691.225 859.956c.154-.307.279-.6.439-.905.732-1.419 1.59-7.479-1.875-5.802a55.58 55.58 0 0 0-2.688 1.41 3.8 3.8 0 0 0-1.5-.256c-.752.051-1.504.105-2.256.16-3.869.271-6.371 3.936-7.699 7.779-3.094 2.357-6.139 4.801-9.301 7.164-1.635 1.223-2.926 7.125.273 5.107 2.662-1.681 5.252-3.479 7.879-5.189.1 2.713.838 5.299 1.893 7.824-9.062 32.246 7.98 67.928 12.652 100.535 2.184 15.23 16.328-2.729 17.123-10.021 3.981-36.486 3.944-75.281-14.94-107.806zm-199.623-10.853c-19.729 1.021-38.781-9.262-52.742-22.475-6.557-6.203-11.996-13.518-16.719-21.178-4.803-7.797-6.805-17.602-12.32-24.812-.787-.996-1.814-1.477-3.084-1.439-.68.098-1.309.252-1.908.439-.721-3.783-1.252-7.539-1.51-11.24-.439-6.33-6.609 1.996-6.736 5.062-.205 4.848.047 9.734.562 14.618-1.918 6.052-1.242 13.808.141 18.851 1.484 5.413 3.846 10.689 6.676 15.743 4.1 15.827 9.619 31.276 17.82 45.487 6.789 11.766 16.777 24.234 30.986 26.506 17.512 2.797 31.693-13.544 39.84-26.835 2.041-3.329 8.164-19.2-1.006-18.727z"/><path fill="#EAA286" d="M786.754 476.921c-1.307-12.286-3.162-24.494-5.414-36.633 1.486-21.372 1.848-42.699-1.527-63.941.152-.741.309-1.482.461-2.222.357-1.729-.262-3.758-1.654-4.538a169.73 169.73 0 0 0-2.74-11.718c-1.434-5.261-6.891-.303-8.729 2.944-1.619-16.709-4.797-33.3-8.908-49.463-8.848-34.798-23.121-68.765-42.971-98.745-.453-.685-1.062-1.006-1.729-1.091-3.188-6.304-6.738-12.322-10.838-17.789-.014-15.622-14.562-26.865-26.908-34.556-10.152-6.324-21.275-11.638-32.691-15.819-9.098-8.424-18.992-15.921-30.039-21.747-24.615-12.98-53.721-13.733-80.742-9.967C508.188 115 485.006 122 462.174 130.153a283.268 283.268 0 0 0-48.988 18.476l-1.357.513c-.297.109-.586.312-.857.571-43.363 21.604-80.953 54.402-105.957 96.251-1.119 1.875-1.756 5.199-.262 7.064 2.031 2.538 5.141-.228 6.549-1.878a304.748 304.748 0 0 1 17.436-18.735 197.881 197.881 0 0 0-7.848 11.836c-16.34 26.677-27.016 57.335-27.928 88.757-.109 3.805 4.729.13 4.871-2.243 2.539-42.535 22.9-84.158 53.197-113.835 14.955-14.649 33.082-26.041 53.361-31.553 24.111-6.554 48.723-1.262 72.564 3.971a788.6 788.6 0 0 1 5.041 1.125c.463.656 1.152 1.066 2.16.989.518-.038 1.035-.097 1.555-.146 17.428 3.993 34.988 8.352 52.685 11.118.434.271.963.475 1.613.59a31.65 31.65 0 0 0 5.797.468c15.492 1.993 31.09 2.565 46.785.396 17.635-2.438 34.6-8.398 52.289-10.468 8.955-1.047 17.959 6.15 26.797 7.912.842.167 1.662 3.313 2.48 3.524 7.977 10.276 15.42 11.162 22.021 22.208 26.125 43.698 36.615 94.001 41.805 144.075 1.713 16.537 3.023 33.076 3.789 49.622-.42 23.062-.471 46.13-.393 69.198a552.685 552.685 0 0 1-.84 11.599c-1.811 21.383-4.658 42.94-10.672 63.587-6.729 23.102-20.725 43.428-35.1 62.436-16.387 21.668-34.691 43.656-56.311 60.312-.371.287-.752.561-1.125.844-13.023 4.418-25.342 12.01-34.902 21.178a212.482 212.482 0 0 1-31.367 11.978c-20.766 6.101-42.717 8.564-64.251 5.923-3.773-.463-7.316 8.482-2.859 9.09 31.708 4.317 64.638-2.426 94.218-15.895.248 2.113 1.523 3.47 4.617 2.707 9.914-2.441 19.924-7.771 28.357-13.827.354.192.816.228 1.404.048.312 1.082 1.162 1.636 2.863 1.014 3.023-1.105 5.869-2.605 8.533-4.387.715.654 1.695.912 2.969.4 16.166-6.488 29.359-20.465 40.615-33.307 8.611-9.826 16.305-20.572 23.279-31.697 1.914.334 4.674-1.334 5.998-2.863 14.803-17.077 24.537-38.04 32.672-58.934 6.471-16.611 11.924-33.873 15.93-51.349-.023 6.272.139 12.534.582 18.78.301 4.255 4.316 4.295 6.92 1.86 20.392-19.071 16.525-47.398 13.845-72.535zm-373.99-303.716a319.727 319.727 0 0 1 7.014-3.292c.527.689 1.357 1.186 2.584 1.382.715.115 1.432.208 2.146.292-3.939.326-7.855.861-11.744 1.618zm130.168 16.76c-.52.189-1.07.54-1.619 1.001-.535-.083-1.064-.174-1.598-.26 1.146-.264 2.291-.535 3.434-.819-.073.026-.145.051-.217.078zm41.511 1.825c-.162.514-.301 1.257-.357 2.065-2.855.194-5.727.284-8.607.281 3.145-1.647 6.148-3.342 8.957-4.929.482-.143.961-.283 1.443-.423a11.758 11.758 0 0 0-1.436 3.006zm-3.416-48.278c1.34.146 2.68.305 4.02.47a374.084 374.084 0 0 0-3.969-.1 3.742 3.742 0 0 0-.051-.37zm-45.175-14.38c1.695-3.486 2.506-7.725-.275-8.747 16.316-1.537 32.703-1.017 49.045 2.641 10.254 2.293 19.783 6.503 28.639 11.931-25.441-5.436-51.493-7.245-77.409-5.825zm91.705 56.656a847.69 847.69 0 0 0-4.777 1.092c5.443-2.509 10.893-4.953 16.492-6.82 7.684-.327 15.912-.238 23.664 1.199l.281.33c-11.981-.694-24.031 1.59-35.66 4.199zm94.134 432.213c1.084-3.443 2.381-6.824 3.68-10.109a198.248 198.248 0 0 1 3.305-7.826c1.998-3.072 3.914-6.219 5.713-9.505 2.129-3.891 4.242-7.792 6.328-11.708-5.065 13.311-11.059 27.056-19.026 39.148zm24.774-254.326a615.42 615.42 0 0 0-1.662-13.525c.699 4.368 1.385 8.741 2.047 13.114-.131.133-.258.27-.385.411zm29.334 166.544c-.354-13.407.301-26.817 1.32-40.223a387.627 387.627 0 0 1 1.4 19.827c.317 7.208-.08 14.205-2.72 20.396z"/><path d="M406.17 767.233c-1.529 23 7.236 44.152 23.111 60.648 14.383 14.943 42.406 29.047 63.459 23.869 3.092-.764 8.17-10.768 3.693-12.25-9.514-3.152-19.75-3.193-29.381-6.312-9.764-3.161-18.822-8.259-27.025-14.368-17.848-13.297-29.543-31.574-29.16-54.332.067-3.989-4.554.597-4.697 2.745z"/><path fill="#2F61DD" d="M853.904 663.937c-14.85-19.48-35.555-33.133-51.334-51.697-3.553-4.179-6.668-8.734-8.801-13.688 3.748 1.391 7.484 2.617 10.986 3.801 12.469 4.217 25.742 8.292 38.898 9.604 5.014.5 10.693-9.787 6.893-13.527-17.393-17.113-35.301-36.299-37.266-61.81-.215-2.798-1.906-4.084-4.57-3.699-5.582.807-10.938 1.163-16.078 2.076a3.132 3.132 0 0 0-.41-.047c-.895-.043-1.701.2-2.424.622-2.727.623-5.391 1.473-7.994 2.692-.596-1.579-1.898-2.69-3.977-2.059-3.422 1.04-5.551 5-6.047 8.302-.078.518-.172 1.03-.256 1.547-4.146 5.093-6.994 11.93-9.463 17.508-7.77 17.549-12.215 36.831-21.262 53.775-.539 1.01-1.059 2.55-1.18 4.059-8.678 12.574-18.182 24.578-27.664 36.578-3.48.582-5.939 5.012-6.91 8.773a897.019 897.019 0 0 0-5.906 7.624c-1.662 2.168-2.854 5.534-1.918 8.241.707 2.037 2.266 2.387 3.826 1.957a3.9 3.9 0 0 0 .326.344c7.822 6.955 18.051 11.151 27.707 14.85 13.809 5.289 28.312 9.143 42.934 11.34 18.207 2.736 40.559 2.063 54.861-9.142.127.038.254.081.381.12 6.184 1.834 11.762-7.297 9.902-13.037.344-.736.668-1.492.973-2.271a32.28 32.28 0 0 0 3.83-.548c3.234-.666 5.934-4.223 6.979-7.978 4.652-2.079 7.837-10.542 4.964-14.31zm-58.201-86.466a24.675 24.675 0 0 0 2.383-3.163 75.117 75.117 0 0 1 4.355 5.66c-2.267-.725-4.509-1.578-6.738-2.497zm-25.453 93.462a85.89 85.89 0 0 1-7.365-8.225c7.273 5.756 14.471 11.566 21.904 16.988-3.447-1.586-6.891-3.182-10.287-4.838a93.875 93.875 0 0 1-4.252-3.925zm7.41-72.12a190.51 190.51 0 0 0 1.51-2.994 47.884 47.884 0 0 0 1.098 6.453c-.885-1.142-1.747-2.3-2.608-3.459zm43.236-10.574a147.583 147.583 0 0 0 2.682 3.324 354.511 354.511 0 0 1-3.166-1.023 13.2 13.2 0 0 0 .484-2.301zm-25.949-40.114c-.094-.075-.191-.146-.287-.221a23.1 23.1 0 0 1 .455-.024c-.054.081-.111.163-.168.245z"/><path d="M657.566 874.507c2.471 8.529 6.275 16.514 9.32 24.852 3.668 10.033 5.652 20.576 7.645 31.037 4.062 21.317 5.652 43.092 8.84 64.55.156 1.062.422 3.339 1.871 3.644.426.09.854.177 1.281.27 2.66.556 4.832-2.072 5.756-4.324 3.852-9.402.395-20.394-.822-30.223-1.504-12.146-3.51-24.229-5.904-36.23-2.365-11.847-5.678-23.427-10.365-34.567-3.461-8.229-7.836-17.302-16.857-20.169-.519-.17-.872.781-.765 1.16z"/><path d="M695.289 842.614c-13.996 5.123-26.115 13.344-35.58 24.902-1.58 1.928-3.076 4.842-2.273 7.414 1.025 3.291 4.33.296 5.404-1.182 8.143-11.213 19.111-19.285 31.627-25.047 1.914-.88 3.957-7.235.822-6.087zm75.422-397.711c-.471 51.983-9.223 105.286-28.271 147.266-30.248 66.666-88.652 115.451-160.545 130.824-80.783 17.277-169.552-4.836-227.078-65.414-58.158-61.24-72.625-147.546-65.203-228.946-3.721-2.114-7.523 5.783-11.477 4.292-1.322 9.853-2.381 9.937-3.148 19.808-6.293 81.032 11.697 165.491 68.273 226.456 56.42 60.801 143.398 83.908 223.968 70.674 74.854-12.297 137.055-60.111 174.391-125.314 29.949-52.303 44.592-121.997 43.434-188.46-5.096 2.198-9.93 5.208-14.344 8.814zm-43.344-44.986c-8.488-15.157-22.283-27.99-38.525-34.361-15.818-6.205-33.801-8.86-50.727-9.338-16.373-.459-24.582 39.961-11.203 37.517 16.197-2.961 32.396-2.996 48.516.587 15.502 3.445 31.271 7.704 43.703 18.096 5.365 4.483 10.58-8.314 8.236-12.501z"/><path fill="#FFF" d="M605.408 510.147c-51.83 2.425-104.539 5.832-156.046-2.228-3.604-.563-6.311 4.942-6.672 7.695-1.504 11.495 2.748 21.929 9.324 30.884-4.396 8.201-4.832 17.638 3.627 24.725 9.756 8.173 23.592 11.826 36.314 13.706 7.217 3.339 15.016 5.419 23.131 6.134 36.322 3.186 67.916-22.566 83.955-53.183 3.572-6.815 6.391-14.066 8.67-21.408.574-1.843.842-6.472-2.303-6.325zm-119.281 34.741a30.092 30.092 0 0 0 6.404 4.429c-4.461-.566-8.854-1.456-13.074-2.815a70.983 70.983 0 0 1 6.67-1.614zm82.055 1.974c-.357.003-.711.021-1.068.025a134.92 134.92 0 0 1 3.875-.492 41.968 41.968 0 0 1-.201 1.593c-.483-.705-1.311-1.133-2.606-1.126zm-99.322-8.846a41.646 41.646 0 0 1-2.273-2.738c2.785-.062 5.572-.107 8.357-.133a55.822 55.822 0 0 0-6.084 2.871zm-12.713-15.826c-.027-.071-.051-.146-.076-.219l.576.07c-.168.048-.338.09-.5.149zm136.988 1.846c-7.654-.016-15.309-.157-22.965-.356 8.914-.383 17.832-.776 26.756-1.106a97.356 97.356 0 0 1-1.248 3.03c-.432-.932-1.223-1.565-2.543-1.568zm-132.588 32.221c.283.455.584.902.873 1.354a13.563 13.563 0 0 1-1.354-1.826l.481.472z"/><path d="M418.591 494.714c30.652 19.938 70.549 24.55 106.296 24.518 19.894-.018 39.955-2.296 59.353-6.695 16.555-3.755 34.794-9.316 48.671-19.459 2.616-1.913 4.602-10.488-.586-7.713-15.067 8.061-30.175 14.059-46.883 17.924-19.326 4.47-39.146 6.162-58.946 6.399-34.797.417-73.832-3.91-104.429-21.796-2.731-1.596-6.169 5.07-3.476 6.822z"/><path fill="#FFBF1F" d="M812.758 337.635c-3.463-13.516-5.336-27.531-7.166-43.365-1.906-16.523-3.895-32.851-7.455-49.119-3.051-13.927-8.289-26.811-13.027-40.179-3.828-10.805-7.121-21.789-11.072-32.551-8.537-23.261-21.125-43.608-42.424-57.07-11.539-7.294-24.592-12.882-37.076-18.335-13.029-5.69-26.373-10.648-39.91-14.984-56.577-18.112-115.48-23.777-174.26-14.851-24.584 3.733-49.133 10.258-72.592 18.478-23.561 8.255-46.914 18.88-67.334 33.36-18.775 13.314-34.332 29.341-46.217 49.083-12.531 20.825-20.336 44.007-24.303 67.905-2.051 12.36-2.838 24.633-3.029 36.979a252.57 252.57 0 0 0-6.32 16.797c-4.783 14.266-9.113 31.924-6.381 47.646-9.998 5.327-21.092 28.989-8.215 36.616 2.635 1.561 4.465 3.021 7.713 3.42 2.135.262 4.254.628 6.383.928 4.955.695 9.578.929 14.551.378 11.832-1.314 22.889-3.924 34.293-7.212 20.467-5.896 40.785-12.564 61.945-15.53l-5.584.757c32.799-4.36 65.439-9.826 98.221-14.327 32.148-4.273 64.439-7.662 96.876-8.514 16.885-.443 33.553.029 50.299 2.312 16.768 2.287 33.27 6.278 49.639 10.507 21.484 5.579 42.879 10.975 64.922 13.869 10.678 1.402 21.221 3.184 31.938 4.243 4.963.49 7.234 1.187 12.502 3.137 5.514 2.042 10.93 4.344 16.285 6.769 8.182 3.706 16.189-4.013 20.523-10.841 5.726-7.383 8.601-17.221 6.275-26.306zM264.014 326.21c-.221.529-.285.661 0 0z"/><path d="M434.047 502.596c-3.557 44.914 25.586 88.306 70.909 96.688 20.537 3.798 44.147-.665 62.4-10.583 16.332-8.874 28.276-23.986 35.479-40.896 6.11-14.346 10.485-31.381 10.129-47.053-.033-1.477-1.201-2.637-2.698-2.183-2.168.658-3.382 3.098-3.754 5.153-1.857 10.262-2.779 20.479-5.688 30.555-2.535 8.781-6.201 17.267-11.333 24.849-10.949 16.181-28.097 25.338-46.922 29.182-22.599 4.615-45.346 1.832-64.849-10.84-18.936-12.304-32.251-32.969-36.537-55.033-1.379-7.1-1.738-14.403-1.272-21.611.357-5.525-5.575-1.876-5.864 1.772z"/><path fill="#2F61DD" d="M858.955 423.854c-21.119-3.392-32.395-26.137-43.408-42.34-5.92-8.71-14.059-15.867-23.352-20.792-9.326-4.94-19.711-7.812-29.516-11.623-2.957-1.151-5.832-.672-8.414.65-1.402-1.74-3.562-2.602-6.789-1.621-6.766 2.054-12.371 10.64-12.754 17.506-.783 14.01 2.336 26.479 9.996 38.274 6.633 10.214 16.971 18.091 27.379 24.153 3.777 2.201 7.531 4.733 11.662 6.243 3.383 1.237 7 1.584 10.533 2.111 10.562 1.575 22.537 1.291 31.455 7.716a4.382 4.382 0 0 0 1.564.715 53.517 53.517 0 0 0 7.938 4.561c-.58 5.387 1.98 11.747 8.496 9.915 6.938-1.951 13.016-6.591 16.943-12.624 3.796-5.829 9.478-21.045-1.733-22.844z"/><path d="M437.387 536.213c24.748 12.704 52.764 19.405 80.465 20.89 28.78 1.541 60.657-2.928 84.852-19.665 2.502-1.731 3.908-9.567-.527-6.939-25.38 15.037-53.987 19.827-83.211 18.316-26.781-1.384-53.975-7.606-78.229-19.172-2.786-1.329-6.084 5.167-3.35 6.57zm-38.203-113.05c-.32-.418-.656-.825-1.002-1.229-3.979-6.016-10.543-10.17-18.109-10.88-4.576-.986-9.322-.888-13.787.639-3.641 1.244-7.24 3.549-9.514 6.688-10.168 7.39-12.061 21.67-4.102 32.344 9.963 13.358 28.523 14.114 41.494 4.987 11.202-7.88 13.268-21.797 5.02-32.549zm-45.26 6.703a24.85 24.85 0 0 0-.486 2.835 9.654 9.654 0 0 1 .486-2.835zm332.695-13.505c-.32-.416-.656-.825-1.002-1.229-3.979-6.016-10.543-10.171-18.109-10.88-4.574-.986-9.322-.888-13.787.638-3.641 1.244-7.238 3.549-9.514 6.688-10.168 7.39-12.061 21.671-4.102 32.343 9.965 13.359 28.523 14.115 41.496 4.988 11.2-7.88 13.266-21.795 5.018-32.548zm-45.258 6.702a24.531 24.531 0 0 0-.488 2.835 9.698 9.698 0 0 1 .488-2.835z"/><path fill="#163663" d="M656.547 296.258c0 16.22-13.148 29.368-29.367 29.368H449.51c-16.219 0-29.369-13.148-29.369-29.368v-8.807c0-16.221 13.15-29.368 29.369-29.368h177.67c16.219 0 29.367 13.147 29.367 29.368v8.807z"/><path fill="#FFE5B8" d="M826.84 448.181a25.91 25.91 0 0 0-5.135-4.884c-1.488-1.07-3.146-.676-4.65.503a31.672 31.672 0 0 0-1.201-.949c-8.676-6.413-19.697-4.117-28.109 1.431-.086-.564-.152-1.131-.242-1.696-.877-5.411-6.902.469-6.414 3.956 3.85 27.506-.422 55.131.645 82.736.049 1.29.869 2.852 2.35 2.85 28.691-.041 50.137-24.685 50.916-52.386.029-1.027 0-2.04-.057-3.047 4.243-10.217 4.596-27.241-8.103-28.514zm-9.197 19.131a7.113 7.113 0 0 0-.967.656c-.039-.513-.078-1.024-.109-1.537.367.285.726.577 1.076.881zm-16.26 29.03c-.812-4.064-1.125-8.217-1.355-12.393a32.84 32.84 0 0 0 1.736 2.006c.73.779 1.518 1.115 2.314 1.16a45.498 45.498 0 0 1-2.695 9.227zm-3.016 23.075a38.913 38.913 0 0 1-8.725 1.889l-.016-.312a56.867 56.867 0 0 0 8.741-1.577z"/><path fill="#2F61DD" d="M621.652 294.575a143.92 143.92 0 0 0-5.855-2.729c-7.895-12.592-22.525-20.153-36.092-25.114-17.943-6.562-37.742-9.583-56.812-8.276-17.021 1.165-33.16 7.416-45.037 19.984-7.057 7.468-12.148 16.454-15.523 26.087-6.352 11.469-8.797 24.824-6.951 38.574.949 7.076 2.879 13.972 5.516 20.622 4.566 16.389 13.361 31.515 26.65 42.177.578.464 1.188.6 1.799.513a144.01 144.01 0 0 0 6.732 6.436c2.855 2.56 7.059-4.219 4.789-6.465-.236-.233-.465-.477-.701-.712 1.34-1.389 2.18-3.374 2.473-5.146 1.523-9.193 3.133-18.484 5.076-27.704 4.494-.109 9.326.801 13.369 2.397 19.48 7.7 34.664 33.84 36.756 53.295.369 3.439 4.969 10.555 7.855 9.166 28.689-13.825 34.779-46.697 36.691-75.63.875-3.288 1.602-6.63 2.113-10.05 1.582-10.551.768-20.975-1.689-31.055-.646-6.039-1.873-11.996-3.867-17.581a110.246 110.246 0 0 1 15.215 5.923c6.236 2.985 13.648-11.675 7.493-14.712z"/><circle fill="#FFF" cx="381.886" cy="429.436" r="9.728"/><circle fill="#FFF" cx="654.127" cy="423.381" r="9.729"/><path d="M773.752 483.854l.266-.01c.455-10.45 6.627-19.716 18.408-19.925 13.225-.236 25.115 10.943 32.098 21.006 1.822 2.631.926 9.368-2.559 5.084-6.068-7.464-14.201-13.169-24.104-13.296-6.377-.081-9.854 3.19-12.467 7.502 4.477.691 8.689 2.299 11.67 5.823 5.51 6.516 4.424 16.379-.301 23.037-2.025 2.854-5.34-4.23-4.736-6.131.863-2.708 4.887-9.829 1.984-12.338-3.035-2.624-7.529-3.568-11.879-3.997a96.356 96.356 0 0 1-1.748 3.577c-1.537 2.948-4.584-1.815-5.744-4.407-1.892-1.385-3.304-5.826-.888-5.925z"/><path fill="#219DF9" d="M605.945 310.973c2.947-3.98 5.898-10.956 3.707-15.945-5.305-12.083-16.348-20.601-28.607-24.866-3.598-1.252-7.076.122-9.859 2.786-7.578-1.678-15.549-1.807-24.031.305-8.123 2.021-15.896 17.093-10.027 24.266 15.537 18.99 31.76 38.748 39.383 62.449 3.328 10.342 3.828 19.953 2.045 30.091.072-.565-.648 2.726-.637 2.684-.373 1.402-.83 2.784-1.283 4.163-.969 2.947-1.49 4.064-3.381 7.868a111.337 111.337 0 0 1-2.633 4.967c-1.047 1.08-2.152 2.1-3.27 3.106a50.35 50.35 0 0 0-3.061 3.385c-.926 1.097-1.031 1.218-.312.361-3.521 3.872-6.283 8.731-5.871 14.171.023.311.064.604.111.891-.416 2.668-.107 5.32 1.518 7.348 3.83 4.784 9.611-.463 12.285-3.522a129.936 129.936 0 0 0 5.404-6.607c8.219-7.72 14.508-18.781 18.641-28.216 6.6-15.067 9.664-31.083 10.123-47.477.357-12.696-.957-25.758-4.01-38.396 1.609-1.262 2.976-2.745 3.765-3.812z"/><path fill="#2F61DD" d="M343.381 356.322a3.69 3.69 0 0 0-1.609-1.558c-2.064-1.053-4.369.144-6.1 1.854-17.24 1.218-34.076 5.673-51.193 8.033-12.109 1.669-21.723 5.215-30.971 13.35-5.613 4.936-10.627 10.486-16.326 15.334-6.775 5.763-14.316 10.621-22.033 15.011-14.875 8.462-31.273 14.422-48.119 17.44-4.756.852-9.234 10.873-4.424 13.922 6.506 4.126 13.264 7.609 20.402 10.09 3.967 4.79 8.451 9.224 12.611 14.03.1.587.166 1.178.189 1.776.066 1.855 1.199 3.825 3.236 3.921 3.055.145 5.246-2.858 6.582-5.165 3.357-5.789 6.736-11.571 10.645-16.97 5.008-3.449 10.746-5.764 16.838-7.7 3.18-1.01 6.332-1.997 9.465-2.996 8.783-.421 17.785.221 26.277-1.168a54.362 54.362 0 0 0 11.953-3.387c.467 1.88 1.865 3.067 4.711 2.538 15.953-2.966 28.75-12.452 37.484-25.973 5.381-8.332 9.162-17.387 12.707-26.558 3.748-4.919 6.992-10.237 9.502-16.123 1.017-2.373 2.873-9.561-1.827-9.701zm-125.787 73.495a77.926 77.926 0 0 1-6.055 1.773c2.451-1.067 4.92-2.104 7.365-3.15-.437.458-.878.914-1.31 1.377zm7.651-4.208c1.939-.918 3.838-1.872 5.658-2.9 3.684-2.08 7.07-4.568 10.309-7.252.334 1.282 1.066 2.184 2.029 2.633-5.455 3.053-11.031 5.889-16.775 8.33a2.92 2.92 0 0 0-1.221-.811zm89.556-40.629c.043.046.08.095.121.142a194.909 194.909 0 0 1-4.99 7.879 332.268 332.268 0 0 1-6.482 5.309c3.689-4.536 7.135-9.312 10.385-14.239.333.276.658.574.966.909z"/><path fill="#FFEE73" d="M393.272 89.159c-2.174-6.276-8.301-3.712-12.045-.779a212.565 212.565 0 0 0-16.924 14.79c-2.373-3.103-6.713-3.137-10.238-.908-21.139 13.367-39.953 29.761-54.91 49.878-14.199 19.097-24.359 41.097-31.244 63.806-12.84 42.326-14.385 87.02-14.949 131a146.247 146.247 0 0 0-.002 14.371c.189 3.774 2.348 7.518 6.443 7.809 9.439.671 20.428.588 28.482-5.146 9.629-6.855 14.363-17.82 15.893-29.261.648-4.852.637-9.817.729-14.698.111-5.845.719-12.94 1.234-19.948 1.141-15.479 2.922-30.909 5.496-46.22 2.34-13.926 5.188-26.718 9.117-40.377 1.705-5.923 3.672-11.768 5.801-17.551.527-1.437 1.08-2.862 1.635-4.288.062-.16.666-1.625.975-2.386a254.493 254.493 0 0 1 4.043-9.022c2.58-5.491 5.42-10.858 8.408-16.137a219.197 219.197 0 0 1 2.289-3.924l.779-1.299c-1.371 2.194-.842 1.333 1.584-2.58-1.783 2.894.891-1.357 1.027-1.572a241.15 241.15 0 0 1 3.371-5.075c7.227-10.65 14.771-19.841 22.773-28.223 4.768-4.994 9.535-9.969 14.555-14.717 4.334-4.098 7.75-11.557 5.678-17.543zM282.034 340.212l-.043.009c.016-.042.035-.084.051-.125l-.008.116z"/><path fill="#219DF9" d="M169.469 431.23c26.129 7.386 55.021 3.304 80.168-5.913 25.15-9.222 49.76-26.26 58.408-52.745.561-1.718.615-4.902-1.852-5.089-10.525-.791-21.615-1.555-31.742 2.045-9.145 3.252-16.578 10.201-23.686 16.547-20.604 18.396-40.357 41.15-69.699 43.49-.811 3.621-1.619 7.244-2.43 10.866 39.77-17.875 83.713-30.297 113.723-63.923l-3.818-7.088c-17.043 22.542-40.027 39.098-67.395 46.591-4.152 1.138-7.652 11.678-1.393 10.702 29.518-4.605 55.25-26.725 74.555-48.272l-5.582-1.499c-.217 7.239-6.553 12.996-12.771 15.67-.107 3.344-.215 6.687-.32 10.028 13.541-9.04 27.227-19.235 34.127-34.487.852-1.879 2.066-6.899-1.451-7.052-14.059-.609-26.42 3.125-36.295 13.375-8.848 9.182-15 19.983-26.482 26.351l1.783 8.936c11.213-8.993 22.16-18.513 30.328-30.462 1.338-1.959 2.812-5.412 1.059-7.604-1.725-2.153-4.67.074-5.807 1.665-13.35 18.713-32.945 31.229-50.857 45.098-2.193 1.698-6.811 9.615-1.359 10.354 27.594 3.731 48.443-19.302 62.822-39.744 1.354-1.922 2.781-5.394 1.053-7.551-1.709-2.135-4.646.064-5.768 1.653-12.764 18.085-30.217 37.968-54.65 34.658-.453 3.45-.906 6.901-1.361 10.352 19.412-15.023 40.398-28.604 54.869-48.881-1.582-1.98-3.164-3.959-4.748-5.938-7.623 11.154-17.943 19.885-28.406 28.274-3.055 2.448-4.113 12.202 1.781 8.936 10.869-6.022 18.094-15.422 25.803-24.853 8.641-10.567 19.234-14.297 32.811-13.739-.484-2.349-.969-4.701-1.451-7.051-5.668 12.572-17.408 20.717-28.525 28.165-1.996 1.337-3.363 3.608-3.672 5.993-.238 1.854.762 5.154 3.352 4.036 11.949-5.162 21.867-16.55 22.43-29.999.145-3.456-2.648-5.979-5.539-2.82-18.666 20.38-42.035 41.32-70.332 45.707l-1.393 10.702c29.912-8.161 54.949-26.767 73.574-51.305 1.352-1.781 2.336-4.519 1.566-6.739-.877-2.532-3.889-2.018-5.383-.349-28.83 32.185-71.258 44.338-109.48 61.385-2.238.998-3.756 2.837-4.496 5.188-.502 1.592-.756 5.894 2.066 5.678 28.947-2.212 49.115-21.655 69.324-40.455 7.453-6.933 15.16-15.447 24.592-19.731 9.686-4.402 21.244-3.504 31.57-3.038l-1.852-5.089c-7.189 23.574-32.137 37.396-53.871 45.069-23.236 8.203-50.369 11.742-74.547 5.73-3.083-.767-6.548 7.269-3.351 8.172z"/><path fill="#FFEE73" d="M668.756 105.724c5.02 4.748 9.785 9.722 14.555 14.717a216.314 216.314 0 0 1 22.773 28.223 246.427 246.427 0 0 1 3.371 5.074c.137.216 2.811 4.467 1.027 1.573 2.426 3.914 2.955 4.774 1.586 2.58.26.433.52.865.777 1.298a226.469 226.469 0 0 1 2.289 3.924c2.99 5.279 5.828 10.646 8.408 16.138 1.4 2.982 2.76 5.986 4.043 9.023.309.759.91 2.223.975 2.385.553 1.426 1.107 2.852 1.637 4.287 2.127 5.785 4.094 11.628 5.797 17.552 3.932 13.658 6.779 26.45 9.121 40.377 2.57 15.31 4.354 30.739 5.494 46.22.516 7.007 1.123 14.102 1.232 19.947.094 4.881.082 9.847.73 14.699 1.529 11.44 6.264 22.405 15.893 29.261 8.055 5.734 19.043 5.815 28.482 5.145 4.094-.291 6.254-4.033 6.443-7.809.24-4.806.227-9.596-.002-14.37-.566-43.98-2.109-88.674-14.947-131-6.889-22.71-17.047-44.71-31.246-63.807-14.959-20.117-33.771-36.512-54.912-49.878-3.523-2.228-7.863-2.193-10.236.909a212.93 212.93 0 0 0-16.924-14.791c-3.744-2.931-9.871-5.496-12.045.779-2.071 5.986 1.343 13.445 5.679 17.544zm105.553 233.393c.016.041.035.082.051.125a1.245 1.245 0 0 1-.043-.01l-.008-.115z"/><path fill="#219DF9" d="M756.426 365.931c10.861 18.084 21.701 36.616 37.615 50.799 16.557 14.758 37.234 20.852 59.217 19.365 3.27-.22 8.156-7.806 3.961-9.664-18.15-8.037-25.928-24.18-35.842-40.144-4.234-6.819-9.377-12.944-16.256-17.217-9.102-5.654-20.471-6.472-30.887-5.825-3.631.227-6.682 5.434-5.406 8.803 9.418 24.857 35.367 44.16 59.793 52.652 4.133 1.438 8.227-5.562 6.654-9.039-9.199-20.31-26.971-36.67-49.184-41.019-2.574-.503-5.148 3.422-5.631 5.427-3.521 14.558 6.5 24.853 17.807 32.376 11.676 7.771 25.498 13.269 39.154 16.364 3.895.884 6.621-6.408 5.646-9.194-7.33-20.923-24.918-39.317-42.457-52.261-1.625-1.198-4.025 1.076-4.863 2.202-3.596 4.822-6.619 10.571-5.613 16.768 1.039 6.396 6.506 10.729 11.23 14.572 3.453 2.809 7.984-6.503 5.799-9.385-1.266-1.67-1.291-4.501-1.619-6.495-.459-2.801-1.01-5.573-1.832-8.291l-6.26 8.503c11.807 9.322 21.482 21.338 31.93 32.089 8.721 8.976 18.891 20.231 31.5 23.344 4.441 1.096 8.988-9.837 3.521-11.185-5.189-1.281-9.922-4.927-14.043-8.153-6.139-4.803-11.664-10.437-17.127-15.974-10.027-10.163-19.475-21.202-30.705-30.083-3.619-2.863-6.996 6.063-6.262 8.501 1.549 5.131 1.043 12.133 4.383 16.54l5.797-9.384c-2.736-2.23-5.299-4.578-7.348-7.464-2.23-3.143-.875-5.476 1.219-8.186l-4.863 2.201c16.146 12.623 32.928 29.831 39.775 49.552 1.883-3.064 3.764-6.13 5.646-9.195-11.605-2.669-22.971-7.562-33.242-13.526-7.119-4.136-21.943-13.614-19.439-23.88l-5.633 5.425c19.76 3.931 36.482 19.293 44.797 37.299l6.656-9.04c-23.139-7.829-48.67-25.561-57.684-49.159l-5.406 8.803c10.402-.676 20.824.146 29.873 5.727 6.783 4.185 11.432 11.063 15.49 17.74 4.396 7.23 8.318 14.707 13.58 21.373 5.975 7.567 13.723 13.421 22.537 17.282l3.961-9.664c-21.314 1.519-41.094-4.153-57.277-18.323-15.424-13.501-26.537-31.646-37.768-48.567-2.074-3.132-6.549 3.855-4.894 6.61z"/><path d="M815.412 363.963c-6.135-54.814-13.613-110.104-26.932-163.678-3.281-13.201-6.883-26.652-12.748-38.979-6.99-14.687-18.914-26.429-31.584-36.312-33.111-25.827-75.104-40.28-115.441-50.137-19.209-4.692-38.779-8.137-58.48-9.893-23.627-2.104-47.68-1.211-71.308.334-50.662 3.309-102.566 12.952-147.512 37.552-18.635 10.199-36.613 23.562-50.043 40.153-10.361 12.799-17.4 28.171-23.16 43.479-13.006 34.563-19.131 71.812-23.309 108.363-2.85 24.931-4.799 50.14-5.02 75.247-.016 1.713 1.475 3.191 3.207 2.596 9.023-3.106 19.096-4.067 28.473-5.517 18.068-2.792 36.211-5.099 54.369-7.226 37.375-4.377 74.918-8.019 112.518-9.974.129-3.229.479-6.484.855-9.624-9.516.439-19.035.994-28.562 1.696a1961.659 1961.659 0 0 0-51.992 4.541c-3.115-77.353-18.092-172.963 41.877-233.811 14.279-14.487 31.611-25.08 49.885-33.726a554.015 554.015 0 0 1 26.943-2.873c24.605-2.038 49.71-2.997 74.369-1.337 12.449.838 24.848 2.499 37.143 4.711 16.516 8.687 31.785 19.2 44.682 33.004 13.426 14.365 23.271 31.577 29.916 50.021 13.867 38.496 13.715 80.87 12.199 121.227-.752 20.101-2.068 40.176-2.875 60.273-22.496-1.504-45.025-2.568-67.562-3.34-.111 3.226-.479 6.459-1.018 9.604 44.904 1.339 89.908 3.466 134.537 8.659 19.842 2.309 40.061 4.979 59.334 10.444 1.292 4.601 7.667-1.644 7.239-5.477zM378.165 157.619c-15.078 36.793-16.65 77.428-15.768 116.675.547 24.222 2.174 48.407 3.291 72.606-23.627 2.413-47.211 5.247-70.717 8.553-12.156 1.711-25.383 2.729-37.326 6.259.285-16.175 1.473-33.45 2.971-50.263 3.217-36.095 8.424-72.395 18.807-107.185 4.768-15.981 10.725-32.017 19.609-46.213 10.35-16.536 25.918-29.274 42.191-39.692 32.812-21.01 71.227-32.049 109.879-37.967-32.525 16.607-58.883 42.926-72.937 77.227zm321.167 187.629c-4.539-.348-9.082-.658-13.625-.969.051-.166.09-.332.098-.501 1.854-41.526 5.602-83.259 2.363-124.811-2.977-38.245-13.391-76.546-38.93-106.088-10.582-12.241-23.441-22.541-37.443-30.821 2.492.525 4.979 1.065 7.459 1.627 40.975 9.274 83.018 23.963 117.123 49.072 12.855 9.466 25.314 21.482 32.26 36.081 5.908 12.422 9.41 26.08 12.713 39.378 8.609 34.654 14.229 70.097 19.363 105.407 2.271 15.63 4.465 31.29 6.342 46.979-34.707-10.05-71.957-12.612-107.723-15.354z"/><path fill="#219DF9" d="M590.064 282.97c-.143-.275-.295-.541-.443-.81l.004-.005c-.006-.009-.014-.017-.02-.023-6.799-12.286-18.688-17.91-32.137-19.815a35.193 35.193 0 0 0-4.479-1.662c-29.979-8.927-57.007 7.839-77.621 28.202-18.844 11.027-30.219 28.301-21.357 51.48 1.557 4.071 6.039-.773 6.58-3.015 4.307-17.864 15.744-30.165 33.031-36.228 7.18-2.517 14.67-3.932 22.26-4.591 22.255 3.811 42.041 18.776 54.144 38.637 2.432 3.988 6.68-4.499 6.102-6.922-3.326-13.951-1.521-28.071-2.803-42.191a39.1 39.1 0 0 0-.619-4.205c3.977 1.955 7.584 4.635 10.824 8.559 2.956 3.575 8.074-4.457 6.534-7.411zm-86.728 4.815c1.764-.381 3.531-.732 5.309-1.032a62.86 62.86 0 0 1 6.221.224c-1.398.164-2.791.358-4.184.577a68.038 68.038 0 0 0-7.346.231zm-2.302-9.22c-.977.188-1.949.4-2.914.632a90.37 90.37 0 0 1 2.605-1.609 4.11 4.11 0 0 0 1.029-.138c5.326-1.337 10.705-2.516 16.121-3.448a49.827 49.827 0 0 1 10.494.557 128.35 128.35 0 0 0-27.335 4.006zm51.601-6.258c1.051.122 2.102.268 3.152.438a6.36 6.36 0 0 0-.213 1.555 58.612 58.612 0 0 0-2.939-1.993zm-94.24 52.18c-.486-6.057 1.107-11.845 5.461-17.165a33.26 33.26 0 0 1 2.918-3.114c1.051.604 2.59.09 3.496-.882a51.629 51.629 0 0 1 7.754-6.823c2.916-1.492 5.939-2.771 8.934-3.896a7.797 7.797 0 0 0-.908 2.605c-12.505 6.434-21.958 16.708-27.655 29.275zm108.257-29.96c.357 7.173.273 14.26.598 21.319-6.584-7.677-14.363-14.126-22.949-18.916.521.049 1.045.095 1.566.147 3.748.379 7.527-7.513 3.957-9.653-.484-.29-.977-.562-1.467-.838 2.852.633 5.643 1.479 8.316 2.617 3.873 1.647 8.535-6.447 5.691-9.211a62.04 62.04 0 0 0-2.541-2.324c.746.158 1.479.325 2.205.497 3.06 4.404 4.312 10.038 4.624 16.362z"/><path d="M251.496 366.615c-13.015 35.913-55.868 48.843-89.234 57.548-2.729.712-5.088 5.496-3.272 7.92 6.784 9.056 13.681 18.02 21.638 26.09 7.952 8.065 17.967 16.393 28.928 19.835 3.572 1.122 7.631-6.344 4.157-8.158-10.281-5.369-19.266-10.858-27.604-19.076-8.051-7.935-14.9-17.023-21.678-26.036l-3.272 7.92c37.833-9.941 81.513-25.439 95.781-65.793 1.885-5.336-3.98-4.289-5.444-.25zm557.992 4.153c8.328 30.464 26.371 58.382 58.593 66.428l-1.646-4.519c-4.451 12.412-15.848 21.668-26.643 28.509-3.097 1.963-4.17 10.904.598 7.868 13.69-8.721 26.522-20.473 32.092-36.098.641-1.799.412-4.008-1.646-4.519-30.186-7.499-47.29-34.743-55.938-62.787-1.238-4.015-6.192 2.255-5.41 5.118zM496.971 261.773c-31.364 13.801-51.318 42.951-49.037 77.673 1.093 16.639 6.264 33.696 14.15 48.333 8.023 14.892 20.527 30.855 36.94 36.971 3.234 1.205 6.729-5.538 3.753-7.365-6.754-4.145-13.027-8.132-18.749-13.702-5.441-5.297-9.986-11.472-13.941-17.932-8.271-13.51-12.845-28.847-15.292-44.396-2.299-14.612-.207-29.434 6.861-42.473 7.391-13.633 20.424-23.565 34.365-29.81 2.703-1.21 4.601-8.905.95-7.299z"/><path d="M503.846 417.784c.145-14.792 2.552-29.532 7.212-43.573a15801.1 15801.1 0 0 0-4.804 3.77c26.327 12.637 46.457 36.5 53.363 64.973.509 2.094 2.952 1.266 4.018.26 1.61-1.521 2.32-3.705 1.893-5.85-5.814-29.126-28.187-55.493-55.3-67.182-2.257-.973-4.241 2.009-4.804 3.77-4.923 15.376-7.402 31.324-7.468 47.466-.007 1.857 1.765 2.523 3.207 1.634 1.792-1.107 2.663-3.242 2.683-5.268z"/><path d="M561.359 442.062c21.664-15.113 36.605-39.38 45.417-63.892 8.53-23.731 12.126-54.849-3.418-76.625-2.4-3.362-6.917 4.181-5.221 7.047 12.479 21.076 10.761 45.479 3.188 68.007-7.502 22.316-21.382 44.548-40.478 58.717-1.591 1.18-2.779 3.096-2.623 5.148.129 1.685 1.658 2.629 3.135 1.598z"/><path fill="#219DF9" d="M277.124 605.397c-1.678.004-3.355.039-5.033.059-.438-1.742-1.59-3.119-3.83-2.439-1.434.436-2.578 1.377-3.463 2.557-14.65.345-29.271 1.186-43.887 2.201 21.562-16.736 36.025-43.205 43.438-68.809 1.604-5.54-4.248-4.509-5.562-.257a163.044 163.044 0 0 1-1.004 3.117c-.621-4.105-5.342-2.09-7.238 1.259-2.152 3.801-4.25 7.609-6.354 11.392 1.648-6.206 2.926-12.524 3.947-18.865.277-1.718-.285-4.235-2.428-4.336-2.902-.136-4.756 3.163-5.635 5.427-8.934 23.055-20.23 45.404-34.408 65.705-4.08 2.963-8.434 5.595-12.996 7.92-2.385 1.215-6.482 10.768-1.361 10.369.182-.014.363-.025.547-.04.449.892 1.279 1.454 2.547 1.068a79.015 79.015 0 0 0 4.648-1.603c17.361-1.26 34.787-2.198 52.205-2.65-3.104 13.32-8.283 25.05-17.137 35.567-8.664 10.292-19.355 18.886-28.859 28.377-2.08 2.079-4.189 6.36-2.119 9.132.486.65.977 1.26 1.471 1.838-.5 2.815.061 5.759 3.357 4.812.467-.134.92-.3 1.381-.447 29.168 20.361 68.031-65.941 70.322-86.802.187-1.718-.229-4.557-2.549-4.552zm-16.186 11.876c-.24.761-.484 1.521-.754 2.271a81.55 81.55 0 0 0 .141-2.26c.205-.002.408-.008.613-.011z"/><path d="M598.829 306.876c9.535 4.252 17.82 10.13 25.801 16.807 2.218 1.855 4.846-1.177 5.37-3.312 9.156-37.229-37.599-60.317-67.49-65.778-19.816-3.62-41.283-4.257-60.333 3.118-20.154 7.803-34.644 24.448-45.261 42.717-2.736 4.708 2.014 6.898 4.764 2.428 10.018-16.286 23.253-30.52 41.522-37.254 17.104-6.305 35.969-5.205 53.671-2.529 15.701 2.373 31.102 8.768 44.409 17.339 13.056 8.41 27.146 22.71 23.078 39.7l4.81-3.773c-8.226-6.75-16.704-12.738-26.502-16.994-3.27-1.42-7.017 6.114-3.839 7.531zM233.701 530.045c.325 18.425-8.633 36.729-18.379 51.851-9.724 15.087-22.656 30.045-39.24 37.7-2.287 1.056-5.422 8.495-1.148 8.746 13.324.781 26.631 1.888 39.982 2.099 12.975.205 27.723.193 40.194-3.79 2.641-.844 6.388-9.313 2-8.949-6.349.528-12.613 1.987-18.977 2.587-6.729.634-13.5.773-20.255.736-13.359-.074-26.694-1.227-40.026-1.962l-1.148 8.746c18.761-8.726 33.292-26.273 44.075-43.437 10.649-16.95 19.733-37.465 18.712-57.899-.246-4.937-5.844.535-5.79 3.572z"/><path d="M251.389 620.635c-10.03 26.495-27.292 48.431-50.362 64.804-1.852 1.314-5.771 7.455-2.057 9.022 25.51 10.766 53.667 16.165 81.285 16.847 26.208.647 60.388-3.506 77.431-26.179 2.459-3.272 1.366-10.804-3.435-6.378-9.184 8.465-18.888 13.959-30.939 17.404-13.684 3.911-28.116 4.744-42.277 4.396-25.959-.641-53.241-5.457-77.293-15.457l-2.057 9.022c25.817-18.47 45.277-42.959 55.357-73.222 1.877-5.632-4.095-4.376-5.653-.259z"/><path fill="#219DF9" d="M847.262 665.769c-28.705-8.449-45.088-33.67-52.17-61.148 10.818 4.055 21.83 7.637 32.643 11.662 9.588 3.569 17.293-13.387 12.646-20.467-7.09-10.799-12.279-22.441-16.553-34.606-2.102-5.978-3.938-12.046-5.738-18.119-1.926-6.494-3.275-13.406-6.422-19.425-5.59-10.693-16.971 5.267-15.975 12.405 1.914 13.718 7.164 27.569 11.787 40.601a207.648 207.648 0 0 0 2.916 7.686c-7.604-2.846-15.104-5.938-22.342-9.685-8.357-4.325-14.746 10.679-14.508 16.597.848 20.98 6.115 41.354 16.373 59.707 5.137 9.193 11.814 17.003 19.609 23.529-35.613 5.992-72.277 1.553-108.068-5.119-7.592-1.414-16.375 17.166-8.354 20.377 47.674 19.082 101.809 21.432 148.85-.721 3.867-1.822 6.666-6.94 7.879-10.791.985-3.12 2.034-11.128-2.573-12.483z"/><path d="M818.16 526.659c-9.917 34.496 12.724 71.733 40.11 91.428 3.374 2.427 8.391-6.717 4.752-9.328-13.007-9.335-23.592-22.177-31.05-36.298-7.196-13.625-11.992-30.205-8.129-45.54 1.434-5.691-4.417-4.664-5.683-.262z"/><path d="M861.929 610.818c-23.129-1.061-46.821-5.256-66.294-18.515-2.932-1.997-6.35 4.001-6.422 6.146-.583 17.391 9.537 31.781 21.501 43.485 12.104 11.842 27.08 22.29 42.523 29.285 4.219 1.911 9.075-7.614 5.029-9.871-13.798-7.695-27.043-15.907-38.828-26.528-11.31-10.194-22.875-23.87-22.405-39.972l-6.461 7.393c19.836 13.326 45.278 17.567 68.792 16.724 3.301-.118 6.607-7.961 2.565-8.147z"/><path d="M688.442 683.182c27.024 17.875 59.736 28.573 92.231 28.723 31.746.147 65.768-13.314 81.117-42.822 2.133-4.1-1.345-8.263-4.548-3.753-8.95 12.599-18.615 22.805-32.962 29.257-13.873 6.239-29.235 8.25-44.33 7.935-30.582-.64-61.666-10.999-87.757-26.704-2.914-1.756-6.647 5.448-3.751 7.364zM270.637 442.5c21.783 1.317 39.392-15.158 51.927-31.105 7.254-9.228 13.248-19.515 18.218-30.131 4.05-8.65 8.95-19.074 9.345-28.77.243-5.956-5.309-2.702-6.55.885-2.755 7.962-4.724 16-8.173 23.749-4.212 9.465-9.454 18.446-15.51 26.845-10.86 15.062-27.092 30.699-46.859 30.904-3.12.034-6.167 7.395-2.398 7.623z"/><path fill="#2F61DD" d="M785.762 443.094c-29.367-16.15-58.736-60.202-46.986-93.975"/><path d="M450.733 320.259c-17.249-2.057-28.751-16.369-23.394-33.619 6.501-20.929 32.825-23.113 51.129-24.575 13.291-1.062 26.651-1.014 39.976-1.09 9.967-.057 19.941-.489 29.905-.4 17.535.157 35.113 1.119 52.5 3.452 11.059 1.484 22.185 3.55 32.647 7.521 10.142 3.849 16.33 9.321 20.348 19.619 9.488 24.32-21.426 32.966-39.668 29.118-4.312-.91-8.605 9.596-3.361 10.682 16.945 3.509 37.249-2.006 47.294-16.825 10.246-15.114 5.145-37.86-9.883-47.942-14.356-9.631-34.438-11.807-51.152-13.753-16.325-1.901-32.851-2.712-49.285-2.704-20.915.011-42.176.504-63.025 2.181-17.574 1.413-38.53 3.277-52.097 15.77-9.875 9.093-15.413 23.766-12.977 37.069 2.647 14.457 14.509 22.314 28.589 23.294 3.237.224 6.295-7.34 2.454-7.798zm121.93-250.001c13.142-34.062-84.227-50.963-89.805-2.047-.199 1.749.587 4.027 2.789 3.358 2.28-.692 3.518-3.239 3.926-5.39 3.635-19.129 27.979-20.728 43.56-18.812 8.879 1.092 17.788 3.746 25.423 8.483 4.521 2.806 10.652 8.182 8.605 14.153-1.876 5.471 3.964 4.242 5.502.255z"/><path fill="#FFE5B8" d="M824.126 476.536c3.46 0 6.439-8.146 2.564-8.146-3.46 0-6.439 8.146-2.564 8.146z"/><path d="M333.848 409.621c10.252-9.895 24.111-13.87 37.654-17.001 13.986-3.236 28.926-3.742 43.025-.991 17.928 3.495 29.4-37.367 14.09-36.965-38.24 1.009-77.299 12.788-99.055 46.429-2.897 4.48-2.487 15.067 4.286 8.528zm436.629 34.928c16.574-10.896 39.695-20.692 57.77-7.371 14.602 10.759 18.551 31.536 17.5 48.53-1.121 18.14-8.424 37.773-22.762 49.554-15.881 13.047-40.328 11.82-54.705-3.032-1.205-1.247-5.285-10.875-.477-10.072 8.791 1.471 16.201 6.465 25.355 6.989 7.438.425 14.455-1.965 20.633-5.984 12.881-8.392 20.166-24.773 22.559-39.456 1.969-12.11 1.652-28.146-8.635-36.663-15.082-12.492-38.732-1.748-53.367 5.806-3.01 1.548-6.717-6.43-3.871-8.301z"/><path d="M734.39 355.687c-3.201 18.53-.529 38.241 7.245 55.341 3.915 8.609 9.362 16.564 16.426 22.881 6.475 5.79 15.938 11.501 24.896 11.39 2.946-.037 7.146-7.126 3.492-8.52-3.764-1.436-7.702-2.161-11.438-3.73-3.947-1.658-7.6-4.002-10.978-6.611-7.062-5.455-12.44-13.224-16.309-21.17-7.637-15.686-10.263-34.174-7.439-51.364.255-1.548-.571-3.52-2.448-2.949-1.98.6-3.122 2.845-3.447 4.732zm-451.448 88.862c-16.576-10.896-39.695-20.692-57.77-7.371-14.602 10.759-18.551 31.536-17.5 48.53 1.121 18.14 8.424 37.773 22.762 49.554 15.879 13.047 40.328 11.82 54.705-3.032 1.207-1.247 5.283-10.875.475-10.072-8.789 1.471-16.201 6.465-25.354 6.989-7.438.425-14.455-1.965-20.633-5.984-12.881-8.392-20.166-24.773-22.559-39.456-1.971-12.11-1.654-28.146 8.633-36.663 15.082-12.492 38.732-1.748 53.369 5.806 3.009 1.548 6.718-6.43 3.872-8.301z"/></svg>