<svg xmlns="http://www.w3.org/2000/svg" xmlns:xlink="http://www.w3.org/1999/xlink" width="1030" height="1030" viewBox="0 0 1030 1030"><defs><path id="a" d="M1020.379 515c0 279.115-226.266 505.376-505.379 505.376C235.888 1020.377 9.623 794.113 9.623 515 9.623 235.887 235.888 9.623 515 9.623c279.113 0 505.379 226.264 505.379 505.377z"/></defs><use xlink:href="#a" overflow="visible" fill="#FFBF1F"/><clipPath id="b"><use xlink:href="#a" overflow="visible"/></clipPath><g clip-path="url(#b)"><path fill="#FFBF1F" d="M1021.414 517.213c0 279.115-226.266 505.377-505.379 505.377-279.112 0-505.377-226.264-505.377-505.377S236.924 11.836 516.035 11.836c279.113-.001 505.379 226.264 505.379 505.377z"/><path fill="#FC9E17" d="M64.591 301.338c65.699-60.766 147.473-101.363 226.168-142.393 40.814-21.281 80.746-43.73 120.539-66.854 43.205-25.111 87.469-49.598 136.053-62.561-.955-12.573-1.91-25.146-2.863-37.722C469.49 62.959 382.009 118.799 296.63 176.391c-43.967 29.658-87.432 59.996-129.213 92.682-20.033 15.672-39.123 32.311-60.043 46.828-21.764 15.1-44.412 28.885-66.553 43.41-20.463 13.42-40.42 27.699-58.93 43.736-7.094 6.145-11.697 17.17-10.986 26.521.547 7.209 5.93 13.973 13.848 11.199 98.168-34.393 184.332-95.652 268.734-154.941 42.164-29.617 84.252-59.42 128.115-86.494 19.998-12.342 40.242-24.098 59.857-37.074 21.045-13.918 41.816-28.238 62.965-42 37.358-24.314 76.481-48.123 120.034-59.316l-6.715-33.35c-3.625 4.497-11.992 11.267-18.965 15.919-10 6.669-20.648 12.364-31.156 18.177-23.027 12.742-45.092 27.219-67.553 40.936-51.305 31.332-102.533 62.797-153.852 94.113-51.111 31.188-102.326 62.211-153.791 92.816-45.84 27.262-92.238 53.613-137.738 81.449-57.197 34.99-113.604 73.15-161.328 120.578-6.828 6.783-11.732 16.688-10.986 26.519.559 7.365 5.898 13.781 13.85 11.199 51.945-16.859 99.75-43.609 147.504-69.638 50.273-27.404 102.162-51.779 153.584-76.934 106.725-52.203 213.545-104.201 320.028-156.898 43.588-21.572 87.408-42.348 128.738-68.076 36.969-23.018 73.674-48.996 115.463-62.539-.955-12.574-1.908-25.146-2.865-37.721-32.514 34.457-76.607 55.146-117.219 78.289-50.043 28.516-97.459 62.32-145.696 93.777-48.672 31.742-97.557 62.701-143.461 98.404-36.26 28.201-71.637 58.477-113.41 78.264-71.922 34.064-163.473 55.526-201.33 135.063-3.076 6.463-5.365 14.316-2.91 21.402 1.744 5.039 7.496 9.094 12.934 6.588 100.086-46.102 193.518-104.332 287.449-161.585 46.518-28.355 93.289-56.326 141.229-82.229 49.124-26.541 100.223-49.029 149.866-74.543 51.182-26.305 101.262-54.686 151.102-83.426-.984-12.998-1.971-25.994-2.959-38.99-89.506 66.279-184.818 124.035-280.237 181.279-95.316 57.186-189.701 115.123-280.916 178.699C148.345 533.63 70.7 560.079 20.878 624.456c-8.809 11.383-11.102 42.221 10.986 31.381 208.225-102.16 408.939-218.58 611.709-330.955 81.107-44.949 162.6-89.213 245.033-131.684l-2.959-38.988C684.77 269.934 489.943 395.938 300.087 528.914 223.16 582.793 147.083 637.887 71.74 693.957c-9.188 6.836-16.062 17.881-15.16 29.76.734 9.699 9.59 15.234 18.119 9.229 43.633-30.723 91.014-55.527 138.016-80.598 48.867-26.064 96.422-53.967 143.455-83.207 97.824-60.818 193.596-125.835 295.819-179.222 79.945-41.756 155.398-91.654 236.617-131.035l-7.131-35.752C726.443 362.758 545.963 469.948 368.333 577.764c-93.445 56.72-186.837 113.709-276.601 176.166-9.32 6.484-16.045 18.146-15.162 29.758.801 10.539 9.316 14.158 18.121 9.23 202.516-113.371 408.092-221.234 609.108-337.291 82.609-47.695 164.387-96.848 244.781-148.197-3.662-10.461-7.324-20.92-10.984-31.381-4.996 7.512-10.377 14.717-16.098 21.689-5.041 6.145-10.836 12.266-18.375 19.707-14.123 13.939-29.66 26.809-45.09 38.273-35.396 26.297-73.572 48.73-112.08 70.107-37.449 20.789-75.582 40.312-113.117 60.945-42.605 23.422-83.598 49.658-124.551 75.828-65.34 41.752-130.411 84.795-198.977 121.15-60.084 31.857-124.109 59.162-173.205 107.688-6.838 6.762-11.73 16.707-10.986 26.521.623 8.164 5.797 12.766 13.852 11.199 27.105-5.268 51.928-18.041 75.645-31.76 24.854-14.379 49.684-28.809 74.537-43.191a10614.59 10614.59 0 0 0 152.23-89.771c49.531-29.773 100.038-57.951 150.668-85.822 50.375-27.73 102.131-51.93 153.662-77.322 67.275-33.148 131.119-72.73 197.158-108.186l-10.984-31.383c-5.504 7.193-9.135 10.836-17.041 18.057-7.75 7.076-15.977 13.312-24.516 19.367-18.807 13.338-38.713 25.094-58.617 36.699-43.184 25.18-85.117 51.793-126.223 80.277-91.951 63.715-180.732 131.844-272.467 195.85-62.605 43.68-127.018 85.396-195.645 119.062l2.959 38.99c48.338-27.512 98.725-51.109 148.234-76.383 25.086-12.807 49.887-26.168 74.098-40.572 24.189-14.391 46.895-30.896 69.809-47.201 23.254-16.545 46.578-32.992 70.564-48.465 23.51-15.168 48.086-28.535 72.547-42.078 48.809-27.02 97.928-53.48 146.338-81.211 61.396-35.169 121.518-72.685 178.059-115.306L989 387.426c-59.982 69.826-146.119 119.631-225.498 166.939-91.051 54.268-181.006 110.705-269.409 169.203-41.195 27.26-81.383 55.869-121.203 85.092-39.395 28.914-78.959 57.732-121.234 82.348-9.594 5.584-15.99 18.82-15.16 29.758.842 11.066 9.201 13.475 18.119 9.23C355.576 881.945 450.72 822.941 545.861 764.48c47.797-29.369 95.674-58.625 144.385-86.459 47.674-27.238 96.568-52.016 145.609-76.67 75.025-37.713 150.203-76.055 218.389-125.427-2.375-11.916-4.754-23.834-7.131-35.75-33.609 33.213-76.088 55.598-117.895 76.718a4044.129 4044.129 0 0 0-133.637 70.689c-99.297 54.922-199.127 109.008-295.387 169.18-39.695 24.812-79.178 50.248-116.168 78.982-32.521 25.262-64.553 53.299-102.398 70.43-8.953 4.055-15.02 11.32-17.994 20.766-1.854 5.883-3.031 24.236 8.273 22.725 45.449-6.074 87.678-22.926 128.725-42.799 43.947-21.275 85.809-46.65 127.571-71.857 92.4-55.779 188.994-103.605 284.82-153.17 30.955-16.012 61.799-31.988 92.061-49.281 29.732-16.99 59.461-33.979 89.189-50.969 9.617-5.496 15.986-18.891 15.16-29.758-.803-10.576-9.309-14.111-18.121-9.23-104.188 57.711-206.854 118.117-308.766 179.746-51.145 30.93-102.088 62.188-152.947 93.584-44.668 27.572-85.542 60.625-129.553 89.188-21.203 13.756-43.262 26.518-67.016 35.328-.436 13.652-.871 27.305-1.309 40.957C503.589 874.062 701.895 821 881.025 728.061c47.312-24.547 93.094-52.107 136.094-83.643 9.217-6.758 16.059-17.938 15.16-29.76-.76-9.986-9.484-14.867-18.119-9.229-189.895 124.01-375.484 255.293-574.295 364.988a2775.644 2775.644 0 0 1-59.695 31.969l7.133 35.752c73.348-58.309 162.889-92.967 248.28-129.312 44.957-19.137 89.818-38.742 132.914-61.836 22.314-11.959 44.49-24.162 66.002-37.533 23.461-14.584 46.564-29.75 71.244-42.24l-14.291-26.021c-3.254 5.631 2.838-4.268-.768 1.271-1.092 1.672-2.266 3.291-3.438 4.908-1.197 1.656-2.473 3.256-3.742 4.855-.225.285-4.666 5.496-1.594 2.025-6.42 7.246-13.553 13.844-20.877 20.158-14.344 12.365-31.18 23.664-48.141 34.455-35.631 22.666-73.098 42.25-109.025 64.42-39.857 24.594-76.527 54.361-114.17 82.133-42.475 31.334-86.008 61.828-133.524 85.104-8.504 4.166-17.229 7.842-26.043 11.295.955 12.572 1.908 25.146 2.865 37.721 61.736-53.27 143.856-80.49 220.313-108.334 80.787-29.42 162.883-61.467 226.771-120.973 7.469-6.955 14.518-14.354 21.268-22.004 7.162-8.117 13.979-19.857 10.07-31.133-3.469-10.01-15.477-8.066-21.375-1.381-114.23 129.438-307.65 132.047-443.067 231.178a405.641 405.641 0 0 0-25.289 20.133c-7.098 6.125-11.693 17.186-10.986 26.523.529 6.965 5.992 14.279 13.852 11.197 97.135-38.068 176.129-109.006 260.493-168.248 66.982-47.033 147.926-76.375 205.264-136.568 10.398-10.916 19.23-22.635 26.766-35.684 7.102-12.287 4.061-35.305-14.291-26.02-23.682 11.982-45.959 26.396-68.42 40.475-22.416 14.049-45.568 26.727-68.83 39.299-42.02 22.705-85.975 41.566-129.891 60.242-90.248 38.379-182.229 75.838-259.649 137.379-7.225 5.744-11.672 17.469-10.984 26.521.818 10.785 9.258 13.842 18.119 9.23C584.75 936.469 771.74 806.555 960.965 681.342a11193.585 11193.585 0 0 1 56.154-36.924l-2.959-38.988C850.09 725.748 651.65 782.42 469.115 867.283c-48.148 22.383-95.299 46.992-140.352 75.131-8.23 5.139-13.766 14.979-14.994 24.48-1.041 8.053 3.029 20.43 13.686 16.479 48.654-18.047 91.17-48.994 132.91-79.129 45.078-32.541 91.93-61.576 139.313-90.625 101.836-62.436 204.242-123.967 307.943-183.266a7368.069 7368.069 0 0 1 86.652-48.766l-2.961-38.988c-51.545 29.457-102.699 59.619-155.438 86.898-53.777 27.818-107.557 55.633-161.336 83.449-43.93 22.723-87.301 45.756-129.695 71.246-41.772 25.117-83.297 50.699-126.524 73.277-41.221 21.529-86.023 41.922-132.549 48.141-3.242 14.498-6.48 28.994-9.721 43.49 47.463-21.482 85.908-55.805 127.178-86.811 44.623-33.523 92.953-62.742 140.678-91.576 96.973-58.586 197.006-111.867 295.912-167.064 73.6-41.076 157.643-70.725 218.6-130.962 6.842-6.76 11.732-16.709 10.988-26.521-.729-9.592-9.637-15.373-18.121-9.23-88.588 64.145-188.59 109.527-285.451 159.373-99.426 51.166-193.672 111.625-289.092 169.732-73.314 44.643-147.525 88.053-225.086 124.969l2.959 38.988c49.188-28.641 94.676-62.945 140.545-96.504 46.477-34 94.137-66.234 142.512-97.467 87.035-56.191 175.35-110.045 263.912-163.752 74.689-45.295 149.064-94.294 206.426-161.074 5.668-6.598 9.145-18.316 6.217-26.762-2.553-7.369-11.105-9.217-17.203-4.619-89.627 67.562-188.064 121.631-286.238 175.509-49.328 27.074-98.404 53.916-144.787 85.881-23.354 16.092-46.291 32.777-69.502 49.068-23.09 16.205-47.426 30.418-72.158 43.965-61.564 33.727-125.93 62.055-186.961 96.791-9.621 5.477-15.982 18.906-15.16 29.76.834 10.973 9.219 13.596 18.119 9.23 98.893-48.512 189.043-113.174 277.803-177.871 89.326-65.109 177.654-132.875 271.783-191.007 55.475-34.266 120.367-62.553 160.973-115.648 5.391-7.047 9.266-17.969 6.219-26.762-2.84-8.197-10.652-8.139-17.203-4.621-49.32 26.479-97.432 55.121-146.602 81.871-49.906 27.152-102.033 49.65-152.422 75.84-103.297 53.692-202.544 114.397-302.913 173.233a11372.038 11372.038 0 0 1-97.148 56.283c-30.902 17.713-60.723 37.979-96.279 44.889.955 12.572 1.908 25.146 2.865 37.721 33.756-33.367 76.162-55.738 118.041-77.18 45.688-23.391 90.238-48.039 134.127-74.68 87.6-53.176 171.682-111.859 262.073-160.353 54.957-29.484 110.543-57.98 162.961-91.898 49.711-32.166 98.854-70.18 131.992-120.016 5.023-7.557 9.406-17.564 6.219-26.762-2.701-7.791-10.855-8.674-17.203-4.621-195.874 125.101-399.876 236.654-603.808 347.892-83.529 45.561-167.061 91.117-250.082 137.596.984 12.996 1.971 25.992 2.959 38.988C265.64 673.977 449.087 574.512 622.932 460.024c94.264-62.08 185.904-128.777 269.848-204.379 7.025-6.326 11.707-17.035 10.988-26.521-.836-11.01-9.213-13.549-18.121-9.23-51.248 24.85-100.295 53.832-149.523 82.396-49.637 28.799-100.666 55.018-150.332 83.748-99.657 57.645-195.211 122.086-293.78 181.537-72.497 43.722-150.876 77.515-220.272 126.382l2.959 38.988c185.014-137.684 374.572-269.337 569.659-392.373 80.436-50.727 161.85-99.902 244.248-147.373 9.607-5.535 15.988-18.861 15.162-29.76-.822-10.814-9.252-13.799-18.121-9.229-206.176 106.222-406.214 223.749-609.962 334.455-81.457 44.257-163.553 87.351-246.781 128.185 3.66 10.463 7.322 20.922 10.984 31.383 25.775-33.309 66.303-56.533 103.787-77.648 19.877-11.199 39.891-22.156 59.18-34.355 21.949-13.881 42.736-29.654 64.246-44.203 92.357-62.465 188.979-118.262 284.292-176.014 77.074-46.703 153.373-94.857 225.836-148.516 9.199-6.811 16.062-17.9 15.162-29.76-.793-10.436-9.346-14.291-18.121-9.23-48.863 28.18-97.979 55.93-148.078 81.867-49.613 25.688-100.764 48.18-150.026 74.562-96.332 51.592-187.564 112.021-281.984 166.92-45.945 26.715-92.725 52.25-141.018 74.496l10.023 27.99c.941-1.98 1.92-3.936 2.938-5.881.277-.529 3.928-6.719 1.068-2.127 2.277-3.656 4.846-7.123 7.492-10.518.168-.217 4.738-5.592 1.715-2.197 1.438-1.613 2.949-3.158 4.457-4.703 3.551-3.637 7.363-7.01 11.246-10.285 4.773-4.025 12.174-9.08 19.404-13.619 8.459-5.309 17.279-10.027 26.193-14.512 34.469-17.342 71.242-29.699 106.113-46.215 43.148-20.439 79.836-52.666 117.23-81.818 44.834-34.949 93.141-64.873 140.711-95.896 48.038-31.33 95.284-64.803 145.125-93.205 42.926-24.461 88.732-46.936 123.102-83.359 6.684-7.084 11.75-16.467 10.986-26.521-.559-7.365-5.896-13.775-13.85-11.199-49.908 16.174-93.238 47.807-137.6 74.861-48.914 29.832-102.049 53.268-153.393 78.592-106.676 52.613-213.65 104.617-320.469 156.939-43.396 21.258-86.617 42.541-129.029 65.715-40.359 22.047-80.934 43.73-124.822 57.979.953 12.574 1.908 25.146 2.863 37.722 72.18-71.732 163.498-120.634 250.486-171.761C258.52 291.58 360.643 228.742 462.905 166.15c31.838-19.49 63.288-39.891 95.543-58.646 28.137-16.359 57.43-30.23 78.303-56.137 6.779-8.412 13.279-38.489-6.717-33.349-47.432 12.189-90.469 38.452-131.143 64.923-21.107 13.74-41.834 28.055-62.84 41.949-19.621 12.977-39.934 24.668-59.938 37.012-88.902 54.875-170.566 120.623-260.033 174.662-39.993 24.155-81.579 45.8-125.745 61.276l2.863 37.721c39.104-33.881 85.59-57.932 127.51-87.986 21.174-15.182 40.629-32.545 61.215-48.488 20.629-15.977 41.773-31.275 63.117-46.279 86.076-60.504 176.02-115.529 257.793-181.998 18.233-14.82 35.915-30.312 52.961-46.484 6.924-6.571 11.721-16.852 10.986-26.521-.586-7.715-5.842-13.337-13.852-11.199C503.627-.24 458.109 24.438 414.135 49.748c-40.959 23.574-81.777 46.955-123.684 68.824-82.873 43.246-167.969 86.252-237.164 150.254-7.75 7.166-13.725 20.592-10.072 31.133 3.689 10.637 15.031 7.252 21.376 1.379z"/></g><ellipse fill="#ED4300" stroke="#ED4300" stroke-width="2" stroke-miterlimit="10" cx="518.049" cy="88.929" rx="36.719" ry="24.157"/><path fill="#ED4300" d="M888.069 753.157c2.791 0 5.195-6.572 2.068-6.572-2.79 0-5.195 6.572-2.068 6.572z"/><path fill="#FFE5B8" d="M281.958 464.304c-11.455-10.898-28.715-25.352-45.898-18.47-19.311 7.733-29.553 29.429-31.254 49.18-2.082 24.199 7.865 71.878 42.168 62.271 14.07-3.941 25.305-16.725 33.432-28.127 5.645-7.916 11.482-22.364 4.352-31.269-7.096-8.858-19.213.304-23.879 6.85a108.013 108.013 0 0 1-4.359 5.719c-2.764 3.373 3.984-4.363 1.135-1.297a56.284 56.284 0 0 1-2.07 2.076 44.756 44.756 0 0 1-2.033 1.817c-2.76 2.376 4.494-3.327 1.643-1.289-1.207.864-2.498 1.595-3.824 2.257 6.141-3.062 2.023-.977.15-.522-2.602.633 4.559-.478 1.947-.229-.555.054-1.113.044-1.672.032-1.635-.03-5.449-1.263.18.375-1.207-.351-2.342-.922-3.426-1.551-3.506-2.03.334.518-.027.193-.887-.789-1.678-1.683-2.439-2.592-.807-.961-1.52-1.997-2.205-3.045a37.235 37.235 0 0 1-1.012-1.675c-1.346-2.316 2.195 4.352.486.794-1.23-2.556-2.174-5.242-2.986-7.958-.422-1.408-.768-2.839-1.092-4.272-.699-3.102.932 4.958.369 1.824a71.842 71.842 0 0 1-.445-2.944c-.395-2.922-.555-5.872-.555-8.817-.002-3.329-.244 5.853-.088 2.554.035-.707.096-1.41.154-2.113.117-1.366.316-2.724.549-4.077.781-4.582-1.822 6.781-.258 1.398.176-.6.381-1.188.59-1.774 1.137-3.225-2.928 6.84-1.541 3.757 2.336-5.203-2.264 3.275-1.424 2.043 2.889-4.253-4.895 4.656-1.113 1.325-5.365 4.724-4.225 3.148-2.627 2.107 1.281-.829 3.842-1.786-2.555 1.073.973-.435 2.014-.689 3.057-.882-6.008 1.113-2.084.313-.203.452.639.047 1.27.157 1.9.268 2.438.422-4.246-1.324-.506-.105 3.309 1.078 6.377 2.842 9.285 4.716 1.828 1.177 3.562 2.491 5.271 3.829-3.16-2.473.148.15.646.585 1.352 1.174 2.648 2.4 3.945 3.635 8.17 7.772 18.365.604 23.881-6.849 5.041-6.814 12.326-23.684 4.351-31.273z"/><path fill="#61E9FF" d="M754.404 937.52c-8.154-32.932-21.797-64.637-40.619-92.443a214.81 214.81 0 0 0-4.213-8.168c-.201-6.18-2.148-11.643-7.293-12.527-4.652-7.473-9.646-14.654-14.793-21.477-27.064-35.883-63.463-59.572-107.648-68.398-45.379-9.068-92.862-1.592-137.786 6.551-40.145 7.275-83.396 12.119-117.025 37.283-11.818 8.844-21.332 19.295-29.15 30.852-5.438 5.383-10.506 11.182-15.125 17.434a139.253 139.253 0 0 0-2.678 3.762c-9.617 11.75-18.879 23.814-28.492 35.391-6.139 7.391-11.166 22.762-4.352 31.271 2.031 2.537 4.377 3.604 6.811 3.707-1.215 8.799-1.867 17.701-2.035 26.609-1.877 3.354-2.871 7.213-2.186 10.221-3.059 5.441-4.008 12.582.424 15.582.936.635 1.883 1.256 2.826 1.875.838 3.762 3.213 4.572 5.904 3.77.406.252.816.5 1.225.748 1.531 3.141 4.322 5.211 8.879 5.191 10.93 6.111 22.271 11.463 33.895 16.182-.021.91-.016 1.826.055 2.758.625 8.229 5.967 13.309 14.227 11.502a173.122 173.122 0 0 0 14.639-3.902c19.568 6.156 39.604 10.906 59.541 14.805 44.051 8.611 89.848 12.793 134.682 14.045 54.85 1.533 141.41-4.275 182.717-48.459a579.724 579.724 0 0 0 38.064-15.498c6.92-3.107 11.373-11.13 9.506-18.667zm-446.412 12.734c9.934-5.359 19.449-11.553 28.529-17.734 1.393-.947 2.764-1.926 4.146-2.889-9.012 7.297-17.547 15.092-25.391 23.557a203.838 203.838 0 0 1-7.284-2.934zm215.092-181.492c-10.157 4.564-20.065 9.723-29.776 15.193 3.943-4.453 7.004-9.609 8.631-15.305 7.057-.111 14.11-.097 21.145.112zm74.32 12.642c-10.865 6.75-21.881 13.24-32.945 19.643 3.975-7.297 7.352-14.973 9.973-23.094.307-.955.566-1.973.773-3.027 7.473 1.711 14.879 3.844 22.199 6.478zm68.2 42.147a218.679 218.679 0 0 1 9.658 9.652 426.186 426.186 0 0 0-25.629 11.865 493.006 493.006 0 0 0 11.301-13.643c1.796-2.249 3.406-4.952 4.67-7.874zm-23.926-19.332c-7.42 4.967-14.428 10.463-21.275 16.17 4.727-6.936 9.037-14.152 12.854-21.674a197.618 197.618 0 0 1 8.421 5.504zm-108.18 56.519a698.034 698.034 0 0 1-17.332 12.088c-15.909 10.775-32.262 20.846-48.709 30.768 21.158-15.953 42.996-29.746 66.041-42.856zm-88.166 2.244c-25.736 15.68-53.426 30.582-79.119 47.885 11.529-8.803 22.941-17.768 34.576-26.416 21.979-16.332 45.846-30.158 69.051-44.652 14.59-9.113 29.406-17.936 44.854-25.346a335.004 335.004 0 0 1-4.109 3.629c-9.508 8.254-17.07 13.641-28.426 21.412-12.017 8.225-24.396 15.914-36.827 23.488zm-167.674 37.829a247.58 247.58 0 0 0 6.025-2.918 198.131 198.131 0 0 0-7.818 10.51c.545-2.514 1.1-5.025 1.664-7.535.041-.02.084-.038.129-.057zm151.984 74.232c7.992-3.531 15.982-7.061 23.959-10.627-4.258 2.93-7.959 6.969-10.682 11.586a949.642 949.642 0 0 1-13.277-.959zm81.334-2.022a194.658 194.658 0 0 0-5.502 5.762c-1.166-.031-2.33-.066-3.496-.1a879.955 879.955 0 0 0 8.998-5.662zm188.79-107.65a219.74 219.74 0 0 1 1.918 4.381 371.42 371.42 0 0 0-7.461 3.934 166.966 166.966 0 0 0 5.543-8.315zm6.873 52.981a94.36 94.36 0 0 0 6.133-9.838 86.71 86.71 0 0 1 .531 7.924c-2.231.613-4.451 1.25-6.664 1.914z"/><path fill="#FFE5B8" d="M573.891 727.633a42.081 42.081 0 0 0-2.568-1.078c-1.299-4.391-3.133-8.773-5.521-13.162-5.6-10.287-20.096 1.736-23.881 6.852a41.504 41.504 0 0 0-2.182 3.266c-8.33.834-16.525 2.551-23.811 4.357-16.178 4.016-33.217 14.027-41.166 28.58-.207-.225-.436-.469-.707-.758-1.479-1.564-2.729-3.32-3.895-5.125.762 1.115-1.057-2.152-1.205-2.504-.629-1.477-1.078-3.021-1.531-4.557l-.193-.643a29.312 29.312 0 0 0-.158-1.287c-.248-1.803-.307-3.629-.371-5.445l-.021-.568c.055-.332.125-.916.213-1.873.197-2.135.58-4.248.955-6.355 1.588-8.898-3.367-20.172-14.057-16.926-11.408 3.465-17.855 16.336-19.785 27.166-3.312 18.572-1.631 38.479 9.928 53.992 9.549 12.814 25.781 18.783 41.156 20.186 14.693 1.344 29.236-1.662 42.473-7.775a54.782 54.782 0 0 0 6.004-2.168c13.021-5.631 24.223-15.383 31.316-27.691 4.396-5.67 8.164-11.771 11.156-18.164 3.431-7.332 8.14-23.555-2.149-28.32z"/><g fill="#FFE5B8"><path d="M379.232 713.947h-.002l-.002.006z"/><path d="M783.482 358.977c-3.062-3.483-7.494-4.567-12.463-2.99l-1.848.588v-.106l-.393.232c-14.877 4.752-24.48 3.931-33.912 2.16 1.82-5.985 3.217-12.149 4.262-18.398.863-.026 1.764-.312 2.547-.795 3.383-2.085 5.27-6.294 5.184-10.17-.43-19.102-2.881-38.174-8.027-56.373-1.621-7.712-4.082-15.221-7.768-21.949-5.355-12.418-12.229-24.211-20.883-35.062-22.363-28.041-55.613-45.254-89.697-54.464-19.037-5.144-38.576-8.032-58.23-9.399-22.918-1.595-46.016-1.35-68.661 2.814-3.131.575-6.215 1.25-9.266 1.997-31.07 1.121-61.865 7.188-90.023 20.924a150.73 150.73 0 0 0-7.748 4.07c-14.219 5.359-28.047 11.688-41.115 19.283-17.805 10.35-34.758 23.997-44.582 42.447-7.131 13.391-8.598 28.253-5.109 42.396-3.082 13.256-2.9 27.104.787 40.479-11.549 8.087-22.641 16.902-33.08 26.693-6.215 5.83-10.586 14.407-11.688 22.942-.498 3.862-.254 11.642 3.828 16.286 2.031 2.309 4.75 3.447 7.908 3.319 10.021-.454 20.34-1.675 31.223-3.7-8.732 4.321-16.646 8.823-23.934 13.604-8.633 5.663-14.85 15.803-16.229 26.466-.615 4.758.002 11.835 3.77 16.12 2.004 2.281 4.715 3.488 7.891 3.488 19.586-.082 40.115-1.743 62.385-5.064-25.385 10.929-51.74 3.586-77.297 17.963-9.617 5.409-15.135 36.549-16.338 45.858-.797 6.161.605 11.975 3.75 15.553 3.004 3.42 7.457 4.646 12.588 3.426 20.938-4.965 39.312-9.479 56.191-13.812a1867.531 1867.531 0 0 0-12.314 5.312l-1.086.268-.033.238c-10.727 5.102-18.324 15.807-19.928 28.197-.793 6.168.602 11.998 3.764 15.596 3.014 3.426 7.434 4.639 12.553 3.381l2.197-.551c-.453.234-1.004.469-1.457.703l-.42.055v.061c0 .592-2.082 1.182-3.225 1.771-9.117 4.719-14.949 16.932-16.195 26.562-.799 6.174.621 12.018 3.799 15.631 3.016 3.432 7.459 4.631 12.564 3.342a788.277 788.277 0 0 0 32.545-8.982c-7.799 7.588-14.633 23.797-11.975 33.965 1.75 6.691 7.34 9.832 15.621 8.641a438.707 438.707 0 0 0 23.127-3.963c-3.004 4.727-4.994 10.168-5.715 15.738-.592 4.588.113 11.535 4.059 16.021 3.072 3.496 7.502 4.553 12.439 2.914 3.527-1.174 7.057-2.344 10.59-3.504-4.004 5.285-6.654 11.617-7.498 18.146-.811 6.285.438 11.668 3.518 15.172 2.934 3.34 7.393 4.668 12.691 3.809.701-.113 1.402-.264 2.104-.381l.135-.223c7.139-1.164 14.291-2.609 21.453-3.803-3.76 8.406-5.637 17.938-2.018 23.979 1.002 1.678 2.77 3.023 5.797 3.662 1.219.469 2.65.721 4.307.723l.053.002c5.629-.012 11.275-.09 16.932-.213 10.812.088 21.557.105 32.109-.537.641 5.504 3.396 10.658 7.889 12.641 12.75 5.627 27.041 8.48 42.477 8.48 32.874 0 66.217-12.879 88.438-22.568 42.258-18.424 80.551-42.598 115.639-65.98l.975-.549-.008-.119c10.039-7.176 16.373-20.023 15.492-31.633-.619-8.164-5.609-13.439-12.709-13.439-.457 0-.92.023-1.387.068 11.346-9.078 20.848-18.922 28.801-29.805 5.5-7.521 10.131-19.143 6.645-29.201-1.471-4.238-4.547-7.109-8.506-8.08a268.549 268.549 0 0 0 6.076-5.551c7.965-7.51 12.621-18.793 11.865-28.744-.514-6.756-5.035-13.937-12.402-13.937-1.418 0-2.879.279-4.344.83-2.229.84-4.48 1.683-6.75 2.528 7.805-5.483 13.594-15.345 14.92-25.599.621-4.812-.432-11.949-4.213-16.251-3.102-3.525-7.521-4.499-12.359-2.657-.58.221-1.166.443-1.754.665l.01-.319-1.283.796c-.945.353-1.902.708-2.863 1.061a368.56 368.56 0 0 0 19.15-16.31c6.207-5.666 10.582-14.248 11.709-22.957.662-5.143-.248-12.132-3.779-16.151a10.021 10.021 0 0 0-3.436-2.557 896.752 896.752 0 0 0 18.893-10.753c9.629-5.639 15.127-17.38 16.311-26.516.778-6.03-.798-12.29-4.013-15.951zM368.5 231.225c-8.742 8.431-17.402 16.94-26.191 25.308a133.269 133.269 0 0 1 8.395-11.326c2.039-2.463 4.396-5.019 6.945-7.562 5.061-4.208 10.471-8.015 16.102-11.459-.477.456-.955.91-1.432 1.367a28.78 28.78 0 0 0-3.819 3.672zm-48.092 45.366c4.857-13.397 11.186-26.189 19.295-37.897 4.031-3.683 8.307-7.092 12.762-10.271-12.885 13.643-23.109 29.49-30.494 46.791-.522.458-1.04.92-1.563 1.377zm361.631-65.599c.617.517 1.236 1.033 1.848 1.561a2.859 2.859 0 0 0-1.137-.397c-.238-.389-.471-.78-.711-1.164zm12.035 141.517c.496 1.114.98 2.235 1.471 3.354-1.258.003-2.812.009-4.543.017a82.484 82.484 0 0 0 3.072-3.371zm16.018-110.007a12.552 12.552 0 0 0-.652 4.106 96.1 96.1 0 0 0 .264 6.137c-6.418-14.059-15.234-27.069-24.689-39.186-.031-.038-.062-.066-.092-.104 9.509 8.346 17.999 17.983 25.169 29.047zm-404.798 17.636c.098-.69.227-1.374.355-2.059.199-1.07-.1.28.367-1.491 1.436-5.434 3.551-9.432 6.355-13.512 3.709-5.395 7.066-8.849 12.207-13.441 6.822-6.096 14.406-11.407 22.449-16.108a171.237 171.237 0 0 0-9.635 11.49c-12.779 10.758-23.998 23.208-32.359 37.709a.992.992 0 0 0-.053.095c.086-.898.187-1.792.314-2.683zm108.967 49.522c.979-.438 1.965-.877 2.945-1.314.049.118.1.239.148.359-1.032.317-2.067.632-3.093.955zm98.901-5.78c4.477 2.46 8.854 5.105 13.147 7.825a655.98 655.98 0 0 1 5.162 3.309c-6.453-2.838-12.494-5.764-18.1-8.886a22.877 22.877 0 0 0-.209-2.248z"/></g><path d="M277.171 497.027l-.26-.01c-.451-10.315-6.543-19.462-18.172-19.667-13.053-.233-24.791 10.802-31.682 20.734-1.799 2.597-.914 9.246 2.523 5.019 5.992-7.368 14.018-12.999 23.793-13.124 6.295-.079 9.727 3.148 12.307 7.404-4.42.683-8.578 2.269-11.52 5.748-5.438 6.432-4.367 16.167.297 22.738 1.998 2.818 5.271-4.174 4.674-6.051-.852-2.672-4.822-9.702-1.957-12.178 2.996-2.59 7.432-3.522 11.725-3.944a97.828 97.828 0 0 0 1.725 3.53c1.518 2.91 4.525-1.791 5.672-4.351 1.868-1.368 3.262-5.751.875-5.848zm150.621 243.916c-7.109 22.539-5.799 46.744 11.232 64.479 15.197 15.822 37.977 22.227 59.367 21.967 22.436-.268 44.989-7.955 61.209-23.709 8.43-8.186 14.502-19.217 17.512-30.521 2.471-9.291 4.977-26.746-4.273-32.787-3.502-2.291-6.686 5.83-7.064 7.838-1.727 9.225-.393 19.594-2.943 27.977-.762 2.504-1.734 4.264-4.154 7.678-.998 1.408-4.445 4.807-6.779 6.674-14.457 11.578-33.387 16.033-51.6 16.305-18.324.279-37.521-3.664-52.279-15.02-16.098-12.387-19.307-33.166-15.467-52.008.962-4.718-3.966-1.396-4.761 1.127z"/><path d="M429.019 737.795c-52.975.24-113.121.182-148.166 47.148-15.521 20.797-23.727 45.572-28.549 70.811-4.822 25.221-7.109 52.107-4.25 77.588.596 5.309 5.324-1.201 5.746-3.361 8.705-44.611 5.66-94.545 32.855-133.482 30.758-44.041 92.721-37.09 138.865-46.996 3.735-.8 9.005-11.733 3.499-11.708zm143.178 16.293c25.098-1.977 51.953-.742 75.807 7.918 21.484 7.803 37.883 22.963 51.4 40.949 14.408 19.17 22.9 41.301 30.906 63.67 8.15 22.766 14.73 46.371 19.355 70.096 1.4 7.191 11.084-4.928 10.385-9.555-7.652-50.561-16.535-101.48-47.963-143.469-13.85-18.502-33.668-32.742-55.627-39.826-28.057-9.049-56.412-3.92-83.391 6.213-1.02.387-2.69 4.146-.872 4.004z"/><path d="M289.806 879.078c9.791.861 21.24 4.492 25.555 14.211 3.977 8.965 3.785 20.332 3.582 29.951-.234 10.889-1.85 21.762-2.961 32.586-.838 8.146-3.824 21.391 1.258 28.498 5.295 7.408 13.129-9.162 13.65-12.598 1.508-9.941-.312-21.078-.039-31.225.311-11.541.682-23.123-.789-34.604-1.24-9.68-4.867-17.904-11.965-24.674-7.789-7.428-18.123-6.658-27.826-4.283-.625.158-1.42 2.054-.465 2.138z"/><path fill="#08B5F9" d="M678.352 869.711c.152-.301.275-.59.434-.893.723-1.4 1.57-7.383-1.852-5.727-.906.439-1.779.91-2.652 1.391a3.781 3.781 0 0 0-1.479-.252c-.744.051-1.486.104-2.23.158-3.816.268-6.285 3.885-7.598 7.68-3.053 2.326-6.059 4.736-9.18 7.072-1.613 1.205-2.887 7.031.268 5.041 2.629-1.66 5.186-3.434 7.779-5.125.098 2.68.826 5.232 1.867 7.725-8.945 31.83 7.877 67.049 12.488 99.234 2.156 15.033 16.115-2.695 16.902-9.891 3.93-36.013 3.891-74.308-14.747-106.413zM481.31 858.998c-19.473 1.01-38.277-9.141-52.059-22.182-6.473-6.125-11.842-13.344-16.502-20.906-4.742-7.693-6.719-17.373-12.164-24.49-.775-.984-1.791-1.457-3.043-1.42a11.63 11.63 0 0 0-1.883.434c-.711-3.734-1.236-7.443-1.488-11.096-.436-6.248-6.525 1.971-6.652 4.998-.201 4.785.047 9.607.557 14.428-1.895 5.975-1.227 13.629.139 18.607 1.465 5.344 3.795 10.551 6.59 15.539 4.047 15.621 9.494 30.871 17.59 44.898 6.699 11.613 16.561 23.922 30.586 26.164 17.285 2.76 31.283-13.371 39.324-26.488 2.013-3.285 8.056-18.953-.995-18.486z"/><path fill="#EAA286" d="M772.646 491.632c-1.293-12.126-3.123-24.178-5.346-36.159 1.465-21.096 1.824-42.146-1.508-63.114l.455-2.193c.354-1.706-.258-3.708-1.633-4.479a167.385 167.385 0 0 0-2.705-11.566c-1.414-5.192-6.803-.3-8.615 2.906-1.6-16.493-4.736-32.869-8.793-48.822-8.734-34.349-22.822-67.875-42.414-97.468-.447-.676-1.049-.993-1.707-1.077-3.148-6.222-6.65-12.163-10.697-17.559-.012-15.419-14.375-26.519-26.562-34.109-10.02-6.241-20.998-11.486-32.266-15.614-8.982-8.314-18.746-15.715-29.652-21.466-24.295-12.812-53.023-13.556-79.695-9.837-23.825 3.319-46.708 10.229-69.243 18.276a279.573 279.573 0 0 0-48.355 18.236l-1.34.506c-.293.109-.578.308-.848.565-42.803 21.324-79.906 53.697-104.584 95.005-1.105 1.851-1.734 5.131-.26 6.974 2.006 2.504 5.072-.225 6.465-1.854a299.257 299.257 0 0 1 17.209-18.494 195.307 195.307 0 0 0-7.744 11.683c-16.131 26.332-26.668 56.594-27.566 87.608-.109 3.756 4.666.129 4.805-2.213 2.508-41.986 22.607-83.07 52.512-112.363 14.762-14.46 32.652-25.704 52.672-31.145 23.799-6.469 48.09-1.245 71.623 3.919 1.658.364 3.316.736 4.977 1.111.457.647 1.139 1.053 2.131.978.512-.039 1.023-.097 1.535-.145 17.201 3.941 34.537 8.243 52.006 10.974.426.269.949.469 1.592.583a31.1 31.1 0 0 0 5.721.46c15.293 1.969 30.688 2.533 46.18.392 17.406-2.406 34.152-8.289 51.613-10.332 8.84-1.034 17.725 6.07 26.449 7.81.832.166 1.643 3.271 2.449 3.479 7.873 10.144 15.219 11.018 21.738 21.919 25.785 43.134 36.141 92.786 41.262 142.212 1.691 16.324 2.984 32.647 3.74 48.98-.414 22.765-.467 45.533-.387 68.304a551.8 551.8 0 0 1-.83 11.447c-1.787 21.106-4.598 42.385-10.533 62.766-6.643 22.801-20.459 42.865-34.646 61.627-16.174 21.387-34.24 43.092-55.582 59.531-.367.283-.74.555-1.109.834-12.855 4.361-25.016 11.854-34.451 20.904a209.337 209.337 0 0 1-30.963 11.82c-20.494 6.023-42.162 8.455-63.418 5.848-3.727-.455-7.223 8.371-2.824 8.971 31.299 4.264 63.803-2.393 93.002-15.688.242 2.086 1.502 3.424 4.555 2.672 9.787-2.41 19.668-7.67 27.994-13.648.346.189.803.225 1.385.047.309 1.068 1.146 1.615 2.824 1 2.984-1.092 5.795-2.57 8.426-4.328.703.645 1.672.9 2.93.395 15.955-6.404 28.979-20.201 40.088-32.877 8.5-9.697 16.094-20.305 22.98-31.285 1.887.328 4.611-1.316 5.92-2.826 14.609-16.857 24.219-37.549 32.25-58.172 6.385-16.396 11.768-33.436 15.721-50.684-.021 6.189.139 12.371.574 18.535.297 4.201 4.262 4.24 6.83 1.838 20.124-18.826 16.306-46.787 13.663-71.598zM403.492 191.846a322.825 322.825 0 0 1 6.924-3.25c.52.681 1.338 1.171 2.551 1.364a51.19 51.19 0 0 0 2.117.288c-3.889.323-7.752.851-11.592 1.598zm128.485 16.542c-.512.188-1.057.533-1.598.989-.527-.082-1.051-.173-1.578-.258a177.55 177.55 0 0 0 3.389-.809l-.213.078zm40.974 1.803c-.16.506-.295 1.24-.352 2.038-2.818.191-5.654.28-8.496.277 3.102-1.626 6.068-3.298 8.842-4.865l1.422-.417a11.666 11.666 0 0 0-1.416 2.967zm-3.371-47.654a314.9 314.9 0 0 1 3.967.463c-1.305-.04-2.609-.071-3.918-.097a3.622 3.622 0 0 0-.049-.366zm-44.592-14.194c1.672-3.44 2.475-7.625-.271-8.634 16.105-1.518 32.281-1.004 48.41 2.605 10.121 2.265 19.527 6.419 28.268 11.776-25.11-5.363-50.825-7.148-76.407-5.747zm90.52 55.924c-1.574.353-3.145.714-4.717 1.076 5.373-2.475 10.752-4.889 16.279-6.73 7.584-.325 15.707-.236 23.357 1.183.094.109.186.218.277.326-11.825-.686-23.718 1.569-35.196 4.145zm92.916 426.622c1.07-3.4 2.352-6.736 3.633-9.98a199.425 199.425 0 0 1 3.26-7.727 142.888 142.888 0 0 0 5.641-9.381c2.102-3.838 4.188-7.689 6.246-11.555-5.001 13.139-10.917 26.705-18.78 38.643zm24.453-251.038a606.32 606.32 0 0 0-1.641-13.35c.691 4.312 1.367 8.627 2.021 12.944-.13.133-.257.267-.38.406zM761.83 544.24c-.348-13.232.297-26.471 1.305-39.702a382.086 382.086 0 0 1 1.381 19.571c.314 7.114-.078 14.02-2.686 20.131z"/><path d="M396.984 778.189c-1.51 22.701 7.143 43.58 22.812 59.863 14.197 14.75 41.857 28.672 62.639 23.561 3.051-.754 8.062-10.627 3.645-12.092-9.389-3.113-19.494-3.15-29.002-6.23-9.637-3.121-18.576-8.15-26.674-14.182-17.617-13.125-29.162-31.166-28.785-53.629.066-3.939-4.493.588-4.635 2.709zm248.145 105.885c2.439 8.418 6.193 16.299 9.199 24.529 3.621 9.904 5.58 20.312 7.547 30.637 4.01 21.041 5.578 42.533 8.725 63.715.154 1.047.416 3.297 1.846 3.596.42.088.844.176 1.264.266 2.627.549 4.771-2.043 5.684-4.268 3.803-9.279.391-20.129-.812-29.832-1.482-11.988-3.465-23.914-5.828-35.762-2.334-11.693-5.604-23.123-10.23-34.121-3.416-8.121-7.734-17.076-16.639-19.906-.514-.164-.864.771-.756 1.146z"/><path d="M682.361 852.594c-13.814 5.059-25.775 13.172-35.119 24.582-1.559 1.902-3.035 4.777-2.242 7.316 1.014 3.25 4.273.293 5.334-1.166 8.035-11.066 18.865-19.035 31.219-24.723 1.886-.869 3.904-7.142.808-6.009zm74.448-392.565c-.463 51.311-9.104 103.924-27.906 145.362-29.855 65.803-87.504 113.957-158.465 129.131-79.741 17.053-167.362-4.773-224.143-64.568-57.404-60.447-71.686-145.637-64.359-225.984-3.674-2.087-7.428 5.707-11.328 4.236-1.305 9.725-2.35 9.809-3.107 19.552-6.211 79.983 11.545 163.35 67.389 223.526 55.693 60.016 141.545 82.822 221.075 69.76 73.885-12.139 135.279-59.332 172.135-123.693 29.561-51.625 44.014-120.418 42.869-186.022-5.031 2.17-9.801 5.141-14.16 8.7z"/><path fill="#FFF" d="M593.645 563.08c-51.16 2.395-103.186 5.756-154.028-2.197-3.559-.557-6.229 4.877-6.586 7.596-1.482 11.346 2.713 21.643 9.205 30.482-4.342 8.096-4.77 17.41 3.58 24.406 9.629 8.066 23.285 11.674 35.844 13.527 7.123 3.297 14.822 5.35 22.832 6.055 35.852 3.145 67.038-22.273 82.87-52.494 3.523-6.727 6.307-13.885 8.557-21.131.565-1.82.829-6.39-2.274-6.244zm-117.737 34.291c1.926 1.752 4.049 3.193 6.322 4.371-4.404-.559-8.74-1.438-12.906-2.779a70.56 70.56 0 0 1 6.584-1.592zm80.992 1.949c-.352.002-.703.02-1.053.025 1.273-.182 2.549-.342 3.822-.486a44.963 44.963 0 0 1-.197 1.572c-.476-.695-1.292-1.119-2.572-1.111zm-98.037-8.732a40.9 40.9 0 0 1-2.244-2.703c2.75-.061 5.5-.105 8.25-.129a54.483 54.483 0 0 0-6.006 2.832zm-12.549-15.619l-.076-.217.568.07c-.166.045-.332.086-.492.147zm135.217 1.82c-7.557-.016-15.111-.154-22.668-.352 8.799-.379 17.6-.766 26.41-1.092-.395 1.004-.807 2-1.232 2.99-.426-.919-1.207-1.542-2.51-1.546zM450.66 608.594c.277.449.574.889.859 1.336a13.405 13.405 0 0 1-1.336-1.803l.477.467z"/><path d="M409.223 547.892c30.257 19.691 69.639 24.247 104.931 24.218 19.422-.016 39.002-2.226 57.953-6.466 16.55-3.702 34.829-9.215 48.688-19.361 2.612-1.912 4.608-10.484-.586-7.713-15.075 8.044-30.18 14.01-46.9 17.825-18.875 4.308-38.219 5.938-57.545 6.171-34.342.414-72.863-3.855-103.065-21.496-2.732-1.595-6.168 5.07-3.476 6.822z"/><path fill="#FFBF1F" d="M798.311 354.148c-3.416-13.34-5.266-27.175-7.07-42.804-1.883-16.311-3.846-32.425-7.361-48.483-3.01-13.747-8.182-26.464-12.857-39.659-3.777-10.664-7.029-21.507-10.93-32.13-8.426-22.96-20.852-43.044-41.875-56.332-11.391-7.199-24.271-12.715-36.596-18.098-12.859-5.617-26.031-10.511-39.395-14.79-55.844-17.877-113.982-23.469-172.004-14.658-24.266 3.685-48.498 10.124-71.654 18.238-23.256 8.147-46.307 18.634-66.463 32.929-18.531 13.142-33.887 28.961-45.617 48.449-12.369 20.554-20.072 43.437-23.99 67.025-2.023 12.2-2.801 24.313-2.988 36.5a250.051 250.051 0 0 0-6.24 16.581c-4.721 14.081-8.994 31.51-6.297 47.028-9.869 5.26-20.818 28.615-8.107 36.145 2.598 1.539 4.406 2.98 7.613 3.374 2.105.259 4.197.62 6.299.916 4.891.687 9.455.918 14.363.372 11.678-1.297 22.592-3.871 33.85-7.116 20.201-5.822 40.256-12.402 61.143-15.331l-5.512.747c32.375-4.305 64.592-9.698 96.949-14.141 31.732-4.219 63.606-7.563 95.625-8.403 16.666-.438 33.117.027 49.648 2.282 16.551 2.257 32.838 6.196 48.994 10.371 21.207 5.507 42.324 10.831 64.082 13.688 10.541 1.385 20.947 3.144 31.525 4.189 4.898.483 7.141 1.17 12.34 3.095 5.443 2.016 10.789 4.288 16.074 6.683 8.076 3.658 15.98-3.961 20.258-10.701 5.652-7.287 8.491-16.998 6.193-25.966zm-541.644-11.276c-.216.522-.281.653 0 0z"/><path d="M424.462 555.639c-3.572 45.13 26.406 88.824 72.316 95.856 20.549 3.147 44.04-1.666 61.849-12.291 16.234-9.686 27.229-25.418 34.061-42.741 5.152-13.068 8.799-28.589 8.457-42.684-.035-1.476-1.199-2.638-2.698-2.183-2.169.659-3.38 3.099-3.754 5.153-1.876 10.294-2.8 20.535-5.761 30.636-2.578 8.796-6.332 17.25-11.57 24.789-11.274 16.229-28.986 24.972-48.057 28.423-22.906 4.145-45.458.469-64.573-13.138-18.648-13.273-30.939-34.837-33.94-57.385-.714-5.368-.812-10.812-.465-16.21.355-5.522-5.577-1.874-5.865 1.775z"/><path d="M427.774 588.852c24.433 12.547 52.091 19.165 79.441 20.631 28.407 1.521 59.885-2.892 83.761-19.421 2.5-1.731 3.911-9.565-.527-6.939-25.062 14.83-53.275 19.563-82.125 18.072-26.429-1.366-53.263-7.506-77.201-18.913-2.784-1.328-6.082 5.166-3.349 6.57zm-37.687-130.956a31.187 31.187 0 0 0-.988-1.214c-3.928-5.938-10.406-10.038-17.875-10.739-4.516-.973-9.201-.876-13.609.63-3.594 1.229-7.145 3.504-9.391 6.602-10.037 7.295-11.904 21.39-4.047 31.925 9.834 13.187 28.154 13.932 40.957 4.923 11.055-7.777 13.096-21.515 4.953-32.127zm-44.673 6.615a24.083 24.083 0 0 0-.479 2.799c.02-1.004.195-1.93.479-2.799zm328.393-13.329a32.35 32.35 0 0 0-.99-1.213c-3.928-5.938-10.406-10.039-17.875-10.739-4.516-.974-9.201-.876-13.607.63-3.596 1.228-7.146 3.503-9.393 6.602-10.035 7.294-11.904 21.389-4.047 31.924 9.834 13.187 28.154 13.933 40.959 4.924 11.054-7.778 13.093-21.515 4.953-32.128zm-44.674 6.615a23.517 23.517 0 0 0-.48 2.798 9.492 9.492 0 0 1 .48-2.798z"/><path fill="#FFE5B8" d="M812.211 463.264a25.431 25.431 0 0 0-5.068-4.82c-1.467-1.057-3.105-.668-4.59.496a29.614 29.614 0 0 0-1.186-.938c-8.562-6.329-19.441-4.063-27.744 1.413-.086-.559-.152-1.117-.242-1.675-.863-5.342-6.811.463-6.33 3.904 3.803 27.15-.414 54.417.637 81.666.049 1.275.857 2.816 2.32 2.812 28.32-.039 49.486-24.363 50.256-51.708.029-1.014 0-2.014-.057-3.006 4.191-10.085 4.539-26.887-7.996-28.144zm-9.078 18.883a7.358 7.358 0 0 0-.953.647c-.039-.506-.076-1.012-.109-1.517.363.281.718.571 1.062.87zm-16.049 28.655c-.803-4.011-1.109-8.111-1.338-12.232a32.534 32.534 0 0 0 1.713 1.98c.723.769 1.5 1.101 2.285 1.145a44.695 44.695 0 0 1-2.66 9.107zm-2.977 22.776a38.378 38.378 0 0 1-8.611 1.865l-.018-.309a55.796 55.796 0 0 0 8.629-1.556z"/><circle fill="#FFF" cx="373.014" cy="464.087" r="9.603"/><circle fill="#FFF" cx="641.733" cy="458.112" r="9.603"/><path d="M759.811 498.476l.262-.01c.451-10.315 6.543-19.461 18.172-19.667 13.053-.233 24.789 10.802 31.682 20.734 1.799 2.598.914 9.246-2.525 5.019-5.99-7.368-14.016-12.999-23.793-13.124-6.293-.079-9.725 3.148-12.305 7.404 4.42.683 8.578 2.269 11.518 5.748 5.439 6.432 4.367 16.167-.295 22.74-2 2.816-5.271-4.176-4.674-6.053.852-2.672 4.822-9.702 1.957-12.178-2.996-2.59-7.432-3.522-11.725-3.944a95.443 95.443 0 0 1-1.727 3.531c-1.518 2.909-4.523-1.792-5.67-4.351-1.868-1.368-3.262-5.751-.877-5.849z"/><path fill="#FFEE73" d="M384.253 108.887c-2.148-6.195-8.195-3.663-11.891-.769-5.836 4.569-11.398 9.455-16.705 14.599-2.34-3.063-6.625-3.098-10.104-.897-20.865 13.194-39.438 29.376-54.201 49.232-14.016 18.851-24.043 40.566-30.842 62.98-12.672 41.779-14.195 85.894-14.754 129.306-.227 4.712-.24 9.441-.002 14.186.188 3.726 2.318 7.42 6.361 7.707 9.316.662 20.162.581 28.113-5.079 9.504-6.767 14.178-17.589 15.688-28.882.639-4.788.627-9.69.719-14.509.109-5.77.709-12.772 1.217-19.688 1.125-15.281 2.885-30.511 5.426-45.622 2.309-13.746 5.121-26.373 9-39.855 1.684-5.847 3.625-11.615 5.725-17.324a229.997 229.997 0 0 1 1.615-4.231c.062-.159.656-1.604.961-2.354a248.012 248.012 0 0 1 3.992-8.906c2.545-5.421 5.348-10.718 8.297-15.929a223.304 223.304 0 0 1 2.26-3.873l.768-1.281c-1.352 2.166-.83 1.316 1.564-2.547-1.76 2.856.879-1.34 1.016-1.553a234.956 234.956 0 0 1 3.328-5.009c7.133-10.513 14.578-19.584 22.477-27.856 4.709-4.931 9.414-9.841 14.369-14.527 4.277-4.048 7.648-11.411 5.603-17.319zm-109.8 247.805a.682.682 0 0 0-.041.009 2.65 2.65 0 0 1 .051-.123 1.461 1.461 0 0 0-.01.114zm381.719-231.455c4.955 4.688 9.66 9.598 14.367 14.527a213.563 213.563 0 0 1 22.479 27.857 232.449 232.449 0 0 1 3.328 5.009c.137.212 2.775 4.408 1.016 1.552 2.395 3.863 2.916 4.713 1.562 2.547l.77 1.282a248.879 248.879 0 0 1 2.26 3.872c2.949 5.211 5.752 10.509 8.297 15.929a250.598 250.598 0 0 1 3.992 8.906c.305.75.898 2.196.961 2.355a245.423 245.423 0 0 1 1.615 4.231c2.1 5.708 4.041 11.478 5.725 17.324 3.879 13.481 6.691 26.108 9 39.854 2.539 15.112 4.299 30.342 5.424 45.622.51 6.916 1.109 13.92 1.219 19.688.09 4.818.078 9.721.719 14.51 1.51 11.293 6.184 22.114 15.688 28.882 7.951 5.66 18.797 5.741 28.113 5.079 4.043-.287 6.174-3.981 6.361-7.708.238-4.744.225-9.473-.002-14.186-.559-43.411-2.084-87.526-14.756-129.305-6.797-22.415-16.826-44.131-30.842-62.98-14.764-19.857-33.334-36.039-54.199-49.232-3.479-2.2-7.764-2.166-10.105.897a209.704 209.704 0 0 0-16.705-14.6c-3.693-2.894-9.742-5.426-11.889.77-2.047 5.911 1.325 13.273 5.602 17.318zm104.187 230.374c.018.041.035.082.051.124l-.041-.01-.01-.114z"/><path d="M561.358 90.233c13.005-33.707-83.221-50.382-88.722-2.01-.199 1.749.587 4.027 2.789 3.358 2.281-.693 3.516-3.239 3.926-5.39 3.592-18.834 27.605-20.38 42.942-18.496 8.861 1.089 17.773 3.753 25.357 8.547 4.357 2.755 10.176 7.981 8.206 13.736-1.874 5.472 3.964 4.241 5.502.255z"/><path fill="#FFE5B8" d="M809.517 491.304c3.46 0 6.439-8.146 2.564-8.146-3.46 0-6.439 8.146-2.564 8.146z"/><g fill="#EA2700"><path d="M668.074 355.924c-6.172 1.879-11.793 3.622-16.693 7.045-.652-.35-1.443-.601-2.391-.726-27.834-3.678-55.814-6.648-83.891-7.529-15.096-.473-30.242-.255-45.279 1.257-9.418.946-18.954 2.342-28.108 4.943-.787-1.979-2.91-2.727-5.021-1.36-2.707 1.753-5.328 3.794-7.609 6.129-4.508 3.128-9.742 11.149-7.531 16.292-.08 5.604 2.402 10.957 7.307 14.018 8.963 5.595 21.617 5.663 31.984 2.144.783 1.775 1.248 3.97 1.471 6.668.348 4.213 2.42 5.481 4.875 5.143a29.276 29.276 0 0 0 6.994 6.208c7.254 4.623 16.701 5.042 24.838 3.017 9.547-2.377 17.939-9.71 22.029-18.577a33.636 33.636 0 0 0 2.588-8.15c11.09 1.065 21.988-1.257 31.355-7.651.238 1.349.904 2.494 2.133 3.193 11.244 6.402 23.904 9.055 36.672 6.771 14.893-2.661 25.891-14.93 29.693-29.164 1.033-3.87.733-11.542-5.416-9.671zm-138.242 23.76c-.496.239-.982.494-1.467.76a4.134 4.134 0 0 0-1.811-.296c-.039-.238-.08-.478-.109-.713-.176-1.417-.641-2.64-1.311-3.604 2.057-.1 4.113-.171 6.168-.222a19.262 19.262 0 0 0-1.47 4.075zm-201.579-7.593c-8.049-3.955-16.938-4.336-25.764-4.004-9.428.354-19.77 1.144-28.514 4.969-6.072 2.656-10.881 6.891-14.504 12.051-6.146-5.804-12.537-11.284-17.432-18.458-5.158-7.562-16.193 8.923-13.186 14.957 3.729 7.478 8.664 17.039 9.854 25.387-6.889 3.906-13.02 9.112-16.869 16.138-2.527 4.61-3.965 9.803-3.434 15.079.602 5.981 4.428 10.088 8.883 13.68 3.35 2.701 7.715-2.419 9.709-5.341 2.014 2.496 4.395 4.679 7.312 5.983 4.764 2.131 9.674 1.946 14.686 1.175.088-.014.172-.035.26-.049 3.965.355 7.91-.359 11.424-2.807 1.617-1.125 3.014-2.432 4.268-3.854a39.43 39.43 0 0 0 1.383-1.033c1.59-.249 3.244-1.159 4.477-2.269-1.26 1.135.699-.449.891-.566.707-.43 1.441-.821 2.158-1.235 2.562-1.483 4.541-3.458 6.414-5.716 3.762-4.537 4.637-10.574 3.51-16.155 7.479-4.254 14.564-8.203 20.49-14.098 1.689-.818 3.387-1.617 4.98-2.612 8.391-5.245 10.146-14.116 11.898-23.14.528-2.708-.126-6.721-2.894-8.082zM249.4 426.253a5.784 5.784 0 0 1-.562-1.377c.35-.816.688-1.639 1.01-2.465-.13 1.282-.276 2.563-.448 3.842zm561.981-8.829a34.965 34.965 0 0 0-4.516 1.199c4.553-15.906 4.709-32.769-12.77-38.637-9.605-3.225-20.027-3.471-30.029-4.337-1.584-.138-3.16-.285-4.729-.445-8.785-5.35-20.979-6.249-30.635-6.747-.762-.04-1.5.059-2.217.246a6.114 6.114 0 0 0-.199-.716c-1.219-3.52-5.135-2.556-7.23-.469-2.723 2.716-5.109 5.687-6.785 9.171a25.531 25.531 0 0 0-2.125 6.631 8.7 8.7 0 0 0-.182 1.305c-.109 1.065-.197 1.655-.266 1.948.043.355.09.865.145 1.586.475 6.247 5.518 10.646 10.631 13.458 8.027 4.415 17.242 5.825 26.338 6.972-2.381 6.413-4.258 13.007-5.422 19.756-2.039 11.837-.676 25.861 10.57 32.575 9.029 5.394 21.236-2.6 29.113-6.803a435.722 435.722 0 0 0 6.475-3.54 9.63 9.63 0 0 0 1.486-.262c8.066-2.071 14.959-5.754 21.635-10.683 4.35-3.212 7.424-7.812 8.131-13.272.673-5.191-1.618-10.034-7.419-8.936z"/><path d="M709.699 386.574c-.238-2.04-.258 1.104 0 0z"/></g><path d="M756.578 459.678c16.359-10.754 39.182-20.424 57.023-7.275 14.412 10.62 18.309 31.128 17.271 47.903-1.105 17.905-8.314 37.286-22.467 48.913-15.676 12.877-39.809 11.668-53.998-2.994-1.189-1.23-5.215-10.734-.469-9.941 8.676 1.451 15.992 6.381 25.025 6.898 7.342.42 14.268-1.939 20.365-5.906 12.717-8.283 19.906-24.454 22.268-38.946 1.945-11.955 1.633-27.78-8.521-36.189-14.887-12.329-38.23-1.725-52.678 5.73-2.967 1.531-6.627-6.345-3.819-8.193z"/><path d="M348.101 369.667c-.842-.095-1.766.128-2.553.613-2.832 1.747-4.186 5.105-4.229 8.303a35.63 35.63 0 0 1-1.066 8.183c-3.504 6.241-7.062 12.953-11.408 18.538-6.643 6.079-15.268 10.352-24.184 12.608-2.613.662-5.791 6.281-5.123 9.384-.098-.028-.195-.053-.291-.082-4.096-1.242-6.465 4.276-6.543 7.484-.137 5.717-2.801 9.588-7.383 11.535-.775.026-1.543.306-2.266.767-.529.139-1.074.265-1.643.361-2.543.437-4.781 5.282-4.6 8.239-1.049 1.975-1.242 4.389.449 5.265 12.982 6.719 23.303-1.076 28.648-12.265 8.154-4.681 15.824-10.504 22.646-16.883a79.064 79.064 0 0 0 5.426-5.608 50.734 50.734 0 0 0 3.863-3.512c17.314-13.964 29.379-35.226 18.512-55.577-2.409-4.517-6.304-.95-8.255 2.647zm-13.816 41.898a53.804 53.804 0 0 1-2.772 3.876c-.041.053-.08.105-.123.156a65.77 65.77 0 0 1-2.293 1.482 62.615 62.615 0 0 0 2.428-2.883 60.232 60.232 0 0 0 2.76-2.631zm288.524-24.956c-4.154 5.489-8.387 7.663-15.205 7.69-2.84.011-5.67-.125-8.51-.03-3.674.122-7.268 1.234-10.938.746-2.1-.279-3.965-1.478-6.131-1.669-.107-.01-.217-.009-.326-.014-2.406-1.88-4.816-.321-6.49 2-1.279.808-2.396 1.787-3.18 2.807-3.598 4.682-4.375 11.198-6.951 16.436-2.152 4.379-9.143 6.855-13.795 6.817-5.043-.041-9.824-3.135-13.547-6.281-8.75-7.396-14.91-17.86-24.825-23.878-2.904-1.765-6.236 2.43-7.359 5.113-.416.479-.846.928-1.285 1.356-3.305-.584-6.633-1.535-9.732-2.257-5.035-1.173-9.965-2.951-14.549-5.339-4.066-2.118-8.07-5.167-10.086-9.396-2.371-4.973-.77-10.027 1.584-14.661 1.098-2.159 2.242-6.67-.615-8.126-2.852-1.453-5.844 2.117-6.938 4.277a53.933 53.933 0 0 0-.963 2.015 4.651 4.651 0 0 0-.455.371c-13.252 12.323-8.551 31.688 4.168 42.35 6.266 5.252 14.203 8.527 22.463 8.113 4.781-.239 9.152-1.896 13.014-4.423-.604 6.509.518 13.015 4.146 19.117 5.18 8.716 15.303 13.579 25.03 14.912 11.408 1.562 23.088-2.127 32.031-9.191 8.516-6.726 14.006-16.241 17.002-26.515 8.217 4.741 18.191 7.044 27.428 6.128 14.732-1.462 23.428-13.581 22.939-27.976-.183-5.47-5.81-3.29-7.925-.492zm114.92 22.58c.498-1.989.125-3.789-1.82-4.506-5.305-1.956-10.889-4.561-15.633-8.007-1.562-1.908-2.928-3.991-4.098-6.04-3.131-5.482-6.328-15.002-3.055-20.446 3.203-5.326-1.559-10.241-5.871-4.845a20.726 20.726 0 0 0-3.014 5.173c-1.432.657-2.891 2.01-3.773 3.597a3.185 3.185 0 0 0-.297-.06 40.529 40.529 0 0 1 3.33-4.173c1.279-1.398 2.449-3.513 1.771-5.474-.641-1.85-2.656-1.304-3.758-.243-12.291 11.817-20.354 31.309-11.729 47.538 9.213 17.334 29.551 16.105 45.029 8.695 3.617-1.73 5.494-9.251 2.918-11.209z" fill="#EAA286"/><path d="M275.349 459.678c-16.359-10.754-39.182-20.424-57.021-7.275-14.414 10.62-18.311 31.128-17.273 47.903 1.105 17.905 8.316 37.286 22.467 48.913 15.676 12.877 39.809 11.668 53.998-2.994 1.189-1.23 5.215-10.734.469-9.941-8.676 1.451-15.994 6.381-25.025 6.898-7.342.42-14.27-1.939-20.365-5.906-12.717-8.283-19.906-24.454-22.268-38.946-1.945-11.955-1.633-27.78 8.521-36.189 14.887-12.329 38.23-1.725 52.678 5.73 2.968 1.531 6.628-6.345 3.819-8.193z"/><path d="M299.902 374.445c-11.203-.266-22.738 3.24-33.801 4.726-4.885.655-20.662 3.185-24.666-2.166a30.371 30.371 0 0 1-1.189-4.03c-.512-2.344-3.24-2.299-4.854-1.304-2.777 1.713-4.371 5.201-4.277 8.394.078 2.575.729 4.643 1.801 6.298 2.686 6.923 7.602 13.771 13.412 18.026-3.02 2.65-5.498 5.824-7.273 9.374-1.645.847-3.828 2.462-5.816 4.386a19.595 19.595 0 0 0-3.439 1.779c-3.709 1.785-6.004 6.807-3.662 10.513.271.43.658.859 1.115 1.277-.127.914-.066 1.99.227 2.903a32.138 32.138 0 0 0-.803 1.722c-.381.891-.73 2.183-.832 3.439-1.635 1.783-2.434 5.058-.574 6.228 10.799 6.796 21.787 1.736 29.244-7.362 3.996-4.876 6.789-10.874 8.186-17.171 2.07-1.432 3.504-4.311 3.727-6.486 19.199 3.358 37.701-18.158 35.955-37.542-.128-1.391-.864-2.966-2.481-3.004zm-63.418 66.052a20.493 20.493 0 0 0 2.74-2.33c.639.989 1.797 1.539 3.102 1.143 2.312-.702 4.092-3.166 4.771-5.556.684-.75 1.33-1.512 1.947-2.281.477.841 1.311 1.041 2.264.853-3.57 4.895-8.76 8.218-14.824 8.171zm48.492-39.747a24.519 24.519 0 0 0 2.584-3.344 45.528 45.528 0 0 0 3.92-2.947c-1.609 2.558-3.863 4.685-6.504 6.291zm536.52 8.435c-.367-2.089-1.416-3.562-3.738-3.023a24.11 24.11 0 0 0-7.299 3.012 29.412 29.412 0 0 0-6.91 2.018c.664-1.933.973-4.981-.525-6.159 1.543-1.928 2.689-4.41 2.475-5.96a21.116 21.116 0 0 0-.604-2.878 43.91 43.91 0 0 0 4.812-13.077c.328-1.673-.326-4.448-2.488-4.445-8.643.011-17.299.023-25.926.496a24.796 24.796 0 0 0-12.639 1.055 16.31 16.31 0 0 1 1.436-3.298c2.662-4.688-2.033-6.883-4.729-2.408-7.148 11.87-3.926 25.697 8.961 29.683a45.04 45.04 0 0 0-.922 2.766c-2.5 2.588-4.596 5.702-6.148 9.069-.717 1.556-2.227 6.456.551 7.255 1.357.391 2.654.606 3.896.68a28.62 28.62 0 0 0-1.668 8.961c-.354 13.16 11.482 19.072 23.043 16.6 1.16-.248 2.449-1.412 3.48-2.906 5.725-1.485 11.141-3.862 15.855-7.681a20.577 20.577 0 0 0 2.098-1.984c.654-.508 1.27-1.07 1.822-1.692 6.405-7.206 6.757-17.017 5.167-26.084zm-36.006 10.807a8.768 8.768 0 0 0-.527 2.301c-.111.096-.219.2-.33.3a19.622 19.622 0 0 1-.084-1.937c.32-.213.635-.434.941-.664z" fill="#C12900"/><path d="M800.932 380.135c-6.057-54.104-13.438-108.679-26.582-161.559-3.24-13.031-6.795-26.309-12.586-38.476-6.896-14.496-18.668-26.086-31.174-35.842-32.682-25.493-74.131-39.759-113.945-49.487-18.963-4.633-38.279-8.032-57.727-9.765-23.32-2.077-47.063-1.195-70.385.328-50.006 3.267-101.24 12.786-145.604 37.067-18.395 10.067-36.141 23.257-49.396 39.634-10.227 12.634-17.174 27.806-22.861 42.918-12.836 34.115-18.881 70.882-23.006 106.96-2.812 24.608-4.736 49.491-4.955 74.274-.016 1.69 1.455 3.15 3.166 2.562 8.908-3.066 18.848-4.015 28.104-5.444 17.836-2.757 35.744-5.033 53.668-7.133 28.578-3.348 57.258-6.247 85.986-8.287 15.891-.244 31.779-.391 47.619-.866 47.232-1.416 94.436-7.612 141.331-1.362-.055.345-.102.69-.16 1.033 2.975.089 5.951.183 8.93.278 3.217.541 6.434 1.143 9.648 1.816 1.066.223 2.129-.387 2.984-1.378 37.154 1.369 74.324 3.535 111.234 7.829 19.584 2.279 39.539 4.915 58.564 10.311 1.276 4.537 7.57-1.627 7.147-5.411zm-550.552-2.221c.279-15.965 1.453-33.019 2.932-49.612 3.176-35.628 8.316-71.459 18.562-105.798 4.707-15.774 10.586-31.603 19.357-45.615 10.217-16.321 25.582-28.896 41.643-39.18 32.391-20.736 70.309-31.633 108.461-37.474-32.105 16.39-58.121 42.371-71.994 76.227-14.883 36.316-16.436 76.427-15.562 115.166.529 23.585 2.1 47.135 3.199 70.697-16.273 1.406-32.475 3.464-48.537 6.572-7.08.909-14.152 1.846-21.219 2.839-11.998 1.688-25.053 2.693-36.842 6.178zm360.477-20.423c-48.691-7.619-97.721-.993-146.795.61-8.23.27-16.479.475-24.734.671.074-.651.148-1.301.227-1.943-9.393.435-18.791.98-28.195 1.675-7.334.541-14.666 1.135-21.996 1.762-9.803.438-19.594 1.011-29.359 1.807-3.154-76.19-17.586-170.05 41.373-229.872 14.094-14.298 31.201-24.756 49.238-33.288 8.898-1.179 17.785-2.106 26.596-2.837 24.287-2.012 49.067-2.957 73.407-1.319 12.289.827 24.527 2.467 36.662 4.65 16.301 8.574 31.375 18.952 44.104 32.576 13.252 14.18 22.971 31.169 29.529 49.374 13.688 37.998 13.537 79.824 12.043 119.658-.744 19.842-2.045 39.655-2.84 59.494-19.734-1.32-39.494-2.283-59.26-3.018zm75.497 4.172c-4.48-.344-8.965-.649-13.447-.956.049-.163.086-.327.094-.494 1.832-40.989 5.531-82.182 2.336-123.195-2.941-37.751-13.221-75.557-38.428-104.715-10.445-12.084-23.139-22.251-36.959-30.423 2.459.518 4.914 1.052 7.363 1.605 40.443 9.155 81.943 23.653 115.605 48.438 12.691 9.342 24.988 21.204 31.844 35.613 5.832 12.262 9.289 25.744 12.549 38.868 8.498 34.207 14.045 69.19 19.113 104.045 2.242 15.427 4.406 30.885 6.26 46.369-34.258-9.92-71.026-12.447-106.33-15.155zm-224.852 314.19c20.502 26.497 65.462 23.133 88.82 2.541 3.696-3.259 2.84-12.724-2.707-7.787-21.004 18.69-61.371 19.466-81.248-1.322-2.709-2.834-6.819 4.042-4.865 6.568z"/><path d="M232.662 444.92c-4.392-4.617-7.49-10.295-7.885-16.737-.423-6.911 5.667-9.505 11.648-10.138 3.437-.364 5.934-5.182 4.17-8.185-4.744-8.078-5.993-19.232-5.177-28.404.173-1.946.528-3.819 1.146-5.671.37-1.107.341-1.161 1.179-1.442 4.077-1.371 8.584 4.922 11.552 6.578 2.95 1.646 6.294-4.599 5.074-6.892-2.765-5.193-8.819-9.787-14.939-8.946-5.547.762-8.706 7.819-9.912 12.492-3.218 12.473-1.259 28.751 5.533 39.77l4.17-8.185c-10.031 1.208-18.613 6.892-20.508 17.385-1.68 9.297 2.357 18.716 8.811 25.312 2.857 2.919 7.51-4.443 5.138-6.937zm559.308-64.152c6.225-1.661 12.313-1.051 16.086 4.635 3.382 5.098 2.073 12.277-.676 17.269-.939 1.706-1.429 5.088 1.142 5.544 9.989 1.772 16.688 10.331 14.289 20.552-1.015 4.323-3.477 7.968-7.242 10.339-4.898 3.085-10.597 2.135-15.953 1.147-3.127-.577-6.656 6.878-3.422 8.349 30.08 13.683 49.911-44.413 15.02-48.94l1.142 5.544c3.938-7.393 5.544-16.506 2.119-24.405-3.809-8.782-13.14-10.139-21.494-7.803-3.101.867-5.305 8.914-1.011 7.769zM269.437 452.33c19.247 2.408 31.527-12.815 29.953-31.277l-4.189 6.84c8.168-1.312 15.639-5.962 22.195-10.783 7.551-5.552 14.459-12.168 19.943-19.789 4.126-5.734 8.458-13.596 7.097-20.94-1.464-7.9-9.172-10.364-16.35-9.631-3.369.344-7.204 7.531-2.729 8.671 3.726.949 10.84 2.14 11.415 6.945.553 4.624-4.081 9.907-6.766 13.23-8.107 10.036-20.678 20.369-33.603 23.042-2.573.532-4.486 4.442-4.189 6.84.606 4.893.264 10.14-3.269 13.916-4.293 4.589-11.113 5.384-17.028 5.053-3.257-.183-6.378 7.396-2.48 7.883zm202.527-92.953c-8.521 12.783-6.977 27.612 5.369 37.167 11.994 9.283 28.788 7.27 38.551-4.005 2.206-2.548.93-8.509-2.713-5.038-8.314 7.923-19.458 8.536-29.35 3.064-9.788-5.415-15.11-17.141-8.587-27.098 2.251-3.437-.25-8.621-3.27-4.09z"/><path d="M511.205 394.181c.417 11.16 3.801 22.112 13.039 29.013 7.462 5.574 17.672 6.062 26.443 4.061 8.619-1.966 17.051-7.204 21.877-14.705 4.815-7.485 6.262-18.247.165-25.515-2.521-3.005-6.391 3.674-5.362 6.083 2.555 5.98 4.218 11.273-.021 16.781-4.117 5.349-11.276 8.13-17.686 9.348-7.337 1.393-15.056-.067-21.258-4.213-8.027-5.365-10.748-15.429-11.241-24.526-.272-5.042-6.075.491-5.956 3.673z"/><path d="M569.728 391.763c15.084 12.881 38.664 10.76 51.882-3.884 1.453-1.609 2.802-4.003 2.022-6.251-.698-2.016-3.103-1.613-4.292-.278-11.353 12.749-32.026 13.803-45.282 3.406-2.442-1.916-6.578 5.088-4.33 7.007z"/><path d="M618.042 385.965c8.641 9.459 21.01 13.497 33.375 9.472 12.455-4.055 21.14-15.744 24.23-28.079 1.496-5.972-4.818-4.987-5.986-.276-5.404 21.813-31.239 28.547-46.754 12.315-2.669-2.792-7.063 4.161-4.865 6.568zm142.792 72.097c-17.558-2.338-26.232-24.37-13.652-37.459 1.432-1.489 2.676-3.888 1.942-6.004-.685-1.977-2.949-1.497-4.122-.267-7.87 8.248-12.097 19.818-9.428 31.163 2.652 11.275 11.242 19.155 22.834 20.276 3.202.31 6.216-7.205 2.426-7.709z"/><path d="M747.305 411.68c-10.351-.462-18.878-6.78-24.209-15.405-2.486-4.022-3.741-8.75-3.935-13.44-.224-5.419 2.405-9.259 5.574-13.322 2.207-2.83 1.269-8.973-2.923-5.428-9.875 8.349-11.289 23.315-6.61 34.669 4.938 11.984 16.6 20.616 29.677 20.635 3.199.005 6.194-7.541 2.426-7.709z"/><path fill="#ED4300" d="M518.498 380.009c.852 3.438 1.166 6.496 1.522 10.088.256 2.576 1.989 4.727 4.792 3.876 3.619-1.099 6.348-5.541 6.667-9.152.504-5.696.739-11.454-2.96-16.181-1.8-2.3-4.929-.794-6.596.781-2.816 2.661-4.366 6.789-3.425 10.588z"/><path fill="#EA2700" d="M582.9 290.646c-.143.001-.287.006-.428.007-.467-4.22-4.053-6.672-8.279-8.067-8.768-2.894-18.467-3.164-27.604-3.715-9.506-.572-19.016-.942-28.523-1.511-13.969-.836-27.932-1.848-41.918-.702-4.299.353-8.67.936-12.939 1.902-.451-.373-1.146-.489-2.146-.217-8.932 2.429-19.898 5.537-24.449 14.446-3.596 7.043-.412 13.734 6.096 17.387 16.785 9.425 37.262 7.188 55.66 8.09 22.159 1.084 46.678 3.912 67.176-6.459 3.621-1.831 7.48-4.371 10.613-7.51.82-.008 1.639-.032 2.457-.034 5.784-.014 10.759-13.634 4.284-13.617z"/><path d="M561.725 270.775c-15.201-1.66-30.461-2.682-45.747-3.138-18.146-.544-36.787-.566-54.621 3.251-12.359 2.645-24.512 9.912-28.172 22.864-3.064 10.847 5.846 16.804 14.918 19.802 13.109 4.333 27.418 5.245 41.113 5.901 12.045.576 24.098.496 36.153.392 17.855-.157 40.41 3.366 55.928-7.604 6.41-4.533 12.973-13.589 13.387-21.686.328-6.443-3.66-10.754-9.199-13.402-8.404-4.02-18.604-4.72-27.756-5.236-11.541-.651-23.092-.513-34.637-1.266-15.387-1.001-30.805-2.156-46.229-1.322-6.949.376-13.912 1.287-20.664 2.996-3.113.788-6.141 1.946-9.053 3.289-3.189 1.469-5.537 4.858-8.615 6.728-2.857 1.736-4.447 9.751.562 7.416 4.504-2.1 7.604-5.392 12.338-6.944 5.443-1.784 11.154-2.744 16.836-3.351 11.965-1.277 24.102-.809 36.092-.178 11.281.593 22.543 1.575 33.838 1.845 7.779.185 15.52.141 23.279.872 7.23.683 14.881 1.758 21.311 5.346 6.033 3.365 5.033 7.684 1.312 12.522-6.869 8.94-19.088 9.852-29.564 10.356-8.711.42-17.436-.047-26.15.038-12.062.119-24.118.198-36.174-.329-13.559-.594-27.857-1.418-40.795-5.842-4.078-1.395-8.518-3.31-11.002-7.004-1.924-2.863-.332-4.918 2.199-8.085 3.904-4.884 9.086-6.914 14.982-8.504 8.232-2.221 16.826-3.036 25.307-3.618 25.445-1.744 51.092-.574 76.504 1.254 3.067.222 5.936-6.969 2.319-7.363zm152.3 164.175c-8.377-14.961-21.994-27.627-38.027-33.916-15.613-6.125-33.363-8.746-50.068-9.217-16.164-.452-24.266 39.443-11.061 37.031 15.988-2.923 31.979-2.958 47.889.579 15.303 3.4 30.869 7.604 43.139 17.861 5.296 4.427 10.443-8.205 8.128-12.338zm-388.426 9.579c10.119-9.767 23.797-13.69 37.166-16.781 13.805-3.193 28.551-3.693 42.469-.979 17.695 3.451 29.02-36.883 13.906-36.485-37.744.995-76.299 12.622-97.771 45.827-2.862 4.423-2.457 14.872 4.23 8.418z"/><path fill="#EAA286" d="M329.132 522.49a3.094 3.094 0 0 0-.35-.957c-.045-.082-.098-.152-.146-.227-1.031-2.197-2.582-4.104-4.605-5.238-7.053-3.957-12.82 6.66-14.859 11.602-.514 1.244-1.121 4.855 1.322 4.279.949 2.393 3.289 4.139 6.152 5.352 6.479 2.744 12.412-.9 13.34-7.785.303-2.231-.01-4.733-.854-7.026zm-4.187 9.381c.145-.268.221-.383.244-.418.004.029.008.045.012.049-.016-.002-.076.037-.256.369zm.26-.908c-.025.285-.023.42-.018.486a1.096 1.096 0 0 1-.395.277c-.871.344-1.791.273-2.701.174-.738-.08-1.734-.285-2.762-.613.436-.246.842-.5 1.189-.672l3.186-1.584c.418.158.91.148 1.389-.043.004.027.014.057.018.084.111.705.129 1.494.094 1.891zm37.072-9.574a3.158 3.158 0 0 0-.35-.959c-.047-.082-.096-.152-.146-.227-1.031-2.195-2.582-4.104-4.607-5.237-7.053-3.957-12.818 6.659-14.857 11.6-.514 1.244-1.121 4.857 1.322 4.279.949 2.393 3.289 4.141 6.152 5.354 6.479 2.742 12.412-.902 13.34-7.785.302-2.232-.01-4.732-.854-7.025zm-4.188 9.379c.145-.268.221-.381.244-.416a.128.128 0 0 0 .01.047c-.015-.001-.074.037-.254.369zm.26-.909c-.027.285-.025.42-.018.486a1.048 1.048 0 0 1-.395.277c-.871.346-1.791.273-2.701.176-.738-.082-1.734-.287-2.762-.615.436-.244.84-.498 1.189-.672l3.186-1.584c.418.158.91.15 1.389-.043.006.027.014.057.018.084.114.706.129 1.495.094 1.891zm36.797-8.47a3.154 3.154 0 0 0-.348-.959c-.047-.082-.098-.152-.15-.227-1.029-2.195-2.58-4.104-4.604-5.237-7.055-3.957-12.82 6.659-14.859 11.6-.514 1.244-1.121 4.857 1.322 4.279.947 2.393 3.289 4.141 6.152 5.354 6.479 2.742 12.412-.902 13.34-7.785.303-2.232-.007-4.732-.853-7.025zm-4.188 9.379c.145-.268.219-.381.244-.416a.128.128 0 0 0 .01.047c-.013-.001-.074.037-.254.369zm.26-.909c-.025.285-.025.42-.018.486a1.048 1.048 0 0 1-.395.277c-.871.346-1.791.273-2.703.176-.736-.082-1.732-.287-2.758-.615.432-.244.838-.498 1.188-.672l3.186-1.584c.418.158.91.15 1.391-.043.002.027.012.057.014.084.113.706.13 1.495.095 1.891zm-43.597 23.448a3.102 3.102 0 0 0-.348-.959c-.047-.082-.098-.152-.148-.227-1.029-2.195-2.582-4.104-4.604-5.238-7.055-3.955-12.822 6.66-14.861 11.602-.512 1.244-1.121 4.855 1.322 4.279.949 2.393 3.291 4.141 6.154 5.354 6.479 2.742 12.412-.902 13.34-7.787.301-2.231-.01-4.731-.855-7.024zm-4.188 9.379c.145-.268.221-.381.244-.416.002.029.008.043.012.047-.016-.003-.074.037-.256.369zm.262-.909c-.027.285-.025.42-.018.486a1.096 1.096 0 0 1-.395.277c-.873.346-1.791.273-2.703.176-.738-.082-1.732-.287-2.758-.615.432-.246.838-.498 1.186-.672l3.186-1.584c.42.158.91.148 1.393-.043l.014.084c.112.706.13 1.495.095 1.891zm39.125-9.574a3.176 3.176 0 0 0-.348-.957c-.047-.084-.098-.154-.148-.229-1.031-2.195-2.582-4.104-4.605-5.236-7.053-3.957-12.82 6.658-14.859 11.6-.514 1.246-1.121 4.857 1.322 4.279.949 2.395 3.287 4.141 6.152 5.354 6.479 2.742 12.412-.902 13.342-7.785.3-2.233-.01-4.733-.856-7.026zm-4.188 9.379c.145-.266.219-.381.244-.416.002.029.008.043.01.049-.013-.002-.074.035-.254.367zm.26-.908a2.93 2.93 0 0 0-.018.486 1.069 1.069 0 0 1-.395.279c-.871.344-1.791.273-2.703.174a14.755 14.755 0 0 1-2.758-.615c.434-.244.84-.498 1.188-.672 1.062-.527 2.125-1.055 3.186-1.584.418.158.91.148 1.391-.043.004.029.012.059.016.086.113.703.128 1.492.093 1.889zm266.2-54.126a3.084 3.084 0 0 0-.346-.958c-.047-.083-.1-.152-.148-.228-1.031-2.195-2.582-4.103-4.605-5.237-7.053-3.956-12.82 6.659-14.861 11.602-.512 1.244-1.119 4.857 1.324 4.279.947 2.393 3.289 4.141 6.152 5.354 6.479 2.742 12.412-.902 13.34-7.787.302-2.232-.01-4.732-.856-7.025zm-4.186 9.379c.145-.267.219-.381.242-.416.004.029.01.043.012.048-.015-.001-.074.037-.254.368zm.26-.907a2.919 2.919 0 0 0-.018.485 1.07 1.07 0 0 1-.395.278c-.869.343-1.791.275-2.703.175-.738-.081-1.732-.286-2.758-.614.434-.246.84-.499 1.188-.672a1573.85 1573.85 0 0 1 3.186-1.584c.418.157.908.148 1.391-.043l.014.085c.113.704.13 1.493.095 1.89zm37.07-9.574a3.126 3.126 0 0 0-.346-.958c-.049-.083-.1-.153-.15-.228-1.029-2.196-2.582-4.104-4.604-5.237-7.055-3.957-12.82 6.659-14.861 11.602-.512 1.244-1.121 4.855 1.322 4.278.949 2.394 3.291 4.14 6.152 5.353 6.48 2.742 12.414-.902 13.342-7.786.304-2.231-.009-4.731-.855-7.024zm-4.187 9.379c.146-.267.221-.381.244-.417.004.029.01.044.012.049-.016-.002-.075.036-.256.368zm.262-.908a2.704 2.704 0 0 0-.018.486 1.082 1.082 0 0 1-.395.278c-.871.344-1.791.273-2.703.174-.738-.081-1.732-.285-2.76-.614.434-.245.84-.498 1.188-.672l3.186-1.584c.42.158.91.149 1.393-.042.002.027.01.057.014.084.112.705.13 1.493.095 1.89zm36.794-8.471a3.074 3.074 0 0 0-.346-.958c-.049-.083-.1-.153-.15-.228-1.029-2.196-2.58-4.104-4.605-5.237-7.053-3.957-12.82 6.659-14.859 11.602-.512 1.244-1.121 4.855 1.324 4.278.947 2.394 3.289 4.14 6.15 5.353 6.48 2.742 12.414-.902 13.342-7.786.303-2.231-.01-4.731-.856-7.024zm-4.185 9.379c.145-.267.219-.381.242-.417.004.029.01.044.012.049-.016-.002-.074.036-.254.368zm.258-.908a2.822 2.822 0 0 0-.016.486c-.039.042-.178.192-.395.278-.871.344-1.791.273-2.703.174-.738-.081-1.732-.285-2.76-.614.436-.245.84-.498 1.189-.672a4739.43 4739.43 0 0 1 3.186-1.584c.418.158.908.149 1.389-.042.004.027.012.057.016.084.113.705.131 1.493.094 1.89zm-43.596 23.446a3.123 3.123 0 0 0-.348-.957c-.049-.084-.098-.154-.148-.229-1.031-2.195-2.582-4.104-4.605-5.236-7.055-3.957-12.82 6.658-14.859 11.6-.514 1.246-1.121 4.857 1.322 4.279.949 2.395 3.289 4.141 6.152 5.354 6.479 2.742 12.414-.902 13.342-7.785.3-2.233-.01-4.733-.856-7.026zm-4.187 9.379c.145-.268.221-.381.244-.416a.202.202 0 0 0 .01.047c-.014 0-.075.037-.254.369zm.259-.908a2.822 2.822 0 0 0-.016.486 1.085 1.085 0 0 1-.396.279c-.871.344-1.791.273-2.701.174a14.771 14.771 0 0 1-2.76-.615c.434-.244.84-.498 1.188-.672 1.062-.527 2.125-1.055 3.186-1.584.42.16.91.148 1.391-.043.004.029.012.059.016.086.112.705.129 1.493.092 1.889zm39.125-9.574a3.069 3.069 0 0 0-.346-.957c-.047-.082-.1-.154-.15-.229-1.029-2.195-2.582-4.102-4.604-5.236-7.053-3.957-12.82 6.658-14.859 11.602-.514 1.244-1.123 4.855 1.32 4.277.949 2.395 3.291 4.141 6.154 5.354 6.479 2.744 12.412-.902 13.34-7.785.304-2.231-.009-4.733-.855-7.026zm-4.187 9.379a6.01 6.01 0 0 1 .244-.416c.004.029.01.045.012.049-.016-.002-.075.037-.256.367zm.262-.907c-.025.285-.025.42-.018.484a1.069 1.069 0 0 1-.395.279c-.871.344-1.791.273-2.703.174-.738-.08-1.732-.285-2.758-.613.434-.246.84-.5 1.188-.672l3.186-1.586c.418.16.91.15 1.391-.041l.014.084c.112.706.13 1.495.095 1.891z"/></svg>