<svg xmlns="http://www.w3.org/2000/svg" xmlns:xlink="http://www.w3.org/1999/xlink" width="1030" height="1030" viewBox="0 0 1030 1030"><defs><circle id="a" cx="515" cy="515" r="505.377"/></defs><use xlink:href="#a" overflow="visible" fill="#FFBF1F"/><clipPath id="b"><use xlink:href="#a" overflow="visible"/></clipPath><g clip-path="url(#b)"><circle fill="#FFBF1F" cx="516.035" cy="517.213" r="505.377"/><path fill="#FC9E17" d="M64.591 301.339c65.698-60.767 147.472-101.363 226.167-142.394 40.814-21.281 80.746-43.73 120.539-66.854 43.205-25.11 87.469-49.598 136.054-62.561l-2.865-37.722C469.49 62.96 382.01 118.799 296.631 176.392c-43.968 29.658-87.434 59.996-129.215 92.682-20.033 15.672-39.121 32.311-60.043 46.827-21.764 15.1-44.41 28.885-66.553 43.41-20.462 13.421-40.42 27.7-58.93 43.736-7.092 6.145-11.695 17.171-10.986 26.521.548 7.209 5.93 13.973 13.85 11.199 98.166-34.393 184.33-95.652 268.734-154.94 42.163-29.617 84.25-59.421 128.115-86.495 19.996-12.341 40.241-24.098 59.857-37.073 21.043-13.919 41.816-28.239 62.964-42.001 37.358-24.313 76.479-48.122 120.034-59.315-2.24-11.117-4.479-22.232-6.717-33.351-3.625 4.497-11.99 11.266-18.963 15.919-10.002 6.67-20.648 12.364-31.156 18.178-23.029 12.742-45.092 27.219-67.552 40.935-51.307 31.333-102.535 62.798-153.854 94.113-51.11 31.188-102.326 62.211-153.79 92.816-45.841 27.263-92.239 53.613-137.737 81.449C-2.51 405.993-58.916 444.152-106.64 491.58c-6.829 6.784-11.733 16.688-10.986 26.52.56 7.365 5.898 13.781 13.849 11.199 51.945-16.859 99.75-43.608 147.504-69.638 50.274-27.404 102.162-51.78 153.586-76.934 106.723-52.204 213.544-104.201 320.025-156.899 43.588-21.572 87.41-42.348 128.738-68.076 36.969-23.018 73.674-48.996 115.463-62.538-.953-12.575-1.908-25.146-2.863-37.722-32.516 34.458-76.607 55.146-117.221 78.289-50.043 28.516-97.459 62.321-145.693 93.778-48.673 31.741-97.557 62.7-143.463 98.404-36.259 28.201-71.635 58.477-113.409 78.263C166.967 440.29 75.417 461.752 37.559 541.29c-3.076 6.463-5.363 14.315-2.909 21.4 1.745 5.041 7.497 9.095 12.933 6.589 100.085-46.1 193.517-104.331 287.449-161.586 46.52-28.354 93.289-56.325 141.23-82.228 49.123-26.541 100.222-49.029 149.865-74.544 51.182-26.305 101.262-54.685 151.102-83.426-.986-12.997-1.971-25.993-2.959-38.989-89.508 66.279-184.82 124.034-280.238 181.279-95.316 57.185-189.7 115.122-280.916 178.698-64.774 45.149-142.418 71.597-192.24 135.973-8.81 11.385-11.101 42.221 10.985 31.383 208.226-102.161 408.941-218.581 611.71-330.955 81.105-44.949 162.598-89.213 245.031-131.684-.984-12.996-1.971-25.994-2.959-38.989-200.873 115.723-395.7 241.727-585.557 374.704-76.926 53.879-153.004 108.971-228.348 165.043-9.188 6.834-16.062 17.879-15.16 29.759.736 9.7 9.592 15.234 18.119 9.229 43.635-30.725 91.015-55.527 138.017-80.6 48.866-26.063 96.421-53.966 143.454-83.205 97.824-60.818 193.597-125.836 295.82-179.224 79.943-41.756 155.398-91.653 236.615-131.035l-7.129-35.752C726.443 362.758 545.961 469.947 368.333 577.763 274.889 634.484 181.495 691.474 91.73 753.931c-9.318 6.482-16.043 18.146-15.161 29.758.8 10.539 9.317 14.158 18.12 9.229 202.516-113.372 408.093-221.234 609.107-337.291 82.611-47.694 164.387-96.848 244.783-148.196l-10.986-31.381c-4.994 7.511-10.375 14.716-16.096 21.688-5.041 6.146-10.836 12.266-18.377 19.708-14.123 13.939-29.658 26.809-45.09 38.273-35.396 26.297-73.57 48.73-112.08 70.106-37.449 20.79-75.582 40.313-113.115 60.946-42.607 23.422-83.6 49.658-124.551 75.826-65.341 41.754-130.41 84.797-198.977 121.15-60.085 31.858-124.11 59.162-173.204 107.688-6.839 6.763-11.731 16.707-10.986 26.523.621 8.162 5.796 12.764 13.852 11.197 27.105-5.266 51.926-18.041 75.643-31.759 24.855-14.379 49.684-28.81 74.538-43.192a10592.272 10592.272 0 0 0 152.231-89.771c49.53-29.771 100.037-57.95 150.666-85.822 50.375-27.729 102.133-51.929 153.664-77.321 67.275-33.148 131.117-72.73 197.158-108.186l-10.984-31.382c-5.504 7.192-9.137 10.835-17.041 18.056-7.752 7.076-15.979 13.312-24.516 19.367-18.809 13.338-38.715 25.095-58.619 36.7-43.184 25.18-85.117 51.793-126.223 80.276-91.951 63.714-180.73 131.845-272.466 195.851-62.605 43.68-127.018 85.396-195.643 119.062.985 12.998 1.973 25.992 2.959 38.99 48.336-27.514 98.725-51.11 148.232-76.385 25.086-12.807 49.888-26.168 74.098-40.57 24.189-14.391 46.895-30.896 69.81-47.201 23.252-16.545 46.578-32.994 70.564-48.467 23.51-15.166 48.084-28.535 72.547-42.078 48.807-27.02 97.926-53.479 146.338-81.209 61.396-35.171 121.518-72.686 178.057-115.308l-10.984-31.381c-59.98 69.826-146.119 119.632-225.496 166.938-91.051 54.269-181.008 110.707-269.408 169.205-41.197 27.26-81.385 55.868-121.205 85.092-39.393 28.912-78.959 57.73-121.233 82.346-9.595 5.584-15.991 18.822-15.16 29.76.841 11.066 9.201 13.475 18.119 9.229 100.961-48.053 196.104-107.056 291.245-165.517 47.797-29.371 95.674-58.626 144.387-86.461 47.674-27.237 96.566-52.016 145.607-76.669 75.025-37.712 150.205-76.054 218.391-125.427l-7.131-35.751c-33.611 33.213-76.09 55.599-117.895 76.72a4036.445 4036.445 0 0 0-133.637 70.689c-99.297 54.92-199.129 109.007-295.388 169.178-39.694 24.813-79.177 50.248-116.166 78.982-32.521 25.264-64.553 53.299-102.4 70.432-8.953 4.053-15.018 11.319-17.994 20.764-1.853 5.885-3.031 24.238 8.274 22.727 45.448-6.074 87.677-22.926 128.725-42.801 43.948-21.275 85.808-46.648 127.571-71.857 92.4-55.777 188.994-103.604 284.818-153.168 30.955-16.012 61.799-31.99 92.062-49.283 29.73-16.988 59.459-33.979 89.188-50.967 9.619-5.496 15.986-18.893 15.162-29.759-.805-10.575-9.309-14.111-18.121-9.23-104.188 57.712-206.854 118.118-308.768 179.747-51.145 30.93-102.086 62.188-152.945 93.585-44.668 27.574-85.542 60.625-129.553 89.188-21.202 13.758-43.261 26.518-67.015 35.328l-1.309 40.959C503.59 874.062 701.895 820.999 881.025 728.062c47.312-24.547 93.092-52.107 136.094-83.643 9.217-6.759 16.057-17.939 15.158-29.76-.758-9.986-9.484-14.868-18.117-9.23-189.895 124.01-375.484 255.295-574.296 364.99a2771.13 2771.13 0 0 1-59.695 31.967c2.378 11.916 4.754 23.834 7.133 35.753 73.349-58.31 162.89-92.968 248.279-129.313 44.957-19.136 89.818-38.741 132.914-61.835 22.314-11.958 44.492-24.162 66.002-37.533 23.461-14.583 46.566-29.751 71.246-42.24-4.764-8.673-9.529-17.347-14.291-26.021-3.254 5.631 2.838-4.269-.768 1.27-1.092 1.674-2.266 3.292-3.438 4.908-1.197 1.658-2.473 3.257-3.744 4.857-.225.285-4.666 5.494-1.592 2.025-6.42 7.244-13.555 13.844-20.877 20.157-14.346 12.364-31.18 23.663-48.141 34.454-35.631 22.667-73.1 42.25-109.025 64.42-39.857 24.595-76.527 54.363-114.17 82.133-42.477 31.335-86.009 61.83-133.525 85.105-8.502 4.164-17.229 7.84-26.042 11.295l2.864 37.721c61.737-53.27 143.857-80.492 220.312-108.336 80.787-29.419 162.883-61.465 226.773-120.971 7.467-6.956 14.516-14.354 21.266-22.004 7.164-8.119 13.979-19.857 10.072-31.133-3.469-10.01-15.477-8.066-21.377-1.381-114.229 129.437-307.648 132.047-443.065 231.178a404.225 404.225 0 0 0-25.288 20.133c-7.098 6.124-11.694 17.184-10.987 26.521.528 6.965 5.991 14.281 13.852 11.197 97.133-38.068 176.129-109.004 260.493-168.246 66.98-47.034 147.924-76.377 205.264-136.568 10.396-10.917 19.23-22.636 26.766-35.684 7.1-12.287 4.061-35.307-14.291-26.021-23.682 11.984-45.959 26.396-68.422 40.475-22.414 14.05-45.568 26.729-68.828 39.299-42.021 22.707-85.977 41.566-129.891 60.244-90.248 38.377-182.23 75.838-259.648 137.379-7.227 5.744-11.673 17.469-10.986 26.521.82 10.784 9.259 13.842 18.119 9.23C584.75 936.47 771.74 806.556 960.965 681.343a10901.362 10901.362 0 0 1 56.154-36.924c-.986-12.997-1.975-25.994-2.959-38.99-164.072 120.32-362.512 176.992-545.046 261.855-48.148 22.383-95.297 46.992-140.35 75.131-8.23 5.139-13.768 14.977-14.994 24.479-1.043 8.055 3.027 20.432 13.684 16.479 48.654-18.045 91.17-48.992 132.91-79.128 45.078-32.542 91.929-61.575 139.314-90.626 101.836-62.436 204.242-123.967 307.943-183.264a7323.215 7323.215 0 0 1 86.65-48.766c-.986-12.996-1.971-25.994-2.959-38.989-51.547 29.458-102.699 59.62-155.438 86.899l-161.336 83.449c-43.93 22.722-87.301 45.754-129.697 71.244-41.77 25.119-83.296 50.701-126.521 73.278-41.22 21.53-86.023 41.924-132.55 48.142l-9.721 43.49c47.463-21.484 85.909-55.805 127.18-86.811 44.621-33.524 92.951-62.742 140.677-91.576 96.971-58.588 197.004-111.869 295.91-167.064 73.6-41.076 157.643-70.726 218.6-130.964 6.844-6.76 11.734-16.708 10.988-26.521-.729-9.591-9.637-15.373-18.119-9.229-88.59 64.144-188.592 109.526-285.451 159.372-99.426 51.167-193.672 111.626-289.093 169.731-73.313 44.645-147.525 88.053-225.085 124.969.985 12.997 1.974 25.993 2.959 38.989 49.188-28.64 94.676-62.944 140.544-96.503 46.478-34 94.139-66.236 142.511-97.467 87.035-56.191 175.35-110.047 263.912-163.752 74.689-45.296 149.064-94.295 206.426-161.075 5.668-6.598 9.145-18.316 6.219-26.762-2.553-7.369-11.105-9.216-17.203-4.619-89.629 67.563-188.064 121.631-286.24 175.51-49.328 27.073-98.404 53.916-144.787 85.881-23.352 16.091-46.289 32.776-69.5 49.068-23.092 16.206-47.428 30.418-72.158 43.966-61.565 33.727-125.932 62.053-186.961 96.791-9.623 5.477-15.984 18.906-15.161 29.76.834 10.973 9.22 13.596 18.12 9.23 98.893-48.512 189.041-113.176 277.8-177.873 89.326-65.107 177.656-132.873 271.783-191.007 55.475-34.265 120.369-62.552 160.975-115.647 5.389-7.048 9.266-17.969 6.219-26.763-2.842-8.196-10.652-8.139-17.203-4.62-49.322 26.479-97.434 55.121-146.604 81.871-49.906 27.152-102.031 49.649-152.42 75.84C537.59 565.518 438.344 626.222 337.974 685.06a11495.488 11495.488 0 0 1-97.149 56.283c-30.902 17.713-60.723 37.979-96.278 44.888l2.865 37.721c33.756-33.366 76.161-55.737 118.04-77.181 45.688-23.389 90.239-48.037 134.129-74.68 87.598-53.174 171.681-111.857 262.07-160.352 54.957-29.485 110.545-57.98 162.961-91.898 49.711-32.167 98.854-70.181 131.992-120.017 5.025-7.557 9.408-17.564 6.219-26.762-2.699-7.79-10.855-8.674-17.203-4.621-195.874 125.102-399.874 236.656-603.807 347.894-83.527 45.561-167.061 91.117-250.082 137.596l2.959 38.987c170.951-118.94 354.396-218.405 528.242-332.894 94.264-62.08 185.902-128.777 269.846-204.38 7.025-6.326 11.709-17.034 10.988-26.521-.836-11.01-9.213-13.549-18.121-9.229-51.248 24.849-100.295 53.831-149.523 82.396-49.637 28.8-100.664 55.019-150.33 83.748-99.658 57.646-195.21 122.086-293.781 181.536-72.495 43.725-150.875 77.518-220.271 126.385.986 12.996 1.974 25.991 2.959 38.988 185.014-137.684 374.572-269.339 569.66-392.374 80.434-50.727 161.85-99.901 244.246-147.372 9.607-5.535 15.988-18.861 15.162-29.76-.822-10.815-9.25-13.799-18.121-9.229-206.174 106.221-406.21 223.749-609.96 334.453-81.455 44.258-163.553 87.353-246.781 128.185 3.66 10.463 7.322 20.924 10.984 31.383 25.776-33.307 66.304-56.533 103.788-77.646 19.876-11.199 39.891-22.157 59.179-34.356 21.949-13.881 42.736-29.654 64.248-44.203 92.356-62.464 188.979-118.262 284.289-176.014 77.076-46.702 153.375-94.856 225.838-148.516 9.197-6.81 16.061-17.9 15.162-29.76-.793-10.436-9.346-14.29-18.121-9.229-48.865 28.18-97.98 55.93-148.08 81.866-49.613 25.688-100.764 48.18-150.024 74.562-96.332 51.593-187.564 112.021-281.983 166.92-45.946 26.715-92.727 52.251-141.019 74.497 3.339 9.329 6.681 18.661 10.022 27.989.942-1.98 1.92-3.936 2.938-5.88.276-.53 3.927-6.72 1.067-2.127 2.278-3.657 4.848-7.124 7.494-10.519.166-.216 4.736-5.591 1.714-2.197 1.437-1.613 2.948-3.158 4.456-4.703 3.551-3.637 7.363-7.009 11.248-10.285 4.771-4.025 12.172-9.079 19.403-13.619 8.458-5.309 17.279-10.027 26.193-14.512 34.47-17.341 71.243-29.698 106.114-46.215 43.146-20.438 79.836-52.665 117.23-81.817 44.832-34.949 93.141-64.874 140.709-95.896 48.039-31.33 95.283-64.804 145.126-93.205 42.926-24.461 88.732-46.937 123.102-83.359 6.684-7.084 11.75-16.467 10.986-26.522-.559-7.365-5.898-13.775-13.852-11.198-49.908 16.173-93.238 47.806-137.598 74.86-48.916 29.832-102.049 53.268-153.392 78.592-106.678 52.613-213.652 104.618-320.471 156.94-43.396 21.257-86.617 42.541-129.028 65.714-40.358 22.048-80.935 43.731-124.823 57.979l2.863 37.722c72.181-71.732 163.499-120.634 250.486-171.762 103.368-60.753 205.49-123.591 307.752-186.184 31.838-19.489 63.289-39.891 95.544-58.646 28.137-16.359 57.43-30.229 78.301-56.136 6.781-8.413 13.281-38.49-6.715-33.351-47.434 12.189-90.471 38.454-131.142 64.924-21.107 13.74-41.836 28.055-62.841 41.949-19.62 12.978-39.934 24.668-59.937 37.013-88.903 54.875-170.568 120.622-260.035 174.661-39.993 24.155-81.58 45.8-125.745 61.276.954 12.572 1.909 25.147 2.862 37.721 39.104-33.88 85.59-57.931 127.51-87.986 21.174-15.181 40.631-32.545 61.216-48.488 20.628-15.976 41.774-31.275 63.117-46.278 86.077-60.504 176.019-115.53 257.792-181.999 18.234-14.82 35.916-30.312 52.962-46.484 6.924-6.571 11.719-16.852 10.984-26.521-.584-7.715-5.842-13.337-13.85-11.199-49.302 13.154-94.82 37.832-138.794 63.142-40.958 23.574-81.776 46.956-123.684 68.825-82.873 43.245-167.969 86.252-237.164 150.254-7.749 7.166-13.725 20.591-10.07 31.133 3.688 10.636 15.029 7.252 21.375 1.379z"/></g><path fill="#D8724A" d="M283.29 470.57c-11.288-10.74-28.3-24.984-45.234-18.202-19.03 7.622-29.125 29.003-30.801 48.468-2.052 23.85 7.75 70.839 41.557 61.368 13.867-3.883 24.938-16.481 32.947-27.717 5.563-7.803 11.317-22.042 4.291-30.817-6.995-8.731-18.936.3-23.534 6.751a105.811 105.811 0 0 1-4.296 5.635c-2.725 3.324 3.926-4.3 1.117-1.277a55.462 55.462 0 0 1-2.041 2.046 45.864 45.864 0 0 1-2.002 1.792c-2.723 2.341 4.429-3.28 1.617-1.271-1.188.852-2.462 1.572-3.769 2.224 6.052-3.018 1.995-.963.149-.514-2.564.623 4.492-.471 1.919-.227-.548.053-1.099.043-1.649.033-1.61-.03-5.37-1.244.18.369-1.191-.347-2.31-.908-3.379-1.528-3.453-2.002.331.51-.025.19-.874-.778-1.654-1.659-2.404-2.555-.795-.946-1.498-1.968-2.174-3.001-.352-.539-.674-1.097-.997-1.65-1.326-2.281 2.164 4.289.479.783-1.211-2.52-2.143-5.167-2.943-7.844a62.683 62.683 0 0 1-1.074-4.21c-.689-3.057.918 4.886.363 1.797a68.08 68.08 0 0 1-.439-2.9c-.39-2.881-.547-5.788-.547-8.69-.002-3.28-.24 5.768-.086 2.516.033-.695.093-1.388.152-2.082.114-1.346.311-2.685.539-4.018.77-4.516-1.795 6.684-.253 1.379a32.3 32.3 0 0 1 .581-1.75c1.12-3.179-2.885 6.741-1.518 3.703 2.302-5.128-2.231 3.229-1.404 2.014 2.846-4.191-4.824 4.588-1.098 1.306-5.287 4.655-4.164 3.103-2.588 2.076 1.262-.816 3.786-1.761-2.52 1.059.959-.429 1.986-.68 3.013-.869-5.921 1.098-2.054.309-.2.445.631.046 1.253.155 1.873.264 2.402.416-4.184-1.305-.497-.104 3.259 1.064 6.284 2.802 9.15 4.648 1.801 1.159 3.511 2.454 5.195 3.773-3.114-2.437.146.148.636.576 1.332 1.157 2.613 2.366 3.889 3.583 8.053 7.66 18.1.595 23.535-6.751 4.969-6.715 12.149-23.341 4.29-30.821zm492.079-32.856c-11.893-5.649-25.217 10.779-27.932 25.155-4.18 4.043-7.814 8.235-10.604 11.694-5.959 7.387-11.068 22.356-4.291 30.818 7.203 8.991 18.613-.65 23.535-6.751a91.02 91.02 0 0 1 1.6-1.855 65.69 65.69 0 0 1 2.574-2.489c.061 1.65.26 3.207.627 4.61.6 2.283.729 3.045.941 4.998-.791.427-1.734.871-3.07 1.584-5.482 2.921-11.109 10.261-13.975 18.153-13.553 11.077-21.039 40.428-3.826 40.428 5.977 0 11.691-4.443 16.047-10.521 10.607 7.033 23.027 8.354 33.75-3.672a64.416 64.416 0 0 0 10.408-15.896c11.32-15.499 17.75-34.381 13.275-53.761-.945-4.103-2.424-7.962-4.314-11.585.869-5.338.279-10.686-2.857-14.601-3.219-4.019-7.258-4.315-11.186-2.877-6.214-5.468-13.382-9.955-20.702-13.432m-13.273 68.332a12.05 12.05 0 0 0-.176.479c.057-.169.113-.336.172-.502l.004.023z"/><path fill="#61E9FF" d="M251.291 940.067c26.862 26.317 63.229 38.576 99.241 46.392 39.174 8.503 79.496 10.854 119.446 12.524 45.021 1.882 90.184 2.168 134.93-3.877 46.818-6.328 91.584-20.469 134.617-39.775 6.822-3.059 11.211-10.965 9.371-18.393-19.475-78.646-70.668-150.223-149.443-177.135-38.455-13.136-79.443-12.511-119.537-10.666-36.088 1.658-72.543 6.199-107.059 17.203-35.49 11.318-68.382 31.034-90.758 61.306-26.455 35.786-32.918 81.405-29.519 124.774.977 12.463 14.536 1.922 16.118-4.842 8.154-34.841 13.697-70.889 27-104.271 11.855-29.755 34.523-50.104 64.367-61.08 20.662-7.598 42.919-10.526 64.456-14.624 23.103-4.396 46.274-8.472 69.698-10.728 45.281-4.36 91.562-.491 130.912 24.129 34.438 21.543 60.959 59.878 75.139 97.431 6.371 16.878 10.658 36.448 6.492 54.384-4.494 19.359-19.051 30.635-35.861 39.463-39.459 20.717-87.037 24.158-130.775 23.968-44.06-.192-88.964-4.544-132.4-11.929-51.203-8.702-103.433-23.875-146.814-53.264-7.947-5.383-19.291 15.584-10.85 21.303 41.36 28.02 90.545 42.66 139.146 52.16 43.413 8.486 88.547 12.607 132.732 13.842 72.029 2.014 199.557-8.816 203.1-104.863 1.469-39.83-18.736-78.264-42.094-109.229-26.674-35.363-62.545-58.71-106.09-67.409-44.723-8.936-91.517-1.567-135.791 6.457-39.563 7.171-82.189 11.943-115.333 36.744-51.69 38.676-58.782 108.515-72.425 166.811 5.371-1.615 10.744-3.227 16.118-4.842-2.786-35.53 1.005-72.643 22.296-102.352 18.336-25.588 47.133-41.135 76.373-50.973 34.402-11.576 70.984-15.717 107.078-17.377 40.598-1.867 81.707-2.021 120.322 12.226 72.986 26.926 119.346 95.195 137.482 168.442 3.125-6.129 6.248-12.262 9.371-18.393-41.525 18.629-84.633 32.441-129.729 39.094-44.07 6.502-89.016 5.872-133.407 4.078-38.196-1.543-76.466-3.926-114.085-11.074-35.477-6.74-73.526-18.553-99.928-44.419-7.927-7.769-20.542 12.285-13.907 18.784z"/><path fill="#61E9FF" d="M270.626 890.302c17.652-21.256 32.278-41.529 50.308-58.85 18.664-17.932 42.62-29.596 69.642-36.271-.965-12.727-1.931-25.455-2.899-38.183-40.387 36.928-89.656 64.866-119.746 111.995-4.973 7.787-9.561 17.664-6.293 27.092 2.98 8.6 10.65 7.827 17.414 4.675 35.035-16.327 65.373-41.032 96.996-62.892 30.277-20.932 63.758-41.804 101.359-44.875.431-12.918.861-25.837 1.293-38.754-31.324 32.33-73.763 52.543-113.064 76.506-42.562 25.949-82.449 58.114-103.812 104.357-4.66 10.088-7.347 31.686 10.147 28.334 23.698-4.539 45.422-18.037 65.092-31.428 21.798-14.846 42.184-31.648 63.338-47.371 21.658-16.097 45.182-29.725 68.051-44.008 26.67-16.659 54.082-32.373 84.863-39.932l-12.568-22.436c-.418 1.292-3.332 8.746-.674 2.431-.932 2.216-2.023 4.36-3.129 6.495-.596 1.145-4.898 8.067-1.334 2.494-1.701 2.657-3.576 5.198-5.482 7.711-1.566 2.068-3.236 4.054-4.918 6.029 3.361-3.951-2.24 2.301-2.867 2.951-4.35 4.519-9 8.744-13.736 12.854-9.371 8.135-16.823 13.442-28.015 21.103-11.841 8.105-24.041 15.683-36.293 23.148-44.854 27.326-95.734 52.251-131.095 92.113-6.61 7.452-11.91 16.452-11.122 26.848.616 8.109 5.88 13.117 14.021 11.336 56.065-12.266 101.531-52.91 145.7-86.996 23.222-17.92 47.238-33.054 72.773-47.435 29.375-16.542 58.701-33.247 86.498-52.364l-14.467-26.342a164.229 164.229 0 0 1-7.189 13.861c2.633-4.547-1.227 1.869-1.49 2.271-1.693 2.568-3.508 5.061-5.334 7.537-7.375 10.012-12.186 14.992-21.732 24.231-17.555 16.989-36.555 30.96-56.753 44.64-39.795 26.953-82.41 49.444-122.205 76.376-8.246 5.577-13.9 14.89-15.18 24.78-.965 7.475 3.189 21.557 13.853 16.682 45.099-20.611 91.144-39.229 134.817-62.826 22.146-11.966 43.449-25.463 63.41-40.809 20.154-15.494 37.844-34.348 59.854-47.305-3.707-10.589-7.414-21.177-11.119-31.768-50.576 63.393-118.531 109.855-184.955 155.035-9.475 6.447-16.231 18.461-15.348 30.127.838 11.018 9.353 13.879 18.344 9.344 78.988-39.847 145.951-103.625 230.132-133.163-3.385-9.444-6.766-18.89-10.148-28.335a115.072 115.072 0 0 1-2.15 4.084c-3.562 6.596 2.646-3.844-1.426 2.435-2.508 3.866-5.338 7.512-8.248 11.079-1.164 1.432-3.703 4.111-7.18 7.553-3.379 3.343-6.953 6.484-10.566 9.568-13.285 11.339-30.627 22.147-46.717 32.053-33.463 20.604-68.947 40.241-95.753 69.566-6.686 7.316-11.903 16.559-11.121 26.848.596 7.859 5.906 13.438 14.021 11.338 72.81-18.838 128.796-73.496 194.64-106.808l-16.889-20.444c-.338 1.422-3.066 8.634-.447 2.613a50.867 50.867 0 0 1-1.682 3.33c1.748-2.683 1.848-2.852.303-.511-1.494 2.249-3.219 4.345-4.943 6.417 2.93-3.52-2.91 2.795-3.514 3.387-9.086 8.867-17.164 14.395-27.85 21.674-21.004 14.313-43.488 26.889-62.531 43.885-7.125 6.359-11.846 17.273-11.121 26.846.516 6.777 6.143 14.801 14.023 11.338 44.07-19.379 87.49-43.082 135.154-52.408 17.83-3.488 30.258-48.271 5.645-43.455-47.66 9.326-91.08 33.031-135.154 52.407l2.9 38.185c5.273-4.706 4.713-4.178 9.988-8 5.6-4.059 11.387-7.863 17.168-11.659 12.436-8.159 25.006-16.106 37.102-24.77 23.52-16.845 48.695-38.417 55.742-67.858 3.059-12.779-.908-28.529-16.889-20.443-62.885 31.812-116.574 84.855-186.001 102.82.968 12.729 1.934 25.455 2.9 38.184 26.572-29.071 62.087-47.197 95.923-68.357 36.1-22.576 70.766-49.016 90.611-87.68 4.199-8.184 7.168-34.41-10.146-28.334-87.518 30.707-156.768 95.78-238.773 137.146.999 13.158 1.996 26.314 2.996 39.471 72.898-49.584 145.746-100.928 201.201-170.438 5.564-6.97 9.336-18.316 6.295-27.092-2.801-8.084-10.883-8.522-17.412-4.677-21.801 12.833-39.576 30.821-59.102 46.651-18.949 15.365-40.115 28.171-61.42 39.959-41.566 23.003-85.773 40.623-128.917 60.342l-1.326 41.461c41.996-28.418 86.98-52.104 128.779-80.859 43.146-29.689 86.574-65.67 108.871-114.311 3.037-6.627 5.457-14.422 2.945-21.666-2.668-7.699-11.094-9.022-17.414-4.676-50.977 35.061-107.744 60.377-156.955 98.02-42.507 32.512-85.569 73.018-139.373 84.789l2.898 38.186c17.498-19.727 34.539-31.16 56.715-45.463 24.336-15.698 49.561-29.969 74.205-45.166 46.585-28.725 98.3-63.469 115.96-118.197 3.117-9.664 1.318-25.848-12.568-22.438-30.49 7.486-58.514 22.622-85.191 38.792-23.658 14.341-47.842 28.628-70.346 44.737-21.225 15.191-41.346 31.867-62.593 47.041-19.122 13.658-39.74 27.674-63.214 32.167 3.383 9.444 6.764 18.892 10.146 28.335 8.916-19.3 18.628-31.11 35.928-46.386 15.361-13.567 34.521-25.532 53.358-36.798 39.245-23.471 80.913-44.762 113.096-77.979 5.73-5.915 9.885-13.229 10.953-21.503.771-5.951-.937-17.963-9.66-17.25-85.524 6.984-141.62 78.515-215.384 112.893 3.706 10.59 7.414 21.179 11.119 31.768 27.45-42.988 74.589-68.99 111.949-103.146 7.08-6.477 11.854-17.191 11.121-26.85-.604-7.932-5.897-13.342-14.021-11.337-31.35 7.743-59.359 22.188-83.424 43.739-23.25 20.822-41.562 46.859-61.418 70.768-6.051 7.283-11.005 22.433-4.289 30.818 7.251 9.057 18.538-.734 23.535-6.747z"/><path fill="#D8724A" d="M423.613 739.884c-3.265 18.303-1.606 37.922 9.783 53.209 9.411 12.631 25.409 18.514 40.562 19.896 37.524 3.432 74.112-21.836 89.631-54.992 3.381-7.225 8.021-23.213-2.117-27.91-17.031-7.889-39.721-4.086-57.124.232-24.323 6.037-50.62 25.827-44.078 54.271 2.233 9.719 12.521 15.797 20.995 19.355 12.77 5.357 27.885 4.682 40.466-.759 15.008-6.487 27.576-18.518 34.068-33.653 7.92-18.464 7.258-35.912-2.301-53.48-5.52-10.139-19.805 1.712-23.535 6.752-6.641 8.971-9.793 20.707-4.289 30.818 1.383 2.541 1.961 5.069 2.201 7.529-.338-3.479-1.148 4.227.227-.838 1.631-6-2.295 2.715 1.229-2.408 2.627-3.818-.914.826-1.672 1.504 2.787-2.491-2.531 1.279-2.699 1.375-.482.269-5.764 1.94-8.014 2.167-7.855.79-14.559-1.37-21.283-5.228-3.413-1.962-1.659-.34-4.135-3.621 4.115 5.453-.96 18.383-6.888 24.91 1.522-1.412.935-1.021-1.771 1.169.966-.749 2.037-1.362 3.088-1.982.744-.438 4.793-2.255.64-.43 1.391-.61 2.823-1.122 4.251-1.64 6.395-2.311 13.12-3.711 19.82-4.783 2.613-.418 11.242-.924 16.214-.827 2.949.058 5.883.354 8.795.804.645.098 4.74 1.243 1.061.158 1.047.309 2.039.75 3.027 1.209-.705-9.305-1.41-18.607-2.117-27.91a60.983 60.983 0 0 1-1.578 3.243c-2.75 5.446 3.027-4.38-.307.659-.967 1.461-2.057 2.838-3.145 4.213 3.545-4.479.021-.086-.77.717-.898.911-7.492 6.248-3.658 3.396-2.752 2.044-5.715 3.785-8.723 5.416-1.934.953-2.027 1.03-.277.236-1.545.705-3.135 1.305-4.719 1.904-3.146 1.189-6.4 2.068-9.669 2.831-4.453 1.042-3.566.788-7.213 1.062-3.199.24-6.408.15-9.603-.062-6.741-.451-8.542-1.044-13.873-3.262-2.247-.939-4.362-2.148-6.423-3.435-2.979-1.858-1.545-.72-4.613-3.962-1.672-1.77-3.053-3.783-4.344-5.838 1.823 2.9-.514-1.283-.682-1.682-.619-1.456-1.061-2.978-1.508-4.49-1.473-5.014.403 3.496-.346-1.901-.246-1.776-.304-3.577-.367-5.366-.207-6.025-.389 3.928.189-2.408.194-2.102.57-4.186.941-6.262 1.564-8.77-3.32-19.881-13.854-16.681-11.236 3.415-17.59 16.102-19.493 26.775z"/><path fill="#D8724A" d="M451.029 742.472c-.939 35.633 27.458 63.215 62.958 61.83 44.314-1.723 71.619-46.713 64.509-88.127-1.697-9.898-8.877-15.182-18.342-9.344-8.953 5.521-17.211 19.262-15.348 30.125.664 3.855 1.08 7.684 1.189 11.598-.156-5.584-1.977 10.202-.061 2.207-.355 1.484-.867 2.925-1.381 4.356 2.357-6.599.803-2.169-.025-.617 3.322-6.225 1.379-2.249.264-.748-2.953 3.979 3.721-3.821.254-.343-.875.881-4.555 3.723.086.209-1.078.814-2.234 1.521-3.387 2.227-.775.474-4.887 2.437-.512.461-1.242.561-2.535 1.01-3.822 1.459-2.607.908-5.32 1.477-8.037 1.94 3.252-.556-4.189.078-5.568.062-6.592-.076-10.083-.979-14.154-2.42-2.671-.943-5.219-2.197-7.699-3.555-1.241-.678-2.421-1.461-3.598-2.241-.26-.172-3.861-3.026-1.409-.946-2.177-1.848-4.077-3.988-5.86-6.209-.906-1.127-1.695-2.343-2.484-3.553-2.566-3.943 1.258 2.845-.781-1.48-1.32-2.801-2.188-5.791-2.905-8.795.952 3.988-.006-1.335-.056-1.846-.238-2.334-.203-4.688-.142-7.029.28-10.695-10.254-14.335-18.344-9.344-10.37 6.394-15.04 18.489-15.345 30.123z"/><path d="M276.776 466.012c-16.123-10.599-38.615-20.129-56.197-7.17-14.203 10.466-18.045 30.677-17.022 47.21 1.09 17.646 8.195 36.745 22.142 48.204 15.449 12.691 39.232 11.499 53.217-2.949 1.172-1.213 5.139-10.58.461-9.799-8.55 1.431-15.76 6.289-24.663 6.799-7.234.413-14.062-1.911-20.07-5.821-12.532-8.163-19.618-24.1-21.944-38.382-1.917-11.781-1.61-27.378 8.398-35.665 14.672-12.151 37.677-1.7 51.915 5.647 2.924 1.508 6.531-6.254 3.763-8.074z"/><g fill="#D8724A"><path d="M379.155 716.602h-.001l-.003.005z"/><path d="M777.555 366.768c-3.018-3.433-7.387-4.501-12.283-2.947l-1.82.58.002-.104-.389.229c-14.662 4.684-24.127 3.874-33.42 2.129 1.793-5.898 3.17-11.974 4.199-18.132.85-.026 1.738-.307 2.51-.782 3.334-2.057 5.193-6.203 5.107-10.024-.424-18.824-2.84-37.621-7.91-55.557-1.598-7.601-4.023-15-7.656-21.632-5.277-12.238-12.053-23.86-20.58-34.555-22.041-27.636-54.809-44.6-88.4-53.676-18.76-5.069-38.016-7.916-57.387-9.264-22.586-1.572-45.349-1.329-67.667 2.774a158.621 158.621 0 0 0-9.131 1.968c-30.62 1.105-60.97 7.085-88.722 20.621a147.632 147.632 0 0 0-7.636 4.012c-14.013 5.281-27.64 11.519-40.52 19.004-17.546 10.198-34.255 23.649-43.937 41.832-7.028 13.198-8.473 27.845-5.035 41.784-3.038 13.062-2.857 26.711.774 39.893-11.38 7.971-22.312 16.658-32.599 26.308-6.127 5.746-10.434 14.198-11.52 22.61-.492 3.807-.252 11.473 3.771 16.05 2.002 2.275 4.684 3.397 7.795 3.272 9.875-.449 20.045-1.651 30.77-3.648-8.605 4.261-16.404 8.696-23.586 13.408-8.508 5.582-14.637 15.575-15.994 26.083-.605 4.689.002 11.664 3.715 15.887 1.975 2.248 4.646 3.438 7.777 3.438 19.301-.081 39.535-1.717 61.481-4.99-25.018 10.771-50.991 22.579-76.179 36.748-9.479 5.331-14.916 16.974-16.101 26.148-.785 6.071.597 11.804 3.696 15.329 2.96 3.371 7.349 4.58 12.404 3.377 20.636-4.894 38.744-9.342 55.377-13.613a1891.159 1891.159 0 0 0-12.135 5.235l-1.069.264-.035.235c-10.57 5.026-18.058 15.576-19.637 27.788-.783 6.078.591 11.825 3.71 15.369 2.969 3.377 7.325 4.572 12.369 3.333l2.166-.542c-.447.229-.99.461-1.436.693l-.414.053v.06c0 .583-2.053 1.165-3.179 1.745-8.985 4.651-14.733 16.688-15.962 26.179-.784 6.083.613 11.843 3.746 15.405 2.972 3.382 7.35 4.562 12.383 3.295a777.488 777.488 0 0 0 32.072-8.854c-7.686 7.479-14.42 23.453-11.8 33.473 1.724 6.595 7.232 9.69 15.394 8.517a430.705 430.705 0 0 0 22.793-3.907c-2.96 4.659-4.922 10.022-5.632 15.513-.585 4.52.111 11.369 3.999 15.789 3.027 3.445 7.395 4.488 12.259 2.872 3.477-1.157 6.956-2.31 10.437-3.454-3.945 5.211-6.557 11.449-7.389 17.884-.799 6.195.43 11.5 3.467 14.953 2.892 3.291 7.285 4.6 12.508 3.753.691-.112 1.383-.26 2.073-.374l.132-.22c7.037-1.148 14.085-2.573 21.143-3.748-3.705 8.285-5.554 17.678-1.987 23.631.987 1.652 2.728 2.979 5.713 3.609 1.202.461 2.611.711 4.245.713l.052.001a839.26 839.26 0 0 0 16.687-.209c10.656.086 21.244.104 31.645-.53.631 5.424 3.346 10.504 7.773 12.459 12.565 5.545 26.65 8.357 41.861 8.357 32.396 0 65.259-12.693 87.158-22.242 41.646-18.158 79.387-41.982 113.965-65.027l.961-.539-.008-.117c9.895-7.074 16.137-19.734 15.268-31.177-.611-8.045-5.527-13.244-12.523-13.244-.451 0-.908.022-1.367.067 11.18-8.947 20.545-18.648 28.385-29.373 5.418-7.412 9.982-18.865 6.547-28.777-1.449-4.178-4.48-7.007-8.383-7.964a263.177 263.177 0 0 0 5.988-5.472c7.85-7.4 12.439-18.519 11.693-28.326-.506-6.659-4.963-13.736-12.223-13.736-1.396 0-2.838.275-4.281.818-2.197.828-4.416 1.658-6.65 2.492 7.689-5.405 13.396-15.123 14.703-25.229.611-4.742-.428-11.776-4.152-16.016-3.057-3.475-7.412-4.434-12.182-2.619-.57.218-1.148.438-1.727.655l.01-.314-1.266.785c-.932.348-1.875.696-2.822 1.045a363.342 363.342 0 0 0 18.873-16.074c6.117-5.583 10.43-14.042 11.539-22.625.654-5.068-.244-11.956-3.723-15.917a9.848 9.848 0 0 0-3.387-2.52 884.68 884.68 0 0 0 18.619-10.598c9.488-5.557 14.908-17.129 16.074-26.133.773-5.945-.779-12.115-3.947-15.723zM368.579 240.864c-8.615 8.31-17.15 16.696-25.812 24.943a131.043 131.043 0 0 1 8.273-11.164c2.01-2.427 4.333-4.945 6.844-7.451 4.988-4.148 10.319-7.899 15.869-11.294-.471.449-.941.897-1.411 1.348a28.312 28.312 0 0 0-3.763 3.618zm-47.397 44.71c4.787-13.203 11.023-25.811 19.017-37.349 3.974-3.629 8.185-6.989 12.576-10.124-12.698 13.447-22.774 29.064-30.053 46.115-.514.453-1.023.909-1.54 1.358zm356.396-64.649a142.12 142.12 0 0 1 1.822 1.537 2.87 2.87 0 0 0-1.121-.392c-.234-.382-.463-.766-.701-1.145zm11.861 139.469c.49 1.098.969 2.203 1.451 3.307-1.24.002-2.773.008-4.479.017a81.463 81.463 0 0 0 3.028-3.324zm15.788-108.415a12.38 12.38 0 0 0-.643 4.047c.021 2.027.111 4.043.258 6.048-6.324-13.855-15.014-26.678-24.332-38.619-.029-.038-.061-.065-.09-.102 9.373 8.224 17.74 17.722 24.807 28.626zm-398.939 17.379c.098-.679.223-1.354.35-2.027.199-1.055-.098.275.363-1.471 1.416-5.354 3.498-9.294 6.264-13.315 3.655-5.316 6.965-8.72 12.03-13.246 6.724-6.008 14.198-11.243 22.124-15.876a168.481 168.481 0 0 0-9.495 11.324c-12.595 10.602-23.651 22.872-31.892 37.163l-.053.093c.083-.884.185-1.766.309-2.645zm107.39 48.806l2.902-1.296.146.354c-1.018.313-2.038.626-3.048.942zm97.468-5.695c4.412 2.425 8.725 5.031 12.958 7.713a600.903 600.903 0 0 1 5.086 3.261c-6.359-2.798-12.312-5.682-17.837-8.759a21.055 21.055 0 0 0-.207-2.215zm17.588 144.295c9.133-6.906 17.67-13.997 25.721-21.357a293.34 293.34 0 0 0 15.072 3.112 2781.11 2781.11 0 0 0-40.793 18.245z"/></g><path fill="#AF543F" d="M550.906 750.886c-16.166 8.947-34.881 12.434-53.234 11.82-18.299-.607-38.777-5.062-49.928-20.857-3.453-4.891-9.25 7.264-8.158 10.567 14.402 43.657 70.753 48.759 106.984 30.616 7.596-3.805 12.377-12.573 13.479-20.784.67-4.99-1.594-15.538-9.143-11.362zM489 698.857c10.086 1.629 19.775.698 29.585-1.995 5.137-1.411 9.988-3.692 14.633-6.258.336-.184.836-.52 1.424-.936.711-.25 1.424-.5 2.129-.766 6.996-2.646 11.531-5.57 14.205-11.164.461-.719.889-1.457 1.201-2.264 1.107-2.855 3.867-12.168-2.131-12.066-3.578.064-6.041 2.574-8.584 4.867-21.115 6.41-45.643 6.785-63.361-7.959-5.092-4.238-11.344 2.393-13.581 9.57a60.285 60.285 0 0 1-12.491-14.523c-1.94-3.151-6.619 4.697-5.528 7.158 7.935 17.863 22.508 33.109 42.499 36.336z"/><path d="M447.288 657.492c15.385 12.236 31.141 20.566 50.726 23.396 16.596 2.395 39.118-.333 51.551-12.42 1.793-1.746 6.908-13.962.621-13.217-7.539.895-14.654 6.102-21.982 8.459-8.277 2.66-17.274 3.068-25.89 2.783-17.799-.589-36.477-6.979-52.475-14.471-2.116-.99-4.241 4.124-2.551 5.47zM231.672 508.808c5.904-7.261 13.813-12.811 23.447-12.934 10.623-.134 12.978 9.287 17 16.997 1.836 3.521 5.887-4.267 6.036-5.568 1.351-11.845-4.618-23.643-17.749-23.875-12.863-.229-24.432 10.646-31.223 20.435-1.772 2.558-.899 9.112 2.489 4.945z"/><path d="M278.573 502.82c-7.658-.315-17.26-.394-22.678 6.016-5.359 6.339-4.303 15.934.293 22.41 1.97 2.775 5.195-4.115 4.605-5.965-.84-2.634-4.752-9.561-1.928-12.002 4.498-3.889 12.289-3.994 17.864-4.289 2.236-.119 4.602-6.058 1.844-6.17zm148.44 240.386c-7.007 22.211-5.715 46.067 11.07 63.545 14.978 15.594 37.427 21.904 58.507 21.65 22.111-.264 44.337-7.842 60.322-23.367 8.309-8.067 14.295-18.939 17.26-30.08 2.434-9.157 4.906-26.359-4.211-32.312-3.453-2.258-6.59 5.746-6.963 7.726-1.701 9.089-.387 19.312-2.9 27.571-.75 2.467-1.709 4.201-4.094 7.564-.984 1.39-4.381 4.739-6.682 6.58-14.248 11.408-32.902 15.801-50.852 16.068-18.06.273-36.979-3.611-51.524-14.803-15.863-12.208-19.025-32.686-15.241-51.256.948-4.648-3.908-1.373-4.692 1.114z"/><path d="M428.221 740.104c-52.207.235-111.483.179-146.021 46.466-15.297 20.496-23.383 44.914-28.136 69.787-4.751 24.854-7.007 51.352-4.188 76.463.588 5.23 5.248-1.184 5.663-3.312 8.58-43.965 5.578-93.176 32.382-131.551 30.312-43.403 91.377-36.553 136.854-46.316 3.68-.788 8.874-11.562 3.446-11.537zm141.105 16.057c24.736-1.949 51.201-.732 74.711 7.803 21.172 7.689 37.334 22.631 50.656 40.355 14.201 18.895 22.568 40.703 30.459 62.75 8.031 22.436 14.518 45.699 19.074 69.081 1.381 7.087 10.924-4.856 10.234-9.418-7.541-49.828-16.295-100.011-47.268-141.392-13.648-18.234-33.18-32.269-54.82-39.25-27.652-8.918-55.598-3.863-82.186 6.125-1.004.38-2.651 4.086-.86 3.946z"/><path d="M291.024 879.341c9.65.852 20.934 4.427 25.186 14.006 3.918 8.835 3.73 20.037 3.529 29.517-.23 10.733-1.822 21.448-2.918 32.116-.824 8.028-3.768 21.08 1.239 28.084 5.218 7.301 12.938-9.029 13.452-12.414 1.486-9.799-.307-20.773-.039-30.773.309-11.375.674-22.787-.775-34.104-1.223-9.539-4.799-17.645-11.791-24.315-7.679-7.319-17.861-6.562-27.424-4.221-.617.153-1.4 2.022-.459 2.104zm54.32-504.444c9.973-9.624 23.453-13.491 36.627-16.539 13.606-3.146 28.139-3.64 41.855-.964 17.439 3.4 28.6-36.349 13.706-35.957-37.199.98-75.194 12.439-96.358 45.164-2.819 4.359-2.422 14.657 4.17 8.296z"/><path fill="#08B5F9" d="M673.945 870.11c.148-.298.271-.583.426-.881.713-1.381 1.549-7.275-1.822-5.644-.895.435-1.756.897-2.615 1.371a3.701 3.701 0 0 0-1.459-.249c-.732.051-1.463.104-2.195.156-3.762.266-6.195 3.83-7.488 7.568-3.01 2.293-5.973 4.67-9.049 6.971-1.588 1.188-2.844 6.93.266 4.967 2.592-1.635 5.109-3.384 7.668-5.05.094 2.641.812 5.157 1.838 7.612-8.814 31.369 7.764 66.079 12.309 97.797 2.125 14.817 15.883-2.654 16.658-9.746 3.87-35.491 3.832-73.232-14.537-104.872zm-194.189-10.557c-19.191.995-37.725-9.009-51.306-21.862-6.38-6.035-11.669-13.15-16.264-20.604-4.672-7.582-6.62-17.121-11.986-24.136-.766-.97-1.765-1.437-3-1.399-.659.094-1.271.245-1.856.428-.7-3.68-1.217-7.336-1.467-10.934-.428-6.16-6.43 1.94-6.555 4.924-.197 4.716.047 9.469.549 14.219-1.867 5.889-1.209 13.434.136 18.338 1.443 5.267 3.741 10.398 6.495 15.314 3.988 15.396 9.356 30.425 17.335 44.25 6.603 11.444 16.32 23.574 30.143 25.784 17.036 2.72 30.831-13.177 38.756-26.104 1.985-3.239 7.94-18.678-.98-18.218z"/><path fill="#AF543F" d="M766.875 497.503c-1.273-11.95-3.078-23.827-5.268-35.636 1.445-20.79 1.797-41.536-1.486-62.201l.447-2.16c.348-1.681-.254-3.655-1.607-4.414a165.9 165.9 0 0 0-2.666-11.399c-1.395-5.117-6.703-.295-8.49 2.863-1.576-16.253-4.668-32.393-8.666-48.115-8.607-33.851-22.492-66.893-41.801-96.057-.441-.666-1.035-.979-1.682-1.062-3.102-6.132-6.555-11.986-10.543-17.305-.012-15.196-14.166-26.135-26.178-33.615-9.875-6.151-20.693-11.32-31.799-15.389-8.854-8.193-18.477-15.487-29.223-21.155-23.945-12.627-52.258-13.358-78.543-9.695-23.48 3.272-46.031 10.081-68.24 18.012a275.547 275.547 0 0 0-47.656 17.974l-1.32.498c-.289.108-.57.304-.834.558-42.184 21.016-78.75 52.921-103.072 93.629-1.09 1.824-1.709 5.059-.256 6.874 1.977 2.467 5-.222 6.372-1.827a296.255 296.255 0 0 1 16.96-18.226 194.048 194.048 0 0 0-7.633 11.514c-15.896 25.95-26.281 55.774-27.167 86.34-.108 3.701 4.599.126 4.736-2.181 2.47-41.379 22.278-81.869 51.751-110.737 14.548-14.251 32.18-25.333 51.908-30.693 23.455-6.375 47.395-1.228 70.588 3.861 1.633.358 3.27.726 4.904 1.095.451.64 1.121 1.038 2.1.964.506-.039 1.01-.095 1.514-.143 16.952 3.885 34.037 8.124 51.253 10.815.418.265.936.462 1.568.574 1.859.329 3.74.471 5.639.454 15.07 1.939 30.242 2.496 45.512.386 17.154-2.371 33.656-8.17 50.865-10.183 8.711-1.02 17.469 5.981 26.066 7.695.818.164 1.617 3.224 2.414 3.43 7.76 9.997 14.998 10.857 21.422 21.603 25.412 42.51 35.619 91.443 40.666 140.153 1.666 16.087 2.939 32.175 3.686 48.271-.408 22.435-.457 44.874-.381 67.314-.238 3.76-.5 7.521-.818 11.282-1.76 20.801-4.531 41.771-10.381 61.857-6.545 22.471-20.16 42.246-34.145 60.734-15.939 21.078-33.746 42.469-54.777 58.671-.361.278-.73.546-1.094.821-12.67 4.299-24.654 11.683-33.951 20.602a206.597 206.597 0 0 1-30.516 11.65c-20.199 5.936-41.552 8.332-62.5 5.763-3.673-.45-7.119 8.25-2.783 8.841 30.845 4.201 62.876-2.359 91.654-15.461.24 2.057 1.48 3.375 4.49 2.633 9.645-2.375 19.383-7.559 27.588-13.45.342.187.793.222 1.365.046.305 1.053 1.129 1.592 2.785.986 2.939-1.076 5.709-2.533 8.303-4.268.693.637 1.646.888 2.885.391 15.727-6.312 28.561-19.908 39.51-32.401 8.375-9.558 15.861-20.011 22.646-30.834 1.859.325 4.547-1.297 5.836-2.784 14.398-16.613 23.867-37.004 31.781-57.33 6.295-16.16 11.598-32.951 15.496-49.951-.023 6.102.135 12.193.564 18.27.293 4.139 4.199 4.178 6.732 1.81 19.837-18.552 16.075-46.11 13.47-70.562zm-363.81-295.446a306.737 306.737 0 0 1 6.823-3.203c.511.671 1.318 1.153 2.513 1.344.697.111 1.393.203 2.088.284-3.832.316-7.641.837-11.424 1.575zm126.623 16.301c-.504.185-1.039.525-1.574.975-.518-.08-1.035-.17-1.555-.253 1.117-.256 2.23-.521 3.342-.798-.071.027-.141.051-.213.076zm40.382 1.778c-.156.498-.291 1.221-.346 2.008a121.49 121.49 0 0 1-8.373.273c3.057-1.602 5.98-3.25 8.713-4.795l1.402-.41a11.432 11.432 0 0 0-1.396 2.924zm-3.322-46.964c1.303.142 2.605.295 3.91.454a414.47 414.47 0 0 0-3.861-.095 4.084 4.084 0 0 0-.049-.359zm-43.947-13.99c1.648-3.39 2.439-7.515-.268-8.508 15.873-1.495 31.814-.989 47.711 2.567 9.975 2.231 19.242 6.326 27.857 11.605-24.746-5.285-50.087-7.045-75.3-5.664zm89.211 55.115c-1.553.348-3.102.704-4.648 1.062 5.293-2.439 10.596-4.819 16.043-6.634 7.475-.32 15.479-.233 23.02 1.166l.273.32c-11.655-.675-23.378 1.547-34.688 4.086zm91.57 420.446c1.055-3.351 2.316-6.639 3.58-9.835a195.699 195.699 0 0 1 3.215-7.614c1.943-2.987 3.807-6.047 5.557-9.244 2.072-3.785 4.127-7.58 6.156-11.389-4.928 12.949-10.758 26.318-18.508 38.082zm24.1-247.403a601.676 601.676 0 0 0-1.619-13.157c.684 4.25 1.35 8.502 1.994 12.758-.129.129-.252.262-.375.399zm28.535 162.01c-.344-13.041.293-26.087 1.285-39.128a377.849 377.849 0 0 1 1.361 19.288c.309 7.011-.078 13.818-2.646 19.84z"/><path d="M396.651 779.913c-1.488 22.373 7.038 42.949 22.481 58.996 13.993 14.538 41.253 28.257 61.731 23.219 3.008-.742 7.947-10.473 3.593-11.916-9.254-3.067-19.213-3.105-28.581-6.139-9.498-3.076-18.309-8.034-26.288-13.978-17.363-12.935-28.741-30.715-28.368-52.853.065-3.883-4.429.579-4.568 2.671zm244.552 104.352c2.404 8.297 6.104 16.064 9.066 24.176 3.568 9.759 5.498 20.018 7.438 30.191 3.951 20.738 5.498 41.92 8.598 62.793.152 1.033.412 3.25 1.82 3.545.414.087.832.173 1.246.262 2.588.541 4.701-2.015 5.6-4.207 3.748-9.145.383-19.838-.801-29.4-1.461-11.814-3.414-23.567-5.742-35.244-2.301-11.523-5.523-22.787-10.084-33.625-3.365-8.005-7.623-16.832-16.398-19.62-.503-.162-.848.76-.743 1.129z"/><path d="M677.896 853.241c-13.613 4.982-25.402 12.98-34.611 24.225-1.535 1.875-2.99 4.71-2.209 7.212.998 3.202 4.211.288 5.256-1.149 7.922-10.907 18.594-18.76 30.768-24.365 1.861-.858 3.849-7.04.796-5.923zm73.323-399.61c.963 54.492-7.365 111.712-27.453 155.983-29.424 64.851-86.238 112.309-156.174 127.264-78.584 16.805-164.937-4.705-220.898-63.635-56.572-59.572-70.646-143.529-63.426-222.713-3.621-2.057-7.32-3.898-11.166-5.348a521.329 521.329 0 0 0-3.062 28.791c-6.121 78.827 11.379 160.986 66.414 220.29 54.887 59.147 139.496 81.624 217.873 68.751 72.816-11.963 133.324-58.475 169.643-121.902 30.215-52.765 44.408-123.725 42.057-190.505-4.611 1.005-9.213 2.033-13.808 3.024zm-70.686-97.698c-8.256-14.743-21.676-27.227-37.477-33.424-15.387-6.036-32.881-8.62-49.344-9.083-15.928-.446-23.914 38.872-10.9 36.495 15.758-2.881 31.516-2.916 47.195.57 15.082 3.353 30.422 7.495 42.516 17.603 5.219 4.363 10.291-8.087 8.01-12.161z"/><path fill="#FFF" d="M586.656 558.394c-50.42 2.359-101.695 5.673-151.8-2.166-3.506-.549-6.137 4.807-6.488 7.486-1.463 11.183 2.672 21.33 9.07 30.042-4.277 7.979-4.7 17.157 3.527 24.052 9.49 7.951 22.949 11.506 35.326 13.333 7.02 3.249 14.607 5.272 22.502 5.966 35.332 3.101 66.066-21.95 81.669-51.732 3.473-6.632 6.215-13.686 8.432-20.826.559-1.796.819-6.298-2.238-6.155zm-116.033 33.794c1.897 1.726 3.991 3.147 6.229 4.308-4.34-.549-8.611-1.414-12.719-2.738a69.258 69.258 0 0 1 6.49-1.57zm79.818 1.922c-.346.002-.691.019-1.037.022 1.256-.177 2.512-.335 3.768-.477a39.876 39.876 0 0 1-.195 1.548c-.469-.683-1.274-1.1-2.536-1.093zm-96.616-8.607a40.647 40.647 0 0 1-2.212-2.663c2.71-.06 5.421-.104 8.13-.129a54.069 54.069 0 0 0-5.918 2.792zm-12.368-15.393l-.073-.214c.186.024.373.046.56.068-.164.046-.328.086-.487.146zm133.26 1.795c-7.447-.018-14.893-.152-22.34-.347 8.67-.372 17.346-.755 26.027-1.077a94.497 94.497 0 0 1-1.215 2.947c-.419-.906-1.189-1.521-2.472-1.523zm-128.978 31.344c.274.443.567.877.85 1.316-.49-.559-.934-1.15-1.316-1.777.153.154.31.307.466.461z"/><path d="M404.877 543.474c29.821 19.42 68.635 23.913 103.424 23.888 19.356-.015 38.879-2.238 57.752-6.52 16.099-3.651 33.883-9.061 47.363-18.947 2.607-1.912 4.615-10.479-.586-7.713-14.668 7.804-29.325 13.652-45.575 17.412-18.8 4.35-38.079 5.989-57.34 6.223-33.84.411-71.795-3.796-101.562-21.165-2.733-1.595-6.166 5.07-3.476 6.822z"/><path d="M419.879 551.072c-3.554 44.895 26.616 88.408 72.465 94.688 20.399 2.794 43.609-2.152 61.052-13.056 15.939-9.964 26.587-25.874 33.052-43.23 4.623-12.415 7.991-26.98 7.646-40.276-.038-1.476-1.197-2.638-2.698-2.183-2.171.66-3.376 3.098-3.754 5.153-1.878 10.224-2.79 20.394-5.754 30.423-2.578 8.726-6.344 17.09-11.591 24.54-11.348 16.114-29.204 24.566-48.233 27.788-22.856 3.87-45.134-.257-63.864-14.21-18.334-13.658-29.98-35.493-32.282-58.076-.451-4.43-.458-8.896-.174-13.335.354-5.523-5.576-1.873-5.865 1.774z"/><path d="M423.162 583.839c23.866 12.262 50.855 18.775 77.57 20.307 28.218 1.617 59.572-2.67 83.297-19.109 2.497-1.73 3.915-9.563-.527-6.939-24.49 14.47-51.989 19.189-80.186 17.839-26.284-1.26-53.001-7.331-76.805-18.667-2.785-1.328-6.082 5.165-3.349 6.569z"/><path d="M323.584 529.345a3.105 3.105 0 0 0-.344-.943c-.045-.081-.096-.15-.145-.225-1.017-2.164-2.545-4.043-4.539-5.161-6.951-3.899-12.636 6.562-14.646 11.434-.505 1.227-1.104 4.785 1.304 4.217.936 2.358 3.242 4.08 6.064 5.275 6.384 2.703 12.231-.889 13.146-7.673.3-2.2-.007-4.664-.84-6.924zm-4.126 9.244c.143-.263.217-.376.24-.41a.237.237 0 0 0 .01.048c-.014-.002-.073.036-.25.362zm.255-.895a2.912 2.912 0 0 0-.017.479 1.071 1.071 0 0 1-.39.274c-.857.339-1.765.27-2.663.172-.728-.08-1.707-.281-2.719-.604.427-.243.827-.493 1.171-.663l3.139-1.562c.412.156.897.146 1.371-.042.003.027.011.057.015.083.112.694.129 1.472.093 1.863zm36.536-9.435a3.108 3.108 0 0 0-.342-.944c-.048-.081-.097-.15-.147-.224-1.016-2.165-2.544-4.045-4.538-5.162-6.952-3.899-12.635 6.562-14.645 11.434-.506 1.226-1.105 4.786 1.303 4.216.936 2.359 3.242 4.081 6.063 5.276 6.386 2.703 12.233-.889 13.148-7.673.298-2.2-.009-4.663-.842-6.923zm-4.127 9.243c.143-.264.217-.376.24-.411a.126.126 0 0 0 .011.048c-.015-.001-.074.036-.251.363zm.255-.895a2.74 2.74 0 0 0-.016.479c-.038.042-.176.19-.389.274-.859.34-1.766.27-2.664.172-.728-.08-1.708-.282-2.719-.605.426-.241.826-.491 1.168-.662 1.049-.521 2.096-1.041 3.141-1.562.413.156.898.146 1.371-.042.004.028.012.057.015.084.113.694.13 1.472.093 1.862zm36.264-8.348a3.056 3.056 0 0 0-.342-.944c-.047-.081-.096-.15-.146-.224-1.016-2.165-2.543-4.045-4.537-5.162-6.952-3.899-12.636 6.562-14.646 11.434-.505 1.226-1.104 4.786 1.304 4.216.935 2.359 3.242 4.081 6.062 5.276 6.385 2.703 12.232-.889 13.148-7.673.298-2.2-.009-4.663-.843-6.923zm-4.126 9.243c.143-.264.217-.376.24-.411a.152.152 0 0 0 .011.048c-.015-.001-.072.036-.251.363zm.256-.895a2.91 2.91 0 0 0-.017.479c-.037.042-.175.19-.389.274-.858.34-1.766.27-2.664.172-.727-.08-1.707-.282-2.719-.605.428-.241.828-.491 1.171-.662l3.14-1.562c.412.156.896.146 1.369-.042.005.028.012.057.016.084.112.694.129 1.472.093 1.862zm-42.966 23.107a3.076 3.076 0 0 0-.342-.943c-.047-.082-.098-.15-.146-.225-1.016-2.164-2.545-4.045-4.539-5.161-6.952-3.899-12.635 6.562-14.645 11.433-.505 1.227-1.105 4.786 1.303 4.217.936 2.359 3.242 4.08 6.064 5.275 6.385 2.704 12.232-.889 13.148-7.672.297-2.2-.01-4.664-.843-6.924zm-4.127 9.244c.143-.264.219-.377.24-.41.004.027.008.043.012.047-.015-.002-.074.036-.252.363zm.258-.895a2.73 2.73 0 0 0-.018.479 1.064 1.064 0 0 1-.39.274c-.858.339-1.765.269-2.663.171-.727-.079-1.707-.281-2.719-.605.428-.241.827-.49 1.17-.662l3.14-1.561c.413.156.896.146 1.37-.043.004.028.012.057.016.084.112.696.129 1.472.094 1.863zm38.559-9.436a3.11 3.11 0 0 0-.342-.943c-.047-.082-.098-.151-.147-.225-1.016-2.164-2.544-4.043-4.538-5.161-6.951-3.899-12.635 6.562-14.645 11.433-.506 1.228-1.105 4.786 1.303 4.218.936 2.358 3.242 4.08 6.062 5.274 6.387 2.704 12.234-.888 13.148-7.673.298-2.199-.008-4.663-.841-6.923zm-4.128 9.243c.144-.262.218-.375.241-.41.003.028.009.043.01.047-.014 0-.073.037-.251.363zm.257-.894a2.792 2.792 0 0 0-.017.479 1.05 1.05 0 0 1-.389.275c-.858.338-1.765.269-2.663.171-.728-.079-1.708-.281-2.72-.604.428-.242.827-.492 1.171-.662l3.14-1.562c.412.156.896.146 1.37-.041.003.027.012.056.015.083.111.693.128 1.47.093 1.861zm273.358-36.518a3.046 3.046 0 0 0-.342-.944c-.047-.082-.098-.151-.146-.225-1.016-2.164-2.545-4.044-4.537-5.161-6.951-3.899-12.637 6.562-14.646 11.434-.504 1.226-1.104 4.785 1.303 4.217.936 2.358 3.242 4.08 6.064 5.275 6.385 2.703 12.232-.889 13.148-7.673.297-2.199-.01-4.663-.844-6.923zm-4.127 9.243c.145-.264.219-.376.24-.41a.17.17 0 0 0 .012.047c-.013-.001-.072.036-.252.363zm.258-.894a2.846 2.846 0 0 0-.018.479 1.066 1.066 0 0 1-.389.274c-.857.339-1.766.27-2.664.172-.727-.08-1.707-.281-2.719-.605.428-.242.828-.491 1.17-.662l3.141-1.562c.412.156.896.146 1.369-.042.004.027.012.056.016.083.112.695.129 1.471.094 1.863zm36.533-9.437a3.05 3.05 0 0 0-.342-.943c-.047-.082-.096-.15-.146-.225-1.016-2.163-2.543-4.043-4.537-5.161-6.953-3.899-12.637 6.562-14.646 11.434-.504 1.226-1.104 4.786 1.305 4.217.936 2.358 3.242 4.08 6.062 5.275 6.385 2.703 12.232-.889 13.148-7.673.297-2.199-.01-4.664-.844-6.924zm-4.125 9.243c.143-.263.217-.375.238-.409.004.028.01.042.012.047-.015-.001-.074.036-.25.362zm.256-.893a3.104 3.104 0 0 0-.018.479 1.054 1.054 0 0 1-.389.274c-.859.339-1.766.27-2.662.171-.729-.079-1.709-.281-2.721-.604.428-.242.828-.492 1.17-.662 1.047-.521 2.096-1.041 3.141-1.562.412.156.896.146 1.371-.042l.014.084c.112.694.129 1.47.094 1.862zm36.264-8.35a3.102 3.102 0 0 0-.342-.943c-.049-.082-.098-.15-.146-.225-1.016-2.163-2.545-4.043-4.539-5.161-6.951-3.899-12.635 6.562-14.645 11.434-.506 1.226-1.105 4.786 1.303 4.217.936 2.358 3.242 4.08 6.064 5.275 6.385 2.703 12.232-.889 13.146-7.673.3-2.199-.007-4.664-.841-6.924zm-4.127 9.243a5.04 5.04 0 0 1 .24-.409.238.238 0 0 0 .01.047c-.014-.001-.072.036-.25.362zm.256-.893a2.74 2.74 0 0 0-.016.479 1.074 1.074 0 0 1-.389.274c-.859.339-1.766.27-2.664.171-.727-.079-1.707-.281-2.721-.604.428-.242.828-.492 1.172-.662l3.139-1.562c.412.156.898.146 1.371-.042.004.027.012.056.016.084.111.694.127 1.47.092 1.862zm-42.967 23.105a3 3 0 0 0-.342-.943c-.047-.081-.096-.15-.145-.224-1.016-2.164-2.545-4.044-4.539-5.161-6.953-3.899-12.637 6.562-14.645 11.433-.506 1.226-1.105 4.786 1.303 4.217.936 2.358 3.242 4.081 6.062 5.276 6.385 2.703 12.232-.89 13.148-7.674.299-2.199-.008-4.663-.842-6.924zm-4.125 9.244c.143-.264.217-.375.24-.41a.202.202 0 0 0 .01.047c-.014-.001-.074.037-.25.363zm.256-.894a3.104 3.104 0 0 0-.018.479 1.02 1.02 0 0 1-.389.274c-.857.34-1.764.27-2.662.172-.727-.079-1.709-.281-2.719-.604.426-.242.826-.492 1.17-.662l3.139-1.562c.414.156.896.148 1.371-.041.004.027.01.055.016.083.112.693.127 1.47.092 1.861zm38.559-9.436a3.05 3.05 0 0 0-.342-.943c-.047-.082-.096-.151-.146-.225-1.016-2.164-2.545-4.044-4.537-5.161-6.953-3.899-12.635 6.562-14.645 11.433-.508 1.227-1.105 4.785 1.303 4.217.936 2.359 3.24 4.08 6.062 5.275 6.385 2.703 12.232-.889 13.148-7.673.297-2.198-.009-4.663-.843-6.923zm-4.127 9.244c.145-.264.219-.377.242-.41a.15.15 0 0 0 .01.047c-.016-.002-.073.035-.252.363zm.257-.895a2.626 2.626 0 0 0-.018.479 1.056 1.056 0 0 1-.389.273c-.857.34-1.766.27-2.664.172-.727-.08-1.707-.281-2.719-.605.428-.242.826-.491 1.17-.662l3.141-1.561c.412.155.896.146 1.369-.043.006.028.012.057.016.084.112.695.13 1.471.094 1.863z" fill="#AF543F"/><path fill="#2F61DD" d="M813.561 403.814c-4.049-5.375-10.621-9.255-16.236-12.825-2.689-1.708-5.4-3.38-8.059-5.134-.281-.186-.551-.389-.83-.578 8.818-11.946 15.129-27.939 12.953-42.702-.908-6.158-3.205-12.643-7.211-17.578a52.627 52.627 0 0 0-.818-5.482c-2.232-10.795-10.217-15.391-19.471-16.997.285-2.305.564-4.607.809-6.912.973-9.194.775-18.476.244-27.697-.969-16.801-3.967-33.438-12.52-48.112-3.854-6.614-9.982-12.172-16.713-15.746-9.354-4.966-19.332-4.874-29.209-1.811-3.252 1.01-6.643 3.819-9.521 7.461-1.936-2.182-3.773-4.46-5.648-6.683.908-3.411 1.369-6.928 1.338-10.373-.273-28.656-16.328-60.713-44.902-70.425-14.455-4.913-29.107-3.312-42.346 4.324-7.207 4.156-13.32 9.8-18.502 16.29-5.68-7.453-12.158-14.31-19.607-20.334-8.645-6.992-18.182-11.489-29.184-13.378-12.381-2.124-24.889 2.084-35.641 7.898-14.161 7.656-26.139 19.624-35.078 33.365.015-.076.034-.155.048-.231 3.807-21.125-2.623-48.976-26.097-54.932-12.494-3.171-22.269 7.268-28.136 16.793-1.68 2.726-2.857 5.65-3.649 8.679a96.662 96.662 0 0 0-14.112-4.438c-7.109-1.64-13.893-1.476-21.065-.257-9.507 1.616-17.131 8.279-23.034 15.458-3.32 4.036-6.143 9.175-8.02 14.701-6.146-5.305-13.934-7.721-23.404-3.913-19.209 7.725-31.799 27.106-41.101 44.669-8.251 15.579-15.446 33.813-16.808 51.564a217.33 217.33 0 0 0-.33 5.287c-3.744 2.011-7.193 5.412-9.482 8.079-28.568 33.29-23.105 81.229-11.126 120.277-7.157 2.128-13.218 9.504-16.103 15.648l-.127.276-.121.162c-.51.543-2.129 2.364-2.881 3.061-6.339 5.864-10.648 15.396-9.988 24.104.324 4.267 2.913 9.091 6.871 10.512.441 2.112 1.051 4.189 1.892 6.207 4.418 10.6 13.699 17.094 22.825 23.436 3.967 2.757 10.271.416 13.78-1.748 3.552-2.19 6.478-5.085 8.897-8.379 2.34 1.713 4.691 3.402 6.978 5.143 3.45 2.629 9.497.289 12.546-1.591 5.322-3.281 8.521-8.103 11.657-13.336 9.918-16.545 10.819-37.06 2.337-54.28-1.299-2.635-2.725-5.185-4.229-7.682.455-.274.898-.568 1.346-.855 4.467 1.174 9.053 1.664 13.766.885 11.048-1.826 18.779-13.621 21.835-23.483 4.692-15.151-.783-30.65-4.019-45.523-.109-.603-.217-1.204-.316-1.808-.326-1.983-.475-3.944-.564-5.952-.101-2.276-.127-4.554-.132-6.831-.001-.387.024-1.398.04-2.1.042-.756.089-1.513.139-2.268.296-4.432.901-8.85 1.715-13.215.256-1.008.54-2.01.83-3.009a63.1 63.1 0 0 1 1.068-3.318c.311-.673 1.342-3.123 1.802-4.038.394-.784.817-1.551 1.247-2.316a75.911 75.911 0 0 1 3.107-4.268c.226-.291.592-.735.932-1.142.321-.336.644-.672.967-1.006 1.424-1.468 2.937-2.847 4.465-4.204.41-.365.832-.721 1.254-1.073.51-.403 1.487-1.179 1.89-1.471 5.624-4.088 11.101-8.05 16.422-12.554 1.501-1.271 2.867-2.814 4.065-4.534a111.97 111.97 0 0 1 15.753-5.318c2.155-.555 4.338-.994 6.53-1.377-.271.064 2.315-.313 2.816-.362.172-.017.346-.021.52-.035-1.588 7.021-1.78 14.321 1.344 20.821 6.164 12.824 19.146 18.223 32.012 22.238 6.375 1.991 12.855 3.638 19.302 5.381 2.877.777 5.733 1.622 8.6 2.434 2.528.718 4.98 1.209 7.527 1.731.583.119 1.163.251 1.743.381 1.592.469 3.154 1.034 4.65 1.749l-.139.938c-.728 4.738-1.305 9.217-1.391 14.046-.101 5.734 1.65 11.199 4.895 15.897 3.955 5.727 11.229 7.99 17.6 9.483 13.738 3.221 26.509 2.318 37.275-7.841 11.322-10.688 15.963-25.791 14.977-40.694 14.34 2.544 29.518 1.724 41.758-6.913 11.812-8.335 18.863-20.807 21.678-34.83.732-3.645.916-7.213.664-10.709.338-.196.668-.403 1.006-.597a98.874 98.874 0 0 1 3.527-1.895l.252-.131c2.178-.931 4.428-1.664 6.721-2.247.27-.068.686-.151 1.076-.226.303-.016.605-.031.908-.044 1.65-.064 3.297.112 4.922.373l.057.01c.545.186 1.084.384 1.619.59 1.926.737 3.752 1.719 5.539 2.735 8.486 4.823 16.023 11.399 23.848 17.187.414.307.709.519.92.667.082.071.166.147.26.23.992.881 1.914 1.839 2.838 2.789 1.854 1.904 3.559 3.956 5.268 5.987 4.33 5.143 8.76 9.862 14.025 14.073a50.483 50.483 0 0 0 6.193 4.224c4.09 5.335 7.549 10.919 9.834 15.859a79.884 79.884 0 0 1 1.713 4.036 22.93 22.93 0 0 0-.004 3c.1 1.436.168 2.863.207 4.302.01.416.021.729.031.966-.006.121-.014.25-.02.394-.146 2.969-.512 5.925-.92 8.867-.414 3.002-.988 5.982-1.588 8.952l-.145.721-.062.271c-.34 1.475-.705 2.943-1.068 4.413-3.111 12.604-6.926 25.096-9.078 37.915-1.891 11.253-1.92 26.328 10.109 31.768 4.066 1.839 8.9 2.505 13.32 3.009.328.038.654.07.982.105a479 479 0 0 1 .307 2.622c.48 4.244.84 8.501 1.42 12.733.742 5.398 1.666 9.76 4.428 14.416.703 1.187 1.959 2.22 2.787 3.354a26.59 26.59 0 0 1 1.189 1.822l.031.062c3.725 7.565 6.477 14.606 13.203 20.016 6.234 5.014 14.674 5.346 22.59 4.489.193.362.348.66.412.8 1.342 2.994 2.578 6.028 4.018 8.979 2.365 4.852 6.311 8.104 12.049 6.14 11.533-3.95 23.219-9.27 30.443-19.57 7.484-10.672 11.454-25.714 2.994-36.943zm-509.477-72.682c.616-.491.459-.355 0 0zm-2.275 1.586l-.152.086c.363-.56.357-.466.152-.086zm-5.576-.023c-.799-3.885-.244-1.305 0 0zm148.66-212.064l-.003-.127c.242-.597.388-.824.003.127zm.094-1.025c.202-1.204.597-2.5 0 0zm33.314 156.045c-.506-1.952-.131-1.624.049-.47-.018.157-.028.314-.049.47zm41.328 13.08l.006.092c-.11.243-.141.272-.006-.092zm-11.758-14.787a3.282 3.282 0 0 0-.023.131.03.03 0 0 1-.007-.005l.03-.126zm-.747-.44a.143.143 0 0 0 .004.022c-.536-.444-.817-.75-.004-.022zm.453 2.087c-.416 2.292-.268 1.185-.022-.137l.024.085c0 .019 0 .033-.002.052zm.06-1.833c-.002-.632.026-.94 0 0zm.123.666l.034-.152.014.023a27.41 27.41 0 0 1-.028.164c-.007-.012-.014-.022-.02-.035zm.039.069l.025-.173c.531.868.303.737-.025.173zm5.678 1.967c-.199-.038-.367-.068-.523-.097-.181-.077-.49-.191-.991-.357-1.341-.446-2.604-1.073-3.838-1.757a3.624 3.624 0 0 1-.267-.167c.013-.076.021-.153.034-.229.591-2.48 1.094-4.809 1.499-7.112.419 2.219 1.273 4.285 2.74 6.021a49.062 49.062 0 0 1 3.061 4.046c-.57-.12-1.143-.241-1.715-.348zm6.199 13.035l.006.087c-.211 1.476-.848 3.393-.006-.087zm.092-.979l-.055.13v-.129l.059-.149-.004.148zm8.029-11.05c1.652-.867.974-.414 0 0zm29.053-52.933l-.494.429c-1.744 1.274-3.576 2.439-5.434 3.542-.164.097-.332.184-.498.277a106.47 106.47 0 0 0 3.008-4.474c1.297.051 2.562.004 3.803-.115-.13.113-.255.229-.385.341zm10.576-53.059c-.031-.233-.068-.465-.104-.698.115.125.232.249.346.375-.08.107-.162.214-.242.323zm1.326 7.368l-.029-.242a34.109 34.109 0 0 1 1.68-4.343c.035.041.068.083.104.124a38.214 38.214 0 0 0-1.755 4.461zm65.461 33.064c1.08.24 2.58.736 0 0zm146.414 190.703c.191.009.322.021.404.037-.135-.012-.265-.03-.404-.037zm14.561 13.578l-.004.002c.059-.058.113-.122.174-.18-.053.057-.112.117-.17.178z"/><path d="M274.613 453.625c21.212 1.293 38.916-10.779 44.727-31.415 5.355-19.016-.863-40.275-14.538-54.271-5.494-5.624-14.536 8.623-9.894 13.356 10.245 10.447 16.263 24.995 13.735 39.68-.47 2.73-1.255 4.506-2.752 7.214-.532.962-2.61 3.523-4.523 4.951-6.325 4.718-14.314 5.705-21.984 5.329-6.377-.312-12.134 14.707-4.771 15.156z"/><path d="M306.165 376.087c15.73 2.975 33.81 2.278 41.36-14.337 6.128-13.486 2.498-28.959-.929-42.659-3.663-14.643-7.943-26.851-5.442-42.06 3.671-22.327 19.584-40.97 38.724-52.039 6.84-3.956 14.228-6.567 21.853-8.539 6.01-1.554 10.522-16.998 1.965-15.11-23.326 5.146-44.003 20.362-57.799 39.59-12.246 17.068-20.478 40.319-16.992 61.491 2.263 13.744 7.454 26.833 9.603 40.6.483 3.1.757 6.229.771 9.366.01 2.247-.326 4.038-1.158 6.285.737-1.99-.043-.109-.244.265.999-1.86.046-.154-.236.22.819-1.087-1.142.917-1 .82-2.252 1.541-5.265 2.355-8.338 2.709-5.848.674-11.84-.041-17.615-.972-5.901-.95-11.567 13.038-4.523 14.37z"/><path d="M406.529 203.435c-8.331 9.18-14.394 19.825-14.367 32.5.021 9.835 5.875 18.632 13.367 24.512 16.805 13.189 42.301 14.815 60.553 3.731 3.281-1.993 5.506-6.422 5.216-10.238-.281-3.704-3.187-4.771-6.234-3.176-14.925 7.812-33.566 6.373-47.886-2.111-6.081-3.603-11.089-9.027-13.106-15.878-2.006-6.813 1.85-13.482 6.256-18.412 2.421-2.709 4.693-6.688 3.386-10.464-1.176-3.392-5.18-2.674-7.185-.464z"/><path d="M459.947 266.656c.043 15.856 3.742 32.223 14.217 44.554 8.187 9.638 19.932 15.222 32.316 16.955 23.34 3.266 50.454-9.11 57.209-33.008 3.586-12.688-.178-25.148-7.507-35.719-4.226-6.095-13.534 7.733-9.785 13.209 3.303 4.824 6.017 10.891 6.599 15.681.385 3.168.375 2.73-.191 6.073-.339 1.998.446-1.694-.065.251-.148.564-.335 1.119-.521 1.672-.163.486-.978 2.32.006.058a27.651 27.651 0 0 1-1.035 2.075c-.97 1.8 1.104-1.666-.011.054-.317.491-.664.962-1.01 1.434-.349.475-.724.929-1.098 1.383 1.372-1.665.087-.112-.195.187-2.437 2.582-2.951 2.842-5.097 4.274-4.622 3.086-8.295 4.478-14.012 5.892-10.512 2.6-22.469 1.533-32.584-3.212-11.905-5.584-19.678-16.258-23.401-28.656-1.952-6.502-2.521-13.336-2.583-20.096-.032-3.533-3.34-4.839-6.126-3.122-3.394 2.093-5.137 6.204-5.126 10.061z"/><path d="M554.672 276.303c15.485 1.315 29.542-2.936 39.252-15.509 7.817-10.122 10.763-22.946 14.833-34.809a106.18 106.18 0 0 1 1.402-3.829c.816-2.115-.725 1.68.158-.377.256-.596.53-1.184.807-1.771a43.678 43.678 0 0 1 1.775-3.347c-1.19 2.05 1.093-1.444 1.595-2.062-1.339 1.65 1.034-.948 1.531-1.376-1.237 1.066 1.412-.875 1.964-1.181.866-.48 4.431-1.521 6.65-1.695 18.428-1.44 35.771 9.55 46.571 23.624 17.924 23.357 21.379 53.228 25.784 81.319.531 3.388 3.051 5.14 6.234 3.176 3.413-2.105 5.291-6.331 5.217-10.238-.373-19.507-4.976-39.873-11.638-58.137-6.906-18.935-18.064-37.268-35.854-47.656-12.667-7.396-31.71-11.75-45.074-3.766-11.041 6.596-15.753 19.851-19.387 31.455-1.414 4.517-2.765 9.052-4.426 13.486-.844 2.252.196-.32-.763 1.874a59.259 59.259 0 0 1-1.499 3.136c-.226.442-2 3.461-.905 1.714-.603.962-1.271 1.88-1.957 2.784-1.538 2.023-4.66 4.744-8.641 6.325-6.035 2.396-12.581 2.525-18.971 2.056-6.211-.458-11.882 14.191-4.658 14.804z"/><ellipse fill="#FFF" cx="639.565" cy="444.887" rx="73.046" ry="57.613"/><path d="M706.442 313.67c-17.178 5.066-28.885 21.429-28.41 39.275.492 18.559 16.783 29.821 33.558 32.659-1.019-2.796-2.036-5.593-3.054-8.389-4.42 16.895-3.244 35.285 6.931 49.946 9.931 14.311 27.42 17.722 43.342 12.708 4.061-1.278 6.762-5.993 7.278-9.992.414-3.202-1.127-7.516-5.169-6.226-13.031 4.158-25.833 1.494-34.508-9.443-7.904-9.966-9.773-24.39-6.649-36.477.814-3.15 1.072-7.71-3.054-8.389-11.36-1.87-24.268-8.626-26.457-21.1-.45-2.565-.361-4.438.076-6.994.165-.968 1.276-3.463 1.724-4.178 3.184-5.087 8.587-8.195 13.985-10.692 4.117-1.903 7.492-14.798.407-12.708z"/><ellipse fill="#FFF" cx="395.785" cy="449.172" rx="71.235" ry="56.186"/><path d="M636.939 431.077c-.254-.329-.518-.65-.789-.968-3.131-4.734-8.297-8.005-14.252-8.562-3.602-.776-7.338-.698-10.852.502-2.865.979-5.695 2.794-7.486 5.264-8.002 5.815-9.492 17.054-3.227 25.453 7.84 10.515 22.447 11.109 32.656 3.927 8.814-6.202 10.441-17.154 3.95-25.616zm-35.619 5.274a19.1 19.1 0 0 0-.383 2.231c.016-.8.155-1.537.383-2.231z"/><circle fill="#FFF" cx="611.367" cy="436.603" r="7.656"/><path d="M387.59 458.289c10.532 7.41 25.602 6.797 33.691-4.05 6.463-8.666 4.926-20.26-3.33-26.26-1.847-2.548-4.768-4.42-7.724-5.43-3.626-1.239-7.479-1.318-11.194-.519-6.144.576-11.473 3.949-14.703 8.834a25.51 25.51 0 0 0-.814.998c-6.696 8.731-5.017 20.031 4.074 26.427zm33.068-18.683a19.862 19.862 0 0 0-.396-2.302c.236.717.379 1.477.396 2.302z"/><circle fill="#FFF" cx="409.898" cy="437.563" r="7.898"/><path fill="#61E9FF" d="M548.949 428.76c-7.482-8.623-17.602-10.679-28.094-9.591-12.709-3.72-26.664-3.806-38.994-.472-4.015 1.087-7.428 10.319-3.303 11.496a35.943 35.943 0 0 0-1.289 2.277c-2.432 4.701 1.967 6.704 4.623 2.354 1.421-2.326 3.074-4.024 4.893-5.223.329-.014.656-.021.982-.028-.308.185-.617.366-.924.562-2.124 1.347-3.559 3.859-3.877 6.329-.248 1.923.811 5.49 3.538 4.262 3.444-1.552 7.364-3.302 11.53-4.92 9.793-2.233 19.898.41 28.697 6.308a959.02 959.02 0 0 0 2.102 1.484c2.053 1.439 4.52-.655 5.871-3.438a67.516 67.516 0 0 1 5.57 4.358c3.723 3.246 8.773-3.826 7.836-7.959 1.716-2.481 2.452-5.939.839-7.799z"/><path d="M478.981 451.842c17.992-18.591 47.767-17.471 61.808 4.98 2.035 3.256 6.811-3.965 5.098-6.883-15.184-25.879-50.115-24.058-68.67-3.175-1.122 1.263-2.181 3.104-1.573 4.861.556 1.608 2.382 1.203 3.337.217z"/><path d="M549.295 421.149c-22.965-16.591-61.845-19.722-82.404 2.812-2.29 2.51-2.383 9.588 2.027 5.833 21.657-18.44 53.722-17.23 76.617-1.266 2.727 1.902 6.61-5.321 3.76-7.379z"/><path fill="#61E9FF" d="M590.762 383.406a70.63 70.63 0 0 0-3.16 1.153c-.576-2.525-2.871-3.747-5.609-.156a583.73 583.73 0 0 0-3.254 4.303c-20.467 11.395-33.486 32.298-29.512 57.192a69.578 69.578 0 0 0 1.414 6.7c.998 6.741 3.539 13.226 6.912 19.249a55.878 55.878 0 0 0 5.238 8.19 107.624 107.624 0 0 0 3.688 4.841c.564.699 1.145 1.132 1.729 1.355 13.221 13.404 32.422 22.358 49.25 26.775 23.266 6.105 50.25 5.431 69.75-10.25 15.145-12.178 25.486-32.983 28.801-51.967 11.335-64.946-79.519-82.769-125.247-67.385zm-19.203 58.275c-1.744-11.962 3.119-19.18 10.945-28.778 13.361-16.387 34.357-18.094 51.963-19.03 11.105 1.561 21.881 9.071 31.33 15.102 4.904 3.13 10.84 10.94 14.916 15.647 19.674 24.155 10.549 42.404.193 52.864-2.779 1.913-10.77 10.536-13.701 11.937-14.717 7.029-27.127 9.855-43.135 8.295-17.158-1.672-35.229-17.2-47.742-28.962-.996-9.104-3.445-18.004-4.769-27.075zm104.349 52.882c.264.899.676 1.671 1.219 2.23-7.736 4.044-16.594 5.84-25.641 6.108 8.502-1.662 16.895-4.395 24.422-8.338zm20.203-16.097a78.21 78.21 0 0 0 1.891-3.83 45.255 45.255 0 0 0 5.256-12.838 43.264 43.264 0 0 0 1.174-9.133c.844-6.135.922-12.328.17-18.338a41.666 41.666 0 0 1 1.867 11.132c.342 10.895-3.967 23.058-10.358 33.007z"/><path d="M707.873 408.395c-25.562-39.104-72.188-53.141-114.42-36.248-35.117 14.048-64.859 51.393-52.252 92.348 16.502 53.61 78.674 72.207 126.061 56.056 24.723-8.427 43.67-28.882 50.752-55.235 6.641-24.712 1.225-51.911-19.26-67.11-1.75-1.298-3.783-2.113-5.752-2.971-4.014-1.747-8.58 6.596-5.191 9.394 10.266 8.481 18.338 18.056 21.852 31.576 3.199 12.315 1.422 25.522-3.168 37.232-10.361 26.438-37.535 37.628-62.842 39.415-26.715 1.887-54.533-5.647-73.697-25.746-14.234-14.927-25.373-35.337-21.27-57.217 5.545-29.575 36.764-46.565 62.383-51.419 35.096-6.647 69.312 8.409 90.398 38.067 2.793 3.929 8.648-4.712 6.406-8.142z"/><path d="M681.676 419.64c-15.441-20.562-42.094-29.396-67.326-24.479.727-1.339.789-3.168-.771-2.737-19.107 5.253-36.539 16.45-42.535 35.587-5.016 16.013.307 33.311 10.203 46.48 11.273 14.997 29.328 24.394 48.381 25.683 19.283 1.305 41.312-5.434 54.066-19.885 15.55-17.619 11.118-43.153-2.018-60.649zm-28.084 73.595c-21.402 5.423-43.527 1.218-60.277-12.988-13.047-11.063-21.879-27.842-20.473-44.847 1.59-19.22 17.611-31.148 35.047-37.322-.52 1.292-.412 2.729 1.059 2.382 20.551-4.851 41.43-1.441 58.199 11.304 13.785 10.48 23.637 27.544 22.922 44.749-.833 20.071-17.821 31.994-36.477 36.722z"/><path fill="#61E9FF" d="M299.82 456.378c3.418 19.584 14.089 41.048 29.712 53.611 20.115 16.178 47.955 16.874 71.956 10.574 17.362-4.557 37.171-13.793 50.81-27.622.602-.23 1.201-.677 1.783-1.398a109.395 109.395 0 0 0 3.804-4.995 57.427 57.427 0 0 0 5.404-8.448c3.479-6.214 6.101-12.903 7.131-19.859a71.222 71.222 0 0 0 1.459-6.911c4.101-25.683-9.332-47.247-30.446-59.004a644.336 644.336 0 0 0-3.356-4.438c-2.825-3.704-5.192-2.442-5.786.162a74.347 74.347 0 0 0-3.26-1.19c-47.178-15.872-140.907 2.515-129.211 69.518zm144.099 18.53c-12.91 12.134-31.552 28.154-49.252 29.88-16.515 1.609-29.317-1.307-44.5-8.559-3.025-1.444-11.269-10.341-14.136-12.314-10.682-10.791-20.096-29.617.201-54.536 4.203-4.856 10.326-12.915 15.387-16.144 9.746-6.22 20.863-13.969 32.322-15.579 18.162.965 39.822 2.728 53.605 19.633 8.074 9.902 13.094 17.349 11.293 29.688-1.364 9.359-3.892 18.54-4.92 27.931zm-77.536 35.229c-9.334-.277-18.471-2.13-26.452-6.301.561-.578.985-1.374 1.257-2.302 7.766 4.067 16.425 6.886 25.195 8.603zm-56.724-59.261a43.137 43.137 0 0 1 1.928-11.484c-.775 6.201-.693 12.589.176 18.919a44.43 44.43 0 0 0 1.211 9.42 46.604 46.604 0 0 0 5.424 13.245 77.023 77.023 0 0 0 1.949 3.952c-6.595-10.266-11.04-22.811-10.688-34.052z"/><path d="M308.211 412.639c26.372-40.344 74.473-54.823 118.041-37.396 36.229 14.492 66.912 53.018 53.906 95.27-17.025 55.308-81.164 74.492-130.051 57.829-25.504-8.691-45.053-29.795-52.358-56.983-6.851-25.493-1.265-53.554 19.869-69.232 1.806-1.34 3.903-2.181 5.936-3.065 4.14-1.803 8.849 6.805 5.354 9.691-10.589 8.749-18.918 18.626-22.543 32.575-3.299 12.705-1.467 26.33 3.27 38.411 10.688 27.274 38.721 38.817 64.828 40.661 27.561 1.947 56.26-5.826 76.029-26.56 14.686-15.4 26.179-36.456 21.943-59.028-5.721-30.511-37.927-48.039-64.355-53.046-36.207-6.858-71.508 8.675-93.258 39.271-2.884 4.056-8.924-4.86-6.611-8.398z"/><path d="M333.157 486.808c13.156 14.908 35.883 21.859 55.776 20.514 19.655-1.33 38.284-11.023 49.912-26.495 10.21-13.588 15.702-31.433 10.526-47.952-6.186-19.742-24.168-31.293-43.881-36.714-1.611-.442-1.545 1.442-.797 2.825-26.029-5.073-53.525 4.041-69.455 25.254-13.554 18.049-18.124 44.391-2.081 62.568zm-6.578-24.53c-.735-17.748 9.428-35.353 23.648-46.164 17.299-13.149 38.84-16.667 60.042-11.661 1.517.357 1.628-1.125 1.091-2.458 17.986 6.369 34.516 18.676 36.156 38.504 1.452 17.543-7.662 34.853-21.12 46.266-17.281 14.655-40.105 18.994-62.187 13.398-19.244-4.876-36.771-17.177-37.63-37.885z"/><path fill="#2F61DD" d="M253.623 381.153c.839-.265.975-.329 1.661-.26-.462-.046.058.037.242.148-.509-.308.212.545-.043-.011.062.135.27.963.136.279.078.398.107.806.135 1.209.062.878.048 1.763.049 2.643 0 1.595 1.513 2.173 2.757 1.405 1.53-.944 2.308-2.792 2.307-4.528 0-2.124.065-4.347-.977-6.262-1.09-2.004-3.574-1.74-5.417-1.156-1.636.517-2.723 2.412-2.932 4.024-.168 1.294.453 3.024 2.082 2.509zm7.681 58.201c-7.728-14.831 6.051-33.435 20.596-37.394l-.734-9.676c-10.156 8.529-21.171 20.812-23.638 34.25-1.199 6.533.451 12.146 5.641 16.343 4.14 3.349 10.289 3.657 14.92 1.341 10.47-5.238 14.274-19.467 16.112-30.005 1.538-8.819 3.433-21.961-1.724-30-2.458-3.832-6.327 4.352-5.83 6.613 1.399 6.362.396 14.758-.477 21.394-.917 6.966-2.714 16.395-7.344 20.629-1.78 1.628-5.101 1.199-7.514.197-4.077-1.693-6.137-5.274-4.953-9.527 2.484-8.929 10.845-17.058 17.707-22.895 2.239-1.905 5.01-11.289-.734-9.676-19.872 5.578-40.882 34.926-27.594 54.72 2.131 3.176 6.9-3.753 5.566-6.314z"/><path fill="#2DB5F9" d="M813.496 391.721c-2.926-5.092-7.996-10.032-13.775-12.115a33.973 33.973 0 0 0 6.363-7.044c6.564-9.754 7.645-21.545 4.029-32.599-3.713-11.352-12.098-21.533-22.908-26.639-4.898-2.313-10.359-3.575-15.73-4.092l-.68-.061c-4.26-1.438-8.693-2.735-12.672-4.748 14.121-21.994 26.816-49.318 13.154-74.111-6.65-12.067-19.035-18.207-32.207-20.173-6.504-.972-13.115-.771-19.605.183-5.367.788-10.627 2.929-15.752 4.915.477-.979.791-1.944.859-2.742.574-6.614-.998-13.397-2.09-19.908-.977-5.825-2.287-11.637-4.445-17.146-4.629-11.818-13.861-19.277-24.811-25.064-22.182-11.722-51.672-9.617-73.049 3.659.393-2.082.32-4.069-.412-5.702-6.043-13.466-15.207-24.896-28.436-31.831-11.59-6.074-25.348-7.629-38.199-6.118-22.015 2.588-43.202 13.14-59.093 28.783-5.246-9.197-12.43-17.217-22.517-21.293-11.275-4.557-23.91-3.309-35.116.766-19.916 7.241-37.33 22.251-48.811 40.375-9.291-6.173-21.934-8.467-32.498-8.29-14.806.247-29.157 5.622-40.123 15.604-13.198 12.013-20.638 29.412-23.426 46.728-1.895 11.764-1.568 23.82-1.379 35.799-.162.035-.319.06-.489.109-27.245 8.021-32.778 39.71-29.425 64.132 2.003 14.577 6.05 30.187 12.424 44.334-4.936.051-9.879.442-14.87 1.371-14.925 2.777-27.026 13.695-30.816 28.514-8.856 34.639 26.179 63.686 56.583 71.137 7.657 1.877 16.548-17.501 8.477-20.677-11.463-4.512-23.072-11.449-32.347-19.536-5.362-4.676-10.073-10.088-13.709-16.208-2.99-5.034-3.751-10.619-3.183-14.907l.064-.369c.074-.258.158-.511.24-.766-.452 1.608.717-.677.635-.908.211-.199.432-.39.65-.58.103-.071.221-.153.37-.26.859-.588 1.782-1.077 2.708-1.551-.796.438 1.889-.706 2.192-.812 2.622-.917 5.366-1.469 8.104-1.91 9.052-1.463 20.348-.504 30.122-.202 7.932.246 14.15-13.05 9.812-19.254-2.231-3.19-3.867-6.199-5.132-8.719a176.453 176.453 0 0 1-5.962-13.219c-3.933-9.747-7.336-20.848-9.091-30.505a109.19 109.19 0 0 1-1.721-16.16c-.041-1.287-.025-2.576-.015-3.863-.017 2.016.118-1.684.146-2.047.094-1.203.25-2.4.418-3.594.047-.341.383-1.983.453-2.417.211-.777.439-1.55.686-2.316.088-.271.15-.475.205-.649l.135-.289c.164-.358.764-1.409 1.016-1.879.143-.198.287-.396.438-.592-.273.401 1.162-1.231 1.555-1.588.124-.113.203-.188.258-.245.115-.062.314-.183.632-.385.989.631 2.268.817 3.856.265 3-1.044 6.135-3.499 9.352-3.632 6.148-.253 11.043-7.519 11.453-13.214.996-13.897-.066-27.86 1.346-41.734.286-2.81.746-6.152 1.318-8.59.584-2.488 1.977-6.756 2.535-8.032 1.396-3.192 2.637-5.167 4.453-7.662.953-1.31 2.014-2.535 3.072-3.76.907-1.107.992-1.204.254-.289a37.476 37.476 0 0 1 1.672-1.615c2.725-2.552 7.184-4.816 11.762-6.321 5.157-1.695 10.419-2.279 15.824-2.245 5.406.034 10.93.799 16.084 2.433 5.471 1.733 9.902 4.82 14.873 7.514a6.111 6.111 0 0 0 1.822.643c2.104.743 4.2-.244 5.947-1.794 2.821-2.149 5.229-5.845 6.509-9.634l.003-.004c1.461-2.194 3.072-4.297 4.65-6.408 3.522-4.715 5.027-6.278 9.935-10.827 7.207-6.678 15.649-12.348 24.984-15.654 8.73-3.093 17.938-3.783 26.259-.396 8.504 3.462 14.537 10.41 18.836 18.528-1.354 3.365-1.9 7.19.359 10.012 2.658 3.321 6.72 1.215 9.384-1.288 3.611-1.442 7.382-5.894 9.378-10.606 4.793-4.655 10.335-8.825 16.621-12.54 9.381-5.545 21.315-9.91 32.406-11.16 24.064-2.711 45.812 7.959 55.85 30.607 1.697 3.829 4.383 4.582 7.162 3.535.586.212 1.408-.005 2.49-.91 20.875-17.487 53.625-19.349 76.428-4.731 8.781 5.628 15.928 13.67 19.521 23.501 1.711 4.679 2.59 9.598 3.434 14.49.969 5.624.875 12.702 3.598 17.775.586 1.093 1.271 1.705 2.002 1.955-.961 2.362-.822 4.866 2.064 4.447 4.504-.654 10.055-.513 14.514.276 5.299.938 10.945.585 16.324 1.196 10.732 1.218 20.465 4.928 27.441 13.387 6.314 7.657 7.803 16.202 6.584 24.807-2.424 1.022-4.604 5.262-4.879 7.085-.713 4.75-1.389 9.745-2.793 14.41-2.451 4.603-5.205 8.994-7.885 13.033-.535.46-1.1.901-1.697 1.322-3.244 2.288-8.287 9.904-4.441 13.776 10.641 10.715 27.623 10.024 37.744 21.331 5.303 5.924 8.24 14.073 8.5 21.943.232 7.033-3.75 12.277-9.451 15.912-4.309 2.746-9.764 16.561-1.033 15.657 11.871 2.856 18.646 17.341 21.199 28.075 1.359 5.713 1.471 12.295-.227 17.557-.545 1.69-1.166 2.737-2.664 4.171-1.725 1.65-4.65 2.562-7.289 3.011-4.484.762-9.406 12.893-2.975 13.304 20.33 1.3 32.537-18.646 33.451-36.881.468-9.294-1.508-18.28-6.153-26.357z"/><path d="M821.004 381.891c-4.98-4.675-11.23-6.564-17.709-6.854 8.217-15.119 10.568-33.548 7.121-50.243-1.977-9.574-6.955-18.59-15.135-24.148-6.457-4.388-14.342-5.077-21.924-3.925 12.467-21.309 14.221-48.799 2.17-70.751-6.135-11.173-16.018-20.149-28.311-23.934-12.211-3.761-24.697-1.89-36.309 2.57.012-.062.025-.126.035-.188 4.623-29.084-10.127-58.626-36.85-71.385-12.293-5.869-26.27-7.094-39.449-3.854-12.777 3.143-23.762 11.032-32.486 20.733-1.613-13.63-6.842-26.937-16.889-36.57-9.877-9.472-23.131-14.009-36.621-14.802-25.871-1.519-51.824 10.413-69.849 28.883-3.828-9.33-10.041-17.472-18.932-22.854-10.969-6.641-24.433-6.967-36.64-4.331-25.399 5.482-47.584 25.514-57.244 49.589-12.22-9.841-27.566-15.127-43.214-12.29-14.523 2.634-26.595 13.222-35.257 24.617-17.29 22.743-25.571 54.988-20.286 83.466-9.29-.265-18.424 2.438-25.385 9.188-9.138 8.86-12.611 22.049-13.184 34.395-.961 20.675 3.78 41.605 10.447 61.322-13.06 2.6-25.771 8.031-33.178 19.71-7.865 12.4-8.012 26.791-3.1 40.334 5.014 13.824 14.391 26.119 24.818 36.309 10.391 10.153 23.242 19.021 37.246 23.243 6.276 1.894 13.006-11.853 7.066-13.867-11.641-3.949-22.021-11.117-30.977-19.425-9.551-8.86-18.254-19.205-23.945-30.996-2.345-4.862-4.282-10.431-4.957-15.219-.442-3.149-.414-4.546-.188-6.726.054-.463.118-.925.193-1.387.025-.164.043-.289.057-.394l.051-.194c.169-.668.39-1.32.609-1.973l.029-.087.13-.274c.199-.417.411-.827.632-1.232l.039-.074c.057-.08.122-.175.203-.292.273-.389.557-.771.851-1.144l.181-.238c.08-.081.176-.178.302-.311 2.042-2.138 3.141-2.826 6.123-4.505 6.467-3.641 14.36-5.146 21.651-5.973a8.204 8.204 0 0 0 3.275-1.113c3.717-.18 8.707-7.958 7.299-12.044-6.924-20.104-12.615-41.517-13.061-62.877-.054-2.597 0-4.09.197-6.663.104-1.358.27-2.709.455-4.058.061-.441.532-2.982.477-2.861a48.53 48.53 0 0 1 .711-2.629c.109-.373.842-2.323.898-2.561.302-.663.627-1.312.973-1.952-.225.483 1.102-1.634 1.398-2.016l.051-.062c.266-.276.535-.549.814-.812 1.398-1.356.032-.227 1.662-1.322 2.064-1.388 3.091-1.717 5.67-2.435 5.748-1.598 12.117-.808 17.935-.036 5.417.719 10.543-9.572 7.475-13.86.335-1.437.366-2.933 0-4.373-6.149-24.221.3-53.24 14.454-72.782 6.572-9.074 15.734-16.212 27.152-18.508 13.895-2.793 27.172 4.357 38.219 11.913 1.744 1.193 3.629.636 5.238-.824.469.428 1.09.71 1.92.749 3.544.166 6.396-4.028 7.254-6.987 6.295-21.752 26.293-38.308 48.79-42.995 10.231-2.132 21.196-.901 30.331 4.266 8.174 4.623 13.332 12.38 16.681 20.885-.798 2.248-.985 4.785.429 6.551.62.774 1.348 1.109 2.108 1.162.042.153.089.308.129.462.956 3.589 5.069 2.24 6.964.45 2.742-2.591 4.006-6.336 3.301-9.998 15.65-16.606 39.042-26.136 61.785-24.944 11.273.591 22.695 4.426 31.234 11.989 10.268 9.093 14.746 22.068 16.295 35.364.254 2.185 1.48 3.608 3.133 3.822.166.584.428 1.134.82 1.623 2.266 2.831 6.01-.146 7.527-2.159 7.826-10.376 18.105-17.946 30.842-20.971 11.387-2.704 23.551-.543 33.992 4.416 22.895 10.873 35.135 35.258 32.439 60.043a7.664 7.664 0 0 0 .121 2.392c-3.621 4.385-4.16 14.072 2.855 10.723 11.303-5.396 24.539-8.146 36.83-4.613 10.74 3.087 19.121 10.573 24.873 19.966 12.115 19.79 9.115 45.957-5.373 63.047-1.766 2.083-3.211 6.182-2.115 9.045-.1 2.594 1.248 5.758 4.426 4.69 8.365-2.812 17.223-3.772 25.154.751 6.783 3.869 10.387 11.382 12.312 18.636 2.217 8.347 1.67 17.354-.061 25.726-1.402 6.784-4.447 13.352-8.586 18.168-.447.094-.898.185-1.34.286-5.277 1.204-9.186 14.255-2.273 13.49 1.59 1.282 4.094.614 5.771-.816 6.541-.559 13.383.355 18.518 4.658 5.789 4.851 7.688 12.064 7.912 19.163.461 14.494-7.172 31.039-21.262 37.062-3.684 1.574-6.164 5.195-6.676 9.165-.34 2.618 1.078 7.303 4.74 5.711 21.699-9.426 33.729-33.693 34.43-56.506.299-9.422-2.402-19.895-9.457-26.516z"/><path d="M748.039 465.911c12.68-7.511 31.596-14.759 44.615-3.787 10.574 8.912 12.846 25.068 12.697 38.043-.154 13.608-4.027 28.786-13.281 39.111-11.896 13.274-26.369 8.364-41.131 4.378-4.488-1.213-10.381 9.094-6.746 12.11 15.256 12.671 36.377 8.426 49.643-4.633 13.588-13.375 19.803-34.303 20.816-52.871.879-16.048-1.629-35.884-15.188-46.52-16.795-13.175-37.842.115-51.572 11.409-.808.664-1.654 3.828.147 2.76z"/><path d="M756.141 516.831c2.857-7.628 8.705-12.882 16.693-14.595 7.201-1.544 12.75 2.155 19.41 3.752 4.186 1.002 8.654-7.481 5.922-10.627-6.869-7.914-19.293-7.496-28.232-3.666-10.061 4.312-16.406 15.252-19.111 25.35-1.639 6.122 3.823 3.785 5.318-.214z"/><path d="M753.135 522.271c3.859-1.474 10.975-4.051 13.969.313 1.041 1.519.41 3.785.139 5.418-.525 3.168-1.961 6.099-2.508 9.301-.445 2.606 1.666 3.388 3.359 1.567 5.023-5.402 9.098-16.53 4.713-23.472-4.184-6.626-14.895-.688-19.447 1.999-1.288.758-2.784 5.853-.225 4.874z"/></svg>