<svg xmlns="http://www.w3.org/2000/svg" xmlns:xlink="http://www.w3.org/1999/xlink" width="1030" height="1030" viewBox="0 0 1030 1030"><defs><path id="a" d="M1020.378 515.001c0 279.115-226.266 505.377-505.379 505.377-279.111 0-505.377-226.264-505.377-505.377S235.888 9.622 514.999 9.622c279.113 0 505.379 226.266 505.379 505.379z"/></defs><use xlink:href="#a" overflow="visible" fill="#0C7FF2"/><clipPath id="b"><use xlink:href="#a" overflow="visible"/></clipPath><g clip-path="url(#b)"><circle fill="#22A1FF" cx="516.036" cy="517.213" r="505.377"/><path fill="#0C7FF2" d="M64.591 301.339c65.698-60.767 147.473-101.363 226.167-142.394 40.815-21.281 80.746-43.73 120.539-66.854 43.206-25.11 87.47-49.598 136.054-62.561l-2.864-37.722C469.489 62.96 382.009 118.799 296.63 176.392c-43.967 29.658-87.432 59.996-129.214 92.682-20.033 15.672-39.122 32.311-60.043 46.828-21.763 15.1-44.411 28.884-66.553 43.409-20.462 13.421-40.42 27.7-58.93 43.736-7.093 6.145-11.696 17.171-10.986 26.521.548 7.209 5.931 13.974 13.849 11.2 98.168-34.394 184.331-95.652 268.734-154.941 42.164-29.617 84.252-59.421 128.115-86.495 19.998-12.341 40.242-24.097 59.857-37.073 21.044-13.919 41.816-28.239 62.965-42.001 37.357-24.313 76.479-48.122 120.033-59.315-2.238-11.117-4.478-22.232-6.716-33.351-3.625 4.497-11.991 11.267-18.964 15.919-10.001 6.67-20.648 12.364-31.156 18.178-23.028 12.742-45.092 27.219-67.553 40.936-51.306 31.332-102.533 62.797-153.852 94.112-51.111 31.188-102.327 62.211-153.791 92.816-45.841 27.263-92.238 53.613-137.738 81.449-57.196 34.991-113.602 73.15-161.327 120.578-6.828 6.784-11.733 16.688-10.986 26.521.559 7.365 5.898 13.78 13.85 11.198 51.945-16.859 99.749-43.608 147.504-69.638 50.273-27.404 102.161-51.78 153.584-76.934 106.724-52.204 213.545-104.201 320.026-156.899 43.588-21.572 87.409-42.348 128.738-68.076 36.969-23.018 73.674-48.996 115.463-62.538-.954-12.575-1.908-25.146-2.864-37.721-32.515 34.457-76.607 55.146-117.22 78.288-50.043 28.516-97.458 62.321-145.694 93.778-48.672 31.741-97.557 62.7-143.462 98.404-36.259 28.201-71.636 58.477-113.409 78.263C166.968 440.29 75.416 461.753 37.56 541.29c-3.076 6.463-5.365 14.316-2.91 21.401 1.744 5.04 7.496 9.095 12.933 6.589 100.087-46.102 193.518-104.332 287.45-161.587 46.518-28.354 93.288-56.325 141.229-82.228 49.123-26.541 100.223-49.029 149.865-74.543 51.182-26.305 101.262-54.686 151.102-83.427-.984-12.997-1.971-25.993-2.959-38.989-89.506 66.279-184.819 124.035-280.237 181.279-95.315 57.186-189.7 115.122-280.916 178.699C148.345 533.63 70.699 560.08 20.878 624.456c-8.81 11.384-11.102 42.221 10.985 31.382 208.226-102.161 408.94-218.58 611.71-330.955 81.106-44.949 162.599-89.213 245.033-131.684l-2.959-38.989C684.77 269.933 489.944 395.937 300.087 528.914 223.16 582.793 147.083 637.886 71.74 693.957c-9.188 6.835-16.062 17.88-15.161 29.76.735 9.699 9.591 15.234 18.12 9.229 43.633-30.724 91.014-55.527 138.016-80.599 48.866-26.063 96.421-53.966 143.454-83.206 97.824-60.818 193.597-125.836 295.819-179.224 79.944-41.755 155.398-91.653 236.617-131.035l-7.131-35.752C726.442 362.758 545.962 469.948 368.333 577.764c-93.445 56.721-186.838 113.71-276.603 176.167-9.319 6.483-16.044 18.146-15.161 29.758.801 10.539 9.316 14.158 18.12 9.23 202.516-113.372 408.093-221.234 609.108-337.292 82.609-47.694 164.386-96.848 244.781-148.196-3.662-10.461-7.324-20.92-10.984-31.381-4.996 7.511-10.377 14.716-16.098 21.688-5.041 6.146-10.836 12.267-18.376 19.708-14.123 13.939-29.659 26.809-45.089 38.273-35.397 26.297-73.572 48.73-112.081 70.107-37.449 20.789-75.582 40.312-113.116 60.945-42.605 23.422-83.599 49.658-124.551 75.827-65.341 41.753-130.41 84.796-198.977 121.15-60.084 31.858-124.11 59.162-173.205 107.688-6.838 6.763-11.73 16.707-10.986 26.522.622 8.163 5.797 12.765 13.852 11.198 27.105-5.267 51.928-18.041 75.645-31.759 24.854-14.379 49.684-28.81 74.537-43.192a10595.979 10595.979 0 0 0 152.23-89.771c49.531-29.772 100.037-57.95 150.667-85.822 50.375-27.729 102.132-51.93 153.663-77.322 67.275-33.148 131.118-72.729 197.158-108.185l-10.984-31.383c-5.504 7.192-9.136 10.836-17.041 18.057-7.751 7.076-15.978 13.312-24.516 19.367-18.807 13.338-38.714 25.094-58.617 36.699-43.185 25.18-85.118 51.793-126.224 80.276-91.95 63.715-180.731 131.845-272.466 195.851-62.606 43.68-127.019 85.396-195.645 119.062l2.959 38.99c48.338-27.513 98.725-51.109 148.234-76.384 25.085-12.807 49.887-26.168 74.097-40.571 24.189-14.391 46.896-30.896 69.81-47.201 23.254-16.545 46.578-32.993 70.564-48.466 23.51-15.167 48.085-28.535 72.547-42.078 48.809-27.02 97.927-53.479 146.338-81.21 61.396-35.17 121.518-72.686 178.058-115.307l-10.984-31.382c-59.98 69.829-146.117 119.635-225.496 166.942-91.051 54.269-181.007 110.706-269.408 169.204-41.195 27.26-81.384 55.869-121.203 85.092-39.395 28.913-78.96 57.731-121.234 82.347-9.594 5.584-15.991 18.821-15.16 29.759.841 11.066 9.201 13.475 18.119 9.23 100.961-48.053 196.104-107.057 291.245-165.518 47.797-29.37 95.674-58.625 144.386-86.46 47.674-27.237 96.568-52.016 145.609-76.669 75.025-37.713 150.203-76.055 218.389-125.428l-7.131-35.751c-33.609 33.213-76.089 55.599-117.895 76.72a4039.337 4039.337 0 0 0-133.637 70.689c-99.297 54.921-199.127 109.008-295.387 169.179-39.695 24.813-79.178 50.248-116.168 78.982-32.521 25.263-64.553 53.299-102.398 70.431-8.954 4.054-15.02 11.32-17.994 20.765-1.854 5.884-3.031 24.237 8.273 22.726 45.448-6.074 87.678-22.926 128.725-42.8 43.947-21.275 85.809-46.649 127.57-71.857 92.4-55.778 188.994-103.604 284.819-153.169 30.956-16.012 61.8-31.989 92.062-49.282 29.731-16.989 59.46-33.979 89.188-50.968 9.618-5.496 15.986-18.892 15.161-29.759-.804-10.575-9.309-14.111-18.121-9.229-104.188 57.711-206.854 118.117-308.767 179.746-51.145 30.929-102.087 62.187-152.946 93.583-44.668 27.573-85.541 60.625-129.553 89.188-21.203 13.757-43.262 26.518-67.016 35.328l-1.309 40.958C503.589 874.062 701.894 821 881.024 728.062c47.312-24.547 93.093-52.107 136.094-83.643 9.217-6.758 16.058-17.938 15.16-29.76-.76-9.986-9.485-14.867-18.119-9.229-189.895 124.01-375.484 255.294-574.296 364.989a2771.097 2771.097 0 0 1-59.694 31.968l7.133 35.753c73.348-58.31 162.889-92.968 248.278-129.313 44.957-19.136 89.819-38.741 132.914-61.835 22.314-11.959 44.491-24.162 66.002-37.533 23.461-14.584 46.565-29.751 71.245-42.24l-14.291-26.021c-3.254 5.631 2.838-4.268-.768 1.271-1.092 1.673-2.266 3.292-3.438 4.908-1.197 1.657-2.473 3.257-3.742 4.856-.225.285-4.667 5.495-1.594 2.025-6.42 7.245-13.553 13.844-20.877 20.158-14.344 12.364-31.18 23.663-48.141 34.454-35.631 22.667-73.098 42.25-109.025 64.42-39.857 24.595-76.527 54.362-114.17 82.133-42.476 31.335-86.008 61.829-133.523 85.104-8.504 4.165-17.229 7.841-26.043 11.295.954 12.572 1.908 25.146 2.865 37.721 61.736-53.27 143.855-80.491 220.312-108.335 80.787-29.419 162.883-61.466 226.772-120.972 7.469-6.955 14.517-14.354 21.267-22.004 7.163-8.118 13.979-19.857 10.071-31.133-3.469-10.01-15.477-8.066-21.376-1.381-114.229 129.438-307.649 132.047-443.065 231.178a405.272 405.272 0 0 0-25.289 20.133c-7.098 6.125-11.693 17.185-10.986 26.522.529 6.965 5.992 14.28 13.852 11.197 97.135-38.068 176.129-109.005 260.492-168.247 66.981-47.033 147.925-76.376 205.264-136.568 10.397-10.916 19.23-22.635 26.766-35.684 7.101-12.287 4.061-35.306-14.291-26.021-23.682 11.983-45.959 26.396-68.421 40.475-22.415 14.05-45.567 26.728-68.829 39.299-42.021 22.706-85.975 41.566-129.891 60.243-90.248 38.378-182.229 75.838-259.648 137.379-7.225 5.744-11.672 17.469-10.985 26.521.819 10.785 9.259 13.842 18.12 9.23C584.75 936.469 771.74 806.555 960.965 681.342a11124.478 11124.478 0 0 1 56.154-36.924l-2.959-38.989c-164.072 120.32-362.512 176.992-545.047 261.855-48.147 22.383-95.298 46.992-140.351 75.131-8.23 5.139-13.766 14.978-14.994 24.479-1.041 8.054 3.029 20.431 13.686 16.479 48.653-18.046 91.169-48.993 132.91-79.128 45.077-32.542 91.929-61.576 139.312-90.626 101.836-62.436 204.242-123.967 307.943-183.265a7359.87 7359.87 0 0 1 86.651-48.766c-.985-12.996-1.972-25.993-2.96-38.988-51.546 29.457-102.699 59.619-155.438 86.898-53.777 27.817-107.557 55.633-161.336 83.449-43.93 22.723-87.301 45.755-129.695 71.245-41.771 25.118-83.297 50.7-126.523 73.278-41.221 21.529-86.023 41.922-132.549 48.141-3.242 14.498-6.481 28.993-9.721 43.49 47.462-21.483 85.908-55.805 127.178-86.811 44.623-33.523 92.952-62.742 140.678-91.576 96.972-58.587 197.005-111.868 295.911-167.064 73.6-41.076 157.644-70.725 218.6-130.964 6.843-6.76 11.733-16.708 10.988-26.521-.729-9.591-9.636-15.373-18.12-9.229-88.588 64.145-188.591 109.527-285.451 159.373-99.426 51.166-193.672 111.625-289.093 169.731-73.313 44.644-147.525 88.053-225.085 124.969l2.959 38.989c49.188-28.641 94.676-62.945 140.544-96.504 46.478-34 94.138-66.235 142.512-97.467 87.035-56.191 175.351-110.046 263.912-163.752 74.69-45.295 149.065-94.295 206.426-161.075 5.669-6.597 9.146-18.316 6.218-26.761-2.553-7.37-11.105-9.217-17.203-4.62-89.627 67.563-188.064 121.632-286.238 175.511-49.329 27.073-98.405 53.916-144.788 85.881-23.353 16.091-46.29 32.776-69.501 49.068-23.09 16.205-47.426 30.418-72.158 43.965-61.564 33.727-125.931 62.054-186.961 96.791-9.622 5.477-15.983 18.906-15.16 29.76.834 10.973 9.219 13.596 18.119 9.23 98.893-48.512 189.043-113.175 277.802-177.872 89.326-65.108 177.655-132.874 271.783-191.008 55.476-34.265 120.368-62.552 160.974-115.647 5.391-7.048 9.266-17.969 6.219-26.763-2.84-8.196-10.652-8.139-17.203-4.62-49.321 26.479-97.432 55.121-146.602 81.871-49.907 27.152-102.033 49.65-152.422 75.84-103.297 53.693-202.543 114.397-302.912 173.234a11425.55 11425.55 0 0 1-97.148 56.283c-30.903 17.713-60.723 37.979-96.279 44.889.954 12.572 1.908 25.146 2.865 37.721 33.756-33.367 76.162-55.738 118.041-77.181 45.688-23.39 90.238-48.038 134.127-74.68 87.6-53.175 171.682-111.858 262.071-160.353 54.957-29.484 110.544-57.98 162.961-91.898 49.711-32.166 98.854-70.181 131.993-120.016 5.023-7.557 9.406-17.564 6.218-26.762-2.7-7.791-10.854-8.675-17.203-4.621-195.874 125.101-399.875 236.655-603.807 347.893-83.529 45.561-167.062 91.117-250.083 137.596.985 12.996 1.972 25.992 2.959 38.988 170.95-118.941 354.397-218.406 528.241-332.895 94.264-62.08 185.904-128.777 269.847-204.379 7.025-6.327 11.708-17.035 10.988-26.521-.836-11.01-9.213-13.55-18.12-9.23-51.248 24.849-100.296 53.832-149.524 82.396-49.636 28.8-100.665 55.019-150.331 83.749-99.656 57.645-195.211 122.086-293.779 181.536-72.496 43.724-150.876 77.517-220.271 126.384.985 12.996 1.973 25.992 2.959 38.988 185.013-137.684 374.572-269.338 569.658-392.373 80.435-50.727 161.85-99.902 244.248-147.373 9.606-5.535 15.987-18.861 15.161-29.76-.821-10.815-9.251-13.799-18.12-9.229C679.47 260.432 479.433 377.96 275.685 488.664c-81.457 44.258-163.553 87.353-246.782 128.186l10.984 31.383c25.776-33.308 66.304-56.533 103.788-77.647 19.877-11.199 39.891-22.157 59.18-34.356 21.948-13.881 42.736-29.654 64.246-44.203 92.357-62.464 188.979-118.262 284.29-176.013 77.075-46.703 153.374-94.857 225.837-148.517 9.198-6.81 16.062-17.9 15.162-29.76-.793-10.436-9.346-14.29-18.121-9.229-48.863 28.18-97.979 55.93-148.079 81.867-49.613 25.688-100.764 48.179-150.024 74.562-96.332 51.593-187.564 112.021-281.984 166.92-45.945 26.715-92.726 52.251-141.018 74.497 3.339 9.33 6.681 18.662 10.023 27.99a167.79 167.79 0 0 1 2.938-5.881c.276-.53 3.928-6.72 1.068-2.127 2.277-3.657 4.846-7.124 7.492-10.519.168-.216 4.738-5.591 1.715-2.197 1.437-1.612 2.949-3.157 4.456-4.703 3.552-3.637 7.364-7.009 11.247-10.285 4.772-4.025 12.174-9.079 19.404-13.619 8.459-5.309 17.279-10.026 26.193-14.511 34.469-17.342 71.242-29.699 106.113-46.215 43.148-20.439 79.836-52.666 117.23-81.818 44.833-34.949 93.141-64.874 140.71-95.896 48.038-31.33 95.283-64.804 145.126-93.205 42.926-24.461 88.732-46.937 123.102-83.359 6.684-7.084 11.75-16.467 10.986-26.521-.559-7.366-5.897-13.776-13.851-11.199-49.908 16.174-93.238 47.806-137.599 74.86-48.914 29.833-102.049 53.269-153.393 78.592-106.676 52.613-213.651 104.618-320.469 156.94-43.396 21.257-86.618 42.541-129.029 65.714-40.359 22.048-80.935 43.731-124.823 57.979l2.863 37.722c72.181-71.732 163.499-120.634 250.486-171.761 103.368-60.754 205.491-123.592 307.752-186.184 31.838-19.49 63.288-39.892 95.544-58.647 28.137-16.359 57.43-30.229 78.302-56.136 6.78-8.413 13.28-38.49-6.716-33.35-47.432 12.189-90.47 38.453-131.143 64.924-21.107 13.74-41.834 28.054-62.84 41.949-19.621 12.977-39.934 24.667-59.938 37.012-88.902 54.875-170.566 120.623-260.034 174.661-39.992 24.155-81.579 45.8-125.744 61.276l2.863 37.721c39.103-33.88 85.59-57.931 127.509-87.985 21.175-15.182 40.63-32.546 61.216-48.488 20.628-15.977 41.773-31.276 63.117-46.279 86.076-60.504 176.02-115.53 257.792-181.999 18.233-14.82 35.915-30.312 52.962-46.484 6.924-6.571 11.721-16.852 10.986-26.521-.586-7.715-5.842-13.337-13.852-11.199C503.626-.24 458.109 24.438 414.134 49.748c-40.958 23.574-81.776 46.956-123.684 68.825-82.873 43.245-167.968 86.252-237.164 150.254-7.749 7.166-13.724 20.591-10.071 31.133 3.688 10.637 15.029 7.252 21.376 1.379z"/></g><path fill="#EAA286" d="M277.319 438.124c-11.854-11.278-29.717-26.236-47.5-19.114-19.982 8.004-30.584 30.456-32.344 50.896-2.154 25.043 8.139 74.387 43.639 64.443 14.562-4.079 26.188-17.309 34.598-29.107 5.842-8.192 11.885-23.145 4.506-32.36-7.346-9.168-19.885.314-24.713 7.089a111.633 111.633 0 0 1-4.512 5.918c-2.859 3.49 4.123-4.516 1.174-1.342a58.66 58.66 0 0 1-2.143 2.148 47.948 47.948 0 0 1-2.104 1.881c-2.857 2.459 4.65-3.443 1.699-1.334-1.248.895-2.586 1.65-3.957 2.335 6.354-3.169 2.094-1.011.156-.54-2.693.654 4.717-.494 2.016-.237-.576.056-1.154.046-1.732.034-1.691-.031-5.639-1.307.188.388-1.25-.363-2.424-.954-3.547-1.604-3.627-2.102.348.535-.027.199-.918-.816-1.736-1.741-2.523-2.682-.836-.994-1.574-2.066-2.283-3.151a39.266 39.266 0 0 1-1.047-1.733c-1.393-2.396 2.271 4.504.502.822-1.27-2.646-2.248-5.426-3.09-8.236-.436-1.457-.795-2.938-1.129-4.421-.723-3.21.965 5.131.383 1.888a73.193 73.193 0 0 1-.463-3.047c-.408-3.024-.574-6.077-.574-9.125 0-3.445-.252 6.057-.09 2.643.035-.731.098-1.459.16-2.188a50.55 50.55 0 0 1 .566-4.219c.809-4.742-1.885 7.018-.266 1.447.182-.621.395-1.23.609-1.837 1.178-3.337-3.029 7.079-1.594 3.889 2.418-5.385-2.342 3.39-1.475 2.114 2.99-4.401-5.064 4.818-1.152 1.371-5.551 4.889-4.371 3.258-2.717 2.181 1.324-.857 3.977-1.849-2.645 1.111 1.006-.45 2.084-.714 3.162-.913-6.217 1.152-2.156.324-.209.468.662.049 1.314.163 1.967.277 2.521.437-4.395-1.371-.523-.109 3.424 1.116 6.6 2.941 9.609 4.88 1.891 1.218 3.686 2.578 5.455 3.963-3.27-2.559.152.156.668.605 1.398 1.215 2.744 2.484 4.084 3.762 8.455 8.044 19.006.625 24.713-7.088 5.22-7.052 12.759-24.511 4.505-32.365zm557.745 10.121c-.994-4.308-2.546-8.361-4.532-12.165.912-5.605.294-11.22-3.001-15.332-3.38-4.22-7.621-4.531-11.745-3.021-6.526-5.742-14.054-10.454-21.741-14.106-12.486-5.932-26.478 11.319-29.33 26.416-4.389 4.245-8.204 8.647-11.135 12.28-6.257 7.756-11.621 23.476-4.506 32.361 7.564 9.441 19.547-.683 24.714-7.089.276-.343 1.058-1.235 1.681-1.948a67.337 67.337 0 0 1 2.703-2.614c.062 1.733.273 3.368.659 4.841.628 2.398.765 3.198.987 5.249-.831.448-1.821.915-3.225 1.663-5.756 3.066-11.665 10.775-14.673 19.062-14.231 11.632-22.093 42.453-4.019 42.453 6.276 0 12.276-4.666 16.851-11.049 11.139 7.386 24.181 8.771 35.44-3.856a67.671 67.671 0 0 0 10.93-16.692c11.888-16.275 18.641-36.102 13.942-56.453zm-54.956 27.131c-.058.145-.118.307-.185.504.059-.178.118-.354.18-.527l.005.023z"/><path fill="#FF8A0B" d="M766.248 927.85c-8.439-34.081-22.557-66.893-42.035-95.671a224.71 224.71 0 0 0-4.36-8.452c-.209-6.395-2.223-12.048-7.548-12.963-4.814-7.734-9.983-15.166-15.309-22.227-28.01-37.135-65.678-61.651-111.404-70.785-46.963-9.384-96.101-1.647-142.592 6.779-41.545 7.53-86.307 12.542-121.109 38.585-12.23 9.15-22.077 19.967-30.166 31.928-5.626 5.57-10.872 11.572-15.653 18.041-.95 1.285-1.87 2.584-2.771 3.894-9.951 12.16-19.536 24.646-29.485 36.626-6.354 7.648-11.557 23.556-4.504 32.362 2.103 2.625 4.528 3.735 7.048 3.844-1.258 9.104-1.934 18.313-2.106 27.528-1.942 3.472-2.97 7.467-2.261 10.58-3.166 5.629-4.148 13.019.438 16.125.97.656 1.947 1.298 2.925 1.94.866 3.892 3.326 4.73 6.109 3.901.422.26.846.516 1.268.773 1.585 3.25 4.475 5.393 9.188 5.373 11.312 6.322 23.049 11.861 35.078 16.745-.023.94-.017 1.89.057 2.854.647 8.516 6.174 13.774 14.724 11.904a179.46 179.46 0 0 0 15.149-4.038c20.251 6.369 40.984 11.286 61.618 15.319 45.588 8.912 92.982 13.239 139.38 14.536 56.764 1.587 146.344-4.424 189.092-50.148a600.03 600.03 0 0 0 39.392-16.04c7.16-3.211 11.769-11.514 9.837-19.313zm-49.432-19.837a97.524 97.524 0 0 0 6.348-10.172c.306 2.729.492 5.461.548 8.188a303.282 303.282 0 0 0-6.896 1.984zm-412.554 33.015c10.281-5.548 20.129-11.957 29.525-18.354 1.44-.981 2.86-1.992 4.29-2.99-9.326 7.553-18.158 15.618-26.274 24.379a208.088 208.088 0 0 1-7.541-3.035zm222.587-187.825c-10.508 4.722-20.759 10.063-30.807 15.725 4.083-4.608 7.254-9.943 8.936-15.841 7.298-.113 14.594-.1 21.871.116zm76.934 13.089c-11.245 6.986-22.653 13.695-34.106 20.324 4.112-7.553 7.607-15.496 10.319-23.9a27.34 27.34 0 0 0 .801-3.135c7.738 1.773 15.407 3.982 22.986 6.711zM272.869 889.859a252.19 252.19 0 0 0 6.235-3.021 204.676 204.676 0 0 0-8.082 10.838 1127.33 1127.33 0 0 1 1.713-7.756l.134-.061zm127.429-16.929c22.743-16.902 47.444-31.212 71.458-46.211 15.1-9.433 30.433-18.562 46.417-26.229a322.098 322.098 0 0 1-4.251 3.756c-9.84 8.542-17.666 14.115-29.418 22.159-12.435 8.511-25.245 16.468-38.11 24.308-26.634 16.227-55.291 31.648-81.88 49.554 11.932-9.11 23.742-18.387 35.784-27.337zm119.401-12.031c-16.464 11.15-33.388 21.572-50.409 31.84 21.895-16.51 44.498-30.783 68.345-44.35-5.872 4.24-11.851 8.389-17.936 12.51zm-64.747 94.786c-4.406 3.03-8.238 7.209-11.056 11.99a984.707 984.707 0 0 1-13.735-.992c8.27-3.654 16.539-7.309 24.791-10.998zm249.016-93.897a170.08 170.08 0 0 0 5.746-8.584 243.308 243.308 0 0 1 1.976 4.514 357.614 357.614 0 0 0-7.722 4.07zm-46.145-29.615a512.812 512.812 0 0 0 11.694-14.119c1.858-2.329 3.524-5.125 4.832-8.15a226.533 226.533 0 0 1 9.999 9.994 437.03 437.03 0 0 0-26.525 12.275zm-8.237-42.278c-7.679 5.14-14.929 10.831-22.015 16.736 4.891-7.178 9.35-14.647 13.295-22.433a204.56 204.56 0 0 1 8.72 5.697zM514.329 964.59a195.572 195.572 0 0 0-5.693 5.962c-1.201-.031-2.4-.068-3.6-.104a963.608 963.608 0 0 0 9.293-5.858z"/><path fill="#FFE5B8" d="M569.437 710.64c-.871-.403-1.76-.77-2.658-1.116-1.344-4.544-3.242-9.078-5.714-13.62-5.796-10.646-20.797 1.797-24.714 7.089a42.95 42.95 0 0 0-2.258 3.382c-8.62.862-17.103 2.639-24.641 4.509-16.743 4.155-34.375 14.517-42.602 29.576-.217-.233-.451-.485-.733-.783-1.53-1.62-2.823-3.437-4.028-5.304.786 1.152-1.096-2.229-1.249-2.593-.65-1.528-1.115-3.126-1.584-4.715-.075-.258-.141-.473-.2-.666a31.99 31.99 0 0 0-.163-1.331c-.258-1.865-.318-3.755-.385-5.635-.007-.217-.015-.409-.022-.588.058-.344.131-.949.221-1.939.204-2.208.6-4.396.989-6.576 1.643-9.209-3.486-20.877-14.549-17.517-11.805 3.585-18.477 16.906-20.475 28.114-3.428 19.219-1.688 39.82 10.273 55.874 9.883 13.263 26.682 19.439 42.594 20.892 15.204 1.391 30.257-1.721 43.953-8.049a56.312 56.312 0 0 0 6.214-2.243c13.477-5.827 25.066-15.918 32.408-28.656 4.55-5.868 8.449-12.183 11.546-18.798 3.551-7.587 8.424-24.376-2.223-29.307z"/><path d="M270.479 433.337c-16.93-11.129-40.549-21.137-59.012-7.529-14.914 10.99-18.948 32.214-17.875 49.574 1.145 18.529 8.605 38.586 23.252 50.619 16.221 13.327 41.195 12.074 55.881-3.098 1.23-1.273 5.396-11.109.484-10.289-8.979 1.502-16.549 6.604-25.898 7.14-7.598.434-14.766-2.007-21.076-6.113-13.158-8.571-20.6-25.307-23.043-40.304-2.014-12.372-1.691-28.75 8.818-37.452 15.406-12.76 39.564-1.785 54.516 5.931 3.073 1.583 6.862-6.567 3.953-8.479zm494.868-.106c13.316-7.887 33.178-15.498 46.85-3.977 11.104 9.357 13.49 26.323 13.334 39.947-.162 14.291-4.23 30.229-13.947 41.07-12.492 13.939-27.689 8.783-43.189 4.598-4.715-1.273-10.902 9.549-7.086 12.718 16.02 13.305 38.199 8.847 52.131-4.866 14.266-14.045 20.793-36.021 21.857-55.519.922-16.852-1.711-37.682-15.947-48.85-17.637-13.835-39.738.12-54.156 11.98-.849.698-1.738 4.021.153 2.899z"/><path fill="#D8724A" d="M377.987 696.478h-.001l-.003.005z"/><path fill="#FFE5B8" d="M796.342 329.122c-3.17-3.604-7.757-4.727-12.898-3.095-.637.202-1.277.407-1.913.608l.002-.109-.407.24c-15.396 4.918-25.335 4.067-35.095 2.235 1.884-6.194 3.329-12.573 4.41-19.04.894-.027 1.825-.322 2.636-.822 3.501-2.158 5.453-6.514 5.363-10.525-.444-19.768-2.981-39.506-8.307-58.34-1.678-7.98-4.225-15.751-8.039-22.715-5.542-12.852-12.655-25.056-21.611-36.285-23.144-29.02-57.554-46.833-92.827-56.364-19.7-5.323-39.921-8.312-60.262-9.728-23.718-1.65-47.62-1.396-71.056 2.913a168.722 168.722 0 0 0-9.588 2.066c-32.154 1.16-64.023 7.439-93.165 21.653a156.145 156.145 0 0 0-8.019 4.213c-14.715 5.546-29.024 12.096-42.549 19.956-18.425 10.71-35.971 24.834-46.138 43.928-7.38 13.858-8.896 29.238-5.287 43.876-3.19 13.718-3.001 28.049.813 41.892-11.95 8.369-23.43 17.492-34.232 27.624-6.433 6.034-10.955 14.91-12.096 23.743-.517 3.997-.264 12.048 3.961 16.854 2.102 2.389 4.917 3.567 8.186 3.436 10.369-.471 21.049-1.733 32.311-3.83-9.037 4.473-17.227 9.131-24.768 14.079-8.934 5.861-15.369 16.354-16.795 27.39-.637 4.924.002 12.248 3.9 16.683 2.074 2.36 4.879 3.609 8.166 3.609 20.269-.085 41.516-1.804 64.562-5.241-26.271 11.311-53.546 23.711-79.994 38.59-9.953 5.598-15.663 17.824-16.907 27.458-.824 6.375.627 12.394 3.882 16.097 3.108 3.539 7.717 4.809 13.025 3.545 21.669-5.139 40.685-9.809 58.151-14.294a1906.85 1906.85 0 0 0-12.743 5.497l-1.123.277-.036.247c-11.101 5.278-18.963 16.356-20.621 29.18-.822 6.384.621 12.418 3.896 16.14 3.117 3.546 7.692 4.801 12.988 3.5l2.275-.57c-.47.242-1.041.484-1.508.729l-.435.057v.062c0 .612-2.156 1.223-3.338 1.833-9.436 4.884-15.471 17.523-16.761 27.489-.824 6.389.644 12.437 3.933 16.177 3.121 3.552 7.719 4.792 13.003 3.459a817.354 817.354 0 0 0 33.68-9.297c-8.07 7.854-15.143 24.628-12.392 35.149 1.811 6.925 7.595 10.176 16.165 8.943a452.742 452.742 0 0 0 23.935-4.103c-3.108 4.892-5.169 10.524-5.914 16.289-.613 4.746.117 11.938 4.199 16.58 3.18 3.617 7.765 4.712 12.873 3.016 3.65-1.215 7.304-2.426 10.959-3.627-4.143 5.471-6.885 12.022-7.758 18.779-.84 6.506.451 12.076 3.639 15.702 3.037 3.456 7.65 4.83 13.135 3.941.727-.118 1.452-.272 2.178-.394l.139-.23c7.389-1.205 14.79-2.702 22.201-3.936-3.891 8.699-5.832 18.562-2.087 24.814 1.037 1.735 2.865 3.129 5.999 3.789 1.262.485 2.742.747 4.458.749l.054.001a893.055 893.055 0 0 0 17.522-.219c11.189.09 22.309.108 33.229-.557.662 5.695 3.514 11.029 8.162 13.082 13.195 5.822 27.986 8.776 43.959 8.776 34.02 0 68.527-13.329 91.523-23.355 43.732-19.067 83.361-44.085 119.673-68.284l1.009-.566-.008-.123c10.389-7.428 16.943-20.723 16.031-32.738-.641-8.448-5.805-13.908-13.15-13.908-.474 0-.953.024-1.436.072 11.74-9.396 21.574-19.582 29.806-30.845 5.69-7.784 10.483-19.812 6.876-30.22-1.521-4.387-4.706-7.357-8.804-8.362a274.278 274.278 0 0 0 6.289-5.745c8.242-7.771 13.062-19.447 12.279-29.746-.531-6.992-5.211-14.424-12.835-14.424-1.468 0-2.98.289-4.496.859-2.307.869-4.637 1.741-6.984 2.616 8.076-5.675 14.068-15.88 15.439-26.491.643-4.98-.447-12.366-4.36-16.818-3.209-3.648-7.782-4.656-12.79-2.75-.601.229-1.207.459-1.814.688l.011-.331-1.329.824a720.1 720.1 0 0 1-2.963 1.098 382.276 382.276 0 0 0 19.818-16.879c6.423-5.863 10.951-14.745 12.117-23.758.686-5.322-.257-12.555-3.91-16.715-1.017-1.154-2.209-2.043-3.557-2.646a923.297 923.297 0 0 0 19.552-11.128c9.965-5.836 15.655-17.986 16.88-27.441.81-6.24-.821-12.719-4.147-16.508zM366.881 196.913c-9.047 8.726-18.009 17.532-27.105 26.191a137.647 137.647 0 0 1 8.688-11.722c2.109-2.549 4.55-5.193 7.187-7.825 5.238-4.355 10.836-8.295 16.664-11.859-.494.473-.989.942-1.482 1.415a29.906 29.906 0 0 0-3.952 3.8zm-49.77 46.949c5.027-13.864 11.575-27.104 19.969-39.22 4.172-3.811 8.595-7.339 13.206-10.63-13.335 14.119-23.915 30.52-31.559 48.424-.539.475-1.074.954-1.616 1.426zm374.246-67.887c.642.534 1.281 1.069 1.914 1.614a3.006 3.006 0 0 0-1.178-.411c-.245-.402-.486-.806-.736-1.203zm12.455 146.454c.515 1.153 1.017 2.313 1.523 3.472-1.302.003-2.912.009-4.701.018a85.254 85.254 0 0 0 3.178-3.49zm16.578-113.845a13.07 13.07 0 0 0-.675 4.25c.022 2.13.117 4.246.272 6.351-6.642-14.549-15.766-28.014-25.551-40.553-.031-.039-.063-.068-.096-.107 9.844 8.636 18.63 18.609 26.05 30.059zm-418.919 18.251c.102-.714.234-1.422.367-2.13.208-1.107-.104.29.381-1.544 1.486-5.623 3.674-9.76 6.577-13.982 3.839-5.583 7.313-9.157 12.633-13.91 7.061-6.309 14.909-11.806 23.232-16.671a176.845 176.845 0 0 0-9.971 11.892c-13.225 11.133-24.835 24.018-33.489 39.024l-.055.098c.087-.929.194-1.855.325-2.777zm112.768 51.249l3.048-1.36.153.372c-1.069.329-2.139.655-3.201.988zm102.35-5.98c4.633 2.546 9.163 5.283 13.607 8.099a691.171 691.171 0 0 1 5.34 3.424c-6.677-2.938-12.929-5.965-18.73-9.196-.03-.799-.11-1.571-.217-2.327zm18.47 151.522c9.59-7.252 18.555-14.698 27.01-22.428a308.98 308.98 0 0 0 15.825 3.27 2895.262 2895.262 0 0 0-42.835 19.158z"/><path fill="#EAA286" d="M493.333 651.845c10.592 1.711 20.766.734 31.068-2.095 5.395-1.481 10.488-3.878 15.365-6.571.354-.193.879-.545 1.494-.982.748-.263 1.496-.525 2.236-.805 7.348-2.778 12.109-5.85 14.918-11.723.482-.755.932-1.529 1.26-2.377 1.164-2.998 4.061-12.777-2.236-12.67-3.758.066-6.346 2.702-9.016 5.11-22.172 6.731-47.928 7.124-66.533-8.358-5.348-4.45-11.912 2.514-14.262 10.05a63.271 63.271 0 0 1-13.117-15.25c-2.037-3.31-6.95 4.933-5.805 7.517 8.333 18.755 23.636 34.764 44.628 38.154zm65.008 80.634c-16.977 9.396-36.629 13.057-55.9 12.413-19.217-.638-40.719-5.316-52.43-21.901-3.625-5.137-9.713 7.626-8.566 11.097 15.125 45.843 74.297 51.2 112.344 32.148 7.975-3.994 12.996-13.203 14.152-21.824.703-5.241-1.674-16.318-9.6-11.933z"/><path d="M449.532 608.408c16.156 12.849 32.699 21.597 53.266 24.566 17.428 2.516 41.076-.349 54.133-13.042 1.883-1.832 7.256-14.66.652-13.878-7.916.938-15.389 6.407-23.082 8.882-8.693 2.795-18.141 3.223-27.188 2.924-18.689-.619-38.305-7.329-55.104-15.196-2.22-1.039-4.452 4.331-2.677 5.744zM223.116 478.276c6.201-7.625 14.506-13.452 24.623-13.582 11.155-.14 13.627 9.753 17.852 17.85 1.928 3.696 6.182-4.48 6.338-5.848 1.418-12.438-4.85-24.827-18.639-25.071-13.508-.241-25.654 11.179-32.785 21.458-1.863 2.688-.947 9.568 2.611 5.193z"/><path d="M272.366 471.988c-8.041-.331-18.123-.413-23.812 6.317-5.627 6.656-4.52 16.731.307 23.532 2.068 2.915 5.455-4.321 4.838-6.263-.883-2.766-4.992-10.04-2.025-12.604 4.723-4.083 12.904-4.193 18.76-4.504 2.344-.123 4.829-6.36 1.932-6.478zm155.875 252.427c-7.357 23.324-6 48.375 11.625 66.727 15.729 16.375 39.301 23.002 61.438 22.734 23.219-.276 46.559-8.233 63.344-24.536 8.725-8.472 15.01-19.888 18.123-31.587 2.557-9.615 5.152-27.68-4.422-33.931-3.625-2.37-6.92 6.034-7.311 8.112-1.787 9.545-.406 20.277-3.047 28.952-.787 2.591-1.793 4.412-4.299 7.944-1.033 1.459-4.6 4.976-7.016 6.908-14.961 11.98-34.551 16.592-53.398 16.873-18.965.288-38.832-3.793-54.105-15.543-16.658-12.82-19.979-34.323-16.004-53.822.994-4.881-4.104-1.443-4.928 1.169z"/><path d="M429.511 721.157c-54.822.247-117.066.188-153.336 48.793-16.062 21.521-24.553 47.162-29.545 73.281-4.988 26.1-7.357 53.925-4.398 80.294.617 5.493 5.512-1.244 5.947-3.479 9.01-46.166 5.857-97.842 34.004-138.139 31.83-45.578 95.953-38.383 143.709-48.636 3.863-.827 9.318-12.14 3.619-12.114zm148.172 16.862c25.975-2.047 53.766-.77 78.453 8.193 22.232 8.074 39.203 23.765 53.193 42.377 14.912 19.84 23.699 42.742 31.984 65.893 8.434 23.56 15.244 47.988 20.029 72.541 1.451 7.441 11.471-5.1 10.748-9.889-7.92-52.324-17.111-105.021-49.637-148.474-14.332-19.148-34.842-33.885-57.566-41.216-29.037-9.365-58.381-4.057-86.301 6.431-1.056.398-2.784 4.29-.903 4.144z"/><path d="M285.44 867.368c10.135.893 21.982 4.648 26.447 14.707 4.115 9.277 3.918 21.041 3.707 30.995-.242 11.271-1.914 22.522-3.064 33.724-.865 8.432-3.957 22.137 1.301 29.492 5.48 7.666 13.588-9.482 14.127-13.037 1.561-10.289-.322-21.812-.041-32.314.324-11.943.707-23.929-.814-35.811-1.285-10.018-5.039-18.528-12.383-25.534-8.062-7.687-18.754-6.891-28.797-4.432-.649.161-1.471 2.124-.483 2.21zm27.043-479.709c10.471-10.107 24.627-14.168 38.461-17.367 14.287-3.305 29.547-3.822 43.951-1.013 18.314 3.571 30.031-38.169 14.393-37.758-39.062 1.029-78.959 13.062-101.184 47.426-2.96 4.577-2.542 15.391 4.379 8.712z"/><path fill="#F76411" d="M687.542 857.675c.156-.312.285-.611.447-.925.748-1.449 1.627-7.64-1.914-5.926-.938.455-1.844.942-2.746 1.439a3.929 3.929 0 0 0-1.531-.262c-.77.054-1.537.108-2.307.165-3.949.277-6.506 4.021-7.863 7.946-3.16 2.408-6.27 4.903-9.5 7.319-1.67 1.248-2.988 7.277.277 5.217 2.721-1.717 5.365-3.554 8.051-5.303.1 2.772.854 5.414 1.932 7.993-9.258 32.94 8.152 69.389 12.926 102.696 2.23 15.559 16.678-2.788 17.49-10.235 4.066-37.269 4.027-76.9-15.262-110.124zm-203.916-11.086c-20.152 1.044-39.613-9.461-53.875-22.957-6.699-6.338-12.254-13.81-17.078-21.635-4.906-7.963-6.951-17.979-12.586-25.346-.805-1.018-1.854-1.508-3.15-1.469-.693.098-1.336.257-1.949.448-.736-3.864-1.279-7.702-1.541-11.481-.449-6.468-6.752 2.038-6.883 5.171-.207 4.952.049 9.942.576 14.932-1.961 6.183-1.27 14.105.143 19.256 1.516 5.53 3.928 10.919 6.82 16.082 4.188 16.167 9.826 31.948 18.203 46.465 6.934 12.019 17.139 24.756 31.652 27.076 17.889 2.856 32.375-13.836 40.697-27.412 2.084-3.401 8.338-19.614-1.029-19.13z"/><path fill="#EAA286" d="M785.126 466.405c-1.337-12.549-3.232-25.021-5.531-37.42 1.518-21.832 1.888-43.617-1.56-65.316l.47-2.27c.365-1.766-.267-3.838-1.688-4.635a174.038 174.038 0 0 0-2.801-11.971c-1.464-5.373-7.039-.31-8.915 3.008-1.655-17.068-4.901-34.016-9.1-50.525-9.039-35.547-23.618-70.243-43.895-100.868-.463-.699-1.086-1.028-1.767-1.114-3.257-6.439-6.883-12.588-11.071-18.172-.012-15.957-14.875-27.443-27.487-35.299-10.37-6.459-21.73-11.888-33.393-16.159-9.295-8.604-19.4-16.264-30.686-22.215-25.144-13.259-54.875-14.028-82.477-10.181-24.656 3.437-48.336 10.586-71.658 18.914a289.393 289.393 0 0 0-50.043 18.873c-.462.175-.924.35-1.387.523-.303.114-.598.318-.876.585-44.296 22.068-82.693 55.571-108.233 98.319-1.145 1.915-1.795 5.311-.269 7.217 2.075 2.592 5.25-.232 6.69-1.918a310.651 310.651 0 0 1 17.81-19.139 202.638 202.638 0 0 0-8.015 12.09c-16.692 27.251-27.598 58.568-28.528 90.665-.113 3.887 4.829.133 4.974-2.29 2.594-43.451 23.395-85.969 54.343-116.284 15.276-14.964 33.791-26.601 54.509-32.23 24.629-6.694 49.769-1.289 74.123 4.056 1.715.377 3.433.762 5.15 1.149.473.671 1.177 1.09 2.205 1.012.529-.04 1.059-.1 1.588-.149 17.802 4.079 35.742 8.531 53.82 11.356.44.278.982.485 1.647.604a32.29 32.29 0 0 0 5.921.477c15.826 2.037 31.758 2.621 47.791.405 18.014-2.49 35.343-8.579 53.413-10.693 9.147-1.069 18.344 6.282 27.372 8.082.86.172 1.699 3.385 2.535 3.602 8.147 10.497 15.75 11.401 22.495 22.684 26.686 44.639 37.402 96.023 42.702 147.173 1.75 16.894 3.087 33.787 3.871 50.689-.429 23.559-.481 47.122-.401 70.687a556.171 556.171 0 0 1-.858 11.847c-1.849 21.843-4.759 43.864-10.901 64.955-6.873 23.598-21.17 44.362-35.854 63.778-16.739 22.133-35.437 44.595-57.521 61.608-.379.292-.767.573-1.148.862-13.305 4.514-25.888 12.268-35.652 21.633a216.774 216.774 0 0 1-32.043 12.234c-21.211 6.232-43.635 8.749-65.631 6.052-3.856-.473-7.476 8.663-2.922 9.283 32.39 4.411 66.026-2.477 96.244-16.235.252 2.159 1.556 3.544 4.715 2.766 10.128-2.495 20.354-7.938 28.97-14.125.359.196.832.232 1.434.049.319 1.105 1.187 1.672 2.925 1.035 3.087-1.13 5.995-2.66 8.718-4.48.728.668 1.73.932 3.031.409 16.513-6.628 29.99-20.905 41.487-34.023 8.796-10.036 16.655-21.014 23.781-32.378 1.953.341 4.773-1.362 6.127-2.924 15.12-17.445 25.063-38.858 33.375-60.202 6.608-16.969 12.179-34.602 16.271-52.452-.023 6.406.143 12.803.594 19.184.308 4.347 4.409 4.387 7.068 1.9 20.829-19.483 16.878-48.42 14.142-74.098zM403.095 156.161a326.42 326.42 0 0 1 7.165-3.363c.537.704 1.384 1.211 2.639 1.411.731.117 1.462.213 2.192.299-4.025.333-8.024.88-11.996 1.653zm132.966 17.119c-.53.193-1.093.552-1.653 1.023-.545-.085-1.088-.179-1.633-.267 1.172-.269 2.341-.547 3.508-.837-.074.029-.148.054-.222.081zm42.404 1.866c-.165.523-.306 1.283-.363 2.109-2.918.198-5.852.29-8.793.287 3.21-1.683 6.28-3.413 9.149-5.035l1.473-.432c-.632.94-1.125 1.99-1.466 3.071zm-3.489-49.316c1.369.148 2.737.31 4.106.478a391.667 391.667 0 0 0-4.054-.1 4.097 4.097 0 0 0-.052-.378zm-46.148-14.69c1.731-3.56 2.562-7.891-.281-8.935 16.669-1.57 33.407-1.039 50.1 2.696 10.475 2.344 20.208 6.643 29.254 12.188-25.986-5.552-52.598-7.4-79.073-5.949zm93.678 57.875c-1.629.365-3.255.739-4.881 1.114 5.56-2.562 11.127-5.06 16.848-6.966 7.849-.336 16.254-.244 24.171 1.225l.288.337c-12.239-.709-24.547 1.624-36.426 4.29zm96.157 441.505c1.108-3.519 2.434-6.971 3.76-10.327a205.36 205.36 0 0 1 3.375-7.996c2.041-3.137 3.998-6.351 5.836-9.708 2.175-3.974 4.334-7.959 6.465-11.959-5.175 13.597-11.298 27.637-19.436 39.99zm25.307-259.795a635.822 635.822 0 0 0-1.698-13.815c.716 4.462 1.415 8.928 2.092 13.396-.135.135-.265.275-.394.419zm29.964 170.124c-.36-13.694.308-27.394 1.35-41.087a395.06 395.06 0 0 1 1.43 20.254c.323 7.362-.083 14.509-2.78 20.833z"/><path d="M396.358 762.96c-1.562 23.493 7.391 45.102 23.607 61.951 14.693 15.266 43.318 29.672 64.824 24.383 3.158-.78 8.344-10.998 3.773-12.514-9.719-3.221-20.176-3.261-30.014-6.447-9.975-3.229-19.227-8.436-27.605-14.677-18.232-13.582-30.18-32.253-29.789-55.5.07-4.077-4.649.609-4.796 2.804zm256.801 109.579c2.525 8.712 6.41 16.868 9.521 25.386 3.746 10.248 5.773 21.02 7.809 31.704 4.15 21.776 5.773 44.019 9.029 65.938.16 1.085.432 3.412 1.912 3.722.434.092.873.182 1.307.275 2.719.568 4.938-2.115 5.881-4.417 3.936-9.604.404-20.831-.84-30.873-1.535-12.406-3.586-24.748-6.031-37.009-2.414-12.101-5.799-23.93-10.588-35.311-3.535-8.405-8.004-17.674-17.219-20.602-.529-.17-.89.799-.781 1.187z"/><path d="M691.692 839.96c-14.297 5.234-26.676 13.631-36.346 25.439-1.613 1.969-3.141 4.945-2.32 7.572 1.049 3.363 4.422.303 5.52-1.206 8.318-11.454 19.523-19.7 32.309-25.586 1.953-.9 4.041-7.391.837-6.219zm76.459-516.278c-2.162-6.952-9.983 5.568-9.04 9.926 16.414 75.881 13.108 179.204-19.254 250.524-30.897 68.1-90.557 117.934-163.994 133.637-82.521 17.648-173.199-4.94-231.963-66.82-59.406-62.557-74.185-150.719-66.603-233.868-3.803-2.16-7.688-4.094-11.725-5.616a545.518 545.518 0 0 0-3.216 30.233c-6.428 82.774 11.948 169.05 69.74 231.324 57.635 62.109 146.482 85.712 228.785 72.193 76.463-12.562 140-61.402 178.14-128.008 46.63-81.433 56.936-204.141 29.13-293.525z"/><path d="M724.46 377.745c-8.67-15.482-22.762-28.591-39.354-35.099-16.158-6.339-34.527-9.052-51.814-9.538-16.727-.469-25.113 40.819-11.447 38.322 16.547-3.024 33.094-3.061 49.561.6 15.836 3.52 31.943 7.87 44.643 18.484 5.479 4.582 10.805-8.492 8.411-12.769z"/><path fill="#FFF" d="M599.881 500.346c-52.945 2.478-106.787 5.958-159.403-2.274-3.681-.576-6.444 5.048-6.813 7.861-1.535 11.742 2.807 22.398 9.525 31.547-4.492 8.378-4.936 18.017 3.704 25.257 9.965 8.349 24.099 12.081 37.095 14 7.371 3.411 15.339 5.536 23.629 6.265 37.103 3.256 69.376-23.05 85.76-54.324 3.647-6.963 6.527-14.37 8.855-21.869.585-1.885.859-6.614-2.352-6.463zm-121.845 35.487a30.566 30.566 0 0 0 6.542 4.523c-4.557-.578-9.044-1.486-13.355-2.875a72.637 72.637 0 0 1 6.813-1.648zm83.817 2.018c-.362.003-.726.021-1.089.025 1.318-.187 2.638-.354 3.957-.502-.059.55-.128 1.091-.205 1.626-.493-.719-1.338-1.157-2.663-1.149zm-101.457-9.038a42.34 42.34 0 0 1-2.322-2.797c2.846-.063 5.691-.109 8.537-.135a57.023 57.023 0 0 0-6.215 2.932zm-12.987-16.164a11.829 11.829 0 0 1-.077-.225c.195.025.393.048.588.072-.171.048-.344.091-.511.153zm139.935 1.885c-7.82-.018-15.639-.16-23.458-.364 9.104-.392 18.214-.793 27.331-1.13-.408 1.038-.834 2.07-1.275 3.095-.442-.952-1.251-1.598-2.598-1.601zm-135.438 32.914c.288.465.596.92.892 1.382a13.642 13.642 0 0 1-1.383-1.866l.491.484z"/><path d="M409.084 484.508c31.306 20.347 72.058 25.053 108.56 25.016a276.38 276.38 0 0 0 60.616-6.834c16.916-3.837 35.516-9.517 49.706-19.862 2.623-1.912 4.592-10.494-.586-7.713-15.383 8.263-30.847 14.379-47.917 18.327-19.739 4.564-39.986 6.298-60.209 6.538-35.553.422-75.443-3.998-106.695-22.293-2.727-1.599-6.168 5.07-3.475 6.821z"/><path d="M424.898 492.613c-3.569 45.075 25.028 88.523 70.124 98.244 20.604 4.441 44.291.358 63.07-8.834 16.665-8.157 29.273-22.548 37.248-39.094 7.505-15.572 12.545-34.788 12.189-52.139-.03-1.478-1.203-2.637-2.698-2.183-2.165.657-3.387 3.098-3.754 5.153-1.832 10.238-2.754 20.442-5.594 30.505-2.479 8.778-6.029 17.328-11.019 24.986-10.516 16.141-26.917 25.894-45.413 30.313-22.267 5.321-45.521 3.649-65.56-7.815-19.553-11.186-33.67-30.557-39.837-52.048-2.678-9.332-3.52-19.195-2.892-28.863.359-5.521-5.575-1.873-5.864 1.775z"/><path d="M428.282 526.901c25.274 12.967 53.888 19.807 82.175 21.321 29.4 1.574 61.93-2.992 86.652-20.074 2.507-1.731 3.904-9.569-.525-6.939-25.911 15.384-55.176 20.269-85.021 18.726-27.365-1.415-55.154-7.776-79.933-19.604-2.783-1.329-6.082 5.168-3.348 6.57z"/><path d="M368.003 491.733c1.521 7.773 8.521 11.522 15.711 7.961 3.178-1.572 5.725-3.72 6.643-6.508 2.82.492 1.885-3.579 1.217-4.96-2.654-5.488-9.937-17.184-17.699-12.203-2.227 1.429-3.863 3.703-4.889 6.273-.052.088-.105.171-.153.269a3.564 3.564 0 0 0-.329 1.114c-.81 2.668-.995 5.535-.501 8.054zm5.583 1.939a.169.169 0 0 0 .01-.057c.03.038.124.163.306.458-.228-.365-.299-.404-.316-.401zm-.062-2.774c.002-.03.009-.064.012-.097.56.187 1.119.164 1.585-.045l3.733 1.588c.408.174.887.435 1.397.686-1.146.442-2.265.743-3.099.886-1.031.174-2.074.316-3.089-.017a1.24 1.24 0 0 1-.468-.29 3.323 3.323 0 0 0-.052-.553c-.065-.449-.101-1.347-.019-2.158zm-43.325 1.819c1.521 7.772 8.522 11.52 15.712 7.961 3.178-1.574 5.723-3.72 6.643-6.509 2.82.492 1.885-3.578 1.217-4.96-2.656-5.488-9.937-17.184-17.699-12.203-2.227 1.427-3.863 3.704-4.889 6.272-.053.089-.104.172-.154.27a3.649 3.649 0 0 0-.33 1.113c-.809 2.668-.994 5.535-.5 8.056zm5.585 1.936a.174.174 0 0 0 .008-.056c.029.038.123.164.307.458-.229-.365-.297-.405-.315-.402zm-.064-2.77c.004-.032.01-.065.013-.099.56.186 1.12.164 1.586-.045l3.733 1.588c.408.175.887.436 1.396.685-1.146.443-2.265.744-3.1.886-1.031.175-2.073.317-3.088-.016-.253-.082-.422-.245-.468-.289.005-.076-.003-.23-.052-.554-.067-.448-.1-1.348-.02-2.156zm-42.936 3.053c1.521 7.772 8.521 11.521 15.711 7.962 3.177-1.574 5.724-3.721 6.642-6.51 2.82.492 1.885-3.577 1.218-4.959-2.655-5.488-9.938-17.184-17.699-12.203-2.227 1.427-3.863 3.703-4.888 6.272-.054.088-.106.171-.154.27a3.587 3.587 0 0 0-.331 1.113c-.808 2.668-.994 5.535-.499 8.055zm5.582 1.937c.004-.005.008-.022.01-.056.029.038.123.164.306.457-.228-.364-.298-.405-.316-.401zm-.061-2.771c.003-.032.009-.064.013-.098.559.186 1.119.163 1.584-.045l3.734 1.588c.406.175.887.435 1.396.685-1.146.443-2.264.743-3.099.886-1.032.175-2.074.317-3.089-.017a1.216 1.216 0 0 1-.468-.289c.005-.075-.004-.229-.052-.553-.067-.448-.1-1.349-.019-2.157zm50.731 33.959c1.521 7.771 8.521 11.521 15.712 7.961 3.177-1.574 5.725-3.721 6.642-6.51 2.822.492 1.885-3.577 1.218-4.959-2.655-5.488-9.937-17.184-17.699-12.203-2.228 1.427-3.864 3.703-4.89 6.273-.051.088-.104.171-.152.269a3.56 3.56 0 0 0-.33 1.113c-.809 2.668-.995 5.535-.501 8.056zm5.584 1.936a.148.148 0 0 0 .01-.056c.028.038.123.164.305.457-.228-.364-.297-.405-.315-.401zm-.062-2.771l.012-.097c.561.186 1.119.163 1.585-.046 1.243.53 2.489 1.059 3.733 1.588.408.175.888.435 1.396.686-1.145.442-2.264.742-3.1.885-1.029.175-2.072.317-3.086-.017a1.22 1.22 0 0 1-.469-.288c.004-.076-.004-.229-.053-.554-.066-.448-.1-1.348-.018-2.157zm-45.664 1.956c1.522 7.773 8.523 11.521 15.713 7.961 3.178-1.574 5.723-3.72 6.643-6.51 2.82.493 1.883-3.577 1.216-4.96-2.655-5.487-9.937-17.183-17.698-12.202-2.228 1.428-3.863 3.704-4.889 6.272-.053.089-.105.173-.154.271-.171.342-.275.72-.33 1.112-.81 2.667-.996 5.535-.501 8.056zm5.585 1.937c.001-.006.007-.023.008-.057.029.039.123.164.307.458-.229-.366-.299-.404-.315-.401zm-.063-2.771l.012-.099c.56.186 1.12.163 1.585-.046l3.733 1.589c.407.173.887.436 1.397.686-1.146.443-2.265.743-3.1.885-1.031.175-2.074.317-3.088-.015a1.239 1.239 0 0 1-.469-.292c.005-.073-.003-.229-.052-.551-.066-.45-.099-1.348-.018-2.157z" fill="#EAA286"/><path d="M273.909 417.621c4.513-40.277 8.438-80.822 16.056-120.659 3.237-16.927 7.301-33.639 13.025-50.691 5.192-15.465 10.915-28.574 20.044-43.708-1.343 2.226.352-.538.529-.815a183.536 183.536 0 0 1 4.898-7.257c2.435-3.446 5.019-6.785 7.694-10.047.619-.755 1.251-1.5 1.883-2.244.157-.185 2.296-2.616.715-.838a167.742 167.742 0 0 1 3.993-4.311 184.72 184.72 0 0 1 9.227-9.02c12.23-11.157 26.838-20.491 42.885-28.245 18.462-8.921 38.735-14.863 58.825-19.242 24.697-5.384 50.17-8.523 75.438-9.208 21.671-.588 43.371 1.648 64.106 8.137 22.929 7.175 44.083 19.106 64.135 32.144 20.479 13.316 39.188 28.505 54.339 47.797 12.883 16.403 22.136 35.034 28.878 54.706 8.779 25.62 13.169 52.504 17.187 79.202 2.655 17.646 4.663 35.39 5.784 53.207 1.116 17.731.924 36.411-4.499 53.477-.765 2.407-1.126 6.469 1.623 7.869 3.436 1.75 7.271-2.553 8.517-5.252 6.591-14.285 10.448-29.569 11.005-45.314.556-15.723-.776-31.361-2.223-47.003-2.291-24.771-6.264-49.505-11.225-73.882-8.728-42.882-25.274-83.265-56.744-114.528-18.379-18.258-40.47-32.909-62.904-45.679-19.726-11.228-40.738-19.853-63.03-24.355-22.582-4.561-45.815-4.212-68.656-2.117-25.198 2.311-50.416 6.309-74.844 12.973-37.05 10.106-72.525 27.594-99.882 54.954-24.829 24.832-41.332 56.776-52.037 89.936-17.986 55.713-21.33 115.309-25.553 173.288-.204 2.792.863 6.51 4.49 5.409 3.487-1.064 5.936-5.248 6.321-8.684z"/><path d="M389.223 411.492a33.778 33.778 0 0 0-1.023-1.256c-4.064-6.146-10.77-10.389-18.499-11.114-4.674-1.007-9.522-.906-14.084.652-3.719 1.271-7.395 3.626-9.718 6.832-10.387 7.549-12.32 22.136-4.189 33.038 10.178 13.646 29.137 14.418 42.388 5.095 11.439-8.048 13.55-22.264 5.125-33.247zm-46.233 6.847a24.621 24.621 0 0 0-.496 2.896 9.848 9.848 0 0 1 .496-2.896zm339.848-13.795a32.766 32.766 0 0 0-1.023-1.255c-4.064-6.146-10.77-10.39-18.499-11.114-4.674-1.007-9.522-.906-14.084.652-3.719 1.271-7.395 3.625-9.718 6.832-10.387 7.548-12.32 22.135-4.189 33.037 10.178 13.646 29.137 14.419 42.388 5.096 11.439-8.049 13.551-22.265 5.125-33.248zm-46.233 6.847a24.657 24.657 0 0 0-.496 2.896 9.892 9.892 0 0 1 .496-2.896z"/><circle fill="#FFF" cx="371.553" cy="417.899" r="9.937"/><circle fill="#FFF" cx="649.646" cy="411.716" r="9.938"/><path d="M717.331 485.647c1.521 7.773 8.521 11.522 15.711 7.961 3.178-1.572 5.725-3.72 6.643-6.508 2.82.492 1.885-3.579 1.217-4.96-2.654-5.488-9.937-17.184-17.699-12.203-2.227 1.429-3.863 3.703-4.889 6.273-.052.088-.105.171-.152.269a3.539 3.539 0 0 0-.33 1.114c-.81 2.668-.995 5.535-.501 8.054zm5.583 1.939a.169.169 0 0 0 .01-.057c.03.038.124.163.306.458-.228-.365-.298-.404-.316-.401zm-.061-2.774c.002-.03.009-.064.012-.097.56.187 1.119.164 1.585-.045l3.733 1.588c.408.174.887.435 1.397.686-1.146.442-2.265.743-3.099.886-1.031.174-2.074.316-3.089-.017a1.24 1.24 0 0 1-.468-.29 3.323 3.323 0 0 0-.052-.553c-.066-.449-.101-1.347-.019-2.158zm-43.326 1.819c1.521 7.772 8.522 11.52 15.712 7.961 3.178-1.574 5.723-3.72 6.643-6.509 2.82.492 1.885-3.578 1.217-4.96-2.656-5.488-9.937-17.184-17.699-12.203-2.227 1.427-3.863 3.704-4.889 6.272-.053.089-.104.172-.154.27a3.649 3.649 0 0 0-.33 1.113c-.809 2.668-.994 5.535-.5 8.056zm5.585 1.936a.147.147 0 0 0 .008-.056c.029.038.123.164.307.458-.229-.365-.297-.405-.315-.402zm-.064-2.77c.004-.032.01-.065.013-.099.56.186 1.12.164 1.586-.045l3.733 1.588c.408.175.887.436 1.396.685-1.146.443-2.265.744-3.1.886-1.031.175-2.074.317-3.088-.016-.253-.082-.422-.245-.468-.289.005-.076-.003-.23-.052-.554-.067-.448-.1-1.348-.02-2.156zm-42.936 3.053c1.521 7.772 8.521 11.521 15.711 7.962 3.177-1.574 5.724-3.721 6.642-6.51 2.821.492 1.885-3.577 1.218-4.959-2.655-5.488-9.938-17.184-17.699-12.203-2.227 1.427-3.863 3.703-4.888 6.272-.054.088-.106.171-.154.27a3.56 3.56 0 0 0-.331 1.113c-.808 2.668-.994 5.535-.499 8.055zm5.582 1.937c.004-.005.008-.022.01-.056.029.038.123.164.306.457-.228-.364-.298-.405-.316-.401zm-.061-2.771c.003-.032.009-.064.013-.098.559.186 1.119.163 1.584-.045l3.734 1.588c.406.175.887.435 1.396.685-1.146.443-2.264.743-3.099.886-1.032.175-2.074.317-3.089-.017a1.216 1.216 0 0 1-.468-.289c.005-.075-.004-.229-.052-.553-.067-.448-.1-1.349-.019-2.157zm50.731 33.959c1.521 7.771 8.521 11.521 15.712 7.961 3.177-1.574 5.725-3.721 6.642-6.51 2.822.492 1.885-3.577 1.218-4.959-2.655-5.488-9.937-17.184-17.699-12.203-2.228 1.427-3.864 3.703-4.889 6.273-.052.088-.105.171-.153.269a3.56 3.56 0 0 0-.33 1.113c-.808 2.668-.995 5.535-.501 8.056zm5.584 1.936a.137.137 0 0 0 .009-.056c.029.038.124.164.306.457-.227-.364-.297-.405-.315-.401zm-.062-2.771l.012-.097c.56.186 1.119.163 1.585-.046 1.243.53 2.489 1.059 3.733 1.588.408.175.887.435 1.396.686-1.145.442-2.264.742-3.1.885-1.029.175-2.072.317-3.086-.017-.254-.081-.424-.244-.47-.288.005-.076-.003-.229-.052-.554-.066-.448-.1-1.348-.018-2.157zm-45.663 1.956c1.521 7.773 8.522 11.521 15.712 7.961 3.178-1.574 5.723-3.72 6.643-6.51 2.82.493 1.883-3.577 1.216-4.96-2.655-5.487-9.937-17.183-17.698-12.202-2.228 1.428-3.863 3.704-4.889 6.272-.053.089-.105.173-.154.271-.171.342-.275.72-.33 1.112-.81 2.667-.995 5.535-.5 8.056zm5.585 1.937c.001-.006.007-.023.008-.057.029.039.123.164.307.458-.229-.366-.3-.404-.315-.401zm-.064-2.771l.012-.099c.56.186 1.12.163 1.585-.046l3.733 1.589c.407.173.887.436 1.397.686-1.146.443-2.265.743-3.1.885-1.031.175-2.074.317-3.088-.015a1.239 1.239 0 0 1-.469-.292c.005-.073-.003-.229-.052-.551-.066-.45-.099-1.348-.018-2.157z" fill="#EAA286"/><path fill="#FF8A0B" d="M392.399 797.617a2.85 2.85 0 0 1 .737.07l-.676-.176c.225.067.422.161.611.301l-.535-.439c.195.16.346.346.469.566l-.347-.646c.108.213.185.434.232.668l-.159-.801c.017.088.031.178.036.268.032.716.349 1.521 1.024 1.865.69.352 1.495.112 2.111-.268.854-.526 1.511-1.359 1.961-2.243.486-.955.633-1.854.662-2.905a4.437 4.437 0 0 0-.389-1.868c-.617-1.385-1.705-2.208-3.242-2.32-.846-.062-1.684.489-2.265 1.038-.8.756-1.389 1.753-1.719 2.8-.278.883-.404 1.906-.093 2.803.229.662.818 1.306 1.582 1.287z"/></svg>