<svg xmlns="http://www.w3.org/2000/svg" xmlns:xlink="http://www.w3.org/1999/xlink" width="1030" height="1030" viewBox="0 0 1030 1030"><defs><path id="a" d="M1020.377 515.001c0 279.115-226.264 505.377-505.377 505.377S9.623 794.114 9.623 515.001 235.887 9.622 515 9.622s505.377 226.266 505.377 505.379z"/></defs><clipPath id="b"><use xlink:href="#a" overflow="visible"/></clipPath><g clip-path="url(#b)"><circle fill="#EF6100" cx="516.036" cy="517.213" r="505.377"/><path fill="#EA2700" d="M64.592 301.339c65.697-60.767 147.472-101.363 226.166-142.394 40.815-21.281 80.746-43.73 120.539-66.854 43.206-25.11 87.47-49.598 136.055-62.561l-2.865-37.722C469.49 62.96 382.01 118.799 296.631 176.392c-43.967 29.658-87.433 59.996-129.215 92.682-20.033 15.672-39.121 32.311-60.043 46.828-21.763 15.1-44.41 28.884-66.553 43.409-20.461 13.421-40.42 27.7-58.93 43.736-7.092 6.145-11.695 17.171-10.986 26.521.549 7.209 5.931 13.974 13.85 11.2 98.167-34.394 184.33-95.652 268.734-154.941 42.164-29.617 84.251-59.421 128.115-86.495 19.997-12.341 40.242-24.097 59.857-37.073 21.043-13.919 41.816-28.239 62.965-42.001 37.357-24.313 76.479-48.122 120.033-59.315-2.239-11.117-4.479-22.232-6.717-33.351-3.625 4.497-11.99 11.267-18.963 15.919-10.002 6.67-20.648 12.364-31.156 18.178-23.029 12.742-45.092 27.219-67.553 40.936-51.307 31.332-102.534 62.797-153.853 94.112-51.11 31.188-102.327 62.211-153.79 92.816-45.842 27.263-92.239 53.613-137.738 81.449C-2.51 405.993-58.916 444.152-106.64 491.58c-6.829 6.784-11.734 16.688-10.986 26.521.559 7.365 5.898 13.78 13.849 11.198 51.945-16.859 99.749-43.608 147.504-69.638 50.274-27.404 102.161-51.78 153.585-76.934 106.723-52.204 213.545-104.201 320.025-156.899 43.588-21.572 87.41-42.348 128.738-68.076 36.969-23.018 73.674-48.996 115.463-62.538-.953-12.575-1.908-25.146-2.863-37.721-32.516 34.457-76.607 55.146-117.221 78.288-50.043 28.516-97.458 62.321-145.693 93.778-48.672 31.741-97.557 62.7-143.463 98.404-36.258 28.201-71.635 58.477-113.408 78.263C166.968 440.29 75.416 461.753 37.56 541.29c-3.076 6.463-5.364 14.316-2.909 21.401 1.744 5.04 7.496 9.095 12.932 6.589 100.087-46.102 193.518-104.332 287.45-161.587 46.519-28.354 93.288-56.325 141.229-82.228 49.123-26.541 100.223-49.029 149.865-74.543 51.182-26.305 101.262-54.686 151.102-83.427-.985-12.997-1.971-25.993-2.959-38.989-89.507 66.279-184.82 124.035-280.238 181.279-95.315 57.186-189.699 115.122-280.916 178.699C148.344 533.63 70.698 560.08 20.878 624.456c-8.811 11.384-11.102 42.221 10.984 31.382 208.227-102.161 408.941-218.58 611.711-330.955 81.105-44.949 162.598-89.213 245.032-131.684-.985-12.996-1.972-25.994-2.959-38.989-200.876 115.724-395.703 241.728-585.56 374.705-76.926 53.879-153.004 108.972-228.347 165.043-9.188 6.835-16.062 17.88-15.161 29.76.736 9.699 9.592 15.234 18.12 9.229 43.634-30.724 91.015-55.527 138.017-80.599 48.865-26.063 96.42-53.966 143.453-83.206 97.824-60.818 193.598-125.836 295.82-179.224 79.943-41.755 155.398-91.653 236.616-131.035l-7.13-35.752c-155.031 139.627-335.512 246.817-513.14 354.633-93.445 56.721-186.838 113.71-276.604 176.167-9.318 6.483-16.043 18.146-15.16 29.758.8 10.539 9.316 14.158 18.119 9.23 202.516-113.372 408.094-221.234 609.108-337.292 82.61-47.694 164.386-96.848 244.782-148.196l-10.985-31.381c-4.995 7.511-10.376 14.716-16.097 21.688-5.041 6.146-10.836 12.267-18.377 19.708-14.123 13.939-29.658 26.809-45.089 38.273-35.397 26.297-73.571 48.73-112.081 70.107-37.449 20.789-75.582 40.312-113.115 60.945-42.606 23.422-83.6 49.658-124.551 75.827-65.342 41.753-130.41 84.796-198.977 121.15-60.085 31.858-124.111 59.162-173.205 107.688-6.838 6.763-11.73 16.707-10.986 26.522.621 8.163 5.797 12.765 13.852 11.198 27.105-5.267 51.927-18.041 75.644-31.759 24.854-14.379 49.684-28.81 74.538-43.192a10601.46 10601.46 0 0 0 152.23-89.771c49.531-29.772 100.037-57.95 150.666-85.822 50.375-27.729 102.133-51.93 153.664-77.322 67.275-33.148 131.117-72.729 197.158-108.185l-10.984-31.383c-5.504 7.192-9.137 10.836-17.041 18.057-7.752 7.076-15.979 13.312-24.516 19.367-18.808 13.338-38.715 25.094-58.618 36.699-43.185 25.18-85.118 51.793-126.224 80.276-91.95 63.715-180.73 131.845-272.466 195.851-62.606 43.68-127.019 85.396-195.644 119.062l2.959 38.99c48.337-27.513 98.725-51.109 148.233-76.384 25.085-12.807 49.888-26.168 74.097-40.571 24.189-14.391 46.896-30.896 69.811-47.201 23.253-16.545 46.578-32.993 70.564-48.466 23.51-15.167 48.084-28.535 72.547-42.078 48.808-27.02 97.926-53.479 146.338-81.21 61.396-35.17 121.518-72.686 178.057-115.307l-10.984-31.382c-59.98 69.826-146.118 119.632-225.496 166.939-91.051 54.269-181.008 110.706-269.408 169.204-41.196 27.26-81.385 55.869-121.204 85.092-39.394 28.913-78.96 57.731-121.233 82.347-9.595 5.584-15.992 18.821-15.16 29.759.84 11.066 9.201 13.475 18.119 9.23 100.961-48.053 196.104-107.057 291.244-165.518 47.797-29.37 95.674-58.625 144.387-86.46 47.674-27.237 96.567-52.016 145.608-76.669 75.025-37.713 150.204-76.055 218.39-125.428l-7.131-35.751c-33.61 33.213-76.09 55.599-117.895 76.72a4038.336 4038.336 0 0 0-133.637 70.689C696.284 642.5 596.453 696.587 500.193 756.758c-39.694 24.813-79.177 50.248-116.167 78.982-32.521 25.263-64.553 53.299-102.399 70.431-8.954 4.054-15.019 11.32-17.994 20.765-1.853 5.884-3.031 24.237 8.274 22.726 45.447-6.074 87.677-22.926 128.725-42.8 43.947-21.275 85.808-46.649 127.57-71.857 92.4-55.778 188.994-103.604 284.818-153.169 30.956-16.012 61.8-31.989 92.062-49.282l89.188-50.968c9.619-5.496 15.986-18.892 15.162-29.759-.805-10.575-9.309-14.111-18.121-9.229-104.188 57.711-206.854 118.117-308.768 179.746C631.4 753.275 580.459 784.533 529.6 815.93c-44.668 27.573-85.542 60.625-129.553 89.188-21.203 13.757-43.262 26.518-67.016 35.328l-1.309 40.958C503.59 874.062 701.895 821 881.025 728.062c47.312-24.547 93.092-52.107 136.094-83.643 9.217-6.758 16.057-17.938 15.159-29.76-.759-9.986-9.485-14.867-18.118-9.229-189.895 124.01-375.484 255.294-574.297 364.989a2771.097 2771.097 0 0 1-59.694 31.968l7.133 35.753c73.349-58.31 162.89-92.968 248.278-129.313 44.957-19.136 89.819-38.741 132.914-61.835 22.314-11.959 44.492-24.162 66.002-37.533 23.461-14.584 46.566-29.751 71.246-42.24l-14.291-26.021c-3.254 5.631 2.838-4.268-.768 1.271-1.092 1.673-2.266 3.292-3.438 4.908-1.197 1.657-2.473 3.257-3.743 4.856-.225.285-4.667 5.495-1.593 2.025-6.42 7.245-13.554 13.844-20.877 20.158-14.345 12.364-31.18 23.663-48.141 34.454-35.631 22.667-73.099 42.25-109.025 64.42-39.857 24.595-76.527 54.362-114.17 82.133-42.477 31.335-86.009 61.829-133.524 85.104-8.503 4.165-17.229 7.841-26.042 11.295.953 12.572 1.908 25.146 2.864 37.721 61.737-53.27 143.856-80.491 220.312-108.335 80.787-29.419 162.883-61.466 226.773-120.972 7.468-6.955 14.516-14.354 21.266-22.004 7.164-8.118 13.979-19.857 10.072-31.133-3.469-10.01-15.477-8.066-21.377-1.381-114.229 129.438-307.648 132.047-443.064 231.178a404.98 404.98 0 0 0-25.289 20.133c-7.098 6.125-11.693 17.185-10.986 26.522.528 6.965 5.991 14.28 13.852 11.197 97.134-38.068 176.129-109.005 260.492-168.247 66.98-47.033 147.924-76.376 205.264-136.568 10.396-10.916 19.23-22.635 26.766-35.684 7.1-12.287 4.061-35.306-14.291-26.021-23.682 11.983-45.959 26.396-68.422 40.475-22.414 14.05-45.567 26.728-68.828 39.299-42.021 22.706-85.976 41.566-129.891 60.243-90.248 38.378-182.23 75.838-259.648 137.379-7.226 5.744-11.672 17.469-10.986 26.521.82 10.785 9.26 13.842 18.12 9.23C584.75 936.47 771.74 806.556 960.965 681.343a11079.5 11079.5 0 0 1 56.154-36.924c-.986-12.996-1.974-25.993-2.959-38.989-164.072 120.319-362.512 176.991-545.047 261.854-48.147 22.383-95.297 46.992-140.35 75.131-8.23 5.139-13.767 14.978-14.994 24.479-1.042 8.054 3.028 20.431 13.685 16.479 48.653-18.046 91.169-48.993 132.91-79.128 45.077-32.542 91.929-61.576 139.313-90.626 101.836-62.436 204.242-123.967 307.943-183.265a7351.688 7351.688 0 0 1 86.65-48.766c-.985-12.996-1.971-25.993-2.959-38.988-51.547 29.457-102.699 59.619-155.438 86.898-53.777 27.817-107.557 55.633-161.336 83.449-43.93 22.723-87.301 45.755-129.696 71.245-41.771 25.118-83.297 50.7-126.522 73.278-41.221 21.529-86.023 41.922-132.55 48.141l-9.721 43.49c47.462-21.483 85.909-55.805 127.179-86.811 44.622-33.523 92.951-62.742 140.678-91.576 96.971-58.587 197.004-111.868 295.91-167.064 73.6-41.076 157.644-70.725 218.6-130.964 6.844-6.76 11.734-16.708 10.988-26.521-.729-9.591-9.636-15.373-18.119-9.229-88.589 64.145-188.592 109.527-285.451 159.373-99.426 51.166-193.672 111.625-289.094 169.731-73.312 44.644-147.525 88.053-225.084 124.969.985 12.997 1.973 25.993 2.959 38.989 49.188-28.641 94.676-62.945 140.543-96.504 46.479-34 94.139-66.235 142.512-97.467 87.035-56.191 175.351-110.046 263.912-163.752 74.69-45.295 149.065-94.295 206.426-161.075 5.669-6.597 9.146-18.316 6.219-26.761-2.553-7.37-11.105-9.217-17.203-4.62-89.628 67.563-188.064 121.632-286.239 175.511-49.329 27.073-98.405 53.916-144.788 85.881-23.352 16.091-46.289 32.776-69.5 49.068-23.091 16.205-47.427 30.418-72.158 43.965-61.564 33.727-125.932 62.054-186.961 96.791-9.623 5.477-15.984 18.906-15.16 29.76.834 10.973 9.219 13.596 18.119 9.23 98.893-48.512 189.042-113.175 277.801-177.872 89.326-65.108 177.656-132.874 271.783-191.008 55.476-34.265 120.369-62.552 160.975-115.647 5.39-7.048 9.266-17.969 6.219-26.763-2.841-8.196-10.652-8.139-17.203-4.62-49.322 26.479-97.433 55.121-146.603 81.871-49.907 27.152-102.032 49.65-152.421 75.84C537.59 565.519 438.344 626.223 337.975 685.06a11441.321 11441.321 0 0 1-97.149 56.283c-30.903 17.713-60.723 37.979-96.278 44.889.953 12.572 1.908 25.146 2.865 37.721 33.756-33.367 76.161-55.738 118.04-77.181 45.688-23.39 90.239-48.038 134.128-74.68 87.599-53.175 171.682-111.858 262.07-160.353 54.957-29.484 110.545-57.98 162.961-91.898 49.711-32.166 98.854-70.181 131.993-120.016 5.024-7.557 9.407-17.564 6.218-26.762-2.699-7.791-10.854-8.675-17.203-4.621-195.874 125.101-399.874 236.655-603.807 347.893-83.528 45.561-167.062 91.117-250.083 137.596l2.959 38.988C265.64 673.978 449.086 574.513 622.931 460.024c94.264-62.08 185.903-128.777 269.846-204.379 7.025-6.327 11.709-17.035 10.988-26.521-.836-11.01-9.213-13.55-18.12-9.23-51.248 24.849-100.296 53.832-149.524 82.396-49.636 28.8-100.664 55.019-150.33 83.749-99.657 57.645-195.211 122.086-293.78 181.536-72.495 43.724-150.876 77.517-220.271 126.384.985 12.996 1.974 25.992 2.959 38.988 185.013-137.684 374.572-269.338 569.659-392.373 80.434-50.727 161.85-99.902 244.247-147.373 9.606-5.535 15.987-18.861 15.161-29.76-.821-10.815-9.25-13.799-18.12-9.229-206.175 106.22-406.212 223.748-609.961 334.452-81.456 44.258-163.553 87.353-246.782 128.186l10.984 31.383c25.777-33.308 66.305-56.533 103.789-77.647 19.876-11.199 39.891-22.157 59.179-34.356 21.948-13.881 42.736-29.654 64.247-44.203 92.357-62.464 188.979-118.262 284.289-176.013 77.076-46.703 153.375-94.857 225.838-148.517 9.197-6.81 16.061-17.9 15.162-29.76-.793-10.436-9.346-14.29-18.121-9.229-48.864 28.18-97.98 55.93-148.08 81.867-49.613 25.688-100.764 48.179-150.023 74.562-96.332 51.593-187.564 112.021-281.984 166.92-45.945 26.715-92.727 52.251-141.018 74.497 3.338 9.33 6.68 18.662 10.022 27.99a169.555 169.555 0 0 1 2.938-5.881c.275-.53 3.927-6.72 1.067-2.127 2.278-3.657 4.847-7.124 7.493-10.519.167-.216 4.737-5.591 1.715-2.197 1.436-1.612 2.948-3.157 4.455-4.703 3.552-3.637 7.364-7.009 11.248-10.285 4.771-4.025 12.173-9.079 19.404-13.619 8.458-5.309 17.279-10.026 26.193-14.511 34.469-17.342 71.242-29.699 106.113-46.215 43.147-20.439 79.836-52.666 117.23-81.818 44.832-34.949 93.141-64.874 140.709-95.896 48.039-31.33 95.283-64.804 145.127-93.205 42.926-24.461 88.732-46.937 123.102-83.359 6.684-7.084 11.75-16.467 10.986-26.521-.559-7.366-5.898-13.776-13.852-11.199-49.908 16.174-93.238 47.806-137.598 74.86-48.915 29.833-102.049 53.269-153.393 78.592-106.677 52.613-213.652 104.618-320.47 156.94-43.396 21.257-86.618 42.541-129.028 65.714-40.359 22.048-80.936 43.731-124.824 57.979l2.863 37.722c72.182-71.732 163.5-120.634 250.486-171.761 103.369-60.754 205.491-123.592 307.752-186.184 31.838-19.49 63.289-39.892 95.545-58.647 28.137-16.359 57.43-30.229 78.301-56.136 6.781-8.413 13.281-38.49-6.715-33.35-47.43 12.188-90.468 38.452-131.139 64.922-21.107 13.74-41.835 28.054-62.84 41.949-19.621 12.977-39.934 24.667-59.938 37.012-88.902 54.875-170.567 120.623-260.035 174.661C76.088 360.719 34.5 382.364-9.664 397.84l2.862 37.721c39.103-33.88 85.59-57.931 127.509-87.985 21.175-15.182 40.631-32.546 61.217-48.488 20.627-15.977 41.773-31.276 63.117-46.279 86.076-60.504 176.019-115.53 257.791-181.999 18.234-14.82 35.916-30.312 52.963-46.484 6.924-6.571 11.72-16.852 10.985-26.521-.585-7.715-5.842-13.337-13.851-11.199-49.303 13.154-94.82 37.832-138.795 63.142-40.957 23.574-81.775 46.956-123.684 68.825-82.873 43.245-167.968 86.252-237.164 150.254-7.748 7.166-13.724 20.591-10.07 31.133 3.688 10.637 15.028 7.252 21.376 1.379z"/></g><path fill="#EAA286" d="M290.442 473.487c-11.269-10.722-28.251-24.944-45.158-18.172-18.998 7.609-29.076 28.955-30.75 48.387-2.047 23.808 7.738 70.72 41.489 61.267 13.843-3.878 24.896-16.456 32.892-27.673 5.554-7.788 11.297-22.003 4.283-30.765-6.982-8.716-18.904.299-23.494 6.739a106.431 106.431 0 0 1-4.29 5.626c-2.719 3.318 3.919-4.293 1.115-1.275a56.033 56.033 0 0 1-2.036 2.043 45.604 45.604 0 0 1-1.999 1.787c-2.717 2.338 4.421-3.272 1.615-1.268-1.188.851-2.459 1.569-3.763 2.22 6.041-3.013 1.991-.961.148-.514-2.559.622 4.485-.469 1.916-.226-.546.054-1.096.044-1.646.033-1.608-.03-5.362-1.242.178.368-1.188-.346-2.305-.907-3.373-1.525-3.448-1.997.331.509-.025.19-.873-.777-1.651-1.656-2.399-2.55-.794-.945-1.496-1.965-2.17-2.997a37.967 37.967 0 0 1-.997-1.648c-1.324-2.278 2.161 4.282.478.781-1.208-2.515-2.138-5.158-2.938-7.83a62.473 62.473 0 0 1-1.072-4.203c-.688-3.052.916 4.878.363 1.795a69.323 69.323 0 0 1-.439-2.897c-.388-2.875-.545-5.777-.545-8.675-.001-3.276-.24 5.758-.085 2.512.034-.695.092-1.387.152-2.079.114-1.344.31-2.68.539-4.012.769-4.507-1.792 6.672-.252 1.376.173-.59.376-1.169.58-1.746 1.118-3.172-2.88 6.729-1.516 3.696 2.3-5.119-2.228 3.223-1.401 2.011 2.842-4.185-4.815 4.581-1.096 1.303-5.277 4.648-4.156 3.098-2.583 2.073 1.259-.815 3.78-1.757-2.514 1.057.957-.427 1.982-.678 3.007-.868-5.911 1.095-2.05.308-.2.445.63.046 1.25.154 1.87.263 2.398.415-4.177-1.304-.496-.104 3.254 1.062 6.272 2.797 9.135 4.639 1.798 1.158 3.504 2.451 5.186 3.768-3.109-2.433.145.148.635.576 1.33 1.155 2.609 2.361 3.883 3.576 8.039 7.648 18.068.594 23.495-6.738 4.957-6.701 12.125-23.299 4.278-30.766zm530.255 9.622c-.945-4.095-2.421-7.949-4.309-11.565.866-5.33.279-10.667-2.854-14.577-3.214-4.011-7.246-4.308-11.167-2.872-6.204-5.458-13.36-9.938-20.669-13.411-11.871-5.64-25.173 10.761-27.884 25.114-4.173 4.036-7.801 8.221-10.586 11.675-5.949 7.374-11.05 22.319-4.284 30.767 7.19 8.976 18.583-.649 23.496-6.74a93.22 93.22 0 0 1 1.597-1.853 64.816 64.816 0 0 1 2.57-2.486c.06 1.649.261 3.203.627 4.603.597 2.28.727 3.04.938 4.99-.79.426-1.731.87-3.066 1.581-5.472 2.915-11.09 10.244-13.949 18.123-13.529 11.058-21.004 40.36-3.82 40.36 5.967 0 11.671-4.437 16.021-10.504 10.589 7.021 22.988 8.339 33.692-3.667a64.348 64.348 0 0 0 10.392-15.869c11.302-15.47 17.721-34.321 13.255-53.669zm-52.247 25.793a8.654 8.654 0 0 0-.176.479c.056-.168.112-.336.171-.501l.005.022z"/><path fill="#61E9FF" d="M755.272 939.074c-8.023-32.4-21.445-63.595-39.964-90.955a209.416 209.416 0 0 0-4.146-8.035c-.197-6.08-2.113-11.453-7.175-12.323-4.578-7.355-9.491-14.42-14.555-21.133-26.629-35.305-62.441-58.611-105.913-67.296-44.648-8.921-91.364-1.566-135.564 6.445-39.496 7.159-82.052 11.924-115.139 36.684-11.628 8.699-20.989 18.983-28.68 30.354a147.518 147.518 0 0 0-14.881 17.152 136.976 136.976 0 0 0-2.635 3.701c-9.461 11.562-18.574 23.432-28.033 34.821-6.04 7.271-10.986 22.396-4.282 30.767 1.998 2.496 4.305 3.551 6.701 3.654-1.196 8.656-1.837 17.411-2.002 26.172-1.847 3.301-2.824 7.099-2.15 10.058-3.009 5.354-3.944 12.378.417 15.331.921.624 1.851 1.234 2.78 1.846.824 3.699 3.163 4.496 5.808 3.709.401.246.804.489 1.207.735 1.505 3.089 4.253 5.127 8.734 5.106 10.754 6.012 21.912 11.278 33.349 15.92-.023.895-.016 1.798.054 2.714.615 8.097 5.87 13.096 13.997 11.317a170.571 170.571 0 0 0 14.403-3.84c19.253 6.056 38.964 10.73 58.581 14.564 43.341 8.474 88.399 12.587 132.511 13.82 53.965 1.509 139.13-4.206 179.771-47.677a570.673 570.673 0 0 0 37.45-15.249c6.812-3.052 11.192-10.946 9.356-18.362zm-46.995-18.858a92.788 92.788 0 0 0 6.034-9.67c.292 2.594.469 5.19.521 7.784a286.564 286.564 0 0 0-6.555 1.886zm-392.22 31.388c9.774-5.274 19.136-11.368 28.069-17.45 1.37-.932 2.719-1.894 4.079-2.843-8.867 7.181-17.263 14.849-24.979 23.178a199.238 199.238 0 0 1-7.169-2.885zm211.615-178.567c-9.989 4.488-19.734 9.567-29.287 14.949 3.881-4.383 6.895-9.453 8.495-15.06 6.939-.109 13.875-.095 20.792.111zm73.142 12.443c-10.69 6.641-21.536 13.02-32.426 19.321 3.911-7.18 7.233-14.731 9.812-22.722.304-.939.558-1.94.762-2.979 7.356 1.685 14.647 3.787 21.852 6.38zM286.211 902.957a249.014 249.014 0 0 0 5.928-2.871 194.386 194.386 0 0 0-7.684 10.303c.535-2.46 1.078-4.918 1.629-7.373.042-.021.085-.039.127-.059zm121.149-16.096c21.622-16.069 45.105-29.674 67.935-43.932 14.356-8.969 28.933-17.648 44.13-24.938a317.242 317.242 0 0 1-4.042 3.571c-9.355 8.121-16.795 13.42-27.967 21.066-11.822 8.093-24.001 15.656-36.232 23.11-25.322 15.427-52.565 30.089-77.845 47.111 11.344-8.659 22.572-17.478 34.021-25.988zm113.516-11.437c-15.653 10.601-31.743 20.51-47.924 30.271 20.815-15.696 42.304-29.266 64.975-42.164a687.224 687.224 0 0 1-17.051 11.893zm-61.557 90.113c-4.189 2.881-7.832 6.854-10.51 11.4a933.55 933.55 0 0 1-13.058-.944 5388.864 5388.864 0 0 0 23.568-10.456zm236.742-89.268a160.786 160.786 0 0 0 5.464-8.161c.644 1.431 1.27 2.86 1.879 4.293a336.068 336.068 0 0 0-7.343 3.868zm-43.871-28.156c3.776-4.4 7.487-8.87 11.119-13.424 1.767-2.213 3.351-4.872 4.594-7.748a214.045 214.045 0 0 1 9.507 9.502 416.825 416.825 0 0 0-25.22 11.67zm-7.831-40.193c-7.3 4.887-14.192 10.296-20.929 15.911 4.65-6.824 8.89-13.927 12.64-21.327a193.04 193.04 0 0 1 8.289 5.416zM515.77 974.005a187.194 187.194 0 0 0-5.413 5.668c-1.141-.03-2.281-.065-3.422-.1a947.662 947.662 0 0 0 8.835-5.568z"/><path fill="#FFE5B8" d="M568.161 732.57a42.749 42.749 0 0 0-2.526-1.061c-1.278-4.32-3.083-8.631-5.433-12.949-5.51-10.121-19.772 1.709-23.495 6.74a40.645 40.645 0 0 0-2.147 3.214c-8.195.821-16.26 2.509-23.426 4.288-15.918 3.949-32.681 13.801-40.502 28.117-.206-.221-.429-.461-.698-.744-1.455-1.54-2.684-3.268-3.83-5.043.748 1.097-1.042-2.118-1.187-2.465-.619-1.453-1.062-2.972-1.507-4.482a37.73 37.73 0 0 0-.19-.633 33.037 33.037 0 0 0-.155-1.266c-.246-1.772-.303-3.57-.367-5.356a74.91 74.91 0 0 0-.021-.559c.055-.327.123-.903.21-1.845.193-2.1.57-4.179.941-6.252 1.561-8.755-3.315-19.848-13.832-16.653-11.223 3.409-17.566 16.073-19.466 26.729-3.258 18.271-1.604 37.857 9.767 53.119 9.396 12.608 25.367 18.481 40.495 19.862 14.454 1.321 28.765-1.636 41.787-7.651a53.398 53.398 0 0 0 5.908-2.134c12.812-5.539 23.83-15.134 30.812-27.243 4.324-5.58 8.031-11.582 10.976-17.872 3.376-7.21 8.009-23.172-2.114-27.861z"/><path fill="#D8724A" d="M386.149 719.106h-.001l-.004.006z"/><path fill="#FFE5B8" d="M783.883 369.857c-3.014-3.426-7.374-4.494-12.264-2.942-.604.192-1.213.388-1.817.579l.002-.104-.388.228c-14.638 4.675-24.086 3.867-33.365 2.126 1.791-5.89 3.165-11.954 4.192-18.103.85-.025 1.735-.306 2.506-.781 3.328-2.052 5.186-6.193 5.1-10.007-.423-18.793-2.835-37.559-7.897-55.464-1.595-7.587-4.017-14.975-7.643-21.595-5.27-12.218-12.031-23.822-20.546-34.497-22.003-27.589-54.717-44.524-88.253-53.586-18.729-5.061-37.952-7.902-57.29-9.248-22.549-1.569-45.274-1.327-67.554 2.77a159.098 159.098 0 0 0-9.115 1.965c-30.57 1.102-60.868 7.072-88.574 20.585a149.91 149.91 0 0 0-7.623 4.005c-13.99 5.272-27.593 11.499-40.452 18.972-17.517 10.183-34.198 23.61-43.864 41.763-7.016 13.175-8.458 27.796-5.026 41.713-3.034 13.042-2.854 26.666.773 39.827-11.361 7.957-22.274 16.629-32.545 26.262-6.115 5.737-10.415 14.175-11.499 22.573-.491 3.8-.25 11.454 3.766 16.023 1.998 2.271 4.674 3.392 7.782 3.266 9.857-.447 20.011-1.648 30.718-3.642-8.592 4.253-16.378 8.681-23.547 13.386-8.494 5.573-14.612 15.548-15.967 26.04-.605 4.68.001 11.645 3.707 15.859 1.973 2.244 4.639 3.432 7.765 3.432 19.269-.081 39.468-1.715 61.378-4.983-24.976 10.754-50.906 22.542-76.05 36.688-9.464 5.321-14.892 16.946-16.074 26.104-.784 6.061.596 11.782 3.69 15.303 2.955 3.365 7.337 4.572 12.384 3.37 20.6-4.885 38.678-9.324 55.285-13.589a1690.557 1690.557 0 0 0-12.116 5.227l-1.068.264-.034.234c-10.553 5.018-18.028 15.55-19.604 27.741-.782 6.069.59 11.807 3.703 15.345 2.964 3.371 7.313 4.564 12.348 3.327l2.164-.542c-.446.23-.989.46-1.433.691l-.414.055v.059c0 .582-2.05 1.163-3.173 1.742-8.97 4.644-14.708 16.661-15.934 26.135-.784 6.073.611 11.823 3.738 15.379 2.966 3.378 7.338 4.557 12.362 3.288a778.057 778.057 0 0 0 32.02-8.838c-7.673 7.467-14.396 23.414-11.78 33.417 1.72 6.583 7.219 9.675 15.367 8.503a429.072 429.072 0 0 0 22.754-3.901c-2.954 4.651-4.914 10.007-5.622 15.486-.583 4.513.111 11.35 3.992 15.764 3.022 3.438 7.382 4.479 12.238 2.866 3.471-1.155 6.944-2.306 10.419-3.448-3.938 5.201-6.546 11.431-7.375 17.854-.799 6.187.428 11.481 3.459 14.929 2.887 3.285 7.273 4.592 12.487 3.747.69-.111 1.38-.259 2.071-.374l.131-.219c7.024-1.146 14.061-2.569 21.107-3.742-3.699 8.271-5.545 17.648-1.985 23.592.986 1.65 2.724 2.974 5.704 3.603 1.199.461 2.607.71 4.238.712l.051.001a851.543 851.543 0 0 0 16.659-.208c10.638.085 21.209.104 31.592-.529.629 5.415 3.34 10.485 7.76 12.438 12.545 5.535 26.606 8.343 41.793 8.343 32.342 0 65.149-12.672 87.011-22.203 41.578-18.129 79.253-41.912 113.774-64.919l.96-.539-.008-.117c9.877-7.061 16.108-19.7 15.242-31.124-.609-8.031-5.52-13.223-12.503-13.223-.45 0-.906.023-1.365.069 11.161-8.934 20.511-18.618 28.337-29.324 5.409-7.401 9.967-18.836 6.537-28.731-1.446-4.17-4.474-6.995-8.369-7.949a269.074 269.074 0 0 0 5.979-5.462c7.836-7.389 12.418-18.488 11.674-28.28-.505-6.647-4.954-13.713-12.203-13.713-1.395 0-2.833.274-4.274.817-2.192.827-4.408 1.655-6.639 2.487 7.678-5.396 13.374-15.097 14.678-25.186.611-4.735-.425-11.757-4.146-15.99-3.051-3.469-7.398-4.426-12.159-2.614-.571.218-1.148.436-1.725.655l.01-.315-1.265.783c-.93.348-1.87.697-2.816 1.043a363.846 363.846 0 0 0 18.841-16.046c6.106-5.575 10.412-14.019 11.521-22.587.652-5.06-.242-11.936-3.717-15.892a9.838 9.838 0 0 0-3.382-2.514 879.216 879.216 0 0 0 18.588-10.58c9.474-5.548 14.884-17.1 16.049-26.089.768-5.934-.782-12.093-3.944-15.696zM375.589 244.165c-8.601 8.296-17.121 16.667-25.769 24.901a130.984 130.984 0 0 1 8.26-11.145c2.005-2.423 4.326-4.937 6.832-7.439 4.979-4.141 10.302-7.887 15.843-11.275-.47.449-.941.896-1.41 1.345a28.594 28.594 0 0 0-3.756 3.613zm-47.316 44.636c4.78-13.182 11.005-25.768 18.984-37.287 3.966-3.623 8.171-6.977 12.556-10.105-12.678 13.423-22.736 29.015-30.002 46.037-.513.45-1.023.905-1.538 1.355zm355.799-64.543c.61.508 1.219 1.017 1.82 1.536a2.845 2.845 0 0 0-1.119-.392c-.234-.381-.462-.766-.701-1.144zm11.842 139.237c.489 1.096.967 2.199 1.448 3.301-1.237.003-2.769.008-4.47.016a80.48 80.48 0 0 0 3.022-3.317zm15.76-108.234a12.454 12.454 0 0 0-.642 4.041 95.89 95.89 0 0 0 .259 6.037c-6.313-13.832-14.988-26.633-24.29-38.554-.03-.037-.061-.064-.092-.102 9.358 8.211 17.71 17.692 24.765 28.578zm-398.271 17.351c.097-.679.223-1.352.349-2.025.198-1.053-.098.275.362-1.468 1.414-5.346 3.494-9.279 6.254-13.293 3.649-5.308 6.953-8.706 12.009-13.225 6.712-5.997 14.175-11.224 22.088-15.85a167.933 167.933 0 0 0-9.479 11.306c-12.573 10.585-23.611 22.834-31.838 37.101l-.052.093c.082-.883.183-1.762.307-2.639zm107.21 48.723l2.898-1.293.145.353c-1.015.313-2.033.624-3.043.94zm97.305-5.686c4.405 2.42 8.712 5.022 12.938 7.7a717.98 717.98 0 0 1 5.076 3.255c-6.348-2.793-12.292-5.671-17.807-8.744a21.054 21.054 0 0 0-.207-2.211zm17.56 144.055c9.117-6.895 17.641-13.974 25.679-21.323a294.485 294.485 0 0 0 15.046 3.109 2756.522 2756.522 0 0 0-40.725 18.214z"/><path fill="#EAA286" d="M557.613 753.333c-16.14 8.933-34.823 12.413-53.145 11.802-18.271-.606-38.713-5.055-49.847-20.822-3.447-4.883-9.234 7.25-8.144 10.55 14.378 43.583 70.635 48.677 106.805 30.564 7.583-3.799 12.357-12.553 13.456-20.748.67-4.983-1.59-15.515-9.125-11.346z"/><path d="M238.911 511.661c5.895-7.25 13.792-12.79 23.41-12.913 10.605-.133 12.956 9.272 16.971 16.97 1.834 3.515 5.877-4.26 6.026-5.56 1.348-11.825-4.609-23.603-17.72-23.835-12.842-.229-24.39 10.628-31.17 20.401-1.771 2.554-.9 9.096 2.483 4.937z"/><path d="M285.734 505.683c-7.645-.315-17.231-.393-22.639 6.006-5.351 6.328-4.297 15.907.291 22.372 1.966 2.771 5.186-4.108 4.599-5.954-.839-2.629-4.746-9.546-1.926-11.982 4.491-3.882 12.269-3.986 17.835-4.281 2.232-.121 4.593-6.049 1.84-6.161zm148.192 239.984c-6.995 22.175-5.705 45.991 11.051 63.438 14.953 15.568 37.364 21.867 58.41 21.613 22.074-.263 44.264-7.828 60.222-23.327 8.295-8.055 14.271-18.907 17.229-30.029 2.431-9.142 4.897-26.316-4.204-32.259-3.445-2.253-6.578 5.736-6.95 7.713-1.698 9.074-.388 19.278-2.896 27.525-.75 2.463-1.706 4.194-4.087 7.552-.983 1.388-4.374 4.73-6.67 6.567-14.224 11.391-32.849 15.775-50.769 16.042-18.029.274-36.917-3.606-51.438-14.776-15.837-12.188-18.994-32.633-15.216-51.17.948-4.64-3.9-1.372-4.682 1.111z"/><path d="M435.133 742.57c-52.119.234-111.296.178-145.779 46.388-15.27 20.461-23.342 44.837-28.088 69.669-4.743 24.813-6.994 51.267-4.181 76.337.586 5.222 5.239-1.183 5.654-3.308 8.565-43.891 5.569-93.02 32.327-131.331 30.261-43.332 91.224-36.491 136.625-46.237 3.675-.787 8.86-11.544 3.442-11.518z"/><path fill="#EAA286" d="M401.238 350.416c-.186-27.674-6.427-55.02-13.246-81.699-.266-1.04-.535-2.08-.804-3.118-.301-1.167-1.261-1.733-2.359-1.918-8.366-1.417-14.357 3.517-16.973 11.271-2.326 6.897-1.081 14.811.113 21.872-1.441 14.229-.986 28.601-.789 42.965-1.867 8.253 4.748 16.331.805 24.157-2.684 5.322-14.91 29.682-17.732 34.982-9.452 13.538-13.868 12.316-27.012 22.335a144.245 144.245 0 0 1-3.636 4.115c-7.672 8.316-16.458 14.355-25.656 20.758-6.423 4.471-16.396 13.615-10.707 22.155 1.39 2.083 4.236 3.197 6.998 3.863a50.565 50.565 0 0 1-3.017-.156c-2.804-.231-6.227 6.791-3.121 7.612 19.436 5.137 38.514-3.121 54.982-13.123 17.694-10.747 34.131-25.558 45.261-43.112 13.524-21.324 17.059-48.181 16.893-72.959zm-23.051-57.683c1.108 3.031 1.679 6.354 2.172 9.256.878 5.179 1.363 10.429 1.642 15.688a12.126 12.126 0 0 0-2.756 2.754c.251-5.078.242-10.177.062-15.274-.126-3.585-.699-7.111-1.351-10.629.069-.598.153-1.195.231-1.795z"/><path d="M576.002 758.6c24.694-1.946 51.116-.731 74.586 7.79 21.137 7.677 37.271 22.593 50.572 40.288 14.177 18.862 22.531 40.636 30.407 62.646 8.019 22.398 14.493 45.622 19.042 68.965 1.379 7.075 10.905-4.848 10.218-9.401-7.529-49.745-16.268-99.844-47.189-141.155-13.625-18.205-33.124-32.215-54.729-39.184-27.605-8.903-55.504-3.857-82.047 6.113-1.005.377-2.649 4.078-.86 3.938zM298.164 881.573c9.635.85 20.898 4.421 25.144 13.983 3.913 8.82 3.724 20.004 3.524 29.468-.231 10.714-1.819 21.412-2.913 32.062-.824 8.017-3.762 21.044 1.236 28.038 5.21 7.288 12.917-9.016 13.43-12.395 1.484-9.782-.307-20.737-.039-30.722.308-11.354.672-22.75-.775-34.046-1.222-9.524-4.79-17.615-11.771-24.275-7.665-7.307-17.831-6.552-27.378-4.213-.616.154-1.398 2.019-.458 2.1z"/><path fill="#08B5F9" d="M680.445 872.358c.149-.296.272-.58.426-.879.712-1.377 1.547-7.263-1.82-5.633-.891.432-1.752.896-2.61 1.367a3.702 3.702 0 0 0-1.455-.248l-2.193.156c-3.755.264-6.185 3.823-7.475 7.554-3.005 2.29-5.963 4.663-9.033 6.96-1.587 1.187-2.84 6.919.265 4.959 2.586-1.632 5.101-3.378 7.654-5.041.094 2.636.811 5.147 1.836 7.6-8.802 31.316 7.751 65.968 12.288 97.634 2.12 14.792 15.855-2.65 16.629-9.73 3.865-35.434 3.827-73.111-14.512-104.699zm-193.864-10.539c-19.158.991-37.66-8.995-51.219-21.826-6.369-6.024-11.65-13.129-16.236-20.567-4.665-7.57-6.61-17.093-11.966-24.097-.765-.968-1.762-1.435-2.995-1.396-.659.092-1.271.244-1.853.425-.701-3.673-1.217-7.321-1.466-10.914-.426-6.149-6.418 1.938-6.543 4.915-.198 4.709.046 9.453.548 14.197-1.864 5.878-1.207 13.409.135 18.307 1.441 5.256 3.734 10.38 6.484 15.288 3.982 15.37 9.341 30.374 17.306 44.175 6.593 11.426 16.294 23.536 30.092 25.742 17.007 2.715 30.781-13.153 38.692-26.062 1.981-3.233 7.926-18.646-.979-18.187z"/><path fill="#EAA286" d="M763.097 386.432c-.146-.558-.288-1.116-.44-1.674-1.391-5.108-6.691-.295-8.475 2.859-.127-1.303-.278-2.603-.424-3.903-6.403 1.972-12.683 4.333-18.793 7.209 9.494-.798 18.866-2.384 28.132-4.491zm4.864 78.367c1.443-20.756 1.795-41.467-1.482-62.097l.447-2.157c.347-1.679-.254-3.65-1.605-4.407a168.567 168.567 0 0 0-1.84-8.216c-10.515 2.397-21.166 4.133-31.983 4.818-.067.004-.119-.016-.177-.026a119.759 119.759 0 0 0-5.136 2.771.722.722 0 0 1-.552.08c.075.693.151 1.387.223 2.08 1.664 16.062 2.937 32.123 3.681 48.191-.407 22.397-.457 44.799-.382 67.203a533.7 533.7 0 0 1-.815 11.263c-1.758 20.767-4.524 41.703-10.364 61.754-6.535 22.434-20.127 42.176-34.087 60.635-15.914 21.042-33.689 42.396-54.686 58.571-.361.277-.729.546-1.093.819-12.647 4.292-24.611 11.664-33.895 20.567a205.968 205.968 0 0 1-30.464 11.631c-20.165 5.926-41.483 8.318-62.395 5.754-3.667-.449-7.108 8.236-2.778 8.825 30.793 4.193 62.771-2.354 91.5-15.435.239 2.053 1.479 3.369 4.482 2.629 9.628-2.371 19.351-7.547 27.541-13.429.342.186.791.222 1.363.047.304 1.052 1.129 1.589 2.78.984 2.935-1.074 5.7-2.53 8.289-4.26.692.635 1.645.886 2.882.389 15.698-6.301 28.512-19.875 39.442-32.347 8.362-9.541 15.834-19.978 22.608-30.782 1.856.324 4.538-1.295 5.825-2.779 14.375-16.585 23.829-36.943 31.73-57.234 6.283-16.133 11.578-32.896 15.469-49.867-.022 6.09.135 12.171.563 18.237.293 4.133 4.192 4.171 6.721 1.808 19.802-18.521 16.046-46.031 13.444-70.443-1.269-11.932-3.07-23.789-5.256-35.577zm-57.929 172.586c1.055-3.345 2.314-6.627 3.575-9.817a196.357 196.357 0 0 1 3.208-7.602 140.907 140.907 0 0 0 5.549-9.23c2.067-3.777 4.121-7.566 6.146-11.369-4.919 12.926-10.74 26.274-18.478 38.018zm52.547-85.25c-.343-13.02.292-26.044 1.283-39.062a376.478 376.478 0 0 1 1.359 19.255c.309 6.999-.077 13.795-2.642 19.807z"/><g fill="#FFBF1F"><path d="M875.833 482.99c-5.521-.968-10.852-2.711-15.884-5.088-9.956-38.237-31.8-72.209-53.003-105.122-3.894-6.044-7.824-12.105-11.706-18.213.124.058.246.121.37.179 5.203 2.393 10.613-2.172 13.526-6.077 3.18 1.92 6.485 3.57 9.925 4.835 11.233 4.132 18.058-13.667 16.193-21.994-2.431-10.869-11.538-20.734-19.08-28.46-5.568-5.701-11.511-11.039-17.277-16.549a668.564 668.564 0 0 0-3.187-7.658 521.54 521.54 0 0 0-30.474-60.741c-9.207-15.697-19.451-31.748-32.922-44.17-4.399-4.056-9.259-7.631-14.397-10.841a101.954 101.954 0 0 0-3.646-3.71c-7.168-6.894-16.286-11.675-25.146-15.993-26.08-12.709-54.311-21.058-82.443-27.817-29.445-7.075-60.243-12.175-90.617-10.466-17.538.986-36.639 4.278-51.046 15.07-9.27 6.944-16.121 15.875-20.354 25.961-35.115-12.141-75.003-8.843-109.374 4.239-21.156 8.053-40.892 19.89-57.35 35.493-18.529 17.569-29.994 39.398-39.277 62.87-7.964 20.138-12.974 41.247-17.676 62.333-2.285 10.242-4.378 20.529-6.462 30.813a2063.06 2063.06 0 0 1-3.038 14.756 995.153 995.153 0 0 1-1.722 8.024l-.019.087c-.281 1.24-.567 2.48-.856 3.72-2.353 10.137-5.003 20.203-8.081 30.145a291.398 291.398 0 0 1-4.759 14.029 198.087 198.087 0 0 1-1.438 3.806c-15.107 18.993-29.322 38.751-40.297 60.471-3.446 6.821-6.276 17.563-.901 24.274 5.155 6.438 14.021 2.375 18.771-2.223 9.049-8.76 17.006-18.235 24.037-28.27 15.655.758 31.508-2.151 45.889-8.461a138.88 138.88 0 0 0 3.646-1.681c-18.468 16.896-24.11-11.746-39.108 8.417-1.737 2.335-23.154 55.915-23.993 60.821-8.844 3.969-8.015 7.906-16.67 12.28-4.128 2.085-6.836 7.721-7.401 12.078-.51 3.947 1.499 10.12 6.752 8.133 16.496-6.236 33.633-10.225 49.886-16.703a52.83 52.83 0 0 1 2.501 1.327c1.368.771 2.666 1.659 3.933 2.584.108.078.303.234.507.402.489.433.967.875 1.438 1.326 2.432 2.329 4.505 5.012 6.345 7.825.432.659.832 1.342 1.232 2.021l.025.042.055.108c.735 1.445 1.376 2.939 1.988 4.442 1.375 3.378 2.383 6.898 3.206 10.448.023.104.042.173.061.257.146.799.273 1.602.399 2.405.275 1.767.471 3.548.644 5.328.383 3.935.47 7.906.606 11.854.064 1.831.061 3.662.038 5.492l-.02.921c.124-3.079.111-2.469-.038 1.832.005.896.004 1.792-.005 2.688l-.002.312c-.036.855-.085 1.712-.137 2.566a131.877 131.877 0 0 1-.577 6.464c-.104.944-1.021 6.688-.144 3.159-.177.71-.631 2.712-.842 3.655-.154.643-.307 1.282-.468 1.922-.992 3.952-2.193 7.85-3.533 11.698-.303.873-.626 1.737-.947 2.604-.092.248-.154.418-.204.559a122.684 122.684 0 0 1-2.304 4.797 112.795 112.795 0 0 1-2.539 4.709c-.194.345-.399.681-.599 1.021-.071.1-.432.68-.775 1.229-5.317 5.14-10.361 10.555-14.858 16.515-2.818 3.732-4.881 9.43-3.272 14.077 1.952 5.635 7.877 3.761 11.243.727a100.392 100.392 0 0 0 6.124-6.026c11.298-10.495 24.028-19.293 36.042-29.007.229 7.02-.365 14.417-1.229 21.717-1.732 14.621-4.097 24.313-8.783 38.51-1.542 4.67-2.074 12.261 3.099 15.032 15.805 8.464 33.591 7.415 50.655 4.316 17.635-3.203 34.547-9.367 51.683-14.456 6.632-1.971 11.295-9.064 13.26-15.301 1.491-4.728 2.224-17.34-6.096-16.747-7.991.569-15.989.321-23.863-1.227-.517-.103-1.032-.226-1.544-.345a69.486 69.486 0 0 1-1.389-.358c-1.562-.455-3.097-1.002-4.617-1.578-3.161-1.202-6.186-2.735-9.083-4.472-1.301-.78-2.554-1.639-3.788-2.521-.566-.403-1.113-.829-1.661-1.254a12.144 12.144 0 0 0-.199-.173c-2.469-2.134-4.713-4.517-6.813-7.009-1.898-2.255-3.606-4.662-5.209-7.131-3.193-14.981-8.872-29.458-15.085-43.647a451.87 451.87 0 0 1-.45-2.544c-2.655-15.34-4.411-30.783-5.974-46.266-1.503-14.888-2.723-29.866-5.368-44.605-1.273-7.094-2.55-14.404-4.803-21.273a95.81 95.81 0 0 0-3.102-8.159l-1.016-1.889c.551 1.01.636 1.065.233.134-.236-.593-.49-1.18-.743-1.766-.066-.152-.14-.3-.207-.451 1.318-4.802 2.365-9.684 3.226-14.571 12.795-11.953 22.304-27.614 29.417-43.52a139.286 139.286 0 0 0 9.822-4.705c6.079-3.196 11.659-8.514 16.576-13.268 4.882-4.716 9.38-9.985 13.328-15.511 7.944-11.115 14.164-23.902 17.256-37.232 5.588-24.092 3.945-48.399.657-72.707-.476-3.516-1.832 22.194-3.797 20.378 6.82-24.105 12.271-48.491 14.637-73.503.203-.184.402-.373.608-.555.713-.542 1.627-1.228 2.181-1.591 1.309-.858 2.673-1.633 4.05-2.378.232-.126.472-.237.707-.357.366-.167.725-.326.987-.433 3.263-1.329 6.655-2.322 10.075-3.149 1.853-.449 3.727-.8 5.605-1.124.232-.04.622-.098 1.007-.153 1.006-.114 2.013-.217 3.02-.308 10.122-.922 29.807-.589 39.915.333 4.841.442.157 1.08 4.965 1.791 8.137 1.206 18.391 16.89 21.49 10.808.18-.354-2.305-3.498-2.126-3.89 4.795-3.167 28.774-34.59 33.947-37.122.443-.199 1.357-.617 1.643-.74.89-.378 1.792-.729 2.692-1.079a79.62 79.62 0 0 1 5.25-1.802c1.671-.519 3.369-.946 5.073-1.337.819-.188 1.646-.343 2.472-.498.329-.062.564-.107.758-.146l.163-.018c3.052-.356 6.132-.39 9.195-.198 1.463.092 2.918.284 4.366.512.714.111 1.42.256 2.128.401.171.036.312.064.441.09.05.015.088.027.152.044 5.772 1.657 7.255 4.578 12.131 8.037.603.427 1.189.876 1.777 1.325.431.329.995 1.004 1.03 1.117.759.691 1.56 1.353 2.284 2.059 2.47 2.405 4.75 5.001 6.932 7.669 4.555 5.569 8.502 11.623 12.158 17.811a208.584 208.584 0 0 1 2.724 4.78c.113.203.393.718.617 1.132.301.57.603 1.14.9 1.712 1.929 3.698 3.734 7.458 5.562 11.207 3.649 7.48 5.174 15.064 8.501 22.693 13.378 30.685 11.602 39.92 29.855 68.177 11.177 17.303 23.255 34.412 35.722 50.81 13.175 17.327 28.835 33.437 47.397 45.032 17.599 10.992 38.757 16.469 59.486 14.767 9.013-.74 16.766-3.258 23.743-9.13 2.483-2.089 4.655-4.729 6.454-7.662 1.911 5.078 3.897 10.128 6.036 15.119 6.857 15.995 15.28 31.913 27.371 44.597a83.13 83.13 0 0 0 4.828 4.671 41.177 41.177 0 0 0-13.556 7.322c1.752 11.212.385 23.093-6.038 32.606-7.991 11.836-21.147 16.821-35.096 15.873-.295.109-.595.201-.89.309a29.944 29.944 0 0 0-1.483 2.439c-2.101-.448-4.508-.05-6.728 1.318-6.885 4.246-10.307 12.503-10.343 20.301-.002.547-.025 1.095-.032 1.643-.034.118-.139 2.511-.148 2.646-.186 2.708-.517 5.403-.887 8.091-.382 2.761-.896 5.502-1.447 8.233l-.091.448c-.062.239-.16.629-.307 1.237a151.795 151.795 0 0 1-1.093 4.179c-1.535 5.668-3.445 11.23-5.538 16.717-.071.187-.709 1.753-.987 2.446a253.824 253.824 0 0 1-1.416 3.255c-1.216 2.739-2.522 5.437-3.858 8.117-2.245 4.51-4.707 8.91-7.285 13.237-.057.063-1.421 2.274-1.563 2.495a194.048 194.048 0 0 1-2.426 3.651c-1.612 2.387-3.306 4.719-5.026 7.028-1.683 2.258-3.443 4.453-5.233 6.624-.116.141-1.193 1.385-1.624 1.892-.705.773-1.416 1.541-2.134 2.302-3.518 3.739-7.288 7.232-11.246 10.501-1.735 1.433-3.294 3.41-4.537 5.652l-2.313-.531c-4.299-.985-8.739 5.019-10.303 8.087-1.609 3.158-4.282 12.67 1.091 14.385 15.177 4.847 30.301 9.988 45.973 13.032 16.469 3.198 32.716 2.396 49.065-1.354 4.569-1.048 8.266-5.918 10.249-9.812 2.002-3.927 4.757-12.749.613-16.476-14.126-12.703-20.368-28.149-22.509-45.287.409-.983.812-1.97 1.205-2.958a63.838 63.838 0 0 0 15.092 13.218c14.837 9.357 33.036 10.487 49.67 6.161 8.99-2.336 17.112-19.633 8.274-26.027-13.653-9.878-23.981-22.373-30.154-37.5 2.167-13.513 1.135-26.973.254-40.691-.47-7.291-.698-13.393.111-20.338.051-.435.739-4.468.561-3.873.391-1.633.897-3.233 1.438-4.822.613-1.646.634-1.692.059-.141.381-.805.783-1.597 1.208-2.378.19-.354.396-.697.595-1.047.107-.153.259-.38.47-.695.299-.434.625-.847.951-1.259-.263.373.331-.238.949-.866.455-.322 1.353-1.001 1.743-1.226l.188-.115c.187-.061.423-.143.754-.264 1.003-.367 2.043-.625 3.08-.873.336-.08 2.25-.389 2.333-.43 2.05-.221 4.147-.319 6.197-.455 13.062-.861 25.678-2.283 37.941-7.179 5.927-2.366 9.962-7.67 11.855-13.68 1.78-5.622 1.689-13.72-5.444-14.97zm-654.948-50.318c-.645.158-1.292.3-1.94.447.658-.786 1.312-1.574 1.968-2.36a23.49 23.49 0 0 0-.028 1.913zm19.557 65.346c-.222.429-.456.851-.691 1.271-.36.574-.978 1.562-1.302 2.025-.68.975-1.411 1.912-2.149 2.842l-.206.261c-1.519 1.628-3.159 3.138-4.848 4.585l-.456.392c-.506.357-1.002.724-1.497 1.096a398.519 398.519 0 0 1 6.184-7.425c.348-.406.604-.708.793-.932.193-.213.45-.499.788-.876a253.214 253.214 0 0 1 3.364-3.669c.165-.177.335-.347.501-.523-.159.316-.318.637-.481.953zm11.747 129.599a134.872 134.872 0 0 0 2.155-6.494l.267-.933c-1.258 2.634-1.045 2.012.638-1.866a132.867 132.867 0 0 0 2-6.708c1.185 2.717 2.376 5.431 3.568 8.144a294.816 294.816 0 0 1-8.628 7.857zm515.744-213.893c.066-.174.132-.349.193-.521.045.154.09.308.133.463-.11.018-.218.039-.326.058zm-47.885 275.041a537.718 537.718 0 0 0 8.496-6.985c-.404 3.309-.004 6.562 2.218 8.72a255.063 255.063 0 0 1-10.714-1.735zm19.838 2.789c3.916-1.988 7.282-6.386 8.951-9.599a83.708 83.708 0 0 0 4.285 10.234 150.38 150.38 0 0 1-13.236-.635zm50.604-68.613c.182-1.24.273-2.486.261-3.719a89.744 89.744 0 0 0-.165-4.407 87.678 87.678 0 0 0 6.178 13.34 41.837 41.837 0 0 1-6.274-5.214z"/><path d="M635.685 304.102c-.008.017-.016.033-.022.05l-.146-.236.168.186zm-91.678-107.81c.837.915 1.104 1.14 1.077 1.056a16.802 16.802 0 0 1-1.077-1.056z"/></g><path fill="#EAA286" d="M410.019 205.421a314.99 314.99 0 0 1 6.812-3.198c.51.67 1.316 1.152 2.508 1.342.695.111 1.39.203 2.084.285-3.826.317-7.628.837-11.404 1.571zm126.412 16.276c-.504.184-1.04.524-1.571.973-.52-.081-1.035-.17-1.554-.254 1.115-.255 2.227-.52 3.335-.796l-.21.077zm40.313 1.773c-.156.498-.29 1.22-.345 2.006-2.774.188-5.563.276-8.36.273 3.052-1.6 5.972-3.245 8.699-4.787.467-.137.933-.273 1.399-.411a11.44 11.44 0 0 0-1.393 2.919zm-3.317-46.885c1.302.141 2.604.294 3.905.453a412.963 412.963 0 0 0-3.854-.094 3.782 3.782 0 0 0-.051-.359zm56.564 35.493c7.462-.319 15.454-.231 22.98 1.165l.273.32c-11.635-.674-23.337 1.544-34.63 4.079-1.549.347-3.095.703-4.641 1.06 5.287-2.436 10.581-4.811 16.018-6.624z"/><path d="M403.615 782.312c-1.485 22.336 7.027 42.879 22.444 58.898 13.969 14.513 41.183 28.209 61.629 23.182 3.002-.742 7.932-10.456 3.586-11.897-9.238-3.062-19.181-3.101-28.534-6.13-9.481-3.07-18.278-8.019-26.245-13.953-17.333-12.912-28.691-30.663-28.32-52.765.065-3.876-4.421.578-4.56 2.665zM647.758 886.49c2.401 8.282 6.095 16.037 9.053 24.135 3.562 9.742 5.489 19.983 7.423 30.141 3.946 20.704 5.489 41.85 8.586 62.688.151 1.032.41 3.243 1.816 3.538.413.088.83.174 1.242.261 2.585.541 4.693-2.01 5.592-4.198 3.742-9.13.384-19.804-.799-29.352-1.459-11.794-3.409-23.528-5.734-35.185-2.296-11.504-5.512-22.75-10.065-33.57-3.36-7.991-7.61-16.803-16.371-19.586-.504-.163-.848.76-.743 1.128z"/><path fill="#EAA286" d="M746.339 459.723a65.22 65.22 0 0 1-4.737-.828c.504-.948.899-1.993 1.178-3.088a39.273 39.273 0 0 0 3.007-4.295c1.431-2.379 2.511-7.876-.717-9.46-16.289-7.995-34.77-8.74-52.151-13.165-3.524-2.022-7.042-4.062-10.515-6.182-15.865-14.568-30.22-30.739-45.205-46.182-6.42-6.614-12.505-12.894-17.384-20.777-4.693-7.584-8.212-15.861-11.486-24.135-6.736-17.019-11.806-34.741-20.271-51.037-8.294-15.968-20.479-29.555-38.387-34.333-5.579-1.488-11.362 9.003-6.352 12.468 8.924 6.174 13.519 17.814 17.761 27.36 5.223 11.755 10.645 23.419 15.438 35.358 10.183 25.358 18.763 51.443 33.404 74.7 9.021 14.33 19.923 27.247 32.836 38.05 8.307 9.317 17.792 17.559 28.665 24.239 19.925 12.242 48.778 22.889 71.975 14.461 3.852-1.4 9.778-12.231 2.941-13.154zm-14.874-5.846c-.23.453-.449.928-.652 1.412-.198-.659-.533-1.241-1.034-1.703-.186-.171-.377-.331-.564-.5.753.253 1.502.517 2.25.791zM573.461 281.525a88.71 88.71 0 0 1 1.359 2.067c2.651 5.049 4.924 10.307 7.076 15.35a237.3 237.3 0 0 1 2.681 6.551c-3.514-8.075-7.266-16.018-11.116-23.968z"/><path d="M684.392 855.518c-13.591 4.976-25.361 12.959-34.554 24.185-1.534 1.871-2.985 4.702-2.206 7.199.997 3.198 4.204.288 5.248-1.146 7.907-10.89 18.561-18.729 30.716-24.325 1.856-.856 3.842-7.029.796-5.913zm72.582-416.158c3.211 59.341-4.605 124.047-26.791 172.938-29.375 64.743-86.093 112.121-155.911 127.05-78.455 16.779-164.663-4.697-220.53-63.526-56.478-59.474-70.527-143.29-63.319-222.341-3.615-2.054-7.309-3.892-11.146-5.339a520.67 520.67 0 0 0-3.059 28.743c-6.11 78.695 11.36 160.717 66.304 219.923 54.794 59.047 139.263 81.486 217.509 68.634 72.694-11.942 133.1-58.375 169.359-121.697 31.557-55.111 45.608-130.105 41.554-199.404a258.911 258.911 0 0 1-13.97-4.981z"/><path d="M376.655 524.454c1.447 7.39 8.104 10.954 14.938 7.568 3.021-1.494 5.442-3.536 6.315-6.187 2.682.468 1.792-3.402 1.157-4.717-2.525-5.217-9.447-16.336-16.827-11.601-2.117 1.358-3.673 3.52-4.647 5.965-.05.083-.101.162-.146.255a3.343 3.343 0 0 0-.314 1.058c-.769 2.537-.945 5.264-.476 7.659zm5.309 1.843c.004-.006.008-.021.01-.053.028.035.118.154.291.435-.218-.348-.284-.384-.301-.382zm-.059-2.636c.002-.03.008-.062.011-.093.532.178 1.065.156 1.507-.043 1.184.504 2.368 1.006 3.55 1.51.388.165.843.413 1.328.651-1.089.421-2.151.706-2.946.842-.98.166-1.972.301-2.936-.015a1.17 1.17 0 0 1-.444-.275 3.31 3.31 0 0 0-.049-.526c-.066-.427-.098-1.28-.021-2.051zm-41.19 1.729c1.447 7.388 8.104 10.951 14.938 7.568 3.02-1.497 5.44-3.536 6.315-6.189 2.681.47 1.791-3.401 1.156-4.714-2.524-5.218-9.447-16.337-16.826-11.603-2.116 1.356-3.674 3.521-4.646 5.964-.051.084-.101.164-.147.256a3.474 3.474 0 0 0-.315 1.059c-.769 2.537-.944 5.262-.475 7.659zm5.31 1.84a.152.152 0 0 0 .009-.053c.027.035.116.155.292.435-.22-.346-.284-.385-.301-.382zm-.061-2.634l.012-.093c.532.176 1.065.155 1.508-.043l3.549 1.51c.388.166.843.413 1.328.65-1.09.422-2.153.707-2.946.843-.981.165-1.972.301-2.937-.016a1.17 1.17 0 0 1-.444-.275 2.788 2.788 0 0 0-.05-.525c-.065-.428-.096-1.282-.02-2.051zm-40.82 2.902c1.447 7.39 8.102 10.953 14.938 7.569 3.02-1.495 5.441-3.537 6.313-6.188 2.682.467 1.792-3.402 1.158-4.716-2.524-5.217-9.447-16.336-16.827-11.601-2.118 1.357-3.673 3.521-4.647 5.963-.05.083-.101.162-.146.255a3.423 3.423 0 0 0-.315 1.061c-.767 2.536-.944 5.263-.474 7.657zm5.308 1.842a.136.136 0 0 0 .01-.053c.028.037.117.156.29.436-.216-.347-.284-.386-.3-.383zm-.059-2.634c.003-.031.009-.062.012-.094.532.178 1.064.155 1.507-.042 1.183.502 2.366 1.006 3.55 1.51.385.166.843.413 1.328.65-1.09.422-2.153.707-2.947.842-.981.166-1.971.302-2.936-.016a1.154 1.154 0 0 1-.445-.274 2.99 2.99 0 0 0-.05-.525c-.065-.427-.097-1.282-.019-2.051zm48.231 32.284c1.447 7.389 8.102 10.953 14.938 7.569 3.02-1.497 5.442-3.538 6.315-6.189 2.681.468 1.791-3.4 1.157-4.715-2.523-5.217-9.447-16.336-16.827-11.601-2.118 1.356-3.673 3.521-4.648 5.963-.049.085-.101.163-.145.256a3.37 3.37 0 0 0-.314 1.06c-.769 2.535-.946 5.262-.476 7.657zm5.309 1.841a.14.14 0 0 0 .009-.053c.028.037.118.157.291.436-.217-.347-.283-.386-.3-.383zm-.06-2.634l.011-.092c.533.176 1.064.154 1.508-.044 1.182.504 2.367 1.007 3.55 1.51.388.166.843.413 1.327.65-1.088.422-2.152.707-2.947.843-.978.165-1.97.302-2.935-.017a1.163 1.163 0 0 1-.445-.274 2.998 2.998 0 0 0-.048-.525c-.067-.427-.099-1.281-.021-2.051zm-43.412 1.86c1.446 7.39 8.102 10.953 14.938 7.568 3.021-1.496 5.441-3.537 6.314-6.189 2.682.469 1.791-3.4 1.156-4.715-2.523-5.217-9.447-16.336-16.826-11.601-2.117 1.357-3.673 3.521-4.647 5.963-.051.085-.102.164-.146.258a3.424 3.424 0 0 0-.315 1.058c-.768 2.535-.944 5.261-.474 7.658zm5.31 1.841c.001-.006.007-.022.008-.055.028.038.117.156.291.437-.217-.347-.285-.385-.299-.382zm-.06-2.635c.002-.029.008-.062.011-.093.532.177 1.064.154 1.507-.043 1.183.504 2.366 1.006 3.549 1.511.388.164.843.413 1.329.651-1.09.421-2.153.705-2.947.84-.981.166-1.972.303-2.936-.014a1.169 1.169 0 0 1-.445-.277 2.931 2.931 0 0 0-.049-.523c-.065-.428-.097-1.282-.019-2.052zm383.056-40.595c1.446 7.391 8.102 10.954 14.937 7.569 3.021-1.495 5.442-3.536 6.314-6.188 2.683.469 1.792-3.402 1.157-4.715-2.524-5.218-9.446-16.336-16.826-11.602-2.118 1.358-3.674 3.521-4.647 5.964-.05.083-.101.162-.146.255a3.353 3.353 0 0 0-.313 1.06c-.77 2.536-.947 5.261-.476 7.657zm5.307 1.844a.155.155 0 0 0 .009-.055c.029.036.117.156.29.436-.215-.348-.282-.385-.299-.381zm-.058-2.637c.002-.029.008-.062.011-.093.532.178 1.064.155 1.508-.042 1.183.503 2.366 1.005 3.548 1.509.389.166.845.413 1.33.651-1.09.422-2.153.706-2.946.842-.98.166-1.973.302-2.937-.014a1.179 1.179 0 0 1-.444-.277 3.232 3.232 0 0 0-.05-.524c-.065-.429-.098-1.282-.02-2.052zm-41.19 1.729c1.445 7.389 8.102 10.951 14.938 7.567 3.021-1.495 5.441-3.536 6.314-6.188 2.682.468 1.792-3.401 1.157-4.715-2.524-5.218-9.447-16.337-16.826-11.602-2.117 1.357-3.673 3.521-4.648 5.963-.05.084-.099.163-.146.255a3.433 3.433 0 0 0-.315 1.06c-.769 2.537-.945 5.263-.474 7.66zm5.309 1.84a.155.155 0 0 0 .009-.054c.027.037.116.156.291.436-.217-.347-.283-.386-.3-.382zm-.061-2.634c.003-.03.01-.062.013-.093.531.176 1.064.155 1.507-.042 1.183.501 2.365 1.005 3.55 1.509.388.166.843.413 1.329.65-1.092.422-2.154.707-2.947.842-.981.166-1.972.303-2.937-.015a1.149 1.149 0 0 1-.444-.275 2.794 2.794 0 0 0-.05-.525c-.065-.427-.097-1.282-.021-2.051zm-40.819 2.903c1.445 7.39 8.102 10.953 14.937 7.568 3.021-1.496 5.441-3.536 6.314-6.188 2.682.468 1.792-3.401 1.157-4.715-2.523-5.218-9.446-16.337-16.827-11.602-2.117 1.356-3.672 3.52-4.646 5.963-.051.083-.102.163-.146.256a3.411 3.411 0 0 0-.314 1.058c-.77 2.539-.946 5.264-.475 7.66zm5.307 1.842a.169.169 0 0 0 .01-.053c.027.036.117.156.29.435-.216-.348-.283-.385-.3-.382zm-.059-2.635c.003-.031.009-.062.013-.093.531.176 1.064.155 1.506-.044l3.55 1.51c.388.166.844.414 1.329.651-1.092.421-2.153.707-2.947.842-.981.167-1.972.302-2.936-.015a1.155 1.155 0 0 1-.445-.275 2.99 2.99 0 0 0-.05-.525c-.064-.427-.097-1.283-.02-2.051zm48.23 32.284c1.447 7.39 8.103 10.953 14.938 7.568 3.021-1.495 5.442-3.536 6.314-6.188 2.683.467 1.792-3.401 1.157-4.715-2.524-5.218-9.445-16.337-16.826-11.603-2.118 1.357-3.673 3.521-4.648 5.965-.049.084-.101.163-.146.256a3.382 3.382 0 0 0-.312 1.058c-.768 2.537-.945 5.264-.477 7.659zm5.31 1.842a.152.152 0 0 0 .009-.053c.027.036.117.156.29.435-.215-.347-.282-.386-.299-.382zm-.06-2.635l.011-.093c.533.178 1.064.155 1.508-.043 1.182.505 2.366 1.007 3.55 1.511.388.165.844.412 1.327.65-1.088.421-2.152.706-2.946.842-.979.166-1.97.302-2.936-.016-.241-.077-.401-.232-.445-.274a2.998 2.998 0 0 0-.05-.526c-.064-.427-.097-1.28-.019-2.051zm-43.412 1.86c1.446 7.39 8.103 10.954 14.938 7.568 3.021-1.495 5.44-3.536 6.314-6.188 2.681.469 1.79-3.401 1.155-4.715-2.523-5.217-9.447-16.336-16.826-11.602-2.117 1.357-3.673 3.521-4.646 5.963-.051.084-.102.165-.147.259a3.402 3.402 0 0 0-.314 1.056c-.768 2.536-.943 5.262-.474 7.659zm5.31 1.842c.001-.006.007-.022.008-.055.027.037.117.156.291.436-.218-.348-.284-.385-.299-.381zm-.061-2.635c.003-.03.009-.062.012-.094.531.177 1.064.155 1.507-.043l3.549 1.511c.388.164.843.413 1.329.65-1.09.423-2.152.707-2.946.842-.981.166-1.973.302-2.937-.014-.24-.079-.4-.234-.445-.278.005-.068-.003-.217-.05-.523-.064-.428-.096-1.282-.019-2.051z" fill="#EAA286"/><path fill="#FF7C24" d="M894.548 507.093c-27.257-28.186-55.181-55.763-67.113-94.107.237-1.966-.476-3.622-2.763-3.271-19.976 3.06-40.188 1.831-59.984-1.896-19.536-3.678-39.49-9.215-57.578-17.536-15.457-7.111-30.205-16.041-42.297-28.058-6.623-6.58-14.103-15.874-23.084-20.459.708-.647 1.326-1.452 1.832-2.351 7.82 5.849 16.845 9.912 27.003 12.223 29.779 6.774 60.515 5.553 90.808 4.784 25.863-.656 52.066-1.188 77.691 2.887 4.677.744 7.632-7.667 5.562-10.912-3.376-5.29-7.543-9.921-11.655-14.599.597-1.778.758-3.654.114-5.096-2.449-5.48-7.23-7.728-12.497-9.892-7.032-2.889-14.812-4.195-22.328-4.94-17.216-1.708-34.64-1.267-51.914-1.018-17.717.257-35.746-1.627-52.906-6.138-18.862-4.958-35.624-14.601-50.21-27.446-16.692-14.702-29.961-31.651-43.072-49.492-12.945-17.618-26.562-35.18-44.332-48.215-14.982-10.99-35.581-19.572-53.492-10.928-5.825 2.811-10.647 7.108-14.889 12.086-16.706 7.636-28.417 24.784-30.027 43.597-.317 3.71 2.73 5.852 5.637 2.872 10.707-10.968 17.337-25.047 27.111-36.67a39.68 39.68 0 0 1 8.56-1.905c23.065-2.52 37.75 16.02 51.233 31.847 8.665 10.173 16.841 20.778 24.746 31.59 5.209 14.349 11.016 28.477 18.034 42.049 3.436 6.644 7.382 13.797 12.011 20.531a6.116 6.116 0 0 0-.511 1.302c-2.584 10.367 1.125 17.592 7.462 25.566 6.2 7.802 13.529 14.614 19.919 22.25 8.717 10.417 19.644 18.834 28.988 28.673 8.389 8.829 15.49 18.204 25.027 25.945 8.984 7.291 19.266 12.796 30.19 16.543 10.144 3.48 20.854 4.944 31.41 6.583 20.001 3.105 44.519 5.255 59.314 20.705 12.295 12.837 16.887 34.867 10.486 51.475-.523 1.36-.584 5.065 1.776 4.88 23.754-1.866 47.449-4.711 71.307-4.764 3.179-.008 6.953-6.086 4.431-8.695zM821.15 343.436c.06.078.122.154.183.231-.204-.026-.406-.057-.61-.083.142-.048.285-.098.427-.148zm-13.146-13.169c1.515.244 3.081.544 4.623.948-2.375.02-4.731-.104-6.958-.23-7.348-.418-14.672-1.532-21.948-2.788 8.099.237 16.286.787 24.283 2.07zm-41.4 10.896c-1.567.008-3.136.018-4.705.032a25.177 25.177 0 0 0-1.392-1.067c2.031.328 4.064.677 6.097 1.035z"/><path fill="#FF7C24" d="M567.42 236.612c-3.946-16.211-15.671-29.731-31.171-35.908a46.868 46.868 0 0 0-3.448-1.215c-2.871-3.819-6.47-7.013-11.642-8.9-12.199-4.452-23.124 2.61-32.298 11.014-4.728 3.054-8.902 7.298-12.291 12.425-.927 1.401-1.791 3.035-2.25 4.74a54.541 54.541 0 0 0-7.936 5.652c-1.232 1.054-2.702 3.249-3.611 5.625-1.746.515-3.521.953-5.229 1.397-5.531-4.881-12.769-7.148-19.86-8.834-9.033-2.148-18.567-2.743-27.804-1.914-1.707.153-3.38.383-5.017.695-.09-.008-.172-.025-.267-.029a41.409 41.409 0 0 0-2.797-.043c-1.259-.951-2.865-1.458-4.866-1.262-3.305.325-6.35 1.906-9.148 3.873-7.004 2.577-13.229 7.007-17.546 13.055a59.31 59.31 0 0 0-2.369.671c-3.761 1.157-8.417 8.667-7.483 13.196-2.367 4.05-3.235 9.452 1.337 9.668.735.035 1.471.054 2.206.077.19 2.056.721 4.095 1.677 6.069.876 1.809 2.666 3.509 4.897 2.496 6.281-2.851 12.302-6.078 18.005-9.83 8.721-1.089 17.379-2.767 25.892-4.749 1.069-.249 2.188-1.114 3.187-2.296 2.659-.277 5.316-.564 7.969-.866 8.097-.176 16.106-1.057 23.92-3.546 4.618-.9 9.205-1.942 13.731-3.191 2.377-.655 4.591-1.625 6.679-2.808 10.294 4.46 24.152 2.867 33.434-1.951 1.115-.579 2.152-1.521 3.04-2.66 17.743 2.388 35.828 10.758 52.823 12.756 6.056.713 9.328-8.916 8.236-13.407zm-140.988-.451c-6.957-.08-13.979-.645-20.997-1.087.702-.052 1.401-.097 2.095-.135 6.298-.349 12.667.146 18.902 1.222z"/><path fill="#FF8A0B" d="M399.788 815.456c.25-.007.487.012.73.073l-.675-.176c.22.07.412.167.594.31l-.534-.439c.167.146.297.312.406.505l-.347-.645c.1.194.171.396.217.608l-.159-.801c.018.092.034.185.038.277.034.716.348 1.521 1.024 1.865.69.352 1.495.112 2.111-.268.854-.526 1.511-1.359 1.961-2.243.487-.956.631-1.853.663-2.905a4.33 4.33 0 0 0-.377-1.818c-.599-1.353-1.656-2.156-3.156-2.271-.844-.064-1.686.491-2.265 1.038-.8.756-1.39 1.753-1.719 2.8-.278.883-.404 1.907-.093 2.803.228.662.817 1.307 1.581 1.287z"/><path d="M468.185 233.223c9.526-16.108 24.491-40.188 46.109-39.54 17.747.532 31.012 18.643 39.786 31.959 14.831 22.509 25.128 48.188 34.355 73.395 4.727 12.91 8.673 26.113 14.041 38.779 4.443 10.483 10.024 20.557 16.253 30.078 39.784 60.813 117.785 93.11 189.259 82.297 2.787-.422 5.741-8.012 1.827-8.172-22.984-.938-45.667-1.975-68.227-6.923a201.222 201.222 0 0 1-60.572-24.145c-18.593-11.213-34.783-25.949-48.046-43.111-15.017-19.431-24.094-41.305-32.406-64.191-8.305-22.865-17.385-45.572-28.799-67.083-8.375-15.782-18.146-31.779-32.219-43.131-10.41-8.397-23.578-11.726-36.156-6.289-18.319 7.918-30.097 27.286-39.13 44.075-2.119 3.941 1.712 5.744 3.925 2.002z"/><path d="M446.049 150.581c6.095-15.958 17.428-28.637 33.119-35.597 15.899-7.052 33.822-8.155 50.966-7.229 38.736 2.092 76.563 14.592 112.944 27.213 18.321 6.356 37.235 11.984 54.469 20.967 18.65 9.722 34.754 23.34 48.384 39.279 26.76 31.294 43.393 69.648 63.685 105.101 11.794 20.606 24.847 41.447 41.844 58.2 3.083 3.039 7.659-4.528 5.383-7.268-13.855-16.677-26.269-34.05-37.154-52.815-10.515-18.126-19.812-36.924-29.787-55.345-19.51-36.023-42.452-70.271-78.021-92.157-17.347-10.674-36.707-16.585-55.799-23.247-17.751-6.193-35.584-12.132-53.715-17.127-35.249-9.71-74.941-18.166-111.055-8.041-24.277 6.806-41.947 24.33-50.554 47.821-1.9 5.184 3.812 4.117 5.291.245z"/><path d="M848.984 353.593c-13.096 2.266-26.235-.338-38.977-3.463-3.797-.931-7.702 8.754-2.99 9.502 13.908 2.208 26.803 4.979 40.891 2.24 3.378-.656 5.812-9.098 1.076-8.279z"/><path fill="#FF7C24" d="M463.787 223.171c-14.044-9.775-22.417-25.394-33.979-37.654-5.439-5.769-11.836-10.775-19.35-13.481-8.782-3.164-18.176-2.483-27.072-.21-17.013 4.347-28.726 19.255-36.165 34.271-8.584 17.324-12.815 36.572-16.748 55.375-3.529 16.876-6.676 33.714-12.619 49.961-6.516 17.812-16.313 34.633-29.143 48.639-23.978 26.175-57.174 39.755-91.843 43.408.197-1.485-.01-2.948-.934-4.103-2.155-2.691-5.883.075-7.291 2.09a188.72 188.72 0 0 1-1.997 2.804c-.808.04-1.616.083-2.425.112-2.746.101-5.423 6.094-3.047 7.157-9.163 11.864-18.942 23.558-24.848 37.287-.842 1.956-2.585 7.338.641 8.448 5.355 1.846 11.034 3.041 16.131 5.529 4.34 2.119 8.908 3.712 13.551 5.024 9.125 2.576 18.516 3.752 27.987 3.789 19.839.079 39.82-5.378 57.77-13.54 36.567-16.625 69.184-46.391 83.228-84.668 14.188-38.672 1.885-81.666 12.408-121.112 2.377-8.915 6.292-16.982 13.25-23.188 6.358-5.668 15.077-8.551 23.412-9.513 18.755-2.165 38.093 3.963 53.784 13.979 4.024 2.57 9.329-7.599 5.299-10.404z"/><path d="M808.395 363.395c11.039 28.249 20.871 57.066 34.422 84.255 6.533 13.108 14.17 25.71 23.03 37.377 8.543 11.25 19.229 24.141 31.738 31.067 3.344 1.852 7.357-5.733 5.034-8.147-5.129-5.332-11.074-9.857-16.331-15.093-5.101-5.08-9.79-10.559-14.216-16.23-8.948-11.467-16.341-24.035-22.993-36.942-13.599-26.383-23.559-54.464-34.743-81.905-1.759-4.316-7.164 2.488-5.941 5.618z"/><path d="M897.476 507.625c-11.278 2.564-22.61 4.926-34.062 6.587-6.562.952-13.191 1.455-19.817 1.655-6.438.194-12.88-.697-19.292-.405-3.178.145-8.062 8.394-3.895 9.502 11.97 3.187 25.929 1.043 38.017-.646 12.864-1.799 25.452-5.023 37.973-8.414 3.269-.885 5.762-9.345 1.076-8.279z"/><path d="M819.778 521.228c-5.147 26.174-8.278 52.956-2.984 79.36 5.272 26.294 20.202 49.185 36.913 69.657l3.967-9.601c-26.15 5.458-54.344-3.123-77.666-14.748-4.706-2.346-7.922 6.344-7.084 9.62 5.945 23.223 18.665 44.117 31.757 63.942l4.61-11.156c-24.412 4.777-49.467 7.541-74.345 7.799-12.546.13-25.742-.302-37.821-4.015-7.407-2.277-16.714-7.208-17.473-15.638-.616-6.846-8.257-.08-8.457 3.894-.582 11.526 5.354 18.87 15.773 23.175 12.292 5.078 26.431 5.724 39.551 5.82 27.157.2 54.632-3.689 81.215-9.068 4.082-.826 6.877-7.773 4.61-11.156-12.807-19.111-25.108-39.11-30.997-61.565l-7.084 9.62c24.954 12.211 54.411 19.646 82.07 13.775 3.253-.691 6.247-6.829 3.967-9.601-15.93-19.367-29.782-40.508-35.8-65.133-6.132-25.09-2.833-51.672 1.271-76.796.258-1.573-.579-3.578-2.489-2.998-2.043.622-3.127 2.892-3.504 4.813zM240.34 458.877c38.079-7.091 77.608-18.385 103.804-48.777 23.488-27.251 27.566-64.193 26.407-98.771-.431-12.866-1.123-25.728-.835-38.605.246-11.003 1.471-23.995 5.189-33.047 3.562-8.672 9.137-14.46 19.726-16.521 15.673-3.049 33.143 4.428 47.009 10.754 6.43 2.934 12.534 6.558 19.056 9.267 4.643 1.929 9.326-7.666 5.349-10.497-9.422-6.707-20.88-11.405-31.707-15.383-7.835-2.879-16.094-5.051-24.419-5.828-11.703-1.093-23.505 1.818-31.988 10.258-17.623 17.535-17.149 47.374-16.669 70.361.638 30.578 4.249 61.319-8.275 90.306-15.571 36.04-52.717 52.607-88.388 62.53-7.661 2.131-15.406 3.95-23.176 5.632-3.368.728-5.833 9.205-1.083 8.321z"/><path d="M445.468 146.719c-8.753-12.114-24.322-15.448-38.465-15.737-19.417-.397-39.021 4.041-57.412 9.907-19.436 6.2-38.365 14.745-55.547 25.771-16.263 10.437-29.202 23.08-38.277 40.271-9.791 18.547-15.332 39.216-20.803 59.346-5.544 20.4-11.499 40.286-18.929 60.072-17.198 45.793-35.525 92.309-65.845 131.236-1.121 1.439-3.282 6.899-.29 7.856 17.876 5.72 36.776 5.63 55.162 8.593 4.155.67 8.114-9.018 3.184-10.113-17.592-3.909-35.926-2.937-53.23-8.519l-.29 7.856c34.162-43.721 54.304-96.89 73.439-148.425 8.655-23.309 13.654-47.821 20.942-71.56 6.146-20.016 13.713-40.662 29.608-55.015 23.257-21.001 55.194-33.994 85.172-41.707 14.806-3.809 29.756-5.771 45.04-5.326 11.143.325 24.178 2.981 32.414 11.067 2.41 2.37 5.689-3.41 4.127-5.573zM233.86 727.026c26.865 4.521 53.654 9.272 81.013 8.741 26.223-.508 54.646-6.799 72.06-27.885 1.458-1.765 2.401-4.756 1.625-6.995-.914-2.637-4.028-2.081-5.586-.361-17.247 19.04-43.986 22.696-68.347 23.409-26.114.765-52.202-2.677-78.132-5.274-3.459-.347-6.751 7.672-2.633 8.365zm133.928-458.612c28.975-5.235 57.604-11.736 86.863-15.407 19.324-2.425 38.886-3.893 58.369-3.404 18.299.458 35.755 3.83 53.42 8.354 3.595.92 7.234-7.46 3.86-9.417-15.334-8.896-34.886-10.267-52.205-10.799-19.963-.613-39.887 1.251-59.633 4.039-30.381 4.289-59.79 12.263-89.669 18.909-3.112.691-5.431 8.524-1.005 7.725z"/><path fill="#FFBF1F" d="M239.494 634.239c6.197-32.7 1.096-65.567-4.691-97.903-7.154 5.556-14.308 11.111-21.461 16.668.683 3.177-.363-1.98.051.249.184.989.349 1.981.513 2.974a303.18 303.18 0 0 1 1.012 6.69c.785 5.494 1.489 11.001 2.242 16.5 1.621 11.839 3.43 23.707 6.343 35.307 2.265 9.018 5.475 18.075 12.838 24.099 8.156 6.672 19.868-1.583 25.531-7.519 5.076-5.32 9.52-13.808 6.907-21.349-2.384-6.883-10.599-5.51-14.659-.948-.983 1.104-5.743 5.003-1.748 2.081-.94.688-3.522 1.629.267.09-1.002.407-3.208.436.365.145-.459.037-.919-.019-1.375-.076 2.915.366 1.494.465.409-.069-.797-.393-2.393-1.935.054.238-.547-.485-1.018-1.056-1.479-1.621-.38-.466-.713-.969-1.047-1.468-1.67-2.493.621 1.396-.298-.406-.924-1.813-1.655-3.725-2.343-5.637-1.54-4.275-2.628-8.714-3.62-13.144-.217-.971-.418-1.944-.62-2.918.605 2.918-.261-1.403-.355-1.912a341.944 341.944 0 0 1-1.404-8.237c-.823-5.129-1.546-10.273-2.266-15.418-1.28-9.158-2.473-18.338-4.466-27.377-1.214-5.503-7.606-5.408-11.407-3.063-5.806 3.58-11.359 12.657-10.054 19.731 5.484 29.724 11.521 60.125 6.716 90.356-.836 5.259 1.921 11.972 8.325 10.026 6.803-2.065 10.503-9.67 11.72-16.089z"/><path d="M754.416 468.836c12.659-7.498 31.542-14.734 44.539-3.781 10.558 8.896 12.826 25.026 12.679 37.979-.154 13.586-4.022 28.739-13.26 39.046-11.877 13.252-26.326 8.35-41.062 4.371-4.482-1.211-10.365 9.078-6.735 12.09 15.229 12.649 36.315 8.411 49.56-4.625 13.564-13.354 19.769-34.246 20.781-52.783.876-16.021-1.627-35.825-15.162-46.442-16.768-13.153-37.779.114-51.485 11.39-.808.662-1.653 3.82.145 2.755zm-550.817 0c-8.784 35.929-31.642 69.603-62.901 89.667-2.03 1.303-6.397 9.788-1.288 9.805 27.595.088 55.073.226 82.581-2.406 4.786-.458 8.668-11.805 3.555-11.295-27.491 2.744-55.248 3.21-82.861 3.299l-1.288 9.805c34.014-22.074 59.252-59.156 68.31-98.593 1.401-6.106-4.929-5.105-6.108-.282z"/><path d="M220.393 568.041c-.255 21.825-.229 43.842-4.193 65.381-1.844 10.017-4.848 19.844-9.092 29.105-2.104 4.592-4.567 9.03-7.293 13.28-3.149 4.909-7.249 9.229-10.112 14.29-1.934 3.417-.005 7.846 3.873 4.779 4.361-3.45 7.603-8.961 10.637-13.568 3.317-5.034 6.24-10.316 8.816-15.765 4.75-10.046 7.957-20.7 10.187-31.564 4.715-22.975 4.202-46.775 3.926-70.101-.025-2.117-2-2.905-3.674-1.872-2.057 1.269-3.048 3.713-3.075 6.035z"/><path d="M191.835 695.734c26.958-8.519 52.804-20.277 73.211-40.331l-4.966-4.038c-2.803 12.525-5.646 25.041-9.422 37.316-3.875 12.6-9.73 23.792-15.418 35.594-2.141 4.442 1.235 8.71 4.858 4.009 8.338-10.818 13.251-24.72 17.391-37.6 4.244-13.204 7.147-26.811 10.135-40.339.816-3.698-2.795-5.131-5.269-2.685-19.284 19.061-44.158 30.567-69.41 39.538-3.242 1.153-5.769 10.009-1.11 8.536z"/><path fill="#EAA286" d="M495.138 723.875c10.019 1.922 19.714 1.278 29.583-1.123 5.167-1.258 10.073-3.393 14.785-5.816.341-.174.85-.494 1.446-.893.718-.229 1.437-.457 2.148-.701 7.06-2.437 11.67-5.223 14.504-10.725.479-.704.927-1.427 1.262-2.224 1.19-2.817 4.217-12.029-1.771-12.103-3.572-.042-6.105 2.391-8.711 4.604-21.258 5.778-45.745 5.433-62.994-9.799-4.958-4.378-11.391 2.056-13.833 9.152a60.182 60.182 0 0 1-12.04-14.857c-1.844-3.201-6.742 4.493-5.726 6.981 7.398 18.058 21.493 33.697 41.347 37.504z"/><path d="M454.727 681.376c14.994 12.66 30.471 21.435 49.933 24.832 16.49 2.876 39.043.812 51.806-10.886 1.841-1.688 7.303-13.729 1.006-13.17-7.547.672-14.802 5.66-22.183 7.797-8.339 2.414-17.328 2.557-25.917 2.021-17.744-1.11-36.195-8.034-51.94-15.979-2.082-1.048-4.353 3.993-2.705 5.385z"/><path fill="#FFF" d="M476.686 605.332a62.145 62.145 0 0 1 5.4-1.296 25.995 25.995 0 0 0 5.56 3.843l-.031-.005c12.088 2.397 24.424 3.461 36.739 2.933 20.58-.883 38.875-9.48 57.672-16.77 2.209-4.746 4.049-9.681 5.598-14.666.497-1.601.729-5.619-1.999-5.491-44.99 2.105-90.742 5.062-135.453-1.933-3.128-.489-5.477 4.289-5.791 6.681-.719 5.496.084 10.71 1.899 15.586 9.756 4.56 19.952 8.324 30.406 11.118zm101.575-20.665a85.927 85.927 0 0 1-1.083 2.63c-.375-.81-1.062-1.357-2.207-1.359a849.239 849.239 0 0 1-19.934-.311c7.736-.332 15.478-.674 23.224-.96zM472.378 595.58a48.264 48.264 0 0 0-5.28 2.49 35.864 35.864 0 0 1-1.974-2.376c2.417-.054 4.835-.092 7.254-.114zm-15.883-11.374c-.145.039-.292.076-.433.129-.024-.063-.045-.127-.067-.19l.5.061z"/><path d="M423.233 560.934c26.629 17.427 61.276 21.464 92.386 21.463 17.074-.001 34.297-1.978 50.955-5.696 14.549-3.247 30.84-8.099 42.962-17.127 2.57-1.914 4.671-10.442-.586-7.713-13.326 6.919-26.463 12.232-41.174 15.591-16.581 3.785-33.565 5.184-50.541 5.401-30.16.387-63.95-3.364-90.526-18.741-2.744-1.588-6.159 5.066-3.476 6.822zm16.322 34.305c21.526 11.094 45.878 16.951 69.994 18.246 24.972 1.342 52.814-2.542 73.759-17.158 2.478-1.729 3.947-9.55-.525-6.939-22.129 12.912-46.709 17.12-72.121 15.811-23.195-1.196-46.727-6.574-67.759-16.529-2.787-1.321-6.08 5.162-3.348 6.569z"/><path fill="#F42A2A" d="M554.277 628.301c-6.685-5.409-17.504-7.905-23.924-.795-1.377 1.526-2.522 3.337-2.882 5.356-.396.128-.779.249-1.147.362-3.816 1.175-7.619 1.872-11.637 1.837-4.727-.042-9.157-1.956-13.606-3.312-10.043-3.058-19.25-1.21-28.883.483l-4.516-.944c-1.855-.388-3.538.661-4.78 2.326-1.287.101-2.587.071-3.874.021-2.785-.104-5.483 6.027-2.132 6.774a38.25 38.25 0 0 0 3.935.654c.168 1.275.665 2.388 1.574 3.099 15.187 11.878 32.905 19.316 52.425 18.371 9.881-.478 24.741-1.361 32.933-8.678 1.259 2.289 3.919 2.268 6.264.068 7.898-7.409 8.928-18.599.25-25.622z"/><path d="M541.958 624.675c-10.675-.741-21.579 3.878-28.914 11.593-6.271-8.172-16.097-13.238-26.391-13.624-10.842-.404-20.827 5.011-28.635 12.1-2.107 1.913-1.764 7.393 1.586 4.56 7.348-6.209 16.231-10.081 25.958-9.549 9.687.529 17.172 6.09 23.924 12.531.282.269.577.42.871.486.602 1.007 1.878 1.211 3.395-.592 6.146-7.312 16.59-10.723 25.915-10.228a22.782 22.782 0 0 1 12.582 4.576c4.59 3.45 5.545 8.674 6.952 13.842 1.047 3.845 4.973-2.12 5.004-3.887.222-12.613-10.544-20.996-22.247-21.808z"/><path d="M579.309 598.999c-.17.264-.364.507-.549.76-.84-.452-1.957-.4-3.041.232-5.13 2.989-9.986 6.438-15.068 9.422-2.374.531-4.709.939-6.856 1.298-11.196 1.868-22.719 1.839-34.038 1.781-9.763-.05-19.939.25-29.959-.302.447-2.112.106-4.092-2.16-4.148-12.587-.317-23.974-9.32-36.664-7.535-.476.066-.944.281-1.393.583a55.149 55.149 0 0 1-7.119-5.473c-2.789-2.534-6.747 3.986-4.69 6.333a52.872 52.872 0 0 0 3.721 3.833c-.706 1.551-1.12 3.141-1.103 3.949.208 9.637 5.148 24.862 17.422 22.829 2.832-.468 5.353-1.715 7.959-2.861 3.477-1.53 6.996-2.306 10.794-2.445 7.125-.263 14.082 2.392 20.953 3.876 2.884.625 5.801.941 8.736 1.026-.53 2.904.345 5.376 3.898 3.611 4.276-2.123 9.422-4.103 14.873-5.518 2.17-.424 4.333-.889 6.483-1.369 13.684-2.204 27.895-.001 34.484 12.949 1.896 3.728 5.79-.497 6.465-2.962 3.565-13.008 10.045-25.048 11.954-38.515.538-3.782-3.309-4.155-5.102-1.354zm-12.637 28.297a16.364 16.364 0 0 0 3.927-1.625 293.835 293.835 0 0 0-1.619 4.244 29.622 29.622 0 0 0-2.308-2.619z"/><path d="M436.492 567.443c-2.177 22.854.273 46.235 11.686 66.499 8.895 15.793 23.766 27.783 41.107 33.009 17.676 5.325 38.029 3.361 54.972-3.642 16.874-6.974 29.74-20.269 37.655-36.565 4.205-8.658 6.836-17.961 8.64-27.386 2.064-10.782 3.481-22.968 2.06-33.898-.687-5.282-6.197.012-6.452 2.971-.995 11.553-.907 22.927-3.146 34.38-1.839 9.407-5.144 18.511-9.961 26.8-9.169 15.776-25.248 24.961-42.745 28.547-18.326 3.757-37.415 1.825-53.543-7.974-17.115-10.398-27.514-28.506-32.161-47.566-2.931-12.021-3.235-24.669-2.247-36.947.443-5.524-5.52-1.854-5.865 1.772zM323.873 379.876c9.956-9.609 23.414-13.47 36.566-16.512 13.583-3.142 28.09-3.634 41.785-.962 17.411 3.395 28.55-36.288 13.683-35.897-37.138.978-75.068 12.418-96.197 45.088-2.814 4.352-2.417 14.632 4.163 8.283zm391.672-21.785c-8.243-14.72-21.641-27.182-37.414-33.368-15.361-6.027-32.826-8.606-49.262-9.068-15.901-.446-23.874 38.807-10.882 36.433 15.729-2.875 31.462-2.91 47.117.571 15.056 3.345 30.369 7.482 42.443 17.573 5.211 4.354 10.274-8.074 7.998-12.141z"/><path fill="#FFF" d="M463.783 460.681c0 33.604-35.116 60.845-78.435 60.845-43.317 0-78.433-27.242-78.433-60.845 0-33.604-12.118-46.238 30.898-51.339 120.265-14.261 125.97 17.735 125.97 51.339zm104.906-10.459c0 33.604 35.114 60.846 78.434 60.846 43.317 0 78.433-27.242 78.433-60.846 0-33.603 12.118-46.237-30.898-51.338-120.265-14.26-125.969 17.735-125.969 51.338z"/><path d="M624.547 458.79c10.865-23.713 50.902-26.145 55.737 3.175 3.586-3.302 7.171-6.6 10.755-9.899-3.523-20.506-23.644-30.863-43.139-29.269-20.164 1.646-41.448 22.196-36.271 43.629 1.764 7.293 9.768-3.308 10.392-6.058 1.511-6.648 1.761-11.23 7.489-15.355 5.55-3.995 13.002-4.989 19.646-4.977 14.66.025 28.516 8.692 31.402 23.539.791 4.067 5.372 1.643 6.999-.142 2.76-3.025 4.287-7.32 3.482-11.367-3.476-17.543-17.424-28.013-35.26-25.893-17.153 2.036-30.549 15.906-35.804 31.749-1.562 4.711 2.919 4.476 4.572.868zm-271.705 3.672c10.863-23.714 50.901-26.147 55.736 3.174l10.755-9.899c-3.522-20.505-23.644-30.863-43.139-29.27-20.164 1.648-41.449 22.196-36.271 43.631 1.762 7.291 9.767-3.309 10.391-6.057 1.511-6.65 1.761-11.231 7.489-15.355 5.551-3.998 13.003-4.991 19.646-4.977 14.66.025 28.517 8.69 31.403 23.538.79 4.065 5.371 1.643 6.997-.144 2.762-3.025 4.287-7.32 3.483-11.366-3.476-17.542-17.424-28.012-35.259-25.894-17.154 2.037-30.549 15.906-35.805 31.75-1.56 4.712 2.92 4.478 4.574.869z"/><path fill="#2695F9" stroke="#000" stroke-width="8" stroke-miterlimit="10" d="M486.299 428.178c-.409-5.386-1.68-10.467-3.778-15.111a188.848 188.848 0 0 0-1.276-7.125c-.726-3.628-3.872-5.977-7.61-5.591-10.994-10.923-26.386-15.259-37.613-16.967-6.562-.998-13.539-1.504-20.734-1.504-16.062 0-33.522 2.399-54.948 7.55-11.91 2.863-22.428 5.997-32.15 9.577a301.233 301.233 0 0 0-23.703 8.514c-8.049 3.283-17.431 7.398-25.984 13.035-3.36 2.215-5.683 5.979-6.213 10.07-.278 2.158.145 5.529 2.257 7.93 1.291 1.469 3.012 2.335 4.895 2.476.323 11.867 2.272 23.168 5.733 33.604l.006 2.009.281-1.155c4.982 14.61 12.95 27.493 23.581 37.825 17.509 17.014 42.563 27.309 68.74 28.245 1.294.047 2.607.071 3.897.071h.004c24.514 0 48.235-8.236 66.792-23.189 18.151-14.625 30.421-36.577 34.567-61.825 2.829-10.068 3.924-19.634 3.256-28.439zm-178.523 10.137c-.13-1.998-.263-4.047-.315-6.051 1.523-1.17 3.269-2.287 5.212-3.335 54.137-27.193 110.229-20.538 130.837-12.293.939.376 1.967.398 2.904.615 7.867 4.727 12.787 12.054 13.875 20.686.757 6.013.251 12.692-1.506 19.856-3.556 17.148-8.901 30.252-14.562 37.314-9.73 12.142-24.953 20.009-46.538 24.049-.944.068-5.163.229-6.334.229-15.098 0-30.182-3.554-43.636-10.275-17.151-11.364-38.897-36.069-39.837-58.998.161-.856.248-1.716.257-2.566.039-3.154-.162-6.239-.357-9.231zm241.346 9.907c4.146 25.25 16.417 47.201 34.567 61.826 18.558 14.955 42.278 23.189 66.793 23.189h.004c1.291 0 2.602-.023 3.896-.07 26.177-.937 51.23-11.232 68.74-28.246 10.631-10.33 18.599-23.214 23.581-37.823l.28 1.155.007-2.009c3.46-10.435 5.409-21.736 5.732-33.603 1.883-.14 3.604-1.008 4.895-2.476 2.111-2.401 2.536-5.772 2.258-7.931-.53-4.09-2.853-7.854-6.213-10.07-8.554-5.635-17.935-9.752-25.984-13.035a301.082 301.082 0 0 0-23.703-8.513c-9.723-3.581-20.24-6.714-32.15-9.577-21.427-5.151-38.886-7.549-54.948-7.549-7.197 0-14.172.506-20.734 1.502-11.228 1.708-26.619 6.045-37.613 16.968-3.738-.386-6.885 1.963-7.61 5.592a190.946 190.946 0 0 0-1.276 7.126c-2.099 4.644-3.368 9.724-3.777 15.11-.67 8.802.426 18.37 3.255 28.434zm174.909-9.069c.01.851.098 1.71.258 2.568-.94 22.926-22.687 47.632-39.838 58.996-13.453 6.722-28.537 10.274-43.636 10.274-1.171 0-5.39-.158-6.334-.227-21.584-4.04-36.808-11.909-46.538-24.049-5.66-7.062-11.004-20.166-14.562-37.314-1.757-7.164-2.263-13.843-1.506-19.856 1.089-8.632 6.009-15.959 13.875-20.686.938-.216 1.965-.239 2.904-.616 20.607-8.243 76.699-14.898 130.837 12.294 1.942 1.049 3.688 2.166 5.212 3.334-.052 2.005-.185 4.054-.315 6.052-.194 2.993-.396 6.078-.357 9.23z"/><path fill="#2695F9" d="M553.783 431.841c-1.123-16.684-20.563-24.647-35.043-25.03-14.692-.39-33.873 5.062-40.082 19.916-1.013 2.421-3.856 15.638 1.088 13.103 21.748-11.156 37.322-13.89 54.762-8.035 1.101 4.002 16.164 13.539 20.225 14.625 5.203 1.391-.648-10.108-.95-14.579z"/><path d="M489.177 442.749c6.367-9.335 18.023-11.871 28.689-10.515 11.408 1.451 21.065 8.279 25.85 18.716 1.924 4.2 6.293-2.503 5.558-5.257-3.407-12.777-16.554-19.883-28.817-21.69-13.267-1.954-27.134 3.273-34.531 14.679-.889 1.369-1.945 3.688-.727 5.209 1.17 1.459 3.22-.031 3.978-1.142zm-7.081-21.551c17.6-11.751 41.5-21.022 59.717-5.251 3.386 2.932 8.322-5.112 5.56-7.504-20.476-17.725-46.247-7.811-65.776 6.157-1.568 1.123-2.717 3.052-2.566 5.036.126 1.675 1.609 2.533 3.065 1.562z"/></svg>